<?xml version="1.0" encoding="UTF-8" standalone="no"?>
<!DOCTYPE svg PUBLIC "-//W3C//DTD SVG 1.1//EN"
 "http://www.w3.org/Graphics/SVG/1.1/DTD/svg11.dtd">
<!-- Generated by graphviz version 2.38.0 (20140413.2041)
 -->
<!-- Title: QueryUtility Pages: 1 -->
<!--zoomable 616 -->
<svg id="main" version="1.1" xmlns="http://www.w3.org/2000/svg" xmlns:xlink="http://www.w3.org/1999/xlink" xml:space="preserve" onload="init(evt)">
<style type="text/css"><![CDATA[
.edge:hover path { stroke: red; }
.edge:hover polygon { stroke: red; fill: red; }
]]></style>
<script type="text/javascript"><![CDATA[
var edges = document.getElementsByTagName('g');
if (edges && edges.length) {
  for (var i=0;i<edges.length;i++) {
    if (edges[i].id.substr(0,4)=='edge') {
      edges[i].setAttribute('class','edge');
    }
  }
}
]]></script>
        <defs>
                <circle id="rim" cx="0" cy="0" r="7"/>
                <circle id="rim2" cx="0" cy="0" r="3.5"/>
                <g id="zoomPlus">
                        <use xlink:href="#rim" fill="#404040">
                                <set attributeName="fill" to="#808080" begin="zoomplus.mouseover" end="zoomplus.mouseout"/>
                        </use>
                        <path d="M-4,0h8M0,-4v8" fill="none" stroke="white" stroke-width="1.5" pointer-events="none"/>
                </g>
                <g id="zoomMin">
                        <use xlink:href="#rim" fill="#404040">
                                <set attributeName="fill" to="#808080" begin="zoomminus.mouseover" end="zoomminus.mouseout"/>
                        </use>
                        <path d="M-4,0h8" fill="none" stroke="white" stroke-width="1.5" pointer-events="none"/>
                </g>
                <g id="dirArrow">
                        <path fill="none" stroke="white" stroke-width="1.5" d="M0,-3.0v7 M-2.5,-0.5L0,-3.0L2.5,-0.5"/>
                </g>
               <g id="resetDef">
                       <use xlink:href="#rim2" fill="#404040">
                               <set attributeName="fill" to="#808080" begin="reset.mouseover" end="reset.mouseout"/>
                       </use>
               </g>
        </defs>

<script type="text/javascript">
var viewWidth = 1913;
var viewHeight = 616;
var sectionId = 'dynsection-1';
</script>
<script xlink:href="svgpan.js"/>
<svg id="graph" class="graph">
<g id="viewport">
<title>QueryUtility</title>
<polygon fill="white" stroke="none" points="-4,4 -4,-612 1909,-612 1909,4 -4,4"/>
<!-- Node1 -->
<g id="node1" class="node"><title>Node1</title>
<polygon fill="#bfbfbf" stroke="black" points="0,-294.5 0,-313.5 72,-313.5 72,-294.5 0,-294.5"/>
<text text-anchor="middle" x="36" y="-301.5" font-family="Helvetica,sans-Serif" font-size="10.00">QueryUtility</text>
</g>
<!-- Node2 -->
<g id="node2" class="node"><title>Node2</title>
<g id="a_node2"><a xlink:href="classcom_1_1tomoparts_1_1tomoBay_1_1model_1_1sql_1_1framework_1_1QueryUtility.html#aca3b74b8ac7e194a86c0b896a674e2f2" target="_top" xlink:title="set an Integer parameter for the query object specified. ">
<polygon fill="white" stroke="black" points="108,-294.5 108,-313.5 212,-313.5 212,-294.5 108,-294.5"/>
<text text-anchor="middle" x="160" y="-301.5" font-family="Helvetica,sans-Serif" font-size="10.00">setINTEGERParam</text>
</a>
</g>
</g>
<!-- Node1&#45;&gt;Node2 -->
<g id="edge1" class="edge"><title>Node1&#45;&gt;Node2</title>
<path fill="none" stroke="midnightblue" d="M72.2875,-304C80.2792,-304 88.9918,-304 97.7121,-304"/>
<polygon fill="midnightblue" stroke="midnightblue" points="97.91,-307.5 107.91,-304 97.9099,-300.5 97.91,-307.5"/>
</g>
<!-- Node3 -->
<g id="node3" class="node"><title>Node3</title>
<g id="a_node3"><a xlink:href="classcom_1_1tomoparts_1_1tomoBay_1_1model_1_1sql_1_1framework_1_1queryTypes_1_1AbstractDBQuery.html#a41678b13e84de4335130f10cea7ae562" target="_top" xlink:title="get the statement object associated with this query ">
<polygon fill="white" stroke="black" points="1329,-137 1329,-167 1599,-167 1599,-137 1329,-137"/>
<text text-anchor="start" x="1337" y="-155" font-family="Helvetica,sans-Serif" font-size="10.00">com.tomoparts.tomoBay.model.sql.framework.query</text>
<text text-anchor="middle" x="1464" y="-144" font-family="Helvetica,sans-Serif" font-size="10.00">Types.AbstractDBQuery.statement</text>
</a>
</g>
</g>
<!-- Node2&#45;&gt;Node3 -->
<g id="edge2" class="edge"><title>Node2&#45;&gt;Node3</title>
<path fill="none" stroke="midnightblue" d="M164.209,-294.23C181.971,-242.195 273.381,-0 436,-0 436,-0 436,-0 1113,-0 1195.36,-0 1217.24,-11.7128 1293,-44 1347.18,-67.0914 1403.67,-106.554 1435.96,-130.846"/>
<polygon fill="midnightblue" stroke="midnightblue" points="1433.94,-133.708 1444.02,-136.973 1438.18,-128.135 1433.94,-133.708"/>
</g>
<!-- Node5 -->
<g id="node5" class="node"><title>Node5</title>
<g id="a_node5"><a xlink:href="classcom_1_1tomoparts_1_1tomoBay_1_1model_1_1dataTypes_1_1heteroTypeContainer_1_1HeteroFieldContainer.html#a988363ab964d6dc0ccb8560bef5895b6" target="_top" xlink:title="retrieve the the value of an AbstractField from this HeteroFieldContainer, the field should be of the...">
<polygon fill="white" stroke="black" points="1361,-435.5 1361,-476.5 1567,-476.5 1567,-435.5 1361,-435.5"/>
<text text-anchor="start" x="1369" y="-464.5" font-family="Helvetica,sans-Serif" font-size="10.00">com.tomoparts.tomoBay.model.data</text>
<text text-anchor="start" x="1369" y="-453.5" font-family="Helvetica,sans-Serif" font-size="10.00">Types.heteroTypeContainer.HeteroField</text>
<text text-anchor="middle" x="1464" y="-442.5" font-family="Helvetica,sans-Serif" font-size="10.00">Container.get</text>
</a>
</g>
</g>
<!-- Node2&#45;&gt;Node5 -->
<g id="edge4" class="edge"><title>Node2&#45;&gt;Node5</title>
<path fill="none" stroke="midnightblue" d="M164.209,-313.77C181.971,-365.805 273.381,-608 436,-608 436,-608 436,-608 1113,-608 1195.46,-608 1217.16,-595.368 1293,-563 1342.76,-541.764 1394.64,-506.972 1427.8,-482.852"/>
<polygon fill="midnightblue" stroke="midnightblue" points="1430.24,-485.401 1436.22,-476.659 1426.09,-479.761 1430.24,-485.401"/>
</g>
<!-- Node7 -->
<g id="node7" class="node"><title>Node7</title>
<g id="a_node7"><a xlink:href="classcom_1_1tomoparts_1_1tomoBay_1_1model_1_1sql_1_1framework_1_1QueryUtility.html#a3249b16421a9902f2248cb86d4dd3be3" target="_top" xlink:title="set an Integer parameter for the query object specified. ">
<polygon fill="white" stroke="black" points="248,-294.5 248,-313.5 358,-313.5 358,-294.5 248,-294.5"/>
<text text-anchor="middle" x="303" y="-301.5" font-family="Helvetica,sans-Serif" font-size="10.00">setVARCHARParam</text>
</a>
</g>
</g>
<!-- Node2&#45;&gt;Node7 -->
<g id="edge6" class="edge"><title>Node2&#45;&gt;Node7</title>
<path fill="none" stroke="midnightblue" d="M212.303,-304C220.476,-304 229.022,-304 237.453,-304"/>
<polygon fill="midnightblue" stroke="midnightblue" points="237.648,-307.5 247.648,-304 237.648,-300.5 237.648,-307.5"/>
</g>
<!-- Node4 -->
<g id="node4" class="node"><title>Node4</title>
<g id="a_node4"><a xlink:href="classcom_1_1tomoparts_1_1tomoBay_1_1model_1_1sql_1_1framework_1_1queryTypes_1_1AbstractDBQuery.html#ae8a5c5f1701ee77ef658050c8345d518" target="_top" xlink:title="Used by derived classes to define the Query string to be used in the query. ">
<polygon fill="white" stroke="black" points="1635,-137 1635,-167 1905,-167 1905,-137 1635,-137"/>
<text text-anchor="start" x="1643" y="-155" font-family="Helvetica,sans-Serif" font-size="10.00">com.tomoparts.tomoBay.model.sql.framework.query</text>
<text text-anchor="middle" x="1770" y="-144" font-family="Helvetica,sans-Serif" font-size="10.00">Types.AbstractDBQuery.queryString</text>
</a>
</g>
</g>
<!-- Node3&#45;&gt;Node4 -->
<g id="edge3" class="edge"><title>Node3&#45;&gt;Node4</title>
<path fill="none" stroke="midnightblue" d="M1599.22,-152C1607.59,-152 1616.03,-152 1624.44,-152"/>
<polygon fill="midnightblue" stroke="midnightblue" points="1624.68,-155.5 1634.68,-152 1624.68,-148.5 1624.68,-155.5"/>
</g>
<!-- Node6 -->
<g id="node6" class="node"><title>Node6</title>
<g id="a_node6"><a xlink:href="classcom_1_1tomoparts_1_1tomoBay_1_1model_1_1dataTypes_1_1heteroTypeContainer_1_1HeteroFieldContainer.html#a9dee3c01eb5ab16203e1c6820a569484" target="_top" xlink:title="performs a type check, assuming that field and type are of the same type then this method returns tru...">
<polygon fill="white" stroke="black" points="1667,-435.5 1667,-476.5 1873,-476.5 1873,-435.5 1667,-435.5"/>
<text text-anchor="start" x="1675" y="-464.5" font-family="Helvetica,sans-Serif" font-size="10.00">com.tomoparts.tomoBay.model.data</text>
<text text-anchor="start" x="1675" y="-453.5" font-family="Helvetica,sans-Serif" font-size="10.00">Types.heteroTypeContainer.HeteroField</text>
<text text-anchor="middle" x="1770" y="-442.5" font-family="Helvetica,sans-Serif" font-size="10.00">Container.isSameType</text>
</a>
</g>
</g>
<!-- Node5&#45;&gt;Node6 -->
<g id="edge5" class="edge"><title>Node5&#45;&gt;Node6</title>
<path fill="none" stroke="midnightblue" d="M1567.07,-456C1595.85,-456 1627.31,-456 1656.65,-456"/>
<polygon fill="midnightblue" stroke="midnightblue" points="1656.94,-459.5 1666.94,-456 1656.94,-452.5 1656.94,-459.5"/>
</g>
<!-- Node7&#45;&gt;Node3 -->
<g id="edge7" class="edge"><title>Node7&#45;&gt;Node3</title>
<path fill="none" stroke="midnightblue" d="M307.696,-294.217C326.529,-246.228 416.645,-38 562.5,-38 562.5,-38 562.5,-38 1113,-38 1233.05,-38 1365.38,-99.3871 1427.32,-132.068"/>
<polygon fill="midnightblue" stroke="midnightblue" points="1425.83,-135.236 1436.3,-136.862 1429.12,-129.062 1425.83,-135.236"/>
</g>
<!-- Node7&#45;&gt;Node5 -->
<g id="edge8" class="edge"><title>Node7&#45;&gt;Node5</title>
<path fill="none" stroke="midnightblue" d="M307.696,-313.783C326.529,-361.772 416.645,-570 562.5,-570 562.5,-570 562.5,-570 1113,-570 1226.75,-570 1351.52,-514.888 1417,-481.303"/>
<polygon fill="midnightblue" stroke="midnightblue" points="1418.96,-484.228 1426.22,-476.513 1415.73,-478.016 1418.96,-484.228"/>
</g>
<!-- Node8 -->
<g id="node8" class="node"><title>Node8</title>
<g id="a_node8"><a xlink:href="classcom_1_1tomoparts_1_1tomoBay_1_1model_1_1sql_1_1framework_1_1QueryUtility.html#a50955d4f51a1a7a88ef0c8aadbe9c793" target="_top" xlink:title="set an Integer parameter for the query object specified. ">
<polygon fill="white" stroke="black" points="394,-294.5 394,-313.5 480,-313.5 480,-294.5 394,-294.5"/>
<text text-anchor="middle" x="437" y="-301.5" font-family="Helvetica,sans-Serif" font-size="10.00">setBYTEParam</text>
</a>
</g>
</g>
<!-- Node7&#45;&gt;Node8 -->
<g id="edge9" class="edge"><title>Node7&#45;&gt;Node8</title>
<path fill="none" stroke="midnightblue" d="M358.07,-304C366.574,-304 375.351,-304 383.811,-304"/>
<polygon fill="midnightblue" stroke="midnightblue" points="383.934,-307.5 393.934,-304 383.934,-300.5 383.934,-307.5"/>
</g>
<!-- Node8&#45;&gt;Node3 -->
<g id="edge10" class="edge"><title>Node8&#45;&gt;Node3</title>
<path fill="none" stroke="midnightblue" d="M442.634,-294.493C464.402,-251.343 561.095,-76 695,-76 695,-76 695,-76 1113,-76 1221.46,-76 1344.6,-111.281 1412.07,-133.766"/>
<polygon fill="midnightblue" stroke="midnightblue" points="1411.02,-137.105 1421.61,-136.985 1413.25,-130.472 1411.02,-137.105"/>
</g>
<!-- Node8&#45;&gt;Node5 -->
<g id="edge11" class="edge"><title>Node8&#45;&gt;Node5</title>
<path fill="none" stroke="midnightblue" d="M442.634,-313.507C464.402,-356.657 561.095,-532 695,-532 695,-532 695,-532 1113,-532 1213.07,-532 1325.64,-501.966 1395.44,-479.659"/>
<polygon fill="midnightblue" stroke="midnightblue" points="1396.57,-482.974 1405.01,-476.567 1394.41,-476.314 1396.57,-482.974"/>
</g>
<!-- Node9 -->
<g id="node9" class="node"><title>Node9</title>
<g id="a_node9"><a xlink:href="classcom_1_1tomoparts_1_1tomoBay_1_1model_1_1sql_1_1framework_1_1QueryUtility.html#a138f0c046bc0a6df71b168ab35c3c3e3" target="_top" xlink:title="set an Integer parameter for the query object specified. ">
<polygon fill="white" stroke="black" points="516,-294.5 516,-313.5 611,-313.5 611,-294.5 516,-294.5"/>
<text text-anchor="middle" x="563.5" y="-301.5" font-family="Helvetica,sans-Serif" font-size="10.00">setBIGINTParam</text>
</a>
</g>
</g>
<!-- Node8&#45;&gt;Node9 -->
<g id="edge12" class="edge"><title>Node8&#45;&gt;Node9</title>
<path fill="none" stroke="midnightblue" d="M480.15,-304C488.275,-304 496.911,-304 505.418,-304"/>
<polygon fill="midnightblue" stroke="midnightblue" points="505.687,-307.5 515.687,-304 505.687,-300.5 505.687,-307.5"/>
</g>
<!-- Node9&#45;&gt;Node3 -->
<g id="edge13" class="edge"><title>Node9&#45;&gt;Node3</title>
<path fill="none" stroke="midnightblue" d="M571.307,-294.317C599.403,-255.598 710.911,-114 839,-114 839,-114 839,-114 1113,-114 1198.05,-114 1294.06,-125.228 1363.98,-135.478"/>
<polygon fill="midnightblue" stroke="midnightblue" points="1363.69,-138.974 1374.1,-136.981 1364.72,-132.05 1363.69,-138.974"/>
</g>
<!-- Node9&#45;&gt;Node5 -->
<g id="edge14" class="edge"><title>Node9&#45;&gt;Node5</title>
<path fill="none" stroke="midnightblue" d="M571.307,-313.683C599.403,-352.402 710.911,-494 839,-494 839,-494 839,-494 1113,-494 1192.81,-494 1282.26,-484.113 1350.76,-474.426"/>
<polygon fill="midnightblue" stroke="midnightblue" points="1351.31,-477.883 1360.71,-472.999 1350.31,-470.954 1351.31,-477.883"/>
</g>
<!-- Node10 -->
<g id="node10" class="node"><title>Node10</title>
<g id="a_node10"><a xlink:href="classcom_1_1tomoparts_1_1tomoBay_1_1model_1_1sql_1_1framework_1_1QueryUtility.html#a56a65ac583b8720ae73dc81278e5690e" target="_top" xlink:title="set an Integer parameter for the query object specified. ">
<polygon fill="white" stroke="black" points="647,-294.5 647,-313.5 745,-313.5 745,-294.5 647,-294.5"/>
<text text-anchor="middle" x="696" y="-301.5" font-family="Helvetica,sans-Serif" font-size="10.00">setTINYINTParam</text>
</a>
</g>
</g>
<!-- Node9&#45;&gt;Node10 -->
<g id="edge15" class="edge"><title>Node9&#45;&gt;Node10</title>
<path fill="none" stroke="midnightblue" d="M611.245,-304C619.46,-304 628.102,-304 636.588,-304"/>
<polygon fill="midnightblue" stroke="midnightblue" points="636.822,-307.5 646.822,-304 636.822,-300.5 636.822,-307.5"/>
</g>
<!-- Node10&#45;&gt;Node3 -->
<g id="edge16" class="edge"><title>Node10&#45;&gt;Node3</title>
<path fill="none" stroke="midnightblue" d="M706.218,-294.492C739.514,-261.215 857.976,-152 978.5,-152 978.5,-152 978.5,-152 1113,-152 1180.63,-152 1255.61,-152 1318.76,-152"/>
<polygon fill="midnightblue" stroke="midnightblue" points="1318.79,-155.5 1328.79,-152 1318.79,-148.5 1318.79,-155.5"/>
</g>
<!-- Node10&#45;&gt;Node5 -->
<g id="edge17" class="edge"><title>Node10&#45;&gt;Node5</title>
<path fill="none" stroke="midnightblue" d="M706.218,-313.508C739.514,-346.785 857.976,-456 978.5,-456 978.5,-456 978.5,-456 1113,-456 1192.33,-456 1281.77,-456 1350.37,-456"/>
<polygon fill="midnightblue" stroke="midnightblue" points="1350.77,-459.5 1360.77,-456 1350.77,-452.5 1350.77,-459.5"/>
</g>
<!-- Node11 -->
<g id="node11" class="node"><title>Node11</title>
<g id="a_node11"><a xlink:href="classcom_1_1tomoparts_1_1tomoBay_1_1model_1_1sql_1_1framework_1_1QueryUtility.html#ab07d04299a96461dcf893416b8e32604" target="_top" xlink:title="set an Integer parameter for the query object specified. ">
<polygon fill="white" stroke="black" points="781,-294.5 781,-313.5 899,-313.5 899,-294.5 781,-294.5"/>
<text text-anchor="middle" x="840" y="-301.5" font-family="Helvetica,sans-Serif" font-size="10.00">setTIMESTAMPParam</text>
</a>
</g>
</g>
<!-- Node10&#45;&gt;Node11 -->
<g id="edge18" class="edge"><title>Node10&#45;&gt;Node11</title>
<path fill="none" stroke="midnightblue" d="M745.075,-304C753.344,-304 762.079,-304 770.759,-304"/>
<polygon fill="midnightblue" stroke="midnightblue" points="770.891,-307.5 780.891,-304 770.891,-300.5 770.891,-307.5"/>
</g>
<!-- Node11&#45;&gt;Node3 -->
<g id="edge19" class="edge"><title>Node11&#45;&gt;Node3</title>
<path fill="none" stroke="midnightblue" d="M872.985,-294.365C935.474,-275.723 1078.31,-234.004 1200,-205 1256.49,-191.536 1320.35,-178.614 1370.99,-168.901"/>
<polygon fill="midnightblue" stroke="midnightblue" points="1371.77,-172.315 1380.93,-167.002 1370.46,-165.439 1371.77,-172.315"/>
</g>
<!-- Node11&#45;&gt;Node5 -->
<g id="edge20" class="edge"><title>Node11&#45;&gt;Node5</title>
<path fill="none" stroke="midnightblue" d="M873.998,-313.602C937.049,-331.796 1079.14,-372.059 1200,-401 1249.34,-412.815 1304.23,-424.518 1351.04,-434.072"/>
<polygon fill="midnightblue" stroke="midnightblue" points="1350.41,-437.514 1360.91,-436.077 1351.8,-430.655 1350.41,-437.514"/>
</g>
<!-- Node12 -->
<g id="node12" class="node"><title>Node12</title>
<g id="a_node12"><a xlink:href="classcom_1_1tomoparts_1_1tomoBay_1_1model_1_1sql_1_1framework_1_1QueryUtility.html#a202aab30c77e06c32318efd5cf949ca3" target="_top" xlink:title="set an Integer parameter for the query object specified. ">
<polygon fill="white" stroke="black" points="935,-294.5 935,-313.5 1024,-313.5 1024,-294.5 935,-294.5"/>
<text text-anchor="middle" x="979.5" y="-301.5" font-family="Helvetica,sans-Serif" font-size="10.00">setDATEParam</text>
</a>
</g>
</g>
<!-- Node11&#45;&gt;Node12 -->
<g id="edge21" class="edge"><title>Node11&#45;&gt;Node12</title>
<path fill="none" stroke="midnightblue" d="M899.312,-304C907.65,-304 916.197,-304 924.447,-304"/>
<polygon fill="midnightblue" stroke="midnightblue" points="924.702,-307.5 934.702,-304 924.702,-300.5 924.702,-307.5"/>
</g>
<!-- Node12&#45;&gt;Node3 -->
<g id="edge22" class="edge"><title>Node12&#45;&gt;Node3</title>
<path fill="none" stroke="midnightblue" d="M1010.68,-294.492C1089.53,-269.653 1302.68,-202.505 1405.71,-170.048"/>
<polygon fill="midnightblue" stroke="midnightblue" points="1406.84,-173.361 1415.33,-167.018 1404.74,-166.685 1406.84,-173.361"/>
</g>
<!-- Node12&#45;&gt;Node5 -->
<g id="edge23" class="edge"><title>Node12&#45;&gt;Node5</title>
<path fill="none" stroke="midnightblue" d="M1010.68,-313.508C1085.28,-337.009 1280.11,-398.384 1388.14,-432.417"/>
<polygon fill="midnightblue" stroke="midnightblue" points="1387.09,-435.756 1397.68,-435.422 1389.19,-429.079 1387.09,-435.756"/>
</g>
<!-- Node13 -->
<g id="node13" class="node"><title>Node13</title>
<g id="a_node13"><a xlink:href="classcom_1_1tomoparts_1_1tomoBay_1_1model_1_1sql_1_1framework_1_1QueryUtility.html#a5677c2440b48e612fb51b57130555e5d" target="_top" xlink:title="set an Integer parameter for the query object specified. ">
<polygon fill="white" stroke="black" points="1060,-294.5 1060,-313.5 1164,-313.5 1164,-294.5 1060,-294.5"/>
<text text-anchor="middle" x="1112" y="-301.5" font-family="Helvetica,sans-Serif" font-size="10.00">setDOUBLEParam</text>
</a>
</g>
</g>
<!-- Node12&#45;&gt;Node13 -->
<g id="edge24" class="edge"><title>Node12&#45;&gt;Node13</title>
<path fill="none" stroke="midnightblue" d="M1024.32,-304C1032.51,-304 1041.22,-304 1049.83,-304"/>
<polygon fill="midnightblue" stroke="midnightblue" points="1049.85,-307.5 1059.85,-304 1049.85,-300.5 1049.85,-307.5"/>
</g>
<!-- Node13&#45;&gt;Node3 -->
<g id="edge25" class="edge"><title>Node13&#45;&gt;Node3</title>
<path fill="none" stroke="midnightblue" d="M1145.44,-294.495C1181.92,-283.422 1242.67,-263.835 1293,-242 1341.31,-221.044 1394.6,-191.761 1428.41,-172.357"/>
<polygon fill="midnightblue" stroke="midnightblue" points="1430.5,-175.193 1437.41,-167.162 1427,-169.13 1430.5,-175.193"/>
</g>
<!-- Node13&#45;&gt;Node5 -->
<g id="edge26" class="edge"><title>Node13&#45;&gt;Node5</title>
<path fill="none" stroke="midnightblue" d="M1145.44,-313.505C1181.92,-324.578 1242.67,-344.165 1293,-366 1337.15,-385.154 1385.47,-411.266 1419.27,-430.431"/>
<polygon fill="midnightblue" stroke="midnightblue" points="1417.55,-433.479 1427.97,-435.393 1421.02,-427.399 1417.55,-433.479"/>
</g>
<!-- Node14 -->
<g id="node14" class="node"><title>Node14</title>
<g id="a_node14"><a xlink:href="classcom_1_1tomoparts_1_1tomoBay_1_1model_1_1sql_1_1framework_1_1QueryUtility.html#adf8f1fea7b649baadeb0297c41be72f5" target="_top" xlink:title="set an Integer parameter for the query object specified. ">
<polygon fill="white" stroke="black" points="1200,-294.5 1200,-313.5 1293,-313.5 1293,-294.5 1200,-294.5"/>
<text text-anchor="middle" x="1246.5" y="-301.5" font-family="Helvetica,sans-Serif" font-size="10.00">setFLOATParam</text>
</a>
</g>
</g>
<!-- Node13&#45;&gt;Node14 -->
<g id="edge27" class="edge"><title>Node13&#45;&gt;Node14</title>
<path fill="none" stroke="midnightblue" d="M1164.23,-304C1172.51,-304 1181.13,-304 1189.52,-304"/>
<polygon fill="midnightblue" stroke="midnightblue" points="1189.6,-307.5 1199.6,-304 1189.6,-300.5 1189.6,-307.5"/>
</g>
<!-- Node14&#45;&gt;Node3 -->
<g id="edge28" class="edge"><title>Node14&#45;&gt;Node3</title>
<path fill="none" stroke="midnightblue" d="M1267.37,-294.392C1275.49,-290.246 1284.86,-285.167 1293,-280 1346.26,-246.206 1404.1,-200.551 1436.72,-173.89"/>
<polygon fill="midnightblue" stroke="midnightblue" points="1439.33,-176.272 1444.83,-167.22 1434.89,-170.864 1439.33,-176.272"/>
</g>
<!-- Node14&#45;&gt;Node5 -->
<g id="edge29" class="edge"><title>Node14&#45;&gt;Node5</title>
<path fill="none" stroke="midnightblue" d="M1267.37,-313.608C1275.49,-317.754 1284.86,-322.833 1293,-328 1342.9,-359.657 1396.8,-401.722 1430.23,-428.832"/>
<polygon fill="midnightblue" stroke="midnightblue" points="1428.31,-431.783 1438.28,-435.387 1432.74,-426.356 1428.31,-431.783"/>
</g>
</g>
</svg>
        <g id="navigator" transform="translate(0 0)" fill="#404254">
                <rect fill="#f2f5e9" fill-opacity="0.5" stroke="#606060" stroke-width=".5" x="0" y="0" width="60" height="60"/>
                <use id="zoomplus" xlink:href="#zoomPlus" x="17" y="9" onmousedown="handleZoom(evt,'in')"/>
                <use id="zoomminus" xlink:href="#zoomMin" x="42" y="9" onmousedown="handleZoom(evt,'out')"/>
                <use id="reset" xlink:href="#resetDef" x="30" y="36" onmousedown="handleReset()"/>
                <g id="arrowUp" xlink:href="#dirArrow" transform="translate(30 24)" onmousedown="handlePan(0,-1)">
                  <use xlink:href="#rim" fill="#404040">
                        <set attributeName="fill" to="#808080" begin="arrowUp.mouseover" end="arrowUp.mouseout"/>
                  </use>
                  <path fill="none" stroke="white" stroke-width="1.5" d="M0,-3.0v7 M-2.5,-0.5L0,-3.0L2.5,-0.5"/>
                </g>
                <g id="arrowRight" xlink:href="#dirArrow" transform="rotate(90) translate(36 -43)" onmousedown="handlePan(1,0)">
                  <use xlink:href="#rim" fill="#404040">
                        <set attributeName="fill" to="#808080" begin="arrowRight.mouseover" end="arrowRight.mouseout"/>
                  </use>
                  <path fill="none" stroke="white" stroke-width="1.5" d="M0,-3.0v7 M-2.5,-0.5L0,-3.0L2.5,-0.5"/>
                </g>
                <g id="arrowDown" xlink:href="#dirArrow" transform="rotate(180) translate(-30 -48)" onmousedown="handlePan(0,1)">
                  <use xlink:href="#rim" fill="#404040">
                        <set attributeName="fill" to="#808080" begin="arrowDown.mouseover" end="arrowDown.mouseout"/>
                  </use>
                  <path fill="none" stroke="white" stroke-width="1.5" d="M0,-3.0v7 M-2.5,-0.5L0,-3.0L2.5,-0.5"/>
                </g>
                <g id="arrowLeft" xlink:href="#dirArrow" transform="rotate(270) translate(-36 17)" onmousedown="handlePan(-1,0)">
                  <use xlink:href="#rim" fill="#404040">
                        <set attributeName="fill" to="#808080" begin="arrowLeft.mouseover" end="arrowLeft.mouseout"/>
                  </use>
                  <path fill="none" stroke="white" stroke-width="1.5" d="M0,-3.0v7 M-2.5,-0.5L0,-3.0L2.5,-0.5"/>
                </g>
        </g>
        <svg viewBox="0 0 15 15" width="100%" height="30px" preserveAspectRatio="xMaxYMin meet">
         <g id="arrow_out" transform="scale(0.3 0.3)">
          <a xlink:href="classcom_1_1tomoparts_1_1tomoBay_1_1model_1_1sql_1_1framework_1_1QueryUtility_a2da2ce60a8a037d55bdc69309db4815b_cgraph_org.svg" target="_base">
           <rect id="button" ry="5" rx="5" y="6" x="6" height="38" width="38"
                fill="#f2f5e9" fill-opacity="0.5" stroke="#606060" stroke-width="1.0"/>
           <path id="arrow"
             d="M 11.500037,31.436501 C 11.940474,20.09759 22.043105,11.32322 32.158766,21.979434 L 37.068811,17.246167 C 37.068811,17.246167 37.088388,32 37.088388,32 L 22.160133,31.978069 C 22.160133,31.978069 26.997745,27.140456 26.997745,27.140456 C 18.528582,18.264221 13.291696,25.230495 11.500037,31.436501 z"
             style="fill:#404040;"/>
          </a>
         </g>
        </svg>
</svg>
