<?xml version="1.0" encoding="UTF-8" standalone="no"?>
<!DOCTYPE svg PUBLIC "-//W3C//DTD SVG 1.1//EN"
 "http://www.w3.org/Graphics/SVG/1.1/DTD/svg11.dtd">
<!-- Generated by graphviz version 2.38.0 (20140413.2041)
 -->
<!-- Title: setRecipient Pages: 1 -->
<svg width="1239pt" height="173pt"
 viewBox="0.00 0.00 1239.00 172.50" xmlns="http://www.w3.org/2000/svg" xmlns:xlink="http://www.w3.org/1999/xlink">
<g id="graph0" class="graph" transform="scale(1 1) rotate(0) translate(4 168.5)">
<title>setRecipient</title>
<polygon fill="white" stroke="none" points="-4,4 -4,-168.5 1235,-168.5 1235,4 -4,4"/>
<!-- Node1 -->
<g id="node1" class="node"><title>Node1</title>
<polygon fill="#bfbfbf" stroke="black" points="0,-79 0,-98 75,-98 75,-79 0,-79"/>
<text text-anchor="middle" x="37.5" y="-86" font-family="Helvetica,sans-Serif" font-size="10.00">setRecipient</text>
</g>
<!-- Node2 -->
<g id="node2" class="node"><title>Node2</title>
<g id="a_node2"><a xlink:href="classcom_1_1tomoparts_1_1tomoBay_1_1model_1_1services_1_1emailErrorsService_1_1EmailErrorsMailActions.html#a6821a16486f28486b3191bb50a167262" target="_top" xlink:title="add a recipient to the email ">
<polygon fill="white" stroke="black" points="122,-123 122,-164 364,-164 364,-123 122,-123"/>
<text text-anchor="start" x="130" y="-152" font-family="Helvetica,sans-Serif" font-size="10.00">com.tomoparts.tomoBay.model.services.email</text>
<text text-anchor="start" x="130" y="-141" font-family="Helvetica,sans-Serif" font-size="10.00">ErrorsService.EmailErrorsMailActions.add</text>
<text text-anchor="middle" x="243" y="-130" font-family="Helvetica,sans-Serif" font-size="10.00">Recipient</text>
</a>
</g>
</g>
<!-- Node1&#45;&gt;Node2 -->
<g id="edge1" class="edge"><title>Node1&#45;&gt;Node2</title>
<path fill="none" stroke="midnightblue" d="M73.6252,-101.459C85.4179,-105.582 98.6993,-109.982 111,-113.5 122.553,-116.804 134.759,-119.993 146.888,-122.98"/>
<polygon fill="midnightblue" stroke="midnightblue" points="74.7184,-98.1328 64.1237,-98.0854 72.3764,-104.729 74.7184,-98.1328"/>
</g>
<!-- Node6 -->
<g id="node6" class="node"><title>Node6</title>
<g id="a_node6"><a xlink:href="classcom_1_1tomoparts_1_1tomoBay_1_1test_1_1unit_1_1model_1_1net_1_1email_1_1EmailTest.html#a8b260eecbaabcef8473fd87ada040682" target="_top" xlink:title="com.tomoparts.tomoBay.test.unit.model.net.email.\lEmailTest.main">
<polygon fill="white" stroke="black" points="111,-73.5 111,-103.5 375,-103.5 375,-73.5 111,-73.5"/>
<text text-anchor="start" x="119" y="-91.5" font-family="Helvetica,sans-Serif" font-size="10.00">com.tomoparts.tomoBay.test.unit.model.net.email.</text>
<text text-anchor="middle" x="243" y="-80.5" font-family="Helvetica,sans-Serif" font-size="10.00">EmailTest.main</text>
</a>
</g>
</g>
<!-- Node1&#45;&gt;Node6 -->
<g id="edge5" class="edge"><title>Node1&#45;&gt;Node6</title>
<path fill="none" stroke="midnightblue" d="M85.4022,-88.5C93.3454,-88.5 101.925,-88.5 110.833,-88.5"/>
<polygon fill="midnightblue" stroke="midnightblue" points="85.3523,-85.0001 75.3523,-88.5 85.3523,-92.0001 85.3523,-85.0001"/>
</g>
<!-- Node7 -->
<g id="node7" class="node"><title>Node7</title>
<g id="a_node7"><a xlink:href="classcom_1_1tomoparts_1_1tomoBay_1_1model_1_1net_1_1email_1_1MailClient.html#ab932ccc2020ca1398b5eb546e77a8d63" target="_top" xlink:title="set up the email ready to use in the rest of the mail client ">
<polygon fill="white" stroke="black" points="132.5,-24.5 132.5,-54.5 353.5,-54.5 353.5,-24.5 132.5,-24.5"/>
<text text-anchor="start" x="140.5" y="-42.5" font-family="Helvetica,sans-Serif" font-size="10.00">com.tomoparts.tomoBay.model.net.email.</text>
<text text-anchor="middle" x="243" y="-31.5" font-family="Helvetica,sans-Serif" font-size="10.00">MailClient.setUpEmail</text>
</a>
</g>
</g>
<!-- Node1&#45;&gt;Node7 -->
<g id="edge6" class="edge"><title>Node1&#45;&gt;Node7</title>
<path fill="none" stroke="midnightblue" d="M74.2291,-75.6399C85.8589,-71.7324 98.8911,-67.6452 111,-64.5 125.006,-60.862 139.982,-57.5103 154.618,-54.5218"/>
<polygon fill="midnightblue" stroke="midnightblue" points="72.7532,-72.4459 64.4284,-78.9994 75.023,-79.0676 72.7532,-72.4459"/>
</g>
<!-- Node3 -->
<g id="node3" class="node"><title>Node3</title>
<g id="a_node3"><a xlink:href="classcom_1_1tomoparts_1_1tomoBay_1_1model_1_1services_1_1emailErrorsService_1_1EmailErrorsMailActions.html#ad1dbcb645114a23c7e2a441cb6ae9ca4" target="_top" xlink:title="handle the creation of the Email by passing in a map with the appropriate data inside it...">
<polygon fill="white" stroke="black" points="411,-128.5 411,-158.5 653,-158.5 653,-128.5 411,-128.5"/>
<text text-anchor="start" x="419" y="-146.5" font-family="Helvetica,sans-Serif" font-size="10.00">com.tomoparts.tomoBay.model.services.email</text>
<text text-anchor="middle" x="532" y="-135.5" font-family="Helvetica,sans-Serif" font-size="10.00">ErrorsService.EmailErrorsMailActions.loadData</text>
</a>
</g>
</g>
<!-- Node2&#45;&gt;Node3 -->
<g id="edge2" class="edge"><title>Node2&#45;&gt;Node3</title>
<path fill="none" stroke="midnightblue" d="M374.278,-143.5C386.499,-143.5 398.848,-143.5 410.969,-143.5"/>
<polygon fill="midnightblue" stroke="midnightblue" points="374.051,-140 364.051,-143.5 374.051,-147 374.051,-140"/>
</g>
<!-- Node4 -->
<g id="node4" class="node"><title>Node4</title>
<g id="a_node4"><a xlink:href="classcom_1_1tomoparts_1_1tomoBay_1_1model_1_1services_1_1emailErrorsService_1_1OnRunning.html#ae4a4f4cadce2787c7e80005639fbd5d9" target="_top" xlink:title="this method defines what to do in the given derived state ">
<polygon fill="white" stroke="black" points="700,-128.5 700,-158.5 942,-158.5 942,-128.5 700,-128.5"/>
<text text-anchor="start" x="708" y="-146.5" font-family="Helvetica,sans-Serif" font-size="10.00">com.tomoparts.tomoBay.model.services.email</text>
<text text-anchor="middle" x="821" y="-135.5" font-family="Helvetica,sans-Serif" font-size="10.00">ErrorsService.OnRunning.execute</text>
</a>
</g>
</g>
<!-- Node3&#45;&gt;Node4 -->
<g id="edge3" class="edge"><title>Node3&#45;&gt;Node4</title>
<path fill="none" stroke="midnightblue" d="M663.278,-143.5C675.499,-143.5 687.848,-143.5 699.969,-143.5"/>
<polygon fill="midnightblue" stroke="midnightblue" points="663.051,-140 653.051,-143.5 663.051,-147 663.051,-140"/>
</g>
<!-- Node5 -->
<g id="node5" class="node"><title>Node5</title>
<g id="a_node5"><a xlink:href="classcom_1_1tomoparts_1_1tomoBay_1_1model_1_1services_1_1emailErrorsService_1_1EmailErrorsService.html#ae3b0a282dcba7f2d675ca89b1dd48487" target="_top" xlink:title="com.tomoparts.tomoBay.model.services.email\lErrorsService.EmailErrorsService.onRunning">
<polygon fill="white" stroke="black" points="989,-128.5 989,-158.5 1231,-158.5 1231,-128.5 989,-128.5"/>
<text text-anchor="start" x="997" y="-146.5" font-family="Helvetica,sans-Serif" font-size="10.00">com.tomoparts.tomoBay.model.services.email</text>
<text text-anchor="middle" x="1110" y="-135.5" font-family="Helvetica,sans-Serif" font-size="10.00">ErrorsService.EmailErrorsService.onRunning</text>
</a>
</g>
</g>
<!-- Node4&#45;&gt;Node5 -->
<g id="edge4" class="edge"><title>Node4&#45;&gt;Node5</title>
<path fill="none" stroke="midnightblue" d="M952.278,-143.5C964.499,-143.5 976.848,-143.5 988.969,-143.5"/>
<polygon fill="midnightblue" stroke="midnightblue" points="952.051,-140 942.051,-143.5 952.051,-147 952.051,-140"/>
</g>
<!-- Node8 -->
<g id="node8" class="node"><title>Node8</title>
<g id="a_node8"><a xlink:href="classcom_1_1tomoparts_1_1tomoBay_1_1model_1_1net_1_1email_1_1MailClient.html#af9eddf4b6d3506f30b2f282c86c59ed6" target="_top" xlink:title="sends an email containing a message and subject. ">
<polygon fill="white" stroke="black" points="421.5,-24.5 421.5,-54.5 642.5,-54.5 642.5,-24.5 421.5,-24.5"/>
<text text-anchor="start" x="429.5" y="-42.5" font-family="Helvetica,sans-Serif" font-size="10.00">com.tomoparts.tomoBay.model.net.email.</text>
<text text-anchor="middle" x="532" y="-31.5" font-family="Helvetica,sans-Serif" font-size="10.00">MailClient.send</text>
</a>
</g>
</g>
<!-- Node7&#45;&gt;Node8 -->
<g id="edge7" class="edge"><title>Node7&#45;&gt;Node8</title>
<path fill="none" stroke="midnightblue" d="M363.927,-39.5C382.956,-39.5 402.553,-39.5 421.33,-39.5"/>
<polygon fill="midnightblue" stroke="midnightblue" points="363.731,-36.0001 353.731,-39.5 363.731,-43.0001 363.731,-36.0001"/>
</g>
<!-- Node9 -->
<g id="node9" class="node"><title>Node9</title>
<g id="a_node9"><a xlink:href="classcom_1_1tomoparts_1_1tomoBay_1_1model_1_1net_1_1email_1_1MailClient.html#a9a353e90e57af1d4968845017c4d6fa8" target="_top" xlink:title="com.tomoparts.tomoBay.model.net.email.\lMailClient.MailClient">
<polygon fill="white" stroke="black" points="710.5,-49.5 710.5,-79.5 931.5,-79.5 931.5,-49.5 710.5,-49.5"/>
<text text-anchor="start" x="718.5" y="-67.5" font-family="Helvetica,sans-Serif" font-size="10.00">com.tomoparts.tomoBay.model.net.email.</text>
<text text-anchor="middle" x="821" y="-56.5" font-family="Helvetica,sans-Serif" font-size="10.00">MailClient.MailClient</text>
</a>
</g>
</g>
<!-- Node8&#45;&gt;Node9 -->
<g id="edge8" class="edge"><title>Node8&#45;&gt;Node9</title>
<path fill="none" stroke="midnightblue" d="M652.927,-49.9466C671.956,-51.6041 691.553,-53.3112 710.33,-54.9469"/>
<polygon fill="midnightblue" stroke="midnightblue" points="652.997,-46.4395 642.731,-49.0584 652.389,-53.4131 652.997,-46.4395"/>
</g>
<!-- Node10 -->
<g id="node10" class="node"><title>Node10</title>
<g id="a_node10"><a xlink:href="classcom_1_1tomoparts_1_1tomoBay_1_1presenters_1_1presenterActions_1_1concreteActions_1_1InvoiceOrders.html#a9c77c827472e4f09aa020d55e7d33b10" target="_top" xlink:title="com.tomoparts.tomoBay.presenters.presenter\lActions.concreteActions.InvoiceOrders.emailResults">
<polygon fill="white" stroke="black" points="689,-0.5 689,-30.5 953,-30.5 953,-0.5 689,-0.5"/>
<text text-anchor="start" x="697" y="-18.5" font-family="Helvetica,sans-Serif" font-size="10.00">com.tomoparts.tomoBay.presenters.presenter</text>
<text text-anchor="middle" x="821" y="-7.5" font-family="Helvetica,sans-Serif" font-size="10.00">Actions.concreteActions.InvoiceOrders.emailResults</text>
</a>
</g>
</g>
<!-- Node8&#45;&gt;Node10 -->
<g id="edge9" class="edge"><title>Node8&#45;&gt;Node10</title>
<path fill="none" stroke="midnightblue" d="M653.021,-29.4634C664.804,-28.4781 676.804,-27.4746 688.691,-26.4805"/>
<polygon fill="midnightblue" stroke="midnightblue" points="652.404,-26.0027 642.731,-30.3239 652.988,-32.9783 652.404,-26.0027"/>
</g>
<!-- Node11 -->
<g id="node11" class="node"><title>Node11</title>
<g id="a_node11"><a xlink:href="classcom_1_1tomoparts_1_1tomoBay_1_1presenters_1_1presenterActions_1_1concreteActions_1_1InvoiceOrders.html#adb3dedf31dc2c7fc796f20406c235ccd" target="_top" xlink:title="performs the action specified ">
<polygon fill="white" stroke="black" points="989,-0.5 989,-30.5 1231,-30.5 1231,-0.5 989,-0.5"/>
<text text-anchor="start" x="997" y="-18.5" font-family="Helvetica,sans-Serif" font-size="10.00">com.tomoparts.tomoBay.presenters.presenter</text>
<text text-anchor="middle" x="1110" y="-7.5" font-family="Helvetica,sans-Serif" font-size="10.00">Actions.concreteActions.InvoiceOrders.execute</text>
</a>
</g>
</g>
<!-- Node10&#45;&gt;Node11 -->
<g id="edge10" class="edge"><title>Node10&#45;&gt;Node11</title>
<path fill="none" stroke="midnightblue" d="M963.581,-15.5C972.002,-15.5 980.432,-15.5 988.754,-15.5"/>
<polygon fill="midnightblue" stroke="midnightblue" points="963.321,-12.0001 953.321,-15.5 963.321,-19.0001 963.321,-12.0001"/>
</g>
</g>
</svg>
