<?xml version="1.0" encoding="UTF-8" standalone="no"?>
<!DOCTYPE svg PUBLIC "-//W3C//DTD SVG 1.1//EN"
 "http://www.w3.org/Graphics/SVG/1.1/DTD/svg11.dtd">
<!-- Generated by graphviz version 2.38.0 (20140413.2041)
 -->
<!-- Title: sslConnector Pages: 1 -->
<svg width="390pt" height="28pt"
 viewBox="0.00 0.00 390.00 28.00" xmlns="http://www.w3.org/2000/svg" xmlns:xlink="http://www.w3.org/1999/xlink">
<g id="graph0" class="graph" transform="scale(1 1) rotate(0) translate(4 24)">
<title>sslConnector</title>
<polygon fill="white" stroke="none" points="-4,4 -4,-24 386,-24 386,4 -4,4"/>
<!-- Node1 -->
<g id="node1" class="node"><title>Node1</title>
<polygon fill="#bfbfbf" stroke="black" points="0,-0.5 0,-19.5 79,-19.5 79,-0.5 0,-0.5"/>
<text text-anchor="middle" x="39.5" y="-7.5" font-family="Helvetica,sans-Serif" font-size="10.00">sslConnector</text>
</g>
<!-- Node2 -->
<g id="node2" class="node"><title>Node2</title>
<g id="a_node2"><a xlink:href="classcom_1_1tomoparts_1_1tomoBay_1_1view_1_1HttpServer.html#ae7f97f1bf228b80bf2c35a1cfe5c8c30" target="_top" xlink:title="This starts the http servlet with 2 context handler: 1 is a resource handler that is responsible for ...">
<polygon fill="white" stroke="black" points="115,-0.5 115,-19.5 154,-19.5 154,-0.5 115,-0.5"/>
<text text-anchor="middle" x="134.5" y="-7.5" font-family="Helvetica,sans-Serif" font-size="10.00">start</text>
</a>
</g>
</g>
<!-- Node1&#45;&gt;Node2 -->
<g id="edge1" class="edge"><title>Node1&#45;&gt;Node2</title>
<path fill="none" stroke="midnightblue" d="M89.3823,-10C98.481,-10 107.458,-10 114.914,-10"/>
<polygon fill="midnightblue" stroke="midnightblue" points="89.1325,-6.5001 79.1324,-10 89.1324,-13.5001 89.1325,-6.5001"/>
</g>
<!-- Node3 -->
<g id="node3" class="node"><title>Node3</title>
<g id="a_node3"><a xlink:href="classcom_1_1tomoparts_1_1tomoBay_1_1MAIN.html#a61e38df44ecd3cfa182ce847a01fa2c7" target="_top" xlink:title="com.tomoparts.tomoBay.MAIN.main">
<polygon fill="white" stroke="black" points="190,-0.5 190,-19.5 382,-19.5 382,-0.5 190,-0.5"/>
<text text-anchor="middle" x="286" y="-7.5" font-family="Helvetica,sans-Serif" font-size="10.00">com.tomoparts.tomoBay.MAIN.main</text>
</a>
</g>
</g>
<!-- Node2&#45;&gt;Node3 -->
<g id="edge2" class="edge"><title>Node2&#45;&gt;Node3</title>
<path fill="none" stroke="midnightblue" d="M164.22,-10C171.901,-10 180.645,-10 189.834,-10"/>
<polygon fill="midnightblue" stroke="midnightblue" points="164.132,-6.5001 154.132,-10 164.132,-13.5001 164.132,-6.5001"/>
</g>
</g>
</svg>
