<?xml version="1.0" encoding="UTF-8" standalone="no"?>
<!DOCTYPE svg PUBLIC "-//W3C//DTD SVG 1.1//EN"
 "http://www.w3.org/Graphics/SVG/1.1/DTD/svg11.dtd">
<!-- Generated by graphviz version 2.38.0 (20140413.2041)
 -->
<!-- Title: noOfItems Pages: 1 -->
<svg width="316pt" height="110pt"
 viewBox="0.00 0.00 316.00 110.00" xmlns="http://www.w3.org/2000/svg" xmlns:xlink="http://www.w3.org/1999/xlink">
<g id="graph0" class="graph" transform="scale(1 1) rotate(0) translate(4 106)">
<title>noOfItems</title>
<polygon fill="white" stroke="none" points="-4,4 -4,-106 312,-106 312,4 -4,4"/>
<!-- Node1 -->
<g id="node1" class="node"><title>Node1</title>
<polygon fill="#bfbfbf" stroke="black" points="0,-41.5 0,-60.5 66,-60.5 66,-41.5 0,-41.5"/>
<text text-anchor="middle" x="33" y="-48.5" font-family="Helvetica,sans-Serif" font-size="10.00">noOfItems</text>
</g>
<!-- Node2 -->
<g id="node2" class="node"><title>Node2</title>
<g id="a_node2"><a xlink:href="classcom_1_1tomoparts_1_1tomoBay_1_1model_1_1dataTypes_1_1financial_1_1SalesOrderDayBook_1_1AbstractSalesDayBookLine.html#a1b2142782be2899c8c3c19c5b3e05247" target="_top" xlink:title="retrieve a particular AbstractLineItem from the list of items that make up this AbstractSalesDayBookL...">
<polygon fill="white" stroke="black" points="102,-60.5 102,-101.5 308,-101.5 308,-60.5 102,-60.5"/>
<text text-anchor="start" x="110" y="-89.5" font-family="Helvetica,sans-Serif" font-size="10.00">com.tomoparts.tomoBay.model.data</text>
<text text-anchor="start" x="110" y="-78.5" font-family="Helvetica,sans-Serif" font-size="10.00">Types.financial.SalesOrderDayBook.</text>
<text text-anchor="middle" x="205" y="-67.5" font-family="Helvetica,sans-Serif" font-size="10.00">AbstractSalesDayBookLine.getLineItem</text>
</a>
</g>
</g>
<!-- Node1&#45;&gt;Node2 -->
<g id="edge1" class="edge"><title>Node1&#45;&gt;Node2</title>
<path fill="none" stroke="midnightblue" d="M66.3758,-56.7134C74.0872,-58.0742 82.7513,-59.6032 91.8817,-61.2144"/>
<polygon fill="midnightblue" stroke="midnightblue" points="91.493,-64.6998 101.949,-62.991 92.7095,-57.8063 91.493,-64.6998"/>
</g>
<!-- Node3 -->
<g id="node3" class="node"><title>Node3</title>
<g id="a_node3"><a xlink:href="classcom_1_1tomoparts_1_1tomoBay_1_1model_1_1dataTypes_1_1financial_1_1SalesOrderDayBook_1_1AbstractSalesDayBookLine.html#af4b57d21919c42d55af03391f91a1c08" target="_top" xlink:title="retrieve the number of line items that make up this SalesDayBookLine. ">
<polygon fill="white" stroke="black" points="107.5,-0.5 107.5,-41.5 302.5,-41.5 302.5,-0.5 107.5,-0.5"/>
<text text-anchor="start" x="115.5" y="-29.5" font-family="Helvetica,sans-Serif" font-size="10.00">com.tomoparts.tomoBay.model.data</text>
<text text-anchor="start" x="115.5" y="-18.5" font-family="Helvetica,sans-Serif" font-size="10.00">Types.financial.SalesOrderDayBook.</text>
<text text-anchor="middle" x="205" y="-7.5" font-family="Helvetica,sans-Serif" font-size="10.00">AbstractSalesDayBookLine.size</text>
</a>
</g>
</g>
<!-- Node1&#45;&gt;Node3 -->
<g id="edge2" class="edge"><title>Node1&#45;&gt;Node3</title>
<path fill="none" stroke="midnightblue" d="M66.3758,-45.2866C75.6151,-43.6562 86.2218,-41.7844 97.3597,-39.8189"/>
<polygon fill="midnightblue" stroke="midnightblue" points="98.0236,-43.2559 107.263,-38.0712 96.8071,-36.3624 98.0236,-43.2559"/>
</g>
</g>
</svg>
