<?xml version="1.0" encoding="UTF-8" standalone="no"?>
<!DOCTYPE svg PUBLIC "-//W3C//DTD SVG 1.1//EN"
 "http://www.w3.org/Graphics/SVG/1.1/DTD/svg11.dtd">
<!-- Generated by graphviz version 2.38.0 (20140413.2041)
 -->
<!-- Title: UpdateEbayBuyer Pages: 1 -->
<svg width="213pt" height="544pt"
 viewBox="0.00 0.00 212.50 544.00" xmlns="http://www.w3.org/2000/svg" xmlns:xlink="http://www.w3.org/1999/xlink">
<g id="graph0" class="graph" transform="scale(1 1) rotate(0) translate(4 540)">
<title>UpdateEbayBuyer</title>
<polygon fill="white" stroke="none" points="-4,4 -4,-540 208.5,-540 208.5,4 -4,4"/>
<!-- Node1 -->
<g id="node1" class="node"><title>Node1</title>
<polygon fill="#bfbfbf" stroke="black" points="29.5,-0.5 29.5,-79.5 151.5,-79.5 151.5,-0.5 29.5,-0.5"/>
<text text-anchor="middle" x="90.5" y="-67.5" font-family="Helvetica,sans-Serif" font-size="10.00">UpdateEbayBuyer</text>
<polyline fill="none" stroke="black" points="29.5,-60.5 151.5,-60.5 "/>
<text text-anchor="start" x="37.5" y="-48.5" font-family="Helvetica,sans-Serif" font-size="10.00">&#45; query</text>
<polyline fill="none" stroke="black" points="29.5,-41.5 151.5,-41.5 "/>
<text text-anchor="start" x="37.5" y="-29.5" font-family="Helvetica,sans-Serif" font-size="10.00">+ UpdateEbayBuyer()</text>
<text text-anchor="start" x="37.5" y="-18.5" font-family="Helvetica,sans-Serif" font-size="10.00"># queryString()</text>
<text text-anchor="start" x="37.5" y="-7.5" font-family="Helvetica,sans-Serif" font-size="10.00"># setParameters()</text>
</g>
<!-- Node2 -->
<g id="node2" class="node"><title>Node2</title>
<g id="a_node2"><a xlink:href="classcom_1_1tomoparts_1_1tomoBay_1_1model_1_1sql_1_1framework_1_1queryTypes_1_1modify_1_1AbstractModifyQueryParams.html" target="_top" xlink:title="This is the Abstract Base class for all queries that modify the database in some way (INSERT/UPDATE/D...">
<polygon fill="white" stroke="black" points="4.5,-117.5 4.5,-218.5 176.5,-218.5 176.5,-117.5 4.5,-117.5"/>
<text text-anchor="middle" x="90.5" y="-206.5" font-family="Helvetica,sans-Serif" font-size="10.00">AbstractModifyQueryParams</text>
<polyline fill="none" stroke="black" points="4.5,-199.5 176.5,-199.5 "/>
<text text-anchor="middle" x="90.5" y="-187.5" font-family="Helvetica,sans-Serif" font-size="10.00"> </text>
<polyline fill="none" stroke="black" points="4.5,-180.5 176.5,-180.5 "/>
<text text-anchor="start" x="12.5" y="-168.5" font-family="Helvetica,sans-Serif" font-size="10.00">+ AbstractModifyQueryParams()</text>
<text text-anchor="start" x="12.5" y="-157.5" font-family="Helvetica,sans-Serif" font-size="10.00">+ execute()</text>
<text text-anchor="start" x="12.5" y="-146.5" font-family="Helvetica,sans-Serif" font-size="10.00"># queryString()</text>
<text text-anchor="start" x="12.5" y="-135.5" font-family="Helvetica,sans-Serif" font-size="10.00"># setParameters()</text>
<text text-anchor="start" x="12.5" y="-124.5" font-family="Helvetica,sans-Serif" font-size="10.00">&#45; initQuery()</text>
</a>
</g>
</g>
<!-- Node2&#45;&gt;Node1 -->
<g id="edge1" class="edge"><title>Node2&#45;&gt;Node1</title>
<path fill="none" stroke="midnightblue" d="M90.5,-107.11C90.5,-97.7412 90.5,-88.28 90.5,-79.5585"/>
<polygon fill="none" stroke="midnightblue" points="87.0001,-107.201 90.5,-117.201 94.0001,-107.201 87.0001,-107.201"/>
</g>
<!-- Node3 -->
<g id="node3" class="node"><title>Node3</title>
<g id="a_node3"><a xlink:href="classcom_1_1tomoparts_1_1tomoBay_1_1model_1_1sql_1_1framework_1_1queryTypes_1_1modify_1_1AbstractModifyQuery.html" target="_top" xlink:title="Copyright(C) 2015 Jan P.C. ">
<polygon fill="white" stroke="black" points="23,-256.5 23,-313.5 158,-313.5 158,-256.5 23,-256.5"/>
<text text-anchor="middle" x="90.5" y="-301.5" font-family="Helvetica,sans-Serif" font-size="10.00">AbstractModifyQuery</text>
<polyline fill="none" stroke="black" points="23,-294.5 158,-294.5 "/>
<text text-anchor="middle" x="90.5" y="-282.5" font-family="Helvetica,sans-Serif" font-size="10.00"> </text>
<polyline fill="none" stroke="black" points="23,-275.5 158,-275.5 "/>
<text text-anchor="start" x="31" y="-263.5" font-family="Helvetica,sans-Serif" font-size="10.00">+ AbstractModifyQuery()</text>
</a>
</g>
</g>
<!-- Node3&#45;&gt;Node2 -->
<g id="edge2" class="edge"><title>Node3&#45;&gt;Node2</title>
<path fill="none" stroke="midnightblue" d="M90.5,-246.187C90.5,-237.435 90.5,-227.99 90.5,-218.812"/>
<polygon fill="none" stroke="midnightblue" points="87.0001,-246.455 90.5,-256.455 94.0001,-246.455 87.0001,-246.455"/>
</g>
<!-- Node4 -->
<g id="node4" class="node"><title>Node4</title>
<g id="a_node4"><a xlink:href="classcom_1_1tomoparts_1_1tomoBay_1_1model_1_1sql_1_1framework_1_1queryTypes_1_1AbstractDBQuery.html" target="_top" xlink:title="Interface that all database queries must adhere to. ">
<polygon fill="white" stroke="black" points="40.5,-351.5 40.5,-430.5 140.5,-430.5 140.5,-351.5 40.5,-351.5"/>
<text text-anchor="middle" x="90.5" y="-418.5" font-family="Helvetica,sans-Serif" font-size="10.00">AbstractDBQuery</text>
<polyline fill="none" stroke="black" points="40.5,-411.5 140.5,-411.5 "/>
<text text-anchor="middle" x="90.5" y="-399.5" font-family="Helvetica,sans-Serif" font-size="10.00"> </text>
<polyline fill="none" stroke="black" points="40.5,-392.5 140.5,-392.5 "/>
<text text-anchor="start" x="48.5" y="-380.5" font-family="Helvetica,sans-Serif" font-size="10.00">+ statement()</text>
<text text-anchor="start" x="48.5" y="-369.5" font-family="Helvetica,sans-Serif" font-size="10.00"># queryString()</text>
<text text-anchor="start" x="48.5" y="-358.5" font-family="Helvetica,sans-Serif" font-size="10.00"># cleanup()</text>
</a>
</g>
</g>
<!-- Node4&#45;&gt;Node3 -->
<g id="edge3" class="edge"><title>Node4&#45;&gt;Node3</title>
<path fill="none" stroke="midnightblue" d="M90.5,-341.161C90.5,-331.737 90.5,-322.174 90.5,-313.716"/>
<polygon fill="none" stroke="midnightblue" points="87.0001,-341.274 90.5,-351.274 94.0001,-341.274 87.0001,-341.274"/>
</g>
<!-- Node5 -->
<g id="node5" class="node"><title>Node5</title>
<polygon fill="white" stroke="#bfbfbf" points="0,-478.5 0,-535.5 71,-535.5 71,-478.5 0,-478.5"/>
<text text-anchor="middle" x="35.5" y="-523.5" font-family="Helvetica,sans-Serif" font-size="10.00">Connection</text>
<polyline fill="none" stroke="#bfbfbf" points="0,-516.5 71,-516.5 "/>
<text text-anchor="middle" x="35.5" y="-504.5" font-family="Helvetica,sans-Serif" font-size="10.00"> </text>
<polyline fill="none" stroke="#bfbfbf" points="0,-497.5 71,-497.5 "/>
<text text-anchor="middle" x="35.5" y="-485.5" font-family="Helvetica,sans-Serif" font-size="10.00"> </text>
</g>
<!-- Node5&#45;&gt;Node4 -->
<g id="edge4" class="edge"><title>Node5&#45;&gt;Node4</title>
<path fill="none" stroke="#404040" d="M37.5838,-478.223C39.0189,-468.659 41.4353,-458.078 45.5,-449 46.7398,-446.231 48.1441,-443.479 49.671,-440.765"/>
<polygon fill="none" stroke="#404040" points="49.7101,-440.703 49.5049,-433.495 56.0796,-430.533 56.2849,-437.741 49.7101,-440.703"/>
<text text-anchor="middle" x="84.5" y="-452" font-family="Helvetica,sans-Serif" font-size="10.00"> #connection_M</text>
</g>
<!-- Node6 -->
<g id="node6" class="node"><title>Node6</title>
<polygon fill="white" stroke="#bfbfbf" points="89.5,-478.5 89.5,-535.5 201.5,-535.5 201.5,-478.5 89.5,-478.5"/>
<text text-anchor="middle" x="145.5" y="-523.5" font-family="Helvetica,sans-Serif" font-size="10.00">PreparedStatement</text>
<polyline fill="none" stroke="#bfbfbf" points="89.5,-516.5 201.5,-516.5 "/>
<text text-anchor="middle" x="145.5" y="-504.5" font-family="Helvetica,sans-Serif" font-size="10.00"> </text>
<polyline fill="none" stroke="#bfbfbf" points="89.5,-497.5 201.5,-497.5 "/>
<text text-anchor="middle" x="145.5" y="-485.5" font-family="Helvetica,sans-Serif" font-size="10.00"> </text>
</g>
<!-- Node6&#45;&gt;Node4 -->
<g id="edge5" class="edge"><title>Node6&#45;&gt;Node4</title>
<path fill="none" stroke="#404040" d="M135.834,-478.378C132.266,-468.926 127.989,-458.376 123.5,-449 122.271,-446.433 120.969,-443.826 119.619,-441.212"/>
<polygon fill="none" stroke="#404040" points="119.547,-441.077 113.185,-437.681 113.873,-430.503 120.235,-433.899 119.547,-441.077"/>
<text text-anchor="middle" x="166.5" y="-452" font-family="Helvetica,sans-Serif" font-size="10.00"> #statement_M</text>
</g>
</g>
</svg>
