<?xml version="1.0" encoding="UTF-8" standalone="no"?>
<!DOCTYPE svg PUBLIC "-//W3C//DTD SVG 1.1//EN"
 "http://www.w3.org/Graphics/SVG/1.1/DTD/svg11.dtd">
<!-- Generated by graphviz version 2.38.0 (20140413.2041)
 -->
<!-- Title: execute Pages: 1 -->
<!--zoomable 461 -->
<svg id="main" version="1.1" xmlns="http://www.w3.org/2000/svg" xmlns:xlink="http://www.w3.org/1999/xlink" xml:space="preserve" onload="init(evt)">
<style type="text/css"><![CDATA[
.edge:hover path { stroke: red; }
.edge:hover polygon { stroke: red; fill: red; }
]]></style>
<script type="text/javascript"><![CDATA[
var edges = document.getElementsByTagName('g');
if (edges && edges.length) {
  for (var i=0;i<edges.length;i++) {
    if (edges[i].id.substr(0,4)=='edge') {
      edges[i].setAttribute('class','edge');
    }
  }
}
]]></script>
        <defs>
                <circle id="rim" cx="0" cy="0" r="7"/>
                <circle id="rim2" cx="0" cy="0" r="3.5"/>
                <g id="zoomPlus">
                        <use xlink:href="#rim" fill="#404040">
                                <set attributeName="fill" to="#808080" begin="zoomplus.mouseover" end="zoomplus.mouseout"/>
                        </use>
                        <path d="M-4,0h8M0,-4v8" fill="none" stroke="white" stroke-width="1.5" pointer-events="none"/>
                </g>
                <g id="zoomMin">
                        <use xlink:href="#rim" fill="#404040">
                                <set attributeName="fill" to="#808080" begin="zoomminus.mouseover" end="zoomminus.mouseout"/>
                        </use>
                        <path d="M-4,0h8" fill="none" stroke="white" stroke-width="1.5" pointer-events="none"/>
                </g>
                <g id="dirArrow">
                        <path fill="none" stroke="white" stroke-width="1.5" d="M0,-3.0v7 M-2.5,-0.5L0,-3.0L2.5,-0.5"/>
                </g>
               <g id="resetDef">
                       <use xlink:href="#rim2" fill="#404040">
                               <set attributeName="fill" to="#808080" begin="reset.mouseover" end="reset.mouseout"/>
                       </use>
               </g>
        </defs>

<script type="text/javascript">
var viewWidth = 1147;
var viewHeight = 461;
var sectionId = 'dynsection-2';
</script>
<script xlink:href="svgpan.js"/>
<svg id="graph" class="graph">
<g id="viewport">
<title>execute</title>
<polygon fill="white" stroke="none" points="-4,4 -4,-457.409 1143,-457.409 1143,4 -4,4"/>
<!-- Node1 -->
<g id="node1" class="node"><title>Node1</title>
<polygon fill="#bfbfbf" stroke="black" points="0,-311 0,-330 55,-330 55,-311 0,-311"/>
<text text-anchor="middle" x="27.5" y="-318" font-family="Helvetica,sans-Serif" font-size="10.00">execute</text>
</g>
<!-- Node2 -->
<g id="node2" class="node"><title>Node2</title>
<g id="a_node2"><a xlink:href="classcom_1_1tomoparts_1_1tomoBay_1_1model_1_1services_1_1emailErrorsService_1_1EmailErrorsMailActions.html#a05337b002b830d253e7580044fbe0419" target="_top" xlink:title="add a message to the email ">
<polygon fill="white" stroke="black" points="369,-382.5 369,-412.5 625,-412.5 625,-382.5 369,-382.5"/>
<text text-anchor="start" x="377" y="-400.5" font-family="Helvetica,sans-Serif" font-size="10.00">com.tomoparts.tomoBay.model.services.email</text>
<text text-anchor="middle" x="497" y="-389.5" font-family="Helvetica,sans-Serif" font-size="10.00">ErrorsService.EmailErrorsMailActions.addMessage</text>
</a>
</g>
</g>
<!-- Node1&#45;&gt;Node2 -->
<g id="edge1" class="edge"><title>Node1&#45;&gt;Node2</title>
<path fill="none" stroke="midnightblue" d="M31.1474,-330.134C37.4594,-350.982 55.5775,-399.972 91,-419.5 205.43,-482.584 366.763,-442.655 446.88,-415.907"/>
<polygon fill="midnightblue" stroke="midnightblue" points="448.369,-419.097 456.704,-412.556 446.11,-412.472 448.369,-419.097"/>
</g>
<!-- Node4 -->
<g id="node4" class="node"><title>Node4</title>
<g id="a_node4"><a xlink:href="classcom_1_1tomoparts_1_1tomoBay_1_1model_1_1services_1_1emailErrorsService_1_1EmailErrorsDataFormat.html#a0737965f869eead756f082c11adf33a8" target="_top" xlink:title="format the List of strings provided as a HTML string that can be sent as an email. ">
<polygon fill="white" stroke="black" points="91,-379.5 91,-409.5 333,-409.5 333,-379.5 91,-379.5"/>
<text text-anchor="start" x="99" y="-397.5" font-family="Helvetica,sans-Serif" font-size="10.00">com.tomoparts.tomoBay.model.services.email</text>
<text text-anchor="middle" x="212" y="-386.5" font-family="Helvetica,sans-Serif" font-size="10.00">ErrorsService.EmailErrorsDataFormat.asHTML</text>
</a>
</g>
</g>
<!-- Node1&#45;&gt;Node4 -->
<g id="edge3" class="edge"><title>Node1&#45;&gt;Node4</title>
<path fill="none" stroke="midnightblue" d="M37.6718,-330.259C49.0526,-341.747 69.588,-360.522 91,-370.5 95.4022,-372.551 99.975,-374.428 104.653,-376.144"/>
<polygon fill="midnightblue" stroke="midnightblue" points="103.787,-379.546 114.381,-379.447 106.037,-372.918 103.787,-379.546"/>
</g>
<!-- Node5 -->
<g id="node5" class="node"><title>Node5</title>
<g id="a_node5"><a xlink:href="classcom_1_1tomoparts_1_1tomoBay_1_1model_1_1services_1_1emailErrorsService_1_1ErrorsList.html#a601e4cc34958e6c6b53c9ef8ecc3f0f7" target="_top" xlink:title="returns true if errors exist in the ebay listings false if not ">
<polygon fill="white" stroke="black" points="91,-330.5 91,-360.5 333,-360.5 333,-330.5 91,-330.5"/>
<text text-anchor="start" x="99" y="-348.5" font-family="Helvetica,sans-Serif" font-size="10.00">com.tomoparts.tomoBay.model.services.email</text>
<text text-anchor="middle" x="212" y="-337.5" font-family="Helvetica,sans-Serif" font-size="10.00">ErrorsService.ErrorsList.exist</text>
</a>
</g>
</g>
<!-- Node1&#45;&gt;Node5 -->
<g id="edge4" class="edge"><title>Node1&#45;&gt;Node5</title>
<path fill="none" stroke="midnightblue" d="M55.0371,-324.135C65.2991,-325.541 77.8109,-327.255 91.2383,-329.094"/>
<polygon fill="midnightblue" stroke="midnightblue" points="90.7758,-332.564 101.158,-330.453 91.7259,-325.628 90.7758,-332.564"/>
</g>
<!-- Node6 -->
<g id="node6" class="node"><title>Node6</title>
<g id="a_node6"><a xlink:href="classcom_1_1tomoparts_1_1tomoBay_1_1model_1_1services_1_1emailErrorsService_1_1ErrorsList.html#a2c41d1c38f3d7a643ec4f7a64180fcb2" target="_top" xlink:title="generate a list of items from the database that contain error messages. ">
<polygon fill="white" stroke="black" points="91,-281.5 91,-311.5 333,-311.5 333,-281.5 91,-281.5"/>
<text text-anchor="start" x="99" y="-299.5" font-family="Helvetica,sans-Serif" font-size="10.00">com.tomoparts.tomoBay.model.services.email</text>
<text text-anchor="middle" x="212" y="-288.5" font-family="Helvetica,sans-Serif" font-size="10.00">ErrorsService.ErrorsList.get</text>
</a>
</g>
</g>
<!-- Node1&#45;&gt;Node6 -->
<g id="edge5" class="edge"><title>Node1&#45;&gt;Node6</title>
<path fill="none" stroke="midnightblue" d="M55.0371,-317.01C64.1507,-315.812 75.0386,-314.38 86.7665,-312.838"/>
<polygon fill="midnightblue" stroke="midnightblue" points="87.3366,-316.293 96.7949,-311.519 86.4239,-309.353 87.3366,-316.293"/>
</g>
<!-- Node7 -->
<g id="node7" class="node"><title>Node7</title>
<g id="a_node7"><a xlink:href="classcom_1_1tomoparts_1_1tomoBay_1_1model_1_1services_1_1emailErrorsService_1_1EmailErrorsMailActions.html#ad1dbcb645114a23c7e2a441cb6ae9ca4" target="_top" xlink:title="handle the creation of the Email by passing in a map with the appropriate data inside it...">
<polygon fill="white" stroke="black" points="91,-232.5 91,-262.5 333,-262.5 333,-232.5 91,-232.5"/>
<text text-anchor="start" x="99" y="-250.5" font-family="Helvetica,sans-Serif" font-size="10.00">com.tomoparts.tomoBay.model.services.email</text>
<text text-anchor="middle" x="212" y="-239.5" font-family="Helvetica,sans-Serif" font-size="10.00">ErrorsService.EmailErrorsMailActions.loadData</text>
</a>
</g>
</g>
<!-- Node1&#45;&gt;Node7 -->
<g id="edge6" class="edge"><title>Node1&#45;&gt;Node7</title>
<path fill="none" stroke="midnightblue" d="M38.1727,-310.782C49.721,-299.762 70.1091,-282.085 91,-272.5 96.452,-269.999 102.158,-267.745 107.997,-265.715"/>
<polygon fill="midnightblue" stroke="midnightblue" points="109.487,-268.911 117.925,-262.505 107.334,-262.251 109.487,-268.911"/>
</g>
<!-- Node12 -->
<g id="node12" class="node"><title>Node12</title>
<g id="a_node12"><a xlink:href="classcom_1_1tomoparts_1_1tomoBay_1_1model_1_1services_1_1emailErrorsService_1_1EmailErrorsMailActions.html#ae9399f5ec7881c5d18173def8068108e" target="_top" xlink:title="send the email ">
<polygon fill="white" stroke="black" points="91,-137.5 91,-167.5 333,-167.5 333,-137.5 91,-137.5"/>
<text text-anchor="start" x="99" y="-155.5" font-family="Helvetica,sans-Serif" font-size="10.00">com.tomoparts.tomoBay.model.services.email</text>
<text text-anchor="middle" x="212" y="-144.5" font-family="Helvetica,sans-Serif" font-size="10.00">ErrorsService.EmailErrorsMailActions.send</text>
</a>
</g>
</g>
<!-- Node1&#45;&gt;Node12 -->
<g id="edge12" class="edge"><title>Node1&#45;&gt;Node12</title>
<path fill="none" stroke="midnightblue" d="M32.7951,-310.93C41.545,-292.26 63,-250.453 91,-223.5 113.191,-202.139 142.969,-184.472 167.309,-172.104"/>
<polygon fill="midnightblue" stroke="midnightblue" points="168.938,-175.203 176.344,-167.627 165.83,-168.931 168.938,-175.203"/>
</g>
<!-- Node3 -->
<g id="node3" class="node"><title>Node3</title>
<g id="a_node3"><a xlink:href="classcom_1_1tomoparts_1_1tomoBay_1_1model_1_1net_1_1email_1_1Email.html#acc7b010f914eeee1745a79004eca2481" target="_top" xlink:title="sets the email body ">
<polygon fill="white" stroke="black" points="661,-382.5 661,-412.5 882,-412.5 882,-382.5 661,-382.5"/>
<text text-anchor="start" x="669" y="-400.5" font-family="Helvetica,sans-Serif" font-size="10.00">com.tomoparts.tomoBay.model.net.email.</text>
<text text-anchor="middle" x="771.5" y="-389.5" font-family="Helvetica,sans-Serif" font-size="10.00">Email.setMessage</text>
</a>
</g>
</g>
<!-- Node2&#45;&gt;Node3 -->
<g id="edge2" class="edge"><title>Node2&#45;&gt;Node3</title>
<path fill="none" stroke="midnightblue" d="M625.075,-397.5C633.559,-397.5 642.09,-397.5 650.536,-397.5"/>
<polygon fill="midnightblue" stroke="midnightblue" points="650.788,-401 660.788,-397.5 650.788,-394 650.788,-401"/>
</g>
<!-- Node7&#45;&gt;Node2 -->
<g id="edge7" class="edge"><title>Node7&#45;&gt;Node2</title>
<path fill="none" stroke="midnightblue" d="M315.686,-262.632C321.788,-265.416 327.623,-268.678 333,-272.5 358.348,-290.516 346.282,-311.263 369,-332.5 390.339,-352.448 418.97,-367.811 443.645,-378.58"/>
<polygon fill="midnightblue" stroke="midnightblue" points="442.311,-381.816 452.885,-382.483 445.035,-375.368 442.311,-381.816"/>
</g>
<!-- Node8 -->
<g id="node8" class="node"><title>Node8</title>
<g id="a_node8"><a xlink:href="classcom_1_1tomoparts_1_1tomoBay_1_1model_1_1services_1_1emailErrorsService_1_1EmailErrorsMailActions.html#a6821a16486f28486b3191bb50a167262" target="_top" xlink:title="add a recipient to the email ">
<polygon fill="white" stroke="black" points="376,-282 376,-323 618,-323 618,-282 376,-282"/>
<text text-anchor="start" x="384" y="-311" font-family="Helvetica,sans-Serif" font-size="10.00">com.tomoparts.tomoBay.model.services.email</text>
<text text-anchor="start" x="384" y="-300" font-family="Helvetica,sans-Serif" font-size="10.00">ErrorsService.EmailErrorsMailActions.add</text>
<text text-anchor="middle" x="497" y="-289" font-family="Helvetica,sans-Serif" font-size="10.00">Recipient</text>
</a>
</g>
</g>
<!-- Node7&#45;&gt;Node8 -->
<g id="edge8" class="edge"><title>Node7&#45;&gt;Node8</title>
<path fill="none" stroke="midnightblue" d="M290.331,-262.529C318.047,-267.915 349.93,-274.112 380.19,-279.993"/>
<polygon fill="midnightblue" stroke="midnightblue" points="379.898,-283.501 390.382,-281.974 381.234,-276.63 379.898,-283.501"/>
</g>
<!-- Node10 -->
<g id="node10" class="node"><title>Node10</title>
<g id="a_node10"><a xlink:href="classcom_1_1tomoparts_1_1tomoBay_1_1model_1_1services_1_1emailErrorsService_1_1EmailErrorsMailActions.html#a2a8614817e293230d76a7dfab60c7f4f" target="_top" xlink:title="add a subject line to the email ">
<polygon fill="white" stroke="black" points="372.5,-232.5 372.5,-262.5 621.5,-262.5 621.5,-232.5 372.5,-232.5"/>
<text text-anchor="start" x="380.5" y="-250.5" font-family="Helvetica,sans-Serif" font-size="10.00">com.tomoparts.tomoBay.model.services.email</text>
<text text-anchor="middle" x="497" y="-239.5" font-family="Helvetica,sans-Serif" font-size="10.00">ErrorsService.EmailErrorsMailActions.addSubject</text>
</a>
</g>
</g>
<!-- Node7&#45;&gt;Node10 -->
<g id="edge10" class="edge"><title>Node7&#45;&gt;Node10</title>
<path fill="none" stroke="midnightblue" d="M333.017,-247.5C342.633,-247.5 352.384,-247.5 362.087,-247.5"/>
<polygon fill="midnightblue" stroke="midnightblue" points="362.174,-251 372.174,-247.5 362.174,-244 362.174,-251"/>
</g>
<!-- Node9 -->
<g id="node9" class="node"><title>Node9</title>
<g id="a_node9"><a xlink:href="classcom_1_1tomoparts_1_1tomoBay_1_1model_1_1net_1_1email_1_1Email.html#a5c78f073f0c4c95dddbb78f7a9eb6cd2" target="_top" xlink:title="set a recipient of the email, valid RecipientType listed in Message.RecipientType : TO/CC/BCC...">
<polygon fill="white" stroke="black" points="661,-287.5 661,-317.5 882,-317.5 882,-287.5 661,-287.5"/>
<text text-anchor="start" x="669" y="-305.5" font-family="Helvetica,sans-Serif" font-size="10.00">com.tomoparts.tomoBay.model.net.email.</text>
<text text-anchor="middle" x="771.5" y="-294.5" font-family="Helvetica,sans-Serif" font-size="10.00">Email.setRecipient</text>
</a>
</g>
</g>
<!-- Node8&#45;&gt;Node9 -->
<g id="edge9" class="edge"><title>Node8&#45;&gt;Node9</title>
<path fill="none" stroke="midnightblue" d="M618.316,-302.5C629.012,-302.5 639.842,-302.5 650.535,-302.5"/>
<polygon fill="midnightblue" stroke="midnightblue" points="650.738,-306 660.738,-302.5 650.737,-299 650.738,-306"/>
</g>
<!-- Node11 -->
<g id="node11" class="node"><title>Node11</title>
<g id="a_node11"><a xlink:href="classcom_1_1tomoparts_1_1tomoBay_1_1model_1_1net_1_1email_1_1Email.html#a39f0298f055f0b78ad2ac781d38f326f" target="_top" xlink:title="set the subject line of the email. ">
<polygon fill="white" stroke="black" points="661,-235.5 661,-265.5 882,-265.5 882,-235.5 661,-235.5"/>
<text text-anchor="start" x="669" y="-253.5" font-family="Helvetica,sans-Serif" font-size="10.00">com.tomoparts.tomoBay.model.net.email.</text>
<text text-anchor="middle" x="771.5" y="-242.5" font-family="Helvetica,sans-Serif" font-size="10.00">Email.setSubject</text>
</a>
</g>
</g>
<!-- Node10&#45;&gt;Node11 -->
<g id="edge11" class="edge"><title>Node10&#45;&gt;Node11</title>
<path fill="none" stroke="midnightblue" d="M621.891,-248.864C631.39,-248.969 640.97,-249.074 650.443,-249.178"/>
<polygon fill="midnightblue" stroke="midnightblue" points="650.635,-252.681 660.673,-249.291 650.712,-245.681 650.635,-252.681"/>
</g>
<!-- Node13 -->
<g id="node13" class="node"><title>Node13</title>
<g id="a_node13"><a xlink:href="classcom_1_1tomoparts_1_1tomoBay_1_1helpers_1_1ConfigReader.html#a310420c6db22982498520c2ad7a2b82f" target="_top" xlink:title="find the value of the config variable specified in the arguments. ">
<polygon fill="white" stroke="black" points="407.5,-137.5 407.5,-167.5 586.5,-167.5 586.5,-137.5 407.5,-137.5"/>
<text text-anchor="start" x="415.5" y="-155.5" font-family="Helvetica,sans-Serif" font-size="10.00">com.tomoparts.tomoBay.helpers.</text>
<text text-anchor="middle" x="497" y="-144.5" font-family="Helvetica,sans-Serif" font-size="10.00">ConfigReader.getConf</text>
</a>
</g>
</g>
<!-- Node12&#45;&gt;Node13 -->
<g id="edge13" class="edge"><title>Node12&#45;&gt;Node13</title>
<path fill="none" stroke="midnightblue" d="M333.017,-152.5C354.379,-152.5 376.409,-152.5 397.099,-152.5"/>
<polygon fill="midnightblue" stroke="midnightblue" points="397.14,-156 407.14,-152.5 397.14,-149 397.14,-156"/>
</g>
<!-- Node17 -->
<g id="node17" class="node"><title>Node17</title>
<g id="a_node17"><a xlink:href="classcom_1_1tomoparts_1_1tomoBay_1_1model_1_1net_1_1email_1_1MailServerSend.html#ae0ea6b0d6bda14c2c1ea809ca187c4be" target="_top" xlink:title="this method sends the given email using the userID and password provided in the arguments ...">
<polygon fill="white" stroke="black" points="386.5,-44.5 386.5,-74.5 607.5,-74.5 607.5,-44.5 386.5,-44.5"/>
<text text-anchor="start" x="394.5" y="-62.5" font-family="Helvetica,sans-Serif" font-size="10.00">com.tomoparts.tomoBay.model.net.email.</text>
<text text-anchor="middle" x="497" y="-51.5" font-family="Helvetica,sans-Serif" font-size="10.00">MailServerSend.send</text>
</a>
</g>
</g>
<!-- Node12&#45;&gt;Node17 -->
<g id="edge17" class="edge"><title>Node12&#45;&gt;Node17</title>
<path fill="none" stroke="midnightblue" d="M258.783,-137.455C308.413,-121.145 387.617,-95.1169 440.69,-77.6762"/>
<polygon fill="midnightblue" stroke="midnightblue" points="441.875,-80.9709 450.282,-74.5238 439.69,-74.3208 441.875,-80.9709"/>
</g>
<!-- Node14 -->
<g id="node14" class="node"><title>Node14</title>
<g id="a_node14"><a xlink:href="classcom_1_1tomoparts_1_1tomoBay_1_1helpers_1_1ConfigReader.html#ab69b4a3a0fc6a7c7440362b06ec4b4d3" target="_top" xlink:title="reads the whole config file into a string ">
<polygon fill="white" stroke="black" points="682,-186.5 682,-216.5 861,-216.5 861,-186.5 682,-186.5"/>
<text text-anchor="start" x="690" y="-204.5" font-family="Helvetica,sans-Serif" font-size="10.00">com.tomoparts.tomoBay.helpers.</text>
<text text-anchor="middle" x="771.5" y="-193.5" font-family="Helvetica,sans-Serif" font-size="10.00">ConfigReader.getConfig</text>
</a>
</g>
</g>
<!-- Node13&#45;&gt;Node14 -->
<g id="edge14" class="edge"><title>Node13&#45;&gt;Node14</title>
<path fill="none" stroke="midnightblue" d="M581.611,-167.535C611.822,-172.967 646.113,-179.133 677.109,-184.707"/>
<polygon fill="midnightblue" stroke="midnightblue" points="676.586,-188.169 687.047,-186.494 677.825,-181.279 676.586,-188.169"/>
</g>
<!-- Node15 -->
<g id="node15" class="node"><title>Node15</title>
<g id="a_node15"><a xlink:href="enumcom_1_1tomoparts_1_1tomoBay_1_1helpers_1_1Config.html#a43cb99408ba4f337caad395ca67f9a6c" target="_top" xlink:title="return the string associated with the enum const ">
<polygon fill="white" stroke="black" points="682,-137.5 682,-167.5 861,-167.5 861,-137.5 682,-137.5"/>
<text text-anchor="start" x="690" y="-155.5" font-family="Helvetica,sans-Serif" font-size="10.00">com.tomoparts.tomoBay.helpers.</text>
<text text-anchor="middle" x="771.5" y="-144.5" font-family="Helvetica,sans-Serif" font-size="10.00">Config.getVar</text>
</a>
</g>
</g>
<!-- Node13&#45;&gt;Node15 -->
<g id="edge15" class="edge"><title>Node13&#45;&gt;Node15</title>
<path fill="none" stroke="midnightblue" d="M586.85,-152.5C613.962,-152.5 643.934,-152.5 671.665,-152.5"/>
<polygon fill="midnightblue" stroke="midnightblue" points="671.771,-156 681.771,-152.5 671.771,-149 671.771,-156"/>
</g>
<!-- Node16 -->
<g id="node16" class="node"><title>Node16</title>
<g id="a_node16"><a xlink:href="classcom_1_1tomoparts_1_1tomoBay_1_1helpers_1_1XMLParser.html#a9936151017dd4e908cf37d453b22c8ef" target="_top" xlink:title="parses an XML formatted string looking for the first tag specified in the parameters. ">
<polygon fill="white" stroke="black" points="682,-88.5 682,-118.5 861,-118.5 861,-88.5 682,-88.5"/>
<text text-anchor="start" x="690" y="-106.5" font-family="Helvetica,sans-Serif" font-size="10.00">com.tomoparts.tomoBay.helpers.</text>
<text text-anchor="middle" x="771.5" y="-95.5" font-family="Helvetica,sans-Serif" font-size="10.00">XMLParser.parse</text>
</a>
</g>
</g>
<!-- Node13&#45;&gt;Node16 -->
<g id="edge16" class="edge"><title>Node13&#45;&gt;Node16</title>
<path fill="none" stroke="midnightblue" d="M581.611,-137.465C611.822,-132.033 646.113,-125.867 677.109,-120.293"/>
<polygon fill="midnightblue" stroke="midnightblue" points="677.825,-123.721 687.047,-118.506 676.586,-116.831 677.825,-123.721"/>
</g>
<!-- Node18 -->
<g id="node18" class="node"><title>Node18</title>
<g id="a_node18"><a xlink:href="classcom_1_1tomoparts_1_1tomoBay_1_1model_1_1net_1_1email_1_1MailServerSend.html#ab5988b28fa18ed6b82ed54193ed21ccc" target="_top" xlink:title="creates a mail server session. ">
<polygon fill="white" stroke="black" points="918,-22.5 918,-52.5 1139,-52.5 1139,-22.5 918,-22.5"/>
<text text-anchor="start" x="926" y="-40.5" font-family="Helvetica,sans-Serif" font-size="10.00">com.tomoparts.tomoBay.model.net.email.</text>
<text text-anchor="middle" x="1028.5" y="-29.5" font-family="Helvetica,sans-Serif" font-size="10.00">MailServerSend.createMailServerSession</text>
</a>
</g>
</g>
<!-- Node17&#45;&gt;Node18 -->
<g id="edge18" class="edge"><title>Node17&#45;&gt;Node18</title>
<path fill="none" stroke="midnightblue" d="M607.713,-54.9416C695.216,-51.306 817.606,-46.2208 907.663,-42.479"/>
<polygon fill="midnightblue" stroke="midnightblue" points="908.082,-45.9648 917.928,-42.0526 907.791,-38.9708 908.082,-45.9648"/>
</g>
<!-- Node19 -->
<g id="node19" class="node"><title>Node19</title>
<g id="a_node19"><a xlink:href="classcom_1_1tomoparts_1_1tomoBay_1_1model_1_1net_1_1email_1_1MailServerSend.html#ae07411f271807d3f10b7e4db187d4b3c" target="_top" xlink:title="generates a MimeMessage from the Email object ">
<polygon fill="white" stroke="black" points="661,-0.5 661,-30.5 882,-30.5 882,-0.5 661,-0.5"/>
<text text-anchor="start" x="669" y="-18.5" font-family="Helvetica,sans-Serif" font-size="10.00">com.tomoparts.tomoBay.model.net.email.</text>
<text text-anchor="middle" x="771.5" y="-7.5" font-family="Helvetica,sans-Serif" font-size="10.00">MailServerSend.generateMimeMessage</text>
</a>
</g>
</g>
<!-- Node17&#45;&gt;Node19 -->
<g id="edge19" class="edge"><title>Node17&#45;&gt;Node19</title>
<path fill="none" stroke="midnightblue" d="M591.017,-44.4808C615.653,-40.5027 642.394,-36.185 667.526,-32.1271"/>
<polygon fill="midnightblue" stroke="midnightblue" points="668.126,-35.5756 677.44,-30.5262 667.01,-28.6651 668.126,-35.5756"/>
</g>
<!-- Node19&#45;&gt;Node18 -->
<g id="edge20" class="edge"><title>Node19&#45;&gt;Node18</title>
<path fill="none" stroke="midnightblue" d="M882.123,-24.9577C890.661,-25.6943 899.308,-26.4403 907.907,-27.1822"/>
<polygon fill="midnightblue" stroke="midnightblue" points="907.706,-30.6777 917.97,-28.0503 908.308,-23.7036 907.706,-30.6777"/>
</g>
</g>
</svg>
        <g id="navigator" transform="translate(0 0)" fill="#404254">
                <rect fill="#f2f5e9" fill-opacity="0.5" stroke="#606060" stroke-width=".5" x="0" y="0" width="60" height="60"/>
                <use id="zoomplus" xlink:href="#zoomPlus" x="17" y="9" onmousedown="handleZoom(evt,'in')"/>
                <use id="zoomminus" xlink:href="#zoomMin" x="42" y="9" onmousedown="handleZoom(evt,'out')"/>
                <use id="reset" xlink:href="#resetDef" x="30" y="36" onmousedown="handleReset()"/>
                <g id="arrowUp" xlink:href="#dirArrow" transform="translate(30 24)" onmousedown="handlePan(0,-1)">
                  <use xlink:href="#rim" fill="#404040">
                        <set attributeName="fill" to="#808080" begin="arrowUp.mouseover" end="arrowUp.mouseout"/>
                  </use>
                  <path fill="none" stroke="white" stroke-width="1.5" d="M0,-3.0v7 M-2.5,-0.5L0,-3.0L2.5,-0.5"/>
                </g>
                <g id="arrowRight" xlink:href="#dirArrow" transform="rotate(90) translate(36 -43)" onmousedown="handlePan(1,0)">
                  <use xlink:href="#rim" fill="#404040">
                        <set attributeName="fill" to="#808080" begin="arrowRight.mouseover" end="arrowRight.mouseout"/>
                  </use>
                  <path fill="none" stroke="white" stroke-width="1.5" d="M0,-3.0v7 M-2.5,-0.5L0,-3.0L2.5,-0.5"/>
                </g>
                <g id="arrowDown" xlink:href="#dirArrow" transform="rotate(180) translate(-30 -48)" onmousedown="handlePan(0,1)">
                  <use xlink:href="#rim" fill="#404040">
                        <set attributeName="fill" to="#808080" begin="arrowDown.mouseover" end="arrowDown.mouseout"/>
                  </use>
                  <path fill="none" stroke="white" stroke-width="1.5" d="M0,-3.0v7 M-2.5,-0.5L0,-3.0L2.5,-0.5"/>
                </g>
                <g id="arrowLeft" xlink:href="#dirArrow" transform="rotate(270) translate(-36 17)" onmousedown="handlePan(-1,0)">
                  <use xlink:href="#rim" fill="#404040">
                        <set attributeName="fill" to="#808080" begin="arrowLeft.mouseover" end="arrowLeft.mouseout"/>
                  </use>
                  <path fill="none" stroke="white" stroke-width="1.5" d="M0,-3.0v7 M-2.5,-0.5L0,-3.0L2.5,-0.5"/>
                </g>
        </g>
        <svg viewBox="0 0 15 15" width="100%" height="30px" preserveAspectRatio="xMaxYMin meet">
         <g id="arrow_out" transform="scale(0.3 0.3)">
          <a xlink:href="classcom_1_1tomoparts_1_1tomoBay_1_1model_1_1services_1_1emailErrorsService_1_1OnRunning_ae4a4f4cadce2787c7e80005639fbd5d9_cgraph_org.svg" target="_base">
           <rect id="button" ry="5" rx="5" y="6" x="6" height="38" width="38"
                fill="#f2f5e9" fill-opacity="0.5" stroke="#606060" stroke-width="1.0"/>
           <path id="arrow"
             d="M 11.500037,31.436501 C 11.940474,20.09759 22.043105,11.32322 32.158766,21.979434 L 37.068811,17.246167 C 37.068811,17.246167 37.088388,32 37.088388,32 L 22.160133,31.978069 C 22.160133,31.978069 26.997745,27.140456 26.997745,27.140456 C 18.528582,18.264221 13.291696,25.230495 11.500037,31.436501 z"
             style="fill:#404040;"/>
          </a>
         </g>
        </svg>
</svg>
