<?xml version="1.0" encoding="UTF-8" standalone="no"?>
<!DOCTYPE svg PUBLIC "-//W3C//DTD SVG 1.1//EN"
 "http://www.w3.org/Graphics/SVG/1.1/DTD/svg11.dtd">
<!-- Generated by graphviz version 2.38.0 (20140413.2041)
 -->
<!-- Title: setMessage Pages: 1 -->
<svg width="1238pt" height="167pt"
 viewBox="0.00 0.00 1238.00 167.00" xmlns="http://www.w3.org/2000/svg" xmlns:xlink="http://www.w3.org/1999/xlink">
<g id="graph0" class="graph" transform="scale(1 1) rotate(0) translate(4 163)">
<title>setMessage</title>
<polygon fill="white" stroke="none" points="-4,4 -4,-163 1234,-163 1234,4 -4,4"/>
<!-- Node1 -->
<g id="node1" class="node"><title>Node1</title>
<polygon fill="#bfbfbf" stroke="black" points="0,-85 0,-104 74,-104 74,-85 0,-85"/>
<text text-anchor="middle" x="37" y="-92" font-family="Helvetica,sans-Serif" font-size="10.00">setMessage</text>
</g>
<!-- Node2 -->
<g id="node2" class="node"><title>Node2</title>
<g id="a_node2"><a xlink:href="classcom_1_1tomoparts_1_1tomoBay_1_1model_1_1services_1_1emailErrorsService_1_1EmailErrorsMailActions.html#a05337b002b830d253e7580044fbe0419" target="_top" xlink:title="add a message to the email ">
<polygon fill="white" stroke="black" points="114,-128.5 114,-158.5 370,-158.5 370,-128.5 114,-128.5"/>
<text text-anchor="start" x="122" y="-146.5" font-family="Helvetica,sans-Serif" font-size="10.00">com.tomoparts.tomoBay.model.services.email</text>
<text text-anchor="middle" x="242" y="-135.5" font-family="Helvetica,sans-Serif" font-size="10.00">ErrorsService.EmailErrorsMailActions.addMessage</text>
</a>
</g>
</g>
<!-- Node1&#45;&gt;Node2 -->
<g id="edge1" class="edge"><title>Node1&#45;&gt;Node2</title>
<path fill="none" stroke="midnightblue" d="M73.4767,-107.369C85.0259,-111.277 97.9696,-115.362 110,-118.5 123.89,-122.123 138.736,-125.458 153.26,-128.431"/>
<polygon fill="midnightblue" stroke="midnightblue" points="74.339,-103.964 63.7443,-104.008 72.0544,-110.58 74.339,-103.964"/>
</g>
<!-- Node6 -->
<g id="node6" class="node"><title>Node6</title>
<g id="a_node6"><a xlink:href="classcom_1_1tomoparts_1_1tomoBay_1_1test_1_1unit_1_1model_1_1net_1_1email_1_1EmailTest.html#a8b260eecbaabcef8473fd87ada040682" target="_top" xlink:title="com.tomoparts.tomoBay.test.unit.model.net.email.\lEmailTest.main">
<polygon fill="white" stroke="black" points="110,-79.5 110,-109.5 374,-109.5 374,-79.5 110,-79.5"/>
<text text-anchor="start" x="118" y="-97.5" font-family="Helvetica,sans-Serif" font-size="10.00">com.tomoparts.tomoBay.test.unit.model.net.email.</text>
<text text-anchor="middle" x="242" y="-86.5" font-family="Helvetica,sans-Serif" font-size="10.00">EmailTest.main</text>
</a>
</g>
</g>
<!-- Node1&#45;&gt;Node6 -->
<g id="edge6" class="edge"><title>Node1&#45;&gt;Node6</title>
<path fill="none" stroke="midnightblue" d="M84.3056,-94.5C92.2246,-94.5 100.788,-94.5 109.686,-94.5"/>
<polygon fill="midnightblue" stroke="midnightblue" points="84.2924,-91.0001 74.2923,-94.5 84.2923,-98.0001 84.2924,-91.0001"/>
</g>
<!-- Node7 -->
<g id="node7" class="node"><title>Node7</title>
<g id="a_node7"><a xlink:href="classcom_1_1tomoparts_1_1tomoBay_1_1model_1_1net_1_1email_1_1MailClient.html#ab932ccc2020ca1398b5eb546e77a8d63" target="_top" xlink:title="set up the email ready to use in the rest of the mail client ">
<polygon fill="white" stroke="black" points="131.5,-30.5 131.5,-60.5 352.5,-60.5 352.5,-30.5 131.5,-30.5"/>
<text text-anchor="start" x="139.5" y="-48.5" font-family="Helvetica,sans-Serif" font-size="10.00">com.tomoparts.tomoBay.model.net.email.</text>
<text text-anchor="middle" x="242" y="-37.5" font-family="Helvetica,sans-Serif" font-size="10.00">MailClient.setUpEmail</text>
</a>
</g>
</g>
<!-- Node1&#45;&gt;Node7 -->
<g id="edge7" class="edge"><title>Node1&#45;&gt;Node7</title>
<path fill="none" stroke="midnightblue" d="M71.9362,-81.519C83.8501,-77.2827 97.4048,-72.8196 110,-69.5 122.521,-66.2001 135.832,-63.1955 148.989,-60.5149"/>
<polygon fill="midnightblue" stroke="midnightblue" points="70.5751,-78.2896 62.3715,-84.9942 72.9656,-84.8689 70.5751,-78.2896"/>
</g>
<!-- Node3 -->
<g id="node3" class="node"><title>Node3</title>
<g id="a_node3"><a xlink:href="classcom_1_1tomoparts_1_1tomoBay_1_1model_1_1services_1_1emailErrorsService_1_1OnRunning.html#ae4a4f4cadce2787c7e80005639fbd5d9" target="_top" xlink:title="this method defines what to do in the given derived state ">
<polygon fill="white" stroke="black" points="699,-122.5 699,-152.5 941,-152.5 941,-122.5 699,-122.5"/>
<text text-anchor="start" x="707" y="-140.5" font-family="Helvetica,sans-Serif" font-size="10.00">com.tomoparts.tomoBay.model.services.email</text>
<text text-anchor="middle" x="820" y="-129.5" font-family="Helvetica,sans-Serif" font-size="10.00">ErrorsService.OnRunning.execute</text>
</a>
</g>
</g>
<!-- Node2&#45;&gt;Node3 -->
<g id="edge2" class="edge"><title>Node2&#45;&gt;Node3</title>
<path fill="none" stroke="midnightblue" d="M380.282,-142.07C477.162,-141.061 605.722,-139.722 698.607,-138.754"/>
<polygon fill="midnightblue" stroke="midnightblue" points="380.082,-138.572 370.119,-142.176 380.155,-145.571 380.082,-138.572"/>
</g>
<!-- Node5 -->
<g id="node5" class="node"><title>Node5</title>
<g id="a_node5"><a xlink:href="classcom_1_1tomoparts_1_1tomoBay_1_1model_1_1services_1_1emailErrorsService_1_1EmailErrorsMailActions.html#ad1dbcb645114a23c7e2a441cb6ae9ca4" target="_top" xlink:title="handle the creation of the Email by passing in a map with the appropriate data inside it...">
<polygon fill="white" stroke="black" points="410,-96.5 410,-126.5 652,-126.5 652,-96.5 410,-96.5"/>
<text text-anchor="start" x="418" y="-114.5" font-family="Helvetica,sans-Serif" font-size="10.00">com.tomoparts.tomoBay.model.services.email</text>
<text text-anchor="middle" x="531" y="-103.5" font-family="Helvetica,sans-Serif" font-size="10.00">ErrorsService.EmailErrorsMailActions.loadData</text>
</a>
</g>
</g>
<!-- Node2&#45;&gt;Node5 -->
<g id="edge4" class="edge"><title>Node2&#45;&gt;Node5</title>
<path fill="none" stroke="midnightblue" d="M380.37,-128.183C390.212,-127.086 400.092,-125.984 409.826,-124.899"/>
<polygon fill="midnightblue" stroke="midnightblue" points="379.686,-124.738 370.136,-129.325 380.462,-131.695 379.686,-124.738"/>
</g>
<!-- Node4 -->
<g id="node4" class="node"><title>Node4</title>
<g id="a_node4"><a xlink:href="classcom_1_1tomoparts_1_1tomoBay_1_1model_1_1services_1_1emailErrorsService_1_1EmailErrorsService.html#ae3b0a282dcba7f2d675ca89b1dd48487" target="_top" xlink:title="com.tomoparts.tomoBay.model.services.email\lErrorsService.EmailErrorsService.onRunning">
<polygon fill="white" stroke="black" points="988,-122.5 988,-152.5 1230,-152.5 1230,-122.5 988,-122.5"/>
<text text-anchor="start" x="996" y="-140.5" font-family="Helvetica,sans-Serif" font-size="10.00">com.tomoparts.tomoBay.model.services.email</text>
<text text-anchor="middle" x="1109" y="-129.5" font-family="Helvetica,sans-Serif" font-size="10.00">ErrorsService.EmailErrorsService.onRunning</text>
</a>
</g>
</g>
<!-- Node3&#45;&gt;Node4 -->
<g id="edge3" class="edge"><title>Node3&#45;&gt;Node4</title>
<path fill="none" stroke="midnightblue" d="M951.278,-137.5C963.499,-137.5 975.848,-137.5 987.969,-137.5"/>
<polygon fill="midnightblue" stroke="midnightblue" points="951.051,-134 941.051,-137.5 951.051,-141 951.051,-134"/>
</g>
<!-- Node5&#45;&gt;Node3 -->
<g id="edge5" class="edge"><title>Node5&#45;&gt;Node3</title>
<path fill="none" stroke="midnightblue" d="M662.278,-123.302C674.499,-124.409 686.848,-125.528 698.969,-126.626"/>
<polygon fill="midnightblue" stroke="midnightblue" points="662.326,-119.792 652.051,-122.376 661.694,-126.764 662.326,-119.792"/>
</g>
<!-- Node8 -->
<g id="node8" class="node"><title>Node8</title>
<g id="a_node8"><a xlink:href="classcom_1_1tomoparts_1_1tomoBay_1_1model_1_1net_1_1email_1_1MailClient.html#af9eddf4b6d3506f30b2f282c86c59ed6" target="_top" xlink:title="sends an email containing a message and subject. ">
<polygon fill="white" stroke="black" points="420.5,-30.5 420.5,-60.5 641.5,-60.5 641.5,-30.5 420.5,-30.5"/>
<text text-anchor="start" x="428.5" y="-48.5" font-family="Helvetica,sans-Serif" font-size="10.00">com.tomoparts.tomoBay.model.net.email.</text>
<text text-anchor="middle" x="531" y="-37.5" font-family="Helvetica,sans-Serif" font-size="10.00">MailClient.send</text>
</a>
</g>
</g>
<!-- Node7&#45;&gt;Node8 -->
<g id="edge8" class="edge"><title>Node7&#45;&gt;Node8</title>
<path fill="none" stroke="midnightblue" d="M362.927,-45.5C381.956,-45.5 401.553,-45.5 420.33,-45.5"/>
<polygon fill="midnightblue" stroke="midnightblue" points="362.731,-42.0001 352.731,-45.5 362.731,-49.0001 362.731,-42.0001"/>
</g>
<!-- Node9 -->
<g id="node9" class="node"><title>Node9</title>
<g id="a_node9"><a xlink:href="classcom_1_1tomoparts_1_1tomoBay_1_1model_1_1net_1_1email_1_1MailClient.html#a9a353e90e57af1d4968845017c4d6fa8" target="_top" xlink:title="com.tomoparts.tomoBay.model.net.email.\lMailClient.MailClient">
<polygon fill="white" stroke="black" points="709.5,-49.5 709.5,-79.5 930.5,-79.5 930.5,-49.5 709.5,-49.5"/>
<text text-anchor="start" x="717.5" y="-67.5" font-family="Helvetica,sans-Serif" font-size="10.00">com.tomoparts.tomoBay.model.net.email.</text>
<text text-anchor="middle" x="820" y="-56.5" font-family="Helvetica,sans-Serif" font-size="10.00">MailClient.MailClient</text>
</a>
</g>
</g>
<!-- Node8&#45;&gt;Node9 -->
<g id="edge9" class="edge"><title>Node8&#45;&gt;Node9</title>
<path fill="none" stroke="midnightblue" d="M651.927,-53.4394C670.956,-54.6992 690.553,-55.9965 709.33,-57.2396"/>
<polygon fill="midnightblue" stroke="midnightblue" points="651.94,-49.9327 641.731,-52.7644 651.478,-56.9174 651.94,-49.9327"/>
</g>
<!-- Node10 -->
<g id="node10" class="node"><title>Node10</title>
<g id="a_node10"><a xlink:href="classcom_1_1tomoparts_1_1tomoBay_1_1presenters_1_1presenterActions_1_1concreteActions_1_1InvoiceOrders.html#a9c77c827472e4f09aa020d55e7d33b10" target="_top" xlink:title="com.tomoparts.tomoBay.presenters.presenter\lActions.concreteActions.InvoiceOrders.emailResults">
<polygon fill="white" stroke="black" points="688,-0.5 688,-30.5 952,-30.5 952,-0.5 688,-0.5"/>
<text text-anchor="start" x="696" y="-18.5" font-family="Helvetica,sans-Serif" font-size="10.00">com.tomoparts.tomoBay.presenters.presenter</text>
<text text-anchor="middle" x="820" y="-7.5" font-family="Helvetica,sans-Serif" font-size="10.00">Actions.concreteActions.InvoiceOrders.emailResults</text>
</a>
</g>
</g>
<!-- Node8&#45;&gt;Node10 -->
<g id="edge10" class="edge"><title>Node8&#45;&gt;Node10</title>
<path fill="none" stroke="midnightblue" d="M652.021,-32.9542C663.804,-31.7226 675.804,-30.4683 687.691,-29.2257"/>
<polygon fill="midnightblue" stroke="midnightblue" points="651.313,-29.5091 641.731,-34.0299 652.041,-36.4712 651.313,-29.5091"/>
</g>
<!-- Node11 -->
<g id="node11" class="node"><title>Node11</title>
<g id="a_node11"><a xlink:href="classcom_1_1tomoparts_1_1tomoBay_1_1presenters_1_1presenterActions_1_1concreteActions_1_1InvoiceOrders.html#adb3dedf31dc2c7fc796f20406c235ccd" target="_top" xlink:title="performs the action specified ">
<polygon fill="white" stroke="black" points="988,-0.5 988,-30.5 1230,-30.5 1230,-0.5 988,-0.5"/>
<text text-anchor="start" x="996" y="-18.5" font-family="Helvetica,sans-Serif" font-size="10.00">com.tomoparts.tomoBay.presenters.presenter</text>
<text text-anchor="middle" x="1109" y="-7.5" font-family="Helvetica,sans-Serif" font-size="10.00">Actions.concreteActions.InvoiceOrders.execute</text>
</a>
</g>
</g>
<!-- Node10&#45;&gt;Node11 -->
<g id="edge11" class="edge"><title>Node10&#45;&gt;Node11</title>
<path fill="none" stroke="midnightblue" d="M962.581,-15.5C971.002,-15.5 979.432,-15.5 987.754,-15.5"/>
<polygon fill="midnightblue" stroke="midnightblue" points="962.321,-12.0001 952.321,-15.5 962.321,-19.0001 962.321,-12.0001"/>
</g>
</g>
</svg>
