<?xml version="1.0" encoding="UTF-8" standalone="no"?>
<!DOCTYPE svg PUBLIC "-//W3C//DTD SVG 1.1//EN"
 "http://www.w3.org/Graphics/SVG/1.1/DTD/svg11.dtd">
<!-- Generated by graphviz version 2.38.0 (20140413.2041)
 -->
<!-- Title: put Pages: 1 -->
<!--zoomable 489 -->
<svg id="main" version="1.1" xmlns="http://www.w3.org/2000/svg" xmlns:xlink="http://www.w3.org/1999/xlink" xml:space="preserve" onload="init(evt)">
<style type="text/css"><![CDATA[
.edge:hover path { stroke: red; }
.edge:hover polygon { stroke: red; fill: red; }
]]></style>
<script type="text/javascript"><![CDATA[
var edges = document.getElementsByTagName('g');
if (edges && edges.length) {
  for (var i=0;i<edges.length;i++) {
    if (edges[i].id.substr(0,4)=='edge') {
      edges[i].setAttribute('class','edge');
    }
  }
}
]]></script>
        <defs>
                <circle id="rim" cx="0" cy="0" r="7"/>
                <circle id="rim2" cx="0" cy="0" r="3.5"/>
                <g id="zoomPlus">
                        <use xlink:href="#rim" fill="#404040">
                                <set attributeName="fill" to="#808080" begin="zoomplus.mouseover" end="zoomplus.mouseout"/>
                        </use>
                        <path d="M-4,0h8M0,-4v8" fill="none" stroke="white" stroke-width="1.5" pointer-events="none"/>
                </g>
                <g id="zoomMin">
                        <use xlink:href="#rim" fill="#404040">
                                <set attributeName="fill" to="#808080" begin="zoomminus.mouseover" end="zoomminus.mouseout"/>
                        </use>
                        <path d="M-4,0h8" fill="none" stroke="white" stroke-width="1.5" pointer-events="none"/>
                </g>
                <g id="dirArrow">
                        <path fill="none" stroke="white" stroke-width="1.5" d="M0,-3.0v7 M-2.5,-0.5L0,-3.0L2.5,-0.5"/>
                </g>
               <g id="resetDef">
                       <use xlink:href="#rim2" fill="#404040">
                               <set attributeName="fill" to="#808080" begin="reset.mouseover" end="reset.mouseout"/>
                       </use>
               </g>
        </defs>

<script type="text/javascript">
var viewWidth = 1171;
var viewHeight = 489;
var sectionId = 'dynsection-2';
</script>
<script xlink:href="svgpan.js"/>
<svg id="graph" class="graph">
<g id="viewport">
<title>put</title>
<polygon fill="white" stroke="none" points="-4,4 -4,-485 1167,-485 1167,4 -4,4"/>
<!-- Node1 -->
<g id="node1" class="node"><title>Node1</title>
<polygon fill="#bfbfbf" stroke="black" points="0,-148 0,-167 32,-167 32,-148 0,-148"/>
<text text-anchor="middle" x="16" y="-155" font-family="Helvetica,sans-Serif" font-size="10.00">put</text>
</g>
<!-- Node2 -->
<g id="node2" class="node"><title>Node2</title>
<g id="a_node2"><a xlink:href="classcom_1_1tomoparts_1_1tomoBay_1_1model_1_1dataTypes_1_1json_1_1JSONentity.html#a885a59c0d9a3b39e50ba2862dfa57b2e" target="_top" xlink:title="com.tomoparts.tomoBay.model.data\lTypes.json.JSONentity.addBranch">
<polygon fill="white" stroke="black" points="91.5,-170.5 91.5,-200.5 286.5,-200.5 286.5,-170.5 91.5,-170.5"/>
<text text-anchor="start" x="99.5" y="-188.5" font-family="Helvetica,sans-Serif" font-size="10.00">com.tomoparts.tomoBay.model.data</text>
<text text-anchor="middle" x="189" y="-177.5" font-family="Helvetica,sans-Serif" font-size="10.00">Types.json.JSONentity.addBranch</text>
</a>
</g>
</g>
<!-- Node1&#45;&gt;Node2 -->
<g id="edge1" class="edge"><title>Node1&#45;&gt;Node2</title>
<path fill="none" stroke="midnightblue" d="M42.3595,-161.652C56.9827,-164.047 76.3609,-167.22 96.194,-170.467"/>
<polygon fill="midnightblue" stroke="midnightblue" points="42.6093,-158.147 32.1751,-159.985 41.4781,-165.055 42.6093,-158.147"/>
</g>
<!-- Node7 -->
<g id="node7" class="node"><title>Node7</title>
<g id="a_node7"><a xlink:href="classcom_1_1tomoparts_1_1tomoBay_1_1model_1_1dataTypes_1_1json_1_1JSONentity.html#afead82af115042a64d2604ec5f508f45" target="_top" xlink:title="A leaf node is simply a key value pair. ">
<polygon fill="white" stroke="black" points="91.5,-254.5 91.5,-284.5 286.5,-284.5 286.5,-254.5 91.5,-254.5"/>
<text text-anchor="start" x="99.5" y="-272.5" font-family="Helvetica,sans-Serif" font-size="10.00">com.tomoparts.tomoBay.model.data</text>
<text text-anchor="middle" x="189" y="-261.5" font-family="Helvetica,sans-Serif" font-size="10.00">Types.json.JSONentity.addLeaf</text>
</a>
</g>
</g>
<!-- Node1&#45;&gt;Node7 -->
<g id="edge6" class="edge"><title>Node1&#45;&gt;Node7</title>
<path fill="none" stroke="midnightblue" d="M30.9803,-174.898C40.564,-186.051 54.0302,-200.297 68,-210.5 93.0282,-228.779 124.586,-244.038 149.057,-254.457"/>
<polygon fill="midnightblue" stroke="midnightblue" points="33.5589,-172.526 24.4644,-167.09 28.1846,-177.011 33.5589,-172.526"/>
</g>
<!-- Node13 -->
<g id="node13" class="node"><title>Node13</title>
<g id="a_node13"><a xlink:href="classcom_1_1tomoparts_1_1tomoBay_1_1model_1_1dataTypes_1_1json_1_1JSONentity.html#a2b7bd58f83f5fe8759b97475c942a8b1" target="_top" xlink:title="add pre&#45;formatted text to this derived JSON entity ">
<polygon fill="white" stroke="black" points="369,-450.5 369,-480.5 577,-480.5 577,-450.5 369,-450.5"/>
<text text-anchor="start" x="377" y="-468.5" font-family="Helvetica,sans-Serif" font-size="10.00">com.tomoparts.tomoBay.model.data</text>
<text text-anchor="middle" x="473" y="-457.5" font-family="Helvetica,sans-Serif" font-size="10.00">Types.json.JSONentity.addPreFormatted</text>
</a>
</g>
</g>
<!-- Node1&#45;&gt;Node13 -->
<g id="edge17" class="edge"><title>Node1&#45;&gt;Node13</title>
<path fill="none" stroke="midnightblue" d="M19.8399,-177.431C24.8799,-206.328 37.8487,-260.149 68,-294.5 149.016,-386.801 288.259,-430.669 380.233,-450.497"/>
<polygon fill="midnightblue" stroke="midnightblue" points="23.2626,-176.669 18.2304,-167.345 16.3501,-177.772 23.2626,-176.669"/>
</g>
<!-- Node14 -->
<g id="node14" class="node"><title>Node14</title>
<g id="a_node14"><a xlink:href="classcom_1_1tomoparts_1_1tomoBay_1_1model_1_1dataTypes_1_1financial_1_1SalesOrderDayBook_1_1formats_1_1WinstockFormat.html#accefd62bc10c59d9ba78937d90a5fa8c" target="_top" xlink:title="com.tomoparts.tomoBay.model.data\lTypes.financial.SalesOrderDayBook.formats.\lWinstockFormat.format">
<polygon fill="white" stroke="black" points="74.5,-110 74.5,-151 303.5,-151 303.5,-110 74.5,-110"/>
<text text-anchor="start" x="82.5" y="-139" font-family="Helvetica,sans-Serif" font-size="10.00">com.tomoparts.tomoBay.model.data</text>
<text text-anchor="start" x="82.5" y="-128" font-family="Helvetica,sans-Serif" font-size="10.00">Types.financial.SalesOrderDayBook.formats.</text>
<text text-anchor="middle" x="189" y="-117" font-family="Helvetica,sans-Serif" font-size="10.00">WinstockFormat.format</text>
</a>
</g>
</g>
<!-- Node1&#45;&gt;Node14 -->
<g id="edge20" class="edge"><title>Node1&#45;&gt;Node14</title>
<path fill="none" stroke="midnightblue" d="M42.3078,-153.504C51.426,-152.064 62.3978,-150.332 74.1783,-148.472"/>
<polygon fill="midnightblue" stroke="midnightblue" points="41.5068,-150.087 32.1751,-155.104 42.5986,-157.001 41.5068,-150.087"/>
</g>
<!-- Node15 -->
<g id="node15" class="node"><title>Node15</title>
<g id="a_node15"><a xlink:href="classcom_1_1tomoparts_1_1tomoBay_1_1presenters_1_1presenterActions_1_1concreteActions_1_1PrintInvoices.html#ac97d696be5d448872836685e8efd21a6" target="_top" xlink:title="formats the AbstractSalesDayBookLine into a format that can be passed to the WinstockCommandInvoker. ">
<polygon fill="white" stroke="black" points="68,-50 68,-91 310,-91 310,-50 68,-50"/>
<text text-anchor="start" x="76" y="-79" font-family="Helvetica,sans-Serif" font-size="10.00">com.tomoparts.tomoBay.presenters.presenter</text>
<text text-anchor="start" x="76" y="-68" font-family="Helvetica,sans-Serif" font-size="10.00">Actions.concreteActions.PrintInvoices.format</text>
<text text-anchor="middle" x="189" y="-57" font-family="Helvetica,sans-Serif" font-size="10.00">AsDualList</text>
</a>
</g>
</g>
<!-- Node1&#45;&gt;Node15 -->
<g id="edge21" class="edge"><title>Node1&#45;&gt;Node15</title>
<path fill="none" stroke="midnightblue" d="M28.8017,-139.352C38.0036,-126.627 51.8984,-110.216 68,-100.5 73.8836,-96.9496 80.1714,-93.8181 86.6702,-91.0562"/>
<polygon fill="midnightblue" stroke="midnightblue" points="25.7601,-137.597 22.9664,-147.817 31.5235,-141.57 25.7601,-137.597"/>
</g>
<!-- Node17 -->
<g id="node17" class="node"><title>Node17</title>
<g id="a_node17"><a xlink:href="classcom_1_1tomoparts_1_1tomoBay_1_1test_1_1unit_1_1model_1_1net_1_1ClientSocketTest.html#a8b260eecbaabcef8473fd87ada040682" target="_top" xlink:title="com.tomoparts.tomoBay.test.unit.model.net.\lClientSocketTest.main">
<polygon fill="white" stroke="black" points="71.5,-0.5 71.5,-30.5 306.5,-30.5 306.5,-0.5 71.5,-0.5"/>
<text text-anchor="start" x="79.5" y="-18.5" font-family="Helvetica,sans-Serif" font-size="10.00">com.tomoparts.tomoBay.test.unit.model.net.</text>
<text text-anchor="middle" x="189" y="-7.5" font-family="Helvetica,sans-Serif" font-size="10.00">ClientSocketTest.main</text>
</a>
</g>
</g>
<!-- Node1&#45;&gt;Node17 -->
<g id="edge23" class="edge"><title>Node1&#45;&gt;Node17</title>
<path fill="none" stroke="midnightblue" d="M19.8992,-137.907C24.8727,-111.569 37.6096,-65.2046 68,-40.5 72.7062,-36.6743 77.8518,-33.3906 83.2806,-30.5756"/>
<polygon fill="midnightblue" stroke="midnightblue" points="16.4348,-137.403 18.2142,-147.847 23.3364,-138.573 16.4348,-137.403"/>
</g>
<!-- Node3 -->
<g id="node3" class="node"><title>Node3</title>
<g id="a_node3"><a xlink:href="classcom_1_1tomoparts_1_1tomoBay_1_1presenters_1_1presenterActions_1_1concreteActions_1_1BuyerList.html#adb3dedf31dc2c7fc796f20406c235ccd" target="_top" xlink:title="performs the action specified ">
<polygon fill="white" stroke="black" points="639.5,-159.5 639.5,-189.5 881.5,-189.5 881.5,-159.5 639.5,-159.5"/>
<text text-anchor="start" x="647.5" y="-177.5" font-family="Helvetica,sans-Serif" font-size="10.00">com.tomoparts.tomoBay.presenters.presenter</text>
<text text-anchor="middle" x="760.5" y="-166.5" font-family="Helvetica,sans-Serif" font-size="10.00">Actions.concreteActions.BuyerList.execute</text>
</a>
</g>
</g>
<!-- Node2&#45;&gt;Node3 -->
<g id="edge2" class="edge"><title>Node2&#45;&gt;Node3</title>
<path fill="none" stroke="midnightblue" d="M281.226,-168.15C290.996,-165.801 300.742,-163.244 310,-160.5 326.46,-155.622 329.127,-149.665 346,-146.5 466.045,-123.979 608.699,-143.636 691.196,-159.438"/>
<polygon fill="midnightblue" stroke="midnightblue" points="280.406,-164.747 271.465,-170.43 281.999,-171.564 280.406,-164.747"/>
</g>
<!-- Node4 -->
<g id="node4" class="node"><title>Node4</title>
<g id="a_node4"><a xlink:href="classcom_1_1tomoparts_1_1tomoBay_1_1presenters_1_1presenterActions_1_1concreteActions_1_1OrderInfo.html#a703cbb509cdc01530f19b03f573120c9" target="_top" xlink:title="formats the transaction information associated with this order ">
<polygon fill="white" stroke="black" points="346,-156.5 346,-186.5 600,-186.5 600,-156.5 346,-156.5"/>
<text text-anchor="start" x="354" y="-174.5" font-family="Helvetica,sans-Serif" font-size="10.00">com.tomoparts.tomoBay.presenters.presenter</text>
<text text-anchor="middle" x="473" y="-163.5" font-family="Helvetica,sans-Serif" font-size="10.00">Actions.concreteActions.OrderInfo.transactionInfo</text>
</a>
</g>
</g>
<!-- Node2&#45;&gt;Node4 -->
<g id="edge3" class="edge"><title>Node2&#45;&gt;Node4</title>
<path fill="none" stroke="midnightblue" d="M296.988,-180.189C312.862,-179.4 329.347,-178.582 345.573,-177.777"/>
<polygon fill="midnightblue" stroke="midnightblue" points="296.468,-176.71 286.654,-180.702 296.815,-183.701 296.468,-176.71"/>
</g>
<!-- Node5 -->
<g id="node5" class="node"><title>Node5</title>
<g id="a_node5"><a xlink:href="classcom_1_1tomoparts_1_1tomoBay_1_1presenters_1_1presenterActions_1_1concreteActions_1_1OrderInfo.html#afeec1aeda079b77245edea1e74b25f33" target="_top" xlink:title="assembles the various parts of the order and outputs it as a fully formed JSON string. ">
<polygon fill="white" stroke="black" points="636,-365.5 636,-395.5 885,-395.5 885,-365.5 636,-365.5"/>
<text text-anchor="start" x="644" y="-383.5" font-family="Helvetica,sans-Serif" font-size="10.00">com.tomoparts.tomoBay.presenters.presenter</text>
<text text-anchor="middle" x="760.5" y="-372.5" font-family="Helvetica,sans-Serif" font-size="10.00">Actions.concreteActions.OrderInfo.formatResults</text>
</a>
</g>
</g>
<!-- Node4&#45;&gt;Node5 -->
<g id="edge4" class="edge"><title>Node4&#45;&gt;Node5</title>
<path fill="none" stroke="midnightblue" d="M588.348,-190.521C592.359,-192.338 596.258,-194.326 600,-196.5 674.026,-239.5 730.741,-329.602 751.212,-365.384"/>
<polygon fill="midnightblue" stroke="midnightblue" points="589.388,-187.164 578.81,-186.581 586.716,-193.633 589.388,-187.164"/>
</g>
<!-- Node6 -->
<g id="node6" class="node"><title>Node6</title>
<g id="a_node6"><a xlink:href="classcom_1_1tomoparts_1_1tomoBay_1_1presenters_1_1presenterActions_1_1concreteActions_1_1OrderInfo.html#adb3dedf31dc2c7fc796f20406c235ccd" target="_top" xlink:title="performs the action specified ">
<polygon fill="white" stroke="black" points="921,-400.5 921,-430.5 1163,-430.5 1163,-400.5 921,-400.5"/>
<text text-anchor="start" x="929" y="-418.5" font-family="Helvetica,sans-Serif" font-size="10.00">com.tomoparts.tomoBay.presenters.presenter</text>
<text text-anchor="middle" x="1042" y="-407.5" font-family="Helvetica,sans-Serif" font-size="10.00">Actions.concreteActions.OrderInfo.execute</text>
</a>
</g>
</g>
<!-- Node5&#45;&gt;Node6 -->
<g id="edge5" class="edge"><title>Node5&#45;&gt;Node6</title>
<path fill="none" stroke="midnightblue" d="M891.764,-396.812C901.493,-398.03 911.284,-399.256 920.946,-400.466"/>
<polygon fill="midnightblue" stroke="midnightblue" points="892.013,-393.316 881.655,-395.546 891.143,-400.262 892.013,-393.316"/>
</g>
<!-- Node7&#45;&gt;Node4 -->
<g id="edge14" class="edge"><title>Node7&#45;&gt;Node4</title>
<path fill="none" stroke="midnightblue" d="M229.149,-249.853C267.414,-230.894 323.145,-203.992 346,-196.5 357.55,-192.714 369.892,-189.407 382.167,-186.546"/>
<polygon fill="midnightblue" stroke="midnightblue" points="227.225,-246.901 219.828,-254.486 230.341,-253.17 227.225,-246.901"/>
</g>
<!-- Node8 -->
<g id="node8" class="node"><title>Node8</title>
<g id="a_node8"><a xlink:href="classcom_1_1tomoparts_1_1tomoBay_1_1presenters_1_1presenterActions_1_1concreteActions_1_1BuyerDetails.html#adb3dedf31dc2c7fc796f20406c235ccd" target="_top" xlink:title="performs the action specified ">
<polygon fill="white" stroke="black" points="352,-303.5 352,-333.5 594,-333.5 594,-303.5 352,-303.5"/>
<text text-anchor="start" x="360" y="-321.5" font-family="Helvetica,sans-Serif" font-size="10.00">com.tomoparts.tomoBay.presenters.presenter</text>
<text text-anchor="middle" x="473" y="-310.5" font-family="Helvetica,sans-Serif" font-size="10.00">Actions.concreteActions.BuyerDetails.execute</text>
</a>
</g>
</g>
<!-- Node7&#45;&gt;Node8 -->
<g id="edge7" class="edge"><title>Node7&#45;&gt;Node8</title>
<path fill="none" stroke="midnightblue" d="M286.399,-286.25C318.596,-291.845 354.253,-298.04 385.638,-303.494"/>
<polygon fill="midnightblue" stroke="midnightblue" points="286.977,-282.798 276.526,-284.535 285.779,-289.695 286.977,-282.798"/>
</g>
<!-- Node9 -->
<g id="node9" class="node"><title>Node9</title>
<g id="a_node9"><a xlink:href="classcom_1_1tomoparts_1_1tomoBay_1_1presenters_1_1presenterActions_1_1concreteActions_1_1BuyerList.html#a1b9a0fa1ef5b8b60a831e9ebc80e6f97" target="_top" xlink:title="format the results of the query as a JSON string ">
<polygon fill="white" stroke="black" points="348.5,-205.5 348.5,-235.5 597.5,-235.5 597.5,-205.5 348.5,-205.5"/>
<text text-anchor="start" x="356.5" y="-223.5" font-family="Helvetica,sans-Serif" font-size="10.00">com.tomoparts.tomoBay.presenters.presenter</text>
<text text-anchor="middle" x="473" y="-212.5" font-family="Helvetica,sans-Serif" font-size="10.00">Actions.concreteActions.BuyerList.formatResults</text>
</a>
</g>
</g>
<!-- Node7&#45;&gt;Node9 -->
<g id="edge8" class="edge"><title>Node7&#45;&gt;Node9</title>
<path fill="none" stroke="midnightblue" d="M286.399,-252.75C318.596,-247.155 354.253,-240.96 385.638,-235.506"/>
<polygon fill="midnightblue" stroke="midnightblue" points="285.779,-249.305 276.526,-254.465 286.977,-256.202 285.779,-249.305"/>
</g>
<!-- Node10 -->
<g id="node10" class="node"><title>Node10</title>
<g id="a_node10"><a xlink:href="classcom_1_1tomoparts_1_1tomoBay_1_1presenters_1_1presenterActions_1_1concreteActions_1_1OrderInfo.html#a95f980d76c5d92ed97b2aaab0d2d0c21" target="_top" xlink:title="formats the summary information for this Order ">
<polygon fill="white" stroke="black" points="350.5,-401.5 350.5,-431.5 595.5,-431.5 595.5,-401.5 350.5,-401.5"/>
<text text-anchor="start" x="358.5" y="-419.5" font-family="Helvetica,sans-Serif" font-size="10.00">com.tomoparts.tomoBay.presenters.presenter</text>
<text text-anchor="middle" x="473" y="-408.5" font-family="Helvetica,sans-Serif" font-size="10.00">Actions.concreteActions.OrderInfo.summaryInfo</text>
</a>
</g>
</g>
<!-- Node7&#45;&gt;Node10 -->
<g id="edge10" class="edge"><title>Node7&#45;&gt;Node10</title>
<path fill="none" stroke="midnightblue" d="M211.561,-292.214C239.703,-320.405 291.79,-367.773 346,-392.5 353.598,-395.966 361.673,-398.931 369.923,-401.468"/>
<polygon fill="midnightblue" stroke="midnightblue" points="213.783,-289.483 204.276,-284.806 208.792,-294.391 213.783,-289.483"/>
</g>
<!-- Node11 -->
<g id="node11" class="node"><title>Node11</title>
<g id="a_node11"><a xlink:href="classcom_1_1tomoparts_1_1tomoBay_1_1presenters_1_1presenterActions_1_1concreteActions_1_1OrderInfo.html#a0efe6811d772c53811b18a441c11b757" target="_top" xlink:title="formats the buyer information associated with this order ">
<polygon fill="white" stroke="black" points="352,-352.5 352,-382.5 594,-382.5 594,-352.5 352,-352.5"/>
<text text-anchor="start" x="360" y="-370.5" font-family="Helvetica,sans-Serif" font-size="10.00">com.tomoparts.tomoBay.presenters.presenter</text>
<text text-anchor="middle" x="473" y="-359.5" font-family="Helvetica,sans-Serif" font-size="10.00">Actions.concreteActions.OrderInfo.buyerInfo</text>
</a>
</g>
</g>
<!-- Node7&#45;&gt;Node11 -->
<g id="edge12" class="edge"><title>Node7&#45;&gt;Node11</title>
<path fill="none" stroke="midnightblue" d="M225.554,-289.581C256.496,-306.264 303.003,-329.462 346,-343.5 356.373,-346.886 367.391,-349.856 378.427,-352.444"/>
<polygon fill="midnightblue" stroke="midnightblue" points="226.928,-286.344 216.473,-284.63 223.577,-292.49 226.928,-286.344"/>
</g>
<!-- Node12 -->
<g id="node12" class="node"><title>Node12</title>
<g id="a_node12"><a xlink:href="classcom_1_1tomoparts_1_1tomoBay_1_1presenters_1_1presenterActions_1_1concreteActions_1_1OrderInfo.html#ab4b3569de633225260e7e17c8947c8c5" target="_top" xlink:title="formats the shipping information associated with this order ">
<polygon fill="white" stroke="black" points="352,-254.5 352,-284.5 594,-284.5 594,-254.5 352,-254.5"/>
<text text-anchor="start" x="360" y="-272.5" font-family="Helvetica,sans-Serif" font-size="10.00">com.tomoparts.tomoBay.presenters.presenter</text>
<text text-anchor="middle" x="473" y="-261.5" font-family="Helvetica,sans-Serif" font-size="10.00">Actions.concreteActions.OrderInfo.shippingInfo</text>
</a>
</g>
</g>
<!-- Node7&#45;&gt;Node12 -->
<g id="edge15" class="edge"><title>Node7&#45;&gt;Node12</title>
<path fill="none" stroke="midnightblue" d="M297.041,-269.5C314.85,-269.5 333.428,-269.5 351.543,-269.5"/>
<polygon fill="midnightblue" stroke="midnightblue" points="296.654,-266 286.654,-269.5 296.654,-273 296.654,-266"/>
</g>
<!-- Node9&#45;&gt;Node3 -->
<g id="edge9" class="edge"><title>Node9&#45;&gt;Node3</title>
<path fill="none" stroke="midnightblue" d="M577.632,-203.803C606.623,-199.132 637.947,-194.085 666.294,-189.517"/>
<polygon fill="midnightblue" stroke="midnightblue" points="576.799,-200.392 567.483,-205.438 577.913,-207.303 576.799,-200.392"/>
</g>
<!-- Node10&#45;&gt;Node5 -->
<g id="edge11" class="edge"><title>Node10&#45;&gt;Node5</title>
<path fill="none" stroke="midnightblue" d="M603.3,-400.196C615.597,-398.645 628.027,-397.078 640.223,-395.54"/>
<polygon fill="midnightblue" stroke="midnightblue" points="602.494,-396.77 593.01,-401.493 603.37,-403.715 602.494,-396.77"/>
</g>
<!-- Node11&#45;&gt;Node5 -->
<g id="edge13" class="edge"><title>Node11&#45;&gt;Node5</title>
<path fill="none" stroke="midnightblue" d="M604.258,-373.431C614.733,-373.908 625.298,-374.389 635.725,-374.864"/>
<polygon fill="midnightblue" stroke="midnightblue" points="604.399,-369.934 594.25,-372.975 604.081,-376.927 604.399,-369.934"/>
</g>
<!-- Node12&#45;&gt;Node5 -->
<g id="edge16" class="edge"><title>Node12&#45;&gt;Node5</title>
<path fill="none" stroke="midnightblue" d="M576.314,-287.09C584.41,-289.301 592.391,-291.764 600,-294.5 651.511,-313.022 706.684,-346.096 736.745,-365.383"/>
<polygon fill="midnightblue" stroke="midnightblue" points="576.96,-283.641 566.401,-284.515 575.2,-290.417 576.96,-283.641"/>
</g>
<!-- Node13&#45;&gt;Node5 -->
<g id="edge19" class="edge"><title>Node13&#45;&gt;Node5</title>
<path fill="none" stroke="midnightblue" d="M573.417,-448.276C582.454,-446.196 591.427,-443.935 600,-441.5 644.204,-428.944 693.351,-409.231 725.251,-395.63"/>
<polygon fill="midnightblue" stroke="midnightblue" points="572.601,-444.872 563.601,-450.463 574.123,-451.705 572.601,-444.872"/>
</g>
<!-- Node13&#45;&gt;Node6 -->
<g id="edge18" class="edge"><title>Node13&#45;&gt;Node6</title>
<path fill="none" stroke="midnightblue" d="M587.101,-455.526C683.683,-447.009 822.215,-434.793 920.788,-426.101"/>
<polygon fill="midnightblue" stroke="midnightblue" points="586.662,-452.051 577.008,-456.416 587.277,-459.024 586.662,-452.051"/>
</g>
<!-- Node16 -->
<g id="node16" class="node"><title>Node16</title>
<g id="a_node16"><a xlink:href="classcom_1_1tomoparts_1_1tomoBay_1_1presenters_1_1presenterActions_1_1concreteActions_1_1PrintInvoices.html#adb3dedf31dc2c7fc796f20406c235ccd" target="_top" xlink:title="performs the action specified ">
<polygon fill="white" stroke="black" points="352,-55.5 352,-85.5 594,-85.5 594,-55.5 352,-55.5"/>
<text text-anchor="start" x="360" y="-73.5" font-family="Helvetica,sans-Serif" font-size="10.00">com.tomoparts.tomoBay.presenters.presenter</text>
<text text-anchor="middle" x="473" y="-62.5" font-family="Helvetica,sans-Serif" font-size="10.00">Actions.concreteActions.PrintInvoices.execute</text>
</a>
</g>
</g>
<!-- Node15&#45;&gt;Node16 -->
<g id="edge22" class="edge"><title>Node15&#45;&gt;Node16</title>
<path fill="none" stroke="midnightblue" d="M320.063,-70.5C330.591,-70.5 341.201,-70.5 351.656,-70.5"/>
<polygon fill="midnightblue" stroke="midnightblue" points="320.002,-67.0001 310.002,-70.5 320.002,-74.0001 320.002,-67.0001"/>
</g>
</g>
</svg>
        <g id="navigator" transform="translate(0 0)" fill="#404254">
                <rect fill="#f2f5e9" fill-opacity="0.5" stroke="#606060" stroke-width=".5" x="0" y="0" width="60" height="60"/>
                <use id="zoomplus" xlink:href="#zoomPlus" x="17" y="9" onmousedown="handleZoom(evt,'in')"/>
                <use id="zoomminus" xlink:href="#zoomMin" x="42" y="9" onmousedown="handleZoom(evt,'out')"/>
                <use id="reset" xlink:href="#resetDef" x="30" y="36" onmousedown="handleReset()"/>
                <g id="arrowUp" xlink:href="#dirArrow" transform="translate(30 24)" onmousedown="handlePan(0,-1)">
                  <use xlink:href="#rim" fill="#404040">
                        <set attributeName="fill" to="#808080" begin="arrowUp.mouseover" end="arrowUp.mouseout"/>
                  </use>
                  <path fill="none" stroke="white" stroke-width="1.5" d="M0,-3.0v7 M-2.5,-0.5L0,-3.0L2.5,-0.5"/>
                </g>
                <g id="arrowRight" xlink:href="#dirArrow" transform="rotate(90) translate(36 -43)" onmousedown="handlePan(1,0)">
                  <use xlink:href="#rim" fill="#404040">
                        <set attributeName="fill" to="#808080" begin="arrowRight.mouseover" end="arrowRight.mouseout"/>
                  </use>
                  <path fill="none" stroke="white" stroke-width="1.5" d="M0,-3.0v7 M-2.5,-0.5L0,-3.0L2.5,-0.5"/>
                </g>
                <g id="arrowDown" xlink:href="#dirArrow" transform="rotate(180) translate(-30 -48)" onmousedown="handlePan(0,1)">
                  <use xlink:href="#rim" fill="#404040">
                        <set attributeName="fill" to="#808080" begin="arrowDown.mouseover" end="arrowDown.mouseout"/>
                  </use>
                  <path fill="none" stroke="white" stroke-width="1.5" d="M0,-3.0v7 M-2.5,-0.5L0,-3.0L2.5,-0.5"/>
                </g>
                <g id="arrowLeft" xlink:href="#dirArrow" transform="rotate(270) translate(-36 17)" onmousedown="handlePan(-1,0)">
                  <use xlink:href="#rim" fill="#404040">
                        <set attributeName="fill" to="#808080" begin="arrowLeft.mouseover" end="arrowLeft.mouseout"/>
                  </use>
                  <path fill="none" stroke="white" stroke-width="1.5" d="M0,-3.0v7 M-2.5,-0.5L0,-3.0L2.5,-0.5"/>
                </g>
        </g>
        <svg viewBox="0 0 15 15" width="100%" height="30px" preserveAspectRatio="xMaxYMin meet">
         <g id="arrow_out" transform="scale(0.3 0.3)">
          <a xlink:href="classcom_1_1tomoparts_1_1tomoBay_1_1model_1_1dataTypes_1_1DualList_ac6c5d11a7054f49bb7c9489f5893daeb_icgraph_org.svg" target="_base">
           <rect id="button" ry="5" rx="5" y="6" x="6" height="38" width="38"
                fill="#f2f5e9" fill-opacity="0.5" stroke="#606060" stroke-width="1.0"/>
           <path id="arrow"
             d="M 11.500037,31.436501 C 11.940474,20.09759 22.043105,11.32322 32.158766,21.979434 L 37.068811,17.246167 C 37.068811,17.246167 37.088388,32 37.088388,32 L 22.160133,31.978069 C 22.160133,31.978069 26.997745,27.140456 26.997745,27.140456 C 18.528582,18.264221 13.291696,25.230495 11.500037,31.436501 z"
             style="fill:#404040;"/>
          </a>
         </g>
        </svg>
</svg>
