<?xml version="1.0" encoding="UTF-8" standalone="no"?>
<!DOCTYPE svg PUBLIC "-//W3C//DTD SVG 1.1//EN"
 "http://www.w3.org/Graphics/SVG/1.1/DTD/svg11.dtd">
<!-- Generated by graphviz version 2.38.0 (20140413.2041)
 -->
<!-- Title: onPaused Pages: 1 -->
<!--zoomable 788 -->
<svg id="main" version="1.1" xmlns="http://www.w3.org/2000/svg" xmlns:xlink="http://www.w3.org/1999/xlink" xml:space="preserve" onload="init(evt)">
<style type="text/css"><![CDATA[
.edge:hover path { stroke: red; }
.edge:hover polygon { stroke: red; fill: red; }
]]></style>
<script type="text/javascript"><![CDATA[
var edges = document.getElementsByTagName('g');
if (edges && edges.length) {
  for (var i=0;i<edges.length;i++) {
    if (edges[i].id.substr(0,4)=='edge') {
      edges[i].setAttribute('class','edge');
    }
  }
}
]]></script>
        <defs>
                <circle id="rim" cx="0" cy="0" r="7"/>
                <circle id="rim2" cx="0" cy="0" r="3.5"/>
                <g id="zoomPlus">
                        <use xlink:href="#rim" fill="#404040">
                                <set attributeName="fill" to="#808080" begin="zoomplus.mouseover" end="zoomplus.mouseout"/>
                        </use>
                        <path d="M-4,0h8M0,-4v8" fill="none" stroke="white" stroke-width="1.5" pointer-events="none"/>
                </g>
                <g id="zoomMin">
                        <use xlink:href="#rim" fill="#404040">
                                <set attributeName="fill" to="#808080" begin="zoomminus.mouseover" end="zoomminus.mouseout"/>
                        </use>
                        <path d="M-4,0h8" fill="none" stroke="white" stroke-width="1.5" pointer-events="none"/>
                </g>
                <g id="dirArrow">
                        <path fill="none" stroke="white" stroke-width="1.5" d="M0,-3.0v7 M-2.5,-0.5L0,-3.0L2.5,-0.5"/>
                </g>
               <g id="resetDef">
                       <use xlink:href="#rim2" fill="#404040">
                               <set attributeName="fill" to="#808080" begin="reset.mouseover" end="reset.mouseout"/>
                       </use>
               </g>
        </defs>

<script type="text/javascript">
var viewWidth = 1515;
var viewHeight = 788;
var sectionId = 'dynsection-4';
</script>
<script xlink:href="svgpan.js"/>
<svg id="graph" class="graph">
<g id="viewport">
<title>onPaused</title>
<polygon fill="white" stroke="none" points="-4,4 -4,-783.5 1511,-783.5 1511,4 -4,4"/>
<!-- Node1 -->
<g id="node1" class="node"><title>Node1</title>
<polygon fill="#bfbfbf" stroke="black" points="0,-509.5 0,-528.5 64,-528.5 64,-509.5 0,-509.5"/>
<text text-anchor="middle" x="32" y="-516.5" font-family="Helvetica,sans-Serif" font-size="10.00">onPaused</text>
</g>
<!-- Node2 -->
<g id="node2" class="node"><title>Node2</title>
<g id="a_node2"><a xlink:href="classcom_1_1tomoparts_1_1tomoBay_1_1model_1_1services_1_1basicEbayUpdateService_1_1BasicEbayUpdateService.html#ae3b0a282dcba7f2d675ca89b1dd48487" target="_top" xlink:title="onRunning">
<polygon fill="white" stroke="black" points="100,-509.5 100,-528.5 167,-528.5 167,-509.5 100,-509.5"/>
<text text-anchor="middle" x="133.5" y="-516.5" font-family="Helvetica,sans-Serif" font-size="10.00">onRunning</text>
</a>
</g>
</g>
<!-- Node1&#45;&gt;Node2 -->
<g id="edge1" class="edge"><title>Node1&#45;&gt;Node2</title>
<path fill="none" stroke="midnightblue" d="M64.2094,-519C72.232,-519 81.0052,-519 89.5098,-519"/>
<polygon fill="midnightblue" stroke="midnightblue" points="89.682,-522.5 99.682,-519 89.6819,-515.5 89.682,-522.5"/>
</g>
<!-- Node3 -->
<g id="node3" class="node"><title>Node3</title>
<g id="a_node3"><a xlink:href="classcom_1_1tomoparts_1_1tomoBay_1_1model_1_1services_1_1basicEbayUpdateService_1_1OnRunning.html#ae4a4f4cadce2787c7e80005639fbd5d9" target="_top" xlink:title="this method defines what to do in the given derived state ">
<polygon fill="white" stroke="black" points="203,-504 203,-534 443,-534 443,-504 203,-504"/>
<text text-anchor="start" x="211" y="-522" font-family="Helvetica,sans-Serif" font-size="10.00">com.tomoparts.tomoBay.model.services.basic</text>
<text text-anchor="middle" x="323" y="-511" font-family="Helvetica,sans-Serif" font-size="10.00">EbayUpdateService.OnRunning.execute</text>
</a>
</g>
</g>
<!-- Node2&#45;&gt;Node3 -->
<g id="edge2" class="edge"><title>Node2&#45;&gt;Node3</title>
<path fill="none" stroke="midnightblue" d="M167.16,-519C174.865,-519 183.546,-519 192.763,-519"/>
<polygon fill="midnightblue" stroke="midnightblue" points="192.955,-522.5 202.955,-519 192.954,-515.5 192.955,-522.5"/>
</g>
<!-- Node4 -->
<g id="node4" class="node"><title>Node4</title>
<g id="a_node4"><a xlink:href="classcom_1_1tomoparts_1_1tomoBay_1_1model_1_1eBayAPI_1_1EbayAccounts.html#afd73fefcdd9ef962a44be4ce715fbbed" target="_top" xlink:title="com.tomoparts.tomoBay.model.e\lBayAPI.EbayAccounts.accounts">
<polygon fill="white" stroke="black" points="516.5,-749 516.5,-779 695.5,-779 695.5,-749 516.5,-749"/>
<text text-anchor="start" x="524.5" y="-767" font-family="Helvetica,sans-Serif" font-size="10.00">com.tomoparts.tomoBay.model.e</text>
<text text-anchor="middle" x="606" y="-756" font-family="Helvetica,sans-Serif" font-size="10.00">BayAPI.EbayAccounts.accounts</text>
</a>
</g>
</g>
<!-- Node3&#45;&gt;Node4 -->
<g id="edge3" class="edge"><title>Node3&#45;&gt;Node4</title>
<path fill="none" stroke="midnightblue" d="M329.787,-534.108C346.22,-574.808 397.325,-687.223 479,-740 487.416,-745.439 496.767,-749.707 506.464,-753.048"/>
<polygon fill="midnightblue" stroke="midnightblue" points="505.666,-756.465 516.254,-756.089 507.742,-749.78 505.666,-756.465"/>
</g>
<!-- Node5 -->
<g id="node5" class="node"><title>Node5</title>
<g id="a_node5"><a xlink:href="classcom_1_1tomoparts_1_1tomoBay_1_1model_1_1eBayAPI_1_1EbayAccounts.html#ae9b99457a79c932468c153115ef964b0" target="_top" xlink:title="retrieve the ebay api key for the account name specified ">
<polygon fill="white" stroke="black" points="516.5,-700 516.5,-730 695.5,-730 695.5,-700 516.5,-700"/>
<text text-anchor="start" x="524.5" y="-718" font-family="Helvetica,sans-Serif" font-size="10.00">com.tomoparts.tomoBay.model.e</text>
<text text-anchor="middle" x="606" y="-707" font-family="Helvetica,sans-Serif" font-size="10.00">BayAPI.EbayAccounts.apiKey</text>
</a>
</g>
</g>
<!-- Node3&#45;&gt;Node5 -->
<g id="edge4" class="edge"><title>Node3&#45;&gt;Node5</title>
<path fill="none" stroke="midnightblue" d="M332.794,-534.172C353.471,-568.35 408.77,-651.46 479,-691 487.586,-695.834 496.969,-699.714 506.616,-702.826"/>
<polygon fill="midnightblue" stroke="midnightblue" points="505.75,-706.219 516.332,-705.688 507.728,-699.505 505.75,-706.219"/>
</g>
<!-- Node6 -->
<g id="node6" class="node"><title>Node6</title>
<g id="a_node6"><a xlink:href="classcom_1_1tomoparts_1_1tomoBay_1_1model_1_1eBayAPI_1_1EbayAccounts.html#a17d78d1b20882cd5986119af592d4f3d" target="_top" xlink:title="retrieve the ebay server address for the account name specified ">
<polygon fill="white" stroke="black" points="510,-651 510,-681 702,-681 702,-651 510,-651"/>
<text text-anchor="start" x="518" y="-669" font-family="Helvetica,sans-Serif" font-size="10.00">com.tomoparts.tomoBay.model.e</text>
<text text-anchor="middle" x="606" y="-658" font-family="Helvetica,sans-Serif" font-size="10.00">BayAPI.EbayAccounts.serverAddress</text>
</a>
</g>
</g>
<!-- Node3&#45;&gt;Node6 -->
<g id="edge5" class="edge"><title>Node3&#45;&gt;Node6</title>
<path fill="none" stroke="midnightblue" d="M338.164,-534.309C363.617,-560.805 419.97,-614.963 479,-642 485.681,-645.06 492.733,-647.73 499.95,-650.06"/>
<polygon fill="midnightblue" stroke="midnightblue" points="499.29,-653.515 509.874,-653.03 501.298,-646.809 499.29,-653.515"/>
</g>
<!-- Node7 -->
<g id="node7" class="node"><title>Node7</title>
<g id="a_node7"><a xlink:href="classcom_1_1tomoparts_1_1tomoBay_1_1model_1_1eBayAPI_1_1EbayAccounts.html#a7df0b3cd6fc945ccbcbc0229394176c9" target="_top" xlink:title="retrieve the number of days previous to the current day that the system should retrieve orders from t...">
<polygon fill="white" stroke="black" points="511.5,-602 511.5,-632 700.5,-632 700.5,-602 511.5,-602"/>
<text text-anchor="start" x="519.5" y="-620" font-family="Helvetica,sans-Serif" font-size="10.00">com.tomoparts.tomoBay.model.e</text>
<text text-anchor="middle" x="606" y="-609" font-family="Helvetica,sans-Serif" font-size="10.00">BayAPI.EbayAccounts.lookbackDays</text>
</a>
</g>
</g>
<!-- Node3&#45;&gt;Node7 -->
<g id="edge6" class="edge"><title>Node3&#45;&gt;Node7</title>
<path fill="none" stroke="midnightblue" d="M350.289,-534.138C380.446,-550.882 431.822,-577.532 479,-593 486.29,-595.39 493.9,-597.572 501.612,-599.558"/>
<polygon fill="midnightblue" stroke="midnightblue" points="500.872,-602.98 511.419,-601.969 502.544,-596.182 500.872,-602.98"/>
</g>
<!-- Node8 -->
<g id="node8" class="node"><title>Node8</title>
<g id="a_node8"><a xlink:href="classcom_1_1tomoparts_1_1tomoBay_1_1model_1_1eBayAPI_1_1EbayAccounts.html#a137163c03f463ad5d9581aef47a9a3e4" target="_top" xlink:title="retrieve the id for the account name specified ">
<polygon fill="white" stroke="black" points="516.5,-553 516.5,-583 695.5,-583 695.5,-553 516.5,-553"/>
<text text-anchor="start" x="524.5" y="-571" font-family="Helvetica,sans-Serif" font-size="10.00">com.tomoparts.tomoBay.model.e</text>
<text text-anchor="middle" x="606" y="-560" font-family="Helvetica,sans-Serif" font-size="10.00">BayAPI.EbayAccounts.id</text>
</a>
</g>
</g>
<!-- Node3&#45;&gt;Node8 -->
<g id="edge7" class="edge"><title>Node3&#45;&gt;Node8</title>
<path fill="none" stroke="midnightblue" d="M410.219,-534.035C441.372,-539.467 476.733,-545.633 508.696,-551.207"/>
<polygon fill="midnightblue" stroke="midnightblue" points="508.491,-554.724 518.944,-552.994 509.694,-547.828 508.491,-554.724"/>
</g>
<!-- Node9 -->
<g id="node9" class="node"><title>Node9</title>
<g id="a_node9"><a xlink:href="classcom_1_1tomoparts_1_1tomoBay_1_1model_1_1eBayAPI_1_1OrdersCall.html#a6531876c53fd0c3c56eec68bd1b00df0" target="_top" xlink:title="This method performs a call to the API grabbing a list of orders for the specified number of days...">
<polygon fill="white" stroke="black" points="516.5,-504 516.5,-534 695.5,-534 695.5,-504 516.5,-504"/>
<text text-anchor="start" x="524.5" y="-522" font-family="Helvetica,sans-Serif" font-size="10.00">com.tomoparts.tomoBay.model.e</text>
<text text-anchor="middle" x="606" y="-511" font-family="Helvetica,sans-Serif" font-size="10.00">BayAPI.OrdersCall.call</text>
</a>
</g>
</g>
<!-- Node3&#45;&gt;Node9 -->
<g id="edge8" class="edge"><title>Node3&#45;&gt;Node9</title>
<path fill="none" stroke="midnightblue" d="M443.169,-519C464.155,-519 485.791,-519 506.146,-519"/>
<polygon fill="midnightblue" stroke="midnightblue" points="506.343,-522.5 516.343,-519 506.343,-515.5 506.343,-522.5"/>
</g>
<!-- Node13 -->
<g id="node13" class="node"><title>Node13</title>
<g id="a_node13"><a xlink:href="classcom_1_1tomoparts_1_1tomoBay_1_1model_1_1services_1_1basicEbayUpdateService_1_1Orders__Table.html#abb8f83ca32eba7defe488f4d08be8c74" target="_top" xlink:title="populates the Orders Table in the database with data grabbed from the ebay API ">
<polygon fill="white" stroke="black" points="486,-455 486,-485 726,-485 726,-455 486,-455"/>
<text text-anchor="start" x="494" y="-473" font-family="Helvetica,sans-Serif" font-size="10.00">com.tomoparts.tomoBay.model.services.basic</text>
<text text-anchor="middle" x="606" y="-462" font-family="Helvetica,sans-Serif" font-size="10.00">EbayUpdateService.Orders_Table.populate</text>
</a>
</g>
</g>
<!-- Node3&#45;&gt;Node13 -->
<g id="edge12" class="edge"><title>Node3&#45;&gt;Node13</title>
<path fill="none" stroke="midnightblue" d="M410.219,-503.965C441.372,-498.533 476.733,-492.367 508.696,-486.793"/>
<polygon fill="midnightblue" stroke="midnightblue" points="509.694,-490.172 518.944,-485.006 508.491,-483.276 509.694,-490.172"/>
</g>
<!-- Node19 -->
<g id="node19" class="node"><title>Node19</title>
<g id="a_node19"><a xlink:href="classcom_1_1tomoparts_1_1tomoBay_1_1model_1_1services_1_1basicEbayUpdateService_1_1Transactions__Table.html#a6f7920f082037fcd84e9fb020730e4f6" target="_top" xlink:title="populates the Orders Table in the database with data grabbed from the ebay API ">
<polygon fill="white" stroke="black" points="486,-394.5 486,-435.5 726,-435.5 726,-394.5 486,-394.5"/>
<text text-anchor="start" x="494" y="-423.5" font-family="Helvetica,sans-Serif" font-size="10.00">com.tomoparts.tomoBay.model.services.basic</text>
<text text-anchor="start" x="494" y="-412.5" font-family="Helvetica,sans-Serif" font-size="10.00">EbayUpdateService.Transactions</text>
<text text-anchor="middle" x="606" y="-401.5" font-family="Helvetica,sans-Serif" font-size="10.00">_Table.populate</text>
</a>
</g>
</g>
<!-- Node3&#45;&gt;Node19 -->
<g id="edge19" class="edge"><title>Node3&#45;&gt;Node19</title>
<path fill="none" stroke="midnightblue" d="M351.574,-503.955C382.032,-487.83 432.882,-462.35 479,-446 486.623,-443.297 494.586,-440.743 502.644,-438.349"/>
<polygon fill="midnightblue" stroke="midnightblue" points="503.863,-441.64 512.503,-435.508 501.925,-434.914 503.863,-441.64"/>
</g>
<!-- Node20 -->
<g id="node20" class="node"><title>Node20</title>
<g id="a_node20"><a xlink:href="classcom_1_1tomoparts_1_1tomoBay_1_1model_1_1services_1_1basicEbayUpdateService_1_1Buyers__Table.html#a6f7920f082037fcd84e9fb020730e4f6" target="_top" xlink:title="populates the Orders Table in the database with data grabbed from the ebay API ">
<polygon fill="white" stroke="black" points="486,-326 486,-356 726,-356 726,-326 486,-326"/>
<text text-anchor="start" x="494" y="-344" font-family="Helvetica,sans-Serif" font-size="10.00">com.tomoparts.tomoBay.model.services.basic</text>
<text text-anchor="middle" x="606" y="-333" font-family="Helvetica,sans-Serif" font-size="10.00">EbayUpdateService.Buyers_Table.populate</text>
</a>
</g>
</g>
<!-- Node3&#45;&gt;Node20 -->
<g id="edge23" class="edge"><title>Node3&#45;&gt;Node20</title>
<path fill="none" stroke="midnightblue" d="M337.929,-503.621C363.453,-476.262 420.496,-418.841 479,-385 497.184,-374.482 518.292,-365.895 537.972,-359.191"/>
<polygon fill="midnightblue" stroke="midnightblue" points="539.097,-362.505 547.499,-356.05 536.906,-355.857 539.097,-362.505"/>
</g>
<!-- Node23 -->
<g id="node23" class="node"><title>Node23</title>
<g id="a_node23"><a xlink:href="classcom_1_1tomoparts_1_1tomoBay_1_1model_1_1services_1_1basicEbayUpdateService_1_1ItemsAndPartsTable.html#a0a4965df2e2331547f6b8d56f962b70c" target="_top" xlink:title="populates the Orders Table in the database with data grabbed from the ebay API ">
<polygon fill="white" stroke="black" points="479,-192 479,-222 733,-222 733,-192 479,-192"/>
<text text-anchor="start" x="487" y="-210" font-family="Helvetica,sans-Serif" font-size="10.00">com.tomoparts.tomoBay.model.services.basic</text>
<text text-anchor="middle" x="606" y="-199" font-family="Helvetica,sans-Serif" font-size="10.00">EbayUpdateService.ItemsAndPartsTable.populate</text>
</a>
</g>
</g>
<!-- Node3&#45;&gt;Node23 -->
<g id="edge29" class="edge"><title>Node3&#45;&gt;Node23</title>
<path fill="none" stroke="midnightblue" d="M334.144,-503.746C357.621,-468.927 418.341,-381.619 479,-317 510.204,-283.759 550.527,-249.915 577.047,-228.712"/>
<polygon fill="midnightblue" stroke="midnightblue" points="579.484,-231.246 585.143,-222.289 575.134,-225.762 579.484,-231.246"/>
</g>
<!-- Node28 -->
<g id="node28" class="node"><title>Node28</title>
<g id="a_node28"><a xlink:href="classcom_1_1tomoparts_1_1tomoBay_1_1helpers_1_1StackTraceToString.html#acc17f606a32b47fa21910194d3fc44c6" target="_top" xlink:title="Converts the stack trace of the exception provided into a string. ">
<polygon fill="white" stroke="black" points="516.5,-143 516.5,-173 695.5,-173 695.5,-143 516.5,-143"/>
<text text-anchor="start" x="524.5" y="-161" font-family="Helvetica,sans-Serif" font-size="10.00">com.tomoparts.tomoBay.helpers.</text>
<text text-anchor="middle" x="606" y="-150" font-family="Helvetica,sans-Serif" font-size="10.00">StackTraceToString.toString</text>
</a>
</g>
</g>
<!-- Node3&#45;&gt;Node28 -->
<g id="edge36" class="edge"><title>Node3&#45;&gt;Node28</title>
<path fill="none" stroke="midnightblue" d="M326.033,-503.915C334.096,-450.38 368.943,-268.117 479,-182 487.24,-175.552 496.699,-170.663 506.653,-166.977"/>
<polygon fill="midnightblue" stroke="midnightblue" points="507.916,-170.247 516.325,-163.801 505.732,-163.596 507.916,-170.247"/>
</g>
<!-- Node10 -->
<g id="node10" class="node"><title>Node10</title>
<g id="a_node10"><a xlink:href="classcom_1_1tomoparts_1_1tomoBay_1_1model_1_1eBayAPI_1_1OrdersCall.html#ae29dfd6b4e8a557a849bd0cd8b6c35e2" target="_top" xlink:title="convert the List&lt;OrderType[]&gt; passed in as an argument to a single OrderType[] containing all of the ...">
<polygon fill="white" stroke="black" points="806.5,-679 806.5,-709 985.5,-709 985.5,-679 806.5,-679"/>
<text text-anchor="start" x="814.5" y="-697" font-family="Helvetica,sans-Serif" font-size="10.00">com.tomoparts.tomoBay.model.e</text>
<text text-anchor="middle" x="896" y="-686" font-family="Helvetica,sans-Serif" font-size="10.00">BayAPI.OrdersCall.reformResults</text>
</a>
</g>
</g>
<!-- Node9&#45;&gt;Node10 -->
<g id="edge9" class="edge"><title>Node9&#45;&gt;Node10</title>
<path fill="none" stroke="midnightblue" d="M695.594,-523.779C709.375,-527.935 722.5,-534.332 733,-544 775.844,-583.451 726.005,-630.713 769,-670 777.055,-677.36 786.643,-682.782 796.881,-686.738"/>
<polygon fill="midnightblue" stroke="midnightblue" points="795.847,-690.083 806.442,-689.973 798.091,-683.453 795.847,-690.083"/>
</g>
<!-- Node11 -->
<g id="node11" class="node"><title>Node11</title>
<g id="a_node11"><a xlink:href="classcom_1_1tomoparts_1_1tomoBay_1_1model_1_1eBayAPI_1_1OrdersCall.html#a0636e18f9fb41faa3ba7c00887156b29" target="_top" xlink:title="this method does some setup for the API call ">
<polygon fill="white" stroke="black" points="806.5,-630 806.5,-660 985.5,-660 985.5,-630 806.5,-630"/>
<text text-anchor="start" x="814.5" y="-648" font-family="Helvetica,sans-Serif" font-size="10.00">com.tomoparts.tomoBay.model.e</text>
<text text-anchor="middle" x="896" y="-637" font-family="Helvetica,sans-Serif" font-size="10.00">BayAPI.OrdersCall.setUpCall</text>
</a>
</g>
</g>
<!-- Node9&#45;&gt;Node11 -->
<g id="edge10" class="edge"><title>Node9&#45;&gt;Node11</title>
<path fill="none" stroke="midnightblue" d="M695.658,-525.618C709.114,-529.608 722.117,-535.472 733,-544 762.736,-567.301 739.175,-597.813 769,-621 777.26,-627.422 786.732,-632.295 796.694,-635.971"/>
<polygon fill="midnightblue" stroke="midnightblue" points="795.778,-639.354 806.37,-639.141 797.957,-632.702 795.778,-639.354"/>
</g>
<!-- Node12 -->
<g id="node12" class="node"><title>Node12</title>
<g id="a_node12"><a xlink:href="classcom_1_1tomoparts_1_1tomoBay_1_1model_1_1eBayAPI_1_1OrdersCall.html#a5c2c034763b51de47c06064da1479d85" target="_top" xlink:title="do setup for the pagination. ">
<polygon fill="white" stroke="black" points="804,-581 804,-611 988,-611 988,-581 804,-581"/>
<text text-anchor="start" x="812" y="-599" font-family="Helvetica,sans-Serif" font-size="10.00">com.tomoparts.tomoBay.model.e</text>
<text text-anchor="middle" x="896" y="-588" font-family="Helvetica,sans-Serif" font-size="10.00">BayAPI.OrdersCall.setUpPagination</text>
</a>
</g>
</g>
<!-- Node9&#45;&gt;Node12 -->
<g id="edge11" class="edge"><title>Node9&#45;&gt;Node12</title>
<path fill="none" stroke="midnightblue" d="M695.747,-531.173C708.555,-534.477 721.336,-538.672 733,-544 751.438,-552.421 750.53,-563.649 769,-572 776.961,-575.599 785.441,-578.659 794.095,-581.26"/>
<polygon fill="midnightblue" stroke="midnightblue" points="793.347,-584.686 803.92,-584.007 795.231,-577.944 793.347,-584.686"/>
</g>
<!-- Node14 -->
<g id="node14" class="node"><title>Node14</title>
<g id="a_node14"><a xlink:href="classcom_1_1tomoparts_1_1tomoBay_1_1model_1_1dataTypes_1_1heteroTypeContainer_1_1HeteroFieldContainer.html#a3ba6289417930238a36bfee0056b6398" target="_top" xlink:title="add an arbitrary value to this Field container with the stipulation that this value is of the same ty...">
<polygon fill="white" stroke="black" points="1059,-347.5 1059,-388.5 1265,-388.5 1265,-347.5 1059,-347.5"/>
<text text-anchor="start" x="1067" y="-376.5" font-family="Helvetica,sans-Serif" font-size="10.00">com.tomoparts.tomoBay.model.data</text>
<text text-anchor="start" x="1067" y="-365.5" font-family="Helvetica,sans-Serif" font-size="10.00">Types.heteroTypeContainer.HeteroField</text>
<text text-anchor="middle" x="1162" y="-354.5" font-family="Helvetica,sans-Serif" font-size="10.00">Container.add</text>
</a>
</g>
</g>
<!-- Node13&#45;&gt;Node14 -->
<g id="edge13" class="edge"><title>Node13&#45;&gt;Node14</title>
<path fill="none" stroke="midnightblue" d="M726.093,-483.823C829.434,-494.029 970.467,-503.146 1023,-484 1070.58,-466.66 1113.14,-424.906 1138.02,-396.522"/>
<polygon fill="midnightblue" stroke="midnightblue" points="1140.7,-398.771 1144.56,-388.903 1135.39,-394.212 1140.7,-398.771"/>
</g>
<!-- Node16 -->
<g id="node16" class="node"><title>Node16</title>
<g id="a_node16"><a xlink:href="classcom_1_1tomoparts_1_1tomoBay_1_1model_1_1services_1_1basicEbayUpdateService_1_1Orders__Table.html#a40270d6bbca5a7946a70598b1f465f85" target="_top" xlink:title="com.tomoparts.tomoBay.model.services.basic\lEbayUpdateService.Orders_Table.populateGSP">
<polygon fill="white" stroke="black" points="775,-532 775,-562 1017,-562 1017,-532 775,-532"/>
<text text-anchor="start" x="783" y="-550" font-family="Helvetica,sans-Serif" font-size="10.00">com.tomoparts.tomoBay.model.services.basic</text>
<text text-anchor="middle" x="896" y="-539" font-family="Helvetica,sans-Serif" font-size="10.00">EbayUpdateService.Orders_Table.populateGSP</text>
</a>
</g>
</g>
<!-- Node13&#45;&gt;Node16 -->
<g id="edge15" class="edge"><title>Node13&#45;&gt;Node16</title>
<path fill="none" stroke="midnightblue" d="M701.959,-485.071C712.588,-487.864 723.132,-491.148 733,-495 750.467,-501.819 751.665,-509.851 769,-517 780.4,-521.701 792.698,-525.765 804.986,-529.249"/>
<polygon fill="midnightblue" stroke="midnightblue" points="804.254,-532.677 814.821,-531.919 806.088,-525.921 804.254,-532.677"/>
</g>
<!-- Node17 -->
<g id="node17" class="node"><title>Node17</title>
<g id="a_node17"><a xlink:href="classcom_1_1tomoparts_1_1tomoBay_1_1model_1_1services_1_1helpers_1_1EbayOrderCancellationStatus.html#a3cfcc32627a105c95774cf20bdfeb062" target="_top" xlink:title="return the true/false value associated with a particular cancellation status. ">
<polygon fill="white" stroke="black" points="769,-444 769,-474 1023,-474 1023,-444 769,-444"/>
<text text-anchor="start" x="777" y="-462" font-family="Helvetica,sans-Serif" font-size="10.00">com.tomoparts.tomoBay.model.services.helpers.</text>
<text text-anchor="middle" x="896" y="-451" font-family="Helvetica,sans-Serif" font-size="10.00">EbayOrderCancellationStatus.isCancelled</text>
</a>
</g>
</g>
<!-- Node13&#45;&gt;Node17 -->
<g id="edge17" class="edge"><title>Node13&#45;&gt;Node17</title>
<path fill="none" stroke="midnightblue" d="M726.22,-465.446C737.001,-465.035 747.974,-464.616 758.886,-464.199"/>
<polygon fill="midnightblue" stroke="midnightblue" points="759.024,-467.696 768.883,-463.817 758.756,-460.701 759.024,-467.696"/>
</g>
<!-- Node18 -->
<g id="node18" class="node"><title>Node18</title>
<g id="a_node18"><a xlink:href="classcom_1_1tomoparts_1_1tomoBay_1_1model_1_1sql_1_1framework_1_1ModifyQueryInvoker.html#ab8ef0fdf15f6720620e297c77ab25d46" target="_top" xlink:title="com.tomoparts.tomoBay.model.sql.framework.\lModifyQueryInvoker.execute">
<polygon fill="white" stroke="black" points="774.5,-356 774.5,-386 1017.5,-386 1017.5,-356 774.5,-356"/>
<text text-anchor="start" x="782.5" y="-374" font-family="Helvetica,sans-Serif" font-size="10.00">com.tomoparts.tomoBay.model.sql.framework.</text>
<text text-anchor="middle" x="896" y="-363" font-family="Helvetica,sans-Serif" font-size="10.00">ModifyQueryInvoker.execute</text>
</a>
</g>
</g>
<!-- Node13&#45;&gt;Node18 -->
<g id="edge18" class="edge"><title>Node13&#45;&gt;Node18</title>
<path fill="none" stroke="midnightblue" d="M696.463,-454.933C708.854,-452.07 721.327,-448.767 733,-445 777.592,-430.609 826.158,-407.325 858.367,-390.719"/>
<polygon fill="midnightblue" stroke="midnightblue" points="860.155,-393.735 867.408,-386.012 856.922,-387.526 860.155,-393.735"/>
</g>
<!-- Node15 -->
<g id="node15" class="node"><title>Node15</title>
<g id="a_node15"><a xlink:href="classcom_1_1tomoparts_1_1tomoBay_1_1model_1_1dataTypes_1_1heteroTypeContainer_1_1HeteroFieldContainer.html#a9dee3c01eb5ab16203e1c6820a569484" target="_top" xlink:title="performs a type check, assuming that field and type are of the same type then this method returns tru...">
<polygon fill="white" stroke="black" points="1301,-347.5 1301,-388.5 1507,-388.5 1507,-347.5 1301,-347.5"/>
<text text-anchor="start" x="1309" y="-376.5" font-family="Helvetica,sans-Serif" font-size="10.00">com.tomoparts.tomoBay.model.data</text>
<text text-anchor="start" x="1309" y="-365.5" font-family="Helvetica,sans-Serif" font-size="10.00">Types.heteroTypeContainer.HeteroField</text>
<text text-anchor="middle" x="1404" y="-354.5" font-family="Helvetica,sans-Serif" font-size="10.00">Container.isSameType</text>
</a>
</g>
</g>
<!-- Node14&#45;&gt;Node15 -->
<g id="edge14" class="edge"><title>Node14&#45;&gt;Node15</title>
<path fill="none" stroke="midnightblue" d="M1265.13,-368C1273.66,-368 1282.31,-368 1290.91,-368"/>
<polygon fill="midnightblue" stroke="midnightblue" points="1290.96,-371.5 1300.96,-368 1290.96,-364.5 1290.96,-371.5"/>
</g>
<!-- Node16&#45;&gt;Node14 -->
<g id="edge16" class="edge"><title>Node16&#45;&gt;Node14</title>
<path fill="none" stroke="midnightblue" d="M988.632,-531.99C1000.63,-528.091 1012.42,-523.182 1023,-517 1074.56,-486.878 1118.3,-431.396 1142,-397.294"/>
<polygon fill="midnightblue" stroke="midnightblue" points="1145.12,-398.931 1147.86,-388.697 1139.34,-394.986 1145.12,-398.931"/>
</g>
<!-- Node19&#45;&gt;Node14 -->
<g id="edge20" class="edge"><title>Node19&#45;&gt;Node14</title>
<path fill="none" stroke="midnightblue" d="M726.207,-414.434C809.603,-412.847 923.444,-408.299 1023,-396 1035.06,-394.51 1047.64,-392.543 1060.08,-390.34"/>
<polygon fill="midnightblue" stroke="midnightblue" points="1060.81,-393.765 1070.02,-388.528 1059.56,-386.879 1060.81,-393.765"/>
</g>
<!-- Node19&#45;&gt;Node17 -->
<g id="edge21" class="edge"><title>Node19&#45;&gt;Node17</title>
<path fill="none" stroke="midnightblue" d="M726.22,-433.214C746.209,-436.268 766.856,-439.422 786.555,-442.432"/>
<polygon fill="midnightblue" stroke="midnightblue" points="786.037,-445.893 796.451,-443.944 787.094,-438.974 786.037,-445.893"/>
</g>
<!-- Node19&#45;&gt;Node18 -->
<g id="edge22" class="edge"><title>Node19&#45;&gt;Node18</title>
<path fill="none" stroke="midnightblue" d="M726.22,-396.786C746.209,-393.732 766.856,-390.578 786.555,-387.568"/>
<polygon fill="midnightblue" stroke="midnightblue" points="787.094,-391.026 796.451,-386.056 786.037,-384.107 787.094,-391.026"/>
</g>
<!-- Node20&#45;&gt;Node18 -->
<g id="edge28" class="edge"><title>Node20&#45;&gt;Node18</title>
<path fill="none" stroke="midnightblue" d="M726.22,-353.419C738.796,-354.729 751.633,-356.066 764.331,-357.389"/>
<polygon fill="midnightblue" stroke="midnightblue" points="764.167,-360.89 774.476,-358.445 764.893,-353.928 764.167,-360.89"/>
</g>
<!-- Node21 -->
<g id="node21" class="node"><title>Node21</title>
<g id="a_node21"><a xlink:href="classcom_1_1tomoparts_1_1tomoBay_1_1model_1_1services_1_1basicEbayUpdateService_1_1Buyers__Table.html#a33706837d80ae402889acf879a8e2566" target="_top" xlink:title="retrieves the global shipping program address associated with the order passed in as an argument...">
<polygon fill="white" stroke="black" points="769,-258 769,-288 1023,-288 1023,-258 769,-258"/>
<text text-anchor="start" x="777" y="-276" font-family="Helvetica,sans-Serif" font-size="10.00">com.tomoparts.tomoBay.model.services.basic</text>
<text text-anchor="middle" x="896" y="-265" font-family="Helvetica,sans-Serif" font-size="10.00">EbayUpdateService.Buyers_Table.getGSPaddress</text>
</a>
</g>
</g>
<!-- Node20&#45;&gt;Node21 -->
<g id="edge24" class="edge"><title>Node20&#45;&gt;Node21</title>
<path fill="none" stroke="midnightblue" d="M660.418,-325.906C691.898,-317.24 732.573,-306.439 769,-298 780.627,-295.306 792.899,-292.646 805.038,-290.124"/>
<polygon fill="midnightblue" stroke="midnightblue" points="806.095,-293.48 815.187,-288.039 804.687,-286.623 806.095,-293.48"/>
</g>
<!-- Node22 -->
<g id="node22" class="node"><title>Node22</title>
<g id="a_node22"><a xlink:href="classcom_1_1tomoparts_1_1tomoBay_1_1model_1_1services_1_1basicEbayUpdateService_1_1Buyers__Table.html#a2635d1876823db285122ff73faeed4b2" target="_top" xlink:title="retrieves the personal address associated with the order passed in as an argument. ">
<polygon fill="white" stroke="black" points="776,-307 776,-337 1016,-337 1016,-307 776,-307"/>
<text text-anchor="start" x="784" y="-325" font-family="Helvetica,sans-Serif" font-size="10.00">com.tomoparts.tomoBay.model.services.basic</text>
<text text-anchor="middle" x="896" y="-314" font-family="Helvetica,sans-Serif" font-size="10.00">EbayUpdateService.Buyers_Table.getAddress</text>
</a>
</g>
</g>
<!-- Node20&#45;&gt;Node22 -->
<g id="edge26" class="edge"><title>Node20&#45;&gt;Node22</title>
<path fill="none" stroke="midnightblue" d="M726.22,-333.135C739.291,-332.272 752.643,-331.392 765.828,-330.522"/>
<polygon fill="midnightblue" stroke="midnightblue" points="766.122,-334.01 775.87,-329.859 765.661,-327.025 766.122,-334.01"/>
</g>
<!-- Node21&#45;&gt;Node14 -->
<g id="edge25" class="edge"><title>Node21&#45;&gt;Node14</title>
<path fill="none" stroke="midnightblue" d="M988.297,-288.029C1000.11,-290.87 1011.93,-294.177 1023,-298 1056.16,-309.457 1091.4,-327.443 1117.97,-342.314"/>
<polygon fill="midnightblue" stroke="midnightblue" points="1116.57,-345.54 1126.99,-347.428 1120.02,-339.451 1116.57,-345.54"/>
</g>
<!-- Node22&#45;&gt;Node14 -->
<g id="edge27" class="edge"><title>Node22&#45;&gt;Node14</title>
<path fill="none" stroke="midnightblue" d="M983.443,-337.062C1004.31,-340.698 1026.9,-344.635 1048.76,-348.443"/>
<polygon fill="midnightblue" stroke="midnightblue" points="1048.29,-351.914 1058.74,-350.182 1049.49,-345.018 1048.29,-351.914"/>
</g>
<!-- Node23&#45;&gt;Node14 -->
<g id="edge34" class="edge"><title>Node23&#45;&gt;Node14</title>
<path fill="none" stroke="midnightblue" d="M733.111,-211.423C836.067,-216.557 972.486,-227.278 1023,-249 1070.02,-269.219 1112.73,-311.412 1137.79,-339.728"/>
<polygon fill="midnightblue" stroke="midnightblue" points="1135.18,-342.061 1144.38,-347.317 1140.47,-337.471 1135.18,-342.061"/>
</g>
<!-- Node23&#45;&gt;Node18 -->
<g id="edge35" class="edge"><title>Node23&#45;&gt;Node18</title>
<path fill="none" stroke="midnightblue" d="M624.41,-222.253C665.376,-258.118 764.754,-344.947 769,-347 773.114,-348.99 777.379,-350.815 781.743,-352.489"/>
<polygon fill="midnightblue" stroke="midnightblue" points="780.841,-355.882 791.436,-355.917 783.175,-349.283 780.841,-355.882"/>
</g>
<!-- Node24 -->
<g id="node24" class="node"><title>Node24</title>
<g id="a_node24"><a xlink:href="classcom_1_1tomoparts_1_1tomoBay_1_1model_1_1sql_1_1framework_1_1SelectQueryInvoker.html#a594282bcbcc0731a7d234482717422d7" target="_top" xlink:title="execute a requested query ">
<polygon fill="white" stroke="black" points="774.5,-170 774.5,-200 1017.5,-200 1017.5,-170 774.5,-170"/>
<text text-anchor="start" x="782.5" y="-188" font-family="Helvetica,sans-Serif" font-size="10.00">com.tomoparts.tomoBay.model.sql.framework.</text>
<text text-anchor="middle" x="896" y="-177" font-family="Helvetica,sans-Serif" font-size="10.00">SelectQueryInvoker.execute</text>
</a>
</g>
</g>
<!-- Node23&#45;&gt;Node24 -->
<g id="edge30" class="edge"><title>Node23&#45;&gt;Node24</title>
<path fill="none" stroke="midnightblue" d="M733.321,-197.35C743.523,-196.571 753.845,-195.783 764.078,-195.001"/>
<polygon fill="midnightblue" stroke="midnightblue" points="764.569,-198.474 774.273,-194.222 764.036,-191.494 764.569,-198.474"/>
</g>
<!-- Node25 -->
<g id="node25" class="node"><title>Node25</title>
<g id="a_node25"><a xlink:href="classcom_1_1tomoparts_1_1tomoBay_1_1model_1_1eBayAPI_1_1ItemCall.html#a33a93e67cbad2090251fa506ebf4e3d5" target="_top" xlink:title="This method performs a call to the API grabbing a item data for the specified itemID. ">
<polygon fill="white" stroke="black" points="806.5,-121 806.5,-151 985.5,-151 985.5,-121 806.5,-121"/>
<text text-anchor="start" x="814.5" y="-139" font-family="Helvetica,sans-Serif" font-size="10.00">com.tomoparts.tomoBay.model.e</text>
<text text-anchor="middle" x="896" y="-128" font-family="Helvetica,sans-Serif" font-size="10.00">BayAPI.ItemCall.call</text>
</a>
</g>
</g>
<!-- Node23&#45;&gt;Node25 -->
<g id="edge31" class="edge"><title>Node23&#45;&gt;Node25</title>
<path fill="none" stroke="midnightblue" d="M701.959,-191.929C712.588,-189.136 723.132,-185.852 733,-182 750.467,-175.181 751.507,-166.752 769,-160 777.789,-156.608 787.113,-153.681 796.557,-151.159"/>
<polygon fill="midnightblue" stroke="midnightblue" points="797.581,-154.51 806.424,-148.674 795.872,-147.722 797.581,-154.51"/>
</g>
<!-- Node26 -->
<g id="node26" class="node"><title>Node26</title>
<g id="a_node26"><a xlink:href="classcom_1_1tomoparts_1_1tomoBay_1_1model_1_1services_1_1basicEbayUpdateService_1_1ItemsAndPartsTable.html#ab5d1e1822b0fcbc25a1dec195fdbfb91" target="_top" xlink:title="com.tomoparts.tomoBay.model.services.basic\lEbayUpdateService.ItemsAndPartsTable.get\lSpecifics">
<polygon fill="white" stroke="black" points="776,-60.5 776,-101.5 1016,-101.5 1016,-60.5 776,-60.5"/>
<text text-anchor="start" x="784" y="-89.5" font-family="Helvetica,sans-Serif" font-size="10.00">com.tomoparts.tomoBay.model.services.basic</text>
<text text-anchor="start" x="784" y="-78.5" font-family="Helvetica,sans-Serif" font-size="10.00">EbayUpdateService.ItemsAndPartsTable.get</text>
<text text-anchor="middle" x="896" y="-67.5" font-family="Helvetica,sans-Serif" font-size="10.00">Specifics</text>
</a>
</g>
</g>
<!-- Node23&#45;&gt;Node26 -->
<g id="edge32" class="edge"><title>Node23&#45;&gt;Node26</title>
<path fill="none" stroke="midnightblue" d="M716.663,-191.958C722.436,-189.135 727.935,-185.84 733,-182 761.193,-160.625 741.216,-132.905 769,-111 770.829,-109.558 772.717,-108.183 774.655,-106.873"/>
<polygon fill="midnightblue" stroke="midnightblue" points="776.721,-109.713 783.453,-101.532 773.089,-103.729 776.721,-109.713"/>
</g>
<!-- Node27 -->
<g id="node27" class="node"><title>Node27</title>
<g id="a_node27"><a xlink:href="classcom_1_1tomoparts_1_1tomoBay_1_1model_1_1services_1_1basicEbayUpdateService_1_1ItemsAndPartsTable.html#a1adf5dfcf78bb877f719dfc41b98b7ee" target="_top" xlink:title="com.tomoparts.tomoBay.model.services.basic\lEbayUpdateService.ItemsAndPartsTable.populate\lPartsTable">
<polygon fill="white" stroke="black" points="769,-0.5 769,-41.5 1023,-41.5 1023,-0.5 769,-0.5"/>
<text text-anchor="start" x="777" y="-29.5" font-family="Helvetica,sans-Serif" font-size="10.00">com.tomoparts.tomoBay.model.services.basic</text>
<text text-anchor="start" x="777" y="-18.5" font-family="Helvetica,sans-Serif" font-size="10.00">EbayUpdateService.ItemsAndPartsTable.populate</text>
<text text-anchor="middle" x="896" y="-7.5" font-family="Helvetica,sans-Serif" font-size="10.00">PartsTable</text>
</a>
</g>
</g>
<!-- Node23&#45;&gt;Node27 -->
<g id="edge33" class="edge"><title>Node23&#45;&gt;Node27</title>
<path fill="none" stroke="midnightblue" d="M719.658,-191.944C724.431,-189.091 728.918,-185.797 733,-182 777.211,-140.876 725.575,-92.954 769,-51 770.137,-49.9014 771.307,-48.8406 772.506,-47.8162"/>
<polygon fill="midnightblue" stroke="midnightblue" points="774.931,-50.3724 780.83,-41.5716 770.731,-44.7729 774.931,-50.3724"/>
</g>
</g>
</svg>
        <g id="navigator" transform="translate(0 0)" fill="#404254">
                <rect fill="#f2f5e9" fill-opacity="0.5" stroke="#606060" stroke-width=".5" x="0" y="0" width="60" height="60"/>
                <use id="zoomplus" xlink:href="#zoomPlus" x="17" y="9" onmousedown="handleZoom(evt,'in')"/>
                <use id="zoomminus" xlink:href="#zoomMin" x="42" y="9" onmousedown="handleZoom(evt,'out')"/>
                <use id="reset" xlink:href="#resetDef" x="30" y="36" onmousedown="handleReset()"/>
                <g id="arrowUp" xlink:href="#dirArrow" transform="translate(30 24)" onmousedown="handlePan(0,-1)">
                  <use xlink:href="#rim" fill="#404040">
                        <set attributeName="fill" to="#808080" begin="arrowUp.mouseover" end="arrowUp.mouseout"/>
                  </use>
                  <path fill="none" stroke="white" stroke-width="1.5" d="M0,-3.0v7 M-2.5,-0.5L0,-3.0L2.5,-0.5"/>
                </g>
                <g id="arrowRight" xlink:href="#dirArrow" transform="rotate(90) translate(36 -43)" onmousedown="handlePan(1,0)">
                  <use xlink:href="#rim" fill="#404040">
                        <set attributeName="fill" to="#808080" begin="arrowRight.mouseover" end="arrowRight.mouseout"/>
                  </use>
                  <path fill="none" stroke="white" stroke-width="1.5" d="M0,-3.0v7 M-2.5,-0.5L0,-3.0L2.5,-0.5"/>
                </g>
                <g id="arrowDown" xlink:href="#dirArrow" transform="rotate(180) translate(-30 -48)" onmousedown="handlePan(0,1)">
                  <use xlink:href="#rim" fill="#404040">
                        <set attributeName="fill" to="#808080" begin="arrowDown.mouseover" end="arrowDown.mouseout"/>
                  </use>
                  <path fill="none" stroke="white" stroke-width="1.5" d="M0,-3.0v7 M-2.5,-0.5L0,-3.0L2.5,-0.5"/>
                </g>
                <g id="arrowLeft" xlink:href="#dirArrow" transform="rotate(270) translate(-36 17)" onmousedown="handlePan(-1,0)">
                  <use xlink:href="#rim" fill="#404040">
                        <set attributeName="fill" to="#808080" begin="arrowLeft.mouseover" end="arrowLeft.mouseout"/>
                  </use>
                  <path fill="none" stroke="white" stroke-width="1.5" d="M0,-3.0v7 M-2.5,-0.5L0,-3.0L2.5,-0.5"/>
                </g>
        </g>
        <svg viewBox="0 0 15 15" width="100%" height="30px" preserveAspectRatio="xMaxYMin meet">
         <g id="arrow_out" transform="scale(0.3 0.3)">
          <a xlink:href="classcom_1_1tomoparts_1_1tomoBay_1_1model_1_1services_1_1basicEbayUpdateService_1_1BasicEbayUpdateService_afd85cd6baa355d54ab15c19c16c21df9_cgraph_org.svg" target="_base">
           <rect id="button" ry="5" rx="5" y="6" x="6" height="38" width="38"
                fill="#f2f5e9" fill-opacity="0.5" stroke="#606060" stroke-width="1.0"/>
           <path id="arrow"
             d="M 11.500037,31.436501 C 11.940474,20.09759 22.043105,11.32322 32.158766,21.979434 L 37.068811,17.246167 C 37.068811,17.246167 37.088388,32 37.088388,32 L 22.160133,31.978069 C 22.160133,31.978069 26.997745,27.140456 26.997745,27.140456 C 18.528582,18.264221 13.291696,25.230495 11.500037,31.436501 z"
             style="fill:#404040;"/>
          </a>
         </g>
        </svg>
</svg>
