<?xml version="1.0" encoding="UTF-8" standalone="no"?>
<!DOCTYPE svg PUBLIC "-//W3C//DTD SVG 1.1//EN"
 "http://www.w3.org/Graphics/SVG/1.1/DTD/svg11.dtd">
<!-- Generated by graphviz version 2.38.0 (20140413.2041)
 -->
<!-- Title: onRunning Pages: 1 -->
<!--zoomable 788 -->
<svg id="main" version="1.1" xmlns="http://www.w3.org/2000/svg" xmlns:xlink="http://www.w3.org/1999/xlink" xml:space="preserve" onload="init(evt)">
<style type="text/css"><![CDATA[
.edge:hover path { stroke: red; }
.edge:hover polygon { stroke: red; fill: red; }
]]></style>
<script type="text/javascript"><![CDATA[
var edges = document.getElementsByTagName('g');
if (edges && edges.length) {
  for (var i=0;i<edges.length;i++) {
    if (edges[i].id.substr(0,4)=='edge') {
      edges[i].setAttribute('class','edge');
    }
  }
}
]]></script>
        <defs>
                <circle id="rim" cx="0" cy="0" r="7"/>
                <circle id="rim2" cx="0" cy="0" r="3.5"/>
                <g id="zoomPlus">
                        <use xlink:href="#rim" fill="#404040">
                                <set attributeName="fill" to="#808080" begin="zoomplus.mouseover" end="zoomplus.mouseout"/>
                        </use>
                        <path d="M-4,0h8M0,-4v8" fill="none" stroke="white" stroke-width="1.5" pointer-events="none"/>
                </g>
                <g id="zoomMin">
                        <use xlink:href="#rim" fill="#404040">
                                <set attributeName="fill" to="#808080" begin="zoomminus.mouseover" end="zoomminus.mouseout"/>
                        </use>
                        <path d="M-4,0h8" fill="none" stroke="white" stroke-width="1.5" pointer-events="none"/>
                </g>
                <g id="dirArrow">
                        <path fill="none" stroke="white" stroke-width="1.5" d="M0,-3.0v7 M-2.5,-0.5L0,-3.0L2.5,-0.5"/>
                </g>
               <g id="resetDef">
                       <use xlink:href="#rim2" fill="#404040">
                               <set attributeName="fill" to="#808080" begin="reset.mouseover" end="reset.mouseout"/>
                       </use>
               </g>
        </defs>

<script type="text/javascript">
var viewWidth = 1415;
var viewHeight = 788;
var sectionId = 'dynsection-2';
</script>
<script xlink:href="svgpan.js"/>
<svg id="graph" class="graph">
<g id="viewport">
<title>onRunning</title>
<polygon fill="white" stroke="none" points="-4,4 -4,-783.5 1411,-783.5 1411,4 -4,4"/>
<!-- Node1 -->
<g id="node1" class="node"><title>Node1</title>
<polygon fill="#bfbfbf" stroke="black" points="0,-509.5 0,-528.5 67,-528.5 67,-509.5 0,-509.5"/>
<text text-anchor="middle" x="33.5" y="-516.5" font-family="Helvetica,sans-Serif" font-size="10.00">onRunning</text>
</g>
<!-- Node2 -->
<g id="node2" class="node"><title>Node2</title>
<g id="a_node2"><a xlink:href="classcom_1_1tomoparts_1_1tomoBay_1_1model_1_1services_1_1basicEbayUpdateService_1_1OnRunning.html#ae4a4f4cadce2787c7e80005639fbd5d9" target="_top" xlink:title="this method defines what to do in the given derived state ">
<polygon fill="white" stroke="black" points="103,-504 103,-534 343,-534 343,-504 103,-504"/>
<text text-anchor="start" x="111" y="-522" font-family="Helvetica,sans-Serif" font-size="10.00">com.tomoparts.tomoBay.model.services.basic</text>
<text text-anchor="middle" x="223" y="-511" font-family="Helvetica,sans-Serif" font-size="10.00">EbayUpdateService.OnRunning.execute</text>
</a>
</g>
</g>
<!-- Node1&#45;&gt;Node2 -->
<g id="edge1" class="edge"><title>Node1&#45;&gt;Node2</title>
<path fill="none" stroke="midnightblue" d="M67.16,-519C74.8652,-519 83.5456,-519 92.7628,-519"/>
<polygon fill="midnightblue" stroke="midnightblue" points="92.9545,-522.5 102.955,-519 92.9545,-515.5 92.9545,-522.5"/>
</g>
<!-- Node3 -->
<g id="node3" class="node"><title>Node3</title>
<g id="a_node3"><a xlink:href="classcom_1_1tomoparts_1_1tomoBay_1_1model_1_1eBayAPI_1_1EbayAccounts.html#afd73fefcdd9ef962a44be4ce715fbbed" target="_top" xlink:title="com.tomoparts.tomoBay.model.e\lBayAPI.EbayAccounts.accounts">
<polygon fill="white" stroke="black" points="416.5,-749 416.5,-779 595.5,-779 595.5,-749 416.5,-749"/>
<text text-anchor="start" x="424.5" y="-767" font-family="Helvetica,sans-Serif" font-size="10.00">com.tomoparts.tomoBay.model.e</text>
<text text-anchor="middle" x="506" y="-756" font-family="Helvetica,sans-Serif" font-size="10.00">BayAPI.EbayAccounts.accounts</text>
</a>
</g>
</g>
<!-- Node2&#45;&gt;Node3 -->
<g id="edge2" class="edge"><title>Node2&#45;&gt;Node3</title>
<path fill="none" stroke="midnightblue" d="M229.787,-534.108C246.22,-574.808 297.325,-687.223 379,-740 387.416,-745.439 396.767,-749.707 406.464,-753.048"/>
<polygon fill="midnightblue" stroke="midnightblue" points="405.666,-756.465 416.254,-756.089 407.742,-749.78 405.666,-756.465"/>
</g>
<!-- Node4 -->
<g id="node4" class="node"><title>Node4</title>
<g id="a_node4"><a xlink:href="classcom_1_1tomoparts_1_1tomoBay_1_1model_1_1eBayAPI_1_1EbayAccounts.html#ae9b99457a79c932468c153115ef964b0" target="_top" xlink:title="retrieve the ebay api key for the account name specified ">
<polygon fill="white" stroke="black" points="416.5,-700 416.5,-730 595.5,-730 595.5,-700 416.5,-700"/>
<text text-anchor="start" x="424.5" y="-718" font-family="Helvetica,sans-Serif" font-size="10.00">com.tomoparts.tomoBay.model.e</text>
<text text-anchor="middle" x="506" y="-707" font-family="Helvetica,sans-Serif" font-size="10.00">BayAPI.EbayAccounts.apiKey</text>
</a>
</g>
</g>
<!-- Node2&#45;&gt;Node4 -->
<g id="edge3" class="edge"><title>Node2&#45;&gt;Node4</title>
<path fill="none" stroke="midnightblue" d="M232.794,-534.172C253.471,-568.35 308.77,-651.46 379,-691 387.586,-695.834 396.969,-699.714 406.616,-702.826"/>
<polygon fill="midnightblue" stroke="midnightblue" points="405.75,-706.219 416.332,-705.688 407.728,-699.505 405.75,-706.219"/>
</g>
<!-- Node5 -->
<g id="node5" class="node"><title>Node5</title>
<g id="a_node5"><a xlink:href="classcom_1_1tomoparts_1_1tomoBay_1_1model_1_1eBayAPI_1_1EbayAccounts.html#a17d78d1b20882cd5986119af592d4f3d" target="_top" xlink:title="retrieve the ebay server address for the account name specified ">
<polygon fill="white" stroke="black" points="410,-651 410,-681 602,-681 602,-651 410,-651"/>
<text text-anchor="start" x="418" y="-669" font-family="Helvetica,sans-Serif" font-size="10.00">com.tomoparts.tomoBay.model.e</text>
<text text-anchor="middle" x="506" y="-658" font-family="Helvetica,sans-Serif" font-size="10.00">BayAPI.EbayAccounts.serverAddress</text>
</a>
</g>
</g>
<!-- Node2&#45;&gt;Node5 -->
<g id="edge4" class="edge"><title>Node2&#45;&gt;Node5</title>
<path fill="none" stroke="midnightblue" d="M238.164,-534.309C263.617,-560.805 319.97,-614.963 379,-642 385.681,-645.06 392.733,-647.73 399.95,-650.06"/>
<polygon fill="midnightblue" stroke="midnightblue" points="399.29,-653.515 409.874,-653.03 401.298,-646.809 399.29,-653.515"/>
</g>
<!-- Node6 -->
<g id="node6" class="node"><title>Node6</title>
<g id="a_node6"><a xlink:href="classcom_1_1tomoparts_1_1tomoBay_1_1model_1_1eBayAPI_1_1EbayAccounts.html#a7df0b3cd6fc945ccbcbc0229394176c9" target="_top" xlink:title="retrieve the number of days previous to the current day that the system should retrieve orders from t...">
<polygon fill="white" stroke="black" points="411.5,-602 411.5,-632 600.5,-632 600.5,-602 411.5,-602"/>
<text text-anchor="start" x="419.5" y="-620" font-family="Helvetica,sans-Serif" font-size="10.00">com.tomoparts.tomoBay.model.e</text>
<text text-anchor="middle" x="506" y="-609" font-family="Helvetica,sans-Serif" font-size="10.00">BayAPI.EbayAccounts.lookbackDays</text>
</a>
</g>
</g>
<!-- Node2&#45;&gt;Node6 -->
<g id="edge5" class="edge"><title>Node2&#45;&gt;Node6</title>
<path fill="none" stroke="midnightblue" d="M250.289,-534.138C280.446,-550.882 331.822,-577.532 379,-593 386.29,-595.39 393.9,-597.572 401.612,-599.558"/>
<polygon fill="midnightblue" stroke="midnightblue" points="400.872,-602.98 411.419,-601.969 402.544,-596.182 400.872,-602.98"/>
</g>
<!-- Node7 -->
<g id="node7" class="node"><title>Node7</title>
<g id="a_node7"><a xlink:href="classcom_1_1tomoparts_1_1tomoBay_1_1model_1_1eBayAPI_1_1EbayAccounts.html#a137163c03f463ad5d9581aef47a9a3e4" target="_top" xlink:title="retrieve the id for the account name specified ">
<polygon fill="white" stroke="black" points="416.5,-553 416.5,-583 595.5,-583 595.5,-553 416.5,-553"/>
<text text-anchor="start" x="424.5" y="-571" font-family="Helvetica,sans-Serif" font-size="10.00">com.tomoparts.tomoBay.model.e</text>
<text text-anchor="middle" x="506" y="-560" font-family="Helvetica,sans-Serif" font-size="10.00">BayAPI.EbayAccounts.id</text>
</a>
</g>
</g>
<!-- Node2&#45;&gt;Node7 -->
<g id="edge6" class="edge"><title>Node2&#45;&gt;Node7</title>
<path fill="none" stroke="midnightblue" d="M310.219,-534.035C341.372,-539.467 376.733,-545.633 408.696,-551.207"/>
<polygon fill="midnightblue" stroke="midnightblue" points="408.491,-554.724 418.944,-552.994 409.694,-547.828 408.491,-554.724"/>
</g>
<!-- Node8 -->
<g id="node8" class="node"><title>Node8</title>
<g id="a_node8"><a xlink:href="classcom_1_1tomoparts_1_1tomoBay_1_1model_1_1eBayAPI_1_1OrdersCall.html#a6531876c53fd0c3c56eec68bd1b00df0" target="_top" xlink:title="This method performs a call to the API grabbing a list of orders for the specified number of days...">
<polygon fill="white" stroke="black" points="416.5,-504 416.5,-534 595.5,-534 595.5,-504 416.5,-504"/>
<text text-anchor="start" x="424.5" y="-522" font-family="Helvetica,sans-Serif" font-size="10.00">com.tomoparts.tomoBay.model.e</text>
<text text-anchor="middle" x="506" y="-511" font-family="Helvetica,sans-Serif" font-size="10.00">BayAPI.OrdersCall.call</text>
</a>
</g>
</g>
<!-- Node2&#45;&gt;Node8 -->
<g id="edge7" class="edge"><title>Node2&#45;&gt;Node8</title>
<path fill="none" stroke="midnightblue" d="M343.169,-519C364.155,-519 385.791,-519 406.146,-519"/>
<polygon fill="midnightblue" stroke="midnightblue" points="406.343,-522.5 416.343,-519 406.343,-515.5 406.343,-522.5"/>
</g>
<!-- Node12 -->
<g id="node12" class="node"><title>Node12</title>
<g id="a_node12"><a xlink:href="classcom_1_1tomoparts_1_1tomoBay_1_1model_1_1services_1_1basicEbayUpdateService_1_1Orders__Table.html#abb8f83ca32eba7defe488f4d08be8c74" target="_top" xlink:title="populates the Orders Table in the database with data grabbed from the ebay API ">
<polygon fill="white" stroke="black" points="386,-455 386,-485 626,-485 626,-455 386,-455"/>
<text text-anchor="start" x="394" y="-473" font-family="Helvetica,sans-Serif" font-size="10.00">com.tomoparts.tomoBay.model.services.basic</text>
<text text-anchor="middle" x="506" y="-462" font-family="Helvetica,sans-Serif" font-size="10.00">EbayUpdateService.Orders_Table.populate</text>
</a>
</g>
</g>
<!-- Node2&#45;&gt;Node12 -->
<g id="edge11" class="edge"><title>Node2&#45;&gt;Node12</title>
<path fill="none" stroke="midnightblue" d="M310.219,-503.965C341.372,-498.533 376.733,-492.367 408.696,-486.793"/>
<polygon fill="midnightblue" stroke="midnightblue" points="409.694,-490.172 418.944,-485.006 408.491,-483.276 409.694,-490.172"/>
</g>
<!-- Node18 -->
<g id="node18" class="node"><title>Node18</title>
<g id="a_node18"><a xlink:href="classcom_1_1tomoparts_1_1tomoBay_1_1model_1_1services_1_1basicEbayUpdateService_1_1Transactions__Table.html#a6f7920f082037fcd84e9fb020730e4f6" target="_top" xlink:title="populates the Orders Table in the database with data grabbed from the ebay API ">
<polygon fill="white" stroke="black" points="386,-394.5 386,-435.5 626,-435.5 626,-394.5 386,-394.5"/>
<text text-anchor="start" x="394" y="-423.5" font-family="Helvetica,sans-Serif" font-size="10.00">com.tomoparts.tomoBay.model.services.basic</text>
<text text-anchor="start" x="394" y="-412.5" font-family="Helvetica,sans-Serif" font-size="10.00">EbayUpdateService.Transactions</text>
<text text-anchor="middle" x="506" y="-401.5" font-family="Helvetica,sans-Serif" font-size="10.00">_Table.populate</text>
</a>
</g>
</g>
<!-- Node2&#45;&gt;Node18 -->
<g id="edge18" class="edge"><title>Node2&#45;&gt;Node18</title>
<path fill="none" stroke="midnightblue" d="M251.574,-503.955C282.032,-487.83 332.882,-462.35 379,-446 386.623,-443.297 394.586,-440.743 402.644,-438.349"/>
<polygon fill="midnightblue" stroke="midnightblue" points="403.863,-441.64 412.503,-435.508 401.925,-434.914 403.863,-441.64"/>
</g>
<!-- Node19 -->
<g id="node19" class="node"><title>Node19</title>
<g id="a_node19"><a xlink:href="classcom_1_1tomoparts_1_1tomoBay_1_1model_1_1services_1_1basicEbayUpdateService_1_1Buyers__Table.html#a6f7920f082037fcd84e9fb020730e4f6" target="_top" xlink:title="populates the Orders Table in the database with data grabbed from the ebay API ">
<polygon fill="white" stroke="black" points="386,-326 386,-356 626,-356 626,-326 386,-326"/>
<text text-anchor="start" x="394" y="-344" font-family="Helvetica,sans-Serif" font-size="10.00">com.tomoparts.tomoBay.model.services.basic</text>
<text text-anchor="middle" x="506" y="-333" font-family="Helvetica,sans-Serif" font-size="10.00">EbayUpdateService.Buyers_Table.populate</text>
</a>
</g>
</g>
<!-- Node2&#45;&gt;Node19 -->
<g id="edge22" class="edge"><title>Node2&#45;&gt;Node19</title>
<path fill="none" stroke="midnightblue" d="M237.929,-503.621C263.453,-476.262 320.496,-418.841 379,-385 397.184,-374.482 418.292,-365.895 437.972,-359.191"/>
<polygon fill="midnightblue" stroke="midnightblue" points="439.097,-362.505 447.499,-356.05 436.906,-355.857 439.097,-362.505"/>
</g>
<!-- Node22 -->
<g id="node22" class="node"><title>Node22</title>
<g id="a_node22"><a xlink:href="classcom_1_1tomoparts_1_1tomoBay_1_1model_1_1services_1_1basicEbayUpdateService_1_1ItemsAndPartsTable.html#a0a4965df2e2331547f6b8d56f962b70c" target="_top" xlink:title="populates the Orders Table in the database with data grabbed from the ebay API ">
<polygon fill="white" stroke="black" points="379,-192 379,-222 633,-222 633,-192 379,-192"/>
<text text-anchor="start" x="387" y="-210" font-family="Helvetica,sans-Serif" font-size="10.00">com.tomoparts.tomoBay.model.services.basic</text>
<text text-anchor="middle" x="506" y="-199" font-family="Helvetica,sans-Serif" font-size="10.00">EbayUpdateService.ItemsAndPartsTable.populate</text>
</a>
</g>
</g>
<!-- Node2&#45;&gt;Node22 -->
<g id="edge28" class="edge"><title>Node2&#45;&gt;Node22</title>
<path fill="none" stroke="midnightblue" d="M234.144,-503.746C257.621,-468.927 318.341,-381.619 379,-317 410.204,-283.759 450.527,-249.915 477.047,-228.712"/>
<polygon fill="midnightblue" stroke="midnightblue" points="479.484,-231.246 485.143,-222.289 475.134,-225.762 479.484,-231.246"/>
</g>
<!-- Node27 -->
<g id="node27" class="node"><title>Node27</title>
<g id="a_node27"><a xlink:href="classcom_1_1tomoparts_1_1tomoBay_1_1helpers_1_1StackTraceToString.html#acc17f606a32b47fa21910194d3fc44c6" target="_top" xlink:title="Converts the stack trace of the exception provided into a string. ">
<polygon fill="white" stroke="black" points="416.5,-143 416.5,-173 595.5,-173 595.5,-143 416.5,-143"/>
<text text-anchor="start" x="424.5" y="-161" font-family="Helvetica,sans-Serif" font-size="10.00">com.tomoparts.tomoBay.helpers.</text>
<text text-anchor="middle" x="506" y="-150" font-family="Helvetica,sans-Serif" font-size="10.00">StackTraceToString.toString</text>
</a>
</g>
</g>
<!-- Node2&#45;&gt;Node27 -->
<g id="edge35" class="edge"><title>Node2&#45;&gt;Node27</title>
<path fill="none" stroke="midnightblue" d="M226.033,-503.915C234.096,-450.38 268.943,-268.117 379,-182 387.24,-175.552 396.699,-170.663 406.653,-166.977"/>
<polygon fill="midnightblue" stroke="midnightblue" points="407.916,-170.247 416.325,-163.801 405.732,-163.596 407.916,-170.247"/>
</g>
<!-- Node9 -->
<g id="node9" class="node"><title>Node9</title>
<g id="a_node9"><a xlink:href="classcom_1_1tomoparts_1_1tomoBay_1_1model_1_1eBayAPI_1_1OrdersCall.html#ae29dfd6b4e8a557a849bd0cd8b6c35e2" target="_top" xlink:title="convert the List&lt;OrderType[]&gt; passed in as an argument to a single OrderType[] containing all of the ...">
<polygon fill="white" stroke="black" points="706.5,-679 706.5,-709 885.5,-709 885.5,-679 706.5,-679"/>
<text text-anchor="start" x="714.5" y="-697" font-family="Helvetica,sans-Serif" font-size="10.00">com.tomoparts.tomoBay.model.e</text>
<text text-anchor="middle" x="796" y="-686" font-family="Helvetica,sans-Serif" font-size="10.00">BayAPI.OrdersCall.reformResults</text>
</a>
</g>
</g>
<!-- Node8&#45;&gt;Node9 -->
<g id="edge8" class="edge"><title>Node8&#45;&gt;Node9</title>
<path fill="none" stroke="midnightblue" d="M595.594,-523.779C609.375,-527.935 622.5,-534.332 633,-544 675.844,-583.451 626.005,-630.713 669,-670 677.055,-677.36 686.643,-682.782 696.881,-686.738"/>
<polygon fill="midnightblue" stroke="midnightblue" points="695.847,-690.083 706.442,-689.973 698.091,-683.453 695.847,-690.083"/>
</g>
<!-- Node10 -->
<g id="node10" class="node"><title>Node10</title>
<g id="a_node10"><a xlink:href="classcom_1_1tomoparts_1_1tomoBay_1_1model_1_1eBayAPI_1_1OrdersCall.html#a0636e18f9fb41faa3ba7c00887156b29" target="_top" xlink:title="this method does some setup for the API call ">
<polygon fill="white" stroke="black" points="706.5,-630 706.5,-660 885.5,-660 885.5,-630 706.5,-630"/>
<text text-anchor="start" x="714.5" y="-648" font-family="Helvetica,sans-Serif" font-size="10.00">com.tomoparts.tomoBay.model.e</text>
<text text-anchor="middle" x="796" y="-637" font-family="Helvetica,sans-Serif" font-size="10.00">BayAPI.OrdersCall.setUpCall</text>
</a>
</g>
</g>
<!-- Node8&#45;&gt;Node10 -->
<g id="edge9" class="edge"><title>Node8&#45;&gt;Node10</title>
<path fill="none" stroke="midnightblue" d="M595.658,-525.618C609.114,-529.608 622.117,-535.472 633,-544 662.736,-567.301 639.175,-597.813 669,-621 677.26,-627.422 686.732,-632.295 696.694,-635.971"/>
<polygon fill="midnightblue" stroke="midnightblue" points="695.778,-639.354 706.37,-639.141 697.957,-632.702 695.778,-639.354"/>
</g>
<!-- Node11 -->
<g id="node11" class="node"><title>Node11</title>
<g id="a_node11"><a xlink:href="classcom_1_1tomoparts_1_1tomoBay_1_1model_1_1eBayAPI_1_1OrdersCall.html#a5c2c034763b51de47c06064da1479d85" target="_top" xlink:title="do setup for the pagination. ">
<polygon fill="white" stroke="black" points="704,-581 704,-611 888,-611 888,-581 704,-581"/>
<text text-anchor="start" x="712" y="-599" font-family="Helvetica,sans-Serif" font-size="10.00">com.tomoparts.tomoBay.model.e</text>
<text text-anchor="middle" x="796" y="-588" font-family="Helvetica,sans-Serif" font-size="10.00">BayAPI.OrdersCall.setUpPagination</text>
</a>
</g>
</g>
<!-- Node8&#45;&gt;Node11 -->
<g id="edge10" class="edge"><title>Node8&#45;&gt;Node11</title>
<path fill="none" stroke="midnightblue" d="M595.747,-531.173C608.555,-534.477 621.336,-538.672 633,-544 651.438,-552.421 650.53,-563.649 669,-572 676.961,-575.599 685.441,-578.659 694.095,-581.26"/>
<polygon fill="midnightblue" stroke="midnightblue" points="693.347,-584.686 703.92,-584.007 695.231,-577.944 693.347,-584.686"/>
</g>
<!-- Node13 -->
<g id="node13" class="node"><title>Node13</title>
<g id="a_node13"><a xlink:href="classcom_1_1tomoparts_1_1tomoBay_1_1model_1_1dataTypes_1_1heteroTypeContainer_1_1HeteroFieldContainer.html#a3ba6289417930238a36bfee0056b6398" target="_top" xlink:title="add an arbitrary value to this Field container with the stipulation that this value is of the same ty...">
<polygon fill="white" stroke="black" points="959,-347.5 959,-388.5 1165,-388.5 1165,-347.5 959,-347.5"/>
<text text-anchor="start" x="967" y="-376.5" font-family="Helvetica,sans-Serif" font-size="10.00">com.tomoparts.tomoBay.model.data</text>
<text text-anchor="start" x="967" y="-365.5" font-family="Helvetica,sans-Serif" font-size="10.00">Types.heteroTypeContainer.HeteroField</text>
<text text-anchor="middle" x="1062" y="-354.5" font-family="Helvetica,sans-Serif" font-size="10.00">Container.add</text>
</a>
</g>
</g>
<!-- Node12&#45;&gt;Node13 -->
<g id="edge12" class="edge"><title>Node12&#45;&gt;Node13</title>
<path fill="none" stroke="midnightblue" d="M626.093,-483.823C729.434,-494.029 870.467,-503.146 923,-484 970.576,-466.66 1013.14,-424.906 1038.02,-396.522"/>
<polygon fill="midnightblue" stroke="midnightblue" points="1040.7,-398.771 1044.56,-388.903 1035.39,-394.212 1040.7,-398.771"/>
</g>
<!-- Node15 -->
<g id="node15" class="node"><title>Node15</title>
<g id="a_node15"><a xlink:href="classcom_1_1tomoparts_1_1tomoBay_1_1model_1_1services_1_1basicEbayUpdateService_1_1Orders__Table.html#a40270d6bbca5a7946a70598b1f465f85" target="_top" xlink:title="com.tomoparts.tomoBay.model.services.basic\lEbayUpdateService.Orders_Table.populateGSP">
<polygon fill="white" stroke="black" points="675,-532 675,-562 917,-562 917,-532 675,-532"/>
<text text-anchor="start" x="683" y="-550" font-family="Helvetica,sans-Serif" font-size="10.00">com.tomoparts.tomoBay.model.services.basic</text>
<text text-anchor="middle" x="796" y="-539" font-family="Helvetica,sans-Serif" font-size="10.00">EbayUpdateService.Orders_Table.populateGSP</text>
</a>
</g>
</g>
<!-- Node12&#45;&gt;Node15 -->
<g id="edge14" class="edge"><title>Node12&#45;&gt;Node15</title>
<path fill="none" stroke="midnightblue" d="M601.959,-485.071C612.588,-487.864 623.132,-491.148 633,-495 650.467,-501.819 651.665,-509.851 669,-517 680.4,-521.701 692.698,-525.765 704.986,-529.249"/>
<polygon fill="midnightblue" stroke="midnightblue" points="704.254,-532.677 714.821,-531.919 706.088,-525.921 704.254,-532.677"/>
</g>
<!-- Node16 -->
<g id="node16" class="node"><title>Node16</title>
<g id="a_node16"><a xlink:href="classcom_1_1tomoparts_1_1tomoBay_1_1model_1_1services_1_1helpers_1_1EbayOrderCancellationStatus.html#a3cfcc32627a105c95774cf20bdfeb062" target="_top" xlink:title="return the true/false value associated with a particular cancellation status. ">
<polygon fill="white" stroke="black" points="669,-444 669,-474 923,-474 923,-444 669,-444"/>
<text text-anchor="start" x="677" y="-462" font-family="Helvetica,sans-Serif" font-size="10.00">com.tomoparts.tomoBay.model.services.helpers.</text>
<text text-anchor="middle" x="796" y="-451" font-family="Helvetica,sans-Serif" font-size="10.00">EbayOrderCancellationStatus.isCancelled</text>
</a>
</g>
</g>
<!-- Node12&#45;&gt;Node16 -->
<g id="edge16" class="edge"><title>Node12&#45;&gt;Node16</title>
<path fill="none" stroke="midnightblue" d="M626.22,-465.446C637.001,-465.035 647.974,-464.616 658.886,-464.199"/>
<polygon fill="midnightblue" stroke="midnightblue" points="659.024,-467.696 668.883,-463.817 658.756,-460.701 659.024,-467.696"/>
</g>
<!-- Node17 -->
<g id="node17" class="node"><title>Node17</title>
<g id="a_node17"><a xlink:href="classcom_1_1tomoparts_1_1tomoBay_1_1model_1_1sql_1_1framework_1_1ModifyQueryInvoker.html#ab8ef0fdf15f6720620e297c77ab25d46" target="_top" xlink:title="com.tomoparts.tomoBay.model.sql.framework.\lModifyQueryInvoker.execute">
<polygon fill="white" stroke="black" points="674.5,-356 674.5,-386 917.5,-386 917.5,-356 674.5,-356"/>
<text text-anchor="start" x="682.5" y="-374" font-family="Helvetica,sans-Serif" font-size="10.00">com.tomoparts.tomoBay.model.sql.framework.</text>
<text text-anchor="middle" x="796" y="-363" font-family="Helvetica,sans-Serif" font-size="10.00">ModifyQueryInvoker.execute</text>
</a>
</g>
</g>
<!-- Node12&#45;&gt;Node17 -->
<g id="edge17" class="edge"><title>Node12&#45;&gt;Node17</title>
<path fill="none" stroke="midnightblue" d="M596.463,-454.933C608.854,-452.07 621.327,-448.767 633,-445 677.592,-430.609 726.158,-407.325 758.367,-390.719"/>
<polygon fill="midnightblue" stroke="midnightblue" points="760.155,-393.735 767.408,-386.012 756.922,-387.526 760.155,-393.735"/>
</g>
<!-- Node14 -->
<g id="node14" class="node"><title>Node14</title>
<g id="a_node14"><a xlink:href="classcom_1_1tomoparts_1_1tomoBay_1_1model_1_1dataTypes_1_1heteroTypeContainer_1_1HeteroFieldContainer.html#a9dee3c01eb5ab16203e1c6820a569484" target="_top" xlink:title="performs a type check, assuming that field and type are of the same type then this method returns tru...">
<polygon fill="white" stroke="black" points="1201,-347.5 1201,-388.5 1407,-388.5 1407,-347.5 1201,-347.5"/>
<text text-anchor="start" x="1209" y="-376.5" font-family="Helvetica,sans-Serif" font-size="10.00">com.tomoparts.tomoBay.model.data</text>
<text text-anchor="start" x="1209" y="-365.5" font-family="Helvetica,sans-Serif" font-size="10.00">Types.heteroTypeContainer.HeteroField</text>
<text text-anchor="middle" x="1304" y="-354.5" font-family="Helvetica,sans-Serif" font-size="10.00">Container.isSameType</text>
</a>
</g>
</g>
<!-- Node13&#45;&gt;Node14 -->
<g id="edge13" class="edge"><title>Node13&#45;&gt;Node14</title>
<path fill="none" stroke="midnightblue" d="M1165.13,-368C1173.66,-368 1182.31,-368 1190.91,-368"/>
<polygon fill="midnightblue" stroke="midnightblue" points="1190.96,-371.5 1200.96,-368 1190.96,-364.5 1190.96,-371.5"/>
</g>
<!-- Node15&#45;&gt;Node13 -->
<g id="edge15" class="edge"><title>Node15&#45;&gt;Node13</title>
<path fill="none" stroke="midnightblue" d="M888.632,-531.99C900.631,-528.091 912.418,-523.182 923,-517 974.561,-486.878 1018.3,-431.396 1042,-397.294"/>
<polygon fill="midnightblue" stroke="midnightblue" points="1045.12,-398.931 1047.86,-388.697 1039.34,-394.986 1045.12,-398.931"/>
</g>
<!-- Node18&#45;&gt;Node13 -->
<g id="edge19" class="edge"><title>Node18&#45;&gt;Node13</title>
<path fill="none" stroke="midnightblue" d="M626.207,-414.434C709.603,-412.847 823.444,-408.299 923,-396 935.061,-394.51 947.641,-392.543 960.085,-390.34"/>
<polygon fill="midnightblue" stroke="midnightblue" points="960.813,-393.765 970.022,-388.528 959.557,-386.879 960.813,-393.765"/>
</g>
<!-- Node18&#45;&gt;Node16 -->
<g id="edge20" class="edge"><title>Node18&#45;&gt;Node16</title>
<path fill="none" stroke="midnightblue" d="M626.22,-433.214C646.209,-436.268 666.856,-439.422 686.555,-442.432"/>
<polygon fill="midnightblue" stroke="midnightblue" points="686.037,-445.893 696.451,-443.944 687.094,-438.974 686.037,-445.893"/>
</g>
<!-- Node18&#45;&gt;Node17 -->
<g id="edge21" class="edge"><title>Node18&#45;&gt;Node17</title>
<path fill="none" stroke="midnightblue" d="M626.22,-396.786C646.209,-393.732 666.856,-390.578 686.555,-387.568"/>
<polygon fill="midnightblue" stroke="midnightblue" points="687.094,-391.026 696.451,-386.056 686.037,-384.107 687.094,-391.026"/>
</g>
<!-- Node19&#45;&gt;Node17 -->
<g id="edge27" class="edge"><title>Node19&#45;&gt;Node17</title>
<path fill="none" stroke="midnightblue" d="M626.22,-353.419C638.796,-354.729 651.633,-356.066 664.331,-357.389"/>
<polygon fill="midnightblue" stroke="midnightblue" points="664.167,-360.89 674.476,-358.445 664.893,-353.928 664.167,-360.89"/>
</g>
<!-- Node20 -->
<g id="node20" class="node"><title>Node20</title>
<g id="a_node20"><a xlink:href="classcom_1_1tomoparts_1_1tomoBay_1_1model_1_1services_1_1basicEbayUpdateService_1_1Buyers__Table.html#a33706837d80ae402889acf879a8e2566" target="_top" xlink:title="retrieves the global shipping program address associated with the order passed in as an argument...">
<polygon fill="white" stroke="black" points="669,-258 669,-288 923,-288 923,-258 669,-258"/>
<text text-anchor="start" x="677" y="-276" font-family="Helvetica,sans-Serif" font-size="10.00">com.tomoparts.tomoBay.model.services.basic</text>
<text text-anchor="middle" x="796" y="-265" font-family="Helvetica,sans-Serif" font-size="10.00">EbayUpdateService.Buyers_Table.getGSPaddress</text>
</a>
</g>
</g>
<!-- Node19&#45;&gt;Node20 -->
<g id="edge23" class="edge"><title>Node19&#45;&gt;Node20</title>
<path fill="none" stroke="midnightblue" d="M560.418,-325.906C591.898,-317.24 632.573,-306.439 669,-298 680.627,-295.306 692.899,-292.646 705.038,-290.124"/>
<polygon fill="midnightblue" stroke="midnightblue" points="706.095,-293.48 715.187,-288.039 704.687,-286.623 706.095,-293.48"/>
</g>
<!-- Node21 -->
<g id="node21" class="node"><title>Node21</title>
<g id="a_node21"><a xlink:href="classcom_1_1tomoparts_1_1tomoBay_1_1model_1_1services_1_1basicEbayUpdateService_1_1Buyers__Table.html#a2635d1876823db285122ff73faeed4b2" target="_top" xlink:title="retrieves the personal address associated with the order passed in as an argument. ">
<polygon fill="white" stroke="black" points="676,-307 676,-337 916,-337 916,-307 676,-307"/>
<text text-anchor="start" x="684" y="-325" font-family="Helvetica,sans-Serif" font-size="10.00">com.tomoparts.tomoBay.model.services.basic</text>
<text text-anchor="middle" x="796" y="-314" font-family="Helvetica,sans-Serif" font-size="10.00">EbayUpdateService.Buyers_Table.getAddress</text>
</a>
</g>
</g>
<!-- Node19&#45;&gt;Node21 -->
<g id="edge25" class="edge"><title>Node19&#45;&gt;Node21</title>
<path fill="none" stroke="midnightblue" d="M626.22,-333.135C639.291,-332.272 652.643,-331.392 665.828,-330.522"/>
<polygon fill="midnightblue" stroke="midnightblue" points="666.122,-334.01 675.87,-329.859 665.661,-327.025 666.122,-334.01"/>
</g>
<!-- Node20&#45;&gt;Node13 -->
<g id="edge24" class="edge"><title>Node20&#45;&gt;Node13</title>
<path fill="none" stroke="midnightblue" d="M888.297,-288.029C900.107,-290.87 911.934,-294.177 923,-298 956.162,-309.457 991.405,-327.443 1017.97,-342.314"/>
<polygon fill="midnightblue" stroke="midnightblue" points="1016.57,-345.54 1026.99,-347.428 1020.02,-339.451 1016.57,-345.54"/>
</g>
<!-- Node21&#45;&gt;Node13 -->
<g id="edge26" class="edge"><title>Node21&#45;&gt;Node13</title>
<path fill="none" stroke="midnightblue" d="M883.443,-337.062C904.308,-340.698 926.904,-344.635 948.761,-348.443"/>
<polygon fill="midnightblue" stroke="midnightblue" points="948.289,-351.914 958.742,-350.182 949.491,-345.018 948.289,-351.914"/>
</g>
<!-- Node22&#45;&gt;Node13 -->
<g id="edge33" class="edge"><title>Node22&#45;&gt;Node13</title>
<path fill="none" stroke="midnightblue" d="M633.111,-211.423C736.067,-216.557 872.486,-227.278 923,-249 970.02,-269.219 1012.73,-311.412 1037.79,-339.728"/>
<polygon fill="midnightblue" stroke="midnightblue" points="1035.18,-342.061 1044.38,-347.317 1040.47,-337.471 1035.18,-342.061"/>
</g>
<!-- Node22&#45;&gt;Node17 -->
<g id="edge34" class="edge"><title>Node22&#45;&gt;Node17</title>
<path fill="none" stroke="midnightblue" d="M524.41,-222.253C565.376,-258.118 664.754,-344.947 669,-347 673.114,-348.99 677.379,-350.815 681.743,-352.489"/>
<polygon fill="midnightblue" stroke="midnightblue" points="680.841,-355.882 691.436,-355.917 683.175,-349.283 680.841,-355.882"/>
</g>
<!-- Node23 -->
<g id="node23" class="node"><title>Node23</title>
<g id="a_node23"><a xlink:href="classcom_1_1tomoparts_1_1tomoBay_1_1model_1_1sql_1_1framework_1_1SelectQueryInvoker.html#a594282bcbcc0731a7d234482717422d7" target="_top" xlink:title="execute a requested query ">
<polygon fill="white" stroke="black" points="674.5,-170 674.5,-200 917.5,-200 917.5,-170 674.5,-170"/>
<text text-anchor="start" x="682.5" y="-188" font-family="Helvetica,sans-Serif" font-size="10.00">com.tomoparts.tomoBay.model.sql.framework.</text>
<text text-anchor="middle" x="796" y="-177" font-family="Helvetica,sans-Serif" font-size="10.00">SelectQueryInvoker.execute</text>
</a>
</g>
</g>
<!-- Node22&#45;&gt;Node23 -->
<g id="edge29" class="edge"><title>Node22&#45;&gt;Node23</title>
<path fill="none" stroke="midnightblue" d="M633.321,-197.35C643.523,-196.571 653.845,-195.783 664.078,-195.001"/>
<polygon fill="midnightblue" stroke="midnightblue" points="664.569,-198.474 674.273,-194.222 664.036,-191.494 664.569,-198.474"/>
</g>
<!-- Node24 -->
<g id="node24" class="node"><title>Node24</title>
<g id="a_node24"><a xlink:href="classcom_1_1tomoparts_1_1tomoBay_1_1model_1_1eBayAPI_1_1ItemCall.html#a33a93e67cbad2090251fa506ebf4e3d5" target="_top" xlink:title="This method performs a call to the API grabbing a item data for the specified itemID. ">
<polygon fill="white" stroke="black" points="706.5,-121 706.5,-151 885.5,-151 885.5,-121 706.5,-121"/>
<text text-anchor="start" x="714.5" y="-139" font-family="Helvetica,sans-Serif" font-size="10.00">com.tomoparts.tomoBay.model.e</text>
<text text-anchor="middle" x="796" y="-128" font-family="Helvetica,sans-Serif" font-size="10.00">BayAPI.ItemCall.call</text>
</a>
</g>
</g>
<!-- Node22&#45;&gt;Node24 -->
<g id="edge30" class="edge"><title>Node22&#45;&gt;Node24</title>
<path fill="none" stroke="midnightblue" d="M601.959,-191.929C612.588,-189.136 623.132,-185.852 633,-182 650.467,-175.181 651.507,-166.752 669,-160 677.789,-156.608 687.113,-153.681 696.557,-151.159"/>
<polygon fill="midnightblue" stroke="midnightblue" points="697.581,-154.51 706.424,-148.674 695.872,-147.722 697.581,-154.51"/>
</g>
<!-- Node25 -->
<g id="node25" class="node"><title>Node25</title>
<g id="a_node25"><a xlink:href="classcom_1_1tomoparts_1_1tomoBay_1_1model_1_1services_1_1basicEbayUpdateService_1_1ItemsAndPartsTable.html#ab5d1e1822b0fcbc25a1dec195fdbfb91" target="_top" xlink:title="com.tomoparts.tomoBay.model.services.basic\lEbayUpdateService.ItemsAndPartsTable.get\lSpecifics">
<polygon fill="white" stroke="black" points="676,-60.5 676,-101.5 916,-101.5 916,-60.5 676,-60.5"/>
<text text-anchor="start" x="684" y="-89.5" font-family="Helvetica,sans-Serif" font-size="10.00">com.tomoparts.tomoBay.model.services.basic</text>
<text text-anchor="start" x="684" y="-78.5" font-family="Helvetica,sans-Serif" font-size="10.00">EbayUpdateService.ItemsAndPartsTable.get</text>
<text text-anchor="middle" x="796" y="-67.5" font-family="Helvetica,sans-Serif" font-size="10.00">Specifics</text>
</a>
</g>
</g>
<!-- Node22&#45;&gt;Node25 -->
<g id="edge31" class="edge"><title>Node22&#45;&gt;Node25</title>
<path fill="none" stroke="midnightblue" d="M616.663,-191.958C622.436,-189.135 627.935,-185.84 633,-182 661.193,-160.625 641.216,-132.905 669,-111 670.829,-109.558 672.717,-108.183 674.655,-106.873"/>
<polygon fill="midnightblue" stroke="midnightblue" points="676.721,-109.713 683.453,-101.532 673.089,-103.729 676.721,-109.713"/>
</g>
<!-- Node26 -->
<g id="node26" class="node"><title>Node26</title>
<g id="a_node26"><a xlink:href="classcom_1_1tomoparts_1_1tomoBay_1_1model_1_1services_1_1basicEbayUpdateService_1_1ItemsAndPartsTable.html#a1adf5dfcf78bb877f719dfc41b98b7ee" target="_top" xlink:title="com.tomoparts.tomoBay.model.services.basic\lEbayUpdateService.ItemsAndPartsTable.populate\lPartsTable">
<polygon fill="white" stroke="black" points="669,-0.5 669,-41.5 923,-41.5 923,-0.5 669,-0.5"/>
<text text-anchor="start" x="677" y="-29.5" font-family="Helvetica,sans-Serif" font-size="10.00">com.tomoparts.tomoBay.model.services.basic</text>
<text text-anchor="start" x="677" y="-18.5" font-family="Helvetica,sans-Serif" font-size="10.00">EbayUpdateService.ItemsAndPartsTable.populate</text>
<text text-anchor="middle" x="796" y="-7.5" font-family="Helvetica,sans-Serif" font-size="10.00">PartsTable</text>
</a>
</g>
</g>
<!-- Node22&#45;&gt;Node26 -->
<g id="edge32" class="edge"><title>Node22&#45;&gt;Node26</title>
<path fill="none" stroke="midnightblue" d="M619.658,-191.944C624.431,-189.091 628.918,-185.797 633,-182 677.211,-140.876 625.575,-92.954 669,-51 670.137,-49.9014 671.307,-48.8406 672.506,-47.8162"/>
<polygon fill="midnightblue" stroke="midnightblue" points="674.931,-50.3724 680.83,-41.5716 670.731,-44.7729 674.931,-50.3724"/>
</g>
</g>
</svg>
        <g id="navigator" transform="translate(0 0)" fill="#404254">
                <rect fill="#f2f5e9" fill-opacity="0.5" stroke="#606060" stroke-width=".5" x="0" y="0" width="60" height="60"/>
                <use id="zoomplus" xlink:href="#zoomPlus" x="17" y="9" onmousedown="handleZoom(evt,'in')"/>
                <use id="zoomminus" xlink:href="#zoomMin" x="42" y="9" onmousedown="handleZoom(evt,'out')"/>
                <use id="reset" xlink:href="#resetDef" x="30" y="36" onmousedown="handleReset()"/>
                <g id="arrowUp" xlink:href="#dirArrow" transform="translate(30 24)" onmousedown="handlePan(0,-1)">
                  <use xlink:href="#rim" fill="#404040">
                        <set attributeName="fill" to="#808080" begin="arrowUp.mouseover" end="arrowUp.mouseout"/>
                  </use>
                  <path fill="none" stroke="white" stroke-width="1.5" d="M0,-3.0v7 M-2.5,-0.5L0,-3.0L2.5,-0.5"/>
                </g>
                <g id="arrowRight" xlink:href="#dirArrow" transform="rotate(90) translate(36 -43)" onmousedown="handlePan(1,0)">
                  <use xlink:href="#rim" fill="#404040">
                        <set attributeName="fill" to="#808080" begin="arrowRight.mouseover" end="arrowRight.mouseout"/>
                  </use>
                  <path fill="none" stroke="white" stroke-width="1.5" d="M0,-3.0v7 M-2.5,-0.5L0,-3.0L2.5,-0.5"/>
                </g>
                <g id="arrowDown" xlink:href="#dirArrow" transform="rotate(180) translate(-30 -48)" onmousedown="handlePan(0,1)">
                  <use xlink:href="#rim" fill="#404040">
                        <set attributeName="fill" to="#808080" begin="arrowDown.mouseover" end="arrowDown.mouseout"/>
                  </use>
                  <path fill="none" stroke="white" stroke-width="1.5" d="M0,-3.0v7 M-2.5,-0.5L0,-3.0L2.5,-0.5"/>
                </g>
                <g id="arrowLeft" xlink:href="#dirArrow" transform="rotate(270) translate(-36 17)" onmousedown="handlePan(-1,0)">
                  <use xlink:href="#rim" fill="#404040">
                        <set attributeName="fill" to="#808080" begin="arrowLeft.mouseover" end="arrowLeft.mouseout"/>
                  </use>
                  <path fill="none" stroke="white" stroke-width="1.5" d="M0,-3.0v7 M-2.5,-0.5L0,-3.0L2.5,-0.5"/>
                </g>
        </g>
        <svg viewBox="0 0 15 15" width="100%" height="30px" preserveAspectRatio="xMaxYMin meet">
         <g id="arrow_out" transform="scale(0.3 0.3)">
          <a xlink:href="classcom_1_1tomoparts_1_1tomoBay_1_1model_1_1services_1_1basicEbayUpdateService_1_1BasicEbayUpdateService_ae3b0a282dcba7f2d675ca89b1dd48487_cgraph_org.svg" target="_base">
           <rect id="button" ry="5" rx="5" y="6" x="6" height="38" width="38"
                fill="#f2f5e9" fill-opacity="0.5" stroke="#606060" stroke-width="1.0"/>
           <path id="arrow"
             d="M 11.500037,31.436501 C 11.940474,20.09759 22.043105,11.32322 32.158766,21.979434 L 37.068811,17.246167 C 37.068811,17.246167 37.088388,32 37.088388,32 L 22.160133,31.978069 C 22.160133,31.978069 26.997745,27.140456 26.997745,27.140456 C 18.528582,18.264221 13.291696,25.230495 11.500037,31.436501 z"
             style="fill:#404040;"/>
          </a>
         </g>
        </svg>
</svg>
