<?xml version="1.0" encoding="UTF-8" standalone="no"?>
<!DOCTYPE svg PUBLIC "-//W3C//DTD SVG 1.1//EN"
 "http://www.w3.org/Graphics/SVG/1.1/DTD/svg11.dtd">
<!-- Generated by graphviz version 2.38.0 (20140413.2041)
 -->
<!-- Title: main Pages: 1 -->
<svg width="280pt" height="137pt"
 viewBox="0.00 0.00 280.00 137.00" xmlns="http://www.w3.org/2000/svg" xmlns:xlink="http://www.w3.org/1999/xlink">
<g id="graph0" class="graph" transform="scale(1 1) rotate(0) translate(4 133)">
<title>main</title>
<polygon fill="white" stroke="none" points="-4,4 -4,-133 276,-133 276,4 -4,4"/>
<!-- Node1 -->
<g id="node1" class="node"><title>Node1</title>
<polygon fill="#bfbfbf" stroke="black" points="0,-55 0,-74 41,-74 41,-55 0,-55"/>
<text text-anchor="middle" x="20.5" y="-62" font-family="Helvetica,sans-Serif" font-size="10.00">main</text>
</g>
<!-- Node2 -->
<g id="node2" class="node"><title>Node2</title>
<g id="a_node2"><a xlink:href="classcom_1_1tomoparts_1_1tomoBay_1_1model_1_1dataTypes_1_1PartList.html#ab743beefffd4d159c3b91639caee92da" target="_top" xlink:title="get the part number at position i in the list ">
<polygon fill="white" stroke="black" points="77,-98.5 77,-128.5 272,-128.5 272,-98.5 77,-98.5"/>
<text text-anchor="start" x="85" y="-116.5" font-family="Helvetica,sans-Serif" font-size="10.00">com.tomoparts.tomoBay.model.data</text>
<text text-anchor="middle" x="174.5" y="-105.5" font-family="Helvetica,sans-Serif" font-size="10.00">Types.PartList.getPartNumber</text>
</a>
</g>
</g>
<!-- Node1&#45;&gt;Node2 -->
<g id="edge1" class="edge"><title>Node1&#45;&gt;Node2</title>
<path fill="none" stroke="midnightblue" d="M40.4199,-74.0424C50.9932,-79.114 64.518,-85.1758 77,-89.5 83.302,-91.6832 89.8997,-93.7541 96.5601,-95.6968"/>
<polygon fill="midnightblue" stroke="midnightblue" points="95.762,-99.1081 106.336,-98.4495 97.6593,-92.3701 95.762,-99.1081"/>
</g>
<!-- Node3 -->
<g id="node3" class="node"><title>Node3</title>
<g id="a_node3"><a xlink:href="classcom_1_1tomoparts_1_1tomoBay_1_1model_1_1dataTypes_1_1PartList.html#a5bebcb62b6ffa7676eacf169f0bfe603" target="_top" xlink:title="get the quantity of the part number at position i in the list ">
<polygon fill="white" stroke="black" points="77,-49.5 77,-79.5 272,-79.5 272,-49.5 77,-49.5"/>
<text text-anchor="start" x="85" y="-67.5" font-family="Helvetica,sans-Serif" font-size="10.00">com.tomoparts.tomoBay.model.data</text>
<text text-anchor="middle" x="174.5" y="-56.5" font-family="Helvetica,sans-Serif" font-size="10.00">Types.PartList.getPartQty</text>
</a>
</g>
</g>
<!-- Node1&#45;&gt;Node3 -->
<g id="edge2" class="edge"><title>Node1&#45;&gt;Node3</title>
<path fill="none" stroke="midnightblue" d="M41.0602,-64.5C48.2608,-64.5 57.01,-64.5 66.543,-64.5"/>
<polygon fill="midnightblue" stroke="midnightblue" points="66.729,-68.0001 76.729,-64.5 66.729,-61.0001 66.729,-68.0001"/>
</g>
<!-- Node4 -->
<g id="node4" class="node"><title>Node4</title>
<g id="a_node4"><a xlink:href="classcom_1_1tomoparts_1_1tomoBay_1_1model_1_1dataTypes_1_1PartList.html#af4b57d21919c42d55af03391f91a1c08" target="_top" xlink:title="the size of the part list. ">
<polygon fill="white" stroke="black" points="77,-0.5 77,-30.5 272,-30.5 272,-0.5 77,-0.5"/>
<text text-anchor="start" x="85" y="-18.5" font-family="Helvetica,sans-Serif" font-size="10.00">com.tomoparts.tomoBay.model.data</text>
<text text-anchor="middle" x="174.5" y="-7.5" font-family="Helvetica,sans-Serif" font-size="10.00">Types.PartList.size</text>
</a>
</g>
</g>
<!-- Node1&#45;&gt;Node4 -->
<g id="edge3" class="edge"><title>Node1&#45;&gt;Node4</title>
<path fill="none" stroke="midnightblue" d="M41.2435,-55.0763C51.7147,-50.3057 64.8872,-44.66 77,-40.5 84.3657,-37.9703 92.1236,-35.5575 99.9083,-33.2986"/>
<polygon fill="midnightblue" stroke="midnightblue" points="101.081,-36.6046 109.756,-30.5225 99.1811,-29.8673 101.081,-36.6046"/>
</g>
</g>
</svg>
