<?xml version="1.0" encoding="UTF-8" standalone="no"?>
<!DOCTYPE svg PUBLIC "-//W3C//DTD SVG 1.1//EN"
 "http://www.w3.org/Graphics/SVG/1.1/DTD/svg11.dtd">
<!-- Generated by graphviz version 2.38.0 (20140413.2041)
 -->
<!-- Title: setBIGINTParam Pages: 1 -->
<svg width="1219pt" height="901pt"
 viewBox="0.00 0.00 1219.00 901.29" xmlns="http://www.w3.org/2000/svg" xmlns:xlink="http://www.w3.org/1999/xlink">
<g id="graph0" class="graph" transform="scale(1 1) rotate(0) translate(4 897.294)">
<title>setBIGINTParam</title>
<polygon fill="white" stroke="none" points="-4,4 -4,-897.294 1215,-897.294 1215,4 -4,4"/>
<!-- Node1 -->
<g id="node1" class="node"><title>Node1</title>
<polygon fill="#bfbfbf" stroke="black" points="0,-230 0,-249 95,-249 95,-230 0,-230"/>
<text text-anchor="middle" x="47.5" y="-237" font-family="Helvetica,sans-Serif" font-size="10.00">setBIGINTParam</text>
</g>
<!-- Node2 -->
<g id="node2" class="node"><title>Node2</title>
<g id="a_node2"><a xlink:href="classcom_1_1tomoparts_1_1tomoBay_1_1model_1_1sql_1_1framework_1_1QueryUtility.html#a50955d4f51a1a7a88ef0c8aadbe9c793" target="_top" xlink:title="set an Integer parameter for the query object specified. ">
<polygon fill="white" stroke="black" points="223,-360 223,-379 309,-379 309,-360 223,-360"/>
<text text-anchor="middle" x="266" y="-367" font-family="Helvetica,sans-Serif" font-size="10.00">setBYTEParam</text>
</a>
</g>
</g>
<!-- Node1&#45;&gt;Node2 -->
<g id="edge1" class="edge"><title>Node1&#45;&gt;Node2</title>
<path fill="none" stroke="midnightblue" d="M73.2115,-254.338C118.057,-281.266 211.655,-337.468 249.057,-359.927"/>
<polygon fill="midnightblue" stroke="midnightblue" points="74.7947,-251.207 64.4198,-249.059 71.1912,-257.208 74.7947,-251.207"/>
</g>
<!-- Node10 -->
<g id="node10" class="node"><title>Node10</title>
<g id="a_node10"><a xlink:href="classcom_1_1tomoparts_1_1tomoBay_1_1model_1_1sql_1_1queries_1_1concreteQueries_1_1insert_1_1InsertEbayItems.html#af9020b85517904668d036bc2bf89433c" target="_top" xlink:title="com.tomoparts.tomoBay.model.sql.queries.concrete\lQueries.insert.InsertEbayItems.setParameters">
<polygon fill="white" stroke="black" points="932.5,-841.5 932.5,-871.5 1202.5,-871.5 1202.5,-841.5 932.5,-841.5"/>
<text text-anchor="start" x="940.5" y="-859.5" font-family="Helvetica,sans-Serif" font-size="10.00">com.tomoparts.tomoBay.model.sql.queries.concrete</text>
<text text-anchor="middle" x="1067.5" y="-848.5" font-family="Helvetica,sans-Serif" font-size="10.00">Queries.insert.InsertEbayItems.setParameters</text>
</a>
</g>
</g>
<!-- Node1&#45;&gt;Node10 -->
<g id="edge33" class="edge"><title>Node1&#45;&gt;Node10</title>
<path fill="none" stroke="midnightblue" d="M48.9027,-259.291C50.9012,-313.394 62.6446,-466.46 131,-567.5 225.148,-706.666 288.11,-711.636 437,-789.5 592.583,-870.864 799.122,-876.772 932.436,-869.713"/>
<polygon fill="midnightblue" stroke="midnightblue" points="52.3938,-258.932 48.6017,-249.039 45.3968,-259.138 52.3938,-258.932"/>
</g>
<!-- Node12 -->
<g id="node12" class="node"><title>Node12</title>
<g id="a_node12"><a xlink:href="classcom_1_1tomoparts_1_1tomoBay_1_1model_1_1sql_1_1queries_1_1concreteQueries_1_1insert_1_1InsertEbayTransactions.html#af9020b85517904668d036bc2bf89433c" target="_top" xlink:title="com.tomoparts.tomoBay.model.sql.queries.concrete\lQueries.insert.InsertEbayTransactions.setParameters">
<polygon fill="white" stroke="black" points="931.5,-792.5 931.5,-822.5 1203.5,-822.5 1203.5,-792.5 931.5,-792.5"/>
<text text-anchor="start" x="939.5" y="-810.5" font-family="Helvetica,sans-Serif" font-size="10.00">com.tomoparts.tomoBay.model.sql.queries.concrete</text>
<text text-anchor="middle" x="1067.5" y="-799.5" font-family="Helvetica,sans-Serif" font-size="10.00">Queries.insert.InsertEbayTransactions.setParameters</text>
</a>
</g>
</g>
<!-- Node1&#45;&gt;Node12 -->
<g id="edge35" class="edge"><title>Node1&#45;&gt;Node12</title>
<path fill="none" stroke="midnightblue" d="M56.8251,-258.693C70.1134,-288.199 98.0103,-345.767 131,-388.5 300.623,-608.223 325.306,-716.332 583,-819.5 644.143,-843.979 811.912,-833.951 932.667,-822.514"/>
<polygon fill="midnightblue" stroke="midnightblue" points="59.8578,-256.898 52.608,-249.172 53.4574,-259.732 59.8578,-256.898"/>
</g>
<!-- Node16 -->
<g id="node16" class="node"><title>Node16</title>
<g id="a_node16"><a xlink:href="classcom_1_1tomoparts_1_1tomoBay_1_1model_1_1sql_1_1queries_1_1concreteQueries_1_1update_1_1UpdateItemNote.html#af9020b85517904668d036bc2bf89433c" target="_top" xlink:title="com.tomoparts.tomoBay.model.sql.queries.concrete\lQueries.update.UpdateItemNote.setParameters">
<polygon fill="white" stroke="black" points="600.5,-98.5 600.5,-128.5 870.5,-128.5 870.5,-98.5 600.5,-98.5"/>
<text text-anchor="start" x="608.5" y="-116.5" font-family="Helvetica,sans-Serif" font-size="10.00">com.tomoparts.tomoBay.model.sql.queries.concrete</text>
<text text-anchor="middle" x="735.5" y="-105.5" font-family="Helvetica,sans-Serif" font-size="10.00">Queries.update.UpdateItemNote.setParameters</text>
</a>
</g>
</g>
<!-- Node1&#45;&gt;Node16 -->
<g id="edge31" class="edge"><title>Node1&#45;&gt;Node16</title>
<path fill="none" stroke="midnightblue" d="M85.9758,-252.132C175.204,-279.684 403.487,-335.024 547,-234.5 584.323,-208.357 547.792,-167.428 583,-138.5 588.355,-134.1 594.185,-130.336 600.339,-127.124"/>
<polygon fill="midnightblue" stroke="midnightblue" points="86.8814,-248.748 76.2918,-249.081 84.7778,-255.424 86.8814,-248.748"/>
</g>
<!-- Node17 -->
<g id="node17" class="node"><title>Node17</title>
<g id="a_node17"><a xlink:href="classcom_1_1tomoparts_1_1tomoBay_1_1model_1_1sql_1_1queries_1_1concreteQueries_1_1update_1_1UpdateItemBrandAndPartNo.html#af9020b85517904668d036bc2bf89433c" target="_top" xlink:title="com.tomoparts.tomoBay.model.sql.queries.concrete\lQueries.update.UpdateItemBrandAndPartNo.setParameters">
<polygon fill="white" stroke="black" points="583,-49.5 583,-79.5 888,-79.5 888,-49.5 583,-49.5"/>
<text text-anchor="start" x="591" y="-67.5" font-family="Helvetica,sans-Serif" font-size="10.00">com.tomoparts.tomoBay.model.sql.queries.concrete</text>
<text text-anchor="middle" x="735.5" y="-56.5" font-family="Helvetica,sans-Serif" font-size="10.00">Queries.update.UpdateItemBrandAndPartNo.setParameters</text>
</a>
</g>
</g>
<!-- Node1&#45;&gt;Node17 -->
<g id="edge32" class="edge"><title>Node1&#45;&gt;Node17</title>
<path fill="none" stroke="midnightblue" d="M105.346,-242.138C221.291,-246.341 479.794,-249.324 547,-196.5 586.448,-165.494 544.783,-122.011 583,-89.5 587.366,-85.7863 592.066,-82.5201 597.015,-79.6523"/>
<polygon fill="midnightblue" stroke="midnightblue" points="105.372,-238.637 95.2465,-241.756 105.107,-245.632 105.372,-238.637"/>
</g>
<!-- Node18 -->
<g id="node18" class="node"><title>Node18</title>
<g id="a_node18"><a xlink:href="classcom_1_1tomoparts_1_1tomoBay_1_1model_1_1sql_1_1queries_1_1concreteQueries_1_1update_1_1UpdateItemError.html#af9020b85517904668d036bc2bf89433c" target="_top" xlink:title="com.tomoparts.tomoBay.model.sql.queries.concrete\lQueries.update.UpdateItemError.setParameters">
<polygon fill="white" stroke="black" points="600.5,-0.5 600.5,-30.5 870.5,-30.5 870.5,-0.5 600.5,-0.5"/>
<text text-anchor="start" x="608.5" y="-18.5" font-family="Helvetica,sans-Serif" font-size="10.00">com.tomoparts.tomoBay.model.sql.queries.concrete</text>
<text text-anchor="middle" x="735.5" y="-7.5" font-family="Helvetica,sans-Serif" font-size="10.00">Queries.update.UpdateItemError.setParameters</text>
</a>
</g>
</g>
<!-- Node1&#45;&gt;Node18 -->
<g id="edge34" class="edge"><title>Node1&#45;&gt;Node18</title>
<path fill="none" stroke="midnightblue" d="M105.142,-234.073C176.53,-225.728 301.881,-206.017 401,-163.5 490.952,-124.915 492.016,-75.5864 583,-39.5 591.664,-36.0637 600.791,-33.1183 610.092,-30.594"/>
<polygon fill="midnightblue" stroke="midnightblue" points="104.552,-230.618 95.0102,-235.223 105.341,-237.573 104.552,-230.618"/>
</g>
<!-- Node27 -->
<g id="node27" class="node"><title>Node27</title>
<g id="a_node27"><a xlink:href="classcom_1_1tomoparts_1_1tomoBay_1_1model_1_1sql_1_1queries_1_1concreteQueries_1_1select_1_1params_1_1SelectEbayTransactionByID.html#af9020b85517904668d036bc2bf89433c" target="_top" xlink:title="com.tomoparts.tomoBay.model.sql.queries.concrete\lQueries.select.params.SelectEbayTransactionBy\lID.setParameters">
<polygon fill="white" stroke="black" points="131,-113 131,-154 401,-154 401,-113 131,-113"/>
<text text-anchor="start" x="139" y="-142" font-family="Helvetica,sans-Serif" font-size="10.00">com.tomoparts.tomoBay.model.sql.queries.concrete</text>
<text text-anchor="start" x="139" y="-131" font-family="Helvetica,sans-Serif" font-size="10.00">Queries.select.params.SelectEbayTransactionBy</text>
<text text-anchor="middle" x="266" y="-120" font-family="Helvetica,sans-Serif" font-size="10.00">ID.setParameters</text>
</a>
</g>
</g>
<!-- Node1&#45;&gt;Node27 -->
<g id="edge36" class="edge"><title>Node1&#45;&gt;Node27</title>
<path fill="none" stroke="midnightblue" d="M64.2762,-221.944C79.7497,-205.768 104.779,-182.253 131,-168.5 141.753,-162.86 153.478,-158.083 165.373,-154.049"/>
<polygon fill="midnightblue" stroke="midnightblue" points="61.358,-219.941 57.0998,-229.643 66.4785,-224.714 61.358,-219.941"/>
</g>
<!-- Node28 -->
<g id="node28" class="node"><title>Node28</title>
<g id="a_node28"><a xlink:href="classcom_1_1tomoparts_1_1tomoBay_1_1model_1_1sql_1_1queries_1_1concreteQueries_1_1select_1_1params_1_1SelectEbayItemSpecific.html#af9020b85517904668d036bc2bf89433c" target="_top" xlink:title="com.tomoparts.tomoBay.model.sql.queries.concrete\lQueries.select.params.SelectEbayItemSpecific.set\lParameters">
<polygon fill="white" stroke="black" points="131,-53 131,-94 401,-94 401,-53 131,-53"/>
<text text-anchor="start" x="139" y="-82" font-family="Helvetica,sans-Serif" font-size="10.00">com.tomoparts.tomoBay.model.sql.queries.concrete</text>
<text text-anchor="start" x="139" y="-71" font-family="Helvetica,sans-Serif" font-size="10.00">Queries.select.params.SelectEbayItemSpecific.set</text>
<text text-anchor="middle" x="266" y="-60" font-family="Helvetica,sans-Serif" font-size="10.00">Parameters</text>
</a>
</g>
</g>
<!-- Node1&#45;&gt;Node28 -->
<g id="edge37" class="edge"><title>Node1&#45;&gt;Node28</title>
<path fill="none" stroke="midnightblue" d="M54.705,-220.053C65.3079,-190.102 89.8489,-133.058 131,-103.5 135.937,-99.9535 141.221,-96.8159 146.732,-94.0409"/>
<polygon fill="midnightblue" stroke="midnightblue" points="51.3101,-219.166 51.4243,-229.761 57.9417,-221.408 51.3101,-219.166"/>
</g>
<!-- Node3 -->
<g id="node3" class="node"><title>Node3</title>
<g id="a_node3"><a xlink:href="classcom_1_1tomoparts_1_1tomoBay_1_1model_1_1sql_1_1framework_1_1QueryUtility.html#a3249b16421a9902f2248cb86d4dd3be3" target="_top" xlink:title="set an Integer parameter for the query object specified. ">
<polygon fill="white" stroke="black" points="437,-432 437,-451 547,-451 547,-432 437,-432"/>
<text text-anchor="middle" x="492" y="-439" font-family="Helvetica,sans-Serif" font-size="10.00">setVARCHARParam</text>
</a>
</g>
</g>
<!-- Node2&#45;&gt;Node3 -->
<g id="edge2" class="edge"><title>Node2&#45;&gt;Node3</title>
<path fill="none" stroke="midnightblue" d="M306.289,-382.128C350.47,-396.329 421.237,-419.076 461.132,-431.899"/>
<polygon fill="midnightblue" stroke="midnightblue" points="307.337,-378.789 296.745,-379.061 305.195,-385.453 307.337,-378.789"/>
</g>
<!-- Node4 -->
<g id="node4" class="node"><title>Node4</title>
<g id="a_node4"><a xlink:href="classcom_1_1tomoparts_1_1tomoBay_1_1model_1_1sql_1_1framework_1_1QueryUtility.html#aca3b74b8ac7e194a86c0b896a674e2f2" target="_top" xlink:title="set an Integer parameter for the query object specified. ">
<polygon fill="white" stroke="black" points="683.5,-612 683.5,-631 787.5,-631 787.5,-612 683.5,-612"/>
<text text-anchor="middle" x="735.5" y="-619" font-family="Helvetica,sans-Serif" font-size="10.00">setINTEGERParam</text>
</a>
</g>
</g>
<!-- Node3&#45;&gt;Node4 -->
<g id="edge3" class="edge"><title>Node3&#45;&gt;Node4</title>
<path fill="none" stroke="midnightblue" d="M498.181,-460.82C508.321,-494.586 534.177,-563.932 583,-597.5 612.185,-617.566 651.937,-623.26 683.399,-624.1"/>
<polygon fill="midnightblue" stroke="midnightblue" points="501.545,-459.851 495.432,-451.197 494.814,-461.774 501.545,-459.851"/>
</g>
<!-- Node7 -->
<g id="node7" class="node"><title>Node7</title>
<g id="a_node7"><a xlink:href="classcom_1_1tomoparts_1_1tomoBay_1_1model_1_1sql_1_1queries_1_1concreteQueries_1_1update_1_1UpdateInvoiceStatus.html#af9020b85517904668d036bc2bf89433c" target="_top" xlink:title="com.tomoparts.tomoBay.model.sql.queries.concrete\lQueries.update.UpdateInvoiceStatus.setParameters">
<polygon fill="white" stroke="black" points="932.5,-743.5 932.5,-773.5 1202.5,-773.5 1202.5,-743.5 932.5,-743.5"/>
<text text-anchor="start" x="940.5" y="-761.5" font-family="Helvetica,sans-Serif" font-size="10.00">com.tomoparts.tomoBay.model.sql.queries.concrete</text>
<text text-anchor="middle" x="1067.5" y="-750.5" font-family="Helvetica,sans-Serif" font-size="10.00">Queries.update.UpdateInvoiceStatus.setParameters</text>
</a>
</g>
</g>
<!-- Node3&#45;&gt;Node7 -->
<g id="edge15" class="edge"><title>Node3&#45;&gt;Node7</title>
<path fill="none" stroke="midnightblue" d="M495.602,-461.576C502.086,-502.687 523.009,-596.298 583,-640.5 692.975,-721.531 772.386,-605.741 888,-678.5 913.042,-694.26 899.302,-718.207 924,-734.5 929.131,-737.885 934.585,-740.841 940.253,-743.421"/>
<polygon fill="midnightblue" stroke="midnightblue" points="499.034,-460.852 494.136,-451.457 492.106,-461.856 499.034,-460.852"/>
</g>
<!-- Node3&#45;&gt;Node10 -->
<g id="edge20" class="edge"><title>Node3&#45;&gt;Node10</title>
<path fill="none" stroke="midnightblue" d="M494.718,-461.445C501.278,-532.543 527.234,-771.886 583,-819.5 703.845,-922.681 909.33,-893.824 1008.95,-871.543"/>
<polygon fill="midnightblue" stroke="midnightblue" points="498.179,-460.845 493.801,-451.197 491.206,-461.469 498.179,-460.845"/>
</g>
<!-- Node11 -->
<g id="node11" class="node"><title>Node11</title>
<g id="a_node11"><a xlink:href="classcom_1_1tomoparts_1_1tomoBay_1_1model_1_1sql_1_1queries_1_1concreteQueries_1_1insert_1_1InsertEbayOrders.html#af9020b85517904668d036bc2bf89433c" target="_top" xlink:title="com.tomoparts.tomoBay.model.sql.queries.concrete\lQueries.insert.InsertEbayOrders.setParameters">
<polygon fill="white" stroke="black" points="932.5,-447.5 932.5,-477.5 1202.5,-477.5 1202.5,-447.5 932.5,-447.5"/>
<text text-anchor="start" x="940.5" y="-465.5" font-family="Helvetica,sans-Serif" font-size="10.00">com.tomoparts.tomoBay.model.sql.queries.concrete</text>
<text text-anchor="middle" x="1067.5" y="-454.5" font-family="Helvetica,sans-Serif" font-size="10.00">Queries.insert.InsertEbayOrders.setParameters</text>
</a>
</g>
</g>
<!-- Node3&#45;&gt;Node11 -->
<g id="edge19" class="edge"><title>Node3&#45;&gt;Node11</title>
<path fill="none" stroke="midnightblue" d="M500.332,-460.655C512.51,-489.397 539.918,-542.64 583,-564.5 643.442,-595.169 830.818,-600.888 888,-564.5 919.872,-544.218 894.007,-510.47 924,-487.5 928.985,-483.682 934.356,-480.371 939.989,-477.505"/>
<polygon fill="midnightblue" stroke="midnightblue" points="503.531,-459.232 496.533,-451.278 497.044,-461.86 503.531,-459.232"/>
</g>
<!-- Node3&#45;&gt;Node12 -->
<g id="edge21" class="edge"><title>Node3&#45;&gt;Node12</title>
<path fill="none" stroke="midnightblue" d="M495.071,-461.176C502.57,-528.281 530.656,-746.332 583,-788.5 634.762,-830.2 807.288,-827.605 931.494,-819.544"/>
<polygon fill="midnightblue" stroke="midnightblue" points="498.537,-460.671 493.976,-451.108 491.578,-461.428 498.537,-460.671"/>
</g>
<!-- Node13 -->
<g id="node13" class="node"><title>Node13</title>
<g id="a_node13"><a xlink:href="classcom_1_1tomoparts_1_1tomoBay_1_1model_1_1sql_1_1queries_1_1concreteQueries_1_1select_1_1params_1_1SelectBuyerByAccAndSRN.html#af9020b85517904668d036bc2bf89433c" target="_top" xlink:title="com.tomoparts.tomoBay.model.sql.queries.concrete\lQueries.select.params.SelectBuyerByAccAndSRN.set\lParameters">
<polygon fill="white" stroke="black" points="931.5,-352 931.5,-393 1203.5,-393 1203.5,-352 931.5,-352"/>
<text text-anchor="start" x="939.5" y="-381" font-family="Helvetica,sans-Serif" font-size="10.00">com.tomoparts.tomoBay.model.sql.queries.concrete</text>
<text text-anchor="start" x="939.5" y="-370" font-family="Helvetica,sans-Serif" font-size="10.00">Queries.select.params.SelectBuyerByAccAndSRN.set</text>
<text text-anchor="middle" x="1067.5" y="-359" font-family="Helvetica,sans-Serif" font-size="10.00">Parameters</text>
</a>
</g>
</g>
<!-- Node3&#45;&gt;Node13 -->
<g id="edge23" class="edge"><title>Node3&#45;&gt;Node13</title>
<path fill="none" stroke="midnightblue" d="M505.189,-423.687C520.547,-402.999 549.076,-369.988 583,-356.5 718.603,-302.587 892.859,-329.227 990.834,-351.911"/>
<polygon fill="midnightblue" stroke="midnightblue" points="502.241,-421.792 499.261,-431.959 507.931,-425.869 502.241,-421.792"/>
</g>
<!-- Node15 -->
<g id="node15" class="node"><title>Node15</title>
<g id="a_node15"><a xlink:href="classcom_1_1tomoparts_1_1tomoBay_1_1model_1_1sql_1_1queries_1_1concreteQueries_1_1insert_1_1InsertOrderInOrderStatus.html#af9020b85517904668d036bc2bf89433c" target="_top" xlink:title="com.tomoparts.tomoBay.model.sql.queries.concrete\lQueries.insert.InsertOrderInOrderStatus.setParameters">
<polygon fill="white" stroke="black" points="595,-524.5 595,-554.5 876,-554.5 876,-524.5 595,-524.5"/>
<text text-anchor="start" x="603" y="-542.5" font-family="Helvetica,sans-Serif" font-size="10.00">com.tomoparts.tomoBay.model.sql.queries.concrete</text>
<text text-anchor="middle" x="735.5" y="-531.5" font-family="Helvetica,sans-Serif" font-size="10.00">Queries.insert.InsertOrderInOrderStatus.setParameters</text>
</a>
</g>
</g>
<!-- Node3&#45;&gt;Node15 -->
<g id="edge14" class="edge"><title>Node3&#45;&gt;Node15</title>
<path fill="none" stroke="midnightblue" d="M508.538,-458.809C525.163,-476.137 553.194,-502.095 583,-515.5 590.65,-518.941 598.712,-521.898 606.967,-524.439"/>
<polygon fill="midnightblue" stroke="midnightblue" points="510.716,-456.012 501.335,-451.088 505.598,-460.788 510.716,-456.012"/>
</g>
<!-- Node3&#45;&gt;Node16 -->
<g id="edge16" class="edge"><title>Node3&#45;&gt;Node16</title>
<path fill="none" stroke="midnightblue" d="M499.572,-421.958C510.052,-390.58 530.995,-326.956 547,-272.5 564.39,-213.335 537.292,-179.896 583,-138.5 588.236,-133.758 594.012,-129.73 600.159,-126.318"/>
<polygon fill="midnightblue" stroke="midnightblue" points="496.185,-421.051 496.328,-431.645 502.823,-423.274 496.185,-421.051"/>
</g>
<!-- Node3&#45;&gt;Node17 -->
<g id="edge17" class="edge"><title>Node3&#45;&gt;Node17</title>
<path fill="none" stroke="midnightblue" d="M498.258,-421.664C508.005,-384.824 529.48,-303.324 547,-234.5 563.381,-170.151 534.212,-134.542 583,-89.5 587.015,-85.793 591.359,-82.5194 595.953,-79.6336"/>
<polygon fill="midnightblue" stroke="midnightblue" points="494.803,-421.037 495.627,-431.6 501.57,-422.829 494.803,-421.037"/>
</g>
<!-- Node3&#45;&gt;Node18 -->
<g id="edge18" class="edge"><title>Node3&#45;&gt;Node18</title>
<path fill="none" stroke="midnightblue" d="M497.346,-421.742C515.09,-341.118 581.195,-41.1947 583,-39.5 588.242,-34.5788 594.064,-30.4287 600.284,-26.9418"/>
<polygon fill="midnightblue" stroke="midnightblue" points="493.906,-421.091 495.175,-431.61 500.742,-422.595 493.906,-421.091"/>
</g>
<!-- Node19 -->
<g id="node19" class="node"><title>Node19</title>
<g id="a_node19"><a xlink:href="classcom_1_1tomoparts_1_1tomoBay_1_1model_1_1sql_1_1queries_1_1concreteQueries_1_1update_1_1UpdateEbayBuyer.html#af9020b85517904668d036bc2bf89433c" target="_top" xlink:title="com.tomoparts.tomoBay.model.sql.queries.concrete\lQueries.update.UpdateEbayBuyer.setParameters">
<polygon fill="white" stroke="black" points="600.5,-475.5 600.5,-505.5 870.5,-505.5 870.5,-475.5 600.5,-475.5"/>
<text text-anchor="start" x="608.5" y="-493.5" font-family="Helvetica,sans-Serif" font-size="10.00">com.tomoparts.tomoBay.model.sql.queries.concrete</text>
<text text-anchor="middle" x="735.5" y="-482.5" font-family="Helvetica,sans-Serif" font-size="10.00">Queries.update.UpdateEbayBuyer.setParameters</text>
</a>
</g>
</g>
<!-- Node3&#45;&gt;Node19 -->
<g id="edge22" class="edge"><title>Node3&#45;&gt;Node19</title>
<path fill="none" stroke="midnightblue" d="M533.732,-453.873C549.08,-458.255 566.751,-462.968 583,-466.5 597.963,-469.752 613.847,-472.754 629.484,-475.455"/>
<polygon fill="midnightblue" stroke="midnightblue" points="534.6,-450.48 524.021,-451.057 532.651,-457.204 534.6,-450.48"/>
</g>
<!-- Node20 -->
<g id="node20" class="node"><title>Node20</title>
<g id="a_node20"><a xlink:href="classcom_1_1tomoparts_1_1tomoBay_1_1model_1_1sql_1_1queries_1_1concreteQueries_1_1insert_1_1InsertEbayBuyers.html#af9020b85517904668d036bc2bf89433c" target="_top" xlink:title="com.tomoparts.tomoBay.model.sql.queries.concrete\lQueries.insert.InsertEbayBuyers.setParameters">
<polygon fill="white" stroke="black" points="600.5,-426.5 600.5,-456.5 870.5,-456.5 870.5,-426.5 600.5,-426.5"/>
<text text-anchor="start" x="608.5" y="-444.5" font-family="Helvetica,sans-Serif" font-size="10.00">com.tomoparts.tomoBay.model.sql.queries.concrete</text>
<text text-anchor="middle" x="735.5" y="-433.5" font-family="Helvetica,sans-Serif" font-size="10.00">Queries.insert.InsertEbayBuyers.setParameters</text>
</a>
</g>
</g>
<!-- Node3&#45;&gt;Node20 -->
<g id="edge24" class="edge"><title>Node3&#45;&gt;Node20</title>
<path fill="none" stroke="midnightblue" d="M557.208,-441.5C570.625,-441.5 585.246,-441.5 600.146,-441.5"/>
<polygon fill="midnightblue" stroke="midnightblue" points="557.197,-438 547.197,-441.5 557.197,-445 557.197,-438"/>
</g>
<!-- Node21 -->
<g id="node21" class="node"><title>Node21</title>
<g id="a_node21"><a xlink:href="classcom_1_1tomoparts_1_1tomoBay_1_1model_1_1sql_1_1queries_1_1concreteQueries_1_1select_1_1params_1_1SelectEbayOrderByBuyer.html#af9020b85517904668d036bc2bf89433c" target="_top" xlink:title="com.tomoparts.tomoBay.model.sql.queries.concrete\lQueries.select.params.SelectEbayOrderByBuyer.set\lParameters">
<polygon fill="white" stroke="black" points="600.5,-366 600.5,-407 870.5,-407 870.5,-366 600.5,-366"/>
<text text-anchor="start" x="608.5" y="-395" font-family="Helvetica,sans-Serif" font-size="10.00">com.tomoparts.tomoBay.model.sql.queries.concrete</text>
<text text-anchor="start" x="608.5" y="-384" font-family="Helvetica,sans-Serif" font-size="10.00">Queries.select.params.SelectEbayOrderByBuyer.set</text>
<text text-anchor="middle" x="735.5" y="-373" font-family="Helvetica,sans-Serif" font-size="10.00">Parameters</text>
</a>
</g>
</g>
<!-- Node3&#45;&gt;Node21 -->
<g id="edge25" class="edge"><title>Node3&#45;&gt;Node21</title>
<path fill="none" stroke="midnightblue" d="M536.872,-429.247C551.498,-425.311 567.909,-421.053 583,-417.5 598.157,-413.932 614.222,-410.389 630.007,-407.043"/>
<polygon fill="midnightblue" stroke="midnightblue" points="535.804,-425.911 527.071,-431.909 537.638,-432.666 535.804,-425.911"/>
</g>
<!-- Node22 -->
<g id="node22" class="node"><title>Node22</title>
<g id="a_node22"><a xlink:href="classcom_1_1tomoparts_1_1tomoBay_1_1model_1_1sql_1_1queries_1_1concreteQueries_1_1select_1_1params_1_1SelectTransactionByOrder.html#af9020b85517904668d036bc2bf89433c" target="_top" xlink:title="com.tomoparts.tomoBay.model.sql.queries.concrete\lQueries.select.params.SelectTransactionByOrder.set\lParameters">
<polygon fill="white" stroke="black" points="600.5,-268 600.5,-309 870.5,-309 870.5,-268 600.5,-268"/>
<text text-anchor="start" x="608.5" y="-297" font-family="Helvetica,sans-Serif" font-size="10.00">com.tomoparts.tomoBay.model.sql.queries.concrete</text>
<text text-anchor="start" x="608.5" y="-286" font-family="Helvetica,sans-Serif" font-size="10.00">Queries.select.params.SelectTransactionByOrder.set</text>
<text text-anchor="middle" x="735.5" y="-275" font-family="Helvetica,sans-Serif" font-size="10.00">Parameters</text>
</a>
</g>
</g>
<!-- Node3&#45;&gt;Node22 -->
<g id="edge26" class="edge"><title>Node3&#45;&gt;Node22</title>
<path fill="none" stroke="midnightblue" d="M501.985,-422.735C515.651,-396.298 544.225,-348.525 583,-323.5 591.846,-317.791 601.512,-313.009 611.545,-309.005"/>
<polygon fill="midnightblue" stroke="midnightblue" points="498.829,-421.221 497.487,-431.731 505.09,-424.352 498.829,-421.221"/>
</g>
<!-- Node23 -->
<g id="node23" class="node"><title>Node23</title>
<g id="a_node23"><a xlink:href="classcom_1_1tomoparts_1_1tomoBay_1_1model_1_1sql_1_1queries_1_1concreteQueries_1_1select_1_1para6f75a6d09fd903571426df29e6112491.html#af9020b85517904668d036bc2bf89433c" target="_top" xlink:title="com.tomoparts.tomoBay.model.sql.queries.concrete\lQueries.select.params.SelectBrandAndPartNoBy\lOrderID.setParameters">
<polygon fill="white" stroke="black" points="600.5,-208 600.5,-249 870.5,-249 870.5,-208 600.5,-208"/>
<text text-anchor="start" x="608.5" y="-237" font-family="Helvetica,sans-Serif" font-size="10.00">com.tomoparts.tomoBay.model.sql.queries.concrete</text>
<text text-anchor="start" x="608.5" y="-226" font-family="Helvetica,sans-Serif" font-size="10.00">Queries.select.params.SelectBrandAndPartNoBy</text>
<text text-anchor="middle" x="735.5" y="-215" font-family="Helvetica,sans-Serif" font-size="10.00">OrderID.setParameters</text>
</a>
</g>
</g>
<!-- Node3&#45;&gt;Node23 -->
<g id="edge27" class="edge"><title>Node3&#45;&gt;Node23</title>
<path fill="none" stroke="midnightblue" d="M496.709,-421.776C504.956,-383.732 528.551,-300.29 583,-258.5 588.424,-254.337 594.27,-250.706 600.402,-247.542"/>
<polygon fill="midnightblue" stroke="midnightblue" points="493.268,-421.134 494.701,-431.632 500.127,-422.532 493.268,-421.134"/>
</g>
<!-- Node24 -->
<g id="node24" class="node"><title>Node24</title>
<g id="a_node24"><a xlink:href="classcom_1_1tomoparts_1_1tomoBay_1_1model_1_1sql_1_1queries_1_1concreteQueries_1_1select_1_1params_1_1SelectEbayOrderByID.html#af9020b85517904668d036bc2bf89433c" target="_top" xlink:title="com.tomoparts.tomoBay.model.sql.queries.concrete\lQueries.select.params.SelectEbayOrderByID.set\lParameters">
<polygon fill="white" stroke="black" points="600.5,-148 600.5,-189 870.5,-189 870.5,-148 600.5,-148"/>
<text text-anchor="start" x="608.5" y="-177" font-family="Helvetica,sans-Serif" font-size="10.00">com.tomoparts.tomoBay.model.sql.queries.concrete</text>
<text text-anchor="start" x="608.5" y="-166" font-family="Helvetica,sans-Serif" font-size="10.00">Queries.select.params.SelectEbayOrderByID.set</text>
<text text-anchor="middle" x="735.5" y="-155" font-family="Helvetica,sans-Serif" font-size="10.00">Parameters</text>
</a>
</g>
</g>
<!-- Node3&#45;&gt;Node24 -->
<g id="edge28" class="edge"><title>Node3&#45;&gt;Node24</title>
<path fill="none" stroke="midnightblue" d="M498.932,-422.266C515.978,-367.523 565.024,-213.82 583,-198.5 588.306,-193.978 594.097,-190.065 600.219,-186.685"/>
<polygon fill="midnightblue" stroke="midnightblue" points="495.587,-421.237 495.968,-431.825 502.273,-423.31 495.587,-421.237"/>
</g>
<!-- Node25 -->
<g id="node25" class="node"><title>Node25</title>
<g id="a_node25"><a xlink:href="classcom_1_1tomoparts_1_1tomoBay_1_1model_1_1sql_1_1queries_1_1concreteQueries_1_1select_1_1params_1_1SelectEbayBuyer.html#af9020b85517904668d036bc2bf89433c" target="_top" xlink:title="com.tomoparts.tomoBay.model.sql.queries.concrete\lQueries.select.params.SelectEbayBuyer.setParameters">
<polygon fill="white" stroke="black" points="594,-748.5 594,-778.5 877,-778.5 877,-748.5 594,-748.5"/>
<text text-anchor="start" x="602" y="-766.5" font-family="Helvetica,sans-Serif" font-size="10.00">com.tomoparts.tomoBay.model.sql.queries.concrete</text>
<text text-anchor="middle" x="735.5" y="-755.5" font-family="Helvetica,sans-Serif" font-size="10.00">Queries.select.params.SelectEbayBuyer.setParameters</text>
</a>
</g>
</g>
<!-- Node3&#45;&gt;Node25 -->
<g id="edge29" class="edge"><title>Node3&#45;&gt;Node25</title>
<path fill="none" stroke="midnightblue" d="M492.419,-461.304C492.009,-515.073 498.851,-664.688 583,-738.5 587.209,-742.192 591.746,-745.446 596.53,-748.309"/>
<polygon fill="midnightblue" stroke="midnightblue" points="495.922,-461.144 492.598,-451.084 488.923,-461.021 495.922,-461.144"/>
</g>
<!-- Node26 -->
<g id="node26" class="node"><title>Node26</title>
<g id="a_node26"><a xlink:href="classcom_1_1tomoparts_1_1tomoBay_1_1model_1_1sql_1_1queries_1_1concreteQueries_1_1select_1_1params_1_1SelectFullOrderLine.html#af9020b85517904668d036bc2bf89433c" target="_top" xlink:title="com.tomoparts.tomoBay.model.sql.queries.concrete\lQueries.select.params.SelectFullOrderLine.set\lParameters">
<polygon fill="white" stroke="black" points="600.5,-688 600.5,-729 870.5,-729 870.5,-688 600.5,-688"/>
<text text-anchor="start" x="608.5" y="-717" font-family="Helvetica,sans-Serif" font-size="10.00">com.tomoparts.tomoBay.model.sql.queries.concrete</text>
<text text-anchor="start" x="608.5" y="-706" font-family="Helvetica,sans-Serif" font-size="10.00">Queries.select.params.SelectFullOrderLine.set</text>
<text text-anchor="middle" x="735.5" y="-695" font-family="Helvetica,sans-Serif" font-size="10.00">Parameters</text>
</a>
</g>
</g>
<!-- Node3&#45;&gt;Node26 -->
<g id="edge30" class="edge"><title>Node3&#45;&gt;Node26</title>
<path fill="none" stroke="midnightblue" d="M494.622,-461.458C499.398,-506.55 517.516,-616.771 583,-673.5 589.529,-679.156 596.793,-683.945 604.506,-687.995"/>
<polygon fill="midnightblue" stroke="midnightblue" points="498.081,-460.867 493.655,-451.242 491.113,-461.527 498.081,-460.867"/>
</g>
<!-- Node5 -->
<g id="node5" class="node"><title>Node5</title>
<g id="a_node5"><a xlink:href="classcom_1_1tomoparts_1_1tomoBay_1_1model_1_1sql_1_1framework_1_1QueryUtility.html#a2da2ce60a8a037d55bdc69309db4815b" target="_top" xlink:title="private ctor ensures that this class is never instantiated ">
<polygon fill="white" stroke="black" points="1031.5,-546 1031.5,-565 1103.5,-565 1103.5,-546 1031.5,-546"/>
<text text-anchor="middle" x="1067.5" y="-553" font-family="Helvetica,sans-Serif" font-size="10.00">QueryUtility</text>
</a>
</g>
</g>
<!-- Node4&#45;&gt;Node5 -->
<g id="edge4" class="edge"><title>Node4&#45;&gt;Node5</title>
<path fill="none" stroke="midnightblue" d="M797.677,-617.3C825.835,-613.989 859.289,-608.072 888,-597.5 905.596,-591.02 906.347,-581.824 924,-575.5 959.16,-562.904 1001.85,-558.199 1031.29,-556.464"/>
<polygon fill="midnightblue" stroke="midnightblue" points="797.122,-613.839 787.561,-618.405 797.882,-620.798 797.122,-613.839"/>
</g>
<!-- Node6 -->
<g id="node6" class="node"><title>Node6</title>
<g id="a_node6"><a xlink:href="classcom_1_1tomoparts_1_1tomoBay_1_1model_1_1sql_1_1queries_1_1concreteQueries_1_1update_1_1UpdateInvoiceStatusSRN.html#af9020b85517904668d036bc2bf89433c" target="_top" xlink:title="com.tomoparts.tomoBay.model.sql.queries.concrete\lQueries.update.UpdateInvoiceStatusSRN.setParameters">
<polygon fill="white" stroke="black" points="924,-496.5 924,-526.5 1211,-526.5 1211,-496.5 924,-496.5"/>
<text text-anchor="start" x="932" y="-514.5" font-family="Helvetica,sans-Serif" font-size="10.00">com.tomoparts.tomoBay.model.sql.queries.concrete</text>
<text text-anchor="middle" x="1067.5" y="-503.5" font-family="Helvetica,sans-Serif" font-size="10.00">Queries.update.UpdateInvoiceStatusSRN.setParameters</text>
</a>
</g>
</g>
<!-- Node4&#45;&gt;Node6 -->
<g id="edge5" class="edge"><title>Node4&#45;&gt;Node6</title>
<path fill="none" stroke="midnightblue" d="M797.735,-623.55C827.236,-621.761 861.804,-615.321 888,-597.5 914.028,-579.793 898.119,-554.422 924,-536.5 929.472,-532.711 935.338,-529.438 941.458,-526.616"/>
<polygon fill="midnightblue" stroke="midnightblue" points="797.369,-620.062 787.533,-624 797.678,-627.056 797.369,-620.062"/>
</g>
<!-- Node4&#45;&gt;Node7 -->
<g id="edge6" class="edge"><title>Node4&#45;&gt;Node7</title>
<path fill="none" stroke="midnightblue" d="M797.929,-617.774C827.953,-619.061 862.922,-625.559 888,-645.5 921.398,-672.056 890.732,-707.782 924,-734.5 928.206,-737.878 932.71,-740.857 937.433,-743.482"/>
<polygon fill="midnightblue" stroke="midnightblue" points="797.622,-614.266 787.54,-617.523 797.452,-621.264 797.622,-614.266"/>
</g>
<!-- Node8 -->
<g id="node8" class="node"><title>Node8</title>
<g id="a_node8"><a xlink:href="classcom_1_1tomoparts_1_1tomoBay_1_1model_1_1sql_1_1queries_1_1concreteQueries_1_1insert_1_1InsertOutOfHoursOrders.html#af9020b85517904668d036bc2bf89433c" target="_top" xlink:title="com.tomoparts.tomoBay.model.sql.queries.concrete\lQueries.insert.InsertOutOfHoursOrders.setParameters">
<polygon fill="white" stroke="black" points="929.5,-694.5 929.5,-724.5 1205.5,-724.5 1205.5,-694.5 929.5,-694.5"/>
<text text-anchor="start" x="937.5" y="-712.5" font-family="Helvetica,sans-Serif" font-size="10.00">com.tomoparts.tomoBay.model.sql.queries.concrete</text>
<text text-anchor="middle" x="1067.5" y="-701.5" font-family="Helvetica,sans-Serif" font-size="10.00">Queries.insert.InsertOutOfHoursOrders.setParameters</text>
</a>
</g>
</g>
<!-- Node4&#45;&gt;Node8 -->
<g id="edge7" class="edge"><title>Node4&#45;&gt;Node8</title>
<path fill="none" stroke="midnightblue" d="M797.935,-622.065C826.712,-624.562 860.604,-630.844 888,-645.5 908.8,-656.628 903.293,-673.201 924,-684.5 931.055,-688.35 938.574,-691.628 946.329,-694.417"/>
<polygon fill="midnightblue" stroke="midnightblue" points="797.815,-618.547 787.586,-621.308 797.304,-625.528 797.815,-618.547"/>
</g>
<!-- Node9 -->
<g id="node9" class="node"><title>Node9</title>
<g id="a_node9"><a xlink:href="classcom_1_1tomoparts_1_1tomoBay_1_1model_1_1sql_1_1queries_1_1concreteQueries_1_1select_1_1parac0d31fe89450040cf1dcb1e02765c08b.html#af9020b85517904668d036bc2bf89433c" target="_top" xlink:title="com.tomoparts.tomoBay.model.sql.queries.concrete\lQueries.select.params.SelectEbayOrderHistory\lLastNDays.setParameters">
<polygon fill="white" stroke="black" points="932.5,-634 932.5,-675 1202.5,-675 1202.5,-634 932.5,-634"/>
<text text-anchor="start" x="940.5" y="-663" font-family="Helvetica,sans-Serif" font-size="10.00">com.tomoparts.tomoBay.model.sql.queries.concrete</text>
<text text-anchor="start" x="940.5" y="-652" font-family="Helvetica,sans-Serif" font-size="10.00">Queries.select.params.SelectEbayOrderHistory</text>
<text text-anchor="middle" x="1067.5" y="-641" font-family="Helvetica,sans-Serif" font-size="10.00">LastNDays.setParameters</text>
</a>
</g>
</g>
<!-- Node4&#45;&gt;Node9 -->
<g id="edge8" class="edge"><title>Node4&#45;&gt;Node9</title>
<path fill="none" stroke="midnightblue" d="M798.037,-627.654C835.876,-631.438 885.884,-636.438 932.475,-641.098"/>
<polygon fill="midnightblue" stroke="midnightblue" points="797.999,-624.133 787.7,-626.62 797.303,-631.098 797.999,-624.133"/>
</g>
<!-- Node4&#45;&gt;Node10 -->
<g id="edge9" class="edge"><title>Node4&#45;&gt;Node10</title>
<path fill="none" stroke="midnightblue" d="M797.754,-630.516C828.973,-638.204 865.085,-652.389 888,-678.5 934.363,-731.331 872.762,-784.382 924,-832.5 927.566,-835.849 931.416,-838.827 935.485,-841.471"/>
<polygon fill="midnightblue" stroke="midnightblue" points="798.341,-627.06 787.812,-628.241 796.779,-633.883 798.341,-627.06"/>
</g>
<!-- Node4&#45;&gt;Node11 -->
<g id="edge10" class="edge"><title>Node4&#45;&gt;Node11</title>
<path fill="none" stroke="midnightblue" d="M797.781,-625.961C828.121,-624.937 863.417,-618.451 888,-597.5 927.151,-564.133 885.127,-521.19 924,-487.5 928.366,-483.716 933.097,-480.411 938.093,-477.528"/>
<polygon fill="midnightblue" stroke="midnightblue" points="797.651,-622.463 787.704,-626.112 797.756,-629.462 797.651,-622.463"/>
</g>
<!-- Node4&#45;&gt;Node12 -->
<g id="edge11" class="edge"><title>Node4&#45;&gt;Node12</title>
<path fill="none" stroke="midnightblue" d="M797.401,-631.642C828.172,-639.637 863.977,-653.757 888,-678.5 922.365,-713.896 886.385,-751.58 924,-783.5 927.921,-786.828 932.129,-789.776 936.551,-792.385"/>
<polygon fill="midnightblue" stroke="midnightblue" points="798.153,-628.223 787.609,-629.256 796.496,-635.024 798.153,-628.223"/>
</g>
<!-- Node4&#45;&gt;Node13 -->
<g id="edge12" class="edge"><title>Node4&#45;&gt;Node13</title>
<path fill="none" stroke="midnightblue" d="M797.59,-611.945C828.587,-604.108 864.543,-589.953 888,-564.5 927.469,-521.673 886.139,-482.756 924,-438.5 941.724,-417.783 967.345,-403.18 991.988,-393.076"/>
<polygon fill="midnightblue" stroke="midnightblue" points="796.651,-608.57 787.722,-614.274 798.259,-615.383 796.651,-608.57"/>
</g>
<!-- Node14 -->
<g id="node14" class="node"><title>Node14</title>
<g id="a_node14"><a xlink:href="classcom_1_1tomoparts_1_1tomoBay_1_1model_1_1sql_1_1queries_1_1concreteQueries_1_1select_1_1params_1_1SelectBrandByInv.html#af9020b85517904668d036bc2bf89433c" target="_top" xlink:title="com.tomoparts.tomoBay.model.sql.queries.concrete\lQueries.select.params.SelectBrandByInv.setParameters">
<polygon fill="white" stroke="black" points="924.5,-584.5 924.5,-614.5 1210.5,-614.5 1210.5,-584.5 924.5,-584.5"/>
<text text-anchor="start" x="932.5" y="-602.5" font-family="Helvetica,sans-Serif" font-size="10.00">com.tomoparts.tomoBay.model.sql.queries.concrete</text>
<text text-anchor="middle" x="1067.5" y="-591.5" font-family="Helvetica,sans-Serif" font-size="10.00">Queries.select.params.SelectBrandByInv.setParameters</text>
</a>
</g>
</g>
<!-- Node4&#45;&gt;Node14 -->
<g id="edge13" class="edge"><title>Node4&#45;&gt;Node14</title>
<path fill="none" stroke="midnightblue" d="M797.923,-617.405C833.552,-615.03 879.999,-611.933 924.226,-608.985"/>
<polygon fill="midnightblue" stroke="midnightblue" points="797.445,-613.929 787.7,-618.087 797.911,-620.914 797.445,-613.929"/>
</g>
</g>
</svg>
