<?xml version="1.0" encoding="UTF-8" standalone="no"?>
<!DOCTYPE svg PUBLIC "-//W3C//DTD SVG 1.1//EN"
 "http://www.w3.org/Graphics/SVG/1.1/DTD/svg11.dtd">
<!-- Generated by graphviz version 2.38.0 (20140413.2041)
 -->
<!-- Title: addBranch Pages: 1 -->
<svg width="307pt" height="78pt"
 viewBox="0.00 0.00 307.00 77.50" xmlns="http://www.w3.org/2000/svg" xmlns:xlink="http://www.w3.org/1999/xlink">
<g id="graph0" class="graph" transform="scale(1 1) rotate(0) translate(4 73.5)">
<title>addBranch</title>
<polygon fill="white" stroke="none" points="-4,4 -4,-73.5 303,-73.5 303,4 -4,4"/>
<!-- Node1 -->
<g id="node1" class="node"><title>Node1</title>
<polygon fill="#bfbfbf" stroke="black" points="0,-22.5 0,-41.5 68,-41.5 68,-22.5 0,-22.5"/>
<text text-anchor="middle" x="34" y="-29.5" font-family="Helvetica,sans-Serif" font-size="10.00">addBranch</text>
</g>
<!-- Node2 -->
<g id="node2" class="node"><title>Node2</title>
<g id="a_node2"><a xlink:href="classcom_1_1tomoparts_1_1tomoBay_1_1model_1_1dataTypes_1_1DualList.html#ac6c5d11a7054f49bb7c9489f5893daeb" target="_top" xlink:title="add a value pair to the DualList ">
<polygon fill="white" stroke="black" points="104,-39 104,-69 299,-69 299,-39 104,-39"/>
<text text-anchor="start" x="112" y="-57" font-family="Helvetica,sans-Serif" font-size="10.00">com.tomoparts.tomoBay.model.data</text>
<text text-anchor="middle" x="201.5" y="-46" font-family="Helvetica,sans-Serif" font-size="10.00">Types.DualList.put</text>
</a>
</g>
</g>
<!-- Node1&#45;&gt;Node2 -->
<g id="edge1" class="edge"><title>Node1&#45;&gt;Node2</title>
<path fill="none" stroke="midnightblue" d="M68.0936,-36.3992C75.8523,-37.4305 84.5352,-38.5847 93.645,-39.7957"/>
<polygon fill="midnightblue" stroke="midnightblue" points="93.3003,-43.2806 103.674,-41.1289 94.2228,-36.3416 93.3003,-43.2806"/>
</g>
<!-- Node3 -->
<g id="node3" class="node"><title>Node3</title>
<g id="a_node3"><a xlink:href="classcom_1_1tomoparts_1_1tomoBay_1_1model_1_1dataTypes_1_1json_1_1JSONentity.html#a77e2151cf49df9f80a4999e0e9e54d55" target="_top" xlink:title="toString">
<polygon fill="white" stroke="black" points="174,-0.5 174,-19.5 229,-19.5 229,-0.5 174,-0.5"/>
<text text-anchor="middle" x="201.5" y="-7.5" font-family="Helvetica,sans-Serif" font-size="10.00">toString</text>
</a>
</g>
</g>
<!-- Node1&#45;&gt;Node3 -->
<g id="edge2" class="edge"><title>Node1&#45;&gt;Node3</title>
<path fill="none" stroke="midnightblue" d="M68.0936,-27.6008C95.7339,-23.9266 135.103,-18.6932 163.724,-14.8886"/>
<polygon fill="midnightblue" stroke="midnightblue" points="164.289,-18.3444 173.741,-13.5571 163.367,-11.4054 164.289,-18.3444"/>
</g>
</g>
</svg>
