<?xml version="1.0" encoding="UTF-8" standalone="no"?>
<!DOCTYPE svg PUBLIC "-//W3C//DTD SVG 1.1//EN"
 "http://www.w3.org/Graphics/SVG/1.1/DTD/svg11.dtd">
<!-- Generated by graphviz version 2.38.0 (20140413.2041)
 -->
<!-- Title: present Pages: 1 -->
<svg width="340pt" height="88pt"
 viewBox="0.00 0.00 340.00 88.00" xmlns="http://www.w3.org/2000/svg" xmlns:xlink="http://www.w3.org/1999/xlink">
<g id="graph0" class="graph" transform="scale(1 1) rotate(0) translate(4 84)">
<title>present</title>
<polygon fill="white" stroke="none" points="-4,4 -4,-84 336,-84 336,4 -4,4"/>
<!-- Node1 -->
<g id="node1" class="node"><title>Node1</title>
<polygon fill="#bfbfbf" stroke="black" points="0,-30 0,-49 53,-49 53,-30 0,-30"/>
<text text-anchor="middle" x="26.5" y="-37" font-family="Helvetica,sans-Serif" font-size="10.00">present</text>
</g>
<!-- Node2 -->
<g id="node2" class="node"><title>Node2</title>
<g id="a_node2"><a xlink:href="classcom_1_1tomoparts_1_1tomoBay_1_1model_1_1sql_1_1framework_1_1SelectQueryInvoker.html#a594282bcbcc0731a7d234482717422d7" target="_top" xlink:title="execute a requested query ">
<polygon fill="white" stroke="black" points="89,-49.5 89,-79.5 332,-79.5 332,-49.5 89,-49.5"/>
<text text-anchor="start" x="97" y="-67.5" font-family="Helvetica,sans-Serif" font-size="10.00">com.tomoparts.tomoBay.model.sql.framework.</text>
<text text-anchor="middle" x="210.5" y="-56.5" font-family="Helvetica,sans-Serif" font-size="10.00">SelectQueryInvoker.execute</text>
</a>
</g>
</g>
<!-- Node1&#45;&gt;Node2 -->
<g id="edge1" class="edge"><title>Node1&#45;&gt;Node2</title>
<path fill="none" stroke="midnightblue" d="M53.1901,-43.0289C63.5192,-44.4477 76.2208,-46.1924 89.8803,-48.0687"/>
<polygon fill="midnightblue" stroke="midnightblue" points="89.5923,-51.562 99.9756,-49.4554 90.545,-44.6271 89.5923,-51.562"/>
</g>
<!-- Node3 -->
<g id="node3" class="node"><title>Node3</title>
<g id="a_node3"><a xlink:href="interfacecom_1_1tomoparts_1_1tomoBay_1_1view_1_1AbstractView.html#a5724666c8c61c4e2ef28d5364c8c13d0" target="_top" xlink:title="this method is responsible for formatting the data as required for the specific derived view ...">
<polygon fill="white" stroke="black" points="128.5,-0.5 128.5,-30.5 292.5,-30.5 292.5,-0.5 128.5,-0.5"/>
<text text-anchor="start" x="136.5" y="-18.5" font-family="Helvetica,sans-Serif" font-size="10.00">com.tomoparts.tomoBay.view.</text>
<text text-anchor="middle" x="210.5" y="-7.5" font-family="Helvetica,sans-Serif" font-size="10.00">AbstractView.format</text>
</a>
</g>
</g>
<!-- Node1&#45;&gt;Node3 -->
<g id="edge2" class="edge"><title>Node1&#45;&gt;Node3</title>
<path fill="none" stroke="midnightblue" d="M53.1901,-36.1123C70.4233,-33.8398 94.261,-30.6963 118.133,-27.5485"/>
<polygon fill="midnightblue" stroke="midnightblue" points="118.889,-30.979 128.346,-26.2016 117.974,-24.0391 118.889,-30.979"/>
</g>
</g>
</svg>
