<?xml version="1.0" encoding="UTF-8" standalone="no"?>
<!DOCTYPE svg PUBLIC "-//W3C//DTD SVG 1.1//EN"
 "http://www.w3.org/Graphics/SVG/1.1/DTD/svg11.dtd">
<!-- Generated by graphviz version 2.38.0 (20140413.2041)
 -->
<!-- Title: salesRecNo Pages: 1 -->
<svg width="924pt" height="189pt"
 viewBox="0.00 0.00 924.00 189.32" xmlns="http://www.w3.org/2000/svg" xmlns:xlink="http://www.w3.org/1999/xlink">
<g id="graph0" class="graph" transform="scale(1 1) rotate(0) translate(4 185.315)">
<title>salesRecNo</title>
<polygon fill="white" stroke="none" points="-4,4 -4,-185.315 920,-185.315 920,4 -4,4"/>
<!-- Node1 -->
<g id="node1" class="node"><title>Node1</title>
<polygon fill="#bfbfbf" stroke="black" points="0,-91 0,-110 72,-110 72,-91 0,-91"/>
<text text-anchor="middle" x="36" y="-98" font-family="Helvetica,sans-Serif" font-size="10.00">salesRecNo</text>
</g>
<!-- Node2 -->
<g id="node2" class="node"><title>Node2</title>
<g id="a_node2"><a xlink:href="classcom_1_1tomoparts_1_1tomoBay_1_1presenters_1_1presenterActions_1_1concreteActions_1_1InvoiceOrders.html#adb3dedf31dc2c7fc796f20406c235ccd" target="_top" xlink:title="performs the action specified ">
<polygon fill="white" stroke="black" points="392.5,-109.5 392.5,-139.5 634.5,-139.5 634.5,-109.5 392.5,-109.5"/>
<text text-anchor="start" x="400.5" y="-127.5" font-family="Helvetica,sans-Serif" font-size="10.00">com.tomoparts.tomoBay.presenters.presenter</text>
<text text-anchor="middle" x="513.5" y="-116.5" font-family="Helvetica,sans-Serif" font-size="10.00">Actions.concreteActions.InvoiceOrders.execute</text>
</a>
</g>
</g>
<!-- Node1&#45;&gt;Node2 -->
<g id="edge1" class="edge"><title>Node1&#45;&gt;Node2</title>
<path fill="none" stroke="midnightblue" d="M51.1908,-117.947C64.2144,-132.462 84.9424,-152.062 108,-160.5 233.963,-206.596 396.106,-164.296 471.085,-139.527"/>
<polygon fill="midnightblue" stroke="midnightblue" points="53.6272,-115.412 44.4537,-110.112 48.3194,-119.976 53.6272,-115.412"/>
</g>
<!-- Node3 -->
<g id="node3" class="node"><title>Node3</title>
<g id="a_node3"><a xlink:href="classcom_1_1tomoparts_1_1tomoBay_1_1model_1_1dataTypes_1_1financial_1_1SalesOrderDayBook_1_1formats_1_1WinstockFormat.html#accefd62bc10c59d9ba78937d90a5fa8c" target="_top" xlink:title="com.tomoparts.tomoBay.model.data\lTypes.financial.SalesOrderDayBook.formats.\lWinstockFormat.format">
<polygon fill="white" stroke="black" points="116,-110 116,-151 345,-151 345,-110 116,-110"/>
<text text-anchor="start" x="124" y="-139" font-family="Helvetica,sans-Serif" font-size="10.00">com.tomoparts.tomoBay.model.data</text>
<text text-anchor="start" x="124" y="-128" font-family="Helvetica,sans-Serif" font-size="10.00">Types.financial.SalesOrderDayBook.formats.</text>
<text text-anchor="middle" x="230.5" y="-117" font-family="Helvetica,sans-Serif" font-size="10.00">WinstockFormat.format</text>
</a>
</g>
</g>
<!-- Node1&#45;&gt;Node3 -->
<g id="edge2" class="edge"><title>Node1&#45;&gt;Node3</title>
<path fill="none" stroke="midnightblue" d="M82.2553,-107.553C92.5989,-109.165 104.047,-110.949 115.857,-112.789"/>
<polygon fill="midnightblue" stroke="midnightblue" points="82.7272,-104.084 72.3075,-106.002 81.6492,-111.001 82.7272,-104.084"/>
</g>
<!-- Node4 -->
<g id="node4" class="node"><title>Node4</title>
<g id="a_node4"><a xlink:href="classcom_1_1tomoparts_1_1tomoBay_1_1presenters_1_1presenterActions_1_1concreteActions_1_1InvoiceOrders.html#a589f75735e26f66e44061ac5047d0cf0" target="_top" xlink:title="com.tomoparts.tomoBay.presenters.presenter\lActions.concreteActions.InvoiceOrders.format\lMailResult">
<polygon fill="white" stroke="black" points="109.5,-50 109.5,-91 351.5,-91 351.5,-50 109.5,-50"/>
<text text-anchor="start" x="117.5" y="-79" font-family="Helvetica,sans-Serif" font-size="10.00">com.tomoparts.tomoBay.presenters.presenter</text>
<text text-anchor="start" x="117.5" y="-68" font-family="Helvetica,sans-Serif" font-size="10.00">Actions.concreteActions.InvoiceOrders.format</text>
<text text-anchor="middle" x="230.5" y="-57" font-family="Helvetica,sans-Serif" font-size="10.00">MailResult</text>
</a>
</g>
</g>
<!-- Node1&#45;&gt;Node4 -->
<g id="edge3" class="edge"><title>Node1&#45;&gt;Node4</title>
<path fill="none" stroke="midnightblue" d="M82.2359,-93.4502C90.6988,-92.1314 99.9018,-90.6971 109.437,-89.211"/>
<polygon fill="midnightblue" stroke="midnightblue" points="81.6492,-89.9993 72.3075,-94.9975 82.7272,-96.9159 81.6492,-89.9993"/>
</g>
<!-- Node5 -->
<g id="node5" class="node"><title>Node5</title>
<g id="a_node5"><a xlink:href="classcom_1_1tomoparts_1_1tomoBay_1_1presenters_1_1presenterActions_1_1concreteActions_1_1OrderInfo.html#a95f980d76c5d92ed97b2aaab0d2d0c21" target="_top" xlink:title="formats the summary information for this Order ">
<polygon fill="white" stroke="black" points="108,-0.5 108,-30.5 353,-30.5 353,-0.5 108,-0.5"/>
<text text-anchor="start" x="116" y="-18.5" font-family="Helvetica,sans-Serif" font-size="10.00">com.tomoparts.tomoBay.presenters.presenter</text>
<text text-anchor="middle" x="230.5" y="-7.5" font-family="Helvetica,sans-Serif" font-size="10.00">Actions.concreteActions.OrderInfo.summaryInfo</text>
</a>
</g>
</g>
<!-- Node1&#45;&gt;Node5 -->
<g id="edge5" class="edge"><title>Node1&#45;&gt;Node5</title>
<path fill="none" stroke="midnightblue" d="M52.5614,-83.2679C65.9239,-69.5594 86.4011,-50.9942 108,-40.5 116.039,-36.5943 124.664,-33.2979 133.475,-30.5159"/>
<polygon fill="midnightblue" stroke="midnightblue" points="49.8826,-81.0069 45.5612,-90.6803 54.9719,-85.8131 49.8826,-81.0069"/>
</g>
<!-- Node4&#45;&gt;Node2 -->
<g id="edge4" class="edge"><title>Node4&#45;&gt;Node2</title>
<path fill="none" stroke="midnightblue" d="M348.669,-93.0164C377.498,-98.5566 407.677,-104.356 434.163,-109.446"/>
<polygon fill="midnightblue" stroke="midnightblue" points="349.017,-89.5193 338.536,-91.0691 347.695,-96.3935 349.017,-89.5193"/>
</g>
<!-- Node6 -->
<g id="node6" class="node"><title>Node6</title>
<g id="a_node6"><a xlink:href="classcom_1_1tomoparts_1_1tomoBay_1_1presenters_1_1presenterActions_1_1concreteActions_1_1OrderInfo.html#afeec1aeda079b77245edea1e74b25f33" target="_top" xlink:title="assembles the various parts of the order and outputs it as a fully formed JSON string. ">
<polygon fill="white" stroke="black" points="389,-0.5 389,-30.5 638,-30.5 638,-0.5 389,-0.5"/>
<text text-anchor="start" x="397" y="-18.5" font-family="Helvetica,sans-Serif" font-size="10.00">com.tomoparts.tomoBay.presenters.presenter</text>
<text text-anchor="middle" x="513.5" y="-7.5" font-family="Helvetica,sans-Serif" font-size="10.00">Actions.concreteActions.OrderInfo.formatResults</text>
</a>
</g>
</g>
<!-- Node5&#45;&gt;Node6 -->
<g id="edge6" class="edge"><title>Node5&#45;&gt;Node6</title>
<path fill="none" stroke="midnightblue" d="M363.164,-15.5C371.747,-15.5 380.374,-15.5 388.917,-15.5"/>
<polygon fill="midnightblue" stroke="midnightblue" points="363.116,-12.0001 353.116,-15.5 363.116,-19.0001 363.116,-12.0001"/>
</g>
<!-- Node7 -->
<g id="node7" class="node"><title>Node7</title>
<g id="a_node7"><a xlink:href="classcom_1_1tomoparts_1_1tomoBay_1_1presenters_1_1presenterActions_1_1concreteActions_1_1OrderInfo.html#adb3dedf31dc2c7fc796f20406c235ccd" target="_top" xlink:title="performs the action specified ">
<polygon fill="white" stroke="black" points="674,-0.5 674,-30.5 916,-30.5 916,-0.5 674,-0.5"/>
<text text-anchor="start" x="682" y="-18.5" font-family="Helvetica,sans-Serif" font-size="10.00">com.tomoparts.tomoBay.presenters.presenter</text>
<text text-anchor="middle" x="795" y="-7.5" font-family="Helvetica,sans-Serif" font-size="10.00">Actions.concreteActions.OrderInfo.execute</text>
</a>
</g>
</g>
<!-- Node6&#45;&gt;Node7 -->
<g id="edge7" class="edge"><title>Node6&#45;&gt;Node7</title>
<path fill="none" stroke="midnightblue" d="M648.322,-15.5C656.865,-15.5 665.439,-15.5 673.914,-15.5"/>
<polygon fill="midnightblue" stroke="midnightblue" points="648.313,-12.0001 638.313,-15.5 648.313,-19.0001 648.313,-12.0001"/>
</g>
</g>
</svg>
