<?xml version="1.0" encoding="UTF-8" standalone="no"?>
<!DOCTYPE svg PUBLIC "-//W3C//DTD SVG 1.1//EN"
 "http://www.w3.org/Graphics/SVG/1.1/DTD/svg11.dtd">
<!-- Generated by graphviz version 2.38.0 (20140413.2041)
 -->
<!-- Title: ListingsCall Pages: 1 -->
<svg width="293pt" height="88pt"
 viewBox="0.00 0.00 293.00 88.00" xmlns="http://www.w3.org/2000/svg" xmlns:xlink="http://www.w3.org/1999/xlink">
<g id="graph0" class="graph" transform="scale(1 1) rotate(0) translate(4 84)">
<title>ListingsCall</title>
<polygon fill="white" stroke="none" points="-4,4 -4,-84 289,-84 289,4 -4,4"/>
<!-- Node1 -->
<g id="node1" class="node"><title>Node1</title>
<polygon fill="#bfbfbf" stroke="black" points="0,-30 0,-49 70,-49 70,-30 0,-30"/>
<text text-anchor="middle" x="35" y="-37" font-family="Helvetica,sans-Serif" font-size="10.00">ListingsCall</text>
</g>
<!-- Node2 -->
<g id="node2" class="node"><title>Node2</title>
<g id="a_node2"><a xlink:href="classcom_1_1tomoparts_1_1tomoBay_1_1model_1_1eBayAPI_1_1APIcontext.html#a2ffa8b387d0db2f1192c42e5d37386e5" target="_top" xlink:title="used for getting an ApiContext object that can then be passed to individual API calls. ">
<polygon fill="white" stroke="black" points="106,-49.5 106,-79.5 285,-79.5 285,-49.5 106,-49.5"/>
<text text-anchor="start" x="114" y="-67.5" font-family="Helvetica,sans-Serif" font-size="10.00">com.tomoparts.tomoBay.model.e</text>
<text text-anchor="middle" x="195.5" y="-56.5" font-family="Helvetica,sans-Serif" font-size="10.00">BayAPI.APIcontext.apiContext</text>
</a>
</g>
</g>
<!-- Node1&#45;&gt;Node2 -->
<g id="edge1" class="edge"><title>Node1&#45;&gt;Node2</title>
<path fill="none" stroke="midnightblue" d="M70.0022,-44.8631C77.8846,-46.1064 86.6652,-47.4914 95.814,-48.9344"/>
<polygon fill="midnightblue" stroke="midnightblue" points="95.4378,-52.4182 105.861,-50.5191 96.5285,-45.5037 95.4378,-52.4182"/>
</g>
<!-- Node3 -->
<g id="node3" class="node"><title>Node3</title>
<g id="a_node3"><a xlink:href="classcom_1_1tomoparts_1_1tomoBay_1_1model_1_1eBayAPI_1_1APIcontext.html#a8992e1a212bc23facdb69618e2615466" target="_top" xlink:title="Used instead of constructor for getting an APIcontext instance. ">
<polygon fill="white" stroke="black" points="106,-0.5 106,-30.5 285,-30.5 285,-0.5 106,-0.5"/>
<text text-anchor="start" x="114" y="-18.5" font-family="Helvetica,sans-Serif" font-size="10.00">com.tomoparts.tomoBay.model.e</text>
<text text-anchor="middle" x="195.5" y="-7.5" font-family="Helvetica,sans-Serif" font-size="10.00">BayAPI.APIcontext.instance</text>
</a>
</g>
</g>
<!-- Node1&#45;&gt;Node3 -->
<g id="edge2" class="edge"><title>Node1&#45;&gt;Node3</title>
<path fill="none" stroke="midnightblue" d="M70.0022,-34.3514C77.8846,-33.1578 86.6652,-31.8283 95.814,-30.443"/>
<polygon fill="midnightblue" stroke="midnightblue" points="96.4977,-33.8794 105.861,-28.9217 95.4497,-26.9583 96.4977,-33.8794"/>
</g>
</g>
</svg>
