<?xml version="1.0" encoding="UTF-8" standalone="no"?>
<!DOCTYPE svg PUBLIC "-//W3C//DTD SVG 1.1//EN"
 "http://www.w3.org/Graphics/SVG/1.1/DTD/svg11.dtd">
<!-- Generated by graphviz version 2.38.0 (20140413.2041)
 -->
<!-- Title: AbstractSelectQuery Pages: 1 -->
<svg width="3786pt" height="480pt"
 viewBox="0.00 0.00 3786.00 480.00" xmlns="http://www.w3.org/2000/svg" xmlns:xlink="http://www.w3.org/1999/xlink">
<g id="graph0" class="graph" transform="scale(1 1) rotate(0) translate(4 476)">
<title>AbstractSelectQuery</title>
<polygon fill="white" stroke="none" points="-4,4 -4,-476 3782,-476 3782,4 -4,4"/>
<!-- Node1 -->
<g id="node1" class="node"><title>Node1</title>
<polygon fill="#bfbfbf" stroke="black" points="1769,-276.5 1769,-344.5 1903,-344.5 1903,-276.5 1769,-276.5"/>
<text text-anchor="middle" x="1836" y="-332.5" font-family="Helvetica,sans-Serif" font-size="10.00">AbstractSelectQuery</text>
<polyline fill="none" stroke="black" points="1769,-325.5 1903,-325.5 "/>
<text text-anchor="middle" x="1836" y="-313.5" font-family="Helvetica,sans-Serif" font-size="10.00"> </text>
<polyline fill="none" stroke="black" points="1769,-306.5 1903,-306.5 "/>
<text text-anchor="start" x="1777" y="-294.5" font-family="Helvetica,sans-Serif" font-size="10.00">+ AbstractSelectQuery()</text>
<text text-anchor="start" x="1777" y="-283.5" font-family="Helvetica,sans-Serif" font-size="10.00"># format()</text>
</g>
<!-- Node3 -->
<g id="node3" class="node"><title>Node3</title>
<g id="a_node3"><a xlink:href="classcom_1_1tomoparts_1_1tomoBay_1_1model_1_1sql_1_1framework_1_1queryTypes_1_1select_1_1AbstractSelectNoParamsQuery.html" target="_top" xlink:title="This class defines the Abstract base for all Select queries that do not require parameters. ">
<polygon fill="white" stroke="black" points="821.5,-155 821.5,-234 1006.5,-234 1006.5,-155 821.5,-155"/>
<text text-anchor="middle" x="914" y="-222" font-family="Helvetica,sans-Serif" font-size="10.00">AbstractSelectNoParamsQuery</text>
<polyline fill="none" stroke="black" points="821.5,-215 1006.5,-215 "/>
<text text-anchor="middle" x="914" y="-203" font-family="Helvetica,sans-Serif" font-size="10.00"> </text>
<polyline fill="none" stroke="black" points="821.5,-196 1006.5,-196 "/>
<text text-anchor="start" x="829.5" y="-184" font-family="Helvetica,sans-Serif" font-size="10.00">+ AbstractSelectNoParamsQuery()</text>
<text text-anchor="start" x="829.5" y="-173" font-family="Helvetica,sans-Serif" font-size="10.00">+ execute()</text>
<text text-anchor="start" x="829.5" y="-162" font-family="Helvetica,sans-Serif" font-size="10.00"># initQuery()</text>
</a>
</g>
</g>
<!-- Node1&#45;&gt;Node3 -->
<g id="edge2" class="edge"><title>Node1&#45;&gt;Node3</title>
<path fill="none" stroke="midnightblue" d="M1758.91,-299.968C1590.23,-279.112 1188.99,-229.5 1006.82,-206.976"/>
<polygon fill="none" stroke="midnightblue" points="1758.6,-303.456 1768.95,-301.21 1759.45,-296.509 1758.6,-303.456"/>
</g>
<!-- Node15 -->
<g id="node15" class="node"><title>Node15</title>
<g id="a_node15"><a xlink:href="classcom_1_1tomoparts_1_1tomoBay_1_1model_1_1sql_1_1framework_1_1queryTypes_1_1select_1_1AbstractSelectParamsQuery.html" target="_top" xlink:title="This class defines the abstract base for all Select queries that take parameters. ...">
<polygon fill="white" stroke="black" points="2599.5,-149.5 2599.5,-239.5 2770.5,-239.5 2770.5,-149.5 2599.5,-149.5"/>
<text text-anchor="middle" x="2685" y="-227.5" font-family="Helvetica,sans-Serif" font-size="10.00">AbstractSelectParamsQuery</text>
<polyline fill="none" stroke="black" points="2599.5,-220.5 2770.5,-220.5 "/>
<text text-anchor="middle" x="2685" y="-208.5" font-family="Helvetica,sans-Serif" font-size="10.00"> </text>
<polyline fill="none" stroke="black" points="2599.5,-201.5 2770.5,-201.5 "/>
<text text-anchor="start" x="2607.5" y="-189.5" font-family="Helvetica,sans-Serif" font-size="10.00">+ AbstractSelectParamsQuery()</text>
<text text-anchor="start" x="2607.5" y="-178.5" font-family="Helvetica,sans-Serif" font-size="10.00">+ execute()</text>
<text text-anchor="start" x="2607.5" y="-167.5" font-family="Helvetica,sans-Serif" font-size="10.00"># setParameters()</text>
<text text-anchor="start" x="2607.5" y="-156.5" font-family="Helvetica,sans-Serif" font-size="10.00">&#45; initQuery()</text>
</a>
</g>
</g>
<!-- Node1&#45;&gt;Node15 -->
<g id="edge14" class="edge"><title>Node1&#45;&gt;Node15</title>
<path fill="none" stroke="midnightblue" d="M1913.5,-299.094C2072.35,-277.763 2433.87,-229.22 2599.38,-206.996"/>
<polygon fill="none" stroke="midnightblue" points="1912.77,-295.66 1903.33,-300.459 1913.71,-302.597 1912.77,-295.66"/>
</g>
<!-- Node2 -->
<g id="node2" class="node"><title>Node2</title>
<g id="a_node2"><a xlink:href="classcom_1_1tomoparts_1_1tomoBay_1_1model_1_1sql_1_1framework_1_1queryTypes_1_1AbstractDBQuery.html" target="_top" xlink:title="Interface that all database queries must adhere to. ">
<polygon fill="white" stroke="black" points="1786,-381.5 1786,-471.5 1886,-471.5 1886,-381.5 1786,-381.5"/>
<text text-anchor="middle" x="1836" y="-459.5" font-family="Helvetica,sans-Serif" font-size="10.00">AbstractDBQuery</text>
<polyline fill="none" stroke="black" points="1786,-452.5 1886,-452.5 "/>
<text text-anchor="start" x="1794" y="-440.5" font-family="Helvetica,sans-Serif" font-size="10.00"># statement_M</text>
<text text-anchor="start" x="1794" y="-429.5" font-family="Helvetica,sans-Serif" font-size="10.00"># connection_M</text>
<polyline fill="none" stroke="black" points="1786,-422.5 1886,-422.5 "/>
<text text-anchor="start" x="1794" y="-410.5" font-family="Helvetica,sans-Serif" font-size="10.00">+ statement()</text>
<text text-anchor="start" x="1794" y="-399.5" font-family="Helvetica,sans-Serif" font-size="10.00"># queryString()</text>
<text text-anchor="start" x="1794" y="-388.5" font-family="Helvetica,sans-Serif" font-size="10.00"># cleanup()</text>
</a>
</g>
</g>
<!-- Node2&#45;&gt;Node1 -->
<g id="edge1" class="edge"><title>Node2&#45;&gt;Node1</title>
<path fill="none" stroke="midnightblue" d="M1836,-371.316C1836,-362.285 1836,-353.159 1836,-344.848"/>
<polygon fill="none" stroke="midnightblue" points="1832.5,-371.425 1836,-381.425 1839.5,-371.425 1832.5,-371.425"/>
</g>
<!-- Node4 -->
<g id="node4" class="node"><title>Node4</title>
<g id="a_node4"><a xlink:href="classcom_1_1tomoparts_1_1tomoBay_1_1model_1_1sql_1_1queries_1_1concreteQueries_1_1select_1_1noParams_1_1SelectAccounts.html" target="_top" xlink:title="Copyright(C) 2015 Jan P.C. ">
<polygon fill="white" stroke="black" points="0,-17 0,-96 110,-96 110,-17 0,-17"/>
<text text-anchor="middle" x="55" y="-84" font-family="Helvetica,sans-Serif" font-size="10.00">SelectAccounts</text>
<polyline fill="none" stroke="black" points="0,-77 110,-77 "/>
<text text-anchor="start" x="8" y="-65" font-family="Helvetica,sans-Serif" font-size="10.00">&#45; query</text>
<polyline fill="none" stroke="black" points="0,-58 110,-58 "/>
<text text-anchor="start" x="8" y="-46" font-family="Helvetica,sans-Serif" font-size="10.00">+ SelectAccounts()</text>
<text text-anchor="start" x="8" y="-35" font-family="Helvetica,sans-Serif" font-size="10.00"># format()</text>
<text text-anchor="start" x="8" y="-24" font-family="Helvetica,sans-Serif" font-size="10.00"># queryString()</text>
</a>
</g>
</g>
<!-- Node3&#45;&gt;Node4 -->
<g id="edge3" class="edge"><title>Node3&#45;&gt;Node4</title>
<path fill="none" stroke="midnightblue" d="M811.187,-190.771C625.219,-184.578 240.931,-165.655 119,-113 109.414,-108.86 100.222,-102.748 91.9432,-96.0751"/>
<polygon fill="none" stroke="midnightblue" points="811.138,-194.271 821.247,-191.1 811.367,-187.275 811.138,-194.271"/>
</g>
<!-- Node5 -->
<g id="node5" class="node"><title>Node5</title>
<g id="a_node5"><a xlink:href="classcom_1_1tomoparts_1_1tomoBay_1_1model_1_1sql_1_1queries_1_1concreteQueries_1_1select_1_1noParams_1_1SelectEbayBuyers.html" target="_top" xlink:title="{SelectEbayBuyers\n|&#45; query\l|+ SelectEbayBuyers()\l# format()\l# queryString()\l}">
<polygon fill="white" stroke="black" points="128,-17 128,-96 250,-96 250,-17 128,-17"/>
<text text-anchor="middle" x="189" y="-84" font-family="Helvetica,sans-Serif" font-size="10.00">SelectEbayBuyers</text>
<polyline fill="none" stroke="black" points="128,-77 250,-77 "/>
<text text-anchor="start" x="136" y="-65" font-family="Helvetica,sans-Serif" font-size="10.00">&#45; query</text>
<polyline fill="none" stroke="black" points="128,-58 250,-58 "/>
<text text-anchor="start" x="136" y="-46" font-family="Helvetica,sans-Serif" font-size="10.00">+ SelectEbayBuyers()</text>
<text text-anchor="start" x="136" y="-35" font-family="Helvetica,sans-Serif" font-size="10.00"># format()</text>
<text text-anchor="start" x="136" y="-24" font-family="Helvetica,sans-Serif" font-size="10.00"># queryString()</text>
</a>
</g>
</g>
<!-- Node3&#45;&gt;Node5 -->
<g id="edge4" class="edge"><title>Node3&#45;&gt;Node5</title>
<path fill="none" stroke="midnightblue" d="M810.999,-187.649C652.336,-177.496 356.279,-153.708 259,-113 248.985,-108.809 239.213,-102.76 230.301,-96.1834"/>
<polygon fill="none" stroke="midnightblue" points="811.046,-191.158 821.248,-188.298 811.489,-184.172 811.046,-191.158"/>
</g>
<!-- Node6 -->
<g id="node6" class="node"><title>Node6</title>
<g id="a_node6"><a xlink:href="classcom_1_1tomoparts_1_1tomoBay_1_1model_1_1sql_1_1queries_1_1concreteQueries_1_1select_1_1noParams_1_1SelectEbayItems.html" target="_top" xlink:title="This class represents a query that selects all the fields in the items table of the database...">
<polygon fill="white" stroke="black" points="268,-17 268,-96 384,-96 384,-17 268,-17"/>
<text text-anchor="middle" x="326" y="-84" font-family="Helvetica,sans-Serif" font-size="10.00">SelectEbayItems</text>
<polyline fill="none" stroke="black" points="268,-77 384,-77 "/>
<text text-anchor="start" x="276" y="-65" font-family="Helvetica,sans-Serif" font-size="10.00">&#45; query</text>
<polyline fill="none" stroke="black" points="268,-58 384,-58 "/>
<text text-anchor="start" x="276" y="-46" font-family="Helvetica,sans-Serif" font-size="10.00">+ SelectEbayItems()</text>
<text text-anchor="start" x="276" y="-35" font-family="Helvetica,sans-Serif" font-size="10.00"># format()</text>
<text text-anchor="start" x="276" y="-24" font-family="Helvetica,sans-Serif" font-size="10.00"># queryString()</text>
</a>
</g>
</g>
<!-- Node3&#45;&gt;Node6 -->
<g id="edge5" class="edge"><title>Node3&#45;&gt;Node6</title>
<path fill="none" stroke="midnightblue" d="M811.054,-193.553C702.544,-190.037 528.855,-174.085 393,-113 383.495,-108.726 374.246,-102.724 365.806,-96.2362"/>
<polygon fill="none" stroke="midnightblue" points="811.249,-197.06 821.348,-193.856 811.455,-190.063 811.249,-197.06"/>
</g>
<!-- Node7 -->
<g id="node7" class="node"><title>Node7</title>
<g id="a_node7"><a xlink:href="classcom_1_1tomoparts_1_1tomoBay_1_1model_1_1sql_1_1queries_1_1concreteQueries_1_1select_1_1noParams_1_1SelectEbayItemsError.html" target="_top" xlink:title="{SelectEbayItemsError\n|&#45; query\l|+ SelectEbayItemsError()\l# format()\l# queryString()\l}">
<polygon fill="white" stroke="black" points="402.5,-17 402.5,-96 541.5,-96 541.5,-17 402.5,-17"/>
<text text-anchor="middle" x="472" y="-84" font-family="Helvetica,sans-Serif" font-size="10.00">SelectEbayItemsError</text>
<polyline fill="none" stroke="black" points="402.5,-77 541.5,-77 "/>
<text text-anchor="start" x="410.5" y="-65" font-family="Helvetica,sans-Serif" font-size="10.00">&#45; query</text>
<polyline fill="none" stroke="black" points="402.5,-58 541.5,-58 "/>
<text text-anchor="start" x="410.5" y="-46" font-family="Helvetica,sans-Serif" font-size="10.00">+ SelectEbayItemsError()</text>
<text text-anchor="start" x="410.5" y="-35" font-family="Helvetica,sans-Serif" font-size="10.00"># format()</text>
<text text-anchor="start" x="410.5" y="-24" font-family="Helvetica,sans-Serif" font-size="10.00"># queryString()</text>
</a>
</g>
</g>
<!-- Node3&#45;&gt;Node7 -->
<g id="edge6" class="edge"><title>Node3&#45;&gt;Node7</title>
<path fill="none" stroke="midnightblue" d="M811.03,-181.677C736.449,-170.519 634.488,-149.816 551,-113 540.724,-108.469 530.416,-102.508 520.796,-96.1757"/>
<polygon fill="none" stroke="midnightblue" points="810.965,-185.205 821.367,-183.189 811.978,-178.279 810.965,-185.205"/>
</g>
<!-- Node8 -->
<g id="node8" class="node"><title>Node8</title>
<g id="a_node8"><a xlink:href="classcom_1_1tomoparts_1_1tomoBay_1_1model_1_1sql_1_1queries_1_1concreteQueries_1_1select_1_1noPaa32333c0bd056ac5fb6e9af79a150a72.html" target="_top" xlink:title="This class represents a query that selects all items (from the transactions table) that do not curren...">
<polygon fill="white" stroke="black" points="560,-17 560,-96 762,-96 762,-17 560,-17"/>
<text text-anchor="middle" x="661" y="-84" font-family="Helvetica,sans-Serif" font-size="10.00">SelectEbayItemsNotInTransactions</text>
<polyline fill="none" stroke="black" points="560,-77 762,-77 "/>
<text text-anchor="start" x="568" y="-65" font-family="Helvetica,sans-Serif" font-size="10.00">&#45; query</text>
<polyline fill="none" stroke="black" points="560,-58 762,-58 "/>
<text text-anchor="start" x="568" y="-46" font-family="Helvetica,sans-Serif" font-size="10.00">+ SelectEbayItemsNotInTransactions()</text>
<text text-anchor="start" x="568" y="-35" font-family="Helvetica,sans-Serif" font-size="10.00"># format()</text>
<text text-anchor="start" x="568" y="-24" font-family="Helvetica,sans-Serif" font-size="10.00"># queryString()</text>
</a>
</g>
</g>
<!-- Node3&#45;&gt;Node8 -->
<g id="edge7" class="edge"><title>Node3&#45;&gt;Node8</title>
<path fill="none" stroke="midnightblue" d="M833.226,-150.08C801.031,-132.774 764.271,-113.013 733.002,-96.2049"/>
<polygon fill="none" stroke="midnightblue" points="831.712,-153.24 842.177,-154.892 835.026,-147.074 831.712,-153.24"/>
</g>
<!-- Node9 -->
<g id="node9" class="node"><title>Node9</title>
<g id="a_node9"><a xlink:href="classcom_1_1tomoparts_1_1tomoBay_1_1model_1_1sql_1_1queries_1_1concreteQueries_1_1select_1_1noParams_1_1SelectEbayOrders.html" target="_top" xlink:title="This class represents a query that selects all data contained in the orders table of the database sor...">
<polygon fill="white" stroke="black" points="780.5,-17 780.5,-96 901.5,-96 901.5,-17 780.5,-17"/>
<text text-anchor="middle" x="841" y="-84" font-family="Helvetica,sans-Serif" font-size="10.00">SelectEbayOrders</text>
<polyline fill="none" stroke="black" points="780.5,-77 901.5,-77 "/>
<text text-anchor="start" x="788.5" y="-65" font-family="Helvetica,sans-Serif" font-size="10.00">&#45; query</text>
<polyline fill="none" stroke="black" points="780.5,-58 901.5,-58 "/>
<text text-anchor="start" x="788.5" y="-46" font-family="Helvetica,sans-Serif" font-size="10.00">+ SelectEbayOrders()</text>
<text text-anchor="start" x="788.5" y="-35" font-family="Helvetica,sans-Serif" font-size="10.00"># format()</text>
<text text-anchor="start" x="788.5" y="-24" font-family="Helvetica,sans-Serif" font-size="10.00"># queryString()</text>
</a>
</g>
</g>
<!-- Node3&#45;&gt;Node9 -->
<g id="edge8" class="edge"><title>Node3&#45;&gt;Node9</title>
<path fill="none" stroke="midnightblue" d="M888.528,-146.045C879.782,-129.751 870.103,-111.72 861.775,-96.2049"/>
<polygon fill="none" stroke="midnightblue" points="885.463,-147.736 893.276,-154.892 891.631,-144.425 885.463,-147.736"/>
</g>
<!-- Node10 -->
<g id="node10" class="node"><title>Node10</title>
<g id="a_node10"><a xlink:href="classcom_1_1tomoparts_1_1tomoBay_1_1model_1_1sql_1_1queries_1_1concreteQueries_1_1select_1_1noParams_1_1SelectInvoicedOrders.html" target="_top" xlink:title="This class represents a query that selects all data from the orders table that is not currently invoi...">
<polygon fill="white" stroke="black" points="919.5,-17 919.5,-96 1056.5,-96 1056.5,-17 919.5,-17"/>
<text text-anchor="middle" x="988" y="-84" font-family="Helvetica,sans-Serif" font-size="10.00">SelectInvoicedOrders</text>
<polyline fill="none" stroke="black" points="919.5,-77 1056.5,-77 "/>
<text text-anchor="start" x="927.5" y="-65" font-family="Helvetica,sans-Serif" font-size="10.00">&#45; query</text>
<polyline fill="none" stroke="black" points="919.5,-58 1056.5,-58 "/>
<text text-anchor="start" x="927.5" y="-46" font-family="Helvetica,sans-Serif" font-size="10.00">+ SelectInvoicedOrders()</text>
<text text-anchor="start" x="927.5" y="-35" font-family="Helvetica,sans-Serif" font-size="10.00"># format()</text>
<text text-anchor="start" x="927.5" y="-24" font-family="Helvetica,sans-Serif" font-size="10.00"># queryString()</text>
</a>
</g>
</g>
<!-- Node3&#45;&gt;Node10 -->
<g id="edge9" class="edge"><title>Node3&#45;&gt;Node10</title>
<path fill="none" stroke="midnightblue" d="M939.821,-146.045C948.687,-129.751 958.498,-111.72 966.94,-96.2049"/>
<polygon fill="none" stroke="midnightblue" points="936.713,-144.435 935.007,-154.892 942.861,-147.781 936.713,-144.435"/>
</g>
<!-- Node11 -->
<g id="node11" class="node"><title>Node11</title>
<g id="a_node11"><a xlink:href="classcom_1_1tomoparts_1_1tomoBay_1_1model_1_1sql_1_1queries_1_1concreteQueries_1_1select_1_1noPaffaa1f4285688b2df2b3fc4eb56e39bf.html" target="_top" xlink:title="{SelectUncalculatedInvoices\n|&#45; query\l|+ SelectUncalculatedInvoices()\l# format()\l# queryString()\l}">
<polygon fill="white" stroke="black" points="1075,-17 1075,-96 1241,-96 1241,-17 1075,-17"/>
<text text-anchor="middle" x="1158" y="-84" font-family="Helvetica,sans-Serif" font-size="10.00">SelectUncalculatedInvoices</text>
<polyline fill="none" stroke="black" points="1075,-77 1241,-77 "/>
<text text-anchor="start" x="1083" y="-65" font-family="Helvetica,sans-Serif" font-size="10.00">&#45; query</text>
<polyline fill="none" stroke="black" points="1075,-58 1241,-58 "/>
<text text-anchor="start" x="1083" y="-46" font-family="Helvetica,sans-Serif" font-size="10.00">+ SelectUncalculatedInvoices()</text>
<text text-anchor="start" x="1083" y="-35" font-family="Helvetica,sans-Serif" font-size="10.00"># format()</text>
<text text-anchor="start" x="1083" y="-24" font-family="Helvetica,sans-Serif" font-size="10.00"># queryString()</text>
</a>
</g>
</g>
<!-- Node3&#45;&gt;Node11 -->
<g id="edge10" class="edge"><title>Node3&#45;&gt;Node11</title>
<path fill="none" stroke="midnightblue" d="M997.171,-150.084C1019.33,-138.267 1043.17,-125.322 1065,-113 1074.5,-107.639 1084.46,-101.858 1094.2,-96.1234"/>
<polygon fill="none" stroke="midnightblue" points="995.303,-147.114 988.118,-154.9 998.591,-153.294 995.303,-147.114"/>
</g>
<!-- Node12 -->
<g id="node12" class="node"><title>Node12</title>
<g id="a_node12"><a xlink:href="classcom_1_1tomoparts_1_1tomoBay_1_1model_1_1sql_1_1queries_1_1concreteQueries_1_1select_1_1noPac045058079565929c5fd2a8063650a98.html" target="_top" xlink:title="{SelectUncalculatedOrders\n|&#45; query\l|+ SelectUncalculatedOrders()\l# format()\l# queryString()\l}">
<polygon fill="white" stroke="black" points="1259,-17 1259,-96 1419,-96 1419,-17 1259,-17"/>
<text text-anchor="middle" x="1339" y="-84" font-family="Helvetica,sans-Serif" font-size="10.00">SelectUncalculatedOrders</text>
<polyline fill="none" stroke="black" points="1259,-77 1419,-77 "/>
<text text-anchor="start" x="1267" y="-65" font-family="Helvetica,sans-Serif" font-size="10.00">&#45; query</text>
<polyline fill="none" stroke="black" points="1259,-58 1419,-58 "/>
<text text-anchor="start" x="1267" y="-46" font-family="Helvetica,sans-Serif" font-size="10.00">+ SelectUncalculatedOrders()</text>
<text text-anchor="start" x="1267" y="-35" font-family="Helvetica,sans-Serif" font-size="10.00"># format()</text>
<text text-anchor="start" x="1267" y="-24" font-family="Helvetica,sans-Serif" font-size="10.00"># queryString()</text>
</a>
</g>
</g>
<!-- Node3&#45;&gt;Node12 -->
<g id="edge11" class="edge"><title>Node3&#45;&gt;Node12</title>
<path fill="none" stroke="midnightblue" d="M1016.58,-177.796C1084.54,-165.264 1174.71,-144.509 1250,-113 1261.09,-108.36 1272.37,-102.424 1283.02,-96.1677"/>
<polygon fill="none" stroke="midnightblue" points="1015.93,-174.356 1006.71,-179.585 1017.18,-181.244 1015.93,-174.356"/>
</g>
<!-- Node13 -->
<g id="node13" class="node"><title>Node13</title>
<g id="a_node13"><a xlink:href="classcom_1_1tomoparts_1_1tomoBay_1_1model_1_1sql_1_1queries_1_1concreteQueries_1_1select_1_1noParams_1_1SelectUninvoicedOrders.html" target="_top" xlink:title="This class represents a query that selects all data from the orders table that is not currently invoi...">
<polygon fill="white" stroke="black" points="1437,-17 1437,-96 1587,-96 1587,-17 1437,-17"/>
<text text-anchor="middle" x="1512" y="-84" font-family="Helvetica,sans-Serif" font-size="10.00">SelectUninvoicedOrders</text>
<polyline fill="none" stroke="black" points="1437,-77 1587,-77 "/>
<text text-anchor="start" x="1445" y="-65" font-family="Helvetica,sans-Serif" font-size="10.00">&#45; query</text>
<polyline fill="none" stroke="black" points="1437,-58 1587,-58 "/>
<text text-anchor="start" x="1445" y="-46" font-family="Helvetica,sans-Serif" font-size="10.00">+ SelectUninvoicedOrders()</text>
<text text-anchor="start" x="1445" y="-35" font-family="Helvetica,sans-Serif" font-size="10.00"># format()</text>
<text text-anchor="start" x="1445" y="-24" font-family="Helvetica,sans-Serif" font-size="10.00"># queryString()</text>
</a>
</g>
</g>
<!-- Node3&#45;&gt;Node13 -->
<g id="edge12" class="edge"><title>Node3&#45;&gt;Node13</title>
<path fill="none" stroke="midnightblue" d="M1016.73,-190.237C1122.93,-183.952 1291.95,-165.71 1428,-113 1439.25,-108.643 1450.53,-102.603 1461.02,-96.1034"/>
<polygon fill="none" stroke="midnightblue" points="1016.44,-186.748 1006.65,-190.809 1016.83,-193.737 1016.44,-186.748"/>
</g>
<!-- Node14 -->
<g id="node14" class="node"><title>Node14</title>
<g id="a_node14"><a xlink:href="classcom_1_1tomoparts_1_1tomoBay_1_1model_1_1sql_1_1queries_1_1concreteQueries_1_1select_1_1noPaba5dcd9f7e04485d15cf92acc4cc6726.html" target="_top" xlink:title="{SelectUninvoicedOrdersNo\lErrors\n|&#45; query\l|+ SelectUninvoicedOrdersNo\lErrors()\l# format()\l# queryString()\l}">
<polygon fill="white" stroke="black" points="1605,-6 1605,-107 1761,-107 1761,-6 1605,-6"/>
<text text-anchor="start" x="1613" y="-95" font-family="Helvetica,sans-Serif" font-size="10.00">SelectUninvoicedOrdersNo</text>
<text text-anchor="middle" x="1683" y="-84" font-family="Helvetica,sans-Serif" font-size="10.00">Errors</text>
<polyline fill="none" stroke="black" points="1605,-77 1761,-77 "/>
<text text-anchor="start" x="1613" y="-65" font-family="Helvetica,sans-Serif" font-size="10.00">&#45; query</text>
<polyline fill="none" stroke="black" points="1605,-58 1761,-58 "/>
<text text-anchor="start" x="1613" y="-46" font-family="Helvetica,sans-Serif" font-size="10.00">+ SelectUninvoicedOrdersNo</text>
<text text-anchor="start" x="1613" y="-35" font-family="Helvetica,sans-Serif" font-size="10.00">Errors()</text>
<text text-anchor="start" x="1613" y="-24" font-family="Helvetica,sans-Serif" font-size="10.00"># format()</text>
<text text-anchor="start" x="1613" y="-13" font-family="Helvetica,sans-Serif" font-size="10.00"># queryString()</text>
</a>
</g>
</g>
<!-- Node3&#45;&gt;Node14 -->
<g id="edge13" class="edge"><title>Node3&#45;&gt;Node14</title>
<path fill="none" stroke="midnightblue" d="M1016.68,-187.022C1180.16,-175.763 1491.78,-150.178 1596,-113 1600.81,-111.284 1605.63,-109.263 1610.39,-107.025"/>
<polygon fill="none" stroke="midnightblue" points="1016.35,-183.536 1006.61,-187.71 1016.83,-190.52 1016.35,-183.536"/>
</g>
<!-- Node16 -->
<g id="node16" class="node"><title>Node16</title>
<g id="a_node16"><a xlink:href="classcom_1_1tomoparts_1_1tomoBay_1_1model_1_1sql_1_1queries_1_1concreteQueries_1_1select_1_1para6f75a6d09fd903571426df29e6112491.html" target="_top" xlink:title="This class represents a query that selects the brand and part number fields associated with a particu...">
<polygon fill="white" stroke="black" points="1779,-11.5 1779,-101.5 1973,-101.5 1973,-11.5 1779,-11.5"/>
<text text-anchor="middle" x="1876" y="-89.5" font-family="Helvetica,sans-Serif" font-size="10.00">SelectBrandAndPartNoByOrderID</text>
<polyline fill="none" stroke="black" points="1779,-82.5 1973,-82.5 "/>
<text text-anchor="start" x="1787" y="-70.5" font-family="Helvetica,sans-Serif" font-size="10.00">&#45; query</text>
<polyline fill="none" stroke="black" points="1779,-63.5 1973,-63.5 "/>
<text text-anchor="start" x="1787" y="-51.5" font-family="Helvetica,sans-Serif" font-size="10.00">+ SelectBrandAndPartNoByOrderID()</text>
<text text-anchor="start" x="1787" y="-40.5" font-family="Helvetica,sans-Serif" font-size="10.00"># format()</text>
<text text-anchor="start" x="1787" y="-29.5" font-family="Helvetica,sans-Serif" font-size="10.00"># setParameters()</text>
<text text-anchor="start" x="1787" y="-18.5" font-family="Helvetica,sans-Serif" font-size="10.00"># queryString()</text>
</a>
</g>
</g>
<!-- Node15&#45;&gt;Node16 -->
<g id="edge15" class="edge"><title>Node15&#45;&gt;Node16</title>
<path fill="none" stroke="midnightblue" d="M2589.27,-193.562C2451.85,-191.202 2192.07,-177.563 1982,-113 1972.07,-109.949 1961.98,-105.972 1952.16,-101.548"/>
<polygon fill="none" stroke="midnightblue" points="2589.3,-197.062 2599.36,-193.718 2589.41,-190.063 2589.3,-197.062"/>
</g>
<!-- Node17 -->
<g id="node17" class="node"><title>Node17</title>
<g id="a_node17"><a xlink:href="classcom_1_1tomoparts_1_1tomoBay_1_1model_1_1sql_1_1queries_1_1concreteQueries_1_1select_1_1params_1_1SelectBrandByInv.html" target="_top" xlink:title="This class represents a Query that selects the Brand value associated with a particular invoice numbe...">
<polygon fill="white" stroke="black" points="1991.5,-11.5 1991.5,-101.5 2110.5,-101.5 2110.5,-11.5 1991.5,-11.5"/>
<text text-anchor="middle" x="2051" y="-89.5" font-family="Helvetica,sans-Serif" font-size="10.00">SelectBrandByInv</text>
<polyline fill="none" stroke="black" points="1991.5,-82.5 2110.5,-82.5 "/>
<text text-anchor="start" x="1999.5" y="-70.5" font-family="Helvetica,sans-Serif" font-size="10.00">&#45; query</text>
<polyline fill="none" stroke="black" points="1991.5,-63.5 2110.5,-63.5 "/>
<text text-anchor="start" x="1999.5" y="-51.5" font-family="Helvetica,sans-Serif" font-size="10.00">+ SelectBrandByInv()</text>
<text text-anchor="start" x="1999.5" y="-40.5" font-family="Helvetica,sans-Serif" font-size="10.00"># format()</text>
<text text-anchor="start" x="1999.5" y="-29.5" font-family="Helvetica,sans-Serif" font-size="10.00"># setParameters()</text>
<text text-anchor="start" x="1999.5" y="-18.5" font-family="Helvetica,sans-Serif" font-size="10.00"># queryString()</text>
</a>
</g>
</g>
<!-- Node15&#45;&gt;Node17 -->
<g id="edge16" class="edge"><title>Node15&#45;&gt;Node17</title>
<path fill="none" stroke="midnightblue" d="M2589.05,-186.007C2450.56,-174.15 2202.24,-148.692 2120,-113 2112.95,-109.94 2106.02,-105.958 2099.43,-101.531"/>
<polygon fill="none" stroke="midnightblue" points="2588.97,-189.513 2599.23,-186.871 2589.56,-182.538 2588.97,-189.513"/>
</g>
<!-- Node18 -->
<g id="node18" class="node"><title>Node18</title>
<g id="a_node18"><a xlink:href="classcom_1_1tomoparts_1_1tomoBay_1_1model_1_1sql_1_1queries_1_1concreteQueries_1_1select_1_1params_1_1SelectBuyerByAccAndSRN.html" target="_top" xlink:title="Copyright(C) 2015 Jan P.C. ">
<polygon fill="white" stroke="black" points="2128.5,-11.5 2128.5,-101.5 2289.5,-101.5 2289.5,-11.5 2128.5,-11.5"/>
<text text-anchor="middle" x="2209" y="-89.5" font-family="Helvetica,sans-Serif" font-size="10.00">SelectBuyerByAccAndSRN</text>
<polyline fill="none" stroke="black" points="2128.5,-82.5 2289.5,-82.5 "/>
<text text-anchor="start" x="2136.5" y="-70.5" font-family="Helvetica,sans-Serif" font-size="10.00">&#45; QUERY</text>
<polyline fill="none" stroke="black" points="2128.5,-63.5 2289.5,-63.5 "/>
<text text-anchor="start" x="2136.5" y="-51.5" font-family="Helvetica,sans-Serif" font-size="10.00">+ SelectBuyerByAccAndSRN()</text>
<text text-anchor="start" x="2136.5" y="-40.5" font-family="Helvetica,sans-Serif" font-size="10.00"># setParameters()</text>
<text text-anchor="start" x="2136.5" y="-29.5" font-family="Helvetica,sans-Serif" font-size="10.00"># format()</text>
<text text-anchor="start" x="2136.5" y="-18.5" font-family="Helvetica,sans-Serif" font-size="10.00"># queryString()</text>
</a>
</g>
</g>
<!-- Node15&#45;&gt;Node18 -->
<g id="edge17" class="edge"><title>Node15&#45;&gt;Node18</title>
<path fill="none" stroke="midnightblue" d="M2589.31,-182.93C2509.53,-171.927 2393.99,-150.839 2299,-113 2290.9,-109.773 2282.71,-105.833 2274.73,-101.555"/>
<polygon fill="none" stroke="midnightblue" points="2588.97,-186.415 2599.35,-184.287 2589.91,-179.478 2588.97,-186.415"/>
</g>
<!-- Node19 -->
<g id="node19" class="node"><title>Node19</title>
<g id="a_node19"><a xlink:href="classcom_1_1tomoparts_1_1tomoBay_1_1model_1_1sql_1_1queries_1_1concreteQueries_1_1select_1_1params_1_1SelectEbayBuyer.html" target="_top" xlink:title="This class represents a query that selects all the information contained within the ebay_buyers table...">
<polygon fill="white" stroke="black" points="2308,-11.5 2308,-101.5 2424,-101.5 2424,-11.5 2308,-11.5"/>
<text text-anchor="middle" x="2366" y="-89.5" font-family="Helvetica,sans-Serif" font-size="10.00">SelectEbayBuyer</text>
<polyline fill="none" stroke="black" points="2308,-82.5 2424,-82.5 "/>
<text text-anchor="start" x="2316" y="-70.5" font-family="Helvetica,sans-Serif" font-size="10.00">&#45; query</text>
<polyline fill="none" stroke="black" points="2308,-63.5 2424,-63.5 "/>
<text text-anchor="start" x="2316" y="-51.5" font-family="Helvetica,sans-Serif" font-size="10.00">+ SelectEbayBuyer()</text>
<text text-anchor="start" x="2316" y="-40.5" font-family="Helvetica,sans-Serif" font-size="10.00"># format()</text>
<text text-anchor="start" x="2316" y="-29.5" font-family="Helvetica,sans-Serif" font-size="10.00"># setParameters()</text>
<text text-anchor="start" x="2316" y="-18.5" font-family="Helvetica,sans-Serif" font-size="10.00"># queryString()</text>
</a>
</g>
</g>
<!-- Node15&#45;&gt;Node19 -->
<g id="edge18" class="edge"><title>Node15&#45;&gt;Node19</title>
<path fill="none" stroke="midnightblue" d="M2589.44,-171.893C2541.09,-158.751 2482.54,-139.354 2434,-113 2427.84,-109.655 2421.7,-105.72 2415.77,-101.516"/>
<polygon fill="none" stroke="midnightblue" points="2588.71,-175.322 2599.27,-174.52 2590.52,-168.559 2588.71,-175.322"/>
</g>
<!-- Node20 -->
<g id="node20" class="node"><title>Node20</title>
<g id="a_node20"><a xlink:href="classcom_1_1tomoparts_1_1tomoBay_1_1model_1_1sql_1_1queries_1_1concreteQueries_1_1select_1_1params_1_1SelectEbayItemSpecific.html" target="_top" xlink:title="This class represents a query that selects all fields related to a specific item from the items table...">
<polygon fill="white" stroke="black" points="2442.5,-11.5 2442.5,-101.5 2589.5,-101.5 2589.5,-11.5 2442.5,-11.5"/>
<text text-anchor="middle" x="2516" y="-89.5" font-family="Helvetica,sans-Serif" font-size="10.00">SelectEbayItemSpecific</text>
<polyline fill="none" stroke="black" points="2442.5,-82.5 2589.5,-82.5 "/>
<text text-anchor="start" x="2450.5" y="-70.5" font-family="Helvetica,sans-Serif" font-size="10.00">&#45; query</text>
<polyline fill="none" stroke="black" points="2442.5,-63.5 2589.5,-63.5 "/>
<text text-anchor="start" x="2450.5" y="-51.5" font-family="Helvetica,sans-Serif" font-size="10.00">+ SelectEbayItemSpecific()</text>
<text text-anchor="start" x="2450.5" y="-40.5" font-family="Helvetica,sans-Serif" font-size="10.00"># format()</text>
<text text-anchor="start" x="2450.5" y="-29.5" font-family="Helvetica,sans-Serif" font-size="10.00"># setParameters()</text>
<text text-anchor="start" x="2450.5" y="-18.5" font-family="Helvetica,sans-Serif" font-size="10.00"># queryString()</text>
</a>
</g>
</g>
<!-- Node15&#45;&gt;Node20 -->
<g id="edge19" class="edge"><title>Node15&#45;&gt;Node20</title>
<path fill="none" stroke="midnightblue" d="M2622,-142.8C2605.21,-129.287 2587.2,-114.798 2570.88,-101.666"/>
<polygon fill="none" stroke="midnightblue" points="2620.15,-145.802 2630.13,-149.345 2624.53,-140.349 2620.15,-145.802"/>
</g>
<!-- Node21 -->
<g id="node21" class="node"><title>Node21</title>
<g id="a_node21"><a xlink:href="classcom_1_1tomoparts_1_1tomoBay_1_1model_1_1sql_1_1queries_1_1concreteQueries_1_1select_1_1params_1_1SelectEbayOrderByBuyer.html" target="_top" xlink:title="This class represents a query that selects the orderID and account from the ebay_orders table where t...">
<polygon fill="white" stroke="black" points="2607.5,-11.5 2607.5,-101.5 2762.5,-101.5 2762.5,-11.5 2607.5,-11.5"/>
<text text-anchor="middle" x="2685" y="-89.5" font-family="Helvetica,sans-Serif" font-size="10.00">SelectEbayOrderByBuyer</text>
<polyline fill="none" stroke="black" points="2607.5,-82.5 2762.5,-82.5 "/>
<text text-anchor="start" x="2615.5" y="-70.5" font-family="Helvetica,sans-Serif" font-size="10.00">&#45; query</text>
<polyline fill="none" stroke="black" points="2607.5,-63.5 2762.5,-63.5 "/>
<text text-anchor="start" x="2615.5" y="-51.5" font-family="Helvetica,sans-Serif" font-size="10.00">+ SelectEbayOrderByBuyer()</text>
<text text-anchor="start" x="2615.5" y="-40.5" font-family="Helvetica,sans-Serif" font-size="10.00"># format()</text>
<text text-anchor="start" x="2615.5" y="-29.5" font-family="Helvetica,sans-Serif" font-size="10.00"># setParameters()</text>
<text text-anchor="start" x="2615.5" y="-18.5" font-family="Helvetica,sans-Serif" font-size="10.00"># queryString()</text>
</a>
</g>
</g>
<!-- Node15&#45;&gt;Node21 -->
<g id="edge20" class="edge"><title>Node15&#45;&gt;Node21</title>
<path fill="none" stroke="midnightblue" d="M2685,-139.145C2685,-126.782 2685,-113.791 2685,-101.899"/>
<polygon fill="none" stroke="midnightblue" points="2681.5,-139.345 2685,-149.345 2688.5,-139.345 2681.5,-139.345"/>
</g>
<!-- Node22 -->
<g id="node22" class="node"><title>Node22</title>
<g id="a_node22"><a xlink:href="classcom_1_1tomoparts_1_1tomoBay_1_1model_1_1sql_1_1queries_1_1concreteQueries_1_1select_1_1params_1_1SelectEbayOrderByID.html" target="_top" xlink:title="This class represents a query that selects all the fields from the ebay_orders table where the orderI...">
<polygon fill="white" stroke="black" points="2780.5,-11.5 2780.5,-101.5 2917.5,-101.5 2917.5,-11.5 2780.5,-11.5"/>
<text text-anchor="middle" x="2849" y="-89.5" font-family="Helvetica,sans-Serif" font-size="10.00">SelectEbayOrderByID</text>
<polyline fill="none" stroke="black" points="2780.5,-82.5 2917.5,-82.5 "/>
<text text-anchor="start" x="2788.5" y="-70.5" font-family="Helvetica,sans-Serif" font-size="10.00">&#45; query</text>
<polyline fill="none" stroke="black" points="2780.5,-63.5 2917.5,-63.5 "/>
<text text-anchor="start" x="2788.5" y="-51.5" font-family="Helvetica,sans-Serif" font-size="10.00">+ SelectEbayOrderByID()</text>
<text text-anchor="start" x="2788.5" y="-40.5" font-family="Helvetica,sans-Serif" font-size="10.00"># format()</text>
<text text-anchor="start" x="2788.5" y="-29.5" font-family="Helvetica,sans-Serif" font-size="10.00"># setParameters()</text>
<text text-anchor="start" x="2788.5" y="-18.5" font-family="Helvetica,sans-Serif" font-size="10.00"># queryString()</text>
</a>
</g>
</g>
<!-- Node15&#45;&gt;Node22 -->
<g id="edge21" class="edge"><title>Node15&#45;&gt;Node22</title>
<path fill="none" stroke="midnightblue" d="M2746.14,-142.8C2762.43,-129.287 2779.91,-114.798 2795.74,-101.666"/>
<polygon fill="none" stroke="midnightblue" points="2743.71,-140.267 2738.25,-149.345 2748.18,-145.655 2743.71,-140.267"/>
</g>
<!-- Node23 -->
<g id="node23" class="node"><title>Node23</title>
<g id="a_node23"><a xlink:href="classcom_1_1tomoparts_1_1tomoBay_1_1model_1_1sql_1_1queries_1_1concreteQueries_1_1select_1_1parac0d31fe89450040cf1dcb1e02765c08b.html" target="_top" xlink:title="This class represents a query that displays the history of Listings ordered over the last N days...">
<polygon fill="white" stroke="black" points="2936,-0.5 2936,-112.5 3098,-112.5 3098,-0.5 2936,-0.5"/>
<text text-anchor="start" x="2944" y="-100.5" font-family="Helvetica,sans-Serif" font-size="10.00">SelectEbayOrderHistoryLast</text>
<text text-anchor="middle" x="3017" y="-89.5" font-family="Helvetica,sans-Serif" font-size="10.00">NDays</text>
<polyline fill="none" stroke="black" points="2936,-82.5 3098,-82.5 "/>
<text text-anchor="start" x="2944" y="-70.5" font-family="Helvetica,sans-Serif" font-size="10.00">&#45; QUERY_M</text>
<polyline fill="none" stroke="black" points="2936,-63.5 3098,-63.5 "/>
<text text-anchor="start" x="2944" y="-51.5" font-family="Helvetica,sans-Serif" font-size="10.00">+ SelectEbayOrderHistoryLast</text>
<text text-anchor="start" x="2944" y="-40.5" font-family="Helvetica,sans-Serif" font-size="10.00">NDays()</text>
<text text-anchor="start" x="2944" y="-29.5" font-family="Helvetica,sans-Serif" font-size="10.00"># setParameters()</text>
<text text-anchor="start" x="2944" y="-18.5" font-family="Helvetica,sans-Serif" font-size="10.00"># format()</text>
<text text-anchor="start" x="2944" y="-7.5" font-family="Helvetica,sans-Serif" font-size="10.00"># queryString()</text>
</a>
</g>
</g>
<!-- Node15&#45;&gt;Node23 -->
<g id="edge22" class="edge"><title>Node15&#45;&gt;Node23</title>
<path fill="none" stroke="midnightblue" d="M2780.41,-167.349C2825.77,-153.517 2880.19,-134.86 2927,-113 2929.91,-111.641 2932.84,-110.208 2935.78,-108.718"/>
<polygon fill="none" stroke="midnightblue" points="2779.14,-164.076 2770.58,-170.315 2781.16,-170.778 2779.14,-164.076"/>
</g>
<!-- Node24 -->
<g id="node24" class="node"><title>Node24</title>
<g id="a_node24"><a xlink:href="classcom_1_1tomoparts_1_1tomoBay_1_1model_1_1sql_1_1queries_1_1concreteQueries_1_1select_1_1params_1_1SelectEbayTransactionByID.html" target="_top" xlink:title="This class represents a query that selects the itemId, quantity, price and shippingCost field from th...">
<polygon fill="white" stroke="black" points="3116,-11.5 3116,-101.5 3282,-101.5 3282,-11.5 3116,-11.5"/>
<text text-anchor="middle" x="3199" y="-89.5" font-family="Helvetica,sans-Serif" font-size="10.00">SelectEbayTransactionByID</text>
<polyline fill="none" stroke="black" points="3116,-82.5 3282,-82.5 "/>
<text text-anchor="start" x="3124" y="-70.5" font-family="Helvetica,sans-Serif" font-size="10.00">&#45; query</text>
<polyline fill="none" stroke="black" points="3116,-63.5 3282,-63.5 "/>
<text text-anchor="start" x="3124" y="-51.5" font-family="Helvetica,sans-Serif" font-size="10.00">+ SelectEbayTransactionByID()</text>
<text text-anchor="start" x="3124" y="-40.5" font-family="Helvetica,sans-Serif" font-size="10.00"># format()</text>
<text text-anchor="start" x="3124" y="-29.5" font-family="Helvetica,sans-Serif" font-size="10.00"># setParameters()</text>
<text text-anchor="start" x="3124" y="-18.5" font-family="Helvetica,sans-Serif" font-size="10.00"># queryString()</text>
</a>
</g>
</g>
<!-- Node15&#45;&gt;Node24 -->
<g id="edge23" class="edge"><title>Node15&#45;&gt;Node24</title>
<path fill="none" stroke="midnightblue" d="M2780.85,-184.98C2868.15,-174.963 2999.46,-154.173 3107,-113 3115.36,-109.799 3123.82,-105.846 3132.05,-101.538"/>
<polygon fill="none" stroke="midnightblue" points="2780.24,-181.527 2770.69,-186.12 2781.02,-188.483 2780.24,-181.527"/>
</g>
<!-- Node25 -->
<g id="node25" class="node"><title>Node25</title>
<g id="a_node25"><a xlink:href="classcom_1_1tomoparts_1_1tomoBay_1_1model_1_1sql_1_1queries_1_1concreteQueries_1_1select_1_1params_1_1SelectFullOrderLine.html" target="_top" xlink:title="This class represents a query that provides the majority of information associated with a particular ...">
<polygon fill="white" stroke="black" points="3300,-11.5 3300,-101.5 3428,-101.5 3428,-11.5 3300,-11.5"/>
<text text-anchor="middle" x="3364" y="-89.5" font-family="Helvetica,sans-Serif" font-size="10.00">SelectFullOrderLine</text>
<polyline fill="none" stroke="black" points="3300,-82.5 3428,-82.5 "/>
<text text-anchor="start" x="3308" y="-70.5" font-family="Helvetica,sans-Serif" font-size="10.00">&#45; query</text>
<polyline fill="none" stroke="black" points="3300,-63.5 3428,-63.5 "/>
<text text-anchor="start" x="3308" y="-51.5" font-family="Helvetica,sans-Serif" font-size="10.00">+ SelectFullOrderLine()</text>
<text text-anchor="start" x="3308" y="-40.5" font-family="Helvetica,sans-Serif" font-size="10.00"># format()</text>
<text text-anchor="start" x="3308" y="-29.5" font-family="Helvetica,sans-Serif" font-size="10.00"># setParameters()</text>
<text text-anchor="start" x="3308" y="-18.5" font-family="Helvetica,sans-Serif" font-size="10.00"># queryString()</text>
</a>
</g>
</g>
<!-- Node15&#45;&gt;Node25 -->
<g id="edge24" class="edge"><title>Node15&#45;&gt;Node25</title>
<path fill="none" stroke="midnightblue" d="M2781.1,-186.758C2928.01,-175.443 3200.87,-150.16 3291,-113 3298.36,-109.966 3305.63,-106 3312.56,-101.581"/>
<polygon fill="none" stroke="midnightblue" points="2780.45,-183.298 2770.75,-187.549 2780.98,-190.277 2780.45,-183.298"/>
</g>
<!-- Node26 -->
<g id="node26" class="node"><title>Node26</title>
<g id="a_node26"><a xlink:href="classcom_1_1tomoparts_1_1tomoBay_1_1model_1_1sql_1_1queries_1_1concreteQueries_1_1select_1_1params_1_1SelectOutOfHoursOrders.html" target="_top" xlink:title="this class represents a query that selects the sales record number, order total, created time and dat...">
<polygon fill="white" stroke="black" points="3446,-11.5 3446,-101.5 3600,-101.5 3600,-11.5 3446,-11.5"/>
<text text-anchor="middle" x="3523" y="-89.5" font-family="Helvetica,sans-Serif" font-size="10.00">SelectOutOfHoursOrders</text>
<polyline fill="none" stroke="black" points="3446,-82.5 3600,-82.5 "/>
<text text-anchor="start" x="3454" y="-70.5" font-family="Helvetica,sans-Serif" font-size="10.00">&#45; query</text>
<polyline fill="none" stroke="black" points="3446,-63.5 3600,-63.5 "/>
<text text-anchor="start" x="3454" y="-51.5" font-family="Helvetica,sans-Serif" font-size="10.00">+ SelectOutOfHoursOrders()</text>
<text text-anchor="start" x="3454" y="-40.5" font-family="Helvetica,sans-Serif" font-size="10.00"># format()</text>
<text text-anchor="start" x="3454" y="-29.5" font-family="Helvetica,sans-Serif" font-size="10.00"># setParameters()</text>
<text text-anchor="start" x="3454" y="-18.5" font-family="Helvetica,sans-Serif" font-size="10.00"># queryString()</text>
</a>
</g>
</g>
<!-- Node15&#45;&gt;Node26 -->
<g id="edge25" class="edge"><title>Node15&#45;&gt;Node26</title>
<path fill="none" stroke="midnightblue" d="M2780.75,-188.772C2955.32,-179.242 3318.28,-154.978 3437,-113 3445.38,-110.038 3453.76,-106.116 3461.83,-101.722"/>
<polygon fill="none" stroke="midnightblue" points="2780.34,-185.288 2770.55,-189.324 2780.72,-192.278 2780.34,-185.288"/>
</g>
<!-- Node27 -->
<g id="node27" class="node"><title>Node27</title>
<g id="a_node27"><a xlink:href="classcom_1_1tomoparts_1_1tomoBay_1_1model_1_1sql_1_1queries_1_1concreteQueries_1_1select_1_1params_1_1SelectTransactionByOrder.html" target="_top" xlink:title="This class represents a query that selects all data from the transactions table of the database given...">
<polygon fill="white" stroke="black" points="3618,-11.5 3618,-101.5 3778,-101.5 3778,-11.5 3618,-11.5"/>
<text text-anchor="middle" x="3698" y="-89.5" font-family="Helvetica,sans-Serif" font-size="10.00">SelectTransactionByOrder</text>
<polyline fill="none" stroke="black" points="3618,-82.5 3778,-82.5 "/>
<text text-anchor="start" x="3626" y="-70.5" font-family="Helvetica,sans-Serif" font-size="10.00">&#45; query</text>
<polyline fill="none" stroke="black" points="3618,-63.5 3778,-63.5 "/>
<text text-anchor="start" x="3626" y="-51.5" font-family="Helvetica,sans-Serif" font-size="10.00">+ SelectTransactionByOrder()</text>
<text text-anchor="start" x="3626" y="-40.5" font-family="Helvetica,sans-Serif" font-size="10.00"># format()</text>
<text text-anchor="start" x="3626" y="-29.5" font-family="Helvetica,sans-Serif" font-size="10.00"># setParameters()</text>
<text text-anchor="start" x="3626" y="-18.5" font-family="Helvetica,sans-Serif" font-size="10.00"># queryString()</text>
</a>
</g>
</g>
<!-- Node15&#45;&gt;Node27 -->
<g id="edge26" class="edge"><title>Node15&#45;&gt;Node27</title>
<path fill="none" stroke="midnightblue" d="M2780.89,-190.803C2985.25,-184.14 3457.39,-163.619 3609,-113 3617.81,-110.059 3626.64,-106.087 3635.14,-101.612"/>
<polygon fill="none" stroke="midnightblue" points="2780.65,-187.309 2770.77,-191.129 2780.88,-194.306 2780.65,-187.309"/>
</g>
</g>
</svg>
