<?xml version="1.0" encoding="UTF-8" standalone="no"?>
<!DOCTYPE svg PUBLIC "-//W3C//DTD SVG 1.1//EN"
 "http://www.w3.org/Graphics/SVG/1.1/DTD/svg11.dtd">
<!-- Generated by graphviz version 2.38.0 (20140413.2041)
 -->
<!-- Title: setTIMESTAMPParam Pages: 1 -->
<!--zoomable 159 -->
<svg id="main" version="1.1" xmlns="http://www.w3.org/2000/svg" xmlns:xlink="http://www.w3.org/1999/xlink" xml:space="preserve" onload="init(evt)">
<style type="text/css"><![CDATA[
.edge:hover path { stroke: red; }
.edge:hover polygon { stroke: red; fill: red; }
]]></style>
<script type="text/javascript"><![CDATA[
var edges = document.getElementsByTagName('g');
if (edges && edges.length) {
  for (var i=0;i<edges.length;i++) {
    if (edges[i].id.substr(0,4)=='edge') {
      edges[i].setAttribute('class','edge');
    }
  }
}
]]></script>
        <defs>
                <circle id="rim" cx="0" cy="0" r="7"/>
                <circle id="rim2" cx="0" cy="0" r="3.5"/>
                <g id="zoomPlus">
                        <use xlink:href="#rim" fill="#404040">
                                <set attributeName="fill" to="#808080" begin="zoomplus.mouseover" end="zoomplus.mouseout"/>
                        </use>
                        <path d="M-4,0h8M0,-4v8" fill="none" stroke="white" stroke-width="1.5" pointer-events="none"/>
                </g>
                <g id="zoomMin">
                        <use xlink:href="#rim" fill="#404040">
                                <set attributeName="fill" to="#808080" begin="zoomminus.mouseover" end="zoomminus.mouseout"/>
                        </use>
                        <path d="M-4,0h8" fill="none" stroke="white" stroke-width="1.5" pointer-events="none"/>
                </g>
                <g id="dirArrow">
                        <path fill="none" stroke="white" stroke-width="1.5" d="M0,-3.0v7 M-2.5,-0.5L0,-3.0L2.5,-0.5"/>
                </g>
               <g id="resetDef">
                       <use xlink:href="#rim2" fill="#404040">
                               <set attributeName="fill" to="#808080" begin="reset.mouseover" end="reset.mouseout"/>
                       </use>
               </g>
        </defs>

<script type="text/javascript">
var viewWidth = 1132;
var viewHeight = 159;
var sectionId = 'dynsection-12';
</script>
<script xlink:href="svgpan.js"/>
<svg id="graph" class="graph">
<g id="viewport">
<title>setTIMESTAMPParam</title>
<polygon fill="white" stroke="none" points="-4,4 -4,-154.5 1128,-154.5 1128,4 -4,4"/>
<!-- Node1 -->
<g id="node1" class="node"><title>Node1</title>
<polygon fill="#bfbfbf" stroke="black" points="0,-68.5 0,-87.5 118,-87.5 118,-68.5 0,-68.5"/>
<text text-anchor="middle" x="59" y="-75.5" font-family="Helvetica,sans-Serif" font-size="10.00">setTIMESTAMPParam</text>
</g>
<!-- Node2 -->
<g id="node2" class="node"><title>Node2</title>
<g id="a_node2"><a xlink:href="classcom_1_1tomoparts_1_1tomoBay_1_1model_1_1dataTypes_1_1heteroTypeContainer_1_1HeteroFieldContainer.html#a988363ab964d6dc0ccb8560bef5895b6" target="_top" xlink:title="retrieve the the value of an AbstractField from this HeteroFieldContainer, the field should be of the...">
<polygon fill="white" stroke="black" points="580,-0.5 580,-41.5 786,-41.5 786,-0.5 580,-0.5"/>
<text text-anchor="start" x="588" y="-29.5" font-family="Helvetica,sans-Serif" font-size="10.00">com.tomoparts.tomoBay.model.data</text>
<text text-anchor="start" x="588" y="-18.5" font-family="Helvetica,sans-Serif" font-size="10.00">Types.heteroTypeContainer.HeteroField</text>
<text text-anchor="middle" x="683" y="-7.5" font-family="Helvetica,sans-Serif" font-size="10.00">Container.get</text>
</a>
</g>
</g>
<!-- Node1&#45;&gt;Node2 -->
<g id="edge1" class="edge"><title>Node1&#45;&gt;Node2</title>
<path fill="none" stroke="midnightblue" d="M104.86,-68.4703C120.392,-65.2939 137.933,-61.8431 154,-59 209.334,-49.2083 223.222,-46.8229 279,-40 341.028,-32.4126 356.614,-30.6037 419,-27 468.381,-24.1475 523.052,-22.6347 569.698,-21.8385"/>
<polygon fill="midnightblue" stroke="midnightblue" points="569.889,-25.336 579.831,-21.6746 569.776,-18.3369 569.889,-25.336"/>
</g>
<!-- Node4 -->
<g id="node4" class="node"><title>Node4</title>
<g id="a_node4"><a xlink:href="classcom_1_1tomoparts_1_1tomoBay_1_1model_1_1sql_1_1framework_1_1QueryUtility.html#a202aab30c77e06c32318efd5cf949ca3" target="_top" xlink:title="set an Integer parameter for the query object specified. ">
<polygon fill="white" stroke="black" points="154,-68.5 154,-87.5 243,-87.5 243,-68.5 154,-68.5"/>
<text text-anchor="middle" x="198.5" y="-75.5" font-family="Helvetica,sans-Serif" font-size="10.00">setDATEParam</text>
</a>
</g>
</g>
<!-- Node1&#45;&gt;Node4 -->
<g id="edge3" class="edge"><title>Node1&#45;&gt;Node4</title>
<path fill="none" stroke="midnightblue" d="M118.312,-78C126.65,-78 135.197,-78 143.447,-78"/>
<polygon fill="midnightblue" stroke="midnightblue" points="143.702,-81.5001 153.702,-78 143.702,-74.5001 143.702,-81.5001"/>
</g>
<!-- Node5 -->
<g id="node5" class="node"><title>Node5</title>
<g id="a_node5"><a xlink:href="classcom_1_1tomoparts_1_1tomoBay_1_1model_1_1sql_1_1framework_1_1queryTypes_1_1AbstractDBQuery.html#a41678b13e84de4335130f10cea7ae562" target="_top" xlink:title="get the statement object associated with this query ">
<polygon fill="white" stroke="black" points="548,-120 548,-150 818,-150 818,-120 548,-120"/>
<text text-anchor="start" x="556" y="-138" font-family="Helvetica,sans-Serif" font-size="10.00">com.tomoparts.tomoBay.model.sql.framework.query</text>
<text text-anchor="middle" x="683" y="-127" font-family="Helvetica,sans-Serif" font-size="10.00">Types.AbstractDBQuery.statement</text>
</a>
</g>
</g>
<!-- Node1&#45;&gt;Node5 -->
<g id="edge13" class="edge"><title>Node1&#45;&gt;Node5</title>
<path fill="none" stroke="midnightblue" d="M106.345,-87.535C121.521,-90.6125 138.47,-94.0019 154,-97 271.019,-119.59 300.064,-130.385 419,-138 460.249,-140.641 470.668,-138.365 512,-138 520.38,-137.926 528.992,-137.832 537.682,-137.722"/>
<polygon fill="midnightblue" stroke="midnightblue" points="537.957,-141.219 547.91,-137.587 537.864,-134.22 537.957,-141.219"/>
</g>
<!-- Node3 -->
<g id="node3" class="node"><title>Node3</title>
<g id="a_node3"><a xlink:href="classcom_1_1tomoparts_1_1tomoBay_1_1model_1_1dataTypes_1_1heteroTypeContainer_1_1HeteroFieldContainer.html#a9dee3c01eb5ab16203e1c6820a569484" target="_top" xlink:title="performs a type check, assuming that field and type are of the same type then this method returns tru...">
<polygon fill="white" stroke="black" points="886,-0.5 886,-41.5 1092,-41.5 1092,-0.5 886,-0.5"/>
<text text-anchor="start" x="894" y="-29.5" font-family="Helvetica,sans-Serif" font-size="10.00">com.tomoparts.tomoBay.model.data</text>
<text text-anchor="start" x="894" y="-18.5" font-family="Helvetica,sans-Serif" font-size="10.00">Types.heteroTypeContainer.HeteroField</text>
<text text-anchor="middle" x="989" y="-7.5" font-family="Helvetica,sans-Serif" font-size="10.00">Container.isSameType</text>
</a>
</g>
</g>
<!-- Node2&#45;&gt;Node3 -->
<g id="edge2" class="edge"><title>Node2&#45;&gt;Node3</title>
<path fill="none" stroke="midnightblue" d="M786.073,-21C814.85,-21 846.312,-21 875.655,-21"/>
<polygon fill="midnightblue" stroke="midnightblue" points="875.937,-24.5001 885.937,-21 875.937,-17.5001 875.937,-24.5001"/>
</g>
<!-- Node4&#45;&gt;Node2 -->
<g id="edge6" class="edge"><title>Node4&#45;&gt;Node2</title>
<path fill="none" stroke="midnightblue" d="M235.738,-68.4776C249.25,-65.1552 264.762,-61.6089 279,-59 376.28,-41.1742 488.392,-31.4635 569.631,-26.3326"/>
<polygon fill="midnightblue" stroke="midnightblue" points="570.117,-29.8093 579.882,-25.6991 569.685,-22.8227 570.117,-29.8093"/>
</g>
<!-- Node4&#45;&gt;Node5 -->
<g id="edge4" class="edge"><title>Node4&#45;&gt;Node5</title>
<path fill="none" stroke="midnightblue" d="M236.577,-87.5007C249.903,-90.7457 265.079,-94.2471 279,-97 340.789,-109.219 356.383,-112.191 419,-119 457.406,-123.176 499.095,-126.338 537.72,-128.701"/>
<polygon fill="midnightblue" stroke="midnightblue" points="537.806,-132.212 547.997,-129.315 538.224,-125.225 537.806,-132.212"/>
</g>
<!-- Node7 -->
<g id="node7" class="node"><title>Node7</title>
<g id="a_node7"><a xlink:href="classcom_1_1tomoparts_1_1tomoBay_1_1model_1_1sql_1_1framework_1_1QueryUtility.html#a5677c2440b48e612fb51b57130555e5d" target="_top" xlink:title="set an Integer parameter for the query object specified. ">
<polygon fill="white" stroke="black" points="279,-68.5 279,-87.5 383,-87.5 383,-68.5 279,-68.5"/>
<text text-anchor="middle" x="331" y="-75.5" font-family="Helvetica,sans-Serif" font-size="10.00">setDOUBLEParam</text>
</a>
</g>
</g>
<!-- Node4&#45;&gt;Node7 -->
<g id="edge7" class="edge"><title>Node4&#45;&gt;Node7</title>
<path fill="none" stroke="midnightblue" d="M243.318,-78C251.514,-78 260.217,-78 268.826,-78"/>
<polygon fill="midnightblue" stroke="midnightblue" points="268.852,-81.5001 278.852,-78 268.852,-74.5001 268.852,-81.5001"/>
</g>
<!-- Node6 -->
<g id="node6" class="node"><title>Node6</title>
<g id="a_node6"><a xlink:href="classcom_1_1tomoparts_1_1tomoBay_1_1model_1_1sql_1_1framework_1_1queryTypes_1_1AbstractDBQuery.html#ae8a5c5f1701ee77ef658050c8345d518" target="_top" xlink:title="Used by derived classes to define the Query string to be used in the query. ">
<polygon fill="white" stroke="black" points="854,-120 854,-150 1124,-150 1124,-120 854,-120"/>
<text text-anchor="start" x="862" y="-138" font-family="Helvetica,sans-Serif" font-size="10.00">com.tomoparts.tomoBay.model.sql.framework.query</text>
<text text-anchor="middle" x="989" y="-127" font-family="Helvetica,sans-Serif" font-size="10.00">Types.AbstractDBQuery.queryString</text>
</a>
</g>
</g>
<!-- Node5&#45;&gt;Node6 -->
<g id="edge5" class="edge"><title>Node5&#45;&gt;Node6</title>
<path fill="none" stroke="midnightblue" d="M818.224,-135C826.592,-135 835.032,-135 843.443,-135"/>
<polygon fill="midnightblue" stroke="midnightblue" points="843.679,-138.5 853.679,-135 843.679,-131.5 843.679,-138.5"/>
</g>
<!-- Node7&#45;&gt;Node2 -->
<g id="edge9" class="edge"><title>Node7&#45;&gt;Node2</title>
<path fill="none" stroke="midnightblue" d="M373.037,-68.4059C387.517,-65.1887 403.94,-61.7289 419,-59 468.27,-50.0724 523.036,-41.8843 569.782,-35.4135"/>
<polygon fill="midnightblue" stroke="midnightblue" points="570.507,-38.8468 579.937,-34.0172 569.553,-31.9121 570.507,-38.8468"/>
</g>
<!-- Node7&#45;&gt;Node5 -->
<g id="edge8" class="edge"><title>Node7&#45;&gt;Node5</title>
<path fill="none" stroke="midnightblue" d="M373.037,-87.5941C387.517,-90.8113 403.94,-94.2711 419,-97 463.325,-105.032 512.099,-112.465 555.48,-118.587"/>
<polygon fill="midnightblue" stroke="midnightblue" points="555.125,-122.072 565.514,-119.994 556.097,-115.14 555.125,-122.072"/>
</g>
<!-- Node8 -->
<g id="node8" class="node"><title>Node8</title>
<g id="a_node8"><a xlink:href="classcom_1_1tomoparts_1_1tomoBay_1_1model_1_1sql_1_1framework_1_1QueryUtility.html#adf8f1fea7b649baadeb0297c41be72f5" target="_top" xlink:title="set an Integer parameter for the query object specified. ">
<polygon fill="white" stroke="black" points="419,-68.5 419,-87.5 512,-87.5 512,-68.5 419,-68.5"/>
<text text-anchor="middle" x="465.5" y="-75.5" font-family="Helvetica,sans-Serif" font-size="10.00">setFLOATParam</text>
</a>
</g>
</g>
<!-- Node7&#45;&gt;Node8 -->
<g id="edge10" class="edge"><title>Node7&#45;&gt;Node8</title>
<path fill="none" stroke="midnightblue" d="M383.228,-78C391.512,-78 400.126,-78 408.515,-78"/>
<polygon fill="midnightblue" stroke="midnightblue" points="408.599,-81.5001 418.599,-78 408.599,-74.5001 408.599,-81.5001"/>
</g>
<!-- Node8&#45;&gt;Node2 -->
<g id="edge12" class="edge"><title>Node8&#45;&gt;Node2</title>
<path fill="none" stroke="midnightblue" d="M502.57,-68.4595C527.653,-61.8249 562.222,-52.6815 594.325,-44.1901"/>
<polygon fill="midnightblue" stroke="midnightblue" points="595.423,-47.52 604.196,-41.5793 593.633,-40.7528 595.423,-47.52"/>
</g>
<!-- Node8&#45;&gt;Node5 -->
<g id="edge11" class="edge"><title>Node8&#45;&gt;Node5</title>
<path fill="none" stroke="midnightblue" d="M502.57,-87.5405C533.257,-95.6574 578.141,-107.529 615.34,-117.368"/>
<polygon fill="midnightblue" stroke="midnightblue" points="614.55,-120.78 625.112,-119.953 616.34,-114.012 614.55,-120.78"/>
</g>
</g>
</svg>
        <g id="navigator" transform="translate(0 0)" fill="#404254">
                <rect fill="#f2f5e9" fill-opacity="0.5" stroke="#606060" stroke-width=".5" x="0" y="0" width="60" height="60"/>
                <use id="zoomplus" xlink:href="#zoomPlus" x="17" y="9" onmousedown="handleZoom(evt,'in')"/>
                <use id="zoomminus" xlink:href="#zoomMin" x="42" y="9" onmousedown="handleZoom(evt,'out')"/>
                <use id="reset" xlink:href="#resetDef" x="30" y="36" onmousedown="handleReset()"/>
                <g id="arrowUp" xlink:href="#dirArrow" transform="translate(30 24)" onmousedown="handlePan(0,-1)">
                  <use xlink:href="#rim" fill="#404040">
                        <set attributeName="fill" to="#808080" begin="arrowUp.mouseover" end="arrowUp.mouseout"/>
                  </use>
                  <path fill="none" stroke="white" stroke-width="1.5" d="M0,-3.0v7 M-2.5,-0.5L0,-3.0L2.5,-0.5"/>
                </g>
                <g id="arrowRight" xlink:href="#dirArrow" transform="rotate(90) translate(36 -43)" onmousedown="handlePan(1,0)">
                  <use xlink:href="#rim" fill="#404040">
                        <set attributeName="fill" to="#808080" begin="arrowRight.mouseover" end="arrowRight.mouseout"/>
                  </use>
                  <path fill="none" stroke="white" stroke-width="1.5" d="M0,-3.0v7 M-2.5,-0.5L0,-3.0L2.5,-0.5"/>
                </g>
                <g id="arrowDown" xlink:href="#dirArrow" transform="rotate(180) translate(-30 -48)" onmousedown="handlePan(0,1)">
                  <use xlink:href="#rim" fill="#404040">
                        <set attributeName="fill" to="#808080" begin="arrowDown.mouseover" end="arrowDown.mouseout"/>
                  </use>
                  <path fill="none" stroke="white" stroke-width="1.5" d="M0,-3.0v7 M-2.5,-0.5L0,-3.0L2.5,-0.5"/>
                </g>
                <g id="arrowLeft" xlink:href="#dirArrow" transform="rotate(270) translate(-36 17)" onmousedown="handlePan(-1,0)">
                  <use xlink:href="#rim" fill="#404040">
                        <set attributeName="fill" to="#808080" begin="arrowLeft.mouseover" end="arrowLeft.mouseout"/>
                  </use>
                  <path fill="none" stroke="white" stroke-width="1.5" d="M0,-3.0v7 M-2.5,-0.5L0,-3.0L2.5,-0.5"/>
                </g>
        </g>
        <svg viewBox="0 0 15 15" width="100%" height="30px" preserveAspectRatio="xMaxYMin meet">
         <g id="arrow_out" transform="scale(0.3 0.3)">
          <a xlink:href="classcom_1_1tomoparts_1_1tomoBay_1_1model_1_1sql_1_1framework_1_1QueryUtility_ab07d04299a96461dcf893416b8e32604_cgraph_org.svg" target="_base">
           <rect id="button" ry="5" rx="5" y="6" x="6" height="38" width="38"
                fill="#f2f5e9" fill-opacity="0.5" stroke="#606060" stroke-width="1.0"/>
           <path id="arrow"
             d="M 11.500037,31.436501 C 11.940474,20.09759 22.043105,11.32322 32.158766,21.979434 L 37.068811,17.246167 C 37.068811,17.246167 37.088388,32 37.088388,32 L 22.160133,31.978069 C 22.160133,31.978069 26.997745,27.140456 26.997745,27.140456 C 18.528582,18.264221 13.291696,25.230495 11.500037,31.436501 z"
             style="fill:#404040;"/>
          </a>
         </g>
        </svg>
</svg>
