<?xml version="1.0" encoding="UTF-8" standalone="no"?>
<!DOCTYPE svg PUBLIC "-//W3C//DTD SVG 1.1//EN"
 "http://www.w3.org/Graphics/SVG/1.1/DTD/svg11.dtd">
<!-- Generated by graphviz version 2.38.0 (20140413.2041)
 -->
<!-- Title: onPaused Pages: 1 -->
<svg width="1239pt" height="454pt"
 viewBox="0.00 0.00 1239.00 454.00" xmlns="http://www.w3.org/2000/svg" xmlns:xlink="http://www.w3.org/1999/xlink">
<g id="graph0" class="graph" transform="scale(1 1) rotate(0) translate(4 450)">
<title>onPaused</title>
<polygon fill="white" stroke="none" points="-4,4 -4,-450 1235,-450 1235,4 -4,4"/>
<!-- Node1 -->
<g id="node1" class="node"><title>Node1</title>
<polygon fill="#bfbfbf" stroke="black" points="0,-202 0,-221 64,-221 64,-202 0,-202"/>
<text text-anchor="middle" x="32" y="-209" font-family="Helvetica,sans-Serif" font-size="10.00">onPaused</text>
</g>
<!-- Node2 -->
<g id="node2" class="node"><title>Node2</title>
<g id="a_node2"><a xlink:href="classcom_1_1tomoparts_1_1tomoBay_1_1model_1_1services_1_1reScanBuyerService_1_1ReScanBuyerService.html#ae3b0a282dcba7f2d675ca89b1dd48487" target="_top" xlink:title="onRunning">
<polygon fill="white" stroke="black" points="100,-202 100,-221 167,-221 167,-202 100,-202"/>
<text text-anchor="middle" x="133.5" y="-209" font-family="Helvetica,sans-Serif" font-size="10.00">onRunning</text>
</a>
</g>
</g>
<!-- Node1&#45;&gt;Node2 -->
<g id="edge1" class="edge"><title>Node1&#45;&gt;Node2</title>
<path fill="none" stroke="midnightblue" d="M64.2094,-211.5C72.232,-211.5 81.0052,-211.5 89.5098,-211.5"/>
<polygon fill="midnightblue" stroke="midnightblue" points="89.682,-215 99.682,-211.5 89.6819,-208 89.682,-215"/>
</g>
<!-- Node3 -->
<g id="node3" class="node"><title>Node3</title>
<g id="a_node3"><a xlink:href="classcom_1_1tomoparts_1_1tomoBay_1_1model_1_1services_1_1reScanBuyerService_1_1OnRunning.html#ae4a4f4cadce2787c7e80005639fbd5d9" target="_top" xlink:title="this method defines what to do in the given derived state ">
<polygon fill="white" stroke="black" points="203,-196.5 203,-226.5 428,-226.5 428,-196.5 203,-196.5"/>
<text text-anchor="start" x="211" y="-214.5" font-family="Helvetica,sans-Serif" font-size="10.00">com.tomoparts.tomoBay.model.services.re</text>
<text text-anchor="middle" x="315.5" y="-203.5" font-family="Helvetica,sans-Serif" font-size="10.00">ScanBuyerService.OnRunning.execute</text>
</a>
</g>
</g>
<!-- Node2&#45;&gt;Node3 -->
<g id="edge2" class="edge"><title>Node2&#45;&gt;Node3</title>
<path fill="none" stroke="midnightblue" d="M167.097,-211.5C174.834,-211.5 183.543,-211.5 192.762,-211.5"/>
<polygon fill="midnightblue" stroke="midnightblue" points="192.943,-215 202.943,-211.5 192.943,-208 192.943,-215"/>
</g>
<!-- Node4 -->
<g id="node4" class="node"><title>Node4</title>
<g id="a_node4"><a xlink:href="classcom_1_1tomoparts_1_1tomoBay_1_1model_1_1eBayAPI_1_1EbayAccounts.html#ae9b99457a79c932468c153115ef964b0" target="_top" xlink:title="retrieve the ebay api key for the account name specified ">
<polygon fill="white" stroke="black" points="497.5,-382.5 497.5,-412.5 676.5,-412.5 676.5,-382.5 497.5,-382.5"/>
<text text-anchor="start" x="505.5" y="-400.5" font-family="Helvetica,sans-Serif" font-size="10.00">com.tomoparts.tomoBay.model.e</text>
<text text-anchor="middle" x="587" y="-389.5" font-family="Helvetica,sans-Serif" font-size="10.00">BayAPI.EbayAccounts.apiKey</text>
</a>
</g>
</g>
<!-- Node3&#45;&gt;Node4 -->
<g id="edge3" class="edge"><title>Node3&#45;&gt;Node4</title>
<path fill="none" stroke="midnightblue" d="M325.68,-226.984C346.036,-259.835 398.391,-336.522 464,-373.5 471.366,-377.652 479.335,-381.095 487.549,-383.949"/>
<polygon fill="midnightblue" stroke="midnightblue" points="486.692,-387.349 497.283,-387.036 488.809,-380.677 486.692,-387.349"/>
</g>
<!-- Node5 -->
<g id="node5" class="node"><title>Node5</title>
<g id="a_node5"><a xlink:href="classcom_1_1tomoparts_1_1tomoBay_1_1model_1_1eBayAPI_1_1OrdersCall.html#a6531876c53fd0c3c56eec68bd1b00df0" target="_top" xlink:title="This method performs a call to the API grabbing a list of orders for the specified number of days...">
<polygon fill="white" stroke="black" points="497.5,-333.5 497.5,-363.5 676.5,-363.5 676.5,-333.5 497.5,-333.5"/>
<text text-anchor="start" x="505.5" y="-351.5" font-family="Helvetica,sans-Serif" font-size="10.00">com.tomoparts.tomoBay.model.e</text>
<text text-anchor="middle" x="587" y="-340.5" font-family="Helvetica,sans-Serif" font-size="10.00">BayAPI.OrdersCall.call</text>
</a>
</g>
</g>
<!-- Node3&#45;&gt;Node5 -->
<g id="edge4" class="edge"><title>Node3&#45;&gt;Node5</title>
<path fill="none" stroke="midnightblue" d="M332.83,-226.697C358.676,-249.928 411.482,-294.137 464,-318.5 474.1,-323.185 485.023,-327.195 496.039,-330.612"/>
<polygon fill="midnightblue" stroke="midnightblue" points="495.145,-333.997 505.726,-333.465 497.122,-327.282 495.145,-333.997"/>
</g>
<!-- Node9 -->
<g id="node9" class="node"><title>Node9</title>
<g id="a_node9"><a xlink:href="classcom_1_1tomoparts_1_1tomoBay_1_1model_1_1dataTypes_1_1heteroTypeContainer_1_1HeteroFieldContainer.html#a988363ab964d6dc0ccb8560bef5895b6" target="_top" xlink:title="retrieve the the value of an AbstractField from this HeteroFieldContainer, the field should be of the...">
<polygon fill="white" stroke="black" points="764.5,-257 764.5,-298 970.5,-298 970.5,-257 764.5,-257"/>
<text text-anchor="start" x="772.5" y="-286" font-family="Helvetica,sans-Serif" font-size="10.00">com.tomoparts.tomoBay.model.data</text>
<text text-anchor="start" x="772.5" y="-275" font-family="Helvetica,sans-Serif" font-size="10.00">Types.heteroTypeContainer.HeteroField</text>
<text text-anchor="middle" x="867.5" y="-264" font-family="Helvetica,sans-Serif" font-size="10.00">Container.get</text>
</a>
</g>
</g>
<!-- Node3&#45;&gt;Node9 -->
<g id="edge8" class="edge"><title>Node3&#45;&gt;Node9</title>
<path fill="none" stroke="midnightblue" d="M338.75,-226.619C366.596,-244.539 416.426,-273.372 464,-284.5 559.933,-306.94 672.264,-302.544 753.842,-294.062"/>
<polygon fill="midnightblue" stroke="midnightblue" points="754.57,-297.504 764.137,-292.953 753.82,-290.544 754.57,-297.504"/>
</g>
<!-- Node11 -->
<g id="node11" class="node"><title>Node11</title>
<g id="a_node11"><a xlink:href="classcom_1_1tomoparts_1_1tomoBay_1_1model_1_1services_1_1reScanBuyerService_1_1OnRunning.html#a2635d1876823db285122ff73faeed4b2" target="_top" xlink:title="retrieves the personal address associated with the order passed in as an argument. ">
<polygon fill="white" stroke="black" points="474.5,-245.5 474.5,-275.5 699.5,-275.5 699.5,-245.5 474.5,-245.5"/>
<text text-anchor="start" x="482.5" y="-263.5" font-family="Helvetica,sans-Serif" font-size="10.00">com.tomoparts.tomoBay.model.services.re</text>
<text text-anchor="middle" x="587" y="-252.5" font-family="Helvetica,sans-Serif" font-size="10.00">ScanBuyerService.OnRunning.getAddress</text>
</a>
</g>
</g>
<!-- Node3&#45;&gt;Node11 -->
<g id="edge10" class="edge"><title>Node3&#45;&gt;Node11</title>
<path fill="none" stroke="midnightblue" d="M399.19,-226.535C428.939,-231.944 462.688,-238.08 493.239,-243.634"/>
<polygon fill="midnightblue" stroke="midnightblue" points="493.001,-247.148 503.466,-245.494 494.253,-240.261 493.001,-247.148"/>
</g>
<!-- Node13 -->
<g id="node13" class="node"><title>Node13</title>
<g id="a_node13"><a xlink:href="classcom_1_1tomoparts_1_1tomoBay_1_1model_1_1services_1_1reScanBuyerService_1_1OnRunning.html#a33706837d80ae402889acf879a8e2566" target="_top" xlink:title="retrieves the global shipping program address associated with the order passed in as an argument...">
<polygon fill="white" stroke="black" points="469,-196.5 469,-226.5 705,-226.5 705,-196.5 469,-196.5"/>
<text text-anchor="start" x="477" y="-214.5" font-family="Helvetica,sans-Serif" font-size="10.00">com.tomoparts.tomoBay.model.services.re</text>
<text text-anchor="middle" x="587" y="-203.5" font-family="Helvetica,sans-Serif" font-size="10.00">ScanBuyerService.OnRunning.getGSPaddress</text>
</a>
</g>
</g>
<!-- Node3&#45;&gt;Node13 -->
<g id="edge13" class="edge"><title>Node3&#45;&gt;Node13</title>
<path fill="none" stroke="midnightblue" d="M428.061,-211.5C438.162,-211.5 448.441,-211.5 458.664,-211.5"/>
<polygon fill="midnightblue" stroke="midnightblue" points="458.858,-215 468.858,-211.5 458.858,-208 458.858,-215"/>
</g>
<!-- Node14 -->
<g id="node14" class="node"><title>Node14</title>
<g id="a_node14"><a xlink:href="classcom_1_1tomoparts_1_1tomoBay_1_1model_1_1services_1_1reScanBuyerService_1_1DBActions.html#a7b6294e946014db474b821904f218bad" target="_top" xlink:title="get the latest orderID for the buyer passed in as an argument ">
<polygon fill="white" stroke="black" points="466,-147.5 466,-177.5 708,-177.5 708,-147.5 466,-147.5"/>
<text text-anchor="start" x="474" y="-165.5" font-family="Helvetica,sans-Serif" font-size="10.00">com.tomoparts.tomoBay.model.services.re</text>
<text text-anchor="middle" x="587" y="-154.5" font-family="Helvetica,sans-Serif" font-size="10.00">ScanBuyerService.DBActions.getLatestOrderID</text>
</a>
</g>
</g>
<!-- Node3&#45;&gt;Node14 -->
<g id="edge15" class="edge"><title>Node3&#45;&gt;Node14</title>
<path fill="none" stroke="midnightblue" d="M399.19,-196.465C428.939,-191.056 462.688,-184.92 493.239,-179.366"/>
<polygon fill="midnightblue" stroke="midnightblue" points="494.253,-182.739 503.466,-177.506 493.001,-175.852 494.253,-182.739"/>
</g>
<!-- Node16 -->
<g id="node16" class="node"><title>Node16</title>
<g id="a_node16"><a xlink:href="classcom_1_1tomoparts_1_1tomoBay_1_1model_1_1eBayAPI_1_1EbayAccounts.html#a263b122a1c598841624ba7d1e4a6c617" target="_top" xlink:title="convert an account ID to a textual name value. ">
<polygon fill="white" stroke="black" points="497.5,-98.5 497.5,-128.5 676.5,-128.5 676.5,-98.5 497.5,-98.5"/>
<text text-anchor="start" x="505.5" y="-116.5" font-family="Helvetica,sans-Serif" font-size="10.00">com.tomoparts.tomoBay.model.e</text>
<text text-anchor="middle" x="587" y="-105.5" font-family="Helvetica,sans-Serif" font-size="10.00">BayAPI.EbayAccounts.name</text>
</a>
</g>
</g>
<!-- Node3&#45;&gt;Node16 -->
<g id="edge18" class="edge"><title>Node3&#45;&gt;Node16</title>
<path fill="none" stroke="midnightblue" d="M341.43,-196.352C370.048,-179.599 418.866,-152.94 464,-137.5 471.551,-134.917 479.465,-132.579 487.48,-130.47"/>
<polygon fill="midnightblue" stroke="midnightblue" points="488.441,-133.838 497.289,-128.01 486.738,-127.048 488.441,-133.838"/>
</g>
<!-- Node18 -->
<g id="node18" class="node"><title>Node18</title>
<g id="a_node18"><a xlink:href="classcom_1_1tomoparts_1_1tomoBay_1_1model_1_1eBayAPI_1_1EbayAccounts.html#a17d78d1b20882cd5986119af592d4f3d" target="_top" xlink:title="retrieve the ebay server address for the account name specified ">
<polygon fill="white" stroke="black" points="491,-49.5 491,-79.5 683,-79.5 683,-49.5 491,-49.5"/>
<text text-anchor="start" x="499" y="-67.5" font-family="Helvetica,sans-Serif" font-size="10.00">com.tomoparts.tomoBay.model.e</text>
<text text-anchor="middle" x="587" y="-56.5" font-family="Helvetica,sans-Serif" font-size="10.00">BayAPI.EbayAccounts.serverAddress</text>
</a>
</g>
</g>
<!-- Node3&#45;&gt;Node18 -->
<g id="edge20" class="edge"><title>Node3&#45;&gt;Node18</title>
<path fill="none" stroke="midnightblue" d="M329.831,-196.205C353.825,-169.731 407.11,-115.607 464,-88.5 469.431,-85.9124 475.125,-83.6038 480.96,-81.5441"/>
<polygon fill="midnightblue" stroke="midnightblue" points="482.47,-84.7334 490.893,-78.3073 480.301,-78.0778 482.47,-84.7334"/>
</g>
<!-- Node19 -->
<g id="node19" class="node"><title>Node19</title>
<g id="a_node19"><a xlink:href="classcom_1_1tomoparts_1_1tomoBay_1_1model_1_1services_1_1reScanBuyerService_1_1DBActions.html#ada9d7427b2cf9579ce36b038793eadd0" target="_top" xlink:title="updates the buyer table in the database with the new buyer information. ">
<polygon fill="white" stroke="black" points="464,-0.5 464,-30.5 710,-30.5 710,-0.5 464,-0.5"/>
<text text-anchor="start" x="472" y="-18.5" font-family="Helvetica,sans-Serif" font-size="10.00">com.tomoparts.tomoBay.model.services.re</text>
<text text-anchor="middle" x="587" y="-7.5" font-family="Helvetica,sans-Serif" font-size="10.00">ScanBuyerService.DBActions.updateBuyerTable</text>
</a>
</g>
</g>
<!-- Node3&#45;&gt;Node19 -->
<g id="edge21" class="edge"><title>Node3&#45;&gt;Node19</title>
<path fill="none" stroke="midnightblue" d="M324.686,-196.356C343.983,-162.238 395.873,-79.2419 464,-39.5 467.028,-37.7333 470.164,-36.0942 473.38,-34.5736"/>
<polygon fill="midnightblue" stroke="midnightblue" points="474.833,-37.759 482.638,-30.5944 472.068,-31.3279 474.833,-37.759"/>
</g>
<!-- Node6 -->
<g id="node6" class="node"><title>Node6</title>
<g id="a_node6"><a xlink:href="classcom_1_1tomoparts_1_1tomoBay_1_1model_1_1eBayAPI_1_1OrdersCall.html#ae29dfd6b4e8a557a849bd0cd8b6c35e2" target="_top" xlink:title="convert the List&lt;OrderType[]&gt; passed in as an argument to a single OrderType[] containing all of the ...">
<polygon fill="white" stroke="black" points="778,-415.5 778,-445.5 957,-445.5 957,-415.5 778,-415.5"/>
<text text-anchor="start" x="786" y="-433.5" font-family="Helvetica,sans-Serif" font-size="10.00">com.tomoparts.tomoBay.model.e</text>
<text text-anchor="middle" x="867.5" y="-422.5" font-family="Helvetica,sans-Serif" font-size="10.00">BayAPI.OrdersCall.reformResults</text>
</a>
</g>
</g>
<!-- Node5&#45;&gt;Node6 -->
<g id="edge5" class="edge"><title>Node5&#45;&gt;Node6</title>
<path fill="none" stroke="midnightblue" d="M676.582,-360.716C688.162,-364.01 699.602,-368.191 710,-373.5 729.332,-383.369 726.641,-396.684 746,-406.5 752.956,-410.027 760.383,-413.036 768.005,-415.603"/>
<polygon fill="midnightblue" stroke="midnightblue" points="767.154,-419.004 777.742,-418.625 769.228,-412.318 767.154,-419.004"/>
</g>
<!-- Node7 -->
<g id="node7" class="node"><title>Node7</title>
<g id="a_node7"><a xlink:href="classcom_1_1tomoparts_1_1tomoBay_1_1model_1_1eBayAPI_1_1OrdersCall.html#a0636e18f9fb41faa3ba7c00887156b29" target="_top" xlink:title="this method does some setup for the API call ">
<polygon fill="white" stroke="black" points="778,-366.5 778,-396.5 957,-396.5 957,-366.5 778,-366.5"/>
<text text-anchor="start" x="786" y="-384.5" font-family="Helvetica,sans-Serif" font-size="10.00">com.tomoparts.tomoBay.model.e</text>
<text text-anchor="middle" x="867.5" y="-373.5" font-family="Helvetica,sans-Serif" font-size="10.00">BayAPI.OrdersCall.setUpCall</text>
</a>
</g>
</g>
<!-- Node5&#45;&gt;Node7 -->
<g id="edge6" class="edge"><title>Node5&#45;&gt;Node7</title>
<path fill="none" stroke="midnightblue" d="M676.502,-358.987C705.551,-362.429 738.013,-366.275 767.771,-369.801"/>
<polygon fill="midnightblue" stroke="midnightblue" points="767.408,-373.283 777.751,-370.984 768.232,-366.331 767.408,-373.283"/>
</g>
<!-- Node8 -->
<g id="node8" class="node"><title>Node8</title>
<g id="a_node8"><a xlink:href="classcom_1_1tomoparts_1_1tomoBay_1_1model_1_1eBayAPI_1_1OrdersCall.html#a5c2c034763b51de47c06064da1479d85" target="_top" xlink:title="do setup for the pagination. ">
<polygon fill="white" stroke="black" points="775.5,-317.5 775.5,-347.5 959.5,-347.5 959.5,-317.5 775.5,-317.5"/>
<text text-anchor="start" x="783.5" y="-335.5" font-family="Helvetica,sans-Serif" font-size="10.00">com.tomoparts.tomoBay.model.e</text>
<text text-anchor="middle" x="867.5" y="-324.5" font-family="Helvetica,sans-Serif" font-size="10.00">BayAPI.OrdersCall.setUpPagination</text>
</a>
</g>
</g>
<!-- Node5&#45;&gt;Node8 -->
<g id="edge7" class="edge"><title>Node5&#45;&gt;Node8</title>
<path fill="none" stroke="midnightblue" d="M676.502,-343.416C704.712,-341.795 736.142,-339.989 765.187,-338.32"/>
<polygon fill="midnightblue" stroke="midnightblue" points="765.57,-341.804 775.352,-337.736 765.168,-334.816 765.57,-341.804"/>
</g>
<!-- Node10 -->
<g id="node10" class="node"><title>Node10</title>
<g id="a_node10"><a xlink:href="classcom_1_1tomoparts_1_1tomoBay_1_1model_1_1dataTypes_1_1heteroTypeContainer_1_1HeteroFieldContainer.html#a9dee3c01eb5ab16203e1c6820a569484" target="_top" xlink:title="performs a type check, assuming that field and type are of the same type then this method returns tru...">
<polygon fill="white" stroke="black" points="1025,-227 1025,-268 1231,-268 1231,-227 1025,-227"/>
<text text-anchor="start" x="1033" y="-256" font-family="Helvetica,sans-Serif" font-size="10.00">com.tomoparts.tomoBay.model.data</text>
<text text-anchor="start" x="1033" y="-245" font-family="Helvetica,sans-Serif" font-size="10.00">Types.heteroTypeContainer.HeteroField</text>
<text text-anchor="middle" x="1128" y="-234" font-family="Helvetica,sans-Serif" font-size="10.00">Container.isSameType</text>
</a>
</g>
</g>
<!-- Node9&#45;&gt;Node10 -->
<g id="edge9" class="edge"><title>Node9&#45;&gt;Node10</title>
<path fill="none" stroke="midnightblue" d="M970.666,-265.643C985.114,-263.967 1000.03,-262.235 1014.66,-260.538"/>
<polygon fill="midnightblue" stroke="midnightblue" points="1015.2,-263.998 1024.73,-259.369 1014.39,-257.045 1015.2,-263.998"/>
</g>
<!-- Node12 -->
<g id="node12" class="node"><title>Node12</title>
<g id="a_node12"><a xlink:href="classcom_1_1tomoparts_1_1tomoBay_1_1model_1_1dataTypes_1_1heteroTypeContainer_1_1HeteroFieldContainer.html#a3ba6289417930238a36bfee0056b6398" target="_top" xlink:title="add an arbitrary value to this Field container with the stipulation that this value is of the same ty...">
<polygon fill="white" stroke="black" points="764.5,-197 764.5,-238 970.5,-238 970.5,-197 764.5,-197"/>
<text text-anchor="start" x="772.5" y="-226" font-family="Helvetica,sans-Serif" font-size="10.00">com.tomoparts.tomoBay.model.data</text>
<text text-anchor="start" x="772.5" y="-215" font-family="Helvetica,sans-Serif" font-size="10.00">Types.heteroTypeContainer.HeteroField</text>
<text text-anchor="middle" x="867.5" y="-204" font-family="Helvetica,sans-Serif" font-size="10.00">Container.add</text>
</a>
</g>
</g>
<!-- Node11&#45;&gt;Node12 -->
<g id="edge11" class="edge"><title>Node11&#45;&gt;Node12</title>
<path fill="none" stroke="midnightblue" d="M685.406,-245.461C707.678,-242.022 731.524,-238.34 754.359,-234.814"/>
<polygon fill="midnightblue" stroke="midnightblue" points="755.073,-238.246 764.421,-233.261 754.004,-231.328 755.073,-238.246"/>
</g>
<!-- Node12&#45;&gt;Node10 -->
<g id="edge12" class="edge"><title>Node12&#45;&gt;Node10</title>
<path fill="none" stroke="midnightblue" d="M970.666,-229.357C985.114,-231.033 1000.03,-232.765 1014.66,-234.462"/>
<polygon fill="midnightblue" stroke="midnightblue" points="1014.39,-237.955 1024.73,-235.631 1015.2,-231.002 1014.39,-237.955"/>
</g>
<!-- Node13&#45;&gt;Node12 -->
<g id="edge14" class="edge"><title>Node13&#45;&gt;Node12</title>
<path fill="none" stroke="midnightblue" d="M705.302,-214.027C721.399,-214.374 737.897,-214.729 753.906,-215.074"/>
<polygon fill="midnightblue" stroke="midnightblue" points="754.274,-218.583 764.347,-215.299 754.425,-211.585 754.274,-218.583"/>
</g>
<!-- Node14&#45;&gt;Node12 -->
<g id="edge16" class="edge"><title>Node14&#45;&gt;Node12</title>
<path fill="none" stroke="midnightblue" d="M664.472,-177.528C679.563,-180.498 695.281,-183.595 710,-186.5 724.241,-189.311 739.209,-192.27 754.011,-195.199"/>
<polygon fill="midnightblue" stroke="midnightblue" points="753.732,-198.712 764.221,-197.22 755.091,-191.845 753.732,-198.712"/>
</g>
<!-- Node15 -->
<g id="node15" class="node"><title>Node15</title>
<g id="a_node15"><a xlink:href="classcom_1_1tomoparts_1_1tomoBay_1_1model_1_1sql_1_1framework_1_1SelectQueryInvoker.html#a594282bcbcc0731a7d234482717422d7" target="_top" xlink:title="execute a requested query ">
<polygon fill="white" stroke="black" points="746,-147.5 746,-177.5 989,-177.5 989,-147.5 746,-147.5"/>
<text text-anchor="start" x="754" y="-165.5" font-family="Helvetica,sans-Serif" font-size="10.00">com.tomoparts.tomoBay.model.sql.framework.</text>
<text text-anchor="middle" x="867.5" y="-154.5" font-family="Helvetica,sans-Serif" font-size="10.00">SelectQueryInvoker.execute</text>
</a>
</g>
</g>
<!-- Node14&#45;&gt;Node15 -->
<g id="edge17" class="edge"><title>Node14&#45;&gt;Node15</title>
<path fill="none" stroke="midnightblue" d="M708.13,-162.5C717.319,-162.5 726.622,-162.5 735.874,-162.5"/>
<polygon fill="midnightblue" stroke="midnightblue" points="735.886,-166 745.886,-162.5 735.886,-159 735.886,-166"/>
</g>
<!-- Node17 -->
<g id="node17" class="node"><title>Node17</title>
<g id="a_node17"><a xlink:href="classcom_1_1tomoparts_1_1tomoBay_1_1model_1_1eBayAPI_1_1EbayAccounts.html#a137163c03f463ad5d9581aef47a9a3e4" target="_top" xlink:title="retrieve the id for the account name specified ">
<polygon fill="white" stroke="black" points="778,-98.5 778,-128.5 957,-128.5 957,-98.5 778,-98.5"/>
<text text-anchor="start" x="786" y="-116.5" font-family="Helvetica,sans-Serif" font-size="10.00">com.tomoparts.tomoBay.model.e</text>
<text text-anchor="middle" x="867.5" y="-105.5" font-family="Helvetica,sans-Serif" font-size="10.00">BayAPI.EbayAccounts.id</text>
</a>
</g>
</g>
<!-- Node16&#45;&gt;Node17 -->
<g id="edge19" class="edge"><title>Node16&#45;&gt;Node17</title>
<path fill="none" stroke="midnightblue" d="M676.502,-113.5C705.425,-113.5 737.731,-113.5 767.383,-113.5"/>
<polygon fill="midnightblue" stroke="midnightblue" points="767.751,-117 777.751,-113.5 767.751,-110 767.751,-117"/>
</g>
<!-- Node20 -->
<g id="node20" class="node"><title>Node20</title>
<g id="a_node20"><a xlink:href="classcom_1_1tomoparts_1_1tomoBay_1_1model_1_1sql_1_1framework_1_1ModifyQueryInvoker.html#ab8ef0fdf15f6720620e297c77ab25d46" target="_top" xlink:title="com.tomoparts.tomoBay.model.sql.framework.\lModifyQueryInvoker.execute">
<polygon fill="white" stroke="black" points="746,-0.5 746,-30.5 989,-30.5 989,-0.5 746,-0.5"/>
<text text-anchor="start" x="754" y="-18.5" font-family="Helvetica,sans-Serif" font-size="10.00">com.tomoparts.tomoBay.model.sql.framework.</text>
<text text-anchor="middle" x="867.5" y="-7.5" font-family="Helvetica,sans-Serif" font-size="10.00">ModifyQueryInvoker.execute</text>
</a>
</g>
</g>
<!-- Node19&#45;&gt;Node20 -->
<g id="edge22" class="edge"><title>Node19&#45;&gt;Node20</title>
<path fill="none" stroke="midnightblue" d="M710.154,-15.5C718.663,-15.5 727.258,-15.5 735.81,-15.5"/>
<polygon fill="midnightblue" stroke="midnightblue" points="735.822,-19.0001 745.822,-15.5 735.822,-12.0001 735.822,-19.0001"/>
</g>
</g>
</svg>
