<?xml version="1.0" encoding="UTF-8" standalone="no"?>
<!DOCTYPE svg PUBLIC "-//W3C//DTD SVG 1.1//EN"
 "http://www.w3.org/Graphics/SVG/1.1/DTD/svg11.dtd">
<!-- Generated by graphviz version 2.38.0 (20140413.2041)
 -->
<!-- Title: setParameters Pages: 1 -->
<svg width="1545pt" height="133pt"
 viewBox="0.00 0.00 1545.00 132.50" xmlns="http://www.w3.org/2000/svg" xmlns:xlink="http://www.w3.org/1999/xlink">
<g id="graph0" class="graph" transform="scale(1 1) rotate(0) translate(4 128.5)">
<title>setParameters</title>
<polygon fill="white" stroke="none" points="-4,4 -4,-128.5 1541,-128.5 1541,4 -4,4"/>
<!-- Node1 -->
<g id="node1" class="node"><title>Node1</title>
<polygon fill="#bfbfbf" stroke="black" points="0,-50 0,-69 88,-69 88,-50 0,-50"/>
<text text-anchor="middle" x="44" y="-57" font-family="Helvetica,sans-Serif" font-size="10.00">setParameters</text>
</g>
<!-- Node2 -->
<g id="node2" class="node"><title>Node2</title>
<g id="a_node2"><a xlink:href="classcom_1_1tomoparts_1_1tomoBay_1_1model_1_1sql_1_1framework_1_1QueryUtility.html#a202aab30c77e06c32318efd5cf949ca3" target="_top" xlink:title="set an Integer parameter for the query object specified. ">
<polygon fill="white" stroke="black" points="124,-44.5 124,-74.5 367,-74.5 367,-44.5 124,-44.5"/>
<text text-anchor="start" x="132" y="-62.5" font-family="Helvetica,sans-Serif" font-size="10.00">com.tomoparts.tomoBay.model.sql.framework.</text>
<text text-anchor="middle" x="245.5" y="-51.5" font-family="Helvetica,sans-Serif" font-size="10.00">QueryUtility.setDATEParam</text>
</a>
</g>
</g>
<!-- Node1&#45;&gt;Node2 -->
<g id="edge1" class="edge"><title>Node1&#45;&gt;Node2</title>
<path fill="none" stroke="midnightblue" d="M88.2885,-59.5C96.1153,-59.5 104.633,-59.5 113.519,-59.5"/>
<polygon fill="midnightblue" stroke="midnightblue" points="113.691,-63.0001 123.691,-59.5 113.691,-56.0001 113.691,-63.0001"/>
</g>
<!-- Node3 -->
<g id="node3" class="node"><title>Node3</title>
<g id="a_node3"><a xlink:href="classcom_1_1tomoparts_1_1tomoBay_1_1model_1_1dataTypes_1_1heteroTypeContainer_1_1HeteroFieldContainer.html#a988363ab964d6dc0ccb8560bef5895b6" target="_top" xlink:title="retrieve the the value of an AbstractField from this HeteroFieldContainer, the field should be of the...">
<polygon fill="white" stroke="black" points="993,-83 993,-124 1199,-124 1199,-83 993,-83"/>
<text text-anchor="start" x="1001" y="-112" font-family="Helvetica,sans-Serif" font-size="10.00">com.tomoparts.tomoBay.model.data</text>
<text text-anchor="start" x="1001" y="-101" font-family="Helvetica,sans-Serif" font-size="10.00">Types.heteroTypeContainer.HeteroField</text>
<text text-anchor="middle" x="1096" y="-90" font-family="Helvetica,sans-Serif" font-size="10.00">Container.get</text>
</a>
</g>
</g>
<!-- Node2&#45;&gt;Node3 -->
<g id="edge2" class="edge"><title>Node2&#45;&gt;Node3</title>
<path fill="none" stroke="midnightblue" d="M336.965,-74.5297C358.561,-77.797 381.566,-81.0148 403,-83.5 633.661,-110.244 692.798,-106.866 925,-105.5 943.725,-105.39 963.61,-105.211 982.929,-105.005"/>
<polygon fill="midnightblue" stroke="midnightblue" points="983.01,-108.505 992.971,-104.895 982.933,-101.505 983.01,-108.505"/>
</g>
<!-- Node5 -->
<g id="node5" class="node"><title>Node5</title>
<g id="a_node5"><a xlink:href="classcom_1_1tomoparts_1_1tomoBay_1_1model_1_1sql_1_1framework_1_1QueryUtility.html#a5677c2440b48e612fb51b57130555e5d" target="_top" xlink:title="set an Integer parameter for the query object specified. ">
<polygon fill="white" stroke="black" points="403,-44.5 403,-74.5 646,-74.5 646,-44.5 403,-44.5"/>
<text text-anchor="start" x="411" y="-62.5" font-family="Helvetica,sans-Serif" font-size="10.00">com.tomoparts.tomoBay.model.sql.framework.</text>
<text text-anchor="middle" x="524.5" y="-51.5" font-family="Helvetica,sans-Serif" font-size="10.00">QueryUtility.setDOUBLEParam</text>
</a>
</g>
</g>
<!-- Node2&#45;&gt;Node5 -->
<g id="edge4" class="edge"><title>Node2&#45;&gt;Node5</title>
<path fill="none" stroke="midnightblue" d="M367.19,-59.5C375.586,-59.5 384.07,-59.5 392.517,-59.5"/>
<polygon fill="midnightblue" stroke="midnightblue" points="392.794,-63.0001 402.794,-59.5 392.794,-56.0001 392.794,-63.0001"/>
</g>
<!-- Node7 -->
<g id="node7" class="node"><title>Node7</title>
<g id="a_node7"><a xlink:href="classcom_1_1tomoparts_1_1tomoBay_1_1model_1_1sql_1_1framework_1_1queryTypes_1_1AbstractDBQuery.html#a41678b13e84de4335130f10cea7ae562" target="_top" xlink:title="get the statement object associated with this query ">
<polygon fill="white" stroke="black" points="961,-0.5 961,-30.5 1231,-30.5 1231,-0.5 961,-0.5"/>
<text text-anchor="start" x="969" y="-18.5" font-family="Helvetica,sans-Serif" font-size="10.00">com.tomoparts.tomoBay.model.sql.framework.query</text>
<text text-anchor="middle" x="1096" y="-7.5" font-family="Helvetica,sans-Serif" font-size="10.00">Types.AbstractDBQuery.statement</text>
</a>
</g>
</g>
<!-- Node2&#45;&gt;Node7 -->
<g id="edge11" class="edge"><title>Node2&#45;&gt;Node7</title>
<path fill="none" stroke="midnightblue" d="M331.593,-44.4743C354.703,-40.7854 379.762,-37.1418 403,-34.5 591.292,-13.0937 810.161,-10.849 950.506,-12.2824"/>
<polygon fill="midnightblue" stroke="midnightblue" points="950.855,-15.7863 960.893,-12.3966 950.932,-8.78674 950.855,-15.7863"/>
</g>
<!-- Node4 -->
<g id="node4" class="node"><title>Node4</title>
<g id="a_node4"><a xlink:href="classcom_1_1tomoparts_1_1tomoBay_1_1model_1_1dataTypes_1_1heteroTypeContainer_1_1HeteroFieldContainer.html#a9dee3c01eb5ab16203e1c6820a569484" target="_top" xlink:title="performs a type check, assuming that field and type are of the same type then this method returns tru...">
<polygon fill="white" stroke="black" points="1299,-83 1299,-124 1505,-124 1505,-83 1299,-83"/>
<text text-anchor="start" x="1307" y="-112" font-family="Helvetica,sans-Serif" font-size="10.00">com.tomoparts.tomoBay.model.data</text>
<text text-anchor="start" x="1307" y="-101" font-family="Helvetica,sans-Serif" font-size="10.00">Types.heteroTypeContainer.HeteroField</text>
<text text-anchor="middle" x="1402" y="-90" font-family="Helvetica,sans-Serif" font-size="10.00">Container.isSameType</text>
</a>
</g>
</g>
<!-- Node3&#45;&gt;Node4 -->
<g id="edge3" class="edge"><title>Node3&#45;&gt;Node4</title>
<path fill="none" stroke="midnightblue" d="M1199.07,-103.5C1227.85,-103.5 1259.31,-103.5 1288.65,-103.5"/>
<polygon fill="midnightblue" stroke="midnightblue" points="1288.94,-107 1298.94,-103.5 1288.94,-100 1288.94,-107"/>
</g>
<!-- Node5&#45;&gt;Node3 -->
<g id="edge5" class="edge"><title>Node5&#45;&gt;Node3</title>
<path fill="none" stroke="midnightblue" d="M612.624,-74.5006C635.163,-77.9302 659.437,-81.2297 682,-83.5 783.476,-93.7102 899.522,-98.7475 982.712,-101.209"/>
<polygon fill="midnightblue" stroke="midnightblue" points="982.85,-104.714 992.946,-101.504 983.051,-97.7171 982.85,-104.714"/>
</g>
<!-- Node6 -->
<g id="node6" class="node"><title>Node6</title>
<g id="a_node6"><a xlink:href="classcom_1_1tomoparts_1_1tomoBay_1_1model_1_1sql_1_1framework_1_1QueryUtility.html#adf8f1fea7b649baadeb0297c41be72f5" target="_top" xlink:title="set an Integer parameter for the query object specified. ">
<polygon fill="white" stroke="black" points="682,-44.5 682,-74.5 925,-74.5 925,-44.5 682,-44.5"/>
<text text-anchor="start" x="690" y="-62.5" font-family="Helvetica,sans-Serif" font-size="10.00">com.tomoparts.tomoBay.model.sql.framework.</text>
<text text-anchor="middle" x="803.5" y="-51.5" font-family="Helvetica,sans-Serif" font-size="10.00">QueryUtility.setFLOATParam</text>
</a>
</g>
</g>
<!-- Node5&#45;&gt;Node6 -->
<g id="edge6" class="edge"><title>Node5&#45;&gt;Node6</title>
<path fill="none" stroke="midnightblue" d="M646.19,-59.5C654.586,-59.5 663.07,-59.5 671.517,-59.5"/>
<polygon fill="midnightblue" stroke="midnightblue" points="671.794,-63.0001 681.794,-59.5 671.794,-56.0001 671.794,-63.0001"/>
</g>
<!-- Node5&#45;&gt;Node7 -->
<g id="edge10" class="edge"><title>Node5&#45;&gt;Node7</title>
<path fill="none" stroke="midnightblue" d="M608.522,-44.4574C632.189,-40.6537 658.05,-36.956 682,-34.5 771.016,-25.3717 871.278,-20.6281 950.722,-18.1636"/>
<polygon fill="midnightblue" stroke="midnightblue" points="950.909,-21.6596 960.799,-17.8597 950.698,-14.6628 950.909,-21.6596"/>
</g>
<!-- Node6&#45;&gt;Node3 -->
<g id="edge7" class="edge"><title>Node6&#45;&gt;Node3</title>
<path fill="none" stroke="midnightblue" d="M903.661,-74.5192C929.167,-78.3824 956.788,-82.566 982.899,-86.5208"/>
<polygon fill="midnightblue" stroke="midnightblue" points="982.413,-89.9871 992.825,-88.0242 983.462,-83.0661 982.413,-89.9871"/>
</g>
<!-- Node6&#45;&gt;Node7 -->
<g id="edge8" class="edge"><title>Node6&#45;&gt;Node7</title>
<path fill="none" stroke="midnightblue" d="M903.661,-44.4808C930.041,-40.4851 958.684,-36.1468 985.579,-32.0732"/>
<polygon fill="midnightblue" stroke="midnightblue" points="986.43,-35.4844 995.793,-30.5262 985.381,-28.5633 986.43,-35.4844"/>
</g>
<!-- Node8 -->
<g id="node8" class="node"><title>Node8</title>
<g id="a_node8"><a xlink:href="classcom_1_1tomoparts_1_1tomoBay_1_1model_1_1sql_1_1framework_1_1queryTypes_1_1AbstractDBQuery.html#ae8a5c5f1701ee77ef658050c8345d518" target="_top" xlink:title="Used by derived classes to define the Query string to be used in the query. ">
<polygon fill="white" stroke="black" points="1267,-0.5 1267,-30.5 1537,-30.5 1537,-0.5 1267,-0.5"/>
<text text-anchor="start" x="1275" y="-18.5" font-family="Helvetica,sans-Serif" font-size="10.00">com.tomoparts.tomoBay.model.sql.framework.query</text>
<text text-anchor="middle" x="1402" y="-7.5" font-family="Helvetica,sans-Serif" font-size="10.00">Types.AbstractDBQuery.queryString</text>
</a>
</g>
</g>
<!-- Node7&#45;&gt;Node8 -->
<g id="edge9" class="edge"><title>Node7&#45;&gt;Node8</title>
<path fill="none" stroke="midnightblue" d="M1231.22,-15.5C1239.59,-15.5 1248.03,-15.5 1256.44,-15.5"/>
<polygon fill="midnightblue" stroke="midnightblue" points="1256.68,-19.0001 1266.68,-15.5 1256.68,-12.0001 1256.68,-19.0001"/>
</g>
</g>
</svg>
