<?xml version="1.0" encoding="UTF-8" standalone="no"?>
<!DOCTYPE svg PUBLIC "-//W3C//DTD SVG 1.1//EN"
 "http://www.w3.org/Graphics/SVG/1.1/DTD/svg11.dtd">
<!-- Generated by graphviz version 2.38.0 (20140413.2041)
 -->
<!-- Title: AllPickeableResult Pages: 1 -->
<svg width="471pt" height="259pt"
 viewBox="0.00 0.00 470.50 259.00" xmlns="http://www.w3.org/2000/svg" xmlns:xlink="http://www.w3.org/1999/xlink">
<g id="graph0" class="graph" transform="scale(1 1) rotate(0) translate(4 255)">
<title>AllPickeableResult</title>
<polygon fill="white" stroke="none" points="-4,4 -4,-255 466.5,-255 466.5,4 -4,4"/>
<!-- Node1 -->
<g id="node1" class="node"><title>Node1</title>
<polygon fill="#bfbfbf" stroke="black" points="150,-0.5 150,-79.5 271,-79.5 271,-0.5 150,-0.5"/>
<text text-anchor="middle" x="210.5" y="-67.5" font-family="Helvetica,sans-Serif" font-size="10.00">AllPickeableResult</text>
<polyline fill="none" stroke="black" points="150,-60.5 271,-60.5 "/>
<text text-anchor="start" x="158" y="-48.5" font-family="Helvetica,sans-Serif" font-size="10.00">&#45; orderNo_M</text>
<polyline fill="none" stroke="black" points="150,-41.5 271,-41.5 "/>
<text text-anchor="start" x="158" y="-29.5" font-family="Helvetica,sans-Serif" font-size="10.00">+ AllPickeableResult()</text>
<text text-anchor="start" x="158" y="-18.5" font-family="Helvetica,sans-Serif" font-size="10.00">+ result()</text>
<text text-anchor="start" x="158" y="-7.5" font-family="Helvetica,sans-Serif" font-size="10.00">+ result()</text>
</g>
<!-- Node2 -->
<g id="node2" class="node"><title>Node2</title>
<g id="a_node2"><a xlink:href="classcom_1_1tomoparts_1_1tomoBay_1_1model_1_1dataTypes_1_1conditionalStatement_1_1Result.html" target="_top" xlink:title="This class defines the Abstract Base class for all derived Result classes. ">
<polygon fill="white" stroke="black" points="0,-149.5 0,-228.5 145,-228.5 145,-149.5 0,-149.5"/>
<text text-anchor="middle" x="72.5" y="-216.5" font-family="Helvetica,sans-Serif" font-size="10.00">Result&lt; PickeableStatus &gt;</text>
<polyline fill="none" stroke="black" points="0,-209.5 145,-209.5 "/>
<text text-anchor="middle" x="72.5" y="-197.5" font-family="Helvetica,sans-Serif" font-size="10.00"> </text>
<polyline fill="none" stroke="black" points="0,-190.5 145,-190.5 "/>
<text text-anchor="start" x="8" y="-178.5" font-family="Helvetica,sans-Serif" font-size="10.00">+ Result()</text>
<text text-anchor="start" x="8" y="-167.5" font-family="Helvetica,sans-Serif" font-size="10.00">+ result()</text>
<text text-anchor="start" x="8" y="-156.5" font-family="Helvetica,sans-Serif" font-size="10.00">+ result()</text>
</a>
</g>
</g>
<!-- Node2&#45;&gt;Node1 -->
<g id="edge1" class="edge"><title>Node2&#45;&gt;Node1</title>
<path fill="none" stroke="midnightblue" d="M115.798,-141.879C134.581,-121.87 156.33,-98.7027 174.245,-79.6195"/>
<polygon fill="none" stroke="midnightblue" points="113.051,-139.691 108.758,-149.377 118.154,-144.482 113.051,-139.691"/>
</g>
<!-- Node3 -->
<g id="node3" class="node"><title>Node3</title>
<polygon fill="white" stroke="#bfbfbf" points="163,-160.5 163,-217.5 258,-217.5 258,-160.5 163,-160.5"/>
<text text-anchor="middle" x="210.5" y="-205.5" font-family="Helvetica,sans-Serif" font-size="10.00">Set&lt; Boolean &gt;</text>
<polyline fill="none" stroke="#bfbfbf" points="163,-198.5 258,-198.5 "/>
<text text-anchor="middle" x="210.5" y="-186.5" font-family="Helvetica,sans-Serif" font-size="10.00"> </text>
<polyline fill="none" stroke="#bfbfbf" points="163,-179.5 258,-179.5 "/>
<text text-anchor="middle" x="210.5" y="-167.5" font-family="Helvetica,sans-Serif" font-size="10.00"> </text>
</g>
<!-- Node3&#45;&gt;Node1 -->
<g id="edge2" class="edge"><title>Node3&#45;&gt;Node1</title>
<path fill="none" stroke="#404040" d="M210.5,-160.35C210.5,-141.034 210.5,-114.683 210.5,-91.6539"/>
<polygon fill="none" stroke="#404040" points="210.5,-91.6195 206.5,-85.6196 210.5,-79.6195 214.5,-85.6195 210.5,-91.6195"/>
<text text-anchor="middle" x="247.5" y="-101" font-family="Helvetica,sans-Serif" font-size="10.00"> &#45;itemStatus_M</text>
</g>
<!-- Node4 -->
<g id="node4" class="node"><title>Node4</title>
<g id="a_node4"><a xlink:href="classcom_1_1tomoparts_1_1tomoBay_1_1model_1_1dataTypes_1_1conditionalStatement_1_1Conditional.html" target="_top" xlink:title="{Conditional\&lt; com.tomoparts.tomo\lBay.presenters.helpers.pickeability.\lPickeableStatus \&gt;\n||+ Conditional()\l+ evaluate()\l+ evaluate()\l+ startCondition()\l+ startResult()\l}">
<polygon fill="white" stroke="black" points="276.5,-127.5 276.5,-250.5 462.5,-250.5 462.5,-127.5 276.5,-127.5"/>
<text text-anchor="start" x="284.5" y="-238.5" font-family="Helvetica,sans-Serif" font-size="10.00">Conditional&lt; com.tomoparts.tomo</text>
<text text-anchor="start" x="284.5" y="-227.5" font-family="Helvetica,sans-Serif" font-size="10.00">Bay.presenters.helpers.pickeability.</text>
<text text-anchor="middle" x="369.5" y="-216.5" font-family="Helvetica,sans-Serif" font-size="10.00">PickeableStatus &gt;</text>
<polyline fill="none" stroke="black" points="276.5,-209.5 462.5,-209.5 "/>
<text text-anchor="middle" x="369.5" y="-197.5" font-family="Helvetica,sans-Serif" font-size="10.00"> </text>
<polyline fill="none" stroke="black" points="276.5,-190.5 462.5,-190.5 "/>
<text text-anchor="start" x="284.5" y="-178.5" font-family="Helvetica,sans-Serif" font-size="10.00">+ Conditional()</text>
<text text-anchor="start" x="284.5" y="-167.5" font-family="Helvetica,sans-Serif" font-size="10.00">+ evaluate()</text>
<text text-anchor="start" x="284.5" y="-156.5" font-family="Helvetica,sans-Serif" font-size="10.00">+ evaluate()</text>
<text text-anchor="start" x="284.5" y="-145.5" font-family="Helvetica,sans-Serif" font-size="10.00">+ startCondition()</text>
<text text-anchor="start" x="284.5" y="-134.5" font-family="Helvetica,sans-Serif" font-size="10.00">+ startResult()</text>
</a>
</g>
</g>
<!-- Node4&#45;&gt;Node1 -->
<g id="edge3" class="edge"><title>Node4&#45;&gt;Node1</title>
<path fill="none" stroke="#404040" d="M318.005,-127.279C308.539,-117.151 298.485,-107.017 288.5,-98 284.542,-94.4256 280.364,-90.8598 276.082,-87.3556"/>
<polygon fill="none" stroke="#404040" points="275.977,-87.2723 268.791,-86.6684 266.585,-79.8031 273.771,-80.407 275.977,-87.2723"/>
<text text-anchor="middle" x="338" y="-101" font-family="Helvetica,sans-Serif" font-size="10.00"> &#45;nextHandler_M</text>
</g>
</g>
</svg>
