<?xml version="1.0" encoding="UTF-8" standalone="no"?>
<!DOCTYPE svg PUBLIC "-//W3C//DTD SVG 1.1//EN"
 "http://www.w3.org/Graphics/SVG/1.1/DTD/svg11.dtd">
<!-- Generated by graphviz version 2.38.0 (20140413.2041)
 -->
<!-- Title: validate Pages: 1 -->
<svg width="449pt" height="258pt"
 viewBox="0.00 0.00 449.00 257.50" xmlns="http://www.w3.org/2000/svg" xmlns:xlink="http://www.w3.org/1999/xlink">
<g id="graph0" class="graph" transform="scale(1 1) rotate(0) translate(4 253.5)">
<title>validate</title>
<polygon fill="white" stroke="none" points="-4,4 -4,-253.5 445,-253.5 445,4 -4,4"/>
<!-- Node1 -->
<g id="node1" class="node"><title>Node1</title>
<polygon fill="#bfbfbf" stroke="black" points="0,-126.5 0,-145.5 54,-145.5 54,-126.5 0,-126.5"/>
<text text-anchor="middle" x="27" y="-133.5" font-family="Helvetica,sans-Serif" font-size="10.00">validate</text>
</g>
<!-- Node2 -->
<g id="node2" class="node"><title>Node2</title>
<g id="a_node2"><a xlink:href="classcom_1_1tomoparts_1_1tomoBay_1_1model_1_1royalMail_1_1RoyalMailCSVGenerator.html#a4448e544d88b5d685f92e50cf8c3067d" target="_top" xlink:title="Adds a row of data to the CSV and checks the validity of the data against the specification defined i...">
<polygon fill="white" stroke="black" points="90,-126.5 90,-145.5 143,-145.5 143,-126.5 90,-126.5"/>
<text text-anchor="middle" x="116.5" y="-133.5" font-family="Helvetica,sans-Serif" font-size="10.00">addRow</text>
</a>
</g>
</g>
<!-- Node1&#45;&gt;Node2 -->
<g id="edge1" class="edge"><title>Node1&#45;&gt;Node2</title>
<path fill="none" stroke="midnightblue" d="M64.4053,-136C72.9602,-136 81.9008,-136 89.8678,-136"/>
<polygon fill="midnightblue" stroke="midnightblue" points="64.2529,-132.5 54.2529,-136 64.2529,-139.5 64.2529,-132.5"/>
</g>
<!-- Node3 -->
<g id="node3" class="node"><title>Node3</title>
<g id="a_node3"><a xlink:href="classcom_1_1tomoparts_1_1tomoBay_1_1test_1_1unit_1_1model_1_1royalMail_1_1RoyalMailCSVGeneratorTest.html#a66e66076494011bb61c1f78024b4527c" target="_top" xlink:title="com.tomoparts.tomoBay.test.unit.model.royal\lMail.RoyalMailCSVGeneratorTest.testAddRow">
<polygon fill="white" stroke="black" points="190.5,-219 190.5,-249 429.5,-249 429.5,-219 190.5,-219"/>
<text text-anchor="start" x="198.5" y="-237" font-family="Helvetica,sans-Serif" font-size="10.00">com.tomoparts.tomoBay.test.unit.model.royal</text>
<text text-anchor="middle" x="310" y="-226" font-family="Helvetica,sans-Serif" font-size="10.00">Mail.RoyalMailCSVGeneratorTest.testAddRow</text>
</a>
</g>
</g>
<!-- Node2&#45;&gt;Node3 -->
<g id="edge2" class="edge"><title>Node2&#45;&gt;Node3</title>
<path fill="none" stroke="midnightblue" d="M127.795,-154.641C138.331,-171.864 156.349,-196.729 179,-210 184.842,-213.423 191.063,-216.375 197.5,-218.92"/>
<polygon fill="midnightblue" stroke="midnightblue" points="130.54,-152.402 122.477,-145.529 124.495,-155.93 130.54,-152.402"/>
</g>
<!-- Node4 -->
<g id="node4" class="node"><title>Node4</title>
<g id="a_node4"><a xlink:href="classcom_1_1tomoparts_1_1tomoBay_1_1test_1_1unit_1_1model_1_1royalMail_1_1RoyalMailCSVGeneratorTest.html#a1036d4ad1717e3668e1b92b56dbf09df" target="_top" xlink:title="com.tomoparts.tomoBay.test.unit.model.royal\lMail.RoyalMailCSVGeneratorTest.testGenerate">
<polygon fill="white" stroke="black" points="190.5,-170 190.5,-200 429.5,-200 429.5,-170 190.5,-170"/>
<text text-anchor="start" x="198.5" y="-188" font-family="Helvetica,sans-Serif" font-size="10.00">com.tomoparts.tomoBay.test.unit.model.royal</text>
<text text-anchor="middle" x="310" y="-177" font-family="Helvetica,sans-Serif" font-size="10.00">Mail.RoyalMailCSVGeneratorTest.testGenerate</text>
</a>
</g>
</g>
<!-- Node2&#45;&gt;Node4 -->
<g id="edge3" class="edge"><title>Node2&#45;&gt;Node4</title>
<path fill="none" stroke="midnightblue" d="M147.33,-149.55C157.253,-153.672 168.463,-157.92 179,-161 190.455,-164.348 202.621,-167.326 214.735,-169.946"/>
<polygon fill="midnightblue" stroke="midnightblue" points="148.478,-146.235 137.908,-145.519 145.725,-152.67 148.478,-146.235"/>
</g>
<!-- Node5 -->
<g id="node5" class="node"><title>Node5</title>
<g id="a_node5"><a xlink:href="classcom_1_1tomoparts_1_1tomoBay_1_1test_1_1unit_1_1model_1_1royalMail_1_1RoyalMailCSVGeneratorTest.html#a4f16e86bb3ba3d0c933b524c43a83bea" target="_top" xlink:title="com.tomoparts.tomoBay.test.unit.model.royal\lMail.RoyalMailCSVGeneratorTest.testSetseparators">
<polygon fill="white" stroke="black" points="179,-121 179,-151 441,-151 441,-121 179,-121"/>
<text text-anchor="start" x="187" y="-139" font-family="Helvetica,sans-Serif" font-size="10.00">com.tomoparts.tomoBay.test.unit.model.royal</text>
<text text-anchor="middle" x="310" y="-128" font-family="Helvetica,sans-Serif" font-size="10.00">Mail.RoyalMailCSVGeneratorTest.testSetseparators</text>
</a>
</g>
</g>
<!-- Node2&#45;&gt;Node5 -->
<g id="edge4" class="edge"><title>Node2&#45;&gt;Node5</title>
<path fill="none" stroke="midnightblue" d="M153.59,-136C161.28,-136 169.824,-136 178.837,-136"/>
<polygon fill="midnightblue" stroke="midnightblue" points="153.327,-132.5 143.327,-136 153.327,-139.5 153.327,-132.5"/>
</g>
<!-- Node6 -->
<g id="node6" class="node"><title>Node6</title>
<g id="a_node6"><a xlink:href="classcom_1_1tomoparts_1_1tomoBay_1_1test_1_1unit_1_1model_1_1royalMail_1_1RoyalMailCSVGeneratorTest.html#a228f0f1aaa740933e1ee5526464b0d4e" target="_top" xlink:title="com.tomoparts.tomoBay.test.unit.model.royal\lMail.RoyalMailCSVGeneratorTest.testToString\lBadInput">
<polygon fill="white" stroke="black" points="190.5,-60.5 190.5,-101.5 429.5,-101.5 429.5,-60.5 190.5,-60.5"/>
<text text-anchor="start" x="198.5" y="-89.5" font-family="Helvetica,sans-Serif" font-size="10.00">com.tomoparts.tomoBay.test.unit.model.royal</text>
<text text-anchor="start" x="198.5" y="-78.5" font-family="Helvetica,sans-Serif" font-size="10.00">Mail.RoyalMailCSVGeneratorTest.testToString</text>
<text text-anchor="middle" x="310" y="-67.5" font-family="Helvetica,sans-Serif" font-size="10.00">BadInput</text>
</a>
</g>
</g>
<!-- Node2&#45;&gt;Node6 -->
<g id="edge5" class="edge"><title>Node2&#45;&gt;Node6</title>
<path fill="none" stroke="midnightblue" d="M149.184,-122.672C158.677,-118.942 169.176,-115.072 179,-112 190.847,-108.295 203.421,-104.785 215.899,-101.55"/>
<polygon fill="midnightblue" stroke="midnightblue" points="147.703,-119.495 139.727,-126.47 150.311,-125.991 147.703,-119.495"/>
</g>
<!-- Node7 -->
<g id="node7" class="node"><title>Node7</title>
<g id="a_node7"><a xlink:href="classcom_1_1tomoparts_1_1tomoBay_1_1test_1_1unit_1_1model_1_1royalMail_1_1RoyalMailCSVGeneratorTest.html#aa785bc5cc98af5c4ec7210ac0e314af4" target="_top" xlink:title="com.tomoparts.tomoBay.test.unit.model.royal\lMail.RoyalMailCSVGeneratorTest.testToString\lGoodInput">
<polygon fill="white" stroke="black" points="190.5,-0.5 190.5,-41.5 429.5,-41.5 429.5,-0.5 190.5,-0.5"/>
<text text-anchor="start" x="198.5" y="-29.5" font-family="Helvetica,sans-Serif" font-size="10.00">com.tomoparts.tomoBay.test.unit.model.royal</text>
<text text-anchor="start" x="198.5" y="-18.5" font-family="Helvetica,sans-Serif" font-size="10.00">Mail.RoyalMailCSVGeneratorTest.testToString</text>
<text text-anchor="middle" x="310" y="-7.5" font-family="Helvetica,sans-Serif" font-size="10.00">GoodInput</text>
</a>
</g>
</g>
<!-- Node2&#45;&gt;Node7 -->
<g id="edge6" class="edge"><title>Node2&#45;&gt;Node7</title>
<path fill="none" stroke="midnightblue" d="M126.065,-117.174C135.979,-97.5669 154.182,-67.4604 179,-51 184.308,-47.4793 189.976,-44.3689 195.865,-41.6211"/>
<polygon fill="midnightblue" stroke="midnightblue" points="122.835,-115.815 121.645,-126.343 129.14,-118.855 122.835,-115.815"/>
</g>
</g>
</svg>
