<?xml version="1.0" encoding="UTF-8" standalone="no"?>
<!DOCTYPE svg PUBLIC "-//W3C//DTD SVG 1.1//EN"
 "http://www.w3.org/Graphics/SVG/1.1/DTD/svg11.dtd">
<!-- Generated by graphviz version 2.38.0 (20140413.2041)
 -->
<!-- Title: send Pages: 1 -->
<svg width="626pt" height="78pt"
 viewBox="0.00 0.00 626.00 77.50" xmlns="http://www.w3.org/2000/svg" xmlns:xlink="http://www.w3.org/1999/xlink">
<g id="graph0" class="graph" transform="scale(1 1) rotate(0) translate(4 73.5)">
<title>send</title>
<polygon fill="white" stroke="none" points="-4,4 -4,-73.5 622,-73.5 622,4 -4,4"/>
<!-- Node1 -->
<g id="node1" class="node"><title>Node1</title>
<polygon fill="#bfbfbf" stroke="black" points="0,-22.5 0,-41.5 40,-41.5 40,-22.5 0,-22.5"/>
<text text-anchor="middle" x="20" y="-29.5" font-family="Helvetica,sans-Serif" font-size="10.00">send</text>
</g>
<!-- Node2 -->
<g id="node2" class="node"><title>Node2</title>
<g id="a_node2"><a xlink:href="classcom_1_1tomoparts_1_1tomoBay_1_1presenters_1_1presenterActions_1_1concreteActions_1_1InvoiceOrders.html#a9c77c827472e4f09aa020d55e7d33b10" target="_top" xlink:title="com.tomoparts.tomoBay.presenters.presenter\lActions.concreteActions.InvoiceOrders.emailResults">
<polygon fill="white" stroke="black" points="76,-39 76,-69 340,-69 340,-39 76,-39"/>
<text text-anchor="start" x="84" y="-57" font-family="Helvetica,sans-Serif" font-size="10.00">com.tomoparts.tomoBay.presenters.presenter</text>
<text text-anchor="middle" x="208" y="-46" font-family="Helvetica,sans-Serif" font-size="10.00">Actions.concreteActions.InvoiceOrders.emailResults</text>
</a>
</g>
</g>
<!-- Node1&#45;&gt;Node2 -->
<g id="edge1" class="edge"><title>Node1&#45;&gt;Node2</title>
<path fill="none" stroke="midnightblue" d="M50.4163,-35.4793C59.1227,-36.5091 69.2556,-37.7077 80.1011,-38.9905"/>
<polygon fill="midnightblue" stroke="midnightblue" points="50.5466,-31.9704 40.2047,-34.2715 49.7243,-38.922 50.5466,-31.9704"/>
</g>
<!-- Node4 -->
<g id="node4" class="node"><title>Node4</title>
<g id="a_node4"><a xlink:href="classcom_1_1tomoparts_1_1tomoBay_1_1model_1_1net_1_1email_1_1MailClient.html#a9a353e90e57af1d4968845017c4d6fa8" target="_top" xlink:title="MailClient">
<polygon fill="white" stroke="black" points="177,-0.5 177,-19.5 239,-19.5 239,-0.5 177,-0.5"/>
<text text-anchor="middle" x="208" y="-7.5" font-family="Helvetica,sans-Serif" font-size="10.00">MailClient</text>
</a>
</g>
</g>
<!-- Node1&#45;&gt;Node4 -->
<g id="edge3" class="edge"><title>Node1&#45;&gt;Node4</title>
<path fill="none" stroke="midnightblue" d="M50.1445,-28.5528C84.6839,-24.4675 141.945,-17.6947 176.898,-13.5605"/>
<polygon fill="midnightblue" stroke="midnightblue" points="49.7243,-25.078 40.2047,-29.7285 50.5466,-32.0296 49.7243,-25.078"/>
</g>
<!-- Node3 -->
<g id="node3" class="node"><title>Node3</title>
<g id="a_node3"><a xlink:href="classcom_1_1tomoparts_1_1tomoBay_1_1presenters_1_1presenterActions_1_1concreteActions_1_1InvoiceOrders.html#adb3dedf31dc2c7fc796f20406c235ccd" target="_top" xlink:title="performs the action specified ">
<polygon fill="white" stroke="black" points="376,-39 376,-69 618,-69 618,-39 376,-39"/>
<text text-anchor="start" x="384" y="-57" font-family="Helvetica,sans-Serif" font-size="10.00">com.tomoparts.tomoBay.presenters.presenter</text>
<text text-anchor="middle" x="497" y="-46" font-family="Helvetica,sans-Serif" font-size="10.00">Actions.concreteActions.InvoiceOrders.execute</text>
</a>
</g>
</g>
<!-- Node2&#45;&gt;Node3 -->
<g id="edge2" class="edge"><title>Node2&#45;&gt;Node3</title>
<path fill="none" stroke="midnightblue" d="M350.581,-54C359.002,-54 367.432,-54 375.754,-54"/>
<polygon fill="midnightblue" stroke="midnightblue" points="350.321,-50.5001 340.321,-54 350.321,-57.5001 350.321,-50.5001"/>
</g>
</g>
</svg>
