<?xml version="1.0" encoding="UTF-8" standalone="no"?>
<!DOCTYPE svg PUBLIC "-//W3C//DTD SVG 1.1//EN"
 "http://www.w3.org/Graphics/SVG/1.1/DTD/svg11.dtd">
<!-- Generated by graphviz version 2.38.0 (20140413.2041)
 -->
<!-- Title: addRow Pages: 1 -->
<svg width="162pt" height="66pt"
 viewBox="0.00 0.00 162.00 66.00" xmlns="http://www.w3.org/2000/svg" xmlns:xlink="http://www.w3.org/1999/xlink">
<g id="graph0" class="graph" transform="scale(1 1) rotate(0) translate(4 62)">
<title>addRow</title>
<polygon fill="white" stroke="none" points="-4,4 -4,-62 158,-62 158,4 -4,4"/>
<!-- Node1 -->
<g id="node1" class="node"><title>Node1</title>
<polygon fill="#bfbfbf" stroke="black" points="0,-19.5 0,-38.5 53,-38.5 53,-19.5 0,-19.5"/>
<text text-anchor="middle" x="26.5" y="-26.5" font-family="Helvetica,sans-Serif" font-size="10.00">addRow</text>
</g>
<!-- Node2 -->
<g id="node2" class="node"><title>Node2</title>
<g id="a_node2"><a xlink:href="classcom_1_1tomoparts_1_1tomoBay_1_1model_1_1royalMail_1_1RoyalMailCSVGenerator.html#ac6e1d2426364f8d09ac1c89843b1a0ae" target="_top" xlink:title="make sure that the two arrays are the same length ">
<polygon fill="white" stroke="black" points="89,-38.5 89,-57.5 154,-57.5 154,-38.5 89,-38.5"/>
<text text-anchor="middle" x="121.5" y="-45.5" font-family="Helvetica,sans-Serif" font-size="10.00">checkSize</text>
</a>
</g>
</g>
<!-- Node1&#45;&gt;Node2 -->
<g id="edge1" class="edge"><title>Node1&#45;&gt;Node2</title>
<path fill="none" stroke="midnightblue" d="M53.4057,-34.2926C61.2862,-35.9026 70.1556,-37.7146 78.8013,-39.4809"/>
<polygon fill="midnightblue" stroke="midnightblue" points="78.2769,-42.946 88.7751,-41.5186 79.6781,-36.0877 78.2769,-42.946"/>
</g>
<!-- Node3 -->
<g id="node3" class="node"><title>Node3</title>
<g id="a_node3"><a xlink:href="classcom_1_1tomoparts_1_1tomoBay_1_1model_1_1royalMail_1_1RoyalMailCSVGenerator.html#acc1df516e966b1769cf2b4752134ee60" target="_top" xlink:title="Use the validation data pulled from the config file at construction time and make sure that the data ...">
<polygon fill="white" stroke="black" points="94.5,-0.5 94.5,-19.5 148.5,-19.5 148.5,-0.5 94.5,-0.5"/>
<text text-anchor="middle" x="121.5" y="-7.5" font-family="Helvetica,sans-Serif" font-size="10.00">validate</text>
</a>
</g>
</g>
<!-- Node1&#45;&gt;Node3 -->
<g id="edge2" class="edge"><title>Node1&#45;&gt;Node3</title>
<path fill="none" stroke="midnightblue" d="M53.4057,-23.7074C62.9993,-21.7474 74.0586,-19.488 84.3956,-17.3762"/>
<polygon fill="midnightblue" stroke="midnightblue" points="85.3137,-20.761 94.4107,-15.3301 83.9125,-13.9026 85.3137,-20.761"/>
</g>
</g>
</svg>
