<?xml version="1.0" encoding="UTF-8" standalone="no"?>
<!DOCTYPE svg PUBLIC "-//W3C//DTD SVG 1.1//EN"
 "http://www.w3.org/Graphics/SVG/1.1/DTD/svg11.dtd">
<!-- Generated by graphviz version 2.38.0 (20140413.2041)
 -->
<!-- Title: Email Pages: 1 -->
<svg width="180pt" height="226pt"
 viewBox="0.00 0.00 180.00 226.00" xmlns="http://www.w3.org/2000/svg" xmlns:xlink="http://www.w3.org/1999/xlink">
<g id="graph0" class="graph" transform="scale(1 1) rotate(0) translate(4 222)">
<title>Email</title>
<polygon fill="white" stroke="none" points="-4,4 -4,-222 176,-222 176,4 -4,4"/>
<!-- Node1 -->
<g id="node1" class="node"><title>Node1</title>
<polygon fill="#bfbfbf" stroke="black" points="31,-0.5 31,-101.5 141,-101.5 141,-0.5 31,-0.5"/>
<text text-anchor="middle" x="86" y="-89.5" font-family="Helvetica,sans-Serif" font-size="10.00">Email</text>
<polyline fill="none" stroke="black" points="31,-82.5 141,-82.5 "/>
<text text-anchor="start" x="39" y="-70.5" font-family="Helvetica,sans-Serif" font-size="10.00"># subject_M</text>
<text text-anchor="start" x="39" y="-59.5" font-family="Helvetica,sans-Serif" font-size="10.00"># messageBody_M</text>
<polyline fill="none" stroke="black" points="31,-52.5 141,-52.5 "/>
<text text-anchor="start" x="39" y="-40.5" font-family="Helvetica,sans-Serif" font-size="10.00">+ setRecipient()</text>
<text text-anchor="start" x="39" y="-29.5" font-family="Helvetica,sans-Serif" font-size="10.00">+ setSubject()</text>
<text text-anchor="start" x="39" y="-18.5" font-family="Helvetica,sans-Serif" font-size="10.00">+ setMessage()</text>
<text text-anchor="start" x="39" y="-7.5" font-family="Helvetica,sans-Serif" font-size="10.00"># Email()</text>
</g>
<!-- Node2 -->
<g id="node2" class="node"><title>Node2</title>
<polygon fill="white" stroke="#bfbfbf" points="0,-149.5 0,-217.5 172,-217.5 172,-149.5 0,-149.5"/>
<text text-anchor="start" x="8" y="-205.5" font-family="Helvetica,sans-Serif" font-size="10.00">Map&lt; String, Message.Recipient</text>
<text text-anchor="middle" x="86" y="-194.5" font-family="Helvetica,sans-Serif" font-size="10.00">Type &gt;</text>
<polyline fill="none" stroke="#bfbfbf" points="0,-187.5 172,-187.5 "/>
<text text-anchor="middle" x="86" y="-175.5" font-family="Helvetica,sans-Serif" font-size="10.00"> </text>
<polyline fill="none" stroke="#bfbfbf" points="0,-168.5 172,-168.5 "/>
<text text-anchor="middle" x="86" y="-156.5" font-family="Helvetica,sans-Serif" font-size="10.00"> </text>
</g>
<!-- Node2&#45;&gt;Node1 -->
<g id="edge1" class="edge"><title>Node2&#45;&gt;Node1</title>
<path fill="none" stroke="#404040" d="M86,-149.232C86,-138.471 86,-126.168 86,-114.015"/>
<polygon fill="none" stroke="#404040" points="86.0001,-113.975 82,-107.975 86,-101.975 90,-107.975 86.0001,-113.975"/>
<text text-anchor="middle" x="122" y="-123" font-family="Helvetica,sans-Serif" font-size="10.00"> #recipients_M</text>
</g>
</g>
</svg>
