<?xml version="1.0" encoding="UTF-8" standalone="no"?>
<!DOCTYPE svg PUBLIC "-//W3C//DTD SVG 1.1//EN"
 "http://www.w3.org/Graphics/SVG/1.1/DTD/svg11.dtd">
<!-- Generated by graphviz version 2.38.0 (20140413.2041)
 -->
<!-- Title: populate Pages: 1 -->
<svg width="841pt" height="158pt"
 viewBox="0.00 0.00 841.00 157.65" xmlns="http://www.w3.org/2000/svg" xmlns:xlink="http://www.w3.org/1999/xlink">
<g id="graph0" class="graph" transform="scale(1 1) rotate(0) translate(4 153.653)">
<title>populate</title>
<polygon fill="white" stroke="none" points="-4,4 -4,-153.653 837,-153.653 837,4 -4,4"/>
<!-- Node1 -->
<g id="node1" class="node"><title>Node1</title>
<polygon fill="#bfbfbf" stroke="black" points="0,-68.5 0,-87.5 59,-87.5 59,-68.5 0,-68.5"/>
<text text-anchor="middle" x="29.5" y="-75.5" font-family="Helvetica,sans-Serif" font-size="10.00">populate</text>
</g>
<!-- Node2 -->
<g id="node2" class="node"><title>Node2</title>
<g id="a_node2"><a xlink:href="classcom_1_1tomoparts_1_1tomoBay_1_1model_1_1dataTypes_1_1heteroTypeContainer_1_1HeteroFieldContainer.html#a3ba6289417930238a36bfee0056b6398" target="_top" xlink:title="add an arbitrary value to this Field container with the stipulation that this value is of the same ty...">
<polygon fill="white" stroke="black" points="385,-57.5 385,-98.5 591,-98.5 591,-57.5 385,-57.5"/>
<text text-anchor="start" x="393" y="-86.5" font-family="Helvetica,sans-Serif" font-size="10.00">com.tomoparts.tomoBay.model.data</text>
<text text-anchor="start" x="393" y="-75.5" font-family="Helvetica,sans-Serif" font-size="10.00">Types.heteroTypeContainer.HeteroField</text>
<text text-anchor="middle" x="488" y="-64.5" font-family="Helvetica,sans-Serif" font-size="10.00">Container.add</text>
</a>
</g>
</g>
<!-- Node1&#45;&gt;Node2 -->
<g id="edge1" class="edge"><title>Node1&#45;&gt;Node2</title>
<path fill="none" stroke="midnightblue" d="M38.9342,-87.6467C50.2599,-99.7878 71.6748,-120.018 95,-128 201.808,-164.55 237.812,-147.522 349,-128 377.709,-122.959 408.315,-112.441 433.389,-102.346"/>
<polygon fill="midnightblue" stroke="midnightblue" points="434.797,-105.551 442.713,-98.5099 432.134,-99.0779 434.797,-105.551"/>
</g>
<!-- Node4 -->
<g id="node4" class="node"><title>Node4</title>
<g id="a_node4"><a xlink:href="classcom_1_1tomoparts_1_1tomoBay_1_1model_1_1sql_1_1framework_1_1ModifyQueryInvoker.html#ab8ef0fdf15f6720620e297c77ab25d46" target="_top" xlink:title="com.tomoparts.tomoBay.model.sql.framework.\lModifyQueryInvoker.execute">
<polygon fill="white" stroke="black" points="100.5,-88 100.5,-118 343.5,-118 343.5,-88 100.5,-88"/>
<text text-anchor="start" x="108.5" y="-106" font-family="Helvetica,sans-Serif" font-size="10.00">com.tomoparts.tomoBay.model.sql.framework.</text>
<text text-anchor="middle" x="222" y="-95" font-family="Helvetica,sans-Serif" font-size="10.00">ModifyQueryInvoker.execute</text>
</a>
</g>
</g>
<!-- Node1&#45;&gt;Node4 -->
<g id="edge3" class="edge"><title>Node1&#45;&gt;Node4</title>
<path fill="none" stroke="midnightblue" d="M59.0198,-81.7428C69.6272,-83.1348 82.4534,-84.818 96.1901,-86.6208"/>
<polygon fill="midnightblue" stroke="midnightblue" points="95.9644,-90.1211 106.335,-87.9521 96.8753,-83.1806 95.9644,-90.1211"/>
</g>
<!-- Node5 -->
<g id="node5" class="node"><title>Node5</title>
<g id="a_node5"><a xlink:href="classcom_1_1tomoparts_1_1tomoBay_1_1model_1_1services_1_1helpers_1_1EbayOrderCancellationStatus.html#a3cfcc32627a105c95774cf20bdfeb062" target="_top" xlink:title="return the true/false value associated with a particular cancellation status. ">
<polygon fill="white" stroke="black" points="95,-39 95,-69 349,-69 349,-39 95,-39"/>
<text text-anchor="start" x="103" y="-57" font-family="Helvetica,sans-Serif" font-size="10.00">com.tomoparts.tomoBay.model.services.helpers.</text>
<text text-anchor="middle" x="222" y="-46" font-family="Helvetica,sans-Serif" font-size="10.00">EbayOrderCancellationStatus.isCancelled</text>
</a>
</g>
</g>
<!-- Node1&#45;&gt;Node5 -->
<g id="edge4" class="edge"><title>Node1&#45;&gt;Node5</title>
<path fill="none" stroke="midnightblue" d="M59.0198,-74.407C68.4262,-73.2219 79.5775,-71.817 91.5613,-70.3072"/>
<polygon fill="midnightblue" stroke="midnightblue" points="92.3194,-73.7395 101.803,-69.0169 91.4444,-66.7944 92.3194,-73.7395"/>
</g>
<!-- Node6 -->
<g id="node6" class="node"><title>Node6</title>
<g id="a_node6"><a xlink:href="classcom_1_1tomoparts_1_1tomoBay_1_1model_1_1services_1_1basicEbayUpdateService_1_1Orders__Table.html#a40270d6bbca5a7946a70598b1f465f85" target="_top" xlink:title="populateGSP">
<polygon fill="white" stroke="black" points="182.5,-0.5 182.5,-19.5 261.5,-19.5 261.5,-0.5 182.5,-0.5"/>
<text text-anchor="middle" x="222" y="-7.5" font-family="Helvetica,sans-Serif" font-size="10.00">populateGSP</text>
</a>
</g>
</g>
<!-- Node1&#45;&gt;Node6 -->
<g id="edge5" class="edge"><title>Node1&#45;&gt;Node6</title>
<path fill="none" stroke="midnightblue" d="M40.4637,-68.1102C52.364,-56.9292 73.3881,-39.1015 95,-30 119.38,-19.7326 148.438,-14.6923 172.501,-12.2367"/>
<polygon fill="midnightblue" stroke="midnightblue" points="172.836,-15.7208 182.48,-11.3348 172.206,-8.74919 172.836,-15.7208"/>
</g>
<!-- Node3 -->
<g id="node3" class="node"><title>Node3</title>
<g id="a_node3"><a xlink:href="classcom_1_1tomoparts_1_1tomoBay_1_1model_1_1dataTypes_1_1heteroTypeContainer_1_1HeteroFieldContainer.html#a9dee3c01eb5ab16203e1c6820a569484" target="_top" xlink:title="performs a type check, assuming that field and type are of the same type then this method returns tru...">
<polygon fill="white" stroke="black" points="627,-57.5 627,-98.5 833,-98.5 833,-57.5 627,-57.5"/>
<text text-anchor="start" x="635" y="-86.5" font-family="Helvetica,sans-Serif" font-size="10.00">com.tomoparts.tomoBay.model.data</text>
<text text-anchor="start" x="635" y="-75.5" font-family="Helvetica,sans-Serif" font-size="10.00">Types.heteroTypeContainer.HeteroField</text>
<text text-anchor="middle" x="730" y="-64.5" font-family="Helvetica,sans-Serif" font-size="10.00">Container.isSameType</text>
</a>
</g>
</g>
<!-- Node2&#45;&gt;Node3 -->
<g id="edge2" class="edge"><title>Node2&#45;&gt;Node3</title>
<path fill="none" stroke="midnightblue" d="M591.13,-78C599.658,-78 608.309,-78 616.906,-78"/>
<polygon fill="midnightblue" stroke="midnightblue" points="616.962,-81.5001 626.962,-78 616.962,-74.5001 616.962,-81.5001"/>
</g>
<!-- Node6&#45;&gt;Node2 -->
<g id="edge6" class="edge"><title>Node6&#45;&gt;Node2</title>
<path fill="none" stroke="midnightblue" d="M261.681,-14.335C286.794,-17.5909 320.107,-22.7431 349,-30 374.407,-36.3814 401.773,-45.4255 425.382,-53.9455"/>
<polygon fill="midnightblue" stroke="midnightblue" points="424.318,-57.2831 434.912,-57.429 426.722,-50.7085 424.318,-57.2831"/>
</g>
</g>
</svg>
