<?xml version="1.0" encoding="UTF-8" standalone="no"?>
<!DOCTYPE svg PUBLIC "-//W3C//DTD SVG 1.1//EN"
 "http://www.w3.org/Graphics/SVG/1.1/DTD/svg11.dtd">
<!-- Generated by graphviz version 2.38.0 (20140413.2041)
 -->
<!-- Title: InsertEbayBuyersFactory Pages: 1 -->
<svg width="162pt" height="370pt"
 viewBox="0.00 0.00 162.00 370.00" xmlns="http://www.w3.org/2000/svg" xmlns:xlink="http://www.w3.org/1999/xlink">
<g id="graph0" class="graph" transform="scale(1 1) rotate(0) translate(4 366)">
<title>InsertEbayBuyersFactory</title>
<polygon fill="white" stroke="none" points="-4,4 -4,-366 158,-366 158,4 -4,4"/>
<!-- Node1 -->
<g id="node1" class="node"><title>Node1</title>
<polygon fill="#bfbfbf" stroke="black" points="0,-0.5 0,-68.5 154,-68.5 154,-0.5 0,-0.5"/>
<text text-anchor="middle" x="77" y="-56.5" font-family="Helvetica,sans-Serif" font-size="10.00">InsertEbayBuyersFactory</text>
<polyline fill="none" stroke="black" points="0,-49.5 154,-49.5 "/>
<text text-anchor="middle" x="77" y="-37.5" font-family="Helvetica,sans-Serif" font-size="10.00"> </text>
<polyline fill="none" stroke="black" points="0,-30.5 154,-30.5 "/>
<text text-anchor="start" x="8" y="-18.5" font-family="Helvetica,sans-Serif" font-size="10.00">+ InsertEbayBuyersFactory()</text>
<text text-anchor="start" x="8" y="-7.5" font-family="Helvetica,sans-Serif" font-size="10.00">+ make()</text>
</g>
<!-- Node2 -->
<g id="node2" class="node"><title>Node2</title>
<g id="a_node2"><a xlink:href="interfacecom_1_1tomoparts_1_1tomoBay_1_1model_1_1sql_1_1framework_1_1queryFactories_1_1AbstractModifyQueryParamsFactory.html" target="_top" xlink:title="{AbstractModifyQueryParams\lFactory\n||+ make()\l}">
<polygon fill="white" stroke="black" points="0.5,-105.5 0.5,-173.5 153.5,-173.5 153.5,-105.5 0.5,-105.5"/>
<text text-anchor="start" x="8.5" y="-161.5" font-family="Helvetica,sans-Serif" font-size="10.00">AbstractModifyQueryParams</text>
<text text-anchor="middle" x="77" y="-150.5" font-family="Helvetica,sans-Serif" font-size="10.00">Factory</text>
<polyline fill="none" stroke="black" points="0.5,-143.5 153.5,-143.5 "/>
<text text-anchor="middle" x="77" y="-131.5" font-family="Helvetica,sans-Serif" font-size="10.00"> </text>
<polyline fill="none" stroke="black" points="0.5,-124.5 153.5,-124.5 "/>
<text text-anchor="start" x="8.5" y="-112.5" font-family="Helvetica,sans-Serif" font-size="10.00">+ make()</text>
</a>
</g>
</g>
<!-- Node2&#45;&gt;Node1 -->
<g id="edge1" class="edge"><title>Node2&#45;&gt;Node1</title>
<path fill="none" stroke="midnightblue" d="M77,-95.1362C77,-86.256 77,-77.0447 77,-68.5947"/>
<polygon fill="none" stroke="midnightblue" points="73.5001,-95.3432 77,-105.343 80.5001,-95.3432 73.5001,-95.3432"/>
</g>
<!-- Node3 -->
<g id="node3" class="node"><title>Node3</title>
<g id="a_node3"><a xlink:href="interfacecom_1_1tomoparts_1_1tomoBay_1_1model_1_1sql_1_1framework_1_1queryFactories_1_1AbstractModifyQueryFactory.html" target="_top" xlink:title="{AbstractModifyQueryFactory\n||+ make()\l}">
<polygon fill="white" stroke="black" points="1,-210.5 1,-267.5 153,-267.5 153,-210.5 1,-210.5"/>
<text text-anchor="middle" x="77" y="-255.5" font-family="Helvetica,sans-Serif" font-size="10.00">AbstractModifyQueryFactory</text>
<polyline fill="none" stroke="black" points="1,-248.5 153,-248.5 "/>
<text text-anchor="middle" x="77" y="-236.5" font-family="Helvetica,sans-Serif" font-size="10.00"> </text>
<polyline fill="none" stroke="black" points="1,-229.5 153,-229.5 "/>
<text text-anchor="start" x="9" y="-217.5" font-family="Helvetica,sans-Serif" font-size="10.00">+ make()</text>
</a>
</g>
</g>
<!-- Node3&#45;&gt;Node2 -->
<g id="edge2" class="edge"><title>Node3&#45;&gt;Node2</title>
<path fill="none" stroke="midnightblue" d="M77,-200.063C77,-191.393 77,-182.243 77,-173.786"/>
<polygon fill="none" stroke="midnightblue" points="73.5001,-200.321 77,-210.321 80.5001,-200.321 73.5001,-200.321"/>
</g>
<!-- Node4 -->
<g id="node4" class="node"><title>Node4</title>
<g id="a_node4"><a xlink:href="interfacecom_1_1tomoparts_1_1tomoBay_1_1model_1_1sql_1_1framework_1_1queryFactories_1_1AbstractQueryFactory.html" target="_top" xlink:title="all Queries are instantiated using a factory and each of these factories must conform to this interfa...">
<polygon fill="white" stroke="black" points="16.5,-304.5 16.5,-361.5 137.5,-361.5 137.5,-304.5 16.5,-304.5"/>
<text text-anchor="middle" x="77" y="-349.5" font-family="Helvetica,sans-Serif" font-size="10.00">AbstractQueryFactory</text>
<polyline fill="none" stroke="black" points="16.5,-342.5 137.5,-342.5 "/>
<text text-anchor="middle" x="77" y="-330.5" font-family="Helvetica,sans-Serif" font-size="10.00"> </text>
<polyline fill="none" stroke="black" points="16.5,-323.5 137.5,-323.5 "/>
<text text-anchor="start" x="24.5" y="-311.5" font-family="Helvetica,sans-Serif" font-size="10.00">+ make()</text>
</a>
</g>
</g>
<!-- Node4&#45;&gt;Node3 -->
<g id="edge3" class="edge"><title>Node4&#45;&gt;Node3</title>
<path fill="none" stroke="midnightblue" d="M77,-294.209C77,-285.293 77,-275.951 77,-267.584"/>
<polygon fill="none" stroke="midnightblue" points="73.5001,-294.397 77,-304.397 80.5001,-294.397 73.5001,-294.397"/>
</g>
</g>
</svg>
