<?xml version="1.0" encoding="UTF-8" standalone="no"?>
<!DOCTYPE svg PUBLIC "-//W3C//DTD SVG 1.1//EN"
 "http://www.w3.org/Graphics/SVG/1.1/DTD/svg11.dtd">
<!-- Generated by graphviz version 2.38.0 (20140413.2041)
 -->
<!-- Title: ItemCall Pages: 1 -->
<svg width="279pt" height="88pt"
 viewBox="0.00 0.00 279.00 88.00" xmlns="http://www.w3.org/2000/svg" xmlns:xlink="http://www.w3.org/1999/xlink">
<g id="graph0" class="graph" transform="scale(1 1) rotate(0) translate(4 84)">
<title>ItemCall</title>
<polygon fill="white" stroke="none" points="-4,4 -4,-84 275,-84 275,4 -4,4"/>
<!-- Node1 -->
<g id="node1" class="node"><title>Node1</title>
<polygon fill="#bfbfbf" stroke="black" points="0,-30 0,-49 56,-49 56,-30 0,-30"/>
<text text-anchor="middle" x="28" y="-37" font-family="Helvetica,sans-Serif" font-size="10.00">ItemCall</text>
</g>
<!-- Node2 -->
<g id="node2" class="node"><title>Node2</title>
<g id="a_node2"><a xlink:href="classcom_1_1tomoparts_1_1tomoBay_1_1model_1_1eBayAPI_1_1APIcontext.html#a2ffa8b387d0db2f1192c42e5d37386e5" target="_top" xlink:title="used for getting an ApiContext object that can then be passed to individual API calls. ">
<polygon fill="white" stroke="black" points="92,-49.5 92,-79.5 271,-79.5 271,-49.5 92,-49.5"/>
<text text-anchor="start" x="100" y="-67.5" font-family="Helvetica,sans-Serif" font-size="10.00">com.tomoparts.tomoBay.model.e</text>
<text text-anchor="middle" x="181.5" y="-56.5" font-family="Helvetica,sans-Serif" font-size="10.00">BayAPI.APIcontext.apiContext</text>
</a>
</g>
</g>
<!-- Node1&#45;&gt;Node2 -->
<g id="edge1" class="edge"><title>Node1&#45;&gt;Node2</title>
<path fill="none" stroke="midnightblue" d="M56.0852,-43.9695C63.7917,-45.2412 72.6636,-46.7052 82.0476,-48.2537"/>
<polygon fill="midnightblue" stroke="midnightblue" points="81.5484,-51.7186 91.9848,-49.8935 82.6881,-44.812 81.5484,-51.7186"/>
</g>
<!-- Node3 -->
<g id="node3" class="node"><title>Node3</title>
<g id="a_node3"><a xlink:href="classcom_1_1tomoparts_1_1tomoBay_1_1model_1_1eBayAPI_1_1APIcontext.html#a8992e1a212bc23facdb69618e2615466" target="_top" xlink:title="Used instead of constructor for getting an APIcontext instance. ">
<polygon fill="white" stroke="black" points="92,-0.5 92,-30.5 271,-30.5 271,-0.5 92,-0.5"/>
<text text-anchor="start" x="100" y="-18.5" font-family="Helvetica,sans-Serif" font-size="10.00">com.tomoparts.tomoBay.model.e</text>
<text text-anchor="middle" x="181.5" y="-7.5" font-family="Helvetica,sans-Serif" font-size="10.00">BayAPI.APIcontext.instance</text>
</a>
</g>
</g>
<!-- Node1&#45;&gt;Node3 -->
<g id="edge2" class="edge"><title>Node1&#45;&gt;Node3</title>
<path fill="none" stroke="midnightblue" d="M56.0852,-35.2093C63.7917,-33.9884 72.6636,-32.583 82.0476,-31.0964"/>
<polygon fill="midnightblue" stroke="midnightblue" points="82.6556,-34.5438 91.9848,-29.5222 81.5603,-27.63 82.6556,-34.5438"/>
</g>
</g>
</svg>
