<?xml version="1.0" encoding="UTF-8" standalone="no"?>
<!DOCTYPE svg PUBLIC "-//W3C//DTD SVG 1.1//EN"
 "http://www.w3.org/Graphics/SVG/1.1/DTD/svg11.dtd">
<!-- Generated by graphviz version 2.38.0 (20140413.2041)
 -->
<!-- Title: InvoiceOrders Pages: 1 -->
<svg width="210pt" height="248pt"
 viewBox="0.00 0.00 210.00 248.00" xmlns="http://www.w3.org/2000/svg" xmlns:xlink="http://www.w3.org/1999/xlink">
<g id="graph0" class="graph" transform="scale(1 1) rotate(0) translate(4 244)">
<title>InvoiceOrders</title>
<polygon fill="white" stroke="none" points="-4,4 -4,-244 206,-244 206,4 -4,4"/>
<!-- Node1 -->
<g id="node1" class="node"><title>Node1</title>
<polygon fill="#bfbfbf" stroke="black" points="62.5,-0.5 62.5,-134.5 181.5,-134.5 181.5,-0.5 62.5,-0.5"/>
<text text-anchor="middle" x="122" y="-122.5" font-family="Helvetica,sans-Serif" font-size="10.00">InvoiceOrders</text>
<polyline fill="none" stroke="black" points="62.5,-115.5 181.5,-115.5 "/>
<text text-anchor="start" x="70.5" y="-103.5" font-family="Helvetica,sans-Serif" font-size="10.00">&#45; EMAILHEADER</text>
<text text-anchor="start" x="70.5" y="-92.5" font-family="Helvetica,sans-Serif" font-size="10.00">&#45; EMAILFOOTER</text>
<polyline fill="none" stroke="black" points="62.5,-85.5 181.5,-85.5 "/>
<text text-anchor="start" x="70.5" y="-73.5" font-family="Helvetica,sans-Serif" font-size="10.00">+ InvoiceOrders()</text>
<text text-anchor="start" x="70.5" y="-62.5" font-family="Helvetica,sans-Serif" font-size="10.00">+ execute()</text>
<text text-anchor="start" x="70.5" y="-51.5" font-family="Helvetica,sans-Serif" font-size="10.00">&#45; splitOrderNoString()</text>
<text text-anchor="start" x="70.5" y="-40.5" font-family="Helvetica,sans-Serif" font-size="10.00">&#45; updateDB()</text>
<text text-anchor="start" x="70.5" y="-29.5" font-family="Helvetica,sans-Serif" font-size="10.00">&#45; formatAsDualList()</text>
<text text-anchor="start" x="70.5" y="-18.5" font-family="Helvetica,sans-Serif" font-size="10.00">&#45; formatMailResult()</text>
<text text-anchor="start" x="70.5" y="-7.5" font-family="Helvetica,sans-Serif" font-size="10.00">&#45; emailResults()</text>
</g>
<!-- Node2 -->
<g id="node2" class="node"><title>Node2</title>
<g id="a_node2"><a xlink:href="interfacecom_1_1tomoparts_1_1tomoBay_1_1presenters_1_1presenterActions_1_1AbstractPresenterAction.html" target="_top" xlink:title="Copyright(C) 2015 Jan P.C. ">
<polygon fill="white" stroke="black" points="0,-182.5 0,-239.5 134,-239.5 134,-182.5 0,-182.5"/>
<text text-anchor="middle" x="67" y="-227.5" font-family="Helvetica,sans-Serif" font-size="10.00">AbstractPresenterAction</text>
<polyline fill="none" stroke="black" points="0,-220.5 134,-220.5 "/>
<text text-anchor="middle" x="67" y="-208.5" font-family="Helvetica,sans-Serif" font-size="10.00"> </text>
<polyline fill="none" stroke="black" points="0,-201.5 134,-201.5 "/>
<text text-anchor="start" x="8" y="-189.5" font-family="Helvetica,sans-Serif" font-size="10.00">+ execute()</text>
</a>
</g>
</g>
<!-- Node2&#45;&gt;Node1 -->
<g id="edge1" class="edge"><title>Node2&#45;&gt;Node1</title>
<path fill="none" stroke="midnightblue" d="M81.4011,-172.95C85.9594,-161.223 91.1441,-147.884 96.2481,-134.753"/>
<polygon fill="none" stroke="midnightblue" points="78.0958,-171.793 77.7351,-182.381 84.6203,-174.329 78.0958,-171.793"/>
</g>
<!-- Node3 -->
<g id="node3" class="node"><title>Node3</title>
<polygon fill="white" stroke="#bfbfbf" points="152,-182.5 152,-239.5 202,-239.5 202,-182.5 152,-182.5"/>
<text text-anchor="middle" x="177" y="-227.5" font-family="Helvetica,sans-Serif" font-size="10.00">Logger</text>
<polyline fill="none" stroke="#bfbfbf" points="152,-220.5 202,-220.5 "/>
<text text-anchor="middle" x="177" y="-208.5" font-family="Helvetica,sans-Serif" font-size="10.00"> </text>
<polyline fill="none" stroke="#bfbfbf" points="152,-201.5 202,-201.5 "/>
<text text-anchor="middle" x="177" y="-189.5" font-family="Helvetica,sans-Serif" font-size="10.00"> </text>
</g>
<!-- Node3&#45;&gt;Node1 -->
<g id="edge2" class="edge"><title>Node3&#45;&gt;Node1</title>
<path fill="none" stroke="#404040" d="M166.265,-182.381C162.154,-171.806 157.236,-159.153 152.196,-146.185"/>
<polygon fill="none" stroke="#404040" points="152.099,-145.937 146.197,-141.794 147.752,-134.753 153.654,-138.896 152.099,-145.937"/>
<text text-anchor="middle" x="170" y="-156" font-family="Helvetica,sans-Serif" font-size="10.00"> ~log</text>
</g>
</g>
</svg>
