<?xml version="1.0" encoding="UTF-8" standalone="no"?>
<!DOCTYPE svg PUBLIC "-//W3C//DTD SVG 1.1//EN"
 "http://www.w3.org/Graphics/SVG/1.1/DTD/svg11.dtd">
<!-- Generated by graphviz version 2.38.0 (20140413.2041)
 -->
<!-- Title: setDATEParam Pages: 1 -->
<!--zoomable 1039 -->
<svg id="main" version="1.1" xmlns="http://www.w3.org/2000/svg" xmlns:xlink="http://www.w3.org/1999/xlink" xml:space="preserve" onload="init(evt)">
<style type="text/css"><![CDATA[
.edge:hover path { stroke: red; }
.edge:hover polygon { stroke: red; fill: red; }
]]></style>
<script type="text/javascript"><![CDATA[
var edges = document.getElementsByTagName('g');
if (edges && edges.length) {
  for (var i=0;i<edges.length;i++) {
    if (edges[i].id.substr(0,4)=='edge') {
      edges[i].setAttribute('class','edge');
    }
  }
}
]]></script>
        <defs>
                <circle id="rim" cx="0" cy="0" r="7"/>
                <circle id="rim2" cx="0" cy="0" r="3.5"/>
                <g id="zoomPlus">
                        <use xlink:href="#rim" fill="#404040">
                                <set attributeName="fill" to="#808080" begin="zoomplus.mouseover" end="zoomplus.mouseout"/>
                        </use>
                        <path d="M-4,0h8M0,-4v8" fill="none" stroke="white" stroke-width="1.5" pointer-events="none"/>
                </g>
                <g id="zoomMin">
                        <use xlink:href="#rim" fill="#404040">
                                <set attributeName="fill" to="#808080" begin="zoomminus.mouseover" end="zoomminus.mouseout"/>
                        </use>
                        <path d="M-4,0h8" fill="none" stroke="white" stroke-width="1.5" pointer-events="none"/>
                </g>
                <g id="dirArrow">
                        <path fill="none" stroke="white" stroke-width="1.5" d="M0,-3.0v7 M-2.5,-0.5L0,-3.0L2.5,-0.5"/>
                </g>
               <g id="resetDef">
                       <use xlink:href="#rim2" fill="#404040">
                               <set attributeName="fill" to="#808080" begin="reset.mouseover" end="reset.mouseout"/>
                       </use>
               </g>
        </defs>

<script type="text/javascript">
var viewWidth = 1784;
var viewHeight = 1039;
var sectionId = 'dynsection-15';
</script>
<script xlink:href="svgpan.js"/>
<svg id="graph" class="graph">
<g id="viewport">
<title>setDATEParam</title>
<polygon fill="white" stroke="none" points="-4,4 -4,-1035.39 1780,-1035.39 1780,4 -4,4"/>
<!-- Node1 -->
<g id="node1" class="node"><title>Node1</title>
<polygon fill="#bfbfbf" stroke="black" points="0,-963.747 0,-982.747 89,-982.747 89,-963.747 0,-963.747"/>
<text text-anchor="middle" x="44.5" y="-970.747" font-family="Helvetica,sans-Serif" font-size="10.00">setDATEParam</text>
</g>
<!-- Node2 -->
<g id="node2" class="node"><title>Node2</title>
<g id="a_node2"><a xlink:href="classcom_1_1tomoparts_1_1tomoBay_1_1model_1_1sql_1_1queries_1_1concreteQueries_1_1insert_1_1InsertOutOfHoursOrders.html#af9020b85517904668d036bc2bf89433c" target="_top" xlink:title="com.tomoparts.tomoBay.model.sql.queries.concrete\lQueries.insert.InsertOutOfHoursOrders.setParameters">
<polygon fill="white" stroke="black" points="1494.5,-846.247 1494.5,-876.247 1770.5,-876.247 1770.5,-846.247 1494.5,-846.247"/>
<text text-anchor="start" x="1502.5" y="-864.247" font-family="Helvetica,sans-Serif" font-size="10.00">com.tomoparts.tomoBay.model.sql.queries.concrete</text>
<text text-anchor="middle" x="1632.5" y="-853.247" font-family="Helvetica,sans-Serif" font-size="10.00">Queries.insert.InsertOutOfHoursOrders.setParameters</text>
</a>
</g>
</g>
<!-- Node1&#45;&gt;Node2 -->
<g id="edge1" class="edge"><title>Node1&#45;&gt;Node2</title>
<path fill="none" stroke="midnightblue" d="M75.1183,-986.908C89.8012,-993.033 107.992,-999.671 125,-1003.25 279.189,-1035.66 321.44,-1022.25 479,-1022.25 479,-1022.25 479,-1022.25 1058,-1022.25 1234,-1022.25 1288.01,-1055.51 1453,-994.247 1523.28,-968.147 1589.55,-905.225 1617.53,-876.279"/>
<polygon fill="midnightblue" stroke="midnightblue" points="76.14,-983.537 65.5712,-982.794 73.3697,-989.966 76.14,-983.537"/>
</g>
<!-- Node3 -->
<g id="node3" class="node"><title>Node3</title>
<g id="a_node3"><a xlink:href="classcom_1_1tomoparts_1_1tomoBay_1_1model_1_1sql_1_1queries_1_1concreteQueries_1_1select_1_1params_1_1SelectOutOfHoursOrders.html#af9020b85517904668d036bc2bf89433c" target="_top" xlink:title="com.tomoparts.tomoBay.model.sql.queries.concrete\lQueries.select.params.SelectOutOfHoursOrders.set\lParameters">
<polygon fill="white" stroke="black" points="125,-952.747 125,-993.747 395,-993.747 395,-952.747 125,-952.747"/>
<text text-anchor="start" x="133" y="-981.747" font-family="Helvetica,sans-Serif" font-size="10.00">com.tomoparts.tomoBay.model.sql.queries.concrete</text>
<text text-anchor="start" x="133" y="-970.747" font-family="Helvetica,sans-Serif" font-size="10.00">Queries.select.params.SelectOutOfHoursOrders.set</text>
<text text-anchor="middle" x="260" y="-959.747" font-family="Helvetica,sans-Serif" font-size="10.00">Parameters</text>
</a>
</g>
</g>
<!-- Node1&#45;&gt;Node3 -->
<g id="edge2" class="edge"><title>Node1&#45;&gt;Node3</title>
<path fill="none" stroke="midnightblue" d="M99.3804,-973.247C107.357,-973.247 115.86,-973.247 124.63,-973.247"/>
<polygon fill="midnightblue" stroke="midnightblue" points="99.2201,-969.747 89.2201,-973.247 99.2201,-976.747 99.2201,-969.747"/>
</g>
<!-- Node4 -->
<g id="node4" class="node"><title>Node4</title>
<g id="a_node4"><a xlink:href="classcom_1_1tomoparts_1_1tomoBay_1_1model_1_1sql_1_1framework_1_1QueryUtility.html#ab07d04299a96461dcf893416b8e32604" target="_top" xlink:title="set an Integer parameter for the query object specified. ">
<polygon fill="white" stroke="black" points="201,-914.747 201,-933.747 319,-933.747 319,-914.747 201,-914.747"/>
<text text-anchor="middle" x="260" y="-921.747" font-family="Helvetica,sans-Serif" font-size="10.00">setTIMESTAMPParam</text>
</a>
</g>
</g>
<!-- Node1&#45;&gt;Node4 -->
<g id="edge3" class="edge"><title>Node1&#45;&gt;Node4</title>
<path fill="none" stroke="midnightblue" d="M76.4945,-959.735C90.9888,-953.89 108.629,-947.442 125,-943.247 149.468,-936.977 177.016,-932.622 200.742,-929.68"/>
<polygon fill="midnightblue" stroke="midnightblue" points="74.9232,-956.597 67.0168,-963.65 77.5956,-963.067 74.9232,-956.597"/>
</g>
<!-- Node5 -->
<g id="node5" class="node"><title>Node5</title>
<g id="a_node5"><a xlink:href="classcom_1_1tomoparts_1_1tomoBay_1_1model_1_1sql_1_1queries_1_1concreteQueries_1_1insert_1_1InsertEbayOrders.html#af9020b85517904668d036bc2bf89433c" target="_top" xlink:title="com.tomoparts.tomoBay.model.sql.queries.concrete\lQueries.insert.InsertEbayOrders.setParameters">
<polygon fill="white" stroke="black" points="1497.5,-636.247 1497.5,-666.247 1767.5,-666.247 1767.5,-636.247 1497.5,-636.247"/>
<text text-anchor="start" x="1505.5" y="-654.247" font-family="Helvetica,sans-Serif" font-size="10.00">com.tomoparts.tomoBay.model.sql.queries.concrete</text>
<text text-anchor="middle" x="1632.5" y="-643.247" font-family="Helvetica,sans-Serif" font-size="10.00">Queries.insert.InsertEbayOrders.setParameters</text>
</a>
</g>
</g>
<!-- Node4&#45;&gt;Node5 -->
<g id="edge4" class="edge"><title>Node4&#45;&gt;Node5</title>
<path fill="none" stroke="midnightblue" d="M329.295,-933.308C350.393,-936.274 373.684,-939.719 395,-943.247 491.618,-959.236 513.568,-984.247 611.5,-984.247 611.5,-984.247 611.5,-984.247 1058,-984.247 1145.88,-984.247 1384.25,-1019.98 1453,-965.247 1499.23,-928.44 1462.56,-890.096 1489,-837.247 1524.31,-766.671 1587.94,-696.246 1616.69,-666.273"/>
<polygon fill="midnightblue" stroke="midnightblue" points="329.52,-929.805 319.133,-931.892 328.554,-936.739 329.52,-929.805"/>
</g>
<!-- Node6 -->
<g id="node6" class="node"><title>Node6</title>
<g id="a_node6"><a xlink:href="classcom_1_1tomoparts_1_1tomoBay_1_1model_1_1sql_1_1framework_1_1QueryUtility.html#a56a65ac583b8720ae73dc81278e5690e" target="_top" xlink:title="set an Integer parameter for the query object specified. ">
<polygon fill="white" stroke="black" points="431,-553.747 431,-572.747 529,-572.747 529,-553.747 431,-553.747"/>
<text text-anchor="middle" x="480" y="-560.747" font-family="Helvetica,sans-Serif" font-size="10.00">setTINYINTParam</text>
</a>
</g>
</g>
<!-- Node4&#45;&gt;Node6 -->
<g id="edge5" class="edge"><title>Node4&#45;&gt;Node6</title>
<path fill="none" stroke="midnightblue" d="M272.151,-905.781C311.638,-840.392 444.014,-621.182 473.252,-572.765"/>
<polygon fill="midnightblue" stroke="midnightblue" points="269.004,-904.221 266.831,-914.591 274.996,-907.84 269.004,-904.221"/>
</g>
<!-- Node7 -->
<g id="node7" class="node"><title>Node7</title>
<g id="a_node7"><a xlink:href="classcom_1_1tomoparts_1_1tomoBay_1_1model_1_1sql_1_1framework_1_1QueryUtility.html#a138f0c046bc0a6df71b168ab35c3c3e3" target="_top" xlink:title="set an Integer parameter for the query object specified. ">
<polygon fill="white" stroke="black" points="565,-192.747 565,-211.747 660,-211.747 660,-192.747 565,-192.747"/>
<text text-anchor="middle" x="612.5" y="-199.747" font-family="Helvetica,sans-Serif" font-size="10.00">setBIGINTParam</text>
</a>
</g>
</g>
<!-- Node6&#45;&gt;Node7 -->
<g id="edge6" class="edge"><title>Node6&#45;&gt;Node7</title>
<path fill="none" stroke="midnightblue" d="M487.969,-543.967C511.963,-477.595 590.629,-259.983 608.059,-211.765"/>
<polygon fill="midnightblue" stroke="midnightblue" points="484.599,-542.996 484.491,-553.591 491.182,-545.376 484.599,-542.996"/>
</g>
<!-- Node8 -->
<g id="node8" class="node"><title>Node8</title>
<g id="a_node8"><a xlink:href="classcom_1_1tomoparts_1_1tomoBay_1_1model_1_1sql_1_1framework_1_1QueryUtility.html#a50955d4f51a1a7a88ef0c8aadbe9c793" target="_top" xlink:title="set an Integer parameter for the query object specified. ">
<polygon fill="white" stroke="black" points="788,-230.747 788,-249.747 874,-249.747 874,-230.747 788,-230.747"/>
<text text-anchor="middle" x="831" y="-237.747" font-family="Helvetica,sans-Serif" font-size="10.00">setBYTEParam</text>
</a>
</g>
</g>
<!-- Node7&#45;&gt;Node8 -->
<g id="edge7" class="edge"><title>Node7&#45;&gt;Node8</title>
<path fill="none" stroke="midnightblue" d="M670.3,-212.216C707.112,-218.677 754.269,-226.954 787.773,-232.835"/>
<polygon fill="midnightblue" stroke="midnightblue" points="670.665,-208.727 660.211,-210.445 669.455,-215.621 670.665,-208.727"/>
</g>
<!-- Node15 -->
<g id="node15" class="node"><title>Node15</title>
<g id="a_node15"><a xlink:href="classcom_1_1tomoparts_1_1tomoBay_1_1model_1_1sql_1_1queries_1_1concreteQueries_1_1insert_1_1InsertEbayItems.html#af9020b85517904668d036bc2bf89433c" target="_top" xlink:title="com.tomoparts.tomoBay.model.sql.queries.concrete\lQueries.insert.InsertEbayItems.setParameters">
<polygon fill="white" stroke="black" points="1497.5,-280.247 1497.5,-310.247 1767.5,-310.247 1767.5,-280.247 1497.5,-280.247"/>
<text text-anchor="start" x="1505.5" y="-298.247" font-family="Helvetica,sans-Serif" font-size="10.00">com.tomoparts.tomoBay.model.sql.queries.concrete</text>
<text text-anchor="middle" x="1632.5" y="-287.247" font-family="Helvetica,sans-Serif" font-size="10.00">Queries.insert.InsertEbayItems.setParameters</text>
</a>
</g>
</g>
<!-- Node7&#45;&gt;Node15 -->
<g id="edge39" class="edge"><title>Node7&#45;&gt;Node15</title>
<path fill="none" stroke="midnightblue" d="M629.726,-185.118C645.195,-169.985 669.939,-148.74 696,-138.247 774.18,-106.767 1387.82,-36.8141 1453,-90.2467 1516.09,-141.97 1430.63,-213.246 1489,-270.247 1492.86,-274.02 1497.08,-277.335 1501.57,-280.244"/>
<polygon fill="midnightblue" stroke="midnightblue" points="627.077,-182.818 622.524,-192.384 632.049,-187.745 627.077,-182.818"/>
</g>
<!-- Node16 -->
<g id="node16" class="node"><title>Node16</title>
<g id="a_node16"><a xlink:href="classcom_1_1tomoparts_1_1tomoBay_1_1model_1_1sql_1_1queries_1_1concreteQueries_1_1insert_1_1InsertEbayTransactions.html#af9020b85517904668d036bc2bf89433c" target="_top" xlink:title="com.tomoparts.tomoBay.model.sql.queries.concrete\lQueries.insert.InsertEbayTransactions.setParameters">
<polygon fill="white" stroke="black" points="1496.5,-231.247 1496.5,-261.247 1768.5,-261.247 1768.5,-231.247 1496.5,-231.247"/>
<text text-anchor="start" x="1504.5" y="-249.247" font-family="Helvetica,sans-Serif" font-size="10.00">com.tomoparts.tomoBay.model.sql.queries.concrete</text>
<text text-anchor="middle" x="1632.5" y="-238.247" font-family="Helvetica,sans-Serif" font-size="10.00">Queries.insert.InsertEbayTransactions.setParameters</text>
</a>
</g>
</g>
<!-- Node7&#45;&gt;Node16 -->
<g id="edge41" class="edge"><title>Node7&#45;&gt;Node16</title>
<path fill="none" stroke="midnightblue" d="M617.938,-182.665C626.556,-149.831 648.987,-84.5876 696,-57.2467 841.419,27.3238 1298.52,9.3422 1453,-57.2467 1537.97,-93.8709 1601.32,-193.036 1623.19,-231.093"/>
<polygon fill="midnightblue" stroke="midnightblue" points="614.52,-181.91 615.53,-192.456 621.317,-183.582 614.52,-181.91"/>
</g>
<!-- Node20 -->
<g id="node20" class="node"><title>Node20</title>
<g id="a_node20"><a xlink:href="classcom_1_1tomoparts_1_1tomoBay_1_1model_1_1sql_1_1queries_1_1concreteQueries_1_1update_1_1UpdateItemNote.html#af9020b85517904668d036bc2bf89433c" target="_top" xlink:title="com.tomoparts.tomoBay.model.sql.queries.concrete\lQueries.update.UpdateItemNote.setParameters">
<polygon fill="white" stroke="black" points="1165.5,-198.247 1165.5,-228.247 1435.5,-228.247 1435.5,-198.247 1165.5,-198.247"/>
<text text-anchor="start" x="1173.5" y="-216.247" font-family="Helvetica,sans-Serif" font-size="10.00">com.tomoparts.tomoBay.model.sql.queries.concrete</text>
<text text-anchor="middle" x="1300.5" y="-205.247" font-family="Helvetica,sans-Serif" font-size="10.00">Queries.update.UpdateItemNote.setParameters</text>
</a>
</g>
</g>
<!-- Node7&#45;&gt;Node20 -->
<g id="edge37" class="edge"><title>Node7&#45;&gt;Node20</title>
<path fill="none" stroke="midnightblue" d="M670.121,-203.155C777.793,-204.881 1014.72,-208.68 1165.19,-211.093"/>
<polygon fill="midnightblue" stroke="midnightblue" points="670.167,-199.655 660.112,-202.994 670.055,-206.654 670.167,-199.655"/>
</g>
<!-- Node21 -->
<g id="node21" class="node"><title>Node21</title>
<g id="a_node21"><a xlink:href="classcom_1_1tomoparts_1_1tomoBay_1_1model_1_1sql_1_1queries_1_1concreteQueries_1_1update_1_1UpdateItemBrandAndPartNo.html#af9020b85517904668d036bc2bf89433c" target="_top" xlink:title="com.tomoparts.tomoBay.model.sql.queries.concrete\lQueries.update.UpdateItemBrandAndPartNo.setParameters">
<polygon fill="white" stroke="black" points="1148,-149.247 1148,-179.247 1453,-179.247 1453,-149.247 1148,-149.247"/>
<text text-anchor="start" x="1156" y="-167.247" font-family="Helvetica,sans-Serif" font-size="10.00">com.tomoparts.tomoBay.model.sql.queries.concrete</text>
<text text-anchor="middle" x="1300.5" y="-156.247" font-family="Helvetica,sans-Serif" font-size="10.00">Queries.update.UpdateItemBrandAndPartNo.setParameters</text>
</a>
</g>
</g>
<!-- Node7&#45;&gt;Node21 -->
<g id="edge38" class="edge"><title>Node7&#45;&gt;Node21</title>
<path fill="none" stroke="midnightblue" d="M670.365,-199.097C774.047,-193.353 996.999,-181.003 1147.66,-172.658"/>
<polygon fill="midnightblue" stroke="midnightblue" points="669.903,-195.617 660.112,-199.665 670.291,-202.606 669.903,-195.617"/>
</g>
<!-- Node22 -->
<g id="node22" class="node"><title>Node22</title>
<g id="a_node22"><a xlink:href="classcom_1_1tomoparts_1_1tomoBay_1_1model_1_1sql_1_1queries_1_1concreteQueries_1_1update_1_1UpdateItemError.html#af9020b85517904668d036bc2bf89433c" target="_top" xlink:title="com.tomoparts.tomoBay.model.sql.queries.concrete\lQueries.update.UpdateItemError.setParameters">
<polygon fill="white" stroke="black" points="1165.5,-100.247 1165.5,-130.247 1435.5,-130.247 1435.5,-100.247 1165.5,-100.247"/>
<text text-anchor="start" x="1173.5" y="-118.247" font-family="Helvetica,sans-Serif" font-size="10.00">com.tomoparts.tomoBay.model.sql.queries.concrete</text>
<text text-anchor="middle" x="1300.5" y="-107.247" font-family="Helvetica,sans-Serif" font-size="10.00">Queries.update.UpdateItemError.setParameters</text>
</a>
</g>
</g>
<!-- Node7&#45;&gt;Node22 -->
<g id="edge40" class="edge"><title>Node7&#45;&gt;Node22</title>
<path fill="none" stroke="midnightblue" d="M652.956,-189.809C666.489,-185.929 681.801,-181.959 696,-179.247 855.763,-148.725 1042.3,-131.741 1165.23,-123.067"/>
<polygon fill="midnightblue" stroke="midnightblue" points="651.608,-186.557 643.003,-192.737 653.584,-193.273 651.608,-186.557"/>
</g>
<!-- Node31 -->
<g id="node31" class="node"><title>Node31</title>
<g id="a_node31"><a xlink:href="classcom_1_1tomoparts_1_1tomoBay_1_1model_1_1sql_1_1queries_1_1concreteQueries_1_1select_1_1params_1_1SelectEbayTransactionByID.html#af9020b85517904668d036bc2bf89433c" target="_top" xlink:title="com.tomoparts.tomoBay.model.sql.queries.concrete\lQueries.select.params.SelectEbayTransactionBy\lID.setParameters">
<polygon fill="white" stroke="black" points="696,-328.747 696,-369.747 966,-369.747 966,-328.747 696,-328.747"/>
<text text-anchor="start" x="704" y="-357.747" font-family="Helvetica,sans-Serif" font-size="10.00">com.tomoparts.tomoBay.model.sql.queries.concrete</text>
<text text-anchor="start" x="704" y="-346.747" font-family="Helvetica,sans-Serif" font-size="10.00">Queries.select.params.SelectEbayTransactionBy</text>
<text text-anchor="middle" x="831" y="-335.747" font-family="Helvetica,sans-Serif" font-size="10.00">ID.setParameters</text>
</a>
</g>
</g>
<!-- Node7&#45;&gt;Node31 -->
<g id="edge42" class="edge"><title>Node7&#45;&gt;Node31</title>
<path fill="none" stroke="midnightblue" d="M621.494,-221.228C633.596,-247.544 659.132,-294.645 696,-319.247 701.255,-322.753 706.858,-325.855 712.68,-328.599"/>
<polygon fill="midnightblue" stroke="midnightblue" points="624.635,-219.678 617.389,-211.948 618.233,-222.509 624.635,-219.678"/>
</g>
<!-- Node32 -->
<g id="node32" class="node"><title>Node32</title>
<g id="a_node32"><a xlink:href="classcom_1_1tomoparts_1_1tomoBay_1_1model_1_1sql_1_1queries_1_1concreteQueries_1_1select_1_1params_1_1SelectEbayItemSpecific.html#af9020b85517904668d036bc2bf89433c" target="_top" xlink:title="com.tomoparts.tomoBay.model.sql.queries.concrete\lQueries.select.params.SelectEbayItemSpecific.set\lParameters">
<polygon fill="white" stroke="black" points="696,-268.747 696,-309.747 966,-309.747 966,-268.747 696,-268.747"/>
<text text-anchor="start" x="704" y="-297.747" font-family="Helvetica,sans-Serif" font-size="10.00">com.tomoparts.tomoBay.model.sql.queries.concrete</text>
<text text-anchor="start" x="704" y="-286.747" font-family="Helvetica,sans-Serif" font-size="10.00">Queries.select.params.SelectEbayItemSpecific.set</text>
<text text-anchor="middle" x="831" y="-275.747" font-family="Helvetica,sans-Serif" font-size="10.00">Parameters</text>
</a>
</g>
</g>
<!-- Node7&#45;&gt;Node32 -->
<g id="edge43" class="edge"><title>Node7&#45;&gt;Node32</title>
<path fill="none" stroke="midnightblue" d="M632.396,-218.477C648.348,-231.364 672.315,-248.884 696,-259.247 704.081,-262.782 712.625,-265.923 721.33,-268.708"/>
<polygon fill="midnightblue" stroke="midnightblue" points="634.346,-215.548 624.411,-211.869 629.883,-220.941 634.346,-215.548"/>
</g>
<!-- Node9 -->
<g id="node9" class="node"><title>Node9</title>
<g id="a_node9"><a xlink:href="classcom_1_1tomoparts_1_1tomoBay_1_1model_1_1sql_1_1framework_1_1QueryUtility.html#a3249b16421a9902f2248cb86d4dd3be3" target="_top" xlink:title="set an Integer parameter for the query object specified. ">
<polygon fill="white" stroke="black" points="1002,-460.747 1002,-479.747 1112,-479.747 1112,-460.747 1002,-460.747"/>
<text text-anchor="middle" x="1057" y="-467.747" font-family="Helvetica,sans-Serif" font-size="10.00">setVARCHARParam</text>
</a>
</g>
</g>
<!-- Node8&#45;&gt;Node9 -->
<g id="edge8" class="edge"><title>Node8&#45;&gt;Node9</title>
<path fill="none" stroke="midnightblue" d="M884.188,-236.058C911.106,-236.565 943.02,-241.623 966,-259.247 1034.58,-311.838 1051.56,-426.879 1055.14,-460.709"/>
<polygon fill="midnightblue" stroke="midnightblue" points="884.14,-232.558 874.145,-236.07 884.149,-239.558 884.14,-232.558"/>
</g>
<!-- Node9&#45;&gt;Node5 -->
<g id="edge25" class="edge"><title>Node9&#45;&gt;Node5</title>
<path fill="none" stroke="midnightblue" d="M1078.59,-485.951C1096.08,-498.443 1122.37,-515.267 1148,-524.247 1277.08,-569.475 1339.29,-489.244 1453,-565.247 1479.49,-582.953 1462.81,-609.103 1489,-627.247 1493.85,-630.604 1499,-633.547 1504.37,-636.123"/>
<polygon fill="midnightblue" stroke="midnightblue" points="1080.43,-482.959 1070.29,-479.877 1076.29,-488.608 1080.43,-482.959"/>
</g>
<!-- Node10 -->
<g id="node10" class="node"><title>Node10</title>
<g id="a_node10"><a xlink:href="classcom_1_1tomoparts_1_1tomoBay_1_1model_1_1sql_1_1framework_1_1QueryUtility.html#aca3b74b8ac7e194a86c0b896a674e2f2" target="_top" xlink:title="set an Integer parameter for the query object specified. ">
<polygon fill="white" stroke="black" points="1248.5,-460.747 1248.5,-479.747 1352.5,-479.747 1352.5,-460.747 1248.5,-460.747"/>
<text text-anchor="middle" x="1300.5" y="-467.747" font-family="Helvetica,sans-Serif" font-size="10.00">setINTEGERParam</text>
</a>
</g>
</g>
<!-- Node9&#45;&gt;Node10 -->
<g id="edge9" class="edge"><title>Node9&#45;&gt;Node10</title>
<path fill="none" stroke="midnightblue" d="M1122.25,-470.247C1161.73,-470.247 1211.6,-470.247 1248.38,-470.247"/>
<polygon fill="midnightblue" stroke="midnightblue" points="1122.2,-466.747 1112.2,-470.247 1122.2,-473.747 1122.2,-466.747"/>
</g>
<!-- Node13 -->
<g id="node13" class="node"><title>Node13</title>
<g id="a_node13"><a xlink:href="classcom_1_1tomoparts_1_1tomoBay_1_1model_1_1sql_1_1queries_1_1concreteQueries_1_1update_1_1UpdateInvoiceStatus.html#af9020b85517904668d036bc2bf89433c" target="_top" xlink:title="com.tomoparts.tomoBay.model.sql.queries.concrete\lQueries.update.UpdateInvoiceStatus.setParameters">
<polygon fill="white" stroke="black" points="1497.5,-587.247 1497.5,-617.247 1767.5,-617.247 1767.5,-587.247 1497.5,-587.247"/>
<text text-anchor="start" x="1505.5" y="-605.247" font-family="Helvetica,sans-Serif" font-size="10.00">com.tomoparts.tomoBay.model.sql.queries.concrete</text>
<text text-anchor="middle" x="1632.5" y="-594.247" font-family="Helvetica,sans-Serif" font-size="10.00">Queries.update.UpdateInvoiceStatus.setParameters</text>
</a>
</g>
</g>
<!-- Node9&#45;&gt;Node13 -->
<g id="edge21" class="edge"><title>Node9&#45;&gt;Node13</title>
<path fill="none" stroke="midnightblue" d="M1110.54,-481.966C1122.81,-484.527 1135.84,-487.108 1148,-489.247 1282.83,-512.954 1334.43,-463.822 1453,-532.247 1475.49,-545.223 1466.69,-564.97 1489,-578.247 1494.71,-581.647 1500.77,-584.6 1507.04,-587.162"/>
<polygon fill="midnightblue" stroke="midnightblue" points="1110.97,-478.479 1100.46,-479.831 1109.52,-485.327 1110.97,-478.479"/>
</g>
<!-- Node9&#45;&gt;Node15 -->
<g id="edge26" class="edge"><title>Node9&#45;&gt;Node15</title>
<path fill="none" stroke="midnightblue" d="M1062.66,-450.826C1072.1,-416.312 1097.04,-345.027 1148,-314.247 1204.67,-280.015 1374.86,-280.734 1497.28,-286.342"/>
<polygon fill="midnightblue" stroke="midnightblue" points="1059.24,-450.085 1060.13,-460.643 1066.02,-451.834 1059.24,-450.085"/>
</g>
<!-- Node9&#45;&gt;Node16 -->
<g id="edge27" class="edge"><title>Node9&#45;&gt;Node16</title>
<path fill="none" stroke="midnightblue" d="M1060.77,-450.541C1067.53,-410.632 1088.9,-320.622 1148,-280.247 1202.76,-242.838 1373.39,-238.606 1496.44,-240.878"/>
<polygon fill="midnightblue" stroke="midnightblue" points="1057.28,-450.173 1059.2,-460.593 1064.2,-451.253 1057.28,-450.173"/>
</g>
<!-- Node17 -->
<g id="node17" class="node"><title>Node17</title>
<g id="a_node17"><a xlink:href="classcom_1_1tomoparts_1_1tomoBay_1_1model_1_1sql_1_1queries_1_1concreteQueries_1_1select_1_1params_1_1SelectBuyerByAccAndSRN.html#af9020b85517904668d036bc2bf89433c" target="_top" xlink:title="com.tomoparts.tomoBay.model.sql.queries.concrete\lQueries.select.params.SelectBuyerByAccAndSRN.set\lParameters">
<polygon fill="white" stroke="black" points="1496.5,-329.747 1496.5,-370.747 1768.5,-370.747 1768.5,-329.747 1496.5,-329.747"/>
<text text-anchor="start" x="1504.5" y="-358.747" font-family="Helvetica,sans-Serif" font-size="10.00">com.tomoparts.tomoBay.model.sql.queries.concrete</text>
<text text-anchor="start" x="1504.5" y="-347.747" font-family="Helvetica,sans-Serif" font-size="10.00">Queries.select.params.SelectBuyerByAccAndSRN.set</text>
<text text-anchor="middle" x="1632.5" y="-336.747" font-family="Helvetica,sans-Serif" font-size="10.00">Parameters</text>
</a>
</g>
</g>
<!-- Node9&#45;&gt;Node17 -->
<g id="edge29" class="edge"><title>Node9&#45;&gt;Node17</title>
<path fill="none" stroke="midnightblue" d="M1109.41,-458.645C1121.99,-456.013 1135.45,-453.37 1148,-451.247 1282.74,-428.447 1328.61,-468.832 1453,-412.247 1472.49,-403.383 1469.89,-389.886 1489,-380.247 1496,-376.718 1503.39,-373.604 1510.98,-370.855"/>
<polygon fill="midnightblue" stroke="midnightblue" points="1108.59,-455.241 1099.54,-460.745 1110.05,-462.088 1108.59,-455.241"/>
</g>
<!-- Node19 -->
<g id="node19" class="node"><title>Node19</title>
<g id="a_node19"><a xlink:href="classcom_1_1tomoparts_1_1tomoBay_1_1model_1_1sql_1_1queries_1_1concreteQueries_1_1insert_1_1InsertOrderInOrderStatus.html#af9020b85517904668d036bc2bf89433c" target="_top" xlink:title="com.tomoparts.tomoBay.model.sql.queries.concrete\lQueries.insert.InsertOrderInOrderStatus.setParameters">
<polygon fill="white" stroke="black" points="1160,-373.247 1160,-403.247 1441,-403.247 1441,-373.247 1160,-373.247"/>
<text text-anchor="start" x="1168" y="-391.247" font-family="Helvetica,sans-Serif" font-size="10.00">com.tomoparts.tomoBay.model.sql.queries.concrete</text>
<text text-anchor="middle" x="1300.5" y="-380.247" font-family="Helvetica,sans-Serif" font-size="10.00">Queries.insert.InsertOrderInOrderStatus.setParameters</text>
</a>
</g>
</g>
<!-- Node9&#45;&gt;Node19 -->
<g id="edge20" class="edge"><title>Node9&#45;&gt;Node19</title>
<path fill="none" stroke="midnightblue" d="M1079.74,-454.944C1097.37,-443.23 1123.26,-427.55 1148,-418.247 1164.19,-412.159 1181.84,-407.235 1199.18,-403.274"/>
<polygon fill="midnightblue" stroke="midnightblue" points="1077.64,-452.143 1071.33,-460.654 1081.57,-457.935 1077.64,-452.143"/>
</g>
<!-- Node9&#45;&gt;Node20 -->
<g id="edge22" class="edge"><title>Node9&#45;&gt;Node20</title>
<path fill="none" stroke="midnightblue" d="M1059.64,-450.564C1064.46,-406.122 1082.67,-297.653 1148,-243.247 1155.21,-237.241 1163.28,-232.317 1171.84,-228.291"/>
<polygon fill="midnightblue" stroke="midnightblue" points="1056.15,-450.345 1058.67,-460.636 1063.12,-451.021 1056.15,-450.345"/>
</g>
<!-- Node9&#45;&gt;Node21 -->
<g id="edge23" class="edge"><title>Node9&#45;&gt;Node21</title>
<path fill="none" stroke="midnightblue" d="M1057.76,-450.365C1058.31,-398.321 1067.53,-257.343 1148,-188.247 1151.84,-184.951 1155.94,-182.011 1160.25,-179.395"/>
<polygon fill="midnightblue" stroke="midnightblue" points="1054.26,-450.577 1057.76,-460.578 1061.26,-450.579 1054.26,-450.577"/>
</g>
<!-- Node9&#45;&gt;Node22 -->
<g id="edge24" class="edge"><title>Node9&#45;&gt;Node22</title>
<path fill="none" stroke="midnightblue" d="M1060.57,-450.437C1069.37,-385.674 1100.43,-181.919 1148,-139.247 1153.25,-134.534 1159.04,-130.54 1165.2,-127.166"/>
<polygon fill="midnightblue" stroke="midnightblue" points="1057.07,-450.161 1059.22,-460.535 1064.01,-451.084 1057.07,-450.161"/>
</g>
<!-- Node23 -->
<g id="node23" class="node"><title>Node23</title>
<g id="a_node23"><a xlink:href="classcom_1_1tomoparts_1_1tomoBay_1_1model_1_1sql_1_1queries_1_1concreteQueries_1_1update_1_1UpdateEbayBuyer.html#af9020b85517904668d036bc2bf89433c" target="_top" xlink:title="com.tomoparts.tomoBay.model.sql.queries.concrete\lQueries.update.UpdateEbayBuyer.setParameters">
<polygon fill="white" stroke="black" points="1165.5,-324.247 1165.5,-354.247 1435.5,-354.247 1435.5,-324.247 1165.5,-324.247"/>
<text text-anchor="start" x="1173.5" y="-342.247" font-family="Helvetica,sans-Serif" font-size="10.00">com.tomoparts.tomoBay.model.sql.queries.concrete</text>
<text text-anchor="middle" x="1300.5" y="-331.247" font-family="Helvetica,sans-Serif" font-size="10.00">Queries.update.UpdateEbayBuyer.setParameters</text>
</a>
</g>
</g>
<!-- Node9&#45;&gt;Node23 -->
<g id="edge28" class="edge"><title>Node9&#45;&gt;Node23</title>
<path fill="none" stroke="midnightblue" d="M1068.03,-451.495C1082.28,-426.85 1110.85,-384.236 1148,-363.247 1154.03,-359.841 1160.39,-356.879 1166.97,-354.306"/>
<polygon fill="midnightblue" stroke="midnightblue" points="1064.79,-450.118 1062.97,-460.555 1070.9,-453.532 1064.79,-450.118"/>
</g>
<!-- Node24 -->
<g id="node24" class="node"><title>Node24</title>
<g id="a_node24"><a xlink:href="classcom_1_1tomoparts_1_1tomoBay_1_1model_1_1sql_1_1queries_1_1concreteQueries_1_1insert_1_1InsertEbayBuyers.html#af9020b85517904668d036bc2bf89433c" target="_top" xlink:title="com.tomoparts.tomoBay.model.sql.queries.concrete\lQueries.insert.InsertEbayBuyers.setParameters">
<polygon fill="white" stroke="black" points="1165.5,-925.247 1165.5,-955.247 1435.5,-955.247 1435.5,-925.247 1165.5,-925.247"/>
<text text-anchor="start" x="1173.5" y="-943.247" font-family="Helvetica,sans-Serif" font-size="10.00">com.tomoparts.tomoBay.model.sql.queries.concrete</text>
<text text-anchor="middle" x="1300.5" y="-932.247" font-family="Helvetica,sans-Serif" font-size="10.00">Queries.insert.InsertEbayBuyers.setParameters</text>
</a>
</g>
</g>
<!-- Node9&#45;&gt;Node24 -->
<g id="edge30" class="edge"><title>Node9&#45;&gt;Node24</title>
<path fill="none" stroke="midnightblue" d="M1059.12,-490.39C1063.94,-569.164 1085.54,-854.998 1148,-915.247 1153.28,-920.336 1159.17,-924.621 1165.48,-928.215"/>
<polygon fill="midnightblue" stroke="midnightblue" points="1062.59,-489.731 1058.51,-479.953 1055.6,-490.141 1062.59,-489.731"/>
</g>
<!-- Node25 -->
<g id="node25" class="node"><title>Node25</title>
<g id="a_node25"><a xlink:href="classcom_1_1tomoparts_1_1tomoBay_1_1model_1_1sql_1_1queries_1_1concreteQueries_1_1select_1_1params_1_1SelectEbayOrderByBuyer.html#af9020b85517904668d036bc2bf89433c" target="_top" xlink:title="com.tomoparts.tomoBay.model.sql.queries.concrete\lQueries.select.params.SelectEbayOrderByBuyer.set\lParameters">
<polygon fill="white" stroke="black" points="1165.5,-864.747 1165.5,-905.747 1435.5,-905.747 1435.5,-864.747 1165.5,-864.747"/>
<text text-anchor="start" x="1173.5" y="-893.747" font-family="Helvetica,sans-Serif" font-size="10.00">com.tomoparts.tomoBay.model.sql.queries.concrete</text>
<text text-anchor="start" x="1173.5" y="-882.747" font-family="Helvetica,sans-Serif" font-size="10.00">Queries.select.params.SelectEbayOrderByBuyer.set</text>
<text text-anchor="middle" x="1300.5" y="-871.747" font-family="Helvetica,sans-Serif" font-size="10.00">Parameters</text>
</a>
</g>
</g>
<!-- Node9&#45;&gt;Node25 -->
<g id="edge31" class="edge"><title>Node9&#45;&gt;Node25</title>
<path fill="none" stroke="midnightblue" d="M1059.86,-490.332C1066.92,-561.964 1094.35,-803.396 1148,-855.247 1153.21,-860.278 1159,-864.581 1165.2,-868.254"/>
<polygon fill="midnightblue" stroke="midnightblue" points="1063.31,-489.63 1058.87,-480.009 1056.34,-490.298 1063.31,-489.63"/>
</g>
<!-- Node26 -->
<g id="node26" class="node"><title>Node26</title>
<g id="a_node26"><a xlink:href="classcom_1_1tomoparts_1_1tomoBay_1_1model_1_1sql_1_1queries_1_1concreteQueries_1_1select_1_1params_1_1SelectTransactionByOrder.html#af9020b85517904668d036bc2bf89433c" target="_top" xlink:title="com.tomoparts.tomoBay.model.sql.queries.concrete\lQueries.select.params.SelectTransactionByOrder.set\lParameters">
<polygon fill="white" stroke="black" points="1165.5,-804.747 1165.5,-845.747 1435.5,-845.747 1435.5,-804.747 1165.5,-804.747"/>
<text text-anchor="start" x="1173.5" y="-833.747" font-family="Helvetica,sans-Serif" font-size="10.00">com.tomoparts.tomoBay.model.sql.queries.concrete</text>
<text text-anchor="start" x="1173.5" y="-822.747" font-family="Helvetica,sans-Serif" font-size="10.00">Queries.select.params.SelectTransactionByOrder.set</text>
<text text-anchor="middle" x="1300.5" y="-811.747" font-family="Helvetica,sans-Serif" font-size="10.00">Parameters</text>
</a>
</g>
</g>
<!-- Node9&#45;&gt;Node26 -->
<g id="edge32" class="edge"><title>Node9&#45;&gt;Node26</title>
<path fill="none" stroke="midnightblue" d="M1060.74,-490.027C1069.99,-553.842 1102.04,-752.6 1148,-795.247 1153.31,-800.171 1159.18,-804.391 1165.44,-807.999"/>
<polygon fill="midnightblue" stroke="midnightblue" points="1064.15,-489.158 1059.28,-479.75 1057.22,-490.142 1064.15,-489.158"/>
</g>
<!-- Node27 -->
<g id="node27" class="node"><title>Node27</title>
<g id="a_node27"><a xlink:href="classcom_1_1tomoparts_1_1tomoBay_1_1model_1_1sql_1_1queries_1_1concreteQueries_1_1select_1_1para6f75a6d09fd903571426df29e6112491.html#af9020b85517904668d036bc2bf89433c" target="_top" xlink:title="com.tomoparts.tomoBay.model.sql.queries.concrete\lQueries.select.params.SelectBrandAndPartNoBy\lOrderID.setParameters">
<polygon fill="white" stroke="black" points="1165.5,-744.747 1165.5,-785.747 1435.5,-785.747 1435.5,-744.747 1165.5,-744.747"/>
<text text-anchor="start" x="1173.5" y="-773.747" font-family="Helvetica,sans-Serif" font-size="10.00">com.tomoparts.tomoBay.model.sql.queries.concrete</text>
<text text-anchor="start" x="1173.5" y="-762.747" font-family="Helvetica,sans-Serif" font-size="10.00">Queries.select.params.SelectBrandAndPartNoBy</text>
<text text-anchor="middle" x="1300.5" y="-751.747" font-family="Helvetica,sans-Serif" font-size="10.00">OrderID.setParameters</text>
</a>
</g>
</g>
<!-- Node9&#45;&gt;Node27 -->
<g id="edge33" class="edge"><title>Node9&#45;&gt;Node27</title>
<path fill="none" stroke="midnightblue" d="M1058.38,-490.085C1060.49,-539.675 1073.23,-669.739 1148,-735.247 1153.34,-739.929 1159.21,-743.963 1165.42,-747.434"/>
<polygon fill="midnightblue" stroke="midnightblue" points="1061.87,-489.668 1058.06,-479.784 1054.88,-489.89 1061.87,-489.668"/>
</g>
<!-- Node28 -->
<g id="node28" class="node"><title>Node28</title>
<g id="a_node28"><a xlink:href="classcom_1_1tomoparts_1_1tomoBay_1_1model_1_1sql_1_1queries_1_1concreteQueries_1_1select_1_1params_1_1SelectEbayOrderByID.html#af9020b85517904668d036bc2bf89433c" target="_top" xlink:title="com.tomoparts.tomoBay.model.sql.queries.concrete\lQueries.select.params.SelectEbayOrderByID.set\lParameters">
<polygon fill="white" stroke="black" points="1165.5,-684.747 1165.5,-725.747 1435.5,-725.747 1435.5,-684.747 1165.5,-684.747"/>
<text text-anchor="start" x="1173.5" y="-713.747" font-family="Helvetica,sans-Serif" font-size="10.00">com.tomoparts.tomoBay.model.sql.queries.concrete</text>
<text text-anchor="start" x="1173.5" y="-702.747" font-family="Helvetica,sans-Serif" font-size="10.00">Queries.select.params.SelectEbayOrderByID.set</text>
<text text-anchor="middle" x="1300.5" y="-691.747" font-family="Helvetica,sans-Serif" font-size="10.00">Parameters</text>
</a>
</g>
</g>
<!-- Node9&#45;&gt;Node28 -->
<g id="edge34" class="edge"><title>Node9&#45;&gt;Node28</title>
<path fill="none" stroke="midnightblue" d="M1060.58,-489.981C1067.08,-531.334 1088.15,-627.213 1148,-675.247 1153.33,-679.526 1159.11,-683.251 1165.18,-686.489"/>
<polygon fill="midnightblue" stroke="midnightblue" points="1064.01,-489.243 1059.11,-479.848 1057.08,-490.247 1064.01,-489.243"/>
</g>
<!-- Node29 -->
<g id="node29" class="node"><title>Node29</title>
<g id="a_node29"><a xlink:href="classcom_1_1tomoparts_1_1tomoBay_1_1model_1_1sql_1_1queries_1_1concreteQueries_1_1select_1_1params_1_1SelectEbayBuyer.html#af9020b85517904668d036bc2bf89433c" target="_top" xlink:title="com.tomoparts.tomoBay.model.sql.queries.concrete\lQueries.select.params.SelectEbayBuyer.setParameters">
<polygon fill="white" stroke="black" points="1159,-635.247 1159,-665.247 1442,-665.247 1442,-635.247 1159,-635.247"/>
<text text-anchor="start" x="1167" y="-653.247" font-family="Helvetica,sans-Serif" font-size="10.00">com.tomoparts.tomoBay.model.sql.queries.concrete</text>
<text text-anchor="middle" x="1300.5" y="-642.247" font-family="Helvetica,sans-Serif" font-size="10.00">Queries.select.params.SelectEbayBuyer.setParameters</text>
</a>
</g>
</g>
<!-- Node9&#45;&gt;Node29 -->
<g id="edge35" class="edge"><title>Node9&#45;&gt;Node29</title>
<path fill="none" stroke="midnightblue" d="M1063.38,-489.851C1073.7,-523.514 1099.68,-591.897 1148,-625.247 1153.48,-629.032 1159.34,-632.317 1165.45,-635.163"/>
<polygon fill="midnightblue" stroke="midnightblue" points="1066.62,-488.487 1060.46,-479.866 1059.9,-490.446 1066.62,-488.487"/>
</g>
<!-- Node30 -->
<g id="node30" class="node"><title>Node30</title>
<g id="a_node30"><a xlink:href="classcom_1_1tomoparts_1_1tomoBay_1_1model_1_1sql_1_1queries_1_1concreteQueries_1_1select_1_1params_1_1SelectFullOrderLine.html#af9020b85517904668d036bc2bf89433c" target="_top" xlink:title="com.tomoparts.tomoBay.model.sql.queries.concrete\lQueries.select.params.SelectFullOrderLine.set\lParameters">
<polygon fill="white" stroke="black" points="1165.5,-574.747 1165.5,-615.747 1435.5,-615.747 1435.5,-574.747 1165.5,-574.747"/>
<text text-anchor="start" x="1173.5" y="-603.747" font-family="Helvetica,sans-Serif" font-size="10.00">com.tomoparts.tomoBay.model.sql.queries.concrete</text>
<text text-anchor="start" x="1173.5" y="-592.747" font-family="Helvetica,sans-Serif" font-size="10.00">Queries.select.params.SelectFullOrderLine.set</text>
<text text-anchor="middle" x="1300.5" y="-581.747" font-family="Helvetica,sans-Serif" font-size="10.00">Parameters</text>
</a>
</g>
</g>
<!-- Node9&#45;&gt;Node30 -->
<g id="edge36" class="edge"><title>Node9&#45;&gt;Node30</title>
<path fill="none" stroke="midnightblue" d="M1070.8,-488.094C1086.58,-508.72 1115.34,-542.14 1148,-560.247 1158.27,-565.94 1169.42,-570.71 1180.87,-574.704"/>
<polygon fill="midnightblue" stroke="midnightblue" points="1073.46,-485.801 1064.68,-479.869 1067.85,-489.981 1073.46,-485.801"/>
</g>
<!-- Node10&#45;&gt;Node2 -->
<g id="edge13" class="edge"><title>Node10&#45;&gt;Node2</title>
<path fill="none" stroke="midnightblue" d="M1336.72,-483.854C1371.09,-498.847 1422.51,-526.137 1453,-565.247 1484.89,-606.149 1464.82,-630.364 1489,-676.247 1525.67,-745.827 1588.6,-816.192 1616.93,-846.193"/>
<polygon fill="midnightblue" stroke="midnightblue" points="1337.66,-480.448 1327.08,-479.773 1334.93,-486.894 1337.66,-480.448"/>
</g>
<!-- Node10&#45;&gt;Node5 -->
<g id="edge16" class="edge"><title>Node10&#45;&gt;Node5</title>
<path fill="none" stroke="midnightblue" d="M1361.13,-482.549C1392.05,-491.651 1428.4,-506.989 1453,-532.247 1484.51,-564.59 1454.11,-598.585 1489,-627.247 1493.07,-630.591 1497.43,-633.548 1502.01,-636.159"/>
<polygon fill="midnightblue" stroke="midnightblue" points="1361.88,-479.124 1351.31,-479.809 1360,-485.866 1361.88,-479.124"/>
</g>
<!-- Node11 -->
<g id="node11" class="node"><title>Node11</title>
<g id="a_node11"><a xlink:href="classcom_1_1tomoparts_1_1tomoBay_1_1model_1_1sql_1_1framework_1_1QueryUtility.html#a2da2ce60a8a037d55bdc69309db4815b" target="_top" xlink:title="private ctor ensures that this class is never instantiated ">
<polygon fill="white" stroke="black" points="1596.5,-499.747 1596.5,-518.747 1668.5,-518.747 1668.5,-499.747 1596.5,-499.747"/>
<text text-anchor="middle" x="1632.5" y="-506.747" font-family="Helvetica,sans-Serif" font-size="10.00">QueryUtility</text>
</a>
</g>
</g>
<!-- Node10&#45;&gt;Node11 -->
<g id="edge10" class="edge"><title>Node10&#45;&gt;Node11</title>
<path fill="none" stroke="midnightblue" d="M1362.96,-477.51C1431.75,-485.64 1540.82,-498.529 1596.41,-505.1"/>
<polygon fill="midnightblue" stroke="midnightblue" points="1363.04,-473.996 1352.7,-476.298 1362.22,-480.947 1363.04,-473.996"/>
</g>
<!-- Node12 -->
<g id="node12" class="node"><title>Node12</title>
<g id="a_node12"><a xlink:href="classcom_1_1tomoparts_1_1tomoBay_1_1model_1_1sql_1_1queries_1_1concreteQueries_1_1update_1_1UpdateInvoiceStatusSRN.html#af9020b85517904668d036bc2bf89433c" target="_top" xlink:title="com.tomoparts.tomoBay.model.sql.queries.concrete\lQueries.update.UpdateInvoiceStatusSRN.setParameters">
<polygon fill="white" stroke="black" points="1489,-450.247 1489,-480.247 1776,-480.247 1776,-450.247 1489,-450.247"/>
<text text-anchor="start" x="1497" y="-468.247" font-family="Helvetica,sans-Serif" font-size="10.00">com.tomoparts.tomoBay.model.sql.queries.concrete</text>
<text text-anchor="middle" x="1632.5" y="-457.247" font-family="Helvetica,sans-Serif" font-size="10.00">Queries.update.UpdateInvoiceStatusSRN.setParameters</text>
</a>
</g>
</g>
<!-- Node10&#45;&gt;Node12 -->
<g id="edge11" class="edge"><title>Node10&#45;&gt;Node12</title>
<path fill="none" stroke="midnightblue" d="M1362.9,-469.316C1398.43,-468.778 1444.74,-468.076 1488.87,-467.408"/>
<polygon fill="midnightblue" stroke="midnightblue" points="1362.65,-465.82 1352.7,-469.471 1362.75,-472.819 1362.65,-465.82"/>
</g>
<!-- Node10&#45;&gt;Node13 -->
<g id="edge12" class="edge"><title>Node10&#45;&gt;Node13</title>
<path fill="none" stroke="midnightblue" d="M1363.09,-466.754C1393,-468.13 1427.81,-474.638 1453,-494.247 1485.05,-519.198 1457.07,-553.139 1489,-578.247 1493.24,-581.581 1497.77,-584.524 1502.52,-587.119"/>
<polygon fill="midnightblue" stroke="midnightblue" points="1362.84,-463.245 1352.74,-466.468 1362.64,-470.243 1362.84,-463.245"/>
</g>
<!-- Node14 -->
<g id="node14" class="node"><title>Node14</title>
<g id="a_node14"><a xlink:href="classcom_1_1tomoparts_1_1tomoBay_1_1model_1_1sql_1_1queries_1_1concreteQueries_1_1select_1_1parac0d31fe89450040cf1dcb1e02765c08b.html#af9020b85517904668d036bc2bf89433c" target="_top" xlink:title="com.tomoparts.tomoBay.model.sql.queries.concrete\lQueries.select.params.SelectEbayOrderHistory\lLastNDays.setParameters">
<polygon fill="white" stroke="black" points="1497.5,-389.747 1497.5,-430.747 1767.5,-430.747 1767.5,-389.747 1497.5,-389.747"/>
<text text-anchor="start" x="1505.5" y="-418.747" font-family="Helvetica,sans-Serif" font-size="10.00">com.tomoparts.tomoBay.model.sql.queries.concrete</text>
<text text-anchor="start" x="1505.5" y="-407.747" font-family="Helvetica,sans-Serif" font-size="10.00">Queries.select.params.SelectEbayOrderHistory</text>
<text text-anchor="middle" x="1632.5" y="-396.747" font-family="Helvetica,sans-Serif" font-size="10.00">LastNDays.setParameters</text>
</a>
</g>
</g>
<!-- Node10&#45;&gt;Node14 -->
<g id="edge14" class="edge"><title>Node10&#45;&gt;Node14</title>
<path fill="none" stroke="midnightblue" d="M1362.7,-461.149C1390.33,-456.888 1423.36,-451.582 1453,-446.247 1479.14,-441.543 1507.34,-436.05 1533.44,-430.793"/>
<polygon fill="midnightblue" stroke="midnightblue" points="1362.14,-457.694 1352.78,-462.669 1363.2,-464.613 1362.14,-457.694"/>
</g>
<!-- Node10&#45;&gt;Node15 -->
<g id="edge15" class="edge"><title>Node10&#45;&gt;Node15</title>
<path fill="none" stroke="midnightblue" d="M1362.33,-459.161C1392.91,-450.823 1428.56,-436.506 1453,-412.247 1484.16,-381.314 1455.02,-348.051 1489,-320.247 1493.57,-316.509 1498.5,-313.247 1503.69,-310.404"/>
<polygon fill="midnightblue" stroke="midnightblue" points="1361.41,-455.782 1352.6,-461.663 1363.15,-462.562 1361.41,-455.782"/>
</g>
<!-- Node10&#45;&gt;Node16 -->
<g id="edge17" class="edge"><title>Node10&#45;&gt;Node16</title>
<path fill="none" stroke="midnightblue" d="M1362.58,-460.632C1393.75,-452.682 1429.87,-438.267 1453,-412.247 1496.26,-363.588 1441.13,-314.373 1489,-270.247 1492.6,-266.931 1496.47,-263.981 1500.56,-261.361"/>
<polygon fill="midnightblue" stroke="midnightblue" points="1361.57,-457.273 1352.66,-462.993 1363.19,-464.083 1361.57,-457.273"/>
</g>
<!-- Node10&#45;&gt;Node17 -->
<g id="edge18" class="edge"><title>Node10&#45;&gt;Node17</title>
<path fill="none" stroke="midnightblue" d="M1363,-472.675C1392.56,-470.979 1427.11,-464.508 1453,-446.247 1480.3,-426.988 1462.19,-400.187 1489,-380.247 1493.77,-376.701 1498.86,-373.554 1504.18,-370.761"/>
<polygon fill="midnightblue" stroke="midnightblue" points="1362.62,-469.187 1352.77,-473.087 1362.9,-476.181 1362.62,-469.187"/>
</g>
<!-- Node18 -->
<g id="node18" class="node"><title>Node18</title>
<g id="a_node18"><a xlink:href="classcom_1_1tomoparts_1_1tomoBay_1_1model_1_1sql_1_1queries_1_1concreteQueries_1_1select_1_1params_1_1SelectBrandByInv.html#af9020b85517904668d036bc2bf89433c" target="_top" xlink:title="com.tomoparts.tomoBay.model.sql.queries.concrete\lQueries.select.params.SelectBrandByInv.setParameters">
<polygon fill="white" stroke="black" points="1489.5,-538.247 1489.5,-568.247 1775.5,-568.247 1775.5,-538.247 1489.5,-538.247"/>
<text text-anchor="start" x="1497.5" y="-556.247" font-family="Helvetica,sans-Serif" font-size="10.00">com.tomoparts.tomoBay.model.sql.queries.concrete</text>
<text text-anchor="middle" x="1632.5" y="-545.247" font-family="Helvetica,sans-Serif" font-size="10.00">Queries.select.params.SelectBrandByInv.setParameters</text>
</a>
</g>
</g>
<!-- Node10&#45;&gt;Node18 -->
<g id="edge19" class="edge"><title>Node10&#45;&gt;Node18</title>
<path fill="none" stroke="midnightblue" d="M1362.83,-471.684C1391.44,-474.387 1425.22,-480.59 1453,-494.247 1472.75,-503.957 1469.33,-518.373 1489,-528.247 1496.74,-532.134 1504.99,-535.428 1513.46,-538.218"/>
<polygon fill="midnightblue" stroke="midnightblue" points="1362.8,-468.17 1352.55,-470.84 1362.23,-475.146 1362.8,-468.17"/>
</g>
</g>
</svg>
        <g id="navigator" transform="translate(0 0)" fill="#404254">
                <rect fill="#f2f5e9" fill-opacity="0.5" stroke="#606060" stroke-width=".5" x="0" y="0" width="60" height="60"/>
                <use id="zoomplus" xlink:href="#zoomPlus" x="17" y="9" onmousedown="handleZoom(evt,'in')"/>
                <use id="zoomminus" xlink:href="#zoomMin" x="42" y="9" onmousedown="handleZoom(evt,'out')"/>
                <use id="reset" xlink:href="#resetDef" x="30" y="36" onmousedown="handleReset()"/>
                <g id="arrowUp" xlink:href="#dirArrow" transform="translate(30 24)" onmousedown="handlePan(0,-1)">
                  <use xlink:href="#rim" fill="#404040">
                        <set attributeName="fill" to="#808080" begin="arrowUp.mouseover" end="arrowUp.mouseout"/>
                  </use>
                  <path fill="none" stroke="white" stroke-width="1.5" d="M0,-3.0v7 M-2.5,-0.5L0,-3.0L2.5,-0.5"/>
                </g>
                <g id="arrowRight" xlink:href="#dirArrow" transform="rotate(90) translate(36 -43)" onmousedown="handlePan(1,0)">
                  <use xlink:href="#rim" fill="#404040">
                        <set attributeName="fill" to="#808080" begin="arrowRight.mouseover" end="arrowRight.mouseout"/>
                  </use>
                  <path fill="none" stroke="white" stroke-width="1.5" d="M0,-3.0v7 M-2.5,-0.5L0,-3.0L2.5,-0.5"/>
                </g>
                <g id="arrowDown" xlink:href="#dirArrow" transform="rotate(180) translate(-30 -48)" onmousedown="handlePan(0,1)">
                  <use xlink:href="#rim" fill="#404040">
                        <set attributeName="fill" to="#808080" begin="arrowDown.mouseover" end="arrowDown.mouseout"/>
                  </use>
                  <path fill="none" stroke="white" stroke-width="1.5" d="M0,-3.0v7 M-2.5,-0.5L0,-3.0L2.5,-0.5"/>
                </g>
                <g id="arrowLeft" xlink:href="#dirArrow" transform="rotate(270) translate(-36 17)" onmousedown="handlePan(-1,0)">
                  <use xlink:href="#rim" fill="#404040">
                        <set attributeName="fill" to="#808080" begin="arrowLeft.mouseover" end="arrowLeft.mouseout"/>
                  </use>
                  <path fill="none" stroke="white" stroke-width="1.5" d="M0,-3.0v7 M-2.5,-0.5L0,-3.0L2.5,-0.5"/>
                </g>
        </g>
        <svg viewBox="0 0 15 15" width="100%" height="30px" preserveAspectRatio="xMaxYMin meet">
         <g id="arrow_out" transform="scale(0.3 0.3)">
          <a xlink:href="classcom_1_1tomoparts_1_1tomoBay_1_1model_1_1sql_1_1framework_1_1QueryUtility_a202aab30c77e06c32318efd5cf949ca3_icgraph_org.svg" target="_base">
           <rect id="button" ry="5" rx="5" y="6" x="6" height="38" width="38"
                fill="#f2f5e9" fill-opacity="0.5" stroke="#606060" stroke-width="1.0"/>
           <path id="arrow"
             d="M 11.500037,31.436501 C 11.940474,20.09759 22.043105,11.32322 32.158766,21.979434 L 37.068811,17.246167 C 37.068811,17.246167 37.088388,32 37.088388,32 L 22.160133,31.978069 C 22.160133,31.978069 26.997745,27.140456 26.997745,27.140456 C 18.528582,18.264221 13.291696,25.230495 11.500037,31.436501 z"
             style="fill:#404040;"/>
          </a>
         </g>
        </svg>
</svg>
