<?xml version="1.0" encoding="UTF-8" standalone="no"?>
<!DOCTYPE svg PUBLIC "-//W3C//DTD SVG 1.1//EN"
 "http://www.w3.org/Graphics/SVG/1.1/DTD/svg11.dtd">
<!-- Generated by graphviz version 2.38.0 (20140413.2041)
 -->
<!-- Title: execute Pages: 1 -->
<svg width="584pt" height="209pt"
 viewBox="0.00 0.00 584.00 209.00" xmlns="http://www.w3.org/2000/svg" xmlns:xlink="http://www.w3.org/1999/xlink">
<g id="graph0" class="graph" transform="scale(1 1) rotate(0) translate(4 205)">
<title>execute</title>
<polygon fill="white" stroke="none" points="-4,4 -4,-205 580,-205 580,4 -4,4"/>
<!-- Node1 -->
<g id="node1" class="node"><title>Node1</title>
<polygon fill="#bfbfbf" stroke="black" points="0,-90.5 0,-109.5 55,-109.5 55,-90.5 0,-90.5"/>
<text text-anchor="middle" x="27.5" y="-97.5" font-family="Helvetica,sans-Serif" font-size="10.00">execute</text>
</g>
<!-- Node2 -->
<g id="node2" class="node"><title>Node2</title>
<g id="a_node2"><a xlink:href="classcom_1_1tomoparts_1_1tomoBay_1_1model_1_1dataTypes_1_1heteroTypeContainer_1_1HeteroFieldContainer.html#a3ba6289417930238a36bfee0056b6398" target="_top" xlink:title="add an arbitrary value to this Field container with the stipulation that this value is of the same ty...">
<polygon fill="white" stroke="black" points="109.5,-159.5 109.5,-200.5 315.5,-200.5 315.5,-159.5 109.5,-159.5"/>
<text text-anchor="start" x="117.5" y="-188.5" font-family="Helvetica,sans-Serif" font-size="10.00">com.tomoparts.tomoBay.model.data</text>
<text text-anchor="start" x="117.5" y="-177.5" font-family="Helvetica,sans-Serif" font-size="10.00">Types.heteroTypeContainer.HeteroField</text>
<text text-anchor="middle" x="212.5" y="-166.5" font-family="Helvetica,sans-Serif" font-size="10.00">Container.add</text>
</a>
</g>
</g>
<!-- Node1&#45;&gt;Node2 -->
<g id="edge1" class="edge"><title>Node1&#45;&gt;Node2</title>
<path fill="none" stroke="midnightblue" d="M37.7525,-109.591C49.2127,-120.914 69.8263,-139.526 91,-150 95.2452,-152.1 99.6492,-154.06 104.153,-155.89"/>
<polygon fill="midnightblue" stroke="midnightblue" points="102.93,-159.169 113.521,-159.464 105.426,-152.629 102.93,-159.169"/>
</g>
<!-- Node4 -->
<g id="node4" class="node"><title>Node4</title>
<g id="a_node4"><a xlink:href="classcom_1_1tomoparts_1_1tomoBay_1_1model_1_1sql_1_1framework_1_1ModifyQueryInvoker.html#ab8ef0fdf15f6720620e297c77ab25d46" target="_top" xlink:title="com.tomoparts.tomoBay.model.sql.framework.\lModifyQueryInvoker.execute">
<polygon fill="white" stroke="black" points="91,-110 91,-140 334,-140 334,-110 91,-110"/>
<text text-anchor="start" x="99" y="-128" font-family="Helvetica,sans-Serif" font-size="10.00">com.tomoparts.tomoBay.model.sql.framework.</text>
<text text-anchor="middle" x="212.5" y="-117" font-family="Helvetica,sans-Serif" font-size="10.00">ModifyQueryInvoker.execute</text>
</a>
</g>
</g>
<!-- Node1&#45;&gt;Node4 -->
<g id="edge3" class="edge"><title>Node1&#45;&gt;Node4</title>
<path fill="none" stroke="midnightblue" d="M55.1098,-103.635C65.3999,-105.041 77.946,-106.755 91.4102,-108.594"/>
<polygon fill="midnightblue" stroke="midnightblue" points="90.9757,-112.067 101.357,-109.953 91.9232,-105.132 90.9757,-112.067"/>
</g>
<!-- Node5 -->
<g id="node5" class="node"><title>Node5</title>
<g id="a_node5"><a xlink:href="classcom_1_1tomoparts_1_1tomoBay_1_1model_1_1sql_1_1framework_1_1SelectQueryInvoker.html#a594282bcbcc0731a7d234482717422d7" target="_top" xlink:title="execute a requested query ">
<polygon fill="white" stroke="black" points="91,-61 91,-91 334,-91 334,-61 91,-61"/>
<text text-anchor="start" x="99" y="-79" font-family="Helvetica,sans-Serif" font-size="10.00">com.tomoparts.tomoBay.model.sql.framework.</text>
<text text-anchor="middle" x="212.5" y="-68" font-family="Helvetica,sans-Serif" font-size="10.00">SelectQueryInvoker.execute</text>
</a>
</g>
</g>
<!-- Node1&#45;&gt;Node5 -->
<g id="edge4" class="edge"><title>Node1&#45;&gt;Node5</title>
<path fill="none" stroke="midnightblue" d="M55.1098,-96.5102C64.2483,-95.3117 75.1661,-93.8799 86.9261,-92.3376"/>
<polygon fill="midnightblue" stroke="midnightblue" points="87.5221,-95.7895 96.982,-91.0188 86.6118,-88.8489 87.5221,-95.7895"/>
</g>
<!-- Node6 -->
<g id="node6" class="node"><title>Node6</title>
<g id="a_node6"><a xlink:href="classcom_1_1tomoparts_1_1tomoBay_1_1model_1_1dataTypes_1_1heteroTypeContainer_1_1HeteroFieldContainer.html#a988363ab964d6dc0ccb8560bef5895b6" target="_top" xlink:title="retrieve the the value of an AbstractField from this HeteroFieldContainer, the field should be of the...">
<polygon fill="white" stroke="black" points="109.5,-0.5 109.5,-41.5 315.5,-41.5 315.5,-0.5 109.5,-0.5"/>
<text text-anchor="start" x="117.5" y="-29.5" font-family="Helvetica,sans-Serif" font-size="10.00">com.tomoparts.tomoBay.model.data</text>
<text text-anchor="start" x="117.5" y="-18.5" font-family="Helvetica,sans-Serif" font-size="10.00">Types.heteroTypeContainer.HeteroField</text>
<text text-anchor="middle" x="212.5" y="-7.5" font-family="Helvetica,sans-Serif" font-size="10.00">Container.get</text>
</a>
</g>
</g>
<!-- Node1&#45;&gt;Node6 -->
<g id="edge5" class="edge"><title>Node1&#45;&gt;Node6</title>
<path fill="none" stroke="midnightblue" d="M38.2536,-90.4525C49.8778,-79.593 70.3371,-62.0671 91,-52 96.0368,-49.546 101.29,-47.2711 106.664,-45.1641"/>
<polygon fill="midnightblue" stroke="midnightblue" points="108.279,-48.2987 116.447,-41.5505 105.854,-41.7323 108.279,-48.2987"/>
</g>
<!-- Node3 -->
<g id="node3" class="node"><title>Node3</title>
<g id="a_node3"><a xlink:href="classcom_1_1tomoparts_1_1tomoBay_1_1model_1_1dataTypes_1_1heteroTypeContainer_1_1HeteroFieldContainer.html#a9dee3c01eb5ab16203e1c6820a569484" target="_top" xlink:title="performs a type check, assuming that field and type are of the same type then this method returns tru...">
<polygon fill="white" stroke="black" points="370,-79.5 370,-120.5 576,-120.5 576,-79.5 370,-79.5"/>
<text text-anchor="start" x="378" y="-108.5" font-family="Helvetica,sans-Serif" font-size="10.00">com.tomoparts.tomoBay.model.data</text>
<text text-anchor="start" x="378" y="-97.5" font-family="Helvetica,sans-Serif" font-size="10.00">Types.heteroTypeContainer.HeteroField</text>
<text text-anchor="middle" x="473" y="-86.5" font-family="Helvetica,sans-Serif" font-size="10.00">Container.isSameType</text>
</a>
</g>
</g>
<!-- Node2&#45;&gt;Node3 -->
<g id="edge2" class="edge"><title>Node2&#45;&gt;Node3</title>
<path fill="none" stroke="midnightblue" d="M300.676,-159.436C311.937,-156.446 323.276,-153.268 334,-150 359.066,-142.361 386.261,-132.792 409.831,-124.075"/>
<polygon fill="midnightblue" stroke="midnightblue" points="411.203,-127.299 419.351,-120.528 408.759,-120.739 411.203,-127.299"/>
</g>
<!-- Node6&#45;&gt;Node3 -->
<g id="edge6" class="edge"><title>Node6&#45;&gt;Node3</title>
<path fill="none" stroke="midnightblue" d="M297.047,-41.5344C309.481,-44.8678 322.11,-48.4094 334,-52 357.904,-59.2184 383.829,-67.9826 406.686,-76.0366"/>
<polygon fill="midnightblue" stroke="midnightblue" points="405.685,-79.395 416.28,-79.4383 408.024,-72.7975 405.685,-79.395"/>
</g>
</g>
</svg>
