<?xml version="1.0" encoding="UTF-8" standalone="no"?>
<!DOCTYPE svg PUBLIC "-//W3C//DTD SVG 1.1//EN"
 "http://www.w3.org/Graphics/SVG/1.1/DTD/svg11.dtd">
<!-- Generated by graphviz version 2.38.0 (20140413.2041)
 -->
<!-- Title: qtyPurchased Pages: 1 -->
<svg width="574pt" height="50pt"
 viewBox="0.00 0.00 574.00 50.00" xmlns="http://www.w3.org/2000/svg" xmlns:xlink="http://www.w3.org/1999/xlink">
<g id="graph0" class="graph" transform="scale(1 1) rotate(0) translate(4 46)">
<title>qtyPurchased</title>
<polygon fill="white" stroke="none" points="-4,4 -4,-46 570,-46 570,4 -4,4"/>
<!-- Node1 -->
<g id="node1" class="node"><title>Node1</title>
<polygon fill="#bfbfbf" stroke="black" points="0,-11.5 0,-30.5 82,-30.5 82,-11.5 0,-11.5"/>
<text text-anchor="middle" x="41" y="-18.5" font-family="Helvetica,sans-Serif" font-size="10.00">qtyPurchased</text>
</g>
<!-- Node2 -->
<g id="node2" class="node"><title>Node2</title>
<g id="a_node2"><a xlink:href="classcom_1_1tomoparts_1_1tomoBay_1_1model_1_1dataTypes_1_1heteroTypeContainer_1_1HeteroFieldContainer.html#a988363ab964d6dc0ccb8560bef5895b6" target="_top" xlink:title="retrieve the the value of an AbstractField from this HeteroFieldContainer, the field should be of the...">
<polygon fill="white" stroke="black" points="118,-0.5 118,-41.5 324,-41.5 324,-0.5 118,-0.5"/>
<text text-anchor="start" x="126" y="-29.5" font-family="Helvetica,sans-Serif" font-size="10.00">com.tomoparts.tomoBay.model.data</text>
<text text-anchor="start" x="126" y="-18.5" font-family="Helvetica,sans-Serif" font-size="10.00">Types.heteroTypeContainer.HeteroField</text>
<text text-anchor="middle" x="221" y="-7.5" font-family="Helvetica,sans-Serif" font-size="10.00">Container.get</text>
</a>
</g>
</g>
<!-- Node1&#45;&gt;Node2 -->
<g id="edge1" class="edge"><title>Node1&#45;&gt;Node2</title>
<path fill="none" stroke="midnightblue" d="M82.391,-21C90.2162,-21 98.7646,-21 107.647,-21"/>
<polygon fill="midnightblue" stroke="midnightblue" points="107.797,-24.5001 117.797,-21 107.797,-17.5001 107.797,-24.5001"/>
</g>
<!-- Node3 -->
<g id="node3" class="node"><title>Node3</title>
<g id="a_node3"><a xlink:href="classcom_1_1tomoparts_1_1tomoBay_1_1model_1_1dataTypes_1_1heteroTypeContainer_1_1HeteroFieldContainer.html#a9dee3c01eb5ab16203e1c6820a569484" target="_top" xlink:title="performs a type check, assuming that field and type are of the same type then this method returns tru...">
<polygon fill="white" stroke="black" points="360,-0.5 360,-41.5 566,-41.5 566,-0.5 360,-0.5"/>
<text text-anchor="start" x="368" y="-29.5" font-family="Helvetica,sans-Serif" font-size="10.00">com.tomoparts.tomoBay.model.data</text>
<text text-anchor="start" x="368" y="-18.5" font-family="Helvetica,sans-Serif" font-size="10.00">Types.heteroTypeContainer.HeteroField</text>
<text text-anchor="middle" x="463" y="-7.5" font-family="Helvetica,sans-Serif" font-size="10.00">Container.isSameType</text>
</a>
</g>
</g>
<!-- Node2&#45;&gt;Node3 -->
<g id="edge2" class="edge"><title>Node2&#45;&gt;Node3</title>
<path fill="none" stroke="midnightblue" d="M324.13,-21C332.658,-21 341.309,-21 349.906,-21"/>
<polygon fill="midnightblue" stroke="midnightblue" points="349.962,-24.5001 359.962,-21 349.962,-17.5001 349.962,-24.5001"/>
</g>
</g>
</svg>
