<?xml version="1.0" encoding="UTF-8" standalone="no"?>
<!DOCTYPE svg PUBLIC "-//W3C//DTD SVG 1.1//EN"
 "http://www.w3.org/Graphics/SVG/1.1/DTD/svg11.dtd">
<!-- Generated by graphviz version 2.38.0 (20140413.2041)
 -->
<!-- Title: formatMailResult Pages: 1 -->
<svg width="820pt" height="198pt"
 viewBox="0.00 0.00 820.00 198.00" xmlns="http://www.w3.org/2000/svg" xmlns:xlink="http://www.w3.org/1999/xlink">
<g id="graph0" class="graph" transform="scale(1 1) rotate(0) translate(4 194)">
<title>formatMailResult</title>
<polygon fill="white" stroke="none" points="-4,4 -4,-194 816,-194 816,4 -4,4"/>
<!-- Node1 -->
<g id="node1" class="node"><title>Node1</title>
<polygon fill="#bfbfbf" stroke="black" points="0,-88 0,-107 97,-107 97,-88 0,-88"/>
<text text-anchor="middle" x="48.5" y="-95" font-family="Helvetica,sans-Serif" font-size="10.00">formatMailResult</text>
</g>
<!-- Node2 -->
<g id="node2" class="node"><title>Node2</title>
<g id="a_node2"><a xlink:href="classcom_1_1tomoparts_1_1tomoBay_1_1model_1_1dataTypes_1_1order_1_1Order.html#af1b2ba6868fd8d054a2c7f40f8a8b6e0" target="_top" xlink:title="retrieve the account that this order is associated with ">
<polygon fill="white" stroke="black" points="133,-0.5 133,-30.5 328,-30.5 328,-0.5 133,-0.5"/>
<text text-anchor="start" x="141" y="-18.5" font-family="Helvetica,sans-Serif" font-size="10.00">com.tomoparts.tomoBay.model.data</text>
<text text-anchor="middle" x="230.5" y="-7.5" font-family="Helvetica,sans-Serif" font-size="10.00">Types.order.Order.account</text>
</a>
</g>
</g>
<!-- Node1&#45;&gt;Node2 -->
<g id="edge1" class="edge"><title>Node1&#45;&gt;Node2</title>
<path fill="none" stroke="midnightblue" d="M60.8885,-87.8059C76.2819,-75.1725 105.032,-53.1995 133,-40.5 138.35,-38.0705 143.979,-35.8458 149.718,-33.8141"/>
<polygon fill="midnightblue" stroke="midnightblue" points="151.067,-37.0538 159.451,-30.5752 148.857,-30.4119 151.067,-37.0538"/>
</g>
<!-- Node7 -->
<g id="node7" class="node"><title>Node7</title>
<g id="a_node7"><a xlink:href="classcom_1_1tomoparts_1_1tomoBay_1_1model_1_1dataTypes_1_1order_1_1Order.html#af3f37e9085e3517cf3b87bf1a9e9aa9a" target="_top" xlink:title="retrieve the time at which this order was created ">
<polygon fill="white" stroke="black" points="133,-159.5 133,-189.5 328,-189.5 328,-159.5 133,-159.5"/>
<text text-anchor="start" x="141" y="-177.5" font-family="Helvetica,sans-Serif" font-size="10.00">com.tomoparts.tomoBay.model.data</text>
<text text-anchor="middle" x="230.5" y="-166.5" font-family="Helvetica,sans-Serif" font-size="10.00">Types.order.Order.createdTime</text>
</a>
</g>
</g>
<!-- Node1&#45;&gt;Node7 -->
<g id="edge6" class="edge"><title>Node1&#45;&gt;Node7</title>
<path fill="none" stroke="midnightblue" d="M61.802,-107.119C77.4912,-118.945 105.853,-138.873 133,-150.5 137.959,-152.624 143.146,-154.587 148.43,-156.397"/>
<polygon fill="midnightblue" stroke="midnightblue" points="147.428,-159.751 158.019,-159.491 149.577,-153.089 147.428,-159.751"/>
</g>
<!-- Node8 -->
<g id="node8" class="node"><title>Node8</title>
<g id="a_node8"><a xlink:href="classcom_1_1tomoparts_1_1tomoBay_1_1model_1_1dataTypes_1_1financial_1_1SalesOrderDayBook_1_1AbstractSalesDayBookLine.html#afacf6217c7f58a049b532205066da488" target="_top" xlink:title="retrieve the order that this AbstractSalesDayBookLine refers to. ">
<polygon fill="white" stroke="black" points="133,-50 133,-91 328,-91 328,-50 133,-50"/>
<text text-anchor="start" x="141" y="-79" font-family="Helvetica,sans-Serif" font-size="10.00">com.tomoparts.tomoBay.model.data</text>
<text text-anchor="start" x="141" y="-68" font-family="Helvetica,sans-Serif" font-size="10.00">Types.financial.SalesOrderDayBook.</text>
<text text-anchor="middle" x="230.5" y="-57" font-family="Helvetica,sans-Serif" font-size="10.00">AbstractSalesDayBookLine.orderInfo</text>
</a>
</g>
</g>
<!-- Node1&#45;&gt;Node8 -->
<g id="edge8" class="edge"><title>Node1&#45;&gt;Node8</title>
<path fill="none" stroke="midnightblue" d="M97.2641,-90.3354C105.285,-89.1322 113.886,-87.8421 122.709,-86.5186"/>
<polygon fill="midnightblue" stroke="midnightblue" points="123.377,-89.9577 132.747,-85.013 122.338,-83.0352 123.377,-89.9577"/>
</g>
<!-- Node9 -->
<g id="node9" class="node"><title>Node9</title>
<g id="a_node9"><a xlink:href="classcom_1_1tomoparts_1_1tomoBay_1_1model_1_1dataTypes_1_1order_1_1Order.html#a828ca20853400d5a09e3a6a48b6659d1" target="_top" xlink:title="retrieve the sales record number associated with this order ">
<polygon fill="white" stroke="black" points="133,-110.5 133,-140.5 328,-140.5 328,-110.5 133,-110.5"/>
<text text-anchor="start" x="141" y="-128.5" font-family="Helvetica,sans-Serif" font-size="10.00">com.tomoparts.tomoBay.model.data</text>
<text text-anchor="middle" x="230.5" y="-117.5" font-family="Helvetica,sans-Serif" font-size="10.00">Types.order.Order.salesRecNo</text>
</a>
</g>
</g>
<!-- Node1&#45;&gt;Node9 -->
<g id="edge9" class="edge"><title>Node1&#45;&gt;Node9</title>
<path fill="none" stroke="midnightblue" d="M97.2641,-104.93C105.285,-106.178 113.886,-107.516 122.709,-108.888"/>
<polygon fill="midnightblue" stroke="midnightblue" points="122.328,-112.371 132.747,-110.45 123.404,-105.454 122.328,-112.371"/>
</g>
<!-- Node3 -->
<g id="node3" class="node"><title>Node3</title>
<g id="a_node3"><a xlink:href="classcom_1_1tomoparts_1_1tomoBay_1_1model_1_1dataTypes_1_1heteroTypeContainer_1_1HeteroFieldContainer.html#a988363ab964d6dc0ccb8560bef5895b6" target="_top" xlink:title="retrieve the the value of an AbstractField from this HeteroFieldContainer, the field should be of the...">
<polygon fill="white" stroke="black" points="364,-105 364,-146 570,-146 570,-105 364,-105"/>
<text text-anchor="start" x="372" y="-134" font-family="Helvetica,sans-Serif" font-size="10.00">com.tomoparts.tomoBay.model.data</text>
<text text-anchor="start" x="372" y="-123" font-family="Helvetica,sans-Serif" font-size="10.00">Types.heteroTypeContainer.HeteroField</text>
<text text-anchor="middle" x="467" y="-112" font-family="Helvetica,sans-Serif" font-size="10.00">Container.get</text>
</a>
</g>
</g>
<!-- Node2&#45;&gt;Node3 -->
<g id="edge2" class="edge"><title>Node2&#45;&gt;Node3</title>
<path fill="none" stroke="midnightblue" d="M300.099,-30.556C309.623,-33.4275 319.164,-36.735 328,-40.5 364.673,-56.1253 403.018,-80.4873 429.954,-99.1313"/>
<polygon fill="midnightblue" stroke="midnightblue" points="428.084,-102.094 438.282,-104.965 432.1,-96.3611 428.084,-102.094"/>
</g>
<!-- Node5 -->
<g id="node5" class="node"><title>Node5</title>
<g id="a_node5"><a xlink:href="classcom_1_1tomoparts_1_1tomoBay_1_1model_1_1eBayAPI_1_1EbayAccounts.html#a263b122a1c598841624ba7d1e4a6c617" target="_top" xlink:title="convert an account ID to a textual name value. ">
<polygon fill="white" stroke="black" points="377.5,-0.5 377.5,-30.5 556.5,-30.5 556.5,-0.5 377.5,-0.5"/>
<text text-anchor="start" x="385.5" y="-18.5" font-family="Helvetica,sans-Serif" font-size="10.00">com.tomoparts.tomoBay.model.e</text>
<text text-anchor="middle" x="467" y="-7.5" font-family="Helvetica,sans-Serif" font-size="10.00">BayAPI.EbayAccounts.name</text>
</a>
</g>
</g>
<!-- Node2&#45;&gt;Node5 -->
<g id="edge4" class="edge"><title>Node2&#45;&gt;Node5</title>
<path fill="none" stroke="midnightblue" d="M328.234,-15.5C341.076,-15.5 354.257,-15.5 367.135,-15.5"/>
<polygon fill="midnightblue" stroke="midnightblue" points="367.385,-19.0001 377.385,-15.5 367.385,-12.0001 367.385,-19.0001"/>
</g>
<!-- Node4 -->
<g id="node4" class="node"><title>Node4</title>
<g id="a_node4"><a xlink:href="classcom_1_1tomoparts_1_1tomoBay_1_1model_1_1dataTypes_1_1heteroTypeContainer_1_1HeteroFieldContainer.html#a9dee3c01eb5ab16203e1c6820a569484" target="_top" xlink:title="performs a type check, assuming that field and type are of the same type then this method returns tru...">
<polygon fill="white" stroke="black" points="606,-105 606,-146 812,-146 812,-105 606,-105"/>
<text text-anchor="start" x="614" y="-134" font-family="Helvetica,sans-Serif" font-size="10.00">com.tomoparts.tomoBay.model.data</text>
<text text-anchor="start" x="614" y="-123" font-family="Helvetica,sans-Serif" font-size="10.00">Types.heteroTypeContainer.HeteroField</text>
<text text-anchor="middle" x="709" y="-112" font-family="Helvetica,sans-Serif" font-size="10.00">Container.isSameType</text>
</a>
</g>
</g>
<!-- Node3&#45;&gt;Node4 -->
<g id="edge3" class="edge"><title>Node3&#45;&gt;Node4</title>
<path fill="none" stroke="midnightblue" d="M570.13,-125.5C578.658,-125.5 587.309,-125.5 595.906,-125.5"/>
<polygon fill="midnightblue" stroke="midnightblue" points="595.962,-129 605.962,-125.5 595.962,-122 595.962,-129"/>
</g>
<!-- Node6 -->
<g id="node6" class="node"><title>Node6</title>
<g id="a_node6"><a xlink:href="classcom_1_1tomoparts_1_1tomoBay_1_1model_1_1eBayAPI_1_1EbayAccounts.html#a137163c03f463ad5d9581aef47a9a3e4" target="_top" xlink:title="retrieve the id for the account name specified ">
<polygon fill="white" stroke="black" points="619.5,-0.5 619.5,-30.5 798.5,-30.5 798.5,-0.5 619.5,-0.5"/>
<text text-anchor="start" x="627.5" y="-18.5" font-family="Helvetica,sans-Serif" font-size="10.00">com.tomoparts.tomoBay.model.e</text>
<text text-anchor="middle" x="709" y="-7.5" font-family="Helvetica,sans-Serif" font-size="10.00">BayAPI.EbayAccounts.id</text>
</a>
</g>
</g>
<!-- Node5&#45;&gt;Node6 -->
<g id="edge5" class="edge"><title>Node5&#45;&gt;Node6</title>
<path fill="none" stroke="midnightblue" d="M556.685,-15.5C573.763,-15.5 591.752,-15.5 609.129,-15.5"/>
<polygon fill="midnightblue" stroke="midnightblue" points="609.279,-19.0001 619.279,-15.5 609.279,-12.0001 609.279,-19.0001"/>
</g>
<!-- Node7&#45;&gt;Node3 -->
<g id="edge7" class="edge"><title>Node7&#45;&gt;Node3</title>
<path fill="none" stroke="midnightblue" d="M303.451,-159.465C320.684,-155.865 339.459,-151.941 357.929,-148.082"/>
<polygon fill="midnightblue" stroke="midnightblue" points="358.774,-151.481 367.847,-146.01 357.342,-144.629 358.774,-151.481"/>
</g>
<!-- Node9&#45;&gt;Node3 -->
<g id="edge10" class="edge"><title>Node9&#45;&gt;Node3</title>
<path fill="none" stroke="midnightblue" d="M328.234,-125.5C336.667,-125.5 345.247,-125.5 353.79,-125.5"/>
<polygon fill="midnightblue" stroke="midnightblue" points="353.792,-129 363.792,-125.5 353.792,-122 353.792,-129"/>
</g>
</g>
</svg>
