<?xml version="1.0" encoding="UTF-8" standalone="no"?>
<!DOCTYPE svg PUBLIC "-//W3C//DTD SVG 1.1//EN"
 "http://www.w3.org/Graphics/SVG/1.1/DTD/svg11.dtd">
<!-- Generated by graphviz version 2.38.0 (20140413.2041)
 -->
<!-- Title: execute Pages: 1 -->
<svg width="804pt" height="219pt"
 viewBox="0.00 0.00 804.00 219.00" xmlns="http://www.w3.org/2000/svg" xmlns:xlink="http://www.w3.org/1999/xlink">
<g id="graph0" class="graph" transform="scale(1 1) rotate(0) translate(4 215)">
<title>execute</title>
<polygon fill="white" stroke="none" points="-4,4 -4,-215 800,-215 800,4 -4,4"/>
<!-- Node1 -->
<g id="node1" class="node"><title>Node1</title>
<polygon fill="#bfbfbf" stroke="black" points="0,-123 0,-142 55,-142 55,-123 0,-123"/>
<text text-anchor="middle" x="27.5" y="-130" font-family="Helvetica,sans-Serif" font-size="10.00">execute</text>
</g>
<!-- Node2 -->
<g id="node2" class="node"><title>Node2</title>
<g id="a_node2"><a xlink:href="classcom_1_1tomoparts_1_1tomoBay_1_1model_1_1dataTypes_1_1json_1_1JSONentity.html#a885a59c0d9a3b39e50ba2862dfa57b2e" target="_top" xlink:title="com.tomoparts.tomoBay.model.data\lTypes.json.JSONentity.addBranch">
<polygon fill="white" stroke="black" points="91,-180.5 91,-210.5 286,-210.5 286,-180.5 91,-180.5"/>
<text text-anchor="start" x="99" y="-198.5" font-family="Helvetica,sans-Serif" font-size="10.00">com.tomoparts.tomoBay.model.data</text>
<text text-anchor="middle" x="188.5" y="-187.5" font-family="Helvetica,sans-Serif" font-size="10.00">Types.json.JSONentity.addBranch</text>
</a>
</g>
</g>
<!-- Node1&#45;&gt;Node2 -->
<g id="edge1" class="edge"><title>Node1&#45;&gt;Node2</title>
<path fill="none" stroke="midnightblue" d="M44.5509,-142.031C56.9462,-149.129 74.6818,-158.724 91,-165.5 101.339,-169.793 112.519,-173.81 123.479,-177.422"/>
<polygon fill="midnightblue" stroke="midnightblue" points="122.435,-180.763 133.026,-180.488 124.575,-174.098 122.435,-180.763"/>
</g>
<!-- Node4 -->
<g id="node4" class="node"><title>Node4</title>
<g id="a_node4"><a xlink:href="classcom_1_1tomoparts_1_1tomoBay_1_1model_1_1dataTypes_1_1json_1_1JSONentity.html#a77e2151cf49df9f80a4999e0e9e54d55" target="_top" xlink:title="com.tomoparts.tomoBay.model.data\lTypes.json.JSONentity.toString">
<polygon fill="white" stroke="black" points="346,-147.5 346,-177.5 541,-177.5 541,-147.5 346,-147.5"/>
<text text-anchor="start" x="354" y="-165.5" font-family="Helvetica,sans-Serif" font-size="10.00">com.tomoparts.tomoBay.model.data</text>
<text text-anchor="middle" x="443.5" y="-154.5" font-family="Helvetica,sans-Serif" font-size="10.00">Types.json.JSONentity.toString</text>
</a>
</g>
</g>
<!-- Node1&#45;&gt;Node4 -->
<g id="edge11" class="edge"><title>Node1&#45;&gt;Node4</title>
<path fill="none" stroke="midnightblue" d="M55.0273,-134.422C110.473,-138.44 241.298,-147.92 335.608,-154.754"/>
<polygon fill="midnightblue" stroke="midnightblue" points="335.539,-158.258 345.766,-155.49 336.045,-151.277 335.539,-158.258"/>
</g>
<!-- Node5 -->
<g id="node5" class="node"><title>Node5</title>
<g id="a_node5"><a xlink:href="classcom_1_1tomoparts_1_1tomoBay_1_1presenters_1_1presenterActions_1_1concreteActions_1_1BuyerList.html#a1b9a0fa1ef5b8b60a831e9ebc80e6f97" target="_top" xlink:title="format the results of the query as a JSON string ">
<polygon fill="white" stroke="black" points="147,-104 147,-123 230,-123 230,-104 147,-104"/>
<text text-anchor="middle" x="188.5" y="-111" font-family="Helvetica,sans-Serif" font-size="10.00">formatResults</text>
</a>
</g>
</g>
<!-- Node1&#45;&gt;Node5 -->
<g id="edge4" class="edge"><title>Node1&#45;&gt;Node5</title>
<path fill="none" stroke="midnightblue" d="M55.113,-129.32C77.2975,-126.669 109.538,-122.816 136.647,-119.577"/>
<polygon fill="midnightblue" stroke="midnightblue" points="137.24,-123.031 146.754,-118.369 136.41,-116.08 137.24,-123.031"/>
</g>
<!-- Node8 -->
<g id="node8" class="node"><title>Node8</title>
<g id="a_node8"><a xlink:href="classcom_1_1tomoparts_1_1tomoBay_1_1presenters_1_1presenterActions_1_1concreteActions_1_1BuyerList.html#a689d63fa5ca62b756f66d8940f722bac" target="_top" xlink:title="retrieve a list of buyers and associated information from the database ">
<polygon fill="white" stroke="black" points="151.5,-36 151.5,-55 225.5,-55 225.5,-36 151.5,-36"/>
<text text-anchor="middle" x="188.5" y="-43" font-family="Helvetica,sans-Serif" font-size="10.00">getRawData</text>
</a>
</g>
</g>
<!-- Node1&#45;&gt;Node8 -->
<g id="edge9" class="edge"><title>Node1&#45;&gt;Node8</title>
<path fill="none" stroke="midnightblue" d="M43.4646,-122.958C56.0083,-115.068 74.4687,-103.705 91,-94.5 113.329,-82.0667 139.173,-69.0126 158.493,-59.5074"/>
<polygon fill="midnightblue" stroke="midnightblue" points="160.233,-62.5523 167.678,-55.0137 157.157,-56.2644 160.233,-62.5523"/>
</g>
<!-- Node3 -->
<g id="node3" class="node"><title>Node3</title>
<g id="a_node3"><a xlink:href="classcom_1_1tomoparts_1_1tomoBay_1_1model_1_1dataTypes_1_1DualList.html#ac6c5d11a7054f49bb7c9489f5893daeb" target="_top" xlink:title="add a value pair to the DualList ">
<polygon fill="white" stroke="black" points="601,-144.5 601,-174.5 796,-174.5 796,-144.5 601,-144.5"/>
<text text-anchor="start" x="609" y="-162.5" font-family="Helvetica,sans-Serif" font-size="10.00">com.tomoparts.tomoBay.model.data</text>
<text text-anchor="middle" x="698.5" y="-151.5" font-family="Helvetica,sans-Serif" font-size="10.00">Types.DualList.put</text>
</a>
</g>
</g>
<!-- Node2&#45;&gt;Node3 -->
<g id="edge2" class="edge"><title>Node2&#45;&gt;Node3</title>
<path fill="none" stroke="midnightblue" d="M286.306,-198.388C362.337,-199.464 470.75,-198.366 565,-187.5 585.775,-185.105 608.108,-180.994 628.41,-176.649"/>
<polygon fill="midnightblue" stroke="midnightblue" points="629.178,-180.064 638.197,-174.503 627.679,-173.226 629.178,-180.064"/>
</g>
<!-- Node2&#45;&gt;Node4 -->
<g id="edge3" class="edge"><title>Node2&#45;&gt;Node4</title>
<path fill="none" stroke="midnightblue" d="M286.231,-182.883C302.404,-180.773 319.266,-178.574 335.674,-176.434"/>
<polygon fill="midnightblue" stroke="midnightblue" points="336.359,-179.874 345.822,-175.11 335.454,-172.933 336.359,-179.874"/>
</g>
<!-- Node5&#45;&gt;Node4 -->
<g id="edge8" class="edge"><title>Node5&#45;&gt;Node4</title>
<path fill="none" stroke="midnightblue" d="M230.149,-121.373C263.706,-127.872 312.525,-137.327 354.894,-145.533"/>
<polygon fill="midnightblue" stroke="midnightblue" points="354.466,-149.015 364.949,-147.48 355.797,-142.143 354.466,-149.015"/>
</g>
<!-- Node6 -->
<g id="node6" class="node"><title>Node6</title>
<g id="a_node6"><a xlink:href="classcom_1_1tomoparts_1_1tomoBay_1_1model_1_1dataTypes_1_1json_1_1JSONentity.html#afead82af115042a64d2604ec5f508f45" target="_top" xlink:title="A leaf node is simply a key value pair. ">
<polygon fill="white" stroke="black" points="346,-98.5 346,-128.5 541,-128.5 541,-98.5 346,-98.5"/>
<text text-anchor="start" x="354" y="-116.5" font-family="Helvetica,sans-Serif" font-size="10.00">com.tomoparts.tomoBay.model.data</text>
<text text-anchor="middle" x="443.5" y="-105.5" font-family="Helvetica,sans-Serif" font-size="10.00">Types.json.JSONentity.addLeaf</text>
</a>
</g>
</g>
<!-- Node5&#45;&gt;Node6 -->
<g id="edge5" class="edge"><title>Node5&#45;&gt;Node6</title>
<path fill="none" stroke="midnightblue" d="M230.149,-113.5C258.685,-113.5 298.257,-113.5 335.515,-113.5"/>
<polygon fill="midnightblue" stroke="midnightblue" points="335.951,-117 345.951,-113.5 335.951,-110 335.951,-117"/>
</g>
<!-- Node7 -->
<g id="node7" class="node"><title>Node7</title>
<g id="a_node7"><a xlink:href="classcom_1_1tomoparts_1_1tomoBay_1_1security_1_1SaneInput.html#acd49fdb5d11a2b2e22808c8135eca51f" target="_top" xlink:title="sanitise the string so that it will have no problems on converting to json ">
<polygon fill="white" stroke="black" points="353,-49.5 353,-79.5 534,-79.5 534,-49.5 353,-49.5"/>
<text text-anchor="start" x="361" y="-67.5" font-family="Helvetica,sans-Serif" font-size="10.00">com.tomoparts.tomoBay.security.</text>
<text text-anchor="middle" x="443.5" y="-56.5" font-family="Helvetica,sans-Serif" font-size="10.00">SaneInput.json</text>
</a>
</g>
</g>
<!-- Node5&#45;&gt;Node7 -->
<g id="edge7" class="edge"><title>Node5&#45;&gt;Node7</title>
<path fill="none" stroke="midnightblue" d="M230.149,-105.627C263.706,-99.1281 312.525,-89.6731 354.894,-81.4671"/>
<polygon fill="midnightblue" stroke="midnightblue" points="355.797,-84.8574 364.949,-79.5197 354.466,-77.9851 355.797,-84.8574"/>
</g>
<!-- Node6&#45;&gt;Node3 -->
<g id="edge6" class="edge"><title>Node6&#45;&gt;Node3</title>
<path fill="none" stroke="midnightblue" d="M527.342,-128.562C552.15,-133.073 579.513,-138.048 604.907,-142.665"/>
<polygon fill="midnightblue" stroke="midnightblue" points="604.44,-146.137 614.905,-144.483 605.692,-139.25 604.44,-146.137"/>
</g>
<!-- Node9 -->
<g id="node9" class="node"><title>Node9</title>
<g id="a_node9"><a xlink:href="classcom_1_1tomoparts_1_1tomoBay_1_1model_1_1sql_1_1framework_1_1SelectQueryInvoker.html#a594282bcbcc0731a7d234482717422d7" target="_top" xlink:title="execute a requested query ">
<polygon fill="white" stroke="black" points="322,-0.5 322,-30.5 565,-30.5 565,-0.5 322,-0.5"/>
<text text-anchor="start" x="330" y="-18.5" font-family="Helvetica,sans-Serif" font-size="10.00">com.tomoparts.tomoBay.model.sql.framework.</text>
<text text-anchor="middle" x="443.5" y="-7.5" font-family="Helvetica,sans-Serif" font-size="10.00">SelectQueryInvoker.execute</text>
</a>
</g>
</g>
<!-- Node8&#45;&gt;Node9 -->
<g id="edge10" class="edge"><title>Node8&#45;&gt;Node9</title>
<path fill="none" stroke="midnightblue" d="M225.749,-41.2017C248.743,-38.4752 280.037,-34.7643 311.692,-31.0108"/>
<polygon fill="midnightblue" stroke="midnightblue" points="312.454,-34.445 321.973,-29.7918 311.63,-27.4937 312.454,-34.445"/>
</g>
</g>
</svg>
