<?xml version="1.0" encoding="UTF-8" standalone="no"?>
<!DOCTYPE svg PUBLIC "-//W3C//DTD SVG 1.1//EN"
 "http://www.w3.org/Graphics/SVG/1.1/DTD/svg11.dtd">
<!-- Generated by graphviz version 2.38.0 (20140413.2041)
 -->
<!-- Title: apiKey Pages: 1 -->
<svg width="1013pt" height="137pt"
 viewBox="0.00 0.00 1013.00 137.00" xmlns="http://www.w3.org/2000/svg" xmlns:xlink="http://www.w3.org/1999/xlink">
<g id="graph0" class="graph" transform="scale(1 1) rotate(0) translate(4 133)">
<title>apiKey</title>
<polygon fill="white" stroke="none" points="-4,4 -4,-133 1009,-133 1009,4 -4,4"/>
<!-- Node1 -->
<g id="node1" class="node"><title>Node1</title>
<polygon fill="#bfbfbf" stroke="black" points="0,-55 0,-74 48,-74 48,-55 0,-55"/>
<text text-anchor="middle" x="24" y="-62" font-family="Helvetica,sans-Serif" font-size="10.00">apiKey</text>
</g>
<!-- Node2 -->
<g id="node2" class="node"><title>Node2</title>
<g id="a_node2"><a xlink:href="classcom_1_1tomoparts_1_1tomoBay_1_1model_1_1services_1_1basicEbayUpdateService_1_1OnRunning.html#ae4a4f4cadce2787c7e80005639fbd5d9" target="_top" xlink:title="this method defines what to do in the given derived state ">
<polygon fill="white" stroke="black" points="94,-98.5 94,-128.5 334,-128.5 334,-98.5 94,-98.5"/>
<text text-anchor="start" x="102" y="-116.5" font-family="Helvetica,sans-Serif" font-size="10.00">com.tomoparts.tomoBay.model.services.basic</text>
<text text-anchor="middle" x="214" y="-105.5" font-family="Helvetica,sans-Serif" font-size="10.00">EbayUpdateService.OnRunning.execute</text>
</a>
</g>
</g>
<!-- Node1&#45;&gt;Node2 -->
<g id="edge1" class="edge"><title>Node1&#45;&gt;Node2</title>
<path fill="none" stroke="midnightblue" d="M53.8703,-78.209C63.3138,-82.2919 73.9591,-86.4778 84,-89.5 95.2339,-92.8813 107.169,-95.8735 119.067,-98.4962"/>
<polygon fill="midnightblue" stroke="midnightblue" points="55.0982,-74.9243 44.54,-74.0445 52.2451,-81.3165 55.0982,-74.9243"/>
</g>
<!-- Node5 -->
<g id="node5" class="node"><title>Node5</title>
<g id="a_node5"><a xlink:href="classcom_1_1tomoparts_1_1tomoBay_1_1model_1_1services_1_1individualItemRefreshService_1_1OnRunning.html#ac963522e7548952e01f9292cf94880ed" target="_top" xlink:title="use the itemID passed in to find out information about a specific eBay item. ">
<polygon fill="white" stroke="black" points="84,-49.5 84,-79.5 344,-79.5 344,-49.5 84,-49.5"/>
<text text-anchor="start" x="92" y="-67.5" font-family="Helvetica,sans-Serif" font-size="10.00">com.tomoparts.tomoBay.model.services.individual</text>
<text text-anchor="middle" x="214" y="-56.5" font-family="Helvetica,sans-Serif" font-size="10.00">ItemRefreshService.OnRunning.getItemData</text>
</a>
</g>
</g>
<!-- Node1&#45;&gt;Node5 -->
<g id="edge4" class="edge"><title>Node1&#45;&gt;Node5</title>
<path fill="none" stroke="midnightblue" d="M58.2965,-64.5C66.0252,-64.5 74.7104,-64.5 83.9203,-64.5"/>
<polygon fill="midnightblue" stroke="midnightblue" points="58.0525,-61.0001 48.0525,-64.5 58.0525,-68.0001 58.0525,-61.0001"/>
</g>
<!-- Node8 -->
<g id="node8" class="node"><title>Node8</title>
<g id="a_node8"><a xlink:href="classcom_1_1tomoparts_1_1tomoBay_1_1model_1_1services_1_1reScanErrorsService_1_1ItemSpecifics.html#a15839159a196a40202a2dd1e25a89423" target="_top" xlink:title="constructor creates an ItemSpecifics object for the itemID passed in as an argument. ">
<polygon fill="white" stroke="black" points="95,-0.5 95,-30.5 333,-30.5 333,-0.5 95,-0.5"/>
<text text-anchor="start" x="103" y="-18.5" font-family="Helvetica,sans-Serif" font-size="10.00">com.tomoparts.tomoBay.model.services.re</text>
<text text-anchor="middle" x="214" y="-7.5" font-family="Helvetica,sans-Serif" font-size="10.00">ScanErrorsService.ItemSpecifics.ItemSpecifics</text>
</a>
</g>
</g>
<!-- Node1&#45;&gt;Node8 -->
<g id="edge7" class="edge"><title>Node1&#45;&gt;Node8</title>
<path fill="none" stroke="midnightblue" d="M55.1173,-50.9306C64.262,-47.171 74.4253,-43.3455 84,-40.5 96.5737,-36.7632 110.007,-33.4438 123.279,-30.5428"/>
<polygon fill="midnightblue" stroke="midnightblue" points="53.5116,-47.8097 45.6704,-54.9348 56.2434,-54.2547 53.5116,-47.8097"/>
</g>
<!-- Node3 -->
<g id="node3" class="node"><title>Node3</title>
<g id="a_node3"><a xlink:href="classcom_1_1tomoparts_1_1tomoBay_1_1model_1_1services_1_1basicEbayUpdateService_1_1BasicEbayUpdateService.html#ae3b0a282dcba7f2d675ca89b1dd48487" target="_top" xlink:title="com.tomoparts.tomoBay.model.services.basic\lEbayUpdateService.BasicEbayUpdateService.onRunning">
<polygon fill="white" stroke="black" points="380,-98.5 380,-128.5 666,-128.5 666,-98.5 380,-98.5"/>
<text text-anchor="start" x="388" y="-116.5" font-family="Helvetica,sans-Serif" font-size="10.00">com.tomoparts.tomoBay.model.services.basic</text>
<text text-anchor="middle" x="523" y="-105.5" font-family="Helvetica,sans-Serif" font-size="10.00">EbayUpdateService.BasicEbayUpdateService.onRunning</text>
</a>
</g>
</g>
<!-- Node2&#45;&gt;Node3 -->
<g id="edge2" class="edge"><title>Node2&#45;&gt;Node3</title>
<path fill="none" stroke="midnightblue" d="M344.393,-113.5C356.133,-113.5 368.065,-113.5 379.906,-113.5"/>
<polygon fill="midnightblue" stroke="midnightblue" points="344.134,-110 334.134,-113.5 344.134,-117 344.134,-110"/>
</g>
<!-- Node4 -->
<g id="node4" class="node"><title>Node4</title>
<g id="a_node4"><a xlink:href="classcom_1_1tomoparts_1_1tomoBay_1_1model_1_1services_1_1basicEbayUpdateService_1_1BasicEbayUpdateService.html#afd85cd6baa355d54ab15c19c16c21df9" target="_top" xlink:title="com.tomoparts.tomoBay.model.services.basic\lEbayUpdateService.BasicEbayUpdateService.onPaused">
<polygon fill="white" stroke="black" points="712,-98.5 712,-128.5 995,-128.5 995,-98.5 712,-98.5"/>
<text text-anchor="start" x="720" y="-116.5" font-family="Helvetica,sans-Serif" font-size="10.00">com.tomoparts.tomoBay.model.services.basic</text>
<text text-anchor="middle" x="853.5" y="-105.5" font-family="Helvetica,sans-Serif" font-size="10.00">EbayUpdateService.BasicEbayUpdateService.onPaused</text>
</a>
</g>
</g>
<!-- Node3&#45;&gt;Node4 -->
<g id="edge3" class="edge"><title>Node3&#45;&gt;Node4</title>
<path fill="none" stroke="midnightblue" d="M676.52,-113.5C688.324,-113.5 700.209,-113.5 711.929,-113.5"/>
<polygon fill="midnightblue" stroke="midnightblue" points="676.174,-110 666.174,-113.5 676.174,-117 676.174,-110"/>
</g>
<!-- Node6 -->
<g id="node6" class="node"><title>Node6</title>
<g id="a_node6"><a xlink:href="classcom_1_1tomoparts_1_1tomoBay_1_1model_1_1services_1_1individualItemRefreshService_1_1OnRunning.html#ae4a4f4cadce2787c7e80005639fbd5d9" target="_top" xlink:title="this method defines what to do in the given derived state ">
<polygon fill="white" stroke="black" points="393,-49.5 393,-79.5 653,-79.5 653,-49.5 393,-49.5"/>
<text text-anchor="start" x="401" y="-67.5" font-family="Helvetica,sans-Serif" font-size="10.00">com.tomoparts.tomoBay.model.services.individual</text>
<text text-anchor="middle" x="523" y="-56.5" font-family="Helvetica,sans-Serif" font-size="10.00">ItemRefreshService.OnRunning.execute</text>
</a>
</g>
</g>
<!-- Node5&#45;&gt;Node6 -->
<g id="edge5" class="edge"><title>Node5&#45;&gt;Node6</title>
<path fill="none" stroke="midnightblue" d="M354.51,-64.5C367.277,-64.5 380.174,-64.5 392.844,-64.5"/>
<polygon fill="midnightblue" stroke="midnightblue" points="354.306,-61.0001 344.306,-64.5 354.306,-68.0001 354.306,-61.0001"/>
</g>
<!-- Node7 -->
<g id="node7" class="node"><title>Node7</title>
<g id="a_node7"><a xlink:href="classcom_1_1tomoparts_1_1tomoBay_1_1model_1_1services_1_1individualItemRefreshService_1_1IndividualItemRefreshService.html#ae3b0a282dcba7f2d675ca89b1dd48487" target="_top" xlink:title="com.tomoparts.tomoBay.model.services.individual\lItemRefreshService.IndividualItemRefreshService.onRunning">
<polygon fill="white" stroke="black" points="702,-49.5 702,-79.5 1005,-79.5 1005,-49.5 702,-49.5"/>
<text text-anchor="start" x="710" y="-67.5" font-family="Helvetica,sans-Serif" font-size="10.00">com.tomoparts.tomoBay.model.services.individual</text>
<text text-anchor="middle" x="853.5" y="-56.5" font-family="Helvetica,sans-Serif" font-size="10.00">ItemRefreshService.IndividualItemRefreshService.onRunning</text>
</a>
</g>
</g>
<!-- Node6&#45;&gt;Node7 -->
<g id="edge6" class="edge"><title>Node6&#45;&gt;Node7</title>
<path fill="none" stroke="midnightblue" d="M663.471,-64.5C676.138,-64.5 689.007,-64.5 701.767,-64.5"/>
<polygon fill="midnightblue" stroke="midnightblue" points="663.36,-61.0001 653.36,-64.5 663.36,-68.0001 663.36,-61.0001"/>
</g>
</g>
</svg>
