<?xml version="1.0" encoding="UTF-8" standalone="no"?>
<!DOCTYPE svg PUBLIC "-//W3C//DTD SVG 1.1//EN"
 "http://www.w3.org/Graphics/SVG/1.1/DTD/svg11.dtd">
<!-- Generated by graphviz version 2.38.0 (20140413.2041)
 -->
<!-- Title: getMailSendServer Pages: 1 -->
<svg width="993pt" height="173pt"
 viewBox="0.00 0.00 993.00 172.50" xmlns="http://www.w3.org/2000/svg" xmlns:xlink="http://www.w3.org/1999/xlink">
<g id="graph0" class="graph" transform="scale(1 1) rotate(0) translate(4 168.5)">
<title>getMailSendServer</title>
<polygon fill="white" stroke="none" points="-4,4 -4,-168.5 989,-168.5 989,4 -4,4"/>
<!-- Node1 -->
<g id="node1" class="node"><title>Node1</title>
<polygon fill="#bfbfbf" stroke="black" points="0,-79 0,-98 107,-98 107,-79 0,-79"/>
<text text-anchor="middle" x="53.5" y="-86" font-family="Helvetica,sans-Serif" font-size="10.00">getMailSendServer</text>
</g>
<!-- Node2 -->
<g id="node2" class="node"><title>Node2</title>
<g id="a_node2"><a xlink:href="classcom_1_1tomoparts_1_1tomoBay_1_1model_1_1services_1_1emailErrorsService_1_1EmailErrorsMailActions.html#ac25d519c7ee7b6a51c445abba35389e5" target="_top" xlink:title="default ctor ">
<polygon fill="white" stroke="black" points="154,-123 154,-164 396,-164 396,-123 154,-123"/>
<text text-anchor="start" x="162" y="-152" font-family="Helvetica,sans-Serif" font-size="10.00">com.tomoparts.tomoBay.model.services.email</text>
<text text-anchor="start" x="162" y="-141" font-family="Helvetica,sans-Serif" font-size="10.00">ErrorsService.EmailErrorsMailActions.Email</text>
<text text-anchor="middle" x="275" y="-130" font-family="Helvetica,sans-Serif" font-size="10.00">ErrorsMailActions</text>
</a>
</g>
</g>
<!-- Node1&#45;&gt;Node2 -->
<g id="edge1" class="edge"><title>Node1&#45;&gt;Node2</title>
<path fill="none" stroke="midnightblue" d="M96.5586,-100.847C111.213,-105.025 127.792,-109.613 143,-113.5 155.433,-116.678 168.57,-119.874 181.535,-122.936"/>
<polygon fill="midnightblue" stroke="midnightblue" points="97.3387,-97.4294 86.7611,-98.0335 95.4067,-104.158 97.3387,-97.4294"/>
</g>
<!-- Node3 -->
<g id="node3" class="node"><title>Node3</title>
<g id="a_node3"><a xlink:href="classcom_1_1tomoparts_1_1tomoBay_1_1test_1_1unit_1_1model_1_1net_1_1email_1_1EmailTest.html#a8b260eecbaabcef8473fd87ada040682" target="_top" xlink:title="com.tomoparts.tomoBay.test.unit.model.net.email.\lEmailTest.main">
<polygon fill="white" stroke="black" points="143,-73.5 143,-103.5 407,-103.5 407,-73.5 143,-73.5"/>
<text text-anchor="start" x="151" y="-91.5" font-family="Helvetica,sans-Serif" font-size="10.00">com.tomoparts.tomoBay.test.unit.model.net.email.</text>
<text text-anchor="middle" x="275" y="-80.5" font-family="Helvetica,sans-Serif" font-size="10.00">EmailTest.main</text>
</a>
</g>
</g>
<!-- Node1&#45;&gt;Node3 -->
<g id="edge2" class="edge"><title>Node1&#45;&gt;Node3</title>
<path fill="none" stroke="midnightblue" d="M117.168,-88.5C125.331,-88.5 133.922,-88.5 142.706,-88.5"/>
<polygon fill="midnightblue" stroke="midnightblue" points="117.076,-85.0001 107.076,-88.5 117.076,-92.0001 117.076,-85.0001"/>
</g>
<!-- Node4 -->
<g id="node4" class="node"><title>Node4</title>
<g id="a_node4"><a xlink:href="classcom_1_1tomoparts_1_1tomoBay_1_1model_1_1net_1_1email_1_1MailClient.html#af9eddf4b6d3506f30b2f282c86c59ed6" target="_top" xlink:title="sends an email containing a message and subject. ">
<polygon fill="white" stroke="black" points="164.5,-24.5 164.5,-54.5 385.5,-54.5 385.5,-24.5 164.5,-24.5"/>
<text text-anchor="start" x="172.5" y="-42.5" font-family="Helvetica,sans-Serif" font-size="10.00">com.tomoparts.tomoBay.model.net.email.</text>
<text text-anchor="middle" x="275" y="-31.5" font-family="Helvetica,sans-Serif" font-size="10.00">MailClient.send</text>
</a>
</g>
</g>
<!-- Node1&#45;&gt;Node4 -->
<g id="edge3" class="edge"><title>Node1&#45;&gt;Node4</title>
<path fill="none" stroke="midnightblue" d="M97.2378,-76.2039C111.708,-72.2293 128.002,-67.9595 143,-64.5 158.116,-61.0134 174.293,-57.6393 189.94,-54.5578"/>
<polygon fill="midnightblue" stroke="midnightblue" points="96.2479,-72.8462 87.5493,-78.8947 98.1212,-79.5909 96.2479,-72.8462"/>
</g>
<!-- Node5 -->
<g id="node5" class="node"><title>Node5</title>
<g id="a_node5"><a xlink:href="classcom_1_1tomoparts_1_1tomoBay_1_1model_1_1net_1_1email_1_1MailClient.html#a9a353e90e57af1d4968845017c4d6fa8" target="_top" xlink:title="com.tomoparts.tomoBay.model.net.email.\lMailClient.MailClient">
<polygon fill="white" stroke="black" points="464.5,-49.5 464.5,-79.5 685.5,-79.5 685.5,-49.5 464.5,-49.5"/>
<text text-anchor="start" x="472.5" y="-67.5" font-family="Helvetica,sans-Serif" font-size="10.00">com.tomoparts.tomoBay.model.net.email.</text>
<text text-anchor="middle" x="575" y="-56.5" font-family="Helvetica,sans-Serif" font-size="10.00">MailClient.MailClient</text>
</a>
</g>
</g>
<!-- Node4&#45;&gt;Node5 -->
<g id="edge4" class="edge"><title>Node4&#45;&gt;Node5</title>
<path fill="none" stroke="midnightblue" d="M395.958,-49.5636C418.453,-51.4507 441.867,-53.415 464.039,-55.2751"/>
<polygon fill="midnightblue" stroke="midnightblue" points="395.952,-46.0509 385.695,-48.7026 395.367,-53.0264 395.952,-46.0509"/>
</g>
<!-- Node6 -->
<g id="node6" class="node"><title>Node6</title>
<g id="a_node6"><a xlink:href="classcom_1_1tomoparts_1_1tomoBay_1_1presenters_1_1presenterActions_1_1concreteActions_1_1InvoiceOrders.html#a9c77c827472e4f09aa020d55e7d33b10" target="_top" xlink:title="com.tomoparts.tomoBay.presenters.presenter\lActions.concreteActions.InvoiceOrders.emailResults">
<polygon fill="white" stroke="black" points="443,-0.5 443,-30.5 707,-30.5 707,-0.5 443,-0.5"/>
<text text-anchor="start" x="451" y="-18.5" font-family="Helvetica,sans-Serif" font-size="10.00">com.tomoparts.tomoBay.presenters.presenter</text>
<text text-anchor="middle" x="575" y="-7.5" font-family="Helvetica,sans-Serif" font-size="10.00">Actions.concreteActions.InvoiceOrders.emailResults</text>
</a>
</g>
</g>
<!-- Node4&#45;&gt;Node6 -->
<g id="edge5" class="edge"><title>Node4&#45;&gt;Node6</title>
<path fill="none" stroke="midnightblue" d="M395.792,-29.8523C411.265,-28.6062 427.174,-27.3249 442.819,-26.0649"/>
<polygon fill="midnightblue" stroke="midnightblue" points="395.381,-26.374 385.695,-30.6655 395.943,-33.3514 395.381,-26.374"/>
</g>
<!-- Node7 -->
<g id="node7" class="node"><title>Node7</title>
<g id="a_node7"><a xlink:href="classcom_1_1tomoparts_1_1tomoBay_1_1presenters_1_1presenterActions_1_1concreteActions_1_1InvoiceOrders.html#adb3dedf31dc2c7fc796f20406c235ccd" target="_top" xlink:title="performs the action specified ">
<polygon fill="white" stroke="black" points="743,-0.5 743,-30.5 985,-30.5 985,-0.5 743,-0.5"/>
<text text-anchor="start" x="751" y="-18.5" font-family="Helvetica,sans-Serif" font-size="10.00">com.tomoparts.tomoBay.presenters.presenter</text>
<text text-anchor="middle" x="864" y="-7.5" font-family="Helvetica,sans-Serif" font-size="10.00">Actions.concreteActions.InvoiceOrders.execute</text>
</a>
</g>
</g>
<!-- Node6&#45;&gt;Node7 -->
<g id="edge6" class="edge"><title>Node6&#45;&gt;Node7</title>
<path fill="none" stroke="midnightblue" d="M717.581,-15.5C726.002,-15.5 734.432,-15.5 742.754,-15.5"/>
<polygon fill="midnightblue" stroke="midnightblue" points="717.321,-12.0001 707.321,-15.5 717.321,-19.0001 717.321,-12.0001"/>
</g>
</g>
</svg>
