<?xml version="1.0" encoding="UTF-8" standalone="no"?>
<!DOCTYPE svg PUBLIC "-//W3C//DTD SVG 1.1//EN"
 "http://www.w3.org/Graphics/SVG/1.1/DTD/svg11.dtd">
<!-- Generated by graphviz version 2.38.0 (20140413.2041)
 -->
<!-- Title: clear Pages: 1 -->
<svg width="965pt" height="88pt"
 viewBox="0.00 0.00 965.00 88.00" xmlns="http://www.w3.org/2000/svg" xmlns:xlink="http://www.w3.org/1999/xlink">
<g id="graph0" class="graph" transform="scale(1 1) rotate(0) translate(4 84)">
<title>clear</title>
<polygon fill="white" stroke="none" points="-4,4 -4,-84 961,-84 961,4 -4,4"/>
<!-- Node1 -->
<g id="node1" class="node"><title>Node1</title>
<polygon fill="#bfbfbf" stroke="black" points="0,-35.5 0,-54.5 40,-54.5 40,-35.5 0,-35.5"/>
<text text-anchor="middle" x="20" y="-42.5" font-family="Helvetica,sans-Serif" font-size="10.00">clear</text>
</g>
<!-- Node2 -->
<g id="node2" class="node"><title>Node2</title>
<g id="a_node2"><a xlink:href="classcom_1_1tomoparts_1_1tomoBay_1_1model_1_1dataTypes_1_1heteroTypeContainer_1_1HeteroFieldContainer.html#a32d626626eee0bc4ade146973f6abb1c" target="_top" xlink:title="dtor ">
<polygon fill="white" stroke="black" points="172,-60.5 172,-79.5 222,-79.5 222,-60.5 172,-60.5"/>
<text text-anchor="middle" x="197" y="-67.5" font-family="Helvetica,sans-Serif" font-size="10.00">finalize</text>
</a>
</g>
</g>
<!-- Node1&#45;&gt;Node2 -->
<g id="edge1" class="edge"><title>Node1&#45;&gt;Node2</title>
<path fill="none" stroke="midnightblue" d="M50.3312,-49.1902C84.4795,-54.0685 140.236,-62.0337 171.947,-66.5638"/>
<polygon fill="midnightblue" stroke="midnightblue" points="50.4557,-45.6725 40.0612,-47.723 49.4657,-52.6021 50.4557,-45.6725"/>
</g>
<!-- Node3 -->
<g id="node3" class="node"><title>Node3</title>
<g id="a_node3"><a xlink:href="classcom_1_1tomoparts_1_1tomoBay_1_1presenters_1_1presenterActions_1_1concreteActions_1_1GenerateRoyalMailCSV.html#a50d25ea728cbc1115c9ea4e50e95599f" target="_top" xlink:title="grabs the rest of the data necessary for the RoyalMailCSVGenerator to create a CSV file ...">
<polygon fill="white" stroke="black" points="76,-0.5 76,-41.5 318,-41.5 318,-0.5 76,-0.5"/>
<text text-anchor="start" x="84" y="-29.5" font-family="Helvetica,sans-Serif" font-size="10.00">com.tomoparts.tomoBay.presenters.presenter</text>
<text text-anchor="start" x="84" y="-18.5" font-family="Helvetica,sans-Serif" font-size="10.00">Actions.concreteActions.GenerateRoyalMail</text>
<text text-anchor="middle" x="197" y="-7.5" font-family="Helvetica,sans-Serif" font-size="10.00">CSV.grabAndProcessDBData</text>
</a>
</g>
</g>
<!-- Node1&#45;&gt;Node3 -->
<g id="edge2" class="edge"><title>Node1&#45;&gt;Node3</title>
<path fill="none" stroke="midnightblue" d="M50.0939,-41.01C57.7453,-39.9606 66.4933,-38.7609 75.8198,-37.4819"/>
<polygon fill="midnightblue" stroke="midnightblue" points="49.4929,-37.5596 40.0612,-42.3859 50.444,-44.4946 49.4929,-37.5596"/>
</g>
<!-- Node4 -->
<g id="node4" class="node"><title>Node4</title>
<g id="a_node4"><a xlink:href="classcom_1_1tomoparts_1_1tomoBay_1_1presenters_1_1presenterActions_1_1concreteActions_1_1GenerateRoyalMailCSV.html#adb3dedf31dc2c7fc796f20406c235ccd" target="_top" xlink:title="performs the action specified ">
<polygon fill="white" stroke="black" points="354,-0.5 354,-41.5 596,-41.5 596,-0.5 354,-0.5"/>
<text text-anchor="start" x="362" y="-29.5" font-family="Helvetica,sans-Serif" font-size="10.00">com.tomoparts.tomoBay.presenters.presenter</text>
<text text-anchor="start" x="362" y="-18.5" font-family="Helvetica,sans-Serif" font-size="10.00">Actions.concreteActions.GenerateRoyalMail</text>
<text text-anchor="middle" x="475" y="-7.5" font-family="Helvetica,sans-Serif" font-size="10.00">CSV.execute</text>
</a>
</g>
</g>
<!-- Node3&#45;&gt;Node4 -->
<g id="edge3" class="edge"><title>Node3&#45;&gt;Node4</title>
<path fill="none" stroke="midnightblue" d="M328.494,-21C336.91,-21 345.364,-21 353.73,-21"/>
<polygon fill="midnightblue" stroke="midnightblue" points="328.255,-17.5001 318.255,-21 328.255,-24.5001 328.255,-17.5001"/>
</g>
<!-- Node5 -->
<g id="node5" class="node"><title>Node5</title>
<g id="a_node5"><a xlink:href="classcom_1_1tomoparts_1_1tomoBay_1_1test_1_1unit_1_1presenters_1_1presenterActions_1_1concreteAcc52dba77005ac44eb6c856e3f1436b78.html#a1b260e6772d2ced79e03e1c8c5acd12b" target="_top" xlink:title="com.tomoparts.tomoBay.test.unit.presenters.presenter\lActions.concreteActions.GenerateRoyalMailCSVTest.testExecute">
<polygon fill="white" stroke="black" points="632,-6 632,-36 957,-36 957,-6 632,-6"/>
<text text-anchor="start" x="640" y="-24" font-family="Helvetica,sans-Serif" font-size="10.00">com.tomoparts.tomoBay.test.unit.presenters.presenter</text>
<text text-anchor="middle" x="794.5" y="-13" font-family="Helvetica,sans-Serif" font-size="10.00">Actions.concreteActions.GenerateRoyalMailCSVTest.testExecute</text>
</a>
</g>
</g>
<!-- Node4&#45;&gt;Node5 -->
<g id="edge4" class="edge"><title>Node4&#45;&gt;Node5</title>
<path fill="none" stroke="midnightblue" d="M606.305,-21C614.777,-21 623.361,-21 631.956,-21"/>
<polygon fill="midnightblue" stroke="midnightblue" points="606.033,-17.5001 596.033,-21 606.033,-24.5001 606.033,-17.5001"/>
</g>
</g>
</svg>
