<?xml version="1.0" encoding="UTF-8" standalone="no"?>
<!DOCTYPE svg PUBLIC "-//W3C//DTD SVG 1.1//EN"
 "http://www.w3.org/Graphics/SVG/1.1/DTD/svg11.dtd">
<!-- Generated by graphviz version 2.38.0 (20140413.2041)
 -->
<!-- Title: setParameters Pages: 1 -->
<!--zoomable 564 -->
<svg id="main" version="1.1" xmlns="http://www.w3.org/2000/svg" xmlns:xlink="http://www.w3.org/1999/xlink" xml:space="preserve" onload="init(evt)">
<style type="text/css"><![CDATA[
.edge:hover path { stroke: red; }
.edge:hover polygon { stroke: red; fill: red; }
]]></style>
<script type="text/javascript"><![CDATA[
var edges = document.getElementsByTagName('g');
if (edges && edges.length) {
  for (var i=0;i<edges.length;i++) {
    if (edges[i].id.substr(0,4)=='edge') {
      edges[i].setAttribute('class','edge');
    }
  }
}
]]></script>
        <defs>
                <circle id="rim" cx="0" cy="0" r="7"/>
                <circle id="rim2" cx="0" cy="0" r="3.5"/>
                <g id="zoomPlus">
                        <use xlink:href="#rim" fill="#404040">
                                <set attributeName="fill" to="#808080" begin="zoomplus.mouseover" end="zoomplus.mouseout"/>
                        </use>
                        <path d="M-4,0h8M0,-4v8" fill="none" stroke="white" stroke-width="1.5" pointer-events="none"/>
                </g>
                <g id="zoomMin">
                        <use xlink:href="#rim" fill="#404040">
                                <set attributeName="fill" to="#808080" begin="zoomminus.mouseover" end="zoomminus.mouseout"/>
                        </use>
                        <path d="M-4,0h8" fill="none" stroke="white" stroke-width="1.5" pointer-events="none"/>
                </g>
                <g id="dirArrow">
                        <path fill="none" stroke="white" stroke-width="1.5" d="M0,-3.0v7 M-2.5,-0.5L0,-3.0L2.5,-0.5"/>
                </g>
               <g id="resetDef">
                       <use xlink:href="#rim2" fill="#404040">
                               <set attributeName="fill" to="#808080" begin="reset.mouseover" end="reset.mouseout"/>
                       </use>
               </g>
        </defs>

<script type="text/javascript">
var viewWidth = 2940;
var viewHeight = 564;
var sectionId = 'dynsection-2';
</script>
<script xlink:href="svgpan.js"/>
<svg id="graph" class="graph">
<g id="viewport">
<title>setParameters</title>
<polygon fill="white" stroke="none" points="-4,4 -4,-559.951 2936,-559.951 2936,4 -4,4"/>
<!-- Node1 -->
<g id="node1" class="node"><title>Node1</title>
<polygon fill="#bfbfbf" stroke="black" points="0,-62.8391 0,-81.8391 88,-81.8391 88,-62.8391 0,-62.8391"/>
<text text-anchor="middle" x="44" y="-69.8391" font-family="Helvetica,sans-Serif" font-size="10.00">setParameters</text>
</g>
<!-- Node2 -->
<g id="node2" class="node"><title>Node2</title>
<g id="a_node2"><a xlink:href="classcom_1_1tomoparts_1_1tomoBay_1_1model_1_1sql_1_1framework_1_1QueryUtility.html#a138f0c046bc0a6df71b168ab35c3c3e3" target="_top" xlink:title="set an Integer parameter for the query object specified. ">
<polygon fill="white" stroke="black" points="682,-221.339 682,-251.339 925,-251.339 925,-221.339 682,-221.339"/>
<text text-anchor="start" x="690" y="-239.339" font-family="Helvetica,sans-Serif" font-size="10.00">com.tomoparts.tomoBay.model.sql.framework.</text>
<text text-anchor="middle" x="803.5" y="-228.339" font-family="Helvetica,sans-Serif" font-size="10.00">QueryUtility.setBIGINTParam</text>
</a>
</g>
</g>
<!-- Node1&#45;&gt;Node2 -->
<g id="edge1" class="edge"><title>Node1&#45;&gt;Node2</title>
<path fill="none" stroke="midnightblue" d="M88.1717,-81.6858C211.023,-108.283 563.907,-184.683 723.014,-219.13"/>
<polygon fill="midnightblue" stroke="midnightblue" points="722.695,-222.642 733.209,-221.338 724.177,-215.801 722.695,-222.642"/>
</g>
<!-- Node12 -->
<g id="node12" class="node"><title>Node12</title>
<g id="a_node12"><a xlink:href="classcom_1_1tomoparts_1_1tomoBay_1_1model_1_1sql_1_1framework_1_1QueryUtility.html#a3249b16421a9902f2248cb86d4dd3be3" target="_top" xlink:title="set an Integer parameter for the query object specified. ">
<polygon fill="white" stroke="black" points="124,-165.339 124,-195.339 367,-195.339 367,-165.339 124,-165.339"/>
<text text-anchor="start" x="132" y="-183.339" font-family="Helvetica,sans-Serif" font-size="10.00">com.tomoparts.tomoBay.model.sql.framework.</text>
<text text-anchor="middle" x="245.5" y="-172.339" font-family="Helvetica,sans-Serif" font-size="10.00">QueryUtility.setVARCHARParam</text>
</a>
</g>
</g>
<!-- Node1&#45;&gt;Node12 -->
<g id="edge21" class="edge"><title>Node1&#45;&gt;Node12</title>
<path fill="none" stroke="midnightblue" d="M62.7043,-81.9233C95.1319,-99.4781 164.677,-137.126 207.731,-160.434"/>
<polygon fill="midnightblue" stroke="midnightblue" points="206.295,-163.637 216.755,-165.319 209.628,-157.481 206.295,-163.637"/>
</g>
<!-- Node3 -->
<g id="node3" class="node"><title>Node3</title>
<g id="a_node3"><a xlink:href="classcom_1_1tomoparts_1_1tomoBay_1_1model_1_1dataTypes_1_1heteroTypeContainer_1_1HeteroFieldContainer.html#a988363ab964d6dc0ccb8560bef5895b6" target="_top" xlink:title="retrieve the the value of an AbstractField from this HeteroFieldContainer, the field should be of the...">
<polygon fill="white" stroke="black" points="2388,-114.839 2388,-155.839 2594,-155.839 2594,-114.839 2388,-114.839"/>
<text text-anchor="start" x="2396" y="-143.839" font-family="Helvetica,sans-Serif" font-size="10.00">com.tomoparts.tomoBay.model.data</text>
<text text-anchor="start" x="2396" y="-132.839" font-family="Helvetica,sans-Serif" font-size="10.00">Types.heteroTypeContainer.HeteroField</text>
<text text-anchor="middle" x="2491" y="-121.839" font-family="Helvetica,sans-Serif" font-size="10.00">Container.get</text>
</a>
</g>
</g>
<!-- Node2&#45;&gt;Node3 -->
<g id="edge2" class="edge"><title>Node2&#45;&gt;Node3</title>
<path fill="none" stroke="midnightblue" d="M828.366,-221.285C903.486,-175.389 1143.01,-40.3391 1360.5,-40.3391 1360.5,-40.3391 1360.5,-40.3391 1920.5,-40.3391 2098.94,-40.3391 2145.34,-43.7786 2320,-80.3391 2356.05,-87.8843 2395.22,-100.26 2426.87,-111.363"/>
<polygon fill="midnightblue" stroke="midnightblue" points="2425.84,-114.712 2436.44,-114.761 2428.18,-108.116 2425.84,-114.712"/>
</g>
<!-- Node5 -->
<g id="node5" class="node"><title>Node5</title>
<g id="a_node5"><a xlink:href="classcom_1_1tomoparts_1_1tomoBay_1_1model_1_1sql_1_1framework_1_1QueryUtility.html#a56a65ac583b8720ae73dc81278e5690e" target="_top" xlink:title="set an Integer parameter for the query object specified. ">
<polygon fill="white" stroke="black" points="961,-221.339 961,-251.339 1204,-251.339 1204,-221.339 961,-221.339"/>
<text text-anchor="start" x="969" y="-239.339" font-family="Helvetica,sans-Serif" font-size="10.00">com.tomoparts.tomoBay.model.sql.framework.</text>
<text text-anchor="middle" x="1082.5" y="-228.339" font-family="Helvetica,sans-Serif" font-size="10.00">QueryUtility.setTINYINTParam</text>
</a>
</g>
</g>
<!-- Node2&#45;&gt;Node5 -->
<g id="edge4" class="edge"><title>Node2&#45;&gt;Node5</title>
<path fill="none" stroke="midnightblue" d="M925.19,-236.339C933.586,-236.339 942.07,-236.339 950.517,-236.339"/>
<polygon fill="midnightblue" stroke="midnightblue" points="950.794,-239.839 960.794,-236.339 950.794,-232.839 950.794,-239.839"/>
</g>
<!-- Node10 -->
<g id="node10" class="node"><title>Node10</title>
<g id="a_node10"><a xlink:href="classcom_1_1tomoparts_1_1tomoBay_1_1model_1_1sql_1_1framework_1_1queryTypes_1_1AbstractDBQuery.html#a41678b13e84de4335130f10cea7ae562" target="_top" xlink:title="get the statement object associated with this query ">
<polygon fill="white" stroke="black" points="2356,-360.339 2356,-390.339 2626,-390.339 2626,-360.339 2356,-360.339"/>
<text text-anchor="start" x="2364" y="-378.339" font-family="Helvetica,sans-Serif" font-size="10.00">com.tomoparts.tomoBay.model.sql.framework.query</text>
<text text-anchor="middle" x="2491" y="-367.339" font-family="Helvetica,sans-Serif" font-size="10.00">Types.AbstractDBQuery.statement</text>
</a>
</g>
</g>
<!-- Node2&#45;&gt;Node10 -->
<g id="edge20" class="edge"><title>Node2&#45;&gt;Node10</title>
<path fill="none" stroke="midnightblue" d="M828.366,-251.393C903.486,-297.289 1143.01,-432.339 1360.5,-432.339 1360.5,-432.339 1360.5,-432.339 1920.5,-432.339 2098.56,-432.339 2143.15,-422.988 2320,-402.339 2344.13,-399.522 2370.08,-395.771 2394.26,-391.963"/>
<polygon fill="midnightblue" stroke="midnightblue" points="2394.82,-395.418 2404.14,-390.388 2393.72,-388.505 2394.82,-395.418"/>
</g>
<!-- Node4 -->
<g id="node4" class="node"><title>Node4</title>
<g id="a_node4"><a xlink:href="classcom_1_1tomoparts_1_1tomoBay_1_1model_1_1dataTypes_1_1heteroTypeContainer_1_1HeteroFieldContainer.html#a9dee3c01eb5ab16203e1c6820a569484" target="_top" xlink:title="performs a type check, assuming that field and type are of the same type then this method returns tru...">
<polygon fill="white" stroke="black" points="2694,-114.839 2694,-155.839 2900,-155.839 2900,-114.839 2694,-114.839"/>
<text text-anchor="start" x="2702" y="-143.839" font-family="Helvetica,sans-Serif" font-size="10.00">com.tomoparts.tomoBay.model.data</text>
<text text-anchor="start" x="2702" y="-132.839" font-family="Helvetica,sans-Serif" font-size="10.00">Types.heteroTypeContainer.HeteroField</text>
<text text-anchor="middle" x="2797" y="-121.839" font-family="Helvetica,sans-Serif" font-size="10.00">Container.isSameType</text>
</a>
</g>
</g>
<!-- Node3&#45;&gt;Node4 -->
<g id="edge3" class="edge"><title>Node3&#45;&gt;Node4</title>
<path fill="none" stroke="midnightblue" d="M2594.07,-135.339C2622.85,-135.339 2654.31,-135.339 2683.65,-135.339"/>
<polygon fill="midnightblue" stroke="midnightblue" points="2683.94,-138.839 2693.94,-135.339 2683.94,-131.839 2683.94,-138.839"/>
</g>
<!-- Node5&#45;&gt;Node3 -->
<g id="edge5" class="edge"><title>Node5&#45;&gt;Node3</title>
<path fill="none" stroke="midnightblue" d="M1113.68,-221.332C1195.89,-181.893 1431.53,-78.3391 1639.5,-78.3391 1639.5,-78.3391 1639.5,-78.3391 1920.5,-78.3391 2079.89,-78.3391 2263.13,-100.719 2377.76,-117.432"/>
<polygon fill="midnightblue" stroke="midnightblue" points="2377.54,-120.938 2387.94,-118.929 2378.56,-114.012 2377.54,-120.938"/>
</g>
<!-- Node6 -->
<g id="node6" class="node"><title>Node6</title>
<g id="a_node6"><a xlink:href="classcom_1_1tomoparts_1_1tomoBay_1_1model_1_1sql_1_1framework_1_1QueryUtility.html#ab07d04299a96461dcf893416b8e32604" target="_top" xlink:title="set an Integer parameter for the query object specified. ">
<polygon fill="white" stroke="black" points="1240,-221.339 1240,-251.339 1483,-251.339 1483,-221.339 1240,-221.339"/>
<text text-anchor="start" x="1248" y="-239.339" font-family="Helvetica,sans-Serif" font-size="10.00">com.tomoparts.tomoBay.model.sql.framework.</text>
<text text-anchor="middle" x="1361.5" y="-228.339" font-family="Helvetica,sans-Serif" font-size="10.00">QueryUtility.setTIMESTAMPParam</text>
</a>
</g>
</g>
<!-- Node5&#45;&gt;Node6 -->
<g id="edge6" class="edge"><title>Node5&#45;&gt;Node6</title>
<path fill="none" stroke="midnightblue" d="M1204.19,-236.339C1212.59,-236.339 1221.07,-236.339 1229.52,-236.339"/>
<polygon fill="midnightblue" stroke="midnightblue" points="1229.79,-239.839 1239.79,-236.339 1229.79,-232.839 1229.79,-239.839"/>
</g>
<!-- Node5&#45;&gt;Node10 -->
<g id="edge19" class="edge"><title>Node5&#45;&gt;Node10</title>
<path fill="none" stroke="midnightblue" d="M1113.68,-251.346C1195.89,-290.785 1431.53,-394.339 1639.5,-394.339 1639.5,-394.339 1639.5,-394.339 1920.5,-394.339 2065.26,-394.339 2230.61,-388.131 2345.71,-382.812"/>
<polygon fill="midnightblue" stroke="midnightblue" points="2346.16,-386.295 2355.99,-382.333 2345.84,-379.302 2346.16,-386.295"/>
</g>
<!-- Node6&#45;&gt;Node3 -->
<g id="edge7" class="edge"><title>Node6&#45;&gt;Node3</title>
<path fill="none" stroke="midnightblue" d="M1455.58,-221.33C1476.44,-218.004 1498.47,-214.524 1519,-211.339 1765.88,-173.038 1827.56,-157.359 2077,-143.339 2178.56,-137.631 2294.35,-135.792 2377.44,-135.288"/>
<polygon fill="midnightblue" stroke="midnightblue" points="2377.68,-138.786 2387.66,-135.231 2377.64,-131.787 2377.68,-138.786"/>
</g>
<!-- Node7 -->
<g id="node7" class="node"><title>Node7</title>
<g id="a_node7"><a xlink:href="classcom_1_1tomoparts_1_1tomoBay_1_1model_1_1sql_1_1framework_1_1QueryUtility.html#a202aab30c77e06c32318efd5cf949ca3" target="_top" xlink:title="set an Integer parameter for the query object specified. ">
<polygon fill="white" stroke="black" points="1519,-221.339 1519,-251.339 1762,-251.339 1762,-221.339 1519,-221.339"/>
<text text-anchor="start" x="1527" y="-239.339" font-family="Helvetica,sans-Serif" font-size="10.00">com.tomoparts.tomoBay.model.sql.framework.</text>
<text text-anchor="middle" x="1640.5" y="-228.339" font-family="Helvetica,sans-Serif" font-size="10.00">QueryUtility.setDATEParam</text>
</a>
</g>
</g>
<!-- Node6&#45;&gt;Node7 -->
<g id="edge8" class="edge"><title>Node6&#45;&gt;Node7</title>
<path fill="none" stroke="midnightblue" d="M1483.19,-236.339C1491.59,-236.339 1500.07,-236.339 1508.52,-236.339"/>
<polygon fill="midnightblue" stroke="midnightblue" points="1508.79,-239.839 1518.79,-236.339 1508.79,-232.839 1508.79,-239.839"/>
</g>
<!-- Node6&#45;&gt;Node10 -->
<g id="edge18" class="edge"><title>Node6&#45;&gt;Node10</title>
<path fill="none" stroke="midnightblue" d="M1459.31,-251.391C1479.05,-254.403 1499.69,-257.509 1519,-260.339 1766.76,-296.652 1828.22,-309.825 2077,-338.339 2166.16,-348.559 2266.43,-357.599 2345.84,-364.186"/>
<polygon fill="midnightblue" stroke="midnightblue" points="2345.66,-367.682 2355.91,-365.017 2346.23,-360.706 2345.66,-367.682"/>
</g>
<!-- Node7&#45;&gt;Node3 -->
<g id="edge9" class="edge"><title>Node7&#45;&gt;Node3</title>
<path fill="none" stroke="midnightblue" d="M1735,-221.317C1755.74,-218.009 1777.61,-214.538 1798,-211.339 1921.95,-191.888 1952.38,-182.901 2077,-168.339 2178.61,-156.466 2294.78,-147.6 2377.98,-142.065"/>
<polygon fill="midnightblue" stroke="midnightblue" points="2378.21,-145.557 2387.96,-141.406 2377.75,-138.572 2378.21,-145.557"/>
</g>
<!-- Node8 -->
<g id="node8" class="node"><title>Node8</title>
<g id="a_node8"><a xlink:href="classcom_1_1tomoparts_1_1tomoBay_1_1model_1_1sql_1_1framework_1_1QueryUtility.html#a5677c2440b48e612fb51b57130555e5d" target="_top" xlink:title="set an Integer parameter for the query object specified. ">
<polygon fill="white" stroke="black" points="1798,-221.339 1798,-251.339 2041,-251.339 2041,-221.339 1798,-221.339"/>
<text text-anchor="start" x="1806" y="-239.339" font-family="Helvetica,sans-Serif" font-size="10.00">com.tomoparts.tomoBay.model.sql.framework.</text>
<text text-anchor="middle" x="1919.5" y="-228.339" font-family="Helvetica,sans-Serif" font-size="10.00">QueryUtility.setDOUBLEParam</text>
</a>
</g>
</g>
<!-- Node7&#45;&gt;Node8 -->
<g id="edge10" class="edge"><title>Node7&#45;&gt;Node8</title>
<path fill="none" stroke="midnightblue" d="M1762.19,-236.339C1770.59,-236.339 1779.07,-236.339 1787.52,-236.339"/>
<polygon fill="midnightblue" stroke="midnightblue" points="1787.79,-239.839 1797.79,-236.339 1787.79,-232.839 1787.79,-239.839"/>
</g>
<!-- Node7&#45;&gt;Node10 -->
<g id="edge17" class="edge"><title>Node7&#45;&gt;Node10</title>
<path fill="none" stroke="midnightblue" d="M1738.98,-251.365C1912.92,-278.205 2263.85,-332.507 2320,-342.339 2347.96,-347.235 2378.41,-353.007 2405.72,-358.345"/>
<polygon fill="midnightblue" stroke="midnightblue" points="2405.15,-361.798 2415.63,-360.289 2406.49,-354.929 2405.15,-361.798"/>
</g>
<!-- Node8&#45;&gt;Node3 -->
<g id="edge11" class="edge"><title>Node8&#45;&gt;Node3</title>
<path fill="none" stroke="midnightblue" d="M2012.64,-221.277C2093.68,-207.881 2214.79,-187.502 2320,-168.339 2338.64,-164.944 2358.4,-161.221 2377.61,-157.537"/>
<polygon fill="midnightblue" stroke="midnightblue" points="2378.43,-160.943 2387.59,-155.616 2377.11,-154.069 2378.43,-160.943"/>
</g>
<!-- Node9 -->
<g id="node9" class="node"><title>Node9</title>
<g id="a_node9"><a xlink:href="classcom_1_1tomoparts_1_1tomoBay_1_1model_1_1sql_1_1framework_1_1QueryUtility.html#adf8f1fea7b649baadeb0297c41be72f5" target="_top" xlink:title="set an Integer parameter for the query object specified. ">
<polygon fill="white" stroke="black" points="2077,-221.339 2077,-251.339 2320,-251.339 2320,-221.339 2077,-221.339"/>
<text text-anchor="start" x="2085" y="-239.339" font-family="Helvetica,sans-Serif" font-size="10.00">com.tomoparts.tomoBay.model.sql.framework.</text>
<text text-anchor="middle" x="2198.5" y="-228.339" font-family="Helvetica,sans-Serif" font-size="10.00">QueryUtility.setFLOATParam</text>
</a>
</g>
</g>
<!-- Node8&#45;&gt;Node9 -->
<g id="edge12" class="edge"><title>Node8&#45;&gt;Node9</title>
<path fill="none" stroke="midnightblue" d="M2041.19,-236.339C2049.59,-236.339 2058.07,-236.339 2066.52,-236.339"/>
<polygon fill="midnightblue" stroke="midnightblue" points="2066.79,-239.839 2076.79,-236.339 2066.79,-232.839 2066.79,-239.839"/>
</g>
<!-- Node8&#45;&gt;Node10 -->
<g id="edge16" class="edge"><title>Node8&#45;&gt;Node10</title>
<path fill="none" stroke="midnightblue" d="M2015.74,-251.387C2124.53,-268.76 2291.28,-296.015 2320,-304.339 2366.19,-317.727 2416.77,-339.882 2450.65,-355.887"/>
<polygon fill="midnightblue" stroke="midnightblue" points="2449.21,-359.079 2459.74,-360.226 2452.22,-352.761 2449.21,-359.079"/>
</g>
<!-- Node9&#45;&gt;Node3 -->
<g id="edge13" class="edge"><title>Node9&#45;&gt;Node3</title>
<path fill="none" stroke="midnightblue" d="M2267.57,-221.304C2284.82,-216.972 2303.22,-211.897 2320,-206.339 2359.79,-193.16 2403.4,-174.866 2436.48,-160.148"/>
<polygon fill="midnightblue" stroke="midnightblue" points="2438.27,-163.185 2445.96,-155.903 2435.4,-156.797 2438.27,-163.185"/>
</g>
<!-- Node9&#45;&gt;Node10 -->
<g id="edge14" class="edge"><title>Node9&#45;&gt;Node10</title>
<path fill="none" stroke="midnightblue" d="M2275.95,-251.374C2290.85,-255.414 2306.14,-260.364 2320,-266.339 2374.08,-289.657 2430.39,-329.308 2462.71,-353.816"/>
<polygon fill="midnightblue" stroke="midnightblue" points="2460.72,-356.697 2470.79,-360.001 2464.98,-351.141 2460.72,-356.697"/>
</g>
<!-- Node11 -->
<g id="node11" class="node"><title>Node11</title>
<g id="a_node11"><a xlink:href="classcom_1_1tomoparts_1_1tomoBay_1_1model_1_1sql_1_1framework_1_1queryTypes_1_1AbstractDBQuery.html#ae8a5c5f1701ee77ef658050c8345d518" target="_top" xlink:title="Used by derived classes to define the Query string to be used in the query. ">
<polygon fill="white" stroke="black" points="2662,-360.339 2662,-390.339 2932,-390.339 2932,-360.339 2662,-360.339"/>
<text text-anchor="start" x="2670" y="-378.339" font-family="Helvetica,sans-Serif" font-size="10.00">com.tomoparts.tomoBay.model.sql.framework.query</text>
<text text-anchor="middle" x="2797" y="-367.339" font-family="Helvetica,sans-Serif" font-size="10.00">Types.AbstractDBQuery.queryString</text>
</a>
</g>
</g>
<!-- Node10&#45;&gt;Node11 -->
<g id="edge15" class="edge"><title>Node10&#45;&gt;Node11</title>
<path fill="none" stroke="midnightblue" d="M2626.22,-375.339C2634.59,-375.339 2643.03,-375.339 2651.44,-375.339"/>
<polygon fill="midnightblue" stroke="midnightblue" points="2651.68,-378.839 2661.68,-375.339 2651.68,-371.839 2651.68,-378.839"/>
</g>
<!-- Node12&#45;&gt;Node3 -->
<g id="edge22" class="edge"><title>Node12&#45;&gt;Node3</title>
<path fill="none" stroke="midnightblue" d="M273.008,-165.316C351.304,-122.403 589.404,-2.33907 802.5,-2.33907 802.5,-2.33907 802.5,-2.33907 1920.5,-2.33907 2098.86,-2.33907 2149.73,12.746 2320,-40.3391 2369.33,-55.7194 2420.36,-86.5976 2453.47,-108.986"/>
<polygon fill="midnightblue" stroke="midnightblue" points="2451.67,-111.999 2461.9,-114.767 2455.63,-106.226 2451.67,-111.999"/>
</g>
<!-- Node12&#45;&gt;Node10 -->
<g id="edge27" class="edge"><title>Node12&#45;&gt;Node10</title>
<path fill="none" stroke="midnightblue" d="M255.311,-195.511C276.669,-231.211 334.518,-321.702 403,-377.339 552.631,-498.904 609.711,-546.339 802.5,-546.339 802.5,-546.339 802.5,-546.339 1920.5,-546.339 2098.59,-546.339 2154.83,-581.922 2320,-515.339 2383.75,-489.642 2441.79,-431.001 2470.71,-398.354"/>
<polygon fill="midnightblue" stroke="midnightblue" points="2473.49,-400.489 2477.42,-390.65 2468.21,-395.892 2473.49,-400.489"/>
</g>
<!-- Node13 -->
<g id="node13" class="node"><title>Node13</title>
<g id="a_node13"><a xlink:href="classcom_1_1tomoparts_1_1tomoBay_1_1model_1_1sql_1_1framework_1_1QueryUtility.html#a50955d4f51a1a7a88ef0c8aadbe9c793" target="_top" xlink:title="set an Integer parameter for the query object specified. ">
<polygon fill="white" stroke="black" points="403,-338.339 403,-368.339 646,-368.339 646,-338.339 403,-338.339"/>
<text text-anchor="start" x="411" y="-356.339" font-family="Helvetica,sans-Serif" font-size="10.00">com.tomoparts.tomoBay.model.sql.framework.</text>
<text text-anchor="middle" x="524.5" y="-345.339" font-family="Helvetica,sans-Serif" font-size="10.00">QueryUtility.setBYTEParam</text>
</a>
</g>
</g>
<!-- Node12&#45;&gt;Node13 -->
<g id="edge23" class="edge"><title>Node12&#45;&gt;Node13</title>
<path fill="none" stroke="midnightblue" d="M270.597,-195.389C320.324,-226.446 434.36,-297.667 490.728,-332.871"/>
<polygon fill="midnightblue" stroke="midnightblue" points="488.925,-335.872 499.261,-338.201 492.633,-329.935 488.925,-335.872"/>
</g>
<!-- Node13&#45;&gt;Node2 -->
<g id="edge25" class="edge"><title>Node13&#45;&gt;Node2</title>
<path fill="none" stroke="midnightblue" d="M561.146,-338.283C611.183,-317.148 702.253,-278.682 757.084,-255.522"/>
<polygon fill="midnightblue" stroke="midnightblue" points="758.702,-258.638 766.552,-251.523 755.978,-252.19 758.702,-258.638"/>
</g>
<!-- Node13&#45;&gt;Node3 -->
<g id="edge24" class="edge"><title>Node13&#45;&gt;Node3</title>
<path fill="none" stroke="midnightblue" d="M567.414,-368.395C659.257,-399.995 885.696,-470.339 1081.5,-470.339 1081.5,-470.339 1081.5,-470.339 1920.5,-470.339 2161.43,-470.339 2390.37,-244.835 2464.82,-163.859"/>
<polygon fill="midnightblue" stroke="midnightblue" points="2467.79,-165.792 2471.93,-156.042 2462.61,-161.08 2467.79,-165.792"/>
</g>
<!-- Node13&#45;&gt;Node10 -->
<g id="edge26" class="edge"><title>Node13&#45;&gt;Node10</title>
<path fill="none" stroke="midnightblue" d="M537.724,-368.644C561.773,-397.445 618.455,-459.071 682,-484.339 847.288,-550.064 903.624,-508.339 1081.5,-508.339 1081.5,-508.339 1081.5,-508.339 1920.5,-508.339 2098.38,-508.339 2150.88,-539.461 2320,-484.339 2377.22,-465.689 2434.14,-423.04 2465.44,-396.963"/>
<polygon fill="midnightblue" stroke="midnightblue" points="2467.82,-399.53 2473.19,-390.398 2463.3,-394.186 2467.82,-399.53"/>
</g>
</g>
</svg>
        <g id="navigator" transform="translate(0 0)" fill="#404254">
                <rect fill="#f2f5e9" fill-opacity="0.5" stroke="#606060" stroke-width=".5" x="0" y="0" width="60" height="60"/>
                <use id="zoomplus" xlink:href="#zoomPlus" x="17" y="9" onmousedown="handleZoom(evt,'in')"/>
                <use id="zoomminus" xlink:href="#zoomMin" x="42" y="9" onmousedown="handleZoom(evt,'out')"/>
                <use id="reset" xlink:href="#resetDef" x="30" y="36" onmousedown="handleReset()"/>
                <g id="arrowUp" xlink:href="#dirArrow" transform="translate(30 24)" onmousedown="handlePan(0,-1)">
                  <use xlink:href="#rim" fill="#404040">
                        <set attributeName="fill" to="#808080" begin="arrowUp.mouseover" end="arrowUp.mouseout"/>
                  </use>
                  <path fill="none" stroke="white" stroke-width="1.5" d="M0,-3.0v7 M-2.5,-0.5L0,-3.0L2.5,-0.5"/>
                </g>
                <g id="arrowRight" xlink:href="#dirArrow" transform="rotate(90) translate(36 -43)" onmousedown="handlePan(1,0)">
                  <use xlink:href="#rim" fill="#404040">
                        <set attributeName="fill" to="#808080" begin="arrowRight.mouseover" end="arrowRight.mouseout"/>
                  </use>
                  <path fill="none" stroke="white" stroke-width="1.5" d="M0,-3.0v7 M-2.5,-0.5L0,-3.0L2.5,-0.5"/>
                </g>
                <g id="arrowDown" xlink:href="#dirArrow" transform="rotate(180) translate(-30 -48)" onmousedown="handlePan(0,1)">
                  <use xlink:href="#rim" fill="#404040">
                        <set attributeName="fill" to="#808080" begin="arrowDown.mouseover" end="arrowDown.mouseout"/>
                  </use>
                  <path fill="none" stroke="white" stroke-width="1.5" d="M0,-3.0v7 M-2.5,-0.5L0,-3.0L2.5,-0.5"/>
                </g>
                <g id="arrowLeft" xlink:href="#dirArrow" transform="rotate(270) translate(-36 17)" onmousedown="handlePan(-1,0)">
                  <use xlink:href="#rim" fill="#404040">
                        <set attributeName="fill" to="#808080" begin="arrowLeft.mouseover" end="arrowLeft.mouseout"/>
                  </use>
                  <path fill="none" stroke="white" stroke-width="1.5" d="M0,-3.0v7 M-2.5,-0.5L0,-3.0L2.5,-0.5"/>
                </g>
        </g>
        <svg viewBox="0 0 15 15" width="100%" height="30px" preserveAspectRatio="xMaxYMin meet">
         <g id="arrow_out" transform="scale(0.3 0.3)">
          <a xlink:href="classcom_1_1tomoparts_1_1tomoBay_1_1model_1_1sql_1_1queries_1_1concreteQueries_1_1update_1_1UpdateItemBrandAndPartNo_af9020b85517904668d036bc2bf89433c_cgraph_org.svg" target="_base">
           <rect id="button" ry="5" rx="5" y="6" x="6" height="38" width="38"
                fill="#f2f5e9" fill-opacity="0.5" stroke="#606060" stroke-width="1.0"/>
           <path id="arrow"
             d="M 11.500037,31.436501 C 11.940474,20.09759 22.043105,11.32322 32.158766,21.979434 L 37.068811,17.246167 C 37.068811,17.246167 37.088388,32 37.088388,32 L 22.160133,31.978069 C 22.160133,31.978069 26.997745,27.140456 26.997745,27.140456 C 18.528582,18.264221 13.291696,25.230495 11.500037,31.436501 z"
             style="fill:#404040;"/>
          </a>
         </g>
        </svg>
</svg>
