<?xml version="1.0" encoding="UTF-8" standalone="no"?>
<!DOCTYPE svg PUBLIC "-//W3C//DTD SVG 1.1//EN"
 "http://www.w3.org/Graphics/SVG/1.1/DTD/svg11.dtd">
<!-- Generated by graphviz version 2.38.0 (20140413.2041)
 -->
<!-- Title: execute Pages: 1 -->
<!--zoomable 215 -->
<svg id="main" version="1.1" xmlns="http://www.w3.org/2000/svg" xmlns:xlink="http://www.w3.org/1999/xlink" xml:space="preserve" onload="init(evt)">
<style type="text/css"><![CDATA[
.edge:hover path { stroke: red; }
.edge:hover polygon { stroke: red; fill: red; }
]]></style>
<script type="text/javascript"><![CDATA[
var edges = document.getElementsByTagName('g');
if (edges && edges.length) {
  for (var i=0;i<edges.length;i++) {
    if (edges[i].id.substr(0,4)=='edge') {
      edges[i].setAttribute('class','edge');
    }
  }
}
]]></script>
        <defs>
                <circle id="rim" cx="0" cy="0" r="7"/>
                <circle id="rim2" cx="0" cy="0" r="3.5"/>
                <g id="zoomPlus">
                        <use xlink:href="#rim" fill="#404040">
                                <set attributeName="fill" to="#808080" begin="zoomplus.mouseover" end="zoomplus.mouseout"/>
                        </use>
                        <path d="M-4,0h8M0,-4v8" fill="none" stroke="white" stroke-width="1.5" pointer-events="none"/>
                </g>
                <g id="zoomMin">
                        <use xlink:href="#rim" fill="#404040">
                                <set attributeName="fill" to="#808080" begin="zoomminus.mouseover" end="zoomminus.mouseout"/>
                        </use>
                        <path d="M-4,0h8" fill="none" stroke="white" stroke-width="1.5" pointer-events="none"/>
                </g>
                <g id="dirArrow">
                        <path fill="none" stroke="white" stroke-width="1.5" d="M0,-3.0v7 M-2.5,-0.5L0,-3.0L2.5,-0.5"/>
                </g>
               <g id="resetDef">
                       <use xlink:href="#rim2" fill="#404040">
                               <set attributeName="fill" to="#808080" begin="reset.mouseover" end="reset.mouseout"/>
                       </use>
               </g>
        </defs>

<script type="text/javascript">
var viewWidth = 595;
var viewHeight = 215;
var sectionId = 'dynsection-2';
</script>
<script xlink:href="svgpan.js"/>
<svg id="graph" class="graph">
<g id="viewport">
<title>execute</title>
<polygon fill="white" stroke="none" points="-4,4 -4,-210.5 591,-210.5 591,4 -4,4"/>
<!-- Node1 -->
<g id="node1" class="node"><title>Node1</title>
<polygon fill="#bfbfbf" stroke="black" points="0,-88.5 0,-107.5 55,-107.5 55,-88.5 0,-88.5"/>
<text text-anchor="middle" x="27.5" y="-95.5" font-family="Helvetica,sans-Serif" font-size="10.00">execute</text>
</g>
<!-- Node2 -->
<g id="node2" class="node"><title>Node2</title>
<g id="a_node2"><a xlink:href="classcom_1_1tomoparts_1_1tomoBay_1_1model_1_1sql_1_1framework_1_1queryTypes_1_1AbstractDBQuery.html#a4b66d5e31b5dc18b314c8a68163263bd" target="_top" xlink:title="commits the transaction and does cleanup after the query has been executed ">
<polygon fill="white" stroke="black" points="91,-176 91,-206 361,-206 361,-176 91,-176"/>
<text text-anchor="start" x="99" y="-194" font-family="Helvetica,sans-Serif" font-size="10.00">com.tomoparts.tomoBay.model.sql.framework.query</text>
<text text-anchor="middle" x="226" y="-183" font-family="Helvetica,sans-Serif" font-size="10.00">Types.AbstractDBQuery.cleanup</text>
</a>
</g>
</g>
<!-- Node1&#45;&gt;Node2 -->
<g id="edge1" class="edge"><title>Node1&#45;&gt;Node2</title>
<path fill="none" stroke="midnightblue" d="M34.3776,-107.883C44.0801,-123.246 64.9871,-152.586 91,-167 94.2947,-168.826 97.6985,-170.517 101.185,-172.084"/>
<polygon fill="midnightblue" stroke="midnightblue" points="100.009,-175.385 110.589,-175.946 102.669,-168.909 100.009,-175.385"/>
</g>
<!-- Node3 -->
<g id="node3" class="node"><title>Node3</title>
<g id="a_node3"><a xlink:href="classcom_1_1tomoparts_1_1tomoBay_1_1model_1_1sql_1_1framework_1_1queryTypes_1_1select_1_1AbstractSelectQuery.html#acecbbfccf76297fa31b5aed8da0edb33" target="_top" xlink:title="the results from a select query come in the form of a ResultSet object, this needs to be closed befor...">
<polygon fill="white" stroke="black" points="91,-127 91,-157 361,-157 361,-127 91,-127"/>
<text text-anchor="start" x="99" y="-145" font-family="Helvetica,sans-Serif" font-size="10.00">com.tomoparts.tomoBay.model.sql.framework.query</text>
<text text-anchor="middle" x="226" y="-134" font-family="Helvetica,sans-Serif" font-size="10.00">Types.select.AbstractSelectQuery.format</text>
</a>
</g>
</g>
<!-- Node1&#45;&gt;Node3 -->
<g id="edge2" class="edge"><title>Node1&#45;&gt;Node3</title>
<path fill="none" stroke="midnightblue" d="M55.0848,-106.792C66.1195,-110.255 79.1021,-114.091 91,-117 102.494,-119.81 114.61,-122.476 126.666,-124.947"/>
<polygon fill="midnightblue" stroke="midnightblue" points="126.271,-128.438 136.765,-126.976 127.65,-121.575 126.271,-128.438"/>
</g>
<!-- Node4 -->
<g id="node4" class="node"><title>Node4</title>
<g id="a_node4"><a xlink:href="classcom_1_1tomoparts_1_1tomoBay_1_1model_1_1sql_1_1framework_1_1queryTypes_1_1select_1_1AbstractSelectParamsQuery.html#ad0667f5c873d31358a0696de71fa030b" target="_top" xlink:title="initialise the connection and statement and set transaction variables. ">
<polygon fill="white" stroke="black" points="196.5,-88.5 196.5,-107.5 255.5,-107.5 255.5,-88.5 196.5,-88.5"/>
<text text-anchor="middle" x="226" y="-95.5" font-family="Helvetica,sans-Serif" font-size="10.00">initQuery</text>
</a>
</g>
</g>
<!-- Node1&#45;&gt;Node4 -->
<g id="edge3" class="edge"><title>Node1&#45;&gt;Node4</title>
<path fill="none" stroke="midnightblue" d="M55.0009,-98C88.7067,-98 147.184,-98 185.988,-98"/>
<polygon fill="midnightblue" stroke="midnightblue" points="186.375,-101.5 196.375,-98 186.375,-94.5001 186.375,-101.5"/>
</g>
<!-- Node7 -->
<g id="node7" class="node"><title>Node7</title>
<g id="a_node7"><a xlink:href="classcom_1_1tomoparts_1_1tomoBay_1_1model_1_1sql_1_1framework_1_1queryTypes_1_1AbstractDBQuery.html#ae8a5c5f1701ee77ef658050c8345d518" target="_top" xlink:title="Used by derived classes to define the Query string to be used in the query. ">
<polygon fill="white" stroke="black" points="91,-39 91,-69 361,-69 361,-39 91,-39"/>
<text text-anchor="start" x="99" y="-57" font-family="Helvetica,sans-Serif" font-size="10.00">com.tomoparts.tomoBay.model.sql.framework.query</text>
<text text-anchor="middle" x="226" y="-46" font-family="Helvetica,sans-Serif" font-size="10.00">Types.AbstractDBQuery.queryString</text>
</a>
</g>
</g>
<!-- Node1&#45;&gt;Node7 -->
<g id="edge6" class="edge"><title>Node1&#45;&gt;Node7</title>
<path fill="none" stroke="midnightblue" d="M55.0848,-89.2083C66.1195,-85.745 79.1021,-81.9089 91,-79 102.494,-76.1898 114.61,-73.5237 126.666,-71.0526"/>
<polygon fill="midnightblue" stroke="midnightblue" points="127.65,-74.4249 136.765,-69.0238 126.271,-67.5621 127.65,-74.4249"/>
</g>
<!-- Node8 -->
<g id="node8" class="node"><title>Node8</title>
<g id="a_node8"><a xlink:href="classcom_1_1tomoparts_1_1tomoBay_1_1model_1_1sql_1_1framework_1_1queryTypes_1_1select_1_1AbstractSelectParamsQuery.html#a3543bcecb3f0ed2c164b25b646940ee9" target="_top" xlink:title="Used by derived classes to set the parameters for this particular query. ">
<polygon fill="white" stroke="black" points="182,-0.5 182,-19.5 270,-19.5 270,-0.5 182,-0.5"/>
<text text-anchor="middle" x="226" y="-7.5" font-family="Helvetica,sans-Serif" font-size="10.00">setParameters</text>
</a>
</g>
</g>
<!-- Node1&#45;&gt;Node8 -->
<g id="edge7" class="edge"><title>Node1&#45;&gt;Node8</title>
<path fill="none" stroke="midnightblue" d="M34.366,-88.1706C44.0525,-72.9077 64.938,-43.8289 91,-30 115.562,-16.967 146.013,-11.7059 171.677,-9.81803"/>
<polygon fill="midnightblue" stroke="midnightblue" points="172.204,-13.2934 181.984,-9.21831 171.798,-6.30517 172.204,-13.2934"/>
</g>
<!-- Node5 -->
<g id="node5" class="node"><title>Node5</title>
<g id="a_node5"><a xlink:href="classcom_1_1tomoparts_1_1tomoBay_1_1model_1_1sql_1_1ConnectionManager.html#ad3127f02d7c94f382c86d2ad87307bcb" target="_top" xlink:title="instance method returns an instance of the ConnectionManager class ">
<polygon fill="white" stroke="black" points="397,-107 397,-137 587,-137 587,-107 397,-107"/>
<text text-anchor="start" x="405" y="-125" font-family="Helvetica,sans-Serif" font-size="10.00">com.tomoparts.tomoBay.model.sql.</text>
<text text-anchor="middle" x="492" y="-114" font-family="Helvetica,sans-Serif" font-size="10.00">ConnectionManager.instance</text>
</a>
</g>
</g>
<!-- Node4&#45;&gt;Node5 -->
<g id="edge4" class="edge"><title>Node4&#45;&gt;Node5</title>
<path fill="none" stroke="midnightblue" d="M255.503,-100.591C286.933,-103.448 339.343,-108.213 386.75,-112.523"/>
<polygon fill="midnightblue" stroke="midnightblue" points="386.506,-116.015 396.781,-113.435 387.139,-109.044 386.506,-116.015"/>
</g>
<!-- Node6 -->
<g id="node6" class="node"><title>Node6</title>
<g id="a_node6"><a xlink:href="classcom_1_1tomoparts_1_1tomoBay_1_1model_1_1sql_1_1ConnectionManager.html#abe00cdf87aed55bbe5ef191c248b62b1" target="_top" xlink:title="retrieves a database connection from the pool of available connections. ">
<polygon fill="white" stroke="black" points="397,-58 397,-88 587,-88 587,-58 397,-58"/>
<text text-anchor="start" x="405" y="-76" font-family="Helvetica,sans-Serif" font-size="10.00">com.tomoparts.tomoBay.model.sql.</text>
<text text-anchor="middle" x="492" y="-65" font-family="Helvetica,sans-Serif" font-size="10.00">ConnectionManager.getConnection</text>
</a>
</g>
</g>
<!-- Node4&#45;&gt;Node6 -->
<g id="edge5" class="edge"><title>Node4&#45;&gt;Node6</title>
<path fill="none" stroke="midnightblue" d="M255.503,-95.3008C286.933,-92.3245 339.343,-87.3615 386.75,-82.8721"/>
<polygon fill="midnightblue" stroke="midnightblue" points="387.156,-86.3495 396.781,-81.9222 386.496,-79.3806 387.156,-86.3495"/>
</g>
</g>
</svg>
        <g id="navigator" transform="translate(0 0)" fill="#404254">
                <rect fill="#f2f5e9" fill-opacity="0.5" stroke="#606060" stroke-width=".5" x="0" y="0" width="60" height="60"/>
                <use id="zoomplus" xlink:href="#zoomPlus" x="17" y="9" onmousedown="handleZoom(evt,'in')"/>
                <use id="zoomminus" xlink:href="#zoomMin" x="42" y="9" onmousedown="handleZoom(evt,'out')"/>
                <use id="reset" xlink:href="#resetDef" x="30" y="36" onmousedown="handleReset()"/>
                <g id="arrowUp" xlink:href="#dirArrow" transform="translate(30 24)" onmousedown="handlePan(0,-1)">
                  <use xlink:href="#rim" fill="#404040">
                        <set attributeName="fill" to="#808080" begin="arrowUp.mouseover" end="arrowUp.mouseout"/>
                  </use>
                  <path fill="none" stroke="white" stroke-width="1.5" d="M0,-3.0v7 M-2.5,-0.5L0,-3.0L2.5,-0.5"/>
                </g>
                <g id="arrowRight" xlink:href="#dirArrow" transform="rotate(90) translate(36 -43)" onmousedown="handlePan(1,0)">
                  <use xlink:href="#rim" fill="#404040">
                        <set attributeName="fill" to="#808080" begin="arrowRight.mouseover" end="arrowRight.mouseout"/>
                  </use>
                  <path fill="none" stroke="white" stroke-width="1.5" d="M0,-3.0v7 M-2.5,-0.5L0,-3.0L2.5,-0.5"/>
                </g>
                <g id="arrowDown" xlink:href="#dirArrow" transform="rotate(180) translate(-30 -48)" onmousedown="handlePan(0,1)">
                  <use xlink:href="#rim" fill="#404040">
                        <set attributeName="fill" to="#808080" begin="arrowDown.mouseover" end="arrowDown.mouseout"/>
                  </use>
                  <path fill="none" stroke="white" stroke-width="1.5" d="M0,-3.0v7 M-2.5,-0.5L0,-3.0L2.5,-0.5"/>
                </g>
                <g id="arrowLeft" xlink:href="#dirArrow" transform="rotate(270) translate(-36 17)" onmousedown="handlePan(-1,0)">
                  <use xlink:href="#rim" fill="#404040">
                        <set attributeName="fill" to="#808080" begin="arrowLeft.mouseover" end="arrowLeft.mouseout"/>
                  </use>
                  <path fill="none" stroke="white" stroke-width="1.5" d="M0,-3.0v7 M-2.5,-0.5L0,-3.0L2.5,-0.5"/>
                </g>
        </g>
        <svg viewBox="0 0 15 15" width="100%" height="30px" preserveAspectRatio="xMaxYMin meet">
         <g id="arrow_out" transform="scale(0.3 0.3)">
          <a xlink:href="classcom_1_1tomoparts_1_1tomoBay_1_1model_1_1sql_1_1framework_1_1queryTypes_1_1select_1_1AbstractSelectParamsQuery_aad8a92337ab13b4e19d23282e925dcfe_cgraph_org.svg" target="_base">
           <rect id="button" ry="5" rx="5" y="6" x="6" height="38" width="38"
                fill="#f2f5e9" fill-opacity="0.5" stroke="#606060" stroke-width="1.0"/>
           <path id="arrow"
             d="M 11.500037,31.436501 C 11.940474,20.09759 22.043105,11.32322 32.158766,21.979434 L 37.068811,17.246167 C 37.068811,17.246167 37.088388,32 37.088388,32 L 22.160133,31.978069 C 22.160133,31.978069 26.997745,27.140456 26.997745,27.140456 C 18.528582,18.264221 13.291696,25.230495 11.500037,31.436501 z"
             style="fill:#404040;"/>
          </a>
         </g>
        </svg>
</svg>
