<?xml version="1.0" encoding="UTF-8" standalone="no"?>
<!DOCTYPE svg PUBLIC "-//W3C//DTD SVG 1.1//EN"
 "http://www.w3.org/Graphics/SVG/1.1/DTD/svg11.dtd">
<!-- Generated by graphviz version 2.38.0 (20140413.2041)
 -->
<!-- Title: setParameters Pages: 1 -->
<!--zoomable 635 -->
<svg id="main" version="1.1" xmlns="http://www.w3.org/2000/svg" xmlns:xlink="http://www.w3.org/1999/xlink" xml:space="preserve" onload="init(evt)">
<style type="text/css"><![CDATA[
.edge:hover path { stroke: red; }
.edge:hover polygon { stroke: red; fill: red; }
]]></style>
<script type="text/javascript"><![CDATA[
var edges = document.getElementsByTagName('g');
if (edges && edges.length) {
  for (var i=0;i<edges.length;i++) {
    if (edges[i].id.substr(0,4)=='edge') {
      edges[i].setAttribute('class','edge');
    }
  }
}
]]></script>
        <defs>
                <circle id="rim" cx="0" cy="0" r="7"/>
                <circle id="rim2" cx="0" cy="0" r="3.5"/>
                <g id="zoomPlus">
                        <use xlink:href="#rim" fill="#404040">
                                <set attributeName="fill" to="#808080" begin="zoomplus.mouseover" end="zoomplus.mouseout"/>
                        </use>
                        <path d="M-4,0h8M0,-4v8" fill="none" stroke="white" stroke-width="1.5" pointer-events="none"/>
                </g>
                <g id="zoomMin">
                        <use xlink:href="#rim" fill="#404040">
                                <set attributeName="fill" to="#808080" begin="zoomminus.mouseover" end="zoomminus.mouseout"/>
                        </use>
                        <path d="M-4,0h8" fill="none" stroke="white" stroke-width="1.5" pointer-events="none"/>
                </g>
                <g id="dirArrow">
                        <path fill="none" stroke="white" stroke-width="1.5" d="M0,-3.0v7 M-2.5,-0.5L0,-3.0L2.5,-0.5"/>
                </g>
               <g id="resetDef">
                       <use xlink:href="#rim2" fill="#404040">
                               <set attributeName="fill" to="#808080" begin="reset.mouseover" end="reset.mouseout"/>
                       </use>
               </g>
        </defs>

<script type="text/javascript">
var viewWidth = 3219;
var viewHeight = 635;
var sectionId = 'dynsection-2';
</script>
<script xlink:href="svgpan.js"/>
<svg id="graph" class="graph">
<g id="viewport">
<title>setParameters</title>
<polygon fill="white" stroke="none" points="-4,4 -4,-631.111 3215,-631.111 3215,4 -4,4"/>
<!-- Node1 -->
<g id="node1" class="node"><title>Node1</title>
<polygon fill="#bfbfbf" stroke="black" points="0,-366.217 0,-385.217 88,-385.217 88,-366.217 0,-366.217"/>
<text text-anchor="middle" x="44" y="-373.217" font-family="Helvetica,sans-Serif" font-size="10.00">setParameters</text>
</g>
<!-- Node2 -->
<g id="node2" class="node"><title>Node2</title>
<g id="a_node2"><a xlink:href="classcom_1_1tomoparts_1_1tomoBay_1_1model_1_1sql_1_1framework_1_1QueryUtility.html#a202aab30c77e06c32318efd5cf949ca3" target="_top" xlink:title="set an Integer parameter for the query object specified. ">
<polygon fill="white" stroke="black" points="1798,-338.717 1798,-368.717 2041,-368.717 2041,-338.717 1798,-338.717"/>
<text text-anchor="start" x="1806" y="-356.717" font-family="Helvetica,sans-Serif" font-size="10.00">com.tomoparts.tomoBay.model.sql.framework.</text>
<text text-anchor="middle" x="1919.5" y="-345.717" font-family="Helvetica,sans-Serif" font-size="10.00">QueryUtility.setDATEParam</text>
</a>
</g>
</g>
<!-- Node1&#45;&gt;Node2 -->
<g id="edge1" class="edge"><title>Node1&#45;&gt;Node2</title>
<path fill="none" stroke="midnightblue" d="M88.1872,-372.399C172.043,-366.253 362.792,-353.717 523.5,-353.717 523.5,-353.717 523.5,-353.717 1362.5,-353.717 1508.09,-353.717 1675.12,-353.717 1787.79,-353.717"/>
<polygon fill="midnightblue" stroke="midnightblue" points="1787.84,-357.217 1797.84,-353.717 1787.84,-350.217 1787.84,-357.217"/>
</g>
<!-- Node9 -->
<g id="node9" class="node"><title>Node9</title>
<g id="a_node9"><a xlink:href="classcom_1_1tomoparts_1_1tomoBay_1_1model_1_1sql_1_1framework_1_1QueryUtility.html#aca3b74b8ac7e194a86c0b896a674e2f2" target="_top" xlink:title="set an Integer parameter for the query object specified. ">
<polygon fill="white" stroke="black" points="124,-382.717 124,-412.717 367,-412.717 367,-382.717 124,-382.717"/>
<text text-anchor="start" x="132" y="-400.717" font-family="Helvetica,sans-Serif" font-size="10.00">com.tomoparts.tomoBay.model.sql.framework.</text>
<text text-anchor="middle" x="245.5" y="-389.717" font-family="Helvetica,sans-Serif" font-size="10.00">QueryUtility.setINTEGERParam</text>
</a>
</g>
</g>
<!-- Node1&#45;&gt;Node9 -->
<g id="edge12" class="edge"><title>Node1&#45;&gt;Node9</title>
<path fill="none" stroke="midnightblue" d="M88.2885,-380.49C96.1153,-381.353 104.633,-382.293 113.519,-383.273"/>
<polygon fill="midnightblue" stroke="midnightblue" points="113.368,-386.777 123.691,-384.394 114.135,-379.819 113.368,-386.777"/>
</g>
<!-- Node3 -->
<g id="node3" class="node"><title>Node3</title>
<g id="a_node3"><a xlink:href="classcom_1_1tomoparts_1_1tomoBay_1_1model_1_1dataTypes_1_1heteroTypeContainer_1_1HeteroFieldContainer.html#a988363ab964d6dc0ccb8560bef5895b6" target="_top" xlink:title="retrieve the the value of an AbstractField from this HeteroFieldContainer, the field should be of the...">
<polygon fill="white" stroke="black" points="2667,-137.217 2667,-178.217 2873,-178.217 2873,-137.217 2667,-137.217"/>
<text text-anchor="start" x="2675" y="-166.217" font-family="Helvetica,sans-Serif" font-size="10.00">com.tomoparts.tomoBay.model.data</text>
<text text-anchor="start" x="2675" y="-155.217" font-family="Helvetica,sans-Serif" font-size="10.00">Types.heteroTypeContainer.HeteroField</text>
<text text-anchor="middle" x="2770" y="-144.217" font-family="Helvetica,sans-Serif" font-size="10.00">Container.get</text>
</a>
</g>
</g>
<!-- Node2&#45;&gt;Node3 -->
<g id="edge2" class="edge"><title>Node2&#45;&gt;Node3</title>
<path fill="none" stroke="midnightblue" d="M1954.93,-338.697C1986.39,-325.251 2034.37,-305.445 2077,-290.717 2199.04,-248.555 2229.55,-235.862 2356,-209.717 2456.82,-188.87 2573.32,-175.122 2656.84,-167.028"/>
<polygon fill="midnightblue" stroke="midnightblue" points="2657.23,-170.506 2666.85,-166.068 2656.57,-163.538 2657.23,-170.506"/>
</g>
<!-- Node5 -->
<g id="node5" class="node"><title>Node5</title>
<g id="a_node5"><a xlink:href="classcom_1_1tomoparts_1_1tomoBay_1_1model_1_1sql_1_1framework_1_1QueryUtility.html#a5677c2440b48e612fb51b57130555e5d" target="_top" xlink:title="set an Integer parameter for the query object specified. ">
<polygon fill="white" stroke="black" points="2077,-300.717 2077,-330.717 2320,-330.717 2320,-300.717 2077,-300.717"/>
<text text-anchor="start" x="2085" y="-318.717" font-family="Helvetica,sans-Serif" font-size="10.00">com.tomoparts.tomoBay.model.sql.framework.</text>
<text text-anchor="middle" x="2198.5" y="-307.717" font-family="Helvetica,sans-Serif" font-size="10.00">QueryUtility.setDOUBLEParam</text>
</a>
</g>
</g>
<!-- Node2&#45;&gt;Node5 -->
<g id="edge4" class="edge"><title>Node2&#45;&gt;Node5</title>
<path fill="none" stroke="midnightblue" d="M2029.98,-338.698C2045.61,-336.554 2061.75,-334.339 2077.57,-332.169"/>
<polygon fill="midnightblue" stroke="midnightblue" points="2078.48,-335.577 2087.91,-330.751 2077.53,-328.642 2078.48,-335.577"/>
</g>
<!-- Node7 -->
<g id="node7" class="node"><title>Node7</title>
<g id="a_node7"><a xlink:href="classcom_1_1tomoparts_1_1tomoBay_1_1model_1_1sql_1_1framework_1_1queryTypes_1_1AbstractDBQuery.html#a41678b13e84de4335130f10cea7ae562" target="_top" xlink:title="get the statement object associated with this query ">
<polygon fill="white" stroke="black" points="2635,-458.717 2635,-488.717 2905,-488.717 2905,-458.717 2635,-458.717"/>
<text text-anchor="start" x="2643" y="-476.717" font-family="Helvetica,sans-Serif" font-size="10.00">com.tomoparts.tomoBay.model.sql.framework.query</text>
<text text-anchor="middle" x="2770" y="-465.717" font-family="Helvetica,sans-Serif" font-size="10.00">Types.AbstractDBQuery.statement</text>
</a>
</g>
</g>
<!-- Node2&#45;&gt;Node7 -->
<g id="edge11" class="edge"><title>Node2&#45;&gt;Node7</title>
<path fill="none" stroke="midnightblue" d="M2041.06,-358.628C2177.56,-365.843 2406.04,-382.931 2599,-421.717 2639.9,-429.937 2685,-443.972 2718.46,-455.391"/>
<polygon fill="midnightblue" stroke="midnightblue" points="2717.42,-458.734 2728.02,-458.687 2719.7,-452.117 2717.42,-458.734"/>
</g>
<!-- Node4 -->
<g id="node4" class="node"><title>Node4</title>
<g id="a_node4"><a xlink:href="classcom_1_1tomoparts_1_1tomoBay_1_1model_1_1dataTypes_1_1heteroTypeContainer_1_1HeteroFieldContainer.html#a9dee3c01eb5ab16203e1c6820a569484" target="_top" xlink:title="performs a type check, assuming that field and type are of the same type then this method returns tru...">
<polygon fill="white" stroke="black" points="2973,-137.217 2973,-178.217 3179,-178.217 3179,-137.217 2973,-137.217"/>
<text text-anchor="start" x="2981" y="-166.217" font-family="Helvetica,sans-Serif" font-size="10.00">com.tomoparts.tomoBay.model.data</text>
<text text-anchor="start" x="2981" y="-155.217" font-family="Helvetica,sans-Serif" font-size="10.00">Types.heteroTypeContainer.HeteroField</text>
<text text-anchor="middle" x="3076" y="-144.217" font-family="Helvetica,sans-Serif" font-size="10.00">Container.isSameType</text>
</a>
</g>
</g>
<!-- Node3&#45;&gt;Node4 -->
<g id="edge3" class="edge"><title>Node3&#45;&gt;Node4</title>
<path fill="none" stroke="midnightblue" d="M2873.07,-157.717C2901.85,-157.717 2933.31,-157.717 2962.65,-157.717"/>
<polygon fill="midnightblue" stroke="midnightblue" points="2962.94,-161.217 2972.94,-157.717 2962.94,-154.217 2962.94,-161.217"/>
</g>
<!-- Node5&#45;&gt;Node3 -->
<g id="edge5" class="edge"><title>Node5&#45;&gt;Node3</title>
<path fill="none" stroke="midnightblue" d="M2235.01,-300.698C2266.39,-287.88 2313.61,-269.675 2356,-257.717 2461.95,-227.826 2492.23,-236.518 2599,-209.717 2631.68,-201.512 2667.41,-190.848 2697.64,-181.313"/>
<polygon fill="midnightblue" stroke="midnightblue" points="2698.78,-184.624 2707.25,-178.262 2696.66,-177.952 2698.78,-184.624"/>
</g>
<!-- Node6 -->
<g id="node6" class="node"><title>Node6</title>
<g id="a_node6"><a xlink:href="classcom_1_1tomoparts_1_1tomoBay_1_1model_1_1sql_1_1framework_1_1QueryUtility.html#adf8f1fea7b649baadeb0297c41be72f5" target="_top" xlink:title="set an Integer parameter for the query object specified. ">
<polygon fill="white" stroke="black" points="2356,-300.717 2356,-330.717 2599,-330.717 2599,-300.717 2356,-300.717"/>
<text text-anchor="start" x="2364" y="-318.717" font-family="Helvetica,sans-Serif" font-size="10.00">com.tomoparts.tomoBay.model.sql.framework.</text>
<text text-anchor="middle" x="2477.5" y="-307.717" font-family="Helvetica,sans-Serif" font-size="10.00">QueryUtility.setFLOATParam</text>
</a>
</g>
</g>
<!-- Node5&#45;&gt;Node6 -->
<g id="edge6" class="edge"><title>Node5&#45;&gt;Node6</title>
<path fill="none" stroke="midnightblue" d="M2320.19,-315.717C2328.59,-315.717 2337.07,-315.717 2345.52,-315.717"/>
<polygon fill="midnightblue" stroke="midnightblue" points="2345.79,-319.217 2355.79,-315.717 2345.79,-312.217 2345.79,-319.217"/>
</g>
<!-- Node5&#45;&gt;Node7 -->
<g id="edge10" class="edge"><title>Node5&#45;&gt;Node7</title>
<path fill="none" stroke="midnightblue" d="M2297.78,-330.775C2406.74,-347.735 2570.94,-374.176 2599,-383.717 2650.01,-401.06 2704.24,-432.288 2737.38,-453.012"/>
<polygon fill="midnightblue" stroke="midnightblue" points="2735.82,-456.169 2746.14,-458.558 2739.56,-450.254 2735.82,-456.169"/>
</g>
<!-- Node6&#45;&gt;Node3 -->
<g id="edge7" class="edge"><title>Node6&#45;&gt;Node3</title>
<path fill="none" stroke="midnightblue" d="M2558.19,-300.695C2572.14,-296.721 2586.25,-291.791 2599,-285.717 2653.73,-259.638 2708.14,-214.4 2740.16,-185.28"/>
<polygon fill="midnightblue" stroke="midnightblue" points="2742.82,-187.592 2747.8,-178.245 2738.08,-182.442 2742.82,-187.592"/>
</g>
<!-- Node6&#45;&gt;Node7 -->
<g id="edge8" class="edge"><title>Node6&#45;&gt;Node7</title>
<path fill="none" stroke="midnightblue" d="M2558.19,-330.739C2572.14,-334.712 2586.25,-339.642 2599,-345.717 2657.17,-373.436 2714.99,-422.799 2745.93,-451.448"/>
<polygon fill="midnightblue" stroke="midnightblue" points="2743.87,-454.317 2753.56,-458.601 2748.66,-449.209 2743.87,-454.317"/>
</g>
<!-- Node8 -->
<g id="node8" class="node"><title>Node8</title>
<g id="a_node8"><a xlink:href="classcom_1_1tomoparts_1_1tomoBay_1_1model_1_1sql_1_1framework_1_1queryTypes_1_1AbstractDBQuery.html#ae8a5c5f1701ee77ef658050c8345d518" target="_top" xlink:title="Used by derived classes to define the Query string to be used in the query. ">
<polygon fill="white" stroke="black" points="2941,-458.717 2941,-488.717 3211,-488.717 3211,-458.717 2941,-458.717"/>
<text text-anchor="start" x="2949" y="-476.717" font-family="Helvetica,sans-Serif" font-size="10.00">com.tomoparts.tomoBay.model.sql.framework.query</text>
<text text-anchor="middle" x="3076" y="-465.717" font-family="Helvetica,sans-Serif" font-size="10.00">Types.AbstractDBQuery.queryString</text>
</a>
</g>
</g>
<!-- Node7&#45;&gt;Node8 -->
<g id="edge9" class="edge"><title>Node7&#45;&gt;Node8</title>
<path fill="none" stroke="midnightblue" d="M2905.22,-473.717C2913.59,-473.717 2922.03,-473.717 2930.44,-473.717"/>
<polygon fill="midnightblue" stroke="midnightblue" points="2930.68,-477.217 2940.68,-473.717 2930.68,-470.217 2930.68,-477.217"/>
</g>
<!-- Node9&#45;&gt;Node3 -->
<g id="edge13" class="edge"><title>Node9&#45;&gt;Node3</title>
<path fill="none" stroke="midnightblue" d="M256.955,-382.35C307.631,-309.875 536.17,-5.71663 802.5,-5.71663 802.5,-5.71663 802.5,-5.71663 2199.5,-5.71663 2377.74,-5.71663 2431.27,19.5766 2599,-40.7166 2653.86,-60.4371 2707.66,-102.354 2739.58,-130.286"/>
<polygon fill="midnightblue" stroke="midnightblue" points="2737.41,-133.04 2747.22,-137.063 2742.06,-127.806 2737.41,-133.04"/>
</g>
<!-- Node9&#45;&gt;Node7 -->
<g id="edge30" class="edge"><title>Node9&#45;&gt;Node7</title>
<path fill="none" stroke="midnightblue" d="M266.963,-413.03C337.369,-464.151 577.672,-625.717 802.5,-625.717 802.5,-625.717 802.5,-625.717 2199.5,-625.717 2378.23,-625.717 2430.27,-638.661 2599,-579.717 2654.76,-560.236 2711.35,-519.954 2743.13,-495.042"/>
<polygon fill="midnightblue" stroke="midnightblue" points="2745.39,-497.72 2751.04,-488.757 2741.04,-492.24 2745.39,-497.72"/>
</g>
<!-- Node10 -->
<g id="node10" class="node"><title>Node10</title>
<g id="a_node10"><a xlink:href="classcom_1_1tomoparts_1_1tomoBay_1_1model_1_1sql_1_1framework_1_1QueryUtility.html#a3249b16421a9902f2248cb86d4dd3be3" target="_top" xlink:title="set an Integer parameter for the query object specified. ">
<polygon fill="white" stroke="black" points="403,-382.717 403,-412.717 646,-412.717 646,-382.717 403,-382.717"/>
<text text-anchor="start" x="411" y="-400.717" font-family="Helvetica,sans-Serif" font-size="10.00">com.tomoparts.tomoBay.model.sql.framework.</text>
<text text-anchor="middle" x="524.5" y="-389.717" font-family="Helvetica,sans-Serif" font-size="10.00">QueryUtility.setVARCHARParam</text>
</a>
</g>
</g>
<!-- Node9&#45;&gt;Node10 -->
<g id="edge14" class="edge"><title>Node9&#45;&gt;Node10</title>
<path fill="none" stroke="midnightblue" d="M367.19,-397.717C375.586,-397.717 384.07,-397.717 392.517,-397.717"/>
<polygon fill="midnightblue" stroke="midnightblue" points="392.794,-401.217 402.794,-397.717 392.794,-394.217 392.794,-401.217"/>
</g>
<!-- Node10&#45;&gt;Node3 -->
<g id="edge15" class="edge"><title>Node10&#45;&gt;Node3</title>
<path fill="none" stroke="midnightblue" d="M537.375,-382.506C591.73,-314.748 825.172,-43.7166 1081.5,-43.7166 1081.5,-43.7166 1081.5,-43.7166 2199.5,-43.7166 2377.9,-43.7166 2426.43,-37.474 2599,-82.7166 2642.64,-94.1577 2689.33,-115.481 2722.72,-132.475"/>
<polygon fill="midnightblue" stroke="midnightblue" points="2721.28,-135.67 2731.77,-137.142 2724.49,-129.448 2721.28,-135.67"/>
</g>
<!-- Node10&#45;&gt;Node7 -->
<g id="edge29" class="edge"><title>Node10&#45;&gt;Node7</title>
<path fill="none" stroke="midnightblue" d="M550.232,-412.784C626.426,-457.723 865.497,-587.717 1081.5,-587.717 1081.5,-587.717 1081.5,-587.717 2199.5,-587.717 2378.08,-587.717 2426.03,-589.145 2599,-544.717 2646.15,-532.606 2697.32,-509.802 2731.07,-493.299"/>
<polygon fill="midnightblue" stroke="midnightblue" points="2732.7,-496.398 2740.11,-488.825 2729.59,-490.124 2732.7,-496.398"/>
</g>
<!-- Node11 -->
<g id="node11" class="node"><title>Node11</title>
<g id="a_node11"><a xlink:href="classcom_1_1tomoparts_1_1tomoBay_1_1model_1_1sql_1_1framework_1_1QueryUtility.html#a50955d4f51a1a7a88ef0c8aadbe9c793" target="_top" xlink:title="set an Integer parameter for the query object specified. ">
<polygon fill="white" stroke="black" points="682,-382.717 682,-412.717 925,-412.717 925,-382.717 682,-382.717"/>
<text text-anchor="start" x="690" y="-400.717" font-family="Helvetica,sans-Serif" font-size="10.00">com.tomoparts.tomoBay.model.sql.framework.</text>
<text text-anchor="middle" x="803.5" y="-389.717" font-family="Helvetica,sans-Serif" font-size="10.00">QueryUtility.setBYTEParam</text>
</a>
</g>
</g>
<!-- Node10&#45;&gt;Node11 -->
<g id="edge16" class="edge"><title>Node10&#45;&gt;Node11</title>
<path fill="none" stroke="midnightblue" d="M646.19,-397.717C654.586,-397.717 663.07,-397.717 671.517,-397.717"/>
<polygon fill="midnightblue" stroke="midnightblue" points="671.794,-401.217 681.794,-397.717 671.794,-394.217 671.794,-401.217"/>
</g>
<!-- Node11&#45;&gt;Node3 -->
<g id="edge17" class="edge"><title>Node11&#45;&gt;Node3</title>
<path fill="none" stroke="midnightblue" d="M818.274,-382.475C876.908,-319.353 1114.02,-81.7166 1360.5,-81.7166 1360.5,-81.7166 1360.5,-81.7166 2199.5,-81.7166 2377.86,-81.7166 2422.85,-91.7636 2599,-119.717 2624.45,-123.754 2651.78,-129.313 2676.93,-134.933"/>
<polygon fill="midnightblue" stroke="midnightblue" points="2676.3,-138.378 2686.82,-137.171 2677.84,-131.55 2676.3,-138.378"/>
</g>
<!-- Node11&#45;&gt;Node7 -->
<g id="edge28" class="edge"><title>Node11&#45;&gt;Node7</title>
<path fill="none" stroke="midnightblue" d="M836.253,-412.847C919.953,-451.293 1154.36,-549.717 1360.5,-549.717 1360.5,-549.717 1360.5,-549.717 2199.5,-549.717 2377.77,-549.717 2423.02,-542.204 2599,-513.717 2633.97,-508.055 2672.44,-499.228 2703.92,-491.305"/>
<polygon fill="midnightblue" stroke="midnightblue" points="2705.06,-494.627 2713.89,-488.769 2703.33,-487.844 2705.06,-494.627"/>
</g>
<!-- Node12 -->
<g id="node12" class="node"><title>Node12</title>
<g id="a_node12"><a xlink:href="classcom_1_1tomoparts_1_1tomoBay_1_1model_1_1sql_1_1framework_1_1QueryUtility.html#a138f0c046bc0a6df71b168ab35c3c3e3" target="_top" xlink:title="set an Integer parameter for the query object specified. ">
<polygon fill="white" stroke="black" points="961,-382.717 961,-412.717 1204,-412.717 1204,-382.717 961,-382.717"/>
<text text-anchor="start" x="969" y="-400.717" font-family="Helvetica,sans-Serif" font-size="10.00">com.tomoparts.tomoBay.model.sql.framework.</text>
<text text-anchor="middle" x="1082.5" y="-389.717" font-family="Helvetica,sans-Serif" font-size="10.00">QueryUtility.setBIGINTParam</text>
</a>
</g>
</g>
<!-- Node11&#45;&gt;Node12 -->
<g id="edge18" class="edge"><title>Node11&#45;&gt;Node12</title>
<path fill="none" stroke="midnightblue" d="M925.19,-397.717C933.586,-397.717 942.07,-397.717 950.517,-397.717"/>
<polygon fill="midnightblue" stroke="midnightblue" points="950.794,-401.217 960.794,-397.717 950.794,-394.217 950.794,-401.217"/>
</g>
<!-- Node12&#45;&gt;Node3 -->
<g id="edge19" class="edge"><title>Node12&#45;&gt;Node3</title>
<path fill="none" stroke="midnightblue" d="M1099.74,-382.374C1163.19,-324.095 1402.61,-119.717 1639.5,-119.717 1639.5,-119.717 1639.5,-119.717 2199.5,-119.717 2358.45,-119.717 2541.8,-134.636 2656.57,-145.778"/>
<polygon fill="midnightblue" stroke="midnightblue" points="2656.48,-149.286 2666.77,-146.776 2657.16,-142.319 2656.48,-149.286"/>
</g>
<!-- Node12&#45;&gt;Node7 -->
<g id="edge27" class="edge"><title>Node12&#45;&gt;Node7</title>
<path fill="none" stroke="midnightblue" d="M1126.49,-412.737C1219.06,-443.693 1444.65,-511.717 1639.5,-511.717 1639.5,-511.717 1639.5,-511.717 2199.5,-511.717 2344.38,-511.717 2509.54,-499.321 2624.55,-488.689"/>
<polygon fill="midnightblue" stroke="midnightblue" points="2625.2,-492.144 2634.83,-487.731 2624.55,-485.175 2625.2,-492.144"/>
</g>
<!-- Node13 -->
<g id="node13" class="node"><title>Node13</title>
<g id="a_node13"><a xlink:href="classcom_1_1tomoparts_1_1tomoBay_1_1model_1_1sql_1_1framework_1_1QueryUtility.html#a56a65ac583b8720ae73dc81278e5690e" target="_top" xlink:title="set an Integer parameter for the query object specified. ">
<polygon fill="white" stroke="black" points="1240,-382.717 1240,-412.717 1483,-412.717 1483,-382.717 1240,-382.717"/>
<text text-anchor="start" x="1248" y="-400.717" font-family="Helvetica,sans-Serif" font-size="10.00">com.tomoparts.tomoBay.model.sql.framework.</text>
<text text-anchor="middle" x="1361.5" y="-389.717" font-family="Helvetica,sans-Serif" font-size="10.00">QueryUtility.setTINYINTParam</text>
</a>
</g>
</g>
<!-- Node12&#45;&gt;Node13 -->
<g id="edge20" class="edge"><title>Node12&#45;&gt;Node13</title>
<path fill="none" stroke="midnightblue" d="M1204.19,-397.717C1212.59,-397.717 1221.07,-397.717 1229.52,-397.717"/>
<polygon fill="midnightblue" stroke="midnightblue" points="1229.79,-401.217 1239.79,-397.717 1229.79,-394.217 1229.79,-401.217"/>
</g>
<!-- Node13&#45;&gt;Node3 -->
<g id="edge21" class="edge"><title>Node13&#45;&gt;Node3</title>
<path fill="none" stroke="midnightblue" d="M1381.4,-382.704C1449.49,-330.162 1690.35,-157.717 1918.5,-157.717 1918.5,-157.717 1918.5,-157.717 2199.5,-157.717 2358.22,-157.717 2541.82,-157.717 2656.68,-157.717"/>
<polygon fill="midnightblue" stroke="midnightblue" points="2656.89,-161.217 2666.89,-157.717 2656.89,-154.217 2656.89,-161.217"/>
</g>
<!-- Node13&#45;&gt;Node7 -->
<g id="edge26" class="edge"><title>Node13&#45;&gt;Node7</title>
<path fill="none" stroke="midnightblue" d="M1428.86,-412.732C1532.7,-434.881 1740.21,-473.717 1918.5,-473.717 1918.5,-473.717 1918.5,-473.717 2199.5,-473.717 2344.18,-473.717 2509.54,-473.717 2624.66,-473.717"/>
<polygon fill="midnightblue" stroke="midnightblue" points="2624.95,-477.217 2634.95,-473.717 2624.95,-470.217 2624.95,-477.217"/>
</g>
<!-- Node14 -->
<g id="node14" class="node"><title>Node14</title>
<g id="a_node14"><a xlink:href="classcom_1_1tomoparts_1_1tomoBay_1_1model_1_1sql_1_1framework_1_1QueryUtility.html#ab07d04299a96461dcf893416b8e32604" target="_top" xlink:title="set an Integer parameter for the query object specified. ">
<polygon fill="white" stroke="black" points="1519,-382.717 1519,-412.717 1762,-412.717 1762,-382.717 1519,-382.717"/>
<text text-anchor="start" x="1527" y="-400.717" font-family="Helvetica,sans-Serif" font-size="10.00">com.tomoparts.tomoBay.model.sql.framework.</text>
<text text-anchor="middle" x="1640.5" y="-389.717" font-family="Helvetica,sans-Serif" font-size="10.00">QueryUtility.setTIMESTAMPParam</text>
</a>
</g>
</g>
<!-- Node13&#45;&gt;Node14 -->
<g id="edge22" class="edge"><title>Node13&#45;&gt;Node14</title>
<path fill="none" stroke="midnightblue" d="M1483.19,-397.717C1491.59,-397.717 1500.07,-397.717 1508.52,-397.717"/>
<polygon fill="midnightblue" stroke="midnightblue" points="1508.79,-401.217 1518.79,-397.717 1508.79,-394.217 1508.79,-401.217"/>
</g>
<!-- Node14&#45;&gt;Node2 -->
<g id="edge24" class="edge"><title>Node14&#45;&gt;Node2</title>
<path fill="none" stroke="midnightblue" d="M1736.05,-382.697C1761.1,-378.719 1788.28,-374.402 1813.83,-370.344"/>
<polygon fill="midnightblue" stroke="midnightblue" points="1814.58,-373.768 1823.9,-368.743 1813.48,-366.855 1814.58,-373.768"/>
</g>
<!-- Node14&#45;&gt;Node3 -->
<g id="edge23" class="edge"><title>Node14&#45;&gt;Node3</title>
<path fill="none" stroke="midnightblue" d="M1762.32,-394.352C1841.66,-391.482 1947.65,-386.394 2041,-377.717 2165.61,-366.133 2212.42,-403.657 2320,-339.717 2343.23,-325.91 2333.05,-304.983 2356,-290.717 2449.15,-232.815 2495.28,-283.363 2599,-247.717 2645.82,-231.626 2695.43,-203.989 2728.89,-183.575"/>
<polygon fill="midnightblue" stroke="midnightblue" points="2730.78,-186.517 2737.46,-178.288 2727.11,-180.559 2730.78,-186.517"/>
</g>
<!-- Node14&#45;&gt;Node7 -->
<g id="edge25" class="edge"><title>Node14&#45;&gt;Node7</title>
<path fill="none" stroke="midnightblue" d="M1762.37,-408.886C1774.4,-409.891 1786.44,-410.853 1798,-411.717 2153.65,-438.275 2243.26,-434.413 2599,-459.717 2607.39,-460.313 2616,-460.95 2624.7,-461.61"/>
<polygon fill="midnightblue" stroke="midnightblue" points="2624.69,-465.119 2634.93,-462.394 2625.23,-458.14 2624.69,-465.119"/>
</g>
</g>
</svg>
        <g id="navigator" transform="translate(0 0)" fill="#404254">
                <rect fill="#f2f5e9" fill-opacity="0.5" stroke="#606060" stroke-width=".5" x="0" y="0" width="60" height="60"/>
                <use id="zoomplus" xlink:href="#zoomPlus" x="17" y="9" onmousedown="handleZoom(evt,'in')"/>
                <use id="zoomminus" xlink:href="#zoomMin" x="42" y="9" onmousedown="handleZoom(evt,'out')"/>
                <use id="reset" xlink:href="#resetDef" x="30" y="36" onmousedown="handleReset()"/>
                <g id="arrowUp" xlink:href="#dirArrow" transform="translate(30 24)" onmousedown="handlePan(0,-1)">
                  <use xlink:href="#rim" fill="#404040">
                        <set attributeName="fill" to="#808080" begin="arrowUp.mouseover" end="arrowUp.mouseout"/>
                  </use>
                  <path fill="none" stroke="white" stroke-width="1.5" d="M0,-3.0v7 M-2.5,-0.5L0,-3.0L2.5,-0.5"/>
                </g>
                <g id="arrowRight" xlink:href="#dirArrow" transform="rotate(90) translate(36 -43)" onmousedown="handlePan(1,0)">
                  <use xlink:href="#rim" fill="#404040">
                        <set attributeName="fill" to="#808080" begin="arrowRight.mouseover" end="arrowRight.mouseout"/>
                  </use>
                  <path fill="none" stroke="white" stroke-width="1.5" d="M0,-3.0v7 M-2.5,-0.5L0,-3.0L2.5,-0.5"/>
                </g>
                <g id="arrowDown" xlink:href="#dirArrow" transform="rotate(180) translate(-30 -48)" onmousedown="handlePan(0,1)">
                  <use xlink:href="#rim" fill="#404040">
                        <set attributeName="fill" to="#808080" begin="arrowDown.mouseover" end="arrowDown.mouseout"/>
                  </use>
                  <path fill="none" stroke="white" stroke-width="1.5" d="M0,-3.0v7 M-2.5,-0.5L0,-3.0L2.5,-0.5"/>
                </g>
                <g id="arrowLeft" xlink:href="#dirArrow" transform="rotate(270) translate(-36 17)" onmousedown="handlePan(-1,0)">
                  <use xlink:href="#rim" fill="#404040">
                        <set attributeName="fill" to="#808080" begin="arrowLeft.mouseover" end="arrowLeft.mouseout"/>
                  </use>
                  <path fill="none" stroke="white" stroke-width="1.5" d="M0,-3.0v7 M-2.5,-0.5L0,-3.0L2.5,-0.5"/>
                </g>
        </g>
        <svg viewBox="0 0 15 15" width="100%" height="30px" preserveAspectRatio="xMaxYMin meet">
         <g id="arrow_out" transform="scale(0.3 0.3)">
          <a xlink:href="classcom_1_1tomoparts_1_1tomoBay_1_1model_1_1sql_1_1queries_1_1concreteQueries_1_1insert_1_1InsertOutOfHoursOrders_af9020b85517904668d036bc2bf89433c_cgraph_org.svg" target="_base">
           <rect id="button" ry="5" rx="5" y="6" x="6" height="38" width="38"
                fill="#f2f5e9" fill-opacity="0.5" stroke="#606060" stroke-width="1.0"/>
           <path id="arrow"
             d="M 11.500037,31.436501 C 11.940474,20.09759 22.043105,11.32322 32.158766,21.979434 L 37.068811,17.246167 C 37.068811,17.246167 37.088388,32 37.088388,32 L 22.160133,31.978069 C 22.160133,31.978069 26.997745,27.140456 26.997745,27.140456 C 18.528582,18.264221 13.291696,25.230495 11.500037,31.436501 z"
             style="fill:#404040;"/>
          </a>
         </g>
        </svg>
</svg>
