<?xml version="1.0" encoding="UTF-8" standalone="no"?>
<!DOCTYPE svg PUBLIC "-//W3C//DTD SVG 1.1//EN"
 "http://www.w3.org/Graphics/SVG/1.1/DTD/svg11.dtd">
<!-- Generated by graphviz version 2.38.0 (20140413.2041)
 -->
<!-- Title: setVARCHARParam Pages: 1 -->
<svg width="782pt" height="1097pt"
 viewBox="0.00 0.00 782.00 1096.50" xmlns="http://www.w3.org/2000/svg" xmlns:xlink="http://www.w3.org/1999/xlink">
<g id="graph0" class="graph" transform="scale(1 1) rotate(0) translate(4 1092.5)">
<title>setVARCHARParam</title>
<polygon fill="white" stroke="none" points="-4,4 -4,-1092.5 778,-1092.5 778,4 -4,4"/>
<!-- Node1 -->
<g id="node1" class="node"><title>Node1</title>
<polygon fill="#bfbfbf" stroke="black" points="0,-478.5 0,-497.5 110,-497.5 110,-478.5 0,-478.5"/>
<text text-anchor="middle" x="55" y="-485.5" font-family="Helvetica,sans-Serif" font-size="10.00">setVARCHARParam</text>
</g>
<!-- Node2 -->
<g id="node2" class="node"><title>Node2</title>
<g id="a_node2"><a xlink:href="classcom_1_1tomoparts_1_1tomoBay_1_1model_1_1sql_1_1framework_1_1QueryUtility.html#aca3b74b8ac7e194a86c0b896a674e2f2" target="_top" xlink:title="set an Integer parameter for the query object specified. ">
<polygon fill="white" stroke="black" points="246.5,-816.5 246.5,-835.5 350.5,-835.5 350.5,-816.5 246.5,-816.5"/>
<text text-anchor="middle" x="298.5" y="-823.5" font-family="Helvetica,sans-Serif" font-size="10.00">setINTEGERParam</text>
</a>
</g>
</g>
<!-- Node1&#45;&gt;Node2 -->
<g id="edge1" class="edge"><title>Node1&#45;&gt;Node2</title>
<path fill="none" stroke="midnightblue" d="M55.6829,-507.994C55.975,-561.673 64.4965,-710.139 146,-788 172.666,-813.475 213.757,-822.607 246.42,-825.571"/>
<polygon fill="midnightblue" stroke="midnightblue" points="59.1837,-507.789 55.7259,-497.774 52.1837,-507.759 59.1837,-507.789"/>
</g>
<!-- Node5 -->
<g id="node5" class="node"><title>Node5</title>
<g id="a_node5"><a xlink:href="classcom_1_1tomoparts_1_1tomoBay_1_1model_1_1sql_1_1queries_1_1concreteQueries_1_1update_1_1UpdateInvoiceStatus.html#af9020b85517904668d036bc2bf89433c" target="_top" xlink:title="com.tomoparts.tomoBay.model.sql.queries.concrete\lQueries.update.UpdateInvoiceStatus.setParameters">
<polygon fill="white" stroke="black" points="495.5,-1058 495.5,-1088 765.5,-1088 765.5,-1058 495.5,-1058"/>
<text text-anchor="start" x="503.5" y="-1076" font-family="Helvetica,sans-Serif" font-size="10.00">com.tomoparts.tomoBay.model.sql.queries.concrete</text>
<text text-anchor="middle" x="630.5" y="-1065" font-family="Helvetica,sans-Serif" font-size="10.00">Queries.update.UpdateInvoiceStatus.setParameters</text>
</a>
</g>
</g>
<!-- Node1&#45;&gt;Node5 -->
<g id="edge13" class="edge"><title>Node1&#45;&gt;Node5</title>
<path fill="none" stroke="midnightblue" d="M55.9043,-507.987C56.6122,-566.04 65.7853,-737.352 146,-845 251.388,-986.43 321.639,-986.64 487,-1048 497.479,-1051.89 508.621,-1055.18 519.878,-1057.97"/>
<polygon fill="midnightblue" stroke="midnightblue" points="59.4029,-507.643 55.8581,-497.659 52.403,-507.675 59.4029,-507.643"/>
</g>
<!-- Node8 -->
<g id="node8" class="node"><title>Node8</title>
<g id="a_node8"><a xlink:href="classcom_1_1tomoparts_1_1tomoBay_1_1model_1_1sql_1_1queries_1_1concreteQueries_1_1insert_1_1InsertEbayItems.html#af9020b85517904668d036bc2bf89433c" target="_top" xlink:title="com.tomoparts.tomoBay.model.sql.queries.concrete\lQueries.insert.InsertEbayItems.setParameters">
<polygon fill="white" stroke="black" points="495.5,-762 495.5,-792 765.5,-792 765.5,-762 495.5,-762"/>
<text text-anchor="start" x="503.5" y="-780" font-family="Helvetica,sans-Serif" font-size="10.00">com.tomoparts.tomoBay.model.sql.queries.concrete</text>
<text text-anchor="middle" x="630.5" y="-769" font-family="Helvetica,sans-Serif" font-size="10.00">Queries.insert.InsertEbayItems.setParameters</text>
</a>
</g>
</g>
<!-- Node1&#45;&gt;Node8 -->
<g id="edge18" class="edge"><title>Node1&#45;&gt;Node8</title>
<path fill="none" stroke="midnightblue" d="M56.4608,-507.739C58.7564,-555.833 71.9406,-679.274 146,-736 198.959,-776.564 371.442,-782.63 495.292,-781.357"/>
<polygon fill="midnightblue" stroke="midnightblue" points="59.9568,-507.564 56.0929,-497.698 52.9615,-507.82 59.9568,-507.564"/>
</g>
<!-- Node9 -->
<g id="node9" class="node"><title>Node9</title>
<g id="a_node9"><a xlink:href="classcom_1_1tomoparts_1_1tomoBay_1_1model_1_1sql_1_1queries_1_1concreteQueries_1_1insert_1_1InsertEbayOrders.html#af9020b85517904668d036bc2bf89433c" target="_top" xlink:title="com.tomoparts.tomoBay.model.sql.queries.concrete\lQueries.insert.InsertEbayOrders.setParameters">
<polygon fill="white" stroke="black" points="495.5,-713 495.5,-743 765.5,-743 765.5,-713 495.5,-713"/>
<text text-anchor="start" x="503.5" y="-731" font-family="Helvetica,sans-Serif" font-size="10.00">com.tomoparts.tomoBay.model.sql.queries.concrete</text>
<text text-anchor="middle" x="630.5" y="-720" font-family="Helvetica,sans-Serif" font-size="10.00">Queries.insert.InsertEbayOrders.setParameters</text>
</a>
</g>
</g>
<!-- Node1&#45;&gt;Node9 -->
<g id="edge17" class="edge"><title>Node1&#45;&gt;Node9</title>
<path fill="none" stroke="midnightblue" d="M58.2578,-507.638C64.1748,-549.102 84.2174,-645.344 146,-689 269.453,-776.233 457.492,-760.309 558.85,-743.003"/>
<polygon fill="midnightblue" stroke="midnightblue" points="61.7255,-507.163 56.9652,-497.698 54.7839,-508.065 61.7255,-507.163"/>
</g>
<!-- Node10 -->
<g id="node10" class="node"><title>Node10</title>
<g id="a_node10"><a xlink:href="classcom_1_1tomoparts_1_1tomoBay_1_1model_1_1sql_1_1queries_1_1concreteQueries_1_1insert_1_1InsertEbayTransactions.html#af9020b85517904668d036bc2bf89433c" target="_top" xlink:title="com.tomoparts.tomoBay.model.sql.queries.concrete\lQueries.insert.InsertEbayTransactions.setParameters">
<polygon fill="white" stroke="black" points="494.5,-664 494.5,-694 766.5,-694 766.5,-664 494.5,-664"/>
<text text-anchor="start" x="502.5" y="-682" font-family="Helvetica,sans-Serif" font-size="10.00">com.tomoparts.tomoBay.model.sql.queries.concrete</text>
<text text-anchor="middle" x="630.5" y="-671" font-family="Helvetica,sans-Serif" font-size="10.00">Queries.insert.InsertEbayTransactions.setParameters</text>
</a>
</g>
</g>
<!-- Node1&#45;&gt;Node10 -->
<g id="edge19" class="edge"><title>Node1&#45;&gt;Node10</title>
<path fill="none" stroke="midnightblue" d="M59.6776,-507.788C67.7827,-545.1 91.02,-625.223 146,-660 201.864,-695.336 371.765,-694.407 494.383,-688.447"/>
<polygon fill="midnightblue" stroke="midnightblue" points="63.0458,-506.786 57.6297,-497.68 56.1853,-508.176 63.0458,-506.786"/>
</g>
<!-- Node11 -->
<g id="node11" class="node"><title>Node11</title>
<g id="a_node11"><a xlink:href="classcom_1_1tomoparts_1_1tomoBay_1_1model_1_1sql_1_1queries_1_1concreteQueries_1_1select_1_1params_1_1SelectBuyerByAccAndSRN.html#af9020b85517904668d036bc2bf89433c" target="_top" xlink:title="com.tomoparts.tomoBay.model.sql.queries.concrete\lQueries.select.params.SelectBuyerByAccAndSRN.set\lParameters">
<polygon fill="white" stroke="black" points="494.5,-603.5 494.5,-644.5 766.5,-644.5 766.5,-603.5 494.5,-603.5"/>
<text text-anchor="start" x="502.5" y="-632.5" font-family="Helvetica,sans-Serif" font-size="10.00">com.tomoparts.tomoBay.model.sql.queries.concrete</text>
<text text-anchor="start" x="502.5" y="-621.5" font-family="Helvetica,sans-Serif" font-size="10.00">Queries.select.params.SelectBuyerByAccAndSRN.set</text>
<text text-anchor="middle" x="630.5" y="-610.5" font-family="Helvetica,sans-Serif" font-size="10.00">Parameters</text>
</a>
</g>
</g>
<!-- Node1&#45;&gt;Node11 -->
<g id="edge21" class="edge"><title>Node1&#45;&gt;Node11</title>
<path fill="none" stroke="midnightblue" d="M61.1387,-507.556C71.1008,-540.984 96.5438,-608.192 146,-636 203.455,-668.305 372.289,-656.473 494.279,-642.49"/>
<polygon fill="midnightblue" stroke="midnightblue" points="64.4205,-506.298 58.3413,-497.62 57.6824,-508.195 64.4205,-506.298"/>
</g>
<!-- Node13 -->
<g id="node13" class="node"><title>Node13</title>
<g id="a_node13"><a xlink:href="classcom_1_1tomoparts_1_1tomoBay_1_1model_1_1sql_1_1queries_1_1concreteQueries_1_1insert_1_1InsertOrderInOrderStatus.html#af9020b85517904668d036bc2bf89433c" target="_top" xlink:title="com.tomoparts.tomoBay.model.sql.queries.concrete\lQueries.insert.InsertOrderInOrderStatus.setParameters">
<polygon fill="white" stroke="black" points="158,-596 158,-626 439,-626 439,-596 158,-596"/>
<text text-anchor="start" x="166" y="-614" font-family="Helvetica,sans-Serif" font-size="10.00">com.tomoparts.tomoBay.model.sql.queries.concrete</text>
<text text-anchor="middle" x="298.5" y="-603" font-family="Helvetica,sans-Serif" font-size="10.00">Queries.insert.InsertOrderInOrderStatus.setParameters</text>
</a>
</g>
</g>
<!-- Node1&#45;&gt;Node13 -->
<g id="edge12" class="edge"><title>Node1&#45;&gt;Node13</title>
<path fill="none" stroke="midnightblue" d="M67.0317,-506.352C81.8868,-529.298 110.588,-567.882 146,-587 152.327,-590.416 159.004,-593.378 165.888,-595.944"/>
<polygon fill="midnightblue" stroke="midnightblue" points="69.8094,-504.193 61.5338,-497.578 63.8777,-507.91 69.8094,-504.193"/>
</g>
<!-- Node14 -->
<g id="node14" class="node"><title>Node14</title>
<g id="a_node14"><a xlink:href="classcom_1_1tomoparts_1_1tomoBay_1_1model_1_1sql_1_1queries_1_1concreteQueries_1_1update_1_1UpdateItemNote.html#af9020b85517904668d036bc2bf89433c" target="_top" xlink:title="com.tomoparts.tomoBay.model.sql.queries.concrete\lQueries.update.UpdateItemNote.setParameters">
<polygon fill="white" stroke="black" points="163.5,-547 163.5,-577 433.5,-577 433.5,-547 163.5,-547"/>
<text text-anchor="start" x="171.5" y="-565" font-family="Helvetica,sans-Serif" font-size="10.00">com.tomoparts.tomoBay.model.sql.queries.concrete</text>
<text text-anchor="middle" x="298.5" y="-554" font-family="Helvetica,sans-Serif" font-size="10.00">Queries.update.UpdateItemNote.setParameters</text>
</a>
</g>
</g>
<!-- Node1&#45;&gt;Node14 -->
<g id="edge14" class="edge"><title>Node1&#45;&gt;Node14</title>
<path fill="none" stroke="midnightblue" d="M78.0443,-503.138C95.6609,-514.504 121.394,-529.514 146,-538 156.07,-541.473 166.692,-544.446 177.447,-546.992"/>
<polygon fill="midnightblue" stroke="midnightblue" points="79.8951,-500.166 69.6207,-497.58 76.0401,-506.009 79.8951,-500.166"/>
</g>
<!-- Node15 -->
<g id="node15" class="node"><title>Node15</title>
<g id="a_node15"><a xlink:href="classcom_1_1tomoparts_1_1tomoBay_1_1model_1_1sql_1_1queries_1_1concreteQueries_1_1update_1_1UpdateItemBrandAndPartNo.html#af9020b85517904668d036bc2bf89433c" target="_top" xlink:title="com.tomoparts.tomoBay.model.sql.queries.concrete\lQueries.update.UpdateItemBrandAndPartNo.setParameters">
<polygon fill="white" stroke="black" points="146,-498 146,-528 451,-528 451,-498 146,-498"/>
<text text-anchor="start" x="154" y="-516" font-family="Helvetica,sans-Serif" font-size="10.00">com.tomoparts.tomoBay.model.sql.queries.concrete</text>
<text text-anchor="middle" x="298.5" y="-505" font-family="Helvetica,sans-Serif" font-size="10.00">Queries.update.UpdateItemBrandAndPartNo.setParameters</text>
</a>
</g>
</g>
<!-- Node1&#45;&gt;Node15 -->
<g id="edge15" class="edge"><title>Node1&#45;&gt;Node15</title>
<path fill="none" stroke="midnightblue" d="M120.16,-494.642C130.37,-495.699 141.278,-496.828 152.476,-497.987"/>
<polygon fill="midnightblue" stroke="midnightblue" points="120.505,-491.159 110.197,-493.61 119.784,-498.122 120.505,-491.159"/>
</g>
<!-- Node16 -->
<g id="node16" class="node"><title>Node16</title>
<g id="a_node16"><a xlink:href="classcom_1_1tomoparts_1_1tomoBay_1_1model_1_1sql_1_1queries_1_1concreteQueries_1_1update_1_1UpdateItemError.html#af9020b85517904668d036bc2bf89433c" target="_top" xlink:title="com.tomoparts.tomoBay.model.sql.queries.concrete\lQueries.update.UpdateItemError.setParameters">
<polygon fill="white" stroke="black" points="163.5,-449 163.5,-479 433.5,-479 433.5,-449 163.5,-449"/>
<text text-anchor="start" x="171.5" y="-467" font-family="Helvetica,sans-Serif" font-size="10.00">com.tomoparts.tomoBay.model.sql.queries.concrete</text>
<text text-anchor="middle" x="298.5" y="-456" font-family="Helvetica,sans-Serif" font-size="10.00">Queries.update.UpdateItemError.setParameters</text>
</a>
</g>
</g>
<!-- Node1&#45;&gt;Node16 -->
<g id="edge16" class="edge"><title>Node1&#45;&gt;Node16</title>
<path fill="none" stroke="midnightblue" d="M120.208,-481.619C133.625,-480.286 148.246,-478.833 163.146,-477.352"/>
<polygon fill="midnightblue" stroke="midnightblue" points="119.802,-478.142 110.197,-482.614 120.494,-485.108 119.802,-478.142"/>
</g>
<!-- Node17 -->
<g id="node17" class="node"><title>Node17</title>
<g id="a_node17"><a xlink:href="classcom_1_1tomoparts_1_1tomoBay_1_1model_1_1sql_1_1queries_1_1concreteQueries_1_1update_1_1UpdateEbayBuyer.html#af9020b85517904668d036bc2bf89433c" target="_top" xlink:title="com.tomoparts.tomoBay.model.sql.queries.concrete\lQueries.update.UpdateEbayBuyer.setParameters">
<polygon fill="white" stroke="black" points="163.5,-400 163.5,-430 433.5,-430 433.5,-400 163.5,-400"/>
<text text-anchor="start" x="171.5" y="-418" font-family="Helvetica,sans-Serif" font-size="10.00">com.tomoparts.tomoBay.model.sql.queries.concrete</text>
<text text-anchor="middle" x="298.5" y="-407" font-family="Helvetica,sans-Serif" font-size="10.00">Queries.update.UpdateEbayBuyer.setParameters</text>
</a>
</g>
</g>
<!-- Node1&#45;&gt;Node17 -->
<g id="edge20" class="edge"><title>Node1&#45;&gt;Node17</title>
<path fill="none" stroke="midnightblue" d="M79.258,-472.858C96.8886,-462.073 122.085,-448.105 146,-440 157.488,-436.107 169.677,-432.808 181.957,-430.015"/>
<polygon fill="midnightblue" stroke="midnightblue" points="76.9183,-470.193 70.2978,-478.465 80.6316,-476.127 76.9183,-470.193"/>
</g>
<!-- Node18 -->
<g id="node18" class="node"><title>Node18</title>
<g id="a_node18"><a xlink:href="classcom_1_1tomoparts_1_1tomoBay_1_1model_1_1sql_1_1queries_1_1concreteQueries_1_1insert_1_1InsertEbayBuyers.html#af9020b85517904668d036bc2bf89433c" target="_top" xlink:title="com.tomoparts.tomoBay.model.sql.queries.concrete\lQueries.insert.InsertEbayBuyers.setParameters">
<polygon fill="white" stroke="black" points="163.5,-351 163.5,-381 433.5,-381 433.5,-351 163.5,-351"/>
<text text-anchor="start" x="171.5" y="-369" font-family="Helvetica,sans-Serif" font-size="10.00">com.tomoparts.tomoBay.model.sql.queries.concrete</text>
<text text-anchor="middle" x="298.5" y="-358" font-family="Helvetica,sans-Serif" font-size="10.00">Queries.insert.InsertEbayBuyers.setParameters</text>
</a>
</g>
</g>
<!-- Node1&#45;&gt;Node18 -->
<g id="edge22" class="edge"><title>Node1&#45;&gt;Node18</title>
<path fill="none" stroke="midnightblue" d="M67.3708,-469.712C82.4074,-447.226 111.12,-409.747 146,-391 153.162,-387.151 160.767,-383.864 168.61,-381.06"/>
<polygon fill="midnightblue" stroke="midnightblue" points="64.2859,-468.037 61.7858,-478.332 70.1606,-471.843 64.2859,-468.037"/>
</g>
<!-- Node19 -->
<g id="node19" class="node"><title>Node19</title>
<g id="a_node19"><a xlink:href="classcom_1_1tomoparts_1_1tomoBay_1_1model_1_1sql_1_1queries_1_1concreteQueries_1_1select_1_1params_1_1SelectEbayOrderByBuyer.html#af9020b85517904668d036bc2bf89433c" target="_top" xlink:title="com.tomoparts.tomoBay.model.sql.queries.concrete\lQueries.select.params.SelectEbayOrderByBuyer.set\lParameters">
<polygon fill="white" stroke="black" points="163.5,-290.5 163.5,-331.5 433.5,-331.5 433.5,-290.5 163.5,-290.5"/>
<text text-anchor="start" x="171.5" y="-319.5" font-family="Helvetica,sans-Serif" font-size="10.00">com.tomoparts.tomoBay.model.sql.queries.concrete</text>
<text text-anchor="start" x="171.5" y="-308.5" font-family="Helvetica,sans-Serif" font-size="10.00">Queries.select.params.SelectEbayOrderByBuyer.set</text>
<text text-anchor="middle" x="298.5" y="-297.5" font-family="Helvetica,sans-Serif" font-size="10.00">Parameters</text>
</a>
</g>
</g>
<!-- Node1&#45;&gt;Node19 -->
<g id="edge23" class="edge"><title>Node1&#45;&gt;Node19</title>
<path fill="none" stroke="midnightblue" d="M62.1668,-468.787C73.4129,-437.017 100.395,-373.882 146,-342 151.611,-338.078 157.607,-334.629 163.856,-331.599"/>
<polygon fill="midnightblue" stroke="midnightblue" points="58.8484,-467.675 58.952,-478.269 65.4777,-469.922 58.8484,-467.675"/>
</g>
<!-- Node20 -->
<g id="node20" class="node"><title>Node20</title>
<g id="a_node20"><a xlink:href="classcom_1_1tomoparts_1_1tomoBay_1_1model_1_1sql_1_1queries_1_1concreteQueries_1_1select_1_1params_1_1SelectTransactionByOrder.html#af9020b85517904668d036bc2bf89433c" target="_top" xlink:title="com.tomoparts.tomoBay.model.sql.queries.concrete\lQueries.select.params.SelectTransactionByOrder.set\lParameters">
<polygon fill="white" stroke="black" points="163.5,-230.5 163.5,-271.5 433.5,-271.5 433.5,-230.5 163.5,-230.5"/>
<text text-anchor="start" x="171.5" y="-259.5" font-family="Helvetica,sans-Serif" font-size="10.00">com.tomoparts.tomoBay.model.sql.queries.concrete</text>
<text text-anchor="start" x="171.5" y="-248.5" font-family="Helvetica,sans-Serif" font-size="10.00">Queries.select.params.SelectTransactionByOrder.set</text>
<text text-anchor="middle" x="298.5" y="-237.5" font-family="Helvetica,sans-Serif" font-size="10.00">Parameters</text>
</a>
</g>
</g>
<!-- Node1&#45;&gt;Node20 -->
<g id="edge24" class="edge"><title>Node1&#45;&gt;Node20</title>
<path fill="none" stroke="midnightblue" d="M58.4743,-468.345C64.8105,-426.745 85.6168,-329.638 146,-281 151.325,-276.711 157.092,-272.979 163.16,-269.735"/>
<polygon fill="midnightblue" stroke="midnightblue" points="55,-467.918 57.0771,-478.307 61.9322,-468.89 55,-467.918"/>
</g>
<!-- Node21 -->
<g id="node21" class="node"><title>Node21</title>
<g id="a_node21"><a xlink:href="classcom_1_1tomoparts_1_1tomoBay_1_1model_1_1sql_1_1queries_1_1concreteQueries_1_1select_1_1para6f75a6d09fd903571426df29e6112491.html#af9020b85517904668d036bc2bf89433c" target="_top" xlink:title="com.tomoparts.tomoBay.model.sql.queries.concrete\lQueries.select.params.SelectBrandAndPartNoBy\lOrderID.setParameters">
<polygon fill="white" stroke="black" points="163.5,-170.5 163.5,-211.5 433.5,-211.5 433.5,-170.5 163.5,-170.5"/>
<text text-anchor="start" x="171.5" y="-199.5" font-family="Helvetica,sans-Serif" font-size="10.00">com.tomoparts.tomoBay.model.sql.queries.concrete</text>
<text text-anchor="start" x="171.5" y="-188.5" font-family="Helvetica,sans-Serif" font-size="10.00">Queries.select.params.SelectBrandAndPartNoBy</text>
<text text-anchor="middle" x="298.5" y="-177.5" font-family="Helvetica,sans-Serif" font-size="10.00">OrderID.setParameters</text>
</a>
</g>
</g>
<!-- Node1&#45;&gt;Node21 -->
<g id="edge25" class="edge"><title>Node1&#45;&gt;Node21</title>
<path fill="none" stroke="midnightblue" d="M56.32,-468.331C58.2609,-418.615 70.6373,-287.176 146,-221 151.339,-216.312 157.196,-212.273 163.407,-208.798"/>
<polygon fill="midnightblue" stroke="midnightblue" points="52.8197,-468.296 56.0316,-478.392 59.8168,-468.497 52.8197,-468.296"/>
</g>
<!-- Node22 -->
<g id="node22" class="node"><title>Node22</title>
<g id="a_node22"><a xlink:href="classcom_1_1tomoparts_1_1tomoBay_1_1model_1_1sql_1_1queries_1_1concreteQueries_1_1select_1_1params_1_1SelectEbayOrderByID.html#af9020b85517904668d036bc2bf89433c" target="_top" xlink:title="com.tomoparts.tomoBay.model.sql.queries.concrete\lQueries.select.params.SelectEbayOrderByID.set\lParameters">
<polygon fill="white" stroke="black" points="163.5,-110.5 163.5,-151.5 433.5,-151.5 433.5,-110.5 163.5,-110.5"/>
<text text-anchor="start" x="171.5" y="-139.5" font-family="Helvetica,sans-Serif" font-size="10.00">com.tomoparts.tomoBay.model.sql.queries.concrete</text>
<text text-anchor="start" x="171.5" y="-128.5" font-family="Helvetica,sans-Serif" font-size="10.00">Queries.select.params.SelectEbayOrderByID.set</text>
<text text-anchor="middle" x="298.5" y="-117.5" font-family="Helvetica,sans-Serif" font-size="10.00">Parameters</text>
</a>
</g>
</g>
<!-- Node1&#45;&gt;Node22 -->
<g id="edge26" class="edge"><title>Node1&#45;&gt;Node22</title>
<path fill="none" stroke="midnightblue" d="M58.6673,-468.497C67.7835,-404.727 99.7194,-204.016 146,-161 151.303,-156.071 157.172,-151.849 163.43,-148.238"/>
<polygon fill="midnightblue" stroke="midnightblue" points="55.1958,-468.05 57.2739,-478.439 62.1281,-469.022 55.1958,-468.05"/>
</g>
<!-- Node23 -->
<g id="node23" class="node"><title>Node23</title>
<g id="a_node23"><a xlink:href="classcom_1_1tomoparts_1_1tomoBay_1_1model_1_1sql_1_1queries_1_1concreteQueries_1_1select_1_1params_1_1SelectEbayBuyer.html#af9020b85517904668d036bc2bf89433c" target="_top" xlink:title="com.tomoparts.tomoBay.model.sql.queries.concrete\lQueries.select.params.SelectEbayBuyer.setParameters">
<polygon fill="white" stroke="black" points="157,-61 157,-91 440,-91 440,-61 157,-61"/>
<text text-anchor="start" x="165" y="-79" font-family="Helvetica,sans-Serif" font-size="10.00">com.tomoparts.tomoBay.model.sql.queries.concrete</text>
<text text-anchor="middle" x="298.5" y="-68" font-family="Helvetica,sans-Serif" font-size="10.00">Queries.select.params.SelectEbayBuyer.setParameters</text>
</a>
</g>
</g>
<!-- Node1&#45;&gt;Node23 -->
<g id="edge27" class="edge"><title>Node1&#45;&gt;Node23</title>
<path fill="none" stroke="midnightblue" d="M57.7481,-468.197C64.4855,-396.553 91.1741,-152.376 146,-101 149.988,-97.2633 154.308,-93.9647 158.883,-91.0581"/>
<polygon fill="midnightblue" stroke="midnightblue" points="54.2625,-467.88 56.8368,-478.158 61.2334,-468.518 54.2625,-467.88"/>
</g>
<!-- Node24 -->
<g id="node24" class="node"><title>Node24</title>
<g id="a_node24"><a xlink:href="classcom_1_1tomoparts_1_1tomoBay_1_1model_1_1sql_1_1queries_1_1concreteQueries_1_1select_1_1params_1_1SelectFullOrderLine.html#af9020b85517904668d036bc2bf89433c" target="_top" xlink:title="com.tomoparts.tomoBay.model.sql.queries.concrete\lQueries.select.params.SelectFullOrderLine.set\lParameters">
<polygon fill="white" stroke="black" points="163.5,-0.5 163.5,-41.5 433.5,-41.5 433.5,-0.5 163.5,-0.5"/>
<text text-anchor="start" x="171.5" y="-29.5" font-family="Helvetica,sans-Serif" font-size="10.00">com.tomoparts.tomoBay.model.sql.queries.concrete</text>
<text text-anchor="start" x="171.5" y="-18.5" font-family="Helvetica,sans-Serif" font-size="10.00">Queries.select.params.SelectFullOrderLine.set</text>
<text text-anchor="middle" x="298.5" y="-7.5" font-family="Helvetica,sans-Serif" font-size="10.00">Parameters</text>
</a>
</g>
</g>
<!-- Node1&#45;&gt;Node24 -->
<g id="edge28" class="edge"><title>Node1&#45;&gt;Node24</title>
<path fill="none" stroke="midnightblue" d="M57.2367,-468.273C62.482,-391.115 85.467,-111.074 146,-51 151.234,-45.806 157.091,-41.3818 163.378,-37.6218"/>
<polygon fill="midnightblue" stroke="midnightblue" points="53.7284,-468.286 56.5665,-478.494 60.7134,-468.744 53.7284,-468.286"/>
</g>
<!-- Node3 -->
<g id="node3" class="node"><title>Node3</title>
<g id="a_node3"><a xlink:href="classcom_1_1tomoparts_1_1tomoBay_1_1model_1_1sql_1_1framework_1_1QueryUtility.html#a2da2ce60a8a037d55bdc69309db4815b" target="_top" xlink:title="private ctor ensures that this class is never instantiated ">
<polygon fill="white" stroke="black" points="594.5,-1019.5 594.5,-1038.5 666.5,-1038.5 666.5,-1019.5 594.5,-1019.5"/>
<text text-anchor="middle" x="630.5" y="-1026.5" font-family="Helvetica,sans-Serif" font-size="10.00">QueryUtility</text>
</a>
</g>
</g>
<!-- Node2&#45;&gt;Node3 -->
<g id="edge2" class="edge"><title>Node2&#45;&gt;Node3</title>
<path fill="none" stroke="midnightblue" d="M321.594,-841.633C352.726,-864.33 410.249,-908.771 451,-955 470.319,-976.916 462.277,-994.434 487,-1010 519.21,-1030.28 563.612,-1033.14 594.251,-1032.14"/>
<polygon fill="midnightblue" stroke="midnightblue" points="323.344,-838.58 313.187,-835.567 319.248,-844.257 323.344,-838.58"/>
</g>
<!-- Node4 -->
<g id="node4" class="node"><title>Node4</title>
<g id="a_node4"><a xlink:href="classcom_1_1tomoparts_1_1tomoBay_1_1model_1_1sql_1_1queries_1_1concreteQueries_1_1update_1_1UpdateInvoiceStatusSRN.html#af9020b85517904668d036bc2bf89433c" target="_top" xlink:title="com.tomoparts.tomoBay.model.sql.queries.concrete\lQueries.update.UpdateInvoiceStatusSRN.setParameters">
<polygon fill="white" stroke="black" points="487,-970 487,-1000 774,-1000 774,-970 487,-970"/>
<text text-anchor="start" x="495" y="-988" font-family="Helvetica,sans-Serif" font-size="10.00">com.tomoparts.tomoBay.model.sql.queries.concrete</text>
<text text-anchor="middle" x="630.5" y="-977" font-family="Helvetica,sans-Serif" font-size="10.00">Queries.update.UpdateInvoiceStatusSRN.setParameters</text>
</a>
</g>
</g>
<!-- Node2&#45;&gt;Node4 -->
<g id="edge3" class="edge"><title>Node2&#45;&gt;Node4</title>
<path fill="none" stroke="midnightblue" d="M316.88,-842.853C348.107,-872.067 417.002,-931.781 487,-961 495.335,-964.479 504.143,-967.454 513.128,-969.999"/>
<polygon fill="midnightblue" stroke="midnightblue" points="319.102,-840.136 309.437,-835.795 314.285,-845.216 319.102,-840.136"/>
</g>
<!-- Node2&#45;&gt;Node5 -->
<g id="edge4" class="edge"><title>Node2&#45;&gt;Node5</title>
<path fill="none" stroke="midnightblue" d="M324.093,-841.243C357.119,-862.843 415.72,-905.308 451,-955 476.658,-991.14 452.748,-1019.87 487,-1048 491.561,-1051.75 496.486,-1055.02 501.669,-1057.86"/>
<polygon fill="midnightblue" stroke="midnightblue" points="325.801,-838.18 315.497,-835.715 322.015,-844.068 325.801,-838.18"/>
</g>
<!-- Node6 -->
<g id="node6" class="node"><title>Node6</title>
<g id="a_node6"><a xlink:href="classcom_1_1tomoparts_1_1tomoBay_1_1model_1_1sql_1_1queries_1_1concreteQueries_1_1insert_1_1InsertOutOfHoursOrders.html#af9020b85517904668d036bc2bf89433c" target="_top" xlink:title="com.tomoparts.tomoBay.model.sql.queries.concrete\lQueries.insert.InsertOutOfHoursOrders.setParameters">
<polygon fill="white" stroke="black" points="492.5,-921 492.5,-951 768.5,-951 768.5,-921 492.5,-921"/>
<text text-anchor="start" x="500.5" y="-939" font-family="Helvetica,sans-Serif" font-size="10.00">com.tomoparts.tomoBay.model.sql.queries.concrete</text>
<text text-anchor="middle" x="630.5" y="-928" font-family="Helvetica,sans-Serif" font-size="10.00">Queries.insert.InsertOutOfHoursOrders.setParameters</text>
</a>
</g>
</g>
<!-- Node2&#45;&gt;Node6 -->
<g id="edge5" class="edge"><title>Node2&#45;&gt;Node6</title>
<path fill="none" stroke="midnightblue" d="M325.961,-840.585C361.532,-859.58 427.226,-892.533 487,-911 499.359,-914.818 512.513,-918.112 525.641,-920.938"/>
<polygon fill="midnightblue" stroke="midnightblue" points="327.219,-837.287 316.756,-835.621 323.897,-843.448 327.219,-837.287"/>
</g>
<!-- Node7 -->
<g id="node7" class="node"><title>Node7</title>
<g id="a_node7"><a xlink:href="classcom_1_1tomoparts_1_1tomoBay_1_1model_1_1sql_1_1queries_1_1concreteQueries_1_1select_1_1parac0d31fe89450040cf1dcb1e02765c08b.html#af9020b85517904668d036bc2bf89433c" target="_top" xlink:title="com.tomoparts.tomoBay.model.sql.queries.concrete\lQueries.select.params.SelectEbayOrderHistory\lLastNDays.setParameters">
<polygon fill="white" stroke="black" points="495.5,-860.5 495.5,-901.5 765.5,-901.5 765.5,-860.5 495.5,-860.5"/>
<text text-anchor="start" x="503.5" y="-889.5" font-family="Helvetica,sans-Serif" font-size="10.00">com.tomoparts.tomoBay.model.sql.queries.concrete</text>
<text text-anchor="start" x="503.5" y="-878.5" font-family="Helvetica,sans-Serif" font-size="10.00">Queries.select.params.SelectEbayOrderHistory</text>
<text text-anchor="middle" x="630.5" y="-867.5" font-family="Helvetica,sans-Serif" font-size="10.00">LastNDays.setParameters</text>
</a>
</g>
</g>
<!-- Node2&#45;&gt;Node7 -->
<g id="edge6" class="edge"><title>Node2&#45;&gt;Node7</title>
<path fill="none" stroke="midnightblue" d="M360.77,-836.212C401.634,-843.022 456.778,-852.213 506.479,-860.496"/>
<polygon fill="midnightblue" stroke="midnightblue" points="361.14,-832.725 350.7,-834.533 359.989,-839.63 361.14,-832.725"/>
</g>
<!-- Node2&#45;&gt;Node8 -->
<g id="edge7" class="edge"><title>Node2&#45;&gt;Node8</title>
<path fill="none" stroke="midnightblue" d="M360.719,-816.91C407.67,-809.938 473.495,-800.164 528.251,-792.034"/>
<polygon fill="midnightblue" stroke="midnightblue" points="360.078,-813.467 350.7,-818.398 361.106,-820.391 360.078,-813.467"/>
</g>
<!-- Node2&#45;&gt;Node9 -->
<g id="edge8" class="edge"><title>Node2&#45;&gt;Node9</title>
<path fill="none" stroke="midnightblue" d="M329.685,-812.104C366.221,-795.789 429.955,-768.94 487,-753 500.547,-749.215 514.986,-745.889 529.278,-743.003"/>
<polygon fill="midnightblue" stroke="midnightblue" points="327.809,-809.11 320.129,-816.408 330.684,-815.492 327.809,-809.11"/>
</g>
<!-- Node2&#45;&gt;Node10 -->
<g id="edge9" class="edge"><title>Node2&#45;&gt;Node10</title>
<path fill="none" stroke="midnightblue" d="M318.634,-809.711C351.009,-783.078 419.666,-730.525 487,-704 496.815,-700.134 507.245,-696.863 517.825,-694.097"/>
<polygon fill="midnightblue" stroke="midnightblue" points="316.295,-807.104 310.85,-816.193 320.774,-812.483 316.295,-807.104"/>
</g>
<!-- Node2&#45;&gt;Node11 -->
<g id="edge10" class="edge"><title>Node2&#45;&gt;Node11</title>
<path fill="none" stroke="midnightblue" d="M313.172,-808.452C341.525,-773.36 410.5,-694.517 487,-655 494.648,-651.049 502.778,-647.601 511.127,-644.592"/>
<polygon fill="midnightblue" stroke="midnightblue" points="310.35,-806.378 306.859,-816.381 315.826,-810.738 310.35,-806.378"/>
</g>
<!-- Node12 -->
<g id="node12" class="node"><title>Node12</title>
<g id="a_node12"><a xlink:href="classcom_1_1tomoparts_1_1tomoBay_1_1model_1_1sql_1_1queries_1_1concreteQueries_1_1select_1_1params_1_1SelectBrandByInv.html#af9020b85517904668d036bc2bf89433c" target="_top" xlink:title="com.tomoparts.tomoBay.model.sql.queries.concrete\lQueries.select.params.SelectBrandByInv.setParameters">
<polygon fill="white" stroke="black" points="487.5,-811 487.5,-841 773.5,-841 773.5,-811 487.5,-811"/>
<text text-anchor="start" x="495.5" y="-829" font-family="Helvetica,sans-Serif" font-size="10.00">com.tomoparts.tomoBay.model.sql.queries.concrete</text>
<text text-anchor="middle" x="630.5" y="-818" font-family="Helvetica,sans-Serif" font-size="10.00">Queries.select.params.SelectBrandByInv.setParameters</text>
</a>
</g>
</g>
<!-- Node2&#45;&gt;Node12 -->
<g id="edge11" class="edge"><title>Node2&#45;&gt;Node12</title>
<path fill="none" stroke="midnightblue" d="M360.923,-826C396.552,-826 442.999,-826 487.226,-826"/>
<polygon fill="midnightblue" stroke="midnightblue" points="360.7,-822.5 350.7,-826 360.7,-829.5 360.7,-822.5"/>
</g>
</g>
</svg>
