<?xml version="1.0" encoding="UTF-8" standalone="no"?>
<!DOCTYPE svg PUBLIC "-//W3C//DTD SVG 1.1//EN"
 "http://www.w3.org/Graphics/SVG/1.1/DTD/svg11.dtd">
<!-- Generated by graphviz version 2.38.0 (20140413.2041)
 -->
<!-- Title: Transaction Pages: 1 -->
<!--zoomable 860 -->
<svg id="main" version="1.1" xmlns="http://www.w3.org/2000/svg" xmlns:xlink="http://www.w3.org/1999/xlink" xml:space="preserve" onload="init(evt)">
<style type="text/css"><![CDATA[
.edge:hover path { stroke: red; }
.edge:hover polygon { stroke: red; fill: red; }
]]></style>
<script type="text/javascript"><![CDATA[
var edges = document.getElementsByTagName('g');
if (edges && edges.length) {
  for (var i=0;i<edges.length;i++) {
    if (edges[i].id.substr(0,4)=='edge') {
      edges[i].setAttribute('class','edge');
    }
  }
}
]]></script>
        <defs>
                <circle id="rim" cx="0" cy="0" r="7"/>
                <circle id="rim2" cx="0" cy="0" r="3.5"/>
                <g id="zoomPlus">
                        <use xlink:href="#rim" fill="#404040">
                                <set attributeName="fill" to="#808080" begin="zoomplus.mouseover" end="zoomplus.mouseout"/>
                        </use>
                        <path d="M-4,0h8M0,-4v8" fill="none" stroke="white" stroke-width="1.5" pointer-events="none"/>
                </g>
                <g id="zoomMin">
                        <use xlink:href="#rim" fill="#404040">
                                <set attributeName="fill" to="#808080" begin="zoomminus.mouseover" end="zoomminus.mouseout"/>
                        </use>
                        <path d="M-4,0h8" fill="none" stroke="white" stroke-width="1.5" pointer-events="none"/>
                </g>
                <g id="dirArrow">
                        <path fill="none" stroke="white" stroke-width="1.5" d="M0,-3.0v7 M-2.5,-0.5L0,-3.0L2.5,-0.5"/>
                </g>
               <g id="resetDef">
                       <use xlink:href="#rim2" fill="#404040">
                               <set attributeName="fill" to="#808080" begin="reset.mouseover" end="reset.mouseout"/>
                       </use>
               </g>
        </defs>

<script type="text/javascript">
var viewWidth = 637;
var viewHeight = 860;
var sectionId = 'dynsection-0';
</script>
<script xlink:href="svgpan.js"/>
<svg id="graph" class="graph">
<g id="viewport">
<title>Transaction</title>
<polygon fill="white" stroke="none" points="-4,4 -4,-856 632.5,-856 632.5,4 -4,4"/>
<!-- Node1 -->
<g id="node1" class="node"><title>Node1</title>
<polygon fill="#bfbfbf" stroke="black" points="395.5,-0.5 395.5,-112.5 514.5,-112.5 514.5,-0.5 395.5,-0.5"/>
<text text-anchor="middle" x="455" y="-100.5" font-family="Helvetica,sans-Serif" font-size="10.00">Transaction</text>
<polyline fill="none" stroke="black" points="395.5,-93.5 514.5,-93.5 "/>
<text text-anchor="middle" x="455" y="-81.5" font-family="Helvetica,sans-Serif" font-size="10.00"> </text>
<polyline fill="none" stroke="black" points="395.5,-74.5 514.5,-74.5 "/>
<text text-anchor="start" x="403.5" y="-62.5" font-family="Helvetica,sans-Serif" font-size="10.00">+ Transaction()</text>
<text text-anchor="start" x="403.5" y="-51.5" font-family="Helvetica,sans-Serif" font-size="10.00">+ listing()</text>
<text text-anchor="start" x="403.5" y="-40.5" font-family="Helvetica,sans-Serif" font-size="10.00">+ qtyPurchased()</text>
<text text-anchor="start" x="403.5" y="-29.5" font-family="Helvetica,sans-Serif" font-size="10.00">+ transactionPrice()</text>
<text text-anchor="start" x="403.5" y="-18.5" font-family="Helvetica,sans-Serif" font-size="10.00">+ shippingCost()</text>
<text text-anchor="start" x="403.5" y="-7.5" font-family="Helvetica,sans-Serif" font-size="10.00">&#45; getTransactionInfo()</text>
</g>
<!-- Node2 -->
<g id="node2" class="node"><title>Node2</title>
<g id="a_node2"><a xlink:href="classcom_1_1tomoparts_1_1tomoBay_1_1model_1_1dataTypes_1_1heteroTypeContainer_1_1HeteroFieldContainer.html" target="_top" xlink:title="This class represents a container of AbstractField types and a value associated with this field...">
<polygon fill="white" stroke="black" points="423.5,-375.5 423.5,-498.5 560.5,-498.5 560.5,-375.5 423.5,-375.5"/>
<text text-anchor="middle" x="492" y="-486.5" font-family="Helvetica,sans-Serif" font-size="10.00">HeteroFieldContainer</text>
<polyline fill="none" stroke="black" points="423.5,-479.5 560.5,-479.5 "/>
<text text-anchor="middle" x="492" y="-467.5" font-family="Helvetica,sans-Serif" font-size="10.00"> </text>
<polyline fill="none" stroke="black" points="423.5,-460.5 560.5,-460.5 "/>
<text text-anchor="start" x="431.5" y="-448.5" font-family="Helvetica,sans-Serif" font-size="10.00">+ HeteroFieldContainer()</text>
<text text-anchor="start" x="431.5" y="-437.5" font-family="Helvetica,sans-Serif" font-size="10.00">+ clear()</text>
<text text-anchor="start" x="431.5" y="-426.5" font-family="Helvetica,sans-Serif" font-size="10.00">+ size()</text>
<text text-anchor="start" x="431.5" y="-415.5" font-family="Helvetica,sans-Serif" font-size="10.00">+ finalize()</text>
<text text-anchor="start" x="431.5" y="-404.5" font-family="Helvetica,sans-Serif" font-size="10.00">~ add()</text>
<text text-anchor="start" x="431.5" y="-393.5" font-family="Helvetica,sans-Serif" font-size="10.00">~ get()</text>
<text text-anchor="start" x="431.5" y="-382.5" font-family="Helvetica,sans-Serif" font-size="10.00">&#45; isSameType()</text>
</a>
</g>
</g>
<!-- Node2&#45;&gt;Node1 -->
<g id="edge1" class="edge"><title>Node2&#45;&gt;Node1</title>
<path fill="none" stroke="#404040" d="M493.778,-375.312C494.528,-313.397 492.777,-214.783 478,-131 477.616,-128.823 477.186,-126.621 476.717,-124.406"/>
<polygon fill="none" stroke="#404040" points="476.663,-124.179 471.382,-119.269 473.883,-112.506 479.164,-117.416 476.663,-124.179"/>
<text text-anchor="middle" x="542.5" y="-236" font-family="Helvetica,sans-Serif" font-size="10.00"> &#45;transaction_info_M</text>
</g>
<!-- Node4 -->
<g id="node4" class="node"><title>Node4</title>
<g id="a_node4"><a xlink:href="classcom_1_1tomoparts_1_1tomoBay_1_1model_1_1dataTypes_1_1order_1_1Listing.html" target="_top" xlink:title="This class represents an eBay Listing and once instantiated, contains all the information pertinent t...">
<polygon fill="white" stroke="black" points="360.5,-160.5 360.5,-316.5 455.5,-316.5 455.5,-160.5 360.5,-160.5"/>
<text text-anchor="middle" x="408" y="-304.5" font-family="Helvetica,sans-Serif" font-size="10.00">Listing</text>
<polyline fill="none" stroke="black" points="360.5,-297.5 455.5,-297.5 "/>
<text text-anchor="start" x="368.5" y="-285.5" font-family="Helvetica,sans-Serif" font-size="10.00">&#45; partQtys_M</text>
<polyline fill="none" stroke="black" points="360.5,-278.5 455.5,-278.5 "/>
<text text-anchor="start" x="368.5" y="-266.5" font-family="Helvetica,sans-Serif" font-size="10.00">+ Listing()</text>
<text text-anchor="start" x="368.5" y="-255.5" font-family="Helvetica,sans-Serif" font-size="10.00">+ listingID()</text>
<text text-anchor="start" x="368.5" y="-244.5" font-family="Helvetica,sans-Serif" font-size="10.00">+ title()</text>
<text text-anchor="start" x="368.5" y="-233.5" font-family="Helvetica,sans-Serif" font-size="10.00">+ brand()</text>
<text text-anchor="start" x="368.5" y="-222.5" font-family="Helvetica,sans-Serif" font-size="10.00">+ noOfParts()</text>
<text text-anchor="start" x="368.5" y="-211.5" font-family="Helvetica,sans-Serif" font-size="10.00">+ partNos()</text>
<text text-anchor="start" x="368.5" y="-200.5" font-family="Helvetica,sans-Serif" font-size="10.00">+ part()</text>
<text text-anchor="start" x="368.5" y="-189.5" font-family="Helvetica,sans-Serif" font-size="10.00">+ qty()</text>
<text text-anchor="start" x="368.5" y="-178.5" font-family="Helvetica,sans-Serif" font-size="10.00">+ listingCost()</text>
<text text-anchor="start" x="368.5" y="-167.5" font-family="Helvetica,sans-Serif" font-size="10.00">&#45; getListingInfo()</text>
</a>
</g>
</g>
<!-- Node2&#45;&gt;Node4 -->
<g id="edge4" class="edge"><title>Node2&#45;&gt;Node4</title>
<path fill="none" stroke="#404040" d="M425.831,-375.47C419.025,-366.279 413.11,-356.375 409,-346 406.837,-340.539 405.195,-334.794 403.979,-328.919"/>
<polygon fill="none" stroke="#404040" points="403.925,-328.579 399.036,-323.278 402.048,-316.726 406.937,-322.027 403.925,-328.579"/>
<text text-anchor="middle" x="443.5" y="-338" font-family="Helvetica,sans-Serif" font-size="10.00"> &#45;ListingInfo_M</text>
</g>
<!-- Node3 -->
<g id="node3" class="node"><title>Node3</title>
<polygon fill="white" stroke="#bfbfbf" points="401.5,-596 401.5,-675 628.5,-675 628.5,-596 401.5,-596"/>
<text text-anchor="start" x="409.5" y="-663" font-family="Helvetica,sans-Serif" font-size="10.00">Map&lt; String, Map&lt; com.tomoparts.tomo</text>
<text text-anchor="start" x="409.5" y="-652" font-family="Helvetica,sans-Serif" font-size="10.00">Bay.model.dataTypes.heteroTypeContainer.</text>
<text text-anchor="middle" x="515" y="-641" font-family="Helvetica,sans-Serif" font-size="10.00">AbstractField, Object &gt; &gt;</text>
<polyline fill="none" stroke="#bfbfbf" points="401.5,-634 628.5,-634 "/>
<text text-anchor="middle" x="515" y="-622" font-family="Helvetica,sans-Serif" font-size="10.00"> </text>
<polyline fill="none" stroke="#bfbfbf" points="401.5,-615 628.5,-615 "/>
<text text-anchor="middle" x="515" y="-603" font-family="Helvetica,sans-Serif" font-size="10.00"> </text>
</g>
<!-- Node3&#45;&gt;Node2 -->
<g id="edge2" class="edge"><title>Node3&#45;&gt;Node2</title>
<path fill="none" stroke="#404040" d="M510.456,-595.678C507.627,-571.505 503.897,-539.644 500.532,-510.893"/>
<polygon fill="none" stroke="#404040" points="500.511,-510.711 495.84,-505.217 499.116,-498.792 503.786,-504.287 500.511,-510.711"/>
<text text-anchor="middle" x="534.5" y="-531" font-family="Helvetica,sans-Serif" font-size="10.00"> &#45;fieldMap_M</text>
</g>
<!-- Node4&#45;&gt;Node1 -->
<g id="edge3" class="edge"><title>Node4&#45;&gt;Node1</title>
<path fill="none" stroke="#404040" d="M421.821,-160.403C424.008,-150.458 426.411,-140.452 429,-131 429.617,-128.748 430.269,-126.466 430.948,-124.168"/>
<polygon fill="none" stroke="#404040" points="430.978,-124.071 428.937,-117.154 434.537,-112.611 436.577,-119.527 430.978,-124.071"/>
<text text-anchor="middle" x="453.5" y="-134" font-family="Helvetica,sans-Serif" font-size="10.00"> &#45;listing_M</text>
</g>
<!-- Node5 -->
<g id="node5" class="node"><title>Node5</title>
<g id="a_node5"><a xlink:href="classcom_1_1tomoparts_1_1tomoBay_1_1model_1_1dataTypes_1_1order_1_1Part.html" target="_top" xlink:title="{Part\n|&#45; cost_M\l&#45; BADCHAR\l|+ Part()\l+ partNo()\l+ brand()\l+ description()\l+ cost()\l&#45; getCost()\l&#45; getDescription()\l&#45; badChar()\l}">
<polygon fill="white" stroke="black" points="219.5,-364.5 219.5,-509.5 320.5,-509.5 320.5,-364.5 219.5,-364.5"/>
<text text-anchor="middle" x="270" y="-497.5" font-family="Helvetica,sans-Serif" font-size="10.00">Part</text>
<polyline fill="none" stroke="black" points="219.5,-490.5 320.5,-490.5 "/>
<text text-anchor="start" x="227.5" y="-478.5" font-family="Helvetica,sans-Serif" font-size="10.00">&#45; cost_M</text>
<text text-anchor="start" x="227.5" y="-467.5" font-family="Helvetica,sans-Serif" font-size="10.00">&#45; BADCHAR</text>
<polyline fill="none" stroke="black" points="219.5,-460.5 320.5,-460.5 "/>
<text text-anchor="start" x="227.5" y="-448.5" font-family="Helvetica,sans-Serif" font-size="10.00">+ Part()</text>
<text text-anchor="start" x="227.5" y="-437.5" font-family="Helvetica,sans-Serif" font-size="10.00">+ partNo()</text>
<text text-anchor="start" x="227.5" y="-426.5" font-family="Helvetica,sans-Serif" font-size="10.00">+ brand()</text>
<text text-anchor="start" x="227.5" y="-415.5" font-family="Helvetica,sans-Serif" font-size="10.00">+ description()</text>
<text text-anchor="start" x="227.5" y="-404.5" font-family="Helvetica,sans-Serif" font-size="10.00">+ cost()</text>
<text text-anchor="start" x="227.5" y="-393.5" font-family="Helvetica,sans-Serif" font-size="10.00">&#45; getCost()</text>
<text text-anchor="start" x="227.5" y="-382.5" font-family="Helvetica,sans-Serif" font-size="10.00">&#45; getDescription()</text>
<text text-anchor="start" x="227.5" y="-371.5" font-family="Helvetica,sans-Serif" font-size="10.00">&#45; badChar()</text>
</a>
</g>
</g>
<!-- Node5&#45;&gt;Node4 -->
<g id="edge5" class="edge"><title>Node5&#45;&gt;Node4</title>
<path fill="none" stroke="#404040" d="M320.407,-364.225C331.144,-348.936 342.531,-332.723 353.416,-317.223"/>
<polygon fill="none" stroke="#404040" points="353.588,-316.978 353.763,-309.769 360.485,-307.157 360.31,-314.366 353.588,-316.978"/>
<text text-anchor="middle" x="362" y="-338" font-family="Helvetica,sans-Serif" font-size="10.00"> &#45;parts_M</text>
</g>
<!-- Node6 -->
<g id="node6" class="node"><title>Node6</title>
<g id="a_node6"><a xlink:href="classcom_1_1tomoparts_1_1tomoBay_1_1model_1_1winstock_1_1Stock.html" target="_top" xlink:title="This class is responsible for querying winstock for information. ">
<polygon fill="white" stroke="black" points="1.5,-557.5 1.5,-713.5 138.5,-713.5 138.5,-557.5 1.5,-557.5"/>
<text text-anchor="middle" x="70" y="-701.5" font-family="Helvetica,sans-Serif" font-size="10.00">Stock</text>
<polyline fill="none" stroke="black" points="1.5,-694.5 138.5,-694.5 "/>
<text text-anchor="start" x="9.5" y="-682.5" font-family="Helvetica,sans-Serif" font-size="10.00">+ ERROR</text>
<text text-anchor="start" x="9.5" y="-671.5" font-family="Helvetica,sans-Serif" font-size="10.00">&#45; HTTP_HEADER</text>
<text text-anchor="start" x="9.5" y="-660.5" font-family="Helvetica,sans-Serif" font-size="10.00">&#45; URL_PT1_M</text>
<text text-anchor="start" x="9.5" y="-649.5" font-family="Helvetica,sans-Serif" font-size="10.00">&#45; URL_PT2_M</text>
<polyline fill="none" stroke="black" points="1.5,-642.5 138.5,-642.5 "/>
<text text-anchor="start" x="9.5" y="-630.5" font-family="Helvetica,sans-Serif" font-size="10.00">+ Stock()</text>
<text text-anchor="start" x="9.5" y="-619.5" font-family="Helvetica,sans-Serif" font-size="10.00">+ requestStockLevel()</text>
<text text-anchor="start" x="9.5" y="-608.5" font-family="Helvetica,sans-Serif" font-size="10.00">+ requestDescription()</text>
<text text-anchor="start" x="9.5" y="-597.5" font-family="Helvetica,sans-Serif" font-size="10.00">+ requestLastCost()</text>
<text text-anchor="start" x="9.5" y="-586.5" font-family="Helvetica,sans-Serif" font-size="10.00">+ requestInvoiceWeight()</text>
<text text-anchor="start" x="9.5" y="-575.5" font-family="Helvetica,sans-Serif" font-size="10.00">&#45; queryWinstockURL()</text>
<text text-anchor="start" x="9.5" y="-564.5" font-family="Helvetica,sans-Serif" font-size="10.00">&#45; postFormatXMLString()</text>
</a>
</g>
</g>
<!-- Node6&#45;&gt;Node5 -->
<g id="edge6" class="edge"><title>Node6&#45;&gt;Node5</title>
<path fill="none" stroke="#404040" d="M138.78,-565.138C141.552,-562.386 144.3,-559.664 147,-557 167.541,-536.73 190.201,-514.711 210.415,-495.189"/>
<polygon fill="none" stroke="#404040" points="210.578,-495.032 212.118,-487.987 219.214,-486.699 217.673,-493.744 210.578,-495.032"/>
<text text-anchor="middle" x="204.5" y="-531" font-family="Helvetica,sans-Serif" font-size="10.00"> &#45;winstock_M</text>
</g>
<!-- Node7 -->
<g id="node7" class="node"><title>Node7</title>
<g id="a_node7"><a xlink:href="classcom_1_1tomoparts_1_1tomoBay_1_1model_1_1net_1_1HttpResponse.html" target="_top" xlink:title="Copyright(C) 2015 Jan P.C. ">
<polygon fill="white" stroke="black" points="0,-761.5 0,-851.5 140,-851.5 140,-761.5 0,-761.5"/>
<text text-anchor="middle" x="70" y="-839.5" font-family="Helvetica,sans-Serif" font-size="10.00">HttpResponse</text>
<polyline fill="none" stroke="black" points="0,-832.5 140,-832.5 "/>
<text text-anchor="start" x="8" y="-820.5" font-family="Helvetica,sans-Serif" font-size="10.00">&#45; responseCode_M</text>
<text text-anchor="start" x="8" y="-809.5" font-family="Helvetica,sans-Serif" font-size="10.00">&#45; responseMessage_M</text>
<polyline fill="none" stroke="black" points="0,-802.5 140,-802.5 "/>
<text text-anchor="start" x="8" y="-790.5" font-family="Helvetica,sans-Serif" font-size="10.00">+ HttpResponse()</text>
<text text-anchor="start" x="8" y="-779.5" font-family="Helvetica,sans-Serif" font-size="10.00">+ getResponseCode()</text>
<text text-anchor="start" x="8" y="-768.5" font-family="Helvetica,sans-Serif" font-size="10.00">+ getResponseMessage()</text>
</a>
</g>
</g>
<!-- Node7&#45;&gt;Node6 -->
<g id="edge7" class="edge"><title>Node7&#45;&gt;Node6</title>
<path fill="none" stroke="#404040" d="M70,-761.097C70,-750.168 70,-738.075 70,-725.845"/>
<polygon fill="none" stroke="#404040" points="70.0001,-725.609 66,-719.609 70,-713.609 74,-719.609 70.0001,-725.609"/>
<text text-anchor="middle" x="102.5" y="-735" font-family="Helvetica,sans-Serif" font-size="10.00"> &#45;response_M</text>
</g>
<!-- Node8 -->
<g id="node8" class="node"><title>Node8</title>
<polygon fill="white" stroke="#bfbfbf" points="156.5,-596 156.5,-675 383.5,-675 383.5,-596 156.5,-596"/>
<text text-anchor="start" x="164.5" y="-663" font-family="Helvetica,sans-Serif" font-size="10.00">Map&lt; com.tomoparts.tomoBay.model.data</text>
<text text-anchor="start" x="164.5" y="-652" font-family="Helvetica,sans-Serif" font-size="10.00">Types.order.Part.stringTypes,</text>
<text text-anchor="middle" x="270" y="-641" font-family="Helvetica,sans-Serif" font-size="10.00"> String &gt;</text>
<polyline fill="none" stroke="#bfbfbf" points="156.5,-634 383.5,-634 "/>
<text text-anchor="middle" x="270" y="-622" font-family="Helvetica,sans-Serif" font-size="10.00"> </text>
<polyline fill="none" stroke="#bfbfbf" points="156.5,-615 383.5,-615 "/>
<text text-anchor="middle" x="270" y="-603" font-family="Helvetica,sans-Serif" font-size="10.00"> </text>
</g>
<!-- Node8&#45;&gt;Node5 -->
<g id="edge8" class="edge"><title>Node8&#45;&gt;Node5</title>
<path fill="none" stroke="#404040" d="M270,-595.678C270,-574.532 270,-547.503 270,-521.82"/>
<polygon fill="none" stroke="#404040" points="270,-521.747 266,-515.747 270,-509.747 274,-515.747 270,-521.747"/>
<text text-anchor="middle" x="318.5" y="-531" font-family="Helvetica,sans-Serif" font-size="10.00"> &#45;stringProperties_M</text>
</g>
</g>
</svg>
        <g id="navigator" transform="translate(0 0)" fill="#404254">
                <rect fill="#f2f5e9" fill-opacity="0.5" stroke="#606060" stroke-width=".5" x="0" y="0" width="60" height="60"/>
                <use id="zoomplus" xlink:href="#zoomPlus" x="17" y="9" onmousedown="handleZoom(evt,'in')"/>
                <use id="zoomminus" xlink:href="#zoomMin" x="42" y="9" onmousedown="handleZoom(evt,'out')"/>
                <use id="reset" xlink:href="#resetDef" x="30" y="36" onmousedown="handleReset()"/>
                <g id="arrowUp" xlink:href="#dirArrow" transform="translate(30 24)" onmousedown="handlePan(0,-1)">
                  <use xlink:href="#rim" fill="#404040">
                        <set attributeName="fill" to="#808080" begin="arrowUp.mouseover" end="arrowUp.mouseout"/>
                  </use>
                  <path fill="none" stroke="white" stroke-width="1.5" d="M0,-3.0v7 M-2.5,-0.5L0,-3.0L2.5,-0.5"/>
                </g>
                <g id="arrowRight" xlink:href="#dirArrow" transform="rotate(90) translate(36 -43)" onmousedown="handlePan(1,0)">
                  <use xlink:href="#rim" fill="#404040">
                        <set attributeName="fill" to="#808080" begin="arrowRight.mouseover" end="arrowRight.mouseout"/>
                  </use>
                  <path fill="none" stroke="white" stroke-width="1.5" d="M0,-3.0v7 M-2.5,-0.5L0,-3.0L2.5,-0.5"/>
                </g>
                <g id="arrowDown" xlink:href="#dirArrow" transform="rotate(180) translate(-30 -48)" onmousedown="handlePan(0,1)">
                  <use xlink:href="#rim" fill="#404040">
                        <set attributeName="fill" to="#808080" begin="arrowDown.mouseover" end="arrowDown.mouseout"/>
                  </use>
                  <path fill="none" stroke="white" stroke-width="1.5" d="M0,-3.0v7 M-2.5,-0.5L0,-3.0L2.5,-0.5"/>
                </g>
                <g id="arrowLeft" xlink:href="#dirArrow" transform="rotate(270) translate(-36 17)" onmousedown="handlePan(-1,0)">
                  <use xlink:href="#rim" fill="#404040">
                        <set attributeName="fill" to="#808080" begin="arrowLeft.mouseover" end="arrowLeft.mouseout"/>
                  </use>
                  <path fill="none" stroke="white" stroke-width="1.5" d="M0,-3.0v7 M-2.5,-0.5L0,-3.0L2.5,-0.5"/>
                </g>
        </g>
        <svg viewBox="0 0 15 15" width="100%" height="30px" preserveAspectRatio="xMaxYMin meet">
         <g id="arrow_out" transform="scale(0.3 0.3)">
          <a xlink:href="classcom_1_1tomoparts_1_1tomoBay_1_1model_1_1dataTypes_1_1order_1_1Transaction__coll__graph_org.svg" target="_base">
           <rect id="button" ry="5" rx="5" y="6" x="6" height="38" width="38"
                fill="#f2f5e9" fill-opacity="0.5" stroke="#606060" stroke-width="1.0"/>
           <path id="arrow"
             d="M 11.500037,31.436501 C 11.940474,20.09759 22.043105,11.32322 32.158766,21.979434 L 37.068811,17.246167 C 37.068811,17.246167 37.088388,32 37.088388,32 L 22.160133,31.978069 C 22.160133,31.978069 26.997745,27.140456 26.997745,27.140456 C 18.528582,18.264221 13.291696,25.230495 11.500037,31.436501 z"
             style="fill:#404040;"/>
          </a>
         </g>
        </svg>
</svg>
