<?xml version="1.0" encoding="UTF-8" standalone="no"?>
<!DOCTYPE svg PUBLIC "-//W3C//DTD SVG 1.1//EN"
 "http://www.w3.org/Graphics/SVG/1.1/DTD/svg11.dtd">
<!-- Generated by graphviz version 2.38.0 (20140413.2041)
 -->
<!-- Title: calculateTotal Pages: 1 -->
<svg width="1053pt" height="406pt"
 viewBox="0.00 0.00 1053.00 405.50" xmlns="http://www.w3.org/2000/svg" xmlns:xlink="http://www.w3.org/1999/xlink">
<g id="graph0" class="graph" transform="scale(1 1) rotate(0) translate(4 401.5)">
<title>calculateTotal</title>
<polygon fill="white" stroke="none" points="-4,4 -4,-401.5 1049,-401.5 1049,4 -4,4"/>
<!-- Node1 -->
<g id="node1" class="node"><title>Node1</title>
<polygon fill="#bfbfbf" stroke="black" points="0,-164.5 0,-183.5 83,-183.5 83,-164.5 0,-164.5"/>
<text text-anchor="middle" x="41.5" y="-171.5" font-family="Helvetica,sans-Serif" font-size="10.00">calculateTotal</text>
</g>
<!-- Node2 -->
<g id="node2" class="node"><title>Node2</title>
<g id="a_node2"><a xlink:href="classcom_1_1tomoparts_1_1tomoBay_1_1model_1_1dataTypes_1_1financial_1_1SalesOrderDayBook_1_1AbstractSalesDayBookLine.html#a1b2142782be2899c8c3c19c5b3e05247" target="_top" xlink:title="retrieve a particular AbstractLineItem from the list of items that make up this AbstractSalesDayBookL...">
<polygon fill="white" stroke="black" points="119,-273.5 119,-314.5 325,-314.5 325,-273.5 119,-273.5"/>
<text text-anchor="start" x="127" y="-302.5" font-family="Helvetica,sans-Serif" font-size="10.00">com.tomoparts.tomoBay.model.data</text>
<text text-anchor="start" x="127" y="-291.5" font-family="Helvetica,sans-Serif" font-size="10.00">Types.financial.SalesOrderDayBook.</text>
<text text-anchor="middle" x="222" y="-280.5" font-family="Helvetica,sans-Serif" font-size="10.00">AbstractSalesDayBookLine.getLineItem</text>
</a>
</g>
</g>
<!-- Node1&#45;&gt;Node2 -->
<g id="edge1" class="edge"><title>Node1&#45;&gt;Node2</title>
<path fill="none" stroke="midnightblue" d="M48.0888,-183.751C59.1844,-202.233 85.8116,-242.437 119,-264 121.624,-265.705 124.348,-267.316 127.147,-268.837"/>
<polygon fill="midnightblue" stroke="midnightblue" points="125.799,-272.075 136.31,-273.398 128.918,-265.809 125.799,-272.075"/>
</g>
<!-- Node3 -->
<g id="node3" class="node"><title>Node3</title>
<g id="a_node3"><a xlink:href="classcom_1_1tomoparts_1_1tomoBay_1_1model_1_1dataTypes_1_1financial_1_1SalesOrderDayBook_1_1AbstractLineItem.html#a06da05dee451bbf7e7ec2f702fc7e3fb" target="_top" xlink:title="retrieve the part number associated with the part that has been invoiced ">
<polygon fill="white" stroke="black" points="124.5,-153.5 124.5,-194.5 319.5,-194.5 319.5,-153.5 124.5,-153.5"/>
<text text-anchor="start" x="132.5" y="-182.5" font-family="Helvetica,sans-Serif" font-size="10.00">com.tomoparts.tomoBay.model.data</text>
<text text-anchor="start" x="132.5" y="-171.5" font-family="Helvetica,sans-Serif" font-size="10.00">Types.financial.SalesOrderDayBook.</text>
<text text-anchor="middle" x="222" y="-160.5" font-family="Helvetica,sans-Serif" font-size="10.00">AbstractLineItem.partNo</text>
</a>
</g>
</g>
<!-- Node1&#45;&gt;Node3 -->
<g id="edge2" class="edge"><title>Node1&#45;&gt;Node3</title>
<path fill="none" stroke="midnightblue" d="M83.0044,-174C92.5335,-174 103.132,-174 114.101,-174"/>
<polygon fill="midnightblue" stroke="midnightblue" points="114.259,-177.5 124.259,-174 114.259,-170.5 114.259,-177.5"/>
</g>
<!-- Node9 -->
<g id="node9" class="node"><title>Node9</title>
<g id="a_node9"><a xlink:href="classcom_1_1tomoparts_1_1tomoBay_1_1model_1_1dataTypes_1_1financial_1_1SalesOrderDayBook_1_1AbstractLineItem.html#a906729ff4a7b3a1638da9e1b47e8ada2" target="_top" xlink:title="retrieve the price of the quantity of parts invoiced (EX VAT) ">
<polygon fill="white" stroke="black" points="124.5,-93.5 124.5,-134.5 319.5,-134.5 319.5,-93.5 124.5,-93.5"/>
<text text-anchor="start" x="132.5" y="-122.5" font-family="Helvetica,sans-Serif" font-size="10.00">com.tomoparts.tomoBay.model.data</text>
<text text-anchor="start" x="132.5" y="-111.5" font-family="Helvetica,sans-Serif" font-size="10.00">Types.financial.SalesOrderDayBook.</text>
<text text-anchor="middle" x="222" y="-100.5" font-family="Helvetica,sans-Serif" font-size="10.00">AbstractLineItem.price</text>
</a>
</g>
</g>
<!-- Node1&#45;&gt;Node9 -->
<g id="edge8" class="edge"><title>Node1&#45;&gt;Node9</title>
<path fill="none" stroke="midnightblue" d="M65.4038,-164.411C80.5018,-158.24 100.779,-150.239 119,-144 125.336,-141.831 131.925,-139.674 138.567,-137.569"/>
<polygon fill="midnightblue" stroke="midnightblue" points="139.811,-140.847 148.315,-134.528 137.726,-134.165 139.811,-140.847"/>
</g>
<!-- Node11 -->
<g id="node11" class="node"><title>Node11</title>
<g id="a_node11"><a xlink:href="classcom_1_1tomoparts_1_1tomoBay_1_1model_1_1dataTypes_1_1financial_1_1SalesOrderDayBook_1_1AbstractLineItem.html#a784e8a839c20c37ba8b20c477cb826c2" target="_top" xlink:title="retrieve the invoiced quantity of the part to be invoiced in this line item ">
<polygon fill="white" stroke="black" points="124.5,-213.5 124.5,-254.5 319.5,-254.5 319.5,-213.5 124.5,-213.5"/>
<text text-anchor="start" x="132.5" y="-242.5" font-family="Helvetica,sans-Serif" font-size="10.00">com.tomoparts.tomoBay.model.data</text>
<text text-anchor="start" x="132.5" y="-231.5" font-family="Helvetica,sans-Serif" font-size="10.00">Types.financial.SalesOrderDayBook.</text>
<text text-anchor="middle" x="222" y="-220.5" font-family="Helvetica,sans-Serif" font-size="10.00">AbstractLineItem.quantity</text>
</a>
</g>
</g>
<!-- Node1&#45;&gt;Node11 -->
<g id="edge10" class="edge"><title>Node1&#45;&gt;Node11</title>
<path fill="none" stroke="midnightblue" d="M65.4038,-183.589C80.5018,-189.76 100.779,-197.761 119,-204 125.336,-206.169 131.925,-208.326 138.567,-210.431"/>
<polygon fill="midnightblue" stroke="midnightblue" points="137.726,-213.835 148.315,-213.472 139.811,-207.153 137.726,-213.835"/>
</g>
<!-- Node16 -->
<g id="node16" class="node"><title>Node16</title>
<g id="a_node16"><a xlink:href="classcom_1_1tomoparts_1_1tomoBay_1_1model_1_1dataTypes_1_1financial_1_1SalesOrderDayBook_1_1AbstractSalesDayBookLine.html#af4b57d21919c42d55af03391f91a1c08" target="_top" xlink:title="retrieve the number of line items that make up this SalesDayBookLine. ">
<polygon fill="white" stroke="black" points="124.5,-33.5 124.5,-74.5 319.5,-74.5 319.5,-33.5 124.5,-33.5"/>
<text text-anchor="start" x="132.5" y="-62.5" font-family="Helvetica,sans-Serif" font-size="10.00">com.tomoparts.tomoBay.model.data</text>
<text text-anchor="start" x="132.5" y="-51.5" font-family="Helvetica,sans-Serif" font-size="10.00">Types.financial.SalesOrderDayBook.</text>
<text text-anchor="middle" x="222" y="-40.5" font-family="Helvetica,sans-Serif" font-size="10.00">AbstractSalesDayBookLine.size</text>
</a>
</g>
</g>
<!-- Node1&#45;&gt;Node16 -->
<g id="edge18" class="edge"><title>Node1&#45;&gt;Node16</title>
<path fill="none" stroke="midnightblue" d="M48.0888,-164.249C59.1844,-145.767 85.8116,-105.563 119,-84 121.624,-82.2951 124.348,-80.6844 127.147,-79.163"/>
<polygon fill="midnightblue" stroke="midnightblue" points="128.918,-82.1911 136.31,-74.6016 125.799,-75.9245 128.918,-82.1911"/>
</g>
<!-- Node4 -->
<g id="node4" class="node"><title>Node4</title>
<g id="a_node4"><a xlink:href="classcom_1_1tomoparts_1_1tomoBay_1_1model_1_1dataTypes_1_1order_1_1Transaction.html#ae22e0c0169b69acfb681cf924aa8f0a8" target="_top" xlink:title="retrieve the listing associated with this transaction ">
<polygon fill="white" stroke="black" points="363.5,-269 363.5,-299 558.5,-299 558.5,-269 363.5,-269"/>
<text text-anchor="start" x="371.5" y="-287" font-family="Helvetica,sans-Serif" font-size="10.00">com.tomoparts.tomoBay.model.data</text>
<text text-anchor="middle" x="461" y="-276" font-family="Helvetica,sans-Serif" font-size="10.00">Types.order.Transaction.listing</text>
</a>
</g>
</g>
<!-- Node3&#45;&gt;Node4 -->
<g id="edge3" class="edge"><title>Node3&#45;&gt;Node4</title>
<path fill="none" stroke="midnightblue" d="M309.724,-194.624C315.107,-197.369 320.257,-200.479 325,-204 348.457,-221.415 337.21,-242.042 361,-259 363.743,-260.955 366.623,-262.758 369.607,-264.42"/>
<polygon fill="midnightblue" stroke="midnightblue" points="368.316,-267.686 378.83,-268.995 371.427,-261.415 368.316,-267.686"/>
</g>
<!-- Node5 -->
<g id="node5" class="node"><title>Node5</title>
<g id="a_node5"><a xlink:href="classcom_1_1tomoparts_1_1tomoBay_1_1model_1_1dataTypes_1_1financial_1_1SalesOrderDayBook_1_1AbstractSalesDayBookLine.html#afacf6217c7f58a049b532205066da488" target="_top" xlink:title="retrieve the order that this AbstractSalesDayBookLine refers to. ">
<polygon fill="white" stroke="black" points="363.5,-208.5 363.5,-249.5 558.5,-249.5 558.5,-208.5 363.5,-208.5"/>
<text text-anchor="start" x="371.5" y="-237.5" font-family="Helvetica,sans-Serif" font-size="10.00">com.tomoparts.tomoBay.model.data</text>
<text text-anchor="start" x="371.5" y="-226.5" font-family="Helvetica,sans-Serif" font-size="10.00">Types.financial.SalesOrderDayBook.</text>
<text text-anchor="middle" x="461" y="-215.5" font-family="Helvetica,sans-Serif" font-size="10.00">AbstractSalesDayBookLine.orderInfo</text>
</a>
</g>
</g>
<!-- Node3&#45;&gt;Node5 -->
<g id="edge4" class="edge"><title>Node3&#45;&gt;Node5</title>
<path fill="none" stroke="midnightblue" d="M311.587,-194.558C327.81,-198.323 344.834,-202.274 361.329,-206.102"/>
<polygon fill="midnightblue" stroke="midnightblue" points="360.988,-209.615 371.52,-208.467 362.57,-202.797 360.988,-209.615"/>
</g>
<!-- Node6 -->
<g id="node6" class="node"><title>Node6</title>
<g id="a_node6"><a xlink:href="classcom_1_1tomoparts_1_1tomoBay_1_1model_1_1dataTypes_1_1order_1_1Listing.html#aeb86e87dbdd13b9820905d09d542e7e4" target="_top" xlink:title="retrieve the part specified in the parameter ">
<polygon fill="white" stroke="black" points="363.5,-110 363.5,-140 558.5,-140 558.5,-110 363.5,-110"/>
<text text-anchor="start" x="371.5" y="-128" font-family="Helvetica,sans-Serif" font-size="10.00">com.tomoparts.tomoBay.model.data</text>
<text text-anchor="middle" x="461" y="-117" font-family="Helvetica,sans-Serif" font-size="10.00">Types.order.Listing.part</text>
</a>
</g>
</g>
<!-- Node3&#45;&gt;Node6 -->
<g id="edge5" class="edge"><title>Node3&#45;&gt;Node6</title>
<path fill="none" stroke="midnightblue" d="M319.739,-153.999C338.834,-150.051 358.71,-145.942 377.29,-142.1"/>
<polygon fill="midnightblue" stroke="midnightblue" points="378.086,-145.51 387.17,-140.058 376.669,-138.655 378.086,-145.51"/>
</g>
<!-- Node7 -->
<g id="node7" class="node"><title>Node7</title>
<g id="a_node7"><a xlink:href="classcom_1_1tomoparts_1_1tomoBay_1_1model_1_1dataTypes_1_1order_1_1Part.html#a2320984310c02a9113e686abe8576df1" target="_top" xlink:title="retrieve the part number for this part ">
<polygon fill="white" stroke="black" points="363.5,-61 363.5,-91 558.5,-91 558.5,-61 363.5,-61"/>
<text text-anchor="start" x="371.5" y="-79" font-family="Helvetica,sans-Serif" font-size="10.00">com.tomoparts.tomoBay.model.data</text>
<text text-anchor="middle" x="461" y="-68" font-family="Helvetica,sans-Serif" font-size="10.00">Types.order.Part.partNo</text>
</a>
</g>
</g>
<!-- Node3&#45;&gt;Node7 -->
<g id="edge6" class="edge"><title>Node3&#45;&gt;Node7</title>
<path fill="none" stroke="midnightblue" d="M308.022,-153.392C313.964,-150.635 319.693,-147.519 325,-144 346.058,-130.036 339.612,-113.453 361,-100 363.647,-98.3353 366.4,-96.786 369.233,-95.3443"/>
<polygon fill="midnightblue" stroke="midnightblue" points="370.879,-98.44 378.515,-91.0955 367.966,-92.075 370.879,-98.44"/>
</g>
<!-- Node8 -->
<g id="node8" class="node"><title>Node8</title>
<g id="a_node8"><a xlink:href="classcom_1_1tomoparts_1_1tomoBay_1_1model_1_1dataTypes_1_1order_1_1Order.html#a39d4b856c1dcba627c763d60c3be86b0" target="_top" xlink:title="An order is made up of transactions, this method retrieves the specified transaction, given the index parameter. ">
<polygon fill="white" stroke="black" points="363.5,-159 363.5,-189 558.5,-189 558.5,-159 363.5,-159"/>
<text text-anchor="start" x="371.5" y="-177" font-family="Helvetica,sans-Serif" font-size="10.00">com.tomoparts.tomoBay.model.data</text>
<text text-anchor="middle" x="461" y="-166" font-family="Helvetica,sans-Serif" font-size="10.00">Types.order.Order.transaction</text>
</a>
</g>
</g>
<!-- Node3&#45;&gt;Node8 -->
<g id="edge7" class="edge"><title>Node3&#45;&gt;Node8</title>
<path fill="none" stroke="midnightblue" d="M319.739,-174C330.714,-174 341.948,-174 353.045,-174"/>
<polygon fill="midnightblue" stroke="midnightblue" points="353.186,-177.5 363.186,-174 353.186,-170.5 353.186,-177.5"/>
</g>
<!-- Node10 -->
<g id="node10" class="node"><title>Node10</title>
<g id="a_node10"><a xlink:href="classcom_1_1tomoparts_1_1tomoBay_1_1model_1_1dataTypes_1_1financial_1_1SalesOrderDayBook_1_1AbstractLineItem.html#a9384ad6463e803ada82c6c35d708939a" target="_top" xlink:title="implementation specific code used to work out the unit price for a specific line item ...">
<polygon fill="white" stroke="black" points="363.5,-0.5 363.5,-41.5 558.5,-41.5 558.5,-0.5 363.5,-0.5"/>
<text text-anchor="start" x="371.5" y="-29.5" font-family="Helvetica,sans-Serif" font-size="10.00">com.tomoparts.tomoBay.model.data</text>
<text text-anchor="start" x="371.5" y="-18.5" font-family="Helvetica,sans-Serif" font-size="10.00">Types.financial.SalesOrderDayBook.</text>
<text text-anchor="middle" x="461" y="-7.5" font-family="Helvetica,sans-Serif" font-size="10.00">AbstractLineItem.unitPrice</text>
</a>
</g>
</g>
<!-- Node9&#45;&gt;Node10 -->
<g id="edge9" class="edge"><title>Node9&#45;&gt;Node10</title>
<path fill="none" stroke="midnightblue" d="M305.372,-93.3978C312.178,-90.6156 318.812,-87.494 325,-84 343.9,-73.3284 342.143,-61.7489 361,-51 364.274,-49.1337 367.677,-47.3718 371.164,-45.7096"/>
<polygon fill="midnightblue" stroke="midnightblue" points="372.844,-48.7934 380.567,-41.5399 370.007,-42.3944 372.844,-48.7934"/>
</g>
<!-- Node11&#45;&gt;Node4 -->
<g id="edge11" class="edge"><title>Node11&#45;&gt;Node4</title>
<path fill="none" stroke="midnightblue" d="M319.739,-254.409C339.358,-258.548 359.801,-262.861 378.817,-266.873"/>
<polygon fill="midnightblue" stroke="midnightblue" points="378.111,-270.301 388.619,-268.941 379.556,-263.452 378.111,-270.301"/>
</g>
<!-- Node11&#45;&gt;Node5 -->
<g id="edge12" class="edge"><title>Node11&#45;&gt;Node5</title>
<path fill="none" stroke="midnightblue" d="M319.739,-231.959C330.714,-231.728 341.948,-231.491 353.045,-231.256"/>
<polygon fill="midnightblue" stroke="midnightblue" points="353.262,-234.753 363.186,-231.042 353.115,-227.754 353.262,-234.753"/>
</g>
<!-- Node11&#45;&gt;Node8 -->
<g id="edge17" class="edge"><title>Node11&#45;&gt;Node8</title>
<path fill="none" stroke="midnightblue" d="M303.995,-213.443C322.714,-208.696 342.55,-203.669 361,-199 370.538,-196.586 380.593,-194.044 390.493,-191.543"/>
<polygon fill="midnightblue" stroke="midnightblue" points="391.479,-194.904 400.317,-189.061 389.764,-188.117 391.479,-194.904"/>
</g>
<!-- Node12 -->
<g id="node12" class="node"><title>Node12</title>
<g id="a_node12"><a xlink:href="classcom_1_1tomoparts_1_1tomoBay_1_1model_1_1dataTypes_1_1order_1_1Listing.html#a2c8f5d3f860a7215f1fff79890a6cfa1" target="_top" xlink:title="retrieve the qty of the part at this index. ">
<polygon fill="white" stroke="black" points="363.5,-367 363.5,-397 558.5,-397 558.5,-367 363.5,-367"/>
<text text-anchor="start" x="371.5" y="-385" font-family="Helvetica,sans-Serif" font-size="10.00">com.tomoparts.tomoBay.model.data</text>
<text text-anchor="middle" x="461" y="-374" font-family="Helvetica,sans-Serif" font-size="10.00">Types.order.Listing.qty</text>
</a>
</g>
</g>
<!-- Node11&#45;&gt;Node12 -->
<g id="edge13" class="edge"><title>Node11&#45;&gt;Node12</title>
<path fill="none" stroke="midnightblue" d="M312.57,-254.659C317.016,-257.396 321.203,-260.494 325,-264 357.869,-294.348 327.409,-328.453 361,-358 362.324,-359.164 363.695,-360.275 365.107,-361.333"/>
<polygon fill="midnightblue" stroke="midnightblue" points="363.312,-364.341 373.607,-366.844 367.121,-358.467 363.312,-364.341"/>
</g>
<!-- Node13 -->
<g id="node13" class="node"><title>Node13</title>
<g id="a_node13"><a xlink:href="classcom_1_1tomoparts_1_1tomoBay_1_1model_1_1dataTypes_1_1order_1_1Transaction.html#a797e1f8fbba4deea93ecb02ed24ea81b" target="_top" xlink:title="retrieve the quantity of this listing purchased ">
<polygon fill="white" stroke="black" points="361,-318 361,-348 561,-348 561,-318 361,-318"/>
<text text-anchor="start" x="369" y="-336" font-family="Helvetica,sans-Serif" font-size="10.00">com.tomoparts.tomoBay.model.data</text>
<text text-anchor="middle" x="461" y="-325" font-family="Helvetica,sans-Serif" font-size="10.00">Types.order.Transaction.qtyPurchased</text>
</a>
</g>
</g>
<!-- Node11&#45;&gt;Node13 -->
<g id="edge14" class="edge"><title>Node11&#45;&gt;Node13</title>
<path fill="none" stroke="midnightblue" d="M308.066,-254.543C313.997,-257.314 319.712,-260.451 325,-264 346.267,-278.272 339.395,-295.245 361,-309 363.638,-310.679 366.383,-312.241 369.209,-313.693"/>
<polygon fill="midnightblue" stroke="midnightblue" points="367.927,-316.957 378.473,-317.971 370.861,-310.601 367.927,-316.957"/>
</g>
<!-- Node14 -->
<g id="node14" class="node"><title>Node14</title>
<g id="a_node14"><a xlink:href="classcom_1_1tomoparts_1_1tomoBay_1_1model_1_1dataTypes_1_1heteroTypeContainer_1_1HeteroFieldContainer.html#a988363ab964d6dc0ccb8560bef5895b6" target="_top" xlink:title="retrieve the the value of an AbstractField from this HeteroFieldContainer, the field should be of the...">
<polygon fill="white" stroke="black" points="597,-312.5 597,-353.5 803,-353.5 803,-312.5 597,-312.5"/>
<text text-anchor="start" x="605" y="-341.5" font-family="Helvetica,sans-Serif" font-size="10.00">com.tomoparts.tomoBay.model.data</text>
<text text-anchor="start" x="605" y="-330.5" font-family="Helvetica,sans-Serif" font-size="10.00">Types.heteroTypeContainer.HeteroField</text>
<text text-anchor="middle" x="700" y="-319.5" font-family="Helvetica,sans-Serif" font-size="10.00">Container.get</text>
</a>
</g>
</g>
<!-- Node13&#45;&gt;Node14 -->
<g id="edge15" class="edge"><title>Node13&#45;&gt;Node14</title>
<path fill="none" stroke="midnightblue" d="M561.136,-333C569.615,-333 578.23,-333 586.8,-333"/>
<polygon fill="midnightblue" stroke="midnightblue" points="586.83,-336.5 596.83,-333 586.83,-329.5 586.83,-336.5"/>
</g>
<!-- Node15 -->
<g id="node15" class="node"><title>Node15</title>
<g id="a_node15"><a xlink:href="classcom_1_1tomoparts_1_1tomoBay_1_1model_1_1dataTypes_1_1heteroTypeContainer_1_1HeteroFieldContainer.html#a9dee3c01eb5ab16203e1c6820a569484" target="_top" xlink:title="performs a type check, assuming that field and type are of the same type then this method returns tru...">
<polygon fill="white" stroke="black" points="839,-312.5 839,-353.5 1045,-353.5 1045,-312.5 839,-312.5"/>
<text text-anchor="start" x="847" y="-341.5" font-family="Helvetica,sans-Serif" font-size="10.00">com.tomoparts.tomoBay.model.data</text>
<text text-anchor="start" x="847" y="-330.5" font-family="Helvetica,sans-Serif" font-size="10.00">Types.heteroTypeContainer.HeteroField</text>
<text text-anchor="middle" x="942" y="-319.5" font-family="Helvetica,sans-Serif" font-size="10.00">Container.isSameType</text>
</a>
</g>
</g>
<!-- Node14&#45;&gt;Node15 -->
<g id="edge16" class="edge"><title>Node14&#45;&gt;Node15</title>
<path fill="none" stroke="midnightblue" d="M803.13,-333C811.658,-333 820.309,-333 828.906,-333"/>
<polygon fill="midnightblue" stroke="midnightblue" points="828.962,-336.5 838.962,-333 828.962,-329.5 828.962,-336.5"/>
</g>
</g>
</svg>
