<?xml version="1.0" encoding="UTF-8" standalone="no"?>
<!DOCTYPE svg PUBLIC "-//W3C//DTD SVG 1.1//EN"
 "http://www.w3.org/Graphics/SVG/1.1/DTD/svg11.dtd">
<!-- Generated by graphviz version 2.38.0 (20140413.2041)
 -->
<!-- Title: PutInvoiceCommand Pages: 1 -->
<svg width="800pt" height="513pt"
 viewBox="0.00 0.00 799.50 513.00" xmlns="http://www.w3.org/2000/svg" xmlns:xlink="http://www.w3.org/1999/xlink">
<g id="graph0" class="graph" transform="scale(1 1) rotate(0) translate(4 509)">
<title>PutInvoiceCommand</title>
<polygon fill="white" stroke="none" points="-4,4 -4,-509 795.5,-509 795.5,4 -4,4"/>
<!-- Node1 -->
<g id="node1" class="node"><title>Node1</title>
<polygon fill="#bfbfbf" stroke="black" points="438,-0.5 438,-68.5 572,-68.5 572,-0.5 438,-0.5"/>
<text text-anchor="middle" x="505" y="-56.5" font-family="Helvetica,sans-Serif" font-size="10.00">PutInvoiceCommand</text>
<polyline fill="none" stroke="black" points="438,-49.5 572,-49.5 "/>
<text text-anchor="start" x="446" y="-37.5" font-family="Helvetica,sans-Serif" font-size="10.00">&#45; RESPONSE_LENGTH</text>
<polyline fill="none" stroke="black" points="438,-30.5 572,-30.5 "/>
<text text-anchor="start" x="446" y="-18.5" font-family="Helvetica,sans-Serif" font-size="10.00">+ PutInvoiceCommand()</text>
<text text-anchor="start" x="446" y="-7.5" font-family="Helvetica,sans-Serif" font-size="10.00">+ execute()</text>
</g>
<!-- Node2 -->
<g id="node2" class="node"><title>Node2</title>
<g id="a_node2"><a xlink:href="classcom_1_1tomoparts_1_1tomoBay_1_1model_1_1winstock_1_1commands_1_1AbstractWinstockCommand.html" target="_top" xlink:title="This is the abstract base class for all Winstock commands, and acts as the abstract command in a GoF ...">
<polygon fill="white" stroke="black" points="138,-138.5 138,-206.5 306,-206.5 306,-138.5 138,-138.5"/>
<text text-anchor="middle" x="222" y="-194.5" font-family="Helvetica,sans-Serif" font-size="10.00">AbstractWinstockCommand</text>
<polyline fill="none" stroke="black" points="138,-187.5 306,-187.5 "/>
<text text-anchor="middle" x="222" y="-175.5" font-family="Helvetica,sans-Serif" font-size="10.00"> </text>
<polyline fill="none" stroke="black" points="138,-168.5 306,-168.5 "/>
<text text-anchor="start" x="146" y="-156.5" font-family="Helvetica,sans-Serif" font-size="10.00">+ execute()</text>
<text text-anchor="start" x="146" y="-145.5" font-family="Helvetica,sans-Serif" font-size="10.00"># AbstractWinstockCommand()</text>
</a>
</g>
</g>
<!-- Node2&#45;&gt;Node1 -->
<g id="edge1" class="edge"><title>Node2&#45;&gt;Node1</title>
<path fill="none" stroke="midnightblue" d="M299.933,-134.048C343.165,-113.272 396.39,-87.694 437.781,-67.8032"/>
<polygon fill="none" stroke="midnightblue" points="298.365,-130.918 290.868,-138.405 301.397,-137.228 298.365,-130.918"/>
</g>
<!-- Node3 -->
<g id="node3" class="node"><title>Node3</title>
<g id="a_node3"><a xlink:href="classcom_1_1tomoparts_1_1tomoBay_1_1model_1_1winstock_1_1WinstockConfig.html" target="_top" xlink:title="Copyright(C) 2015 Jan P.C. ">
<polygon fill="white" stroke="black" points="36,-287.5 36,-366.5 156,-366.5 156,-287.5 36,-287.5"/>
<text text-anchor="middle" x="96" y="-354.5" font-family="Helvetica,sans-Serif" font-size="10.00">WinstockConfig</text>
<polyline fill="none" stroke="black" points="36,-347.5 156,-347.5 "/>
<text text-anchor="middle" x="96" y="-335.5" font-family="Helvetica,sans-Serif" font-size="10.00"> </text>
<polyline fill="none" stroke="black" points="36,-328.5 156,-328.5 "/>
<text text-anchor="start" x="44" y="-316.5" font-family="Helvetica,sans-Serif" font-size="10.00">+ WinstockConfig()</text>
<text text-anchor="start" x="44" y="-305.5" font-family="Helvetica,sans-Serif" font-size="10.00">+ getMachineName()</text>
<text text-anchor="start" x="44" y="-294.5" font-family="Helvetica,sans-Serif" font-size="10.00">+ getPort()</text>
</a>
</g>
</g>
<!-- Node3&#45;&gt;Node2 -->
<g id="edge2" class="edge"><title>Node3&#45;&gt;Node2</title>
<path fill="none" stroke="#404040" d="M128.121,-287.123C146.032,-265.446 168.366,-238.414 186.756,-216.156"/>
<polygon fill="none" stroke="#404040" points="186.991,-215.872 187.729,-208.699 194.634,-206.621 193.896,-213.794 186.991,-215.872"/>
<text text-anchor="middle" x="186" y="-250" font-family="Helvetica,sans-Serif" font-size="10.00"> #config_M</text>
</g>
<!-- Node4 -->
<g id="node4" class="node"><title>Node4</title>
<g id="a_node4"><a xlink:href="classcom_1_1tomoparts_1_1tomoBay_1_1model_1_1net_1_1ClientSocket.html" target="_top" xlink:title="This class is responsible for creating a client socket connection to a particular machine at a specif...">
<polygon fill="white" stroke="black" points="174.5,-287.5 174.5,-366.5 269.5,-366.5 269.5,-287.5 174.5,-287.5"/>
<text text-anchor="middle" x="222" y="-354.5" font-family="Helvetica,sans-Serif" font-size="10.00">ClientSocket</text>
<polyline fill="none" stroke="black" points="174.5,-347.5 269.5,-347.5 "/>
<text text-anchor="middle" x="222" y="-335.5" font-family="Helvetica,sans-Serif" font-size="10.00"> </text>
<polyline fill="none" stroke="black" points="174.5,-328.5 269.5,-328.5 "/>
<text text-anchor="start" x="182.5" y="-316.5" font-family="Helvetica,sans-Serif" font-size="10.00">+ ClientSocket()</text>
<text text-anchor="start" x="182.5" y="-305.5" font-family="Helvetica,sans-Serif" font-size="10.00">+ send()</text>
<text text-anchor="start" x="182.5" y="-294.5" font-family="Helvetica,sans-Serif" font-size="10.00">+ close()</text>
</a>
</g>
</g>
<!-- Node4&#45;&gt;Node2 -->
<g id="edge3" class="edge"><title>Node4&#45;&gt;Node2</title>
<path fill="none" stroke="#404040" d="M222,-287.123C222,-266.321 222,-240.587 222,-218.874"/>
<polygon fill="none" stroke="#404040" points="222,-218.621 218,-212.621 222,-206.621 226,-212.621 222,-218.621"/>
<text text-anchor="middle" x="282" y="-250" font-family="Helvetica,sans-Serif" font-size="10.00"> #winstockConnection_M</text>
</g>
<!-- Node5 -->
<g id="node5" class="node"><title>Node5</title>
<polygon fill="white" stroke="#bfbfbf" points="0,-436.5 0,-493.5 100,-493.5 100,-436.5 0,-436.5"/>
<text text-anchor="middle" x="50" y="-481.5" font-family="Helvetica,sans-Serif" font-size="10.00">DataInputStream</text>
<polyline fill="none" stroke="#bfbfbf" points="0,-474.5 100,-474.5 "/>
<text text-anchor="middle" x="50" y="-462.5" font-family="Helvetica,sans-Serif" font-size="10.00"> </text>
<polyline fill="none" stroke="#bfbfbf" points="0,-455.5 100,-455.5 "/>
<text text-anchor="middle" x="50" y="-443.5" font-family="Helvetica,sans-Serif" font-size="10.00"> </text>
</g>
<!-- Node5&#45;&gt;Node4 -->
<g id="edge4" class="edge"><title>Node5&#45;&gt;Node4</title>
<path fill="none" stroke="#404040" d="M79.9479,-436.24C94.7306,-423.234 113.181,-407.999 131,-396 145.182,-386.45 150.922,-387.703 165,-378 166.91,-376.683 168.828,-375.311 170.742,-373.897"/>
<polygon fill="none" stroke="#404040" points="170.755,-373.887 173.051,-367.051 180.244,-366.542 177.948,-373.378 170.755,-373.887"/>
<text text-anchor="middle" x="156.5" y="-399" font-family="Helvetica,sans-Serif" font-size="10.00"> &#45;dataIn_M</text>
</g>
<!-- Node6 -->
<g id="node6" class="node"><title>Node6</title>
<polygon fill="white" stroke="#bfbfbf" points="118.5,-436.5 118.5,-493.5 227.5,-493.5 227.5,-436.5 118.5,-436.5"/>
<text text-anchor="middle" x="173" y="-481.5" font-family="Helvetica,sans-Serif" font-size="10.00">DataOutputStream</text>
<polyline fill="none" stroke="#bfbfbf" points="118.5,-474.5 227.5,-474.5 "/>
<text text-anchor="middle" x="173" y="-462.5" font-family="Helvetica,sans-Serif" font-size="10.00"> </text>
<polyline fill="none" stroke="#bfbfbf" points="118.5,-455.5 227.5,-455.5 "/>
<text text-anchor="middle" x="173" y="-443.5" font-family="Helvetica,sans-Serif" font-size="10.00"> </text>
</g>
<!-- Node6&#45;&gt;Node4 -->
<g id="edge5" class="edge"><title>Node6&#45;&gt;Node4</title>
<path fill="none" stroke="#404040" d="M178.034,-436.469C180.691,-423.937 184.37,-409.028 189,-396 191.115,-390.048 193.602,-383.929 196.246,-377.918"/>
<polygon fill="none" stroke="#404040" points="196.454,-377.464 195.326,-370.342 201.467,-366.561 202.595,-373.683 196.454,-377.464"/>
<text text-anchor="middle" x="219" y="-399" font-family="Helvetica,sans-Serif" font-size="10.00"> &#45;dataOut_M</text>
</g>
<!-- Node7 -->
<g id="node7" class="node"><title>Node7</title>
<polygon fill="white" stroke="#bfbfbf" points="246,-436.5 246,-493.5 296,-493.5 296,-436.5 246,-436.5"/>
<text text-anchor="middle" x="271" y="-481.5" font-family="Helvetica,sans-Serif" font-size="10.00">Socket</text>
<polyline fill="none" stroke="#bfbfbf" points="246,-474.5 296,-474.5 "/>
<text text-anchor="middle" x="271" y="-462.5" font-family="Helvetica,sans-Serif" font-size="10.00"> </text>
<polyline fill="none" stroke="#bfbfbf" points="246,-455.5 296,-455.5 "/>
<text text-anchor="middle" x="271" y="-443.5" font-family="Helvetica,sans-Serif" font-size="10.00"> </text>
</g>
<!-- Node7&#45;&gt;Node4 -->
<g id="edge6" class="edge"><title>Node7&#45;&gt;Node4</title>
<path fill="none" stroke="#404040" d="M262.519,-436.4C258.59,-423.988 253.748,-409.193 249,-396 246.903,-390.174 244.626,-384.1 242.313,-378.085"/>
<polygon fill="none" stroke="#404040" points="242.221,-377.85 236.314,-373.714 237.859,-366.671 243.766,-370.806 242.221,-377.85"/>
<text text-anchor="middle" x="279" y="-399" font-family="Helvetica,sans-Serif" font-size="10.00"> &#45;socket_M</text>
</g>
<!-- Node8 -->
<g id="node8" class="node"><title>Node8</title>
<g id="a_node8"><a xlink:href="classcom_1_1tomoparts_1_1tomoBay_1_1model_1_1winstock_1_1payloads_1_1PutInvoicePayload.html" target="_top" xlink:title="PutInvoiceMessage DataType Label Notes &#160;byte[4] Header &quot;WSC0&quot; byte Type 34 byte Company 0=ford...">
<polygon fill="white" stroke="black" points="444,-144 444,-201 566,-201 566,-144 444,-144"/>
<text text-anchor="middle" x="505" y="-189" font-family="Helvetica,sans-Serif" font-size="10.00">PutInvoicePayload</text>
<polyline fill="none" stroke="black" points="444,-182 566,-182 "/>
<text text-anchor="middle" x="505" y="-170" font-family="Helvetica,sans-Serif" font-size="10.00"> </text>
<polyline fill="none" stroke="black" points="444,-163 566,-163 "/>
<text text-anchor="start" x="452" y="-151" font-family="Helvetica,sans-Serif" font-size="10.00">+ PutInvoicePayload()</text>
</a>
</g>
</g>
<!-- Node8&#45;&gt;Node1 -->
<g id="edge7" class="edge"><title>Node8&#45;&gt;Node1</title>
<path fill="none" stroke="#404040" d="M505,-143.978C505,-125.896 505,-101.81 505,-80.9274"/>
<polygon fill="none" stroke="#404040" points="505,-80.7476 501,-74.7476 505,-68.7476 509,-74.7476 505,-80.7476"/>
<text text-anchor="middle" x="534" y="-90" font-family="Helvetica,sans-Serif" font-size="10.00"> &#45;payload_M</text>
</g>
<!-- Node9 -->
<g id="node9" class="node"><title>Node9</title>
<g id="a_node9"><a xlink:href="classcom_1_1tomoparts_1_1tomoBay_1_1model_1_1winstock_1_1payloads_1_1AbstractPayload.html" target="_top" xlink:title="This is the abstract base class for all Payload sub types. ">
<polygon fill="white" stroke="black" points="448.5,-282 448.5,-372 561.5,-372 561.5,-282 448.5,-282"/>
<text text-anchor="middle" x="505" y="-360" font-family="Helvetica,sans-Serif" font-size="10.00">AbstractPayload</text>
<polyline fill="none" stroke="black" points="448.5,-353 561.5,-353 "/>
<text text-anchor="start" x="456.5" y="-341" font-family="Helvetica,sans-Serif" font-size="10.00"># HEADER_M</text>
<text text-anchor="start" x="456.5" y="-330" font-family="Helvetica,sans-Serif" font-size="10.00"># FOOTER_M</text>
<polyline fill="none" stroke="black" points="448.5,-323 561.5,-323 "/>
<text text-anchor="start" x="456.5" y="-311" font-family="Helvetica,sans-Serif" font-size="10.00">+ AbstractPayload()</text>
<text text-anchor="start" x="456.5" y="-300" font-family="Helvetica,sans-Serif" font-size="10.00">+ getPayload()</text>
<text text-anchor="start" x="456.5" y="-289" font-family="Helvetica,sans-Serif" font-size="10.00">&#45; getResult()</text>
</a>
</g>
</g>
<!-- Node9&#45;&gt;Node8 -->
<g id="edge8" class="edge"><title>Node9&#45;&gt;Node8</title>
<path fill="none" stroke="midnightblue" d="M505,-271.87C505,-247.964 505,-220.881 505,-201.194"/>
<polygon fill="none" stroke="midnightblue" points="501.5,-271.891 505,-281.891 508.5,-271.891 501.5,-271.891"/>
</g>
<!-- Node10 -->
<g id="node10" class="node"><title>Node10</title>
<polygon fill="white" stroke="#bfbfbf" points="313.5,-425.5 313.5,-504.5 696.5,-504.5 696.5,-425.5 313.5,-425.5"/>
<text text-anchor="start" x="321.5" y="-492.5" font-family="Helvetica,sans-Serif" font-size="10.00">Map&lt; com.tomoparts.tomoBay.model.winstock.payloads.</text>
<text text-anchor="start" x="321.5" y="-481.5" font-family="Helvetica,sans-Serif" font-size="10.00">PayloadType, com.tomoparts.tomoBay.model.winstock.payloads.component</text>
<text text-anchor="middle" x="505" y="-470.5" font-family="Helvetica,sans-Serif" font-size="10.00">Factories.AbstractComponentFactory &gt;</text>
<polyline fill="none" stroke="#bfbfbf" points="313.5,-463.5 696.5,-463.5 "/>
<text text-anchor="middle" x="505" y="-451.5" font-family="Helvetica,sans-Serif" font-size="10.00"> </text>
<polyline fill="none" stroke="#bfbfbf" points="313.5,-444.5 696.5,-444.5 "/>
<text text-anchor="middle" x="505" y="-432.5" font-family="Helvetica,sans-Serif" font-size="10.00"> </text>
</g>
<!-- Node10&#45;&gt;Node9 -->
<g id="edge9" class="edge"><title>Node10&#45;&gt;Node9</title>
<path fill="none" stroke="#404040" d="M505,-425.392C505,-412.765 505,-398.465 505,-384.787"/>
<polygon fill="none" stroke="#404040" points="505,-384.467 501,-378.467 505,-372.467 509,-378.467 505,-384.467"/>
<text text-anchor="middle" x="553" y="-399" font-family="Helvetica,sans-Serif" font-size="10.00"> #payloadBuilder_M</text>
</g>
<!-- Node11 -->
<g id="node11" class="node"><title>Node11</title>
<polygon fill="white" stroke="#bfbfbf" points="714.5,-436.5 714.5,-493.5 791.5,-493.5 791.5,-436.5 714.5,-436.5"/>
<text text-anchor="middle" x="753" y="-481.5" font-family="Helvetica,sans-Serif" font-size="10.00">List&lt; Byte &gt;</text>
<polyline fill="none" stroke="#bfbfbf" points="714.5,-474.5 791.5,-474.5 "/>
<text text-anchor="middle" x="753" y="-462.5" font-family="Helvetica,sans-Serif" font-size="10.00"> </text>
<polyline fill="none" stroke="#bfbfbf" points="714.5,-455.5 791.5,-455.5 "/>
<text text-anchor="middle" x="753" y="-443.5" font-family="Helvetica,sans-Serif" font-size="10.00"> </text>
</g>
<!-- Node11&#45;&gt;Node9 -->
<g id="edge10" class="edge"><title>Node11&#45;&gt;Node9</title>
<path fill="none" stroke="#404040" d="M722.093,-436.352C716.622,-432.212 710.811,-428.249 705,-425 653.034,-395.944 629.345,-406.455 571.539,-377.668"/>
<polygon fill="none" stroke="#404040" points="571.385,-377.588 564.215,-378.361 560.744,-372.041 567.913,-371.267 571.385,-377.588"/>
<text text-anchor="middle" x="689" y="-399" font-family="Helvetica,sans-Serif" font-size="10.00"> #result_M</text>
</g>
<!-- Node12 -->
<g id="node12" class="node"><title>Node12</title>
<g id="a_node12"><a xlink:href="classcom_1_1tomoparts_1_1tomoBay_1_1model_1_1winstock_1_1response_1_1PutInvoiceResponse.html" target="_top" xlink:title="This class is the AbstractWinstockCommandResponse associated with the PutInvoiceCommand. ">
<polygon fill="white" stroke="black" points="600,-116.5 600,-228.5 724,-228.5 724,-116.5 600,-116.5"/>
<text text-anchor="middle" x="662" y="-216.5" font-family="Helvetica,sans-Serif" font-size="10.00">PutInvoiceResponse</text>
<polyline fill="none" stroke="black" points="600,-209.5 724,-209.5 "/>
<text text-anchor="start" x="608" y="-197.5" font-family="Helvetica,sans-Serif" font-size="10.00">&#45; responseBytes_M</text>
<text text-anchor="start" x="608" y="-186.5" font-family="Helvetica,sans-Serif" font-size="10.00">&#45; sentBytes_M</text>
<polyline fill="none" stroke="black" points="600,-179.5 724,-179.5 "/>
<text text-anchor="start" x="608" y="-167.5" font-family="Helvetica,sans-Serif" font-size="10.00">+ isSuccess()</text>
<text text-anchor="start" x="608" y="-156.5" font-family="Helvetica,sans-Serif" font-size="10.00">+ setResponseBytes()</text>
<text text-anchor="start" x="608" y="-145.5" font-family="Helvetica,sans-Serif" font-size="10.00">+ setSentBytes()</text>
<text text-anchor="start" x="608" y="-134.5" font-family="Helvetica,sans-Serif" font-size="10.00">+ getSent()</text>
<text text-anchor="start" x="608" y="-123.5" font-family="Helvetica,sans-Serif" font-size="10.00">+ getRecieved()</text>
</a>
</g>
</g>
<!-- Node12&#45;&gt;Node1 -->
<g id="edge11" class="edge"><title>Node12&#45;&gt;Node1</title>
<path fill="none" stroke="#404040" d="M600.688,-116.421C589.536,-106.559 577.964,-96.4249 567,-87 562.951,-83.5195 558.732,-79.9324 554.483,-76.3479"/>
<polygon fill="none" stroke="#404040" points="554.38,-76.2617 547.213,-75.4683 545.189,-68.5471 552.356,-69.3405 554.38,-76.2617"/>
<text text-anchor="middle" x="610.5" y="-90" font-family="Helvetica,sans-Serif" font-size="10.00"> &#45;response_M</text>
</g>
<!-- Node13 -->
<g id="node13" class="node"><title>Node13</title>
<g id="a_node13"><a xlink:href="interfacecom_1_1tomoparts_1_1tomoBay_1_1model_1_1winstock_1_1response_1_1AbstractWinstockCommandResponse.html" target="_top" xlink:title="This is the interface that all winstock command responses should subscribe to. ">
<polygon fill="white" stroke="black" points="580,-276.5 580,-377.5 776,-377.5 776,-276.5 580,-276.5"/>
<text text-anchor="middle" x="678" y="-365.5" font-family="Helvetica,sans-Serif" font-size="10.00">AbstractWinstockCommandResponse</text>
<polyline fill="none" stroke="black" points="580,-358.5 776,-358.5 "/>
<text text-anchor="middle" x="678" y="-346.5" font-family="Helvetica,sans-Serif" font-size="10.00"> </text>
<polyline fill="none" stroke="black" points="580,-339.5 776,-339.5 "/>
<text text-anchor="start" x="588" y="-327.5" font-family="Helvetica,sans-Serif" font-size="10.00">+ setSentBytes()</text>
<text text-anchor="start" x="588" y="-316.5" font-family="Helvetica,sans-Serif" font-size="10.00">+ setResponseBytes()</text>
<text text-anchor="start" x="588" y="-305.5" font-family="Helvetica,sans-Serif" font-size="10.00">+ isSuccess()</text>
<text text-anchor="start" x="588" y="-294.5" font-family="Helvetica,sans-Serif" font-size="10.00">+ getRecieved()</text>
<text text-anchor="start" x="588" y="-283.5" font-family="Helvetica,sans-Serif" font-size="10.00">+ getSent()</text>
</a>
</g>
</g>
<!-- Node13&#45;&gt;Node12 -->
<g id="edge12" class="edge"><title>Node13&#45;&gt;Node12</title>
<path fill="none" stroke="midnightblue" d="M671.73,-266.237C670.428,-253.826 669.061,-240.803 667.778,-228.569"/>
<polygon fill="none" stroke="midnightblue" points="668.281,-266.907 672.805,-276.488 675.243,-266.177 668.281,-266.907"/>
</g>
</g>
</svg>
