<?xml version="1.0" encoding="UTF-8" standalone="no"?>
<!DOCTYPE svg PUBLIC "-//W3C//DTD SVG 1.1//EN"
 "http://www.w3.org/Graphics/SVG/1.1/DTD/svg11.dtd">
<!-- Generated by graphviz version 2.38.0 (20140413.2041)
 -->
<!-- Title: EbayAccounts Pages: 1 -->
<svg width="187pt" height="281pt"
 viewBox="0.00 0.00 187.00 281.00" xmlns="http://www.w3.org/2000/svg" xmlns:xlink="http://www.w3.org/1999/xlink">
<g id="graph0" class="graph" transform="scale(1 1) rotate(0) translate(4 277)">
<title>EbayAccounts</title>
<polygon fill="white" stroke="none" points="-4,4 -4,-277 183,-277 183,4 -4,4"/>
<!-- Node1 -->
<g id="node1" class="node"><title>Node1</title>
<polygon fill="#bfbfbf" stroke="black" points="34,-0.5 34,-145.5 145,-145.5 145,-0.5 34,-0.5"/>
<text text-anchor="middle" x="89.5" y="-133.5" font-family="Helvetica,sans-Serif" font-size="10.00">EbayAccounts</text>
<polyline fill="none" stroke="black" points="34,-126.5 145,-126.5 "/>
<text text-anchor="middle" x="89.5" y="-114.5" font-family="Helvetica,sans-Serif" font-size="10.00"> </text>
<polyline fill="none" stroke="black" points="34,-107.5 145,-107.5 "/>
<text text-anchor="start" x="42" y="-95.5" font-family="Helvetica,sans-Serif" font-size="10.00">+ accounts()</text>
<text text-anchor="start" x="42" y="-84.5" font-family="Helvetica,sans-Serif" font-size="10.00">+ name()</text>
<text text-anchor="start" x="42" y="-73.5" font-family="Helvetica,sans-Serif" font-size="10.00">+ id()</text>
<text text-anchor="start" x="42" y="-62.5" font-family="Helvetica,sans-Serif" font-size="10.00">+ apiKey()</text>
<text text-anchor="start" x="42" y="-51.5" font-family="Helvetica,sans-Serif" font-size="10.00">+ serverAddress()</text>
<text text-anchor="start" x="42" y="-40.5" font-family="Helvetica,sans-Serif" font-size="10.00">+ lookbackDays()</text>
<text text-anchor="start" x="42" y="-29.5" font-family="Helvetica,sans-Serif" font-size="10.00">+ registerAccount()</text>
<text text-anchor="start" x="42" y="-18.5" font-family="Helvetica,sans-Serif" font-size="10.00">+ refresh()</text>
<text text-anchor="start" x="42" y="-7.5" font-family="Helvetica,sans-Serif" font-size="10.00">&#45; EbayAccounts()</text>
</g>
<!-- Node2 -->
<g id="node2" class="node"><title>Node2</title>
<polygon fill="white" stroke="#bfbfbf" points="0,-193.5 0,-272.5 179,-272.5 179,-193.5 0,-193.5"/>
<text text-anchor="start" x="8" y="-260.5" font-family="Helvetica,sans-Serif" font-size="10.00">List&lt; com.tomoparts.tomo</text>
<text text-anchor="start" x="8" y="-249.5" font-family="Helvetica,sans-Serif" font-size="10.00">Bay.model.dataTypes.heteroType</text>
<text text-anchor="middle" x="89.5" y="-238.5" font-family="Helvetica,sans-Serif" font-size="10.00">Container.HeteroFieldContainer &gt;</text>
<polyline fill="none" stroke="#bfbfbf" points="0,-231.5 179,-231.5 "/>
<text text-anchor="middle" x="89.5" y="-219.5" font-family="Helvetica,sans-Serif" font-size="10.00"> </text>
<polyline fill="none" stroke="#bfbfbf" points="0,-212.5 179,-212.5 "/>
<text text-anchor="middle" x="89.5" y="-200.5" font-family="Helvetica,sans-Serif" font-size="10.00"> </text>
</g>
<!-- Node2&#45;&gt;Node1 -->
<g id="edge1" class="edge"><title>Node2&#45;&gt;Node1</title>
<path fill="none" stroke="#404040" d="M89.5,-193.349C89.5,-182.523 89.5,-170.315 89.5,-157.945"/>
<polygon fill="none" stroke="#404040" points="89.5001,-157.566 85.5,-151.566 89.5,-145.566 93.5,-151.566 89.5001,-157.566"/>
<text text-anchor="middle" x="127.5" y="-167" font-family="Helvetica,sans-Serif" font-size="10.00"> &#45;accountInfo_M</text>
</g>
</g>
</svg>
