<?xml version="1.0" encoding="UTF-8" standalone="no"?>
<!DOCTYPE svg PUBLIC "-//W3C//DTD SVG 1.1//EN"
 "http://www.w3.org/Graphics/SVG/1.1/DTD/svg11.dtd">
<!-- Generated by graphviz version 2.38.0 (20140413.2041)
 -->
<!-- Title: LogFileViewer Pages: 1 -->
<svg width="210pt" height="193pt"
 viewBox="0.00 0.00 210.00 193.00" xmlns="http://www.w3.org/2000/svg" xmlns:xlink="http://www.w3.org/1999/xlink">
<g id="graph0" class="graph" transform="scale(1 1) rotate(0) translate(4 189)">
<title>LogFileViewer</title>
<polygon fill="white" stroke="none" points="-4,4 -4,-189 206,-189 206,4 -4,4"/>
<!-- Node1 -->
<g id="node1" class="node"><title>Node1</title>
<polygon fill="#bfbfbf" stroke="black" points="59,-0.5 59,-79.5 185,-79.5 185,-0.5 59,-0.5"/>
<text text-anchor="middle" x="122" y="-67.5" font-family="Helvetica,sans-Serif" font-size="10.00">LogFileViewer</text>
<polyline fill="none" stroke="black" points="59,-60.5 185,-60.5 "/>
<text text-anchor="middle" x="122" y="-48.5" font-family="Helvetica,sans-Serif" font-size="10.00"> </text>
<polyline fill="none" stroke="black" points="59,-41.5 185,-41.5 "/>
<text text-anchor="start" x="67" y="-29.5" font-family="Helvetica,sans-Serif" font-size="10.00">+ LogFileViewer()</text>
<text text-anchor="start" x="67" y="-18.5" font-family="Helvetica,sans-Serif" font-size="10.00">+ execute()</text>
<text text-anchor="start" x="67" y="-7.5" font-family="Helvetica,sans-Serif" font-size="10.00">&#45; removeLastComma()</text>
</g>
<!-- Node2 -->
<g id="node2" class="node"><title>Node2</title>
<g id="a_node2"><a xlink:href="interfacecom_1_1tomoparts_1_1tomoBay_1_1presenters_1_1presenterActions_1_1AbstractPresenterAction.html" target="_top" xlink:title="Copyright(C) 2015 Jan P.C. ">
<polygon fill="white" stroke="black" points="0,-127.5 0,-184.5 134,-184.5 134,-127.5 0,-127.5"/>
<text text-anchor="middle" x="67" y="-172.5" font-family="Helvetica,sans-Serif" font-size="10.00">AbstractPresenterAction</text>
<polyline fill="none" stroke="black" points="0,-165.5 134,-165.5 "/>
<text text-anchor="middle" x="67" y="-153.5" font-family="Helvetica,sans-Serif" font-size="10.00"> </text>
<polyline fill="none" stroke="black" points="0,-146.5 134,-146.5 "/>
<text text-anchor="start" x="8" y="-134.5" font-family="Helvetica,sans-Serif" font-size="10.00">+ execute()</text>
</a>
</g>
</g>
<!-- Node2&#45;&gt;Node1 -->
<g id="edge1" class="edge"><title>Node2&#45;&gt;Node1</title>
<path fill="none" stroke="midnightblue" d="M84.7199,-118.272C90.6909,-105.895 97.3693,-92.0527 103.406,-79.5406"/>
<polygon fill="none" stroke="midnightblue" points="81.507,-116.876 80.314,-127.404 87.8116,-119.918 81.507,-116.876"/>
</g>
<!-- Node3 -->
<g id="node3" class="node"><title>Node3</title>
<polygon fill="white" stroke="#bfbfbf" points="152,-127.5 152,-184.5 202,-184.5 202,-127.5 152,-127.5"/>
<text text-anchor="middle" x="177" y="-172.5" font-family="Helvetica,sans-Serif" font-size="10.00">Logger</text>
<polyline fill="none" stroke="#bfbfbf" points="152,-165.5 202,-165.5 "/>
<text text-anchor="middle" x="177" y="-153.5" font-family="Helvetica,sans-Serif" font-size="10.00"> </text>
<polyline fill="none" stroke="#bfbfbf" points="152,-146.5 202,-146.5 "/>
<text text-anchor="middle" x="177" y="-134.5" font-family="Helvetica,sans-Serif" font-size="10.00"> </text>
</g>
<!-- Node3&#45;&gt;Node1 -->
<g id="edge2" class="edge"><title>Node3&#45;&gt;Node1</title>
<path fill="none" stroke="#404040" d="M163.686,-127.404C158.326,-116.293 151.975,-103.13 145.868,-90.471"/>
<polygon fill="none" stroke="#404040" points="145.809,-90.3485 139.599,-86.6826 140.594,-79.5406 146.804,-83.2064 145.809,-90.3485"/>
<text text-anchor="middle" x="167" y="-101" font-family="Helvetica,sans-Serif" font-size="10.00"> ~log</text>
</g>
</g>
</svg>
