<?xml version="1.0" encoding="UTF-8" standalone="no"?>
<!DOCTYPE svg PUBLIC "-//W3C//DTD SVG 1.1//EN"
 "http://www.w3.org/Graphics/SVG/1.1/DTD/svg11.dtd">
<!-- Generated by graphviz version 2.38.0 (20140413.2041)
 -->
<!-- Title: AbstractSalesDayBookLine Pages: 1 -->
<svg width="469pt" height="408pt"
 viewBox="0.00 0.00 468.50 408.00" xmlns="http://www.w3.org/2000/svg" xmlns:xlink="http://www.w3.org/1999/xlink">
<g id="graph0" class="graph" transform="scale(1 1) rotate(0) translate(4 404)">
<title>AbstractSalesDayBookLine</title>
<polygon fill="white" stroke="none" points="-4,4 -4,-404 464.5,-404 464.5,4 -4,4"/>
<!-- Node1 -->
<g id="node1" class="node"><title>Node1</title>
<polygon fill="#bfbfbf" stroke="black" points="123.5,-105.5 123.5,-305.5 287.5,-305.5 287.5,-105.5 123.5,-105.5"/>
<text text-anchor="middle" x="205.5" y="-293.5" font-family="Helvetica,sans-Serif" font-size="10.00">AbstractSalesDayBookLine</text>
<polyline fill="none" stroke="black" points="123.5,-286.5 287.5,-286.5 "/>
<text text-anchor="start" x="131.5" y="-274.5" font-family="Helvetica,sans-Serif" font-size="10.00">&#45; order_M</text>
<text text-anchor="start" x="131.5" y="-263.5" font-family="Helvetica,sans-Serif" font-size="10.00">&#45; lineItems_M</text>
<text text-anchor="start" x="131.5" y="-252.5" font-family="Helvetica,sans-Serif" font-size="10.00">&#45; createdTime_M</text>
<polyline fill="none" stroke="black" points="123.5,-245.5 287.5,-245.5 "/>
<text text-anchor="start" x="131.5" y="-233.5" font-family="Helvetica,sans-Serif" font-size="10.00">+ AbstractSalesDayBookLine()</text>
<text text-anchor="start" x="131.5" y="-222.5" font-family="Helvetica,sans-Serif" font-size="10.00">+ getLineItem()</text>
<text text-anchor="start" x="131.5" y="-211.5" font-family="Helvetica,sans-Serif" font-size="10.00">+ size()</text>
<text text-anchor="start" x="131.5" y="-200.5" font-family="Helvetica,sans-Serif" font-size="10.00">+ orderInfo()</text>
<text text-anchor="start" x="131.5" y="-189.5" font-family="Helvetica,sans-Serif" font-size="10.00">+ createdDate()</text>
<text text-anchor="start" x="131.5" y="-178.5" font-family="Helvetica,sans-Serif" font-size="10.00">+ totalIncVat()</text>
<text text-anchor="start" x="131.5" y="-167.5" font-family="Helvetica,sans-Serif" font-size="10.00">+ totalExVat()</text>
<text text-anchor="start" x="131.5" y="-156.5" font-family="Helvetica,sans-Serif" font-size="10.00">+ invoiceNumber()</text>
<text text-anchor="start" x="131.5" y="-145.5" font-family="Helvetica,sans-Serif" font-size="10.00">+ format()</text>
<text text-anchor="start" x="131.5" y="-134.5" font-family="Helvetica,sans-Serif" font-size="10.00">+ iterator()</text>
<text text-anchor="start" x="131.5" y="-123.5" font-family="Helvetica,sans-Serif" font-size="10.00"># generateLineItems()</text>
<text text-anchor="start" x="131.5" y="-112.5" font-family="Helvetica,sans-Serif" font-size="10.00">&#45; adjustPrices()</text>
</g>
<!-- Node3 -->
<g id="node3" class="node"><title>Node3</title>
<g id="a_node3"><a xlink:href="classcom_1_1tomoparts_1_1tomoBay_1_1model_1_1dataTypes_1_1financial_1_1SalesOrderDayBook_1_1concreteLineTypes_1_1GSPInvoice.html" target="_top" xlink:title="{GSPInvoice\n||+ GSPInvoice()\l# generateLineItems()\l}">
<polygon fill="white" stroke="black" points="0,-0.5 0,-68.5 125,-68.5 125,-0.5 0,-0.5"/>
<text text-anchor="middle" x="62.5" y="-56.5" font-family="Helvetica,sans-Serif" font-size="10.00">GSPInvoice</text>
<polyline fill="none" stroke="black" points="0,-49.5 125,-49.5 "/>
<text text-anchor="middle" x="62.5" y="-37.5" font-family="Helvetica,sans-Serif" font-size="10.00"> </text>
<polyline fill="none" stroke="black" points="0,-30.5 125,-30.5 "/>
<text text-anchor="start" x="8" y="-18.5" font-family="Helvetica,sans-Serif" font-size="10.00">+ GSPInvoice()</text>
<text text-anchor="start" x="8" y="-7.5" font-family="Helvetica,sans-Serif" font-size="10.00"># generateLineItems()</text>
</a>
</g>
</g>
<!-- Node1&#45;&gt;Node3 -->
<g id="edge2" class="edge"><title>Node1&#45;&gt;Node3</title>
<path fill="none" stroke="midnightblue" d="M116.629,-99.4712C107.303,-88.4489 98.3962,-77.9227 90.5976,-68.7062"/>
<polygon fill="none" stroke="midnightblue" points="114.014,-101.798 123.145,-107.171 119.357,-97.2765 114.014,-101.798"/>
</g>
<!-- Node4 -->
<g id="node4" class="node"><title>Node4</title>
<g id="a_node4"><a xlink:href="classcom_1_1tomoparts_1_1tomoBay_1_1model_1_1dataTypes_1_1financial_1_1SalesOrderDayBook_1_1conc7e5bfa2ca7d29ae399a076f000f5c217.html" target="_top" xlink:title="This class represents a standard invoice without extra shipping. ">
<polygon fill="white" stroke="black" points="143,-0.5 143,-68.5 268,-68.5 268,-0.5 143,-0.5"/>
<text text-anchor="middle" x="205.5" y="-56.5" font-family="Helvetica,sans-Serif" font-size="10.00">StandardInvoice</text>
<polyline fill="none" stroke="black" points="143,-49.5 268,-49.5 "/>
<text text-anchor="middle" x="205.5" y="-37.5" font-family="Helvetica,sans-Serif" font-size="10.00"> </text>
<polyline fill="none" stroke="black" points="143,-30.5 268,-30.5 "/>
<text text-anchor="start" x="151" y="-18.5" font-family="Helvetica,sans-Serif" font-size="10.00">+ StandardInvoice()</text>
<text text-anchor="start" x="151" y="-7.5" font-family="Helvetica,sans-Serif" font-size="10.00"># generateLineItems()</text>
</a>
</g>
</g>
<!-- Node1&#45;&gt;Node4 -->
<g id="edge3" class="edge"><title>Node1&#45;&gt;Node4</title>
<path fill="none" stroke="midnightblue" d="M205.5,-94.9218C205.5,-85.5767 205.5,-76.6815 205.5,-68.7534"/>
<polygon fill="none" stroke="midnightblue" points="202,-95.2144 205.5,-105.214 209,-95.2145 202,-95.2144"/>
</g>
<!-- Node5 -->
<g id="node5" class="node"><title>Node5</title>
<g id="a_node5"><a xlink:href="classcom_1_1tomoparts_1_1tomoBay_1_1model_1_1dataTypes_1_1financial_1_1SalesOrderDayBook_1_1conc423d5799d246db2ad40dc7ffc82f40db.html" target="_top" xlink:title="{StandardInvoiceWithShipping\n||+ StandardInvoiceWithShipping()\l# generateLineItems()\l}">
<polygon fill="white" stroke="black" points="286.5,-0.5 286.5,-68.5 460.5,-68.5 460.5,-0.5 286.5,-0.5"/>
<text text-anchor="middle" x="373.5" y="-56.5" font-family="Helvetica,sans-Serif" font-size="10.00">StandardInvoiceWithShipping</text>
<polyline fill="none" stroke="black" points="286.5,-49.5 460.5,-49.5 "/>
<text text-anchor="middle" x="373.5" y="-37.5" font-family="Helvetica,sans-Serif" font-size="10.00"> </text>
<polyline fill="none" stroke="black" points="286.5,-30.5 460.5,-30.5 "/>
<text text-anchor="start" x="294.5" y="-18.5" font-family="Helvetica,sans-Serif" font-size="10.00">+ StandardInvoiceWithShipping()</text>
<text text-anchor="start" x="294.5" y="-7.5" font-family="Helvetica,sans-Serif" font-size="10.00"># generateLineItems()</text>
</a>
</g>
</g>
<!-- Node1&#45;&gt;Node5 -->
<g id="edge4" class="edge"><title>Node1&#45;&gt;Node5</title>
<path fill="none" stroke="midnightblue" d="M294.589,-114.88C311.037,-98.3343 327.225,-82.0509 340.615,-68.5804"/>
<polygon fill="none" stroke="midnightblue" points="292.099,-112.421 287.531,-121.98 297.064,-117.356 292.099,-112.421"/>
</g>
<!-- Node2 -->
<g id="node2" class="node"><title>Node2</title>
<polygon fill="white" stroke="#bfbfbf" points="127,-342.5 127,-399.5 284,-399.5 284,-342.5 127,-342.5"/>
<text text-anchor="middle" x="205.5" y="-387.5" font-family="Helvetica,sans-Serif" font-size="10.00">Iterable&lt; AbstractLineItem &gt;</text>
<polyline fill="none" stroke="#bfbfbf" points="127,-380.5 284,-380.5 "/>
<text text-anchor="middle" x="205.5" y="-368.5" font-family="Helvetica,sans-Serif" font-size="10.00"> </text>
<polyline fill="none" stroke="#bfbfbf" points="127,-361.5 284,-361.5 "/>
<text text-anchor="middle" x="205.5" y="-349.5" font-family="Helvetica,sans-Serif" font-size="10.00"> </text>
</g>
<!-- Node2&#45;&gt;Node1 -->
<g id="edge1" class="edge"><title>Node2&#45;&gt;Node1</title>
<path fill="none" stroke="midnightblue" d="M205.5,-332.04C205.5,-323.867 205.5,-314.865 205.5,-305.549"/>
<polygon fill="none" stroke="midnightblue" points="202,-332.264 205.5,-342.264 209,-332.264 202,-332.264"/>
</g>
</g>
</svg>
