<?xml version="1.0" encoding="UTF-8" standalone="no"?>
<!DOCTYPE svg PUBLIC "-//W3C//DTD SVG 1.1//EN"
 "http://www.w3.org/Graphics/SVG/1.1/DTD/svg11.dtd">
<!-- Generated by graphviz version 2.38.0 (20140413.2041)
 -->
<!-- Title: toString Pages: 1 -->
<svg width="1020pt" height="235pt"
 viewBox="0.00 0.00 1020.00 235.00" xmlns="http://www.w3.org/2000/svg" xmlns:xlink="http://www.w3.org/1999/xlink">
<g id="graph0" class="graph" transform="scale(1 1) rotate(0) translate(4 231)">
<title>toString</title>
<polygon fill="white" stroke="none" points="-4,4 -4,-231 1016,-231 1016,4 -4,4"/>
<!-- Node1 -->
<g id="node1" class="node"><title>Node1</title>
<polygon fill="#bfbfbf" stroke="black" points="0,-104 0,-123 55,-123 55,-104 0,-104"/>
<text text-anchor="middle" x="27.5" y="-111" font-family="Helvetica,sans-Serif" font-size="10.00">toString</text>
</g>
<!-- Node2 -->
<g id="node2" class="node"><title>Node2</title>
<g id="a_node2"><a xlink:href="classcom_1_1tomoparts_1_1tomoBay_1_1model_1_1services_1_1basicEbayUpdateService_1_1OnRunning.html#ae4a4f4cadce2787c7e80005639fbd5d9" target="_top" xlink:title="this method defines what to do in the given derived state ">
<polygon fill="white" stroke="black" points="101,-196.5 101,-226.5 341,-226.5 341,-196.5 101,-196.5"/>
<text text-anchor="start" x="109" y="-214.5" font-family="Helvetica,sans-Serif" font-size="10.00">com.tomoparts.tomoBay.model.services.basic</text>
<text text-anchor="middle" x="221" y="-203.5" font-family="Helvetica,sans-Serif" font-size="10.00">EbayUpdateService.OnRunning.execute</text>
</a>
</g>
</g>
<!-- Node1&#45;&gt;Node2 -->
<g id="edge1" class="edge"><title>Node1&#45;&gt;Node2</title>
<path fill="none" stroke="midnightblue" d="M38.7398,-131.654C49.4613,-148.888 67.9403,-174.091 91,-187.5 96.9078,-190.935 103.203,-193.895 109.712,-196.444"/>
<polygon fill="midnightblue" stroke="midnightblue" points="41.7253,-129.827 33.6017,-123.026 35.7109,-133.409 41.7253,-129.827"/>
</g>
<!-- Node5 -->
<g id="node5" class="node"><title>Node5</title>
<g id="a_node5"><a xlink:href="classcom_1_1tomoparts_1_1tomoBay_1_1model_1_1services_1_1individualItemRefreshService_1_1OnRunning.html#ac963522e7548952e01f9292cf94880ed" target="_top" xlink:title="use the itemID passed in to find out information about a specific eBay item. ">
<polygon fill="white" stroke="black" points="91,-147.5 91,-177.5 351,-177.5 351,-147.5 91,-147.5"/>
<text text-anchor="start" x="99" y="-165.5" font-family="Helvetica,sans-Serif" font-size="10.00">com.tomoparts.tomoBay.model.services.individual</text>
<text text-anchor="middle" x="221" y="-154.5" font-family="Helvetica,sans-Serif" font-size="10.00">ItemRefreshService.OnRunning.getItemData</text>
</a>
</g>
</g>
<!-- Node1&#45;&gt;Node5 -->
<g id="edge4" class="edge"><title>Node1&#45;&gt;Node5</title>
<path fill="none" stroke="midnightblue" d="M59.8494,-126.772C69.6976,-130.605 80.6923,-134.547 91,-137.5 103.939,-141.207 117.766,-144.533 131.384,-147.457"/>
<polygon fill="midnightblue" stroke="midnightblue" points="61.0362,-123.477 50.4514,-123.014 58.4375,-129.977 61.0362,-123.477"/>
</g>
<!-- Node8 -->
<g id="node8" class="node"><title>Node8</title>
<g id="a_node8"><a xlink:href="classcom_1_1tomoparts_1_1tomoBay_1_1model_1_1dataTypes_1_1order_1_1Order.html#a1a4a46cf487479c2676b3583be1adfc0" target="_top" xlink:title="initialise this order using the orderID provided ">
<polygon fill="white" stroke="black" points="123.5,-98.5 123.5,-128.5 318.5,-128.5 318.5,-98.5 123.5,-98.5"/>
<text text-anchor="start" x="131.5" y="-116.5" font-family="Helvetica,sans-Serif" font-size="10.00">com.tomoparts.tomoBay.model.data</text>
<text text-anchor="middle" x="221" y="-105.5" font-family="Helvetica,sans-Serif" font-size="10.00">Types.order.Order.Order</text>
</a>
</g>
</g>
<!-- Node1&#45;&gt;Node8 -->
<g id="edge7" class="edge"><title>Node1&#45;&gt;Node8</title>
<path fill="none" stroke="midnightblue" d="M65.4573,-113.5C82.0827,-113.5 102.566,-113.5 123.119,-113.5"/>
<polygon fill="midnightblue" stroke="midnightblue" points="65.1273,-110 55.1273,-113.5 65.1272,-117 65.1273,-110"/>
</g>
<!-- Node9 -->
<g id="node9" class="node"><title>Node9</title>
<g id="a_node9"><a xlink:href="classcom_1_1tomoparts_1_1tomoBay_1_1presenters_1_1presenterActions_1_1concreteActions_1_1PrintInvoices.html#a3396bf15e4a594abdeb16cb37f076ce2" target="_top" xlink:title="actually send the data to the winstock server to print the invoice ">
<polygon fill="white" stroke="black" points="100,-49.5 100,-79.5 342,-79.5 342,-49.5 100,-49.5"/>
<text text-anchor="start" x="108" y="-67.5" font-family="Helvetica,sans-Serif" font-size="10.00">com.tomoparts.tomoBay.presenters.presenter</text>
<text text-anchor="middle" x="221" y="-56.5" font-family="Helvetica,sans-Serif" font-size="10.00">Actions.concreteActions.PrintInvoices.print</text>
</a>
</g>
</g>
<!-- Node1&#45;&gt;Node9 -->
<g id="edge8" class="edge"><title>Node1&#45;&gt;Node9</title>
<path fill="none" stroke="midnightblue" d="M58.7609,-100.005C68.8652,-95.8751 80.2826,-91.6077 91,-88.5 102.486,-85.1693 114.687,-82.1954 126.826,-79.572"/>
<polygon fill="midnightblue" stroke="midnightblue" points="57.4042,-96.7783 49.5414,-103.88 60.1164,-103.232 57.4042,-96.7783"/>
</g>
<!-- Node11 -->
<g id="node11" class="node"><title>Node11</title>
<g id="a_node11"><a xlink:href="classcom_1_1tomoparts_1_1tomoBay_1_1model_1_1services_1_1ServiceScheduler.html#a46684698b1c0824da9f966a138908bc8" target="_top" xlink:title="starts the periodic services. ">
<polygon fill="white" stroke="black" points="113.5,-0.5 113.5,-30.5 328.5,-30.5 328.5,-0.5 113.5,-0.5"/>
<text text-anchor="start" x="121.5" y="-18.5" font-family="Helvetica,sans-Serif" font-size="10.00">com.tomoparts.tomoBay.model.services.</text>
<text text-anchor="middle" x="221" y="-7.5" font-family="Helvetica,sans-Serif" font-size="10.00">ServiceScheduler.start</text>
</a>
</g>
</g>
<!-- Node1&#45;&gt;Node11 -->
<g id="edge10" class="edge"><title>Node1&#45;&gt;Node11</title>
<path fill="none" stroke="midnightblue" d="M38.7398,-95.3455C49.4613,-78.1123 67.9403,-52.9089 91,-39.5 97.9909,-35.4349 105.524,-32.0356 113.313,-29.1958"/>
<polygon fill="midnightblue" stroke="midnightblue" points="35.7109,-93.5913 33.6017,-103.974 41.7253,-97.1728 35.7109,-93.5913"/>
</g>
<!-- Node3 -->
<g id="node3" class="node"><title>Node3</title>
<g id="a_node3"><a xlink:href="classcom_1_1tomoparts_1_1tomoBay_1_1model_1_1services_1_1basicEbayUpdateService_1_1BasicEbayUpdateService.html#ae3b0a282dcba7f2d675ca89b1dd48487" target="_top" xlink:title="com.tomoparts.tomoBay.model.services.basic\lEbayUpdateService.BasicEbayUpdateService.onRunning">
<polygon fill="white" stroke="black" points="387,-196.5 387,-226.5 673,-226.5 673,-196.5 387,-196.5"/>
<text text-anchor="start" x="395" y="-214.5" font-family="Helvetica,sans-Serif" font-size="10.00">com.tomoparts.tomoBay.model.services.basic</text>
<text text-anchor="middle" x="530" y="-203.5" font-family="Helvetica,sans-Serif" font-size="10.00">EbayUpdateService.BasicEbayUpdateService.onRunning</text>
</a>
</g>
</g>
<!-- Node2&#45;&gt;Node3 -->
<g id="edge2" class="edge"><title>Node2&#45;&gt;Node3</title>
<path fill="none" stroke="midnightblue" d="M351.393,-211.5C363.133,-211.5 375.065,-211.5 386.906,-211.5"/>
<polygon fill="midnightblue" stroke="midnightblue" points="351.134,-208 341.134,-211.5 351.134,-215 351.134,-208"/>
</g>
<!-- Node4 -->
<g id="node4" class="node"><title>Node4</title>
<g id="a_node4"><a xlink:href="classcom_1_1tomoparts_1_1tomoBay_1_1model_1_1services_1_1basicEbayUpdateService_1_1BasicEbayUpdateService.html#afd85cd6baa355d54ab15c19c16c21df9" target="_top" xlink:title="com.tomoparts.tomoBay.model.services.basic\lEbayUpdateService.BasicEbayUpdateService.onPaused">
<polygon fill="white" stroke="black" points="719,-196.5 719,-226.5 1002,-226.5 1002,-196.5 719,-196.5"/>
<text text-anchor="start" x="727" y="-214.5" font-family="Helvetica,sans-Serif" font-size="10.00">com.tomoparts.tomoBay.model.services.basic</text>
<text text-anchor="middle" x="860.5" y="-203.5" font-family="Helvetica,sans-Serif" font-size="10.00">EbayUpdateService.BasicEbayUpdateService.onPaused</text>
</a>
</g>
</g>
<!-- Node3&#45;&gt;Node4 -->
<g id="edge3" class="edge"><title>Node3&#45;&gt;Node4</title>
<path fill="none" stroke="midnightblue" d="M683.52,-211.5C695.324,-211.5 707.209,-211.5 718.929,-211.5"/>
<polygon fill="midnightblue" stroke="midnightblue" points="683.174,-208 673.174,-211.5 683.174,-215 683.174,-208"/>
</g>
<!-- Node6 -->
<g id="node6" class="node"><title>Node6</title>
<g id="a_node6"><a xlink:href="classcom_1_1tomoparts_1_1tomoBay_1_1model_1_1services_1_1individualItemRefreshService_1_1OnRunning.html#ae4a4f4cadce2787c7e80005639fbd5d9" target="_top" xlink:title="this method defines what to do in the given derived state ">
<polygon fill="white" stroke="black" points="400,-147.5 400,-177.5 660,-177.5 660,-147.5 400,-147.5"/>
<text text-anchor="start" x="408" y="-165.5" font-family="Helvetica,sans-Serif" font-size="10.00">com.tomoparts.tomoBay.model.services.individual</text>
<text text-anchor="middle" x="530" y="-154.5" font-family="Helvetica,sans-Serif" font-size="10.00">ItemRefreshService.OnRunning.execute</text>
</a>
</g>
</g>
<!-- Node5&#45;&gt;Node6 -->
<g id="edge5" class="edge"><title>Node5&#45;&gt;Node6</title>
<path fill="none" stroke="midnightblue" d="M361.51,-162.5C374.277,-162.5 387.174,-162.5 399.844,-162.5"/>
<polygon fill="midnightblue" stroke="midnightblue" points="361.306,-159 351.306,-162.5 361.306,-166 361.306,-159"/>
</g>
<!-- Node7 -->
<g id="node7" class="node"><title>Node7</title>
<g id="a_node7"><a xlink:href="classcom_1_1tomoparts_1_1tomoBay_1_1model_1_1services_1_1individualItemRefreshService_1_1IndividualItemRefreshService.html#ae3b0a282dcba7f2d675ca89b1dd48487" target="_top" xlink:title="com.tomoparts.tomoBay.model.services.individual\lItemRefreshService.IndividualItemRefreshService.onRunning">
<polygon fill="white" stroke="black" points="709,-147.5 709,-177.5 1012,-177.5 1012,-147.5 709,-147.5"/>
<text text-anchor="start" x="717" y="-165.5" font-family="Helvetica,sans-Serif" font-size="10.00">com.tomoparts.tomoBay.model.services.individual</text>
<text text-anchor="middle" x="860.5" y="-154.5" font-family="Helvetica,sans-Serif" font-size="10.00">ItemRefreshService.IndividualItemRefreshService.onRunning</text>
</a>
</g>
</g>
<!-- Node6&#45;&gt;Node7 -->
<g id="edge6" class="edge"><title>Node6&#45;&gt;Node7</title>
<path fill="none" stroke="midnightblue" d="M670.471,-162.5C683.138,-162.5 696.007,-162.5 708.767,-162.5"/>
<polygon fill="midnightblue" stroke="midnightblue" points="670.36,-159 660.36,-162.5 670.36,-166 670.36,-159"/>
</g>
<!-- Node10 -->
<g id="node10" class="node"><title>Node10</title>
<g id="a_node10"><a xlink:href="classcom_1_1tomoparts_1_1tomoBay_1_1presenters_1_1presenterActions_1_1concreteActions_1_1PrintInvoices.html#adb3dedf31dc2c7fc796f20406c235ccd" target="_top" xlink:title="performs the action specified ">
<polygon fill="white" stroke="black" points="409,-49.5 409,-79.5 651,-79.5 651,-49.5 409,-49.5"/>
<text text-anchor="start" x="417" y="-67.5" font-family="Helvetica,sans-Serif" font-size="10.00">com.tomoparts.tomoBay.presenters.presenter</text>
<text text-anchor="middle" x="530" y="-56.5" font-family="Helvetica,sans-Serif" font-size="10.00">Actions.concreteActions.PrintInvoices.execute</text>
</a>
</g>
</g>
<!-- Node9&#45;&gt;Node10 -->
<g id="edge9" class="edge"><title>Node9&#45;&gt;Node10</title>
<path fill="none" stroke="midnightblue" d="M352.104,-64.5C370.917,-64.5 390.211,-64.5 408.818,-64.5"/>
<polygon fill="midnightblue" stroke="midnightblue" points="352.013,-61.0001 342.013,-64.5 352.013,-68.0001 352.013,-61.0001"/>
</g>
<!-- Node12 -->
<g id="node12" class="node"><title>Node12</title>
<g id="a_node12"><a xlink:href="classcom_1_1tomoparts_1_1tomoBay_1_1MAIN.html#a61e38df44ecd3cfa182ce847a01fa2c7" target="_top" xlink:title="com.tomoparts.tomoBay.MAIN.main">
<polygon fill="white" stroke="black" points="434,-6 434,-25 626,-25 626,-6 434,-6"/>
<text text-anchor="middle" x="530" y="-13" font-family="Helvetica,sans-Serif" font-size="10.00">com.tomoparts.tomoBay.MAIN.main</text>
</a>
</g>
</g>
<!-- Node11&#45;&gt;Node12 -->
<g id="edge11" class="edge"><title>Node11&#45;&gt;Node12</title>
<path fill="none" stroke="midnightblue" d="M338.65,-15.5C370.134,-15.5 403.817,-15.5 433.962,-15.5"/>
<polygon fill="midnightblue" stroke="midnightblue" points="338.512,-12.0001 328.512,-15.5 338.512,-19.0001 338.512,-12.0001"/>
</g>
</g>
</svg>
