<?xml version="1.0" encoding="UTF-8" standalone="no"?>
<!DOCTYPE svg PUBLIC "-//W3C//DTD SVG 1.1//EN"
 "http://www.w3.org/Graphics/SVG/1.1/DTD/svg11.dtd">
<!-- Generated by graphviz version 2.38.0 (20140413.2041)
 -->
<!-- Title: SelectAccounts Pages: 1 -->
<svg width="215pt" height="533pt"
 viewBox="0.00 0.00 214.50 533.00" xmlns="http://www.w3.org/2000/svg" xmlns:xlink="http://www.w3.org/1999/xlink">
<g id="graph0" class="graph" transform="scale(1 1) rotate(0) translate(4 529)">
<title>SelectAccounts</title>
<polygon fill="white" stroke="none" points="-4,4 -4,-529 210.5,-529 210.5,4 -4,4"/>
<!-- Node1 -->
<g id="node1" class="node"><title>Node1</title>
<polygon fill="#bfbfbf" stroke="black" points="37.5,-0.5 37.5,-79.5 147.5,-79.5 147.5,-0.5 37.5,-0.5"/>
<text text-anchor="middle" x="92.5" y="-67.5" font-family="Helvetica,sans-Serif" font-size="10.00">SelectAccounts</text>
<polyline fill="none" stroke="black" points="37.5,-60.5 147.5,-60.5 "/>
<text text-anchor="start" x="45.5" y="-48.5" font-family="Helvetica,sans-Serif" font-size="10.00">&#45; query</text>
<polyline fill="none" stroke="black" points="37.5,-41.5 147.5,-41.5 "/>
<text text-anchor="start" x="45.5" y="-29.5" font-family="Helvetica,sans-Serif" font-size="10.00">+ SelectAccounts()</text>
<text text-anchor="start" x="45.5" y="-18.5" font-family="Helvetica,sans-Serif" font-size="10.00"># format()</text>
<text text-anchor="start" x="45.5" y="-7.5" font-family="Helvetica,sans-Serif" font-size="10.00"># queryString()</text>
</g>
<!-- Node2 -->
<g id="node2" class="node"><title>Node2</title>
<g id="a_node2"><a xlink:href="classcom_1_1tomoparts_1_1tomoBay_1_1model_1_1sql_1_1framework_1_1queryTypes_1_1select_1_1AbstractSelectNoParamsQuery.html" target="_top" xlink:title="This class defines the Abstract base for all Select queries that do not require parameters. ">
<polygon fill="white" stroke="black" points="0,-117.5 0,-196.5 185,-196.5 185,-117.5 0,-117.5"/>
<text text-anchor="middle" x="92.5" y="-184.5" font-family="Helvetica,sans-Serif" font-size="10.00">AbstractSelectNoParamsQuery</text>
<polyline fill="none" stroke="black" points="0,-177.5 185,-177.5 "/>
<text text-anchor="middle" x="92.5" y="-165.5" font-family="Helvetica,sans-Serif" font-size="10.00"> </text>
<polyline fill="none" stroke="black" points="0,-158.5 185,-158.5 "/>
<text text-anchor="start" x="8" y="-146.5" font-family="Helvetica,sans-Serif" font-size="10.00">+ AbstractSelectNoParamsQuery()</text>
<text text-anchor="start" x="8" y="-135.5" font-family="Helvetica,sans-Serif" font-size="10.00">+ execute()</text>
<text text-anchor="start" x="8" y="-124.5" font-family="Helvetica,sans-Serif" font-size="10.00"># initQuery()</text>
</a>
</g>
</g>
<!-- Node2&#45;&gt;Node1 -->
<g id="edge1" class="edge"><title>Node2&#45;&gt;Node1</title>
<path fill="none" stroke="midnightblue" d="M92.5,-107.199C92.5,-98.016 92.5,-88.5299 92.5,-79.7071"/>
<polygon fill="none" stroke="midnightblue" points="89.0001,-107.387 92.5,-117.387 96.0001,-107.387 89.0001,-107.387"/>
</g>
<!-- Node3 -->
<g id="node3" class="node"><title>Node3</title>
<g id="a_node3"><a xlink:href="classcom_1_1tomoparts_1_1tomoBay_1_1model_1_1sql_1_1framework_1_1queryTypes_1_1select_1_1AbstractSelectQuery.html" target="_top" xlink:title="{AbstractSelectQuery\n||+ AbstractSelectQuery()\l# format()\l}">
<polygon fill="white" stroke="black" points="25.5,-234.5 25.5,-302.5 159.5,-302.5 159.5,-234.5 25.5,-234.5"/>
<text text-anchor="middle" x="92.5" y="-290.5" font-family="Helvetica,sans-Serif" font-size="10.00">AbstractSelectQuery</text>
<polyline fill="none" stroke="black" points="25.5,-283.5 159.5,-283.5 "/>
<text text-anchor="middle" x="92.5" y="-271.5" font-family="Helvetica,sans-Serif" font-size="10.00"> </text>
<polyline fill="none" stroke="black" points="25.5,-264.5 159.5,-264.5 "/>
<text text-anchor="start" x="33.5" y="-252.5" font-family="Helvetica,sans-Serif" font-size="10.00">+ AbstractSelectQuery()</text>
<text text-anchor="start" x="33.5" y="-241.5" font-family="Helvetica,sans-Serif" font-size="10.00"># format()</text>
</a>
</g>
</g>
<!-- Node3&#45;&gt;Node2 -->
<g id="edge2" class="edge"><title>Node3&#45;&gt;Node2</title>
<path fill="none" stroke="midnightblue" d="M92.5,-224.339C92.5,-215.254 92.5,-205.724 92.5,-196.81"/>
<polygon fill="none" stroke="midnightblue" points="89.0001,-224.349 92.5,-234.349 96.0001,-224.349 89.0001,-224.349"/>
</g>
<!-- Node4 -->
<g id="node4" class="node"><title>Node4</title>
<g id="a_node4"><a xlink:href="classcom_1_1tomoparts_1_1tomoBay_1_1model_1_1sql_1_1framework_1_1queryTypes_1_1AbstractDBQuery.html" target="_top" xlink:title="Interface that all database queries must adhere to. ">
<polygon fill="white" stroke="black" points="42.5,-340.5 42.5,-419.5 142.5,-419.5 142.5,-340.5 42.5,-340.5"/>
<text text-anchor="middle" x="92.5" y="-407.5" font-family="Helvetica,sans-Serif" font-size="10.00">AbstractDBQuery</text>
<polyline fill="none" stroke="black" points="42.5,-400.5 142.5,-400.5 "/>
<text text-anchor="middle" x="92.5" y="-388.5" font-family="Helvetica,sans-Serif" font-size="10.00"> </text>
<polyline fill="none" stroke="black" points="42.5,-381.5 142.5,-381.5 "/>
<text text-anchor="start" x="50.5" y="-369.5" font-family="Helvetica,sans-Serif" font-size="10.00">+ statement()</text>
<text text-anchor="start" x="50.5" y="-358.5" font-family="Helvetica,sans-Serif" font-size="10.00"># queryString()</text>
<text text-anchor="start" x="50.5" y="-347.5" font-family="Helvetica,sans-Serif" font-size="10.00"># cleanup()</text>
</a>
</g>
</g>
<!-- Node4&#45;&gt;Node3 -->
<g id="edge3" class="edge"><title>Node4&#45;&gt;Node3</title>
<path fill="none" stroke="midnightblue" d="M92.5,-330.381C92.5,-321.016 92.5,-311.409 92.5,-302.674"/>
<polygon fill="none" stroke="midnightblue" points="89.0001,-330.394 92.5,-340.394 96.0001,-330.394 89.0001,-330.394"/>
</g>
<!-- Node5 -->
<g id="node5" class="node"><title>Node5</title>
<polygon fill="white" stroke="#bfbfbf" points="2,-467.5 2,-524.5 73,-524.5 73,-467.5 2,-467.5"/>
<text text-anchor="middle" x="37.5" y="-512.5" font-family="Helvetica,sans-Serif" font-size="10.00">Connection</text>
<polyline fill="none" stroke="#bfbfbf" points="2,-505.5 73,-505.5 "/>
<text text-anchor="middle" x="37.5" y="-493.5" font-family="Helvetica,sans-Serif" font-size="10.00"> </text>
<polyline fill="none" stroke="#bfbfbf" points="2,-486.5 73,-486.5 "/>
<text text-anchor="middle" x="37.5" y="-474.5" font-family="Helvetica,sans-Serif" font-size="10.00"> </text>
</g>
<!-- Node5&#45;&gt;Node4 -->
<g id="edge4" class="edge"><title>Node5&#45;&gt;Node4</title>
<path fill="none" stroke="#404040" d="M39.5838,-467.223C41.0189,-457.659 43.4353,-447.078 47.5,-438 48.7398,-435.231 50.1441,-432.479 51.671,-429.765"/>
<polygon fill="none" stroke="#404040" points="51.7101,-429.703 51.5049,-422.495 58.0796,-419.533 58.2849,-426.741 51.7101,-429.703"/>
<text text-anchor="middle" x="86.5" y="-441" font-family="Helvetica,sans-Serif" font-size="10.00"> #connection_M</text>
</g>
<!-- Node6 -->
<g id="node6" class="node"><title>Node6</title>
<polygon fill="white" stroke="#bfbfbf" points="91.5,-467.5 91.5,-524.5 203.5,-524.5 203.5,-467.5 91.5,-467.5"/>
<text text-anchor="middle" x="147.5" y="-512.5" font-family="Helvetica,sans-Serif" font-size="10.00">PreparedStatement</text>
<polyline fill="none" stroke="#bfbfbf" points="91.5,-505.5 203.5,-505.5 "/>
<text text-anchor="middle" x="147.5" y="-493.5" font-family="Helvetica,sans-Serif" font-size="10.00"> </text>
<polyline fill="none" stroke="#bfbfbf" points="91.5,-486.5 203.5,-486.5 "/>
<text text-anchor="middle" x="147.5" y="-474.5" font-family="Helvetica,sans-Serif" font-size="10.00"> </text>
</g>
<!-- Node6&#45;&gt;Node4 -->
<g id="edge5" class="edge"><title>Node6&#45;&gt;Node4</title>
<path fill="none" stroke="#404040" d="M137.834,-467.378C134.266,-457.926 129.989,-447.376 125.5,-438 124.271,-435.433 122.969,-432.826 121.619,-430.212"/>
<polygon fill="none" stroke="#404040" points="121.547,-430.077 115.185,-426.681 115.873,-419.503 122.235,-422.899 121.547,-430.077"/>
<text text-anchor="middle" x="168.5" y="-441" font-family="Helvetica,sans-Serif" font-size="10.00"> #statement_M</text>
</g>
</g>
</svg>
