<?xml version="1.0" encoding="UTF-8" standalone="no"?>
<!DOCTYPE svg PUBLIC "-//W3C//DTD SVG 1.1//EN"
 "http://www.w3.org/Graphics/SVG/1.1/DTD/svg11.dtd">
<!-- Generated by graphviz version 2.38.0 (20140413.2041)
 -->
<!-- Title: name Pages: 1 -->
<svg width="1261pt" height="296pt"
 viewBox="0.00 0.00 1261.00 295.50" xmlns="http://www.w3.org/2000/svg" xmlns:xlink="http://www.w3.org/1999/xlink">
<g id="graph0" class="graph" transform="scale(1 1) rotate(0) translate(4 291.5)">
<title>name</title>
<polygon fill="white" stroke="none" points="-4,4 -4,-291.5 1257,-291.5 1257,4 -4,4"/>
<!-- Node1 -->
<g id="node1" class="node"><title>Node1</title>
<polygon fill="#bfbfbf" stroke="black" points="0,-104 0,-123 44,-123 44,-104 0,-104"/>
<text text-anchor="middle" x="22" y="-111" font-family="Helvetica,sans-Serif" font-size="10.00">name</text>
</g>
<!-- Node2 -->
<g id="node2" class="node"><title>Node2</title>
<g id="a_node2"><a xlink:href="classcom_1_1tomoparts_1_1tomoBay_1_1model_1_1dataTypes_1_1order_1_1Order.html#af1b2ba6868fd8d054a2c7f40f8a8b6e0" target="_top" xlink:title="retrieve the account that this order is associated with ">
<polygon fill="white" stroke="black" points="112.5,-196.5 112.5,-226.5 307.5,-226.5 307.5,-196.5 112.5,-196.5"/>
<text text-anchor="start" x="120.5" y="-214.5" font-family="Helvetica,sans-Serif" font-size="10.00">com.tomoparts.tomoBay.model.data</text>
<text text-anchor="middle" x="210" y="-203.5" font-family="Helvetica,sans-Serif" font-size="10.00">Types.order.Order.account</text>
</a>
</g>
</g>
<!-- Node1&#45;&gt;Node2 -->
<g id="edge1" class="edge"><title>Node1&#45;&gt;Node2</title>
<path fill="none" stroke="midnightblue" d="M32.4472,-132.112C42.0556,-149.056 58.5668,-173.37 80,-186.5 89.9208,-192.578 101.009,-197.226 112.405,-200.773"/>
<polygon fill="midnightblue" stroke="midnightblue" points="35.4295,-130.268 27.6025,-123.128 29.2682,-133.591 35.4295,-130.268"/>
</g>
<!-- Node8 -->
<g id="node8" class="node"><title>Node8</title>
<g id="a_node8"><a xlink:href="classcom_1_1tomoparts_1_1tomoBay_1_1model_1_1services_1_1reScanBuyerService_1_1OnRunning.html#ae4a4f4cadce2787c7e80005639fbd5d9" target="_top" xlink:title="this method defines what to do in the given derived state ">
<polygon fill="white" stroke="black" points="97.5,-147.5 97.5,-177.5 322.5,-177.5 322.5,-147.5 97.5,-147.5"/>
<text text-anchor="start" x="105.5" y="-165.5" font-family="Helvetica,sans-Serif" font-size="10.00">com.tomoparts.tomoBay.model.services.re</text>
<text text-anchor="middle" x="210" y="-154.5" font-family="Helvetica,sans-Serif" font-size="10.00">ScanBuyerService.OnRunning.execute</text>
</a>
</g>
</g>
<!-- Node1&#45;&gt;Node8 -->
<g id="edge7" class="edge"><title>Node1&#45;&gt;Node8</title>
<path fill="none" stroke="midnightblue" d="M52.3413,-127.222C61.1015,-130.944 70.8189,-134.71 80,-137.5 92.3324,-141.247 105.505,-144.558 118.546,-147.443"/>
<polygon fill="midnightblue" stroke="midnightblue" points="53.5004,-123.909 42.9369,-123.094 50.6867,-130.318 53.5004,-123.909"/>
</g>
<!-- Node11 -->
<g id="node11" class="node"><title>Node11</title>
<g id="a_node11"><a xlink:href="classcom_1_1tomoparts_1_1tomoBay_1_1view_1_1views_1_1salesOrderView_1_1SalesOrderView.html#a5724666c8c61c4e2ef28d5364c8c13d0" target="_top" xlink:title="this method is responsible for formatting the data as required for the specific derived view ...">
<polygon fill="white" stroke="black" points="101.5,-98.5 101.5,-128.5 318.5,-128.5 318.5,-98.5 101.5,-98.5"/>
<text text-anchor="start" x="109.5" y="-116.5" font-family="Helvetica,sans-Serif" font-size="10.00">com.tomoparts.tomoBay.view.views.sales</text>
<text text-anchor="middle" x="210" y="-105.5" font-family="Helvetica,sans-Serif" font-size="10.00">OrderView.SalesOrderView.format</text>
</a>
</g>
</g>
<!-- Node1&#45;&gt;Node11 -->
<g id="edge10" class="edge"><title>Node1&#45;&gt;Node11</title>
<path fill="none" stroke="midnightblue" d="M54.7248,-113.5C67.9919,-113.5 84.2569,-113.5 101.194,-113.5"/>
<polygon fill="midnightblue" stroke="midnightblue" points="54.3366,-110 44.3366,-113.5 54.3365,-117 54.3366,-110"/>
</g>
<!-- Node12 -->
<g id="node12" class="node"><title>Node12</title>
<g id="a_node12"><a xlink:href="classcom_1_1tomoparts_1_1tomoBay_1_1model_1_1services_1_1individualItemRefreshService_1_1OnRunning.html#ac963522e7548952e01f9292cf94880ed" target="_top" xlink:title="use the itemID passed in to find out information about a specific eBay item. ">
<polygon fill="white" stroke="black" points="80,-49.5 80,-79.5 340,-79.5 340,-49.5 80,-49.5"/>
<text text-anchor="start" x="88" y="-67.5" font-family="Helvetica,sans-Serif" font-size="10.00">com.tomoparts.tomoBay.model.services.individual</text>
<text text-anchor="middle" x="210" y="-56.5" font-family="Helvetica,sans-Serif" font-size="10.00">ItemRefreshService.OnRunning.getItemData</text>
</a>
</g>
</g>
<!-- Node1&#45;&gt;Node12 -->
<g id="edge11" class="edge"><title>Node1&#45;&gt;Node12</title>
<path fill="none" stroke="midnightblue" d="M51.1393,-99.6314C60.1887,-95.588 70.368,-91.4652 80,-88.5 90.9948,-85.1153 102.672,-82.1321 114.334,-79.5236"/>
<polygon fill="midnightblue" stroke="midnightblue" points="49.451,-96.556 41.8427,-103.929 52.3884,-102.91 49.451,-96.556"/>
</g>
<!-- Node15 -->
<g id="node15" class="node"><title>Node15</title>
<g id="a_node15"><a xlink:href="classcom_1_1tomoparts_1_1tomoBay_1_1model_1_1services_1_1reScanErrorsService_1_1ItemSpecifics.html#a15839159a196a40202a2dd1e25a89423" target="_top" xlink:title="constructor creates an ItemSpecifics object for the itemID passed in as an argument. ">
<polygon fill="white" stroke="black" points="91,-0.5 91,-30.5 329,-30.5 329,-0.5 91,-0.5"/>
<text text-anchor="start" x="99" y="-18.5" font-family="Helvetica,sans-Serif" font-size="10.00">com.tomoparts.tomoBay.model.services.re</text>
<text text-anchor="middle" x="210" y="-7.5" font-family="Helvetica,sans-Serif" font-size="10.00">ScanErrorsService.ItemSpecifics.ItemSpecifics</text>
</a>
</g>
</g>
<!-- Node1&#45;&gt;Node15 -->
<g id="edge14" class="edge"><title>Node1&#45;&gt;Node15</title>
<path fill="none" stroke="midnightblue" d="M32.2088,-94.8731C41.7326,-77.661 58.2623,-52.8034 80,-39.5 85.6348,-36.0515 91.6483,-33.0764 97.8825,-30.5116"/>
<polygon fill="midnightblue" stroke="midnightblue" points="28.9774,-93.4984 27.4244,-103.979 35.1741,-96.7543 28.9774,-93.4984"/>
</g>
<!-- Node3 -->
<g id="node3" class="node"><title>Node3</title>
<g id="a_node3"><a xlink:href="classcom_1_1tomoparts_1_1tomoBay_1_1presenters_1_1presenterActions_1_1concreteActions_1_1InvoiceOrders.html#a589f75735e26f66e44061ac5047d0cf0" target="_top" xlink:title="com.tomoparts.tomoBay.presenters.presenter\lActions.concreteActions.InvoiceOrders.format\lMailResult">
<polygon fill="white" stroke="black" points="385,-246 385,-287 627,-287 627,-246 385,-246"/>
<text text-anchor="start" x="393" y="-275" font-family="Helvetica,sans-Serif" font-size="10.00">com.tomoparts.tomoBay.presenters.presenter</text>
<text text-anchor="start" x="393" y="-264" font-family="Helvetica,sans-Serif" font-size="10.00">Actions.concreteActions.InvoiceOrders.format</text>
<text text-anchor="middle" x="506" y="-253" font-family="Helvetica,sans-Serif" font-size="10.00">MailResult</text>
</a>
</g>
</g>
<!-- Node2&#45;&gt;Node3 -->
<g id="edge2" class="edge"><title>Node2&#45;&gt;Node3</title>
<path fill="none" stroke="midnightblue" d="M301.259,-228.385C330.954,-233.94 364.298,-240.178 395.277,-245.974"/>
<polygon fill="midnightblue" stroke="midnightblue" points="301.81,-224.928 291.337,-226.529 300.523,-231.808 301.81,-224.928"/>
</g>
<!-- Node5 -->
<g id="node5" class="node"><title>Node5</title>
<g id="a_node5"><a xlink:href="classcom_1_1tomoparts_1_1tomoBay_1_1presenters_1_1presenterActions_1_1concreteActions_1_1OrderInfo.html#a95f980d76c5d92ed97b2aaab0d2d0c21" target="_top" xlink:title="formats the summary information for this Order ">
<polygon fill="white" stroke="black" points="383.5,-196.5 383.5,-226.5 628.5,-226.5 628.5,-196.5 383.5,-196.5"/>
<text text-anchor="start" x="391.5" y="-214.5" font-family="Helvetica,sans-Serif" font-size="10.00">com.tomoparts.tomoBay.presenters.presenter</text>
<text text-anchor="middle" x="506" y="-203.5" font-family="Helvetica,sans-Serif" font-size="10.00">Actions.concreteActions.OrderInfo.summaryInfo</text>
</a>
</g>
</g>
<!-- Node2&#45;&gt;Node5 -->
<g id="edge4" class="edge"><title>Node2&#45;&gt;Node5</title>
<path fill="none" stroke="midnightblue" d="M317.701,-211.5C339.016,-211.5 361.557,-211.5 383.333,-211.5"/>
<polygon fill="midnightblue" stroke="midnightblue" points="317.674,-208 307.674,-211.5 317.674,-215 317.674,-208"/>
</g>
<!-- Node4 -->
<g id="node4" class="node"><title>Node4</title>
<g id="a_node4"><a xlink:href="classcom_1_1tomoparts_1_1tomoBay_1_1presenters_1_1presenterActions_1_1concreteActions_1_1InvoiceOrders.html#adb3dedf31dc2c7fc796f20406c235ccd" target="_top" xlink:title="performs the action specified ">
<polygon fill="white" stroke="black" points="702.5,-251.5 702.5,-281.5 944.5,-281.5 944.5,-251.5 702.5,-251.5"/>
<text text-anchor="start" x="710.5" y="-269.5" font-family="Helvetica,sans-Serif" font-size="10.00">com.tomoparts.tomoBay.presenters.presenter</text>
<text text-anchor="middle" x="823.5" y="-258.5" font-family="Helvetica,sans-Serif" font-size="10.00">Actions.concreteActions.InvoiceOrders.execute</text>
</a>
</g>
</g>
<!-- Node3&#45;&gt;Node4 -->
<g id="edge3" class="edge"><title>Node3&#45;&gt;Node4</title>
<path fill="none" stroke="midnightblue" d="M637.35,-266.5C658.887,-266.5 681.126,-266.5 702.396,-266.5"/>
<polygon fill="midnightblue" stroke="midnightblue" points="637.177,-263 627.177,-266.5 637.177,-270 637.177,-263"/>
</g>
<!-- Node6 -->
<g id="node6" class="node"><title>Node6</title>
<g id="a_node6"><a xlink:href="classcom_1_1tomoparts_1_1tomoBay_1_1presenters_1_1presenterActions_1_1concreteActions_1_1OrderInfo.html#afeec1aeda079b77245edea1e74b25f33" target="_top" xlink:title="assembles the various parts of the order and outputs it as a fully formed JSON string. ">
<polygon fill="white" stroke="black" points="699,-196.5 699,-226.5 948,-226.5 948,-196.5 699,-196.5"/>
<text text-anchor="start" x="707" y="-214.5" font-family="Helvetica,sans-Serif" font-size="10.00">com.tomoparts.tomoBay.presenters.presenter</text>
<text text-anchor="middle" x="823.5" y="-203.5" font-family="Helvetica,sans-Serif" font-size="10.00">Actions.concreteActions.OrderInfo.formatResults</text>
</a>
</g>
</g>
<!-- Node5&#45;&gt;Node6 -->
<g id="edge5" class="edge"><title>Node5&#45;&gt;Node6</title>
<path fill="none" stroke="midnightblue" d="M638.602,-211.5C658.585,-211.5 679.144,-211.5 698.948,-211.5"/>
<polygon fill="midnightblue" stroke="midnightblue" points="638.529,-208 628.529,-211.5 638.529,-215 638.529,-208"/>
</g>
<!-- Node7 -->
<g id="node7" class="node"><title>Node7</title>
<g id="a_node7"><a xlink:href="classcom_1_1tomoparts_1_1tomoBay_1_1presenters_1_1presenterActions_1_1concreteActions_1_1OrderInfo.html#adb3dedf31dc2c7fc796f20406c235ccd" target="_top" xlink:title="performs the action specified ">
<polygon fill="white" stroke="black" points="1011,-196.5 1011,-226.5 1253,-226.5 1253,-196.5 1011,-196.5"/>
<text text-anchor="start" x="1019" y="-214.5" font-family="Helvetica,sans-Serif" font-size="10.00">com.tomoparts.tomoBay.presenters.presenter</text>
<text text-anchor="middle" x="1132" y="-203.5" font-family="Helvetica,sans-Serif" font-size="10.00">Actions.concreteActions.OrderInfo.execute</text>
</a>
</g>
</g>
<!-- Node6&#45;&gt;Node7 -->
<g id="edge6" class="edge"><title>Node6&#45;&gt;Node7</title>
<path fill="none" stroke="midnightblue" d="M958.474,-211.5C975.863,-211.5 993.589,-211.5 1010.74,-211.5"/>
<polygon fill="midnightblue" stroke="midnightblue" points="958.282,-208 948.282,-211.5 958.282,-215 958.282,-208"/>
</g>
<!-- Node9 -->
<g id="node9" class="node"><title>Node9</title>
<g id="a_node9"><a xlink:href="classcom_1_1tomoparts_1_1tomoBay_1_1model_1_1services_1_1reScanBuyerService_1_1ReScanBuyerService.html#ae3b0a282dcba7f2d675ca89b1dd48487" target="_top" xlink:title="com.tomoparts.tomoBay.model.services.re\lScanBuyerService.ReScanBuyerService.onRunning">
<polygon fill="white" stroke="black" points="376.5,-147.5 376.5,-177.5 635.5,-177.5 635.5,-147.5 376.5,-147.5"/>
<text text-anchor="start" x="384.5" y="-165.5" font-family="Helvetica,sans-Serif" font-size="10.00">com.tomoparts.tomoBay.model.services.re</text>
<text text-anchor="middle" x="506" y="-154.5" font-family="Helvetica,sans-Serif" font-size="10.00">ScanBuyerService.ReScanBuyerService.onRunning</text>
</a>
</g>
</g>
<!-- Node8&#45;&gt;Node9 -->
<g id="edge8" class="edge"><title>Node8&#45;&gt;Node9</title>
<path fill="none" stroke="midnightblue" d="M332.921,-162.5C347.23,-162.5 361.866,-162.5 376.265,-162.5"/>
<polygon fill="midnightblue" stroke="midnightblue" points="332.568,-159 322.568,-162.5 332.568,-166 332.568,-159"/>
</g>
<!-- Node10 -->
<g id="node10" class="node"><title>Node10</title>
<g id="a_node10"><a xlink:href="classcom_1_1tomoparts_1_1tomoBay_1_1model_1_1services_1_1reScanBuyerService_1_1ReScanBuyerService.html#afd85cd6baa355d54ab15c19c16c21df9" target="_top" xlink:title="com.tomoparts.tomoBay.model.services.re\lScanBuyerService.ReScanBuyerService.onPaused">
<polygon fill="white" stroke="black" points="695.5,-147.5 695.5,-177.5 951.5,-177.5 951.5,-147.5 695.5,-147.5"/>
<text text-anchor="start" x="703.5" y="-165.5" font-family="Helvetica,sans-Serif" font-size="10.00">com.tomoparts.tomoBay.model.services.re</text>
<text text-anchor="middle" x="823.5" y="-154.5" font-family="Helvetica,sans-Serif" font-size="10.00">ScanBuyerService.ReScanBuyerService.onPaused</text>
</a>
</g>
</g>
<!-- Node9&#45;&gt;Node10 -->
<g id="edge9" class="edge"><title>Node9&#45;&gt;Node10</title>
<path fill="none" stroke="midnightblue" d="M645.977,-162.5C662.421,-162.5 679.14,-162.5 695.407,-162.5"/>
<polygon fill="midnightblue" stroke="midnightblue" points="645.781,-159 635.781,-162.5 645.781,-166 645.781,-159"/>
</g>
<!-- Node13 -->
<g id="node13" class="node"><title>Node13</title>
<g id="a_node13"><a xlink:href="classcom_1_1tomoparts_1_1tomoBay_1_1model_1_1services_1_1individualItemRefreshService_1_1OnRunning.html#ae4a4f4cadce2787c7e80005639fbd5d9" target="_top" xlink:title="this method defines what to do in the given derived state ">
<polygon fill="white" stroke="black" points="376,-49.5 376,-79.5 636,-79.5 636,-49.5 376,-49.5"/>
<text text-anchor="start" x="384" y="-67.5" font-family="Helvetica,sans-Serif" font-size="10.00">com.tomoparts.tomoBay.model.services.individual</text>
<text text-anchor="middle" x="506" y="-56.5" font-family="Helvetica,sans-Serif" font-size="10.00">ItemRefreshService.OnRunning.execute</text>
</a>
</g>
</g>
<!-- Node12&#45;&gt;Node13 -->
<g id="edge12" class="edge"><title>Node12&#45;&gt;Node13</title>
<path fill="none" stroke="midnightblue" d="M350.564,-64.5C358.932,-64.5 367.333,-64.5 375.656,-64.5"/>
<polygon fill="midnightblue" stroke="midnightblue" points="350.381,-61.0001 340.381,-64.5 350.38,-68.0001 350.381,-61.0001"/>
</g>
<!-- Node14 -->
<g id="node14" class="node"><title>Node14</title>
<g id="a_node14"><a xlink:href="classcom_1_1tomoparts_1_1tomoBay_1_1model_1_1services_1_1individualItemRefreshService_1_1IndividualItemRefreshService.html#ae3b0a282dcba7f2d675ca89b1dd48487" target="_top" xlink:title="com.tomoparts.tomoBay.model.services.individual\lItemRefreshService.IndividualItemRefreshService.onRunning">
<polygon fill="white" stroke="black" points="672,-49.5 672,-79.5 975,-79.5 975,-49.5 672,-49.5"/>
<text text-anchor="start" x="680" y="-67.5" font-family="Helvetica,sans-Serif" font-size="10.00">com.tomoparts.tomoBay.model.services.individual</text>
<text text-anchor="middle" x="823.5" y="-56.5" font-family="Helvetica,sans-Serif" font-size="10.00">ItemRefreshService.IndividualItemRefreshService.onRunning</text>
</a>
</g>
</g>
<!-- Node13&#45;&gt;Node14 -->
<g id="edge13" class="edge"><title>Node13&#45;&gt;Node14</title>
<path fill="none" stroke="midnightblue" d="M646.467,-64.5C654.888,-64.5 663.38,-64.5 671.845,-64.5"/>
<polygon fill="midnightblue" stroke="midnightblue" points="646.236,-61.0001 636.236,-64.5 646.236,-68.0001 646.236,-61.0001"/>
</g>
</g>
</svg>
