<?xml version="1.0" encoding="UTF-8" standalone="no"?>
<!DOCTYPE svg PUBLIC "-//W3C//DTD SVG 1.1//EN"
 "http://www.w3.org/Graphics/SVG/1.1/DTD/svg11.dtd">
<!-- Generated by graphviz version 2.38.0 (20140413.2041)
 -->
<!-- Title: Transaction Pages: 1 -->
<svg width="843pt" height="149pt"
 viewBox="0.00 0.00 843.00 148.50" xmlns="http://www.w3.org/2000/svg" xmlns:xlink="http://www.w3.org/1999/xlink">
<g id="graph0" class="graph" transform="scale(1 1) rotate(0) translate(4 144.5)">
<title>Transaction</title>
<polygon fill="white" stroke="none" points="-4,4 -4,-144.5 839,-144.5 839,4 -4,4"/>
<!-- Node1 -->
<g id="node1" class="node"><title>Node1</title>
<polygon fill="#bfbfbf" stroke="black" points="0,-85 0,-104 72,-104 72,-85 0,-85"/>
<text text-anchor="middle" x="36" y="-92" font-family="Helvetica,sans-Serif" font-size="10.00">Transaction</text>
</g>
<!-- Node2 -->
<g id="node2" class="node"><title>Node2</title>
<g id="a_node2"><a xlink:href="classcom_1_1tomoparts_1_1tomoBay_1_1model_1_1dataTypes_1_1heteroTypeContainer_1_1HeteroFieldContainer.html#a988363ab964d6dc0ccb8560bef5895b6" target="_top" xlink:title="retrieve the the value of an AbstractField from this HeteroFieldContainer, the field should be of the...">
<polygon fill="white" stroke="black" points="108,-99 108,-140 314,-140 314,-99 108,-99"/>
<text text-anchor="start" x="116" y="-128" font-family="Helvetica,sans-Serif" font-size="10.00">com.tomoparts.tomoBay.model.data</text>
<text text-anchor="start" x="116" y="-117" font-family="Helvetica,sans-Serif" font-size="10.00">Types.heteroTypeContainer.HeteroField</text>
<text text-anchor="middle" x="211" y="-106" font-family="Helvetica,sans-Serif" font-size="10.00">Container.get</text>
</a>
</g>
</g>
<!-- Node1&#45;&gt;Node2 -->
<g id="edge1" class="edge"><title>Node1&#45;&gt;Node2</title>
<path fill="none" stroke="midnightblue" d="M72.0091,-99.5591C79.8399,-100.691 88.5558,-101.95 97.6947,-103.271"/>
<polygon fill="midnightblue" stroke="midnightblue" points="97.3578,-106.759 107.756,-104.725 98.3591,-99.8305 97.3578,-106.759"/>
</g>
<!-- Node4 -->
<g id="node4" class="node"><title>Node4</title>
<g id="a_node4"><a xlink:href="classcom_1_1tomoparts_1_1tomoBay_1_1model_1_1dataTypes_1_1order_1_1Transaction.html#a862d942998078cd69fad19dfb4140f56" target="_top" xlink:title="retrieve the transaction information for this order from the database based on the order ID passed in...">
<polygon fill="white" stroke="black" points="158.5,-61 158.5,-80 263.5,-80 263.5,-61 158.5,-61"/>
<text text-anchor="middle" x="211" y="-68" font-family="Helvetica,sans-Serif" font-size="10.00">getTransactionInfo</text>
</a>
</g>
</g>
<!-- Node1&#45;&gt;Node4 -->
<g id="edge3" class="edge"><title>Node1&#45;&gt;Node4</title>
<path fill="none" stroke="midnightblue" d="M72.0091,-89.6432C93.8869,-86.6082 122.674,-82.6146 148.292,-79.0606"/>
<polygon fill="midnightblue" stroke="midnightblue" points="148.879,-82.5128 158.303,-77.6718 147.917,-75.5792 148.879,-82.5128"/>
</g>
<!-- Node3 -->
<g id="node3" class="node"><title>Node3</title>
<g id="a_node3"><a xlink:href="classcom_1_1tomoparts_1_1tomoBay_1_1model_1_1dataTypes_1_1heteroTypeContainer_1_1HeteroFieldContainer.html#a9dee3c01eb5ab16203e1c6820a569484" target="_top" xlink:title="performs a type check, assuming that field and type are of the same type then this method returns tru...">
<polygon fill="white" stroke="black" points="629,-74 629,-115 835,-115 835,-74 629,-74"/>
<text text-anchor="start" x="637" y="-103" font-family="Helvetica,sans-Serif" font-size="10.00">com.tomoparts.tomoBay.model.data</text>
<text text-anchor="start" x="637" y="-92" font-family="Helvetica,sans-Serif" font-size="10.00">Types.heteroTypeContainer.HeteroField</text>
<text text-anchor="middle" x="732" y="-81" font-family="Helvetica,sans-Serif" font-size="10.00">Container.isSameType</text>
</a>
</g>
</g>
<!-- Node2&#45;&gt;Node3 -->
<g id="edge2" class="edge"><title>Node2&#45;&gt;Node3</title>
<path fill="none" stroke="midnightblue" d="M314.228,-114.576C402.04,-110.346 528.429,-104.258 618.968,-99.8965"/>
<polygon fill="midnightblue" stroke="midnightblue" points="619.175,-103.391 628.995,-99.4135 618.838,-96.3988 619.175,-103.391"/>
</g>
<!-- Node5 -->
<g id="node5" class="node"><title>Node5</title>
<g id="a_node5"><a xlink:href="classcom_1_1tomoparts_1_1tomoBay_1_1model_1_1dataTypes_1_1heteroTypeContainer_1_1HeteroFieldContainer.html#a3ba6289417930238a36bfee0056b6398" target="_top" xlink:title="add an arbitrary value to this Field container with the stipulation that this value is of the same ty...">
<polygon fill="white" stroke="black" points="368.5,-50 368.5,-91 574.5,-91 574.5,-50 368.5,-50"/>
<text text-anchor="start" x="376.5" y="-79" font-family="Helvetica,sans-Serif" font-size="10.00">com.tomoparts.tomoBay.model.data</text>
<text text-anchor="start" x="376.5" y="-68" font-family="Helvetica,sans-Serif" font-size="10.00">Types.heteroTypeContainer.HeteroField</text>
<text text-anchor="middle" x="471.5" y="-57" font-family="Helvetica,sans-Serif" font-size="10.00">Container.add</text>
</a>
</g>
</g>
<!-- Node4&#45;&gt;Node5 -->
<g id="edge4" class="edge"><title>Node4&#45;&gt;Node5</title>
<path fill="none" stroke="midnightblue" d="M263.69,-70.5C290.862,-70.5 325.292,-70.5 358.225,-70.5"/>
<polygon fill="midnightblue" stroke="midnightblue" points="358.388,-74.0001 368.388,-70.5 358.388,-67.0001 358.388,-74.0001"/>
</g>
<!-- Node6 -->
<g id="node6" class="node"><title>Node6</title>
<g id="a_node6"><a xlink:href="classcom_1_1tomoparts_1_1tomoBay_1_1model_1_1sql_1_1framework_1_1SelectQueryInvoker.html#a594282bcbcc0731a7d234482717422d7" target="_top" xlink:title="execute a requested query ">
<polygon fill="white" stroke="black" points="350,-0.5 350,-30.5 593,-30.5 593,-0.5 350,-0.5"/>
<text text-anchor="start" x="358" y="-18.5" font-family="Helvetica,sans-Serif" font-size="10.00">com.tomoparts.tomoBay.model.sql.framework.</text>
<text text-anchor="middle" x="471.5" y="-7.5" font-family="Helvetica,sans-Serif" font-size="10.00">SelectQueryInvoker.execute</text>
</a>
</g>
</g>
<!-- Node4&#45;&gt;Node6 -->
<g id="edge6" class="edge"><title>Node4&#45;&gt;Node6</title>
<path fill="none" stroke="midnightblue" d="M255.484,-60.9362C282.642,-54.9907 318.343,-47.2248 350,-40.5 362.121,-37.9252 374.934,-35.234 387.504,-32.6112"/>
<polygon fill="midnightblue" stroke="midnightblue" points="388.439,-35.9917 397.515,-30.526 387.012,-29.1388 388.439,-35.9917"/>
</g>
<!-- Node5&#45;&gt;Node3 -->
<g id="edge5" class="edge"><title>Node5&#45;&gt;Node3</title>
<path fill="none" stroke="midnightblue" d="M574.666,-79.9854C589.114,-81.3268 604.034,-82.712 618.66,-84.07"/>
<polygon fill="midnightblue" stroke="midnightblue" points="618.449,-87.5653 628.73,-85.0049 619.096,-80.5953 618.449,-87.5653"/>
</g>
</g>
</svg>
