<?xml version="1.0" encoding="UTF-8" standalone="no"?>
<!DOCTYPE svg PUBLIC "-//W3C//DTD SVG 1.1//EN"
 "http://www.w3.org/Graphics/SVG/1.1/DTD/svg11.dtd">
<!-- Generated by graphviz version 2.38.0 (20140413.2041)
 -->
<!-- Title: isCancelled Pages: 1 -->
<svg width="1272pt" height="100pt"
 viewBox="0.00 0.00 1272.00 99.50" xmlns="http://www.w3.org/2000/svg" xmlns:xlink="http://www.w3.org/1999/xlink">
<g id="graph0" class="graph" transform="scale(1 1) rotate(0) translate(4 95.5)">
<title>isCancelled</title>
<polygon fill="white" stroke="none" points="-4,4 -4,-95.5 1268,-95.5 1268,4 -4,4"/>
<!-- Node1 -->
<g id="node1" class="node"><title>Node1</title>
<polygon fill="#bfbfbf" stroke="black" points="0,-33 0,-52 71,-52 71,-33 0,-33"/>
<text text-anchor="middle" x="35.5" y="-40" font-family="Helvetica,sans-Serif" font-size="10.00">isCancelled</text>
</g>
<!-- Node2 -->
<g id="node2" class="node"><title>Node2</title>
<g id="a_node2"><a xlink:href="classcom_1_1tomoparts_1_1tomoBay_1_1model_1_1services_1_1basicEbayUpdateService_1_1Transactions__Table.html#a6f7920f082037fcd84e9fb020730e4f6" target="_top" xlink:title="populates the Orders Table in the database with data grabbed from the ebay API ">
<polygon fill="white" stroke="black" points="107,-50 107,-91 347,-91 347,-50 107,-50"/>
<text text-anchor="start" x="115" y="-79" font-family="Helvetica,sans-Serif" font-size="10.00">com.tomoparts.tomoBay.model.services.basic</text>
<text text-anchor="start" x="115" y="-68" font-family="Helvetica,sans-Serif" font-size="10.00">EbayUpdateService.Transactions</text>
<text text-anchor="middle" x="227" y="-57" font-family="Helvetica,sans-Serif" font-size="10.00">_Table.populate</text>
</a>
</g>
</g>
<!-- Node1&#45;&gt;Node2 -->
<g id="edge1" class="edge"><title>Node1&#45;&gt;Node2</title>
<path fill="none" stroke="midnightblue" d="M81.2623,-49.114C89.1809,-50.284 97.7523,-51.5505 106.634,-52.8628"/>
<polygon fill="midnightblue" stroke="midnightblue" points="81.6614,-45.635 71.2572,-47.6356 80.6382,-52.5598 81.6614,-45.635"/>
</g>
<!-- Node6 -->
<g id="node6" class="node"><title>Node6</title>
<g id="a_node6"><a xlink:href="classcom_1_1tomoparts_1_1tomoBay_1_1model_1_1services_1_1basicEbayUpdateService_1_1Orders__Table.html#abb8f83ca32eba7defe488f4d08be8c74" target="_top" xlink:title="populates the Orders Table in the database with data grabbed from the ebay API ">
<polygon fill="white" stroke="black" points="107,-0.5 107,-30.5 347,-30.5 347,-0.5 107,-0.5"/>
<text text-anchor="start" x="115" y="-18.5" font-family="Helvetica,sans-Serif" font-size="10.00">com.tomoparts.tomoBay.model.services.basic</text>
<text text-anchor="middle" x="227" y="-7.5" font-family="Helvetica,sans-Serif" font-size="10.00">EbayUpdateService.Orders_Table.populate</text>
</a>
</g>
</g>
<!-- Node1&#45;&gt;Node6 -->
<g id="edge5" class="edge"><title>Node1&#45;&gt;Node6</title>
<path fill="none" stroke="midnightblue" d="M81.3576,-36.1087C93.3198,-34.4043 106.766,-32.4884 120.518,-30.5291"/>
<polygon fill="midnightblue" stroke="midnightblue" points="80.6635,-32.6721 71.2572,-37.5478 81.651,-39.6021 80.6635,-32.6721"/>
</g>
<!-- Node3 -->
<g id="node3" class="node"><title>Node3</title>
<g id="a_node3"><a xlink:href="classcom_1_1tomoparts_1_1tomoBay_1_1model_1_1services_1_1basicEbayUpdateService_1_1OnRunning.html#ae4a4f4cadce2787c7e80005639fbd5d9" target="_top" xlink:title="this method defines what to do in the given derived state ">
<polygon fill="white" stroke="black" points="383,-27.5 383,-57.5 623,-57.5 623,-27.5 383,-27.5"/>
<text text-anchor="start" x="391" y="-45.5" font-family="Helvetica,sans-Serif" font-size="10.00">com.tomoparts.tomoBay.model.services.basic</text>
<text text-anchor="middle" x="503" y="-34.5" font-family="Helvetica,sans-Serif" font-size="10.00">EbayUpdateService.OnRunning.execute</text>
</a>
</g>
</g>
<!-- Node2&#45;&gt;Node3 -->
<g id="edge2" class="edge"><title>Node2&#45;&gt;Node3</title>
<path fill="none" stroke="midnightblue" d="M357.548,-57.2615C365.904,-56.4076 374.296,-55.55 382.601,-54.7013"/>
<polygon fill="midnightblue" stroke="midnightblue" points="356.976,-53.8017 347.383,-58.3002 357.687,-60.7654 356.976,-53.8017"/>
</g>
<!-- Node4 -->
<g id="node4" class="node"><title>Node4</title>
<g id="a_node4"><a xlink:href="classcom_1_1tomoparts_1_1tomoBay_1_1model_1_1services_1_1basicEbayUpdateService_1_1BasicEbayUpdateService.html#ae3b0a282dcba7f2d675ca89b1dd48487" target="_top" xlink:title="com.tomoparts.tomoBay.model.services.basic\lEbayUpdateService.BasicEbayUpdateService.onRunning">
<polygon fill="white" stroke="black" points="659,-27.5 659,-57.5 945,-57.5 945,-27.5 659,-27.5"/>
<text text-anchor="start" x="667" y="-45.5" font-family="Helvetica,sans-Serif" font-size="10.00">com.tomoparts.tomoBay.model.services.basic</text>
<text text-anchor="middle" x="802" y="-34.5" font-family="Helvetica,sans-Serif" font-size="10.00">EbayUpdateService.BasicEbayUpdateService.onRunning</text>
</a>
</g>
</g>
<!-- Node3&#45;&gt;Node4 -->
<g id="edge3" class="edge"><title>Node3&#45;&gt;Node4</title>
<path fill="none" stroke="midnightblue" d="M633.363,-42.5C641.826,-42.5 650.373,-42.5 658.892,-42.5"/>
<polygon fill="midnightblue" stroke="midnightblue" points="633.09,-39.0001 623.09,-42.5 633.09,-46.0001 633.09,-39.0001"/>
</g>
<!-- Node5 -->
<g id="node5" class="node"><title>Node5</title>
<g id="a_node5"><a xlink:href="classcom_1_1tomoparts_1_1tomoBay_1_1model_1_1services_1_1basicEbayUpdateService_1_1BasicEbayUpdateService.html#afd85cd6baa355d54ab15c19c16c21df9" target="_top" xlink:title="com.tomoparts.tomoBay.model.services.basic\lEbayUpdateService.BasicEbayUpdateService.onPaused">
<polygon fill="white" stroke="black" points="981,-27.5 981,-57.5 1264,-57.5 1264,-27.5 981,-27.5"/>
<text text-anchor="start" x="989" y="-45.5" font-family="Helvetica,sans-Serif" font-size="10.00">com.tomoparts.tomoBay.model.services.basic</text>
<text text-anchor="middle" x="1122.5" y="-34.5" font-family="Helvetica,sans-Serif" font-size="10.00">EbayUpdateService.BasicEbayUpdateService.onPaused</text>
</a>
</g>
</g>
<!-- Node4&#45;&gt;Node5 -->
<g id="edge4" class="edge"><title>Node4&#45;&gt;Node5</title>
<path fill="none" stroke="midnightblue" d="M955.12,-42.5C963.742,-42.5 972.392,-42.5 980.968,-42.5"/>
<polygon fill="midnightblue" stroke="midnightblue" points="955.018,-39.0001 945.018,-42.5 955.018,-46.0001 955.018,-39.0001"/>
</g>
<!-- Node6&#45;&gt;Node3 -->
<g id="edge6" class="edge"><title>Node6&#45;&gt;Node3</title>
<path fill="none" stroke="midnightblue" d="M357.548,-28.2657C365.904,-29.0891 374.296,-29.9161 382.601,-30.7344"/>
<polygon fill="midnightblue" stroke="midnightblue" points="357.678,-24.7617 347.383,-27.264 356.992,-31.7279 357.678,-24.7617"/>
</g>
</g>
</svg>
