<?xml version="1.0" encoding="UTF-8" standalone="no"?>
<!DOCTYPE svg PUBLIC "-//W3C//DTD SVG 1.1//EN"
 "http://www.w3.org/Graphics/SVG/1.1/DTD/svg11.dtd">
<!-- Generated by graphviz version 2.38.0 (20140413.2041)
 -->
<!-- Title: description Pages: 1 -->
<svg width="308pt" height="247pt"
 viewBox="0.00 0.00 308.00 247.00" xmlns="http://www.w3.org/2000/svg" xmlns:xlink="http://www.w3.org/1999/xlink">
<g id="graph0" class="graph" transform="scale(1 1) rotate(0) translate(4 243)">
<title>description</title>
<polygon fill="white" stroke="none" points="-4,4 -4,-243 304,-243 304,4 -4,4"/>
<!-- Node1 -->
<g id="node1" class="node"><title>Node1</title>
<polygon fill="#bfbfbf" stroke="black" points="0,-110 0,-129 69,-129 69,-110 0,-110"/>
<text text-anchor="middle" x="34.5" y="-117" font-family="Helvetica,sans-Serif" font-size="10.00">description</text>
</g>
<!-- Node2 -->
<g id="node2" class="node"><title>Node2</title>
<g id="a_node2"><a xlink:href="classcom_1_1tomoparts_1_1tomoBay_1_1model_1_1dataTypes_1_1order_1_1Part.html#a464a9940ad720e717c25422b41b7845b" target="_top" xlink:title="retrieve the description of this part ">
<polygon fill="white" stroke="black" points="105,-208.5 105,-238.5 300,-238.5 300,-208.5 105,-208.5"/>
<text text-anchor="start" x="113" y="-226.5" font-family="Helvetica,sans-Serif" font-size="10.00">com.tomoparts.tomoBay.model.data</text>
<text text-anchor="middle" x="202.5" y="-215.5" font-family="Helvetica,sans-Serif" font-size="10.00">Types.order.Part.description</text>
</a>
</g>
</g>
<!-- Node1&#45;&gt;Node2 -->
<g id="edge1" class="edge"><title>Node1&#45;&gt;Node2</title>
<path fill="none" stroke="midnightblue" d="M41.0328,-129.069C51.3468,-146.017 75.1923,-181.24 105,-199.5 107.797,-201.213 110.71,-202.805 113.707,-204.283"/>
<polygon fill="midnightblue" stroke="midnightblue" points="112.358,-207.513 122.917,-208.385 115.206,-201.119 112.358,-207.513"/>
</g>
<!-- Node3 -->
<g id="node3" class="node"><title>Node3</title>
<g id="a_node3"><a xlink:href="classcom_1_1tomoparts_1_1tomoBay_1_1model_1_1dataTypes_1_1order_1_1Transaction.html#ae22e0c0169b69acfb681cf924aa8f0a8" target="_top" xlink:title="retrieve the listing associated with this transaction ">
<polygon fill="white" stroke="black" points="105,-159.5 105,-189.5 300,-189.5 300,-159.5 105,-159.5"/>
<text text-anchor="start" x="113" y="-177.5" font-family="Helvetica,sans-Serif" font-size="10.00">com.tomoparts.tomoBay.model.data</text>
<text text-anchor="middle" x="202.5" y="-166.5" font-family="Helvetica,sans-Serif" font-size="10.00">Types.order.Transaction.listing</text>
</a>
</g>
</g>
<!-- Node1&#45;&gt;Node3 -->
<g id="edge2" class="edge"><title>Node1&#45;&gt;Node3</title>
<path fill="none" stroke="midnightblue" d="M55.5513,-129.133C69.2629,-135.476 87.9697,-143.657 105,-149.5 112.366,-152.027 120.125,-154.439 127.91,-156.696"/>
<polygon fill="midnightblue" stroke="midnightblue" points="127.183,-160.128 137.758,-159.472 129.082,-153.39 127.183,-160.128"/>
</g>
<!-- Node4 -->
<g id="node4" class="node"><title>Node4</title>
<g id="a_node4"><a xlink:href="classcom_1_1tomoparts_1_1tomoBay_1_1model_1_1dataTypes_1_1financial_1_1SalesOrderDayBook_1_1AbstractSalesDayBookLine.html#afacf6217c7f58a049b532205066da488" target="_top" xlink:title="retrieve the order that this AbstractSalesDayBookLine refers to. ">
<polygon fill="white" stroke="black" points="105,-99 105,-140 300,-140 300,-99 105,-99"/>
<text text-anchor="start" x="113" y="-128" font-family="Helvetica,sans-Serif" font-size="10.00">com.tomoparts.tomoBay.model.data</text>
<text text-anchor="start" x="113" y="-117" font-family="Helvetica,sans-Serif" font-size="10.00">Types.financial.SalesOrderDayBook.</text>
<text text-anchor="middle" x="202.5" y="-106" font-family="Helvetica,sans-Serif" font-size="10.00">AbstractSalesDayBookLine.orderInfo</text>
</a>
</g>
</g>
<!-- Node1&#45;&gt;Node4 -->
<g id="edge3" class="edge"><title>Node1&#45;&gt;Node4</title>
<path fill="none" stroke="midnightblue" d="M69.0926,-119.5C76.8848,-119.5 85.5904,-119.5 94.7149,-119.5"/>
<polygon fill="midnightblue" stroke="midnightblue" points="94.757,-123 104.757,-119.5 94.7569,-116 94.757,-123"/>
</g>
<!-- Node5 -->
<g id="node5" class="node"><title>Node5</title>
<g id="a_node5"><a xlink:href="classcom_1_1tomoparts_1_1tomoBay_1_1model_1_1dataTypes_1_1order_1_1Listing.html#aeb86e87dbdd13b9820905d09d542e7e4" target="_top" xlink:title="retrieve the part specified in the parameter ">
<polygon fill="white" stroke="black" points="105,-49.5 105,-79.5 300,-79.5 300,-49.5 105,-49.5"/>
<text text-anchor="start" x="113" y="-67.5" font-family="Helvetica,sans-Serif" font-size="10.00">com.tomoparts.tomoBay.model.data</text>
<text text-anchor="middle" x="202.5" y="-56.5" font-family="Helvetica,sans-Serif" font-size="10.00">Types.order.Listing.part</text>
</a>
</g>
</g>
<!-- Node1&#45;&gt;Node5 -->
<g id="edge4" class="edge"><title>Node1&#45;&gt;Node5</title>
<path fill="none" stroke="midnightblue" d="M55.5513,-109.867C69.2629,-103.524 87.9697,-95.3427 105,-89.5 112.366,-86.9727 120.125,-84.5615 127.91,-82.3035"/>
<polygon fill="midnightblue" stroke="midnightblue" points="129.082,-85.6097 137.758,-79.5283 127.183,-78.8721 129.082,-85.6097"/>
</g>
<!-- Node6 -->
<g id="node6" class="node"><title>Node6</title>
<g id="a_node6"><a xlink:href="classcom_1_1tomoparts_1_1tomoBay_1_1model_1_1dataTypes_1_1order_1_1Order.html#a39d4b856c1dcba627c763d60c3be86b0" target="_top" xlink:title="An order is made up of transactions, this method retrieves the specified transaction, given the index parameter. ">
<polygon fill="white" stroke="black" points="105,-0.5 105,-30.5 300,-30.5 300,-0.5 105,-0.5"/>
<text text-anchor="start" x="113" y="-18.5" font-family="Helvetica,sans-Serif" font-size="10.00">com.tomoparts.tomoBay.model.data</text>
<text text-anchor="middle" x="202.5" y="-7.5" font-family="Helvetica,sans-Serif" font-size="10.00">Types.order.Order.transaction</text>
</a>
</g>
</g>
<!-- Node1&#45;&gt;Node6 -->
<g id="edge5" class="edge"><title>Node1&#45;&gt;Node6</title>
<path fill="none" stroke="midnightblue" d="M41.2466,-109.815C51.7248,-93.027 75.5914,-58.5868 105,-40.5 108.566,-38.3071 112.319,-36.3053 116.193,-34.4783"/>
<polygon fill="midnightblue" stroke="midnightblue" points="117.605,-37.6807 125.418,-30.5243 114.848,-31.2468 117.605,-37.6807"/>
</g>
</g>
</svg>
