<?xml version="1.0" encoding="UTF-8" standalone="no"?>
<!DOCTYPE svg PUBLIC "-//W3C//DTD SVG 1.1//EN"
 "http://www.w3.org/Graphics/SVG/1.1/DTD/svg11.dtd">
<!-- Generated by graphviz version 2.38.0 (20140413.2041)
 -->
<!-- Title: subtract Pages: 1 -->
<svg width="917pt" height="330pt"
 viewBox="0.00 0.00 917.00 329.50" xmlns="http://www.w3.org/2000/svg" xmlns:xlink="http://www.w3.org/1999/xlink">
<g id="graph0" class="graph" transform="scale(1 1) rotate(0) translate(4 325.5)">
<title>subtract</title>
<polygon fill="white" stroke="none" points="-4,4 -4,-325.5 913,-325.5 913,4 -4,4"/>
<!-- Node1 -->
<g id="node1" class="node"><title>Node1</title>
<polygon fill="#bfbfbf" stroke="black" points="0,-158.5 0,-177.5 56,-177.5 56,-158.5 0,-158.5"/>
<text text-anchor="middle" x="28" y="-165.5" font-family="Helvetica,sans-Serif" font-size="10.00">subtract</text>
</g>
<!-- Node2 -->
<g id="node2" class="node"><title>Node2</title>
<g id="a_node2"><a xlink:href="classcom_1_1tomoparts_1_1tomoBay_1_1presenters_1_1presenterActions_1_1concreteActions_1_1OrderInfo.html#a95f980d76c5d92ed97b2aaab0d2d0c21" target="_top" xlink:title="formats the summary information for this Order ">
<polygon fill="white" stroke="black" points="96.5,-291 96.5,-321 341.5,-321 341.5,-291 96.5,-291"/>
<text text-anchor="start" x="104.5" y="-309" font-family="Helvetica,sans-Serif" font-size="10.00">com.tomoparts.tomoBay.presenters.presenter</text>
<text text-anchor="middle" x="219" y="-298" font-family="Helvetica,sans-Serif" font-size="10.00">Actions.concreteActions.OrderInfo.summaryInfo</text>
</a>
</g>
</g>
<!-- Node1&#45;&gt;Node2 -->
<g id="edge1" class="edge"><title>Node1&#45;&gt;Node2</title>
<path fill="none" stroke="midnightblue" d="M34.2641,-187.449C42.2698,-213.117 60.0577,-257.758 92,-281 97.2295,-284.805 102.891,-288.069 108.82,-290.865"/>
<polygon fill="midnightblue" stroke="midnightblue" points="37.5872,-186.343 31.4193,-177.728 30.8689,-188.309 37.5872,-186.343"/>
</g>
<!-- Node5 -->
<g id="node5" class="node"><title>Node5</title>
<g id="a_node5"><a xlink:href="classcom_1_1tomoparts_1_1tomoBay_1_1model_1_1dataTypes_1_1financial_1_1SalesOrderDayBook_1_1AbstractSalesDayBookLine.html#a596ba0a251d2f86898d7a0a23b4b1140" target="_top" xlink:title="retrieve the total (excluding VAT) price for this order ">
<polygon fill="white" stroke="black" points="120,-230.5 120,-271.5 318,-271.5 318,-230.5 120,-230.5"/>
<text text-anchor="start" x="128" y="-259.5" font-family="Helvetica,sans-Serif" font-size="10.00">com.tomoparts.tomoBay.model.data</text>
<text text-anchor="start" x="128" y="-248.5" font-family="Helvetica,sans-Serif" font-size="10.00">Types.financial.SalesOrderDayBook.</text>
<text text-anchor="middle" x="219" y="-237.5" font-family="Helvetica,sans-Serif" font-size="10.00">AbstractSalesDayBookLine.totalExVat</text>
</a>
</g>
</g>
<!-- Node1&#45;&gt;Node5 -->
<g id="edge4" class="edge"><title>Node1&#45;&gt;Node5</title>
<path fill="none" stroke="midnightblue" d="M44.7973,-184.965C56.6941,-196.757 73.9888,-211.928 92,-221 100.736,-225.4 110.141,-229.171 119.736,-232.4"/>
<polygon fill="midnightblue" stroke="midnightblue" points="47.2954,-182.513 37.8056,-177.802 42.2861,-187.403 47.2954,-182.513"/>
</g>
<!-- Node6 -->
<g id="node6" class="node"><title>Node6</title>
<g id="a_node6"><a xlink:href="classcom_1_1tomoparts_1_1tomoBay_1_1presenters_1_1presenterActions_1_1concreteActions_1_1OrderInfo.html#a703cbb509cdc01530f19b03f573120c9" target="_top" xlink:title="formats the transaction information associated with this order ">
<polygon fill="white" stroke="black" points="92,-181 92,-211 346,-211 346,-181 92,-181"/>
<text text-anchor="start" x="100" y="-199" font-family="Helvetica,sans-Serif" font-size="10.00">com.tomoparts.tomoBay.presenters.presenter</text>
<text text-anchor="middle" x="219" y="-188" font-family="Helvetica,sans-Serif" font-size="10.00">Actions.concreteActions.OrderInfo.transactionInfo</text>
</a>
</g>
</g>
<!-- Node1&#45;&gt;Node6 -->
<g id="edge5" class="edge"><title>Node1&#45;&gt;Node6</title>
<path fill="none" stroke="midnightblue" d="M66.1846,-173.509C80.8306,-175.679 98.4282,-178.286 116.371,-180.944"/>
<polygon fill="midnightblue" stroke="midnightblue" points="66.4841,-170.015 56.0791,-172.012 65.4582,-176.939 66.4841,-170.015"/>
</g>
<!-- Node7 -->
<g id="node7" class="node"><title>Node7</title>
<g id="a_node7"><a xlink:href="classcom_1_1tomoparts_1_1tomoBay_1_1model_1_1dataTypes_1_1financial_1_1SalesOrderDayBook_1_1concreteLineTypes_1_1GSPInvoiceLine.html#a1dbab551a07ec1e0c91c3cc7ef4fcd0b" target="_top" xlink:title="com.tomoparts.tomoBay.model.data\lTypes.financial.SalesOrderDayBook.concrete\lLineTypes.GSPInvoiceLine.unitPrice">
<polygon fill="white" stroke="black" points="104,-120.5 104,-161.5 334,-161.5 334,-120.5 104,-120.5"/>
<text text-anchor="start" x="112" y="-149.5" font-family="Helvetica,sans-Serif" font-size="10.00">com.tomoparts.tomoBay.model.data</text>
<text text-anchor="start" x="112" y="-138.5" font-family="Helvetica,sans-Serif" font-size="10.00">Types.financial.SalesOrderDayBook.concrete</text>
<text text-anchor="middle" x="219" y="-127.5" font-family="Helvetica,sans-Serif" font-size="10.00">LineTypes.GSPInvoiceLine.unitPrice</text>
</a>
</g>
</g>
<!-- Node1&#45;&gt;Node7 -->
<g id="edge7" class="edge"><title>Node1&#45;&gt;Node7</title>
<path fill="none" stroke="midnightblue" d="M66.249,-162.679C77.446,-161.079 90.3639,-159.234 103.84,-157.309"/>
<polygon fill="midnightblue" stroke="midnightblue" points="65.4836,-159.252 56.0791,-164.132 66.4736,-166.182 65.4836,-159.252"/>
</g>
<!-- Node8 -->
<g id="node8" class="node"><title>Node8</title>
<g id="a_node8"><a xlink:href="classcom_1_1tomoparts_1_1tomoBay_1_1model_1_1dataTypes_1_1financial_1_1SalesOrderDayBook_1_1conc5f457e0fcc0fab8be8291cad74a922e7.html#ad4699f0815895232592f2e0a89f67b39" target="_top" xlink:title="com.tomoparts.tomoBay.model.data\lTypes.financial.SalesOrderDayBook.concrete\lLineTypes.StandardInvoiceLine.unitPrice">
<polygon fill="white" stroke="black" points="104,-60.5 104,-101.5 334,-101.5 334,-60.5 104,-60.5"/>
<text text-anchor="start" x="112" y="-89.5" font-family="Helvetica,sans-Serif" font-size="10.00">com.tomoparts.tomoBay.model.data</text>
<text text-anchor="start" x="112" y="-78.5" font-family="Helvetica,sans-Serif" font-size="10.00">Types.financial.SalesOrderDayBook.concrete</text>
<text text-anchor="middle" x="219" y="-67.5" font-family="Helvetica,sans-Serif" font-size="10.00">LineTypes.StandardInvoiceLine.unitPrice</text>
</a>
</g>
</g>
<!-- Node1&#45;&gt;Node8 -->
<g id="edge8" class="edge"><title>Node1&#45;&gt;Node8</title>
<path fill="none" stroke="midnightblue" d="M43.7405,-150.597C55.5298,-137.78 73.1568,-120.92 92,-111 98.7652,-107.438 105.956,-104.294 113.34,-101.518"/>
<polygon fill="midnightblue" stroke="midnightblue" points="40.9038,-148.521 36.8821,-158.323 46.1385,-153.168 40.9038,-148.521"/>
</g>
<!-- Node9 -->
<g id="node9" class="node"><title>Node9</title>
<g id="a_node9"><a xlink:href="classcom_1_1tomoparts_1_1tomoBay_1_1model_1_1dataTypes_1_1financial_1_1SalesOrderDayBook_1_1conc0f525c284f2a5ac946be158d6b0f9d09.html#ad4699f0815895232592f2e0a89f67b39" target="_top" xlink:title="com.tomoparts.tomoBay.model.data\lTypes.financial.SalesOrderDayBook.concrete\lLineTypes.StandardInvoiceShippingLine.unitPrice">
<polygon fill="white" stroke="black" points="94.5,-0.5 94.5,-41.5 343.5,-41.5 343.5,-0.5 94.5,-0.5"/>
<text text-anchor="start" x="102.5" y="-29.5" font-family="Helvetica,sans-Serif" font-size="10.00">com.tomoparts.tomoBay.model.data</text>
<text text-anchor="start" x="102.5" y="-18.5" font-family="Helvetica,sans-Serif" font-size="10.00">Types.financial.SalesOrderDayBook.concrete</text>
<text text-anchor="middle" x="219" y="-7.5" font-family="Helvetica,sans-Serif" font-size="10.00">LineTypes.StandardInvoiceShippingLine.unitPrice</text>
</a>
</g>
</g>
<!-- Node1&#45;&gt;Node9 -->
<g id="edge9" class="edge"><title>Node1&#45;&gt;Node9</title>
<path fill="none" stroke="midnightblue" d="M34.0796,-148.449C41.9514,-122.158 59.6699,-75.8489 92,-51 96.6355,-47.4372 101.629,-44.2886 106.86,-41.5069"/>
<polygon fill="midnightblue" stroke="midnightblue" points="30.6276,-147.796 31.2948,-158.369 37.3672,-149.687 30.6276,-147.796"/>
</g>
<!-- Node3 -->
<g id="node3" class="node"><title>Node3</title>
<g id="a_node3"><a xlink:href="classcom_1_1tomoparts_1_1tomoBay_1_1presenters_1_1presenterActions_1_1concreteActions_1_1OrderInfo.html#afeec1aeda079b77245edea1e74b25f33" target="_top" xlink:title="assembles the various parts of the order and outputs it as a fully formed JSON string. ">
<polygon fill="white" stroke="black" points="382,-236 382,-266 631,-266 631,-236 382,-236"/>
<text text-anchor="start" x="390" y="-254" font-family="Helvetica,sans-Serif" font-size="10.00">com.tomoparts.tomoBay.presenters.presenter</text>
<text text-anchor="middle" x="506.5" y="-243" font-family="Helvetica,sans-Serif" font-size="10.00">Actions.concreteActions.OrderInfo.formatResults</text>
</a>
</g>
</g>
<!-- Node2&#45;&gt;Node3 -->
<g id="edge2" class="edge"><title>Node2&#45;&gt;Node3</title>
<path fill="none" stroke="midnightblue" d="M308.094,-289.029C346.281,-281.673 390.613,-273.132 427.58,-266.011"/>
<polygon fill="midnightblue" stroke="midnightblue" points="307.171,-285.642 298.014,-290.971 308.496,-292.516 307.171,-285.642"/>
</g>
<!-- Node4 -->
<g id="node4" class="node"><title>Node4</title>
<g id="a_node4"><a xlink:href="classcom_1_1tomoparts_1_1tomoBay_1_1presenters_1_1presenterActions_1_1concreteActions_1_1OrderInfo.html#adb3dedf31dc2c7fc796f20406c235ccd" target="_top" xlink:title="performs the action specified ">
<polygon fill="white" stroke="black" points="667,-236 667,-266 909,-266 909,-236 667,-236"/>
<text text-anchor="start" x="675" y="-254" font-family="Helvetica,sans-Serif" font-size="10.00">com.tomoparts.tomoBay.presenters.presenter</text>
<text text-anchor="middle" x="788" y="-243" font-family="Helvetica,sans-Serif" font-size="10.00">Actions.concreteActions.OrderInfo.execute</text>
</a>
</g>
</g>
<!-- Node3&#45;&gt;Node4 -->
<g id="edge3" class="edge"><title>Node3&#45;&gt;Node4</title>
<path fill="none" stroke="midnightblue" d="M641.322,-251C649.865,-251 658.439,-251 666.914,-251"/>
<polygon fill="midnightblue" stroke="midnightblue" points="641.313,-247.5 631.313,-251 641.313,-254.5 641.313,-247.5"/>
</g>
<!-- Node6&#45;&gt;Node3 -->
<g id="edge6" class="edge"><title>Node6&#45;&gt;Node3</title>
<path fill="none" stroke="midnightblue" d="M308.094,-212.971C346.281,-220.327 390.613,-228.868 427.58,-235.989"/>
<polygon fill="midnightblue" stroke="midnightblue" points="308.496,-209.484 298.014,-211.029 307.171,-216.358 308.496,-209.484"/>
</g>
</g>
</svg>
