<?xml version="1.0" encoding="UTF-8" standalone="no"?>
<!DOCTYPE svg PUBLIC "-//W3C//DTD SVG 1.1//EN"
 "http://www.w3.org/Graphics/SVG/1.1/DTD/svg11.dtd">
<!-- Generated by graphviz version 2.38.0 (20140413.2041)
 -->
<!-- Title: getEmail Pages: 1 -->
<svg width="367pt" height="100pt"
 viewBox="0.00 0.00 367.00 99.50" xmlns="http://www.w3.org/2000/svg" xmlns:xlink="http://www.w3.org/1999/xlink">
<g id="graph0" class="graph" transform="scale(1 1) rotate(0) translate(4 95.5)">
<title>getEmail</title>
<polygon fill="white" stroke="none" points="-4,4 -4,-95.5 363,-95.5 363,4 -4,4"/>
<!-- Node1 -->
<g id="node1" class="node"><title>Node1</title>
<polygon fill="#bfbfbf" stroke="black" points="0,-33 0,-52 59,-52 59,-33 0,-33"/>
<text text-anchor="middle" x="29.5" y="-40" font-family="Helvetica,sans-Serif" font-size="10.00">getEmail</text>
</g>
<!-- Node2 -->
<g id="node2" class="node"><title>Node2</title>
<g id="a_node2"><a xlink:href="classcom_1_1tomoparts_1_1tomoBay_1_1model_1_1services_1_1emailErrorsService_1_1EmailErrorsMailActions.html#ac25d519c7ee7b6a51c445abba35389e5" target="_top" xlink:title="default ctor ">
<polygon fill="white" stroke="black" points="106,-50 106,-91 348,-91 348,-50 106,-50"/>
<text text-anchor="start" x="114" y="-79" font-family="Helvetica,sans-Serif" font-size="10.00">com.tomoparts.tomoBay.model.services.email</text>
<text text-anchor="start" x="114" y="-68" font-family="Helvetica,sans-Serif" font-size="10.00">ErrorsService.EmailErrorsMailActions.Email</text>
<text text-anchor="middle" x="227" y="-57" font-family="Helvetica,sans-Serif" font-size="10.00">ErrorsMailActions</text>
</a>
</g>
</g>
<!-- Node1&#45;&gt;Node2 -->
<g id="edge1" class="edge"><title>Node1&#45;&gt;Node2</title>
<path fill="none" stroke="midnightblue" d="M69.3073,-48.0581C80.2312,-49.6226 92.7226,-51.4117 105.78,-53.2817"/>
<polygon fill="midnightblue" stroke="midnightblue" points="69.7419,-44.5847 59.3467,-46.6315 68.7494,-51.514 69.7419,-44.5847"/>
</g>
<!-- Node3 -->
<g id="node3" class="node"><title>Node3</title>
<g id="a_node3"><a xlink:href="classcom_1_1tomoparts_1_1tomoBay_1_1test_1_1unit_1_1model_1_1net_1_1email_1_1EmailTest.html#a8b260eecbaabcef8473fd87ada040682" target="_top" xlink:title="com.tomoparts.tomoBay.test.unit.model.net.email.\lEmailTest.main">
<polygon fill="white" stroke="black" points="95,-0.5 95,-30.5 359,-30.5 359,-0.5 95,-0.5"/>
<text text-anchor="start" x="103" y="-18.5" font-family="Helvetica,sans-Serif" font-size="10.00">com.tomoparts.tomoBay.test.unit.model.net.email.</text>
<text text-anchor="middle" x="227" y="-7.5" font-family="Helvetica,sans-Serif" font-size="10.00">EmailTest.main</text>
</a>
</g>
</g>
<!-- Node1&#45;&gt;Node3 -->
<g id="edge2" class="edge"><title>Node1&#45;&gt;Node3</title>
<path fill="none" stroke="midnightblue" d="M69.5623,-37.1052C83.6228,-35.1633 100.256,-32.8662 117.339,-30.5069"/>
<polygon fill="midnightblue" stroke="midnightblue" points="68.7738,-33.6808 59.3467,-38.5161 69.7315,-40.615 68.7738,-33.6808"/>
</g>
</g>
</svg>
