<?xml version="1.0" encoding="UTF-8" standalone="no"?>
<!DOCTYPE svg PUBLIC "-//W3C//DTD SVG 1.1//EN"
 "http://www.w3.org/Graphics/SVG/1.1/DTD/svg11.dtd">
<!-- Generated by graphviz version 2.38.0 (20140413.2041)
 -->
<!-- Title: PutInvoiceCommand Pages: 1 -->
<svg width="176pt" height="215pt"
 viewBox="0.00 0.00 176.00 215.00" xmlns="http://www.w3.org/2000/svg" xmlns:xlink="http://www.w3.org/1999/xlink">
<g id="graph0" class="graph" transform="scale(1 1) rotate(0) translate(4 211)">
<title>PutInvoiceCommand</title>
<polygon fill="white" stroke="none" points="-4,4 -4,-211 172,-211 172,4 -4,4"/>
<!-- Node1 -->
<g id="node1" class="node"><title>Node1</title>
<polygon fill="#bfbfbf" stroke="black" points="17,-0.5 17,-90.5 151,-90.5 151,-0.5 17,-0.5"/>
<text text-anchor="middle" x="84" y="-78.5" font-family="Helvetica,sans-Serif" font-size="10.00">PutInvoiceCommand</text>
<polyline fill="none" stroke="black" points="17,-71.5 151,-71.5 "/>
<text text-anchor="start" x="25" y="-59.5" font-family="Helvetica,sans-Serif" font-size="10.00">&#45; response_M</text>
<text text-anchor="start" x="25" y="-48.5" font-family="Helvetica,sans-Serif" font-size="10.00">&#45; payload_M</text>
<text text-anchor="start" x="25" y="-37.5" font-family="Helvetica,sans-Serif" font-size="10.00">&#45; RESPONSE_LENGTH</text>
<polyline fill="none" stroke="black" points="17,-30.5 151,-30.5 "/>
<text text-anchor="start" x="25" y="-18.5" font-family="Helvetica,sans-Serif" font-size="10.00">+ PutInvoiceCommand()</text>
<text text-anchor="start" x="25" y="-7.5" font-family="Helvetica,sans-Serif" font-size="10.00">+ execute()</text>
</g>
<!-- Node2 -->
<g id="node2" class="node"><title>Node2</title>
<g id="a_node2"><a xlink:href="classcom_1_1tomoparts_1_1tomoBay_1_1model_1_1winstock_1_1commands_1_1AbstractWinstockCommand.html" target="_top" xlink:title="This is the abstract base class for all Winstock commands, and acts as the abstract command in a GoF ...">
<polygon fill="white" stroke="black" points="-1.42109e-14,-127.5 -1.42109e-14,-206.5 168,-206.5 168,-127.5 -1.42109e-14,-127.5"/>
<text text-anchor="middle" x="84" y="-194.5" font-family="Helvetica,sans-Serif" font-size="10.00">AbstractWinstockCommand</text>
<polyline fill="none" stroke="black" points="-1.42109e-14,-187.5 168,-187.5 "/>
<text text-anchor="start" x="8" y="-175.5" font-family="Helvetica,sans-Serif" font-size="10.00"># config_M</text>
<text text-anchor="start" x="8" y="-164.5" font-family="Helvetica,sans-Serif" font-size="10.00"># winstockConnection_M</text>
<polyline fill="none" stroke="black" points="-1.42109e-14,-157.5 168,-157.5 "/>
<text text-anchor="start" x="8" y="-145.5" font-family="Helvetica,sans-Serif" font-size="10.00">+ execute()</text>
<text text-anchor="start" x="8" y="-134.5" font-family="Helvetica,sans-Serif" font-size="10.00"># AbstractWinstockCommand()</text>
</a>
</g>
</g>
<!-- Node2&#45;&gt;Node1 -->
<g id="edge1" class="edge"><title>Node2&#45;&gt;Node1</title>
<path fill="none" stroke="midnightblue" d="M84,-117.187C84,-108.491 84,-99.4758 84,-90.9111"/>
<polygon fill="none" stroke="midnightblue" points="80.5001,-117.202 84,-127.202 87.5001,-117.202 80.5001,-117.202"/>
</g>
</g>
</svg>
