<?xml version="1.0" encoding="UTF-8" standalone="no"?>
<!DOCTYPE svg PUBLIC "-//W3C//DTD SVG 1.1//EN"
 "http://www.w3.org/Graphics/SVG/1.1/DTD/svg11.dtd">
<!-- Generated by graphviz version 2.38.0 (20140413.2041)
 -->
<!-- Title: execute Pages: 1 -->
<svg width="1309pt" height="614pt"
 viewBox="0.00 0.00 1309.00 614.00" xmlns="http://www.w3.org/2000/svg" xmlns:xlink="http://www.w3.org/1999/xlink">
<g id="graph0" class="graph" transform="scale(1 1) rotate(0) translate(4 610)">
<title>execute</title>
<polygon fill="white" stroke="none" points="-4,4 -4,-610 1305,-610 1305,4 -4,4"/>
<!-- Node1 -->
<g id="node1" class="node"><title>Node1</title>
<polygon fill="#bfbfbf" stroke="black" points="0,-225 0,-244 55,-244 55,-225 0,-225"/>
<text text-anchor="middle" x="27.5" y="-232" font-family="Helvetica,sans-Serif" font-size="10.00">execute</text>
</g>
<!-- Node2 -->
<g id="node2" class="node"><title>Node2</title>
<g id="a_node2"><a xlink:href="classcom_1_1tomoparts_1_1tomoBay_1_1model_1_1dataTypes_1_1order_1_1Part.html#adf7708b28d8ccb0cec8e58a9cd8fa38c" target="_top" xlink:title="retrieve the brand associated with this part ">
<polygon fill="white" stroke="black" points="91,-504.5 91,-534.5 286,-534.5 286,-504.5 91,-504.5"/>
<text text-anchor="start" x="99" y="-522.5" font-family="Helvetica,sans-Serif" font-size="10.00">com.tomoparts.tomoBay.model.data</text>
<text text-anchor="middle" x="188.5" y="-511.5" font-family="Helvetica,sans-Serif" font-size="10.00">Types.order.Part.brand</text>
</a>
</g>
</g>
<!-- Node1&#45;&gt;Node2 -->
<g id="edge1" class="edge"><title>Node1&#45;&gt;Node2</title>
<path fill="none" stroke="midnightblue" d="M29.4938,-244.264C34.0544,-287.174 54.343,-458.522 91,-495.5 91.9571,-496.466 92.9467,-497.394 93.9658,-498.288"/>
<polygon fill="midnightblue" stroke="midnightblue" points="92.19,-501.328 102.309,-504.468 96.3565,-495.703 92.19,-501.328"/>
</g>
<!-- Node3 -->
<g id="node3" class="node"><title>Node3</title>
<g id="a_node3"><a xlink:href="classcom_1_1tomoparts_1_1tomoBay_1_1helpers_1_1BrandToCode.html#a10207714bd294d73dd98b80fd94a2ab8" target="_top" xlink:title="converts converts a string like &quot;citroen&quot; or &quot;fOrd&quot; to a brandcode integer specific to winstock...">
<polygon fill="white" stroke="black" points="96,-455.5 96,-485.5 281,-485.5 281,-455.5 96,-455.5"/>
<text text-anchor="start" x="104" y="-473.5" font-family="Helvetica,sans-Serif" font-size="10.00">com.tomoparts.tomoBay.helpers.</text>
<text text-anchor="middle" x="188.5" y="-462.5" font-family="Helvetica,sans-Serif" font-size="10.00">BrandToCode.convertToWinstockInt</text>
</a>
</g>
</g>
<!-- Node1&#45;&gt;Node3 -->
<g id="edge2" class="edge"><title>Node1&#45;&gt;Node3</title>
<path fill="none" stroke="midnightblue" d="M28.2539,-244.145C27.9585,-277.368 31.65,-388.162 91,-445.5 92.4936,-446.943 94.0592,-448.306 95.6868,-449.592"/>
<polygon fill="midnightblue" stroke="midnightblue" points="94.0503,-452.711 104.295,-455.412 97.9711,-446.912 94.0503,-452.711"/>
</g>
<!-- Node5 -->
<g id="node5" class="node"><title>Node5</title>
<g id="a_node5"><a xlink:href="classcom_1_1tomoparts_1_1tomoBay_1_1presenters_1_1presenterActions_1_1concreteActions_1_1PrintInvoices.html#ac97d696be5d448872836685e8efd21a6" target="_top" xlink:title="formats the AbstractSalesDayBookLine into a format that can be passed to the WinstockCommandInvoker. ">
<polygon fill="white" stroke="black" points="139,-417 139,-436 238,-436 238,-417 139,-417"/>
<text text-anchor="middle" x="188.5" y="-424" font-family="Helvetica,sans-Serif" font-size="10.00">formatAsDualList</text>
</a>
</g>
</g>
<!-- Node1&#45;&gt;Node5 -->
<g id="edge4" class="edge"><title>Node1&#45;&gt;Node5</title>
<path fill="none" stroke="midnightblue" d="M28.8513,-244.167C30.478,-273.701 39.6251,-363.408 91,-407.5 101.531,-416.538 115.101,-421.752 128.72,-424.66"/>
<polygon fill="midnightblue" stroke="midnightblue" points="128.149,-428.113 138.603,-426.391 129.356,-421.218 128.149,-428.113"/>
</g>
<!-- Node7 -->
<g id="node7" class="node"><title>Node7</title>
<g id="a_node7"><a xlink:href="classcom_1_1tomoparts_1_1tomoBay_1_1model_1_1dataTypes_1_1financial_1_1SalesOrderDayBook_1_1AbstractSalesDayBookLine.html#a2322342510367e536d54eb47f2c43512" target="_top" xlink:title="returns the invoice number of this invoice, if it exists. ">
<polygon fill="white" stroke="black" points="343.5,-269 343.5,-310 564.5,-310 564.5,-269 343.5,-269"/>
<text text-anchor="start" x="351.5" y="-298" font-family="Helvetica,sans-Serif" font-size="10.00">com.tomoparts.tomoBay.model.data</text>
<text text-anchor="start" x="351.5" y="-287" font-family="Helvetica,sans-Serif" font-size="10.00">Types.financial.SalesOrderDayBook.</text>
<text text-anchor="middle" x="454" y="-276" font-family="Helvetica,sans-Serif" font-size="10.00">AbstractSalesDayBookLine.invoiceNumber</text>
</a>
</g>
</g>
<!-- Node1&#45;&gt;Node7 -->
<g id="edge6" class="edge"><title>Node1&#45;&gt;Node7</title>
<path fill="none" stroke="midnightblue" d="M55.2778,-243.902C66.2292,-247.414 79.1001,-251.123 91,-253.5 170.839,-269.445 262.063,-278.46 332.962,-283.481"/>
<polygon fill="midnightblue" stroke="midnightblue" points="333.053,-286.996 343.271,-284.194 333.536,-280.013 333.053,-286.996"/>
</g>
<!-- Node11 -->
<g id="node11" class="node"><title>Node11</title>
<g id="a_node11"><a xlink:href="classcom_1_1tomoparts_1_1tomoBay_1_1model_1_1dataTypes_1_1financial_1_1SalesOrderDayBook_1_1AbstractSalesDayBookLine.html#afacf6217c7f58a049b532205066da488" target="_top" xlink:title="retrieve the order that this AbstractSalesDayBookLine refers to. ">
<polygon fill="white" stroke="black" points="622,-170 622,-211 817,-211 817,-170 622,-170"/>
<text text-anchor="start" x="630" y="-199" font-family="Helvetica,sans-Serif" font-size="10.00">com.tomoparts.tomoBay.model.data</text>
<text text-anchor="start" x="630" y="-188" font-family="Helvetica,sans-Serif" font-size="10.00">Types.financial.SalesOrderDayBook.</text>
<text text-anchor="middle" x="719.5" y="-177" font-family="Helvetica,sans-Serif" font-size="10.00">AbstractSalesDayBookLine.orderInfo</text>
</a>
</g>
</g>
<!-- Node1&#45;&gt;Node11 -->
<g id="edge18" class="edge"><title>Node1&#45;&gt;Node11</title>
<path fill="none" stroke="midnightblue" d="M55.1039,-225.785C66.1415,-222.334 79.1212,-218.486 91,-215.5 176.717,-193.954 214.647,-228.656 286,-176.5 312.661,-157.012 293.549,-128.266 322,-111.5 423.087,-51.9309 472.881,-80.337 586,-111.5 622.884,-121.661 659.862,-145.081 685.345,-163.799"/>
<polygon fill="midnightblue" stroke="midnightblue" points="683.43,-166.738 693.529,-169.94 687.631,-161.139 683.43,-166.738"/>
</g>
<!-- Node12 -->
<g id="node12" class="node"><title>Node12</title>
<g id="a_node12"><a xlink:href="classcom_1_1tomoparts_1_1tomoBay_1_1model_1_1dataTypes_1_1order_1_1Transaction.html#ae22e0c0169b69acfb681cf924aa8f0a8" target="_top" xlink:title="retrieve the listing associated with this transaction ">
<polygon fill="white" stroke="black" points="91,-137.5 91,-167.5 286,-167.5 286,-137.5 91,-137.5"/>
<text text-anchor="start" x="99" y="-155.5" font-family="Helvetica,sans-Serif" font-size="10.00">com.tomoparts.tomoBay.model.data</text>
<text text-anchor="middle" x="188.5" y="-144.5" font-family="Helvetica,sans-Serif" font-size="10.00">Types.order.Transaction.listing</text>
</a>
</g>
</g>
<!-- Node1&#45;&gt;Node12 -->
<g id="edge11" class="edge"><title>Node1&#45;&gt;Node12</title>
<path fill="none" stroke="midnightblue" d="M37.7826,-224.716C49.2724,-213.127 69.9151,-193.955 91,-182.5 99.0381,-178.133 107.805,-174.3 116.67,-170.966"/>
<polygon fill="midnightblue" stroke="midnightblue" points="118.05,-174.19 126.299,-167.541 115.704,-167.594 118.05,-174.19"/>
</g>
<!-- Node13 -->
<g id="node13" class="node"><title>Node13</title>
<g id="a_node13"><a xlink:href="classcom_1_1tomoparts_1_1tomoBay_1_1model_1_1dataTypes_1_1financial_1_1SalesOrderDayBook_1_1SalesDayBookLineFactory.html#a2d63fd7591115332417a84014f39b204" target="_top" xlink:title="create the requested AbstractSalesDayBookLine. ">
<polygon fill="white" stroke="black" points="91,-357 91,-398 286,-398 286,-357 91,-357"/>
<text text-anchor="start" x="99" y="-386" font-family="Helvetica,sans-Serif" font-size="10.00">com.tomoparts.tomoBay.model.data</text>
<text text-anchor="start" x="99" y="-375" font-family="Helvetica,sans-Serif" font-size="10.00">Types.financial.SalesOrderDayBook.</text>
<text text-anchor="middle" x="188.5" y="-364" font-family="Helvetica,sans-Serif" font-size="10.00">SalesDayBookLineFactory.make</text>
</a>
</g>
</g>
<!-- Node1&#45;&gt;Node13 -->
<g id="edge12" class="edge"><title>Node1&#45;&gt;Node13</title>
<path fill="none" stroke="midnightblue" d="M38.0441,-244.221C50.1343,-256.439 71.7204,-277.938 91,-295.5 111.621,-314.284 135.505,-334.59 154.353,-350.296"/>
<polygon fill="midnightblue" stroke="midnightblue" points="152.169,-353.032 162.098,-356.728 156.641,-347.646 152.169,-353.032"/>
</g>
<!-- Node18 -->
<g id="node18" class="node"><title>Node18</title>
<g id="a_node18"><a xlink:href="classcom_1_1tomoparts_1_1tomoBay_1_1model_1_1dataTypes_1_1order_1_1Listing.html#aeb86e87dbdd13b9820905d09d542e7e4" target="_top" xlink:title="retrieve the part specified in the parameter ">
<polygon fill="white" stroke="black" points="91,-88.5 91,-118.5 286,-118.5 286,-88.5 91,-88.5"/>
<text text-anchor="start" x="99" y="-106.5" font-family="Helvetica,sans-Serif" font-size="10.00">com.tomoparts.tomoBay.model.data</text>
<text text-anchor="middle" x="188.5" y="-95.5" font-family="Helvetica,sans-Serif" font-size="10.00">Types.order.Listing.part</text>
</a>
</g>
</g>
<!-- Node1&#45;&gt;Node18 -->
<g id="edge19" class="edge"><title>Node1&#45;&gt;Node18</title>
<path fill="none" stroke="midnightblue" d="M31.3198,-224.766C37.9757,-203.586 56.7368,-153.168 91,-127.5 92.8523,-126.112 94.7753,-124.804 96.7564,-123.571"/>
<polygon fill="midnightblue" stroke="midnightblue" points="98.6872,-126.504 105.777,-118.631 95.3246,-120.365 98.6872,-126.504"/>
</g>
<!-- Node19 -->
<g id="node19" class="node"><title>Node19</title>
<g id="a_node19"><a xlink:href="classcom_1_1tomoparts_1_1tomoBay_1_1presenters_1_1presenterActions_1_1concreteActions_1_1PrintInvoices.html#a3396bf15e4a594abdeb16cb37f076ce2" target="_top" xlink:title="actually send the data to the winstock server to print the invoice ">
<polygon fill="white" stroke="black" points="169.5,-225 169.5,-244 207.5,-244 207.5,-225 169.5,-225"/>
<text text-anchor="middle" x="188.5" y="-232" font-family="Helvetica,sans-Serif" font-size="10.00">print</text>
</a>
</g>
</g>
<!-- Node1&#45;&gt;Node19 -->
<g id="edge20" class="edge"><title>Node1&#45;&gt;Node19</title>
<path fill="none" stroke="midnightblue" d="M55.113,-234.5C83.9303,-234.5 129.715,-234.5 159.182,-234.5"/>
<polygon fill="midnightblue" stroke="midnightblue" points="159.238,-238 169.238,-234.5 159.238,-231 159.238,-238"/>
</g>
<!-- Node23 -->
<g id="node23" class="node"><title>Node23</title>
<g id="a_node23"><a xlink:href="classcom_1_1tomoparts_1_1tomoBay_1_1presenters_1_1presenterActions_1_1concreteActions_1_1PrintInvoices.html#a1dcb7cb2d938a4d9ed4403825bfa97e4" target="_top" xlink:title="splits the &#39;data&#39; string into a string array ">
<polygon fill="white" stroke="black" points="136,-50 136,-69 241,-69 241,-50 136,-50"/>
<text text-anchor="middle" x="188.5" y="-57" font-family="Helvetica,sans-Serif" font-size="10.00">splitOrderNoString</text>
</a>
</g>
</g>
<!-- Node1&#45;&gt;Node23 -->
<g id="edge25" class="edge"><title>Node1&#45;&gt;Node23</title>
<path fill="none" stroke="midnightblue" d="M29.2594,-224.987C31.9901,-197.525 43.8268,-117.598 91,-78.5 100.855,-70.3321 113.212,-65.3185 125.762,-62.3123"/>
<polygon fill="midnightblue" stroke="midnightblue" points="126.699,-65.6945 135.824,-60.3098 125.333,-58.8291 126.699,-65.6945"/>
</g>
<!-- Node24 -->
<g id="node24" class="node"><title>Node24</title>
<g id="a_node24"><a xlink:href="classcom_1_1tomoparts_1_1tomoBay_1_1model_1_1dataTypes_1_1order_1_1Order.html#a39d4b856c1dcba627c763d60c3be86b0" target="_top" xlink:title="An order is made up of transactions, this method retrieves the specified transaction, given the index parameter. ">
<polygon fill="white" stroke="black" points="91,-0.5 91,-30.5 286,-30.5 286,-0.5 91,-0.5"/>
<text text-anchor="start" x="99" y="-18.5" font-family="Helvetica,sans-Serif" font-size="10.00">com.tomoparts.tomoBay.model.data</text>
<text text-anchor="middle" x="188.5" y="-7.5" font-family="Helvetica,sans-Serif" font-size="10.00">Types.order.Order.transaction</text>
</a>
</g>
</g>
<!-- Node1&#45;&gt;Node24 -->
<g id="edge26" class="edge"><title>Node1&#45;&gt;Node24</title>
<path fill="none" stroke="midnightblue" d="M28.5472,-224.744C29.2525,-193.117 35.9202,-92.4655 91,-40.5 92.5106,-39.0748 94.0916,-37.7283 95.7331,-36.4562"/>
<polygon fill="midnightblue" stroke="midnightblue" points="98.008,-39.1468 104.399,-30.6965 94.1332,-33.3171 98.008,-39.1468"/>
</g>
<!-- Node4 -->
<g id="node4" class="node"><title>Node4</title>
<g id="a_node4"><a xlink:href="classcom_1_1tomoparts_1_1tomoBay_1_1helpers_1_1BrandToCode.html#a84072526fa5d5ce298cdceffc81f43e7" target="_top" xlink:title="converts a string like &quot;citroen&quot; or &quot;fOrd&quot; to a brandcode specific to winstock. ">
<polygon fill="white" stroke="black" points="364.5,-575.5 364.5,-605.5 543.5,-605.5 543.5,-575.5 364.5,-575.5"/>
<text text-anchor="start" x="372.5" y="-593.5" font-family="Helvetica,sans-Serif" font-size="10.00">com.tomoparts.tomoBay.helpers.</text>
<text text-anchor="middle" x="454" y="-582.5" font-family="Helvetica,sans-Serif" font-size="10.00">BrandToCode.convert</text>
</a>
</g>
</g>
<!-- Node3&#45;&gt;Node4 -->
<g id="edge3" class="edge"><title>Node3&#45;&gt;Node4</title>
<path fill="none" stroke="midnightblue" d="M270.057,-485.503C275.748,-488.293 281.146,-491.594 286,-495.5 313.566,-517.678 293.651,-545.332 322,-566.5 331.625,-573.687 342.739,-578.945 354.341,-582.762"/>
<polygon fill="midnightblue" stroke="midnightblue" points="353.599,-586.191 364.179,-585.639 355.564,-579.473 353.599,-586.191"/>
</g>
<!-- Node6 -->
<g id="node6" class="node"><title>Node6</title>
<g id="a_node6"><a xlink:href="classcom_1_1tomoparts_1_1tomoBay_1_1model_1_1dataTypes_1_1DualList.html#ac6c5d11a7054f49bb7c9489f5893daeb" target="_top" xlink:title="add a value pair to the DualList ">
<polygon fill="white" stroke="black" points="356.5,-526.5 356.5,-556.5 551.5,-556.5 551.5,-526.5 356.5,-526.5"/>
<text text-anchor="start" x="364.5" y="-544.5" font-family="Helvetica,sans-Serif" font-size="10.00">com.tomoparts.tomoBay.model.data</text>
<text text-anchor="middle" x="454" y="-533.5" font-family="Helvetica,sans-Serif" font-size="10.00">Types.DualList.put</text>
</a>
</g>
</g>
<!-- Node5&#45;&gt;Node6 -->
<g id="edge5" class="edge"><title>Node5&#45;&gt;Node6</title>
<path fill="none" stroke="midnightblue" d="M238.19,-428.149C254.712,-430.78 272.41,-436.105 286,-446.5 314.102,-467.994 293.651,-496.332 322,-517.5 329.483,-523.087 337.866,-527.509 346.678,-530.994"/>
<polygon fill="midnightblue" stroke="midnightblue" points="345.792,-534.393 356.387,-534.418 348.121,-527.791 345.792,-534.393"/>
</g>
<!-- Node8 -->
<g id="node8" class="node"><title>Node8</title>
<g id="a_node8"><a xlink:href="classcom_1_1tomoparts_1_1tomoBay_1_1model_1_1dataTypes_1_1order_1_1Order.html#a71ffaf8494f38432864d46ea421343fc" target="_top" xlink:title="retrieve the invoice number from this order(if it has one) ">
<polygon fill="white" stroke="black" points="622,-301.5 622,-331.5 817,-331.5 817,-301.5 622,-301.5"/>
<text text-anchor="start" x="630" y="-319.5" font-family="Helvetica,sans-Serif" font-size="10.00">com.tomoparts.tomoBay.model.data</text>
<text text-anchor="middle" x="719.5" y="-308.5" font-family="Helvetica,sans-Serif" font-size="10.00">Types.order.Order.invoiceNo</text>
</a>
</g>
</g>
<!-- Node7&#45;&gt;Node8 -->
<g id="edge7" class="edge"><title>Node7&#45;&gt;Node8</title>
<path fill="none" stroke="midnightblue" d="M564.84,-300.755C580.362,-302.345 596.302,-303.979 611.765,-305.563"/>
<polygon fill="midnightblue" stroke="midnightblue" points="611.543,-309.059 621.848,-306.596 612.257,-302.095 611.543,-309.059"/>
</g>
<!-- Node7&#45;&gt;Node11 -->
<g id="edge10" class="edge"><title>Node7&#45;&gt;Node11</title>
<path fill="none" stroke="midnightblue" d="M556.6,-268.951C566.636,-266.112 576.585,-262.965 586,-259.5 617.324,-247.973 650.64,-230.597 676.029,-216.167"/>
<polygon fill="midnightblue" stroke="midnightblue" points="678.084,-219.022 685.005,-211 674.592,-212.955 678.084,-219.022"/>
</g>
<!-- Node9 -->
<g id="node9" class="node"><title>Node9</title>
<g id="a_node9"><a xlink:href="classcom_1_1tomoparts_1_1tomoBay_1_1model_1_1dataTypes_1_1heteroTypeContainer_1_1HeteroFieldContainer.html#a988363ab964d6dc0ccb8560bef5895b6" target="_top" xlink:title="retrieve the the value of an AbstractField from this HeteroFieldContainer, the field should be of the...">
<polygon fill="white" stroke="black" points="853,-348 853,-389 1059,-389 1059,-348 853,-348"/>
<text text-anchor="start" x="861" y="-377" font-family="Helvetica,sans-Serif" font-size="10.00">com.tomoparts.tomoBay.model.data</text>
<text text-anchor="start" x="861" y="-366" font-family="Helvetica,sans-Serif" font-size="10.00">Types.heteroTypeContainer.HeteroField</text>
<text text-anchor="middle" x="956" y="-355" font-family="Helvetica,sans-Serif" font-size="10.00">Container.get</text>
</a>
</g>
</g>
<!-- Node8&#45;&gt;Node9 -->
<g id="edge8" class="edge"><title>Node8&#45;&gt;Node9</title>
<path fill="none" stroke="midnightblue" d="M788.327,-331.541C808.386,-335.989 830.807,-340.96 852.539,-345.779"/>
<polygon fill="midnightblue" stroke="midnightblue" points="851.943,-349.232 862.464,-347.98 853.459,-342.398 851.943,-349.232"/>
</g>
<!-- Node10 -->
<g id="node10" class="node"><title>Node10</title>
<g id="a_node10"><a xlink:href="classcom_1_1tomoparts_1_1tomoBay_1_1model_1_1dataTypes_1_1heteroTypeContainer_1_1HeteroFieldContainer.html#a9dee3c01eb5ab16203e1c6820a569484" target="_top" xlink:title="performs a type check, assuming that field and type are of the same type then this method returns tru...">
<polygon fill="white" stroke="black" points="1095,-348 1095,-389 1301,-389 1301,-348 1095,-348"/>
<text text-anchor="start" x="1103" y="-377" font-family="Helvetica,sans-Serif" font-size="10.00">com.tomoparts.tomoBay.model.data</text>
<text text-anchor="start" x="1103" y="-366" font-family="Helvetica,sans-Serif" font-size="10.00">Types.heteroTypeContainer.HeteroField</text>
<text text-anchor="middle" x="1198" y="-355" font-family="Helvetica,sans-Serif" font-size="10.00">Container.isSameType</text>
</a>
</g>
</g>
<!-- Node9&#45;&gt;Node10 -->
<g id="edge9" class="edge"><title>Node9&#45;&gt;Node10</title>
<path fill="none" stroke="midnightblue" d="M1059.13,-368.5C1067.66,-368.5 1076.31,-368.5 1084.91,-368.5"/>
<polygon fill="midnightblue" stroke="midnightblue" points="1084.96,-372 1094.96,-368.5 1084.96,-365 1084.96,-372"/>
</g>
<!-- Node14 -->
<g id="node14" class="node"><title>Node14</title>
<g id="a_node14"><a xlink:href="classcom_1_1tomoparts_1_1tomoBay_1_1model_1_1dataTypes_1_1order_1_1Order.html#a72e31cd12a6fab47d81bc64942d3f25f" target="_top" xlink:title="Retrieve the Buyer that placed this order. ">
<polygon fill="white" stroke="black" points="356.5,-389.5 356.5,-419.5 551.5,-419.5 551.5,-389.5 356.5,-389.5"/>
<text text-anchor="start" x="364.5" y="-407.5" font-family="Helvetica,sans-Serif" font-size="10.00">com.tomoparts.tomoBay.model.data</text>
<text text-anchor="middle" x="454" y="-396.5" font-family="Helvetica,sans-Serif" font-size="10.00">Types.order.Order.buyer</text>
</a>
</g>
</g>
<!-- Node13&#45;&gt;Node14 -->
<g id="edge13" class="edge"><title>Node13&#45;&gt;Node14</title>
<path fill="none" stroke="midnightblue" d="M286.121,-387.4C305.723,-389.409 326.444,-391.532 346.369,-393.574"/>
<polygon fill="midnightblue" stroke="midnightblue" points="346.086,-397.063 356.39,-394.601 346.799,-390.1 346.086,-397.063"/>
</g>
<!-- Node15 -->
<g id="node15" class="node"><title>Node15</title>
<g id="a_node15"><a xlink:href="interfacecom_1_1tomoparts_1_1tomoBay_1_1model_1_1dataTypes_1_1financial_1_1SalesOrderDayBook_1_1a38f4d3f32912069bfc4d3f63627866d.html#ab4b1ec3764547f367b1515c5d7b378fb" target="_top" xlink:title="make an AbstractSalesDayBookLine specific to this child class. ">
<polygon fill="white" stroke="black" points="337.5,-329 337.5,-370 570.5,-370 570.5,-329 337.5,-329"/>
<text text-anchor="start" x="345.5" y="-358" font-family="Helvetica,sans-Serif" font-size="10.00">com.tomoparts.tomoBay.model.data</text>
<text text-anchor="start" x="345.5" y="-347" font-family="Helvetica,sans-Serif" font-size="10.00">Types.financial.SalesOrderDayBook.factories.</text>
<text text-anchor="middle" x="454" y="-336" font-family="Helvetica,sans-Serif" font-size="10.00">AbstractSalesDayBookLineFactory.make</text>
</a>
</g>
</g>
<!-- Node13&#45;&gt;Node15 -->
<g id="edge14" class="edge"><title>Node13&#45;&gt;Node15</title>
<path fill="none" stroke="midnightblue" d="M286.121,-367.233C299.477,-365.814 313.353,-364.339 327.142,-362.874"/>
<polygon fill="midnightblue" stroke="midnightblue" points="327.584,-366.347 337.158,-361.81 326.845,-359.386 327.584,-366.347"/>
</g>
<!-- Node16 -->
<g id="node16" class="node"><title>Node16</title>
<g id="a_node16"><a xlink:href="classcom_1_1tomoparts_1_1tomoBay_1_1model_1_1dataTypes_1_1order_1_1Order.html#aa1be772bd50137a618371188bfc5d284" target="_top" xlink:title="com.tomoparts.tomoBay.model.data\lTypes.order.Order.shippingCost">
<polygon fill="white" stroke="black" points="356.5,-477.5 356.5,-507.5 551.5,-507.5 551.5,-477.5 356.5,-477.5"/>
<text text-anchor="start" x="364.5" y="-495.5" font-family="Helvetica,sans-Serif" font-size="10.00">com.tomoparts.tomoBay.model.data</text>
<text text-anchor="middle" x="454" y="-484.5" font-family="Helvetica,sans-Serif" font-size="10.00">Types.order.Order.shippingCost</text>
</a>
</g>
</g>
<!-- Node13&#45;&gt;Node16 -->
<g id="edge15" class="edge"><title>Node13&#45;&gt;Node16</title>
<path fill="none" stroke="midnightblue" d="M271.081,-398.196C276.344,-400.927 281.378,-404.013 286,-407.5 309.323,-425.095 298.023,-445.807 322,-462.5 329.593,-467.787 337.978,-472.155 346.726,-475.764"/>
<polygon fill="midnightblue" stroke="midnightblue" points="345.749,-479.136 356.341,-479.388 348.218,-472.586 345.749,-479.136"/>
</g>
<!-- Node17 -->
<g id="node17" class="node"><title>Node17</title>
<g id="a_node17"><a xlink:href="classcom_1_1tomoparts_1_1tomoBay_1_1model_1_1dataTypes_1_1order_1_1Buyer.html#a1b6c2d401bf44f453c1b2ed3aaa04638" target="_top" xlink:title="retrieve the second street line of the address of this buyer ">
<polygon fill="white" stroke="black" points="622,-405.5 622,-435.5 817,-435.5 817,-405.5 622,-405.5"/>
<text text-anchor="start" x="630" y="-423.5" font-family="Helvetica,sans-Serif" font-size="10.00">com.tomoparts.tomoBay.model.data</text>
<text text-anchor="middle" x="719.5" y="-412.5" font-family="Helvetica,sans-Serif" font-size="10.00">Types.order.Buyer.street2</text>
</a>
</g>
</g>
<!-- Node13&#45;&gt;Node17 -->
<g id="edge16" class="edge"><title>Node13&#45;&gt;Node17</title>
<path fill="none" stroke="midnightblue" d="M262.415,-398.04C270.481,-400.938 278.488,-404.1 286,-407.5 303.083,-415.231 303.95,-424.421 322,-429.5 424.812,-458.428 548.603,-448.995 630.204,-437.069"/>
<polygon fill="midnightblue" stroke="midnightblue" points="631.07,-440.478 640.437,-435.528 630.028,-433.556 631.07,-440.478"/>
</g>
<!-- Node17&#45;&gt;Node9 -->
<g id="edge17" class="edge"><title>Node17&#45;&gt;Node9</title>
<path fill="none" stroke="midnightblue" d="M788.327,-405.459C808.386,-401.011 830.807,-396.04 852.539,-391.221"/>
<polygon fill="midnightblue" stroke="midnightblue" points="853.459,-394.602 862.464,-389.02 851.943,-387.768 853.459,-394.602"/>
</g>
<!-- Node19&#45;&gt;Node7 -->
<g id="edge23" class="edge"><title>Node19&#45;&gt;Node7</title>
<path fill="none" stroke="midnightblue" d="M207.611,-238.28C235.903,-244.186 292.724,-256.046 344.569,-266.867"/>
<polygon fill="midnightblue" stroke="midnightblue" points="344.018,-270.328 354.522,-268.945 345.448,-263.475 344.018,-270.328"/>
</g>
<!-- Node20 -->
<g id="node20" class="node"><title>Node20</title>
<g id="a_node20"><a xlink:href="classcom_1_1tomoparts_1_1tomoBay_1_1model_1_1winstock_1_1WinstockCommandInvoker.html#af1434b0b82b0016e3a50a6aaecc770c2" target="_top" xlink:title="This method executes the AbstractWinstockCommand that the user has requested. ">
<polygon fill="white" stroke="black" points="345.5,-121.5 345.5,-151.5 562.5,-151.5 562.5,-121.5 345.5,-121.5"/>
<text text-anchor="start" x="353.5" y="-139.5" font-family="Helvetica,sans-Serif" font-size="10.00">com.tomoparts.tomoBay.model.winstock.</text>
<text text-anchor="middle" x="454" y="-128.5" font-family="Helvetica,sans-Serif" font-size="10.00">WinstockCommandInvoker.execute</text>
</a>
</g>
</g>
<!-- Node19&#45;&gt;Node20 -->
<g id="edge21" class="edge"><title>Node19&#45;&gt;Node20</title>
<path fill="none" stroke="midnightblue" d="M207.725,-233.676C228.336,-231.954 262.128,-226.666 286,-210.5 308.673,-195.146 298.858,-175.138 322,-160.5 326.406,-157.713 331.052,-155.231 335.861,-153.022"/>
<polygon fill="midnightblue" stroke="midnightblue" points="337.402,-156.172 345.292,-149.101 334.715,-149.708 337.402,-156.172"/>
</g>
<!-- Node21 -->
<g id="node21" class="node"><title>Node21</title>
<g id="a_node21"><a xlink:href="interfacecom_1_1tomoparts_1_1tomoBay_1_1model_1_1winstock_1_1response_1_1AbstractWinstockCommandResponse.html#a94c43012f032cf0ad0acc1d6a6047cf6" target="_top" xlink:title="method of descerning whether the AbstractWinstockCommand associated with this AbstractWinstockCommand...">
<polygon fill="white" stroke="black" points="322,-219.5 322,-249.5 586,-249.5 586,-219.5 322,-219.5"/>
<text text-anchor="start" x="330" y="-237.5" font-family="Helvetica,sans-Serif" font-size="10.00">com.tomoparts.tomoBay.model.winstock.response.</text>
<text text-anchor="middle" x="454" y="-226.5" font-family="Helvetica,sans-Serif" font-size="10.00">AbstractWinstockCommandResponse.isSuccess</text>
</a>
</g>
</g>
<!-- Node19&#45;&gt;Node21 -->
<g id="edge22" class="edge"><title>Node19&#45;&gt;Node21</title>
<path fill="none" stroke="midnightblue" d="M207.611,-234.5C230.001,-234.5 270.26,-234.5 311.779,-234.5"/>
<polygon fill="midnightblue" stroke="midnightblue" points="311.781,-238 321.781,-234.5 311.781,-231 311.781,-238"/>
</g>
<!-- Node22 -->
<g id="node22" class="node"><title>Node22</title>
<g id="a_node22"><a xlink:href="classcom_1_1tomoparts_1_1tomoBay_1_1helpers_1_1StackTraceToString.html#acc17f606a32b47fa21910194d3fc44c6" target="_top" xlink:title="Converts the stack trace of the exception provided into a string. ">
<polygon fill="white" stroke="black" points="364.5,-170.5 364.5,-200.5 543.5,-200.5 543.5,-170.5 364.5,-170.5"/>
<text text-anchor="start" x="372.5" y="-188.5" font-family="Helvetica,sans-Serif" font-size="10.00">com.tomoparts.tomoBay.helpers.</text>
<text text-anchor="middle" x="454" y="-177.5" font-family="Helvetica,sans-Serif" font-size="10.00">StackTraceToString.toString</text>
</a>
</g>
</g>
<!-- Node19&#45;&gt;Node22 -->
<g id="edge24" class="edge"><title>Node19&#45;&gt;Node22</title>
<path fill="none" stroke="midnightblue" d="M207.611,-231.132C239.147,-225.268 306.129,-212.812 362.155,-202.393"/>
<polygon fill="midnightblue" stroke="midnightblue" points="362.927,-205.81 372.118,-200.541 361.647,-198.928 362.927,-205.81"/>
</g>
</g>
</svg>
