<?xml version="1.0" encoding="UTF-8" standalone="no"?>
<!DOCTYPE svg PUBLIC "-//W3C//DTD SVG 1.1//EN"
 "http://www.w3.org/Graphics/SVG/1.1/DTD/svg11.dtd">
<!-- Generated by graphviz version 2.38.0 (20140413.2041)
 -->
<!-- Title: make Pages: 1 -->
<svg width="316pt" height="235pt"
 viewBox="0.00 0.00 316.00 235.00" xmlns="http://www.w3.org/2000/svg" xmlns:xlink="http://www.w3.org/1999/xlink">
<g id="graph0" class="graph" transform="scale(1 1) rotate(0) translate(4 231)">
<title>make</title>
<polygon fill="white" stroke="none" points="-4,4 -4,-231 312,-231 312,4 -4,4"/>
<!-- Node1 -->
<g id="node1" class="node"><title>Node1</title>
<polygon fill="#bfbfbf" stroke="black" points="0,-104 0,-123 44,-123 44,-104 0,-104"/>
<text text-anchor="middle" x="22" y="-111" font-family="Helvetica,sans-Serif" font-size="10.00">make</text>
</g>
<!-- Node2 -->
<g id="node2" class="node"><title>Node2</title>
<g id="a_node2"><a xlink:href="classcom_1_1tomoparts_1_1tomoBay_1_1presenters_1_1orderDetails_1_1OrderDetailsPresenter.html#aae3ef9e158aa1e975acedd263e47fa3c" target="_top" xlink:title="this method is called when you actually want to present the information to be displayed to the approp...">
<polygon fill="white" stroke="black" points="83.5,-196.5 83.5,-226.5 304.5,-226.5 304.5,-196.5 83.5,-196.5"/>
<text text-anchor="start" x="91.5" y="-214.5" font-family="Helvetica,sans-Serif" font-size="10.00">com.tomoparts.tomoBay.presenters.order</text>
<text text-anchor="middle" x="194" y="-203.5" font-family="Helvetica,sans-Serif" font-size="10.00">Details.OrderDetailsPresenter.present</text>
</a>
</g>
</g>
<!-- Node1&#45;&gt;Node2 -->
<g id="edge1" class="edge"><title>Node1&#45;&gt;Node2</title>
<path fill="none" stroke="midnightblue" d="M32.4384,-132.278C42.0405,-149.391 58.5473,-173.994 80,-187.5 85.4312,-190.919 91.2702,-193.859 97.3302,-196.385"/>
<polygon fill="midnightblue" stroke="midnightblue" points="35.394,-130.382 27.5974,-123.209 29.2186,-133.679 35.394,-130.382"/>
</g>
<!-- Node3 -->
<g id="node3" class="node"><title>Node3</title>
<g id="a_node3"><a xlink:href="classcom_1_1tomoparts_1_1tomoBay_1_1presenters_1_1admin_1_1AdminPresenter.html#aae3ef9e158aa1e975acedd263e47fa3c" target="_top" xlink:title="this method is called when you actually want to present the information to be displayed to the approp...">
<polygon fill="white" stroke="black" points="80,-147.5 80,-177.5 308,-177.5 308,-147.5 80,-147.5"/>
<text text-anchor="start" x="88" y="-165.5" font-family="Helvetica,sans-Serif" font-size="10.00">com.tomoparts.tomoBay.presenters.admin.</text>
<text text-anchor="middle" x="194" y="-154.5" font-family="Helvetica,sans-Serif" font-size="10.00">AdminPresenter.present</text>
</a>
</g>
</g>
<!-- Node1&#45;&gt;Node3 -->
<g id="edge2" class="edge"><title>Node1&#45;&gt;Node3</title>
<path fill="none" stroke="midnightblue" d="M51.3998,-127.316C60.3975,-131.323 70.4818,-135.437 80,-138.5 90.3095,-141.817 101.298,-144.803 112.219,-147.449"/>
<polygon fill="midnightblue" stroke="midnightblue" points="52.6895,-124.057 42.1411,-123.067 49.7695,-130.419 52.6895,-124.057"/>
</g>
<!-- Node4 -->
<g id="node4" class="node"><title>Node4</title>
<g id="a_node4"><a xlink:href="classcom_1_1tomoparts_1_1tomoBay_1_1presenters_1_1crm_1_1CRMDetailPresenter.html#aae3ef9e158aa1e975acedd263e47fa3c" target="_top" xlink:title="this method is called when you actually want to present the information to be displayed to the approp...">
<polygon fill="white" stroke="black" points="85.5,-98.5 85.5,-128.5 302.5,-128.5 302.5,-98.5 85.5,-98.5"/>
<text text-anchor="start" x="93.5" y="-116.5" font-family="Helvetica,sans-Serif" font-size="10.00">com.tomoparts.tomoBay.presenters.crm.</text>
<text text-anchor="middle" x="194" y="-105.5" font-family="Helvetica,sans-Serif" font-size="10.00">CRMDetailPresenter.present</text>
</a>
</g>
</g>
<!-- Node1&#45;&gt;Node4 -->
<g id="edge3" class="edge"><title>Node1&#45;&gt;Node4</title>
<path fill="none" stroke="midnightblue" d="M54.2511,-113.5C63.4215,-113.5 74.0072,-113.5 85.1595,-113.5"/>
<polygon fill="midnightblue" stroke="midnightblue" points="54.1869,-110 44.1869,-113.5 54.1869,-117 54.1869,-110"/>
</g>
<!-- Node5 -->
<g id="node5" class="node"><title>Node5</title>
<g id="a_node5"><a xlink:href="classcom_1_1tomoparts_1_1tomoBay_1_1presenters_1_1root_1_1RootPresenter.html#aae3ef9e158aa1e975acedd263e47fa3c" target="_top" xlink:title="this method is called when you actually want to present the information to be displayed to the approp...">
<polygon fill="white" stroke="black" points="85,-49.5 85,-79.5 303,-79.5 303,-49.5 85,-49.5"/>
<text text-anchor="start" x="93" y="-67.5" font-family="Helvetica,sans-Serif" font-size="10.00">com.tomoparts.tomoBay.presenters.root.</text>
<text text-anchor="middle" x="194" y="-56.5" font-family="Helvetica,sans-Serif" font-size="10.00">RootPresenter.present</text>
</a>
</g>
</g>
<!-- Node1&#45;&gt;Node5 -->
<g id="edge4" class="edge"><title>Node1&#45;&gt;Node5</title>
<path fill="none" stroke="midnightblue" d="M52.6028,-99.8404C61.3081,-96.1514 70.9307,-92.3864 80,-89.5 91.5834,-85.8134 104.003,-82.473 116.217,-79.5211"/>
<polygon fill="midnightblue" stroke="midnightblue" points="51.0096,-96.7168 43.2423,-103.922 53.8077,-103.133 51.0096,-96.7168"/>
</g>
<!-- Node6 -->
<g id="node6" class="node"><title>Node6</title>
<g id="a_node6"><a xlink:href="classcom_1_1tomoparts_1_1tomoBay_1_1presenters_1_1crm_1_1CRMOverviewPresenter.html#aae3ef9e158aa1e975acedd263e47fa3c" target="_top" xlink:title="this method is called when you actually want to present the information to be displayed to the approp...">
<polygon fill="white" stroke="black" points="85.5,-0.5 85.5,-30.5 302.5,-30.5 302.5,-0.5 85.5,-0.5"/>
<text text-anchor="start" x="93.5" y="-18.5" font-family="Helvetica,sans-Serif" font-size="10.00">com.tomoparts.tomoBay.presenters.crm.</text>
<text text-anchor="middle" x="194" y="-7.5" font-family="Helvetica,sans-Serif" font-size="10.00">CRMOverviewPresenter.present</text>
</a>
</g>
</g>
<!-- Node1&#45;&gt;Node6 -->
<g id="edge5" class="edge"><title>Node1&#45;&gt;Node6</title>
<path fill="none" stroke="midnightblue" d="M32.5266,-95.0157C42.1916,-78.1629 58.7413,-53.9111 80,-40.5 86.1177,-36.6407 92.7494,-33.3724 99.6295,-30.6052"/>
<polygon fill="midnightblue" stroke="midnightblue" points="29.371,-93.4917 27.648,-103.946 35.514,-96.8478 29.371,-93.4917"/>
</g>
</g>
</svg>
