<?xml version="1.0" encoding="UTF-8" standalone="no"?>
<!DOCTYPE svg PUBLIC "-//W3C//DTD SVG 1.1//EN"
 "http://www.w3.org/Graphics/SVG/1.1/DTD/svg11.dtd">
<!-- Generated by graphviz version 2.38.0 (20140413.2041)
 -->
<!-- Title: execute Pages: 1 -->
<!--zoomable 493 -->
<svg id="main" version="1.1" xmlns="http://www.w3.org/2000/svg" xmlns:xlink="http://www.w3.org/1999/xlink" xml:space="preserve" onload="init(evt)">
<style type="text/css"><![CDATA[
.edge:hover path { stroke: red; }
.edge:hover polygon { stroke: red; fill: red; }
]]></style>
<script type="text/javascript"><![CDATA[
var edges = document.getElementsByTagName('g');
if (edges && edges.length) {
  for (var i=0;i<edges.length;i++) {
    if (edges[i].id.substr(0,4)=='edge') {
      edges[i].setAttribute('class','edge');
    }
  }
}
]]></script>
        <defs>
                <circle id="rim" cx="0" cy="0" r="7"/>
                <circle id="rim2" cx="0" cy="0" r="3.5"/>
                <g id="zoomPlus">
                        <use xlink:href="#rim" fill="#404040">
                                <set attributeName="fill" to="#808080" begin="zoomplus.mouseover" end="zoomplus.mouseout"/>
                        </use>
                        <path d="M-4,0h8M0,-4v8" fill="none" stroke="white" stroke-width="1.5" pointer-events="none"/>
                </g>
                <g id="zoomMin">
                        <use xlink:href="#rim" fill="#404040">
                                <set attributeName="fill" to="#808080" begin="zoomminus.mouseover" end="zoomminus.mouseout"/>
                        </use>
                        <path d="M-4,0h8" fill="none" stroke="white" stroke-width="1.5" pointer-events="none"/>
                </g>
                <g id="dirArrow">
                        <path fill="none" stroke="white" stroke-width="1.5" d="M0,-3.0v7 M-2.5,-0.5L0,-3.0L2.5,-0.5"/>
                </g>
               <g id="resetDef">
                       <use xlink:href="#rim2" fill="#404040">
                               <set attributeName="fill" to="#808080" begin="reset.mouseover" end="reset.mouseout"/>
                       </use>
               </g>
        </defs>

<script type="text/javascript">
var viewWidth = 991;
var viewHeight = 493;
var sectionId = 'dynsection-2';
</script>
<script xlink:href="svgpan.js"/>
<svg id="graph" class="graph">
<g id="viewport">
<title>execute</title>
<polygon fill="white" stroke="none" points="-4,4 -4,-489 987,-489 987,4 -4,4"/>
<!-- Node1 -->
<g id="node1" class="node"><title>Node1</title>
<polygon fill="#bfbfbf" stroke="black" points="0,-245 0,-264 55,-264 55,-245 0,-245"/>
<text text-anchor="middle" x="27.5" y="-252" font-family="Helvetica,sans-Serif" font-size="10.00">execute</text>
</g>
<!-- Node2 -->
<g id="node2" class="node"><title>Node2</title>
<g id="a_node2"><a xlink:href="classcom_1_1tomoparts_1_1tomoBay_1_1presenters_1_1presenterActions_1_1concreteActions_1_1GenerateRoyalMailCSV.html#ac34b9d298f534dd3494b5f2e050398f0" target="_top" xlink:title="use the information provided to create a CSV file that the frontend can access. ">
<polygon fill="white" stroke="black" points="123,-386 123,-405 191,-405 191,-386 123,-386"/>
<text text-anchor="middle" x="157" y="-393" font-family="Helvetica,sans-Serif" font-size="10.00">createCSV</text>
</a>
</g>
</g>
<!-- Node1&#45;&gt;Node2 -->
<g id="edge1" class="edge"><title>Node1&#45;&gt;Node2</title>
<path fill="none" stroke="midnightblue" d="M34.8677,-264.186C45.5828,-280.183 68.282,-312.811 91,-337.5 104.945,-352.655 122.446,-368.098 135.774,-379.235"/>
<polygon fill="midnightblue" stroke="midnightblue" points="133.906,-382.231 143.851,-385.885 138.356,-376.827 133.906,-382.231"/>
</g>
<!-- Node6 -->
<g id="node6" class="node"><title>Node6</title>
<g id="a_node6"><a xlink:href="classcom_1_1tomoparts_1_1tomoBay_1_1presenters_1_1presenterActions_1_1concreteActions_1_1GenerateRoyalMailCSV.html#a36c5a57feb5660aee6f67b5920b1bb1b" target="_top" xlink:title="formats the initial data passed in to the execute method by the frontend and puts data into the relev...">
<polygon fill="white" stroke="black" points="108.5,-309 108.5,-328 205.5,-328 205.5,-309 108.5,-309"/>
<text text-anchor="middle" x="157" y="-316" font-family="Helvetica,sans-Serif" font-size="10.00">formatInitialData</text>
</a>
</g>
</g>
<!-- Node1&#45;&gt;Node6 -->
<g id="edge5" class="edge"><title>Node1&#45;&gt;Node6</title>
<path fill="none" stroke="midnightblue" d="M41.8994,-264.283C54.2272,-272.985 73.2363,-285.666 91,-294.5 99.0605,-298.509 107.963,-302.225 116.526,-305.476"/>
<polygon fill="midnightblue" stroke="midnightblue" points="115.394,-308.789 125.988,-308.941 117.801,-302.216 115.394,-308.789"/>
</g>
<!-- Node8 -->
<g id="node8" class="node"><title>Node8</title>
<g id="a_node8"><a xlink:href="classcom_1_1tomoparts_1_1tomoBay_1_1presenters_1_1presenterActions_1_1concreteActions_1_1GenerateRoyalMailCSV.html#a77642537aee84ee6042c23456ecc0d7a" target="_top" xlink:title="adds the account letter to the front of the invoice number in the reference field of the CSV ...">
<polygon fill="white" stroke="black" points="95,-266 95,-285 219,-285 219,-266 95,-266"/>
<text text-anchor="middle" x="157" y="-273" font-family="Helvetica,sans-Serif" font-size="10.00">formatReferenceFields</text>
</a>
</g>
</g>
<!-- Node1&#45;&gt;Node8 -->
<g id="edge7" class="edge"><title>Node1&#45;&gt;Node8</title>
<path fill="none" stroke="midnightblue" d="M55.2282,-258.902C65.0405,-260.518 76.6435,-262.43 88.4214,-264.369"/>
<polygon fill="midnightblue" stroke="midnightblue" points="87.8846,-267.828 98.3205,-266 89.0223,-260.921 87.8846,-267.828"/>
</g>
<!-- Node10 -->
<g id="node10" class="node"><title>Node10</title>
<g id="a_node10"><a xlink:href="classcom_1_1tomoparts_1_1tomoBay_1_1presenters_1_1presenterActions_1_1concreteActions_1_1GenerateRoyalMailCSV.html#a47374b8c1f5da171d280ddcb6b7df252" target="_top" xlink:title="queries winstock for the weight associated with the invoice number provided as an argument...">
<polygon fill="white" stroke="black" points="108,-225 108,-244 206,-244 206,-225 108,-225"/>
<text text-anchor="middle" x="157" y="-232" font-family="Helvetica,sans-Serif" font-size="10.00">getInvoiceWeight</text>
</a>
</g>
</g>
<!-- Node1&#45;&gt;Node10 -->
<g id="edge9" class="edge"><title>Node1&#45;&gt;Node10</title>
<path fill="none" stroke="midnightblue" d="M55.2282,-250.307C67.6282,-248.362 82.8879,-245.969 97.7465,-243.638"/>
<polygon fill="midnightblue" stroke="midnightblue" points="98.5922,-247.048 107.929,-242.041 97.5074,-240.133 98.5922,-247.048"/>
</g>
<!-- Node19 -->
<g id="node19" class="node"><title>Node19</title>
<g id="a_node19"><a xlink:href="classcom_1_1tomoparts_1_1tomoBay_1_1presenters_1_1presenterActions_1_1concreteActions_1_1GenerateRoyalMailCSV.html#a50d25ea728cbc1115c9ea4e50e95599f" target="_top" xlink:title="grabs the rest of the data necessary for the RoyalMailCSVGenerator to create a CSV file ...">
<polygon fill="white" stroke="black" points="91,-121 91,-140 223,-140 223,-121 91,-121"/>
<text text-anchor="middle" x="157" y="-128" font-family="Helvetica,sans-Serif" font-size="10.00">grabAndProcessDBData</text>
</a>
</g>
</g>
<!-- Node1&#45;&gt;Node19 -->
<g id="edge20" class="edge"><title>Node1&#45;&gt;Node19</title>
<path fill="none" stroke="midnightblue" d="M38.5047,-244.77C60.1976,-223.673 111.78,-173.506 138.808,-147.22"/>
<polygon fill="midnightblue" stroke="midnightblue" points="141.313,-149.666 146.042,-140.185 136.433,-144.648 141.313,-149.666"/>
</g>
<!-- Node24 -->
<g id="node24" class="node"><title>Node24</title>
<g id="a_node24"><a xlink:href="classcom_1_1tomoparts_1_1tomoBay_1_1presenters_1_1presenterActions_1_1concreteActions_1_1GenerateRoyalMailCSV.html#acabfc0e48c29931520b2a7518870c992" target="_top" xlink:title="takes the input string and makes it accessible as an array, the public static finals define the indic...">
<polygon fill="white" stroke="black" points="118,-83 118,-102 196,-102 196,-83 118,-83"/>
<text text-anchor="middle" x="157" y="-90" font-family="Helvetica,sans-Serif" font-size="10.00">processInput</text>
</a>
</g>
</g>
<!-- Node1&#45;&gt;Node24 -->
<g id="edge25" class="edge"><title>Node1&#45;&gt;Node24</title>
<path fill="none" stroke="midnightblue" d="M29.8649,-244.86C34.017,-219.179 48.8933,-148.547 91,-111.5 95.9237,-107.168 101.788,-103.822 107.949,-101.237"/>
<polygon fill="midnightblue" stroke="midnightblue" points="109.514,-104.396 117.782,-97.7709 107.187,-97.7946 109.514,-104.396"/>
</g>
<!-- Node3 -->
<g id="node3" class="node"><title>Node3</title>
<g id="a_node3"><a xlink:href="classcom_1_1tomoparts_1_1tomoBay_1_1model_1_1royalMail_1_1RoyalMailCSVGenerator.html#a2529b2ea0d2aefc60749e34c2d1cf74e" target="_top" xlink:title="adds a whole batch of data to the end of the CSV ">
<polygon fill="white" stroke="black" points="280.5,-454.5 280.5,-484.5 480.5,-484.5 480.5,-454.5 280.5,-454.5"/>
<text text-anchor="start" x="288.5" y="-472.5" font-family="Helvetica,sans-Serif" font-size="10.00">com.tomoparts.tomoBay.model.royal</text>
<text text-anchor="middle" x="380.5" y="-461.5" font-family="Helvetica,sans-Serif" font-size="10.00">Mail.RoyalMailCSVGenerator.addBatch</text>
</a>
</g>
</g>
<!-- Node2&#45;&gt;Node3 -->
<g id="edge2" class="edge"><title>Node2&#45;&gt;Node3</title>
<path fill="none" stroke="midnightblue" d="M173.876,-405.008C193.306,-416.249 227.513,-434.78 259,-445.5 265.872,-447.84 273.046,-449.981 280.321,-451.936"/>
<polygon fill="midnightblue" stroke="midnightblue" points="279.729,-455.397 290.285,-454.487 281.465,-448.616 279.729,-455.397"/>
</g>
<!-- Node4 -->
<g id="node4" class="node"><title>Node4</title>
<g id="a_node4"><a xlink:href="classcom_1_1tomoparts_1_1tomoBay_1_1model_1_1royalMail_1_1RoyalMailCSVGenerator.html#ac60739d0a2d1d8d69f238b4cc4f4a8de" target="_top" xlink:title="Generated the actual CSV file, it will overwrite any file already at that path with the name specifie...">
<polygon fill="white" stroke="black" points="281.5,-405.5 281.5,-435.5 479.5,-435.5 479.5,-405.5 281.5,-405.5"/>
<text text-anchor="start" x="289.5" y="-423.5" font-family="Helvetica,sans-Serif" font-size="10.00">com.tomoparts.tomoBay.model.royal</text>
<text text-anchor="middle" x="380.5" y="-412.5" font-family="Helvetica,sans-Serif" font-size="10.00">Mail.RoyalMailCSVGenerator.generate</text>
</a>
</g>
</g>
<!-- Node2&#45;&gt;Node4 -->
<g id="edge3" class="edge"><title>Node2&#45;&gt;Node4</title>
<path fill="none" stroke="midnightblue" d="M191.161,-399.243C212.644,-401.668 241.956,-404.976 271.055,-408.26"/>
<polygon fill="midnightblue" stroke="midnightblue" points="270.996,-411.776 281.325,-409.419 271.781,-404.82 270.996,-411.776"/>
</g>
<!-- Node5 -->
<g id="node5" class="node"><title>Node5</title>
<g id="a_node5"><a xlink:href="classcom_1_1tomoparts_1_1tomoBay_1_1model_1_1royalMail_1_1RoyalMailCSVGenerator.html#ad146fa8579a5f8a876c4688cc5a68520" target="_top" xlink:title="informative String representation of the CSV file at the point in time where this method is called...">
<polygon fill="white" stroke="black" points="282,-356.5 282,-386.5 479,-386.5 479,-356.5 282,-356.5"/>
<text text-anchor="start" x="290" y="-374.5" font-family="Helvetica,sans-Serif" font-size="10.00">com.tomoparts.tomoBay.model.royal</text>
<text text-anchor="middle" x="380.5" y="-363.5" font-family="Helvetica,sans-Serif" font-size="10.00">Mail.RoyalMailCSVGenerator.toString</text>
</a>
</g>
</g>
<!-- Node2&#45;&gt;Node5 -->
<g id="edge4" class="edge"><title>Node2&#45;&gt;Node5</title>
<path fill="none" stroke="midnightblue" d="M191.161,-391.907C212.752,-389.567 242.25,-386.371 271.493,-383.203"/>
<polygon fill="midnightblue" stroke="midnightblue" points="272.248,-386.642 281.813,-382.085 271.494,-379.682 272.248,-386.642"/>
</g>
<!-- Node7 -->
<g id="node7" class="node"><title>Node7</title>
<g id="a_node7"><a xlink:href="classcom_1_1tomoparts_1_1tomoBay_1_1model_1_1royalMail_1_1RoyalMailCSVGenerator.html#af4b57d21919c42d55af03391f91a1c08" target="_top" xlink:title="indicates how many columns are required for each row of this CSV. ">
<polygon fill="white" stroke="black" points="282,-307.5 282,-337.5 479,-337.5 479,-307.5 282,-307.5"/>
<text text-anchor="start" x="290" y="-325.5" font-family="Helvetica,sans-Serif" font-size="10.00">com.tomoparts.tomoBay.model.royal</text>
<text text-anchor="middle" x="380.5" y="-314.5" font-family="Helvetica,sans-Serif" font-size="10.00">Mail.RoyalMailCSVGenerator.size</text>
</a>
</g>
</g>
<!-- Node6&#45;&gt;Node7 -->
<g id="edge6" class="edge"><title>Node6&#45;&gt;Node7</title>
<path fill="none" stroke="midnightblue" d="M205.517,-319.358C225.006,-319.71 248.423,-320.133 271.669,-320.553"/>
<polygon fill="midnightblue" stroke="midnightblue" points="271.902,-324.057 281.964,-320.739 272.029,-317.059 271.902,-324.057"/>
</g>
<!-- Node9 -->
<g id="node9" class="node"><title>Node9</title>
<g id="a_node9"><a xlink:href="classcom_1_1tomoparts_1_1tomoBay_1_1helpers_1_1BrandToCode.html#a84072526fa5d5ce298cdceffc81f43e7" target="_top" xlink:title="converts a string like &quot;citroen&quot; or &quot;fOrd&quot; to a brandcode specific to winstock. ">
<polygon fill="white" stroke="black" points="557,-263.5 557,-293.5 736,-293.5 736,-263.5 557,-263.5"/>
<text text-anchor="start" x="565" y="-281.5" font-family="Helvetica,sans-Serif" font-size="10.00">com.tomoparts.tomoBay.helpers.</text>
<text text-anchor="middle" x="646.5" y="-270.5" font-family="Helvetica,sans-Serif" font-size="10.00">BrandToCode.convert</text>
</a>
</g>
</g>
<!-- Node8&#45;&gt;Node9 -->
<g id="edge8" class="edge"><title>Node8&#45;&gt;Node9</title>
<path fill="none" stroke="midnightblue" d="M219.249,-275.877C301.495,-276.383 448.606,-277.288 546.638,-277.892"/>
<polygon fill="midnightblue" stroke="midnightblue" points="546.835,-281.393 556.856,-277.955 546.878,-274.393 546.835,-281.393"/>
</g>
<!-- Node11 -->
<g id="node11" class="node"><title>Node11</title>
<g id="a_node11"><a xlink:href="classcom_1_1tomoparts_1_1tomoBay_1_1helpers_1_1BrandToCode.html#a10207714bd294d73dd98b80fd94a2ab8" target="_top" xlink:title="converts converts a string like &quot;citroen&quot; or &quot;fOrd&quot; to a brandcode integer specific to winstock...">
<polygon fill="white" stroke="black" points="288,-219.5 288,-249.5 473,-249.5 473,-219.5 288,-219.5"/>
<text text-anchor="start" x="296" y="-237.5" font-family="Helvetica,sans-Serif" font-size="10.00">com.tomoparts.tomoBay.helpers.</text>
<text text-anchor="middle" x="380.5" y="-226.5" font-family="Helvetica,sans-Serif" font-size="10.00">BrandToCode.convertToWinstockInt</text>
</a>
</g>
</g>
<!-- Node10&#45;&gt;Node11 -->
<g id="edge10" class="edge"><title>Node10&#45;&gt;Node11</title>
<path fill="none" stroke="midnightblue" d="M206.062,-234.5C227.086,-234.5 252.604,-234.5 277.525,-234.5"/>
<polygon fill="midnightblue" stroke="midnightblue" points="277.779,-238 287.779,-234.5 277.779,-231 277.779,-238"/>
</g>
<!-- Node12 -->
<g id="node12" class="node"><title>Node12</title>
<g id="a_node12"><a xlink:href="classcom_1_1tomoparts_1_1tomoBay_1_1model_1_1winstock_1_1Stock.html#a4cbeebb8b8e67f9e1478b8b0d77d4228" target="_top" xlink:title="query winstock for the weight of a particular invoice ">
<polygon fill="white" stroke="black" points="272,-170.5 272,-200.5 489,-200.5 489,-170.5 272,-170.5"/>
<text text-anchor="start" x="280" y="-188.5" font-family="Helvetica,sans-Serif" font-size="10.00">com.tomoparts.tomoBay.model.winstock.</text>
<text text-anchor="middle" x="380.5" y="-177.5" font-family="Helvetica,sans-Serif" font-size="10.00">Stock.requestInvoiceWeight</text>
</a>
</g>
</g>
<!-- Node10&#45;&gt;Node12 -->
<g id="edge12" class="edge"><title>Node10&#45;&gt;Node12</title>
<path fill="none" stroke="midnightblue" d="M194.841,-224.948C213.937,-220.107 237.668,-214.262 259,-209.5 269.44,-207.169 280.414,-204.831 291.312,-202.577"/>
<polygon fill="midnightblue" stroke="midnightblue" points="292.188,-205.971 301.282,-200.534 290.782,-199.113 292.188,-205.971"/>
</g>
<!-- Node11&#45;&gt;Node9 -->
<g id="edge11" class="edge"><title>Node11&#45;&gt;Node9</title>
<path fill="none" stroke="midnightblue" d="M471.615,-249.519C495.772,-253.545 522.016,-257.919 546.619,-262.02"/>
<polygon fill="midnightblue" stroke="midnightblue" points="546.246,-265.506 556.685,-263.698 547.397,-258.601 546.246,-265.506"/>
</g>
<!-- Node13 -->
<g id="node13" class="node"><title>Node13</title>
<g id="a_node13"><a xlink:href="classcom_1_1tomoparts_1_1tomoBay_1_1helpers_1_1ConfigReader.html#a310420c6db22982498520c2ad7a2b82f" target="_top" xlink:title="find the value of the config variable specified in the arguments. ">
<polygon fill="white" stroke="black" points="557,-214.5 557,-244.5 736,-244.5 736,-214.5 557,-214.5"/>
<text text-anchor="start" x="565" y="-232.5" font-family="Helvetica,sans-Serif" font-size="10.00">com.tomoparts.tomoBay.helpers.</text>
<text text-anchor="middle" x="646.5" y="-221.5" font-family="Helvetica,sans-Serif" font-size="10.00">ConfigReader.getConf</text>
</a>
</g>
</g>
<!-- Node12&#45;&gt;Node13 -->
<g id="edge13" class="edge"><title>Node12&#45;&gt;Node13</title>
<path fill="none" stroke="midnightblue" d="M471.615,-200.519C495.772,-204.545 522.016,-208.919 546.619,-213.02"/>
<polygon fill="midnightblue" stroke="midnightblue" points="546.246,-216.506 556.685,-214.698 547.397,-209.601 546.246,-216.506"/>
</g>
<!-- Node16 -->
<g id="node16" class="node"><title>Node16</title>
<g id="a_node16"><a xlink:href="classcom_1_1tomoparts_1_1tomoBay_1_1helpers_1_1XMLParser.html#a9936151017dd4e908cf37d453b22c8ef" target="_top" xlink:title="parses an XML formatted string looking for the first tag specified in the parameters. ">
<polygon fill="white" stroke="black" points="797.5,-170.5 797.5,-200.5 976.5,-200.5 976.5,-170.5 797.5,-170.5"/>
<text text-anchor="start" x="805.5" y="-188.5" font-family="Helvetica,sans-Serif" font-size="10.00">com.tomoparts.tomoBay.helpers.</text>
<text text-anchor="middle" x="887" y="-177.5" font-family="Helvetica,sans-Serif" font-size="10.00">XMLParser.parse</text>
</a>
</g>
</g>
<!-- Node12&#45;&gt;Node16 -->
<g id="edge17" class="edge"><title>Node12&#45;&gt;Node16</title>
<path fill="none" stroke="midnightblue" d="M489.109,-185.5C577.49,-185.5 701.651,-185.5 787.46,-185.5"/>
<polygon fill="midnightblue" stroke="midnightblue" points="787.467,-189 797.467,-185.5 787.467,-182 787.467,-189"/>
</g>
<!-- Node17 -->
<g id="node17" class="node"><title>Node17</title>
<g id="a_node17"><a xlink:href="classcom_1_1tomoparts_1_1tomoBay_1_1model_1_1winstock_1_1Stock.html#a42fa652d82ed49749a0ad929a6c798d0" target="_top" xlink:title="remove the header bumpf from the bottom of the response ">
<polygon fill="white" stroke="black" points="538,-123.5 538,-153.5 755,-153.5 755,-123.5 538,-123.5"/>
<text text-anchor="start" x="546" y="-141.5" font-family="Helvetica,sans-Serif" font-size="10.00">com.tomoparts.tomoBay.model.winstock.</text>
<text text-anchor="middle" x="646.5" y="-130.5" font-family="Helvetica,sans-Serif" font-size="10.00">Stock.postFormatXMLString</text>
</a>
</g>
</g>
<!-- Node12&#45;&gt;Node17 -->
<g id="edge18" class="edge"><title>Node12&#45;&gt;Node17</title>
<path fill="none" stroke="midnightblue" d="M465.757,-170.5C492.905,-165.667 523.167,-160.279 551.003,-155.323"/>
<polygon fill="midnightblue" stroke="midnightblue" points="551.906,-158.718 561.138,-153.519 550.679,-151.826 551.906,-158.718"/>
</g>
<!-- Node14 -->
<g id="node14" class="node"><title>Node14</title>
<g id="a_node14"><a xlink:href="classcom_1_1tomoparts_1_1tomoBay_1_1helpers_1_1ConfigReader.html#ab69b4a3a0fc6a7c7440362b06ec4b4d3" target="_top" xlink:title="reads the whole config file into a string ">
<polygon fill="white" stroke="black" points="797.5,-268.5 797.5,-298.5 976.5,-298.5 976.5,-268.5 797.5,-268.5"/>
<text text-anchor="start" x="805.5" y="-286.5" font-family="Helvetica,sans-Serif" font-size="10.00">com.tomoparts.tomoBay.helpers.</text>
<text text-anchor="middle" x="887" y="-275.5" font-family="Helvetica,sans-Serif" font-size="10.00">ConfigReader.getConfig</text>
</a>
</g>
</g>
<!-- Node13&#45;&gt;Node14 -->
<g id="edge14" class="edge"><title>Node13&#45;&gt;Node14</title>
<path fill="none" stroke="midnightblue" d="M713.936,-244.542C743.661,-251.272 778.872,-259.245 809.674,-266.219"/>
<polygon fill="midnightblue" stroke="midnightblue" points="808.981,-269.65 819.507,-268.445 810.527,-262.823 808.981,-269.65"/>
</g>
<!-- Node15 -->
<g id="node15" class="node"><title>Node15</title>
<g id="a_node15"><a xlink:href="enumcom_1_1tomoparts_1_1tomoBay_1_1helpers_1_1Config.html#a43cb99408ba4f337caad395ca67f9a6c" target="_top" xlink:title="return the string associated with the enum const ">
<polygon fill="white" stroke="black" points="797.5,-219.5 797.5,-249.5 976.5,-249.5 976.5,-219.5 797.5,-219.5"/>
<text text-anchor="start" x="805.5" y="-237.5" font-family="Helvetica,sans-Serif" font-size="10.00">com.tomoparts.tomoBay.helpers.</text>
<text text-anchor="middle" x="887" y="-226.5" font-family="Helvetica,sans-Serif" font-size="10.00">Config.getVar</text>
</a>
</g>
</g>
<!-- Node13&#45;&gt;Node15 -->
<g id="edge15" class="edge"><title>Node13&#45;&gt;Node15</title>
<path fill="none" stroke="midnightblue" d="M736.309,-231.362C752.76,-231.707 770.04,-232.069 786.778,-232.42"/>
<polygon fill="midnightblue" stroke="midnightblue" points="787.046,-235.926 797.117,-232.637 787.193,-228.928 787.046,-235.926"/>
</g>
<!-- Node13&#45;&gt;Node16 -->
<g id="edge16" class="edge"><title>Node13&#45;&gt;Node16</title>
<path fill="none" stroke="midnightblue" d="M728.911,-214.481C750.092,-210.573 773.05,-206.338 794.705,-202.343"/>
<polygon fill="midnightblue" stroke="midnightblue" points="795.352,-205.782 804.551,-200.526 794.082,-198.899 795.352,-205.782"/>
</g>
<!-- Node18 -->
<g id="node18" class="node"><title>Node18</title>
<g id="a_node18"><a xlink:href="classcom_1_1tomoparts_1_1tomoBay_1_1model_1_1net_1_1HttpResponse.html#afb798c825935128953439404fb763997" target="_top" xlink:title="get the Response message ">
<polygon fill="white" stroke="black" points="791,-121.5 791,-151.5 983,-151.5 983,-121.5 791,-121.5"/>
<text text-anchor="start" x="799" y="-139.5" font-family="Helvetica,sans-Serif" font-size="10.00">com.tomoparts.tomoBay.model.net.</text>
<text text-anchor="middle" x="887" y="-128.5" font-family="Helvetica,sans-Serif" font-size="10.00">HttpResponse.getResponseMessage</text>
</a>
</g>
</g>
<!-- Node17&#45;&gt;Node18 -->
<g id="edge19" class="edge"><title>Node17&#45;&gt;Node18</title>
<path fill="none" stroke="midnightblue" d="M755.237,-137.597C763.662,-137.526 772.165,-137.455 780.574,-137.384"/>
<polygon fill="midnightblue" stroke="midnightblue" points="780.804,-140.882 790.775,-137.299 780.746,-133.883 780.804,-140.882"/>
</g>
<!-- Node20 -->
<g id="node20" class="node"><title>Node20</title>
<g id="a_node20"><a xlink:href="classcom_1_1tomoparts_1_1tomoBay_1_1model_1_1dataTypes_1_1heteroTypeContainer_1_1HeteroFieldContainer.html#ac8bb3912a3ce86b15842e79d0b421204" target="_top" xlink:title="clear this heterogenous field type ">
<polygon fill="white" stroke="black" points="277.5,-110 277.5,-151 483.5,-151 483.5,-110 277.5,-110"/>
<text text-anchor="start" x="285.5" y="-139" font-family="Helvetica,sans-Serif" font-size="10.00">com.tomoparts.tomoBay.model.data</text>
<text text-anchor="start" x="285.5" y="-128" font-family="Helvetica,sans-Serif" font-size="10.00">Types.heteroTypeContainer.HeteroField</text>
<text text-anchor="middle" x="380.5" y="-117" font-family="Helvetica,sans-Serif" font-size="10.00">Container.clear</text>
</a>
</g>
</g>
<!-- Node19&#45;&gt;Node20 -->
<g id="edge21" class="edge"><title>Node19&#45;&gt;Node20</title>
<path fill="none" stroke="midnightblue" d="M223.259,-130.5C237.049,-130.5 251.978,-130.5 266.951,-130.5"/>
<polygon fill="midnightblue" stroke="midnightblue" points="267.31,-134 277.31,-130.5 267.31,-127 267.31,-134"/>
</g>
<!-- Node21 -->
<g id="node21" class="node"><title>Node21</title>
<g id="a_node21"><a xlink:href="classcom_1_1tomoparts_1_1tomoBay_1_1model_1_1dataTypes_1_1heteroTypeContainer_1_1HeteroFieldContainer.html#a3ba6289417930238a36bfee0056b6398" target="_top" xlink:title="add an arbitrary value to this Field container with the stipulation that this value is of the same ty...">
<polygon fill="white" stroke="black" points="277.5,-50 277.5,-91 483.5,-91 483.5,-50 277.5,-50"/>
<text text-anchor="start" x="285.5" y="-79" font-family="Helvetica,sans-Serif" font-size="10.00">com.tomoparts.tomoBay.model.data</text>
<text text-anchor="start" x="285.5" y="-68" font-family="Helvetica,sans-Serif" font-size="10.00">Types.heteroTypeContainer.HeteroField</text>
<text text-anchor="middle" x="380.5" y="-57" font-family="Helvetica,sans-Serif" font-size="10.00">Container.add</text>
</a>
</g>
</g>
<!-- Node19&#45;&gt;Node21 -->
<g id="edge22" class="edge"><title>Node19&#45;&gt;Node21</title>
<path fill="none" stroke="midnightblue" d="M191.09,-120.912C201.327,-117.923 212.637,-114.598 223,-111.5 239.029,-106.708 242.877,-104.967 259,-100.5 267.378,-98.1789 276.106,-95.8447 284.867,-93.5591"/>
<polygon fill="midnightblue" stroke="midnightblue" points="285.949,-96.8944 294.754,-91.0025 284.196,-90.1173 285.949,-96.8944"/>
</g>
<!-- Node23 -->
<g id="node23" class="node"><title>Node23</title>
<g id="a_node23"><a xlink:href="classcom_1_1tomoparts_1_1tomoBay_1_1model_1_1sql_1_1framework_1_1SelectQueryInvoker.html#a594282bcbcc0731a7d234482717422d7" target="_top" xlink:title="execute a requested query ">
<polygon fill="white" stroke="black" points="259,-0.5 259,-30.5 502,-30.5 502,-0.5 259,-0.5"/>
<text text-anchor="start" x="267" y="-18.5" font-family="Helvetica,sans-Serif" font-size="10.00">com.tomoparts.tomoBay.model.sql.framework.</text>
<text text-anchor="middle" x="380.5" y="-7.5" font-family="Helvetica,sans-Serif" font-size="10.00">SelectQueryInvoker.execute</text>
</a>
</g>
</g>
<!-- Node19&#45;&gt;Node23 -->
<g id="edge24" class="edge"><title>Node19&#45;&gt;Node23</title>
<path fill="none" stroke="midnightblue" d="M207.083,-120.973C212.822,-118.508 218.296,-115.405 223,-111.5 250.22,-88.8986 230.9,-61.9973 259,-40.5 261.347,-38.7048 263.791,-37.0307 266.316,-35.4696"/>
<polygon fill="midnightblue" stroke="midnightblue" points="268.115,-38.475 275.188,-30.5868 264.739,-32.3426 268.115,-38.475"/>
</g>
<!-- Node22 -->
<g id="node22" class="node"><title>Node22</title>
<g id="a_node22"><a xlink:href="classcom_1_1tomoparts_1_1tomoBay_1_1model_1_1dataTypes_1_1heteroTypeContainer_1_1HeteroFieldContainer.html#a9dee3c01eb5ab16203e1c6820a569484" target="_top" xlink:title="performs a type check, assuming that field and type are of the same type then this method returns tru...">
<polygon fill="white" stroke="black" points="543.5,-50 543.5,-91 749.5,-91 749.5,-50 543.5,-50"/>
<text text-anchor="start" x="551.5" y="-79" font-family="Helvetica,sans-Serif" font-size="10.00">com.tomoparts.tomoBay.model.data</text>
<text text-anchor="start" x="551.5" y="-68" font-family="Helvetica,sans-Serif" font-size="10.00">Types.heteroTypeContainer.HeteroField</text>
<text text-anchor="middle" x="646.5" y="-57" font-family="Helvetica,sans-Serif" font-size="10.00">Container.isSameType</text>
</a>
</g>
</g>
<!-- Node21&#45;&gt;Node22 -->
<g id="edge23" class="edge"><title>Node21&#45;&gt;Node22</title>
<path fill="none" stroke="midnightblue" d="M483.569,-70.5C499.791,-70.5 516.649,-70.5 533.092,-70.5"/>
<polygon fill="midnightblue" stroke="midnightblue" points="533.267,-74.0001 543.267,-70.5 533.267,-67.0001 533.267,-74.0001"/>
</g>
</g>
</svg>
        <g id="navigator" transform="translate(0 0)" fill="#404254">
                <rect fill="#f2f5e9" fill-opacity="0.5" stroke="#606060" stroke-width=".5" x="0" y="0" width="60" height="60"/>
                <use id="zoomplus" xlink:href="#zoomPlus" x="17" y="9" onmousedown="handleZoom(evt,'in')"/>
                <use id="zoomminus" xlink:href="#zoomMin" x="42" y="9" onmousedown="handleZoom(evt,'out')"/>
                <use id="reset" xlink:href="#resetDef" x="30" y="36" onmousedown="handleReset()"/>
                <g id="arrowUp" xlink:href="#dirArrow" transform="translate(30 24)" onmousedown="handlePan(0,-1)">
                  <use xlink:href="#rim" fill="#404040">
                        <set attributeName="fill" to="#808080" begin="arrowUp.mouseover" end="arrowUp.mouseout"/>
                  </use>
                  <path fill="none" stroke="white" stroke-width="1.5" d="M0,-3.0v7 M-2.5,-0.5L0,-3.0L2.5,-0.5"/>
                </g>
                <g id="arrowRight" xlink:href="#dirArrow" transform="rotate(90) translate(36 -43)" onmousedown="handlePan(1,0)">
                  <use xlink:href="#rim" fill="#404040">
                        <set attributeName="fill" to="#808080" begin="arrowRight.mouseover" end="arrowRight.mouseout"/>
                  </use>
                  <path fill="none" stroke="white" stroke-width="1.5" d="M0,-3.0v7 M-2.5,-0.5L0,-3.0L2.5,-0.5"/>
                </g>
                <g id="arrowDown" xlink:href="#dirArrow" transform="rotate(180) translate(-30 -48)" onmousedown="handlePan(0,1)">
                  <use xlink:href="#rim" fill="#404040">
                        <set attributeName="fill" to="#808080" begin="arrowDown.mouseover" end="arrowDown.mouseout"/>
                  </use>
                  <path fill="none" stroke="white" stroke-width="1.5" d="M0,-3.0v7 M-2.5,-0.5L0,-3.0L2.5,-0.5"/>
                </g>
                <g id="arrowLeft" xlink:href="#dirArrow" transform="rotate(270) translate(-36 17)" onmousedown="handlePan(-1,0)">
                  <use xlink:href="#rim" fill="#404040">
                        <set attributeName="fill" to="#808080" begin="arrowLeft.mouseover" end="arrowLeft.mouseout"/>
                  </use>
                  <path fill="none" stroke="white" stroke-width="1.5" d="M0,-3.0v7 M-2.5,-0.5L0,-3.0L2.5,-0.5"/>
                </g>
        </g>
        <svg viewBox="0 0 15 15" width="100%" height="30px" preserveAspectRatio="xMaxYMin meet">
         <g id="arrow_out" transform="scale(0.3 0.3)">
          <a xlink:href="classcom_1_1tomoparts_1_1tomoBay_1_1presenters_1_1presenterActions_1_1concreteActions_1_1GenerateRoyalMailCSV_adb3dedf31dc2c7fc796f20406c235ccd_cgraph_org.svg" target="_base">
           <rect id="button" ry="5" rx="5" y="6" x="6" height="38" width="38"
                fill="#f2f5e9" fill-opacity="0.5" stroke="#606060" stroke-width="1.0"/>
           <path id="arrow"
             d="M 11.500037,31.436501 C 11.940474,20.09759 22.043105,11.32322 32.158766,21.979434 L 37.068811,17.246167 C 37.068811,17.246167 37.088388,32 37.088388,32 L 22.160133,31.978069 C 22.160133,31.978069 26.997745,27.140456 26.997745,27.140456 C 18.528582,18.264221 13.291696,25.230495 11.500037,31.436501 z"
             style="fill:#404040;"/>
          </a>
         </g>
        </svg>
</svg>
