<?xml version="1.0" encoding="UTF-8" standalone="no"?>
<!DOCTYPE svg PUBLIC "-//W3C//DTD SVG 1.1//EN"
 "http://www.w3.org/Graphics/SVG/1.1/DTD/svg11.dtd">
<!-- Generated by graphviz version 2.38.0 (20140413.2041)
 -->
<!-- Title: setDOUBLEParam Pages: 1 -->
<svg width="1924pt" height="1039pt"
 viewBox="0.00 0.00 1924.00 1039.39" xmlns="http://www.w3.org/2000/svg" xmlns:xlink="http://www.w3.org/1999/xlink">
<g id="graph0" class="graph" transform="scale(1 1) rotate(0) translate(4 1035.39)">
<title>setDOUBLEParam</title>
<polygon fill="white" stroke="none" points="-4,4 -4,-1035.39 1920,-1035.39 1920,4 -4,4"/>
<!-- Node1 -->
<g id="node1" class="node"><title>Node1</title>
<polygon fill="#bfbfbf" stroke="black" points="0,-963.747 0,-982.747 104,-982.747 104,-963.747 0,-963.747"/>
<text text-anchor="middle" x="52" y="-970.747" font-family="Helvetica,sans-Serif" font-size="10.00">setDOUBLEParam</text>
</g>
<!-- Node2 -->
<g id="node2" class="node"><title>Node2</title>
<g id="a_node2"><a xlink:href="classcom_1_1tomoparts_1_1tomoBay_1_1model_1_1sql_1_1framework_1_1QueryUtility.html#a202aab30c77e06c32318efd5cf949ca3" target="_top" xlink:title="set an Integer parameter for the query object specified. ">
<polygon fill="white" stroke="black" points="140,-963.747 140,-982.747 229,-982.747 229,-963.747 140,-963.747"/>
<text text-anchor="middle" x="184.5" y="-970.747" font-family="Helvetica,sans-Serif" font-size="10.00">setDATEParam</text>
</a>
</g>
</g>
<!-- Node1&#45;&gt;Node2 -->
<g id="edge1" class="edge"><title>Node1&#45;&gt;Node2</title>
<path fill="none" stroke="midnightblue" d="M114.478,-973.247C122.969,-973.247 131.545,-973.247 139.628,-973.247"/>
<polygon fill="midnightblue" stroke="midnightblue" points="114.203,-969.747 104.203,-973.247 114.202,-976.747 114.203,-969.747"/>
</g>
<!-- Node3 -->
<g id="node3" class="node"><title>Node3</title>
<g id="a_node3"><a xlink:href="classcom_1_1tomoparts_1_1tomoBay_1_1model_1_1sql_1_1queries_1_1concreteQueries_1_1insert_1_1InsertOutOfHoursOrders.html#af9020b85517904668d036bc2bf89433c" target="_top" xlink:title="com.tomoparts.tomoBay.model.sql.queries.concrete\lQueries.insert.InsertOutOfHoursOrders.setParameters">
<polygon fill="white" stroke="black" points="1634.5,-846.247 1634.5,-876.247 1910.5,-876.247 1910.5,-846.247 1634.5,-846.247"/>
<text text-anchor="start" x="1642.5" y="-864.247" font-family="Helvetica,sans-Serif" font-size="10.00">com.tomoparts.tomoBay.model.sql.queries.concrete</text>
<text text-anchor="middle" x="1772.5" y="-853.247" font-family="Helvetica,sans-Serif" font-size="10.00">Queries.insert.InsertOutOfHoursOrders.setParameters</text>
</a>
</g>
</g>
<!-- Node2&#45;&gt;Node3 -->
<g id="edge2" class="edge"><title>Node2&#45;&gt;Node3</title>
<path fill="none" stroke="midnightblue" d="M215.118,-986.908C229.801,-993.033 247.992,-999.671 265,-1003.25 419.189,-1035.66 461.44,-1022.25 619,-1022.25 619,-1022.25 619,-1022.25 1198,-1022.25 1374,-1022.25 1428.01,-1055.51 1593,-994.247 1663.28,-968.147 1729.55,-905.225 1757.53,-876.279"/>
<polygon fill="midnightblue" stroke="midnightblue" points="216.14,-983.537 205.571,-982.794 213.37,-989.966 216.14,-983.537"/>
</g>
<!-- Node4 -->
<g id="node4" class="node"><title>Node4</title>
<g id="a_node4"><a xlink:href="classcom_1_1tomoparts_1_1tomoBay_1_1model_1_1sql_1_1queries_1_1concreteQueries_1_1select_1_1params_1_1SelectOutOfHoursOrders.html#af9020b85517904668d036bc2bf89433c" target="_top" xlink:title="com.tomoparts.tomoBay.model.sql.queries.concrete\lQueries.select.params.SelectOutOfHoursOrders.set\lParameters">
<polygon fill="white" stroke="black" points="265,-952.747 265,-993.747 535,-993.747 535,-952.747 265,-952.747"/>
<text text-anchor="start" x="273" y="-981.747" font-family="Helvetica,sans-Serif" font-size="10.00">com.tomoparts.tomoBay.model.sql.queries.concrete</text>
<text text-anchor="start" x="273" y="-970.747" font-family="Helvetica,sans-Serif" font-size="10.00">Queries.select.params.SelectOutOfHoursOrders.set</text>
<text text-anchor="middle" x="400" y="-959.747" font-family="Helvetica,sans-Serif" font-size="10.00">Parameters</text>
</a>
</g>
</g>
<!-- Node2&#45;&gt;Node4 -->
<g id="edge3" class="edge"><title>Node2&#45;&gt;Node4</title>
<path fill="none" stroke="midnightblue" d="M239.38,-973.247C247.357,-973.247 255.86,-973.247 264.63,-973.247"/>
<polygon fill="midnightblue" stroke="midnightblue" points="239.22,-969.747 229.22,-973.247 239.22,-976.747 239.22,-969.747"/>
</g>
<!-- Node5 -->
<g id="node5" class="node"><title>Node5</title>
<g id="a_node5"><a xlink:href="classcom_1_1tomoparts_1_1tomoBay_1_1model_1_1sql_1_1framework_1_1QueryUtility.html#ab07d04299a96461dcf893416b8e32604" target="_top" xlink:title="set an Integer parameter for the query object specified. ">
<polygon fill="white" stroke="black" points="341,-914.747 341,-933.747 459,-933.747 459,-914.747 341,-914.747"/>
<text text-anchor="middle" x="400" y="-921.747" font-family="Helvetica,sans-Serif" font-size="10.00">setTIMESTAMPParam</text>
</a>
</g>
</g>
<!-- Node2&#45;&gt;Node5 -->
<g id="edge4" class="edge"><title>Node2&#45;&gt;Node5</title>
<path fill="none" stroke="midnightblue" d="M216.495,-959.735C230.989,-953.89 248.629,-947.442 265,-943.247 289.468,-936.977 317.016,-932.622 340.742,-929.68"/>
<polygon fill="midnightblue" stroke="midnightblue" points="214.923,-956.597 207.017,-963.65 217.596,-963.067 214.923,-956.597"/>
</g>
<!-- Node6 -->
<g id="node6" class="node"><title>Node6</title>
<g id="a_node6"><a xlink:href="classcom_1_1tomoparts_1_1tomoBay_1_1model_1_1sql_1_1queries_1_1concreteQueries_1_1insert_1_1InsertEbayOrders.html#af9020b85517904668d036bc2bf89433c" target="_top" xlink:title="com.tomoparts.tomoBay.model.sql.queries.concrete\lQueries.insert.InsertEbayOrders.setParameters">
<polygon fill="white" stroke="black" points="1637.5,-636.247 1637.5,-666.247 1907.5,-666.247 1907.5,-636.247 1637.5,-636.247"/>
<text text-anchor="start" x="1645.5" y="-654.247" font-family="Helvetica,sans-Serif" font-size="10.00">com.tomoparts.tomoBay.model.sql.queries.concrete</text>
<text text-anchor="middle" x="1772.5" y="-643.247" font-family="Helvetica,sans-Serif" font-size="10.00">Queries.insert.InsertEbayOrders.setParameters</text>
</a>
</g>
</g>
<!-- Node5&#45;&gt;Node6 -->
<g id="edge5" class="edge"><title>Node5&#45;&gt;Node6</title>
<path fill="none" stroke="midnightblue" d="M469.295,-933.308C490.393,-936.274 513.684,-939.719 535,-943.247 631.618,-959.236 653.568,-984.247 751.5,-984.247 751.5,-984.247 751.5,-984.247 1198,-984.247 1285.88,-984.247 1524.25,-1019.98 1593,-965.247 1639.23,-928.44 1602.56,-890.096 1629,-837.247 1664.31,-766.671 1727.94,-696.246 1756.69,-666.273"/>
<polygon fill="midnightblue" stroke="midnightblue" points="469.52,-929.805 459.133,-931.892 468.554,-936.739 469.52,-929.805"/>
</g>
<!-- Node7 -->
<g id="node7" class="node"><title>Node7</title>
<g id="a_node7"><a xlink:href="classcom_1_1tomoparts_1_1tomoBay_1_1model_1_1sql_1_1framework_1_1QueryUtility.html#a56a65ac583b8720ae73dc81278e5690e" target="_top" xlink:title="set an Integer parameter for the query object specified. ">
<polygon fill="white" stroke="black" points="571,-553.747 571,-572.747 669,-572.747 669,-553.747 571,-553.747"/>
<text text-anchor="middle" x="620" y="-560.747" font-family="Helvetica,sans-Serif" font-size="10.00">setTINYINTParam</text>
</a>
</g>
</g>
<!-- Node5&#45;&gt;Node7 -->
<g id="edge6" class="edge"><title>Node5&#45;&gt;Node7</title>
<path fill="none" stroke="midnightblue" d="M412.151,-905.781C451.638,-840.392 584.014,-621.182 613.252,-572.765"/>
<polygon fill="midnightblue" stroke="midnightblue" points="409.004,-904.221 406.831,-914.591 414.996,-907.84 409.004,-904.221"/>
</g>
<!-- Node8 -->
<g id="node8" class="node"><title>Node8</title>
<g id="a_node8"><a xlink:href="classcom_1_1tomoparts_1_1tomoBay_1_1model_1_1sql_1_1framework_1_1QueryUtility.html#a138f0c046bc0a6df71b168ab35c3c3e3" target="_top" xlink:title="set an Integer parameter for the query object specified. ">
<polygon fill="white" stroke="black" points="705,-192.747 705,-211.747 800,-211.747 800,-192.747 705,-192.747"/>
<text text-anchor="middle" x="752.5" y="-199.747" font-family="Helvetica,sans-Serif" font-size="10.00">setBIGINTParam</text>
</a>
</g>
</g>
<!-- Node7&#45;&gt;Node8 -->
<g id="edge7" class="edge"><title>Node7&#45;&gt;Node8</title>
<path fill="none" stroke="midnightblue" d="M627.969,-543.967C651.963,-477.595 730.629,-259.983 748.059,-211.765"/>
<polygon fill="midnightblue" stroke="midnightblue" points="624.599,-542.996 624.491,-553.591 631.182,-545.376 624.599,-542.996"/>
</g>
<!-- Node9 -->
<g id="node9" class="node"><title>Node9</title>
<g id="a_node9"><a xlink:href="classcom_1_1tomoparts_1_1tomoBay_1_1model_1_1sql_1_1framework_1_1QueryUtility.html#a50955d4f51a1a7a88ef0c8aadbe9c793" target="_top" xlink:title="set an Integer parameter for the query object specified. ">
<polygon fill="white" stroke="black" points="928,-230.747 928,-249.747 1014,-249.747 1014,-230.747 928,-230.747"/>
<text text-anchor="middle" x="971" y="-237.747" font-family="Helvetica,sans-Serif" font-size="10.00">setBYTEParam</text>
</a>
</g>
</g>
<!-- Node8&#45;&gt;Node9 -->
<g id="edge8" class="edge"><title>Node8&#45;&gt;Node9</title>
<path fill="none" stroke="midnightblue" d="M810.3,-212.216C847.112,-218.677 894.269,-226.954 927.773,-232.835"/>
<polygon fill="midnightblue" stroke="midnightblue" points="810.665,-208.727 800.211,-210.445 809.455,-215.621 810.665,-208.727"/>
</g>
<!-- Node16 -->
<g id="node16" class="node"><title>Node16</title>
<g id="a_node16"><a xlink:href="classcom_1_1tomoparts_1_1tomoBay_1_1model_1_1sql_1_1queries_1_1concreteQueries_1_1insert_1_1InsertEbayItems.html#af9020b85517904668d036bc2bf89433c" target="_top" xlink:title="com.tomoparts.tomoBay.model.sql.queries.concrete\lQueries.insert.InsertEbayItems.setParameters">
<polygon fill="white" stroke="black" points="1637.5,-280.247 1637.5,-310.247 1907.5,-310.247 1907.5,-280.247 1637.5,-280.247"/>
<text text-anchor="start" x="1645.5" y="-298.247" font-family="Helvetica,sans-Serif" font-size="10.00">com.tomoparts.tomoBay.model.sql.queries.concrete</text>
<text text-anchor="middle" x="1772.5" y="-287.247" font-family="Helvetica,sans-Serif" font-size="10.00">Queries.insert.InsertEbayItems.setParameters</text>
</a>
</g>
</g>
<!-- Node8&#45;&gt;Node16 -->
<g id="edge40" class="edge"><title>Node8&#45;&gt;Node16</title>
<path fill="none" stroke="midnightblue" d="M769.726,-185.118C785.195,-169.985 809.939,-148.74 836,-138.247 914.18,-106.767 1527.82,-36.8141 1593,-90.2467 1656.09,-141.97 1570.63,-213.246 1629,-270.247 1632.86,-274.02 1637.08,-277.335 1641.57,-280.244"/>
<polygon fill="midnightblue" stroke="midnightblue" points="767.077,-182.818 762.524,-192.384 772.049,-187.745 767.077,-182.818"/>
</g>
<!-- Node17 -->
<g id="node17" class="node"><title>Node17</title>
<g id="a_node17"><a xlink:href="classcom_1_1tomoparts_1_1tomoBay_1_1model_1_1sql_1_1queries_1_1concreteQueries_1_1insert_1_1InsertEbayTransactions.html#af9020b85517904668d036bc2bf89433c" target="_top" xlink:title="com.tomoparts.tomoBay.model.sql.queries.concrete\lQueries.insert.InsertEbayTransactions.setParameters">
<polygon fill="white" stroke="black" points="1636.5,-231.247 1636.5,-261.247 1908.5,-261.247 1908.5,-231.247 1636.5,-231.247"/>
<text text-anchor="start" x="1644.5" y="-249.247" font-family="Helvetica,sans-Serif" font-size="10.00">com.tomoparts.tomoBay.model.sql.queries.concrete</text>
<text text-anchor="middle" x="1772.5" y="-238.247" font-family="Helvetica,sans-Serif" font-size="10.00">Queries.insert.InsertEbayTransactions.setParameters</text>
</a>
</g>
</g>
<!-- Node8&#45;&gt;Node17 -->
<g id="edge42" class="edge"><title>Node8&#45;&gt;Node17</title>
<path fill="none" stroke="midnightblue" d="M757.938,-182.665C766.556,-149.831 788.987,-84.5876 836,-57.2467 981.419,27.3238 1438.52,9.3422 1593,-57.2467 1677.97,-93.8709 1741.32,-193.036 1763.19,-231.093"/>
<polygon fill="midnightblue" stroke="midnightblue" points="754.52,-181.91 755.53,-192.456 761.317,-183.582 754.52,-181.91"/>
</g>
<!-- Node21 -->
<g id="node21" class="node"><title>Node21</title>
<g id="a_node21"><a xlink:href="classcom_1_1tomoparts_1_1tomoBay_1_1model_1_1sql_1_1queries_1_1concreteQueries_1_1update_1_1UpdateItemNote.html#af9020b85517904668d036bc2bf89433c" target="_top" xlink:title="com.tomoparts.tomoBay.model.sql.queries.concrete\lQueries.update.UpdateItemNote.setParameters">
<polygon fill="white" stroke="black" points="1305.5,-198.247 1305.5,-228.247 1575.5,-228.247 1575.5,-198.247 1305.5,-198.247"/>
<text text-anchor="start" x="1313.5" y="-216.247" font-family="Helvetica,sans-Serif" font-size="10.00">com.tomoparts.tomoBay.model.sql.queries.concrete</text>
<text text-anchor="middle" x="1440.5" y="-205.247" font-family="Helvetica,sans-Serif" font-size="10.00">Queries.update.UpdateItemNote.setParameters</text>
</a>
</g>
</g>
<!-- Node8&#45;&gt;Node21 -->
<g id="edge38" class="edge"><title>Node8&#45;&gt;Node21</title>
<path fill="none" stroke="midnightblue" d="M810.121,-203.155C917.793,-204.881 1154.72,-208.68 1305.19,-211.093"/>
<polygon fill="midnightblue" stroke="midnightblue" points="810.167,-199.655 800.112,-202.994 810.055,-206.654 810.167,-199.655"/>
</g>
<!-- Node22 -->
<g id="node22" class="node"><title>Node22</title>
<g id="a_node22"><a xlink:href="classcom_1_1tomoparts_1_1tomoBay_1_1model_1_1sql_1_1queries_1_1concreteQueries_1_1update_1_1UpdateItemBrandAndPartNo.html#af9020b85517904668d036bc2bf89433c" target="_top" xlink:title="com.tomoparts.tomoBay.model.sql.queries.concrete\lQueries.update.UpdateItemBrandAndPartNo.setParameters">
<polygon fill="white" stroke="black" points="1288,-149.247 1288,-179.247 1593,-179.247 1593,-149.247 1288,-149.247"/>
<text text-anchor="start" x="1296" y="-167.247" font-family="Helvetica,sans-Serif" font-size="10.00">com.tomoparts.tomoBay.model.sql.queries.concrete</text>
<text text-anchor="middle" x="1440.5" y="-156.247" font-family="Helvetica,sans-Serif" font-size="10.00">Queries.update.UpdateItemBrandAndPartNo.setParameters</text>
</a>
</g>
</g>
<!-- Node8&#45;&gt;Node22 -->
<g id="edge39" class="edge"><title>Node8&#45;&gt;Node22</title>
<path fill="none" stroke="midnightblue" d="M810.365,-199.097C914.047,-193.353 1137,-181.003 1287.66,-172.658"/>
<polygon fill="midnightblue" stroke="midnightblue" points="809.903,-195.617 800.112,-199.665 810.291,-202.606 809.903,-195.617"/>
</g>
<!-- Node23 -->
<g id="node23" class="node"><title>Node23</title>
<g id="a_node23"><a xlink:href="classcom_1_1tomoparts_1_1tomoBay_1_1model_1_1sql_1_1queries_1_1concreteQueries_1_1update_1_1UpdateItemError.html#af9020b85517904668d036bc2bf89433c" target="_top" xlink:title="com.tomoparts.tomoBay.model.sql.queries.concrete\lQueries.update.UpdateItemError.setParameters">
<polygon fill="white" stroke="black" points="1305.5,-100.247 1305.5,-130.247 1575.5,-130.247 1575.5,-100.247 1305.5,-100.247"/>
<text text-anchor="start" x="1313.5" y="-118.247" font-family="Helvetica,sans-Serif" font-size="10.00">com.tomoparts.tomoBay.model.sql.queries.concrete</text>
<text text-anchor="middle" x="1440.5" y="-107.247" font-family="Helvetica,sans-Serif" font-size="10.00">Queries.update.UpdateItemError.setParameters</text>
</a>
</g>
</g>
<!-- Node8&#45;&gt;Node23 -->
<g id="edge41" class="edge"><title>Node8&#45;&gt;Node23</title>
<path fill="none" stroke="midnightblue" d="M792.956,-189.809C806.489,-185.929 821.801,-181.959 836,-179.247 995.763,-148.725 1182.3,-131.741 1305.23,-123.067"/>
<polygon fill="midnightblue" stroke="midnightblue" points="791.608,-186.557 783.003,-192.737 793.584,-193.273 791.608,-186.557"/>
</g>
<!-- Node32 -->
<g id="node32" class="node"><title>Node32</title>
<g id="a_node32"><a xlink:href="classcom_1_1tomoparts_1_1tomoBay_1_1model_1_1sql_1_1queries_1_1concreteQueries_1_1select_1_1params_1_1SelectEbayTransactionByID.html#af9020b85517904668d036bc2bf89433c" target="_top" xlink:title="com.tomoparts.tomoBay.model.sql.queries.concrete\lQueries.select.params.SelectEbayTransactionBy\lID.setParameters">
<polygon fill="white" stroke="black" points="836,-328.747 836,-369.747 1106,-369.747 1106,-328.747 836,-328.747"/>
<text text-anchor="start" x="844" y="-357.747" font-family="Helvetica,sans-Serif" font-size="10.00">com.tomoparts.tomoBay.model.sql.queries.concrete</text>
<text text-anchor="start" x="844" y="-346.747" font-family="Helvetica,sans-Serif" font-size="10.00">Queries.select.params.SelectEbayTransactionBy</text>
<text text-anchor="middle" x="971" y="-335.747" font-family="Helvetica,sans-Serif" font-size="10.00">ID.setParameters</text>
</a>
</g>
</g>
<!-- Node8&#45;&gt;Node32 -->
<g id="edge43" class="edge"><title>Node8&#45;&gt;Node32</title>
<path fill="none" stroke="midnightblue" d="M761.494,-221.228C773.596,-247.544 799.132,-294.645 836,-319.247 841.255,-322.753 846.858,-325.855 852.68,-328.599"/>
<polygon fill="midnightblue" stroke="midnightblue" points="764.635,-219.678 757.389,-211.948 758.233,-222.509 764.635,-219.678"/>
</g>
<!-- Node33 -->
<g id="node33" class="node"><title>Node33</title>
<g id="a_node33"><a xlink:href="classcom_1_1tomoparts_1_1tomoBay_1_1model_1_1sql_1_1queries_1_1concreteQueries_1_1select_1_1params_1_1SelectEbayItemSpecific.html#af9020b85517904668d036bc2bf89433c" target="_top" xlink:title="com.tomoparts.tomoBay.model.sql.queries.concrete\lQueries.select.params.SelectEbayItemSpecific.set\lParameters">
<polygon fill="white" stroke="black" points="836,-268.747 836,-309.747 1106,-309.747 1106,-268.747 836,-268.747"/>
<text text-anchor="start" x="844" y="-297.747" font-family="Helvetica,sans-Serif" font-size="10.00">com.tomoparts.tomoBay.model.sql.queries.concrete</text>
<text text-anchor="start" x="844" y="-286.747" font-family="Helvetica,sans-Serif" font-size="10.00">Queries.select.params.SelectEbayItemSpecific.set</text>
<text text-anchor="middle" x="971" y="-275.747" font-family="Helvetica,sans-Serif" font-size="10.00">Parameters</text>
</a>
</g>
</g>
<!-- Node8&#45;&gt;Node33 -->
<g id="edge44" class="edge"><title>Node8&#45;&gt;Node33</title>
<path fill="none" stroke="midnightblue" d="M772.396,-218.477C788.348,-231.364 812.315,-248.884 836,-259.247 844.081,-262.782 852.625,-265.923 861.33,-268.708"/>
<polygon fill="midnightblue" stroke="midnightblue" points="774.346,-215.548 764.411,-211.869 769.883,-220.941 774.346,-215.548"/>
</g>
<!-- Node10 -->
<g id="node10" class="node"><title>Node10</title>
<g id="a_node10"><a xlink:href="classcom_1_1tomoparts_1_1tomoBay_1_1model_1_1sql_1_1framework_1_1QueryUtility.html#a3249b16421a9902f2248cb86d4dd3be3" target="_top" xlink:title="set an Integer parameter for the query object specified. ">
<polygon fill="white" stroke="black" points="1142,-460.747 1142,-479.747 1252,-479.747 1252,-460.747 1142,-460.747"/>
<text text-anchor="middle" x="1197" y="-467.747" font-family="Helvetica,sans-Serif" font-size="10.00">setVARCHARParam</text>
</a>
</g>
</g>
<!-- Node9&#45;&gt;Node10 -->
<g id="edge9" class="edge"><title>Node9&#45;&gt;Node10</title>
<path fill="none" stroke="midnightblue" d="M1024.19,-236.058C1051.11,-236.565 1083.02,-241.623 1106,-259.247 1174.58,-311.838 1191.56,-426.879 1195.14,-460.709"/>
<polygon fill="midnightblue" stroke="midnightblue" points="1024.14,-232.558 1014.14,-236.07 1024.15,-239.558 1024.14,-232.558"/>
</g>
<!-- Node10&#45;&gt;Node6 -->
<g id="edge26" class="edge"><title>Node10&#45;&gt;Node6</title>
<path fill="none" stroke="midnightblue" d="M1218.59,-485.951C1236.08,-498.443 1262.37,-515.267 1288,-524.247 1417.08,-569.475 1479.29,-489.244 1593,-565.247 1619.49,-582.953 1602.81,-609.103 1629,-627.247 1633.85,-630.604 1639,-633.547 1644.37,-636.123"/>
<polygon fill="midnightblue" stroke="midnightblue" points="1220.43,-482.959 1210.29,-479.877 1216.29,-488.608 1220.43,-482.959"/>
</g>
<!-- Node11 -->
<g id="node11" class="node"><title>Node11</title>
<g id="a_node11"><a xlink:href="classcom_1_1tomoparts_1_1tomoBay_1_1model_1_1sql_1_1framework_1_1QueryUtility.html#aca3b74b8ac7e194a86c0b896a674e2f2" target="_top" xlink:title="set an Integer parameter for the query object specified. ">
<polygon fill="white" stroke="black" points="1388.5,-460.747 1388.5,-479.747 1492.5,-479.747 1492.5,-460.747 1388.5,-460.747"/>
<text text-anchor="middle" x="1440.5" y="-467.747" font-family="Helvetica,sans-Serif" font-size="10.00">setINTEGERParam</text>
</a>
</g>
</g>
<!-- Node10&#45;&gt;Node11 -->
<g id="edge10" class="edge"><title>Node10&#45;&gt;Node11</title>
<path fill="none" stroke="midnightblue" d="M1262.25,-470.247C1301.73,-470.247 1351.6,-470.247 1388.38,-470.247"/>
<polygon fill="midnightblue" stroke="midnightblue" points="1262.2,-466.747 1252.2,-470.247 1262.2,-473.747 1262.2,-466.747"/>
</g>
<!-- Node14 -->
<g id="node14" class="node"><title>Node14</title>
<g id="a_node14"><a xlink:href="classcom_1_1tomoparts_1_1tomoBay_1_1model_1_1sql_1_1queries_1_1concreteQueries_1_1update_1_1UpdateInvoiceStatus.html#af9020b85517904668d036bc2bf89433c" target="_top" xlink:title="com.tomoparts.tomoBay.model.sql.queries.concrete\lQueries.update.UpdateInvoiceStatus.setParameters">
<polygon fill="white" stroke="black" points="1637.5,-587.247 1637.5,-617.247 1907.5,-617.247 1907.5,-587.247 1637.5,-587.247"/>
<text text-anchor="start" x="1645.5" y="-605.247" font-family="Helvetica,sans-Serif" font-size="10.00">com.tomoparts.tomoBay.model.sql.queries.concrete</text>
<text text-anchor="middle" x="1772.5" y="-594.247" font-family="Helvetica,sans-Serif" font-size="10.00">Queries.update.UpdateInvoiceStatus.setParameters</text>
</a>
</g>
</g>
<!-- Node10&#45;&gt;Node14 -->
<g id="edge22" class="edge"><title>Node10&#45;&gt;Node14</title>
<path fill="none" stroke="midnightblue" d="M1250.54,-481.966C1262.81,-484.527 1275.84,-487.108 1288,-489.247 1422.83,-512.954 1474.43,-463.822 1593,-532.247 1615.49,-545.223 1606.69,-564.97 1629,-578.247 1634.71,-581.647 1640.77,-584.6 1647.04,-587.162"/>
<polygon fill="midnightblue" stroke="midnightblue" points="1250.97,-478.479 1240.46,-479.831 1249.52,-485.327 1250.97,-478.479"/>
</g>
<!-- Node10&#45;&gt;Node16 -->
<g id="edge27" class="edge"><title>Node10&#45;&gt;Node16</title>
<path fill="none" stroke="midnightblue" d="M1202.66,-450.826C1212.1,-416.312 1237.04,-345.027 1288,-314.247 1344.67,-280.015 1514.86,-280.734 1637.28,-286.342"/>
<polygon fill="midnightblue" stroke="midnightblue" points="1199.24,-450.085 1200.13,-460.643 1206.02,-451.834 1199.24,-450.085"/>
</g>
<!-- Node10&#45;&gt;Node17 -->
<g id="edge28" class="edge"><title>Node10&#45;&gt;Node17</title>
<path fill="none" stroke="midnightblue" d="M1200.77,-450.541C1207.53,-410.632 1228.9,-320.622 1288,-280.247 1342.76,-242.838 1513.39,-238.606 1636.44,-240.878"/>
<polygon fill="midnightblue" stroke="midnightblue" points="1197.28,-450.173 1199.2,-460.593 1204.2,-451.253 1197.28,-450.173"/>
</g>
<!-- Node18 -->
<g id="node18" class="node"><title>Node18</title>
<g id="a_node18"><a xlink:href="classcom_1_1tomoparts_1_1tomoBay_1_1model_1_1sql_1_1queries_1_1concreteQueries_1_1select_1_1params_1_1SelectBuyerByAccAndSRN.html#af9020b85517904668d036bc2bf89433c" target="_top" xlink:title="com.tomoparts.tomoBay.model.sql.queries.concrete\lQueries.select.params.SelectBuyerByAccAndSRN.set\lParameters">
<polygon fill="white" stroke="black" points="1636.5,-329.747 1636.5,-370.747 1908.5,-370.747 1908.5,-329.747 1636.5,-329.747"/>
<text text-anchor="start" x="1644.5" y="-358.747" font-family="Helvetica,sans-Serif" font-size="10.00">com.tomoparts.tomoBay.model.sql.queries.concrete</text>
<text text-anchor="start" x="1644.5" y="-347.747" font-family="Helvetica,sans-Serif" font-size="10.00">Queries.select.params.SelectBuyerByAccAndSRN.set</text>
<text text-anchor="middle" x="1772.5" y="-336.747" font-family="Helvetica,sans-Serif" font-size="10.00">Parameters</text>
</a>
</g>
</g>
<!-- Node10&#45;&gt;Node18 -->
<g id="edge30" class="edge"><title>Node10&#45;&gt;Node18</title>
<path fill="none" stroke="midnightblue" d="M1249.41,-458.645C1261.99,-456.013 1275.45,-453.37 1288,-451.247 1422.74,-428.447 1468.61,-468.832 1593,-412.247 1612.49,-403.383 1609.89,-389.886 1629,-380.247 1636,-376.718 1643.39,-373.604 1650.98,-370.855"/>
<polygon fill="midnightblue" stroke="midnightblue" points="1248.59,-455.241 1239.54,-460.745 1250.05,-462.088 1248.59,-455.241"/>
</g>
<!-- Node20 -->
<g id="node20" class="node"><title>Node20</title>
<g id="a_node20"><a xlink:href="classcom_1_1tomoparts_1_1tomoBay_1_1model_1_1sql_1_1queries_1_1concreteQueries_1_1insert_1_1InsertOrderInOrderStatus.html#af9020b85517904668d036bc2bf89433c" target="_top" xlink:title="com.tomoparts.tomoBay.model.sql.queries.concrete\lQueries.insert.InsertOrderInOrderStatus.setParameters">
<polygon fill="white" stroke="black" points="1300,-373.247 1300,-403.247 1581,-403.247 1581,-373.247 1300,-373.247"/>
<text text-anchor="start" x="1308" y="-391.247" font-family="Helvetica,sans-Serif" font-size="10.00">com.tomoparts.tomoBay.model.sql.queries.concrete</text>
<text text-anchor="middle" x="1440.5" y="-380.247" font-family="Helvetica,sans-Serif" font-size="10.00">Queries.insert.InsertOrderInOrderStatus.setParameters</text>
</a>
</g>
</g>
<!-- Node10&#45;&gt;Node20 -->
<g id="edge21" class="edge"><title>Node10&#45;&gt;Node20</title>
<path fill="none" stroke="midnightblue" d="M1219.74,-454.944C1237.37,-443.23 1263.26,-427.55 1288,-418.247 1304.19,-412.159 1321.84,-407.235 1339.18,-403.274"/>
<polygon fill="midnightblue" stroke="midnightblue" points="1217.64,-452.143 1211.33,-460.654 1221.57,-457.935 1217.64,-452.143"/>
</g>
<!-- Node10&#45;&gt;Node21 -->
<g id="edge23" class="edge"><title>Node10&#45;&gt;Node21</title>
<path fill="none" stroke="midnightblue" d="M1199.64,-450.564C1204.46,-406.122 1222.67,-297.653 1288,-243.247 1295.21,-237.241 1303.28,-232.317 1311.84,-228.291"/>
<polygon fill="midnightblue" stroke="midnightblue" points="1196.15,-450.345 1198.67,-460.636 1203.12,-451.021 1196.15,-450.345"/>
</g>
<!-- Node10&#45;&gt;Node22 -->
<g id="edge24" class="edge"><title>Node10&#45;&gt;Node22</title>
<path fill="none" stroke="midnightblue" d="M1197.76,-450.365C1198.31,-398.321 1207.53,-257.343 1288,-188.247 1291.84,-184.951 1295.94,-182.011 1300.25,-179.395"/>
<polygon fill="midnightblue" stroke="midnightblue" points="1194.26,-450.577 1197.76,-460.578 1201.26,-450.579 1194.26,-450.577"/>
</g>
<!-- Node10&#45;&gt;Node23 -->
<g id="edge25" class="edge"><title>Node10&#45;&gt;Node23</title>
<path fill="none" stroke="midnightblue" d="M1200.57,-450.437C1209.37,-385.674 1240.43,-181.919 1288,-139.247 1293.25,-134.534 1299.04,-130.54 1305.2,-127.166"/>
<polygon fill="midnightblue" stroke="midnightblue" points="1197.07,-450.161 1199.22,-460.535 1204.01,-451.084 1197.07,-450.161"/>
</g>
<!-- Node24 -->
<g id="node24" class="node"><title>Node24</title>
<g id="a_node24"><a xlink:href="classcom_1_1tomoparts_1_1tomoBay_1_1model_1_1sql_1_1queries_1_1concreteQueries_1_1update_1_1UpdateEbayBuyer.html#af9020b85517904668d036bc2bf89433c" target="_top" xlink:title="com.tomoparts.tomoBay.model.sql.queries.concrete\lQueries.update.UpdateEbayBuyer.setParameters">
<polygon fill="white" stroke="black" points="1305.5,-324.247 1305.5,-354.247 1575.5,-354.247 1575.5,-324.247 1305.5,-324.247"/>
<text text-anchor="start" x="1313.5" y="-342.247" font-family="Helvetica,sans-Serif" font-size="10.00">com.tomoparts.tomoBay.model.sql.queries.concrete</text>
<text text-anchor="middle" x="1440.5" y="-331.247" font-family="Helvetica,sans-Serif" font-size="10.00">Queries.update.UpdateEbayBuyer.setParameters</text>
</a>
</g>
</g>
<!-- Node10&#45;&gt;Node24 -->
<g id="edge29" class="edge"><title>Node10&#45;&gt;Node24</title>
<path fill="none" stroke="midnightblue" d="M1208.03,-451.495C1222.28,-426.85 1250.85,-384.236 1288,-363.247 1294.03,-359.841 1300.39,-356.879 1306.97,-354.306"/>
<polygon fill="midnightblue" stroke="midnightblue" points="1204.79,-450.118 1202.97,-460.555 1210.9,-453.532 1204.79,-450.118"/>
</g>
<!-- Node25 -->
<g id="node25" class="node"><title>Node25</title>
<g id="a_node25"><a xlink:href="classcom_1_1tomoparts_1_1tomoBay_1_1model_1_1sql_1_1queries_1_1concreteQueries_1_1insert_1_1InsertEbayBuyers.html#af9020b85517904668d036bc2bf89433c" target="_top" xlink:title="com.tomoparts.tomoBay.model.sql.queries.concrete\lQueries.insert.InsertEbayBuyers.setParameters">
<polygon fill="white" stroke="black" points="1305.5,-925.247 1305.5,-955.247 1575.5,-955.247 1575.5,-925.247 1305.5,-925.247"/>
<text text-anchor="start" x="1313.5" y="-943.247" font-family="Helvetica,sans-Serif" font-size="10.00">com.tomoparts.tomoBay.model.sql.queries.concrete</text>
<text text-anchor="middle" x="1440.5" y="-932.247" font-family="Helvetica,sans-Serif" font-size="10.00">Queries.insert.InsertEbayBuyers.setParameters</text>
</a>
</g>
</g>
<!-- Node10&#45;&gt;Node25 -->
<g id="edge31" class="edge"><title>Node10&#45;&gt;Node25</title>
<path fill="none" stroke="midnightblue" d="M1199.12,-490.39C1203.94,-569.164 1225.54,-854.998 1288,-915.247 1293.28,-920.336 1299.17,-924.621 1305.48,-928.215"/>
<polygon fill="midnightblue" stroke="midnightblue" points="1202.59,-489.731 1198.51,-479.953 1195.6,-490.141 1202.59,-489.731"/>
</g>
<!-- Node26 -->
<g id="node26" class="node"><title>Node26</title>
<g id="a_node26"><a xlink:href="classcom_1_1tomoparts_1_1tomoBay_1_1model_1_1sql_1_1queries_1_1concreteQueries_1_1select_1_1params_1_1SelectEbayOrderByBuyer.html#af9020b85517904668d036bc2bf89433c" target="_top" xlink:title="com.tomoparts.tomoBay.model.sql.queries.concrete\lQueries.select.params.SelectEbayOrderByBuyer.set\lParameters">
<polygon fill="white" stroke="black" points="1305.5,-864.747 1305.5,-905.747 1575.5,-905.747 1575.5,-864.747 1305.5,-864.747"/>
<text text-anchor="start" x="1313.5" y="-893.747" font-family="Helvetica,sans-Serif" font-size="10.00">com.tomoparts.tomoBay.model.sql.queries.concrete</text>
<text text-anchor="start" x="1313.5" y="-882.747" font-family="Helvetica,sans-Serif" font-size="10.00">Queries.select.params.SelectEbayOrderByBuyer.set</text>
<text text-anchor="middle" x="1440.5" y="-871.747" font-family="Helvetica,sans-Serif" font-size="10.00">Parameters</text>
</a>
</g>
</g>
<!-- Node10&#45;&gt;Node26 -->
<g id="edge32" class="edge"><title>Node10&#45;&gt;Node26</title>
<path fill="none" stroke="midnightblue" d="M1199.86,-490.332C1206.92,-561.964 1234.35,-803.396 1288,-855.247 1293.21,-860.278 1299,-864.581 1305.2,-868.254"/>
<polygon fill="midnightblue" stroke="midnightblue" points="1203.31,-489.63 1198.87,-480.009 1196.34,-490.298 1203.31,-489.63"/>
</g>
<!-- Node27 -->
<g id="node27" class="node"><title>Node27</title>
<g id="a_node27"><a xlink:href="classcom_1_1tomoparts_1_1tomoBay_1_1model_1_1sql_1_1queries_1_1concreteQueries_1_1select_1_1params_1_1SelectTransactionByOrder.html#af9020b85517904668d036bc2bf89433c" target="_top" xlink:title="com.tomoparts.tomoBay.model.sql.queries.concrete\lQueries.select.params.SelectTransactionByOrder.set\lParameters">
<polygon fill="white" stroke="black" points="1305.5,-804.747 1305.5,-845.747 1575.5,-845.747 1575.5,-804.747 1305.5,-804.747"/>
<text text-anchor="start" x="1313.5" y="-833.747" font-family="Helvetica,sans-Serif" font-size="10.00">com.tomoparts.tomoBay.model.sql.queries.concrete</text>
<text text-anchor="start" x="1313.5" y="-822.747" font-family="Helvetica,sans-Serif" font-size="10.00">Queries.select.params.SelectTransactionByOrder.set</text>
<text text-anchor="middle" x="1440.5" y="-811.747" font-family="Helvetica,sans-Serif" font-size="10.00">Parameters</text>
</a>
</g>
</g>
<!-- Node10&#45;&gt;Node27 -->
<g id="edge33" class="edge"><title>Node10&#45;&gt;Node27</title>
<path fill="none" stroke="midnightblue" d="M1200.74,-490.027C1209.99,-553.842 1242.04,-752.6 1288,-795.247 1293.31,-800.171 1299.18,-804.391 1305.44,-807.999"/>
<polygon fill="midnightblue" stroke="midnightblue" points="1204.15,-489.158 1199.28,-479.75 1197.22,-490.142 1204.15,-489.158"/>
</g>
<!-- Node28 -->
<g id="node28" class="node"><title>Node28</title>
<g id="a_node28"><a xlink:href="classcom_1_1tomoparts_1_1tomoBay_1_1model_1_1sql_1_1queries_1_1concreteQueries_1_1select_1_1para6f75a6d09fd903571426df29e6112491.html#af9020b85517904668d036bc2bf89433c" target="_top" xlink:title="com.tomoparts.tomoBay.model.sql.queries.concrete\lQueries.select.params.SelectBrandAndPartNoBy\lOrderID.setParameters">
<polygon fill="white" stroke="black" points="1305.5,-744.747 1305.5,-785.747 1575.5,-785.747 1575.5,-744.747 1305.5,-744.747"/>
<text text-anchor="start" x="1313.5" y="-773.747" font-family="Helvetica,sans-Serif" font-size="10.00">com.tomoparts.tomoBay.model.sql.queries.concrete</text>
<text text-anchor="start" x="1313.5" y="-762.747" font-family="Helvetica,sans-Serif" font-size="10.00">Queries.select.params.SelectBrandAndPartNoBy</text>
<text text-anchor="middle" x="1440.5" y="-751.747" font-family="Helvetica,sans-Serif" font-size="10.00">OrderID.setParameters</text>
</a>
</g>
</g>
<!-- Node10&#45;&gt;Node28 -->
<g id="edge34" class="edge"><title>Node10&#45;&gt;Node28</title>
<path fill="none" stroke="midnightblue" d="M1198.38,-490.085C1200.49,-539.675 1213.23,-669.739 1288,-735.247 1293.34,-739.929 1299.21,-743.963 1305.42,-747.434"/>
<polygon fill="midnightblue" stroke="midnightblue" points="1201.87,-489.668 1198.06,-479.784 1194.88,-489.89 1201.87,-489.668"/>
</g>
<!-- Node29 -->
<g id="node29" class="node"><title>Node29</title>
<g id="a_node29"><a xlink:href="classcom_1_1tomoparts_1_1tomoBay_1_1model_1_1sql_1_1queries_1_1concreteQueries_1_1select_1_1params_1_1SelectEbayOrderByID.html#af9020b85517904668d036bc2bf89433c" target="_top" xlink:title="com.tomoparts.tomoBay.model.sql.queries.concrete\lQueries.select.params.SelectEbayOrderByID.set\lParameters">
<polygon fill="white" stroke="black" points="1305.5,-684.747 1305.5,-725.747 1575.5,-725.747 1575.5,-684.747 1305.5,-684.747"/>
<text text-anchor="start" x="1313.5" y="-713.747" font-family="Helvetica,sans-Serif" font-size="10.00">com.tomoparts.tomoBay.model.sql.queries.concrete</text>
<text text-anchor="start" x="1313.5" y="-702.747" font-family="Helvetica,sans-Serif" font-size="10.00">Queries.select.params.SelectEbayOrderByID.set</text>
<text text-anchor="middle" x="1440.5" y="-691.747" font-family="Helvetica,sans-Serif" font-size="10.00">Parameters</text>
</a>
</g>
</g>
<!-- Node10&#45;&gt;Node29 -->
<g id="edge35" class="edge"><title>Node10&#45;&gt;Node29</title>
<path fill="none" stroke="midnightblue" d="M1200.58,-489.981C1207.08,-531.334 1228.15,-627.213 1288,-675.247 1293.33,-679.526 1299.11,-683.251 1305.18,-686.489"/>
<polygon fill="midnightblue" stroke="midnightblue" points="1204.01,-489.243 1199.11,-479.848 1197.08,-490.247 1204.01,-489.243"/>
</g>
<!-- Node30 -->
<g id="node30" class="node"><title>Node30</title>
<g id="a_node30"><a xlink:href="classcom_1_1tomoparts_1_1tomoBay_1_1model_1_1sql_1_1queries_1_1concreteQueries_1_1select_1_1params_1_1SelectEbayBuyer.html#af9020b85517904668d036bc2bf89433c" target="_top" xlink:title="com.tomoparts.tomoBay.model.sql.queries.concrete\lQueries.select.params.SelectEbayBuyer.setParameters">
<polygon fill="white" stroke="black" points="1299,-635.247 1299,-665.247 1582,-665.247 1582,-635.247 1299,-635.247"/>
<text text-anchor="start" x="1307" y="-653.247" font-family="Helvetica,sans-Serif" font-size="10.00">com.tomoparts.tomoBay.model.sql.queries.concrete</text>
<text text-anchor="middle" x="1440.5" y="-642.247" font-family="Helvetica,sans-Serif" font-size="10.00">Queries.select.params.SelectEbayBuyer.setParameters</text>
</a>
</g>
</g>
<!-- Node10&#45;&gt;Node30 -->
<g id="edge36" class="edge"><title>Node10&#45;&gt;Node30</title>
<path fill="none" stroke="midnightblue" d="M1203.38,-489.851C1213.7,-523.514 1239.68,-591.897 1288,-625.247 1293.48,-629.032 1299.34,-632.317 1305.45,-635.163"/>
<polygon fill="midnightblue" stroke="midnightblue" points="1206.62,-488.487 1200.46,-479.866 1199.9,-490.446 1206.62,-488.487"/>
</g>
<!-- Node31 -->
<g id="node31" class="node"><title>Node31</title>
<g id="a_node31"><a xlink:href="classcom_1_1tomoparts_1_1tomoBay_1_1model_1_1sql_1_1queries_1_1concreteQueries_1_1select_1_1params_1_1SelectFullOrderLine.html#af9020b85517904668d036bc2bf89433c" target="_top" xlink:title="com.tomoparts.tomoBay.model.sql.queries.concrete\lQueries.select.params.SelectFullOrderLine.set\lParameters">
<polygon fill="white" stroke="black" points="1305.5,-574.747 1305.5,-615.747 1575.5,-615.747 1575.5,-574.747 1305.5,-574.747"/>
<text text-anchor="start" x="1313.5" y="-603.747" font-family="Helvetica,sans-Serif" font-size="10.00">com.tomoparts.tomoBay.model.sql.queries.concrete</text>
<text text-anchor="start" x="1313.5" y="-592.747" font-family="Helvetica,sans-Serif" font-size="10.00">Queries.select.params.SelectFullOrderLine.set</text>
<text text-anchor="middle" x="1440.5" y="-581.747" font-family="Helvetica,sans-Serif" font-size="10.00">Parameters</text>
</a>
</g>
</g>
<!-- Node10&#45;&gt;Node31 -->
<g id="edge37" class="edge"><title>Node10&#45;&gt;Node31</title>
<path fill="none" stroke="midnightblue" d="M1210.8,-488.094C1226.58,-508.72 1255.34,-542.14 1288,-560.247 1298.27,-565.94 1309.42,-570.71 1320.87,-574.704"/>
<polygon fill="midnightblue" stroke="midnightblue" points="1213.46,-485.801 1204.68,-479.869 1207.85,-489.981 1213.46,-485.801"/>
</g>
<!-- Node11&#45;&gt;Node3 -->
<g id="edge14" class="edge"><title>Node11&#45;&gt;Node3</title>
<path fill="none" stroke="midnightblue" d="M1476.72,-483.854C1511.09,-498.847 1562.51,-526.137 1593,-565.247 1624.89,-606.149 1604.82,-630.364 1629,-676.247 1665.67,-745.827 1728.6,-816.192 1756.93,-846.193"/>
<polygon fill="midnightblue" stroke="midnightblue" points="1477.66,-480.448 1467.08,-479.773 1474.93,-486.894 1477.66,-480.448"/>
</g>
<!-- Node11&#45;&gt;Node6 -->
<g id="edge17" class="edge"><title>Node11&#45;&gt;Node6</title>
<path fill="none" stroke="midnightblue" d="M1501.13,-482.549C1532.05,-491.651 1568.4,-506.989 1593,-532.247 1624.51,-564.59 1594.11,-598.585 1629,-627.247 1633.07,-630.591 1637.43,-633.548 1642.01,-636.159"/>
<polygon fill="midnightblue" stroke="midnightblue" points="1501.88,-479.124 1491.31,-479.809 1500,-485.866 1501.88,-479.124"/>
</g>
<!-- Node12 -->
<g id="node12" class="node"><title>Node12</title>
<g id="a_node12"><a xlink:href="classcom_1_1tomoparts_1_1tomoBay_1_1model_1_1sql_1_1framework_1_1QueryUtility.html#a2da2ce60a8a037d55bdc69309db4815b" target="_top" xlink:title="private ctor ensures that this class is never instantiated ">
<polygon fill="white" stroke="black" points="1736.5,-499.747 1736.5,-518.747 1808.5,-518.747 1808.5,-499.747 1736.5,-499.747"/>
<text text-anchor="middle" x="1772.5" y="-506.747" font-family="Helvetica,sans-Serif" font-size="10.00">QueryUtility</text>
</a>
</g>
</g>
<!-- Node11&#45;&gt;Node12 -->
<g id="edge11" class="edge"><title>Node11&#45;&gt;Node12</title>
<path fill="none" stroke="midnightblue" d="M1502.96,-477.51C1571.75,-485.64 1680.82,-498.529 1736.41,-505.1"/>
<polygon fill="midnightblue" stroke="midnightblue" points="1503.04,-473.996 1492.7,-476.298 1502.22,-480.947 1503.04,-473.996"/>
</g>
<!-- Node13 -->
<g id="node13" class="node"><title>Node13</title>
<g id="a_node13"><a xlink:href="classcom_1_1tomoparts_1_1tomoBay_1_1model_1_1sql_1_1queries_1_1concreteQueries_1_1update_1_1UpdateInvoiceStatusSRN.html#af9020b85517904668d036bc2bf89433c" target="_top" xlink:title="com.tomoparts.tomoBay.model.sql.queries.concrete\lQueries.update.UpdateInvoiceStatusSRN.setParameters">
<polygon fill="white" stroke="black" points="1629,-450.247 1629,-480.247 1916,-480.247 1916,-450.247 1629,-450.247"/>
<text text-anchor="start" x="1637" y="-468.247" font-family="Helvetica,sans-Serif" font-size="10.00">com.tomoparts.tomoBay.model.sql.queries.concrete</text>
<text text-anchor="middle" x="1772.5" y="-457.247" font-family="Helvetica,sans-Serif" font-size="10.00">Queries.update.UpdateInvoiceStatusSRN.setParameters</text>
</a>
</g>
</g>
<!-- Node11&#45;&gt;Node13 -->
<g id="edge12" class="edge"><title>Node11&#45;&gt;Node13</title>
<path fill="none" stroke="midnightblue" d="M1502.9,-469.316C1538.43,-468.778 1584.74,-468.076 1628.87,-467.408"/>
<polygon fill="midnightblue" stroke="midnightblue" points="1502.65,-465.82 1492.7,-469.471 1502.75,-472.819 1502.65,-465.82"/>
</g>
<!-- Node11&#45;&gt;Node14 -->
<g id="edge13" class="edge"><title>Node11&#45;&gt;Node14</title>
<path fill="none" stroke="midnightblue" d="M1503.09,-466.754C1533,-468.13 1567.81,-474.638 1593,-494.247 1625.05,-519.198 1597.07,-553.139 1629,-578.247 1633.24,-581.581 1637.77,-584.524 1642.52,-587.119"/>
<polygon fill="midnightblue" stroke="midnightblue" points="1502.84,-463.245 1492.74,-466.468 1502.64,-470.243 1502.84,-463.245"/>
</g>
<!-- Node15 -->
<g id="node15" class="node"><title>Node15</title>
<g id="a_node15"><a xlink:href="classcom_1_1tomoparts_1_1tomoBay_1_1model_1_1sql_1_1queries_1_1concreteQueries_1_1select_1_1parac0d31fe89450040cf1dcb1e02765c08b.html#af9020b85517904668d036bc2bf89433c" target="_top" xlink:title="com.tomoparts.tomoBay.model.sql.queries.concrete\lQueries.select.params.SelectEbayOrderHistory\lLastNDays.setParameters">
<polygon fill="white" stroke="black" points="1637.5,-389.747 1637.5,-430.747 1907.5,-430.747 1907.5,-389.747 1637.5,-389.747"/>
<text text-anchor="start" x="1645.5" y="-418.747" font-family="Helvetica,sans-Serif" font-size="10.00">com.tomoparts.tomoBay.model.sql.queries.concrete</text>
<text text-anchor="start" x="1645.5" y="-407.747" font-family="Helvetica,sans-Serif" font-size="10.00">Queries.select.params.SelectEbayOrderHistory</text>
<text text-anchor="middle" x="1772.5" y="-396.747" font-family="Helvetica,sans-Serif" font-size="10.00">LastNDays.setParameters</text>
</a>
</g>
</g>
<!-- Node11&#45;&gt;Node15 -->
<g id="edge15" class="edge"><title>Node11&#45;&gt;Node15</title>
<path fill="none" stroke="midnightblue" d="M1502.7,-461.149C1530.33,-456.888 1563.36,-451.582 1593,-446.247 1619.14,-441.543 1647.34,-436.05 1673.44,-430.793"/>
<polygon fill="midnightblue" stroke="midnightblue" points="1502.14,-457.694 1492.78,-462.669 1503.2,-464.613 1502.14,-457.694"/>
</g>
<!-- Node11&#45;&gt;Node16 -->
<g id="edge16" class="edge"><title>Node11&#45;&gt;Node16</title>
<path fill="none" stroke="midnightblue" d="M1502.33,-459.161C1532.91,-450.823 1568.56,-436.506 1593,-412.247 1624.16,-381.314 1595.02,-348.051 1629,-320.247 1633.57,-316.509 1638.5,-313.247 1643.69,-310.404"/>
<polygon fill="midnightblue" stroke="midnightblue" points="1501.41,-455.782 1492.6,-461.663 1503.15,-462.562 1501.41,-455.782"/>
</g>
<!-- Node11&#45;&gt;Node17 -->
<g id="edge18" class="edge"><title>Node11&#45;&gt;Node17</title>
<path fill="none" stroke="midnightblue" d="M1502.58,-460.632C1533.75,-452.682 1569.87,-438.267 1593,-412.247 1636.26,-363.588 1581.13,-314.373 1629,-270.247 1632.6,-266.931 1636.47,-263.981 1640.56,-261.361"/>
<polygon fill="midnightblue" stroke="midnightblue" points="1501.57,-457.273 1492.66,-462.993 1503.19,-464.083 1501.57,-457.273"/>
</g>
<!-- Node11&#45;&gt;Node18 -->
<g id="edge19" class="edge"><title>Node11&#45;&gt;Node18</title>
<path fill="none" stroke="midnightblue" d="M1503,-472.675C1532.56,-470.979 1567.11,-464.508 1593,-446.247 1620.3,-426.988 1602.19,-400.187 1629,-380.247 1633.77,-376.701 1638.86,-373.554 1644.18,-370.761"/>
<polygon fill="midnightblue" stroke="midnightblue" points="1502.62,-469.187 1492.77,-473.087 1502.9,-476.181 1502.62,-469.187"/>
</g>
<!-- Node19 -->
<g id="node19" class="node"><title>Node19</title>
<g id="a_node19"><a xlink:href="classcom_1_1tomoparts_1_1tomoBay_1_1model_1_1sql_1_1queries_1_1concreteQueries_1_1select_1_1params_1_1SelectBrandByInv.html#af9020b85517904668d036bc2bf89433c" target="_top" xlink:title="com.tomoparts.tomoBay.model.sql.queries.concrete\lQueries.select.params.SelectBrandByInv.setParameters">
<polygon fill="white" stroke="black" points="1629.5,-538.247 1629.5,-568.247 1915.5,-568.247 1915.5,-538.247 1629.5,-538.247"/>
<text text-anchor="start" x="1637.5" y="-556.247" font-family="Helvetica,sans-Serif" font-size="10.00">com.tomoparts.tomoBay.model.sql.queries.concrete</text>
<text text-anchor="middle" x="1772.5" y="-545.247" font-family="Helvetica,sans-Serif" font-size="10.00">Queries.select.params.SelectBrandByInv.setParameters</text>
</a>
</g>
</g>
<!-- Node11&#45;&gt;Node19 -->
<g id="edge20" class="edge"><title>Node11&#45;&gt;Node19</title>
<path fill="none" stroke="midnightblue" d="M1502.83,-471.684C1531.44,-474.387 1565.22,-480.59 1593,-494.247 1612.75,-503.957 1609.33,-518.373 1629,-528.247 1636.74,-532.134 1644.99,-535.428 1653.46,-538.218"/>
<polygon fill="midnightblue" stroke="midnightblue" points="1502.8,-468.17 1492.55,-470.84 1502.23,-475.146 1502.8,-468.17"/>
</g>
</g>
</svg>
