<?xml version="1.0" encoding="UTF-8" standalone="no"?>
<!DOCTYPE svg PUBLIC "-//W3C//DTD SVG 1.1//EN"
 "http://www.w3.org/Graphics/SVG/1.1/DTD/svg11.dtd">
<!-- Generated by graphviz version 2.38.0 (20140413.2041)
 -->
<!-- Title: AllowedPresenterActions Pages: 1 -->
<svg width="277pt" height="204pt"
 viewBox="0.00 0.00 277.00 204.00" xmlns="http://www.w3.org/2000/svg" xmlns:xlink="http://www.w3.org/1999/xlink">
<g id="graph0" class="graph" transform="scale(1 1) rotate(0) translate(4 200)">
<title>AllowedPresenterActions</title>
<polygon fill="white" stroke="none" points="-4,4 -4,-200 273,-200 273,4 -4,4"/>
<!-- Node1 -->
<g id="node1" class="node"><title>Node1</title>
<polygon fill="#bfbfbf" stroke="black" points="58,-0.5 58,-79.5 211,-79.5 211,-0.5 58,-0.5"/>
<text text-anchor="middle" x="134.5" y="-67.5" font-family="Helvetica,sans-Serif" font-size="10.00">AllowedPresenterActions</text>
<polyline fill="none" stroke="black" points="58,-60.5 211,-60.5 "/>
<text text-anchor="middle" x="134.5" y="-48.5" font-family="Helvetica,sans-Serif" font-size="10.00"> </text>
<polyline fill="none" stroke="black" points="58,-41.5 211,-41.5 "/>
<text text-anchor="start" x="66" y="-29.5" font-family="Helvetica,sans-Serif" font-size="10.00">+ AllowedPresenterActions()</text>
<text text-anchor="start" x="66" y="-18.5" font-family="Helvetica,sans-Serif" font-size="10.00">+ add()</text>
<text text-anchor="start" x="66" y="-7.5" font-family="Helvetica,sans-Serif" font-size="10.00">+ isAllowed()</text>
</g>
<!-- Node2 -->
<g id="node2" class="node"><title>Node2</title>
<polygon fill="white" stroke="#bfbfbf" points="0,-127.5 0,-195.5 269,-195.5 269,-127.5 0,-127.5"/>
<text text-anchor="start" x="8" y="-183.5" font-family="Helvetica,sans-Serif" font-size="10.00">Set&lt; com.tomoparts.tomoBay.presenters.presenter</text>
<text text-anchor="middle" x="134.5" y="-172.5" font-family="Helvetica,sans-Serif" font-size="10.00">Actions.PresenterActionFactory.PresenterActions &gt;</text>
<polyline fill="none" stroke="#bfbfbf" points="0,-165.5 269,-165.5 "/>
<text text-anchor="middle" x="134.5" y="-153.5" font-family="Helvetica,sans-Serif" font-size="10.00"> </text>
<polyline fill="none" stroke="#bfbfbf" points="0,-146.5 269,-146.5 "/>
<text text-anchor="middle" x="134.5" y="-134.5" font-family="Helvetica,sans-Serif" font-size="10.00"> </text>
</g>
<!-- Node2&#45;&gt;Node1 -->
<g id="edge1" class="edge"><title>Node2&#45;&gt;Node1</title>
<path fill="none" stroke="#404040" d="M134.5,-127.213C134.5,-116.244 134.5,-103.784 134.5,-91.8137"/>
<polygon fill="none" stroke="#404040" points="134.5,-91.5997 130.5,-85.5997 134.5,-79.5997 138.5,-85.5997 134.5,-91.5997"/>
<text text-anchor="middle" x="180" y="-101" font-family="Helvetica,sans-Serif" font-size="10.00"> &#45;allowedActions_M</text>
</g>
</g>
</svg>
