<?xml version="1.0" encoding="UTF-8" standalone="no"?>
<!DOCTYPE svg PUBLIC "-//W3C//DTD SVG 1.1//EN"
 "http://www.w3.org/Graphics/SVG/1.1/DTD/svg11.dtd">
<!-- Generated by graphviz version 2.38.0 (20140413.2041)
 -->
<!-- Title: SoapHeader Pages: 1 -->
<svg width="111pt" height="171pt"
 viewBox="0.00 0.00 110.50 171.00" xmlns="http://www.w3.org/2000/svg" xmlns:xlink="http://www.w3.org/1999/xlink">
<g id="graph0" class="graph" transform="scale(1 1) rotate(0) translate(4 167)">
<title>SoapHeader</title>
<polygon fill="white" stroke="none" points="-4,4 -4,-167 106.5,-167 106.5,4 -4,4"/>
<!-- Node1 -->
<g id="node1" class="node"><title>Node1</title>
<polygon fill="#bfbfbf" stroke="black" points="0,-0.5 0,-57.5 95,-57.5 95,-0.5 0,-0.5"/>
<text text-anchor="middle" x="47.5" y="-45.5" font-family="Helvetica,sans-Serif" font-size="10.00">SoapHeader</text>
<polyline fill="none" stroke="black" points="0,-38.5 95,-38.5 "/>
<text text-anchor="middle" x="47.5" y="-26.5" font-family="Helvetica,sans-Serif" font-size="10.00"> </text>
<polyline fill="none" stroke="black" points="0,-19.5 95,-19.5 "/>
<text text-anchor="start" x="8" y="-7.5" font-family="Helvetica,sans-Serif" font-size="10.00">+ SoapHeader()</text>
</g>
<!-- Node2 -->
<g id="node2" class="node"><title>Node2</title>
<polygon fill="white" stroke="#bfbfbf" points="8,-105.5 8,-162.5 87,-162.5 87,-105.5 8,-105.5"/>
<text text-anchor="middle" x="47.5" y="-150.5" font-family="Helvetica,sans-Serif" font-size="10.00">SOAPHeader</text>
<polyline fill="none" stroke="#bfbfbf" points="8,-143.5 87,-143.5 "/>
<text text-anchor="middle" x="47.5" y="-131.5" font-family="Helvetica,sans-Serif" font-size="10.00"> </text>
<polyline fill="none" stroke="#bfbfbf" points="8,-124.5 87,-124.5 "/>
<text text-anchor="middle" x="47.5" y="-112.5" font-family="Helvetica,sans-Serif" font-size="10.00"> </text>
</g>
<!-- Node2&#45;&gt;Node1 -->
<g id="edge1" class="edge"><title>Node2&#45;&gt;Node1</title>
<path fill="none" stroke="#404040" d="M47.5,-105.398C47.5,-94.5451 47.5,-81.8731 47.5,-70.0493"/>
<polygon fill="none" stroke="#404040" points="47.5001,-69.6783 43.5,-63.6783 47.5,-57.6783 51.5,-63.6783 47.5001,-69.6783"/>
<text text-anchor="middle" x="75" y="-79" font-family="Helvetica,sans-Serif" font-size="10.00"> &#45;header_M</text>
</g>
</g>
</svg>
