<?xml version="1.0" encoding="UTF-8" standalone="no"?>
<!DOCTYPE svg PUBLIC "-//W3C//DTD SVG 1.1//EN"
 "http://www.w3.org/Graphics/SVG/1.1/DTD/svg11.dtd">
<!-- Generated by graphviz version 2.38.0 (20140413.2041)
 -->
<!-- Title: SelectBrandByInv Pages: 1 -->
<!--zoomable 555 -->
<svg id="main" version="1.1" xmlns="http://www.w3.org/2000/svg" xmlns:xlink="http://www.w3.org/1999/xlink" xml:space="preserve" onload="init(evt)">
<style type="text/css"><![CDATA[
.edge:hover path { stroke: red; }
.edge:hover polygon { stroke: red; fill: red; }
]]></style>
<script type="text/javascript"><![CDATA[
var edges = document.getElementsByTagName('g');
if (edges && edges.length) {
  for (var i=0;i<edges.length;i++) {
    if (edges[i].id.substr(0,4)=='edge') {
      edges[i].setAttribute('class','edge');
    }
  }
}
]]></script>
        <defs>
                <circle id="rim" cx="0" cy="0" r="7"/>
                <circle id="rim2" cx="0" cy="0" r="3.5"/>
                <g id="zoomPlus">
                        <use xlink:href="#rim" fill="#404040">
                                <set attributeName="fill" to="#808080" begin="zoomplus.mouseover" end="zoomplus.mouseout"/>
                        </use>
                        <path d="M-4,0h8M0,-4v8" fill="none" stroke="white" stroke-width="1.5" pointer-events="none"/>
                </g>
                <g id="zoomMin">
                        <use xlink:href="#rim" fill="#404040">
                                <set attributeName="fill" to="#808080" begin="zoomminus.mouseover" end="zoomminus.mouseout"/>
                        </use>
                        <path d="M-4,0h8" fill="none" stroke="white" stroke-width="1.5" pointer-events="none"/>
                </g>
                <g id="dirArrow">
                        <path fill="none" stroke="white" stroke-width="1.5" d="M0,-3.0v7 M-2.5,-0.5L0,-3.0L2.5,-0.5"/>
                </g>
               <g id="resetDef">
                       <use xlink:href="#rim2" fill="#404040">
                               <set attributeName="fill" to="#808080" begin="reset.mouseover" end="reset.mouseout"/>
                       </use>
               </g>
        </defs>

<script type="text/javascript">
var viewWidth = 213;
var viewHeight = 555;
var sectionId = 'dynsection-1';
</script>
<script xlink:href="svgpan.js"/>
<svg id="graph" class="graph">
<g id="viewport">
<title>SelectBrandByInv</title>
<polygon fill="white" stroke="none" points="-4,4 -4,-551 208.5,-551 208.5,4 -4,4"/>
<!-- Node1 -->
<g id="node1" class="node"><title>Node1</title>
<polygon fill="#bfbfbf" stroke="black" points="31,-0.5 31,-90.5 150,-90.5 150,-0.5 31,-0.5"/>
<text text-anchor="middle" x="90.5" y="-78.5" font-family="Helvetica,sans-Serif" font-size="10.00">SelectBrandByInv</text>
<polyline fill="none" stroke="black" points="31,-71.5 150,-71.5 "/>
<text text-anchor="start" x="39" y="-59.5" font-family="Helvetica,sans-Serif" font-size="10.00">&#45; query</text>
<polyline fill="none" stroke="black" points="31,-52.5 150,-52.5 "/>
<text text-anchor="start" x="39" y="-40.5" font-family="Helvetica,sans-Serif" font-size="10.00">+ SelectBrandByInv()</text>
<text text-anchor="start" x="39" y="-29.5" font-family="Helvetica,sans-Serif" font-size="10.00"># format()</text>
<text text-anchor="start" x="39" y="-18.5" font-family="Helvetica,sans-Serif" font-size="10.00"># setParameters()</text>
<text text-anchor="start" x="39" y="-7.5" font-family="Helvetica,sans-Serif" font-size="10.00"># queryString()</text>
</g>
<!-- Node2 -->
<g id="node2" class="node"><title>Node2</title>
<g id="a_node2"><a xlink:href="classcom_1_1tomoparts_1_1tomoBay_1_1model_1_1sql_1_1framework_1_1queryTypes_1_1select_1_1AbstractSelectParamsQuery.html" target="_top" xlink:title="This class defines the abstract base for all Select queries that take parameters. ...">
<polygon fill="white" stroke="black" points="5,-128.5 5,-218.5 176,-218.5 176,-128.5 5,-128.5"/>
<text text-anchor="middle" x="90.5" y="-206.5" font-family="Helvetica,sans-Serif" font-size="10.00">AbstractSelectParamsQuery</text>
<polyline fill="none" stroke="black" points="5,-199.5 176,-199.5 "/>
<text text-anchor="middle" x="90.5" y="-187.5" font-family="Helvetica,sans-Serif" font-size="10.00"> </text>
<polyline fill="none" stroke="black" points="5,-180.5 176,-180.5 "/>
<text text-anchor="start" x="13" y="-168.5" font-family="Helvetica,sans-Serif" font-size="10.00">+ AbstractSelectParamsQuery()</text>
<text text-anchor="start" x="13" y="-157.5" font-family="Helvetica,sans-Serif" font-size="10.00">+ execute()</text>
<text text-anchor="start" x="13" y="-146.5" font-family="Helvetica,sans-Serif" font-size="10.00"># setParameters()</text>
<text text-anchor="start" x="13" y="-135.5" font-family="Helvetica,sans-Serif" font-size="10.00">&#45; initQuery()</text>
</a>
</g>
</g>
<!-- Node2&#45;&gt;Node1 -->
<g id="edge1" class="edge"><title>Node2&#45;&gt;Node1</title>
<path fill="none" stroke="midnightblue" d="M90.5,-118.226C90.5,-109.056 90.5,-99.6331 90.5,-90.7568"/>
<polygon fill="none" stroke="midnightblue" points="87.0001,-118.431 90.5,-128.431 94.0001,-118.431 87.0001,-118.431"/>
</g>
<!-- Node3 -->
<g id="node3" class="node"><title>Node3</title>
<g id="a_node3"><a xlink:href="classcom_1_1tomoparts_1_1tomoBay_1_1model_1_1sql_1_1framework_1_1queryTypes_1_1select_1_1AbstractSelectQuery.html" target="_top" xlink:title="{AbstractSelectQuery\n||+ AbstractSelectQuery()\l# format()\l}">
<polygon fill="white" stroke="black" points="23.5,-256.5 23.5,-324.5 157.5,-324.5 157.5,-256.5 23.5,-256.5"/>
<text text-anchor="middle" x="90.5" y="-312.5" font-family="Helvetica,sans-Serif" font-size="10.00">AbstractSelectQuery</text>
<polyline fill="none" stroke="black" points="23.5,-305.5 157.5,-305.5 "/>
<text text-anchor="middle" x="90.5" y="-293.5" font-family="Helvetica,sans-Serif" font-size="10.00"> </text>
<polyline fill="none" stroke="black" points="23.5,-286.5 157.5,-286.5 "/>
<text text-anchor="start" x="31.5" y="-274.5" font-family="Helvetica,sans-Serif" font-size="10.00">+ AbstractSelectQuery()</text>
<text text-anchor="start" x="31.5" y="-263.5" font-family="Helvetica,sans-Serif" font-size="10.00"># format()</text>
</a>
</g>
</g>
<!-- Node3&#45;&gt;Node2 -->
<g id="edge2" class="edge"><title>Node3&#45;&gt;Node2</title>
<path fill="none" stroke="midnightblue" d="M90.5,-246.055C90.5,-237.146 90.5,-227.757 90.5,-218.818"/>
<polygon fill="none" stroke="midnightblue" points="87.0001,-246.237 90.5,-256.237 94.0001,-246.237 87.0001,-246.237"/>
</g>
<!-- Node4 -->
<g id="node4" class="node"><title>Node4</title>
<g id="a_node4"><a xlink:href="classcom_1_1tomoparts_1_1tomoBay_1_1model_1_1sql_1_1framework_1_1queryTypes_1_1AbstractDBQuery.html" target="_top" xlink:title="Interface that all database queries must adhere to. ">
<polygon fill="white" stroke="black" points="40.5,-362.5 40.5,-441.5 140.5,-441.5 140.5,-362.5 40.5,-362.5"/>
<text text-anchor="middle" x="90.5" y="-429.5" font-family="Helvetica,sans-Serif" font-size="10.00">AbstractDBQuery</text>
<polyline fill="none" stroke="black" points="40.5,-422.5 140.5,-422.5 "/>
<text text-anchor="middle" x="90.5" y="-410.5" font-family="Helvetica,sans-Serif" font-size="10.00"> </text>
<polyline fill="none" stroke="black" points="40.5,-403.5 140.5,-403.5 "/>
<text text-anchor="start" x="48.5" y="-391.5" font-family="Helvetica,sans-Serif" font-size="10.00">+ statement()</text>
<text text-anchor="start" x="48.5" y="-380.5" font-family="Helvetica,sans-Serif" font-size="10.00"># queryString()</text>
<text text-anchor="start" x="48.5" y="-369.5" font-family="Helvetica,sans-Serif" font-size="10.00"># cleanup()</text>
</a>
</g>
</g>
<!-- Node4&#45;&gt;Node3 -->
<g id="edge3" class="edge"><title>Node4&#45;&gt;Node3</title>
<path fill="none" stroke="midnightblue" d="M90.5,-352.381C90.5,-343.016 90.5,-333.409 90.5,-324.674"/>
<polygon fill="none" stroke="midnightblue" points="87.0001,-352.394 90.5,-362.394 94.0001,-352.394 87.0001,-352.394"/>
</g>
<!-- Node5 -->
<g id="node5" class="node"><title>Node5</title>
<polygon fill="white" stroke="#bfbfbf" points="0,-489.5 0,-546.5 71,-546.5 71,-489.5 0,-489.5"/>
<text text-anchor="middle" x="35.5" y="-534.5" font-family="Helvetica,sans-Serif" font-size="10.00">Connection</text>
<polyline fill="none" stroke="#bfbfbf" points="0,-527.5 71,-527.5 "/>
<text text-anchor="middle" x="35.5" y="-515.5" font-family="Helvetica,sans-Serif" font-size="10.00"> </text>
<polyline fill="none" stroke="#bfbfbf" points="0,-508.5 71,-508.5 "/>
<text text-anchor="middle" x="35.5" y="-496.5" font-family="Helvetica,sans-Serif" font-size="10.00"> </text>
</g>
<!-- Node5&#45;&gt;Node4 -->
<g id="edge4" class="edge"><title>Node5&#45;&gt;Node4</title>
<path fill="none" stroke="#404040" d="M37.5838,-489.223C39.0189,-479.659 41.4353,-469.078 45.5,-460 46.7398,-457.231 48.1441,-454.479 49.671,-451.765"/>
<polygon fill="none" stroke="#404040" points="49.7101,-451.703 49.5049,-444.495 56.0796,-441.533 56.2849,-448.741 49.7101,-451.703"/>
<text text-anchor="middle" x="84.5" y="-463" font-family="Helvetica,sans-Serif" font-size="10.00"> #connection_M</text>
</g>
<!-- Node6 -->
<g id="node6" class="node"><title>Node6</title>
<polygon fill="white" stroke="#bfbfbf" points="89.5,-489.5 89.5,-546.5 201.5,-546.5 201.5,-489.5 89.5,-489.5"/>
<text text-anchor="middle" x="145.5" y="-534.5" font-family="Helvetica,sans-Serif" font-size="10.00">PreparedStatement</text>
<polyline fill="none" stroke="#bfbfbf" points="89.5,-527.5 201.5,-527.5 "/>
<text text-anchor="middle" x="145.5" y="-515.5" font-family="Helvetica,sans-Serif" font-size="10.00"> </text>
<polyline fill="none" stroke="#bfbfbf" points="89.5,-508.5 201.5,-508.5 "/>
<text text-anchor="middle" x="145.5" y="-496.5" font-family="Helvetica,sans-Serif" font-size="10.00"> </text>
</g>
<!-- Node6&#45;&gt;Node4 -->
<g id="edge5" class="edge"><title>Node6&#45;&gt;Node4</title>
<path fill="none" stroke="#404040" d="M135.834,-489.378C132.266,-479.926 127.989,-469.376 123.5,-460 122.271,-457.433 120.969,-454.826 119.619,-452.212"/>
<polygon fill="none" stroke="#404040" points="119.547,-452.077 113.185,-448.681 113.873,-441.503 120.235,-444.899 119.547,-452.077"/>
<text text-anchor="middle" x="166.5" y="-463" font-family="Helvetica,sans-Serif" font-size="10.00"> #statement_M</text>
</g>
</g>
</svg>
        <g id="navigator" transform="translate(0 0)" fill="#404254">
                <rect fill="#f2f5e9" fill-opacity="0.5" stroke="#606060" stroke-width=".5" x="0" y="0" width="60" height="60"/>
                <use id="zoomplus" xlink:href="#zoomPlus" x="17" y="9" onmousedown="handleZoom(evt,'in')"/>
                <use id="zoomminus" xlink:href="#zoomMin" x="42" y="9" onmousedown="handleZoom(evt,'out')"/>
                <use id="reset" xlink:href="#resetDef" x="30" y="36" onmousedown="handleReset()"/>
                <g id="arrowUp" xlink:href="#dirArrow" transform="translate(30 24)" onmousedown="handlePan(0,-1)">
                  <use xlink:href="#rim" fill="#404040">
                        <set attributeName="fill" to="#808080" begin="arrowUp.mouseover" end="arrowUp.mouseout"/>
                  </use>
                  <path fill="none" stroke="white" stroke-width="1.5" d="M0,-3.0v7 M-2.5,-0.5L0,-3.0L2.5,-0.5"/>
                </g>
                <g id="arrowRight" xlink:href="#dirArrow" transform="rotate(90) translate(36 -43)" onmousedown="handlePan(1,0)">
                  <use xlink:href="#rim" fill="#404040">
                        <set attributeName="fill" to="#808080" begin="arrowRight.mouseover" end="arrowRight.mouseout"/>
                  </use>
                  <path fill="none" stroke="white" stroke-width="1.5" d="M0,-3.0v7 M-2.5,-0.5L0,-3.0L2.5,-0.5"/>
                </g>
                <g id="arrowDown" xlink:href="#dirArrow" transform="rotate(180) translate(-30 -48)" onmousedown="handlePan(0,1)">
                  <use xlink:href="#rim" fill="#404040">
                        <set attributeName="fill" to="#808080" begin="arrowDown.mouseover" end="arrowDown.mouseout"/>
                  </use>
                  <path fill="none" stroke="white" stroke-width="1.5" d="M0,-3.0v7 M-2.5,-0.5L0,-3.0L2.5,-0.5"/>
                </g>
                <g id="arrowLeft" xlink:href="#dirArrow" transform="rotate(270) translate(-36 17)" onmousedown="handlePan(-1,0)">
                  <use xlink:href="#rim" fill="#404040">
                        <set attributeName="fill" to="#808080" begin="arrowLeft.mouseover" end="arrowLeft.mouseout"/>
                  </use>
                  <path fill="none" stroke="white" stroke-width="1.5" d="M0,-3.0v7 M-2.5,-0.5L0,-3.0L2.5,-0.5"/>
                </g>
        </g>
        <svg viewBox="0 0 15 15" width="100%" height="30px" preserveAspectRatio="xMaxYMin meet">
         <g id="arrow_out" transform="scale(0.3 0.3)">
          <a xlink:href="classcom_1_1tomoparts_1_1tomoBay_1_1model_1_1sql_1_1queries_1_1concreteQueries_1_1select_1_1parabbc9f92635355b9fbdf20ad78fd2c22f_org.svg" target="_base">
           <rect id="button" ry="5" rx="5" y="6" x="6" height="38" width="38"
                fill="#f2f5e9" fill-opacity="0.5" stroke="#606060" stroke-width="1.0"/>
           <path id="arrow"
             d="M 11.500037,31.436501 C 11.940474,20.09759 22.043105,11.32322 32.158766,21.979434 L 37.068811,17.246167 C 37.068811,17.246167 37.088388,32 37.088388,32 L 22.160133,31.978069 C 22.160133,31.978069 26.997745,27.140456 26.997745,27.140456 C 18.528582,18.264221 13.291696,25.230495 11.500037,31.436501 z"
             style="fill:#404040;"/>
          </a>
         </g>
        </svg>
</svg>
