<?xml version="1.0" encoding="UTF-8" standalone="no"?>
<!DOCTYPE svg PUBLIC "-//W3C//DTD SVG 1.1//EN"
 "http://www.w3.org/Graphics/SVG/1.1/DTD/svg11.dtd">
<!-- Generated by graphviz version 2.38.0 (20140413.2041)
 -->
<!-- Title: StandardInvoiceFactory Pages: 1 -->
<svg width="156pt" height="182pt"
 viewBox="0.00 0.00 156.00 182.00" xmlns="http://www.w3.org/2000/svg" xmlns:xlink="http://www.w3.org/1999/xlink">
<g id="graph0" class="graph" transform="scale(1 1) rotate(0) translate(4 178)">
<title>StandardInvoiceFactory</title>
<polygon fill="white" stroke="none" points="-4,4 -4,-178 152,-178 152,4 -4,4"/>
<!-- Node1 -->
<g id="node1" class="node"><title>Node1</title>
<polygon fill="#bfbfbf" stroke="black" points="0,-0.5 0,-68.5 148,-68.5 148,-0.5 0,-0.5"/>
<text text-anchor="middle" x="74" y="-56.5" font-family="Helvetica,sans-Serif" font-size="10.00">StandardInvoiceFactory</text>
<polyline fill="none" stroke="black" points="0,-49.5 148,-49.5 "/>
<text text-anchor="middle" x="74" y="-37.5" font-family="Helvetica,sans-Serif" font-size="10.00"> </text>
<polyline fill="none" stroke="black" points="0,-30.5 148,-30.5 "/>
<text text-anchor="start" x="8" y="-18.5" font-family="Helvetica,sans-Serif" font-size="10.00">+ StandardInvoiceFactory()</text>
<text text-anchor="start" x="8" y="-7.5" font-family="Helvetica,sans-Serif" font-size="10.00">+ make()</text>
</g>
<!-- Node2 -->
<g id="node2" class="node"><title>Node2</title>
<g id="a_node2"><a xlink:href="interfacecom_1_1tomoparts_1_1tomoBay_1_1model_1_1dataTypes_1_1financial_1_1SalesOrderDayBook_1_1a38f4d3f32912069bfc4d3f63627866d.html" target="_top" xlink:title="{AbstractSalesDayBookLine\lFactory\n||+ make()\l}">
<polygon fill="white" stroke="black" points="1,-105.5 1,-173.5 147,-173.5 147,-105.5 1,-105.5"/>
<text text-anchor="start" x="9" y="-161.5" font-family="Helvetica,sans-Serif" font-size="10.00">AbstractSalesDayBookLine</text>
<text text-anchor="middle" x="74" y="-150.5" font-family="Helvetica,sans-Serif" font-size="10.00">Factory</text>
<polyline fill="none" stroke="black" points="1,-143.5 147,-143.5 "/>
<text text-anchor="middle" x="74" y="-131.5" font-family="Helvetica,sans-Serif" font-size="10.00"> </text>
<polyline fill="none" stroke="black" points="1,-124.5 147,-124.5 "/>
<text text-anchor="start" x="9" y="-112.5" font-family="Helvetica,sans-Serif" font-size="10.00">+ make()</text>
</a>
</g>
</g>
<!-- Node2&#45;&gt;Node1 -->
<g id="edge1" class="edge"><title>Node2&#45;&gt;Node1</title>
<path fill="none" stroke="midnightblue" d="M74,-95.1362C74,-86.256 74,-77.0447 74,-68.5947"/>
<polygon fill="none" stroke="midnightblue" points="70.5001,-95.3432 74,-105.343 77.5001,-95.3432 70.5001,-95.3432"/>
</g>
</g>
</svg>
