<?xml version="1.0" encoding="UTF-8" standalone="no"?>
<!DOCTYPE svg PUBLIC "-//W3C//DTD SVG 1.1//EN"
 "http://www.w3.org/Graphics/SVG/1.1/DTD/svg11.dtd">
<!-- Generated by graphviz version 2.38.0 (20140413.2041)
 -->
<!-- Title: send Pages: 1 -->
<svg width="819pt" height="225pt"
 viewBox="0.00 0.00 819.00 225.00" xmlns="http://www.w3.org/2000/svg" xmlns:xlink="http://www.w3.org/1999/xlink">
<g id="graph0" class="graph" transform="scale(1 1) rotate(0) translate(4 221)">
<title>send</title>
<polygon fill="white" stroke="none" points="-4,4 -4,-221 815,-221 815,4 -4,4"/>
<!-- Node1 -->
<g id="node1" class="node"><title>Node1</title>
<polygon fill="#bfbfbf" stroke="black" points="0,-85 0,-104 40,-104 40,-85 0,-85"/>
<text text-anchor="middle" x="20" y="-92" font-family="Helvetica,sans-Serif" font-size="10.00">send</text>
</g>
<!-- Node2 -->
<g id="node2" class="node"><title>Node2</title>
<g id="a_node2"><a xlink:href="classcom_1_1tomoparts_1_1tomoBay_1_1helpers_1_1ConfigReader.html#a310420c6db22982498520c2ad7a2b82f" target="_top" xlink:title="find the value of the config variable specified in the arguments. ">
<polygon fill="white" stroke="black" points="97,-115.5 97,-145.5 276,-145.5 276,-115.5 97,-115.5"/>
<text text-anchor="start" x="105" y="-133.5" font-family="Helvetica,sans-Serif" font-size="10.00">com.tomoparts.tomoBay.helpers.</text>
<text text-anchor="middle" x="186.5" y="-122.5" font-family="Helvetica,sans-Serif" font-size="10.00">ConfigReader.getConf</text>
</a>
</g>
</g>
<!-- Node1&#45;&gt;Node2 -->
<g id="edge1" class="edge"><title>Node1&#45;&gt;Node2</title>
<path fill="none" stroke="midnightblue" d="M40.1922,-98.7001C56.8772,-102.352 82.2142,-107.896 107.083,-113.339"/>
<polygon fill="midnightblue" stroke="midnightblue" points="106.423,-116.777 116.94,-115.496 107.92,-109.939 106.423,-116.777"/>
</g>
<!-- Node6 -->
<g id="node6" class="node"><title>Node6</title>
<g id="a_node6"><a xlink:href="classcom_1_1tomoparts_1_1tomoBay_1_1model_1_1net_1_1email_1_1MailServerSend.html#ae0ea6b0d6bda14c2c1ea809ca187c4be" target="_top" xlink:title="this method sends the given email using the userID and password provided in the arguments ...">
<polygon fill="white" stroke="black" points="76,-44.5 76,-74.5 297,-74.5 297,-44.5 76,-44.5"/>
<text text-anchor="start" x="84" y="-62.5" font-family="Helvetica,sans-Serif" font-size="10.00">com.tomoparts.tomoBay.model.net.email.</text>
<text text-anchor="middle" x="186.5" y="-51.5" font-family="Helvetica,sans-Serif" font-size="10.00">MailServerSend.send</text>
</a>
</g>
</g>
<!-- Node1&#45;&gt;Node6 -->
<g id="edge5" class="edge"><title>Node1&#45;&gt;Node6</title>
<path fill="none" stroke="midnightblue" d="M40.1922,-90.4166C56.3564,-86.9774 80.6411,-81.8104 104.753,-76.6801"/>
<polygon fill="midnightblue" stroke="midnightblue" points="105.636,-80.0708 114.688,-74.5663 104.179,-73.2241 105.636,-80.0708"/>
</g>
<!-- Node3 -->
<g id="node3" class="node"><title>Node3</title>
<g id="a_node3"><a xlink:href="classcom_1_1tomoparts_1_1tomoBay_1_1helpers_1_1ConfigReader.html#ab69b4a3a0fc6a7c7440362b06ec4b4d3" target="_top" xlink:title="reads the whole config file into a string ">
<polygon fill="white" stroke="black" points="354,-186.5 354,-216.5 533,-216.5 533,-186.5 354,-186.5"/>
<text text-anchor="start" x="362" y="-204.5" font-family="Helvetica,sans-Serif" font-size="10.00">com.tomoparts.tomoBay.helpers.</text>
<text text-anchor="middle" x="443.5" y="-193.5" font-family="Helvetica,sans-Serif" font-size="10.00">ConfigReader.getConfig</text>
</a>
</g>
</g>
<!-- Node2&#45;&gt;Node3 -->
<g id="edge2" class="edge"><title>Node2&#45;&gt;Node3</title>
<path fill="none" stroke="midnightblue" d="M230.466,-145.587C259.264,-155.4 298.15,-168.076 333,-177.5 341.463,-179.789 350.338,-182.015 359.218,-184.13"/>
<polygon fill="midnightblue" stroke="midnightblue" points="358.69,-187.601 369.225,-186.468 360.283,-180.784 358.69,-187.601"/>
</g>
<!-- Node4 -->
<g id="node4" class="node"><title>Node4</title>
<g id="a_node4"><a xlink:href="enumcom_1_1tomoparts_1_1tomoBay_1_1helpers_1_1Config.html#a43cb99408ba4f337caad395ca67f9a6c" target="_top" xlink:title="return the string associated with the enum const ">
<polygon fill="white" stroke="black" points="354,-137.5 354,-167.5 533,-167.5 533,-137.5 354,-137.5"/>
<text text-anchor="start" x="362" y="-155.5" font-family="Helvetica,sans-Serif" font-size="10.00">com.tomoparts.tomoBay.helpers.</text>
<text text-anchor="middle" x="443.5" y="-144.5" font-family="Helvetica,sans-Serif" font-size="10.00">Config.getVar</text>
</a>
</g>
</g>
<!-- Node2&#45;&gt;Node4 -->
<g id="edge3" class="edge"><title>Node2&#45;&gt;Node4</title>
<path fill="none" stroke="midnightblue" d="M276.329,-138.164C298.142,-140.046 321.623,-142.071 343.867,-143.99"/>
<polygon fill="midnightblue" stroke="midnightblue" points="343.725,-147.491 353.989,-144.864 344.327,-140.517 343.725,-147.491"/>
</g>
<!-- Node5 -->
<g id="node5" class="node"><title>Node5</title>
<g id="a_node5"><a xlink:href="classcom_1_1tomoparts_1_1tomoBay_1_1helpers_1_1XMLParser.html#a9936151017dd4e908cf37d453b22c8ef" target="_top" xlink:title="parses an XML formatted string looking for the first tag specified in the parameters. ">
<polygon fill="white" stroke="black" points="354,-88.5 354,-118.5 533,-118.5 533,-88.5 354,-88.5"/>
<text text-anchor="start" x="362" y="-106.5" font-family="Helvetica,sans-Serif" font-size="10.00">com.tomoparts.tomoBay.helpers.</text>
<text text-anchor="middle" x="443.5" y="-95.5" font-family="Helvetica,sans-Serif" font-size="10.00">XMLParser.parse</text>
</a>
</g>
</g>
<!-- Node2&#45;&gt;Node5 -->
<g id="edge4" class="edge"><title>Node2&#45;&gt;Node5</title>
<path fill="none" stroke="midnightblue" d="M276.329,-121.095C298.142,-118.785 321.623,-116.299 343.867,-113.944"/>
<polygon fill="midnightblue" stroke="midnightblue" points="344.413,-117.405 353.989,-112.872 343.676,-110.444 344.413,-117.405"/>
</g>
<!-- Node7 -->
<g id="node7" class="node"><title>Node7</title>
<g id="a_node7"><a xlink:href="classcom_1_1tomoparts_1_1tomoBay_1_1model_1_1net_1_1email_1_1MailServerSend.html#ab5988b28fa18ed6b82ed54193ed21ccc" target="_top" xlink:title="creates a mail server session. ">
<polygon fill="white" stroke="black" points="590,-22.5 590,-52.5 811,-52.5 811,-22.5 590,-22.5"/>
<text text-anchor="start" x="598" y="-40.5" font-family="Helvetica,sans-Serif" font-size="10.00">com.tomoparts.tomoBay.model.net.email.</text>
<text text-anchor="middle" x="700.5" y="-29.5" font-family="Helvetica,sans-Serif" font-size="10.00">MailServerSend.createMailServerSession</text>
</a>
</g>
</g>
<!-- Node6&#45;&gt;Node7 -->
<g id="edge6" class="edge"><title>Node6&#45;&gt;Node7</title>
<path fill="none" stroke="midnightblue" d="M297.023,-54.7939C380.099,-51.2243 494.193,-46.3218 579.693,-42.6479"/>
<polygon fill="midnightblue" stroke="midnightblue" points="579.871,-46.1437 589.711,-42.2175 579.57,-39.1501 579.871,-46.1437"/>
</g>
<!-- Node8 -->
<g id="node8" class="node"><title>Node8</title>
<g id="a_node8"><a xlink:href="classcom_1_1tomoparts_1_1tomoBay_1_1model_1_1net_1_1email_1_1MailServerSend.html#ae07411f271807d3f10b7e4db187d4b3c" target="_top" xlink:title="generates a MimeMessage from the Email object ">
<polygon fill="white" stroke="black" points="333,-0.5 333,-30.5 554,-30.5 554,-0.5 333,-0.5"/>
<text text-anchor="start" x="341" y="-18.5" font-family="Helvetica,sans-Serif" font-size="10.00">com.tomoparts.tomoBay.model.net.email.</text>
<text text-anchor="middle" x="443.5" y="-7.5" font-family="Helvetica,sans-Serif" font-size="10.00">MailServerSend.generateMimeMessage</text>
</a>
</g>
</g>
<!-- Node6&#45;&gt;Node8 -->
<g id="edge7" class="edge"><title>Node6&#45;&gt;Node8</title>
<path fill="none" stroke="midnightblue" d="M274.543,-44.4808C297.394,-40.5379 322.178,-36.2614 345.514,-32.2349"/>
<polygon fill="midnightblue" stroke="midnightblue" points="346.157,-35.6757 355.416,-30.5262 344.967,-28.7776 346.157,-35.6757"/>
</g>
<!-- Node8&#45;&gt;Node7 -->
<g id="edge8" class="edge"><title>Node8&#45;&gt;Node7</title>
<path fill="none" stroke="midnightblue" d="M554.123,-24.9577C562.661,-25.6943 571.308,-26.4403 579.907,-27.1822"/>
<polygon fill="midnightblue" stroke="midnightblue" points="579.706,-30.6777 589.97,-28.0503 580.308,-23.7036 579.706,-30.6777"/>
</g>
</g>
</svg>
