<?xml version="1.0" encoding="UTF-8" standalone="no"?>
<!DOCTYPE svg PUBLIC "-//W3C//DTD SVG 1.1//EN"
 "http://www.w3.org/Graphics/SVG/1.1/DTD/svg11.dtd">
<!-- Generated by graphviz version 2.38.0 (20140413.2041)
 -->
<!-- Title: size Pages: 1 -->
<svg width="1046pt" height="252pt"
 viewBox="0.00 0.00 1046.00 251.50" xmlns="http://www.w3.org/2000/svg" xmlns:xlink="http://www.w3.org/1999/xlink">
<g id="graph0" class="graph" transform="scale(1 1) rotate(0) translate(4 247.5)">
<title>size</title>
<polygon fill="white" stroke="none" points="-4,4 -4,-247.5 1042,-247.5 1042,4 -4,4"/>
<!-- Node1 -->
<g id="node1" class="node"><title>Node1</title>
<polygon fill="#bfbfbf" stroke="black" points="1.13687e-13,-120.5 1.13687e-13,-139.5 35,-139.5 35,-120.5 1.13687e-13,-120.5"/>
<text text-anchor="middle" x="17.5" y="-127.5" font-family="Helvetica,sans-Serif" font-size="10.00">size</text>
</g>
<!-- Node2 -->
<g id="node2" class="node"><title>Node2</title>
<g id="a_node2"><a xlink:href="classcom_1_1tomoparts_1_1tomoBay_1_1presenters_1_1helpers_1_1pickeability_1_1ItemStockLevel.html#a22844faa947573bb01d9313f7bdb1e56" target="_top" xlink:title="Takes the list of items generated in this.assembleItemsList and checks a PartList associated with eac...">
<polygon fill="white" stroke="black" points="85,-213 85,-243 374,-243 374,-213 85,-213"/>
<text text-anchor="start" x="93" y="-231" font-family="Helvetica,sans-Serif" font-size="10.00">com.tomoparts.tomoBay.presenters.helpers.pickeability.</text>
<text text-anchor="middle" x="229.5" y="-220" font-family="Helvetica,sans-Serif" font-size="10.00">ItemStockLevel.checkStockLevelOfItems</text>
</a>
</g>
</g>
<!-- Node1&#45;&gt;Node2 -->
<g id="edge1" class="edge"><title>Node1&#45;&gt;Node2</title>
<path fill="none" stroke="midnightblue" d="M26.5118,-148.766C34.9423,-166.08 49.9277,-191.008 71,-204 76.4152,-207.339 82.1287,-210.271 88.0431,-212.843"/>
<polygon fill="midnightblue" stroke="midnightblue" points="29.6585,-147.231 22.309,-139.6 23.2954,-150.149 29.6585,-147.231"/>
</g>
<!-- Node5 -->
<g id="node5" class="node"><title>Node5</title>
<g id="a_node5"><a xlink:href="classcom_1_1tomoparts_1_1tomoBay_1_1model_1_1dataTypes_1_1order_1_1Listing.html#a08c9dd8979fc599a5710705156ea0b3e" target="_top" xlink:title="constructor, instantiates this listing based on the listingID provided (aka in the database as itemID...">
<polygon fill="white" stroke="black" points="132,-164 132,-194 327,-194 327,-164 132,-164"/>
<text text-anchor="start" x="140" y="-182" font-family="Helvetica,sans-Serif" font-size="10.00">com.tomoparts.tomoBay.model.data</text>
<text text-anchor="middle" x="229.5" y="-171" font-family="Helvetica,sans-Serif" font-size="10.00">Types.order.Listing.Listing</text>
</a>
</g>
</g>
<!-- Node1&#45;&gt;Node5 -->
<g id="edge4" class="edge"><title>Node1&#45;&gt;Node5</title>
<path fill="none" stroke="midnightblue" d="M43.9435,-143.959C52.3486,-148.065 61.8845,-152.202 71,-155 90.3025,-160.925 111.404,-165.422 131.708,-168.824"/>
<polygon fill="midnightblue" stroke="midnightblue" points="45.5158,-140.832 35.017,-139.408 42.3365,-147.068 45.5158,-140.832"/>
</g>
<!-- Node6 -->
<g id="node6" class="node"><title>Node6</title>
<g id="a_node6"><a xlink:href="classcom_1_1tomoparts_1_1tomoBay_1_1model_1_1royalMail_1_1SAAJTest.html#a8b260eecbaabcef8473fd87ada040682" target="_top" xlink:title="com.tomoparts.tomoBay.model.royal\lMail.SAAJTest.main">
<polygon fill="white" stroke="black" points="131,-115 131,-145 328,-145 328,-115 131,-115"/>
<text text-anchor="start" x="139" y="-133" font-family="Helvetica,sans-Serif" font-size="10.00">com.tomoparts.tomoBay.model.royal</text>
<text text-anchor="middle" x="229.5" y="-122" font-family="Helvetica,sans-Serif" font-size="10.00">Mail.SAAJTest.main</text>
</a>
</g>
</g>
<!-- Node1&#45;&gt;Node6 -->
<g id="edge5" class="edge"><title>Node1&#45;&gt;Node6</title>
<path fill="none" stroke="midnightblue" d="M45.4604,-130C67.3009,-130 99.4828,-130 130.795,-130"/>
<polygon fill="midnightblue" stroke="midnightblue" points="45.3302,-126.5 35.3302,-130 45.3302,-133.5 45.3302,-126.5"/>
</g>
<!-- Node7 -->
<g id="node7" class="node"><title>Node7</title>
<g id="a_node7"><a xlink:href="classcom_1_1tomoparts_1_1tomoBay_1_1presenters_1_1presenterActions_1_1concreteActions_1_1StockReOrderAnalysis.html#aa02134599fcce4d6b039274ae5b45b4c" target="_top" xlink:title="Takes the database data and processes it so that the composite part number provided by the database i...">
<polygon fill="white" stroke="black" points="71,-66 71,-96 388,-96 388,-66 71,-66"/>
<text text-anchor="start" x="79" y="-84" font-family="Helvetica,sans-Serif" font-size="10.00">com.tomoparts.tomoBay.presenters.presenter</text>
<text text-anchor="middle" x="229.5" y="-73" font-family="Helvetica,sans-Serif" font-size="10.00">Actions.concreteActions.StockReOrderAnalysis.processDBdata</text>
</a>
</g>
</g>
<!-- Node1&#45;&gt;Node7 -->
<g id="edge6" class="edge"><title>Node1&#45;&gt;Node7</title>
<path fill="none" stroke="midnightblue" d="M44.2788,-116.531C52.6206,-112.633 62.0352,-108.705 71,-106 83.8551,-102.12 97.4924,-98.8136 111.154,-96.0017"/>
<polygon fill="midnightblue" stroke="midnightblue" points="42.5273,-113.491 35.0703,-121.017 45.5931,-119.784 42.5273,-113.491"/>
</g>
<!-- Node12 -->
<g id="node12" class="node"><title>Node12</title>
<g id="a_node12"><a xlink:href="classcom_1_1tomoparts_1_1tomoBay_1_1model_1_1dataTypes_1_1PartList.html#a2ad1aa316f278b2e9fa8121504749652" target="_top" xlink:title="removes the part and quantity associated with a particular index in the PartList. ...">
<polygon fill="white" stroke="black" points="203,-27.5 203,-46.5 256,-46.5 256,-27.5 203,-27.5"/>
<text text-anchor="middle" x="229.5" y="-34.5" font-family="Helvetica,sans-Serif" font-size="10.00">remove</text>
</a>
</g>
</g>
<!-- Node1&#45;&gt;Node12 -->
<g id="edge11" class="edge"><title>Node1&#45;&gt;Node12</title>
<path fill="none" stroke="midnightblue" d="M26.5072,-111.367C34.9344,-94.1994 49.9175,-69.5463 71,-57 112.096,-32.5437 169.831,-32.0507 202.775,-34.2728"/>
<polygon fill="midnightblue" stroke="midnightblue" points="23.3223,-109.915 22.3064,-120.461 29.6772,-112.851 23.3223,-109.915"/>
</g>
<!-- Node3 -->
<g id="node3" class="node"><title>Node3</title>
<g id="a_node3"><a xlink:href="classcom_1_1tomoparts_1_1tomoBay_1_1presenters_1_1helpers_1_1pickeability_1_1ItemStockLevel.html#a1aed814db05c4991e9bc719f39ea62ce" target="_top" xlink:title="com.tomoparts.tomoBay.presenters.helpers.pickeability.\lItemStockLevel.check">
<polygon fill="white" stroke="black" points="424,-213 424,-243 713,-243 713,-213 424,-213"/>
<text text-anchor="start" x="432" y="-231" font-family="Helvetica,sans-Serif" font-size="10.00">com.tomoparts.tomoBay.presenters.helpers.pickeability.</text>
<text text-anchor="middle" x="568.5" y="-220" font-family="Helvetica,sans-Serif" font-size="10.00">ItemStockLevel.check</text>
</a>
</g>
</g>
<!-- Node2&#45;&gt;Node3 -->
<g id="edge2" class="edge"><title>Node2&#45;&gt;Node3</title>
<path fill="none" stroke="midnightblue" d="M384.405,-228C397.53,-228 410.775,-228 423.817,-228"/>
<polygon fill="midnightblue" stroke="midnightblue" points="384.396,-224.5 374.396,-228 384.396,-231.5 384.396,-224.5"/>
</g>
<!-- Node4 -->
<g id="node4" class="node"><title>Node4</title>
<g id="a_node4"><a xlink:href="classcom_1_1tomoparts_1_1tomoBay_1_1presenters_1_1helpers_1_1pickeability_1_1Pickeablity.html#ae05e03af15e33d53f9e0511ec0295a04" target="_top" xlink:title="default ctor ">
<polygon fill="white" stroke="black" points="749,-213 749,-243 1038,-243 1038,-213 749,-213"/>
<text text-anchor="start" x="757" y="-231" font-family="Helvetica,sans-Serif" font-size="10.00">com.tomoparts.tomoBay.presenters.helpers.pickeability.</text>
<text text-anchor="middle" x="893.5" y="-220" font-family="Helvetica,sans-Serif" font-size="10.00">Pickeablity.Pickeablity</text>
</a>
</g>
</g>
<!-- Node3&#45;&gt;Node4 -->
<g id="edge3" class="edge"><title>Node3&#45;&gt;Node4</title>
<path fill="none" stroke="midnightblue" d="M723.101,-228C731.677,-228 740.282,-228 748.821,-228"/>
<polygon fill="midnightblue" stroke="midnightblue" points="723.054,-224.5 713.054,-228 723.053,-231.5 723.054,-224.5"/>
</g>
<!-- Node8 -->
<g id="node8" class="node"><title>Node8</title>
<g id="a_node8"><a xlink:href="classcom_1_1tomoparts_1_1tomoBay_1_1presenters_1_1presenterActions_1_1concreteActions_1_1StockReOrderAnalysis.html#adb3dedf31dc2c7fc796f20406c235ccd" target="_top" xlink:title="performs the action specified ">
<polygon fill="white" stroke="black" points="428,-66 428,-96 709,-96 709,-66 428,-66"/>
<text text-anchor="start" x="436" y="-84" font-family="Helvetica,sans-Serif" font-size="10.00">com.tomoparts.tomoBay.presenters.presenter</text>
<text text-anchor="middle" x="568.5" y="-73" font-family="Helvetica,sans-Serif" font-size="10.00">Actions.concreteActions.StockReOrderAnalysis.execute</text>
</a>
</g>
</g>
<!-- Node7&#45;&gt;Node8 -->
<g id="edge7" class="edge"><title>Node7&#45;&gt;Node8</title>
<path fill="none" stroke="midnightblue" d="M398.427,-81C408.298,-81 418.173,-81 427.914,-81"/>
<polygon fill="midnightblue" stroke="midnightblue" points="398.146,-77.5001 388.146,-81 398.146,-84.5001 398.146,-77.5001"/>
</g>
<!-- Node9 -->
<g id="node9" class="node"><title>Node9</title>
<g id="a_node9"><a xlink:href="classcom_1_1tomoparts_1_1tomoBay_1_1test_1_1unit_1_1presenters_1_1presenterActions_1_1concreteAc8b0f5e9c382ebee7a7abf9009c33838e.html#a07b7831bd5f69df06f9ff2cce3661376" target="_top" xlink:title="com.tomoparts.tomoBay.test.unit.presenters.presenter\lActions.concreteActions.StockReOrderAnalysisTest.test\lExecuteBadData1">
<polygon fill="white" stroke="black" points="751.5,-120.5 751.5,-161.5 1035.5,-161.5 1035.5,-120.5 751.5,-120.5"/>
<text text-anchor="start" x="759.5" y="-149.5" font-family="Helvetica,sans-Serif" font-size="10.00">com.tomoparts.tomoBay.test.unit.presenters.presenter</text>
<text text-anchor="start" x="759.5" y="-138.5" font-family="Helvetica,sans-Serif" font-size="10.00">Actions.concreteActions.StockReOrderAnalysisTest.test</text>
<text text-anchor="middle" x="893.5" y="-127.5" font-family="Helvetica,sans-Serif" font-size="10.00">ExecuteBadData1</text>
</a>
</g>
</g>
<!-- Node8&#45;&gt;Node9 -->
<g id="edge8" class="edge"><title>Node8&#45;&gt;Node9</title>
<path fill="none" stroke="midnightblue" d="M660.554,-97.914C698.323,-104.93 742.485,-113.133 782.08,-120.489"/>
<polygon fill="midnightblue" stroke="midnightblue" points="661.061,-94.4484 650.59,-96.0631 659.782,-101.331 661.061,-94.4484"/>
</g>
<!-- Node10 -->
<g id="node10" class="node"><title>Node10</title>
<g id="a_node10"><a xlink:href="classcom_1_1tomoparts_1_1tomoBay_1_1test_1_1unit_1_1presenters_1_1presenterActions_1_1concreteAc8b0f5e9c382ebee7a7abf9009c33838e.html#a9fe5a553cc6d9ead3154faa3121e5bb9" target="_top" xlink:title="com.tomoparts.tomoBay.test.unit.presenters.presenter\lActions.concreteActions.StockReOrderAnalysisTest.test\lExecuteBadData2">
<polygon fill="white" stroke="black" points="751.5,-60.5 751.5,-101.5 1035.5,-101.5 1035.5,-60.5 751.5,-60.5"/>
<text text-anchor="start" x="759.5" y="-89.5" font-family="Helvetica,sans-Serif" font-size="10.00">com.tomoparts.tomoBay.test.unit.presenters.presenter</text>
<text text-anchor="start" x="759.5" y="-78.5" font-family="Helvetica,sans-Serif" font-size="10.00">Actions.concreteActions.StockReOrderAnalysisTest.test</text>
<text text-anchor="middle" x="893.5" y="-67.5" font-family="Helvetica,sans-Serif" font-size="10.00">ExecuteBadData2</text>
</a>
</g>
</g>
<!-- Node8&#45;&gt;Node10 -->
<g id="edge9" class="edge"><title>Node8&#45;&gt;Node10</title>
<path fill="none" stroke="midnightblue" d="M719.485,-81C730.141,-81 740.865,-81 751.47,-81"/>
<polygon fill="midnightblue" stroke="midnightblue" points="719.294,-77.5001 709.294,-81 719.294,-84.5001 719.294,-77.5001"/>
</g>
<!-- Node11 -->
<g id="node11" class="node"><title>Node11</title>
<g id="a_node11"><a xlink:href="classcom_1_1tomoparts_1_1tomoBay_1_1test_1_1unit_1_1presenters_1_1presenterActions_1_1concreteAc8b0f5e9c382ebee7a7abf9009c33838e.html#a523accba573f6d4c7f68fb358a0563cb" target="_top" xlink:title="com.tomoparts.tomoBay.test.unit.presenters.presenter\lActions.concreteActions.StockReOrderAnalysisTest.test\lExecuteBadData3">
<polygon fill="white" stroke="black" points="751.5,-0.5 751.5,-41.5 1035.5,-41.5 1035.5,-0.5 751.5,-0.5"/>
<text text-anchor="start" x="759.5" y="-29.5" font-family="Helvetica,sans-Serif" font-size="10.00">com.tomoparts.tomoBay.test.unit.presenters.presenter</text>
<text text-anchor="start" x="759.5" y="-18.5" font-family="Helvetica,sans-Serif" font-size="10.00">Actions.concreteActions.StockReOrderAnalysisTest.test</text>
<text text-anchor="middle" x="893.5" y="-7.5" font-family="Helvetica,sans-Serif" font-size="10.00">ExecuteBadData3</text>
</a>
</g>
</g>
<!-- Node8&#45;&gt;Node11 -->
<g id="edge10" class="edge"><title>Node8&#45;&gt;Node11</title>
<path fill="none" stroke="midnightblue" d="M660.554,-64.086C698.323,-57.0701 742.485,-48.8666 782.08,-41.5114"/>
<polygon fill="midnightblue" stroke="midnightblue" points="659.782,-60.6694 650.59,-65.9369 661.061,-67.5516 659.782,-60.6694"/>
</g>
</g>
</svg>
