<?xml version="1.0" encoding="UTF-8" standalone="no"?>
<!DOCTYPE svg PUBLIC "-//W3C//DTD SVG 1.1//EN"
 "http://www.w3.org/Graphics/SVG/1.1/DTD/svg11.dtd">
<!-- Generated by graphviz version 2.38.0 (20140413.2041)
 -->
<!-- Title: ItemSpecifics Pages: 1 -->
<svg width="531pt" height="214pt"
 viewBox="0.00 0.00 531.00 214.00" xmlns="http://www.w3.org/2000/svg" xmlns:xlink="http://www.w3.org/1999/xlink">
<g id="graph0" class="graph" transform="scale(1 1) rotate(0) translate(4 210)">
<title>ItemSpecifics</title>
<polygon fill="white" stroke="none" points="-4,4 -4,-210 527,-210 527,4 -4,4"/>
<!-- Node1 -->
<g id="node1" class="node"><title>Node1</title>
<polygon fill="#bfbfbf" stroke="black" points="0,-88 0,-107 80,-107 80,-88 0,-88"/>
<text text-anchor="middle" x="40" y="-95" font-family="Helvetica,sans-Serif" font-size="10.00">ItemSpecifics</text>
</g>
<!-- Node2 -->
<g id="node2" class="node"><title>Node2</title>
<g id="a_node2"><a xlink:href="classcom_1_1tomoparts_1_1tomoBay_1_1model_1_1eBayAPI_1_1EbayAccounts.html#ae9b99457a79c932468c153115ef964b0" target="_top" xlink:title="retrieve the ebay api key for the account name specified ">
<polygon fill="white" stroke="black" points="122.5,-175.5 122.5,-205.5 301.5,-205.5 301.5,-175.5 122.5,-175.5"/>
<text text-anchor="start" x="130.5" y="-193.5" font-family="Helvetica,sans-Serif" font-size="10.00">com.tomoparts.tomoBay.model.e</text>
<text text-anchor="middle" x="212" y="-182.5" font-family="Helvetica,sans-Serif" font-size="10.00">BayAPI.EbayAccounts.apiKey</text>
</a>
</g>
</g>
<!-- Node1&#45;&gt;Node2 -->
<g id="edge1" class="edge"><title>Node1&#45;&gt;Node2</title>
<path fill="none" stroke="midnightblue" d="M48.6648,-107.13C61.1459,-122.146 87.3619,-151.018 116,-166.5 119.437,-168.358 123.022,-170.076 126.701,-171.664"/>
<polygon fill="midnightblue" stroke="midnightblue" points="125.422,-174.922 136.008,-175.349 127.999,-168.413 125.422,-174.922"/>
</g>
<!-- Node3 -->
<g id="node3" class="node"><title>Node3</title>
<g id="a_node3"><a xlink:href="classcom_1_1tomoparts_1_1tomoBay_1_1model_1_1eBayAPI_1_1EbayAccounts.html#a263b122a1c598841624ba7d1e4a6c617" target="_top" xlink:title="convert an account ID to a textual name value. ">
<polygon fill="white" stroke="black" points="122.5,-126.5 122.5,-156.5 301.5,-156.5 301.5,-126.5 122.5,-126.5"/>
<text text-anchor="start" x="130.5" y="-144.5" font-family="Helvetica,sans-Serif" font-size="10.00">com.tomoparts.tomoBay.model.e</text>
<text text-anchor="middle" x="212" y="-133.5" font-family="Helvetica,sans-Serif" font-size="10.00">BayAPI.EbayAccounts.name</text>
</a>
</g>
</g>
<!-- Node1&#45;&gt;Node3 -->
<g id="edge2" class="edge"><title>Node1&#45;&gt;Node3</title>
<path fill="none" stroke="midnightblue" d="M77.8875,-107.047C96.942,-111.979 120.806,-118.156 143.047,-123.912"/>
<polygon fill="midnightblue" stroke="midnightblue" points="142.235,-127.317 152.793,-126.435 143.989,-120.541 142.235,-127.317"/>
</g>
<!-- Node5 -->
<g id="node5" class="node"><title>Node5</title>
<g id="a_node5"><a xlink:href="classcom_1_1tomoparts_1_1tomoBay_1_1model_1_1services_1_1reScanErrorsService_1_1ItemSpecifics.html#aa0f8769393398a5002b537727db0f751" target="_top" xlink:title="performs the API call and return an ItemType containing the item information requested, or if for some reason the call fails a null pointer is returned. ">
<polygon fill="white" stroke="black" points="169,-88 169,-107 255,-107 255,-88 169,-88"/>
<text text-anchor="middle" x="212" y="-95" font-family="Helvetica,sans-Serif" font-size="10.00">performAPIcall</text>
</a>
</g>
</g>
<!-- Node1&#45;&gt;Node5 -->
<g id="edge4" class="edge"><title>Node1&#45;&gt;Node5</title>
<path fill="none" stroke="midnightblue" d="M80.0014,-97.5C103.35,-97.5 133.325,-97.5 158.708,-97.5"/>
<polygon fill="midnightblue" stroke="midnightblue" points="158.908,-101 168.908,-97.5 158.908,-94.0001 158.908,-101"/>
</g>
<!-- Node7 -->
<g id="node7" class="node"><title>Node7</title>
<g id="a_node7"><a xlink:href="classcom_1_1tomoparts_1_1tomoBay_1_1model_1_1services_1_1reScanErrorsService_1_1ItemSpecifics.html#abe667d05d865afc7324c0f7438f5e2c4" target="_top" xlink:title="this method takes an ItemType as a parameter and uses it to iterate through the NameValueListType[] c...">
<polygon fill="white" stroke="black" points="172.5,-50 172.5,-69 251.5,-69 251.5,-50 172.5,-50"/>
<text text-anchor="middle" x="212" y="-57" font-family="Helvetica,sans-Serif" font-size="10.00">populateMap</text>
</a>
</g>
</g>
<!-- Node1&#45;&gt;Node7 -->
<g id="edge6" class="edge"><title>Node1&#45;&gt;Node7</title>
<path fill="none" stroke="midnightblue" d="M77.1509,-87.9474C89.4474,-84.8033 103.293,-81.3784 116,-78.5 130.928,-75.1187 147.247,-71.7404 162.082,-68.7904"/>
<polygon fill="midnightblue" stroke="midnightblue" points="162.944,-72.1878 172.08,-66.8217 161.592,-65.3197 162.944,-72.1878"/>
</g>
<!-- Node8 -->
<g id="node8" class="node"><title>Node8</title>
<g id="a_node8"><a xlink:href="classcom_1_1tomoparts_1_1tomoBay_1_1model_1_1eBayAPI_1_1EbayAccounts.html#a17d78d1b20882cd5986119af592d4f3d" target="_top" xlink:title="retrieve the ebay server address for the account name specified ">
<polygon fill="white" stroke="black" points="116,-0.5 116,-30.5 308,-30.5 308,-0.5 116,-0.5"/>
<text text-anchor="start" x="124" y="-18.5" font-family="Helvetica,sans-Serif" font-size="10.00">com.tomoparts.tomoBay.model.e</text>
<text text-anchor="middle" x="212" y="-7.5" font-family="Helvetica,sans-Serif" font-size="10.00">BayAPI.EbayAccounts.serverAddress</text>
</a>
</g>
</g>
<!-- Node1&#45;&gt;Node8 -->
<g id="edge7" class="edge"><title>Node1&#45;&gt;Node8</title>
<path fill="none" stroke="midnightblue" d="M50.815,-87.975C64.38,-75.3246 90.1268,-53.1132 116,-40.5 120.934,-38.0945 126.13,-35.8987 131.442,-33.8979"/>
<polygon fill="midnightblue" stroke="midnightblue" points="132.827,-37.1212 141.101,-30.5038 130.506,-30.5171 132.827,-37.1212"/>
</g>
<!-- Node4 -->
<g id="node4" class="node"><title>Node4</title>
<g id="a_node4"><a xlink:href="classcom_1_1tomoparts_1_1tomoBay_1_1model_1_1eBayAPI_1_1EbayAccounts.html#a137163c03f463ad5d9581aef47a9a3e4" target="_top" xlink:title="retrieve the id for the account name specified ">
<polygon fill="white" stroke="black" points="344,-128.5 344,-158.5 523,-158.5 523,-128.5 344,-128.5"/>
<text text-anchor="start" x="352" y="-146.5" font-family="Helvetica,sans-Serif" font-size="10.00">com.tomoparts.tomoBay.model.e</text>
<text text-anchor="middle" x="433.5" y="-135.5" font-family="Helvetica,sans-Serif" font-size="10.00">BayAPI.EbayAccounts.id</text>
</a>
</g>
</g>
<!-- Node3&#45;&gt;Node4 -->
<g id="edge3" class="edge"><title>Node3&#45;&gt;Node4</title>
<path fill="none" stroke="midnightblue" d="M301.646,-142.308C312.196,-142.404 323.016,-142.502 333.696,-142.6"/>
<polygon fill="midnightblue" stroke="midnightblue" points="333.848,-146.101 343.88,-142.693 333.912,-139.101 333.848,-146.101"/>
</g>
<!-- Node6 -->
<g id="node6" class="node"><title>Node6</title>
<g id="a_node6"><a xlink:href="classcom_1_1tomoparts_1_1tomoBay_1_1model_1_1eBayAPI_1_1ItemCall.html#a33a93e67cbad2090251fa506ebf4e3d5" target="_top" xlink:title="This method performs a call to the API grabbing a item data for the specified itemID. ">
<polygon fill="white" stroke="black" points="344,-79.5 344,-109.5 523,-109.5 523,-79.5 344,-79.5"/>
<text text-anchor="start" x="352" y="-97.5" font-family="Helvetica,sans-Serif" font-size="10.00">com.tomoparts.tomoBay.model.e</text>
<text text-anchor="middle" x="433.5" y="-86.5" font-family="Helvetica,sans-Serif" font-size="10.00">BayAPI.ItemCall.call</text>
</a>
</g>
</g>
<!-- Node5&#45;&gt;Node6 -->
<g id="edge5" class="edge"><title>Node5&#45;&gt;Node6</title>
<path fill="none" stroke="midnightblue" d="M255.062,-96.9251C277.457,-96.619 306.022,-96.2286 333.655,-95.851"/>
<polygon fill="midnightblue" stroke="midnightblue" points="333.83,-99.349 343.781,-95.7126 333.734,-92.3496 333.83,-99.349"/>
</g>
</g>
</svg>
