<?xml version="1.0" encoding="UTF-8" standalone="no"?>
<!DOCTYPE svg PUBLIC "-//W3C//DTD SVG 1.1//EN"
 "http://www.w3.org/Graphics/SVG/1.1/DTD/svg11.dtd">
<!-- Generated by graphviz version 2.38.0 (20140413.2041)
 -->
<!-- Title: summaryInfo Pages: 1 -->
<svg width="1060pt" height="622pt"
 viewBox="0.00 0.00 1060.00 622.00" xmlns="http://www.w3.org/2000/svg" xmlns:xlink="http://www.w3.org/1999/xlink">
<g id="graph0" class="graph" transform="scale(1 1) rotate(0) translate(4 618)">
<title>summaryInfo</title>
<polygon fill="white" stroke="none" points="-4,4 -4,-618 1056,-618 1056,4 -4,4"/>
<!-- Node1 -->
<g id="node1" class="node"><title>Node1</title>
<polygon fill="#bfbfbf" stroke="black" points="0,-274 0,-293 80,-293 80,-274 0,-274"/>
<text text-anchor="middle" x="40" y="-281" font-family="Helvetica,sans-Serif" font-size="10.00">summaryInfo</text>
</g>
<!-- Node2 -->
<g id="node2" class="node"><title>Node2</title>
<g id="a_node2"><a xlink:href="classcom_1_1tomoparts_1_1tomoBay_1_1model_1_1dataTypes_1_1order_1_1Order.html#af1b2ba6868fd8d054a2c7f40f8a8b6e0" target="_top" xlink:title="retrieve the account that this order is associated with ">
<polygon fill="white" stroke="black" points="129,-547.5 129,-577.5 324,-577.5 324,-547.5 129,-547.5"/>
<text text-anchor="start" x="137" y="-565.5" font-family="Helvetica,sans-Serif" font-size="10.00">com.tomoparts.tomoBay.model.data</text>
<text text-anchor="middle" x="226.5" y="-554.5" font-family="Helvetica,sans-Serif" font-size="10.00">Types.order.Order.account</text>
</a>
</g>
</g>
<!-- Node1&#45;&gt;Node2 -->
<g id="edge1" class="edge"><title>Node1&#45;&gt;Node2</title>
<path fill="none" stroke="midnightblue" d="M40.6265,-293.103C39.7238,-330.708 41.7358,-469.28 116,-538.5 117.468,-539.868 118.996,-541.166 120.575,-542.395"/>
<polygon fill="midnightblue" stroke="midnightblue" points="118.629,-545.304 128.877,-547.993 122.543,-539.5 118.629,-545.304"/>
</g>
<!-- Node7 -->
<g id="node7" class="node"><title>Node7</title>
<g id="a_node7"><a xlink:href="classcom_1_1tomoparts_1_1tomoBay_1_1model_1_1dataTypes_1_1json_1_1JSONentity.html#afead82af115042a64d2604ec5f508f45" target="_top" xlink:title="A leaf node is simply a key value pair. ">
<polygon fill="white" stroke="black" points="129,-498.5 129,-528.5 324,-528.5 324,-498.5 129,-498.5"/>
<text text-anchor="start" x="137" y="-516.5" font-family="Helvetica,sans-Serif" font-size="10.00">com.tomoparts.tomoBay.model.data</text>
<text text-anchor="middle" x="226.5" y="-505.5" font-family="Helvetica,sans-Serif" font-size="10.00">Types.json.JSONentity.addLeaf</text>
</a>
</g>
</g>
<!-- Node1&#45;&gt;Node7 -->
<g id="edge6" class="edge"><title>Node1&#45;&gt;Node7</title>
<path fill="none" stroke="midnightblue" d="M41.6233,-293.111C44.2356,-325.218 57.1073,-429.756 116,-483.5 120.186,-487.32 124.813,-490.66 129.728,-493.581"/>
<polygon fill="midnightblue" stroke="midnightblue" points="128.379,-496.826 138.856,-498.396 131.645,-490.634 128.379,-496.826"/>
</g>
<!-- Node9 -->
<g id="node9" class="node"><title>Node9</title>
<g id="a_node9"><a xlink:href="classcom_1_1tomoparts_1_1tomoBay_1_1model_1_1dataTypes_1_1order_1_1Order.html#af3f37e9085e3517cf3b87bf1a9e9aa9a" target="_top" xlink:title="retrieve the time at which this order was created ">
<polygon fill="white" stroke="black" points="373,-443.5 373,-473.5 568,-473.5 568,-443.5 373,-443.5"/>
<text text-anchor="start" x="381" y="-461.5" font-family="Helvetica,sans-Serif" font-size="10.00">com.tomoparts.tomoBay.model.data</text>
<text text-anchor="middle" x="470.5" y="-450.5" font-family="Helvetica,sans-Serif" font-size="10.00">Types.order.Order.createdTime</text>
</a>
</g>
</g>
<!-- Node1&#45;&gt;Node9 -->
<g id="edge8" class="edge"><title>Node1&#45;&gt;Node9</title>
<path fill="none" stroke="midnightblue" d="M41.9346,-293.24C45.3638,-322.914 60.1399,-412.426 116,-449.5 155.094,-475.447 273.537,-473.617 362.63,-467.93"/>
<polygon fill="midnightblue" stroke="midnightblue" points="363.048,-471.41 372.794,-467.257 362.585,-464.425 363.048,-471.41"/>
</g>
<!-- Node10 -->
<g id="node10" class="node"><title>Node10</title>
<g id="a_node10"><a xlink:href="classcom_1_1tomoparts_1_1tomoBay_1_1model_1_1dataTypes_1_1financial_1_1VAT.html#ac23e191d87387543f277a9c19345181f" target="_top" xlink:title="provides the value for VAT due on a particular value ">
<polygon fill="white" stroke="black" points="129,-410.5 129,-440.5 324,-440.5 324,-410.5 129,-410.5"/>
<text text-anchor="start" x="137" y="-428.5" font-family="Helvetica,sans-Serif" font-size="10.00">com.tomoparts.tomoBay.model.data</text>
<text text-anchor="middle" x="226.5" y="-417.5" font-family="Helvetica,sans-Serif" font-size="10.00">Types.financial.VAT.due</text>
</a>
</g>
</g>
<!-- Node1&#45;&gt;Node10 -->
<g id="edge10" class="edge"><title>Node1&#45;&gt;Node10</title>
<path fill="none" stroke="midnightblue" d="M44.2808,-293.181C52.4814,-315.831 76.1252,-372.476 116,-400.5 118.752,-402.434 121.63,-404.221 124.605,-405.872"/>
<polygon fill="midnightblue" stroke="midnightblue" points="123.278,-409.12 133.791,-410.427 126.388,-402.849 123.278,-409.12"/>
</g>
<!-- Node11 -->
<g id="node11" class="node"><title>Node11</title>
<g id="a_node11"><a xlink:href="classcom_1_1tomoparts_1_1tomoBay_1_1model_1_1dataTypes_1_1financial_1_1SalesOrderDayBook_1_1AbstractSalesDayBookLine.html#a2322342510367e536d54eb47f2c43512" target="_top" xlink:title="returns the invoice number of this invoice, if it exists. ">
<polygon fill="white" stroke="black" points="116,-350 116,-391 337,-391 337,-350 116,-350"/>
<text text-anchor="start" x="124" y="-379" font-family="Helvetica,sans-Serif" font-size="10.00">com.tomoparts.tomoBay.model.data</text>
<text text-anchor="start" x="124" y="-368" font-family="Helvetica,sans-Serif" font-size="10.00">Types.financial.SalesOrderDayBook.</text>
<text text-anchor="middle" x="226.5" y="-357" font-family="Helvetica,sans-Serif" font-size="10.00">AbstractSalesDayBookLine.invoiceNumber</text>
</a>
</g>
</g>
<!-- Node1&#45;&gt;Node11 -->
<g id="edge11" class="edge"><title>Node1&#45;&gt;Node11</title>
<path fill="none" stroke="midnightblue" d="M52.5251,-293.132C66.6929,-304.57 91.8383,-323.595 116,-335.5 124.086,-339.484 132.726,-343.152 141.475,-346.49"/>
<polygon fill="midnightblue" stroke="midnightblue" points="140.395,-349.822 150.989,-349.984 142.808,-343.251 140.395,-349.822"/>
</g>
<!-- Node13 -->
<g id="node13" class="node"><title>Node13</title>
<g id="a_node13"><a xlink:href="classcom_1_1tomoparts_1_1tomoBay_1_1model_1_1dataTypes_1_1financial_1_1SalesOrderDayBook_1_1AbstractSalesDayBookLine.html#afacf6217c7f58a049b532205066da488" target="_top" xlink:title="retrieve the order that this AbstractSalesDayBookLine refers to. ">
<polygon fill="white" stroke="black" points="373,-329 373,-370 568,-370 568,-329 373,-329"/>
<text text-anchor="start" x="381" y="-358" font-family="Helvetica,sans-Serif" font-size="10.00">com.tomoparts.tomoBay.model.data</text>
<text text-anchor="start" x="381" y="-347" font-family="Helvetica,sans-Serif" font-size="10.00">Types.financial.SalesOrderDayBook.</text>
<text text-anchor="middle" x="470.5" y="-336" font-family="Helvetica,sans-Serif" font-size="10.00">AbstractSalesDayBookLine.orderInfo</text>
</a>
</g>
</g>
<!-- Node1&#45;&gt;Node13 -->
<g id="edge17" class="edge"><title>Node1&#45;&gt;Node13</title>
<path fill="none" stroke="midnightblue" d="M75.1627,-293.043C87.9069,-296.368 102.546,-299.911 116,-302.5 198.283,-318.337 292.369,-330.566 362.779,-338.574"/>
<polygon fill="midnightblue" stroke="midnightblue" points="362.662,-342.083 372.991,-339.725 363.446,-335.127 362.662,-342.083"/>
</g>
<!-- Node14 -->
<g id="node14" class="node"><title>Node14</title>
<g id="a_node14"><a xlink:href="classcom_1_1tomoparts_1_1tomoBay_1_1model_1_1dataTypes_1_1order_1_1Order.html#ab745ca2c180765a4cb8792a60edd5dc7" target="_top" xlink:title="The order ID is a string(numerical) that uniquely identifies this order from all others. ">
<polygon fill="white" stroke="black" points="373,-279.5 373,-309.5 568,-309.5 568,-279.5 373,-279.5"/>
<text text-anchor="start" x="381" y="-297.5" font-family="Helvetica,sans-Serif" font-size="10.00">com.tomoparts.tomoBay.model.data</text>
<text text-anchor="middle" x="470.5" y="-286.5" font-family="Helvetica,sans-Serif" font-size="10.00">Types.order.Order.orderID</text>
</a>
</g>
</g>
<!-- Node1&#45;&gt;Node14 -->
<g id="edge15" class="edge"><title>Node1&#45;&gt;Node14</title>
<path fill="none" stroke="midnightblue" d="M80.1625,-284.505C143.588,-286.134 270.926,-289.402 362.731,-291.759"/>
<polygon fill="midnightblue" stroke="midnightblue" points="362.814,-295.262 372.901,-292.02 362.994,-288.265 362.814,-295.262"/>
</g>
<!-- Node15 -->
<g id="node15" class="node"><title>Node15</title>
<g id="a_node15"><a xlink:href="classcom_1_1tomoparts_1_1tomoBay_1_1model_1_1dataTypes_1_1order_1_1Order.html#a828ca20853400d5a09e3a6a48b6659d1" target="_top" xlink:title="retrieve the sales record number associated with this order ">
<polygon fill="white" stroke="black" points="373,-230.5 373,-260.5 568,-260.5 568,-230.5 373,-230.5"/>
<text text-anchor="start" x="381" y="-248.5" font-family="Helvetica,sans-Serif" font-size="10.00">com.tomoparts.tomoBay.model.data</text>
<text text-anchor="middle" x="470.5" y="-237.5" font-family="Helvetica,sans-Serif" font-size="10.00">Types.order.Order.salesRecNo</text>
</a>
</g>
</g>
<!-- Node1&#45;&gt;Node15 -->
<g id="edge18" class="edge"><title>Node1&#45;&gt;Node15</title>
<path fill="none" stroke="midnightblue" d="M80.1625,-280.027C143.588,-274.402 270.926,-263.11 362.731,-254.968"/>
<polygon fill="midnightblue" stroke="midnightblue" points="363.249,-258.436 372.901,-254.067 362.631,-251.464 363.249,-258.436"/>
</g>
<!-- Node16 -->
<g id="node16" class="node"><title>Node16</title>
<g id="a_node16"><a xlink:href="classcom_1_1tomoparts_1_1tomoBay_1_1model_1_1dataTypes_1_1order_1_1Order.html#a4c5c37e55b25b6dd3a7ef8695deca2eb" target="_top" xlink:title="retrieve the shipping type used for this order as a string ">
<polygon fill="white" stroke="black" points="129,-186.5 129,-216.5 324,-216.5 324,-186.5 129,-186.5"/>
<text text-anchor="start" x="137" y="-204.5" font-family="Helvetica,sans-Serif" font-size="10.00">com.tomoparts.tomoBay.model.data</text>
<text text-anchor="middle" x="226.5" y="-193.5" font-family="Helvetica,sans-Serif" font-size="10.00">Types.order.Order.shippingType</text>
</a>
</g>
</g>
<!-- Node1&#45;&gt;Node16 -->
<g id="edge20" class="edge"><title>Node1&#45;&gt;Node16</title>
<path fill="none" stroke="midnightblue" d="M52.4424,-273.696C66.5287,-262.087 91.5939,-242.895 116,-231.5 125.709,-226.967 136.231,-223.006 146.785,-219.579"/>
<polygon fill="midnightblue" stroke="midnightblue" points="147.946,-222.884 156.463,-216.581 145.875,-216.197 147.946,-222.884"/>
</g>
<!-- Node17 -->
<g id="node17" class="node"><title>Node17</title>
<g id="a_node17"><a xlink:href="classcom_1_1tomoparts_1_1tomoBay_1_1model_1_1dataTypes_1_1financial_1_1VAT.html#a9dfd34f223ef659c7eaa29ffc0f06b02" target="_top" xlink:title="subtract vat to the value provided as argument ">
<polygon fill="white" stroke="black" points="129,-137.5 129,-167.5 324,-167.5 324,-137.5 129,-137.5"/>
<text text-anchor="start" x="137" y="-155.5" font-family="Helvetica,sans-Serif" font-size="10.00">com.tomoparts.tomoBay.model.data</text>
<text text-anchor="middle" x="226.5" y="-144.5" font-family="Helvetica,sans-Serif" font-size="10.00">Types.financial.VAT.subtract</text>
</a>
</g>
</g>
<!-- Node1&#45;&gt;Node17 -->
<g id="edge22" class="edge"><title>Node1&#45;&gt;Node17</title>
<path fill="none" stroke="midnightblue" d="M44.7757,-273.99C53.7033,-252.812 78.2393,-201.652 116,-176.5 118.43,-174.882 120.95,-173.371 123.543,-171.96"/>
<polygon fill="midnightblue" stroke="midnightblue" points="125.156,-175.068 132.61,-167.539 122.088,-168.776 125.156,-175.068"/>
</g>
<!-- Node18 -->
<g id="node18" class="node"><title>Node18</title>
<g id="a_node18"><a xlink:href="classcom_1_1tomoparts_1_1tomoBay_1_1model_1_1dataTypes_1_1financial_1_1GBP.html#a4869bc1854b4c53820b934c48bc7d868" target="_top" xlink:title="converts the given amount of pound into pennies (rounding down in the process) ">
<polygon fill="white" stroke="black" points="129,-88.5 129,-118.5 324,-118.5 324,-88.5 129,-88.5"/>
<text text-anchor="start" x="137" y="-106.5" font-family="Helvetica,sans-Serif" font-size="10.00">com.tomoparts.tomoBay.model.data</text>
<text text-anchor="middle" x="226.5" y="-95.5" font-family="Helvetica,sans-Serif" font-size="10.00">Types.financial.GBP.toPennies</text>
</a>
</g>
</g>
<!-- Node1&#45;&gt;Node18 -->
<g id="edge23" class="edge"><title>Node1&#45;&gt;Node18</title>
<path fill="none" stroke="midnightblue" d="M42.6002,-273.992C47.7442,-246.544 66.5047,-166.649 116,-127.5 117.631,-126.21 119.317,-124.985 121.051,-123.823"/>
<polygon fill="midnightblue" stroke="midnightblue" points="123.226,-126.605 130.076,-118.522 119.681,-120.569 123.226,-126.605"/>
</g>
<!-- Node19 -->
<g id="node19" class="node"><title>Node19</title>
<g id="a_node19"><a xlink:href="classcom_1_1tomoparts_1_1tomoBay_1_1model_1_1dataTypes_1_1financial_1_1GBP.html#ab1488ca02aec4338b86ca2ab9691627f" target="_top" xlink:title="converts the given integer to a string representing the number of pennies ">
<polygon fill="white" stroke="black" points="373,-66.5 373,-96.5 568,-96.5 568,-66.5 373,-66.5"/>
<text text-anchor="start" x="381" y="-84.5" font-family="Helvetica,sans-Serif" font-size="10.00">com.tomoparts.tomoBay.model.data</text>
<text text-anchor="middle" x="470.5" y="-73.5" font-family="Helvetica,sans-Serif" font-size="10.00">Types.financial.GBP.toString</text>
</a>
</g>
</g>
<!-- Node1&#45;&gt;Node19 -->
<g id="edge25" class="edge"><title>Node1&#45;&gt;Node19</title>
<path fill="none" stroke="midnightblue" d="M40.9985,-273.957C41.5738,-240.152 48.596,-125.613 116,-78.5 154.507,-51.5845 273.389,-57.9354 362.737,-67.3895"/>
<polygon fill="midnightblue" stroke="midnightblue" points="362.61,-70.8962 372.929,-68.4947 363.365,-63.937 362.61,-70.8962"/>
</g>
<!-- Node20 -->
<g id="node20" class="node"><title>Node20</title>
<g id="a_node20"><a xlink:href="classcom_1_1tomoparts_1_1tomoBay_1_1model_1_1dataTypes_1_1order_1_1Order.html#abbc5ea6a986dd37b7239d4c859db9f2b" target="_top" xlink:title="retrieve the total price associated with this order, i.e. ">
<polygon fill="white" stroke="black" points="129,-0.5 129,-30.5 324,-30.5 324,-0.5 129,-0.5"/>
<text text-anchor="start" x="137" y="-18.5" font-family="Helvetica,sans-Serif" font-size="10.00">com.tomoparts.tomoBay.model.data</text>
<text text-anchor="middle" x="226.5" y="-7.5" font-family="Helvetica,sans-Serif" font-size="10.00">Types.order.Order.totalPrice</text>
</a>
</g>
</g>
<!-- Node1&#45;&gt;Node20 -->
<g id="edge26" class="edge"><title>Node1&#45;&gt;Node20</title>
<path fill="none" stroke="midnightblue" d="M40.9699,-273.655C41.4156,-237.535 47.9664,-111.005 116,-45.5 119.994,-41.6549 124.431,-38.2926 129.167,-35.3534"/>
<polygon fill="midnightblue" stroke="midnightblue" points="130.906,-38.3916 137.983,-30.5069 127.534,-32.2574 130.906,-38.3916"/>
</g>
<!-- Node3 -->
<g id="node3" class="node"><title>Node3</title>
<g id="a_node3"><a xlink:href="classcom_1_1tomoparts_1_1tomoBay_1_1model_1_1dataTypes_1_1heteroTypeContainer_1_1HeteroFieldContainer.html#a988363ab964d6dc0ccb8560bef5895b6" target="_top" xlink:title="retrieve the the value of an AbstractField from this HeteroFieldContainer, the field should be of the...">
<polygon fill="white" stroke="black" points="604,-274 604,-315 810,-315 810,-274 604,-274"/>
<text text-anchor="start" x="612" y="-303" font-family="Helvetica,sans-Serif" font-size="10.00">com.tomoparts.tomoBay.model.data</text>
<text text-anchor="start" x="612" y="-292" font-family="Helvetica,sans-Serif" font-size="10.00">Types.heteroTypeContainer.HeteroField</text>
<text text-anchor="middle" x="707" y="-281" font-family="Helvetica,sans-Serif" font-size="10.00">Container.get</text>
</a>
</g>
</g>
<!-- Node2&#45;&gt;Node3 -->
<g id="edge2" class="edge"><title>Node2&#45;&gt;Node3</title>
<path fill="none" stroke="midnightblue" d="M324.067,-564.693C410.282,-564.902 528.808,-560.342 568,-535.5 645.119,-486.618 683.658,-378.175 698.494,-325.041"/>
<polygon fill="midnightblue" stroke="midnightblue" points="701.928,-325.752 701.15,-315.186 695.169,-323.931 701.928,-325.752"/>
</g>
<!-- Node5 -->
<g id="node5" class="node"><title>Node5</title>
<g id="a_node5"><a xlink:href="classcom_1_1tomoparts_1_1tomoBay_1_1model_1_1eBayAPI_1_1EbayAccounts.html#a263b122a1c598841624ba7d1e4a6c617" target="_top" xlink:title="convert an account ID to a textual name value. ">
<polygon fill="white" stroke="black" points="381,-583.5 381,-613.5 560,-613.5 560,-583.5 381,-583.5"/>
<text text-anchor="start" x="389" y="-601.5" font-family="Helvetica,sans-Serif" font-size="10.00">com.tomoparts.tomoBay.model.e</text>
<text text-anchor="middle" x="470.5" y="-590.5" font-family="Helvetica,sans-Serif" font-size="10.00">BayAPI.EbayAccounts.name</text>
</a>
</g>
</g>
<!-- Node2&#45;&gt;Node5 -->
<g id="edge4" class="edge"><title>Node2&#45;&gt;Node5</title>
<path fill="none" stroke="midnightblue" d="M324.188,-576.883C339.524,-579.165 355.403,-581.527 370.784,-583.815"/>
<polygon fill="midnightblue" stroke="midnightblue" points="370.403,-587.297 380.809,-585.306 371.433,-580.373 370.403,-587.297"/>
</g>
<!-- Node4 -->
<g id="node4" class="node"><title>Node4</title>
<g id="a_node4"><a xlink:href="classcom_1_1tomoparts_1_1tomoBay_1_1model_1_1dataTypes_1_1heteroTypeContainer_1_1HeteroFieldContainer.html#a9dee3c01eb5ab16203e1c6820a569484" target="_top" xlink:title="performs a type check, assuming that field and type are of the same type then this method returns tru...">
<polygon fill="white" stroke="black" points="846,-274 846,-315 1052,-315 1052,-274 846,-274"/>
<text text-anchor="start" x="854" y="-303" font-family="Helvetica,sans-Serif" font-size="10.00">com.tomoparts.tomoBay.model.data</text>
<text text-anchor="start" x="854" y="-292" font-family="Helvetica,sans-Serif" font-size="10.00">Types.heteroTypeContainer.HeteroField</text>
<text text-anchor="middle" x="949" y="-281" font-family="Helvetica,sans-Serif" font-size="10.00">Container.isSameType</text>
</a>
</g>
</g>
<!-- Node3&#45;&gt;Node4 -->
<g id="edge3" class="edge"><title>Node3&#45;&gt;Node4</title>
<path fill="none" stroke="midnightblue" d="M810.13,-294.5C818.658,-294.5 827.309,-294.5 835.906,-294.5"/>
<polygon fill="midnightblue" stroke="midnightblue" points="835.962,-298 845.962,-294.5 835.962,-291 835.962,-298"/>
</g>
<!-- Node6 -->
<g id="node6" class="node"><title>Node6</title>
<g id="a_node6"><a xlink:href="classcom_1_1tomoparts_1_1tomoBay_1_1model_1_1eBayAPI_1_1EbayAccounts.html#a137163c03f463ad5d9581aef47a9a3e4" target="_top" xlink:title="retrieve the id for the account name specified ">
<polygon fill="white" stroke="black" points="617.5,-583.5 617.5,-613.5 796.5,-613.5 796.5,-583.5 617.5,-583.5"/>
<text text-anchor="start" x="625.5" y="-601.5" font-family="Helvetica,sans-Serif" font-size="10.00">com.tomoparts.tomoBay.model.e</text>
<text text-anchor="middle" x="707" y="-590.5" font-family="Helvetica,sans-Serif" font-size="10.00">BayAPI.EbayAccounts.id</text>
</a>
</g>
</g>
<!-- Node5&#45;&gt;Node6 -->
<g id="edge5" class="edge"><title>Node5&#45;&gt;Node6</title>
<path fill="none" stroke="midnightblue" d="M560.154,-598.5C575.475,-598.5 591.49,-598.5 607.062,-598.5"/>
<polygon fill="midnightblue" stroke="midnightblue" points="607.22,-602 617.22,-598.5 607.22,-595 607.22,-602"/>
</g>
<!-- Node8 -->
<g id="node8" class="node"><title>Node8</title>
<g id="a_node8"><a xlink:href="classcom_1_1tomoparts_1_1tomoBay_1_1model_1_1dataTypes_1_1DualList.html#ac6c5d11a7054f49bb7c9489f5893daeb" target="_top" xlink:title="add a value pair to the DualList ">
<polygon fill="white" stroke="black" points="373,-495.5 373,-525.5 568,-525.5 568,-495.5 373,-495.5"/>
<text text-anchor="start" x="381" y="-513.5" font-family="Helvetica,sans-Serif" font-size="10.00">com.tomoparts.tomoBay.model.data</text>
<text text-anchor="middle" x="470.5" y="-502.5" font-family="Helvetica,sans-Serif" font-size="10.00">Types.DualList.put</text>
</a>
</g>
</g>
<!-- Node7&#45;&gt;Node8 -->
<g id="edge7" class="edge"><title>Node7&#45;&gt;Node8</title>
<path fill="none" stroke="midnightblue" d="M324.188,-512.301C336.862,-512.144 349.907,-511.983 362.735,-511.824"/>
<polygon fill="midnightblue" stroke="midnightblue" points="363.01,-515.32 372.965,-511.697 362.923,-508.321 363.01,-515.32"/>
</g>
<!-- Node9&#45;&gt;Node3 -->
<g id="edge9" class="edge"><title>Node9&#45;&gt;Node3</title>
<path fill="none" stroke="midnightblue" d="M534.851,-443.495C546.297,-439.493 557.819,-434.548 568,-428.5 614.975,-400.593 658.275,-353.621 683.409,-323.354"/>
<polygon fill="midnightblue" stroke="midnightblue" points="686.383,-325.246 690.004,-315.29 680.964,-320.815 686.383,-325.246"/>
</g>
<!-- Node12 -->
<g id="node12" class="node"><title>Node12</title>
<g id="a_node12"><a xlink:href="classcom_1_1tomoparts_1_1tomoBay_1_1model_1_1dataTypes_1_1order_1_1Order.html#a71ffaf8494f38432864d46ea421343fc" target="_top" xlink:title="retrieve the invoice number from this order(if it has one) ">
<polygon fill="white" stroke="black" points="373,-389.5 373,-419.5 568,-419.5 568,-389.5 373,-389.5"/>
<text text-anchor="start" x="381" y="-407.5" font-family="Helvetica,sans-Serif" font-size="10.00">com.tomoparts.tomoBay.model.data</text>
<text text-anchor="middle" x="470.5" y="-396.5" font-family="Helvetica,sans-Serif" font-size="10.00">Types.order.Order.invoiceNo</text>
</a>
</g>
</g>
<!-- Node11&#45;&gt;Node12 -->
<g id="edge12" class="edge"><title>Node11&#45;&gt;Node12</title>
<path fill="none" stroke="midnightblue" d="M337.171,-385.908C345.71,-387.108 354.325,-388.318 362.844,-389.515"/>
<polygon fill="midnightblue" stroke="midnightblue" points="362.4,-392.987 372.79,-390.913 363.374,-386.055 362.4,-392.987"/>
</g>
<!-- Node11&#45;&gt;Node13 -->
<g id="edge14" class="edge"><title>Node11&#45;&gt;Node13</title>
<path fill="none" stroke="midnightblue" d="M337.171,-360.983C345.617,-360.25 354.138,-359.511 362.566,-358.779"/>
<polygon fill="midnightblue" stroke="midnightblue" points="363.13,-362.244 372.79,-357.892 362.525,-355.27 363.13,-362.244"/>
</g>
<!-- Node12&#45;&gt;Node3 -->
<g id="edge13" class="edge"><title>Node12&#45;&gt;Node3</title>
<path fill="none" stroke="midnightblue" d="M540.099,-389.444C549.623,-386.572 559.164,-383.265 568,-379.5 604.673,-363.875 643.018,-339.513 669.954,-320.869"/>
<polygon fill="midnightblue" stroke="midnightblue" points="672.1,-323.639 678.282,-315.035 668.084,-317.906 672.1,-323.639"/>
</g>
<!-- Node14&#45;&gt;Node3 -->
<g id="edge16" class="edge"><title>Node14&#45;&gt;Node3</title>
<path fill="none" stroke="midnightblue" d="M568.234,-294.5C576.667,-294.5 585.247,-294.5 593.79,-294.5"/>
<polygon fill="midnightblue" stroke="midnightblue" points="593.792,-298 603.792,-294.5 593.792,-291 593.792,-298"/>
</g>
<!-- Node15&#45;&gt;Node3 -->
<g id="edge19" class="edge"><title>Node15&#45;&gt;Node3</title>
<path fill="none" stroke="midnightblue" d="M543.451,-260.535C560.684,-264.135 579.459,-268.059 597.929,-271.918"/>
<polygon fill="midnightblue" stroke="midnightblue" points="597.342,-275.371 607.847,-273.99 598.774,-268.519 597.342,-275.371"/>
</g>
<!-- Node16&#45;&gt;Node3 -->
<g id="edge21" class="edge"><title>Node16&#45;&gt;Node3</title>
<path fill="none" stroke="midnightblue" d="M324.356,-195.861C393.512,-194.481 488.06,-198.033 568,-220.5 604.093,-230.644 641.348,-251.334 668.038,-268.264"/>
<polygon fill="midnightblue" stroke="midnightblue" points="666.369,-271.352 676.667,-273.84 670.168,-265.473 666.369,-271.352"/>
</g>
<!-- Node18&#45;&gt;Node19 -->
<g id="edge24" class="edge"><title>Node18&#45;&gt;Node19</title>
<path fill="none" stroke="midnightblue" d="M324.188,-94.7102C336.862,-93.558 349.907,-92.3721 362.735,-91.2059"/>
<polygon fill="midnightblue" stroke="midnightblue" points="363.323,-94.6669 372.965,-90.2759 362.69,-87.6957 363.323,-94.6669"/>
</g>
<!-- Node20&#45;&gt;Node3 -->
<g id="edge27" class="edge"><title>Node20&#45;&gt;Node3</title>
<path fill="none" stroke="midnightblue" d="M324.126,-5.11866C396.93,-2.20246 496.155,-9.16337 568,-56.5 643.344,-106.142 682.636,-212.116 698.057,-264.255"/>
<polygon fill="midnightblue" stroke="midnightblue" points="694.71,-265.281 700.827,-273.932 701.44,-263.355 694.71,-265.281"/>
</g>
</g>
</svg>
