<?xml version="1.0" encoding="UTF-8" standalone="no"?>
<!DOCTYPE svg PUBLIC "-//W3C//DTD SVG 1.1//EN"
 "http://www.w3.org/Graphics/SVG/1.1/DTD/svg11.dtd">
<!-- Generated by graphviz version 2.38.0 (20140413.2041)
 -->
<!-- Title: apiContext Pages: 1 -->
<svg width="300pt" height="198pt"
 viewBox="0.00 0.00 300.00 197.50" xmlns="http://www.w3.org/2000/svg" xmlns:xlink="http://www.w3.org/1999/xlink">
<g id="graph0" class="graph" transform="scale(1 1) rotate(0) translate(4 193.5)">
<title>apiContext</title>
<polygon fill="white" stroke="none" points="-4,4 -4,-193.5 296,-193.5 296,4 -4,4"/>
<!-- Node1 -->
<g id="node1" class="node"><title>Node1</title>
<polygon fill="#bfbfbf" stroke="black" points="0,-90.5 0,-109.5 68,-109.5 68,-90.5 0,-90.5"/>
<text text-anchor="middle" x="34" y="-97.5" font-family="Helvetica,sans-Serif" font-size="10.00">apiContext</text>
</g>
<!-- Node2 -->
<g id="node2" class="node"><title>Node2</title>
<g id="a_node2"><a xlink:href="classcom_1_1tomoparts_1_1tomoBay_1_1model_1_1eBayAPI_1_1ItemCall.html#aef124cf009a0c8fc805291107eb3fe4c" target="_top" xlink:title="constructor, calls superconstructor and initialises with api key and server string ...">
<polygon fill="white" stroke="black" points="108.5,-159 108.5,-189 287.5,-189 287.5,-159 108.5,-159"/>
<text text-anchor="start" x="116.5" y="-177" font-family="Helvetica,sans-Serif" font-size="10.00">com.tomoparts.tomoBay.model.e</text>
<text text-anchor="middle" x="198" y="-166" font-family="Helvetica,sans-Serif" font-size="10.00">BayAPI.ItemCall.ItemCall</text>
</a>
</g>
</g>
<!-- Node1&#45;&gt;Node2 -->
<g id="edge1" class="edge"><title>Node1&#45;&gt;Node2</title>
<path fill="none" stroke="midnightblue" d="M53.275,-116.192C66.5283,-127.165 85.3331,-141.216 104,-150 111.242,-153.408 119.038,-156.381 126.925,-158.964"/>
<polygon fill="midnightblue" stroke="midnightblue" points="55.3088,-113.327 45.4247,-109.512 50.7723,-118.658 55.3088,-113.327"/>
</g>
<!-- Node3 -->
<g id="node3" class="node"><title>Node3</title>
<g id="a_node3"><a xlink:href="classcom_1_1tomoparts_1_1tomoBay_1_1model_1_1eBayAPI_1_1ListingsCall.html#a8d93dacd34b7c6a84d65995c88046f8c" target="_top" xlink:title="initialise the ListingsCall ">
<polygon fill="white" stroke="black" points="108.5,-110 108.5,-140 287.5,-140 287.5,-110 108.5,-110"/>
<text text-anchor="start" x="116.5" y="-128" font-family="Helvetica,sans-Serif" font-size="10.00">com.tomoparts.tomoBay.model.e</text>
<text text-anchor="middle" x="198" y="-117" font-family="Helvetica,sans-Serif" font-size="10.00">BayAPI.ListingsCall.ListingsCall</text>
</a>
</g>
</g>
<!-- Node1&#45;&gt;Node3 -->
<g id="edge2" class="edge"><title>Node1&#45;&gt;Node3</title>
<path fill="none" stroke="midnightblue" d="M78.334,-106.687C87.6901,-108.131 97.9088,-109.708 108.298,-111.311"/>
<polygon fill="midnightblue" stroke="midnightblue" points="78.5909,-103.186 68.174,-105.119 77.5232,-110.104 78.5909,-103.186"/>
</g>
<!-- Node4 -->
<g id="node4" class="node"><title>Node4</title>
<g id="a_node4"><a xlink:href="classcom_1_1tomoparts_1_1tomoBay_1_1model_1_1eBayAPI_1_1OrdersCall.html#a53329c0b369a744bb0ad8853d470126d" target="_top" xlink:title="constructor, initialises the OrdersCall using the credentials passed in. ">
<polygon fill="white" stroke="black" points="108.5,-61 108.5,-91 287.5,-91 287.5,-61 108.5,-61"/>
<text text-anchor="start" x="116.5" y="-79" font-family="Helvetica,sans-Serif" font-size="10.00">com.tomoparts.tomoBay.model.e</text>
<text text-anchor="middle" x="198" y="-68" font-family="Helvetica,sans-Serif" font-size="10.00">BayAPI.OrdersCall.OrdersCall</text>
</a>
</g>
</g>
<!-- Node1&#45;&gt;Node4 -->
<g id="edge3" class="edge"><title>Node1&#45;&gt;Node4</title>
<path fill="none" stroke="midnightblue" d="M78.334,-93.5801C87.6901,-92.1941 97.9088,-90.6802 108.298,-89.141"/>
<polygon fill="midnightblue" stroke="midnightblue" points="77.5531,-90.1575 68.174,-95.0853 78.579,-97.082 77.5531,-90.1575"/>
</g>
<!-- Node5 -->
<g id="node5" class="node"><title>Node5</title>
<g id="a_node5"><a xlink:href="classcom_1_1tomoparts_1_1tomoBay_1_1model_1_1eBayAPI_1_1OrderTransactionsCall.html#a7d3365112008521e70e2521d188f5067" target="_top" xlink:title="com.tomoparts.tomoBay.model.e\lBayAPI.OrderTransactionsCall.Order\lTransactionsCall">
<polygon fill="white" stroke="black" points="104,-0.5 104,-41.5 292,-41.5 292,-0.5 104,-0.5"/>
<text text-anchor="start" x="112" y="-29.5" font-family="Helvetica,sans-Serif" font-size="10.00">com.tomoparts.tomoBay.model.e</text>
<text text-anchor="start" x="112" y="-18.5" font-family="Helvetica,sans-Serif" font-size="10.00">BayAPI.OrderTransactionsCall.Order</text>
<text text-anchor="middle" x="198" y="-7.5" font-family="Helvetica,sans-Serif" font-size="10.00">TransactionsCall</text>
</a>
</g>
</g>
<!-- Node1&#45;&gt;Node5 -->
<g id="edge4" class="edge"><title>Node1&#45;&gt;Node5</title>
<path fill="none" stroke="midnightblue" d="M54.525,-84.1495C67.848,-73.9192 86.2368,-60.9067 104,-52 111.607,-48.1858 119.79,-44.679 128.034,-41.5049"/>
<polygon fill="midnightblue" stroke="midnightblue" points="52.2661,-81.4731 46.559,-90.3994 56.587,-86.9804 52.2661,-81.4731"/>
</g>
</g>
</svg>
