<?xml version="1.0" encoding="UTF-8" standalone="no"?>
<!DOCTYPE svg PUBLIC "-//W3C//DTD SVG 1.1//EN"
 "http://www.w3.org/Graphics/SVG/1.1/DTD/svg11.dtd">
<!-- Generated by graphviz version 2.38.0 (20140413.2041)
 -->
<!-- Title: pickeability Pages: 1 -->
<svg width="330pt" height="88pt"
 viewBox="0.00 0.00 330.00 88.00" xmlns="http://www.w3.org/2000/svg" xmlns:xlink="http://www.w3.org/1999/xlink">
<g id="graph0" class="graph" transform="scale(1 1) rotate(0) translate(4 84)">
<title>pickeability</title>
<polygon fill="white" stroke="none" points="-4,4 -4,-84 326,-84 326,4 -4,4"/>
<!-- Node1 -->
<g id="node1" class="node"><title>Node1</title>
<polygon fill="#bfbfbf" stroke="black" points="0,-30 0,-49 69,-49 69,-30 0,-30"/>
<text text-anchor="middle" x="34.5" y="-37" font-family="Helvetica,sans-Serif" font-size="10.00">pickeability</text>
</g>
<!-- Node2 -->
<g id="node2" class="node"><title>Node2</title>
<g id="a_node2"><a xlink:href="classcom_1_1tomoparts_1_1tomoBay_1_1view_1_1views_1_1salesOrderView_1_1OrderStatusContext.html#ae4943f14d8c16791602f385be909b085" target="_top" xlink:title="com.tomoparts.tomoBay.view.views.sales\lOrderView.OrderStatusContext.get">
<polygon fill="white" stroke="black" points="105,-49.5 105,-79.5 322,-79.5 322,-49.5 105,-49.5"/>
<text text-anchor="start" x="113" y="-67.5" font-family="Helvetica,sans-Serif" font-size="10.00">com.tomoparts.tomoBay.view.views.sales</text>
<text text-anchor="middle" x="213.5" y="-56.5" font-family="Helvetica,sans-Serif" font-size="10.00">OrderView.OrderStatusContext.get</text>
</a>
</g>
</g>
<!-- Node1&#45;&gt;Node2 -->
<g id="edge1" class="edge"><title>Node1&#45;&gt;Node2</title>
<path fill="none" stroke="midnightblue" d="M69.209,-44.2612C77.3233,-45.4072 86.4507,-46.6964 96.0686,-48.0549"/>
<polygon fill="midnightblue" stroke="midnightblue" points="95.8558,-51.5595 106.247,-49.4925 96.8348,-44.6283 95.8558,-51.5595"/>
</g>
<!-- Node3 -->
<g id="node3" class="node"><title>Node3</title>
<g id="a_node3"><a xlink:href="classcom_1_1tomoparts_1_1tomoBay_1_1model_1_1dataTypes_1_1ServerStatus.html#a0de06b49749247f1ab7e4f12e7e4bf50" target="_top" xlink:title="Allows a part of the system to query the current status of the server. ">
<polygon fill="white" stroke="black" points="116,-0.5 116,-30.5 311,-30.5 311,-0.5 116,-0.5"/>
<text text-anchor="start" x="124" y="-18.5" font-family="Helvetica,sans-Serif" font-size="10.00">com.tomoparts.tomoBay.model.data</text>
<text text-anchor="middle" x="213.5" y="-7.5" font-family="Helvetica,sans-Serif" font-size="10.00">Types.ServerStatus.getStatus</text>
</a>
</g>
</g>
<!-- Node1&#45;&gt;Node3 -->
<g id="edge2" class="edge"><title>Node1&#45;&gt;Node3</title>
<path fill="none" stroke="midnightblue" d="M69.209,-34.9293C79.9993,-33.4662 92.5813,-31.7602 105.726,-29.9779"/>
<polygon fill="midnightblue" stroke="midnightblue" points="106.427,-33.4149 115.866,-28.6029 105.487,-26.4783 106.427,-33.4149"/>
</g>
</g>
</svg>
