<?xml version="1.0" encoding="UTF-8" standalone="no"?>
<!DOCTYPE svg PUBLIC "-//W3C//DTD SVG 1.1//EN"
 "http://www.w3.org/Graphics/SVG/1.1/DTD/svg11.dtd">
<!-- Generated by graphviz version 2.38.0 (20140413.2041)
 -->
<!-- Title: populate Pages: 1 -->
<svg width="830pt" height="116pt"
 viewBox="0.00 0.00 830.00 115.50" xmlns="http://www.w3.org/2000/svg" xmlns:xlink="http://www.w3.org/1999/xlink">
<g id="graph0" class="graph" transform="scale(1 1) rotate(0) translate(4 111.5)">
<title>populate</title>
<polygon fill="white" stroke="none" points="-4,4 -4,-111.5 826,-111.5 826,4 -4,4"/>
<!-- Node1 -->
<g id="node1" class="node"><title>Node1</title>
<polygon fill="#bfbfbf" stroke="black" points="0,-38.5 0,-57.5 59,-57.5 59,-38.5 0,-38.5"/>
<text text-anchor="middle" x="29.5" y="-45.5" font-family="Helvetica,sans-Serif" font-size="10.00">populate</text>
</g>
<!-- Node2 -->
<g id="node2" class="node"><title>Node2</title>
<g id="a_node2"><a xlink:href="classcom_1_1tomoparts_1_1tomoBay_1_1model_1_1sql_1_1framework_1_1ModifyQueryInvoker.html#ab8ef0fdf15f6720620e297c77ab25d46" target="_top" xlink:title="com.tomoparts.tomoBay.model.sql.framework.\lModifyQueryInvoker.execute">
<polygon fill="white" stroke="black" points="95,-77 95,-107 338,-107 338,-77 95,-77"/>
<text text-anchor="start" x="103" y="-95" font-family="Helvetica,sans-Serif" font-size="10.00">com.tomoparts.tomoBay.model.sql.framework.</text>
<text text-anchor="middle" x="216.5" y="-84" font-family="Helvetica,sans-Serif" font-size="10.00">ModifyQueryInvoker.execute</text>
</a>
</g>
</g>
<!-- Node1&#45;&gt;Node2 -->
<g id="edge1" class="edge"><title>Node1&#45;&gt;Node2</title>
<path fill="none" stroke="midnightblue" d="M59.259,-57.0197C70.3704,-60.3601 83.2235,-64.0491 95,-67 105.82,-69.7112 117.238,-72.3563 128.561,-74.8495"/>
<polygon fill="midnightblue" stroke="midnightblue" points="127.954,-78.2992 138.469,-76.9993 129.438,-71.4584 127.954,-78.2992"/>
</g>
<!-- Node3 -->
<g id="node3" class="node"><title>Node3</title>
<g id="a_node3"><a xlink:href="classcom_1_1tomoparts_1_1tomoBay_1_1model_1_1services_1_1basicEbayUpdateService_1_1Buyers__Table.html#a2635d1876823db285122ff73faeed4b2" target="_top" xlink:title="retrieves the personal address associated with the order passed in as an argument. ">
<polygon fill="white" stroke="black" points="181,-38.5 181,-57.5 252,-57.5 252,-38.5 181,-38.5"/>
<text text-anchor="middle" x="216.5" y="-45.5" font-family="Helvetica,sans-Serif" font-size="10.00">getAddress</text>
</a>
</g>
</g>
<!-- Node1&#45;&gt;Node3 -->
<g id="edge2" class="edge"><title>Node1&#45;&gt;Node3</title>
<path fill="none" stroke="midnightblue" d="M59.0008,-48C88.7613,-48 135.858,-48 170.619,-48"/>
<polygon fill="midnightblue" stroke="midnightblue" points="170.978,-51.5001 180.978,-48 170.977,-44.5001 170.978,-51.5001"/>
</g>
<!-- Node6 -->
<g id="node6" class="node"><title>Node6</title>
<g id="a_node6"><a xlink:href="classcom_1_1tomoparts_1_1tomoBay_1_1model_1_1services_1_1basicEbayUpdateService_1_1Buyers__Table.html#a33706837d80ae402889acf879a8e2566" target="_top" xlink:title="retrieves the global shipping program address associated with the order passed in as an argument...">
<polygon fill="white" stroke="black" points="171,-0.5 171,-19.5 262,-19.5 262,-0.5 171,-0.5"/>
<text text-anchor="middle" x="216.5" y="-7.5" font-family="Helvetica,sans-Serif" font-size="10.00">getGSPaddress</text>
</a>
</g>
</g>
<!-- Node1&#45;&gt;Node6 -->
<g id="edge5" class="edge"><title>Node1&#45;&gt;Node6</title>
<path fill="none" stroke="midnightblue" d="M59.1874,-38.6794C70.29,-35.3021 83.1558,-31.6664 95,-29 116.396,-24.1833 140.199,-20.1545 160.962,-17.0643"/>
<polygon fill="midnightblue" stroke="midnightblue" points="161.493,-20.524 170.886,-15.6233 160.487,-13.5966 161.493,-20.524"/>
</g>
<!-- Node4 -->
<g id="node4" class="node"><title>Node4</title>
<g id="a_node4"><a xlink:href="classcom_1_1tomoparts_1_1tomoBay_1_1model_1_1dataTypes_1_1heteroTypeContainer_1_1HeteroFieldContainer.html#a3ba6289417930238a36bfee0056b6398" target="_top" xlink:title="add an arbitrary value to this Field container with the stipulation that this value is of the same ty...">
<polygon fill="white" stroke="black" points="374,-8.5 374,-49.5 580,-49.5 580,-8.5 374,-8.5"/>
<text text-anchor="start" x="382" y="-37.5" font-family="Helvetica,sans-Serif" font-size="10.00">com.tomoparts.tomoBay.model.data</text>
<text text-anchor="start" x="382" y="-26.5" font-family="Helvetica,sans-Serif" font-size="10.00">Types.heteroTypeContainer.HeteroField</text>
<text text-anchor="middle" x="477" y="-15.5" font-family="Helvetica,sans-Serif" font-size="10.00">Container.add</text>
</a>
</g>
</g>
<!-- Node3&#45;&gt;Node4 -->
<g id="edge3" class="edge"><title>Node3&#45;&gt;Node4</title>
<path fill="none" stroke="midnightblue" d="M252.094,-45.4573C280.821,-43.3459 323.356,-40.2195 363.66,-37.2571"/>
<polygon fill="midnightblue" stroke="midnightblue" points="364.132,-40.7319 373.849,-36.5082 363.619,-33.7507 364.132,-40.7319"/>
</g>
<!-- Node5 -->
<g id="node5" class="node"><title>Node5</title>
<g id="a_node5"><a xlink:href="classcom_1_1tomoparts_1_1tomoBay_1_1model_1_1dataTypes_1_1heteroTypeContainer_1_1HeteroFieldContainer.html#a9dee3c01eb5ab16203e1c6820a569484" target="_top" xlink:title="performs a type check, assuming that field and type are of the same type then this method returns tru...">
<polygon fill="white" stroke="black" points="616,-8.5 616,-49.5 822,-49.5 822,-8.5 616,-8.5"/>
<text text-anchor="start" x="624" y="-37.5" font-family="Helvetica,sans-Serif" font-size="10.00">com.tomoparts.tomoBay.model.data</text>
<text text-anchor="start" x="624" y="-26.5" font-family="Helvetica,sans-Serif" font-size="10.00">Types.heteroTypeContainer.HeteroField</text>
<text text-anchor="middle" x="719" y="-15.5" font-family="Helvetica,sans-Serif" font-size="10.00">Container.isSameType</text>
</a>
</g>
</g>
<!-- Node4&#45;&gt;Node5 -->
<g id="edge4" class="edge"><title>Node4&#45;&gt;Node5</title>
<path fill="none" stroke="midnightblue" d="M580.13,-29C588.658,-29 597.309,-29 605.906,-29"/>
<polygon fill="midnightblue" stroke="midnightblue" points="605.962,-32.5001 615.962,-29 605.962,-25.5001 605.962,-32.5001"/>
</g>
<!-- Node6&#45;&gt;Node4 -->
<g id="edge6" class="edge"><title>Node6&#45;&gt;Node4</title>
<path fill="none" stroke="midnightblue" d="M262.232,-13.2879C290.366,-15.3558 328.015,-18.1229 363.873,-20.7586"/>
<polygon fill="midnightblue" stroke="midnightblue" points="363.701,-24.2552 373.93,-21.4978 364.214,-17.2741 363.701,-24.2552"/>
</g>
</g>
</svg>
