<?xml version="1.0" encoding="UTF-8" standalone="no"?>
<!DOCTYPE svg PUBLIC "-//W3C//DTD SVG 1.1//EN"
 "http://www.w3.org/Graphics/SVG/1.1/DTD/svg11.dtd">
<!-- Generated by graphviz version 2.38.0 (20140413.2041)
 -->
<!-- Title: AbstractModifyQuery Pages: 1 -->
<svg width="213pt" height="288pt"
 viewBox="0.00 0.00 212.50 288.00" xmlns="http://www.w3.org/2000/svg" xmlns:xlink="http://www.w3.org/1999/xlink">
<g id="graph0" class="graph" transform="scale(1 1) rotate(0) translate(4 284)">
<title>AbstractModifyQuery</title>
<polygon fill="white" stroke="none" points="-4,4 -4,-284 208.5,-284 208.5,4 -4,4"/>
<!-- Node1 -->
<g id="node1" class="node"><title>Node1</title>
<polygon fill="#bfbfbf" stroke="black" points="23,-0.5 23,-57.5 158,-57.5 158,-0.5 23,-0.5"/>
<text text-anchor="middle" x="90.5" y="-45.5" font-family="Helvetica,sans-Serif" font-size="10.00">AbstractModifyQuery</text>
<polyline fill="none" stroke="black" points="23,-38.5 158,-38.5 "/>
<text text-anchor="middle" x="90.5" y="-26.5" font-family="Helvetica,sans-Serif" font-size="10.00"> </text>
<polyline fill="none" stroke="black" points="23,-19.5 158,-19.5 "/>
<text text-anchor="start" x="31" y="-7.5" font-family="Helvetica,sans-Serif" font-size="10.00">+ AbstractModifyQuery()</text>
</g>
<!-- Node2 -->
<g id="node2" class="node"><title>Node2</title>
<g id="a_node2"><a xlink:href="classcom_1_1tomoparts_1_1tomoBay_1_1model_1_1sql_1_1framework_1_1queryTypes_1_1AbstractDBQuery.html" target="_top" xlink:title="Interface that all database queries must adhere to. ">
<polygon fill="white" stroke="black" points="40.5,-95.5 40.5,-174.5 140.5,-174.5 140.5,-95.5 40.5,-95.5"/>
<text text-anchor="middle" x="90.5" y="-162.5" font-family="Helvetica,sans-Serif" font-size="10.00">AbstractDBQuery</text>
<polyline fill="none" stroke="black" points="40.5,-155.5 140.5,-155.5 "/>
<text text-anchor="middle" x="90.5" y="-143.5" font-family="Helvetica,sans-Serif" font-size="10.00"> </text>
<polyline fill="none" stroke="black" points="40.5,-136.5 140.5,-136.5 "/>
<text text-anchor="start" x="48.5" y="-124.5" font-family="Helvetica,sans-Serif" font-size="10.00">+ statement()</text>
<text text-anchor="start" x="48.5" y="-113.5" font-family="Helvetica,sans-Serif" font-size="10.00"># queryString()</text>
<text text-anchor="start" x="48.5" y="-102.5" font-family="Helvetica,sans-Serif" font-size="10.00"># cleanup()</text>
</a>
</g>
</g>
<!-- Node2&#45;&gt;Node1 -->
<g id="edge1" class="edge"><title>Node2&#45;&gt;Node1</title>
<path fill="none" stroke="midnightblue" d="M90.5,-85.1615C90.5,-75.7373 90.5,-66.1742 90.5,-57.7164"/>
<polygon fill="none" stroke="midnightblue" points="87.0001,-85.2742 90.5,-95.2742 94.0001,-85.2743 87.0001,-85.2742"/>
</g>
<!-- Node3 -->
<g id="node3" class="node"><title>Node3</title>
<polygon fill="white" stroke="#bfbfbf" points="0,-222.5 0,-279.5 71,-279.5 71,-222.5 0,-222.5"/>
<text text-anchor="middle" x="35.5" y="-267.5" font-family="Helvetica,sans-Serif" font-size="10.00">Connection</text>
<polyline fill="none" stroke="#bfbfbf" points="0,-260.5 71,-260.5 "/>
<text text-anchor="middle" x="35.5" y="-248.5" font-family="Helvetica,sans-Serif" font-size="10.00"> </text>
<polyline fill="none" stroke="#bfbfbf" points="0,-241.5 71,-241.5 "/>
<text text-anchor="middle" x="35.5" y="-229.5" font-family="Helvetica,sans-Serif" font-size="10.00"> </text>
</g>
<!-- Node3&#45;&gt;Node2 -->
<g id="edge2" class="edge"><title>Node3&#45;&gt;Node2</title>
<path fill="none" stroke="#404040" d="M37.5838,-222.223C39.0189,-212.659 41.4353,-202.078 45.5,-193 46.7398,-190.231 48.1441,-187.479 49.671,-184.765"/>
<polygon fill="none" stroke="#404040" points="49.7101,-184.703 49.5049,-177.495 56.0796,-174.533 56.2849,-181.741 49.7101,-184.703"/>
<text text-anchor="middle" x="84.5" y="-196" font-family="Helvetica,sans-Serif" font-size="10.00"> #connection_M</text>
</g>
<!-- Node4 -->
<g id="node4" class="node"><title>Node4</title>
<polygon fill="white" stroke="#bfbfbf" points="89.5,-222.5 89.5,-279.5 201.5,-279.5 201.5,-222.5 89.5,-222.5"/>
<text text-anchor="middle" x="145.5" y="-267.5" font-family="Helvetica,sans-Serif" font-size="10.00">PreparedStatement</text>
<polyline fill="none" stroke="#bfbfbf" points="89.5,-260.5 201.5,-260.5 "/>
<text text-anchor="middle" x="145.5" y="-248.5" font-family="Helvetica,sans-Serif" font-size="10.00"> </text>
<polyline fill="none" stroke="#bfbfbf" points="89.5,-241.5 201.5,-241.5 "/>
<text text-anchor="middle" x="145.5" y="-229.5" font-family="Helvetica,sans-Serif" font-size="10.00"> </text>
</g>
<!-- Node4&#45;&gt;Node2 -->
<g id="edge3" class="edge"><title>Node4&#45;&gt;Node2</title>
<path fill="none" stroke="#404040" d="M135.834,-222.378C132.266,-212.926 127.989,-202.376 123.5,-193 122.271,-190.433 120.969,-187.826 119.619,-185.212"/>
<polygon fill="none" stroke="#404040" points="119.547,-185.077 113.185,-181.681 113.873,-174.503 120.235,-177.899 119.547,-185.077"/>
<text text-anchor="middle" x="166.5" y="-196" font-family="Helvetica,sans-Serif" font-size="10.00"> #statement_M</text>
</g>
</g>
</svg>
