<?xml version="1.0" encoding="UTF-8" standalone="no"?>
<!DOCTYPE svg PUBLIC "-//W3C//DTD SVG 1.1//EN"
 "http://www.w3.org/Graphics/SVG/1.1/DTD/svg11.dtd">
<!-- Generated by graphviz version 2.38.0 (20140413.2041)
 -->
<!-- Title: AbstractSelectParamsQuery Pages: 1 -->
<!--zoomable 480 -->
<svg id="main" version="1.1" xmlns="http://www.w3.org/2000/svg" xmlns:xlink="http://www.w3.org/1999/xlink" xml:space="preserve" onload="init(evt)">
<style type="text/css"><![CDATA[
.edge:hover path { stroke: red; }
.edge:hover polygon { stroke: red; fill: red; }
]]></style>
<script type="text/javascript"><![CDATA[
var edges = document.getElementsByTagName('g');
if (edges && edges.length) {
  for (var i=0;i<edges.length;i++) {
    if (edges[i].id.substr(0,4)=='edge') {
      edges[i].setAttribute('class','edge');
    }
  }
}
]]></script>
        <defs>
                <circle id="rim" cx="0" cy="0" r="7"/>
                <circle id="rim2" cx="0" cy="0" r="3.5"/>
                <g id="zoomPlus">
                        <use xlink:href="#rim" fill="#404040">
                                <set attributeName="fill" to="#808080" begin="zoomplus.mouseover" end="zoomplus.mouseout"/>
                        </use>
                        <path d="M-4,0h8M0,-4v8" fill="none" stroke="white" stroke-width="1.5" pointer-events="none"/>
                </g>
                <g id="zoomMin">
                        <use xlink:href="#rim" fill="#404040">
                                <set attributeName="fill" to="#808080" begin="zoomminus.mouseover" end="zoomminus.mouseout"/>
                        </use>
                        <path d="M-4,0h8" fill="none" stroke="white" stroke-width="1.5" pointer-events="none"/>
                </g>
                <g id="dirArrow">
                        <path fill="none" stroke="white" stroke-width="1.5" d="M0,-3.0v7 M-2.5,-0.5L0,-3.0L2.5,-0.5"/>
                </g>
               <g id="resetDef">
                       <use xlink:href="#rim2" fill="#404040">
                               <set attributeName="fill" to="#808080" begin="reset.mouseover" end="reset.mouseout"/>
                       </use>
               </g>
        </defs>

<script type="text/javascript">
var viewWidth = 2007;
var viewHeight = 480;
var sectionId = 'dynsection-0';
</script>
<script xlink:href="svgpan.js"/>
<svg id="graph" class="graph">
<g id="viewport">
<title>AbstractSelectParamsQuery</title>
<polygon fill="white" stroke="none" points="-4,4 -4,-476 2003,-476 2003,4 -4,4"/>
<!-- Node1 -->
<g id="node1" class="node"><title>Node1</title>
<polygon fill="#bfbfbf" stroke="black" points="902.5,-149.5 902.5,-239.5 1073.5,-239.5 1073.5,-149.5 902.5,-149.5"/>
<text text-anchor="middle" x="988" y="-227.5" font-family="Helvetica,sans-Serif" font-size="10.00">AbstractSelectParamsQuery</text>
<polyline fill="none" stroke="black" points="902.5,-220.5 1073.5,-220.5 "/>
<text text-anchor="middle" x="988" y="-208.5" font-family="Helvetica,sans-Serif" font-size="10.00"> </text>
<polyline fill="none" stroke="black" points="902.5,-201.5 1073.5,-201.5 "/>
<text text-anchor="start" x="910.5" y="-189.5" font-family="Helvetica,sans-Serif" font-size="10.00">+ AbstractSelectParamsQuery()</text>
<text text-anchor="start" x="910.5" y="-178.5" font-family="Helvetica,sans-Serif" font-size="10.00">+ execute()</text>
<text text-anchor="start" x="910.5" y="-167.5" font-family="Helvetica,sans-Serif" font-size="10.00"># setParameters()</text>
<text text-anchor="start" x="910.5" y="-156.5" font-family="Helvetica,sans-Serif" font-size="10.00">&#45; initQuery()</text>
</g>
<!-- Node4 -->
<g id="node4" class="node"><title>Node4</title>
<g id="a_node4"><a xlink:href="classcom_1_1tomoparts_1_1tomoBay_1_1model_1_1sql_1_1queries_1_1concreteQueries_1_1select_1_1para6f75a6d09fd903571426df29e6112491.html" target="_top" xlink:title="This class represents a query that selects the brand and part number fields associated with a particu...">
<polygon fill="white" stroke="black" points="0,-11.5 0,-101.5 194,-101.5 194,-11.5 0,-11.5"/>
<text text-anchor="middle" x="97" y="-89.5" font-family="Helvetica,sans-Serif" font-size="10.00">SelectBrandAndPartNoByOrderID</text>
<polyline fill="none" stroke="black" points="0,-82.5 194,-82.5 "/>
<text text-anchor="start" x="8" y="-70.5" font-family="Helvetica,sans-Serif" font-size="10.00">&#45; query</text>
<polyline fill="none" stroke="black" points="0,-63.5 194,-63.5 "/>
<text text-anchor="start" x="8" y="-51.5" font-family="Helvetica,sans-Serif" font-size="10.00">+ SelectBrandAndPartNoByOrderID()</text>
<text text-anchor="start" x="8" y="-40.5" font-family="Helvetica,sans-Serif" font-size="10.00"># format()</text>
<text text-anchor="start" x="8" y="-29.5" font-family="Helvetica,sans-Serif" font-size="10.00"># setParameters()</text>
<text text-anchor="start" x="8" y="-18.5" font-family="Helvetica,sans-Serif" font-size="10.00"># queryString()</text>
</a>
</g>
</g>
<!-- Node1&#45;&gt;Node4 -->
<g id="edge3" class="edge"><title>Node1&#45;&gt;Node4</title>
<path fill="none" stroke="midnightblue" d="M892.398,-188.231C712.363,-177.563 329.744,-151.135 203,-113 192.955,-109.978 182.748,-105.988 172.834,-101.53"/>
<polygon fill="none" stroke="midnightblue" points="892.2,-191.726 902.389,-188.819 892.612,-184.738 892.2,-191.726"/>
</g>
<!-- Node5 -->
<g id="node5" class="node"><title>Node5</title>
<g id="a_node5"><a xlink:href="classcom_1_1tomoparts_1_1tomoBay_1_1model_1_1sql_1_1queries_1_1concreteQueries_1_1select_1_1params_1_1SelectBrandByInv.html" target="_top" xlink:title="This class represents a Query that selects the Brand value associated with a particular invoice numbe...">
<polygon fill="white" stroke="black" points="212.5,-11.5 212.5,-101.5 331.5,-101.5 331.5,-11.5 212.5,-11.5"/>
<text text-anchor="middle" x="272" y="-89.5" font-family="Helvetica,sans-Serif" font-size="10.00">SelectBrandByInv</text>
<polyline fill="none" stroke="black" points="212.5,-82.5 331.5,-82.5 "/>
<text text-anchor="start" x="220.5" y="-70.5" font-family="Helvetica,sans-Serif" font-size="10.00">&#45; query</text>
<polyline fill="none" stroke="black" points="212.5,-63.5 331.5,-63.5 "/>
<text text-anchor="start" x="220.5" y="-51.5" font-family="Helvetica,sans-Serif" font-size="10.00">+ SelectBrandByInv()</text>
<text text-anchor="start" x="220.5" y="-40.5" font-family="Helvetica,sans-Serif" font-size="10.00"># format()</text>
<text text-anchor="start" x="220.5" y="-29.5" font-family="Helvetica,sans-Serif" font-size="10.00"># setParameters()</text>
<text text-anchor="start" x="220.5" y="-18.5" font-family="Helvetica,sans-Serif" font-size="10.00"># queryString()</text>
</a>
</g>
</g>
<!-- Node1&#45;&gt;Node5 -->
<g id="edge4" class="edge"><title>Node1&#45;&gt;Node5</title>
<path fill="none" stroke="midnightblue" d="M892.218,-188.116C736.788,-178.298 437.215,-154.568 340,-113 332.994,-110.004 326.131,-106.062 319.622,-101.656"/>
<polygon fill="none" stroke="midnightblue" points="892.045,-191.612 902.244,-188.743 892.482,-184.626 892.045,-191.612"/>
</g>
<!-- Node6 -->
<g id="node6" class="node"><title>Node6</title>
<g id="a_node6"><a xlink:href="classcom_1_1tomoparts_1_1tomoBay_1_1model_1_1sql_1_1queries_1_1concreteQueries_1_1select_1_1params_1_1SelectBuyerByAccAndSRN.html" target="_top" xlink:title="Copyright(C) 2015 Jan P.C. ">
<polygon fill="white" stroke="black" points="349.5,-11.5 349.5,-101.5 510.5,-101.5 510.5,-11.5 349.5,-11.5"/>
<text text-anchor="middle" x="430" y="-89.5" font-family="Helvetica,sans-Serif" font-size="10.00">SelectBuyerByAccAndSRN</text>
<polyline fill="none" stroke="black" points="349.5,-82.5 510.5,-82.5 "/>
<text text-anchor="start" x="357.5" y="-70.5" font-family="Helvetica,sans-Serif" font-size="10.00">&#45; QUERY</text>
<polyline fill="none" stroke="black" points="349.5,-63.5 510.5,-63.5 "/>
<text text-anchor="start" x="357.5" y="-51.5" font-family="Helvetica,sans-Serif" font-size="10.00">+ SelectBuyerByAccAndSRN()</text>
<text text-anchor="start" x="357.5" y="-40.5" font-family="Helvetica,sans-Serif" font-size="10.00"># setParameters()</text>
<text text-anchor="start" x="357.5" y="-29.5" font-family="Helvetica,sans-Serif" font-size="10.00"># format()</text>
<text text-anchor="start" x="357.5" y="-18.5" font-family="Helvetica,sans-Serif" font-size="10.00"># queryString()</text>
</a>
</g>
</g>
<!-- Node1&#45;&gt;Node6 -->
<g id="edge5" class="edge"><title>Node1&#45;&gt;Node6</title>
<path fill="none" stroke="midnightblue" d="M892.128,-187.722C795.512,-179.453 643.451,-159.673 520,-113 511.672,-109.851 503.269,-105.904 495.119,-101.573"/>
<polygon fill="none" stroke="midnightblue" points="891.918,-191.217 902.174,-188.558 892.498,-184.241 891.918,-191.217"/>
</g>
<!-- Node7 -->
<g id="node7" class="node"><title>Node7</title>
<g id="a_node7"><a xlink:href="classcom_1_1tomoparts_1_1tomoBay_1_1model_1_1sql_1_1queries_1_1concreteQueries_1_1select_1_1params_1_1SelectEbayBuyer.html" target="_top" xlink:title="This class represents a query that selects all the information contained within the ebay_buyers table...">
<polygon fill="white" stroke="black" points="529,-11.5 529,-101.5 645,-101.5 645,-11.5 529,-11.5"/>
<text text-anchor="middle" x="587" y="-89.5" font-family="Helvetica,sans-Serif" font-size="10.00">SelectEbayBuyer</text>
<polyline fill="none" stroke="black" points="529,-82.5 645,-82.5 "/>
<text text-anchor="start" x="537" y="-70.5" font-family="Helvetica,sans-Serif" font-size="10.00">&#45; query</text>
<polyline fill="none" stroke="black" points="529,-63.5 645,-63.5 "/>
<text text-anchor="start" x="537" y="-51.5" font-family="Helvetica,sans-Serif" font-size="10.00">+ SelectEbayBuyer()</text>
<text text-anchor="start" x="537" y="-40.5" font-family="Helvetica,sans-Serif" font-size="10.00"># format()</text>
<text text-anchor="start" x="537" y="-29.5" font-family="Helvetica,sans-Serif" font-size="10.00"># setParameters()</text>
<text text-anchor="start" x="537" y="-18.5" font-family="Helvetica,sans-Serif" font-size="10.00"># queryString()</text>
</a>
</g>
</g>
<!-- Node1&#45;&gt;Node7 -->
<g id="edge6" class="edge"><title>Node1&#45;&gt;Node7</title>
<path fill="none" stroke="midnightblue" d="M892.323,-182.223C823.288,-171.334 729.364,-150.73 654,-113 647.652,-109.822 641.377,-105.94 635.361,-101.72"/>
<polygon fill="none" stroke="midnightblue" points="891.907,-185.7 902.323,-183.76 892.97,-178.781 891.907,-185.7"/>
</g>
<!-- Node8 -->
<g id="node8" class="node"><title>Node8</title>
<g id="a_node8"><a xlink:href="classcom_1_1tomoparts_1_1tomoBay_1_1model_1_1sql_1_1queries_1_1concreteQueries_1_1select_1_1params_1_1SelectEbayItemSpecific.html" target="_top" xlink:title="This class represents a query that selects all fields related to a specific item from the items table...">
<polygon fill="white" stroke="black" points="663.5,-11.5 663.5,-101.5 810.5,-101.5 810.5,-11.5 663.5,-11.5"/>
<text text-anchor="middle" x="737" y="-89.5" font-family="Helvetica,sans-Serif" font-size="10.00">SelectEbayItemSpecific</text>
<polyline fill="none" stroke="black" points="663.5,-82.5 810.5,-82.5 "/>
<text text-anchor="start" x="671.5" y="-70.5" font-family="Helvetica,sans-Serif" font-size="10.00">&#45; query</text>
<polyline fill="none" stroke="black" points="663.5,-63.5 810.5,-63.5 "/>
<text text-anchor="start" x="671.5" y="-51.5" font-family="Helvetica,sans-Serif" font-size="10.00">+ SelectEbayItemSpecific()</text>
<text text-anchor="start" x="671.5" y="-40.5" font-family="Helvetica,sans-Serif" font-size="10.00"># format()</text>
<text text-anchor="start" x="671.5" y="-29.5" font-family="Helvetica,sans-Serif" font-size="10.00"># setParameters()</text>
<text text-anchor="start" x="671.5" y="-18.5" font-family="Helvetica,sans-Serif" font-size="10.00"># queryString()</text>
</a>
</g>
</g>
<!-- Node1&#45;&gt;Node8 -->
<g id="edge7" class="edge"><title>Node1&#45;&gt;Node8</title>
<path fill="none" stroke="midnightblue" d="M893.161,-151.402C868.627,-139.681 842.511,-126.454 819,-113 812.883,-109.499 806.622,-105.696 800.42,-101.778"/>
<polygon fill="none" stroke="midnightblue" points="891.942,-154.698 902.477,-155.818 894.94,-148.372 891.942,-154.698"/>
</g>
<!-- Node9 -->
<g id="node9" class="node"><title>Node9</title>
<g id="a_node9"><a xlink:href="classcom_1_1tomoparts_1_1tomoBay_1_1model_1_1sql_1_1queries_1_1concreteQueries_1_1select_1_1params_1_1SelectEbayOrderByBuyer.html" target="_top" xlink:title="This class represents a query that selects the orderID and account from the ebay_orders table where t...">
<polygon fill="white" stroke="black" points="828.5,-11.5 828.5,-101.5 983.5,-101.5 983.5,-11.5 828.5,-11.5"/>
<text text-anchor="middle" x="906" y="-89.5" font-family="Helvetica,sans-Serif" font-size="10.00">SelectEbayOrderByBuyer</text>
<polyline fill="none" stroke="black" points="828.5,-82.5 983.5,-82.5 "/>
<text text-anchor="start" x="836.5" y="-70.5" font-family="Helvetica,sans-Serif" font-size="10.00">&#45; query</text>
<polyline fill="none" stroke="black" points="828.5,-63.5 983.5,-63.5 "/>
<text text-anchor="start" x="836.5" y="-51.5" font-family="Helvetica,sans-Serif" font-size="10.00">+ SelectEbayOrderByBuyer()</text>
<text text-anchor="start" x="836.5" y="-40.5" font-family="Helvetica,sans-Serif" font-size="10.00"># format()</text>
<text text-anchor="start" x="836.5" y="-29.5" font-family="Helvetica,sans-Serif" font-size="10.00"># setParameters()</text>
<text text-anchor="start" x="836.5" y="-18.5" font-family="Helvetica,sans-Serif" font-size="10.00"># queryString()</text>
</a>
</g>
</g>
<!-- Node1&#45;&gt;Node9 -->
<g id="edge8" class="edge"><title>Node1&#45;&gt;Node9</title>
<path fill="none" stroke="midnightblue" d="M956.12,-140.625C948.4,-127.823 940.227,-114.266 932.77,-101.899"/>
<polygon fill="none" stroke="midnightblue" points="953.216,-142.588 961.377,-149.345 959.211,-138.974 953.216,-142.588"/>
</g>
<!-- Node10 -->
<g id="node10" class="node"><title>Node10</title>
<g id="a_node10"><a xlink:href="classcom_1_1tomoparts_1_1tomoBay_1_1model_1_1sql_1_1queries_1_1concreteQueries_1_1select_1_1params_1_1SelectEbayOrderByID.html" target="_top" xlink:title="This class represents a query that selects all the fields from the ebay_orders table where the orderI...">
<polygon fill="white" stroke="black" points="1001.5,-11.5 1001.5,-101.5 1138.5,-101.5 1138.5,-11.5 1001.5,-11.5"/>
<text text-anchor="middle" x="1070" y="-89.5" font-family="Helvetica,sans-Serif" font-size="10.00">SelectEbayOrderByID</text>
<polyline fill="none" stroke="black" points="1001.5,-82.5 1138.5,-82.5 "/>
<text text-anchor="start" x="1009.5" y="-70.5" font-family="Helvetica,sans-Serif" font-size="10.00">&#45; query</text>
<polyline fill="none" stroke="black" points="1001.5,-63.5 1138.5,-63.5 "/>
<text text-anchor="start" x="1009.5" y="-51.5" font-family="Helvetica,sans-Serif" font-size="10.00">+ SelectEbayOrderByID()</text>
<text text-anchor="start" x="1009.5" y="-40.5" font-family="Helvetica,sans-Serif" font-size="10.00"># format()</text>
<text text-anchor="start" x="1009.5" y="-29.5" font-family="Helvetica,sans-Serif" font-size="10.00"># setParameters()</text>
<text text-anchor="start" x="1009.5" y="-18.5" font-family="Helvetica,sans-Serif" font-size="10.00"># queryString()</text>
</a>
</g>
</g>
<!-- Node1&#45;&gt;Node10 -->
<g id="edge9" class="edge"><title>Node1&#45;&gt;Node10</title>
<path fill="none" stroke="midnightblue" d="M1019.88,-140.625C1027.6,-127.823 1035.77,-114.266 1043.23,-101.899"/>
<polygon fill="none" stroke="midnightblue" points="1016.79,-138.974 1014.62,-149.345 1022.78,-142.588 1016.79,-138.974"/>
</g>
<!-- Node11 -->
<g id="node11" class="node"><title>Node11</title>
<g id="a_node11"><a xlink:href="classcom_1_1tomoparts_1_1tomoBay_1_1model_1_1sql_1_1queries_1_1concreteQueries_1_1select_1_1parac0d31fe89450040cf1dcb1e02765c08b.html" target="_top" xlink:title="This class represents a query that displays the history of Listings ordered over the last N days...">
<polygon fill="white" stroke="black" points="1157,-0.5 1157,-112.5 1319,-112.5 1319,-0.5 1157,-0.5"/>
<text text-anchor="start" x="1165" y="-100.5" font-family="Helvetica,sans-Serif" font-size="10.00">SelectEbayOrderHistoryLast</text>
<text text-anchor="middle" x="1238" y="-89.5" font-family="Helvetica,sans-Serif" font-size="10.00">NDays</text>
<polyline fill="none" stroke="black" points="1157,-82.5 1319,-82.5 "/>
<text text-anchor="start" x="1165" y="-70.5" font-family="Helvetica,sans-Serif" font-size="10.00">&#45; QUERY_M</text>
<polyline fill="none" stroke="black" points="1157,-63.5 1319,-63.5 "/>
<text text-anchor="start" x="1165" y="-51.5" font-family="Helvetica,sans-Serif" font-size="10.00">+ SelectEbayOrderHistoryLast</text>
<text text-anchor="start" x="1165" y="-40.5" font-family="Helvetica,sans-Serif" font-size="10.00">NDays()</text>
<text text-anchor="start" x="1165" y="-29.5" font-family="Helvetica,sans-Serif" font-size="10.00"># setParameters()</text>
<text text-anchor="start" x="1165" y="-18.5" font-family="Helvetica,sans-Serif" font-size="10.00"># format()</text>
<text text-anchor="start" x="1165" y="-7.5" font-family="Helvetica,sans-Serif" font-size="10.00"># queryString()</text>
</a>
</g>
</g>
<!-- Node1&#45;&gt;Node11 -->
<g id="edge10" class="edge"><title>Node1&#45;&gt;Node11</title>
<path fill="none" stroke="midnightblue" d="M1082.99,-147.405C1104.55,-136.474 1127.21,-124.609 1148,-113 1150.88,-111.389 1153.81,-109.73 1156.75,-108.038"/>
<polygon fill="none" stroke="midnightblue" points="1081.18,-144.399 1073.83,-152.028 1084.33,-150.648 1081.18,-144.399"/>
</g>
<!-- Node12 -->
<g id="node12" class="node"><title>Node12</title>
<g id="a_node12"><a xlink:href="classcom_1_1tomoparts_1_1tomoBay_1_1model_1_1sql_1_1queries_1_1concreteQueries_1_1select_1_1params_1_1SelectEbayTransactionByID.html" target="_top" xlink:title="This class represents a query that selects the itemId, quantity, price and shippingCost field from th...">
<polygon fill="white" stroke="black" points="1337,-11.5 1337,-101.5 1503,-101.5 1503,-11.5 1337,-11.5"/>
<text text-anchor="middle" x="1420" y="-89.5" font-family="Helvetica,sans-Serif" font-size="10.00">SelectEbayTransactionByID</text>
<polyline fill="none" stroke="black" points="1337,-82.5 1503,-82.5 "/>
<text text-anchor="start" x="1345" y="-70.5" font-family="Helvetica,sans-Serif" font-size="10.00">&#45; query</text>
<polyline fill="none" stroke="black" points="1337,-63.5 1503,-63.5 "/>
<text text-anchor="start" x="1345" y="-51.5" font-family="Helvetica,sans-Serif" font-size="10.00">+ SelectEbayTransactionByID()</text>
<text text-anchor="start" x="1345" y="-40.5" font-family="Helvetica,sans-Serif" font-size="10.00"># format()</text>
<text text-anchor="start" x="1345" y="-29.5" font-family="Helvetica,sans-Serif" font-size="10.00"># setParameters()</text>
<text text-anchor="start" x="1345" y="-18.5" font-family="Helvetica,sans-Serif" font-size="10.00"># queryString()</text>
</a>
</g>
</g>
<!-- Node1&#45;&gt;Node12 -->
<g id="edge11" class="edge"><title>Node1&#45;&gt;Node12</title>
<path fill="none" stroke="midnightblue" d="M1083.81,-179.014C1153.31,-166.558 1248.65,-145.4 1328,-113 1336.03,-109.721 1344.18,-105.802 1352.14,-101.584"/>
<polygon fill="none" stroke="midnightblue" points="1082.99,-175.604 1073.75,-180.788 1084.2,-182.498 1082.99,-175.604"/>
</g>
<!-- Node13 -->
<g id="node13" class="node"><title>Node13</title>
<g id="a_node13"><a xlink:href="classcom_1_1tomoparts_1_1tomoBay_1_1model_1_1sql_1_1queries_1_1concreteQueries_1_1select_1_1params_1_1SelectFullOrderLine.html" target="_top" xlink:title="This class represents a query that provides the majority of information associated with a particular ...">
<polygon fill="white" stroke="black" points="1521,-11.5 1521,-101.5 1649,-101.5 1649,-11.5 1521,-11.5"/>
<text text-anchor="middle" x="1585" y="-89.5" font-family="Helvetica,sans-Serif" font-size="10.00">SelectFullOrderLine</text>
<polyline fill="none" stroke="black" points="1521,-82.5 1649,-82.5 "/>
<text text-anchor="start" x="1529" y="-70.5" font-family="Helvetica,sans-Serif" font-size="10.00">&#45; query</text>
<polyline fill="none" stroke="black" points="1521,-63.5 1649,-63.5 "/>
<text text-anchor="start" x="1529" y="-51.5" font-family="Helvetica,sans-Serif" font-size="10.00">+ SelectFullOrderLine()</text>
<text text-anchor="start" x="1529" y="-40.5" font-family="Helvetica,sans-Serif" font-size="10.00"># format()</text>
<text text-anchor="start" x="1529" y="-29.5" font-family="Helvetica,sans-Serif" font-size="10.00"># setParameters()</text>
<text text-anchor="start" x="1529" y="-18.5" font-family="Helvetica,sans-Serif" font-size="10.00"># queryString()</text>
</a>
</g>
</g>
<!-- Node1&#45;&gt;Node13 -->
<g id="edge12" class="edge"><title>Node1&#45;&gt;Node13</title>
<path fill="none" stroke="midnightblue" d="M1083.86,-192.8C1191.95,-188.879 1371.02,-172.809 1512,-113 1519.18,-109.953 1526.29,-106.039 1533.09,-101.702"/>
<polygon fill="none" stroke="midnightblue" points="1083.5,-189.31 1073.62,-193.143 1083.73,-196.306 1083.5,-189.31"/>
</g>
<!-- Node14 -->
<g id="node14" class="node"><title>Node14</title>
<g id="a_node14"><a xlink:href="classcom_1_1tomoparts_1_1tomoBay_1_1model_1_1sql_1_1queries_1_1concreteQueries_1_1select_1_1params_1_1SelectOutOfHoursOrders.html" target="_top" xlink:title="this class represents a query that selects the sales record number, order total, created time and dat...">
<polygon fill="white" stroke="black" points="1667,-11.5 1667,-101.5 1821,-101.5 1821,-11.5 1667,-11.5"/>
<text text-anchor="middle" x="1744" y="-89.5" font-family="Helvetica,sans-Serif" font-size="10.00">SelectOutOfHoursOrders</text>
<polyline fill="none" stroke="black" points="1667,-82.5 1821,-82.5 "/>
<text text-anchor="start" x="1675" y="-70.5" font-family="Helvetica,sans-Serif" font-size="10.00">&#45; query</text>
<polyline fill="none" stroke="black" points="1667,-63.5 1821,-63.5 "/>
<text text-anchor="start" x="1675" y="-51.5" font-family="Helvetica,sans-Serif" font-size="10.00">+ SelectOutOfHoursOrders()</text>
<text text-anchor="start" x="1675" y="-40.5" font-family="Helvetica,sans-Serif" font-size="10.00"># format()</text>
<text text-anchor="start" x="1675" y="-29.5" font-family="Helvetica,sans-Serif" font-size="10.00"># setParameters()</text>
<text text-anchor="start" x="1675" y="-18.5" font-family="Helvetica,sans-Serif" font-size="10.00"># queryString()</text>
</a>
</g>
</g>
<!-- Node1&#45;&gt;Node14 -->
<g id="edge13" class="edge"><title>Node1&#45;&gt;Node14</title>
<path fill="none" stroke="midnightblue" d="M1084.03,-187.303C1243.27,-176.138 1554.68,-150.285 1658,-113 1666.36,-109.984 1674.73,-106.029 1682.8,-101.617"/>
<polygon fill="none" stroke="midnightblue" points="1083.5,-183.832 1073.76,-188.017 1083.98,-190.815 1083.5,-183.832"/>
</g>
<!-- Node15 -->
<g id="node15" class="node"><title>Node15</title>
<g id="a_node15"><a xlink:href="classcom_1_1tomoparts_1_1tomoBay_1_1model_1_1sql_1_1queries_1_1concreteQueries_1_1select_1_1params_1_1SelectTransactionByOrder.html" target="_top" xlink:title="This class represents a query that selects all data from the transactions table of the database given...">
<polygon fill="white" stroke="black" points="1839,-11.5 1839,-101.5 1999,-101.5 1999,-11.5 1839,-11.5"/>
<text text-anchor="middle" x="1919" y="-89.5" font-family="Helvetica,sans-Serif" font-size="10.00">SelectTransactionByOrder</text>
<polyline fill="none" stroke="black" points="1839,-82.5 1999,-82.5 "/>
<text text-anchor="start" x="1847" y="-70.5" font-family="Helvetica,sans-Serif" font-size="10.00">&#45; query</text>
<polyline fill="none" stroke="black" points="1839,-63.5 1999,-63.5 "/>
<text text-anchor="start" x="1847" y="-51.5" font-family="Helvetica,sans-Serif" font-size="10.00">+ SelectTransactionByOrder()</text>
<text text-anchor="start" x="1847" y="-40.5" font-family="Helvetica,sans-Serif" font-size="10.00"># format()</text>
<text text-anchor="start" x="1847" y="-29.5" font-family="Helvetica,sans-Serif" font-size="10.00"># setParameters()</text>
<text text-anchor="start" x="1847" y="-18.5" font-family="Helvetica,sans-Serif" font-size="10.00"># queryString()</text>
</a>
</g>
</g>
<!-- Node1&#45;&gt;Node15 -->
<g id="edge14" class="edge"><title>Node1&#45;&gt;Node15</title>
<path fill="none" stroke="midnightblue" d="M1083.71,-189.865C1274.15,-181.733 1693.95,-159.061 1830,-113 1838.8,-110.022 1847.62,-106.028 1856.11,-101.54"/>
<polygon fill="none" stroke="midnightblue" points="1083.55,-186.369 1073.71,-190.288 1083.85,-193.363 1083.55,-186.369"/>
</g>
<!-- Node2 -->
<g id="node2" class="node"><title>Node2</title>
<g id="a_node2"><a xlink:href="classcom_1_1tomoparts_1_1tomoBay_1_1model_1_1sql_1_1framework_1_1queryTypes_1_1select_1_1AbstractSelectQuery.html" target="_top" xlink:title="{AbstractSelectQuery\n||+ AbstractSelectQuery()\l# format()\l}">
<polygon fill="white" stroke="black" points="921,-276.5 921,-344.5 1055,-344.5 1055,-276.5 921,-276.5"/>
<text text-anchor="middle" x="988" y="-332.5" font-family="Helvetica,sans-Serif" font-size="10.00">AbstractSelectQuery</text>
<polyline fill="none" stroke="black" points="921,-325.5 1055,-325.5 "/>
<text text-anchor="middle" x="988" y="-313.5" font-family="Helvetica,sans-Serif" font-size="10.00"> </text>
<polyline fill="none" stroke="black" points="921,-306.5 1055,-306.5 "/>
<text text-anchor="start" x="929" y="-294.5" font-family="Helvetica,sans-Serif" font-size="10.00">+ AbstractSelectQuery()</text>
<text text-anchor="start" x="929" y="-283.5" font-family="Helvetica,sans-Serif" font-size="10.00"># format()</text>
</a>
</g>
</g>
<!-- Node2&#45;&gt;Node1 -->
<g id="edge1" class="edge"><title>Node2&#45;&gt;Node1</title>
<path fill="none" stroke="midnightblue" d="M988,-265.972C988,-257.346 988,-248.284 988,-239.638"/>
<polygon fill="none" stroke="midnightblue" points="984.5,-266.22 988,-276.22 991.5,-266.22 984.5,-266.22"/>
</g>
<!-- Node3 -->
<g id="node3" class="node"><title>Node3</title>
<g id="a_node3"><a xlink:href="classcom_1_1tomoparts_1_1tomoBay_1_1model_1_1sql_1_1framework_1_1queryTypes_1_1AbstractDBQuery.html" target="_top" xlink:title="Interface that all database queries must adhere to. ">
<polygon fill="white" stroke="black" points="938,-381.5 938,-471.5 1038,-471.5 1038,-381.5 938,-381.5"/>
<text text-anchor="middle" x="988" y="-459.5" font-family="Helvetica,sans-Serif" font-size="10.00">AbstractDBQuery</text>
<polyline fill="none" stroke="black" points="938,-452.5 1038,-452.5 "/>
<text text-anchor="start" x="946" y="-440.5" font-family="Helvetica,sans-Serif" font-size="10.00"># statement_M</text>
<text text-anchor="start" x="946" y="-429.5" font-family="Helvetica,sans-Serif" font-size="10.00"># connection_M</text>
<polyline fill="none" stroke="black" points="938,-422.5 1038,-422.5 "/>
<text text-anchor="start" x="946" y="-410.5" font-family="Helvetica,sans-Serif" font-size="10.00">+ statement()</text>
<text text-anchor="start" x="946" y="-399.5" font-family="Helvetica,sans-Serif" font-size="10.00"># queryString()</text>
<text text-anchor="start" x="946" y="-388.5" font-family="Helvetica,sans-Serif" font-size="10.00"># cleanup()</text>
</a>
</g>
</g>
<!-- Node3&#45;&gt;Node2 -->
<g id="edge2" class="edge"><title>Node3&#45;&gt;Node2</title>
<path fill="none" stroke="midnightblue" d="M988,-371.316C988,-362.285 988,-353.159 988,-344.848"/>
<polygon fill="none" stroke="midnightblue" points="984.5,-371.425 988,-381.425 991.5,-371.425 984.5,-371.425"/>
</g>
</g>
</svg>
        <g id="navigator" transform="translate(0 0)" fill="#404254">
                <rect fill="#f2f5e9" fill-opacity="0.5" stroke="#606060" stroke-width=".5" x="0" y="0" width="60" height="60"/>
                <use id="zoomplus" xlink:href="#zoomPlus" x="17" y="9" onmousedown="handleZoom(evt,'in')"/>
                <use id="zoomminus" xlink:href="#zoomMin" x="42" y="9" onmousedown="handleZoom(evt,'out')"/>
                <use id="reset" xlink:href="#resetDef" x="30" y="36" onmousedown="handleReset()"/>
                <g id="arrowUp" xlink:href="#dirArrow" transform="translate(30 24)" onmousedown="handlePan(0,-1)">
                  <use xlink:href="#rim" fill="#404040">
                        <set attributeName="fill" to="#808080" begin="arrowUp.mouseover" end="arrowUp.mouseout"/>
                  </use>
                  <path fill="none" stroke="white" stroke-width="1.5" d="M0,-3.0v7 M-2.5,-0.5L0,-3.0L2.5,-0.5"/>
                </g>
                <g id="arrowRight" xlink:href="#dirArrow" transform="rotate(90) translate(36 -43)" onmousedown="handlePan(1,0)">
                  <use xlink:href="#rim" fill="#404040">
                        <set attributeName="fill" to="#808080" begin="arrowRight.mouseover" end="arrowRight.mouseout"/>
                  </use>
                  <path fill="none" stroke="white" stroke-width="1.5" d="M0,-3.0v7 M-2.5,-0.5L0,-3.0L2.5,-0.5"/>
                </g>
                <g id="arrowDown" xlink:href="#dirArrow" transform="rotate(180) translate(-30 -48)" onmousedown="handlePan(0,1)">
                  <use xlink:href="#rim" fill="#404040">
                        <set attributeName="fill" to="#808080" begin="arrowDown.mouseover" end="arrowDown.mouseout"/>
                  </use>
                  <path fill="none" stroke="white" stroke-width="1.5" d="M0,-3.0v7 M-2.5,-0.5L0,-3.0L2.5,-0.5"/>
                </g>
                <g id="arrowLeft" xlink:href="#dirArrow" transform="rotate(270) translate(-36 17)" onmousedown="handlePan(-1,0)">
                  <use xlink:href="#rim" fill="#404040">
                        <set attributeName="fill" to="#808080" begin="arrowLeft.mouseover" end="arrowLeft.mouseout"/>
                  </use>
                  <path fill="none" stroke="white" stroke-width="1.5" d="M0,-3.0v7 M-2.5,-0.5L0,-3.0L2.5,-0.5"/>
                </g>
        </g>
        <svg viewBox="0 0 15 15" width="100%" height="30px" preserveAspectRatio="xMaxYMin meet">
         <g id="arrow_out" transform="scale(0.3 0.3)">
          <a xlink:href="classcom_1_1tomoparts_1_1tomoBay_1_1model_1_1sql_1_1framework_1_1queryTypes_1_1select_1_1Abstrac496e5a18f136a822d78ef88aa4a42e72_org.svg" target="_base">
           <rect id="button" ry="5" rx="5" y="6" x="6" height="38" width="38"
                fill="#f2f5e9" fill-opacity="0.5" stroke="#606060" stroke-width="1.0"/>
           <path id="arrow"
             d="M 11.500037,31.436501 C 11.940474,20.09759 22.043105,11.32322 32.158766,21.979434 L 37.068811,17.246167 C 37.068811,17.246167 37.088388,32 37.088388,32 L 22.160133,31.978069 C 22.160133,31.978069 26.997745,27.140456 26.997745,27.140456 C 18.528582,18.264221 13.291696,25.230495 11.500037,31.436501 z"
             style="fill:#404040;"/>
          </a>
         </g>
        </svg>
</svg>
