<?xml version="1.0" encoding="UTF-8" standalone="no"?>
<!DOCTYPE svg PUBLIC "-//W3C//DTD SVG 1.1//EN"
 "http://www.w3.org/Graphics/SVG/1.1/DTD/svg11.dtd">
<!-- Generated by graphviz version 2.38.0 (20140413.2041)
 -->
<!-- Title: Condition Pages: 1 -->
<svg width="448pt" height="193pt"
 viewBox="0.00 0.00 448.00 193.00" xmlns="http://www.w3.org/2000/svg" xmlns:xlink="http://www.w3.org/1999/xlink">
<g id="graph0" class="graph" transform="scale(1 1) rotate(0) translate(4 189)">
<title>Condition</title>
<polygon fill="white" stroke="none" points="-4,4 -4,-189 444,-189 444,4 -4,4"/>
<!-- Node1 -->
<g id="node1" class="node"><title>Node1</title>
<polygon fill="#bfbfbf" stroke="black" points="169,-105.5 169,-184.5 259,-184.5 259,-105.5 169,-105.5"/>
<text text-anchor="middle" x="214" y="-172.5" font-family="Helvetica,sans-Serif" font-size="10.00">Condition</text>
<polyline fill="none" stroke="black" points="169,-165.5 259,-165.5 "/>
<text text-anchor="start" x="177" y="-153.5" font-family="Helvetica,sans-Serif" font-size="10.00">&#45; TRUTH_TABLE</text>
<polyline fill="none" stroke="black" points="169,-146.5 259,-146.5 "/>
<text text-anchor="start" x="177" y="-134.5" font-family="Helvetica,sans-Serif" font-size="10.00">+ Condition()</text>
<text text-anchor="start" x="177" y="-123.5" font-family="Helvetica,sans-Serif" font-size="10.00">+ evaluate()</text>
<text text-anchor="start" x="177" y="-112.5" font-family="Helvetica,sans-Serif" font-size="10.00"># expression()</text>
</g>
<!-- Node2 -->
<g id="node2" class="node"><title>Node2</title>
<g id="a_node2"><a xlink:href="classcom_1_1tomoparts_1_1tomoBay_1_1presenters_1_1helpers_1_1pickeability_1_1AllPickeable.html" target="_top" xlink:title="{AllPickeable\n|&#45; itemStatus_M\l|+ AllPickeable()\l# expression()\l}">
<polygon fill="white" stroke="black" points="0,-0.5 0,-68.5 92,-68.5 92,-0.5 0,-0.5"/>
<text text-anchor="middle" x="46" y="-56.5" font-family="Helvetica,sans-Serif" font-size="10.00">AllPickeable</text>
<polyline fill="none" stroke="black" points="0,-49.5 92,-49.5 "/>
<text text-anchor="start" x="8" y="-37.5" font-family="Helvetica,sans-Serif" font-size="10.00">&#45; itemStatus_M</text>
<polyline fill="none" stroke="black" points="0,-30.5 92,-30.5 "/>
<text text-anchor="start" x="8" y="-18.5" font-family="Helvetica,sans-Serif" font-size="10.00">+ AllPickeable()</text>
<text text-anchor="start" x="8" y="-7.5" font-family="Helvetica,sans-Serif" font-size="10.00"># expression()</text>
</a>
</g>
</g>
<!-- Node1&#45;&gt;Node2 -->
<g id="edge1" class="edge"><title>Node1&#45;&gt;Node2</title>
<path fill="none" stroke="midnightblue" d="M160.403,-109.385C138.398,-95.174 113.176,-78.8844 92.023,-65.2232"/>
<polygon fill="none" stroke="midnightblue" points="158.68,-112.439 168.979,-114.924 162.478,-106.559 158.68,-112.439"/>
</g>
<!-- Node3 -->
<g id="node3" class="node"><title>Node3</title>
<g id="a_node3"><a xlink:href="classcom_1_1tomoparts_1_1tomoBay_1_1presenters_1_1helpers_1_1pickeability_1_1Error.html" target="_top" xlink:title="{Error\n|&#45; itemStatus_M\l|+ Error()\l# expression()\l}">
<polygon fill="white" stroke="black" points="110,-0.5 110,-68.5 200,-68.5 200,-0.5 110,-0.5"/>
<text text-anchor="middle" x="155" y="-56.5" font-family="Helvetica,sans-Serif" font-size="10.00">Error</text>
<polyline fill="none" stroke="black" points="110,-49.5 200,-49.5 "/>
<text text-anchor="start" x="118" y="-37.5" font-family="Helvetica,sans-Serif" font-size="10.00">&#45; itemStatus_M</text>
<polyline fill="none" stroke="black" points="110,-30.5 200,-30.5 "/>
<text text-anchor="start" x="118" y="-18.5" font-family="Helvetica,sans-Serif" font-size="10.00">+ Error()</text>
<text text-anchor="start" x="118" y="-7.5" font-family="Helvetica,sans-Serif" font-size="10.00"># expression()</text>
</a>
</g>
</g>
<!-- Node1&#45;&gt;Node3 -->
<g id="edge2" class="edge"><title>Node1&#45;&gt;Node3</title>
<path fill="none" stroke="midnightblue" d="M188.18,-96.5178C183.049,-87.082 177.767,-77.3687 172.969,-68.5439"/>
<polygon fill="none" stroke="midnightblue" points="185.181,-98.3283 193.033,-105.441 191.33,-94.9843 185.181,-98.3283"/>
</g>
<!-- Node4 -->
<g id="node4" class="node"><title>Node4</title>
<g id="a_node4"><a xlink:href="classcom_1_1tomoparts_1_1tomoBay_1_1presenters_1_1helpers_1_1pickeability_1_1PartialPickeable.html" target="_top" xlink:title="{PartialPickeable\n|&#45; itemStatus_M\l|+ PartialPickeable()\l# expression()\l}">
<polygon fill="white" stroke="black" points="218,-0.5 218,-68.5 328,-68.5 328,-0.5 218,-0.5"/>
<text text-anchor="middle" x="273" y="-56.5" font-family="Helvetica,sans-Serif" font-size="10.00">PartialPickeable</text>
<polyline fill="none" stroke="black" points="218,-49.5 328,-49.5 "/>
<text text-anchor="start" x="226" y="-37.5" font-family="Helvetica,sans-Serif" font-size="10.00">&#45; itemStatus_M</text>
<polyline fill="none" stroke="black" points="218,-30.5 328,-30.5 "/>
<text text-anchor="start" x="226" y="-18.5" font-family="Helvetica,sans-Serif" font-size="10.00">+ PartialPickeable()</text>
<text text-anchor="start" x="226" y="-7.5" font-family="Helvetica,sans-Serif" font-size="10.00"># expression()</text>
</a>
</g>
</g>
<!-- Node1&#45;&gt;Node4 -->
<g id="edge3" class="edge"><title>Node1&#45;&gt;Node4</title>
<path fill="none" stroke="midnightblue" d="M239.82,-96.5178C244.951,-87.082 250.233,-77.3687 255.031,-68.5439"/>
<polygon fill="none" stroke="midnightblue" points="236.67,-94.9843 234.967,-105.441 242.819,-98.3283 236.67,-94.9843"/>
</g>
<!-- Node5 -->
<g id="node5" class="node"><title>Node5</title>
<g id="a_node5"><a xlink:href="classcom_1_1tomoparts_1_1tomoBay_1_1presenters_1_1helpers_1_1pickeability_1_1UnPickeable.html" target="_top" xlink:title="{UnPickeable\n|&#45; itemStatus_M\l|+ UnPickeable()\l# expression()\l}">
<polygon fill="white" stroke="black" points="346,-0.5 346,-68.5 440,-68.5 440,-0.5 346,-0.5"/>
<text text-anchor="middle" x="393" y="-56.5" font-family="Helvetica,sans-Serif" font-size="10.00">UnPickeable</text>
<polyline fill="none" stroke="black" points="346,-49.5 440,-49.5 "/>
<text text-anchor="start" x="354" y="-37.5" font-family="Helvetica,sans-Serif" font-size="10.00">&#45; itemStatus_M</text>
<polyline fill="none" stroke="black" points="346,-30.5 440,-30.5 "/>
<text text-anchor="start" x="354" y="-18.5" font-family="Helvetica,sans-Serif" font-size="10.00">+ UnPickeable()</text>
<text text-anchor="start" x="354" y="-7.5" font-family="Helvetica,sans-Serif" font-size="10.00"># expression()</text>
</a>
</g>
</g>
<!-- Node1&#45;&gt;Node5 -->
<g id="edge4" class="edge"><title>Node1&#45;&gt;Node5</title>
<path fill="none" stroke="midnightblue" d="M267.774,-111.405C292.667,-96.3166 321.97,-78.5544 345.97,-64.0071"/>
<polygon fill="none" stroke="midnightblue" points="265.907,-108.444 259.169,-116.621 269.535,-114.43 265.907,-108.444"/>
</g>
</g>
</svg>
