<?xml version="1.0" encoding="UTF-8" standalone="no"?>
<!DOCTYPE svg PUBLIC "-//W3C//DTD SVG 1.1//EN"
 "http://www.w3.org/Graphics/SVG/1.1/DTD/svg11.dtd">
<!-- Generated by graphviz version 2.38.0 (20140413.2041)
 -->
<!-- Title: onRunning Pages: 1 -->
<svg width="1165pt" height="345pt"
 viewBox="0.00 0.00 1165.00 344.50" xmlns="http://www.w3.org/2000/svg" xmlns:xlink="http://www.w3.org/1999/xlink">
<g id="graph0" class="graph" transform="scale(1 1) rotate(0) translate(4 340.5)">
<title>onRunning</title>
<polygon fill="white" stroke="none" points="-4,4 -4,-340.5 1161,-340.5 1161,4 -4,4"/>
<!-- Node1 -->
<g id="node1" class="node"><title>Node1</title>
<polygon fill="#bfbfbf" stroke="black" points="0,-104 0,-123 67,-123 67,-104 0,-104"/>
<text text-anchor="middle" x="33.5" y="-111" font-family="Helvetica,sans-Serif" font-size="10.00">onRunning</text>
</g>
<!-- Node2 -->
<g id="node2" class="node"><title>Node2</title>
<g id="a_node2"><a xlink:href="classcom_1_1tomoparts_1_1tomoBay_1_1model_1_1services_1_1reScanErrorsService_1_1OnRunning.html#ae4a4f4cadce2787c7e80005639fbd5d9" target="_top" xlink:title="this method defines what to do in the given derived state ">
<polygon fill="white" stroke="black" points="103,-98.5 103,-128.5 328,-128.5 328,-98.5 103,-98.5"/>
<text text-anchor="start" x="111" y="-116.5" font-family="Helvetica,sans-Serif" font-size="10.00">com.tomoparts.tomoBay.model.services.re</text>
<text text-anchor="middle" x="215.5" y="-105.5" font-family="Helvetica,sans-Serif" font-size="10.00">ScanErrorsService.OnRunning.execute</text>
</a>
</g>
</g>
<!-- Node1&#45;&gt;Node2 -->
<g id="edge1" class="edge"><title>Node1&#45;&gt;Node2</title>
<path fill="none" stroke="midnightblue" d="M67.0966,-113.5C74.8342,-113.5 83.5434,-113.5 92.762,-113.5"/>
<polygon fill="midnightblue" stroke="midnightblue" points="92.9434,-117 102.943,-113.5 92.9433,-110 92.9434,-117"/>
</g>
<!-- Node3 -->
<g id="node3" class="node"><title>Node3</title>
<g id="a_node3"><a xlink:href="classcom_1_1tomoparts_1_1tomoBay_1_1model_1_1services_1_1reScanErrorsService_1_1ReScanErrorsWinstockActions.html#a08319255a892c8a0f21883af69843d6c" target="_top" xlink:title="this method checks to see if a particular item (through the ItemSpecifics passed in as an argument) h...">
<polygon fill="white" stroke="black" points="364,-93 364,-134 636,-134 636,-93 364,-93"/>
<text text-anchor="start" x="372" y="-122" font-family="Helvetica,sans-Serif" font-size="10.00">com.tomoparts.tomoBay.model.services.re</text>
<text text-anchor="start" x="372" y="-111" font-family="Helvetica,sans-Serif" font-size="10.00">ScanErrorsService.ReScanErrorsWinstockActions.part</text>
<text text-anchor="middle" x="500" y="-100" font-family="Helvetica,sans-Serif" font-size="10.00">NoHasError</text>
</a>
</g>
</g>
<!-- Node2&#45;&gt;Node3 -->
<g id="edge2" class="edge"><title>Node2&#45;&gt;Node3</title>
<path fill="none" stroke="midnightblue" d="M328.151,-113.5C336.576,-113.5 345.148,-113.5 353.739,-113.5"/>
<polygon fill="midnightblue" stroke="midnightblue" points="353.826,-117 363.826,-113.5 353.826,-110 353.826,-117"/>
</g>
<!-- Node8 -->
<g id="node8" class="node"><title>Node8</title>
<g id="a_node8"><a xlink:href="classcom_1_1tomoparts_1_1tomoBay_1_1model_1_1services_1_1reScanErrorsService_1_1ReScanErrorsDBActions.html#a8a4bbc75f3e9766f7f1c51141551702a" target="_top" xlink:title="returns a list of items from the database that contain errors in the &#39;notes&#39; field of the ebay_items ...">
<polygon fill="white" stroke="black" points="369.5,-14 369.5,-55 630.5,-55 630.5,-14 369.5,-14"/>
<text text-anchor="start" x="377.5" y="-43" font-family="Helvetica,sans-Serif" font-size="10.00">com.tomoparts.tomoBay.model.services.re</text>
<text text-anchor="start" x="377.5" y="-32" font-family="Helvetica,sans-Serif" font-size="10.00">ScanErrorsService.ReScanErrorsDBActions.retrieve</text>
<text text-anchor="middle" x="500" y="-21" font-family="Helvetica,sans-Serif" font-size="10.00">AllErrorItems</text>
</a>
</g>
</g>
<!-- Node2&#45;&gt;Node8 -->
<g id="edge7" class="edge"><title>Node2&#45;&gt;Node8</title>
<path fill="none" stroke="midnightblue" d="M270.301,-98.4548C311.402,-86.9611 368.788,-70.9132 415.793,-57.7685"/>
<polygon fill="midnightblue" stroke="midnightblue" points="416.968,-61.0742 425.656,-55.0103 415.083,-54.3328 416.968,-61.0742"/>
</g>
<!-- Node10 -->
<g id="node10" class="node"><title>Node10</title>
<g id="a_node10"><a xlink:href="classcom_1_1tomoparts_1_1tomoBay_1_1model_1_1services_1_1reScanErrorsService_1_1ReScanErrorsDBActions.html#a686181ed1b6d7f86e1b05653dc98f37e" target="_top" xlink:title="updates the database with corrected information, as provided in the ItemSpecifics passed in as an arg...">
<polygon fill="white" stroke="black" points="371,-191 371,-232 629,-232 629,-191 371,-191"/>
<text text-anchor="start" x="379" y="-220" font-family="Helvetica,sans-Serif" font-size="10.00">com.tomoparts.tomoBay.model.services.re</text>
<text text-anchor="start" x="379" y="-209" font-family="Helvetica,sans-Serif" font-size="10.00">ScanErrorsService.ReScanErrorsDBActions.update</text>
<text text-anchor="middle" x="500" y="-198" font-family="Helvetica,sans-Serif" font-size="10.00">DBwithCorrectedInfo</text>
</a>
</g>
</g>
<!-- Node2&#45;&gt;Node10 -->
<g id="edge9" class="edge"><title>Node2&#45;&gt;Node10</title>
<path fill="none" stroke="midnightblue" d="M260.022,-128.598C305.335,-144.317 376.969,-169.167 430.005,-187.565"/>
<polygon fill="midnightblue" stroke="midnightblue" points="429.086,-190.951 439.681,-190.922 431.38,-184.338 429.086,-190.951"/>
</g>
<!-- Node4 -->
<g id="node4" class="node"><title>Node4</title>
<g id="a_node4"><a xlink:href="classcom_1_1tomoparts_1_1tomoBay_1_1model_1_1services_1_1reScanErrorsService_1_1ItemSpecifics.html#ad28f052945833b0267c4353afcbf58eb" target="_top" xlink:title="returns a particular Item specific ">
<polygon fill="white" stroke="black" points="681,-147.5 681,-177.5 906,-177.5 906,-147.5 681,-147.5"/>
<text text-anchor="start" x="689" y="-165.5" font-family="Helvetica,sans-Serif" font-size="10.00">com.tomoparts.tomoBay.model.services.re</text>
<text text-anchor="middle" x="793.5" y="-154.5" font-family="Helvetica,sans-Serif" font-size="10.00">ScanErrorsService.ItemSpecifics.get</text>
</a>
</g>
</g>
<!-- Node3&#45;&gt;Node4 -->
<g id="edge3" class="edge"><title>Node3&#45;&gt;Node4</title>
<path fill="none" stroke="midnightblue" d="M623.355,-134.067C646.699,-137.991 670.865,-142.054 693.373,-145.837"/>
<polygon fill="midnightblue" stroke="midnightblue" points="692.807,-149.291 703.249,-147.497 693.967,-142.388 692.807,-149.291"/>
</g>
<!-- Node5 -->
<g id="node5" class="node"><title>Node5</title>
<g id="a_node5"><a xlink:href="classcom_1_1tomoparts_1_1tomoBay_1_1model_1_1dataTypes_1_1PartList.html#af4aaf5b8fadfc85ebed2a9c4d683fba5" target="_top" xlink:title="get the part numbers as a whole ">
<polygon fill="white" stroke="black" points="696,-98.5 696,-128.5 891,-128.5 891,-98.5 696,-98.5"/>
<text text-anchor="start" x="704" y="-116.5" font-family="Helvetica,sans-Serif" font-size="10.00">com.tomoparts.tomoBay.model.data</text>
<text text-anchor="middle" x="793.5" y="-105.5" font-family="Helvetica,sans-Serif" font-size="10.00">Types.PartList.getPartNumbers</text>
</a>
</g>
</g>
<!-- Node3&#45;&gt;Node5 -->
<g id="edge4" class="edge"><title>Node3&#45;&gt;Node5</title>
<path fill="none" stroke="midnightblue" d="M636.083,-113.5C652.576,-113.5 669.252,-113.5 685.26,-113.5"/>
<polygon fill="midnightblue" stroke="midnightblue" points="685.674,-117 695.674,-113.5 685.674,-110 685.674,-117"/>
</g>
<!-- Node6 -->
<g id="node6" class="node"><title>Node6</title>
<g id="a_node6"><a xlink:href="classcom_1_1tomoparts_1_1tomoBay_1_1helpers_1_1BrandToCode.html#a10207714bd294d73dd98b80fd94a2ab8" target="_top" xlink:title="converts converts a string like &quot;citroen&quot; or &quot;fOrd&quot; to a brandcode integer specific to winstock...">
<polygon fill="white" stroke="black" points="701,-49.5 701,-79.5 886,-79.5 886,-49.5 701,-49.5"/>
<text text-anchor="start" x="709" y="-67.5" font-family="Helvetica,sans-Serif" font-size="10.00">com.tomoparts.tomoBay.helpers.</text>
<text text-anchor="middle" x="793.5" y="-56.5" font-family="Helvetica,sans-Serif" font-size="10.00">BrandToCode.convertToWinstockInt</text>
</a>
</g>
</g>
<!-- Node3&#45;&gt;Node6 -->
<g id="edge5" class="edge"><title>Node3&#45;&gt;Node6</title>
<path fill="none" stroke="midnightblue" d="M623.355,-92.9326C646.699,-89.0085 670.865,-84.9463 693.373,-81.1628"/>
<polygon fill="midnightblue" stroke="midnightblue" points="693.967,-84.6122 703.249,-79.5028 692.807,-77.709 693.967,-84.6122"/>
</g>
<!-- Node7 -->
<g id="node7" class="node"><title>Node7</title>
<g id="a_node7"><a xlink:href="classcom_1_1tomoparts_1_1tomoBay_1_1helpers_1_1BrandToCode.html#a84072526fa5d5ce298cdceffc81f43e7" target="_top" xlink:title="converts a string like &quot;citroen&quot; or &quot;fOrd&quot; to a brandcode specific to winstock. ">
<polygon fill="white" stroke="black" points="964.5,-49.5 964.5,-79.5 1143.5,-79.5 1143.5,-49.5 964.5,-49.5"/>
<text text-anchor="start" x="972.5" y="-67.5" font-family="Helvetica,sans-Serif" font-size="10.00">com.tomoparts.tomoBay.helpers.</text>
<text text-anchor="middle" x="1054" y="-56.5" font-family="Helvetica,sans-Serif" font-size="10.00">BrandToCode.convert</text>
</a>
</g>
</g>
<!-- Node6&#45;&gt;Node7 -->
<g id="edge6" class="edge"><title>Node6&#45;&gt;Node7</title>
<path fill="none" stroke="midnightblue" d="M886.001,-64.5C908.042,-64.5 931.689,-64.5 954.053,-64.5"/>
<polygon fill="midnightblue" stroke="midnightblue" points="954.228,-68.0001 964.228,-64.5 954.228,-61.0001 954.228,-68.0001"/>
</g>
<!-- Node9 -->
<g id="node9" class="node"><title>Node9</title>
<g id="a_node9"><a xlink:href="classcom_1_1tomoparts_1_1tomoBay_1_1model_1_1sql_1_1framework_1_1SelectQueryInvoker.html#a594282bcbcc0731a7d234482717422d7" target="_top" xlink:title="execute a requested query ">
<polygon fill="white" stroke="black" points="672,-0.5 672,-30.5 915,-30.5 915,-0.5 672,-0.5"/>
<text text-anchor="start" x="680" y="-18.5" font-family="Helvetica,sans-Serif" font-size="10.00">com.tomoparts.tomoBay.model.sql.framework.</text>
<text text-anchor="middle" x="793.5" y="-7.5" font-family="Helvetica,sans-Serif" font-size="10.00">SelectQueryInvoker.execute</text>
</a>
</g>
</g>
<!-- Node8&#45;&gt;Node9 -->
<g id="edge8" class="edge"><title>Node8&#45;&gt;Node9</title>
<path fill="none" stroke="midnightblue" d="M630.554,-26.0557C640.817,-25.3867 651.19,-24.7106 661.463,-24.041"/>
<polygon fill="midnightblue" stroke="midnightblue" points="661.945,-27.5171 671.697,-23.374 661.49,-20.5319 661.945,-27.5171"/>
</g>
<!-- Node10&#45;&gt;Node4 -->
<g id="edge13" class="edge"><title>Node10&#45;&gt;Node4</title>
<path fill="none" stroke="midnightblue" d="M623.355,-190.933C646.699,-187.009 670.865,-182.946 693.373,-179.163"/>
<polygon fill="midnightblue" stroke="midnightblue" points="693.967,-182.612 703.249,-177.503 692.807,-175.709 693.967,-182.612"/>
</g>
<!-- Node11 -->
<g id="node11" class="node"><title>Node11</title>
<g id="a_node11"><a xlink:href="classcom_1_1tomoparts_1_1tomoBay_1_1model_1_1dataTypes_1_1heteroTypeContainer_1_1HeteroFieldContainer.html#a3ba6289417930238a36bfee0056b6398" target="_top" xlink:title="add an arbitrary value to this Field container with the stipulation that this value is of the same ty...">
<polygon fill="white" stroke="black" points="690.5,-295 690.5,-336 896.5,-336 896.5,-295 690.5,-295"/>
<text text-anchor="start" x="698.5" y="-324" font-family="Helvetica,sans-Serif" font-size="10.00">com.tomoparts.tomoBay.model.data</text>
<text text-anchor="start" x="698.5" y="-313" font-family="Helvetica,sans-Serif" font-size="10.00">Types.heteroTypeContainer.HeteroField</text>
<text text-anchor="middle" x="793.5" y="-302" font-family="Helvetica,sans-Serif" font-size="10.00">Container.add</text>
</a>
</g>
</g>
<!-- Node10&#45;&gt;Node11 -->
<g id="edge10" class="edge"><title>Node10&#45;&gt;Node11</title>
<path fill="none" stroke="midnightblue" d="M543.105,-232.035C577.259,-248.124 626.956,-270.262 672,-285.5 678.809,-287.804 685.889,-290.016 693.054,-292.122"/>
<polygon fill="midnightblue" stroke="midnightblue" points="692.281,-295.541 702.858,-294.926 694.206,-288.811 692.281,-295.541"/>
</g>
<!-- Node13 -->
<g id="node13" class="node"><title>Node13</title>
<g id="a_node13"><a xlink:href="classcom_1_1tomoparts_1_1tomoBay_1_1model_1_1sql_1_1framework_1_1ModifyQueryInvoker.html#ab8ef0fdf15f6720620e297c77ab25d46" target="_top" xlink:title="com.tomoparts.tomoBay.model.sql.framework.\lModifyQueryInvoker.execute">
<polygon fill="white" stroke="black" points="672,-245.5 672,-275.5 915,-275.5 915,-245.5 672,-245.5"/>
<text text-anchor="start" x="680" y="-263.5" font-family="Helvetica,sans-Serif" font-size="10.00">com.tomoparts.tomoBay.model.sql.framework.</text>
<text text-anchor="middle" x="793.5" y="-252.5" font-family="Helvetica,sans-Serif" font-size="10.00">ModifyQueryInvoker.execute</text>
</a>
</g>
</g>
<!-- Node10&#45;&gt;Node13 -->
<g id="edge12" class="edge"><title>Node10&#45;&gt;Node13</title>
<path fill="none" stroke="midnightblue" d="M623.355,-232.067C646.699,-235.991 670.865,-240.054 693.373,-243.837"/>
<polygon fill="midnightblue" stroke="midnightblue" points="692.807,-247.291 703.249,-245.497 693.967,-240.388 692.807,-247.291"/>
</g>
<!-- Node14 -->
<g id="node14" class="node"><title>Node14</title>
<g id="a_node14"><a xlink:href="classcom_1_1tomoparts_1_1tomoBay_1_1model_1_1services_1_1reScanErrorsService_1_1ItemSpecifics.html#a6f88f2bf3d7e595a8857570aa6076890" target="_top" xlink:title="provides the itemID associated with this ItemSpecifics object ">
<polygon fill="white" stroke="black" points="681,-196.5 681,-226.5 906,-226.5 906,-196.5 681,-196.5"/>
<text text-anchor="start" x="689" y="-214.5" font-family="Helvetica,sans-Serif" font-size="10.00">com.tomoparts.tomoBay.model.services.re</text>
<text text-anchor="middle" x="793.5" y="-203.5" font-family="Helvetica,sans-Serif" font-size="10.00">ScanErrorsService.ItemSpecifics.getID</text>
</a>
</g>
</g>
<!-- Node10&#45;&gt;Node14 -->
<g id="edge14" class="edge"><title>Node10&#45;&gt;Node14</title>
<path fill="none" stroke="midnightblue" d="M629.28,-211.5C642.913,-211.5 656.752,-211.5 670.312,-211.5"/>
<polygon fill="midnightblue" stroke="midnightblue" points="670.619,-215 680.619,-211.5 670.619,-208 670.619,-215"/>
</g>
<!-- Node12 -->
<g id="node12" class="node"><title>Node12</title>
<g id="a_node12"><a xlink:href="classcom_1_1tomoparts_1_1tomoBay_1_1model_1_1dataTypes_1_1heteroTypeContainer_1_1HeteroFieldContainer.html#a9dee3c01eb5ab16203e1c6820a569484" target="_top" xlink:title="performs a type check, assuming that field and type are of the same type then this method returns tru...">
<polygon fill="white" stroke="black" points="951,-295 951,-336 1157,-336 1157,-295 951,-295"/>
<text text-anchor="start" x="959" y="-324" font-family="Helvetica,sans-Serif" font-size="10.00">com.tomoparts.tomoBay.model.data</text>
<text text-anchor="start" x="959" y="-313" font-family="Helvetica,sans-Serif" font-size="10.00">Types.heteroTypeContainer.HeteroField</text>
<text text-anchor="middle" x="1054" y="-302" font-family="Helvetica,sans-Serif" font-size="10.00">Container.isSameType</text>
</a>
</g>
</g>
<!-- Node11&#45;&gt;Node12 -->
<g id="edge11" class="edge"><title>Node11&#45;&gt;Node12</title>
<path fill="none" stroke="midnightblue" d="M896.666,-315.5C911.114,-315.5 926.034,-315.5 940.66,-315.5"/>
<polygon fill="midnightblue" stroke="midnightblue" points="940.73,-319 950.73,-315.5 940.73,-312 940.73,-319"/>
</g>
</g>
</svg>
