<?xml version="1.0" encoding="UTF-8" standalone="no"?>
<!DOCTYPE svg PUBLIC "-//W3C//DTD SVG 1.1//EN"
 "http://www.w3.org/Graphics/SVG/1.1/DTD/svg11.dtd">
<!-- Generated by graphviz version 2.38.0 (20140413.2041)
 -->
<!-- Title: setINTEGERParam Pages: 1 -->
<svg width="435pt" height="494pt"
 viewBox="0.00 0.00 435.00 493.50" xmlns="http://www.w3.org/2000/svg" xmlns:xlink="http://www.w3.org/1999/xlink">
<g id="graph0" class="graph" transform="scale(1 1) rotate(0) translate(4 489.5)">
<title>setINTEGERParam</title>
<polygon fill="white" stroke="none" points="-4,4 -4,-489.5 431,-489.5 431,4 -4,4"/>
<!-- Node1 -->
<g id="node1" class="node"><title>Node1</title>
<polygon fill="#bfbfbf" stroke="black" points="0,-241 0,-260 104,-260 104,-241 0,-241"/>
<text text-anchor="middle" x="52" y="-248" font-family="Helvetica,sans-Serif" font-size="10.00">setINTEGERParam</text>
</g>
<!-- Node2 -->
<g id="node2" class="node"><title>Node2</title>
<g id="a_node2"><a xlink:href="classcom_1_1tomoparts_1_1tomoBay_1_1model_1_1sql_1_1framework_1_1QueryUtility.html#a2da2ce60a8a037d55bdc69309db4815b" target="_top" xlink:title="private ctor ensures that this class is never instantiated ">
<polygon fill="white" stroke="black" points="247.5,-466 247.5,-485 319.5,-485 319.5,-466 247.5,-466"/>
<text text-anchor="middle" x="283.5" y="-473" font-family="Helvetica,sans-Serif" font-size="10.00">QueryUtility</text>
</a>
</g>
</g>
<!-- Node1&#45;&gt;Node2 -->
<g id="edge1" class="edge"><title>Node1&#45;&gt;Node2</title>
<path fill="none" stroke="midnightblue" d="M54.9751,-270.339C60.2936,-312.277 78.9366,-409.899 140,-456.5 170.555,-479.818 215.916,-481.957 247.212,-479.96"/>
<polygon fill="midnightblue" stroke="midnightblue" points="58.4395,-269.828 53.8258,-260.29 51.4849,-270.623 58.4395,-269.828"/>
</g>
<!-- Node3 -->
<g id="node3" class="node"><title>Node3</title>
<g id="a_node3"><a xlink:href="classcom_1_1tomoparts_1_1tomoBay_1_1model_1_1sql_1_1queries_1_1concreteQueries_1_1update_1_1UpdateInvoiceStatusSRN.html#af9020b85517904668d036bc2bf89433c" target="_top" xlink:title="com.tomoparts.tomoBay.model.sql.queries.concrete\lQueries.update.UpdateInvoiceStatusSRN.setParameters">
<polygon fill="white" stroke="black" points="140,-416.5 140,-446.5 427,-446.5 427,-416.5 140,-416.5"/>
<text text-anchor="start" x="148" y="-434.5" font-family="Helvetica,sans-Serif" font-size="10.00">com.tomoparts.tomoBay.model.sql.queries.concrete</text>
<text text-anchor="middle" x="283.5" y="-423.5" font-family="Helvetica,sans-Serif" font-size="10.00">Queries.update.UpdateInvoiceStatusSRN.setParameters</text>
</a>
</g>
</g>
<!-- Node1&#45;&gt;Node3 -->
<g id="edge2" class="edge"><title>Node1&#45;&gt;Node3</title>
<path fill="none" stroke="midnightblue" d="M57.9288,-270.319C67.4996,-304.359 92.0063,-373.539 140,-407.5 144.813,-410.905 149.943,-413.888 155.291,-416.496"/>
<polygon fill="midnightblue" stroke="midnightblue" points="61.1965,-268.988 55.2432,-260.224 54.4318,-270.788 61.1965,-268.988"/>
</g>
<!-- Node4 -->
<g id="node4" class="node"><title>Node4</title>
<g id="a_node4"><a xlink:href="classcom_1_1tomoparts_1_1tomoBay_1_1model_1_1sql_1_1queries_1_1concreteQueries_1_1update_1_1UpdateInvoiceStatus.html#af9020b85517904668d036bc2bf89433c" target="_top" xlink:title="com.tomoparts.tomoBay.model.sql.queries.concrete\lQueries.update.UpdateInvoiceStatus.setParameters">
<polygon fill="white" stroke="black" points="148.5,-367.5 148.5,-397.5 418.5,-397.5 418.5,-367.5 148.5,-367.5"/>
<text text-anchor="start" x="156.5" y="-385.5" font-family="Helvetica,sans-Serif" font-size="10.00">com.tomoparts.tomoBay.model.sql.queries.concrete</text>
<text text-anchor="middle" x="283.5" y="-374.5" font-family="Helvetica,sans-Serif" font-size="10.00">Queries.update.UpdateInvoiceStatus.setParameters</text>
</a>
</g>
</g>
<!-- Node1&#45;&gt;Node4 -->
<g id="edge3" class="edge"><title>Node1&#45;&gt;Node4</title>
<path fill="none" stroke="midnightblue" d="M62.5159,-269.368C76.0928,-294.177 103.479,-337.113 140,-358.5 145.845,-361.923 152.043,-364.891 158.453,-367.462"/>
<polygon fill="midnightblue" stroke="midnightblue" points="65.4662,-267.459 57.7028,-260.25 59.2758,-270.727 65.4662,-267.459"/>
</g>
<!-- Node5 -->
<g id="node5" class="node"><title>Node5</title>
<g id="a_node5"><a xlink:href="classcom_1_1tomoparts_1_1tomoBay_1_1model_1_1sql_1_1queries_1_1concreteQueries_1_1insert_1_1InsertOutOfHoursOrders.html#af9020b85517904668d036bc2bf89433c" target="_top" xlink:title="com.tomoparts.tomoBay.model.sql.queries.concrete\lQueries.insert.InsertOutOfHoursOrders.setParameters">
<polygon fill="white" stroke="black" points="145.5,-318.5 145.5,-348.5 421.5,-348.5 421.5,-318.5 145.5,-318.5"/>
<text text-anchor="start" x="153.5" y="-336.5" font-family="Helvetica,sans-Serif" font-size="10.00">com.tomoparts.tomoBay.model.sql.queries.concrete</text>
<text text-anchor="middle" x="283.5" y="-325.5" font-family="Helvetica,sans-Serif" font-size="10.00">Queries.insert.InsertOutOfHoursOrders.setParameters</text>
</a>
</g>
</g>
<!-- Node1&#45;&gt;Node5 -->
<g id="edge4" class="edge"><title>Node1&#45;&gt;Node5</title>
<path fill="none" stroke="midnightblue" d="M71.8663,-266.473C88.66,-279.822 114.456,-298.272 140,-308.5 149.677,-312.374 159.961,-315.65 170.402,-318.418"/>
<polygon fill="midnightblue" stroke="midnightblue" points="73.9175,-263.629 63.9538,-260.027 69.4964,-269.057 73.9175,-263.629"/>
</g>
<!-- Node6 -->
<g id="node6" class="node"><title>Node6</title>
<g id="a_node6"><a xlink:href="classcom_1_1tomoparts_1_1tomoBay_1_1model_1_1sql_1_1queries_1_1concreteQueries_1_1select_1_1parac0d31fe89450040cf1dcb1e02765c08b.html#af9020b85517904668d036bc2bf89433c" target="_top" xlink:title="com.tomoparts.tomoBay.model.sql.queries.concrete\lQueries.select.params.SelectEbayOrderHistory\lLastNDays.setParameters">
<polygon fill="white" stroke="black" points="148.5,-258 148.5,-299 418.5,-299 418.5,-258 148.5,-258"/>
<text text-anchor="start" x="156.5" y="-287" font-family="Helvetica,sans-Serif" font-size="10.00">com.tomoparts.tomoBay.model.sql.queries.concrete</text>
<text text-anchor="start" x="156.5" y="-276" font-family="Helvetica,sans-Serif" font-size="10.00">Queries.select.params.SelectEbayOrderHistory</text>
<text text-anchor="middle" x="283.5" y="-265" font-family="Helvetica,sans-Serif" font-size="10.00">LastNDays.setParameters</text>
</a>
</g>
</g>
<!-- Node1&#45;&gt;Node6 -->
<g id="edge5" class="edge"><title>Node1&#45;&gt;Node6</title>
<path fill="none" stroke="midnightblue" d="M114.191,-257.966C124.864,-259.268 136.334,-260.667 148.088,-262.101"/>
<polygon fill="midnightblue" stroke="midnightblue" points="114.569,-254.486 104.219,-256.749 113.721,-261.434 114.569,-254.486"/>
</g>
<!-- Node7 -->
<g id="node7" class="node"><title>Node7</title>
<g id="a_node7"><a xlink:href="classcom_1_1tomoparts_1_1tomoBay_1_1model_1_1sql_1_1queries_1_1concreteQueries_1_1insert_1_1InsertEbayItems.html#af9020b85517904668d036bc2bf89433c" target="_top" xlink:title="com.tomoparts.tomoBay.model.sql.queries.concrete\lQueries.insert.InsertEbayItems.setParameters">
<polygon fill="white" stroke="black" points="148.5,-208.5 148.5,-238.5 418.5,-238.5 418.5,-208.5 148.5,-208.5"/>
<text text-anchor="start" x="156.5" y="-226.5" font-family="Helvetica,sans-Serif" font-size="10.00">com.tomoparts.tomoBay.model.sql.queries.concrete</text>
<text text-anchor="middle" x="283.5" y="-215.5" font-family="Helvetica,sans-Serif" font-size="10.00">Queries.insert.InsertEbayItems.setParameters</text>
</a>
</g>
</g>
<!-- Node1&#45;&gt;Node7 -->
<g id="edge6" class="edge"><title>Node1&#45;&gt;Node7</title>
<path fill="none" stroke="midnightblue" d="M114.482,-243.267C127.027,-241.791 140.664,-240.187 154.563,-238.551"/>
<polygon fill="midnightblue" stroke="midnightblue" points="113.741,-239.83 104.219,-244.474 114.559,-246.782 113.741,-239.83"/>
</g>
<!-- Node8 -->
<g id="node8" class="node"><title>Node8</title>
<g id="a_node8"><a xlink:href="classcom_1_1tomoparts_1_1tomoBay_1_1model_1_1sql_1_1queries_1_1concreteQueries_1_1insert_1_1InsertEbayOrders.html#af9020b85517904668d036bc2bf89433c" target="_top" xlink:title="com.tomoparts.tomoBay.model.sql.queries.concrete\lQueries.insert.InsertEbayOrders.setParameters">
<polygon fill="white" stroke="black" points="148.5,-159.5 148.5,-189.5 418.5,-189.5 418.5,-159.5 148.5,-159.5"/>
<text text-anchor="start" x="156.5" y="-177.5" font-family="Helvetica,sans-Serif" font-size="10.00">com.tomoparts.tomoBay.model.sql.queries.concrete</text>
<text text-anchor="middle" x="283.5" y="-166.5" font-family="Helvetica,sans-Serif" font-size="10.00">Queries.insert.InsertEbayOrders.setParameters</text>
</a>
</g>
</g>
<!-- Node1&#45;&gt;Node8 -->
<g id="edge7" class="edge"><title>Node1&#45;&gt;Node8</title>
<path fill="none" stroke="midnightblue" d="M74.4003,-235.016C91.3807,-223.477 116.149,-208.259 140,-199.5 150.61,-195.604 161.893,-192.305 173.285,-189.513"/>
<polygon fill="midnightblue" stroke="midnightblue" points="72.0329,-232.399 65.8233,-240.984 76.0308,-238.145 72.0329,-232.399"/>
</g>
<!-- Node9 -->
<g id="node9" class="node"><title>Node9</title>
<g id="a_node9"><a xlink:href="classcom_1_1tomoparts_1_1tomoBay_1_1model_1_1sql_1_1queries_1_1concreteQueries_1_1insert_1_1InsertEbayTransactions.html#af9020b85517904668d036bc2bf89433c" target="_top" xlink:title="com.tomoparts.tomoBay.model.sql.queries.concrete\lQueries.insert.InsertEbayTransactions.setParameters">
<polygon fill="white" stroke="black" points="147.5,-110.5 147.5,-140.5 419.5,-140.5 419.5,-110.5 147.5,-110.5"/>
<text text-anchor="start" x="155.5" y="-128.5" font-family="Helvetica,sans-Serif" font-size="10.00">com.tomoparts.tomoBay.model.sql.queries.concrete</text>
<text text-anchor="middle" x="283.5" y="-117.5" font-family="Helvetica,sans-Serif" font-size="10.00">Queries.insert.InsertEbayTransactions.setParameters</text>
</a>
</g>
</g>
<!-- Node1&#45;&gt;Node9 -->
<g id="edge8" class="edge"><title>Node1&#45;&gt;Node9</title>
<path fill="none" stroke="midnightblue" d="M63.5134,-232.056C77.7133,-208.978 105.288,-170.11 140,-150.5 146.779,-146.67 154.006,-143.401 161.473,-140.613"/>
<polygon fill="midnightblue" stroke="midnightblue" points="60.37,-230.494 58.2648,-240.878 66.3858,-234.073 60.37,-230.494"/>
</g>
<!-- Node10 -->
<g id="node10" class="node"><title>Node10</title>
<g id="a_node10"><a xlink:href="classcom_1_1tomoparts_1_1tomoBay_1_1model_1_1sql_1_1queries_1_1concreteQueries_1_1select_1_1params_1_1SelectBuyerByAccAndSRN.html#af9020b85517904668d036bc2bf89433c" target="_top" xlink:title="com.tomoparts.tomoBay.model.sql.queries.concrete\lQueries.select.params.SelectBuyerByAccAndSRN.set\lParameters">
<polygon fill="white" stroke="black" points="147.5,-50 147.5,-91 419.5,-91 419.5,-50 147.5,-50"/>
<text text-anchor="start" x="155.5" y="-79" font-family="Helvetica,sans-Serif" font-size="10.00">com.tomoparts.tomoBay.model.sql.queries.concrete</text>
<text text-anchor="start" x="155.5" y="-68" font-family="Helvetica,sans-Serif" font-size="10.00">Queries.select.params.SelectBuyerByAccAndSRN.set</text>
<text text-anchor="middle" x="283.5" y="-57" font-family="Helvetica,sans-Serif" font-size="10.00">Parameters</text>
</a>
</g>
</g>
<!-- Node1&#45;&gt;Node10 -->
<g id="edge9" class="edge"><title>Node1&#45;&gt;Node10</title>
<path fill="none" stroke="midnightblue" d="M58.5477,-231.436C68.9372,-199.284 94.493,-134.558 140,-101.5 145.428,-97.5567 151.26,-94.0976 157.352,-91.0647"/>
<polygon fill="midnightblue" stroke="midnightblue" points="55.2013,-230.411 55.5988,-240.998 61.8904,-232.474 55.2013,-230.411"/>
</g>
<!-- Node11 -->
<g id="node11" class="node"><title>Node11</title>
<g id="a_node11"><a xlink:href="classcom_1_1tomoparts_1_1tomoBay_1_1model_1_1sql_1_1queries_1_1concreteQueries_1_1select_1_1params_1_1SelectBrandByInv.html#af9020b85517904668d036bc2bf89433c" target="_top" xlink:title="com.tomoparts.tomoBay.model.sql.queries.concrete\lQueries.select.params.SelectBrandByInv.setParameters">
<polygon fill="white" stroke="black" points="140.5,-0.5 140.5,-30.5 426.5,-30.5 426.5,-0.5 140.5,-0.5"/>
<text text-anchor="start" x="148.5" y="-18.5" font-family="Helvetica,sans-Serif" font-size="10.00">com.tomoparts.tomoBay.model.sql.queries.concrete</text>
<text text-anchor="middle" x="283.5" y="-7.5" font-family="Helvetica,sans-Serif" font-size="10.00">Queries.select.params.SelectBrandByInv.setParameters</text>
</a>
</g>
</g>
<!-- Node1&#45;&gt;Node11 -->
<g id="edge10" class="edge"><title>Node1&#45;&gt;Node11</title>
<path fill="none" stroke="midnightblue" d="M54.9977,-230.483C60.36,-188.131 79.0827,-89.345 140,-40.5 144.703,-36.729 149.777,-33.4453 155.11,-30.5908"/>
<polygon fill="midnightblue" stroke="midnightblue" points="51.4966,-230.294 53.8375,-240.627 58.4513,-231.089 51.4966,-230.294"/>
</g>
</g>
</svg>
