<?xml version="1.0" encoding="UTF-8" standalone="no"?>
<!DOCTYPE svg PUBLIC "-//W3C//DTD SVG 1.1//EN"
 "http://www.w3.org/Graphics/SVG/1.1/DTD/svg11.dtd">
<!-- Generated by graphviz version 2.38.0 (20140413.2041)
 -->
<!-- Title: shippingCost Pages: 1 -->
<svg width="934pt" height="208pt"
 viewBox="0.00 0.00 934.00 207.59" xmlns="http://www.w3.org/2000/svg" xmlns:xlink="http://www.w3.org/1999/xlink">
<g id="graph0" class="graph" transform="scale(1 1) rotate(0) translate(4 203.586)">
<title>shippingCost</title>
<polygon fill="white" stroke="none" points="-4,4 -4,-203.586 930,-203.586 930,4 -4,4"/>
<!-- Node1 -->
<g id="node1" class="node"><title>Node1</title>
<polygon fill="#bfbfbf" stroke="black" points="0,-66.5 0,-85.5 78,-85.5 78,-66.5 0,-66.5"/>
<text text-anchor="middle" x="39" y="-73.5" font-family="Helvetica,sans-Serif" font-size="10.00">shippingCost</text>
</g>
<!-- Node2 -->
<g id="node2" class="node"><title>Node2</title>
<g id="a_node2"><a xlink:href="classcom_1_1tomoparts_1_1tomoBay_1_1model_1_1dataTypes_1_1financial_1_1SalesOrderDayBook_1_1SalesDayBookLineFactory.html#a2d63fd7591115332417a84014f39b204" target="_top" xlink:title="create the requested AbstractSalesDayBookLine. ">
<polygon fill="white" stroke="black" points="141,-131.5 141,-172.5 336,-172.5 336,-131.5 141,-131.5"/>
<text text-anchor="start" x="149" y="-160.5" font-family="Helvetica,sans-Serif" font-size="10.00">com.tomoparts.tomoBay.model.data</text>
<text text-anchor="start" x="149" y="-149.5" font-family="Helvetica,sans-Serif" font-size="10.00">Types.financial.SalesOrderDayBook.</text>
<text text-anchor="middle" x="238.5" y="-138.5" font-family="Helvetica,sans-Serif" font-size="10.00">SalesDayBookLineFactory.make</text>
</a>
</g>
</g>
<!-- Node1&#45;&gt;Node2 -->
<g id="edge1" class="edge"><title>Node1&#45;&gt;Node2</title>
<path fill="none" stroke="midnightblue" d="M74.6996,-89.3527C104.957,-100.996 149.325,-118.069 184.104,-131.453"/>
<polygon fill="midnightblue" stroke="midnightblue" points="75.6034,-85.9504 65.0135,-85.6255 73.0894,-92.4834 75.6034,-85.9504"/>
</g>
<!-- Node6 -->
<g id="node6" class="node"><title>Node6</title>
<g id="a_node6"><a xlink:href="classcom_1_1tomoparts_1_1tomoBay_1_1presenters_1_1presenterActions_1_1concreteActions_1_1OrderInfo.html#ab4b3569de633225260e7e17c8947c8c5" target="_top" xlink:title="formats the shipping information associated with this order ">
<polygon fill="white" stroke="black" points="117.5,-61 117.5,-91 359.5,-91 359.5,-61 117.5,-61"/>
<text text-anchor="start" x="125.5" y="-79" font-family="Helvetica,sans-Serif" font-size="10.00">com.tomoparts.tomoBay.presenters.presenter</text>
<text text-anchor="middle" x="238.5" y="-68" font-family="Helvetica,sans-Serif" font-size="10.00">Actions.concreteActions.OrderInfo.shippingInfo</text>
</a>
</g>
</g>
<!-- Node1&#45;&gt;Node6 -->
<g id="edge5" class="edge"><title>Node1&#45;&gt;Node6</title>
<path fill="none" stroke="midnightblue" d="M88.3258,-76C97.3794,-76 107.206,-76 117.349,-76"/>
<polygon fill="midnightblue" stroke="midnightblue" points="88.08,-72.5001 78.08,-76 88.08,-79.5001 88.08,-72.5001"/>
</g>
<!-- Node8 -->
<g id="node8" class="node"><title>Node8</title>
<g id="a_node8"><a xlink:href="classcom_1_1tomoparts_1_1tomoBay_1_1model_1_1dataTypes_1_1financial_1_1SalesOrderDayBook_1_1conc0f525c284f2a5ac946be158d6b0f9d09.html#ad4699f0815895232592f2e0a89f67b39" target="_top" xlink:title="com.tomoparts.tomoBay.model.data\lTypes.financial.SalesOrderDayBook.concrete\lLineTypes.StandardInvoiceShippingLine.unitPrice">
<polygon fill="white" stroke="black" points="114,-0.5 114,-41.5 363,-41.5 363,-0.5 114,-0.5"/>
<text text-anchor="start" x="122" y="-29.5" font-family="Helvetica,sans-Serif" font-size="10.00">com.tomoparts.tomoBay.model.data</text>
<text text-anchor="start" x="122" y="-18.5" font-family="Helvetica,sans-Serif" font-size="10.00">Types.financial.SalesOrderDayBook.concrete</text>
<text text-anchor="middle" x="238.5" y="-7.5" font-family="Helvetica,sans-Serif" font-size="10.00">LineTypes.StandardInvoiceShippingLine.unitPrice</text>
</a>
</g>
</g>
<!-- Node1&#45;&gt;Node8 -->
<g id="edge8" class="edge"><title>Node1&#45;&gt;Node8</title>
<path fill="none" stroke="midnightblue" d="M76.1918,-63.0678C88.1578,-58.9814 101.586,-54.5973 114,-51 125.232,-47.7452 137.107,-44.5523 148.877,-41.535"/>
<polygon fill="midnightblue" stroke="midnightblue" points="74.8452,-59.83 66.5385,-66.4065 77.1333,-66.4455 74.8452,-59.83"/>
</g>
<!-- Node3 -->
<g id="node3" class="node"><title>Node3</title>
<g id="a_node3"><a xlink:href="classcom_1_1tomoparts_1_1tomoBay_1_1presenters_1_1presenterActions_1_1concreteActions_1_1OrderInfo.html#adb3dedf31dc2c7fc796f20406c235ccd" target="_top" xlink:title="performs the action specified ">
<polygon fill="white" stroke="black" points="684,-121 684,-151 926,-151 926,-121 684,-121"/>
<text text-anchor="start" x="692" y="-139" font-family="Helvetica,sans-Serif" font-size="10.00">com.tomoparts.tomoBay.presenters.presenter</text>
<text text-anchor="middle" x="805" y="-128" font-family="Helvetica,sans-Serif" font-size="10.00">Actions.concreteActions.OrderInfo.execute</text>
</a>
</g>
</g>
<!-- Node2&#45;&gt;Node3 -->
<g id="edge2" class="edge"><title>Node2&#45;&gt;Node3</title>
<path fill="none" stroke="midnightblue" d="M324.156,-174.774C348.164,-180.229 374.452,-185.264 399,-188 508.986,-200.258 538.762,-205.727 648,-188 691.115,-181.003 738.416,-163.796 769.499,-151.082"/>
<polygon fill="midnightblue" stroke="midnightblue" points="324.906,-171.355 314.373,-172.5 323.321,-178.173 324.906,-171.355"/>
</g>
<!-- Node4 -->
<g id="node4" class="node"><title>Node4</title>
<g id="a_node4"><a xlink:href="classcom_1_1tomoparts_1_1tomoBay_1_1presenters_1_1presenterActions_1_1concreteActions_1_1PrintInvoices.html#adb3dedf31dc2c7fc796f20406c235ccd" target="_top" xlink:title="performs the action specified ">
<polygon fill="white" stroke="black" points="402.5,-148 402.5,-178 644.5,-178 644.5,-148 402.5,-148"/>
<text text-anchor="start" x="410.5" y="-166" font-family="Helvetica,sans-Serif" font-size="10.00">com.tomoparts.tomoBay.presenters.presenter</text>
<text text-anchor="middle" x="523.5" y="-155" font-family="Helvetica,sans-Serif" font-size="10.00">Actions.concreteActions.PrintInvoices.execute</text>
</a>
</g>
</g>
<!-- Node2&#45;&gt;Node4 -->
<g id="edge3" class="edge"><title>Node2&#45;&gt;Node4</title>
<path fill="none" stroke="midnightblue" d="M346.186,-156.147C364.508,-156.859 383.661,-157.603 402.308,-158.328"/>
<polygon fill="midnightblue" stroke="midnightblue" points="346.229,-152.646 336.101,-155.755 345.958,-159.641 346.229,-152.646"/>
</g>
<!-- Node5 -->
<g id="node5" class="node"><title>Node5</title>
<g id="a_node5"><a xlink:href="classcom_1_1tomoparts_1_1tomoBay_1_1presenters_1_1presenterActions_1_1concreteActions_1_1InvoiceOrders.html#adb3dedf31dc2c7fc796f20406c235ccd" target="_top" xlink:title="performs the action specified ">
<polygon fill="white" stroke="black" points="402.5,-99 402.5,-129 644.5,-129 644.5,-99 402.5,-99"/>
<text text-anchor="start" x="410.5" y="-117" font-family="Helvetica,sans-Serif" font-size="10.00">com.tomoparts.tomoBay.presenters.presenter</text>
<text text-anchor="middle" x="523.5" y="-106" font-family="Helvetica,sans-Serif" font-size="10.00">Actions.concreteActions.InvoiceOrders.execute</text>
</a>
</g>
</g>
<!-- Node2&#45;&gt;Node5 -->
<g id="edge4" class="edge"><title>Node2&#45;&gt;Node5</title>
<path fill="none" stroke="midnightblue" d="M346.052,-137.693C367.19,-134.854 389.438,-131.867 410.743,-129.006"/>
<polygon fill="midnightblue" stroke="midnightblue" points="345.546,-134.229 336.101,-139.029 346.478,-141.167 345.546,-134.229"/>
</g>
<!-- Node7 -->
<g id="node7" class="node"><title>Node7</title>
<g id="a_node7"><a xlink:href="classcom_1_1tomoparts_1_1tomoBay_1_1presenters_1_1presenterActions_1_1concreteActions_1_1OrderInfo.html#afeec1aeda079b77245edea1e74b25f33" target="_top" xlink:title="assembles the various parts of the order and outputs it as a fully formed JSON string. ">
<polygon fill="white" stroke="black" points="399,-50 399,-80 648,-80 648,-50 399,-50"/>
<text text-anchor="start" x="407" y="-68" font-family="Helvetica,sans-Serif" font-size="10.00">com.tomoparts.tomoBay.presenters.presenter</text>
<text text-anchor="middle" x="523.5" y="-57" font-family="Helvetica,sans-Serif" font-size="10.00">Actions.concreteActions.OrderInfo.formatResults</text>
</a>
</g>
</g>
<!-- Node6&#45;&gt;Node7 -->
<g id="edge6" class="edge"><title>Node6&#45;&gt;Node7</title>
<path fill="none" stroke="midnightblue" d="M369.579,-70.9439C379.267,-70.5674 389.026,-70.188 398.674,-69.813"/>
<polygon fill="midnightblue" stroke="midnightblue" points="369.374,-67.4492 359.517,-71.335 369.646,-74.4439 369.374,-67.4492"/>
</g>
<!-- Node7&#45;&gt;Node3 -->
<g id="edge7" class="edge"><title>Node7&#45;&gt;Node3</title>
<path fill="none" stroke="midnightblue" d="M614.128,-82.1869C625.562,-84.66 637.08,-87.2901 648,-90 684.86,-99.1468 726.05,-111.38 756.845,-120.932"/>
<polygon fill="midnightblue" stroke="midnightblue" points="614.629,-78.7151 604.119,-80.056 613.171,-85.5617 614.629,-78.7151"/>
</g>
</g>
</svg>
