<?xml version="1.0" encoding="UTF-8" standalone="no"?>
<!DOCTYPE svg PUBLIC "-//W3C//DTD SVG 1.1//EN"
 "http://www.w3.org/Graphics/SVG/1.1/DTD/svg11.dtd">
<!-- Generated by graphviz version 2.38.0 (20140413.2041)
 -->
<!-- Title: EmailErrorsMailActions Pages: 1 -->
<svg width="647pt" height="164pt"
 viewBox="0.00 0.00 647.00 164.00" xmlns="http://www.w3.org/2000/svg" xmlns:xlink="http://www.w3.org/1999/xlink">
<g id="graph0" class="graph" transform="scale(1 1) rotate(0) translate(4 160)">
<title>EmailErrorsMailActions</title>
<polygon fill="white" stroke="none" points="-4,4 -4,-160 643,-160 643,4 -4,4"/>
<!-- Node1 -->
<g id="node1" class="node"><title>Node1</title>
<polygon fill="#bfbfbf" stroke="black" points="0,-55 0,-74 125,-74 125,-55 0,-55"/>
<text text-anchor="middle" x="62.5" y="-62" font-family="Helvetica,sans-Serif" font-size="10.00">EmailErrorsMailActions</text>
</g>
<!-- Node2 -->
<g id="node2" class="node"><title>Node2</title>
<g id="a_node2"><a xlink:href="classcom_1_1tomoparts_1_1tomoBay_1_1model_1_1net_1_1email_1_1EmailDirector.html#adf12228c8c87e1262bbaf8b71fb856fc" target="_top" xlink:title="initialises the email and server objects ready to be retrieved by the get methods. ">
<polygon fill="white" stroke="black" points="161,-98.5 161,-128.5 382,-128.5 382,-98.5 161,-98.5"/>
<text text-anchor="start" x="169" y="-116.5" font-family="Helvetica,sans-Serif" font-size="10.00">com.tomoparts.tomoBay.model.net.email.</text>
<text text-anchor="middle" x="271.5" y="-105.5" font-family="Helvetica,sans-Serif" font-size="10.00">EmailDirector.constructEmailAndServer</text>
</a>
</g>
</g>
<!-- Node1&#45;&gt;Node2 -->
<g id="edge1" class="edge"><title>Node1&#45;&gt;Node2</title>
<path fill="none" stroke="midnightblue" d="M99.5412,-74.0642C117.9,-78.8541 140.599,-84.6503 161,-89.5 170.443,-91.7448 180.363,-94.0259 190.216,-96.244"/>
<polygon fill="midnightblue" stroke="midnightblue" points="189.503,-99.6709 200.026,-98.4373 191.03,-92.8396 189.503,-99.6709"/>
</g>
<!-- Node5 -->
<g id="node5" class="node"><title>Node5</title>
<g id="a_node5"><a xlink:href="classcom_1_1tomoparts_1_1tomoBay_1_1model_1_1net_1_1email_1_1EmailDirector.html#a3d3dfac26428314d44bcb6d860c2edc8" target="_top" xlink:title="returns the email object after it has been initialised using the builder provided to the constructEma...">
<polygon fill="white" stroke="black" points="161,-49.5 161,-79.5 382,-79.5 382,-49.5 161,-49.5"/>
<text text-anchor="start" x="169" y="-67.5" font-family="Helvetica,sans-Serif" font-size="10.00">com.tomoparts.tomoBay.model.net.email.</text>
<text text-anchor="middle" x="271.5" y="-56.5" font-family="Helvetica,sans-Serif" font-size="10.00">EmailDirector.getEmail</text>
</a>
</g>
</g>
<!-- Node1&#45;&gt;Node5 -->
<g id="edge4" class="edge"><title>Node1&#45;&gt;Node5</title>
<path fill="none" stroke="midnightblue" d="M125.046,-64.5C133.272,-64.5 141.924,-64.5 150.737,-64.5"/>
<polygon fill="midnightblue" stroke="midnightblue" points="150.741,-68.0001 160.741,-64.5 150.741,-61.0001 150.741,-68.0001"/>
</g>
<!-- Node6 -->
<g id="node6" class="node"><title>Node6</title>
<g id="a_node6"><a xlink:href="classcom_1_1tomoparts_1_1tomoBay_1_1model_1_1net_1_1email_1_1EmailDirector.html#a37f3f83a029e5330f47fbf564e17ebb3" target="_top" xlink:title="Provides functionality to access a MailServerSend object, which allows the sending of an Email...">
<polygon fill="white" stroke="black" points="161,-0.5 161,-30.5 382,-30.5 382,-0.5 161,-0.5"/>
<text text-anchor="start" x="169" y="-18.5" font-family="Helvetica,sans-Serif" font-size="10.00">com.tomoparts.tomoBay.model.net.email.</text>
<text text-anchor="middle" x="271.5" y="-7.5" font-family="Helvetica,sans-Serif" font-size="10.00">EmailDirector.getMailSendServer</text>
</a>
</g>
</g>
<!-- Node1&#45;&gt;Node6 -->
<g id="edge5" class="edge"><title>Node1&#45;&gt;Node6</title>
<path fill="none" stroke="midnightblue" d="M101.899,-54.8892C119.838,-50.4402 141.494,-45.1271 161,-40.5 171.604,-37.9845 182.797,-35.3758 193.817,-32.8345"/>
<polygon fill="midnightblue" stroke="midnightblue" points="194.905,-36.1758 203.866,-30.5241 193.336,-29.3537 194.905,-36.1758"/>
</g>
<!-- Node3 -->
<g id="node3" class="node"><title>Node3</title>
<g id="a_node3"><a xlink:href="classcom_1_1tomoparts_1_1tomoBay_1_1model_1_1net_1_1email_1_1AbstractEmailBuilder.html#a4f128fdcd61c6889df2df17738e083fe" target="_top" xlink:title="builds the Email object ">
<polygon fill="white" stroke="black" points="418,-125.5 418,-155.5 639,-155.5 639,-125.5 418,-125.5"/>
<text text-anchor="start" x="426" y="-143.5" font-family="Helvetica,sans-Serif" font-size="10.00">com.tomoparts.tomoBay.model.net.email.</text>
<text text-anchor="middle" x="528.5" y="-132.5" font-family="Helvetica,sans-Serif" font-size="10.00">AbstractEmailBuilder.buildEmail</text>
</a>
</g>
</g>
<!-- Node2&#45;&gt;Node3 -->
<g id="edge2" class="edge"><title>Node2&#45;&gt;Node3</title>
<path fill="none" stroke="midnightblue" d="M382.123,-125.107C390.661,-126.011 399.308,-126.927 407.907,-127.837"/>
<polygon fill="midnightblue" stroke="midnightblue" points="407.657,-131.33 417.97,-128.903 408.394,-124.369 407.657,-131.33"/>
</g>
<!-- Node4 -->
<g id="node4" class="node"><title>Node4</title>
<g id="a_node4"><a xlink:href="classcom_1_1tomoparts_1_1tomoBay_1_1model_1_1net_1_1email_1_1AbstractEmailBuilder.html#a639a9a43711a6d861c0215cfd21a618e" target="_top" xlink:title="populates the MailServerSend object with a specific configuration ">
<polygon fill="white" stroke="black" points="418,-65 418,-106 639,-106 639,-65 418,-65"/>
<text text-anchor="start" x="426" y="-94" font-family="Helvetica,sans-Serif" font-size="10.00">com.tomoparts.tomoBay.model.net.email.</text>
<text text-anchor="start" x="426" y="-83" font-family="Helvetica,sans-Serif" font-size="10.00">AbstractEmailBuilder.buildMailServerSend</text>
<text text-anchor="middle" x="528.5" y="-72" font-family="Helvetica,sans-Serif" font-size="10.00">Connection</text>
</a>
</g>
</g>
<!-- Node2&#45;&gt;Node4 -->
<g id="edge3" class="edge"><title>Node2&#45;&gt;Node4</title>
<path fill="none" stroke="midnightblue" d="M382.123,-101.463C390.661,-100.525 399.308,-99.576 407.907,-98.6318"/>
<polygon fill="midnightblue" stroke="midnightblue" points="408.412,-102.098 417.97,-97.5269 407.647,-95.1393 408.412,-102.098"/>
</g>
</g>
</svg>
