<?xml version="1.0" encoding="UTF-8" standalone="no"?>
<!DOCTYPE svg PUBLIC "-//W3C//DTD SVG 1.1//EN"
 "http://www.w3.org/Graphics/SVG/1.1/DTD/svg11.dtd">
<!-- Generated by graphviz version 2.38.0 (20140413.2041)
 -->
<!-- Title: OutOfHoursTable Pages: 1 -->
<svg width="329pt" height="299pt"
 viewBox="0.00 0.00 329.00 299.00" xmlns="http://www.w3.org/2000/svg" xmlns:xlink="http://www.w3.org/1999/xlink">
<g id="graph0" class="graph" transform="scale(1 1) rotate(0) translate(4 295)">
<title>OutOfHoursTable</title>
<polygon fill="white" stroke="none" points="-4,4 -4,-295 325,-295 325,4 -4,4"/>
<!-- Node1 -->
<g id="node1" class="node"><title>Node1</title>
<polygon fill="#bfbfbf" stroke="black" points="99,-0.5 99,-57.5 212,-57.5 212,-0.5 99,-0.5"/>
<text text-anchor="middle" x="155.5" y="-45.5" font-family="Helvetica,sans-Serif" font-size="10.00">OutOfHoursTable</text>
<polyline fill="none" stroke="black" points="99,-38.5 212,-38.5 "/>
<text text-anchor="middle" x="155.5" y="-26.5" font-family="Helvetica,sans-Serif" font-size="10.00"> </text>
<polyline fill="none" stroke="black" points="99,-19.5 212,-19.5 "/>
<text text-anchor="start" x="107" y="-7.5" font-family="Helvetica,sans-Serif" font-size="10.00">&#45; OutOfHoursTable()</text>
</g>
<!-- Node2 -->
<g id="node2" class="node"><title>Node2</title>
<g id="a_node2"><a xlink:href="interfacecom_1_1tomoparts_1_1tomoBay_1_1model_1_1dataTypes_1_1heteroTypeContainer_1_1AbstractTypeSchema.html" target="_top" xlink:title="Derived types of this class represent the schema for a specific database and should only contain publ...">
<polygon fill="white" stroke="black" points="0,-116.5 0,-173.5 119,-173.5 119,-116.5 0,-116.5"/>
<text text-anchor="middle" x="59.5" y="-161.5" font-family="Helvetica,sans-Serif" font-size="10.00">AbstractTypeSchema</text>
<polyline fill="none" stroke="black" points="0,-154.5 119,-154.5 "/>
<text text-anchor="middle" x="59.5" y="-142.5" font-family="Helvetica,sans-Serif" font-size="10.00"> </text>
<polyline fill="none" stroke="black" points="0,-135.5 119,-135.5 "/>
<text text-anchor="middle" x="59.5" y="-123.5" font-family="Helvetica,sans-Serif" font-size="10.00"> </text>
</a>
</g>
</g>
<!-- Node2&#45;&gt;Node1 -->
<g id="edge1" class="edge"><title>Node2&#45;&gt;Node1</title>
<path fill="none" stroke="midnightblue" d="M89.2981,-108.615C103.095,-92.2312 119.247,-73.0509 132.142,-57.7372"/>
<polygon fill="none" stroke="midnightblue" points="86.5031,-106.5 82.7389,-116.404 91.8575,-111.009 86.5031,-106.5"/>
</g>
<!-- Node3 -->
<g id="node3" class="node"><title>Node3</title>
<g id="a_node3"><a xlink:href="interfacecom_1_1tomoparts_1_1tomoBay_1_1model_1_1dataTypes_1_1heteroTypeContainer_1_1AbstractField.html" target="_top" xlink:title="This interface is the abstract base for all derived AbstractDBField types, and represents a a column ...">
<polygon fill="white" stroke="black" points="156,-222.5 156,-290.5 235,-290.5 235,-222.5 156,-222.5"/>
<text text-anchor="middle" x="195.5" y="-278.5" font-family="Helvetica,sans-Serif" font-size="10.00">AbstractField</text>
<polyline fill="none" stroke="black" points="156,-271.5 235,-271.5 "/>
<text text-anchor="middle" x="195.5" y="-259.5" font-family="Helvetica,sans-Serif" font-size="10.00"> </text>
<polyline fill="none" stroke="black" points="156,-252.5 235,-252.5 "/>
<text text-anchor="start" x="164" y="-240.5" font-family="Helvetica,sans-Serif" font-size="10.00">+ type()</text>
<text text-anchor="start" x="164" y="-229.5" font-family="Helvetica,sans-Serif" font-size="10.00">+ size()</text>
</a>
</g>
</g>
<!-- Node3&#45;&gt;Node1 -->
<g id="edge2" class="edge"><title>Node3&#45;&gt;Node1</title>
<path fill="none" stroke="#404040" d="M177.991,-222.287C172.72,-210.785 167.534,-197.61 164.5,-185 155.272,-146.649 153.653,-101.495 153.96,-69.8474"/>
<polygon fill="none" stroke="#404040" points="153.964,-69.5867 150.073,-63.5154 154.181,-57.5886 158.072,-63.6599 153.964,-69.5867"/>
<text text-anchor="middle" x="208.5" y="-142.5" font-family="Helvetica,sans-Serif" font-size="10.00"> +SALES_REC_NO</text>
</g>
<!-- Node4 -->
<g id="node4" class="node"><title>Node4</title>
<g id="a_node4"><a xlink:href="classcom_1_1tomoparts_1_1tomoBay_1_1model_1_1sql_1_1schema_1_1outOfHoursTable_1_1Date.html" target="_top" xlink:title="This class represents the date field of the out_of_hours table in the database. ">
<polygon fill="white" stroke="black" points="262,-105.5 262,-184.5 321,-184.5 321,-105.5 262,-105.5"/>
<text text-anchor="middle" x="291.5" y="-172.5" font-family="Helvetica,sans-Serif" font-size="10.00">Date</text>
<polyline fill="none" stroke="black" points="262,-165.5 321,-165.5 "/>
<text text-anchor="start" x="270" y="-153.5" font-family="Helvetica,sans-Serif" font-size="10.00">&#45; size_M</text>
<polyline fill="none" stroke="black" points="262,-146.5 321,-146.5 "/>
<text text-anchor="start" x="270" y="-134.5" font-family="Helvetica,sans-Serif" font-size="10.00">+ Date()</text>
<text text-anchor="start" x="270" y="-123.5" font-family="Helvetica,sans-Serif" font-size="10.00">+ type()</text>
<text text-anchor="start" x="270" y="-112.5" font-family="Helvetica,sans-Serif" font-size="10.00">+ size()</text>
</a>
</g>
</g>
<!-- Node3&#45;&gt;Node4 -->
<g id="edge4" class="edge"><title>Node3&#45;&gt;Node4</title>
<path fill="none" stroke="midnightblue" d="M231.375,-214.58C241.423,-203.119 252.23,-190.793 261.872,-179.795"/>
<polygon fill="none" stroke="midnightblue" points="228.524,-212.522 224.564,-222.349 233.788,-217.137 228.524,-212.522"/>
</g>
<!-- Node4&#45;&gt;Node1 -->
<g id="edge3" class="edge"><title>Node4&#45;&gt;Node1</title>
<path fill="none" stroke="#404040" d="M261.824,-117.399C257.062,-113.217 252.166,-108.967 247.5,-105 232.174,-91.9704 215.159,-77.9724 199.972,-65.6391"/>
<polygon fill="none" stroke="#404040" points="199.618,-65.3526 192.438,-64.6859 190.291,-57.8016 197.472,-58.4683 199.618,-65.3526"/>
<text text-anchor="middle" x="244" y="-79" font-family="Helvetica,sans-Serif" font-size="10.00"> +DATE</text>
</g>
</g>
</svg>
