<?xml version="1.0" encoding="UTF-8" standalone="no"?>
<!DOCTYPE svg PUBLIC "-//W3C//DTD SVG 1.1//EN"
 "http://www.w3.org/Graphics/SVG/1.1/DTD/svg11.dtd">
<!-- Generated by graphviz version 2.38.0 (20140413.2041)
 -->
<!-- Title: UpdateOrderStatusConfig Pages: 1 -->
<svg width="272pt" height="259pt"
 viewBox="0.00 0.00 271.50 259.00" xmlns="http://www.w3.org/2000/svg" xmlns:xlink="http://www.w3.org/1999/xlink">
<g id="graph0" class="graph" transform="scale(1 1) rotate(0) translate(4 255)">
<title>UpdateOrderStatusConfig</title>
<polygon fill="white" stroke="none" points="-4,4 -4,-255 267.5,-255 267.5,4 -4,4"/>
<!-- Node1 -->
<g id="node1" class="node"><title>Node1</title>
<polygon fill="#bfbfbf" stroke="black" points="60.5,-0.5 60.5,-68.5 200.5,-68.5 200.5,-0.5 60.5,-0.5"/>
<text text-anchor="middle" x="130.5" y="-56.5" font-family="Helvetica,sans-Serif" font-size="10.00">UpdateOrderStatusConfig</text>
<polyline fill="none" stroke="black" points="60.5,-49.5 200.5,-49.5 "/>
<text text-anchor="middle" x="130.5" y="-37.5" font-family="Helvetica,sans-Serif" font-size="10.00"> </text>
<polyline fill="none" stroke="black" points="60.5,-30.5 200.5,-30.5 "/>
<text text-anchor="start" x="68.5" y="-18.5" font-family="Helvetica,sans-Serif" font-size="10.00">+ configure()</text>
<text text-anchor="start" x="68.5" y="-7.5" font-family="Helvetica,sans-Serif" font-size="10.00">+ configure()</text>
</g>
<!-- Node2 -->
<g id="node2" class="node"><title>Node2</title>
<g id="a_node2"><a xlink:href="interfacecom_1_1tomoparts_1_1tomoBay_1_1model_1_1services_1_1AbstractConfiguration.html" target="_top" xlink:title="Copyright(C) 2015 Jan P.C. ">
<polygon fill="white" stroke="black" points="0,-144 0,-223 121,-223 121,-144 0,-144"/>
<text text-anchor="start" x="8" y="-211" font-family="Helvetica,sans-Serif" font-size="10.00">AbstractConfiguration</text>
<text text-anchor="middle" x="60.5" y="-200" font-family="Helvetica,sans-Serif" font-size="10.00">&lt; OrderStatus &gt;</text>
<polyline fill="none" stroke="black" points="0,-193 121,-193 "/>
<text text-anchor="middle" x="60.5" y="-181" font-family="Helvetica,sans-Serif" font-size="10.00"> </text>
<polyline fill="none" stroke="black" points="0,-174 121,-174 "/>
<text text-anchor="start" x="8" y="-162" font-family="Helvetica,sans-Serif" font-size="10.00">+ configure()</text>
<text text-anchor="start" x="8" y="-151" font-family="Helvetica,sans-Serif" font-size="10.00">+ configure()</text>
</a>
</g>
</g>
<!-- Node2&#45;&gt;Node1 -->
<g id="edge1" class="edge"><title>Node2&#45;&gt;Node1</title>
<path fill="none" stroke="midnightblue" d="M83.315,-134.588C93.5438,-113.108 105.359,-88.2958 114.608,-68.8738"/>
<polygon fill="none" stroke="midnightblue" points="80.0311,-133.344 78.8917,-143.877 86.3511,-136.354 80.0311,-133.344"/>
</g>
<!-- Node3 -->
<g id="node3" class="node"><title>Node3</title>
<g id="a_node3"><a xlink:href="enumcom_1_1tomoparts_1_1tomoBay_1_1model_1_1services_1_1updateOrderStatusService_1_1OrderStatus.html" target="_top" xlink:title="Copyright(C) 2015 Jan P.C. ">
<polygon fill="white" stroke="black" points="139.5,-116.5 139.5,-250.5 263.5,-250.5 263.5,-116.5 139.5,-116.5"/>
<text text-anchor="middle" x="201.5" y="-238.5" font-family="Helvetica,sans-Serif" font-size="10.00">OrderStatus</text>
<polyline fill="none" stroke="black" points="139.5,-231.5 263.5,-231.5 "/>
<text text-anchor="start" x="147.5" y="-219.5" font-family="Helvetica,sans-Serif" font-size="10.00">+ PICKING_STARTED</text>
<text text-anchor="start" x="147.5" y="-208.5" font-family="Helvetica,sans-Serif" font-size="10.00">+ PICKING_FINISHED</text>
<text text-anchor="start" x="147.5" y="-197.5" font-family="Helvetica,sans-Serif" font-size="10.00">+ PACKING_STARTED</text>
<text text-anchor="start" x="147.5" y="-186.5" font-family="Helvetica,sans-Serif" font-size="10.00">+ PACKING_FINISHED</text>
<text text-anchor="start" x="147.5" y="-175.5" font-family="Helvetica,sans-Serif" font-size="10.00">+ SHIPPING_STARTED</text>
<text text-anchor="start" x="147.5" y="-164.5" font-family="Helvetica,sans-Serif" font-size="10.00">+ SHIPPING_FINISHED</text>
<text text-anchor="start" x="147.5" y="-153.5" font-family="Helvetica,sans-Serif" font-size="10.00">&#45; status_M</text>
<polyline fill="none" stroke="black" points="139.5,-146.5 263.5,-146.5 "/>
<text text-anchor="start" x="147.5" y="-134.5" font-family="Helvetica,sans-Serif" font-size="10.00">+ getStatusCode()</text>
<text text-anchor="start" x="147.5" y="-123.5" font-family="Helvetica,sans-Serif" font-size="10.00">&#45; OrderStatus()</text>
</a>
</g>
</g>
<!-- Node3&#45;&gt;Node1 -->
<g id="edge2" class="edge"><title>Node3&#45;&gt;Node1</title>
<path fill="none" stroke="#404040" d="M169.531,-116.311C163.568,-103.965 157.471,-91.3419 151.922,-79.8525"/>
<polygon fill="none" stroke="#404040" points="151.8,-79.5991 145.588,-75.9359 146.58,-68.7934 152.792,-72.4565 151.8,-79.5991"/>
<text text-anchor="middle" x="186" y="-90" font-family="Helvetica,sans-Serif" font-size="10.00"> &#45;status_M</text>
</g>
</g>
</svg>
