<?xml version="1.0" encoding="UTF-8" standalone="no"?>
<!DOCTYPE svg PUBLIC "-//W3C//DTD SVG 1.1//EN"
 "http://www.w3.org/Graphics/SVG/1.1/DTD/svg11.dtd">
<!-- Generated by graphviz version 2.38.0 (20140413.2041)
 -->
<!-- Title: buyer Pages: 1 -->
<svg width="893pt" height="242pt"
 viewBox="0.00 0.00 893.00 241.50" xmlns="http://www.w3.org/2000/svg" xmlns:xlink="http://www.w3.org/1999/xlink">
<g id="graph0" class="graph" transform="scale(1 1) rotate(0) translate(4 237.5)">
<title>buyer</title>
<polygon fill="white" stroke="none" points="-4,4 -4,-237.5 889,-237.5 889,4 -4,4"/>
<!-- Node1 -->
<g id="node1" class="node"><title>Node1</title>
<polygon fill="#bfbfbf" stroke="black" points="0,-132 0,-151 44,-151 44,-132 0,-132"/>
<text text-anchor="middle" x="22" y="-139" font-family="Helvetica,sans-Serif" font-size="10.00">buyer</text>
</g>
<!-- Node2 -->
<g id="node2" class="node"><title>Node2</title>
<g id="a_node2"><a xlink:href="classcom_1_1tomoparts_1_1tomoBay_1_1model_1_1dataTypes_1_1financial_1_1SalesOrderDayBook_1_1formats_1_1WinstockFormat.html#accefd62bc10c59d9ba78937d90a5fa8c" target="_top" xlink:title="com.tomoparts.tomoBay.model.data\lTypes.financial.SalesOrderDayBook.formats.\lWinstockFormat.format">
<polygon fill="white" stroke="black" points="86.5,-192 86.5,-233 315.5,-233 315.5,-192 86.5,-192"/>
<text text-anchor="start" x="94.5" y="-221" font-family="Helvetica,sans-Serif" font-size="10.00">com.tomoparts.tomoBay.model.data</text>
<text text-anchor="start" x="94.5" y="-210" font-family="Helvetica,sans-Serif" font-size="10.00">Types.financial.SalesOrderDayBook.formats.</text>
<text text-anchor="middle" x="201" y="-199" font-family="Helvetica,sans-Serif" font-size="10.00">WinstockFormat.format</text>
</a>
</g>
</g>
<!-- Node1&#45;&gt;Node2 -->
<g id="edge1" class="edge"><title>Node1&#45;&gt;Node2</title>
<path fill="none" stroke="midnightblue" d="M44.3868,-157.014C54.7556,-164.003 67.6211,-171.919 80,-177.5 92.0681,-182.941 105.198,-187.776 118.199,-191.985"/>
<polygon fill="midnightblue" stroke="midnightblue" points="46.2047,-154.016 35.9926,-151.194 42.2159,-159.768 46.2047,-154.016"/>
</g>
<!-- Node3 -->
<g id="node3" class="node"><title>Node3</title>
<g id="a_node3"><a xlink:href="classcom_1_1tomoparts_1_1tomoBay_1_1presenters_1_1presenterActions_1_1concreteActions_1_1OrderInfo.html#afeec1aeda079b77245edea1e74b25f33" target="_top" xlink:title="assembles the various parts of the order and outputs it as a fully formed JSON string. ">
<polygon fill="white" stroke="black" points="358,-137.5 358,-167.5 607,-167.5 607,-137.5 358,-137.5"/>
<text text-anchor="start" x="366" y="-155.5" font-family="Helvetica,sans-Serif" font-size="10.00">com.tomoparts.tomoBay.presenters.presenter</text>
<text text-anchor="middle" x="482.5" y="-144.5" font-family="Helvetica,sans-Serif" font-size="10.00">Actions.concreteActions.OrderInfo.formatResults</text>
</a>
</g>
</g>
<!-- Node1&#45;&gt;Node3 -->
<g id="edge2" class="edge"><title>Node1&#45;&gt;Node3</title>
<path fill="none" stroke="midnightblue" d="M54.2455,-142.668C62.6105,-142.961 71.6487,-143.26 80,-143.5 173.041,-146.175 278.229,-148.508 357.594,-150.127"/>
<polygon fill="midnightblue" stroke="midnightblue" points="54.231,-139.165 44.112,-142.305 53.9802,-146.161 54.231,-139.165"/>
</g>
<!-- Node5 -->
<g id="node5" class="node"><title>Node5</title>
<g id="a_node5"><a xlink:href="classcom_1_1tomoparts_1_1tomoBay_1_1model_1_1dataTypes_1_1financial_1_1SalesOrderDayBook_1_1SalesDayBookLineFactory.html#a2d63fd7591115332417a84014f39b204" target="_top" xlink:title="create the requested AbstractSalesDayBookLine. ">
<polygon fill="white" stroke="black" points="103.5,-44 103.5,-85 298.5,-85 298.5,-44 103.5,-44"/>
<text text-anchor="start" x="111.5" y="-73" font-family="Helvetica,sans-Serif" font-size="10.00">com.tomoparts.tomoBay.model.data</text>
<text text-anchor="start" x="111.5" y="-62" font-family="Helvetica,sans-Serif" font-size="10.00">Types.financial.SalesOrderDayBook.</text>
<text text-anchor="middle" x="201" y="-51" font-family="Helvetica,sans-Serif" font-size="10.00">SalesDayBookLineFactory.make</text>
</a>
</g>
</g>
<!-- Node1&#45;&gt;Node5 -->
<g id="edge4" class="edge"><title>Node1&#45;&gt;Node5</title>
<path fill="none" stroke="midnightblue" d="M39.4571,-124.533C50.1397,-114.436 64.8522,-102.142 80,-94.5 87.3814,-90.7759 95.2568,-87.4934 103.31,-84.604"/>
<polygon fill="midnightblue" stroke="midnightblue" points="36.8238,-122.214 32.1331,-131.713 41.7242,-127.212 36.8238,-122.214"/>
</g>
<!-- Node8 -->
<g id="node8" class="node"><title>Node8</title>
<g id="a_node8"><a xlink:href="classcom_1_1tomoparts_1_1tomoBay_1_1presenters_1_1presenterActions_1_1concreteActions_1_1OrderInfo.html#ab4b3569de633225260e7e17c8947c8c5" target="_top" xlink:title="formats the shipping information associated with this order ">
<polygon fill="white" stroke="black" points="80,-104.5 80,-134.5 322,-134.5 322,-104.5 80,-104.5"/>
<text text-anchor="start" x="88" y="-122.5" font-family="Helvetica,sans-Serif" font-size="10.00">com.tomoparts.tomoBay.presenters.presenter</text>
<text text-anchor="middle" x="201" y="-111.5" font-family="Helvetica,sans-Serif" font-size="10.00">Actions.concreteActions.OrderInfo.shippingInfo</text>
</a>
</g>
</g>
<!-- Node1&#45;&gt;Node8 -->
<g id="edge8" class="edge"><title>Node1&#45;&gt;Node8</title>
<path fill="none" stroke="midnightblue" d="M54.4777,-137.588C62.1446,-136.635 70.8059,-135.558 79.9877,-134.417"/>
<polygon fill="midnightblue" stroke="midnightblue" points="53.8422,-134.139 44.3503,-138.846 54.7057,-141.086 53.8422,-134.139"/>
</g>
<!-- Node4 -->
<g id="node4" class="node"><title>Node4</title>
<g id="a_node4"><a xlink:href="classcom_1_1tomoparts_1_1tomoBay_1_1presenters_1_1presenterActions_1_1concreteActions_1_1OrderInfo.html#adb3dedf31dc2c7fc796f20406c235ccd" target="_top" xlink:title="performs the action specified ">
<polygon fill="white" stroke="black" points="643,-115.5 643,-145.5 885,-145.5 885,-115.5 643,-115.5"/>
<text text-anchor="start" x="651" y="-133.5" font-family="Helvetica,sans-Serif" font-size="10.00">com.tomoparts.tomoBay.presenters.presenter</text>
<text text-anchor="middle" x="764" y="-122.5" font-family="Helvetica,sans-Serif" font-size="10.00">Actions.concreteActions.OrderInfo.execute</text>
</a>
</g>
</g>
<!-- Node3&#45;&gt;Node4 -->
<g id="edge3" class="edge"><title>Node3&#45;&gt;Node4</title>
<path fill="none" stroke="midnightblue" d="M617.322,-141.967C625.865,-141.294 634.439,-140.619 642.914,-139.952"/>
<polygon fill="midnightblue" stroke="midnightblue" points="617.008,-138.48 607.313,-142.754 617.557,-145.459 617.008,-138.48"/>
</g>
<!-- Node5&#45;&gt;Node4 -->
<g id="edge5" class="edge"><title>Node5&#45;&gt;Node4</title>
<path fill="none" stroke="midnightblue" d="M308.994,-81.6741C325.389,-84.0991 342.133,-86.458 358,-88.5 453.527,-100.794 562.092,-111.899 642.758,-119.598"/>
<polygon fill="midnightblue" stroke="midnightblue" points="309.25,-78.1735 298.842,-80.1579 308.216,-85.0967 309.25,-78.1735"/>
</g>
<!-- Node6 -->
<g id="node6" class="node"><title>Node6</title>
<g id="a_node6"><a xlink:href="classcom_1_1tomoparts_1_1tomoBay_1_1presenters_1_1presenterActions_1_1concreteActions_1_1PrintInvoices.html#adb3dedf31dc2c7fc796f20406c235ccd" target="_top" xlink:title="performs the action specified ">
<polygon fill="white" stroke="black" points="361.5,-49.5 361.5,-79.5 603.5,-79.5 603.5,-49.5 361.5,-49.5"/>
<text text-anchor="start" x="369.5" y="-67.5" font-family="Helvetica,sans-Serif" font-size="10.00">com.tomoparts.tomoBay.presenters.presenter</text>
<text text-anchor="middle" x="482.5" y="-56.5" font-family="Helvetica,sans-Serif" font-size="10.00">Actions.concreteActions.PrintInvoices.execute</text>
</a>
</g>
</g>
<!-- Node5&#45;&gt;Node6 -->
<g id="edge6" class="edge"><title>Node5&#45;&gt;Node6</title>
<path fill="none" stroke="midnightblue" d="M308.619,-64.5C325.825,-64.5 343.742,-64.5 361.243,-64.5"/>
<polygon fill="midnightblue" stroke="midnightblue" points="308.579,-61.0001 298.579,-64.5 308.579,-68.0001 308.579,-61.0001"/>
</g>
<!-- Node7 -->
<g id="node7" class="node"><title>Node7</title>
<g id="a_node7"><a xlink:href="classcom_1_1tomoparts_1_1tomoBay_1_1presenters_1_1presenterActions_1_1concreteActions_1_1InvoiceOrders.html#adb3dedf31dc2c7fc796f20406c235ccd" target="_top" xlink:title="performs the action specified ">
<polygon fill="white" stroke="black" points="361.5,-0.5 361.5,-30.5 603.5,-30.5 603.5,-0.5 361.5,-0.5"/>
<text text-anchor="start" x="369.5" y="-18.5" font-family="Helvetica,sans-Serif" font-size="10.00">com.tomoparts.tomoBay.presenters.presenter</text>
<text text-anchor="middle" x="482.5" y="-7.5" font-family="Helvetica,sans-Serif" font-size="10.00">Actions.concreteActions.InvoiceOrders.execute</text>
</a>
</g>
</g>
<!-- Node5&#45;&gt;Node7 -->
<g id="edge7" class="edge"><title>Node5&#45;&gt;Node7</title>
<path fill="none" stroke="midnightblue" d="M308.665,-45.8003C337.435,-40.7564 368.191,-35.3645 395.664,-30.5482"/>
<polygon fill="midnightblue" stroke="midnightblue" points="307.825,-42.3941 298.579,-47.5684 309.034,-49.2889 307.825,-42.3941"/>
</g>
<!-- Node8&#45;&gt;Node3 -->
<g id="edge9" class="edge"><title>Node8&#45;&gt;Node3</title>
<path fill="none" stroke="midnightblue" d="M332.18,-134.87C340.745,-135.881 349.358,-136.898 357.89,-137.906"/>
<polygon fill="midnightblue" stroke="midnightblue" points="332.497,-131.383 322.155,-133.686 331.676,-138.335 332.497,-131.383"/>
</g>
</g>
</svg>
