<?xml version="1.0" encoding="UTF-8" standalone="no"?>
<!DOCTYPE svg PUBLIC "-//W3C//DTD SVG 1.1//EN"
 "http://www.w3.org/Graphics/SVG/1.1/DTD/svg11.dtd">
<!-- Generated by graphviz version 2.38.0 (20140413.2041)
 -->
<!-- Title: UnPickeableResult Pages: 1 -->
<svg width="153pt" height="226pt"
 viewBox="0.00 0.00 153.00 226.00" xmlns="http://www.w3.org/2000/svg" xmlns:xlink="http://www.w3.org/1999/xlink">
<g id="graph0" class="graph" transform="scale(1 1) rotate(0) translate(4 222)">
<title>UnPickeableResult</title>
<polygon fill="white" stroke="none" points="-4,4 -4,-222 149,-222 149,4 -4,4"/>
<!-- Node1 -->
<g id="node1" class="node"><title>Node1</title>
<polygon fill="#bfbfbf" stroke="black" points="11,-0.5 11,-101.5 134,-101.5 134,-0.5 11,-0.5"/>
<text text-anchor="middle" x="72.5" y="-89.5" font-family="Helvetica,sans-Serif" font-size="10.00">UnPickeableResult</text>
<polyline fill="none" stroke="black" points="11,-82.5 134,-82.5 "/>
<text text-anchor="start" x="19" y="-70.5" font-family="Helvetica,sans-Serif" font-size="10.00">&#45; itemStatus_M</text>
<text text-anchor="start" x="19" y="-59.5" font-family="Helvetica,sans-Serif" font-size="10.00">&#45; orderNo_M</text>
<text text-anchor="start" x="19" y="-48.5" font-family="Helvetica,sans-Serif" font-size="10.00">&#45; nextHandler_M</text>
<polyline fill="none" stroke="black" points="11,-41.5 134,-41.5 "/>
<text text-anchor="start" x="19" y="-29.5" font-family="Helvetica,sans-Serif" font-size="10.00">+ UnPickeableResult()</text>
<text text-anchor="start" x="19" y="-18.5" font-family="Helvetica,sans-Serif" font-size="10.00">+ result()</text>
<text text-anchor="start" x="19" y="-7.5" font-family="Helvetica,sans-Serif" font-size="10.00">+ result()</text>
</g>
<!-- Node2 -->
<g id="node2" class="node"><title>Node2</title>
<g id="a_node2"><a xlink:href="classcom_1_1tomoparts_1_1tomoBay_1_1model_1_1dataTypes_1_1conditionalStatement_1_1Result.html" target="_top" xlink:title="This class defines the Abstract Base class for all derived Result classes. ">
<polygon fill="white" stroke="black" points="0,-138.5 0,-217.5 145,-217.5 145,-138.5 0,-138.5"/>
<text text-anchor="middle" x="72.5" y="-205.5" font-family="Helvetica,sans-Serif" font-size="10.00">Result&lt; PickeableStatus &gt;</text>
<polyline fill="none" stroke="black" points="0,-198.5 145,-198.5 "/>
<text text-anchor="middle" x="72.5" y="-186.5" font-family="Helvetica,sans-Serif" font-size="10.00"> </text>
<polyline fill="none" stroke="black" points="0,-179.5 145,-179.5 "/>
<text text-anchor="start" x="8" y="-167.5" font-family="Helvetica,sans-Serif" font-size="10.00">+ Result()</text>
<text text-anchor="start" x="8" y="-156.5" font-family="Helvetica,sans-Serif" font-size="10.00">+ result()</text>
<text text-anchor="start" x="8" y="-145.5" font-family="Helvetica,sans-Serif" font-size="10.00">+ result()</text>
</a>
</g>
</g>
<!-- Node2&#45;&gt;Node1 -->
<g id="edge1" class="edge"><title>Node2&#45;&gt;Node1</title>
<path fill="none" stroke="midnightblue" d="M72.5,-128.406C72.5,-119.639 72.5,-110.488 72.5,-101.691"/>
<polygon fill="none" stroke="midnightblue" points="69.0001,-128.476 72.5,-138.476 76.0001,-128.476 69.0001,-128.476"/>
</g>
</g>
</svg>
