<?xml version="1.0" encoding="UTF-8" standalone="no"?>
<!DOCTYPE svg PUBLIC "-//W3C//DTD SVG 1.1//EN"
 "http://www.w3.org/Graphics/SVG/1.1/DTD/svg11.dtd">
<!-- Generated by graphviz version 2.38.0 (20140413.2041)
 -->
<!-- Title: setParameters Pages: 1 -->
<!--zoomable 635 -->
<svg id="main" version="1.1" xmlns="http://www.w3.org/2000/svg" xmlns:xlink="http://www.w3.org/1999/xlink" xml:space="preserve" onload="init(evt)">
<style type="text/css"><![CDATA[
.edge:hover path { stroke: red; }
.edge:hover polygon { stroke: red; fill: red; }
]]></style>
<script type="text/javascript"><![CDATA[
var edges = document.getElementsByTagName('g');
if (edges && edges.length) {
  for (var i=0;i<edges.length;i++) {
    if (edges[i].id.substr(0,4)=='edge') {
      edges[i].setAttribute('class','edge');
    }
  }
}
]]></script>
        <defs>
                <circle id="rim" cx="0" cy="0" r="7"/>
                <circle id="rim2" cx="0" cy="0" r="3.5"/>
                <g id="zoomPlus">
                        <use xlink:href="#rim" fill="#404040">
                                <set attributeName="fill" to="#808080" begin="zoomplus.mouseover" end="zoomplus.mouseout"/>
                        </use>
                        <path d="M-4,0h8M0,-4v8" fill="none" stroke="white" stroke-width="1.5" pointer-events="none"/>
                </g>
                <g id="zoomMin">
                        <use xlink:href="#rim" fill="#404040">
                                <set attributeName="fill" to="#808080" begin="zoomminus.mouseover" end="zoomminus.mouseout"/>
                        </use>
                        <path d="M-4,0h8" fill="none" stroke="white" stroke-width="1.5" pointer-events="none"/>
                </g>
                <g id="dirArrow">
                        <path fill="none" stroke="white" stroke-width="1.5" d="M0,-3.0v7 M-2.5,-0.5L0,-3.0L2.5,-0.5"/>
                </g>
               <g id="resetDef">
                       <use xlink:href="#rim2" fill="#404040">
                               <set attributeName="fill" to="#808080" begin="reset.mouseover" end="reset.mouseout"/>
                       </use>
               </g>
        </defs>

<script type="text/javascript">
var viewWidth = 3219;
var viewHeight = 635;
var sectionId = 'dynsection-2';
</script>
<script xlink:href="svgpan.js"/>
<svg id="graph" class="graph">
<g id="viewport">
<title>setParameters</title>
<polygon fill="white" stroke="none" points="-4,4 -4,-631.111 3215,-631.111 3215,4 -4,4"/>
<!-- Node1 -->
<g id="node1" class="node"><title>Node1</title>
<polygon fill="#bfbfbf" stroke="black" points="0,-306.217 0,-325.217 88,-325.217 88,-306.217 0,-306.217"/>
<text text-anchor="middle" x="44" y="-313.217" font-family="Helvetica,sans-Serif" font-size="10.00">setParameters</text>
</g>
<!-- Node2 -->
<g id="node2" class="node"><title>Node2</title>
<g id="a_node2"><a xlink:href="classcom_1_1tomoparts_1_1tomoBay_1_1model_1_1sql_1_1framework_1_1QueryUtility.html#aca3b74b8ac7e194a86c0b896a674e2f2" target="_top" xlink:title="set an Integer parameter for the query object specified. ">
<polygon fill="white" stroke="black" points="124,-322.717 124,-352.717 367,-352.717 367,-322.717 124,-322.717"/>
<text text-anchor="start" x="132" y="-340.717" font-family="Helvetica,sans-Serif" font-size="10.00">com.tomoparts.tomoBay.model.sql.framework.</text>
<text text-anchor="middle" x="245.5" y="-329.717" font-family="Helvetica,sans-Serif" font-size="10.00">QueryUtility.setINTEGERParam</text>
</a>
</g>
</g>
<!-- Node1&#45;&gt;Node2 -->
<g id="edge1" class="edge"><title>Node1&#45;&gt;Node2</title>
<path fill="none" stroke="midnightblue" d="M88.2885,-320.49C96.1153,-321.353 104.633,-322.293 113.519,-323.273"/>
<polygon fill="midnightblue" stroke="midnightblue" points="113.368,-326.777 123.691,-324.394 114.135,-319.819 113.368,-326.777"/>
</g>
<!-- Node5 -->
<g id="node5" class="node"><title>Node5</title>
<g id="a_node5"><a xlink:href="classcom_1_1tomoparts_1_1tomoBay_1_1model_1_1sql_1_1framework_1_1QueryUtility.html#a3249b16421a9902f2248cb86d4dd3be3" target="_top" xlink:title="set an Integer parameter for the query object specified. ">
<polygon fill="white" stroke="black" points="403,-300.717 403,-330.717 646,-330.717 646,-300.717 403,-300.717"/>
<text text-anchor="start" x="411" y="-318.717" font-family="Helvetica,sans-Serif" font-size="10.00">com.tomoparts.tomoBay.model.sql.framework.</text>
<text text-anchor="middle" x="524.5" y="-307.717" font-family="Helvetica,sans-Serif" font-size="10.00">QueryUtility.setVARCHARParam</text>
</a>
</g>
</g>
<!-- Node1&#45;&gt;Node5 -->
<g id="edge30" class="edge"><title>Node1&#45;&gt;Node5</title>
<path fill="none" stroke="midnightblue" d="M88.0423,-313.786C99.7079,-313.343 112.336,-312.938 124,-312.717 213.596,-311.016 314.512,-311.796 392.501,-312.986"/>
<polygon fill="midnightblue" stroke="midnightblue" points="392.81,-316.491 402.864,-313.149 392.92,-309.492 392.81,-316.491"/>
</g>
<!-- Node3 -->
<g id="node3" class="node"><title>Node3</title>
<g id="a_node3"><a xlink:href="classcom_1_1tomoparts_1_1tomoBay_1_1model_1_1dataTypes_1_1heteroTypeContainer_1_1HeteroFieldContainer.html#a988363ab964d6dc0ccb8560bef5895b6" target="_top" xlink:title="retrieve the the value of an AbstractField from this HeteroFieldContainer, the field should be of the...">
<polygon fill="white" stroke="black" points="2667,-453.217 2667,-494.217 2873,-494.217 2873,-453.217 2667,-453.217"/>
<text text-anchor="start" x="2675" y="-482.217" font-family="Helvetica,sans-Serif" font-size="10.00">com.tomoparts.tomoBay.model.data</text>
<text text-anchor="start" x="2675" y="-471.217" font-family="Helvetica,sans-Serif" font-size="10.00">Types.heteroTypeContainer.HeteroField</text>
<text text-anchor="middle" x="2770" y="-460.217" font-family="Helvetica,sans-Serif" font-size="10.00">Container.get</text>
</a>
</g>
</g>
<!-- Node2&#45;&gt;Node3 -->
<g id="edge2" class="edge"><title>Node2&#45;&gt;Node3</title>
<path fill="none" stroke="midnightblue" d="M261.782,-352.795C323.531,-412.053 562.797,-625.717 802.5,-625.717 802.5,-625.717 802.5,-625.717 2199.5,-625.717 2378.23,-625.717 2430.27,-638.661 2599,-579.717 2650.69,-561.658 2703.1,-525.723 2735.79,-500.727"/>
<polygon fill="midnightblue" stroke="midnightblue" points="2738.31,-503.203 2744.07,-494.309 2734.02,-497.671 2738.31,-503.203"/>
</g>
<!-- Node2&#45;&gt;Node5 -->
<g id="edge4" class="edge"><title>Node2&#45;&gt;Node5</title>
<path fill="none" stroke="midnightblue" d="M367.19,-328.131C375.678,-327.457 384.257,-326.776 392.796,-326.097"/>
<polygon fill="midnightblue" stroke="midnightblue" points="393.102,-329.584 402.794,-325.303 392.548,-322.606 393.102,-329.584"/>
</g>
<!-- Node13 -->
<g id="node13" class="node"><title>Node13</title>
<g id="a_node13"><a xlink:href="classcom_1_1tomoparts_1_1tomoBay_1_1model_1_1sql_1_1framework_1_1queryTypes_1_1AbstractDBQuery.html#a41678b13e84de4335130f10cea7ae562" target="_top" xlink:title="get the statement object associated with this query ">
<polygon fill="white" stroke="black" points="2635,-142.717 2635,-172.717 2905,-172.717 2905,-142.717 2635,-142.717"/>
<text text-anchor="start" x="2643" y="-160.717" font-family="Helvetica,sans-Serif" font-size="10.00">com.tomoparts.tomoBay.model.sql.framework.query</text>
<text text-anchor="middle" x="2770" y="-149.717" font-family="Helvetica,sans-Serif" font-size="10.00">Types.AbstractDBQuery.statement</text>
</a>
</g>
</g>
<!-- Node2&#45;&gt;Node13 -->
<g id="edge29" class="edge"><title>Node2&#45;&gt;Node13</title>
<path fill="none" stroke="midnightblue" d="M259.337,-322.589C315.968,-257.64 551.788,-5.71663 802.5,-5.71663 802.5,-5.71663 802.5,-5.71663 2199.5,-5.71663 2377.74,-5.71663 2431.27,19.5766 2599,-40.7166 2657.5,-61.7442 2714.79,-108.009 2745.64,-135.645"/>
<polygon fill="midnightblue" stroke="midnightblue" points="2743.5,-138.436 2753.26,-142.576 2748.21,-133.258 2743.5,-138.436"/>
</g>
<!-- Node4 -->
<g id="node4" class="node"><title>Node4</title>
<g id="a_node4"><a xlink:href="classcom_1_1tomoparts_1_1tomoBay_1_1model_1_1dataTypes_1_1heteroTypeContainer_1_1HeteroFieldContainer.html#a9dee3c01eb5ab16203e1c6820a569484" target="_top" xlink:title="performs a type check, assuming that field and type are of the same type then this method returns tru...">
<polygon fill="white" stroke="black" points="2973,-453.217 2973,-494.217 3179,-494.217 3179,-453.217 2973,-453.217"/>
<text text-anchor="start" x="2981" y="-482.217" font-family="Helvetica,sans-Serif" font-size="10.00">com.tomoparts.tomoBay.model.data</text>
<text text-anchor="start" x="2981" y="-471.217" font-family="Helvetica,sans-Serif" font-size="10.00">Types.heteroTypeContainer.HeteroField</text>
<text text-anchor="middle" x="3076" y="-460.217" font-family="Helvetica,sans-Serif" font-size="10.00">Container.isSameType</text>
</a>
</g>
</g>
<!-- Node3&#45;&gt;Node4 -->
<g id="edge3" class="edge"><title>Node3&#45;&gt;Node4</title>
<path fill="none" stroke="midnightblue" d="M2873.07,-473.717C2901.85,-473.717 2933.31,-473.717 2962.65,-473.717"/>
<polygon fill="midnightblue" stroke="midnightblue" points="2962.94,-477.217 2972.94,-473.717 2962.94,-470.217 2962.94,-477.217"/>
</g>
<!-- Node5&#45;&gt;Node3 -->
<g id="edge5" class="edge"><title>Node5&#45;&gt;Node3</title>
<path fill="none" stroke="midnightblue" d="M541.8,-330.728C605.483,-387.75 845.626,-587.717 1081.5,-587.717 1081.5,-587.717 1081.5,-587.717 2199.5,-587.717 2378.08,-587.717 2426.03,-589.145 2599,-544.717 2641.19,-533.879 2686.61,-514.477 2719.87,-498.691"/>
<polygon fill="midnightblue" stroke="midnightblue" points="2721.42,-501.83 2728.92,-494.345 2718.39,-495.52 2721.42,-501.83"/>
</g>
<!-- Node6 -->
<g id="node6" class="node"><title>Node6</title>
<g id="a_node6"><a xlink:href="classcom_1_1tomoparts_1_1tomoBay_1_1model_1_1sql_1_1framework_1_1QueryUtility.html#a50955d4f51a1a7a88ef0c8aadbe9c793" target="_top" xlink:title="set an Integer parameter for the query object specified. ">
<polygon fill="white" stroke="black" points="682,-300.717 682,-330.717 925,-330.717 925,-300.717 682,-300.717"/>
<text text-anchor="start" x="690" y="-318.717" font-family="Helvetica,sans-Serif" font-size="10.00">com.tomoparts.tomoBay.model.sql.framework.</text>
<text text-anchor="middle" x="803.5" y="-307.717" font-family="Helvetica,sans-Serif" font-size="10.00">QueryUtility.setBYTEParam</text>
</a>
</g>
</g>
<!-- Node5&#45;&gt;Node6 -->
<g id="edge6" class="edge"><title>Node5&#45;&gt;Node6</title>
<path fill="none" stroke="midnightblue" d="M646.19,-315.717C654.586,-315.717 663.07,-315.717 671.517,-315.717"/>
<polygon fill="midnightblue" stroke="midnightblue" points="671.794,-319.217 681.794,-315.717 671.794,-312.217 671.794,-319.217"/>
</g>
<!-- Node5&#45;&gt;Node13 -->
<g id="edge28" class="edge"><title>Node5&#45;&gt;Node13</title>
<path fill="none" stroke="midnightblue" d="M541.8,-300.705C605.483,-243.683 845.626,-43.7166 1081.5,-43.7166 1081.5,-43.7166 1081.5,-43.7166 2199.5,-43.7166 2377.9,-43.7166 2426.43,-37.474 2599,-82.7166 2647.35,-95.3915 2699.44,-120.195 2733.04,-137.805"/>
<polygon fill="midnightblue" stroke="midnightblue" points="2731.53,-140.967 2742.01,-142.564 2734.81,-134.784 2731.53,-140.967"/>
</g>
<!-- Node6&#45;&gt;Node3 -->
<g id="edge7" class="edge"><title>Node6&#45;&gt;Node3</title>
<path fill="none" stroke="midnightblue" d="M824.412,-331.07C893.984,-383.129 1134.29,-549.717 1360.5,-549.717 1360.5,-549.717 1360.5,-549.717 2199.5,-549.717 2377.77,-549.717 2423.02,-542.204 2599,-513.717 2626.2,-509.313 2655.52,-502.995 2682.02,-496.676"/>
<polygon fill="midnightblue" stroke="midnightblue" points="2683.13,-500.008 2692.03,-494.258 2681.48,-493.204 2683.13,-500.008"/>
</g>
<!-- Node7 -->
<g id="node7" class="node"><title>Node7</title>
<g id="a_node7"><a xlink:href="classcom_1_1tomoparts_1_1tomoBay_1_1model_1_1sql_1_1framework_1_1QueryUtility.html#a138f0c046bc0a6df71b168ab35c3c3e3" target="_top" xlink:title="set an Integer parameter for the query object specified. ">
<polygon fill="white" stroke="black" points="961,-300.717 961,-330.717 1204,-330.717 1204,-300.717 961,-300.717"/>
<text text-anchor="start" x="969" y="-318.717" font-family="Helvetica,sans-Serif" font-size="10.00">com.tomoparts.tomoBay.model.sql.framework.</text>
<text text-anchor="middle" x="1082.5" y="-307.717" font-family="Helvetica,sans-Serif" font-size="10.00">QueryUtility.setBIGINTParam</text>
</a>
</g>
</g>
<!-- Node6&#45;&gt;Node7 -->
<g id="edge8" class="edge"><title>Node6&#45;&gt;Node7</title>
<path fill="none" stroke="midnightblue" d="M925.19,-315.717C933.586,-315.717 942.07,-315.717 950.517,-315.717"/>
<polygon fill="midnightblue" stroke="midnightblue" points="950.794,-319.217 960.794,-315.717 950.794,-312.217 950.794,-319.217"/>
</g>
<!-- Node6&#45;&gt;Node13 -->
<g id="edge27" class="edge"><title>Node6&#45;&gt;Node13</title>
<path fill="none" stroke="midnightblue" d="M824.412,-300.363C893.984,-248.305 1134.29,-81.7166 1360.5,-81.7166 1360.5,-81.7166 1360.5,-81.7166 2199.5,-81.7166 2377.86,-81.7166 2422.85,-91.7636 2599,-119.717 2632.69,-125.063 2669.69,-133.075 2700.55,-140.365"/>
<polygon fill="midnightblue" stroke="midnightblue" points="2699.8,-143.785 2710.34,-142.703 2701.43,-136.976 2699.8,-143.785"/>
</g>
<!-- Node7&#45;&gt;Node3 -->
<g id="edge9" class="edge"><title>Node7&#45;&gt;Node3</title>
<path fill="none" stroke="midnightblue" d="M1107.37,-330.771C1182.49,-376.667 1422.01,-511.717 1639.5,-511.717 1639.5,-511.717 1639.5,-511.717 2199.5,-511.717 2358.45,-511.717 2541.8,-496.797 2656.57,-485.655"/>
<polygon fill="midnightblue" stroke="midnightblue" points="2657.16,-489.114 2666.77,-484.657 2656.48,-482.147 2657.16,-489.114"/>
</g>
<!-- Node8 -->
<g id="node8" class="node"><title>Node8</title>
<g id="a_node8"><a xlink:href="classcom_1_1tomoparts_1_1tomoBay_1_1model_1_1sql_1_1framework_1_1QueryUtility.html#a56a65ac583b8720ae73dc81278e5690e" target="_top" xlink:title="set an Integer parameter for the query object specified. ">
<polygon fill="white" stroke="black" points="1240,-300.717 1240,-330.717 1483,-330.717 1483,-300.717 1240,-300.717"/>
<text text-anchor="start" x="1248" y="-318.717" font-family="Helvetica,sans-Serif" font-size="10.00">com.tomoparts.tomoBay.model.sql.framework.</text>
<text text-anchor="middle" x="1361.5" y="-307.717" font-family="Helvetica,sans-Serif" font-size="10.00">QueryUtility.setTINYINTParam</text>
</a>
</g>
</g>
<!-- Node7&#45;&gt;Node8 -->
<g id="edge10" class="edge"><title>Node7&#45;&gt;Node8</title>
<path fill="none" stroke="midnightblue" d="M1204.19,-315.717C1212.59,-315.717 1221.07,-315.717 1229.52,-315.717"/>
<polygon fill="midnightblue" stroke="midnightblue" points="1229.79,-319.217 1239.79,-315.717 1229.79,-312.217 1229.79,-319.217"/>
</g>
<!-- Node7&#45;&gt;Node13 -->
<g id="edge26" class="edge"><title>Node7&#45;&gt;Node13</title>
<path fill="none" stroke="midnightblue" d="M1107.37,-300.662C1182.49,-254.766 1422.01,-119.717 1639.5,-119.717 1639.5,-119.717 1639.5,-119.717 2199.5,-119.717 2344.38,-119.717 2509.54,-132.112 2624.55,-142.744"/>
<polygon fill="midnightblue" stroke="midnightblue" points="2624.55,-146.259 2634.83,-143.702 2625.2,-139.289 2624.55,-146.259"/>
</g>
<!-- Node8&#45;&gt;Node3 -->
<g id="edge11" class="edge"><title>Node8&#45;&gt;Node3</title>
<path fill="none" stroke="midnightblue" d="M1392.68,-330.723C1474.89,-370.163 1710.53,-473.717 1918.5,-473.717 1918.5,-473.717 1918.5,-473.717 2199.5,-473.717 2358.22,-473.717 2541.82,-473.717 2656.68,-473.717"/>
<polygon fill="midnightblue" stroke="midnightblue" points="2656.89,-477.217 2666.89,-473.717 2656.89,-470.217 2656.89,-477.217"/>
</g>
<!-- Node9 -->
<g id="node9" class="node"><title>Node9</title>
<g id="a_node9"><a xlink:href="classcom_1_1tomoparts_1_1tomoBay_1_1model_1_1sql_1_1framework_1_1QueryUtility.html#ab07d04299a96461dcf893416b8e32604" target="_top" xlink:title="set an Integer parameter for the query object specified. ">
<polygon fill="white" stroke="black" points="1519,-300.717 1519,-330.717 1762,-330.717 1762,-300.717 1519,-300.717"/>
<text text-anchor="start" x="1527" y="-318.717" font-family="Helvetica,sans-Serif" font-size="10.00">com.tomoparts.tomoBay.model.sql.framework.</text>
<text text-anchor="middle" x="1640.5" y="-307.717" font-family="Helvetica,sans-Serif" font-size="10.00">QueryUtility.setTIMESTAMPParam</text>
</a>
</g>
</g>
<!-- Node8&#45;&gt;Node9 -->
<g id="edge12" class="edge"><title>Node8&#45;&gt;Node9</title>
<path fill="none" stroke="midnightblue" d="M1483.19,-315.717C1491.59,-315.717 1500.07,-315.717 1508.52,-315.717"/>
<polygon fill="midnightblue" stroke="midnightblue" points="1508.79,-319.217 1518.79,-315.717 1508.79,-312.217 1508.79,-319.217"/>
</g>
<!-- Node8&#45;&gt;Node13 -->
<g id="edge25" class="edge"><title>Node8&#45;&gt;Node13</title>
<path fill="none" stroke="midnightblue" d="M1392.68,-300.71C1474.89,-261.27 1710.53,-157.717 1918.5,-157.717 1918.5,-157.717 1918.5,-157.717 2199.5,-157.717 2344.18,-157.717 2509.54,-157.717 2624.66,-157.717"/>
<polygon fill="midnightblue" stroke="midnightblue" points="2624.95,-161.217 2634.95,-157.717 2624.95,-154.217 2624.95,-161.217"/>
</g>
<!-- Node9&#45;&gt;Node3 -->
<g id="edge13" class="edge"><title>Node9&#45;&gt;Node3</title>
<path fill="none" stroke="midnightblue" d="M1738.31,-330.768C1758.05,-333.78 1778.69,-336.886 1798,-339.717 2108.67,-385.25 2475.93,-434.757 2656.81,-458.856"/>
<polygon fill="midnightblue" stroke="midnightblue" points="2656.49,-462.345 2666.87,-460.196 2657.42,-455.406 2656.49,-462.345"/>
</g>
<!-- Node10 -->
<g id="node10" class="node"><title>Node10</title>
<g id="a_node10"><a xlink:href="classcom_1_1tomoparts_1_1tomoBay_1_1model_1_1sql_1_1framework_1_1QueryUtility.html#a202aab30c77e06c32318efd5cf949ca3" target="_top" xlink:title="set an Integer parameter for the query object specified. ">
<polygon fill="white" stroke="black" points="1798,-300.717 1798,-330.717 2041,-330.717 2041,-300.717 1798,-300.717"/>
<text text-anchor="start" x="1806" y="-318.717" font-family="Helvetica,sans-Serif" font-size="10.00">com.tomoparts.tomoBay.model.sql.framework.</text>
<text text-anchor="middle" x="1919.5" y="-307.717" font-family="Helvetica,sans-Serif" font-size="10.00">QueryUtility.setDATEParam</text>
</a>
</g>
</g>
<!-- Node9&#45;&gt;Node10 -->
<g id="edge14" class="edge"><title>Node9&#45;&gt;Node10</title>
<path fill="none" stroke="midnightblue" d="M1762.19,-315.717C1770.59,-315.717 1779.07,-315.717 1787.52,-315.717"/>
<polygon fill="midnightblue" stroke="midnightblue" points="1787.79,-319.217 1797.79,-315.717 1787.79,-312.217 1787.79,-319.217"/>
</g>
<!-- Node9&#45;&gt;Node13 -->
<g id="edge24" class="edge"><title>Node9&#45;&gt;Node13</title>
<path fill="none" stroke="midnightblue" d="M1734.15,-300.692C1755.14,-297.352 1777.33,-293.868 1798,-290.717 2045.74,-252.95 2107.67,-243.371 2356,-209.717 2448.88,-197.129 2553.66,-183.948 2634.44,-174.007"/>
<polygon fill="midnightblue" stroke="midnightblue" points="2635.17,-177.443 2644.67,-172.749 2634.32,-170.495 2635.17,-177.443"/>
</g>
<!-- Node10&#45;&gt;Node3 -->
<g id="edge15" class="edge"><title>Node10&#45;&gt;Node3</title>
<path fill="none" stroke="midnightblue" d="M2017.78,-330.732C2202.03,-359.198 2584.9,-418.477 2599,-421.717 2632.52,-429.421 2669.07,-440.271 2699.66,-450.069"/>
<polygon fill="midnightblue" stroke="midnightblue" points="2698.78,-453.463 2709.37,-453.208 2700.94,-446.802 2698.78,-453.463"/>
</g>
<!-- Node11 -->
<g id="node11" class="node"><title>Node11</title>
<g id="a_node11"><a xlink:href="classcom_1_1tomoparts_1_1tomoBay_1_1model_1_1sql_1_1framework_1_1QueryUtility.html#a5677c2440b48e612fb51b57130555e5d" target="_top" xlink:title="set an Integer parameter for the query object specified. ">
<polygon fill="white" stroke="black" points="2077,-300.717 2077,-330.717 2320,-330.717 2320,-300.717 2077,-300.717"/>
<text text-anchor="start" x="2085" y="-318.717" font-family="Helvetica,sans-Serif" font-size="10.00">com.tomoparts.tomoBay.model.sql.framework.</text>
<text text-anchor="middle" x="2198.5" y="-307.717" font-family="Helvetica,sans-Serif" font-size="10.00">QueryUtility.setDOUBLEParam</text>
</a>
</g>
</g>
<!-- Node10&#45;&gt;Node11 -->
<g id="edge16" class="edge"><title>Node10&#45;&gt;Node11</title>
<path fill="none" stroke="midnightblue" d="M2041.19,-315.717C2049.59,-315.717 2058.07,-315.717 2066.52,-315.717"/>
<polygon fill="midnightblue" stroke="midnightblue" points="2066.79,-319.217 2076.79,-315.717 2066.79,-312.217 2066.79,-319.217"/>
</g>
<!-- Node10&#45;&gt;Node13 -->
<g id="edge23" class="edge"><title>Node10&#45;&gt;Node13</title>
<path fill="none" stroke="midnightblue" d="M2014,-300.71C2034.74,-297.401 2056.62,-293.926 2077,-290.717 2084.25,-289.575 2591.85,-211.356 2599,-209.717 2638.84,-200.582 2682.95,-186.983 2716.26,-175.983"/>
<polygon fill="midnightblue" stroke="midnightblue" points="2717.41,-179.289 2725.79,-172.808 2715.19,-172.647 2717.41,-179.289"/>
</g>
<!-- Node11&#45;&gt;Node3 -->
<g id="edge17" class="edge"><title>Node11&#45;&gt;Node3</title>
<path fill="none" stroke="midnightblue" d="M2297.78,-330.775C2406.74,-347.735 2570.94,-374.176 2599,-383.717 2645.87,-399.654 2695.47,-427.315 2728.92,-447.777"/>
<polygon fill="midnightblue" stroke="midnightblue" points="2727.14,-450.792 2737.48,-453.077 2730.82,-444.839 2727.14,-450.792"/>
</g>
<!-- Node12 -->
<g id="node12" class="node"><title>Node12</title>
<g id="a_node12"><a xlink:href="classcom_1_1tomoparts_1_1tomoBay_1_1model_1_1sql_1_1framework_1_1QueryUtility.html#adf8f1fea7b649baadeb0297c41be72f5" target="_top" xlink:title="set an Integer parameter for the query object specified. ">
<polygon fill="white" stroke="black" points="2356,-300.717 2356,-330.717 2599,-330.717 2599,-300.717 2356,-300.717"/>
<text text-anchor="start" x="2364" y="-318.717" font-family="Helvetica,sans-Serif" font-size="10.00">com.tomoparts.tomoBay.model.sql.framework.</text>
<text text-anchor="middle" x="2477.5" y="-307.717" font-family="Helvetica,sans-Serif" font-size="10.00">QueryUtility.setFLOATParam</text>
</a>
</g>
</g>
<!-- Node11&#45;&gt;Node12 -->
<g id="edge18" class="edge"><title>Node11&#45;&gt;Node12</title>
<path fill="none" stroke="midnightblue" d="M2320.19,-315.717C2328.59,-315.717 2337.07,-315.717 2345.52,-315.717"/>
<polygon fill="midnightblue" stroke="midnightblue" points="2345.79,-319.217 2355.79,-315.717 2345.79,-312.217 2345.79,-319.217"/>
</g>
<!-- Node11&#45;&gt;Node13 -->
<g id="edge22" class="edge"><title>Node11&#45;&gt;Node13</title>
<path fill="none" stroke="midnightblue" d="M2292.24,-300.692C2405.67,-282.202 2584.53,-252.636 2599,-247.717 2650.01,-230.373 2704.24,-199.145 2737.38,-178.421"/>
<polygon fill="midnightblue" stroke="midnightblue" points="2739.56,-181.179 2746.14,-172.875 2735.82,-175.264 2739.56,-181.179"/>
</g>
<!-- Node12&#45;&gt;Node3 -->
<g id="edge19" class="edge"><title>Node12&#45;&gt;Node3</title>
<path fill="none" stroke="midnightblue" d="M2558.19,-330.739C2572.14,-334.712 2586.25,-339.642 2599,-345.717 2653.73,-371.796 2708.14,-417.033 2740.16,-446.153"/>
<polygon fill="midnightblue" stroke="midnightblue" points="2738.08,-448.992 2747.8,-453.188 2742.82,-443.841 2738.08,-448.992"/>
</g>
<!-- Node12&#45;&gt;Node13 -->
<g id="edge20" class="edge"><title>Node12&#45;&gt;Node13</title>
<path fill="none" stroke="midnightblue" d="M2558.19,-300.695C2572.14,-296.721 2586.25,-291.791 2599,-285.717 2657.17,-257.997 2714.99,-208.634 2745.93,-179.986"/>
<polygon fill="midnightblue" stroke="midnightblue" points="2748.66,-182.224 2753.56,-172.832 2743.87,-177.117 2748.66,-182.224"/>
</g>
<!-- Node14 -->
<g id="node14" class="node"><title>Node14</title>
<g id="a_node14"><a xlink:href="classcom_1_1tomoparts_1_1tomoBay_1_1model_1_1sql_1_1framework_1_1queryTypes_1_1AbstractDBQuery.html#ae8a5c5f1701ee77ef658050c8345d518" target="_top" xlink:title="Used by derived classes to define the Query string to be used in the query. ">
<polygon fill="white" stroke="black" points="2941,-142.717 2941,-172.717 3211,-172.717 3211,-142.717 2941,-142.717"/>
<text text-anchor="start" x="2949" y="-160.717" font-family="Helvetica,sans-Serif" font-size="10.00">com.tomoparts.tomoBay.model.sql.framework.query</text>
<text text-anchor="middle" x="3076" y="-149.717" font-family="Helvetica,sans-Serif" font-size="10.00">Types.AbstractDBQuery.queryString</text>
</a>
</g>
</g>
<!-- Node13&#45;&gt;Node14 -->
<g id="edge21" class="edge"><title>Node13&#45;&gt;Node14</title>
<path fill="none" stroke="midnightblue" d="M2905.22,-157.717C2913.59,-157.717 2922.03,-157.717 2930.44,-157.717"/>
<polygon fill="midnightblue" stroke="midnightblue" points="2930.68,-161.217 2940.68,-157.717 2930.68,-154.217 2930.68,-161.217"/>
</g>
</g>
</svg>
        <g id="navigator" transform="translate(0 0)" fill="#404254">
                <rect fill="#f2f5e9" fill-opacity="0.5" stroke="#606060" stroke-width=".5" x="0" y="0" width="60" height="60"/>
                <use id="zoomplus" xlink:href="#zoomPlus" x="17" y="9" onmousedown="handleZoom(evt,'in')"/>
                <use id="zoomminus" xlink:href="#zoomMin" x="42" y="9" onmousedown="handleZoom(evt,'out')"/>
                <use id="reset" xlink:href="#resetDef" x="30" y="36" onmousedown="handleReset()"/>
                <g id="arrowUp" xlink:href="#dirArrow" transform="translate(30 24)" onmousedown="handlePan(0,-1)">
                  <use xlink:href="#rim" fill="#404040">
                        <set attributeName="fill" to="#808080" begin="arrowUp.mouseover" end="arrowUp.mouseout"/>
                  </use>
                  <path fill="none" stroke="white" stroke-width="1.5" d="M0,-3.0v7 M-2.5,-0.5L0,-3.0L2.5,-0.5"/>
                </g>
                <g id="arrowRight" xlink:href="#dirArrow" transform="rotate(90) translate(36 -43)" onmousedown="handlePan(1,0)">
                  <use xlink:href="#rim" fill="#404040">
                        <set attributeName="fill" to="#808080" begin="arrowRight.mouseover" end="arrowRight.mouseout"/>
                  </use>
                  <path fill="none" stroke="white" stroke-width="1.5" d="M0,-3.0v7 M-2.5,-0.5L0,-3.0L2.5,-0.5"/>
                </g>
                <g id="arrowDown" xlink:href="#dirArrow" transform="rotate(180) translate(-30 -48)" onmousedown="handlePan(0,1)">
                  <use xlink:href="#rim" fill="#404040">
                        <set attributeName="fill" to="#808080" begin="arrowDown.mouseover" end="arrowDown.mouseout"/>
                  </use>
                  <path fill="none" stroke="white" stroke-width="1.5" d="M0,-3.0v7 M-2.5,-0.5L0,-3.0L2.5,-0.5"/>
                </g>
                <g id="arrowLeft" xlink:href="#dirArrow" transform="rotate(270) translate(-36 17)" onmousedown="handlePan(-1,0)">
                  <use xlink:href="#rim" fill="#404040">
                        <set attributeName="fill" to="#808080" begin="arrowLeft.mouseover" end="arrowLeft.mouseout"/>
                  </use>
                  <path fill="none" stroke="white" stroke-width="1.5" d="M0,-3.0v7 M-2.5,-0.5L0,-3.0L2.5,-0.5"/>
                </g>
        </g>
        <svg viewBox="0 0 15 15" width="100%" height="30px" preserveAspectRatio="xMaxYMin meet">
         <g id="arrow_out" transform="scale(0.3 0.3)">
          <a xlink:href="classcom_1_1tomoparts_1_1tomoBay_1_1model_1_1sql_1_1queries_1_1concreteQueries_1_1update_1_1UpdateInvoiceStatus_af9020b85517904668d036bc2bf89433c_cgraph_org.svg" target="_base">
           <rect id="button" ry="5" rx="5" y="6" x="6" height="38" width="38"
                fill="#f2f5e9" fill-opacity="0.5" stroke="#606060" stroke-width="1.0"/>
           <path id="arrow"
             d="M 11.500037,31.436501 C 11.940474,20.09759 22.043105,11.32322 32.158766,21.979434 L 37.068811,17.246167 C 37.068811,17.246167 37.088388,32 37.088388,32 L 22.160133,31.978069 C 22.160133,31.978069 26.997745,27.140456 26.997745,27.140456 C 18.528582,18.264221 13.291696,25.230495 11.500037,31.436501 z"
             style="fill:#404040;"/>
          </a>
         </g>
        </svg>
</svg>
