<?xml version="1.0" encoding="UTF-8" standalone="no"?>
<!DOCTYPE svg PUBLIC "-//W3C//DTD SVG 1.1//EN"
 "http://www.w3.org/Graphics/SVG/1.1/DTD/svg11.dtd">
<!-- Generated by graphviz version 2.38.0 (20140413.2041)
 -->
<!-- Title: OrderTransactionsCall Pages: 1 -->
<svg width="272pt" height="193pt"
 viewBox="0.00 0.00 272.00 193.00" xmlns="http://www.w3.org/2000/svg" xmlns:xlink="http://www.w3.org/1999/xlink">
<g id="graph0" class="graph" transform="scale(1 1) rotate(0) translate(4 189)">
<title>OrderTransactionsCall</title>
<polygon fill="white" stroke="none" points="-4,4 -4,-189 268,-189 268,4 -4,4"/>
<!-- Node1 -->
<g id="node1" class="node"><title>Node1</title>
<polygon fill="#bfbfbf" stroke="black" points="53.5,-0.5 53.5,-68.5 193.5,-68.5 193.5,-0.5 53.5,-0.5"/>
<text text-anchor="middle" x="123.5" y="-56.5" font-family="Helvetica,sans-Serif" font-size="10.00">OrderTransactionsCall</text>
<polyline fill="none" stroke="black" points="53.5,-49.5 193.5,-49.5 "/>
<text text-anchor="middle" x="123.5" y="-37.5" font-family="Helvetica,sans-Serif" font-size="10.00"> </text>
<polyline fill="none" stroke="black" points="53.5,-30.5 193.5,-30.5 "/>
<text text-anchor="start" x="61.5" y="-18.5" font-family="Helvetica,sans-Serif" font-size="10.00">+ OrderTransactionsCall()</text>
<text text-anchor="start" x="61.5" y="-7.5" font-family="Helvetica,sans-Serif" font-size="10.00">+ call()</text>
</g>
<!-- Node2 -->
<g id="node2" class="node"><title>Node2</title>
<g id="a_node2"><a xlink:href="classcom_1_1tomoparts_1_1tomoBay_1_1model_1_1eBayAPI_1_1AbstractAPIcall.html" target="_top" xlink:title="This is the abstract base class for all the recievers in this command pattern, it provides a common w...">
<polygon fill="white" stroke="black" points="0,-116.5 0,-184.5 107,-184.5 107,-116.5 0,-116.5"/>
<text text-anchor="middle" x="53.5" y="-172.5" font-family="Helvetica,sans-Serif" font-size="10.00">AbstractAPIcall</text>
<polyline fill="none" stroke="black" points="0,-165.5 107,-165.5 "/>
<text text-anchor="start" x="8" y="-153.5" font-family="Helvetica,sans-Serif" font-size="10.00"># usrToken_M</text>
<text text-anchor="start" x="8" y="-142.5" font-family="Helvetica,sans-Serif" font-size="10.00"># server_M</text>
<polyline fill="none" stroke="black" points="0,-135.5 107,-135.5 "/>
<text text-anchor="start" x="8" y="-123.5" font-family="Helvetica,sans-Serif" font-size="10.00"># AbstractAPIcall()</text>
</a>
</g>
</g>
<!-- Node2&#45;&gt;Node1 -->
<g id="edge1" class="edge"><title>Node2&#45;&gt;Node1</title>
<path fill="none" stroke="midnightblue" d="M79.2613,-107.546C87.1412,-94.7129 95.6941,-80.7839 103.161,-68.6243"/>
<polygon fill="none" stroke="midnightblue" points="76.1851,-105.867 73.9351,-116.22 82.1504,-109.53 76.1851,-105.867"/>
</g>
<!-- Node3 -->
<g id="node3" class="node"><title>Node3</title>
<polygon fill="white" stroke="#bfbfbf" points="125,-122 125,-179 264,-179 264,-122 125,-122"/>
<text text-anchor="middle" x="194.5" y="-167" font-family="Helvetica,sans-Serif" font-size="10.00">GetOrderTransactionsCall</text>
<polyline fill="none" stroke="#bfbfbf" points="125,-160 264,-160 "/>
<text text-anchor="middle" x="194.5" y="-148" font-family="Helvetica,sans-Serif" font-size="10.00"> </text>
<polyline fill="none" stroke="#bfbfbf" points="125,-141 264,-141 "/>
<text text-anchor="middle" x="194.5" y="-129" font-family="Helvetica,sans-Serif" font-size="10.00"> </text>
</g>
<!-- Node3&#45;&gt;Node1 -->
<g id="edge2" class="edge"><title>Node3&#45;&gt;Node1</title>
<path fill="none" stroke="#404040" d="M177.313,-121.904C169.255,-108.966 159.463,-93.244 150.453,-78.7765"/>
<polygon fill="none" stroke="#404040" points="150.41,-78.7074 143.843,-75.729 144.066,-68.5214 150.633,-71.4997 150.41,-78.7074"/>
<text text-anchor="middle" x="173" y="-90" font-family="Helvetica,sans-Serif" font-size="10.00"> &#45;call</text>
</g>
</g>
</svg>
