<?xml version="1.0" encoding="UTF-8" standalone="no"?>
<!DOCTYPE svg PUBLIC "-//W3C//DTD SVG 1.1//EN"
 "http://www.w3.org/Graphics/SVG/1.1/DTD/svg11.dtd">
<!-- Generated by graphviz version 2.38.0 (20140413.2041)
 -->
<!-- Title: AbstractModifyQueryNoParams Pages: 1 -->
<svg width="215pt" height="416pt"
 viewBox="0.00 0.00 214.50 416.00" xmlns="http://www.w3.org/2000/svg" xmlns:xlink="http://www.w3.org/1999/xlink">
<g id="graph0" class="graph" transform="scale(1 1) rotate(0) translate(4 412)">
<title>AbstractModifyQueryNoParams</title>
<polygon fill="white" stroke="none" points="-4,4 -4,-412 210.5,-412 210.5,4 -4,4"/>
<!-- Node1 -->
<g id="node1" class="node"><title>Node1</title>
<polygon fill="#bfbfbf" stroke="black" points="0,-0.5 0,-90.5 185,-90.5 185,-0.5 0,-0.5"/>
<text text-anchor="middle" x="92.5" y="-78.5" font-family="Helvetica,sans-Serif" font-size="10.00">AbstractModifyQueryNoParams</text>
<polyline fill="none" stroke="black" points="0,-71.5 185,-71.5 "/>
<text text-anchor="middle" x="92.5" y="-59.5" font-family="Helvetica,sans-Serif" font-size="10.00"> </text>
<polyline fill="none" stroke="black" points="0,-52.5 185,-52.5 "/>
<text text-anchor="start" x="8" y="-40.5" font-family="Helvetica,sans-Serif" font-size="10.00">+ AbstractModifyQueryNoParams()</text>
<text text-anchor="start" x="8" y="-29.5" font-family="Helvetica,sans-Serif" font-size="10.00">+ execute()</text>
<text text-anchor="start" x="8" y="-18.5" font-family="Helvetica,sans-Serif" font-size="10.00"># queryString()</text>
<text text-anchor="start" x="8" y="-7.5" font-family="Helvetica,sans-Serif" font-size="10.00">&#45; initQuery()</text>
</g>
<!-- Node2 -->
<g id="node2" class="node"><title>Node2</title>
<g id="a_node2"><a xlink:href="classcom_1_1tomoparts_1_1tomoBay_1_1model_1_1sql_1_1framework_1_1queryTypes_1_1modify_1_1AbstractModifyQuery.html" target="_top" xlink:title="Copyright(C) 2015 Jan P.C. ">
<polygon fill="white" stroke="black" points="25,-128.5 25,-185.5 160,-185.5 160,-128.5 25,-128.5"/>
<text text-anchor="middle" x="92.5" y="-173.5" font-family="Helvetica,sans-Serif" font-size="10.00">AbstractModifyQuery</text>
<polyline fill="none" stroke="black" points="25,-166.5 160,-166.5 "/>
<text text-anchor="middle" x="92.5" y="-154.5" font-family="Helvetica,sans-Serif" font-size="10.00"> </text>
<polyline fill="none" stroke="black" points="25,-147.5 160,-147.5 "/>
<text text-anchor="start" x="33" y="-135.5" font-family="Helvetica,sans-Serif" font-size="10.00">+ AbstractModifyQuery()</text>
</a>
</g>
</g>
<!-- Node2&#45;&gt;Node1 -->
<g id="edge1" class="edge"><title>Node2&#45;&gt;Node1</title>
<path fill="none" stroke="midnightblue" d="M92.5,-118.312C92.5,-109.43 92.5,-99.8831 92.5,-90.7419"/>
<polygon fill="none" stroke="midnightblue" points="89.0001,-118.368 92.5,-128.369 96.0001,-118.369 89.0001,-118.368"/>
</g>
<!-- Node3 -->
<g id="node3" class="node"><title>Node3</title>
<g id="a_node3"><a xlink:href="classcom_1_1tomoparts_1_1tomoBay_1_1model_1_1sql_1_1framework_1_1queryTypes_1_1AbstractDBQuery.html" target="_top" xlink:title="Interface that all database queries must adhere to. ">
<polygon fill="white" stroke="black" points="42.5,-223.5 42.5,-302.5 142.5,-302.5 142.5,-223.5 42.5,-223.5"/>
<text text-anchor="middle" x="92.5" y="-290.5" font-family="Helvetica,sans-Serif" font-size="10.00">AbstractDBQuery</text>
<polyline fill="none" stroke="black" points="42.5,-283.5 142.5,-283.5 "/>
<text text-anchor="middle" x="92.5" y="-271.5" font-family="Helvetica,sans-Serif" font-size="10.00"> </text>
<polyline fill="none" stroke="black" points="42.5,-264.5 142.5,-264.5 "/>
<text text-anchor="start" x="50.5" y="-252.5" font-family="Helvetica,sans-Serif" font-size="10.00">+ statement()</text>
<text text-anchor="start" x="50.5" y="-241.5" font-family="Helvetica,sans-Serif" font-size="10.00"># queryString()</text>
<text text-anchor="start" x="50.5" y="-230.5" font-family="Helvetica,sans-Serif" font-size="10.00"># cleanup()</text>
</a>
</g>
</g>
<!-- Node3&#45;&gt;Node2 -->
<g id="edge2" class="edge"><title>Node3&#45;&gt;Node2</title>
<path fill="none" stroke="midnightblue" d="M92.5,-213.161C92.5,-203.737 92.5,-194.174 92.5,-185.716"/>
<polygon fill="none" stroke="midnightblue" points="89.0001,-213.274 92.5,-223.274 96.0001,-213.274 89.0001,-213.274"/>
</g>
<!-- Node4 -->
<g id="node4" class="node"><title>Node4</title>
<polygon fill="white" stroke="#bfbfbf" points="2,-350.5 2,-407.5 73,-407.5 73,-350.5 2,-350.5"/>
<text text-anchor="middle" x="37.5" y="-395.5" font-family="Helvetica,sans-Serif" font-size="10.00">Connection</text>
<polyline fill="none" stroke="#bfbfbf" points="2,-388.5 73,-388.5 "/>
<text text-anchor="middle" x="37.5" y="-376.5" font-family="Helvetica,sans-Serif" font-size="10.00"> </text>
<polyline fill="none" stroke="#bfbfbf" points="2,-369.5 73,-369.5 "/>
<text text-anchor="middle" x="37.5" y="-357.5" font-family="Helvetica,sans-Serif" font-size="10.00"> </text>
</g>
<!-- Node4&#45;&gt;Node3 -->
<g id="edge3" class="edge"><title>Node4&#45;&gt;Node3</title>
<path fill="none" stroke="#404040" d="M39.5838,-350.223C41.0189,-340.659 43.4353,-330.078 47.5,-321 48.7398,-318.231 50.1441,-315.479 51.671,-312.765"/>
<polygon fill="none" stroke="#404040" points="51.7101,-312.703 51.5049,-305.495 58.0796,-302.533 58.2849,-309.741 51.7101,-312.703"/>
<text text-anchor="middle" x="86.5" y="-324" font-family="Helvetica,sans-Serif" font-size="10.00"> #connection_M</text>
</g>
<!-- Node5 -->
<g id="node5" class="node"><title>Node5</title>
<polygon fill="white" stroke="#bfbfbf" points="91.5,-350.5 91.5,-407.5 203.5,-407.5 203.5,-350.5 91.5,-350.5"/>
<text text-anchor="middle" x="147.5" y="-395.5" font-family="Helvetica,sans-Serif" font-size="10.00">PreparedStatement</text>
<polyline fill="none" stroke="#bfbfbf" points="91.5,-388.5 203.5,-388.5 "/>
<text text-anchor="middle" x="147.5" y="-376.5" font-family="Helvetica,sans-Serif" font-size="10.00"> </text>
<polyline fill="none" stroke="#bfbfbf" points="91.5,-369.5 203.5,-369.5 "/>
<text text-anchor="middle" x="147.5" y="-357.5" font-family="Helvetica,sans-Serif" font-size="10.00"> </text>
</g>
<!-- Node5&#45;&gt;Node3 -->
<g id="edge4" class="edge"><title>Node5&#45;&gt;Node3</title>
<path fill="none" stroke="#404040" d="M137.834,-350.378C134.266,-340.926 129.989,-330.376 125.5,-321 124.271,-318.433 122.969,-315.826 121.619,-313.212"/>
<polygon fill="none" stroke="#404040" points="121.547,-313.077 115.185,-309.681 115.873,-302.503 122.235,-305.899 121.547,-313.077"/>
<text text-anchor="middle" x="168.5" y="-324" font-family="Helvetica,sans-Serif" font-size="10.00"> #statement_M</text>
</g>
</g>
</svg>
