<?xml version="1.0" encoding="UTF-8" standalone="no"?>
<!DOCTYPE svg PUBLIC "-//W3C//DTD SVG 1.1//EN"
 "http://www.w3.org/Graphics/SVG/1.1/DTD/svg11.dtd">
<!-- Generated by graphviz version 2.38.0 (20140413.2041)
 -->
<!-- Title: OrderTransactionsCall Pages: 1 -->
<svg width="345pt" height="88pt"
 viewBox="0.00 0.00 345.00 88.00" xmlns="http://www.w3.org/2000/svg" xmlns:xlink="http://www.w3.org/1999/xlink">
<g id="graph0" class="graph" transform="scale(1 1) rotate(0) translate(4 84)">
<title>OrderTransactionsCall</title>
<polygon fill="white" stroke="none" points="-4,4 -4,-84 341,-84 341,4 -4,4"/>
<!-- Node1 -->
<g id="node1" class="node"><title>Node1</title>
<polygon fill="#bfbfbf" stroke="black" points="0,-30 0,-49 122,-49 122,-30 0,-30"/>
<text text-anchor="middle" x="61" y="-37" font-family="Helvetica,sans-Serif" font-size="10.00">OrderTransactionsCall</text>
</g>
<!-- Node2 -->
<g id="node2" class="node"><title>Node2</title>
<g id="a_node2"><a xlink:href="classcom_1_1tomoparts_1_1tomoBay_1_1model_1_1eBayAPI_1_1APIcontext.html#a2ffa8b387d0db2f1192c42e5d37386e5" target="_top" xlink:title="used for getting an ApiContext object that can then be passed to individual API calls. ">
<polygon fill="white" stroke="black" points="158,-49.5 158,-79.5 337,-79.5 337,-49.5 158,-49.5"/>
<text text-anchor="start" x="166" y="-67.5" font-family="Helvetica,sans-Serif" font-size="10.00">com.tomoparts.tomoBay.model.e</text>
<text text-anchor="middle" x="247.5" y="-56.5" font-family="Helvetica,sans-Serif" font-size="10.00">BayAPI.APIcontext.apiContext</text>
</a>
</g>
</g>
<!-- Node1&#45;&gt;Node2 -->
<g id="edge1" class="edge"><title>Node1&#45;&gt;Node2</title>
<path fill="none" stroke="midnightblue" d="M122.157,-47.6513C130.485,-48.7798 139.212,-49.9623 148.014,-51.155"/>
<polygon fill="midnightblue" stroke="midnightblue" points="147.588,-54.6293 157.968,-52.5038 148.528,-47.6926 147.588,-54.6293"/>
</g>
<!-- Node3 -->
<g id="node3" class="node"><title>Node3</title>
<g id="a_node3"><a xlink:href="classcom_1_1tomoparts_1_1tomoBay_1_1model_1_1eBayAPI_1_1APIcontext.html#a8992e1a212bc23facdb69618e2615466" target="_top" xlink:title="Used instead of constructor for getting an APIcontext instance. ">
<polygon fill="white" stroke="black" points="158,-0.5 158,-30.5 337,-30.5 337,-0.5 158,-0.5"/>
<text text-anchor="start" x="166" y="-18.5" font-family="Helvetica,sans-Serif" font-size="10.00">com.tomoparts.tomoBay.model.e</text>
<text text-anchor="middle" x="247.5" y="-7.5" font-family="Helvetica,sans-Serif" font-size="10.00">BayAPI.APIcontext.instance</text>
</a>
</g>
</g>
<!-- Node1&#45;&gt;Node3 -->
<g id="edge2" class="edge"><title>Node1&#45;&gt;Node3</title>
<path fill="none" stroke="midnightblue" d="M122.157,-31.6747C130.485,-30.5914 139.212,-29.4562 148.014,-28.3112"/>
<polygon fill="midnightblue" stroke="midnightblue" points="148.503,-31.7772 157.968,-27.0164 147.6,-24.8356 148.503,-31.7772"/>
</g>
</g>
</svg>
