<?xml version="1.0" encoding="UTF-8" standalone="no"?>
<!DOCTYPE svg PUBLIC "-//W3C//DTD SVG 1.1//EN"
 "http://www.w3.org/Graphics/SVG/1.1/DTD/svg11.dtd">
<!-- Generated by graphviz version 2.38.0 (20140413.2041)
 -->
<!-- Title: StandardInvoiceLine Pages: 1 -->
<svg width="140pt" height="259pt"
 viewBox="0.00 0.00 140.00 259.00" xmlns="http://www.w3.org/2000/svg" xmlns:xlink="http://www.w3.org/1999/xlink">
<g id="graph0" class="graph" transform="scale(1 1) rotate(0) translate(4 255)">
<title>StandardInvoiceLine</title>
<polygon fill="white" stroke="none" points="-4,4 -4,-255 136,-255 136,4 -4,4"/>
<!-- Node1 -->
<g id="node1" class="node"><title>Node1</title>
<polygon fill="#bfbfbf" stroke="black" points="0,-0.5 0,-68.5 132,-68.5 132,-0.5 0,-0.5"/>
<text text-anchor="middle" x="66" y="-56.5" font-family="Helvetica,sans-Serif" font-size="10.00">StandardInvoiceLine</text>
<polyline fill="none" stroke="black" points="0,-49.5 132,-49.5 "/>
<text text-anchor="middle" x="66" y="-37.5" font-family="Helvetica,sans-Serif" font-size="10.00"> </text>
<polyline fill="none" stroke="black" points="0,-30.5 132,-30.5 "/>
<text text-anchor="start" x="8" y="-18.5" font-family="Helvetica,sans-Serif" font-size="10.00">+ StandardInvoiceLine()</text>
<text text-anchor="start" x="8" y="-7.5" font-family="Helvetica,sans-Serif" font-size="10.00"># unitPrice()</text>
</g>
<!-- Node2 -->
<g id="node2" class="node"><title>Node2</title>
<g id="a_node2"><a xlink:href="classcom_1_1tomoparts_1_1tomoBay_1_1model_1_1dataTypes_1_1financial_1_1SalesOrderDayBook_1_1AbstractLineItem.html" target="_top" xlink:title="Copyright(C) 2015 Jan P.C. ">
<polygon fill="white" stroke="black" points="5.5,-105.5 5.5,-250.5 126.5,-250.5 126.5,-105.5 5.5,-105.5"/>
<text text-anchor="middle" x="66" y="-238.5" font-family="Helvetica,sans-Serif" font-size="10.00">AbstractLineItem</text>
<polyline fill="none" stroke="black" points="5.5,-231.5 126.5,-231.5 "/>
<text text-anchor="start" x="13.5" y="-219.5" font-family="Helvetica,sans-Serif" font-size="10.00"># partIndex</text>
<text text-anchor="start" x="13.5" y="-208.5" font-family="Helvetica,sans-Serif" font-size="10.00"># transactionIndex_M</text>
<text text-anchor="start" x="13.5" y="-197.5" font-family="Helvetica,sans-Serif" font-size="10.00">&#45; price_M</text>
<polyline fill="none" stroke="black" points="5.5,-190.5 126.5,-190.5 "/>
<text text-anchor="start" x="13.5" y="-178.5" font-family="Helvetica,sans-Serif" font-size="10.00">+ AbstractLineItem()</text>
<text text-anchor="start" x="13.5" y="-167.5" font-family="Helvetica,sans-Serif" font-size="10.00">+ adjustPrice()</text>
<text text-anchor="start" x="13.5" y="-156.5" font-family="Helvetica,sans-Serif" font-size="10.00">+ quantity()</text>
<text text-anchor="start" x="13.5" y="-145.5" font-family="Helvetica,sans-Serif" font-size="10.00">+ description()</text>
<text text-anchor="start" x="13.5" y="-134.5" font-family="Helvetica,sans-Serif" font-size="10.00">+ partNo()</text>
<text text-anchor="start" x="13.5" y="-123.5" font-family="Helvetica,sans-Serif" font-size="10.00">+ price()</text>
<text text-anchor="start" x="13.5" y="-112.5" font-family="Helvetica,sans-Serif" font-size="10.00"># unitPrice()</text>
</a>
</g>
</g>
<!-- Node2&#45;&gt;Node1 -->
<g id="edge1" class="edge"><title>Node2&#45;&gt;Node1</title>
<path fill="none" stroke="midnightblue" d="M66,-95.1914C66,-85.8305 66,-76.7344 66,-68.5806"/>
<polygon fill="none" stroke="midnightblue" points="62.5001,-95.4209 66,-105.421 69.5001,-95.4209 62.5001,-95.4209"/>
</g>
</g>
</svg>
