<?xml version="1.0" encoding="UTF-8" standalone="no"?>
<!DOCTYPE svg PUBLIC "-//W3C//DTD SVG 1.1//EN"
 "http://www.w3.org/Graphics/SVG/1.1/DTD/svg11.dtd">
<!-- Generated by graphviz version 2.38.0 (20140413.2041)
 -->
<!-- Title: getConfig Pages: 1 -->
<svg width="1403pt" height="1129pt"
 viewBox="0.00 0.00 1403.00 1129.00" xmlns="http://www.w3.org/2000/svg" xmlns:xlink="http://www.w3.org/1999/xlink">
<g id="graph0" class="graph" transform="scale(1 1) rotate(0) translate(4 1125)">
<title>getConfig</title>
<polygon fill="white" stroke="none" points="-4,4 -4,-1125 1399,-1125 1399,4 -4,4"/>
<!-- Node1 -->
<g id="node1" class="node"><title>Node1</title>
<polygon fill="#bfbfbf" stroke="black" points="0,-88 0,-107 62,-107 62,-88 0,-88"/>
<text text-anchor="middle" x="31" y="-95" font-family="Helvetica,sans-Serif" font-size="10.00">getConfig</text>
</g>
<!-- Node2 -->
<g id="node2" class="node"><title>Node2</title>
<g id="a_node2"><a xlink:href="classcom_1_1tomoparts_1_1tomoBay_1_1helpers_1_1ConfigReader.html#a310420c6db22982498520c2ad7a2b82f" target="_top" xlink:title="find the value of the config variable specified in the arguments. ">
<polygon fill="white" stroke="black" points="100.5,-606 100.5,-625 154.5,-625 154.5,-606 100.5,-606"/>
<text text-anchor="middle" x="127.5" y="-613" font-family="Helvetica,sans-Serif" font-size="10.00">getConf</text>
</a>
</g>
</g>
<!-- Node1&#45;&gt;Node2 -->
<g id="edge1" class="edge"><title>Node1&#45;&gt;Node2</title>
<path fill="none" stroke="midnightblue" d="M35.6374,-117.438C51.4005,-203.843 113.521,-544.354 124.754,-605.928"/>
<polygon fill="midnightblue" stroke="midnightblue" points="39.0413,-116.595 33.8034,-107.385 32.155,-117.851 39.0413,-116.595"/>
</g>
<!-- Node32 -->
<g id="node32" class="node"><title>Node32</title>
<g id="a_node32"><a xlink:href="classcom_1_1tomoparts_1_1tomoBay_1_1helpers_1_1ConfigReader.html#a7059b3afa0bba045e7069deaa7460887" target="_top" xlink:title="Find all values of the specified config variable, if multiple instances exist then the array will be ...">
<polygon fill="white" stroke="black" points="98,-88 98,-107 157,-107 157,-88 98,-88"/>
<text text-anchor="middle" x="127.5" y="-95" font-family="Helvetica,sans-Serif" font-size="10.00">getConfs</text>
</a>
</g>
</g>
<!-- Node1&#45;&gt;Node32 -->
<g id="edge32" class="edge"><title>Node1&#45;&gt;Node32</title>
<path fill="none" stroke="midnightblue" d="M72.4003,-97.5C80.9848,-97.5 89.8776,-97.5 97.9125,-97.5"/>
<polygon fill="midnightblue" stroke="midnightblue" points="72.1602,-94.0001 62.1602,-97.5 72.1602,-101 72.1602,-94.0001"/>
</g>
<!-- Node37 -->
<g id="node37" class="node"><title>Node37</title>
<g id="a_node37"><a xlink:href="classcom_1_1tomoparts_1_1tomoBay_1_1helpers_1_1ConfigReader.html#ad3d2ffd9b97b6fcdb33c2ca3bb528a11" target="_top" xlink:title="find out how many instances of a particular config variable exist within the config file...">
<polygon fill="white" stroke="black" points="110,-42 110,-61 145,-61 145,-42 110,-42"/>
<text text-anchor="middle" x="127.5" y="-49" font-family="Helvetica,sans-Serif" font-size="10.00">size</text>
</a>
</g>
</g>
<!-- Node1&#45;&gt;Node37 -->
<g id="edge37" class="edge"><title>Node1&#45;&gt;Node37</title>
<path fill="none" stroke="midnightblue" d="M60.5806,-83.5878C76.6613,-75.7601 96.1799,-66.259 109.787,-59.6353"/>
<polygon fill="midnightblue" stroke="midnightblue" points="59.0399,-80.445 51.5805,-87.9688 62.1037,-86.7389 59.0399,-80.445"/>
</g>
<!-- Node3 -->
<g id="node3" class="node"><title>Node3</title>
<g id="a_node3"><a xlink:href="classcom_1_1tomoparts_1_1tomoBay_1_1helpers_1_1checkTime_1_1Friday.html#a2377d20a90d04ac963661f0a3a995f94" target="_top" xlink:title="defines the start time for this Day derived class ">
<polygon fill="white" stroke="black" points="211,-1090.5 211,-1120.5 417,-1120.5 417,-1090.5 211,-1090.5"/>
<text text-anchor="start" x="219" y="-1108.5" font-family="Helvetica,sans-Serif" font-size="10.00">com.tomoparts.tomoBay.helpers.check</text>
<text text-anchor="middle" x="314" y="-1097.5" font-family="Helvetica,sans-Serif" font-size="10.00">Time.Friday.startTime</text>
</a>
</g>
</g>
<!-- Node2&#45;&gt;Node3 -->
<g id="edge2" class="edge"><title>Node2&#45;&gt;Node3</title>
<path fill="none" stroke="midnightblue" d="M128.318,-635.429C128.008,-715.908 131.087,-1015.77 193,-1081.5 198.171,-1086.99 204.216,-1091.42 210.792,-1094.98"/>
<polygon fill="midnightblue" stroke="midnightblue" points="131.819,-635.222 128.382,-625.201 124.819,-635.179 131.819,-635.222"/>
</g>
<!-- Node4 -->
<g id="node4" class="node"><title>Node4</title>
<g id="a_node4"><a xlink:href="classcom_1_1tomoparts_1_1tomoBay_1_1helpers_1_1checkTime_1_1Friday.html#a59c0b53629eb43516639e74aa467f7cf" target="_top" xlink:title="defines the end time for this Day derived class ">
<polygon fill="white" stroke="black" points="211,-1041.5 211,-1071.5 417,-1071.5 417,-1041.5 211,-1041.5"/>
<text text-anchor="start" x="219" y="-1059.5" font-family="Helvetica,sans-Serif" font-size="10.00">com.tomoparts.tomoBay.helpers.check</text>
<text text-anchor="middle" x="314" y="-1048.5" font-family="Helvetica,sans-Serif" font-size="10.00">Time.Friday.endTime</text>
</a>
</g>
</g>
<!-- Node2&#45;&gt;Node4 -->
<g id="edge3" class="edge"><title>Node2&#45;&gt;Node4</title>
<path fill="none" stroke="midnightblue" d="M128.68,-635.694C129.78,-711.07 137.59,-974.601 193,-1032.5 198.215,-1037.95 204.291,-1042.35 210.889,-1045.88"/>
<polygon fill="midnightblue" stroke="midnightblue" points="132.175,-635.23 128.555,-625.273 125.175,-635.314 132.175,-635.23"/>
</g>
<!-- Node5 -->
<g id="node5" class="node"><title>Node5</title>
<g id="a_node5"><a xlink:href="classcom_1_1tomoparts_1_1tomoBay_1_1helpers_1_1checkTime_1_1Monday.html#a2377d20a90d04ac963661f0a3a995f94" target="_top" xlink:title="defines the start time for this Day derived class ">
<polygon fill="white" stroke="black" points="211,-992.5 211,-1022.5 417,-1022.5 417,-992.5 211,-992.5"/>
<text text-anchor="start" x="219" y="-1010.5" font-family="Helvetica,sans-Serif" font-size="10.00">com.tomoparts.tomoBay.helpers.check</text>
<text text-anchor="middle" x="314" y="-999.5" font-family="Helvetica,sans-Serif" font-size="10.00">Time.Monday.startTime</text>
</a>
</g>
</g>
<!-- Node2&#45;&gt;Node5 -->
<g id="edge4" class="edge"><title>Node2&#45;&gt;Node5</title>
<path fill="none" stroke="midnightblue" d="M129.13,-635.514C131.734,-704.848 143.953,-933.267 193,-983.5 198.195,-988.821 204.212,-993.135 210.73,-996.619"/>
<polygon fill="midnightblue" stroke="midnightblue" points="132.615,-635.016 128.77,-625.144 125.619,-635.259 132.615,-635.016"/>
</g>
<!-- Node6 -->
<g id="node6" class="node"><title>Node6</title>
<g id="a_node6"><a xlink:href="classcom_1_1tomoparts_1_1tomoBay_1_1helpers_1_1checkTime_1_1Monday.html#a59c0b53629eb43516639e74aa467f7cf" target="_top" xlink:title="defines the end time for this Day derived class ">
<polygon fill="white" stroke="black" points="211,-943.5 211,-973.5 417,-973.5 417,-943.5 211,-943.5"/>
<text text-anchor="start" x="219" y="-961.5" font-family="Helvetica,sans-Serif" font-size="10.00">com.tomoparts.tomoBay.helpers.check</text>
<text text-anchor="middle" x="314" y="-950.5" font-family="Helvetica,sans-Serif" font-size="10.00">Time.Monday.endTime</text>
</a>
</g>
</g>
<!-- Node2&#45;&gt;Node6 -->
<g id="edge5" class="edge"><title>Node2&#45;&gt;Node6</title>
<path fill="none" stroke="midnightblue" d="M129.701,-635.258C133.932,-698.119 150.265,-891.855 193,-934.5 198.264,-939.753 204.331,-944.017 210.884,-947.467"/>
<polygon fill="midnightblue" stroke="midnightblue" points="133.183,-634.864 129.048,-625.109 126.197,-635.314 133.183,-634.864"/>
</g>
<!-- Node7 -->
<g id="node7" class="node"><title>Node7</title>
<g id="a_node7"><a xlink:href="classcom_1_1tomoparts_1_1tomoBay_1_1helpers_1_1checkTime_1_1Saturday.html#a2377d20a90d04ac963661f0a3a995f94" target="_top" xlink:title="defines the start time for this Day derived class ">
<polygon fill="white" stroke="black" points="211,-894.5 211,-924.5 417,-924.5 417,-894.5 211,-894.5"/>
<text text-anchor="start" x="219" y="-912.5" font-family="Helvetica,sans-Serif" font-size="10.00">com.tomoparts.tomoBay.helpers.check</text>
<text text-anchor="middle" x="314" y="-901.5" font-family="Helvetica,sans-Serif" font-size="10.00">Time.Saturday.startTime</text>
</a>
</g>
</g>
<!-- Node2&#45;&gt;Node7 -->
<g id="edge6" class="edge"><title>Node2&#45;&gt;Node7</title>
<path fill="none" stroke="midnightblue" d="M130.467,-635.095C136.496,-691.149 156.555,-850.383 193,-885.5 198.278,-890.586 204.313,-894.737 210.805,-898.113"/>
<polygon fill="midnightblue" stroke="midnightblue" points="133.938,-634.636 129.42,-625.053 126.976,-635.362 133.938,-634.636"/>
</g>
<!-- Node8 -->
<g id="node8" class="node"><title>Node8</title>
<g id="a_node8"><a xlink:href="classcom_1_1tomoparts_1_1tomoBay_1_1helpers_1_1checkTime_1_1Saturday.html#a59c0b53629eb43516639e74aa467f7cf" target="_top" xlink:title="defines the end time for this Day derived class ">
<polygon fill="white" stroke="black" points="211,-845.5 211,-875.5 417,-875.5 417,-845.5 211,-845.5"/>
<text text-anchor="start" x="219" y="-863.5" font-family="Helvetica,sans-Serif" font-size="10.00">com.tomoparts.tomoBay.helpers.check</text>
<text text-anchor="middle" x="314" y="-852.5" font-family="Helvetica,sans-Serif" font-size="10.00">Time.Saturday.endTime</text>
</a>
</g>
</g>
<!-- Node2&#45;&gt;Node8 -->
<g id="edge7" class="edge"><title>Node2&#45;&gt;Node8</title>
<path fill="none" stroke="midnightblue" d="M127.95,-635.364C127.907,-678.812 134.319,-782.691 193,-836.5 198.324,-841.382 204.351,-845.391 210.799,-848.672"/>
<polygon fill="midnightblue" stroke="midnightblue" points="131.451,-635.289 128.084,-625.243 124.452,-635.196 131.451,-635.289"/>
</g>
<!-- Node9 -->
<g id="node9" class="node"><title>Node9</title>
<g id="a_node9"><a xlink:href="classcom_1_1tomoparts_1_1tomoBay_1_1helpers_1_1checkTime_1_1Sunday.html#a2377d20a90d04ac963661f0a3a995f94" target="_top" xlink:title="defines the start time for this Day derived class ">
<polygon fill="white" stroke="black" points="211,-796.5 211,-826.5 417,-826.5 417,-796.5 211,-796.5"/>
<text text-anchor="start" x="219" y="-814.5" font-family="Helvetica,sans-Serif" font-size="10.00">com.tomoparts.tomoBay.helpers.check</text>
<text text-anchor="middle" x="314" y="-803.5" font-family="Helvetica,sans-Serif" font-size="10.00">Time.Sunday.startTime</text>
</a>
</g>
</g>
<!-- Node2&#45;&gt;Node9 -->
<g id="edge8" class="edge"><title>Node2&#45;&gt;Node9</title>
<path fill="none" stroke="midnightblue" d="M129.871,-635.334C133.491,-671.479 146.524,-747.978 193,-787.5 198.422,-792.111 204.48,-795.926 210.914,-799.074"/>
<polygon fill="midnightblue" stroke="midnightblue" points="133.337,-634.78 128.997,-625.115 126.362,-635.377 133.337,-634.78"/>
</g>
<!-- Node10 -->
<g id="node10" class="node"><title>Node10</title>
<g id="a_node10"><a xlink:href="classcom_1_1tomoparts_1_1tomoBay_1_1helpers_1_1checkTime_1_1Sunday.html#a59c0b53629eb43516639e74aa467f7cf" target="_top" xlink:title="defines the end time for this Day derived class ">
<polygon fill="white" stroke="black" points="211,-747.5 211,-777.5 417,-777.5 417,-747.5 211,-747.5"/>
<text text-anchor="start" x="219" y="-765.5" font-family="Helvetica,sans-Serif" font-size="10.00">com.tomoparts.tomoBay.helpers.check</text>
<text text-anchor="middle" x="314" y="-754.5" font-family="Helvetica,sans-Serif" font-size="10.00">Time.Sunday.endTime</text>
</a>
</g>
</g>
<!-- Node2&#45;&gt;Node10 -->
<g id="edge9" class="edge"><title>Node2&#45;&gt;Node10</title>
<path fill="none" stroke="midnightblue" d="M133.08,-635.032C140.622,-662.639 158.391,-712.591 193,-738.5 198.528,-742.638 204.586,-746.112 210.951,-749.024"/>
<polygon fill="midnightblue" stroke="midnightblue" points="136.389,-633.841 130.529,-625.014 129.606,-635.569 136.389,-633.841"/>
</g>
<!-- Node11 -->
<g id="node11" class="node"><title>Node11</title>
<g id="a_node11"><a xlink:href="classcom_1_1tomoparts_1_1tomoBay_1_1helpers_1_1checkTime_1_1Thursday.html#a2377d20a90d04ac963661f0a3a995f94" target="_top" xlink:title="defines the start time for this Day derived class ">
<polygon fill="white" stroke="black" points="211,-698.5 211,-728.5 417,-728.5 417,-698.5 211,-698.5"/>
<text text-anchor="start" x="219" y="-716.5" font-family="Helvetica,sans-Serif" font-size="10.00">com.tomoparts.tomoBay.helpers.check</text>
<text text-anchor="middle" x="314" y="-705.5" font-family="Helvetica,sans-Serif" font-size="10.00">Time.Thursday.startTime</text>
</a>
</g>
</g>
<!-- Node2&#45;&gt;Node11 -->
<g id="edge10" class="edge"><title>Node2&#45;&gt;Node11</title>
<path fill="none" stroke="midnightblue" d="M139.426,-633.862C150.651,-651.037 169.74,-676.008 193,-689.5 198.973,-692.965 205.363,-695.936 211.969,-698.485"/>
<polygon fill="midnightblue" stroke="midnightblue" points="142.301,-631.858 134.023,-625.245 136.37,-635.576 142.301,-631.858"/>
</g>
<!-- Node12 -->
<g id="node12" class="node"><title>Node12</title>
<g id="a_node12"><a xlink:href="classcom_1_1tomoparts_1_1tomoBay_1_1helpers_1_1checkTime_1_1Thursday.html#a59c0b53629eb43516639e74aa467f7cf" target="_top" xlink:title="defines the end time for this Day derived class ">
<polygon fill="white" stroke="black" points="211,-649.5 211,-679.5 417,-679.5 417,-649.5 211,-649.5"/>
<text text-anchor="start" x="219" y="-667.5" font-family="Helvetica,sans-Serif" font-size="10.00">com.tomoparts.tomoBay.helpers.check</text>
<text text-anchor="middle" x="314" y="-656.5" font-family="Helvetica,sans-Serif" font-size="10.00">Time.Thursday.endTime</text>
</a>
</g>
</g>
<!-- Node2&#45;&gt;Node12 -->
<g id="edge11" class="edge"><title>Node2&#45;&gt;Node12</title>
<path fill="none" stroke="midnightblue" d="M159.789,-628.876C170.221,-632.998 181.991,-637.291 193,-640.5 204.321,-643.799 216.373,-646.796 228.307,-649.466"/>
<polygon fill="midnightblue" stroke="midnightblue" points="160.849,-625.529 150.267,-625.017 158.22,-632.017 160.849,-625.529"/>
</g>
<!-- Node13 -->
<g id="node13" class="node"><title>Node13</title>
<g id="a_node13"><a xlink:href="classcom_1_1tomoparts_1_1tomoBay_1_1helpers_1_1checkTime_1_1Tuesday.html#a2377d20a90d04ac963661f0a3a995f94" target="_top" xlink:title="defines the start time for this Day derived class ">
<polygon fill="white" stroke="black" points="211,-600.5 211,-630.5 417,-630.5 417,-600.5 211,-600.5"/>
<text text-anchor="start" x="219" y="-618.5" font-family="Helvetica,sans-Serif" font-size="10.00">com.tomoparts.tomoBay.helpers.check</text>
<text text-anchor="middle" x="314" y="-607.5" font-family="Helvetica,sans-Serif" font-size="10.00">Time.Tuesday.startTime</text>
</a>
</g>
</g>
<!-- Node2&#45;&gt;Node13 -->
<g id="edge12" class="edge"><title>Node2&#45;&gt;Node13</title>
<path fill="none" stroke="midnightblue" d="M164.795,-615.5C178.32,-615.5 194.424,-615.5 210.951,-615.5"/>
<polygon fill="midnightblue" stroke="midnightblue" points="164.543,-612 154.543,-615.5 164.543,-619 164.543,-612"/>
</g>
<!-- Node14 -->
<g id="node14" class="node"><title>Node14</title>
<g id="a_node14"><a xlink:href="classcom_1_1tomoparts_1_1tomoBay_1_1helpers_1_1checkTime_1_1Tuesday.html#a59c0b53629eb43516639e74aa467f7cf" target="_top" xlink:title="defines the end time for this Day derived class ">
<polygon fill="white" stroke="black" points="211,-551.5 211,-581.5 417,-581.5 417,-551.5 211,-551.5"/>
<text text-anchor="start" x="219" y="-569.5" font-family="Helvetica,sans-Serif" font-size="10.00">com.tomoparts.tomoBay.helpers.check</text>
<text text-anchor="middle" x="314" y="-558.5" font-family="Helvetica,sans-Serif" font-size="10.00">Time.Tuesday.endTime</text>
</a>
</g>
</g>
<!-- Node2&#45;&gt;Node14 -->
<g id="edge13" class="edge"><title>Node2&#45;&gt;Node14</title>
<path fill="none" stroke="midnightblue" d="M160.843,-602.378C171.026,-598.542 182.386,-594.561 193,-591.5 205.677,-587.844 219.252,-584.492 232.547,-581.512"/>
<polygon fill="midnightblue" stroke="midnightblue" points="159.576,-599.115 151.504,-605.977 162.094,-605.647 159.576,-599.115"/>
</g>
<!-- Node15 -->
<g id="node15" class="node"><title>Node15</title>
<g id="a_node15"><a xlink:href="classcom_1_1tomoparts_1_1tomoBay_1_1helpers_1_1checkTime_1_1Wednesday.html#a2377d20a90d04ac963661f0a3a995f94" target="_top" xlink:title="defines the start time for this Day derived class ">
<polygon fill="white" stroke="black" points="211,-502.5 211,-532.5 417,-532.5 417,-502.5 211,-502.5"/>
<text text-anchor="start" x="219" y="-520.5" font-family="Helvetica,sans-Serif" font-size="10.00">com.tomoparts.tomoBay.helpers.check</text>
<text text-anchor="middle" x="314" y="-509.5" font-family="Helvetica,sans-Serif" font-size="10.00">Time.Wednesday.startTime</text>
</a>
</g>
</g>
<!-- Node2&#45;&gt;Node15 -->
<g id="edge14" class="edge"><title>Node2&#45;&gt;Node15</title>
<path fill="none" stroke="midnightblue" d="M139.509,-597.428C150.794,-580.515 169.927,-555.904 193,-542.5 199.716,-538.598 206.957,-535.301 214.436,-532.515"/>
<polygon fill="midnightblue" stroke="midnightblue" points="136.521,-595.603 134.071,-605.911 142.414,-599.381 136.521,-595.603"/>
</g>
<!-- Node16 -->
<g id="node16" class="node"><title>Node16</title>
<g id="a_node16"><a xlink:href="classcom_1_1tomoparts_1_1tomoBay_1_1helpers_1_1checkTime_1_1Wednesday.html#a59c0b53629eb43516639e74aa467f7cf" target="_top" xlink:title="defines the end time for this Day derived class ">
<polygon fill="white" stroke="black" points="211,-453.5 211,-483.5 417,-483.5 417,-453.5 211,-453.5"/>
<text text-anchor="start" x="219" y="-471.5" font-family="Helvetica,sans-Serif" font-size="10.00">com.tomoparts.tomoBay.helpers.check</text>
<text text-anchor="middle" x="314" y="-460.5" font-family="Helvetica,sans-Serif" font-size="10.00">Time.Wednesday.endTime</text>
</a>
</g>
</g>
<!-- Node2&#45;&gt;Node16 -->
<g id="edge15" class="edge"><title>Node2&#45;&gt;Node16</title>
<path fill="none" stroke="midnightblue" d="M133.269,-595.757C140.965,-568.334 158.84,-519.197 193,-493.5 198.527,-489.342 204.585,-485.837 210.949,-482.887"/>
<polygon fill="midnightblue" stroke="midnightblue" points="129.803,-595.176 130.651,-605.737 136.574,-596.952 129.803,-595.176"/>
</g>
<!-- Node17 -->
<g id="node17" class="node"><title>Node17</title>
<g id="a_node17"><a xlink:href="classcom_1_1tomoparts_1_1tomoBay_1_1model_1_1net_1_1email_1_1MailClient.html#af9eddf4b6d3506f30b2f282c86c59ed6" target="_top" xlink:title="sends an email containing a message and subject. ">
<polygon fill="white" stroke="black" points="203.5,-404.5 203.5,-434.5 424.5,-434.5 424.5,-404.5 203.5,-404.5"/>
<text text-anchor="start" x="211.5" y="-422.5" font-family="Helvetica,sans-Serif" font-size="10.00">com.tomoparts.tomoBay.model.net.email.</text>
<text text-anchor="middle" x="314" y="-411.5" font-family="Helvetica,sans-Serif" font-size="10.00">MailClient.send</text>
</a>
</g>
</g>
<!-- Node2&#45;&gt;Node17 -->
<g id="edge16" class="edge"><title>Node2&#45;&gt;Node17</title>
<path fill="none" stroke="midnightblue" d="M129.94,-595.813C133.671,-559.931 146.881,-483.961 193,-444.5 197.447,-440.695 202.323,-437.42 207.485,-434.603"/>
<polygon fill="midnightblue" stroke="midnightblue" points="126.437,-595.685 129.032,-605.958 133.409,-596.309 126.437,-595.685"/>
</g>
<!-- Node21 -->
<g id="node21" class="node"><title>Node21</title>
<g id="a_node21"><a xlink:href="classcom_1_1tomoparts_1_1tomoBay_1_1model_1_1services_1_1emailErrorsService_1_1EmailErrorsMailActions.html#ae9399f5ec7881c5d18173def8068108e" target="_top" xlink:title="send the email ">
<polygon fill="white" stroke="black" points="193,-355.5 193,-385.5 435,-385.5 435,-355.5 193,-355.5"/>
<text text-anchor="start" x="201" y="-373.5" font-family="Helvetica,sans-Serif" font-size="10.00">com.tomoparts.tomoBay.model.services.email</text>
<text text-anchor="middle" x="314" y="-362.5" font-family="Helvetica,sans-Serif" font-size="10.00">ErrorsService.EmailErrorsMailActions.send</text>
</a>
</g>
</g>
<!-- Node2&#45;&gt;Node21 -->
<g id="edge20" class="edge"><title>Node2&#45;&gt;Node21</title>
<path fill="none" stroke="midnightblue" d="M127.95,-595.636C127.907,-552.188 134.319,-448.309 193,-394.5 196.68,-391.126 200.695,-388.169 204.954,-385.581"/>
<polygon fill="midnightblue" stroke="midnightblue" points="124.452,-595.804 128.084,-605.757 131.451,-595.711 124.452,-595.804"/>
</g>
<!-- Node24 -->
<g id="node24" class="node"><title>Node24</title>
<g id="a_node24"><a xlink:href="classcom_1_1tomoparts_1_1tomoBay_1_1model_1_1sql_1_1ConnectionManager.html#aaa0eb186d4e39ebd10ba73951863660a" target="_top" xlink:title="singleton contstructor, initialises the connection pool ">
<polygon fill="white" stroke="black" points="208,-306.5 208,-336.5 420,-336.5 420,-306.5 208,-306.5"/>
<text text-anchor="start" x="216" y="-324.5" font-family="Helvetica,sans-Serif" font-size="10.00">com.tomoparts.tomoBay.model.sql.</text>
<text text-anchor="middle" x="314" y="-313.5" font-family="Helvetica,sans-Serif" font-size="10.00">ConnectionManager.ConnectionManager</text>
</a>
</g>
</g>
<!-- Node2&#45;&gt;Node24 -->
<g id="edge23" class="edge"><title>Node2&#45;&gt;Node24</title>
<path fill="none" stroke="midnightblue" d="M130.467,-595.905C136.496,-539.851 156.555,-380.617 193,-345.5 197.437,-341.225 202.408,-337.61 207.736,-334.562"/>
<polygon fill="midnightblue" stroke="midnightblue" points="126.976,-595.638 129.42,-605.947 133.938,-596.364 126.976,-595.638"/>
</g>
<!-- Node25 -->
<g id="node25" class="node"><title>Node25</title>
<g id="a_node25"><a xlink:href="classcom_1_1tomoparts_1_1tomoBay_1_1model_1_1winstock_1_1Stock.html#a4cbeebb8b8e67f9e1478b8b0d77d4228" target="_top" xlink:title="query winstock for the weight of a particular invoice ">
<polygon fill="white" stroke="black" points="205.5,-257.5 205.5,-287.5 422.5,-287.5 422.5,-257.5 205.5,-257.5"/>
<text text-anchor="start" x="213.5" y="-275.5" font-family="Helvetica,sans-Serif" font-size="10.00">com.tomoparts.tomoBay.model.winstock.</text>
<text text-anchor="middle" x="314" y="-264.5" font-family="Helvetica,sans-Serif" font-size="10.00">Stock.requestInvoiceWeight</text>
</a>
</g>
</g>
<!-- Node2&#45;&gt;Node25 -->
<g id="edge24" class="edge"><title>Node2&#45;&gt;Node25</title>
<path fill="none" stroke="midnightblue" d="M129.701,-595.742C133.932,-532.881 150.265,-339.145 193,-296.5 196.76,-292.748 200.93,-289.5 205.394,-286.694"/>
<polygon fill="midnightblue" stroke="midnightblue" points="126.197,-595.686 129.048,-605.891 133.183,-596.136 126.197,-595.686"/>
</g>
<!-- Node29 -->
<g id="node29" class="node"><title>Node29</title>
<g id="a_node29"><a xlink:href="classcom_1_1tomoparts_1_1tomoBay_1_1model_1_1winstock_1_1WinstockConfig.html#a6a08fcc1415d1a09bf338223bcb6919d" target="_top" xlink:title="method used to get the string representing the name of the machine on which winstock is running...">
<polygon fill="white" stroke="black" points="205.5,-208.5 205.5,-238.5 422.5,-238.5 422.5,-208.5 205.5,-208.5"/>
<text text-anchor="start" x="213.5" y="-226.5" font-family="Helvetica,sans-Serif" font-size="10.00">com.tomoparts.tomoBay.model.winstock.</text>
<text text-anchor="middle" x="314" y="-215.5" font-family="Helvetica,sans-Serif" font-size="10.00">WinstockConfig.getMachineName</text>
</a>
</g>
</g>
<!-- Node2&#45;&gt;Node29 -->
<g id="edge28" class="edge"><title>Node2&#45;&gt;Node29</title>
<path fill="none" stroke="midnightblue" d="M129.13,-595.486C131.734,-526.152 143.953,-297.733 193,-247.5 196.711,-243.7 200.841,-240.413 205.274,-237.575"/>
<polygon fill="midnightblue" stroke="midnightblue" points="125.619,-595.741 128.77,-605.856 132.615,-595.984 125.619,-595.741"/>
</g>
<!-- Node31 -->
<g id="node31" class="node"><title>Node31</title>
<g id="a_node31"><a xlink:href="classcom_1_1tomoparts_1_1tomoBay_1_1model_1_1winstock_1_1WinstockConfig.html#a6b637334c5d8e69c154325c9aa55bbfd" target="_top" xlink:title="method used to retrieve the port on which winstock is running. ">
<polygon fill="white" stroke="black" points="205.5,-159.5 205.5,-189.5 422.5,-189.5 422.5,-159.5 205.5,-159.5"/>
<text text-anchor="start" x="213.5" y="-177.5" font-family="Helvetica,sans-Serif" font-size="10.00">com.tomoparts.tomoBay.model.winstock.</text>
<text text-anchor="middle" x="314" y="-166.5" font-family="Helvetica,sans-Serif" font-size="10.00">WinstockConfig.getPort</text>
</a>
</g>
</g>
<!-- Node2&#45;&gt;Node31 -->
<g id="edge30" class="edge"><title>Node2&#45;&gt;Node31</title>
<path fill="none" stroke="midnightblue" d="M128.68,-595.306C129.78,-519.93 137.59,-256.399 193,-198.5 196.746,-194.586 200.936,-191.213 205.445,-188.313"/>
<polygon fill="midnightblue" stroke="midnightblue" points="125.175,-595.686 128.555,-605.727 132.175,-595.77 125.175,-595.686"/>
</g>
<!-- Node18 -->
<g id="node18" class="node"><title>Node18</title>
<g id="a_node18"><a xlink:href="classcom_1_1tomoparts_1_1tomoBay_1_1model_1_1net_1_1email_1_1MailClient.html#a9a353e90e57af1d4968845017c4d6fa8" target="_top" xlink:title="com.tomoparts.tomoBay.model.net.email.\lMailClient.MailClient">
<polygon fill="white" stroke="black" points="503,-453.5 503,-483.5 724,-483.5 724,-453.5 503,-453.5"/>
<text text-anchor="start" x="511" y="-471.5" font-family="Helvetica,sans-Serif" font-size="10.00">com.tomoparts.tomoBay.model.net.email.</text>
<text text-anchor="middle" x="613.5" y="-460.5" font-family="Helvetica,sans-Serif" font-size="10.00">MailClient.MailClient</text>
</a>
</g>
</g>
<!-- Node17&#45;&gt;Node18 -->
<g id="edge17" class="edge"><title>Node17&#45;&gt;Node18</title>
<path fill="none" stroke="midnightblue" d="M416.258,-436.178C450.34,-441.791 488.139,-448.017 521.391,-453.494"/>
<polygon fill="midnightblue" stroke="midnightblue" points="416.717,-432.706 406.282,-434.535 415.58,-439.613 416.717,-432.706"/>
</g>
<!-- Node19 -->
<g id="node19" class="node"><title>Node19</title>
<g id="a_node19"><a xlink:href="classcom_1_1tomoparts_1_1tomoBay_1_1presenters_1_1presenterActions_1_1concreteActions_1_1InvoiceOrders.html#a9c77c827472e4f09aa020d55e7d33b10" target="_top" xlink:title="com.tomoparts.tomoBay.presenters.presenter\lActions.concreteActions.InvoiceOrders.emailResults">
<polygon fill="white" stroke="black" points="481.5,-404.5 481.5,-434.5 745.5,-434.5 745.5,-404.5 481.5,-404.5"/>
<text text-anchor="start" x="489.5" y="-422.5" font-family="Helvetica,sans-Serif" font-size="10.00">com.tomoparts.tomoBay.presenters.presenter</text>
<text text-anchor="middle" x="613.5" y="-411.5" font-family="Helvetica,sans-Serif" font-size="10.00">Actions.concreteActions.InvoiceOrders.emailResults</text>
</a>
</g>
</g>
<!-- Node17&#45;&gt;Node19 -->
<g id="edge18" class="edge"><title>Node17&#45;&gt;Node19</title>
<path fill="none" stroke="midnightblue" d="M434.546,-419.5C449.922,-419.5 465.733,-419.5 481.284,-419.5"/>
<polygon fill="midnightblue" stroke="midnightblue" points="434.511,-416 424.511,-419.5 434.511,-423 434.511,-416"/>
</g>
<!-- Node20 -->
<g id="node20" class="node"><title>Node20</title>
<g id="a_node20"><a xlink:href="classcom_1_1tomoparts_1_1tomoBay_1_1presenters_1_1presenterActions_1_1concreteActions_1_1InvoiceOrders.html#adb3dedf31dc2c7fc796f20406c235ccd" target="_top" xlink:title="performs the action specified ">
<polygon fill="white" stroke="black" points="792,-404.5 792,-434.5 1034,-434.5 1034,-404.5 792,-404.5"/>
<text text-anchor="start" x="800" y="-422.5" font-family="Helvetica,sans-Serif" font-size="10.00">com.tomoparts.tomoBay.presenters.presenter</text>
<text text-anchor="middle" x="913" y="-411.5" font-family="Helvetica,sans-Serif" font-size="10.00">Actions.concreteActions.InvoiceOrders.execute</text>
</a>
</g>
</g>
<!-- Node19&#45;&gt;Node20 -->
<g id="edge19" class="edge"><title>Node19&#45;&gt;Node20</title>
<path fill="none" stroke="midnightblue" d="M755.893,-419.5C767.871,-419.5 779.912,-419.5 791.706,-419.5"/>
<polygon fill="midnightblue" stroke="midnightblue" points="755.854,-416 745.854,-419.5 755.854,-423 755.854,-416"/>
</g>
<!-- Node22 -->
<g id="node22" class="node"><title>Node22</title>
<g id="a_node22"><a xlink:href="classcom_1_1tomoparts_1_1tomoBay_1_1model_1_1services_1_1emailErrorsService_1_1OnRunning.html#ae4a4f4cadce2787c7e80005639fbd5d9" target="_top" xlink:title="this method defines what to do in the given derived state ">
<polygon fill="white" stroke="black" points="492.5,-355.5 492.5,-385.5 734.5,-385.5 734.5,-355.5 492.5,-355.5"/>
<text text-anchor="start" x="500.5" y="-373.5" font-family="Helvetica,sans-Serif" font-size="10.00">com.tomoparts.tomoBay.model.services.email</text>
<text text-anchor="middle" x="613.5" y="-362.5" font-family="Helvetica,sans-Serif" font-size="10.00">ErrorsService.OnRunning.execute</text>
</a>
</g>
</g>
<!-- Node21&#45;&gt;Node22 -->
<g id="edge21" class="edge"><title>Node21&#45;&gt;Node22</title>
<path fill="none" stroke="midnightblue" d="M445.372,-370.5C461.004,-370.5 476.911,-370.5 492.388,-370.5"/>
<polygon fill="midnightblue" stroke="midnightblue" points="445.147,-367 435.147,-370.5 445.147,-374 445.147,-367"/>
</g>
<!-- Node23 -->
<g id="node23" class="node"><title>Node23</title>
<g id="a_node23"><a xlink:href="classcom_1_1tomoparts_1_1tomoBay_1_1model_1_1services_1_1emailErrorsService_1_1EmailErrorsService.html#ae3b0a282dcba7f2d675ca89b1dd48487" target="_top" xlink:title="com.tomoparts.tomoBay.model.services.email\lErrorsService.EmailErrorsService.onRunning">
<polygon fill="white" stroke="black" points="792,-355.5 792,-385.5 1034,-385.5 1034,-355.5 792,-355.5"/>
<text text-anchor="start" x="800" y="-373.5" font-family="Helvetica,sans-Serif" font-size="10.00">com.tomoparts.tomoBay.model.services.email</text>
<text text-anchor="middle" x="913" y="-362.5" font-family="Helvetica,sans-Serif" font-size="10.00">ErrorsService.EmailErrorsService.onRunning</text>
</a>
</g>
</g>
<!-- Node22&#45;&gt;Node23 -->
<g id="edge22" class="edge"><title>Node22&#45;&gt;Node23</title>
<path fill="none" stroke="midnightblue" d="M744.872,-370.5C760.504,-370.5 776.411,-370.5 791.888,-370.5"/>
<polygon fill="midnightblue" stroke="midnightblue" points="744.647,-367 734.647,-370.5 744.647,-374 744.647,-367"/>
</g>
<!-- Node26 -->
<g id="node26" class="node"><title>Node26</title>
<g id="a_node26"><a xlink:href="classcom_1_1tomoparts_1_1tomoBay_1_1presenters_1_1presenterActions_1_1concreteActions_1_1GenerateRoyalMailCSV.html#a47374b8c1f5da171d280ddcb6b7df252" target="_top" xlink:title="queries winstock for the weight associated with the invoice number provided as an argument...">
<polygon fill="white" stroke="black" points="492.5,-252 492.5,-293 734.5,-293 734.5,-252 492.5,-252"/>
<text text-anchor="start" x="500.5" y="-281" font-family="Helvetica,sans-Serif" font-size="10.00">com.tomoparts.tomoBay.presenters.presenter</text>
<text text-anchor="start" x="500.5" y="-270" font-family="Helvetica,sans-Serif" font-size="10.00">Actions.concreteActions.GenerateRoyalMail</text>
<text text-anchor="middle" x="613.5" y="-259" font-family="Helvetica,sans-Serif" font-size="10.00">CSV.getInvoiceWeight</text>
</a>
</g>
</g>
<!-- Node25&#45;&gt;Node26 -->
<g id="edge25" class="edge"><title>Node25&#45;&gt;Node26</title>
<path fill="none" stroke="midnightblue" d="M432.979,-272.5C452.539,-272.5 472.842,-272.5 492.453,-272.5"/>
<polygon fill="midnightblue" stroke="midnightblue" points="432.825,-269 422.825,-272.5 432.825,-276 432.825,-269"/>
</g>
<!-- Node27 -->
<g id="node27" class="node"><title>Node27</title>
<g id="a_node27"><a xlink:href="classcom_1_1tomoparts_1_1tomoBay_1_1presenters_1_1presenterActions_1_1concreteActions_1_1GenerateRoyalMailCSV.html#adb3dedf31dc2c7fc796f20406c235ccd" target="_top" xlink:title="performs the action specified ">
<polygon fill="white" stroke="black" points="792,-252 792,-293 1034,-293 1034,-252 792,-252"/>
<text text-anchor="start" x="800" y="-281" font-family="Helvetica,sans-Serif" font-size="10.00">com.tomoparts.tomoBay.presenters.presenter</text>
<text text-anchor="start" x="800" y="-270" font-family="Helvetica,sans-Serif" font-size="10.00">Actions.concreteActions.GenerateRoyalMail</text>
<text text-anchor="middle" x="913" y="-259" font-family="Helvetica,sans-Serif" font-size="10.00">CSV.execute</text>
</a>
</g>
</g>
<!-- Node26&#45;&gt;Node27 -->
<g id="edge26" class="edge"><title>Node26&#45;&gt;Node27</title>
<path fill="none" stroke="midnightblue" d="M744.872,-272.5C760.504,-272.5 776.411,-272.5 791.888,-272.5"/>
<polygon fill="midnightblue" stroke="midnightblue" points="744.647,-269 734.647,-272.5 744.647,-276 744.647,-269"/>
</g>
<!-- Node28 -->
<g id="node28" class="node"><title>Node28</title>
<g id="a_node28"><a xlink:href="classcom_1_1tomoparts_1_1tomoBay_1_1test_1_1unit_1_1presenters_1_1presenterActions_1_1concreteAcc52dba77005ac44eb6c856e3f1436b78.html#a1b260e6772d2ced79e03e1c8c5acd12b" target="_top" xlink:title="com.tomoparts.tomoBay.test.unit.presenters.presenter\lActions.concreteActions.GenerateRoyalMailCSVTest.testExecute">
<polygon fill="white" stroke="black" points="1070,-257.5 1070,-287.5 1395,-287.5 1395,-257.5 1070,-257.5"/>
<text text-anchor="start" x="1078" y="-275.5" font-family="Helvetica,sans-Serif" font-size="10.00">com.tomoparts.tomoBay.test.unit.presenters.presenter</text>
<text text-anchor="middle" x="1232.5" y="-264.5" font-family="Helvetica,sans-Serif" font-size="10.00">Actions.concreteActions.GenerateRoyalMailCSVTest.testExecute</text>
</a>
</g>
</g>
<!-- Node27&#45;&gt;Node28 -->
<g id="edge27" class="edge"><title>Node27&#45;&gt;Node28</title>
<path fill="none" stroke="midnightblue" d="M1044.31,-272.5C1052.78,-272.5 1061.36,-272.5 1069.96,-272.5"/>
<polygon fill="midnightblue" stroke="midnightblue" points="1044.03,-269 1034.03,-272.5 1044.03,-276 1044.03,-269"/>
</g>
<!-- Node30 -->
<g id="node30" class="node"><title>Node30</title>
<g id="a_node30"><a xlink:href="classcom_1_1tomoparts_1_1tomoBay_1_1model_1_1winstock_1_1commands_1_1AbstractWinstockCommand.html#ad22d293a3be140431dfbfa67ba8962d5" target="_top" xlink:title="default ctor, does preliminary initailisation of the config object and socket connection to Winstock...">
<polygon fill="white" stroke="black" points="471,-193.5 471,-223.5 756,-223.5 756,-193.5 471,-193.5"/>
<text text-anchor="start" x="479" y="-211.5" font-family="Helvetica,sans-Serif" font-size="10.00">com.tomoparts.tomoBay.model.winstock.commands.</text>
<text text-anchor="middle" x="613.5" y="-200.5" font-family="Helvetica,sans-Serif" font-size="10.00">AbstractWinstockCommand.AbstractWinstockCommand</text>
</a>
</g>
</g>
<!-- Node29&#45;&gt;Node30 -->
<g id="edge29" class="edge"><title>Node29&#45;&gt;Node30</title>
<path fill="none" stroke="midnightblue" d="M433.169,-217.542C445.575,-216.916 458.278,-216.276 470.913,-215.639"/>
<polygon fill="midnightblue" stroke="midnightblue" points="432.636,-214.064 422.825,-218.063 432.989,-221.055 432.636,-214.064"/>
</g>
<!-- Node31&#45;&gt;Node30 -->
<g id="edge31" class="edge"><title>Node31&#45;&gt;Node30</title>
<path fill="none" stroke="midnightblue" d="M433.129,-188C448.927,-189.806 465.206,-191.666 481.212,-193.496"/>
<polygon fill="midnightblue" stroke="midnightblue" points="433.158,-184.481 422.825,-186.823 432.363,-191.436 433.158,-184.481"/>
</g>
<!-- Node33 -->
<g id="node33" class="node"><title>Node33</title>
<g id="a_node33"><a xlink:href="classcom_1_1tomoparts_1_1tomoBay_1_1helpers_1_1Shipping__Priority.html#aeaa068d370466a132fa02c3dd61f4111" target="_top" xlink:title="populates the internal map containing the shipping priorities ">
<polygon fill="white" stroke="black" points="217,-110.5 217,-140.5 411,-140.5 411,-110.5 217,-110.5"/>
<text text-anchor="start" x="225" y="-128.5" font-family="Helvetica,sans-Serif" font-size="10.00">com.tomoparts.tomoBay.helpers.</text>
<text text-anchor="middle" x="314" y="-117.5" font-family="Helvetica,sans-Serif" font-size="10.00">Shipping_Priority.populatePriorityMap</text>
</a>
</g>
</g>
<!-- Node32&#45;&gt;Node33 -->
<g id="edge33" class="edge"><title>Node32&#45;&gt;Node33</title>
<path fill="none" stroke="midnightblue" d="M167.44,-103.41C182.035,-105.624 199.339,-108.251 216.832,-110.905"/>
<polygon fill="midnightblue" stroke="midnightblue" points="167.74,-99.9151 157.328,-101.875 166.69,-106.836 167.74,-99.9151"/>
</g>
<!-- Node36 -->
<g id="node36" class="node"><title>Node36</title>
<g id="a_node36"><a xlink:href="classcom_1_1tomoparts_1_1tomoBay_1_1model_1_1royalMail_1_1RoyalMailCSVGenerator.html#a1cb65b7538dfdc8bf869f5c77421c90b" target="_top" xlink:title="ctor, creates an empty CSV of the format: &quot;Service Reference&quot;,&quot;Service&quot;,&quot;Recipient&quot;,&quot;Address Line 1&quot;,&quot;Address Line 2&quot;,&quot;PostCode&quot;,&quot;Post Town&quot;, &quot;Country Code&quot;,&quot;Reference&quot;,&quot;Items&quot;,&quot;Weight&quot;,&quot;Service Enhancement&quot;,&quot;Service Format&quot;, ">
<polygon fill="white" stroke="black" points="214.5,-50 214.5,-91 413.5,-91 413.5,-50 214.5,-50"/>
<text text-anchor="start" x="222.5" y="-79" font-family="Helvetica,sans-Serif" font-size="10.00">com.tomoparts.tomoBay.model.royal</text>
<text text-anchor="start" x="222.5" y="-68" font-family="Helvetica,sans-Serif" font-size="10.00">Mail.RoyalMailCSVGenerator.RoyalMail</text>
<text text-anchor="middle" x="314" y="-57" font-family="Helvetica,sans-Serif" font-size="10.00">CSVGenerator</text>
</a>
</g>
</g>
<!-- Node32&#45;&gt;Node36 -->
<g id="edge36" class="edge"><title>Node32&#45;&gt;Node36</title>
<path fill="none" stroke="midnightblue" d="M167.453,-91.7995C181.369,-89.7631 197.748,-87.3662 214.403,-84.9288"/>
<polygon fill="midnightblue" stroke="midnightblue" points="166.716,-88.3701 157.328,-93.2812 167.73,-95.2963 166.716,-88.3701"/>
</g>
<!-- Node34 -->
<g id="node34" class="node"><title>Node34</title>
<g id="a_node34"><a xlink:href="classcom_1_1tomoparts_1_1tomoBay_1_1helpers_1_1Shipping__Priority.html#ab2c54f868e5d66f974ab70defd889b5f" target="_top" xlink:title="singleton ctor, ensures that this class is never instantiated ">
<polygon fill="white" stroke="black" points="524,-115 524,-156 703,-156 703,-115 524,-115"/>
<text text-anchor="start" x="532" y="-144" font-family="Helvetica,sans-Serif" font-size="10.00">com.tomoparts.tomoBay.helpers.</text>
<text text-anchor="start" x="532" y="-133" font-family="Helvetica,sans-Serif" font-size="10.00">Shipping_Priority.Shipping</text>
<text text-anchor="middle" x="613.5" y="-122" font-family="Helvetica,sans-Serif" font-size="10.00">_Priority</text>
</a>
</g>
</g>
<!-- Node33&#45;&gt;Node34 -->
<g id="edge34" class="edge"><title>Node33&#45;&gt;Node34</title>
<path fill="none" stroke="midnightblue" d="M421.466,-129.079C454.962,-130.205 491.579,-131.435 523.712,-132.516"/>
<polygon fill="midnightblue" stroke="midnightblue" points="421.291,-125.571 411.179,-128.733 421.056,-132.567 421.291,-125.571"/>
</g>
<!-- Node35 -->
<g id="node35" class="node"><title>Node35</title>
<g id="a_node35"><a xlink:href="classcom_1_1tomoparts_1_1tomoBay_1_1helpers_1_1Shipping__Priority.html#a540b8555f73cab7f8082c2a6a4aad375" target="_top" xlink:title="refreshes the internal representation of the shipping type hierarchy with any changes made to the con...">
<polygon fill="white" stroke="black" points="524,-65.5 524,-95.5 703,-95.5 703,-65.5 524,-65.5"/>
<text text-anchor="start" x="532" y="-83.5" font-family="Helvetica,sans-Serif" font-size="10.00">com.tomoparts.tomoBay.helpers.</text>
<text text-anchor="middle" x="613.5" y="-72.5" font-family="Helvetica,sans-Serif" font-size="10.00">Shipping_Priority.refresh</text>
</a>
</g>
</g>
<!-- Node33&#45;&gt;Node35 -->
<g id="edge35" class="edge"><title>Node33&#45;&gt;Node35</title>
<path fill="none" stroke="midnightblue" d="M421.466,-109.396C454.962,-104.329 491.579,-98.7906 523.712,-93.9302"/>
<polygon fill="midnightblue" stroke="midnightblue" points="420.543,-105.996 411.179,-110.952 421.59,-112.917 420.543,-105.996"/>
</g>
<!-- Node38 -->
<g id="node38" class="node"><title>Node38</title>
<g id="a_node38"><a xlink:href="classcom_1_1tomoparts_1_1tomoBay_1_1test_1_1unit_1_1model_1_1royalMail_1_1RoyalMailCSVGeneratorTest.html#a05dfc16869302fa4e497a69059c20301" target="_top" xlink:title="com.tomoparts.tomoBay.test.unit.model.royal\lMail.RoyalMailCSVGeneratorTest.testSize">
<polygon fill="white" stroke="black" points="194.5,-0.5 194.5,-30.5 433.5,-30.5 433.5,-0.5 194.5,-0.5"/>
<text text-anchor="start" x="202.5" y="-18.5" font-family="Helvetica,sans-Serif" font-size="10.00">com.tomoparts.tomoBay.test.unit.model.royal</text>
<text text-anchor="middle" x="314" y="-7.5" font-family="Helvetica,sans-Serif" font-size="10.00">Mail.RoyalMailCSVGeneratorTest.testSize</text>
</a>
</g>
</g>
<!-- Node37&#45;&gt;Node38 -->
<g id="edge38" class="edge"><title>Node37&#45;&gt;Node38</title>
<path fill="none" stroke="midnightblue" d="M155.056,-46.3183C176.237,-42.1854 207.022,-36.1786 235.799,-30.5635"/>
<polygon fill="midnightblue" stroke="midnightblue" points="154.343,-42.8913 145.199,-48.2417 155.684,-49.7618 154.343,-42.8913"/>
</g>
</g>
</svg>
