<?xml version="1.0" encoding="UTF-8" standalone="no"?>
<!DOCTYPE svg PUBLIC "-//W3C//DTD SVG 1.1//EN"
 "http://www.w3.org/Graphics/SVG/1.1/DTD/svg11.dtd">
<!-- Generated by graphviz version 2.38.0 (20140413.2041)
 -->
<!-- Title: execute Pages: 1 -->
<svg width="413pt" height="134pt"
 viewBox="0.00 0.00 413.00 133.50" xmlns="http://www.w3.org/2000/svg" xmlns:xlink="http://www.w3.org/1999/xlink">
<g id="graph0" class="graph" transform="scale(1 1) rotate(0) translate(4 129.5)">
<title>execute</title>
<polygon fill="white" stroke="none" points="-4,4 -4,-129.5 409,-129.5 409,4 -4,4"/>
<!-- Node1 -->
<g id="node1" class="node"><title>Node1</title>
<polygon fill="#bfbfbf" stroke="black" points="0,-38.5 0,-57.5 55,-57.5 55,-38.5 0,-38.5"/>
<text text-anchor="middle" x="27.5" y="-45.5" font-family="Helvetica,sans-Serif" font-size="10.00">execute</text>
</g>
<!-- Node2 -->
<g id="node2" class="node"><title>Node2</title>
<g id="a_node2"><a xlink:href="classcom_1_1tomoparts_1_1tomoBay_1_1model_1_1sql_1_1framework_1_1queryTypes_1_1modify_1_1AbstractModifyQueryParams.html#ad0667f5c873d31358a0696de71fa030b" target="_top" xlink:title="initialise the connection and statement and set transaction variables. ">
<polygon fill="white" stroke="black" points="105.5,-76.5 105.5,-95.5 164.5,-95.5 164.5,-76.5 105.5,-76.5"/>
<text text-anchor="middle" x="135" y="-83.5" font-family="Helvetica,sans-Serif" font-size="10.00">initQuery</text>
</a>
</g>
</g>
<!-- Node1&#45;&gt;Node2 -->
<g id="edge1" class="edge"><title>Node1&#45;&gt;Node2</title>
<path fill="none" stroke="midnightblue" d="M55.1221,-57.589C67.9915,-62.2244 83.6367,-67.8596 97.5895,-72.8853"/>
<polygon fill="midnightblue" stroke="midnightblue" points="96.792,-76.3181 107.386,-76.4141 99.1642,-69.7323 96.792,-76.3181"/>
</g>
<!-- Node5 -->
<g id="node5" class="node"><title>Node5</title>
<g id="a_node5"><a xlink:href="classcom_1_1tomoparts_1_1tomoBay_1_1model_1_1sql_1_1framework_1_1queryTypes_1_1modify_1_1AbstractModifyQueryParams.html#ae8a5c5f1701ee77ef658050c8345d518" target="_top" xlink:title="Used by derived classes to define the Query string to be used in the query. ">
<polygon fill="white" stroke="black" points="99,-38.5 99,-57.5 171,-57.5 171,-38.5 99,-38.5"/>
<text text-anchor="middle" x="135" y="-45.5" font-family="Helvetica,sans-Serif" font-size="10.00">queryString</text>
</a>
</g>
</g>
<!-- Node1&#45;&gt;Node5 -->
<g id="edge4" class="edge"><title>Node1&#45;&gt;Node5</title>
<path fill="none" stroke="midnightblue" d="M55.1221,-48C65.2169,-48 77.0197,-48 88.3739,-48"/>
<polygon fill="midnightblue" stroke="midnightblue" points="88.6133,-51.5001 98.6133,-48 88.6132,-44.5001 88.6133,-51.5001"/>
</g>
<!-- Node6 -->
<g id="node6" class="node"><title>Node6</title>
<g id="a_node6"><a xlink:href="classcom_1_1tomoparts_1_1tomoBay_1_1model_1_1sql_1_1framework_1_1queryTypes_1_1modify_1_1AbstractModifyQueryParams.html#a3543bcecb3f0ed2c164b25b646940ee9" target="_top" xlink:title="Used by derived classes to set the parameters for this particular query. ">
<polygon fill="white" stroke="black" points="91,-0.5 91,-19.5 179,-19.5 179,-0.5 91,-0.5"/>
<text text-anchor="middle" x="135" y="-7.5" font-family="Helvetica,sans-Serif" font-size="10.00">setParameters</text>
</a>
</g>
</g>
<!-- Node1&#45;&gt;Node6 -->
<g id="edge5" class="edge"><title>Node1&#45;&gt;Node6</title>
<path fill="none" stroke="midnightblue" d="M55.1221,-38.411C67.9915,-33.7756 83.6367,-28.1404 97.5895,-23.1147"/>
<polygon fill="midnightblue" stroke="midnightblue" points="99.1642,-26.2677 107.386,-19.5859 96.792,-19.6819 99.1642,-26.2677"/>
</g>
<!-- Node3 -->
<g id="node3" class="node"><title>Node3</title>
<g id="a_node3"><a xlink:href="classcom_1_1tomoparts_1_1tomoBay_1_1model_1_1sql_1_1ConnectionManager.html#ad3127f02d7c94f382c86d2ad87307bcb" target="_top" xlink:title="instance method returns an instance of the ConnectionManager class ">
<polygon fill="white" stroke="black" points="215,-95 215,-125 405,-125 405,-95 215,-95"/>
<text text-anchor="start" x="223" y="-113" font-family="Helvetica,sans-Serif" font-size="10.00">com.tomoparts.tomoBay.model.sql.</text>
<text text-anchor="middle" x="310" y="-102" font-family="Helvetica,sans-Serif" font-size="10.00">ConnectionManager.instance</text>
</a>
</g>
</g>
<!-- Node2&#45;&gt;Node3 -->
<g id="edge2" class="edge"><title>Node2&#45;&gt;Node3</title>
<path fill="none" stroke="midnightblue" d="M164.567,-89.9631C176.03,-91.5533 190.004,-93.4919 204.695,-95.5299"/>
<polygon fill="midnightblue" stroke="midnightblue" points="204.571,-99.0462 214.957,-96.9536 205.533,-92.1126 204.571,-99.0462"/>
</g>
<!-- Node4 -->
<g id="node4" class="node"><title>Node4</title>
<g id="a_node4"><a xlink:href="classcom_1_1tomoparts_1_1tomoBay_1_1model_1_1sql_1_1ConnectionManager.html#abe00cdf87aed55bbe5ef191c248b62b1" target="_top" xlink:title="retrieves a database connection from the pool of available connections. ">
<polygon fill="white" stroke="black" points="215,-46 215,-76 405,-76 405,-46 215,-46"/>
<text text-anchor="start" x="223" y="-64" font-family="Helvetica,sans-Serif" font-size="10.00">com.tomoparts.tomoBay.model.sql.</text>
<text text-anchor="middle" x="310" y="-53" font-family="Helvetica,sans-Serif" font-size="10.00">ConnectionManager.getConnection</text>
</a>
</g>
</g>
<!-- Node2&#45;&gt;Node4 -->
<g id="edge3" class="edge"><title>Node2&#45;&gt;Node4</title>
<path fill="none" stroke="midnightblue" d="M164.567,-81.8718C176.03,-80.2153 190.004,-78.1959 204.695,-76.073"/>
<polygon fill="midnightblue" stroke="midnightblue" points="205.561,-79.4843 214.957,-74.59 204.56,-72.5563 205.561,-79.4843"/>
</g>
</g>
</svg>
