<?xml version="1.0" encoding="UTF-8" standalone="no"?>
<!DOCTYPE svg PUBLIC "-//W3C//DTD SVG 1.1//EN"
 "http://www.w3.org/Graphics/SVG/1.1/DTD/svg11.dtd">
<!-- Generated by graphviz version 2.38.0 (20140413.2041)
 -->
<!-- Title: getAddress Pages: 1 -->
<svg width="757pt" height="39pt"
 viewBox="0.00 0.00 757.00 39.00" xmlns="http://www.w3.org/2000/svg" xmlns:xlink="http://www.w3.org/1999/xlink">
<g id="graph0" class="graph" transform="scale(1 1) rotate(0) translate(4 35)">
<title>getAddress</title>
<polygon fill="white" stroke="none" points="-4,4 -4,-35 753,-35 753,4 -4,4"/>
<!-- Node1 -->
<g id="node1" class="node"><title>Node1</title>
<polygon fill="#bfbfbf" stroke="black" points="0,-6 0,-25 71,-25 71,-6 0,-6"/>
<text text-anchor="middle" x="35.5" y="-13" font-family="Helvetica,sans-Serif" font-size="10.00">getAddress</text>
</g>
<!-- Node2 -->
<g id="node2" class="node"><title>Node2</title>
<g id="a_node2"><a xlink:href="classcom_1_1tomoparts_1_1tomoBay_1_1model_1_1services_1_1reScanBuyerService_1_1OnRunning.html#ae4a4f4cadce2787c7e80005639fbd5d9" target="_top" xlink:title="this method defines what to do in the given derived state ">
<polygon fill="white" stroke="black" points="107,-6 107,-25 162,-25 162,-6 107,-6"/>
<text text-anchor="middle" x="134.5" y="-13" font-family="Helvetica,sans-Serif" font-size="10.00">execute</text>
</a>
</g>
</g>
<!-- Node1&#45;&gt;Node2 -->
<g id="edge1" class="edge"><title>Node1&#45;&gt;Node2</title>
<path fill="none" stroke="midnightblue" d="M81.3624,-15.5C90.1011,-15.5 98.9981,-15.5 106.91,-15.5"/>
<polygon fill="midnightblue" stroke="midnightblue" points="81.2453,-12.0001 71.2452,-15.5 81.2452,-19.0001 81.2453,-12.0001"/>
</g>
<!-- Node3 -->
<g id="node3" class="node"><title>Node3</title>
<g id="a_node3"><a xlink:href="classcom_1_1tomoparts_1_1tomoBay_1_1model_1_1services_1_1reScanBuyerService_1_1ReScanBuyerService.html#ae3b0a282dcba7f2d675ca89b1dd48487" target="_top" xlink:title="com.tomoparts.tomoBay.model.services.re\lScanBuyerService.ReScanBuyerService.onRunning">
<polygon fill="white" stroke="black" points="198,-0.5 198,-30.5 457,-30.5 457,-0.5 198,-0.5"/>
<text text-anchor="start" x="206" y="-18.5" font-family="Helvetica,sans-Serif" font-size="10.00">com.tomoparts.tomoBay.model.services.re</text>
<text text-anchor="middle" x="327.5" y="-7.5" font-family="Helvetica,sans-Serif" font-size="10.00">ScanBuyerService.ReScanBuyerService.onRunning</text>
</a>
</g>
</g>
<!-- Node2&#45;&gt;Node3 -->
<g id="edge2" class="edge"><title>Node2&#45;&gt;Node3</title>
<path fill="none" stroke="midnightblue" d="M172.185,-15.5C180.034,-15.5 188.751,-15.5 197.933,-15.5"/>
<polygon fill="midnightblue" stroke="midnightblue" points="172.058,-12.0001 162.058,-15.5 172.058,-19.0001 172.058,-12.0001"/>
</g>
<!-- Node4 -->
<g id="node4" class="node"><title>Node4</title>
<g id="a_node4"><a xlink:href="classcom_1_1tomoparts_1_1tomoBay_1_1model_1_1services_1_1reScanBuyerService_1_1ReScanBuyerService.html#afd85cd6baa355d54ab15c19c16c21df9" target="_top" xlink:title="com.tomoparts.tomoBay.model.services.re\lScanBuyerService.ReScanBuyerService.onPaused">
<polygon fill="white" stroke="black" points="493,-0.5 493,-30.5 749,-30.5 749,-0.5 493,-0.5"/>
<text text-anchor="start" x="501" y="-18.5" font-family="Helvetica,sans-Serif" font-size="10.00">com.tomoparts.tomoBay.model.services.re</text>
<text text-anchor="middle" x="621" y="-7.5" font-family="Helvetica,sans-Serif" font-size="10.00">ScanBuyerService.ReScanBuyerService.onPaused</text>
</a>
</g>
</g>
<!-- Node3&#45;&gt;Node4 -->
<g id="edge3" class="edge"><title>Node3&#45;&gt;Node4</title>
<path fill="none" stroke="midnightblue" d="M467.419,-15.5C475.811,-15.5 484.233,-15.5 492.575,-15.5"/>
<polygon fill="midnightblue" stroke="midnightblue" points="467.205,-12.0001 457.205,-15.5 467.205,-19.0001 467.205,-12.0001"/>
</g>
</g>
</svg>
