<?xml version="1.0" encoding="UTF-8" standalone="no"?>
<!DOCTYPE svg PUBLIC "-//W3C//DTD SVG 1.1//EN"
 "http://www.w3.org/Graphics/SVG/1.1/DTD/svg11.dtd">
<!-- Generated by graphviz version 2.38.0 (20140413.2041)
 -->
<!-- Title: call Pages: 1 -->
<!--zoomable 137 -->
<svg id="main" version="1.1" xmlns="http://www.w3.org/2000/svg" xmlns:xlink="http://www.w3.org/1999/xlink" xml:space="preserve" onload="init(evt)">
<style type="text/css"><![CDATA[
.edge:hover path { stroke: red; }
.edge:hover polygon { stroke: red; fill: red; }
]]></style>
<script type="text/javascript"><![CDATA[
var edges = document.getElementsByTagName('g');
if (edges && edges.length) {
  for (var i=0;i<edges.length;i++) {
    if (edges[i].id.substr(0,4)=='edge') {
      edges[i].setAttribute('class','edge');
    }
  }
}
]]></script>
        <defs>
                <circle id="rim" cx="0" cy="0" r="7"/>
                <circle id="rim2" cx="0" cy="0" r="3.5"/>
                <g id="zoomPlus">
                        <use xlink:href="#rim" fill="#404040">
                                <set attributeName="fill" to="#808080" begin="zoomplus.mouseover" end="zoomplus.mouseout"/>
                        </use>
                        <path d="M-4,0h8M0,-4v8" fill="none" stroke="white" stroke-width="1.5" pointer-events="none"/>
                </g>
                <g id="zoomMin">
                        <use xlink:href="#rim" fill="#404040">
                                <set attributeName="fill" to="#808080" begin="zoomminus.mouseover" end="zoomminus.mouseout"/>
                        </use>
                        <path d="M-4,0h8" fill="none" stroke="white" stroke-width="1.5" pointer-events="none"/>
                </g>
                <g id="dirArrow">
                        <path fill="none" stroke="white" stroke-width="1.5" d="M0,-3.0v7 M-2.5,-0.5L0,-3.0L2.5,-0.5"/>
                </g>
               <g id="resetDef">
                       <use xlink:href="#rim2" fill="#404040">
                               <set attributeName="fill" to="#808080" begin="reset.mouseover" end="reset.mouseout"/>
                       </use>
               </g>
        </defs>

<script type="text/javascript">
var viewWidth = 1290;
var viewHeight = 137;
var sectionId = 'dynsection-3';
</script>
<script xlink:href="svgpan.js"/>
<svg id="graph" class="graph">
<g id="viewport">
<title>call</title>
<polygon fill="white" stroke="none" points="-4,4 -4,-133 1286,-133 1286,4 -4,4"/>
<!-- Node1 -->
<g id="node1" class="node"><title>Node1</title>
<polygon fill="#bfbfbf" stroke="black" points="0,-55 0,-74 32,-74 32,-55 0,-55"/>
<text text-anchor="middle" x="16" y="-62" font-family="Helvetica,sans-Serif" font-size="10.00">call</text>
</g>
<!-- Node2 -->
<g id="node2" class="node"><title>Node2</title>
<g id="a_node2"><a xlink:href="classcom_1_1tomoparts_1_1tomoBay_1_1model_1_1services_1_1individualItemRefreshService_1_1OnRunning.html#ac963522e7548952e01f9292cf94880ed" target="_top" xlink:title="use the itemID passed in to find out information about a specific eBay item. ">
<polygon fill="white" stroke="black" points="68,-98.5 68,-128.5 328,-128.5 328,-98.5 68,-98.5"/>
<text text-anchor="start" x="76" y="-116.5" font-family="Helvetica,sans-Serif" font-size="10.00">com.tomoparts.tomoBay.model.services.individual</text>
<text text-anchor="middle" x="198" y="-105.5" font-family="Helvetica,sans-Serif" font-size="10.00">ItemRefreshService.OnRunning.getItemData</text>
</a>
</g>
</g>
<!-- Node1&#45;&gt;Node2 -->
<g id="edge1" class="edge"><title>Node1&#45;&gt;Node2</title>
<path fill="none" stroke="midnightblue" d="M41.2519,-78.0611C49.5341,-82.236 58.9846,-86.5138 68,-89.5 78.2717,-92.9023 89.1729,-95.8683 100.116,-98.4428"/>
<polygon fill="midnightblue" stroke="midnightblue" points="42.6434,-74.8387 32.1622,-73.291 39.3906,-81.037 42.6434,-74.8387"/>
</g>
<!-- Node5 -->
<g id="node5" class="node"><title>Node5</title>
<g id="a_node5"><a xlink:href="classcom_1_1tomoparts_1_1tomoBay_1_1model_1_1services_1_1reScanErrorsService_1_1ItemSpecifics.html#aa0f8769393398a5002b537727db0f751" target="_top" xlink:title="performs the API call and return an ItemType containing the item information requested, or if for some reason the call fails a null pointer is returned. ">
<polygon fill="white" stroke="black" points="76.5,-49.5 76.5,-79.5 319.5,-79.5 319.5,-49.5 76.5,-49.5"/>
<text text-anchor="start" x="84.5" y="-67.5" font-family="Helvetica,sans-Serif" font-size="10.00">com.tomoparts.tomoBay.model.services.re</text>
<text text-anchor="middle" x="198" y="-56.5" font-family="Helvetica,sans-Serif" font-size="10.00">ScanErrorsService.ItemSpecifics.performAPIcall</text>
</a>
</g>
</g>
<!-- Node1&#45;&gt;Node5 -->
<g id="edge4" class="edge"><title>Node1&#45;&gt;Node5</title>
<path fill="none" stroke="midnightblue" d="M42.3442,-64.5C52.0096,-64.5 63.7823,-64.5 76.4737,-64.5"/>
<polygon fill="midnightblue" stroke="midnightblue" points="42.0371,-61.0001 32.0371,-64.5 42.0371,-68.0001 42.0371,-61.0001"/>
</g>
<!-- Node7 -->
<g id="node7" class="node"><title>Node7</title>
<g id="a_node7"><a xlink:href="classcom_1_1tomoparts_1_1tomoBay_1_1model_1_1services_1_1basicEbayUpdateService_1_1ItemsAndPartsTable.html#a0a4965df2e2331547f6b8d56f962b70c" target="_top" xlink:title="populates the Orders Table in the database with data grabbed from the ebay API ">
<polygon fill="white" stroke="black" points="71,-0.5 71,-30.5 325,-30.5 325,-0.5 71,-0.5"/>
<text text-anchor="start" x="79" y="-18.5" font-family="Helvetica,sans-Serif" font-size="10.00">com.tomoparts.tomoBay.model.services.basic</text>
<text text-anchor="middle" x="198" y="-7.5" font-family="Helvetica,sans-Serif" font-size="10.00">EbayUpdateService.ItemsAndPartsTable.populate</text>
</a>
</g>
</g>
<!-- Node1&#45;&gt;Node7 -->
<g id="edge6" class="edge"><title>Node1&#45;&gt;Node7</title>
<path fill="none" stroke="midnightblue" d="M41.3177,-51.5501C49.6043,-47.5469 59.0409,-43.4256 68,-40.5 79.6018,-36.7114 91.9884,-33.4145 104.325,-30.5692"/>
<polygon fill="midnightblue" stroke="midnightblue" points="39.5843,-48.5038 32.2156,-56.1165 42.7233,-54.7606 39.5843,-48.5038"/>
</g>
<!-- Node3 -->
<g id="node3" class="node"><title>Node3</title>
<g id="a_node3"><a xlink:href="classcom_1_1tomoparts_1_1tomoBay_1_1model_1_1services_1_1individualItemRefreshService_1_1OnRunning.html#ae4a4f4cadce2787c7e80005639fbd5d9" target="_top" xlink:title="this method defines what to do in the given derived state ">
<polygon fill="white" stroke="black" points="364,-98.5 364,-128.5 624,-128.5 624,-98.5 364,-98.5"/>
<text text-anchor="start" x="372" y="-116.5" font-family="Helvetica,sans-Serif" font-size="10.00">com.tomoparts.tomoBay.model.services.individual</text>
<text text-anchor="middle" x="494" y="-105.5" font-family="Helvetica,sans-Serif" font-size="10.00">ItemRefreshService.OnRunning.execute</text>
</a>
</g>
</g>
<!-- Node2&#45;&gt;Node3 -->
<g id="edge2" class="edge"><title>Node2&#45;&gt;Node3</title>
<path fill="none" stroke="midnightblue" d="M338.564,-113.5C346.932,-113.5 355.333,-113.5 363.656,-113.5"/>
<polygon fill="midnightblue" stroke="midnightblue" points="338.381,-110 328.381,-113.5 338.38,-117 338.381,-110"/>
</g>
<!-- Node4 -->
<g id="node4" class="node"><title>Node4</title>
<g id="a_node4"><a xlink:href="classcom_1_1tomoparts_1_1tomoBay_1_1model_1_1services_1_1individualItemRefreshService_1_1IndividualItemRefreshService.html#ae3b0a282dcba7f2d675ca89b1dd48487" target="_top" xlink:title="com.tomoparts.tomoBay.model.services.individual\lItemRefreshService.IndividualItemRefreshService.onRunning">
<polygon fill="white" stroke="black" points="660,-98.5 660,-128.5 963,-128.5 963,-98.5 660,-98.5"/>
<text text-anchor="start" x="668" y="-116.5" font-family="Helvetica,sans-Serif" font-size="10.00">com.tomoparts.tomoBay.model.services.individual</text>
<text text-anchor="middle" x="811.5" y="-105.5" font-family="Helvetica,sans-Serif" font-size="10.00">ItemRefreshService.IndividualItemRefreshService.onRunning</text>
</a>
</g>
</g>
<!-- Node3&#45;&gt;Node4 -->
<g id="edge3" class="edge"><title>Node3&#45;&gt;Node4</title>
<path fill="none" stroke="midnightblue" d="M634.467,-113.5C642.888,-113.5 651.38,-113.5 659.845,-113.5"/>
<polygon fill="midnightblue" stroke="midnightblue" points="634.236,-110 624.236,-113.5 634.236,-117 634.236,-110"/>
</g>
<!-- Node6 -->
<g id="node6" class="node"><title>Node6</title>
<g id="a_node6"><a xlink:href="classcom_1_1tomoparts_1_1tomoBay_1_1model_1_1services_1_1reScanErrorsService_1_1ItemSpecifics.html#a15839159a196a40202a2dd1e25a89423" target="_top" xlink:title="constructor creates an ItemSpecifics object for the itemID passed in as an argument. ">
<polygon fill="white" stroke="black" points="375,-49.5 375,-79.5 613,-79.5 613,-49.5 375,-49.5"/>
<text text-anchor="start" x="383" y="-67.5" font-family="Helvetica,sans-Serif" font-size="10.00">com.tomoparts.tomoBay.model.services.re</text>
<text text-anchor="middle" x="494" y="-56.5" font-family="Helvetica,sans-Serif" font-size="10.00">ScanErrorsService.ItemSpecifics.ItemSpecifics</text>
</a>
</g>
</g>
<!-- Node5&#45;&gt;Node6 -->
<g id="edge5" class="edge"><title>Node5&#45;&gt;Node6</title>
<path fill="none" stroke="midnightblue" d="M330.149,-64.5C345.083,-64.5 360.238,-64.5 374.987,-64.5"/>
<polygon fill="midnightblue" stroke="midnightblue" points="329.854,-61.0001 319.854,-64.5 329.854,-68.0001 329.854,-61.0001"/>
</g>
<!-- Node8 -->
<g id="node8" class="node"><title>Node8</title>
<g id="a_node8"><a xlink:href="classcom_1_1tomoparts_1_1tomoBay_1_1model_1_1services_1_1basicEbayUpdateService_1_1OnRunning.html#ae4a4f4cadce2787c7e80005639fbd5d9" target="_top" xlink:title="this method defines what to do in the given derived state ">
<polygon fill="white" stroke="black" points="374,-0.5 374,-30.5 614,-30.5 614,-0.5 374,-0.5"/>
<text text-anchor="start" x="382" y="-18.5" font-family="Helvetica,sans-Serif" font-size="10.00">com.tomoparts.tomoBay.model.services.basic</text>
<text text-anchor="middle" x="494" y="-7.5" font-family="Helvetica,sans-Serif" font-size="10.00">EbayUpdateService.OnRunning.execute</text>
</a>
</g>
</g>
<!-- Node7&#45;&gt;Node8 -->
<g id="edge7" class="edge"><title>Node7&#45;&gt;Node8</title>
<path fill="none" stroke="midnightblue" d="M335.57,-15.5C348.302,-15.5 361.14,-15.5 373.697,-15.5"/>
<polygon fill="midnightblue" stroke="midnightblue" points="335.389,-12.0001 325.389,-15.5 335.389,-19.0001 335.389,-12.0001"/>
</g>
<!-- Node9 -->
<g id="node9" class="node"><title>Node9</title>
<g id="a_node9"><a xlink:href="classcom_1_1tomoparts_1_1tomoBay_1_1model_1_1services_1_1basicEbayUpdateService_1_1BasicEbayUpdateService.html#ae3b0a282dcba7f2d675ca89b1dd48487" target="_top" xlink:title="com.tomoparts.tomoBay.model.services.basic\lEbayUpdateService.BasicEbayUpdateService.onRunning">
<polygon fill="white" stroke="black" points="668.5,-0.5 668.5,-30.5 954.5,-30.5 954.5,-0.5 668.5,-0.5"/>
<text text-anchor="start" x="676.5" y="-18.5" font-family="Helvetica,sans-Serif" font-size="10.00">com.tomoparts.tomoBay.model.services.basic</text>
<text text-anchor="middle" x="811.5" y="-7.5" font-family="Helvetica,sans-Serif" font-size="10.00">EbayUpdateService.BasicEbayUpdateService.onRunning</text>
</a>
</g>
</g>
<!-- Node8&#45;&gt;Node9 -->
<g id="edge8" class="edge"><title>Node8&#45;&gt;Node9</title>
<path fill="none" stroke="midnightblue" d="M624.675,-15.5C639.042,-15.5 653.731,-15.5 668.243,-15.5"/>
<polygon fill="midnightblue" stroke="midnightblue" points="624.277,-12.0001 614.277,-15.5 624.277,-19.0001 624.277,-12.0001"/>
</g>
<!-- Node10 -->
<g id="node10" class="node"><title>Node10</title>
<g id="a_node10"><a xlink:href="classcom_1_1tomoparts_1_1tomoBay_1_1model_1_1services_1_1basicEbayUpdateService_1_1BasicEbayUpdateService.html#afd85cd6baa355d54ab15c19c16c21df9" target="_top" xlink:title="com.tomoparts.tomoBay.model.services.basic\lEbayUpdateService.BasicEbayUpdateService.onPaused">
<polygon fill="white" stroke="black" points="999,-0.5 999,-30.5 1282,-30.5 1282,-0.5 999,-0.5"/>
<text text-anchor="start" x="1007" y="-18.5" font-family="Helvetica,sans-Serif" font-size="10.00">com.tomoparts.tomoBay.model.services.basic</text>
<text text-anchor="middle" x="1140.5" y="-7.5" font-family="Helvetica,sans-Serif" font-size="10.00">EbayUpdateService.BasicEbayUpdateService.onPaused</text>
</a>
</g>
</g>
<!-- Node9&#45;&gt;Node10 -->
<g id="edge9" class="edge"><title>Node9&#45;&gt;Node10</title>
<path fill="none" stroke="midnightblue" d="M964.548,-15.5C976.009,-15.5 987.546,-15.5 998.932,-15.5"/>
<polygon fill="midnightblue" stroke="midnightblue" points="964.5,-12.0001 954.5,-15.5 964.5,-19.0001 964.5,-12.0001"/>
</g>
</g>
</svg>
        <g id="navigator" transform="translate(0 0)" fill="#404254">
                <rect fill="#f2f5e9" fill-opacity="0.5" stroke="#606060" stroke-width=".5" x="0" y="0" width="60" height="60"/>
                <use id="zoomplus" xlink:href="#zoomPlus" x="17" y="9" onmousedown="handleZoom(evt,'in')"/>
                <use id="zoomminus" xlink:href="#zoomMin" x="42" y="9" onmousedown="handleZoom(evt,'out')"/>
                <use id="reset" xlink:href="#resetDef" x="30" y="36" onmousedown="handleReset()"/>
                <g id="arrowUp" xlink:href="#dirArrow" transform="translate(30 24)" onmousedown="handlePan(0,-1)">
                  <use xlink:href="#rim" fill="#404040">
                        <set attributeName="fill" to="#808080" begin="arrowUp.mouseover" end="arrowUp.mouseout"/>
                  </use>
                  <path fill="none" stroke="white" stroke-width="1.5" d="M0,-3.0v7 M-2.5,-0.5L0,-3.0L2.5,-0.5"/>
                </g>
                <g id="arrowRight" xlink:href="#dirArrow" transform="rotate(90) translate(36 -43)" onmousedown="handlePan(1,0)">
                  <use xlink:href="#rim" fill="#404040">
                        <set attributeName="fill" to="#808080" begin="arrowRight.mouseover" end="arrowRight.mouseout"/>
                  </use>
                  <path fill="none" stroke="white" stroke-width="1.5" d="M0,-3.0v7 M-2.5,-0.5L0,-3.0L2.5,-0.5"/>
                </g>
                <g id="arrowDown" xlink:href="#dirArrow" transform="rotate(180) translate(-30 -48)" onmousedown="handlePan(0,1)">
                  <use xlink:href="#rim" fill="#404040">
                        <set attributeName="fill" to="#808080" begin="arrowDown.mouseover" end="arrowDown.mouseout"/>
                  </use>
                  <path fill="none" stroke="white" stroke-width="1.5" d="M0,-3.0v7 M-2.5,-0.5L0,-3.0L2.5,-0.5"/>
                </g>
                <g id="arrowLeft" xlink:href="#dirArrow" transform="rotate(270) translate(-36 17)" onmousedown="handlePan(-1,0)">
                  <use xlink:href="#rim" fill="#404040">
                        <set attributeName="fill" to="#808080" begin="arrowLeft.mouseover" end="arrowLeft.mouseout"/>
                  </use>
                  <path fill="none" stroke="white" stroke-width="1.5" d="M0,-3.0v7 M-2.5,-0.5L0,-3.0L2.5,-0.5"/>
                </g>
        </g>
        <svg viewBox="0 0 15 15" width="100%" height="30px" preserveAspectRatio="xMaxYMin meet">
         <g id="arrow_out" transform="scale(0.3 0.3)">
          <a xlink:href="classcom_1_1tomoparts_1_1tomoBay_1_1model_1_1eBayAPI_1_1ItemCall_a33a93e67cbad2090251fa506ebf4e3d5_icgraph_org.svg" target="_base">
           <rect id="button" ry="5" rx="5" y="6" x="6" height="38" width="38"
                fill="#f2f5e9" fill-opacity="0.5" stroke="#606060" stroke-width="1.0"/>
           <path id="arrow"
             d="M 11.500037,31.436501 C 11.940474,20.09759 22.043105,11.32322 32.158766,21.979434 L 37.068811,17.246167 C 37.068811,17.246167 37.088388,32 37.088388,32 L 22.160133,31.978069 C 22.160133,31.978069 26.997745,27.140456 26.997745,27.140456 C 18.528582,18.264221 13.291696,25.230495 11.500037,31.436501 z"
             style="fill:#404040;"/>
          </a>
         </g>
        </svg>
</svg>
