<?xml version="1.0" encoding="UTF-8" standalone="no"?>
<!DOCTYPE svg PUBLIC "-//W3C//DTD SVG 1.1//EN"
 "http://www.w3.org/Graphics/SVG/1.1/DTD/svg11.dtd">
<!-- Generated by graphviz version 2.38.0 (20140413.2041)
 -->
<!-- Title: CheckErrorsService Pages: 1 -->
<svg width="191pt" height="376pt"
 viewBox="0.00 0.00 190.50 376.00" xmlns="http://www.w3.org/2000/svg" xmlns:xlink="http://www.w3.org/1999/xlink">
<g id="graph0" class="graph" transform="scale(1 1) rotate(0) translate(4 372)">
<title>CheckErrorsService</title>
<polygon fill="white" stroke="none" points="-4,4 -4,-372 186.5,-372 186.5,4 -4,4"/>
<!-- Node1 -->
<g id="node1" class="node"><title>Node1</title>
<polygon fill="#bfbfbf" stroke="black" points="54.5,-0.5 54.5,-112.5 182.5,-112.5 182.5,-0.5 54.5,-0.5"/>
<text text-anchor="middle" x="118.5" y="-100.5" font-family="Helvetica,sans-Serif" font-size="10.00">CheckErrorsService</text>
<polyline fill="none" stroke="black" points="54.5,-93.5 182.5,-93.5 "/>
<text text-anchor="middle" x="118.5" y="-81.5" font-family="Helvetica,sans-Serif" font-size="10.00"> </text>
<polyline fill="none" stroke="black" points="54.5,-74.5 182.5,-74.5 "/>
<text text-anchor="start" x="62.5" y="-62.5" font-family="Helvetica,sans-Serif" font-size="10.00">+ CheckErrorsService()</text>
<text text-anchor="start" x="62.5" y="-51.5" font-family="Helvetica,sans-Serif" font-size="10.00">~ setConfig()</text>
<text text-anchor="start" x="62.5" y="-40.5" font-family="Helvetica,sans-Serif" font-size="10.00"># onRunning()</text>
<text text-anchor="start" x="62.5" y="-29.5" font-family="Helvetica,sans-Serif" font-size="10.00"># onPaused()</text>
<text text-anchor="start" x="62.5" y="-18.5" font-family="Helvetica,sans-Serif" font-size="10.00"># onStopped()</text>
<text text-anchor="start" x="62.5" y="-7.5" font-family="Helvetica,sans-Serif" font-size="10.00"># onError()</text>
</g>
<!-- Node2 -->
<g id="node2" class="node"><title>Node2</title>
<g id="a_node2"><a xlink:href="classcom_1_1tomoparts_1_1tomoBay_1_1model_1_1services_1_1AbstractService.html" target="_top" xlink:title="Allows the system to only accept runnable&#39;s that implement this interface rather than all runnables...">
<polygon fill="white" stroke="black" points="6.5,-160.5 6.5,-272.5 98.5,-272.5 98.5,-160.5 6.5,-160.5"/>
<text text-anchor="middle" x="52.5" y="-260.5" font-family="Helvetica,sans-Serif" font-size="10.00">AbstractService</text>
<polyline fill="none" stroke="black" points="6.5,-253.5 98.5,-253.5 "/>
<text text-anchor="middle" x="52.5" y="-241.5" font-family="Helvetica,sans-Serif" font-size="10.00"> </text>
<polyline fill="none" stroke="black" points="6.5,-234.5 98.5,-234.5 "/>
<text text-anchor="start" x="14.5" y="-222.5" font-family="Helvetica,sans-Serif" font-size="10.00">+ call()</text>
<text text-anchor="start" x="14.5" y="-211.5" font-family="Helvetica,sans-Serif" font-size="10.00">+ setConfig()</text>
<text text-anchor="start" x="14.5" y="-200.5" font-family="Helvetica,sans-Serif" font-size="10.00"># onRunning()</text>
<text text-anchor="start" x="14.5" y="-189.5" font-family="Helvetica,sans-Serif" font-size="10.00"># onPaused()</text>
<text text-anchor="start" x="14.5" y="-178.5" font-family="Helvetica,sans-Serif" font-size="10.00"># onStopped()</text>
<text text-anchor="start" x="14.5" y="-167.5" font-family="Helvetica,sans-Serif" font-size="10.00"># onError()</text>
</a>
</g>
</g>
<!-- Node2&#45;&gt;Node1 -->
<g id="edge1" class="edge"><title>Node2&#45;&gt;Node1</title>
<path fill="none" stroke="midnightblue" d="M79.5617,-150.716C84.8292,-138.106 90.3054,-124.996 95.4294,-112.73"/>
<polygon fill="none" stroke="midnightblue" points="76.2085,-149.663 75.5836,-160.239 82.6677,-152.361 76.2085,-149.663"/>
</g>
<!-- Node3 -->
<g id="node3" class="node"><title>Node3</title>
<polygon fill="white" stroke="#bfbfbf" points="0,-310.5 0,-367.5 105,-367.5 105,-310.5 0,-310.5"/>
<text text-anchor="middle" x="52.5" y="-355.5" font-family="Helvetica,sans-Serif" font-size="10.00">Callable&lt; String &gt;</text>
<polyline fill="none" stroke="#bfbfbf" points="0,-348.5 105,-348.5 "/>
<text text-anchor="middle" x="52.5" y="-336.5" font-family="Helvetica,sans-Serif" font-size="10.00"> </text>
<polyline fill="none" stroke="#bfbfbf" points="0,-329.5 105,-329.5 "/>
<text text-anchor="middle" x="52.5" y="-317.5" font-family="Helvetica,sans-Serif" font-size="10.00"> </text>
</g>
<!-- Node3&#45;&gt;Node2 -->
<g id="edge2" class="edge"><title>Node3&#45;&gt;Node2</title>
<path fill="none" stroke="midnightblue" d="M52.5,-300.109C52.5,-291.362 52.5,-281.883 52.5,-272.569"/>
<polygon fill="none" stroke="midnightblue" points="49.0001,-300.355 52.5,-310.355 56.0001,-300.355 49.0001,-300.355"/>
</g>
<!-- Node4 -->
<g id="node4" class="node"><title>Node4</title>
<polygon fill="white" stroke="#bfbfbf" points="116.5,-188 116.5,-245 166.5,-245 166.5,-188 116.5,-188"/>
<text text-anchor="middle" x="141.5" y="-233" font-family="Helvetica,sans-Serif" font-size="10.00">Logger</text>
<polyline fill="none" stroke="#bfbfbf" points="116.5,-226 166.5,-226 "/>
<text text-anchor="middle" x="141.5" y="-214" font-family="Helvetica,sans-Serif" font-size="10.00"> </text>
<polyline fill="none" stroke="#bfbfbf" points="116.5,-207 166.5,-207 "/>
<text text-anchor="middle" x="141.5" y="-195" font-family="Helvetica,sans-Serif" font-size="10.00"> </text>
</g>
<!-- Node4&#45;&gt;Node1 -->
<g id="edge3" class="edge"><title>Node4&#45;&gt;Node1</title>
<path fill="none" stroke="#404040" d="M137.494,-187.979C134.942,-170.448 131.518,-146.926 128.28,-124.684"/>
<polygon fill="none" stroke="#404040" points="128.236,-124.379 123.413,-119.018 126.507,-112.504 131.33,-117.865 128.236,-124.379"/>
<text text-anchor="middle" x="143.5" y="-134" font-family="Helvetica,sans-Serif" font-size="10.00"> ~log</text>
</g>
</g>
</svg>
