<?xml version="1.0" encoding="UTF-8" standalone="no"?>
<!DOCTYPE svg PUBLIC "-//W3C//DTD SVG 1.1//EN"
 "http://www.w3.org/Graphics/SVG/1.1/DTD/svg11.dtd">
<!-- Generated by graphviz version 2.38.0 (20140413.2041)
 -->
<!-- Title: AbstractAPIcall Pages: 1 -->
<svg width="599pt" height="259pt"
 viewBox="0.00 0.00 599.00 259.00" xmlns="http://www.w3.org/2000/svg" xmlns:xlink="http://www.w3.org/1999/xlink">
<g id="graph0" class="graph" transform="scale(1 1) rotate(0) translate(4 255)">
<title>AbstractAPIcall</title>
<polygon fill="white" stroke="none" points="-4,4 -4,-255 595,-255 595,4 -4,4"/>
<!-- Node1 -->
<g id="node1" class="node"><title>Node1</title>
<polygon fill="#bfbfbf" stroke="black" points="206.5,-182.5 206.5,-250.5 313.5,-250.5 313.5,-182.5 206.5,-182.5"/>
<text text-anchor="middle" x="260" y="-238.5" font-family="Helvetica,sans-Serif" font-size="10.00">AbstractAPIcall</text>
<polyline fill="none" stroke="black" points="206.5,-231.5 313.5,-231.5 "/>
<text text-anchor="start" x="214.5" y="-219.5" font-family="Helvetica,sans-Serif" font-size="10.00"># usrToken_M</text>
<text text-anchor="start" x="214.5" y="-208.5" font-family="Helvetica,sans-Serif" font-size="10.00"># server_M</text>
<polyline fill="none" stroke="black" points="206.5,-201.5 313.5,-201.5 "/>
<text text-anchor="start" x="214.5" y="-189.5" font-family="Helvetica,sans-Serif" font-size="10.00"># AbstractAPIcall()</text>
</g>
<!-- Node2 -->
<g id="node2" class="node"><title>Node2</title>
<g id="a_node2"><a xlink:href="classcom_1_1tomoparts_1_1tomoBay_1_1model_1_1eBayAPI_1_1GetSessionID.html" target="_top" xlink:title="{GetSessionID\n||+ GetSessionID()\l+ call()\l}">
<polygon fill="white" stroke="black" points="0,-39 0,-107 100,-107 100,-39 0,-39"/>
<text text-anchor="middle" x="50" y="-95" font-family="Helvetica,sans-Serif" font-size="10.00">GetSessionID</text>
<polyline fill="none" stroke="black" points="0,-88 100,-88 "/>
<text text-anchor="middle" x="50" y="-76" font-family="Helvetica,sans-Serif" font-size="10.00"> </text>
<polyline fill="none" stroke="black" points="0,-69 100,-69 "/>
<text text-anchor="start" x="8" y="-57" font-family="Helvetica,sans-Serif" font-size="10.00">+ GetSessionID()</text>
<text text-anchor="start" x="8" y="-46" font-family="Helvetica,sans-Serif" font-size="10.00">+ call()</text>
</a>
</g>
</g>
<!-- Node1&#45;&gt;Node2 -->
<g id="edge1" class="edge"><title>Node1&#45;&gt;Node2</title>
<path fill="none" stroke="midnightblue" d="M196.938,-193.941C168.401,-182.377 135.262,-166.291 109,-146 95.0607,-135.23 82.2955,-120.578 72.2317,-107.303"/>
<polygon fill="none" stroke="midnightblue" points="195.836,-197.269 206.423,-197.689 198.409,-190.759 195.836,-197.269"/>
</g>
<!-- Node3 -->
<g id="node3" class="node"><title>Node3</title>
<g id="a_node3"><a xlink:href="classcom_1_1tomoparts_1_1tomoBay_1_1model_1_1eBayAPI_1_1ItemCall.html" target="_top" xlink:title="This class represents an eBay API call requesting Item Data. ">
<polygon fill="white" stroke="black" points="118.5,-33.5 118.5,-112.5 197.5,-112.5 197.5,-33.5 118.5,-33.5"/>
<text text-anchor="middle" x="158" y="-100.5" font-family="Helvetica,sans-Serif" font-size="10.00">ItemCall</text>
<polyline fill="none" stroke="black" points="118.5,-93.5 197.5,-93.5 "/>
<text text-anchor="start" x="126.5" y="-81.5" font-family="Helvetica,sans-Serif" font-size="10.00">~ item_M</text>
<text text-anchor="start" x="126.5" y="-70.5" font-family="Helvetica,sans-Serif" font-size="10.00">~ itemreq_M</text>
<polyline fill="none" stroke="black" points="118.5,-63.5 197.5,-63.5 "/>
<text text-anchor="start" x="126.5" y="-51.5" font-family="Helvetica,sans-Serif" font-size="10.00">+ ItemCall()</text>
<text text-anchor="start" x="126.5" y="-40.5" font-family="Helvetica,sans-Serif" font-size="10.00">+ call()</text>
</a>
</g>
</g>
<!-- Node1&#45;&gt;Node3 -->
<g id="edge2" class="edge"><title>Node1&#45;&gt;Node3</title>
<path fill="none" stroke="midnightblue" d="M227.755,-173.975C220.816,-164.829 213.589,-155.142 207,-146 199.308,-135.329 191.185,-123.595 183.813,-112.753"/>
<polygon fill="none" stroke="midnightblue" points="225.174,-176.362 234.021,-182.191 230.74,-172.117 225.174,-176.362"/>
</g>
<!-- Node4 -->
<g id="node4" class="node"><title>Node4</title>
<g id="a_node4"><a xlink:href="classcom_1_1tomoparts_1_1tomoBay_1_1model_1_1eBayAPI_1_1ListingsCall.html" target="_top" xlink:title="This represents an eBay API call requesting information about a listing. ">
<polygon fill="white" stroke="black" points="215.5,-39 215.5,-107 304.5,-107 304.5,-39 215.5,-39"/>
<text text-anchor="middle" x="260" y="-95" font-family="Helvetica,sans-Serif" font-size="10.00">ListingsCall</text>
<polyline fill="none" stroke="black" points="215.5,-88 304.5,-88 "/>
<text text-anchor="start" x="223.5" y="-76" font-family="Helvetica,sans-Serif" font-size="10.00">&#45; listingsCall_M</text>
<polyline fill="none" stroke="black" points="215.5,-69 304.5,-69 "/>
<text text-anchor="start" x="223.5" y="-57" font-family="Helvetica,sans-Serif" font-size="10.00">+ ListingsCall()</text>
<text text-anchor="start" x="223.5" y="-46" font-family="Helvetica,sans-Serif" font-size="10.00">+ call()</text>
</a>
</g>
</g>
<!-- Node1&#45;&gt;Node4 -->
<g id="edge3" class="edge"><title>Node1&#45;&gt;Node4</title>
<path fill="none" stroke="midnightblue" d="M260,-172.143C260,-151.338 260,-126.796 260,-107.458"/>
<polygon fill="none" stroke="midnightblue" points="256.5,-172.325 260,-182.325 263.5,-172.325 256.5,-172.325"/>
</g>
<!-- Node5 -->
<g id="node5" class="node"><title>Node5</title>
<g id="a_node5"><a xlink:href="classcom_1_1tomoparts_1_1tomoBay_1_1model_1_1eBayAPI_1_1OrdersCall.html" target="_top" xlink:title="This represents an eBay API call that requests information about an order. ">
<polygon fill="white" stroke="black" points="323,-0.5 323,-145.5 433,-145.5 433,-0.5 323,-0.5"/>
<text text-anchor="middle" x="378" y="-133.5" font-family="Helvetica,sans-Serif" font-size="10.00">OrdersCall</text>
<polyline fill="none" stroke="black" points="323,-126.5 433,-126.5 "/>
<text text-anchor="start" x="331" y="-114.5" font-family="Helvetica,sans-Serif" font-size="10.00">~ log</text>
<text text-anchor="start" x="331" y="-103.5" font-family="Helvetica,sans-Serif" font-size="10.00">&#45; order_M</text>
<text text-anchor="start" x="331" y="-92.5" font-family="Helvetica,sans-Serif" font-size="10.00">&#45; ordreq_M</text>
<text text-anchor="start" x="331" y="-81.5" font-family="Helvetica,sans-Serif" font-size="10.00">&#45; PAGE_NO_MIN</text>
<polyline fill="none" stroke="black" points="323,-74.5 433,-74.5 "/>
<text text-anchor="start" x="331" y="-62.5" font-family="Helvetica,sans-Serif" font-size="10.00">+ OrdersCall()</text>
<text text-anchor="start" x="331" y="-51.5" font-family="Helvetica,sans-Serif" font-size="10.00">+ call()</text>
<text text-anchor="start" x="331" y="-40.5" font-family="Helvetica,sans-Serif" font-size="10.00">+ call()</text>
<text text-anchor="start" x="331" y="-29.5" font-family="Helvetica,sans-Serif" font-size="10.00">&#45; setUpCall()</text>
<text text-anchor="start" x="331" y="-18.5" font-family="Helvetica,sans-Serif" font-size="10.00">&#45; setUpPagination()</text>
<text text-anchor="start" x="331" y="-7.5" font-family="Helvetica,sans-Serif" font-size="10.00">&#45; reformResults()</text>
</a>
</g>
</g>
<!-- Node1&#45;&gt;Node5 -->
<g id="edge4" class="edge"><title>Node1&#45;&gt;Node5</title>
<path fill="none" stroke="midnightblue" d="M294.316,-174.35C303.271,-163.612 313.151,-151.763 322.89,-140.085"/>
<polygon fill="none" stroke="midnightblue" points="291.382,-172.403 287.666,-182.325 296.758,-176.886 291.382,-172.403"/>
</g>
<!-- Node6 -->
<g id="node6" class="node"><title>Node6</title>
<g id="a_node6"><a xlink:href="classcom_1_1tomoparts_1_1tomoBay_1_1model_1_1eBayAPI_1_1OrderTransactionsCall.html" target="_top" xlink:title="{OrderTransactionsCall\n|&#45; call\l|+ OrderTransactionsCall()\l+ call()\l}">
<polygon fill="white" stroke="black" points="451,-39 451,-107 591,-107 591,-39 451,-39"/>
<text text-anchor="middle" x="521" y="-95" font-family="Helvetica,sans-Serif" font-size="10.00">OrderTransactionsCall</text>
<polyline fill="none" stroke="black" points="451,-88 591,-88 "/>
<text text-anchor="start" x="459" y="-76" font-family="Helvetica,sans-Serif" font-size="10.00">&#45; call</text>
<polyline fill="none" stroke="black" points="451,-69 591,-69 "/>
<text text-anchor="start" x="459" y="-57" font-family="Helvetica,sans-Serif" font-size="10.00">+ OrderTransactionsCall()</text>
<text text-anchor="start" x="459" y="-46" font-family="Helvetica,sans-Serif" font-size="10.00">+ call()</text>
</a>
</g>
</g>
<!-- Node1&#45;&gt;Node6 -->
<g id="edge5" class="edge"><title>Node1&#45;&gt;Node6</title>
<path fill="none" stroke="midnightblue" d="M323.767,-197.641C359.982,-185.942 405.276,-168.613 442,-146 459.382,-135.297 476.412,-120.499 490.183,-107.1"/>
<polygon fill="none" stroke="midnightblue" points="322.287,-194.438 313.808,-200.791 324.398,-201.112 322.287,-194.438"/>
</g>
</g>
</svg>
