<?xml version="1.0" encoding="UTF-8" standalone="no"?>
<!DOCTYPE svg PUBLIC "-//W3C//DTD SVG 1.1//EN"
 "http://www.w3.org/Graphics/SVG/1.1/DTD/svg11.dtd">
<!-- Generated by graphviz version 2.38.0 (20140413.2041)
 -->
<!-- Title: performAdjustement Pages: 1 -->
<!--zoomable 170 -->
<svg id="main" version="1.1" xmlns="http://www.w3.org/2000/svg" xmlns:xlink="http://www.w3.org/1999/xlink" xml:space="preserve" onload="init(evt)">
<style type="text/css"><![CDATA[
.edge:hover path { stroke: red; }
.edge:hover polygon { stroke: red; fill: red; }
]]></style>
<script type="text/javascript"><![CDATA[
var edges = document.getElementsByTagName('g');
if (edges && edges.length) {
  for (var i=0;i<edges.length;i++) {
    if (edges[i].id.substr(0,4)=='edge') {
      edges[i].setAttribute('class','edge');
    }
  }
}
]]></script>
        <defs>
                <circle id="rim" cx="0" cy="0" r="7"/>
                <circle id="rim2" cx="0" cy="0" r="3.5"/>
                <g id="zoomPlus">
                        <use xlink:href="#rim" fill="#404040">
                                <set attributeName="fill" to="#808080" begin="zoomplus.mouseover" end="zoomplus.mouseout"/>
                        </use>
                        <path d="M-4,0h8M0,-4v8" fill="none" stroke="white" stroke-width="1.5" pointer-events="none"/>
                </g>
                <g id="zoomMin">
                        <use xlink:href="#rim" fill="#404040">
                                <set attributeName="fill" to="#808080" begin="zoomminus.mouseover" end="zoomminus.mouseout"/>
                        </use>
                        <path d="M-4,0h8" fill="none" stroke="white" stroke-width="1.5" pointer-events="none"/>
                </g>
                <g id="dirArrow">
                        <path fill="none" stroke="white" stroke-width="1.5" d="M0,-3.0v7 M-2.5,-0.5L0,-3.0L2.5,-0.5"/>
                </g>
               <g id="resetDef">
                       <use xlink:href="#rim2" fill="#404040">
                               <set attributeName="fill" to="#808080" begin="reset.mouseover" end="reset.mouseout"/>
                       </use>
               </g>
        </defs>

<script type="text/javascript">
var viewWidth = 597;
var viewHeight = 170;
var sectionId = 'dynsection-3';
</script>
<script xlink:href="svgpan.js"/>
<svg id="graph" class="graph">
<g id="viewport">
<title>performAdjustement</title>
<polygon fill="white" stroke="none" points="-4,4 -4,-166 593,-166 593,4 -4,4"/>
<!-- Node1 -->
<g id="node1" class="node"><title>Node1</title>
<polygon fill="#bfbfbf" stroke="black" points="0,-71.5 0,-90.5 116,-90.5 116,-71.5 0,-71.5"/>
<text text-anchor="middle" x="58" y="-78.5" font-family="Helvetica,sans-Serif" font-size="10.00">performAdjustement</text>
</g>
<!-- Node2 -->
<g id="node2" class="node"><title>Node2</title>
<g id="a_node2"><a xlink:href="classcom_1_1tomoparts_1_1tomoBay_1_1model_1_1dataTypes_1_1financial_1_1SalesOrderDayBook_1_1AbstractLineItem.html#ab0170f53be617ec2ea8746f9f5c7c596" target="_top" xlink:title="add or subtract the given amount of pennies from this line item ">
<polygon fill="white" stroke="black" points="157.5,-120.5 157.5,-161.5 352.5,-161.5 352.5,-120.5 157.5,-120.5"/>
<text text-anchor="start" x="165.5" y="-149.5" font-family="Helvetica,sans-Serif" font-size="10.00">com.tomoparts.tomoBay.model.data</text>
<text text-anchor="start" x="165.5" y="-138.5" font-family="Helvetica,sans-Serif" font-size="10.00">Types.financial.SalesOrderDayBook.</text>
<text text-anchor="middle" x="255" y="-127.5" font-family="Helvetica,sans-Serif" font-size="10.00">AbstractLineItem.adjustPrice</text>
</a>
</g>
</g>
<!-- Node1&#45;&gt;Node2 -->
<g id="edge1" class="edge"><title>Node1&#45;&gt;Node2</title>
<path fill="none" stroke="midnightblue" d="M87.8439,-90.5178C106.178,-96.5148 130.438,-104.353 152,-111 158.912,-113.131 166.099,-115.313 173.313,-117.479"/>
<polygon fill="midnightblue" stroke="midnightblue" points="172.561,-120.908 183.145,-120.419 174.566,-114.201 172.561,-120.908"/>
</g>
<!-- Node3 -->
<g id="node3" class="node"><title>Node3</title>
<g id="a_node3"><a xlink:href="classcom_1_1tomoparts_1_1tomoBay_1_1model_1_1dataTypes_1_1financial_1_1SalesOrderDayBook_1_1AbstractSalesDayBookLine.html#a1b2142782be2899c8c3c19c5b3e05247" target="_top" xlink:title="retrieve a particular AbstractLineItem from the list of items that make up this AbstractSalesDayBookL...">
<polygon fill="white" stroke="black" points="152,-60.5 152,-101.5 358,-101.5 358,-60.5 152,-60.5"/>
<text text-anchor="start" x="160" y="-89.5" font-family="Helvetica,sans-Serif" font-size="10.00">com.tomoparts.tomoBay.model.data</text>
<text text-anchor="start" x="160" y="-78.5" font-family="Helvetica,sans-Serif" font-size="10.00">Types.financial.SalesOrderDayBook.</text>
<text text-anchor="middle" x="255" y="-67.5" font-family="Helvetica,sans-Serif" font-size="10.00">AbstractSalesDayBookLine.getLineItem</text>
</a>
</g>
</g>
<!-- Node1&#45;&gt;Node3 -->
<g id="edge2" class="edge"><title>Node1&#45;&gt;Node3</title>
<path fill="none" stroke="midnightblue" d="M116.189,-81C124.266,-81 132.792,-81 141.48,-81"/>
<polygon fill="midnightblue" stroke="midnightblue" points="141.737,-84.5001 151.737,-81 141.737,-77.5001 141.737,-84.5001"/>
</g>
<!-- Node4 -->
<g id="node4" class="node"><title>Node4</title>
<g id="a_node4"><a xlink:href="classcom_1_1tomoparts_1_1tomoBay_1_1model_1_1dataTypes_1_1financial_1_1SalesOrderDayBook_1_1AbstractLineItem.html#a906729ff4a7b3a1638da9e1b47e8ada2" target="_top" xlink:title="retrieve the price of the quantity of parts invoiced (EX VAT) ">
<polygon fill="white" stroke="black" points="157.5,-0.5 157.5,-41.5 352.5,-41.5 352.5,-0.5 157.5,-0.5"/>
<text text-anchor="start" x="165.5" y="-29.5" font-family="Helvetica,sans-Serif" font-size="10.00">com.tomoparts.tomoBay.model.data</text>
<text text-anchor="start" x="165.5" y="-18.5" font-family="Helvetica,sans-Serif" font-size="10.00">Types.financial.SalesOrderDayBook.</text>
<text text-anchor="middle" x="255" y="-7.5" font-family="Helvetica,sans-Serif" font-size="10.00">AbstractLineItem.price</text>
</a>
</g>
</g>
<!-- Node1&#45;&gt;Node4 -->
<g id="edge3" class="edge"><title>Node1&#45;&gt;Node4</title>
<path fill="none" stroke="midnightblue" d="M87.8439,-71.4822C106.178,-65.4852 130.438,-57.6474 152,-51 158.912,-48.869 166.099,-46.6874 173.313,-44.5207"/>
<polygon fill="midnightblue" stroke="midnightblue" points="174.566,-47.7991 183.145,-41.5814 172.561,-41.0924 174.566,-47.7991"/>
</g>
<!-- Node5 -->
<g id="node5" class="node"><title>Node5</title>
<g id="a_node5"><a xlink:href="classcom_1_1tomoparts_1_1tomoBay_1_1model_1_1dataTypes_1_1financial_1_1SalesOrderDayBook_1_1AbstractLineItem.html#a9384ad6463e803ada82c6c35d708939a" target="_top" xlink:title="implementation specific code used to work out the unit price for a specific line item ...">
<polygon fill="white" stroke="black" points="394,-0.5 394,-41.5 589,-41.5 589,-0.5 394,-0.5"/>
<text text-anchor="start" x="402" y="-29.5" font-family="Helvetica,sans-Serif" font-size="10.00">com.tomoparts.tomoBay.model.data</text>
<text text-anchor="start" x="402" y="-18.5" font-family="Helvetica,sans-Serif" font-size="10.00">Types.financial.SalesOrderDayBook.</text>
<text text-anchor="middle" x="491.5" y="-7.5" font-family="Helvetica,sans-Serif" font-size="10.00">AbstractLineItem.unitPrice</text>
</a>
</g>
</g>
<!-- Node4&#45;&gt;Node5 -->
<g id="edge4" class="edge"><title>Node4&#45;&gt;Node5</title>
<path fill="none" stroke="midnightblue" d="M352.734,-21C362.953,-21 373.387,-21 383.712,-21"/>
<polygon fill="midnightblue" stroke="midnightblue" points="383.988,-24.5001 393.988,-21 383.988,-17.5001 383.988,-24.5001"/>
</g>
</g>
</svg>
        <g id="navigator" transform="translate(0 0)" fill="#404254">
                <rect fill="#f2f5e9" fill-opacity="0.5" stroke="#606060" stroke-width=".5" x="0" y="0" width="60" height="60"/>
                <use id="zoomplus" xlink:href="#zoomPlus" x="17" y="9" onmousedown="handleZoom(evt,'in')"/>
                <use id="zoomminus" xlink:href="#zoomMin" x="42" y="9" onmousedown="handleZoom(evt,'out')"/>
                <use id="reset" xlink:href="#resetDef" x="30" y="36" onmousedown="handleReset()"/>
                <g id="arrowUp" xlink:href="#dirArrow" transform="translate(30 24)" onmousedown="handlePan(0,-1)">
                  <use xlink:href="#rim" fill="#404040">
                        <set attributeName="fill" to="#808080" begin="arrowUp.mouseover" end="arrowUp.mouseout"/>
                  </use>
                  <path fill="none" stroke="white" stroke-width="1.5" d="M0,-3.0v7 M-2.5,-0.5L0,-3.0L2.5,-0.5"/>
                </g>
                <g id="arrowRight" xlink:href="#dirArrow" transform="rotate(90) translate(36 -43)" onmousedown="handlePan(1,0)">
                  <use xlink:href="#rim" fill="#404040">
                        <set attributeName="fill" to="#808080" begin="arrowRight.mouseover" end="arrowRight.mouseout"/>
                  </use>
                  <path fill="none" stroke="white" stroke-width="1.5" d="M0,-3.0v7 M-2.5,-0.5L0,-3.0L2.5,-0.5"/>
                </g>
                <g id="arrowDown" xlink:href="#dirArrow" transform="rotate(180) translate(-30 -48)" onmousedown="handlePan(0,1)">
                  <use xlink:href="#rim" fill="#404040">
                        <set attributeName="fill" to="#808080" begin="arrowDown.mouseover" end="arrowDown.mouseout"/>
                  </use>
                  <path fill="none" stroke="white" stroke-width="1.5" d="M0,-3.0v7 M-2.5,-0.5L0,-3.0L2.5,-0.5"/>
                </g>
                <g id="arrowLeft" xlink:href="#dirArrow" transform="rotate(270) translate(-36 17)" onmousedown="handlePan(-1,0)">
                  <use xlink:href="#rim" fill="#404040">
                        <set attributeName="fill" to="#808080" begin="arrowLeft.mouseover" end="arrowLeft.mouseout"/>
                  </use>
                  <path fill="none" stroke="white" stroke-width="1.5" d="M0,-3.0v7 M-2.5,-0.5L0,-3.0L2.5,-0.5"/>
                </g>
        </g>
        <svg viewBox="0 0 15 15" width="100%" height="30px" preserveAspectRatio="xMaxYMin meet">
         <g id="arrow_out" transform="scale(0.3 0.3)">
          <a xlink:href="classcom_1_1tomoparts_1_1tomoBay_1_1model_1_1dataTypes_1_1financial_1_1SalesOrderDayBook_1_1PriceAdjustment_a7c388ac8b6eb2f6704db5aa38b291f1d_cgraph_org.svg" target="_base">
           <rect id="button" ry="5" rx="5" y="6" x="6" height="38" width="38"
                fill="#f2f5e9" fill-opacity="0.5" stroke="#606060" stroke-width="1.0"/>
           <path id="arrow"
             d="M 11.500037,31.436501 C 11.940474,20.09759 22.043105,11.32322 32.158766,21.979434 L 37.068811,17.246167 C 37.068811,17.246167 37.088388,32 37.088388,32 L 22.160133,31.978069 C 22.160133,31.978069 26.997745,27.140456 26.997745,27.140456 C 18.528582,18.264221 13.291696,25.230495 11.500037,31.436501 z"
             style="fill:#404040;"/>
          </a>
         </g>
        </svg>
</svg>
