<?xml version="1.0" encoding="UTF-8" standalone="no"?>
<!DOCTYPE svg PUBLIC "-//W3C//DTD SVG 1.1//EN"
 "http://www.w3.org/Graphics/SVG/1.1/DTD/svg11.dtd">
<!-- Generated by graphviz version 2.38.0 (20140413.2041)
 -->
<!-- Title: AbstractModifyQueryParams Pages: 1 -->
<svg width="2024pt" height="447pt"
 viewBox="0.00 0.00 2023.50 447.00" xmlns="http://www.w3.org/2000/svg" xmlns:xlink="http://www.w3.org/1999/xlink">
<g id="graph0" class="graph" transform="scale(1 1) rotate(0) translate(4 443)">
<title>AbstractModifyQueryParams</title>
<polygon fill="white" stroke="none" points="-4,4 -4,-443 2019.5,-443 2019.5,4 -4,4"/>
<!-- Node1 -->
<g id="node1" class="node"><title>Node1</title>
<polygon fill="#bfbfbf" stroke="black" points="927.5,-116.5 927.5,-217.5 1099.5,-217.5 1099.5,-116.5 927.5,-116.5"/>
<text text-anchor="middle" x="1013.5" y="-205.5" font-family="Helvetica,sans-Serif" font-size="10.00">AbstractModifyQueryParams</text>
<polyline fill="none" stroke="black" points="927.5,-198.5 1099.5,-198.5 "/>
<text text-anchor="middle" x="1013.5" y="-186.5" font-family="Helvetica,sans-Serif" font-size="10.00"> </text>
<polyline fill="none" stroke="black" points="927.5,-179.5 1099.5,-179.5 "/>
<text text-anchor="start" x="935.5" y="-167.5" font-family="Helvetica,sans-Serif" font-size="10.00">+ AbstractModifyQueryParams()</text>
<text text-anchor="start" x="935.5" y="-156.5" font-family="Helvetica,sans-Serif" font-size="10.00">+ execute()</text>
<text text-anchor="start" x="935.5" y="-145.5" font-family="Helvetica,sans-Serif" font-size="10.00"># queryString()</text>
<text text-anchor="start" x="935.5" y="-134.5" font-family="Helvetica,sans-Serif" font-size="10.00"># setParameters()</text>
<text text-anchor="start" x="935.5" y="-123.5" font-family="Helvetica,sans-Serif" font-size="10.00">&#45; initQuery()</text>
</g>
<!-- Node4 -->
<g id="node4" class="node"><title>Node4</title>
<g id="a_node4"><a xlink:href="classcom_1_1tomoparts_1_1tomoBay_1_1model_1_1sql_1_1queries_1_1concreteQueries_1_1delete_1_1DeleteOrderFromOrderStatus.html" target="_top" xlink:title="deletes a particular order from the order_status table in the database. ">
<polygon fill="white" stroke="black" points="0,-0.5 0,-79.5 177,-79.5 177,-0.5 0,-0.5"/>
<text text-anchor="middle" x="88.5" y="-67.5" font-family="Helvetica,sans-Serif" font-size="10.00">DeleteOrderFromOrderStatus</text>
<polyline fill="none" stroke="black" points="0,-60.5 177,-60.5 "/>
<text text-anchor="start" x="8" y="-48.5" font-family="Helvetica,sans-Serif" font-size="10.00">&#45; query_M</text>
<polyline fill="none" stroke="black" points="0,-41.5 177,-41.5 "/>
<text text-anchor="start" x="8" y="-29.5" font-family="Helvetica,sans-Serif" font-size="10.00">+ DeleteOrderFromOrderStatus()</text>
<text text-anchor="start" x="8" y="-18.5" font-family="Helvetica,sans-Serif" font-size="10.00"># queryString()</text>
<text text-anchor="start" x="8" y="-7.5" font-family="Helvetica,sans-Serif" font-size="10.00"># setParameters()</text>
</a>
</g>
</g>
<!-- Node1&#45;&gt;Node4 -->
<g id="edge3" class="edge"><title>Node1&#45;&gt;Node4</title>
<path fill="none" stroke="midnightblue" d="M917.184,-164.651C761.234,-160.548 444.764,-144.24 185.5,-80 182.769,-79.3234 180.014,-78.5857 177.246,-77.7969"/>
<polygon fill="none" stroke="midnightblue" points="917.136,-168.15 927.221,-164.904 917.313,-161.153 917.136,-168.15"/>
</g>
<!-- Node5 -->
<g id="node5" class="node"><title>Node5</title>
<g id="a_node5"><a xlink:href="classcom_1_1tomoparts_1_1tomoBay_1_1model_1_1sql_1_1queries_1_1concreteQueries_1_1insert_1_1InsertEbayBuyers.html" target="_top" xlink:title="This class represents a query that inserts buyer details into the database. ">
<polygon fill="white" stroke="black" points="195,-0.5 195,-79.5 314,-79.5 314,-0.5 195,-0.5"/>
<text text-anchor="middle" x="254.5" y="-67.5" font-family="Helvetica,sans-Serif" font-size="10.00">InsertEbayBuyers</text>
<polyline fill="none" stroke="black" points="195,-60.5 314,-60.5 "/>
<text text-anchor="start" x="203" y="-48.5" font-family="Helvetica,sans-Serif" font-size="10.00">&#45; query</text>
<polyline fill="none" stroke="black" points="195,-41.5 314,-41.5 "/>
<text text-anchor="start" x="203" y="-29.5" font-family="Helvetica,sans-Serif" font-size="10.00">+ InsertEbayBuyers()</text>
<text text-anchor="start" x="203" y="-18.5" font-family="Helvetica,sans-Serif" font-size="10.00"># queryString()</text>
<text text-anchor="start" x="203" y="-7.5" font-family="Helvetica,sans-Serif" font-size="10.00"># setParameters()</text>
</a>
</g>
</g>
<!-- Node1&#45;&gt;Node5 -->
<g id="edge4" class="edge"><title>Node1&#45;&gt;Node5</title>
<path fill="none" stroke="midnightblue" d="M916.962,-165.895C780.914,-163.107 526.594,-148.15 322.5,-80 319.789,-79.0948 317.065,-78.0757 314.349,-76.9674"/>
<polygon fill="none" stroke="midnightblue" points="917.287,-169.401 927.351,-166.088 917.418,-162.402 917.287,-169.401"/>
</g>
<!-- Node6 -->
<g id="node6" class="node"><title>Node6</title>
<g id="a_node6"><a xlink:href="classcom_1_1tomoparts_1_1tomoBay_1_1model_1_1sql_1_1queries_1_1concreteQueries_1_1insert_1_1InsertEbayItems.html" target="_top" xlink:title="This class represents a query that inserts item details into the items table of the database...">
<polygon fill="white" stroke="black" points="332,-0.5 332,-79.5 445,-79.5 445,-0.5 332,-0.5"/>
<text text-anchor="middle" x="388.5" y="-67.5" font-family="Helvetica,sans-Serif" font-size="10.00">InsertEbayItems</text>
<polyline fill="none" stroke="black" points="332,-60.5 445,-60.5 "/>
<text text-anchor="start" x="340" y="-48.5" font-family="Helvetica,sans-Serif" font-size="10.00">&#45; query</text>
<polyline fill="none" stroke="black" points="332,-41.5 445,-41.5 "/>
<text text-anchor="start" x="340" y="-29.5" font-family="Helvetica,sans-Serif" font-size="10.00">+ InsertEbayItems()</text>
<text text-anchor="start" x="340" y="-18.5" font-family="Helvetica,sans-Serif" font-size="10.00"># queryString()</text>
<text text-anchor="start" x="340" y="-7.5" font-family="Helvetica,sans-Serif" font-size="10.00"># setParameters()</text>
</a>
</g>
</g>
<!-- Node1&#45;&gt;Node6 -->
<g id="edge5" class="edge"><title>Node1&#45;&gt;Node6</title>
<path fill="none" stroke="midnightblue" d="M917.155,-162.258C803.548,-155.352 610.451,-135.724 454.5,-80 451.367,-78.8804 448.216,-77.6076 445.081,-76.2221"/>
<polygon fill="none" stroke="midnightblue" points="917.032,-165.757 927.221,-162.849 917.443,-158.769 917.032,-165.757"/>
</g>
<!-- Node7 -->
<g id="node7" class="node"><title>Node7</title>
<g id="a_node7"><a xlink:href="classcom_1_1tomoparts_1_1tomoBay_1_1model_1_1sql_1_1queries_1_1concreteQueries_1_1insert_1_1InsertEbayOrders.html" target="_top" xlink:title="This class represents a class that inserts order data into the orders table of the database...">
<polygon fill="white" stroke="black" points="463.5,-0.5 463.5,-79.5 581.5,-79.5 581.5,-0.5 463.5,-0.5"/>
<text text-anchor="middle" x="522.5" y="-67.5" font-family="Helvetica,sans-Serif" font-size="10.00">InsertEbayOrders</text>
<polyline fill="none" stroke="black" points="463.5,-60.5 581.5,-60.5 "/>
<text text-anchor="start" x="471.5" y="-48.5" font-family="Helvetica,sans-Serif" font-size="10.00">&#45; query</text>
<polyline fill="none" stroke="black" points="463.5,-41.5 581.5,-41.5 "/>
<text text-anchor="start" x="471.5" y="-29.5" font-family="Helvetica,sans-Serif" font-size="10.00">+ InsertEbayOrders()</text>
<text text-anchor="start" x="471.5" y="-18.5" font-family="Helvetica,sans-Serif" font-size="10.00"># queryString()</text>
<text text-anchor="start" x="471.5" y="-7.5" font-family="Helvetica,sans-Serif" font-size="10.00"># setParameters()</text>
</a>
</g>
</g>
<!-- Node1&#45;&gt;Node7 -->
<g id="edge6" class="edge"><title>Node1&#45;&gt;Node7</title>
<path fill="none" stroke="midnightblue" d="M917.232,-155.351C829.873,-143.618 698.586,-120.764 590.5,-80 587.571,-78.8954 584.62,-77.6745 581.673,-76.3671"/>
<polygon fill="none" stroke="midnightblue" points="917.026,-158.854 927.398,-156.692 917.942,-151.914 917.026,-158.854"/>
</g>
<!-- Node8 -->
<g id="node8" class="node"><title>Node8</title>
<g id="a_node8"><a xlink:href="classcom_1_1tomoparts_1_1tomoBay_1_1model_1_1sql_1_1queries_1_1concreteQueries_1_1insert_1_1InsertEbayTransactions.html" target="_top" xlink:title="This class represents a query that inserts transaction data into the transactions table of the databa...">
<polygon fill="white" stroke="black" points="599.5,-0.5 599.5,-79.5 745.5,-79.5 745.5,-0.5 599.5,-0.5"/>
<text text-anchor="middle" x="672.5" y="-67.5" font-family="Helvetica,sans-Serif" font-size="10.00">InsertEbayTransactions</text>
<polyline fill="none" stroke="black" points="599.5,-60.5 745.5,-60.5 "/>
<text text-anchor="start" x="607.5" y="-48.5" font-family="Helvetica,sans-Serif" font-size="10.00">&#45; query</text>
<polyline fill="none" stroke="black" points="599.5,-41.5 745.5,-41.5 "/>
<text text-anchor="start" x="607.5" y="-29.5" font-family="Helvetica,sans-Serif" font-size="10.00">+ InsertEbayTransactions()</text>
<text text-anchor="start" x="607.5" y="-18.5" font-family="Helvetica,sans-Serif" font-size="10.00"># queryString()</text>
<text text-anchor="start" x="607.5" y="-7.5" font-family="Helvetica,sans-Serif" font-size="10.00"># setParameters()</text>
</a>
</g>
</g>
<!-- Node1&#45;&gt;Node8 -->
<g id="edge7" class="edge"><title>Node1&#45;&gt;Node8</title>
<path fill="none" stroke="midnightblue" d="M917.687,-137.293C868.399,-121.746 807.664,-101.374 754.5,-80 751.575,-78.8239 748.606,-77.5935 745.619,-76.3246"/>
<polygon fill="none" stroke="midnightblue" points="916.797,-140.682 927.386,-140.337 918.893,-134.003 916.797,-140.682"/>
</g>
<!-- Node9 -->
<g id="node9" class="node"><title>Node9</title>
<g id="a_node9"><a xlink:href="classcom_1_1tomoparts_1_1tomoBay_1_1model_1_1sql_1_1queries_1_1concreteQueries_1_1insert_1_1InsertOrderInOrderStatus.html" target="_top" xlink:title="This Class represents a Query that inserts an order into the order_status table in the database...">
<polygon fill="white" stroke="black" points="763.5,-0.5 763.5,-79.5 919.5,-79.5 919.5,-0.5 763.5,-0.5"/>
<text text-anchor="middle" x="841.5" y="-67.5" font-family="Helvetica,sans-Serif" font-size="10.00">InsertOrderInOrderStatus</text>
<polyline fill="none" stroke="black" points="763.5,-60.5 919.5,-60.5 "/>
<text text-anchor="start" x="771.5" y="-48.5" font-family="Helvetica,sans-Serif" font-size="10.00">&#45; query_M</text>
<polyline fill="none" stroke="black" points="763.5,-41.5 919.5,-41.5 "/>
<text text-anchor="start" x="771.5" y="-29.5" font-family="Helvetica,sans-Serif" font-size="10.00">+ InsertOrderInOrderStatus()</text>
<text text-anchor="start" x="771.5" y="-18.5" font-family="Helvetica,sans-Serif" font-size="10.00"># queryString()</text>
<text text-anchor="start" x="771.5" y="-7.5" font-family="Helvetica,sans-Serif" font-size="10.00"># setParameters()</text>
</a>
</g>
</g>
<!-- Node1&#45;&gt;Node9 -->
<g id="edge8" class="edge"><title>Node1&#45;&gt;Node9</title>
<path fill="none" stroke="midnightblue" d="M936.71,-110.193C922.498,-99.8651 907.947,-89.29 894.633,-79.6141"/>
<polygon fill="none" stroke="midnightblue" points="934.88,-113.19 945.027,-116.238 938.995,-107.527 934.88,-113.19"/>
</g>
<!-- Node10 -->
<g id="node10" class="node"><title>Node10</title>
<g id="a_node10"><a xlink:href="classcom_1_1tomoparts_1_1tomoBay_1_1model_1_1sql_1_1queries_1_1concreteQueries_1_1insert_1_1InsertOutOfHoursOrders.html" target="_top" xlink:title="This class represents a query that inserts a new entry into the outOfHours table in the database...">
<polygon fill="white" stroke="black" points="938,-0.5 938,-79.5 1089,-79.5 1089,-0.5 938,-0.5"/>
<text text-anchor="middle" x="1013.5" y="-67.5" font-family="Helvetica,sans-Serif" font-size="10.00">InsertOutOfHoursOrders</text>
<polyline fill="none" stroke="black" points="938,-60.5 1089,-60.5 "/>
<text text-anchor="start" x="946" y="-48.5" font-family="Helvetica,sans-Serif" font-size="10.00">&#45; query</text>
<polyline fill="none" stroke="black" points="938,-41.5 1089,-41.5 "/>
<text text-anchor="start" x="946" y="-29.5" font-family="Helvetica,sans-Serif" font-size="10.00">+ InsertOutOfHoursOrders()</text>
<text text-anchor="start" x="946" y="-18.5" font-family="Helvetica,sans-Serif" font-size="10.00"># queryString()</text>
<text text-anchor="start" x="946" y="-7.5" font-family="Helvetica,sans-Serif" font-size="10.00"># setParameters()</text>
</a>
</g>
</g>
<!-- Node1&#45;&gt;Node10 -->
<g id="edge9" class="edge"><title>Node1&#45;&gt;Node10</title>
<path fill="none" stroke="midnightblue" d="M1013.5,-106.186C1013.5,-97.2207 1013.5,-88.1815 1013.5,-79.8082"/>
<polygon fill="none" stroke="midnightblue" points="1010,-106.237 1013.5,-116.238 1017,-106.238 1010,-106.237"/>
</g>
<!-- Node11 -->
<g id="node11" class="node"><title>Node11</title>
<g id="a_node11"><a xlink:href="classcom_1_1tomoparts_1_1tomoBay_1_1model_1_1sql_1_1queries_1_1concreteQueries_1_1update_1_1UpdateEbayBuyer.html" target="_top" xlink:title="This class represents an sql query that updates a record the buyer table in the database with new inf...">
<polygon fill="white" stroke="black" points="1107.5,-0.5 1107.5,-79.5 1229.5,-79.5 1229.5,-0.5 1107.5,-0.5"/>
<text text-anchor="middle" x="1168.5" y="-67.5" font-family="Helvetica,sans-Serif" font-size="10.00">UpdateEbayBuyer</text>
<polyline fill="none" stroke="black" points="1107.5,-60.5 1229.5,-60.5 "/>
<text text-anchor="start" x="1115.5" y="-48.5" font-family="Helvetica,sans-Serif" font-size="10.00">&#45; query</text>
<polyline fill="none" stroke="black" points="1107.5,-41.5 1229.5,-41.5 "/>
<text text-anchor="start" x="1115.5" y="-29.5" font-family="Helvetica,sans-Serif" font-size="10.00">+ UpdateEbayBuyer()</text>
<text text-anchor="start" x="1115.5" y="-18.5" font-family="Helvetica,sans-Serif" font-size="10.00"># queryString()</text>
<text text-anchor="start" x="1115.5" y="-7.5" font-family="Helvetica,sans-Serif" font-size="10.00"># setParameters()</text>
</a>
</g>
</g>
<!-- Node1&#45;&gt;Node11 -->
<g id="edge10" class="edge"><title>Node1&#45;&gt;Node11</title>
<path fill="none" stroke="midnightblue" d="M1083.02,-109.939C1095.64,-99.7608 1108.54,-89.352 1120.38,-79.8082"/>
<polygon fill="none" stroke="midnightblue" points="1080.79,-107.236 1075.21,-116.238 1085.19,-112.684 1080.79,-107.236"/>
</g>
<!-- Node12 -->
<g id="node12" class="node"><title>Node12</title>
<g id="a_node12"><a xlink:href="classcom_1_1tomoparts_1_1tomoBay_1_1model_1_1sql_1_1queries_1_1concreteQueries_1_1update_1_1UpdateInvoiceStatus.html" target="_top" xlink:title="This class represents a query that updates the &#39;invoiced&#39; field of particular order on the orders tab...">
<polygon fill="white" stroke="black" points="1248,-0.5 1248,-79.5 1383,-79.5 1383,-0.5 1248,-0.5"/>
<text text-anchor="middle" x="1315.5" y="-67.5" font-family="Helvetica,sans-Serif" font-size="10.00">UpdateInvoiceStatus</text>
<polyline fill="none" stroke="black" points="1248,-60.5 1383,-60.5 "/>
<text text-anchor="start" x="1256" y="-48.5" font-family="Helvetica,sans-Serif" font-size="10.00">&#45; query</text>
<polyline fill="none" stroke="black" points="1248,-41.5 1383,-41.5 "/>
<text text-anchor="start" x="1256" y="-29.5" font-family="Helvetica,sans-Serif" font-size="10.00">+ UpdateInvoiceStatus()</text>
<text text-anchor="start" x="1256" y="-18.5" font-family="Helvetica,sans-Serif" font-size="10.00"># queryString()</text>
<text text-anchor="start" x="1256" y="-7.5" font-family="Helvetica,sans-Serif" font-size="10.00"># setParameters()</text>
</a>
</g>
</g>
<!-- Node1&#45;&gt;Node12 -->
<g id="edge11" class="edge"><title>Node1&#45;&gt;Node12</title>
<path fill="none" stroke="midnightblue" d="M1109.11,-131.951C1149.44,-116.95 1196.64,-98.5402 1238.5,-80 1241.51,-78.6649 1244.58,-77.2712 1247.66,-75.839"/>
<polygon fill="none" stroke="midnightblue" points="1107.72,-128.736 1099.56,-135.492 1110.15,-135.301 1107.72,-128.736"/>
</g>
<!-- Node13 -->
<g id="node13" class="node"><title>Node13</title>
<g id="a_node13"><a xlink:href="classcom_1_1tomoparts_1_1tomoBay_1_1model_1_1sql_1_1queries_1_1concreteQueries_1_1update_1_1UpdateInvoiceStatusSRN.html" target="_top" xlink:title="This class represents a query that updates the invoice status of a particular order. ">
<polygon fill="white" stroke="black" points="1401,-0.5 1401,-79.5 1556,-79.5 1556,-0.5 1401,-0.5"/>
<text text-anchor="middle" x="1478.5" y="-67.5" font-family="Helvetica,sans-Serif" font-size="10.00">UpdateInvoiceStatusSRN</text>
<polyline fill="none" stroke="black" points="1401,-60.5 1556,-60.5 "/>
<text text-anchor="start" x="1409" y="-48.5" font-family="Helvetica,sans-Serif" font-size="10.00">&#45; query</text>
<polyline fill="none" stroke="black" points="1401,-41.5 1556,-41.5 "/>
<text text-anchor="start" x="1409" y="-29.5" font-family="Helvetica,sans-Serif" font-size="10.00">+ UpdateInvoiceStatusSRN()</text>
<text text-anchor="start" x="1409" y="-18.5" font-family="Helvetica,sans-Serif" font-size="10.00"># queryString()</text>
<text text-anchor="start" x="1409" y="-7.5" font-family="Helvetica,sans-Serif" font-size="10.00"># setParameters()</text>
</a>
</g>
</g>
<!-- Node1&#45;&gt;Node13 -->
<g id="edge12" class="edge"><title>Node1&#45;&gt;Node13</title>
<path fill="none" stroke="midnightblue" d="M1109.76,-149.742C1187.26,-135.327 1298.4,-111.648 1392.5,-80 1395.3,-79.0593 1398.13,-78.0581 1400.97,-77.0095"/>
<polygon fill="none" stroke="midnightblue" points="1108.73,-146.373 1099.53,-151.627 1110,-153.257 1108.73,-146.373"/>
</g>
<!-- Node14 -->
<g id="node14" class="node"><title>Node14</title>
<g id="a_node14"><a xlink:href="classcom_1_1tomoparts_1_1tomoBay_1_1model_1_1sql_1_1queries_1_1concreteQueries_1_1update_1_1UpdateItemBrandAndPartNo.html" target="_top" xlink:title="This class represents a query that updates the brand and partNo of a particular item in the items tab...">
<polygon fill="white" stroke="black" points="1574,-0.5 1574,-79.5 1747,-79.5 1747,-0.5 1574,-0.5"/>
<text text-anchor="middle" x="1660.5" y="-67.5" font-family="Helvetica,sans-Serif" font-size="10.00">UpdateItemBrandAndPartNo</text>
<polyline fill="none" stroke="black" points="1574,-60.5 1747,-60.5 "/>
<text text-anchor="start" x="1582" y="-48.5" font-family="Helvetica,sans-Serif" font-size="10.00">&#45; query</text>
<polyline fill="none" stroke="black" points="1574,-41.5 1747,-41.5 "/>
<text text-anchor="start" x="1582" y="-29.5" font-family="Helvetica,sans-Serif" font-size="10.00">+ UpdateItemBrandAndPartNo()</text>
<text text-anchor="start" x="1582" y="-18.5" font-family="Helvetica,sans-Serif" font-size="10.00"># queryString()</text>
<text text-anchor="start" x="1582" y="-7.5" font-family="Helvetica,sans-Serif" font-size="10.00"># setParameters()</text>
</a>
</g>
</g>
<!-- Node1&#45;&gt;Node14 -->
<g id="edge13" class="edge"><title>Node1&#45;&gt;Node14</title>
<path fill="none" stroke="midnightblue" d="M1110.14,-157.88C1221.49,-146.937 1409.23,-123.596 1565.5,-80 1568.25,-79.2335 1571.02,-78.4104 1573.81,-77.5409"/>
<polygon fill="none" stroke="midnightblue" points="1109.55,-154.42 1099.93,-158.869 1110.23,-161.388 1109.55,-154.42"/>
</g>
<!-- Node15 -->
<g id="node15" class="node"><title>Node15</title>
<g id="a_node15"><a xlink:href="classcom_1_1tomoparts_1_1tomoBay_1_1model_1_1sql_1_1queries_1_1concreteQueries_1_1update_1_1UpdateItemError.html" target="_top" xlink:title="This class represents a query that updates the brand and partNo of a particular item in the items tab...">
<polygon fill="white" stroke="black" points="1765.5,-0.5 1765.5,-79.5 1881.5,-79.5 1881.5,-0.5 1765.5,-0.5"/>
<text text-anchor="middle" x="1823.5" y="-67.5" font-family="Helvetica,sans-Serif" font-size="10.00">UpdateItemError</text>
<polyline fill="none" stroke="black" points="1765.5,-60.5 1881.5,-60.5 "/>
<text text-anchor="start" x="1773.5" y="-48.5" font-family="Helvetica,sans-Serif" font-size="10.00">&#45; query</text>
<polyline fill="none" stroke="black" points="1765.5,-41.5 1881.5,-41.5 "/>
<text text-anchor="start" x="1773.5" y="-29.5" font-family="Helvetica,sans-Serif" font-size="10.00">+ UpdateItemError()</text>
<text text-anchor="start" x="1773.5" y="-18.5" font-family="Helvetica,sans-Serif" font-size="10.00"># queryString()</text>
<text text-anchor="start" x="1773.5" y="-7.5" font-family="Helvetica,sans-Serif" font-size="10.00"># setParameters()</text>
</a>
</g>
</g>
<!-- Node1&#45;&gt;Node15 -->
<g id="edge14" class="edge"><title>Node1&#45;&gt;Node15</title>
<path fill="none" stroke="midnightblue" d="M1109.93,-159.767C1282.89,-147.774 1638.79,-119.164 1756.5,-80 1759.44,-79.0227 1762.39,-77.9063 1765.32,-76.6835"/>
<polygon fill="none" stroke="midnightblue" points="1109.55,-156.285 1099.82,-160.464 1110.03,-163.269 1109.55,-156.285"/>
</g>
<!-- Node16 -->
<g id="node16" class="node"><title>Node16</title>
<g id="a_node16"><a xlink:href="classcom_1_1tomoparts_1_1tomoBay_1_1model_1_1sql_1_1queries_1_1concreteQueries_1_1update_1_1UpdateItemNote.html" target="_top" xlink:title="This class represents a query that updates the notes field of the ebay_items table in the database...">
<polygon fill="white" stroke="black" points="1899.5,-0.5 1899.5,-79.5 2015.5,-79.5 2015.5,-0.5 1899.5,-0.5"/>
<text text-anchor="middle" x="1957.5" y="-67.5" font-family="Helvetica,sans-Serif" font-size="10.00">UpdateItemNote</text>
<polyline fill="none" stroke="black" points="1899.5,-60.5 2015.5,-60.5 "/>
<text text-anchor="start" x="1907.5" y="-48.5" font-family="Helvetica,sans-Serif" font-size="10.00">&#45; query</text>
<polyline fill="none" stroke="black" points="1899.5,-41.5 2015.5,-41.5 "/>
<text text-anchor="start" x="1907.5" y="-29.5" font-family="Helvetica,sans-Serif" font-size="10.00">+ UpdateItemNote()</text>
<text text-anchor="start" x="1907.5" y="-18.5" font-family="Helvetica,sans-Serif" font-size="10.00"># queryString()</text>
<text text-anchor="start" x="1907.5" y="-7.5" font-family="Helvetica,sans-Serif" font-size="10.00"># setParameters()</text>
</a>
</g>
</g>
<!-- Node1&#45;&gt;Node16 -->
<g id="edge15" class="edge"><title>Node1&#45;&gt;Node16</title>
<path fill="none" stroke="midnightblue" d="M1109.81,-161.74C1306.39,-152.201 1747.32,-126.252 1890.5,-80 1893.45,-79.0485 1896.4,-77.9531 1899.35,-76.7474"/>
<polygon fill="none" stroke="midnightblue" points="1109.6,-158.246 1099.78,-162.223 1109.94,-165.238 1109.6,-158.246"/>
</g>
<!-- Node2 -->
<g id="node2" class="node"><title>Node2</title>
<g id="a_node2"><a xlink:href="classcom_1_1tomoparts_1_1tomoBay_1_1model_1_1sql_1_1framework_1_1queryTypes_1_1modify_1_1AbstractModifyQuery.html" target="_top" xlink:title="Copyright(C) 2015 Jan P.C. ">
<polygon fill="white" stroke="black" points="946,-254.5 946,-311.5 1081,-311.5 1081,-254.5 946,-254.5"/>
<text text-anchor="middle" x="1013.5" y="-299.5" font-family="Helvetica,sans-Serif" font-size="10.00">AbstractModifyQuery</text>
<polyline fill="none" stroke="black" points="946,-292.5 1081,-292.5 "/>
<text text-anchor="middle" x="1013.5" y="-280.5" font-family="Helvetica,sans-Serif" font-size="10.00"> </text>
<polyline fill="none" stroke="black" points="946,-273.5 1081,-273.5 "/>
<text text-anchor="start" x="954" y="-261.5" font-family="Helvetica,sans-Serif" font-size="10.00">+ AbstractModifyQuery()</text>
</a>
</g>
</g>
<!-- Node2&#45;&gt;Node1 -->
<g id="edge1" class="edge"><title>Node2&#45;&gt;Node1</title>
<path fill="none" stroke="midnightblue" d="M1013.5,-244.354C1013.5,-235.796 1013.5,-226.578 1013.5,-217.608"/>
<polygon fill="none" stroke="midnightblue" points="1010,-244.404 1013.5,-254.404 1017,-244.404 1010,-244.404"/>
</g>
<!-- Node3 -->
<g id="node3" class="node"><title>Node3</title>
<g id="a_node3"><a xlink:href="classcom_1_1tomoparts_1_1tomoBay_1_1model_1_1sql_1_1framework_1_1queryTypes_1_1AbstractDBQuery.html" target="_top" xlink:title="Interface that all database queries must adhere to. ">
<polygon fill="white" stroke="black" points="963.5,-348.5 963.5,-438.5 1063.5,-438.5 1063.5,-348.5 963.5,-348.5"/>
<text text-anchor="middle" x="1013.5" y="-426.5" font-family="Helvetica,sans-Serif" font-size="10.00">AbstractDBQuery</text>
<polyline fill="none" stroke="black" points="963.5,-419.5 1063.5,-419.5 "/>
<text text-anchor="start" x="971.5" y="-407.5" font-family="Helvetica,sans-Serif" font-size="10.00"># statement_M</text>
<text text-anchor="start" x="971.5" y="-396.5" font-family="Helvetica,sans-Serif" font-size="10.00"># connection_M</text>
<polyline fill="none" stroke="black" points="963.5,-389.5 1063.5,-389.5 "/>
<text text-anchor="start" x="971.5" y="-377.5" font-family="Helvetica,sans-Serif" font-size="10.00">+ statement()</text>
<text text-anchor="start" x="971.5" y="-366.5" font-family="Helvetica,sans-Serif" font-size="10.00"># queryString()</text>
<text text-anchor="start" x="971.5" y="-355.5" font-family="Helvetica,sans-Serif" font-size="10.00"># cleanup()</text>
</a>
</g>
</g>
<!-- Node3&#45;&gt;Node2 -->
<g id="edge2" class="edge"><title>Node3&#45;&gt;Node2</title>
<path fill="none" stroke="midnightblue" d="M1013.5,-338.353C1013.5,-329.074 1013.5,-319.791 1013.5,-311.59"/>
<polygon fill="none" stroke="midnightblue" points="1010,-338.369 1013.5,-348.369 1017,-338.369 1010,-338.369"/>
</g>
</g>
</svg>
