<?xml version="1.0" encoding="UTF-8" standalone="no"?>
<!DOCTYPE svg PUBLIC "-//W3C//DTD SVG 1.1//EN"
 "http://www.w3.org/Graphics/SVG/1.1/DTD/svg11.dtd">
<!-- Generated by graphviz version 2.38.0 (20140413.2041)
 -->
<!-- Title: createCSV Pages: 1 -->
<svg width="528pt" height="39pt"
 viewBox="0.00 0.00 528.00 39.00" xmlns="http://www.w3.org/2000/svg" xmlns:xlink="http://www.w3.org/1999/xlink">
<g id="graph0" class="graph" transform="scale(1 1) rotate(0) translate(4 35)">
<title>createCSV</title>
<polygon fill="white" stroke="none" points="-4,4 -4,-35 524,-35 524,4 -4,4"/>
<!-- Node1 -->
<g id="node1" class="node"><title>Node1</title>
<polygon fill="#bfbfbf" stroke="black" points="5.68434e-14,-6 5.68434e-14,-25 68,-25 68,-6 5.68434e-14,-6"/>
<text text-anchor="middle" x="34" y="-13" font-family="Helvetica,sans-Serif" font-size="10.00">createCSV</text>
</g>
<!-- Node2 -->
<g id="node2" class="node"><title>Node2</title>
<g id="a_node2"><a xlink:href="classcom_1_1tomoparts_1_1tomoBay_1_1presenters_1_1presenterActions_1_1concreteActions_1_1GenerateRoyalMailCSV.html#adb3dedf31dc2c7fc796f20406c235ccd" target="_top" xlink:title="performs the action specified ">
<polygon fill="white" stroke="black" points="104,-6 104,-25 159,-25 159,-6 104,-6"/>
<text text-anchor="middle" x="131.5" y="-13" font-family="Helvetica,sans-Serif" font-size="10.00">execute</text>
</a>
</g>
</g>
<!-- Node1&#45;&gt;Node2 -->
<g id="edge1" class="edge"><title>Node1&#45;&gt;Node2</title>
<path fill="none" stroke="midnightblue" d="M78.1855,-15.5C86.8882,-15.5 95.7949,-15.5 103.735,-15.5"/>
<polygon fill="midnightblue" stroke="midnightblue" points="78.1333,-12.0001 68.1332,-15.5 78.1332,-19.0001 78.1333,-12.0001"/>
</g>
<!-- Node3 -->
<g id="node3" class="node"><title>Node3</title>
<g id="a_node3"><a xlink:href="classcom_1_1tomoparts_1_1tomoBay_1_1test_1_1unit_1_1presenters_1_1presenterActions_1_1concreteAcc52dba77005ac44eb6c856e3f1436b78.html#a1b260e6772d2ced79e03e1c8c5acd12b" target="_top" xlink:title="com.tomoparts.tomoBay.test.unit.presenters.presenter\lActions.concreteActions.GenerateRoyalMailCSVTest.testExecute">
<polygon fill="white" stroke="black" points="195,-0.5 195,-30.5 520,-30.5 520,-0.5 195,-0.5"/>
<text text-anchor="start" x="203" y="-18.5" font-family="Helvetica,sans-Serif" font-size="10.00">com.tomoparts.tomoBay.test.unit.presenters.presenter</text>
<text text-anchor="middle" x="357.5" y="-7.5" font-family="Helvetica,sans-Serif" font-size="10.00">Actions.concreteActions.GenerateRoyalMailCSVTest.testExecute</text>
</a>
</g>
</g>
<!-- Node2&#45;&gt;Node3 -->
<g id="edge2" class="edge"><title>Node2&#45;&gt;Node3</title>
<path fill="none" stroke="midnightblue" d="M169.303,-15.5C176.973,-15.5 185.517,-15.5 194.613,-15.5"/>
<polygon fill="midnightblue" stroke="midnightblue" points="169.075,-12.0001 159.075,-15.5 169.075,-19.0001 169.075,-12.0001"/>
</g>
</g>
</svg>
