<?xml version="1.0" encoding="UTF-8" standalone="no"?>
<!DOCTYPE svg PUBLIC "-//W3C//DTD SVG 1.1//EN"
 "http://www.w3.org/Graphics/SVG/1.1/DTD/svg11.dtd">
<!-- Generated by graphviz version 2.38.0 (20140413.2041)
 -->
<!-- Title: AbstractRoyalMailAPICallPrototype Pages: 1 -->
<svg width="321pt" height="426pt"
 viewBox="0.00 0.00 320.50 426.00" xmlns="http://www.w3.org/2000/svg" xmlns:xlink="http://www.w3.org/1999/xlink">
<g id="graph0" class="graph" transform="scale(1 1) rotate(0) translate(4 422)">
<title>AbstractRoyalMailAPICallPrototype</title>
<polygon fill="white" stroke="none" points="-4,4 -4,-422 316.5,-422 316.5,4 -4,4"/>
<!-- Node1 -->
<g id="node1" class="node"><title>Node1</title>
<polygon fill="#bfbfbf" stroke="black" points="76,-0.5 76,-79.5 221,-79.5 221,-0.5 76,-0.5"/>
<text text-anchor="start" x="84" y="-67.5" font-family="Helvetica,sans-Serif" font-size="10.00">AbstractRoyalMailAPICall</text>
<text text-anchor="middle" x="148.5" y="-56.5" font-family="Helvetica,sans-Serif" font-size="10.00">Prototype</text>
<polyline fill="none" stroke="black" points="76,-49.5 221,-49.5 "/>
<text text-anchor="middle" x="148.5" y="-37.5" font-family="Helvetica,sans-Serif" font-size="10.00"> </text>
<polyline fill="none" stroke="black" points="76,-30.5 221,-30.5 "/>
<text text-anchor="start" x="84" y="-18.5" font-family="Helvetica,sans-Serif" font-size="10.00"># AbstractRoyalMailAPICall</text>
<text text-anchor="start" x="84" y="-7.5" font-family="Helvetica,sans-Serif" font-size="10.00">Prototype()</text>
</g>
<!-- Node2 -->
<g id="node2" class="node"><title>Node2</title>
<g id="a_node2"><a xlink:href="classcom_1_1tomoparts_1_1tomoBay_1_1model_1_1royalMail_1_1calls_1_1SoapMessage.html" target="_top" xlink:title="{SoapMessage\n||+ SoapMessage()\l+ call()\l# httpHeaders()\l# message()\l}">
<polygon fill="white" stroke="black" points="97,-117.5 97,-207.5 200,-207.5 200,-117.5 97,-117.5"/>
<text text-anchor="middle" x="148.5" y="-195.5" font-family="Helvetica,sans-Serif" font-size="10.00">SoapMessage</text>
<polyline fill="none" stroke="black" points="97,-188.5 200,-188.5 "/>
<text text-anchor="middle" x="148.5" y="-176.5" font-family="Helvetica,sans-Serif" font-size="10.00"> </text>
<polyline fill="none" stroke="black" points="97,-169.5 200,-169.5 "/>
<text text-anchor="start" x="105" y="-157.5" font-family="Helvetica,sans-Serif" font-size="10.00">+ SoapMessage()</text>
<text text-anchor="start" x="105" y="-146.5" font-family="Helvetica,sans-Serif" font-size="10.00">+ call()</text>
<text text-anchor="start" x="105" y="-135.5" font-family="Helvetica,sans-Serif" font-size="10.00"># httpHeaders()</text>
<text text-anchor="start" x="105" y="-124.5" font-family="Helvetica,sans-Serif" font-size="10.00"># message()</text>
</a>
</g>
</g>
<!-- Node2&#45;&gt;Node1 -->
<g id="edge1" class="edge"><title>Node2&#45;&gt;Node1</title>
<path fill="none" stroke="midnightblue" d="M148.5,-107.303C148.5,-97.966 148.5,-88.4333 148.5,-79.6138"/>
<polygon fill="none" stroke="midnightblue" points="145,-107.314 148.5,-117.314 152,-107.315 145,-107.314"/>
</g>
<!-- Node3 -->
<g id="node3" class="node"><title>Node3</title>
<polygon fill="white" stroke="#bfbfbf" points="0,-255.5 0,-312.5 87,-312.5 87,-255.5 0,-255.5"/>
<text text-anchor="middle" x="43.5" y="-300.5" font-family="Helvetica,sans-Serif" font-size="10.00">SOAPEnvelope</text>
<polyline fill="none" stroke="#bfbfbf" points="0,-293.5 87,-293.5 "/>
<text text-anchor="middle" x="43.5" y="-281.5" font-family="Helvetica,sans-Serif" font-size="10.00"> </text>
<polyline fill="none" stroke="#bfbfbf" points="0,-274.5 87,-274.5 "/>
<text text-anchor="middle" x="43.5" y="-262.5" font-family="Helvetica,sans-Serif" font-size="10.00"> </text>
</g>
<!-- Node3&#45;&gt;Node2 -->
<g id="edge2" class="edge"><title>Node3&#45;&gt;Node2</title>
<path fill="none" stroke="#404040" d="M59.4901,-255.336C65.5732,-245.68 72.8848,-235.011 80.5,-226 83.2217,-222.779 86.1017,-219.561 89.0789,-216.378"/>
<polygon fill="none" stroke="#404040" points="89.3129,-216.137 90.6254,-209.047 97.6755,-207.531 96.363,-214.622 89.3129,-216.137"/>
<text text-anchor="middle" x="112.5" y="-229" font-family="Helvetica,sans-Serif" font-size="10.00"> &#45;envelope_M</text>
</g>
<!-- Node4 -->
<g id="node4" class="node"><title>Node4</title>
<polygon fill="white" stroke="#bfbfbf" points="105.5,-255.5 105.5,-312.5 191.5,-312.5 191.5,-255.5 105.5,-255.5"/>
<text text-anchor="middle" x="148.5" y="-300.5" font-family="Helvetica,sans-Serif" font-size="10.00">SOAPMessage</text>
<polyline fill="none" stroke="#bfbfbf" points="105.5,-293.5 191.5,-293.5 "/>
<text text-anchor="middle" x="148.5" y="-281.5" font-family="Helvetica,sans-Serif" font-size="10.00"> </text>
<polyline fill="none" stroke="#bfbfbf" points="105.5,-274.5 191.5,-274.5 "/>
<text text-anchor="middle" x="148.5" y="-262.5" font-family="Helvetica,sans-Serif" font-size="10.00"> </text>
</g>
<!-- Node4&#45;&gt;Node2 -->
<g id="edge3" class="edge"><title>Node4&#45;&gt;Node2</title>
<path fill="none" stroke="#404040" d="M148.5,-255.284C148.5,-244.735 148.5,-232.294 148.5,-220.035"/>
<polygon fill="none" stroke="#404040" points="148.5,-219.912 144.5,-213.912 148.5,-207.912 152.5,-213.912 148.5,-219.912"/>
<text text-anchor="middle" x="181" y="-229" font-family="Helvetica,sans-Serif" font-size="10.00"> &#45;message_M</text>
</g>
<!-- Node5 -->
<g id="node5" class="node"><title>Node5</title>
<g id="a_node5"><a xlink:href="classcom_1_1tomoparts_1_1tomoBay_1_1model_1_1royalMail_1_1calls_1_1SoapHeader.html" target="_top" xlink:title="{SoapHeader\n||+ SoapHeader()\l}">
<polygon fill="white" stroke="black" points="210,-255.5 210,-312.5 305,-312.5 305,-255.5 210,-255.5"/>
<text text-anchor="middle" x="257.5" y="-300.5" font-family="Helvetica,sans-Serif" font-size="10.00">SoapHeader</text>
<polyline fill="none" stroke="black" points="210,-293.5 305,-293.5 "/>
<text text-anchor="middle" x="257.5" y="-281.5" font-family="Helvetica,sans-Serif" font-size="10.00"> </text>
<polyline fill="none" stroke="black" points="210,-274.5 305,-274.5 "/>
<text text-anchor="start" x="218" y="-262.5" font-family="Helvetica,sans-Serif" font-size="10.00">+ SoapHeader()</text>
</a>
</g>
</g>
<!-- Node5&#45;&gt;Node2 -->
<g id="edge4" class="edge"><title>Node5&#45;&gt;Node2</title>
<path fill="none" stroke="#404040" d="M239.956,-255.393C233.356,-245.742 225.502,-235.062 217.5,-226 214.601,-222.717 211.544,-219.43 208.393,-216.174"/>
<polygon fill="none" stroke="#404040" points="208.364,-216.146 201.293,-214.731 199.88,-207.66 206.951,-209.075 208.364,-216.146"/>
<text text-anchor="middle" x="253" y="-229" font-family="Helvetica,sans-Serif" font-size="10.00"> &#45;header_M</text>
</g>
<!-- Node6 -->
<g id="node6" class="node"><title>Node6</title>
<polygon fill="white" stroke="#bfbfbf" points="218,-360.5 218,-417.5 297,-417.5 297,-360.5 218,-360.5"/>
<text text-anchor="middle" x="257.5" y="-405.5" font-family="Helvetica,sans-Serif" font-size="10.00">SOAPHeader</text>
<polyline fill="none" stroke="#bfbfbf" points="218,-398.5 297,-398.5 "/>
<text text-anchor="middle" x="257.5" y="-386.5" font-family="Helvetica,sans-Serif" font-size="10.00"> </text>
<polyline fill="none" stroke="#bfbfbf" points="218,-379.5 297,-379.5 "/>
<text text-anchor="middle" x="257.5" y="-367.5" font-family="Helvetica,sans-Serif" font-size="10.00"> </text>
</g>
<!-- Node6&#45;&gt;Node5 -->
<g id="edge5" class="edge"><title>Node6&#45;&gt;Node5</title>
<path fill="none" stroke="#404040" d="M257.5,-360.398C257.5,-349.545 257.5,-336.873 257.5,-325.049"/>
<polygon fill="none" stroke="#404040" points="257.5,-324.678 253.5,-318.678 257.5,-312.678 261.5,-318.678 257.5,-324.678"/>
<text text-anchor="middle" x="285" y="-334" font-family="Helvetica,sans-Serif" font-size="10.00"> &#45;header_M</text>
</g>
</g>
</svg>
