<?xml version="1.0" encoding="UTF-8" standalone="no"?>
<!DOCTYPE svg PUBLIC "-//W3C//DTD SVG 1.1//EN"
 "http://www.w3.org/Graphics/SVG/1.1/DTD/svg11.dtd">
<!-- Generated by graphviz version 2.38.0 (20140413.2041)
 -->
<!-- Title: ServiceException Pages: 1 -->
<svg width="125pt" height="182pt"
 viewBox="0.00 0.00 125.00 182.00" xmlns="http://www.w3.org/2000/svg" xmlns:xlink="http://www.w3.org/1999/xlink">
<g id="graph0" class="graph" transform="scale(1 1) rotate(0) translate(4 178)">
<title>ServiceException</title>
<polygon fill="white" stroke="none" points="-4,4 -4,-178 121,-178 121,4 -4,4"/>
<!-- Node1 -->
<g id="node1" class="node"><title>Node1</title>
<polygon fill="#bfbfbf" stroke="black" points="0,-0.5 0,-79.5 117,-79.5 117,-0.5 0,-0.5"/>
<text text-anchor="middle" x="58.5" y="-67.5" font-family="Helvetica,sans-Serif" font-size="10.00">ServiceException</text>
<polyline fill="none" stroke="black" points="0,-60.5 117,-60.5 "/>
<text text-anchor="start" x="8" y="-48.5" font-family="Helvetica,sans-Serif" font-size="10.00">&#45; serialVersionUID</text>
<polyline fill="none" stroke="black" points="0,-41.5 117,-41.5 "/>
<text text-anchor="start" x="8" y="-29.5" font-family="Helvetica,sans-Serif" font-size="10.00">+ ServiceException()</text>
<text text-anchor="start" x="8" y="-18.5" font-family="Helvetica,sans-Serif" font-size="10.00">+ ServiceException()</text>
<text text-anchor="start" x="8" y="-7.5" font-family="Helvetica,sans-Serif" font-size="10.00">+ ServiceException()</text>
</g>
<!-- Node2 -->
<g id="node2" class="node"><title>Node2</title>
<polygon fill="white" stroke="#bfbfbf" points="7,-116.5 7,-173.5 110,-173.5 110,-116.5 7,-116.5"/>
<text text-anchor="middle" x="58.5" y="-161.5" font-family="Helvetica,sans-Serif" font-size="10.00">RuntimeException</text>
<polyline fill="none" stroke="#bfbfbf" points="7,-154.5 110,-154.5 "/>
<text text-anchor="middle" x="58.5" y="-142.5" font-family="Helvetica,sans-Serif" font-size="10.00"> </text>
<polyline fill="none" stroke="#bfbfbf" points="7,-135.5 110,-135.5 "/>
<text text-anchor="middle" x="58.5" y="-123.5" font-family="Helvetica,sans-Serif" font-size="10.00"> </text>
</g>
<!-- Node2&#45;&gt;Node1 -->
<g id="edge1" class="edge"><title>Node2&#45;&gt;Node1</title>
<path fill="none" stroke="midnightblue" d="M58.5,-106.156C58.5,-97.4733 58.5,-88.2318 58.5,-79.5205"/>
<polygon fill="none" stroke="midnightblue" points="55.0001,-106.398 58.5,-116.398 62.0001,-106.398 55.0001,-106.398"/>
</g>
</g>
</svg>
