<?xml version="1.0" encoding="UTF-8" standalone="no"?>
<!DOCTYPE svg PUBLIC "-//W3C//DTD SVG 1.1//EN"
 "http://www.w3.org/Graphics/SVG/1.1/DTD/svg11.dtd">
<!-- Generated by graphviz version 2.38.0 (20140413.2041)
 -->
<!-- Title: SelectBuyerByAccAndSRNFactory Pages: 1 -->
<svg width="205pt" height="276pt"
 viewBox="0.00 0.00 205.00 276.00" xmlns="http://www.w3.org/2000/svg" xmlns:xlink="http://www.w3.org/1999/xlink">
<g id="graph0" class="graph" transform="scale(1 1) rotate(0) translate(4 272)">
<title>SelectBuyerByAccAndSRNFactory</title>
<polygon fill="white" stroke="none" points="-4,4 -4,-272 201,-272 201,4 -4,4"/>
<!-- Node1 -->
<g id="node1" class="node"><title>Node1</title>
<polygon fill="#bfbfbf" stroke="black" points="0,-0.5 0,-68.5 197,-68.5 197,-0.5 0,-0.5"/>
<text text-anchor="middle" x="98.5" y="-56.5" font-family="Helvetica,sans-Serif" font-size="10.00">SelectBuyerByAccAndSRNFactory</text>
<polyline fill="none" stroke="black" points="0,-49.5 197,-49.5 "/>
<text text-anchor="middle" x="98.5" y="-37.5" font-family="Helvetica,sans-Serif" font-size="10.00"> </text>
<polyline fill="none" stroke="black" points="0,-30.5 197,-30.5 "/>
<text text-anchor="start" x="8" y="-18.5" font-family="Helvetica,sans-Serif" font-size="10.00">+ SelectBuyerByAccAndSRNFactory()</text>
<text text-anchor="start" x="8" y="-7.5" font-family="Helvetica,sans-Serif" font-size="10.00">+ make()</text>
</g>
<!-- Node2 -->
<g id="node2" class="node"><title>Node2</title>
<g id="a_node2"><a xlink:href="interfacecom_1_1tomoparts_1_1tomoBay_1_1model_1_1sql_1_1framework_1_1queryFactories_1_1AbstractSelectParamsQueryFactory.html" target="_top" xlink:title="{AbstractSelectParamsQuery\lFactory\n||+ make()\l}">
<polygon fill="white" stroke="black" points="22.5,-105.5 22.5,-173.5 174.5,-173.5 174.5,-105.5 22.5,-105.5"/>
<text text-anchor="start" x="30.5" y="-161.5" font-family="Helvetica,sans-Serif" font-size="10.00">AbstractSelectParamsQuery</text>
<text text-anchor="middle" x="98.5" y="-150.5" font-family="Helvetica,sans-Serif" font-size="10.00">Factory</text>
<polyline fill="none" stroke="black" points="22.5,-143.5 174.5,-143.5 "/>
<text text-anchor="middle" x="98.5" y="-131.5" font-family="Helvetica,sans-Serif" font-size="10.00"> </text>
<polyline fill="none" stroke="black" points="22.5,-124.5 174.5,-124.5 "/>
<text text-anchor="start" x="30.5" y="-112.5" font-family="Helvetica,sans-Serif" font-size="10.00">+ make()</text>
</a>
</g>
</g>
<!-- Node2&#45;&gt;Node1 -->
<g id="edge1" class="edge"><title>Node2&#45;&gt;Node1</title>
<path fill="none" stroke="midnightblue" d="M98.5,-95.1362C98.5,-86.256 98.5,-77.0447 98.5,-68.5947"/>
<polygon fill="none" stroke="midnightblue" points="95.0001,-95.3432 98.5,-105.343 102,-95.3432 95.0001,-95.3432"/>
</g>
<!-- Node3 -->
<g id="node3" class="node"><title>Node3</title>
<g id="a_node3"><a xlink:href="interfacecom_1_1tomoparts_1_1tomoBay_1_1model_1_1sql_1_1framework_1_1queryFactories_1_1AbstractQueryFactory.html" target="_top" xlink:title="all Queries are instantiated using a factory and each of these factories must conform to this interfa...">
<polygon fill="white" stroke="black" points="38,-210.5 38,-267.5 159,-267.5 159,-210.5 38,-210.5"/>
<text text-anchor="middle" x="98.5" y="-255.5" font-family="Helvetica,sans-Serif" font-size="10.00">AbstractQueryFactory</text>
<polyline fill="none" stroke="black" points="38,-248.5 159,-248.5 "/>
<text text-anchor="middle" x="98.5" y="-236.5" font-family="Helvetica,sans-Serif" font-size="10.00"> </text>
<polyline fill="none" stroke="black" points="38,-229.5 159,-229.5 "/>
<text text-anchor="start" x="46" y="-217.5" font-family="Helvetica,sans-Serif" font-size="10.00">+ make()</text>
</a>
</g>
</g>
<!-- Node3&#45;&gt;Node2 -->
<g id="edge2" class="edge"><title>Node3&#45;&gt;Node2</title>
<path fill="none" stroke="midnightblue" d="M98.5,-200.063C98.5,-191.393 98.5,-182.243 98.5,-173.786"/>
<polygon fill="none" stroke="midnightblue" points="95.0001,-200.321 98.5,-210.321 102,-200.321 95.0001,-200.321"/>
</g>
</g>
</svg>
