<?xml version="1.0" encoding="UTF-8" standalone="no"?>
<!DOCTYPE svg PUBLIC "-//W3C//DTD SVG 1.1//EN"
 "http://www.w3.org/Graphics/SVG/1.1/DTD/svg11.dtd">
<!-- Generated by graphviz version 2.38.0 (20140413.2041)
 -->
<!-- Title: SelectBrandByInvNoFactory Pages: 1 -->
<svg width="176pt" height="276pt"
 viewBox="0.00 0.00 176.00 276.00" xmlns="http://www.w3.org/2000/svg" xmlns:xlink="http://www.w3.org/1999/xlink">
<g id="graph0" class="graph" transform="scale(1 1) rotate(0) translate(4 272)">
<title>SelectBrandByInvNoFactory</title>
<polygon fill="white" stroke="none" points="-4,4 -4,-272 172,-272 172,4 -4,4"/>
<!-- Node1 -->
<g id="node1" class="node"><title>Node1</title>
<polygon fill="#bfbfbf" stroke="black" points="-1.42109e-14,-0.5 -1.42109e-14,-68.5 168,-68.5 168,-0.5 -1.42109e-14,-0.5"/>
<text text-anchor="middle" x="84" y="-56.5" font-family="Helvetica,sans-Serif" font-size="10.00">SelectBrandByInvNoFactory</text>
<polyline fill="none" stroke="black" points="-1.42109e-14,-49.5 168,-49.5 "/>
<text text-anchor="middle" x="84" y="-37.5" font-family="Helvetica,sans-Serif" font-size="10.00"> </text>
<polyline fill="none" stroke="black" points="-1.42109e-14,-30.5 168,-30.5 "/>
<text text-anchor="start" x="8" y="-18.5" font-family="Helvetica,sans-Serif" font-size="10.00">+ SelectBrandByInvNoFactory()</text>
<text text-anchor="start" x="8" y="-7.5" font-family="Helvetica,sans-Serif" font-size="10.00">+ make()</text>
</g>
<!-- Node2 -->
<g id="node2" class="node"><title>Node2</title>
<g id="a_node2"><a xlink:href="interfacecom_1_1tomoparts_1_1tomoBay_1_1model_1_1sql_1_1framework_1_1queryFactories_1_1AbstractSelectParamsQueryFactory.html" target="_top" xlink:title="{AbstractSelectParamsQuery\lFactory\n||+ make()\l}">
<polygon fill="white" stroke="black" points="8,-105.5 8,-173.5 160,-173.5 160,-105.5 8,-105.5"/>
<text text-anchor="start" x="16" y="-161.5" font-family="Helvetica,sans-Serif" font-size="10.00">AbstractSelectParamsQuery</text>
<text text-anchor="middle" x="84" y="-150.5" font-family="Helvetica,sans-Serif" font-size="10.00">Factory</text>
<polyline fill="none" stroke="black" points="8,-143.5 160,-143.5 "/>
<text text-anchor="middle" x="84" y="-131.5" font-family="Helvetica,sans-Serif" font-size="10.00"> </text>
<polyline fill="none" stroke="black" points="8,-124.5 160,-124.5 "/>
<text text-anchor="start" x="16" y="-112.5" font-family="Helvetica,sans-Serif" font-size="10.00">+ make()</text>
</a>
</g>
</g>
<!-- Node2&#45;&gt;Node1 -->
<g id="edge1" class="edge"><title>Node2&#45;&gt;Node1</title>
<path fill="none" stroke="midnightblue" d="M84,-95.1362C84,-86.256 84,-77.0447 84,-68.5947"/>
<polygon fill="none" stroke="midnightblue" points="80.5001,-95.3432 84,-105.343 87.5001,-95.3432 80.5001,-95.3432"/>
</g>
<!-- Node3 -->
<g id="node3" class="node"><title>Node3</title>
<g id="a_node3"><a xlink:href="interfacecom_1_1tomoparts_1_1tomoBay_1_1model_1_1sql_1_1framework_1_1queryFactories_1_1AbstractQueryFactory.html" target="_top" xlink:title="all Queries are instantiated using a factory and each of these factories must conform to this interfa...">
<polygon fill="white" stroke="black" points="23.5,-210.5 23.5,-267.5 144.5,-267.5 144.5,-210.5 23.5,-210.5"/>
<text text-anchor="middle" x="84" y="-255.5" font-family="Helvetica,sans-Serif" font-size="10.00">AbstractQueryFactory</text>
<polyline fill="none" stroke="black" points="23.5,-248.5 144.5,-248.5 "/>
<text text-anchor="middle" x="84" y="-236.5" font-family="Helvetica,sans-Serif" font-size="10.00"> </text>
<polyline fill="none" stroke="black" points="23.5,-229.5 144.5,-229.5 "/>
<text text-anchor="start" x="31.5" y="-217.5" font-family="Helvetica,sans-Serif" font-size="10.00">+ make()</text>
</a>
</g>
</g>
<!-- Node3&#45;&gt;Node2 -->
<g id="edge2" class="edge"><title>Node3&#45;&gt;Node2</title>
<path fill="none" stroke="midnightblue" d="M84,-200.063C84,-191.393 84,-182.243 84,-173.786"/>
<polygon fill="none" stroke="midnightblue" points="80.5001,-200.321 84,-210.321 87.5001,-200.321 80.5001,-200.321"/>
</g>
</g>
</svg>
