<?xml version="1.0" encoding="UTF-8" standalone="no"?>
<!DOCTYPE svg PUBLIC "-//W3C//DTD SVG 1.1//EN"
 "http://www.w3.org/Graphics/SVG/1.1/DTD/svg11.dtd">
<!-- Generated by graphviz version 2.38.0 (20140413.2041)
 -->
<!-- Title: onRunning Pages: 1 -->
<!--zoomable 414 -->
<svg id="main" version="1.1" xmlns="http://www.w3.org/2000/svg" xmlns:xlink="http://www.w3.org/1999/xlink" xml:space="preserve" onload="init(evt)">
<style type="text/css"><![CDATA[
.edge:hover path { stroke: red; }
.edge:hover polygon { stroke: red; fill: red; }
]]></style>
<script type="text/javascript"><![CDATA[
var edges = document.getElementsByTagName('g');
if (edges && edges.length) {
  for (var i=0;i<edges.length;i++) {
    if (edges[i].id.substr(0,4)=='edge') {
      edges[i].setAttribute('class','edge');
    }
  }
}
]]></script>
        <defs>
                <circle id="rim" cx="0" cy="0" r="7"/>
                <circle id="rim2" cx="0" cy="0" r="3.5"/>
                <g id="zoomPlus">
                        <use xlink:href="#rim" fill="#404040">
                                <set attributeName="fill" to="#808080" begin="zoomplus.mouseover" end="zoomplus.mouseout"/>
                        </use>
                        <path d="M-4,0h8M0,-4v8" fill="none" stroke="white" stroke-width="1.5" pointer-events="none"/>
                </g>
                <g id="zoomMin">
                        <use xlink:href="#rim" fill="#404040">
                                <set attributeName="fill" to="#808080" begin="zoomminus.mouseover" end="zoomminus.mouseout"/>
                        </use>
                        <path d="M-4,0h8" fill="none" stroke="white" stroke-width="1.5" pointer-events="none"/>
                </g>
                <g id="dirArrow">
                        <path fill="none" stroke="white" stroke-width="1.5" d="M0,-3.0v7 M-2.5,-0.5L0,-3.0L2.5,-0.5"/>
                </g>
               <g id="resetDef">
                       <use xlink:href="#rim2" fill="#404040">
                               <set attributeName="fill" to="#808080" begin="reset.mouseover" end="reset.mouseout"/>
                       </use>
               </g>
        </defs>

<script type="text/javascript">
var viewWidth = 1437;
var viewHeight = 414;
var sectionId = 'dynsection-3';
</script>
<script xlink:href="svgpan.js"/>
<svg id="graph" class="graph">
<g id="viewport">
<title>onRunning</title>
<polygon fill="white" stroke="none" points="-4,4 -4,-410 1433,-410 1433,4 -4,4"/>
<!-- Node1 -->
<g id="node1" class="node"><title>Node1</title>
<polygon fill="#bfbfbf" stroke="black" points="0,-268 0,-287 67,-287 67,-268 0,-268"/>
<text text-anchor="middle" x="33.5" y="-275" font-family="Helvetica,sans-Serif" font-size="10.00">onRunning</text>
</g>
<!-- Node2 -->
<g id="node2" class="node"><title>Node2</title>
<g id="a_node2"><a xlink:href="classcom_1_1tomoparts_1_1tomoBay_1_1model_1_1services_1_1emailErrorsService_1_1OnRunning.html#ae4a4f4cadce2787c7e80005639fbd5d9" target="_top" xlink:title="this method defines what to do in the given derived state ">
<polygon fill="white" stroke="black" points="103,-262.5 103,-292.5 345,-292.5 345,-262.5 103,-262.5"/>
<text text-anchor="start" x="111" y="-280.5" font-family="Helvetica,sans-Serif" font-size="10.00">com.tomoparts.tomoBay.model.services.email</text>
<text text-anchor="middle" x="224" y="-269.5" font-family="Helvetica,sans-Serif" font-size="10.00">ErrorsService.OnRunning.execute</text>
</a>
</g>
</g>
<!-- Node1&#45;&gt;Node2 -->
<g id="edge1" class="edge"><title>Node1&#45;&gt;Node2</title>
<path fill="none" stroke="midnightblue" d="M67.3342,-277.5C75.003,-277.5 83.6327,-277.5 92.7957,-277.5"/>
<polygon fill="midnightblue" stroke="midnightblue" points="92.9277,-281 102.928,-277.5 92.9276,-274 92.9277,-281"/>
</g>
<!-- Node3 -->
<g id="node3" class="node"><title>Node3</title>
<g id="a_node3"><a xlink:href="classcom_1_1tomoparts_1_1tomoBay_1_1model_1_1services_1_1emailErrorsService_1_1ErrorsList.html#a601e4cc34958e6c6b53c9ef8ecc3f0f7" target="_top" xlink:title="returns true if errors exist in the ebay listings false if not ">
<polygon fill="white" stroke="black" points="381,-375.5 381,-405.5 623,-405.5 623,-375.5 381,-375.5"/>
<text text-anchor="start" x="389" y="-393.5" font-family="Helvetica,sans-Serif" font-size="10.00">com.tomoparts.tomoBay.model.services.email</text>
<text text-anchor="middle" x="502" y="-382.5" font-family="Helvetica,sans-Serif" font-size="10.00">ErrorsService.ErrorsList.exist</text>
</a>
</g>
</g>
<!-- Node2&#45;&gt;Node3 -->
<g id="edge2" class="edge"><title>Node2&#45;&gt;Node3</title>
<path fill="none" stroke="midnightblue" d="M248.979,-292.65C278.879,-310.968 332.033,-341.678 381,-360.5 393.06,-365.136 406.079,-369.249 418.94,-372.83"/>
<polygon fill="midnightblue" stroke="midnightblue" points="418.16,-376.245 428.727,-375.465 419.98,-369.485 418.16,-376.245"/>
</g>
<!-- Node4 -->
<g id="node4" class="node"><title>Node4</title>
<g id="a_node4"><a xlink:href="classcom_1_1tomoparts_1_1tomoBay_1_1model_1_1services_1_1emailErrorsService_1_1EmailErrorsMailActions.html#ad1dbcb645114a23c7e2a441cb6ae9ca4" target="_top" xlink:title="handle the creation of the Email by passing in a map with the appropriate data inside it...">
<polygon fill="white" stroke="black" points="381,-287.5 381,-317.5 623,-317.5 623,-287.5 381,-287.5"/>
<text text-anchor="start" x="389" y="-305.5" font-family="Helvetica,sans-Serif" font-size="10.00">com.tomoparts.tomoBay.model.services.email</text>
<text text-anchor="middle" x="502" y="-294.5" font-family="Helvetica,sans-Serif" font-size="10.00">ErrorsService.EmailErrorsMailActions.loadData</text>
</a>
</g>
</g>
<!-- Node2&#45;&gt;Node4 -->
<g id="edge3" class="edge"><title>Node2&#45;&gt;Node4</title>
<path fill="none" stroke="midnightblue" d="M345.255,-288.393C353.712,-289.159 362.26,-289.933 370.768,-290.704"/>
<polygon fill="midnightblue" stroke="midnightblue" points="370.455,-294.189 380.73,-291.606 371.086,-287.218 370.455,-294.189"/>
</g>
<!-- Node5 -->
<g id="node5" class="node"><title>Node5</title>
<g id="a_node5"><a xlink:href="classcom_1_1tomoparts_1_1tomoBay_1_1model_1_1services_1_1emailErrorsService_1_1EmailErrorsMailActions.html#a05337b002b830d253e7580044fbe0419" target="_top" xlink:title="add a message to the email ">
<polygon fill="white" stroke="black" points="659,-342.5 659,-372.5 915,-372.5 915,-342.5 659,-342.5"/>
<text text-anchor="start" x="667" y="-360.5" font-family="Helvetica,sans-Serif" font-size="10.00">com.tomoparts.tomoBay.model.services.email</text>
<text text-anchor="middle" x="787" y="-349.5" font-family="Helvetica,sans-Serif" font-size="10.00">ErrorsService.EmailErrorsMailActions.addMessage</text>
</a>
</g>
</g>
<!-- Node2&#45;&gt;Node5 -->
<g id="edge12" class="edge"><title>Node2&#45;&gt;Node5</title>
<path fill="none" stroke="midnightblue" d="M263.123,-292.516C294.307,-304.114 339.822,-319.493 381,-327.5 469.106,-344.632 569.738,-352.144 648.65,-355.367"/>
<polygon fill="midnightblue" stroke="midnightblue" points="648.525,-358.865 658.654,-355.757 648.798,-351.87 648.525,-358.865"/>
</g>
<!-- Node11 -->
<g id="node11" class="node"><title>Node11</title>
<g id="a_node11"><a xlink:href="classcom_1_1tomoparts_1_1tomoBay_1_1model_1_1services_1_1emailErrorsService_1_1EmailErrorsDataFormat.html#a0737965f869eead756f082c11adf33a8" target="_top" xlink:title="format the List of strings provided as a HTML string that can be sent as an email. ">
<polygon fill="white" stroke="black" points="381,-238.5 381,-268.5 623,-268.5 623,-238.5 381,-238.5"/>
<text text-anchor="start" x="389" y="-256.5" font-family="Helvetica,sans-Serif" font-size="10.00">com.tomoparts.tomoBay.model.services.email</text>
<text text-anchor="middle" x="502" y="-245.5" font-family="Helvetica,sans-Serif" font-size="10.00">ErrorsService.EmailErrorsDataFormat.asHTML</text>
</a>
</g>
</g>
<!-- Node2&#45;&gt;Node11 -->
<g id="edge10" class="edge"><title>Node2&#45;&gt;Node11</title>
<path fill="none" stroke="midnightblue" d="M345.255,-267.043C353.62,-266.316 362.074,-265.581 370.49,-264.849"/>
<polygon fill="midnightblue" stroke="midnightblue" points="371.07,-268.312 380.73,-263.958 370.464,-261.338 371.07,-268.312"/>
</g>
<!-- Node12 -->
<g id="node12" class="node"><title>Node12</title>
<g id="a_node12"><a xlink:href="classcom_1_1tomoparts_1_1tomoBay_1_1model_1_1services_1_1emailErrorsService_1_1ErrorsList.html#a2c41d1c38f3d7a643ec4f7a64180fcb2" target="_top" xlink:title="generate a list of items from the database that contain error messages. ">
<polygon fill="white" stroke="black" points="381,-189.5 381,-219.5 623,-219.5 623,-189.5 381,-189.5"/>
<text text-anchor="start" x="389" y="-207.5" font-family="Helvetica,sans-Serif" font-size="10.00">com.tomoparts.tomoBay.model.services.email</text>
<text text-anchor="middle" x="502" y="-196.5" font-family="Helvetica,sans-Serif" font-size="10.00">ErrorsService.ErrorsList.get</text>
</a>
</g>
</g>
<!-- Node2&#45;&gt;Node12 -->
<g id="edge11" class="edge"><title>Node2&#45;&gt;Node12</title>
<path fill="none" stroke="midnightblue" d="M270.078,-262.411C301.064,-252.339 343.268,-239.213 381,-229.5 391.493,-226.799 402.558,-224.183 413.554,-221.726"/>
<polygon fill="midnightblue" stroke="midnightblue" points="414.598,-225.081 423.614,-219.516 413.096,-218.244 414.598,-225.081"/>
</g>
<!-- Node13 -->
<g id="node13" class="node"><title>Node13</title>
<g id="a_node13"><a xlink:href="classcom_1_1tomoparts_1_1tomoBay_1_1model_1_1services_1_1emailErrorsService_1_1EmailErrorsMailActions.html#ae9399f5ec7881c5d18173def8068108e" target="_top" xlink:title="send the email ">
<polygon fill="white" stroke="black" points="381,-137.5 381,-167.5 623,-167.5 623,-137.5 381,-137.5"/>
<text text-anchor="start" x="389" y="-155.5" font-family="Helvetica,sans-Serif" font-size="10.00">com.tomoparts.tomoBay.model.services.email</text>
<text text-anchor="middle" x="502" y="-144.5" font-family="Helvetica,sans-Serif" font-size="10.00">ErrorsService.EmailErrorsMailActions.send</text>
</a>
</g>
</g>
<!-- Node2&#45;&gt;Node13 -->
<g id="edge13" class="edge"><title>Node2&#45;&gt;Node13</title>
<path fill="none" stroke="midnightblue" d="M244.485,-262.159C272.891,-240.542 328.072,-201.325 381,-179.5 389.336,-176.063 398.187,-173.025 407.157,-170.348"/>
<polygon fill="midnightblue" stroke="midnightblue" points="408.249,-173.676 416.917,-167.583 406.341,-166.941 408.249,-173.676"/>
</g>
<!-- Node4&#45;&gt;Node5 -->
<g id="edge4" class="edge"><title>Node4&#45;&gt;Node5</title>
<path fill="none" stroke="midnightblue" d="M580.331,-317.529C616.987,-324.653 660.932,-333.194 698.774,-340.548"/>
<polygon fill="midnightblue" stroke="midnightblue" points="698.278,-344.017 708.763,-342.489 699.614,-337.146 698.278,-344.017"/>
</g>
<!-- Node7 -->
<g id="node7" class="node"><title>Node7</title>
<g id="a_node7"><a xlink:href="classcom_1_1tomoparts_1_1tomoBay_1_1model_1_1services_1_1emailErrorsService_1_1EmailErrorsMailActions.html#a6821a16486f28486b3191bb50a167262" target="_top" xlink:title="add a recipient to the email ">
<polygon fill="white" stroke="black" points="666,-282 666,-323 908,-323 908,-282 666,-282"/>
<text text-anchor="start" x="674" y="-311" font-family="Helvetica,sans-Serif" font-size="10.00">com.tomoparts.tomoBay.model.services.email</text>
<text text-anchor="start" x="674" y="-300" font-family="Helvetica,sans-Serif" font-size="10.00">ErrorsService.EmailErrorsMailActions.add</text>
<text text-anchor="middle" x="787" y="-289" font-family="Helvetica,sans-Serif" font-size="10.00">Recipient</text>
</a>
</g>
</g>
<!-- Node4&#45;&gt;Node7 -->
<g id="edge6" class="edge"><title>Node4&#45;&gt;Node7</title>
<path fill="none" stroke="midnightblue" d="M623.017,-302.5C633.749,-302.5 644.649,-302.5 655.463,-302.5"/>
<polygon fill="midnightblue" stroke="midnightblue" points="655.797,-306 665.797,-302.5 655.797,-299 655.797,-306"/>
</g>
<!-- Node9 -->
<g id="node9" class="node"><title>Node9</title>
<g id="a_node9"><a xlink:href="classcom_1_1tomoparts_1_1tomoBay_1_1model_1_1services_1_1emailErrorsService_1_1EmailErrorsMailActions.html#a2a8614817e293230d76a7dfab60c7f4f" target="_top" xlink:title="add a subject line to the email ">
<polygon fill="white" stroke="black" points="662.5,-232.5 662.5,-262.5 911.5,-262.5 911.5,-232.5 662.5,-232.5"/>
<text text-anchor="start" x="670.5" y="-250.5" font-family="Helvetica,sans-Serif" font-size="10.00">com.tomoparts.tomoBay.model.services.email</text>
<text text-anchor="middle" x="787" y="-239.5" font-family="Helvetica,sans-Serif" font-size="10.00">ErrorsService.EmailErrorsMailActions.addSubject</text>
</a>
</g>
</g>
<!-- Node4&#45;&gt;Node9 -->
<g id="edge8" class="edge"><title>Node4&#45;&gt;Node9</title>
<path fill="none" stroke="midnightblue" d="M580.331,-287.471C616.987,-280.347 660.932,-271.806 698.774,-264.452"/>
<polygon fill="midnightblue" stroke="midnightblue" points="699.614,-267.854 708.763,-262.511 698.278,-260.983 699.614,-267.854"/>
</g>
<!-- Node6 -->
<g id="node6" class="node"><title>Node6</title>
<g id="a_node6"><a xlink:href="classcom_1_1tomoparts_1_1tomoBay_1_1model_1_1net_1_1email_1_1Email.html#acc7b010f914eeee1745a79004eca2481" target="_top" xlink:title="sets the email body ">
<polygon fill="white" stroke="black" points="951,-342.5 951,-372.5 1172,-372.5 1172,-342.5 951,-342.5"/>
<text text-anchor="start" x="959" y="-360.5" font-family="Helvetica,sans-Serif" font-size="10.00">com.tomoparts.tomoBay.model.net.email.</text>
<text text-anchor="middle" x="1061.5" y="-349.5" font-family="Helvetica,sans-Serif" font-size="10.00">Email.setMessage</text>
</a>
</g>
</g>
<!-- Node5&#45;&gt;Node6 -->
<g id="edge5" class="edge"><title>Node5&#45;&gt;Node6</title>
<path fill="none" stroke="midnightblue" d="M915.075,-357.5C923.559,-357.5 932.09,-357.5 940.536,-357.5"/>
<polygon fill="midnightblue" stroke="midnightblue" points="940.788,-361 950.788,-357.5 940.788,-354 940.788,-361"/>
</g>
<!-- Node8 -->
<g id="node8" class="node"><title>Node8</title>
<g id="a_node8"><a xlink:href="classcom_1_1tomoparts_1_1tomoBay_1_1model_1_1net_1_1email_1_1Email.html#a5c78f073f0c4c95dddbb78f7a9eb6cd2" target="_top" xlink:title="set a recipient of the email, valid RecipientType listed in Message.RecipientType : TO/CC/BCC...">
<polygon fill="white" stroke="black" points="951,-287.5 951,-317.5 1172,-317.5 1172,-287.5 951,-287.5"/>
<text text-anchor="start" x="959" y="-305.5" font-family="Helvetica,sans-Serif" font-size="10.00">com.tomoparts.tomoBay.model.net.email.</text>
<text text-anchor="middle" x="1061.5" y="-294.5" font-family="Helvetica,sans-Serif" font-size="10.00">Email.setRecipient</text>
</a>
</g>
</g>
<!-- Node7&#45;&gt;Node8 -->
<g id="edge7" class="edge"><title>Node7&#45;&gt;Node8</title>
<path fill="none" stroke="midnightblue" d="M908.316,-302.5C919.012,-302.5 929.842,-302.5 940.535,-302.5"/>
<polygon fill="midnightblue" stroke="midnightblue" points="940.738,-306 950.738,-302.5 940.737,-299 940.738,-306"/>
</g>
<!-- Node10 -->
<g id="node10" class="node"><title>Node10</title>
<g id="a_node10"><a xlink:href="classcom_1_1tomoparts_1_1tomoBay_1_1model_1_1net_1_1email_1_1Email.html#a39f0298f055f0b78ad2ac781d38f326f" target="_top" xlink:title="set the subject line of the email. ">
<polygon fill="white" stroke="black" points="951,-235.5 951,-265.5 1172,-265.5 1172,-235.5 951,-235.5"/>
<text text-anchor="start" x="959" y="-253.5" font-family="Helvetica,sans-Serif" font-size="10.00">com.tomoparts.tomoBay.model.net.email.</text>
<text text-anchor="middle" x="1061.5" y="-242.5" font-family="Helvetica,sans-Serif" font-size="10.00">Email.setSubject</text>
</a>
</g>
</g>
<!-- Node9&#45;&gt;Node10 -->
<g id="edge9" class="edge"><title>Node9&#45;&gt;Node10</title>
<path fill="none" stroke="midnightblue" d="M911.891,-248.864C921.39,-248.969 930.97,-249.074 940.443,-249.178"/>
<polygon fill="midnightblue" stroke="midnightblue" points="940.635,-252.681 950.673,-249.291 940.712,-245.681 940.635,-252.681"/>
</g>
<!-- Node14 -->
<g id="node14" class="node"><title>Node14</title>
<g id="a_node14"><a xlink:href="classcom_1_1tomoparts_1_1tomoBay_1_1helpers_1_1ConfigReader.html#a310420c6db22982498520c2ad7a2b82f" target="_top" xlink:title="find the value of the config variable specified in the arguments. ">
<polygon fill="white" stroke="black" points="697.5,-137.5 697.5,-167.5 876.5,-167.5 876.5,-137.5 697.5,-137.5"/>
<text text-anchor="start" x="705.5" y="-155.5" font-family="Helvetica,sans-Serif" font-size="10.00">com.tomoparts.tomoBay.helpers.</text>
<text text-anchor="middle" x="787" y="-144.5" font-family="Helvetica,sans-Serif" font-size="10.00">ConfigReader.getConf</text>
</a>
</g>
</g>
<!-- Node13&#45;&gt;Node14 -->
<g id="edge14" class="edge"><title>Node13&#45;&gt;Node14</title>
<path fill="none" stroke="midnightblue" d="M623.017,-152.5C644.379,-152.5 666.409,-152.5 687.099,-152.5"/>
<polygon fill="midnightblue" stroke="midnightblue" points="687.14,-156 697.14,-152.5 687.14,-149 687.14,-156"/>
</g>
<!-- Node18 -->
<g id="node18" class="node"><title>Node18</title>
<g id="a_node18"><a xlink:href="classcom_1_1tomoparts_1_1tomoBay_1_1model_1_1net_1_1email_1_1MailServerSend.html#ae0ea6b0d6bda14c2c1ea809ca187c4be" target="_top" xlink:title="this method sends the given email using the userID and password provided in the arguments ...">
<polygon fill="white" stroke="black" points="676.5,-44.5 676.5,-74.5 897.5,-74.5 897.5,-44.5 676.5,-44.5"/>
<text text-anchor="start" x="684.5" y="-62.5" font-family="Helvetica,sans-Serif" font-size="10.00">com.tomoparts.tomoBay.model.net.email.</text>
<text text-anchor="middle" x="787" y="-51.5" font-family="Helvetica,sans-Serif" font-size="10.00">MailServerSend.send</text>
</a>
</g>
</g>
<!-- Node13&#45;&gt;Node18 -->
<g id="edge18" class="edge"><title>Node13&#45;&gt;Node18</title>
<path fill="none" stroke="midnightblue" d="M548.783,-137.455C598.413,-121.145 677.617,-95.1169 730.69,-77.6762"/>
<polygon fill="midnightblue" stroke="midnightblue" points="731.875,-80.9709 740.282,-74.5238 729.69,-74.3208 731.875,-80.9709"/>
</g>
<!-- Node15 -->
<g id="node15" class="node"><title>Node15</title>
<g id="a_node15"><a xlink:href="classcom_1_1tomoparts_1_1tomoBay_1_1helpers_1_1ConfigReader.html#ab69b4a3a0fc6a7c7440362b06ec4b4d3" target="_top" xlink:title="reads the whole config file into a string ">
<polygon fill="white" stroke="black" points="972,-186.5 972,-216.5 1151,-216.5 1151,-186.5 972,-186.5"/>
<text text-anchor="start" x="980" y="-204.5" font-family="Helvetica,sans-Serif" font-size="10.00">com.tomoparts.tomoBay.helpers.</text>
<text text-anchor="middle" x="1061.5" y="-193.5" font-family="Helvetica,sans-Serif" font-size="10.00">ConfigReader.getConfig</text>
</a>
</g>
</g>
<!-- Node14&#45;&gt;Node15 -->
<g id="edge15" class="edge"><title>Node14&#45;&gt;Node15</title>
<path fill="none" stroke="midnightblue" d="M871.611,-167.535C901.822,-172.967 936.113,-179.133 967.109,-184.707"/>
<polygon fill="midnightblue" stroke="midnightblue" points="966.586,-188.169 977.047,-186.494 967.825,-181.279 966.586,-188.169"/>
</g>
<!-- Node16 -->
<g id="node16" class="node"><title>Node16</title>
<g id="a_node16"><a xlink:href="enumcom_1_1tomoparts_1_1tomoBay_1_1helpers_1_1Config.html#a43cb99408ba4f337caad395ca67f9a6c" target="_top" xlink:title="return the string associated with the enum const ">
<polygon fill="white" stroke="black" points="972,-137.5 972,-167.5 1151,-167.5 1151,-137.5 972,-137.5"/>
<text text-anchor="start" x="980" y="-155.5" font-family="Helvetica,sans-Serif" font-size="10.00">com.tomoparts.tomoBay.helpers.</text>
<text text-anchor="middle" x="1061.5" y="-144.5" font-family="Helvetica,sans-Serif" font-size="10.00">Config.getVar</text>
</a>
</g>
</g>
<!-- Node14&#45;&gt;Node16 -->
<g id="edge16" class="edge"><title>Node14&#45;&gt;Node16</title>
<path fill="none" stroke="midnightblue" d="M876.85,-152.5C903.962,-152.5 933.934,-152.5 961.665,-152.5"/>
<polygon fill="midnightblue" stroke="midnightblue" points="961.771,-156 971.771,-152.5 961.771,-149 961.771,-156"/>
</g>
<!-- Node17 -->
<g id="node17" class="node"><title>Node17</title>
<g id="a_node17"><a xlink:href="classcom_1_1tomoparts_1_1tomoBay_1_1helpers_1_1XMLParser.html#a9936151017dd4e908cf37d453b22c8ef" target="_top" xlink:title="parses an XML formatted string looking for the first tag specified in the parameters. ">
<polygon fill="white" stroke="black" points="972,-88.5 972,-118.5 1151,-118.5 1151,-88.5 972,-88.5"/>
<text text-anchor="start" x="980" y="-106.5" font-family="Helvetica,sans-Serif" font-size="10.00">com.tomoparts.tomoBay.helpers.</text>
<text text-anchor="middle" x="1061.5" y="-95.5" font-family="Helvetica,sans-Serif" font-size="10.00">XMLParser.parse</text>
</a>
</g>
</g>
<!-- Node14&#45;&gt;Node17 -->
<g id="edge17" class="edge"><title>Node14&#45;&gt;Node17</title>
<path fill="none" stroke="midnightblue" d="M871.611,-137.465C901.822,-132.033 936.113,-125.867 967.109,-120.293"/>
<polygon fill="midnightblue" stroke="midnightblue" points="967.825,-123.721 977.047,-118.506 966.586,-116.831 967.825,-123.721"/>
</g>
<!-- Node19 -->
<g id="node19" class="node"><title>Node19</title>
<g id="a_node19"><a xlink:href="classcom_1_1tomoparts_1_1tomoBay_1_1model_1_1net_1_1email_1_1MailServerSend.html#ab5988b28fa18ed6b82ed54193ed21ccc" target="_top" xlink:title="creates a mail server session. ">
<polygon fill="white" stroke="black" points="1208,-22.5 1208,-52.5 1429,-52.5 1429,-22.5 1208,-22.5"/>
<text text-anchor="start" x="1216" y="-40.5" font-family="Helvetica,sans-Serif" font-size="10.00">com.tomoparts.tomoBay.model.net.email.</text>
<text text-anchor="middle" x="1318.5" y="-29.5" font-family="Helvetica,sans-Serif" font-size="10.00">MailServerSend.createMailServerSession</text>
</a>
</g>
</g>
<!-- Node18&#45;&gt;Node19 -->
<g id="edge19" class="edge"><title>Node18&#45;&gt;Node19</title>
<path fill="none" stroke="midnightblue" d="M897.713,-54.9416C985.216,-51.306 1107.61,-46.2208 1197.66,-42.479"/>
<polygon fill="midnightblue" stroke="midnightblue" points="1198.08,-45.9648 1207.93,-42.0526 1197.79,-38.9708 1198.08,-45.9648"/>
</g>
<!-- Node20 -->
<g id="node20" class="node"><title>Node20</title>
<g id="a_node20"><a xlink:href="classcom_1_1tomoparts_1_1tomoBay_1_1model_1_1net_1_1email_1_1MailServerSend.html#ae07411f271807d3f10b7e4db187d4b3c" target="_top" xlink:title="generates a MimeMessage from the Email object ">
<polygon fill="white" stroke="black" points="951,-0.5 951,-30.5 1172,-30.5 1172,-0.5 951,-0.5"/>
<text text-anchor="start" x="959" y="-18.5" font-family="Helvetica,sans-Serif" font-size="10.00">com.tomoparts.tomoBay.model.net.email.</text>
<text text-anchor="middle" x="1061.5" y="-7.5" font-family="Helvetica,sans-Serif" font-size="10.00">MailServerSend.generateMimeMessage</text>
</a>
</g>
</g>
<!-- Node18&#45;&gt;Node20 -->
<g id="edge20" class="edge"><title>Node18&#45;&gt;Node20</title>
<path fill="none" stroke="midnightblue" d="M881.017,-44.4808C905.653,-40.5027 932.394,-36.185 957.526,-32.1271"/>
<polygon fill="midnightblue" stroke="midnightblue" points="958.126,-35.5756 967.44,-30.5262 957.01,-28.6651 958.126,-35.5756"/>
</g>
<!-- Node20&#45;&gt;Node19 -->
<g id="edge21" class="edge"><title>Node20&#45;&gt;Node19</title>
<path fill="none" stroke="midnightblue" d="M1172.12,-24.9577C1180.66,-25.6943 1189.31,-26.4403 1197.91,-27.1822"/>
<polygon fill="midnightblue" stroke="midnightblue" points="1197.71,-30.6777 1207.97,-28.0503 1198.31,-23.7036 1197.71,-30.6777"/>
</g>
</g>
</svg>
        <g id="navigator" transform="translate(0 0)" fill="#404254">
                <rect fill="#f2f5e9" fill-opacity="0.5" stroke="#606060" stroke-width=".5" x="0" y="0" width="60" height="60"/>
                <use id="zoomplus" xlink:href="#zoomPlus" x="17" y="9" onmousedown="handleZoom(evt,'in')"/>
                <use id="zoomminus" xlink:href="#zoomMin" x="42" y="9" onmousedown="handleZoom(evt,'out')"/>
                <use id="reset" xlink:href="#resetDef" x="30" y="36" onmousedown="handleReset()"/>
                <g id="arrowUp" xlink:href="#dirArrow" transform="translate(30 24)" onmousedown="handlePan(0,-1)">
                  <use xlink:href="#rim" fill="#404040">
                        <set attributeName="fill" to="#808080" begin="arrowUp.mouseover" end="arrowUp.mouseout"/>
                  </use>
                  <path fill="none" stroke="white" stroke-width="1.5" d="M0,-3.0v7 M-2.5,-0.5L0,-3.0L2.5,-0.5"/>
                </g>
                <g id="arrowRight" xlink:href="#dirArrow" transform="rotate(90) translate(36 -43)" onmousedown="handlePan(1,0)">
                  <use xlink:href="#rim" fill="#404040">
                        <set attributeName="fill" to="#808080" begin="arrowRight.mouseover" end="arrowRight.mouseout"/>
                  </use>
                  <path fill="none" stroke="white" stroke-width="1.5" d="M0,-3.0v7 M-2.5,-0.5L0,-3.0L2.5,-0.5"/>
                </g>
                <g id="arrowDown" xlink:href="#dirArrow" transform="rotate(180) translate(-30 -48)" onmousedown="handlePan(0,1)">
                  <use xlink:href="#rim" fill="#404040">
                        <set attributeName="fill" to="#808080" begin="arrowDown.mouseover" end="arrowDown.mouseout"/>
                  </use>
                  <path fill="none" stroke="white" stroke-width="1.5" d="M0,-3.0v7 M-2.5,-0.5L0,-3.0L2.5,-0.5"/>
                </g>
                <g id="arrowLeft" xlink:href="#dirArrow" transform="rotate(270) translate(-36 17)" onmousedown="handlePan(-1,0)">
                  <use xlink:href="#rim" fill="#404040">
                        <set attributeName="fill" to="#808080" begin="arrowLeft.mouseover" end="arrowLeft.mouseout"/>
                  </use>
                  <path fill="none" stroke="white" stroke-width="1.5" d="M0,-3.0v7 M-2.5,-0.5L0,-3.0L2.5,-0.5"/>
                </g>
        </g>
        <svg viewBox="0 0 15 15" width="100%" height="30px" preserveAspectRatio="xMaxYMin meet">
         <g id="arrow_out" transform="scale(0.3 0.3)">
          <a xlink:href="classcom_1_1tomoparts_1_1tomoBay_1_1model_1_1services_1_1emailErrorsService_1_1EmailErrorsService_ae3b0a282dcba7f2d675ca89b1dd48487_cgraph_org.svg" target="_base">
           <rect id="button" ry="5" rx="5" y="6" x="6" height="38" width="38"
                fill="#f2f5e9" fill-opacity="0.5" stroke="#606060" stroke-width="1.0"/>
           <path id="arrow"
             d="M 11.500037,31.436501 C 11.940474,20.09759 22.043105,11.32322 32.158766,21.979434 L 37.068811,17.246167 C 37.068811,17.246167 37.088388,32 37.088388,32 L 22.160133,31.978069 C 22.160133,31.978069 26.997745,27.140456 26.997745,27.140456 C 18.528582,18.264221 13.291696,25.230495 11.500037,31.436501 z"
             style="fill:#404040;"/>
          </a>
         </g>
        </svg>
</svg>
