<?xml version="1.0" encoding="UTF-8" standalone="no"?>
<!DOCTYPE svg PUBLIC "-//W3C//DTD SVG 1.1//EN"
 "http://www.w3.org/Graphics/SVG/1.1/DTD/svg11.dtd">
<!-- Generated by graphviz version 2.38.0 (20140413.2041)
 -->
<!-- Title: AbstractEmailBuilder Pages: 1 -->
<svg width="317pt" height="353pt"
 viewBox="0.00 0.00 316.50 353.00" xmlns="http://www.w3.org/2000/svg" xmlns:xlink="http://www.w3.org/1999/xlink">
<g id="graph0" class="graph" transform="scale(1 1) rotate(0) translate(4 349)">
<title>AbstractEmailBuilder</title>
<polygon fill="white" stroke="none" points="-4,4 -4,-349 312.5,-349 312.5,4 -4,4"/>
<!-- Node1 -->
<g id="node1" class="node"><title>Node1</title>
<polygon fill="#bfbfbf" stroke="black" points="61,-0.5 61,-79.5 248,-79.5 248,-0.5 61,-0.5"/>
<text text-anchor="middle" x="154.5" y="-67.5" font-family="Helvetica,sans-Serif" font-size="10.00">AbstractEmailBuilder</text>
<polyline fill="none" stroke="black" points="61,-60.5 248,-60.5 "/>
<text text-anchor="middle" x="154.5" y="-48.5" font-family="Helvetica,sans-Serif" font-size="10.00"> </text>
<polyline fill="none" stroke="black" points="61,-41.5 248,-41.5 "/>
<text text-anchor="start" x="69" y="-29.5" font-family="Helvetica,sans-Serif" font-size="10.00"># AbstractEmailBuilder()</text>
<text text-anchor="start" x="69" y="-18.5" font-family="Helvetica,sans-Serif" font-size="10.00"># buildMailServerSendConnection()</text>
<text text-anchor="start" x="69" y="-7.5" font-family="Helvetica,sans-Serif" font-size="10.00"># buildEmail()</text>
</g>
<!-- Node2 -->
<g id="node2" class="node"><title>Node2</title>
<g id="a_node2"><a xlink:href="classcom_1_1tomoparts_1_1tomoBay_1_1model_1_1net_1_1email_1_1MailServerSend.html" target="_top" xlink:title="This class represents a MailServer send connection, it allows the sending of email from a specific ad...">
<polygon fill="white" stroke="black" points="0,-127.5 0,-228.5 149,-228.5 149,-127.5 0,-127.5"/>
<text text-anchor="middle" x="74.5" y="-216.5" font-family="Helvetica,sans-Serif" font-size="10.00">MailServerSend</text>
<polyline fill="none" stroke="black" points="0,-209.5 149,-209.5 "/>
<text text-anchor="start" x="8" y="-197.5" font-family="Helvetica,sans-Serif" font-size="10.00"># transportProtocol</text>
<text text-anchor="start" x="8" y="-186.5" font-family="Helvetica,sans-Serif" font-size="10.00"># serverIP_M</text>
<polyline fill="none" stroke="black" points="0,-179.5 149,-179.5 "/>
<text text-anchor="start" x="8" y="-167.5" font-family="Helvetica,sans-Serif" font-size="10.00">+ send()</text>
<text text-anchor="start" x="8" y="-156.5" font-family="Helvetica,sans-Serif" font-size="10.00"># MailServerSend()</text>
<text text-anchor="start" x="8" y="-145.5" font-family="Helvetica,sans-Serif" font-size="10.00">&#45; generateMimeMessage()</text>
<text text-anchor="start" x="8" y="-134.5" font-family="Helvetica,sans-Serif" font-size="10.00">&#45; createMailServerSession()</text>
</a>
</g>
</g>
<!-- Node2&#45;&gt;Node1 -->
<g id="edge1" class="edge"><title>Node2&#45;&gt;Node1</title>
<path fill="none" stroke="#404040" d="M89.5146,-127.208C93.4204,-117.212 98.0839,-107.018 103.5,-98 105.263,-95.0652 107.187,-92.1435 109.224,-89.2618"/>
<polygon fill="none" stroke="#404040" points="109.255,-89.221 109.692,-82.0231 116.505,-79.6586 116.067,-86.8564 109.255,-89.221"/>
<text text-anchor="middle" x="142" y="-101" font-family="Helvetica,sans-Serif" font-size="10.00"> #mailServer_M</text>
</g>
<!-- Node3 -->
<g id="node3" class="node"><title>Node3</title>
<polygon fill="white" stroke="#bfbfbf" points="42,-282 42,-339 107,-339 107,-282 42,-282"/>
<text text-anchor="middle" x="74.5" y="-327" font-family="Helvetica,sans-Serif" font-size="10.00">Properties</text>
<polyline fill="none" stroke="#bfbfbf" points="42,-320 107,-320 "/>
<text text-anchor="middle" x="74.5" y="-308" font-family="Helvetica,sans-Serif" font-size="10.00"> </text>
<polyline fill="none" stroke="#bfbfbf" points="42,-301 107,-301 "/>
<text text-anchor="middle" x="74.5" y="-289" font-family="Helvetica,sans-Serif" font-size="10.00"> </text>
</g>
<!-- Node3&#45;&gt;Node2 -->
<g id="edge2" class="edge"><title>Node3&#45;&gt;Node2</title>
<path fill="none" stroke="#404040" d="M74.5,-281.824C74.5,-269.725 74.5,-255.01 74.5,-240.54"/>
<polygon fill="none" stroke="#404040" points="74.5001,-240.505 70.5,-234.505 74.5,-228.505 78.5,-234.505 74.5001,-240.505"/>
<text text-anchor="middle" x="130.5" y="-250" font-family="Helvetica,sans-Serif" font-size="10.00"> #mailServerProperties</text>
</g>
<!-- Node4 -->
<g id="node4" class="node"><title>Node4</title>
<g id="a_node4"><a xlink:href="classcom_1_1tomoparts_1_1tomoBay_1_1model_1_1net_1_1email_1_1Email.html" target="_top" xlink:title="This class represents an email, it contains recipients a subject and a message body. ">
<polygon fill="white" stroke="black" points="167.5,-127.5 167.5,-228.5 277.5,-228.5 277.5,-127.5 167.5,-127.5"/>
<text text-anchor="middle" x="222.5" y="-216.5" font-family="Helvetica,sans-Serif" font-size="10.00">Email</text>
<polyline fill="none" stroke="black" points="167.5,-209.5 277.5,-209.5 "/>
<text text-anchor="start" x="175.5" y="-197.5" font-family="Helvetica,sans-Serif" font-size="10.00"># subject_M</text>
<text text-anchor="start" x="175.5" y="-186.5" font-family="Helvetica,sans-Serif" font-size="10.00"># messageBody_M</text>
<polyline fill="none" stroke="black" points="167.5,-179.5 277.5,-179.5 "/>
<text text-anchor="start" x="175.5" y="-167.5" font-family="Helvetica,sans-Serif" font-size="10.00">+ setRecipient()</text>
<text text-anchor="start" x="175.5" y="-156.5" font-family="Helvetica,sans-Serif" font-size="10.00">+ setSubject()</text>
<text text-anchor="start" x="175.5" y="-145.5" font-family="Helvetica,sans-Serif" font-size="10.00">+ setMessage()</text>
<text text-anchor="start" x="175.5" y="-134.5" font-family="Helvetica,sans-Serif" font-size="10.00"># Email()</text>
</a>
</g>
</g>
<!-- Node4&#45;&gt;Node1 -->
<g id="edge3" class="edge"><title>Node4&#45;&gt;Node1</title>
<path fill="none" stroke="#404040" d="M197.565,-127.131C191.648,-115.296 185.336,-102.671 179.419,-90.8382"/>
<polygon fill="none" stroke="#404040" points="179.26,-90.5204 172.999,-86.9427 173.894,-79.7873 180.155,-83.365 179.26,-90.5204"/>
<text text-anchor="middle" x="214.5" y="-101" font-family="Helvetica,sans-Serif" font-size="10.00"> #email_M</text>
</g>
<!-- Node5 -->
<g id="node5" class="node"><title>Node5</title>
<polygon fill="white" stroke="#bfbfbf" points="136.5,-276.5 136.5,-344.5 308.5,-344.5 308.5,-276.5 136.5,-276.5"/>
<text text-anchor="start" x="144.5" y="-332.5" font-family="Helvetica,sans-Serif" font-size="10.00">Map&lt; String, Message.Recipient</text>
<text text-anchor="middle" x="222.5" y="-321.5" font-family="Helvetica,sans-Serif" font-size="10.00">Type &gt;</text>
<polyline fill="none" stroke="#bfbfbf" points="136.5,-314.5 308.5,-314.5 "/>
<text text-anchor="middle" x="222.5" y="-302.5" font-family="Helvetica,sans-Serif" font-size="10.00"> </text>
<polyline fill="none" stroke="#bfbfbf" points="136.5,-295.5 308.5,-295.5 "/>
<text text-anchor="middle" x="222.5" y="-283.5" font-family="Helvetica,sans-Serif" font-size="10.00"> </text>
</g>
<!-- Node5&#45;&gt;Node4 -->
<g id="edge4" class="edge"><title>Node5&#45;&gt;Node4</title>
<path fill="none" stroke="#404040" d="M222.5,-276.232C222.5,-265.471 222.5,-253.168 222.5,-241.015"/>
<polygon fill="none" stroke="#404040" points="222.5,-240.975 218.5,-234.975 222.5,-228.975 226.5,-234.975 222.5,-240.975"/>
<text text-anchor="middle" x="258.5" y="-250" font-family="Helvetica,sans-Serif" font-size="10.00"> #recipients_M</text>
</g>
</g>
</svg>
