<?xml version="1.0" encoding="UTF-8" standalone="no"?>
<!DOCTYPE svg PUBLIC "-//W3C//DTD SVG 1.1//EN"
 "http://www.w3.org/Graphics/SVG/1.1/DTD/svg11.dtd">
<!-- Generated by graphviz version 2.38.0 (20140413.2041)
 -->
<!-- Title: format Pages: 1 -->
<svg width="844pt" height="88pt"
 viewBox="0.00 0.00 844.00 88.00" xmlns="http://www.w3.org/2000/svg" xmlns:xlink="http://www.w3.org/1999/xlink">
<g id="graph0" class="graph" transform="scale(1 1) rotate(0) translate(4 84)">
<title>format</title>
<polygon fill="white" stroke="none" points="-4,4 -4,-84 840,-84 840,4 -4,4"/>
<!-- Node1 -->
<g id="node1" class="node"><title>Node1</title>
<polygon fill="#bfbfbf" stroke="black" points="0,-35.5 0,-54.5 49,-54.5 49,-35.5 0,-35.5"/>
<text text-anchor="middle" x="24.5" y="-42.5" font-family="Helvetica,sans-Serif" font-size="10.00">format</text>
</g>
<!-- Node2 -->
<g id="node2" class="node"><title>Node2</title>
<g id="a_node2"><a xlink:href="classcom_1_1tomoparts_1_1tomoBay_1_1model_1_1dataTypes_1_1financial_1_1SalesOrderDayBook_1_1formats_1_1AbstractFormat.html#a8f7c380d238881bfb7b09f308a2a8d02" target="_top" xlink:title="default ctor ">
<polygon fill="white" stroke="black" points="136.5,-60.5 136.5,-79.5 228.5,-79.5 228.5,-60.5 136.5,-60.5"/>
<text text-anchor="middle" x="182.5" y="-67.5" font-family="Helvetica,sans-Serif" font-size="10.00">AbstractFormat</text>
</a>
</g>
</g>
<!-- Node1&#45;&gt;Node2 -->
<g id="edge1" class="edge"><title>Node1&#45;&gt;Node2</title>
<path fill="none" stroke="midnightblue" d="M59.2842,-50.4141C81.7907,-54.021 111.631,-58.8031 136.192,-62.7391"/>
<polygon fill="midnightblue" stroke="midnightblue" points="59.6209,-46.9235 49.193,-48.797 58.5132,-53.8353 59.6209,-46.9235"/>
</g>
<!-- Node3 -->
<g id="node3" class="node"><title>Node3</title>
<g id="a_node3"><a xlink:href="classcom_1_1tomoparts_1_1tomoBay_1_1model_1_1dataTypes_1_1financial_1_1SalesOrderDayBook_1_1AbstractSalesDayBookLine.html#af96a91ec2459da583de299a3a6b716e5" target="_top" xlink:title="converts this invoice into the format requested ">
<polygon fill="white" stroke="black" points="85,-0.5 85,-41.5 280,-41.5 280,-0.5 85,-0.5"/>
<text text-anchor="start" x="93" y="-29.5" font-family="Helvetica,sans-Serif" font-size="10.00">com.tomoparts.tomoBay.model.data</text>
<text text-anchor="start" x="93" y="-18.5" font-family="Helvetica,sans-Serif" font-size="10.00">Types.financial.SalesOrderDayBook.</text>
<text text-anchor="middle" x="182.5" y="-7.5" font-family="Helvetica,sans-Serif" font-size="10.00">AbstractSalesDayBookLine.format</text>
</a>
</g>
</g>
<!-- Node1&#45;&gt;Node3 -->
<g id="edge2" class="edge"><title>Node1&#45;&gt;Node3</title>
<path fill="none" stroke="midnightblue" d="M59.2729,-39.8042C67.1054,-38.5992 75.8265,-37.2575 84.9045,-35.8608"/>
<polygon fill="midnightblue" stroke="midnightblue" points="58.5445,-36.375 49.193,-41.3549 59.609,-43.2936 58.5445,-36.375"/>
</g>
<!-- Node4 -->
<g id="node4" class="node"><title>Node4</title>
<g id="a_node4"><a xlink:href="classcom_1_1tomoparts_1_1tomoBay_1_1presenters_1_1presenterActions_1_1concreteActions_1_1InvoiceOrders.html#a78298d20dc15b33bf695c69785741a68" target="_top" xlink:title="formats the AbstractSalesDayBookLine into a format that can be passed to the WinstockCommandInvoker. ">
<polygon fill="white" stroke="black" points="316,-0.5 316,-41.5 558,-41.5 558,-0.5 316,-0.5"/>
<text text-anchor="start" x="324" y="-29.5" font-family="Helvetica,sans-Serif" font-size="10.00">com.tomoparts.tomoBay.presenters.presenter</text>
<text text-anchor="start" x="324" y="-18.5" font-family="Helvetica,sans-Serif" font-size="10.00">Actions.concreteActions.InvoiceOrders.format</text>
<text text-anchor="middle" x="437" y="-7.5" font-family="Helvetica,sans-Serif" font-size="10.00">AsDualList</text>
</a>
</g>
</g>
<!-- Node3&#45;&gt;Node4 -->
<g id="edge3" class="edge"><title>Node3&#45;&gt;Node4</title>
<path fill="none" stroke="midnightblue" d="M290.262,-21C298.698,-21 307.254,-21 315.773,-21"/>
<polygon fill="midnightblue" stroke="midnightblue" points="290.04,-17.5001 280.04,-21 290.04,-24.5001 290.04,-17.5001"/>
</g>
<!-- Node5 -->
<g id="node5" class="node"><title>Node5</title>
<g id="a_node5"><a xlink:href="classcom_1_1tomoparts_1_1tomoBay_1_1presenters_1_1presenterActions_1_1concreteActions_1_1InvoiceOrders.html#adb3dedf31dc2c7fc796f20406c235ccd" target="_top" xlink:title="performs the action specified ">
<polygon fill="white" stroke="black" points="594,-6 594,-36 836,-36 836,-6 594,-6"/>
<text text-anchor="start" x="602" y="-24" font-family="Helvetica,sans-Serif" font-size="10.00">com.tomoparts.tomoBay.presenters.presenter</text>
<text text-anchor="middle" x="715" y="-13" font-family="Helvetica,sans-Serif" font-size="10.00">Actions.concreteActions.InvoiceOrders.execute</text>
</a>
</g>
</g>
<!-- Node4&#45;&gt;Node5 -->
<g id="edge4" class="edge"><title>Node4&#45;&gt;Node5</title>
<path fill="none" stroke="midnightblue" d="M568.494,-21C576.91,-21 585.364,-21 593.73,-21"/>
<polygon fill="midnightblue" stroke="midnightblue" points="568.255,-17.5001 558.255,-21 568.255,-24.5001 568.255,-17.5001"/>
</g>
</g>
</svg>
