<?xml version="1.0" encoding="UTF-8" standalone="no"?>
<!DOCTYPE svg PUBLIC "-//W3C//DTD SVG 1.1//EN"
 "http://www.w3.org/Graphics/SVG/1.1/DTD/svg11.dtd">
<!-- Generated by graphviz version 2.38.0 (20140413.2041)
 -->
<!-- Title: instance Pages: 1 -->
<svg width="289pt" height="198pt"
 viewBox="0.00 0.00 289.00 197.50" xmlns="http://www.w3.org/2000/svg" xmlns:xlink="http://www.w3.org/1999/xlink">
<g id="graph0" class="graph" transform="scale(1 1) rotate(0) translate(4 193.5)">
<title>instance</title>
<polygon fill="white" stroke="none" points="-4,4 -4,-193.5 285,-193.5 285,4 -4,4"/>
<!-- Node1 -->
<g id="node1" class="node"><title>Node1</title>
<polygon fill="#bfbfbf" stroke="black" points="0,-90.5 0,-109.5 57,-109.5 57,-90.5 0,-90.5"/>
<text text-anchor="middle" x="28.5" y="-97.5" font-family="Helvetica,sans-Serif" font-size="10.00">instance</text>
</g>
<!-- Node2 -->
<g id="node2" class="node"><title>Node2</title>
<g id="a_node2"><a xlink:href="classcom_1_1tomoparts_1_1tomoBay_1_1model_1_1eBayAPI_1_1ItemCall.html#aef124cf009a0c8fc805291107eb3fe4c" target="_top" xlink:title="constructor, calls superconstructor and initialises with api key and server string ...">
<polygon fill="white" stroke="black" points="97.5,-159 97.5,-189 276.5,-189 276.5,-159 97.5,-159"/>
<text text-anchor="start" x="105.5" y="-177" font-family="Helvetica,sans-Serif" font-size="10.00">com.tomoparts.tomoBay.model.e</text>
<text text-anchor="middle" x="187" y="-166" font-family="Helvetica,sans-Serif" font-size="10.00">BayAPI.ItemCall.ItemCall</text>
</a>
</g>
</g>
<!-- Node1&#45;&gt;Node2 -->
<g id="edge1" class="edge"><title>Node1&#45;&gt;Node2</title>
<path fill="none" stroke="midnightblue" d="M46.4436,-116.57C58.5196,-127.524 75.6315,-141.4 93,-150 99.8738,-153.404 107.28,-156.359 114.806,-158.918"/>
<polygon fill="midnightblue" stroke="midnightblue" points="48.6394,-113.831 38.9466,-109.553 43.8562,-118.942 48.6394,-113.831"/>
</g>
<!-- Node3 -->
<g id="node3" class="node"><title>Node3</title>
<g id="a_node3"><a xlink:href="classcom_1_1tomoparts_1_1tomoBay_1_1model_1_1eBayAPI_1_1ListingsCall.html#a8d93dacd34b7c6a84d65995c88046f8c" target="_top" xlink:title="initialise the ListingsCall ">
<polygon fill="white" stroke="black" points="97.5,-110 97.5,-140 276.5,-140 276.5,-110 97.5,-110"/>
<text text-anchor="start" x="105.5" y="-128" font-family="Helvetica,sans-Serif" font-size="10.00">com.tomoparts.tomoBay.model.e</text>
<text text-anchor="middle" x="187" y="-117" font-family="Helvetica,sans-Serif" font-size="10.00">BayAPI.ListingsCall.ListingsCall</text>
</a>
</g>
</g>
<!-- Node1&#45;&gt;Node3 -->
<g id="edge2" class="edge"><title>Node1&#45;&gt;Node3</title>
<path fill="none" stroke="midnightblue" d="M67.0794,-106.003C76.3347,-107.482 86.6412,-109.128 97.209,-110.816"/>
<polygon fill="midnightblue" stroke="midnightblue" points="67.5457,-102.533 57.1188,-104.412 66.4415,-109.446 67.5457,-102.533"/>
</g>
<!-- Node4 -->
<g id="node4" class="node"><title>Node4</title>
<g id="a_node4"><a xlink:href="classcom_1_1tomoparts_1_1tomoBay_1_1model_1_1eBayAPI_1_1OrdersCall.html#a53329c0b369a744bb0ad8853d470126d" target="_top" xlink:title="constructor, initialises the OrdersCall using the credentials passed in. ">
<polygon fill="white" stroke="black" points="97.5,-61 97.5,-91 276.5,-91 276.5,-61 97.5,-61"/>
<text text-anchor="start" x="105.5" y="-79" font-family="Helvetica,sans-Serif" font-size="10.00">com.tomoparts.tomoBay.model.e</text>
<text text-anchor="middle" x="187" y="-68" font-family="Helvetica,sans-Serif" font-size="10.00">BayAPI.OrdersCall.OrdersCall</text>
</a>
</g>
</g>
<!-- Node1&#45;&gt;Node4 -->
<g id="edge3" class="edge"><title>Node1&#45;&gt;Node4</title>
<path fill="none" stroke="midnightblue" d="M67.0794,-94.237C76.3347,-92.8177 86.6412,-91.2371 97.209,-89.6165"/>
<polygon fill="midnightblue" stroke="midnightblue" points="66.4727,-90.7891 57.1188,-95.7645 67.5338,-97.7082 66.4727,-90.7891"/>
</g>
<!-- Node5 -->
<g id="node5" class="node"><title>Node5</title>
<g id="a_node5"><a xlink:href="classcom_1_1tomoparts_1_1tomoBay_1_1model_1_1eBayAPI_1_1OrderTransactionsCall.html#a7d3365112008521e70e2521d188f5067" target="_top" xlink:title="com.tomoparts.tomoBay.model.e\lBayAPI.OrderTransactionsCall.Order\lTransactionsCall">
<polygon fill="white" stroke="black" points="93,-0.5 93,-41.5 281,-41.5 281,-0.5 93,-0.5"/>
<text text-anchor="start" x="101" y="-29.5" font-family="Helvetica,sans-Serif" font-size="10.00">com.tomoparts.tomoBay.model.e</text>
<text text-anchor="start" x="101" y="-18.5" font-family="Helvetica,sans-Serif" font-size="10.00">BayAPI.OrderTransactionsCall.Order</text>
<text text-anchor="middle" x="187" y="-7.5" font-family="Helvetica,sans-Serif" font-size="10.00">TransactionsCall</text>
</a>
</g>
</g>
<!-- Node1&#45;&gt;Node5 -->
<g id="edge4" class="edge"><title>Node1&#45;&gt;Node5</title>
<path fill="none" stroke="midnightblue" d="M47.6173,-83.7623C59.766,-73.539 76.5062,-60.6816 93,-52 100.229,-48.195 108.017,-44.727 115.899,-41.6034"/>
<polygon fill="midnightblue" stroke="midnightblue" points="45.2842,-81.1526 39.9997,-90.3354 49.8573,-86.4523 45.2842,-81.1526"/>
</g>
</g>
</svg>
