<?xml version="1.0" encoding="UTF-8" standalone="no"?>
<!DOCTYPE svg PUBLIC "-//W3C//DTD SVG 1.1//EN"
 "http://www.w3.org/Graphics/SVG/1.1/DTD/svg11.dtd">
<!-- Generated by graphviz version 2.38.0 (20140413.2041)
 -->
<!-- Title: OrderStatusTable Pages: 1 -->
<svg width="127pt" height="204pt"
 viewBox="0.00 0.00 127.00 204.00" xmlns="http://www.w3.org/2000/svg" xmlns:xlink="http://www.w3.org/1999/xlink">
<g id="graph0" class="graph" transform="scale(1 1) rotate(0) translate(4 200)">
<title>OrderStatusTable</title>
<polygon fill="white" stroke="none" points="-4,4 -4,-200 123,-200 123,4 -4,4"/>
<!-- Node1 -->
<g id="node1" class="node"><title>Node1</title>
<polygon fill="#bfbfbf" stroke="black" points="2,-0.5 2,-101.5 117,-101.5 117,-0.5 2,-0.5"/>
<text text-anchor="middle" x="59.5" y="-89.5" font-family="Helvetica,sans-Serif" font-size="10.00">OrderStatusTable</text>
<polyline fill="none" stroke="black" points="2,-82.5 117,-82.5 "/>
<text text-anchor="start" x="10" y="-70.5" font-family="Helvetica,sans-Serif" font-size="10.00">+ ORDER_ID</text>
<text text-anchor="start" x="10" y="-59.5" font-family="Helvetica,sans-Serif" font-size="10.00">+ PICKING</text>
<text text-anchor="start" x="10" y="-48.5" font-family="Helvetica,sans-Serif" font-size="10.00">+ PACKING</text>
<text text-anchor="start" x="10" y="-37.5" font-family="Helvetica,sans-Serif" font-size="10.00">+ SHIPPING</text>
<text text-anchor="start" x="10" y="-26.5" font-family="Helvetica,sans-Serif" font-size="10.00">+ INVOICE_NO</text>
<polyline fill="none" stroke="black" points="2,-19.5 117,-19.5 "/>
<text text-anchor="start" x="10" y="-7.5" font-family="Helvetica,sans-Serif" font-size="10.00">&#45; OrderStatusTable()</text>
</g>
<!-- Node2 -->
<g id="node2" class="node"><title>Node2</title>
<g id="a_node2"><a xlink:href="interfacecom_1_1tomoparts_1_1tomoBay_1_1model_1_1dataTypes_1_1heteroTypeContainer_1_1AbstractTypeSchema.html" target="_top" xlink:title="Derived types of this class represent the schema for a specific database and should only contain publ...">
<polygon fill="white" stroke="black" points="0,-138.5 0,-195.5 119,-195.5 119,-138.5 0,-138.5"/>
<text text-anchor="middle" x="59.5" y="-183.5" font-family="Helvetica,sans-Serif" font-size="10.00">AbstractTypeSchema</text>
<polyline fill="none" stroke="black" points="0,-176.5 119,-176.5 "/>
<text text-anchor="middle" x="59.5" y="-164.5" font-family="Helvetica,sans-Serif" font-size="10.00"> </text>
<polyline fill="none" stroke="black" points="0,-157.5 119,-157.5 "/>
<text text-anchor="middle" x="59.5" y="-145.5" font-family="Helvetica,sans-Serif" font-size="10.00"> </text>
</a>
</g>
</g>
<!-- Node2&#45;&gt;Node1 -->
<g id="edge1" class="edge"><title>Node2&#45;&gt;Node1</title>
<path fill="none" stroke="midnightblue" d="M59.5,-128.354C59.5,-119.796 59.5,-110.578 59.5,-101.608"/>
<polygon fill="none" stroke="midnightblue" points="56.0001,-128.404 59.5,-138.404 63.0001,-128.404 56.0001,-128.404"/>
</g>
</g>
</svg>
