<?xml version="1.0" encoding="UTF-8" standalone="no"?>
<!DOCTYPE svg PUBLIC "-//W3C//DTD SVG 1.1//EN"
 "http://www.w3.org/Graphics/SVG/1.1/DTD/svg11.dtd">
<!-- Generated by graphviz version 2.38.0 (20140413.2041)
 -->
<!-- Title: OrderInfo Pages: 1 -->
<svg width="142pt" height="226pt"
 viewBox="0.00 0.00 142.00 226.00" xmlns="http://www.w3.org/2000/svg" xmlns:xlink="http://www.w3.org/1999/xlink">
<g id="graph0" class="graph" transform="scale(1 1) rotate(0) translate(4 222)">
<title>OrderInfo</title>
<polygon fill="white" stroke="none" points="-4,4 -4,-222 138,-222 138,4 -4,4"/>
<!-- Node1 -->
<g id="node1" class="node"><title>Node1</title>
<polygon fill="#bfbfbf" stroke="black" points="16,-0.5 16,-123.5 118,-123.5 118,-0.5 16,-0.5"/>
<text text-anchor="middle" x="67" y="-111.5" font-family="Helvetica,sans-Serif" font-size="10.00">OrderInfo</text>
<polyline fill="none" stroke="black" points="16,-104.5 118,-104.5 "/>
<text text-anchor="middle" x="67" y="-92.5" font-family="Helvetica,sans-Serif" font-size="10.00"> </text>
<polyline fill="none" stroke="black" points="16,-85.5 118,-85.5 "/>
<text text-anchor="start" x="24" y="-73.5" font-family="Helvetica,sans-Serif" font-size="10.00">+ OrderInfo()</text>
<text text-anchor="start" x="24" y="-62.5" font-family="Helvetica,sans-Serif" font-size="10.00">+ execute()</text>
<text text-anchor="start" x="24" y="-51.5" font-family="Helvetica,sans-Serif" font-size="10.00">&#45; formatResults()</text>
<text text-anchor="start" x="24" y="-40.5" font-family="Helvetica,sans-Serif" font-size="10.00">&#45; summaryInfo()</text>
<text text-anchor="start" x="24" y="-29.5" font-family="Helvetica,sans-Serif" font-size="10.00">&#45; buyerInfo()</text>
<text text-anchor="start" x="24" y="-18.5" font-family="Helvetica,sans-Serif" font-size="10.00">&#45; transactionInfo()</text>
<text text-anchor="start" x="24" y="-7.5" font-family="Helvetica,sans-Serif" font-size="10.00">&#45; shippingInfo()</text>
</g>
<!-- Node2 -->
<g id="node2" class="node"><title>Node2</title>
<g id="a_node2"><a xlink:href="interfacecom_1_1tomoparts_1_1tomoBay_1_1presenters_1_1presenterActions_1_1AbstractPresenterAction.html" target="_top" xlink:title="Copyright(C) 2015 Jan P.C. ">
<polygon fill="white" stroke="black" points="0,-160.5 0,-217.5 134,-217.5 134,-160.5 0,-160.5"/>
<text text-anchor="middle" x="67" y="-205.5" font-family="Helvetica,sans-Serif" font-size="10.00">AbstractPresenterAction</text>
<polyline fill="none" stroke="black" points="0,-198.5 134,-198.5 "/>
<text text-anchor="middle" x="67" y="-186.5" font-family="Helvetica,sans-Serif" font-size="10.00"> </text>
<polyline fill="none" stroke="black" points="0,-179.5 134,-179.5 "/>
<text text-anchor="start" x="8" y="-167.5" font-family="Helvetica,sans-Serif" font-size="10.00">+ execute()</text>
</a>
</g>
</g>
<!-- Node2&#45;&gt;Node1 -->
<g id="edge1" class="edge"><title>Node2&#45;&gt;Node1</title>
<path fill="none" stroke="midnightblue" d="M67,-150.099C67,-141.739 67,-132.68 67,-123.672"/>
<polygon fill="none" stroke="midnightblue" points="63.5001,-150.258 67,-160.258 70.5001,-150.258 63.5001,-150.258"/>
</g>
</g>
</svg>
