<?xml version="1.0" encoding="UTF-8" standalone="no"?>
<!DOCTYPE svg PUBLIC "-//W3C//DTD SVG 1.1//EN"
 "http://www.w3.org/Graphics/SVG/1.1/DTD/svg11.dtd">
<!-- Generated by graphviz version 2.38.0 (20140413.2041)
 -->
<!-- Title: ItemsTable Pages: 1 -->
<svg width="732pt" height="299pt"
 viewBox="0.00 0.00 731.50 299.00" xmlns="http://www.w3.org/2000/svg" xmlns:xlink="http://www.w3.org/1999/xlink">
<g id="graph0" class="graph" transform="scale(1 1) rotate(0) translate(4 295)">
<title>ItemsTable</title>
<polygon fill="white" stroke="none" points="-4,4 -4,-295 727.5,-295 727.5,4 -4,4"/>
<!-- Node1 -->
<g id="node1" class="node"><title>Node1</title>
<polygon fill="#bfbfbf" stroke="black" points="362,-0.5 362,-57.5 445,-57.5 445,-0.5 362,-0.5"/>
<text text-anchor="middle" x="403.5" y="-45.5" font-family="Helvetica,sans-Serif" font-size="10.00">ItemsTable</text>
<polyline fill="none" stroke="black" points="362,-38.5 445,-38.5 "/>
<text text-anchor="middle" x="403.5" y="-26.5" font-family="Helvetica,sans-Serif" font-size="10.00"> </text>
<polyline fill="none" stroke="black" points="362,-19.5 445,-19.5 "/>
<text text-anchor="start" x="370" y="-7.5" font-family="Helvetica,sans-Serif" font-size="10.00">&#45; ItemsTable()</text>
</g>
<!-- Node2 -->
<g id="node2" class="node"><title>Node2</title>
<g id="a_node2"><a xlink:href="interfacecom_1_1tomoparts_1_1tomoBay_1_1model_1_1dataTypes_1_1heteroTypeContainer_1_1AbstractTypeSchema.html" target="_top" xlink:title="Derived types of this class represent the schema for a specific database and should only contain publ...">
<polygon fill="white" stroke="black" points="0,-116.5 0,-173.5 119,-173.5 119,-116.5 0,-116.5"/>
<text text-anchor="middle" x="59.5" y="-161.5" font-family="Helvetica,sans-Serif" font-size="10.00">AbstractTypeSchema</text>
<polyline fill="none" stroke="black" points="0,-154.5 119,-154.5 "/>
<text text-anchor="middle" x="59.5" y="-142.5" font-family="Helvetica,sans-Serif" font-size="10.00"> </text>
<polyline fill="none" stroke="black" points="0,-135.5 119,-135.5 "/>
<text text-anchor="middle" x="59.5" y="-123.5" font-family="Helvetica,sans-Serif" font-size="10.00"> </text>
</a>
</g>
</g>
<!-- Node2&#45;&gt;Node1 -->
<g id="edge1" class="edge"><title>Node2&#45;&gt;Node1</title>
<path fill="none" stroke="midnightblue" d="M92.8488,-109.606C106.76,-97.1685 123.795,-84.1857 141.5,-76 214.019,-42.4716 308.174,-33.2517 361.605,-30.7975"/>
<polygon fill="none" stroke="midnightblue" points="90.4334,-107.073 85.457,-116.426 95.1801,-112.217 90.4334,-107.073"/>
</g>
<!-- Node3 -->
<g id="node3" class="node"><title>Node3</title>
<g id="a_node3"><a xlink:href="classcom_1_1tomoparts_1_1tomoBay_1_1model_1_1sql_1_1schema_1_1itemsTable_1_1Condition.html" target="_top" xlink:title="this is the condition field of the ebay_items table, this field represents the selling condition of t...">
<polygon fill="white" stroke="black" points="233.5,-105.5 233.5,-184.5 313.5,-184.5 313.5,-105.5 233.5,-105.5"/>
<text text-anchor="middle" x="273.5" y="-172.5" font-family="Helvetica,sans-Serif" font-size="10.00">Condition</text>
<polyline fill="none" stroke="black" points="233.5,-165.5 313.5,-165.5 "/>
<text text-anchor="start" x="241.5" y="-153.5" font-family="Helvetica,sans-Serif" font-size="10.00">&#45; size_M</text>
<polyline fill="none" stroke="black" points="233.5,-146.5 313.5,-146.5 "/>
<text text-anchor="start" x="241.5" y="-134.5" font-family="Helvetica,sans-Serif" font-size="10.00">+ Condition()</text>
<text text-anchor="start" x="241.5" y="-123.5" font-family="Helvetica,sans-Serif" font-size="10.00">+ type()</text>
<text text-anchor="start" x="241.5" y="-112.5" font-family="Helvetica,sans-Serif" font-size="10.00">+ size()</text>
</a>
</g>
</g>
<!-- Node3&#45;&gt;Node1 -->
<g id="edge2" class="edge"><title>Node3&#45;&gt;Node1</title>
<path fill="none" stroke="#404040" d="M284.858,-105.39C289.363,-94.896 295.443,-84.1837 303.5,-76 316.462,-62.8331 333.898,-53.0504 350.579,-45.9737"/>
<polygon fill="none" stroke="#404040" points="350.777,-45.8957 354.894,-39.9753 361.942,-41.4985 357.825,-47.4189 350.777,-45.8957"/>
<text text-anchor="middle" x="336.5" y="-79" font-family="Helvetica,sans-Serif" font-size="10.00"> +CONDITION</text>
</g>
<!-- Node4 -->
<g id="node4" class="node"><title>Node4</title>
<g id="a_node4"><a xlink:href="interfacecom_1_1tomoparts_1_1tomoBay_1_1model_1_1dataTypes_1_1heteroTypeContainer_1_1AbstractField.html" target="_top" xlink:title="This interface is the abstract base for all derived AbstractDBField types, and represents a a column ...">
<polygon fill="white" stroke="black" points="398,-222.5 398,-290.5 477,-290.5 477,-222.5 398,-222.5"/>
<text text-anchor="middle" x="437.5" y="-278.5" font-family="Helvetica,sans-Serif" font-size="10.00">AbstractField</text>
<polyline fill="none" stroke="black" points="398,-271.5 477,-271.5 "/>
<text text-anchor="middle" x="437.5" y="-259.5" font-family="Helvetica,sans-Serif" font-size="10.00"> </text>
<polyline fill="none" stroke="black" points="398,-252.5 477,-252.5 "/>
<text text-anchor="start" x="406" y="-240.5" font-family="Helvetica,sans-Serif" font-size="10.00">+ type()</text>
<text text-anchor="start" x="406" y="-229.5" font-family="Helvetica,sans-Serif" font-size="10.00">+ size()</text>
</a>
</g>
</g>
<!-- Node4&#45;&gt;Node1 -->
<g id="edge10" class="edge"><title>Node4&#45;&gt;Node1</title>
<path fill="none" stroke="#404040" d="M397.827,-251.156C329.204,-242.736 192.939,-221.716 164.5,-185 142.727,-156.89 143.456,-133.659 164.5,-105 206.735,-47.4811 293.02,-32.8849 349.533,-29.8182"/>
<polygon fill="none" stroke="#404040" points="349.822,-29.8062 355.651,-25.5599 361.812,-29.3067 355.984,-33.553 349.822,-29.8062"/>
<text text-anchor="middle" x="194.5" y="-142.5" font-family="Helvetica,sans-Serif" font-size="10.00"> +ACCOUNT</text>
</g>
<!-- Node4&#45;&gt;Node3 -->
<g id="edge3" class="edge"><title>Node4&#45;&gt;Node3</title>
<path fill="none" stroke="midnightblue" d="M389.173,-227.666C368.293,-215.184 343.814,-199.932 322.5,-185 319.561,-182.941 316.566,-180.765 313.578,-178.537"/>
<polygon fill="none" stroke="midnightblue" points="387.496,-230.74 397.882,-232.836 391.07,-224.721 387.496,-230.74"/>
</g>
<!-- Node5 -->
<g id="node5" class="node"><title>Node5</title>
<g id="a_node5"><a xlink:href="classcom_1_1tomoparts_1_1tomoBay_1_1model_1_1sql_1_1schema_1_1itemsTable_1_1Title.html" target="_top" xlink:title="This is the title field of the ebay_items table in the database. ">
<polygon fill="white" stroke="black" points="331.5,-105.5 331.5,-184.5 387.5,-184.5 387.5,-105.5 331.5,-105.5"/>
<text text-anchor="middle" x="359.5" y="-172.5" font-family="Helvetica,sans-Serif" font-size="10.00">Title</text>
<polyline fill="none" stroke="black" points="331.5,-165.5 387.5,-165.5 "/>
<text text-anchor="start" x="339.5" y="-153.5" font-family="Helvetica,sans-Serif" font-size="10.00">&#45; size_M</text>
<polyline fill="none" stroke="black" points="331.5,-146.5 387.5,-146.5 "/>
<text text-anchor="start" x="339.5" y="-134.5" font-family="Helvetica,sans-Serif" font-size="10.00">+ Title()</text>
<text text-anchor="start" x="339.5" y="-123.5" font-family="Helvetica,sans-Serif" font-size="10.00">+ type()</text>
<text text-anchor="start" x="339.5" y="-112.5" font-family="Helvetica,sans-Serif" font-size="10.00">+ size()</text>
</a>
</g>
</g>
<!-- Node4&#45;&gt;Node5 -->
<g id="edge5" class="edge"><title>Node4&#45;&gt;Node5</title>
<path fill="none" stroke="midnightblue" d="M408.003,-214.091C401.162,-204.487 393.904,-194.299 387.146,-184.81"/>
<polygon fill="none" stroke="midnightblue" points="405.233,-216.235 413.886,-222.349 410.935,-212.174 405.233,-216.235"/>
</g>
<!-- Node6 -->
<g id="node6" class="node"><title>Node6</title>
<g id="a_node6"><a xlink:href="classcom_1_1tomoparts_1_1tomoBay_1_1model_1_1sql_1_1schema_1_1itemsTable_1_1Notes.html" target="_top" xlink:title="This is the notes field of the ebay_items table in the database. ">
<polygon fill="white" stroke="black" points="405.5,-105.5 405.5,-184.5 469.5,-184.5 469.5,-105.5 405.5,-105.5"/>
<text text-anchor="middle" x="437.5" y="-172.5" font-family="Helvetica,sans-Serif" font-size="10.00">Notes</text>
<polyline fill="none" stroke="black" points="405.5,-165.5 469.5,-165.5 "/>
<text text-anchor="start" x="413.5" y="-153.5" font-family="Helvetica,sans-Serif" font-size="10.00">&#45; size_M</text>
<polyline fill="none" stroke="black" points="405.5,-146.5 469.5,-146.5 "/>
<text text-anchor="start" x="413.5" y="-134.5" font-family="Helvetica,sans-Serif" font-size="10.00">+ Notes()</text>
<text text-anchor="start" x="413.5" y="-123.5" font-family="Helvetica,sans-Serif" font-size="10.00">+ type()</text>
<text text-anchor="start" x="413.5" y="-112.5" font-family="Helvetica,sans-Serif" font-size="10.00">+ size()</text>
</a>
</g>
</g>
<!-- Node4&#45;&gt;Node6 -->
<g id="edge7" class="edge"><title>Node4&#45;&gt;Node6</title>
<path fill="none" stroke="midnightblue" d="M437.5,-212.339C437.5,-203.254 437.5,-193.724 437.5,-184.81"/>
<polygon fill="none" stroke="midnightblue" points="434,-212.349 437.5,-222.349 441,-212.349 434,-212.349"/>
</g>
<!-- Node7 -->
<g id="node7" class="node"><title>Node7</title>
<g id="a_node7"><a xlink:href="classcom_1_1tomoparts_1_1tomoBay_1_1model_1_1sql_1_1schema_1_1itemsTable_1_1Brand.html" target="_top" xlink:title="this is the brand field of the ebay_items table in the database. ">
<polygon fill="white" stroke="black" points="487.5,-105.5 487.5,-184.5 551.5,-184.5 551.5,-105.5 487.5,-105.5"/>
<text text-anchor="middle" x="519.5" y="-172.5" font-family="Helvetica,sans-Serif" font-size="10.00">Brand</text>
<polyline fill="none" stroke="black" points="487.5,-165.5 551.5,-165.5 "/>
<text text-anchor="start" x="495.5" y="-153.5" font-family="Helvetica,sans-Serif" font-size="10.00">&#45; size_M</text>
<polyline fill="none" stroke="black" points="487.5,-146.5 551.5,-146.5 "/>
<text text-anchor="start" x="495.5" y="-134.5" font-family="Helvetica,sans-Serif" font-size="10.00">+ Brand()</text>
<text text-anchor="start" x="495.5" y="-123.5" font-family="Helvetica,sans-Serif" font-size="10.00">+ type()</text>
<text text-anchor="start" x="495.5" y="-112.5" font-family="Helvetica,sans-Serif" font-size="10.00">+ size()</text>
</a>
</g>
</g>
<!-- Node4&#45;&gt;Node7 -->
<g id="edge9" class="edge"><title>Node4&#45;&gt;Node7</title>
<path fill="none" stroke="midnightblue" d="M468.509,-214.091C475.702,-204.487 483.331,-194.299 490.437,-184.81"/>
<polygon fill="none" stroke="midnightblue" points="465.518,-212.247 462.325,-222.349 471.121,-216.443 465.518,-212.247"/>
</g>
<!-- Node8 -->
<g id="node8" class="node"><title>Node8</title>
<g id="a_node8"><a xlink:href="classcom_1_1tomoparts_1_1tomoBay_1_1model_1_1sql_1_1schema_1_1itemsTable_1_1ItemID.html" target="_top" xlink:title="this is the itemID field of the ebay_items table, this is the primary key for the ebay_items table an...">
<polygon fill="white" stroke="black" points="570,-105.5 570,-184.5 637,-184.5 637,-105.5 570,-105.5"/>
<text text-anchor="middle" x="603.5" y="-172.5" font-family="Helvetica,sans-Serif" font-size="10.00">ItemID</text>
<polyline fill="none" stroke="black" points="570,-165.5 637,-165.5 "/>
<text text-anchor="start" x="578" y="-153.5" font-family="Helvetica,sans-Serif" font-size="10.00">&#45; size_M</text>
<polyline fill="none" stroke="black" points="570,-146.5 637,-146.5 "/>
<text text-anchor="start" x="578" y="-134.5" font-family="Helvetica,sans-Serif" font-size="10.00">+ ItemID()</text>
<text text-anchor="start" x="578" y="-123.5" font-family="Helvetica,sans-Serif" font-size="10.00">+ type()</text>
<text text-anchor="start" x="578" y="-112.5" font-family="Helvetica,sans-Serif" font-size="10.00">+ size()</text>
</a>
</g>
</g>
<!-- Node4&#45;&gt;Node8 -->
<g id="edge12" class="edge"><title>Node4&#45;&gt;Node8</title>
<path fill="none" stroke="midnightblue" d="M486.06,-230.826C509.317,-218.228 537.124,-201.992 560.5,-185 563.598,-182.748 566.723,-180.306 569.8,-177.778"/>
<polygon fill="none" stroke="midnightblue" points="484.224,-227.839 477.06,-235.644 487.528,-234.01 484.224,-227.839"/>
</g>
<!-- Node9 -->
<g id="node9" class="node"><title>Node9</title>
<g id="a_node9"><a xlink:href="classcom_1_1tomoparts_1_1tomoBay_1_1model_1_1sql_1_1schema_1_1itemsTable_1_1PartNo.html" target="_top" xlink:title="This is the partNo field of the ebay_items table in the database. ">
<polygon fill="white" stroke="black" points="655.5,-105.5 655.5,-184.5 723.5,-184.5 723.5,-105.5 655.5,-105.5"/>
<text text-anchor="middle" x="689.5" y="-172.5" font-family="Helvetica,sans-Serif" font-size="10.00">PartNo</text>
<polyline fill="none" stroke="black" points="655.5,-165.5 723.5,-165.5 "/>
<text text-anchor="start" x="663.5" y="-153.5" font-family="Helvetica,sans-Serif" font-size="10.00">&#45; size_M</text>
<polyline fill="none" stroke="black" points="655.5,-146.5 723.5,-146.5 "/>
<text text-anchor="start" x="663.5" y="-134.5" font-family="Helvetica,sans-Serif" font-size="10.00">+ PartNo()</text>
<text text-anchor="start" x="663.5" y="-123.5" font-family="Helvetica,sans-Serif" font-size="10.00">+ type()</text>
<text text-anchor="start" x="663.5" y="-112.5" font-family="Helvetica,sans-Serif" font-size="10.00">+ size()</text>
</a>
</g>
</g>
<!-- Node4&#45;&gt;Node9 -->
<g id="edge14" class="edge"><title>Node4&#45;&gt;Node9</title>
<path fill="none" stroke="midnightblue" d="M486.852,-244.687C530.542,-233.771 595.024,-214.305 645.5,-185 648.855,-183.052 652.183,-180.824 655.418,-178.44"/>
<polygon fill="none" stroke="midnightblue" points="485.922,-241.311 477.038,-247.083 487.582,-248.111 485.922,-241.311"/>
</g>
<!-- Node5&#45;&gt;Node1 -->
<g id="edge4" class="edge"><title>Node5&#45;&gt;Node1</title>
<path fill="none" stroke="#404040" d="M367.91,-105.315C370.52,-95.5848 373.724,-85.2749 377.5,-76 378.512,-73.5148 379.632,-70.997 380.822,-68.4864"/>
<polygon fill="none" stroke="#404040" points="380.902,-68.3303 380.077,-61.1665 386.373,-57.6499 387.197,-64.8137 380.902,-68.3303"/>
<text text-anchor="middle" x="395.5" y="-79" font-family="Helvetica,sans-Serif" font-size="10.00"> +TITLE</text>
</g>
<!-- Node6&#45;&gt;Node1 -->
<g id="edge6" class="edge"><title>Node6&#45;&gt;Node1</title>
<path fill="none" stroke="#404040" d="M425.989,-105.405C422.529,-93.8031 418.729,-81.0617 415.253,-69.4081"/>
<polygon fill="none" stroke="#404040" points="415.206,-69.2503 409.658,-64.6438 411.777,-57.7509 417.325,-62.3574 415.206,-69.2503"/>
<text text-anchor="middle" x="443" y="-79" font-family="Helvetica,sans-Serif" font-size="10.00"> +NOTES</text>
</g>
<!-- Node7&#45;&gt;Node1 -->
<g id="edge8" class="edge"><title>Node7&#45;&gt;Node1</title>
<path fill="none" stroke="#404040" d="M494.314,-105.15C486.926,-95.1127 478.418,-84.695 469.5,-76 465.051,-71.6627 460.156,-67.4438 455.103,-63.4331"/>
<polygon fill="none" stroke="#404040" points="454.843,-63.236 447.644,-62.8094 445.269,-56.0006 452.468,-56.4272 454.843,-63.236"/>
<text text-anchor="middle" x="502.5" y="-79" font-family="Helvetica,sans-Serif" font-size="10.00"> +BRAND</text>
</g>
<!-- Node8&#45;&gt;Node1 -->
<g id="edge11" class="edge"><title>Node8&#45;&gt;Node1</title>
<path fill="none" stroke="#404040" d="M569.683,-107.718C557.793,-96.4455 543.809,-84.7064 529.5,-76 507.035,-62.3314 479.873,-51.771 456.529,-44.2363"/>
<polygon fill="none" stroke="#404040" points="456.524,-44.2351 449.608,-46.2756 445.064,-40.676 451.981,-38.6355 456.524,-44.2351"/>
<text text-anchor="middle" x="570" y="-79" font-family="Helvetica,sans-Serif" font-size="10.00"> +ITEM_ID</text>
</g>
<!-- Node9&#45;&gt;Node1 -->
<g id="edge13" class="edge"><title>Node9&#45;&gt;Node1</title>
<path fill="none" stroke="#404040" d="M655.316,-112.026C639.237,-98.7668 619.094,-84.5193 598.5,-76 552.477,-56.9609 496.933,-44.829 456.917,-37.8339"/>
<polygon fill="none" stroke="#404040" points="456.856,-37.8238 450.274,-40.7691 445.024,-35.8259 451.606,-32.8807 456.856,-37.8238"/>
<text text-anchor="middle" x="646.5" y="-79" font-family="Helvetica,sans-Serif" font-size="10.00"> +PART_NO</text>
</g>
</g>
</svg>
