<?xml version="1.0" encoding="UTF-8" standalone="no"?>
<!DOCTYPE svg PUBLIC "-//W3C//DTD SVG 1.1//EN"
 "http://www.w3.org/Graphics/SVG/1.1/DTD/svg11.dtd">
<!-- Generated by graphviz version 2.38.0 (20140413.2041)
 -->
<!-- Title: Part Pages: 1 -->
<svg width="392pt" height="496pt"
 viewBox="0.00 0.00 391.50 496.00" xmlns="http://www.w3.org/2000/svg" xmlns:xlink="http://www.w3.org/1999/xlink">
<g id="graph0" class="graph" transform="scale(1 1) rotate(0) translate(4 492)">
<title>Part</title>
<polygon fill="white" stroke="none" points="-4,4 -4,-492 387.5,-492 387.5,4 -4,4"/>
<!-- Node1 -->
<g id="node1" class="node"><title>Node1</title>
<polygon fill="#bfbfbf" stroke="black" points="169.5,-0.5 169.5,-145.5 270.5,-145.5 270.5,-0.5 169.5,-0.5"/>
<text text-anchor="middle" x="220" y="-133.5" font-family="Helvetica,sans-Serif" font-size="10.00">Part</text>
<polyline fill="none" stroke="black" points="169.5,-126.5 270.5,-126.5 "/>
<text text-anchor="start" x="177.5" y="-114.5" font-family="Helvetica,sans-Serif" font-size="10.00">&#45; cost_M</text>
<text text-anchor="start" x="177.5" y="-103.5" font-family="Helvetica,sans-Serif" font-size="10.00">&#45; BADCHAR</text>
<polyline fill="none" stroke="black" points="169.5,-96.5 270.5,-96.5 "/>
<text text-anchor="start" x="177.5" y="-84.5" font-family="Helvetica,sans-Serif" font-size="10.00">+ Part()</text>
<text text-anchor="start" x="177.5" y="-73.5" font-family="Helvetica,sans-Serif" font-size="10.00">+ partNo()</text>
<text text-anchor="start" x="177.5" y="-62.5" font-family="Helvetica,sans-Serif" font-size="10.00">+ brand()</text>
<text text-anchor="start" x="177.5" y="-51.5" font-family="Helvetica,sans-Serif" font-size="10.00">+ description()</text>
<text text-anchor="start" x="177.5" y="-40.5" font-family="Helvetica,sans-Serif" font-size="10.00">+ cost()</text>
<text text-anchor="start" x="177.5" y="-29.5" font-family="Helvetica,sans-Serif" font-size="10.00">&#45; getCost()</text>
<text text-anchor="start" x="177.5" y="-18.5" font-family="Helvetica,sans-Serif" font-size="10.00">&#45; getDescription()</text>
<text text-anchor="start" x="177.5" y="-7.5" font-family="Helvetica,sans-Serif" font-size="10.00">&#45; badChar()</text>
</g>
<!-- Node2 -->
<g id="node2" class="node"><title>Node2</title>
<g id="a_node2"><a xlink:href="classcom_1_1tomoparts_1_1tomoBay_1_1model_1_1winstock_1_1Stock.html" target="_top" xlink:title="This class is responsible for querying winstock for information. ">
<polygon fill="white" stroke="black" points="1.5,-193.5 1.5,-349.5 138.5,-349.5 138.5,-193.5 1.5,-193.5"/>
<text text-anchor="middle" x="70" y="-337.5" font-family="Helvetica,sans-Serif" font-size="10.00">Stock</text>
<polyline fill="none" stroke="black" points="1.5,-330.5 138.5,-330.5 "/>
<text text-anchor="start" x="9.5" y="-318.5" font-family="Helvetica,sans-Serif" font-size="10.00">+ ERROR</text>
<text text-anchor="start" x="9.5" y="-307.5" font-family="Helvetica,sans-Serif" font-size="10.00">&#45; HTTP_HEADER</text>
<text text-anchor="start" x="9.5" y="-296.5" font-family="Helvetica,sans-Serif" font-size="10.00">&#45; URL_PT1_M</text>
<text text-anchor="start" x="9.5" y="-285.5" font-family="Helvetica,sans-Serif" font-size="10.00">&#45; URL_PT2_M</text>
<polyline fill="none" stroke="black" points="1.5,-278.5 138.5,-278.5 "/>
<text text-anchor="start" x="9.5" y="-266.5" font-family="Helvetica,sans-Serif" font-size="10.00">+ Stock()</text>
<text text-anchor="start" x="9.5" y="-255.5" font-family="Helvetica,sans-Serif" font-size="10.00">+ requestStockLevel()</text>
<text text-anchor="start" x="9.5" y="-244.5" font-family="Helvetica,sans-Serif" font-size="10.00">+ requestDescription()</text>
<text text-anchor="start" x="9.5" y="-233.5" font-family="Helvetica,sans-Serif" font-size="10.00">+ requestLastCost()</text>
<text text-anchor="start" x="9.5" y="-222.5" font-family="Helvetica,sans-Serif" font-size="10.00">+ requestInvoiceWeight()</text>
<text text-anchor="start" x="9.5" y="-211.5" font-family="Helvetica,sans-Serif" font-size="10.00">&#45; queryWinstockURL()</text>
<text text-anchor="start" x="9.5" y="-200.5" font-family="Helvetica,sans-Serif" font-size="10.00">&#45; postFormatXMLString()</text>
</a>
</g>
</g>
<!-- Node2&#45;&gt;Node1 -->
<g id="edge1" class="edge"><title>Node2&#45;&gt;Node1</title>
<path fill="none" stroke="#404040" d="M128.853,-193.402C139.724,-179.162 151.069,-164.3 161.916,-150.09"/>
<polygon fill="none" stroke="#404040" points="162.052,-149.911 162.514,-142.715 169.334,-140.373 168.873,-147.569 162.052,-149.911"/>
<text text-anchor="middle" x="180.5" y="-167" font-family="Helvetica,sans-Serif" font-size="10.00"> &#45;winstock_M</text>
</g>
<!-- Node3 -->
<g id="node3" class="node"><title>Node3</title>
<g id="a_node3"><a xlink:href="classcom_1_1tomoparts_1_1tomoBay_1_1model_1_1net_1_1HttpResponse.html" target="_top" xlink:title="Copyright(C) 2015 Jan P.C. ">
<polygon fill="white" stroke="black" points="0,-397.5 0,-487.5 140,-487.5 140,-397.5 0,-397.5"/>
<text text-anchor="middle" x="70" y="-475.5" font-family="Helvetica,sans-Serif" font-size="10.00">HttpResponse</text>
<polyline fill="none" stroke="black" points="0,-468.5 140,-468.5 "/>
<text text-anchor="start" x="8" y="-456.5" font-family="Helvetica,sans-Serif" font-size="10.00">&#45; responseCode_M</text>
<text text-anchor="start" x="8" y="-445.5" font-family="Helvetica,sans-Serif" font-size="10.00">&#45; responseMessage_M</text>
<polyline fill="none" stroke="black" points="0,-438.5 140,-438.5 "/>
<text text-anchor="start" x="8" y="-426.5" font-family="Helvetica,sans-Serif" font-size="10.00">+ HttpResponse()</text>
<text text-anchor="start" x="8" y="-415.5" font-family="Helvetica,sans-Serif" font-size="10.00">+ getResponseCode()</text>
<text text-anchor="start" x="8" y="-404.5" font-family="Helvetica,sans-Serif" font-size="10.00">+ getResponseMessage()</text>
</a>
</g>
</g>
<!-- Node3&#45;&gt;Node2 -->
<g id="edge2" class="edge"><title>Node3&#45;&gt;Node2</title>
<path fill="none" stroke="#404040" d="M70,-397.097C70,-386.168 70,-374.075 70,-361.845"/>
<polygon fill="none" stroke="#404040" points="70.0001,-361.609 66,-355.609 70,-349.609 74,-355.609 70.0001,-361.609"/>
<text text-anchor="middle" x="102.5" y="-371" font-family="Helvetica,sans-Serif" font-size="10.00"> &#45;response_M</text>
</g>
<!-- Node4 -->
<g id="node4" class="node"><title>Node4</title>
<polygon fill="white" stroke="#bfbfbf" points="156.5,-232 156.5,-311 383.5,-311 383.5,-232 156.5,-232"/>
<text text-anchor="start" x="164.5" y="-299" font-family="Helvetica,sans-Serif" font-size="10.00">Map&lt; com.tomoparts.tomoBay.model.data</text>
<text text-anchor="start" x="164.5" y="-288" font-family="Helvetica,sans-Serif" font-size="10.00">Types.order.Part.stringTypes,</text>
<text text-anchor="middle" x="270" y="-277" font-family="Helvetica,sans-Serif" font-size="10.00"> String &gt;</text>
<polyline fill="none" stroke="#bfbfbf" points="156.5,-270 383.5,-270 "/>
<text text-anchor="middle" x="270" y="-258" font-family="Helvetica,sans-Serif" font-size="10.00"> </text>
<polyline fill="none" stroke="#bfbfbf" points="156.5,-251 383.5,-251 "/>
<text text-anchor="middle" x="270" y="-239" font-family="Helvetica,sans-Serif" font-size="10.00"> </text>
</g>
<!-- Node4&#45;&gt;Node1 -->
<g id="edge3" class="edge"><title>Node4&#45;&gt;Node1</title>
<path fill="none" stroke="#404040" d="M260.122,-231.678C254.717,-210.436 247.801,-183.259 241.239,-157.471"/>
<polygon fill="none" stroke="#404040" points="241.215,-157.376 235.859,-152.548 238.256,-145.747 243.612,-150.575 241.215,-157.376"/>
<text text-anchor="middle" x="293.5" y="-167" font-family="Helvetica,sans-Serif" font-size="10.00"> &#45;stringProperties_M</text>
</g>
</g>
</svg>
