<?xml version="1.0" encoding="UTF-8" standalone="no"?>
<!DOCTYPE svg PUBLIC "-//W3C//DTD SVG 1.1//EN"
 "http://www.w3.org/Graphics/SVG/1.1/DTD/svg11.dtd">
<!-- Generated by graphviz version 2.38.0 (20140413.2041)
 -->
<!-- Title: queryWinstockURL Pages: 1 -->
<!--zoomable 186 -->
<svg id="main" version="1.1" xmlns="http://www.w3.org/2000/svg" xmlns:xlink="http://www.w3.org/1999/xlink" xml:space="preserve" onload="init(evt)">
<style type="text/css"><![CDATA[
.edge:hover path { stroke: red; }
.edge:hover polygon { stroke: red; fill: red; }
]]></style>
<script type="text/javascript"><![CDATA[
var edges = document.getElementsByTagName('g');
if (edges && edges.length) {
  for (var i=0;i<edges.length;i++) {
    if (edges[i].id.substr(0,4)=='edge') {
      edges[i].setAttribute('class','edge');
    }
  }
}
]]></script>
        <defs>
                <circle id="rim" cx="0" cy="0" r="7"/>
                <circle id="rim2" cx="0" cy="0" r="3.5"/>
                <g id="zoomPlus">
                        <use xlink:href="#rim" fill="#404040">
                                <set attributeName="fill" to="#808080" begin="zoomplus.mouseover" end="zoomplus.mouseout"/>
                        </use>
                        <path d="M-4,0h8M0,-4v8" fill="none" stroke="white" stroke-width="1.5" pointer-events="none"/>
                </g>
                <g id="zoomMin">
                        <use xlink:href="#rim" fill="#404040">
                                <set attributeName="fill" to="#808080" begin="zoomminus.mouseover" end="zoomminus.mouseout"/>
                        </use>
                        <path d="M-4,0h8" fill="none" stroke="white" stroke-width="1.5" pointer-events="none"/>
                </g>
                <g id="dirArrow">
                        <path fill="none" stroke="white" stroke-width="1.5" d="M0,-3.0v7 M-2.5,-0.5L0,-3.0L2.5,-0.5"/>
                </g>
               <g id="resetDef">
                       <use xlink:href="#rim2" fill="#404040">
                               <set attributeName="fill" to="#808080" begin="reset.mouseover" end="reset.mouseout"/>
                       </use>
               </g>
        </defs>

<script type="text/javascript">
var viewWidth = 1230;
var viewHeight = 186;
var sectionId = 'dynsection-9';
</script>
<script xlink:href="svgpan.js"/>
<svg id="graph" class="graph">
<g id="viewport">
<title>queryWinstockURL</title>
<polygon fill="white" stroke="none" points="-4,4 -4,-182 1226,-182 1226,4 -4,4"/>
<!-- Node1 -->
<g id="node1" class="node"><title>Node1</title>
<polygon fill="#bfbfbf" stroke="black" points="0,-104 0,-123 104,-123 104,-104 0,-104"/>
<text text-anchor="middle" x="52" y="-111" font-family="Helvetica,sans-Serif" font-size="10.00">queryWinstockURL</text>
</g>
<!-- Node2 -->
<g id="node2" class="node"><title>Node2</title>
<g id="a_node2"><a xlink:href="classcom_1_1tomoparts_1_1tomoBay_1_1model_1_1winstock_1_1Stock.html#adaf6c34595911864279e31f375aeedd1" target="_top" xlink:title="query winstock for the description of a particular part. ">
<polygon fill="white" stroke="black" points="140,-147 140,-166 247,-166 247,-147 140,-147"/>
<text text-anchor="middle" x="193.5" y="-154" font-family="Helvetica,sans-Serif" font-size="10.00">requestDescription</text>
</a>
</g>
</g>
<!-- Node1&#45;&gt;Node2 -->
<g id="edge1" class="edge"><title>Node1&#45;&gt;Node2</title>
<path fill="none" stroke="midnightblue" d="M93.5725,-126.006C115.284,-132.699 141.598,-140.81 161.627,-146.984"/>
<polygon fill="midnightblue" stroke="midnightblue" points="94.5469,-122.644 83.9596,-123.043 92.4849,-129.334 94.5469,-122.644"/>
</g>
<!-- Node5 -->
<g id="node5" class="node"><title>Node5</title>
<g id="a_node5"><a xlink:href="classcom_1_1tomoparts_1_1tomoBay_1_1model_1_1winstock_1_1Stock.html#a5171bbe1448b8e4840e617ffd75cc261" target="_top" xlink:title="query winstock for the last cost price of a particular part. ">
<polygon fill="white" stroke="black" points="146,-104 146,-123 241,-123 241,-104 146,-104"/>
<text text-anchor="middle" x="193.5" y="-111" font-family="Helvetica,sans-Serif" font-size="10.00">requestLastCost</text>
</a>
</g>
</g>
<!-- Node1&#45;&gt;Node5 -->
<g id="edge4" class="edge"><title>Node1&#45;&gt;Node5</title>
<path fill="none" stroke="midnightblue" d="M114.244,-113.5C124.891,-113.5 135.805,-113.5 145.976,-113.5"/>
<polygon fill="midnightblue" stroke="midnightblue" points="114.153,-110 104.153,-113.5 114.152,-117 114.153,-110"/>
</g>
<!-- Node7 -->
<g id="node7" class="node"><title>Node7</title>
<g id="a_node7"><a xlink:href="classcom_1_1tomoparts_1_1tomoBay_1_1model_1_1winstock_1_1Stock.html#a06d21b6ad2b8a746c52fadb5d4711778" target="_top" xlink:title="query winstock for the stock level of a particular part. ">
<polygon fill="white" stroke="black" points="141,-55 141,-74 246,-74 246,-55 141,-55"/>
<text text-anchor="middle" x="193.5" y="-62" font-family="Helvetica,sans-Serif" font-size="10.00">requestStockLevel</text>
</a>
</g>
</g>
<!-- Node1&#45;&gt;Node7 -->
<g id="edge7" class="edge"><title>Node1&#45;&gt;Node7</title>
<path fill="none" stroke="midnightblue" d="M89.9353,-100.526C113.623,-92.2058 143.851,-81.588 165.341,-74.0399"/>
<polygon fill="midnightblue" stroke="midnightblue" points="88.5031,-97.3197 80.2282,-103.936 90.823,-103.924 88.5031,-97.3197"/>
</g>
<!-- Node3 -->
<g id="node3" class="node"><title>Node3</title>
<g id="a_node3"><a xlink:href="classcom_1_1tomoparts_1_1tomoBay_1_1model_1_1dataTypes_1_1order_1_1Part.html#a35fa0786da9722faf378ccf27cccbea6" target="_top" xlink:title="find the description of this part, using winstock ">
<polygon fill="white" stroke="black" points="330,-147.5 330,-177.5 525,-177.5 525,-147.5 330,-147.5"/>
<text text-anchor="start" x="338" y="-165.5" font-family="Helvetica,sans-Serif" font-size="10.00">com.tomoparts.tomoBay.model.data</text>
<text text-anchor="middle" x="427.5" y="-154.5" font-family="Helvetica,sans-Serif" font-size="10.00">Types.order.Part.getDescription</text>
</a>
</g>
</g>
<!-- Node2&#45;&gt;Node3 -->
<g id="edge2" class="edge"><title>Node2&#45;&gt;Node3</title>
<path fill="none" stroke="midnightblue" d="M257.163,-158.121C279.521,-158.699 305.259,-159.364 329.809,-159.999"/>
<polygon fill="midnightblue" stroke="midnightblue" points="257.232,-154.621 247.144,-157.861 257.051,-161.619 257.232,-154.621"/>
</g>
<!-- Node4 -->
<g id="node4" class="node"><title>Node4</title>
<g id="a_node4"><a xlink:href="classcom_1_1tomoparts_1_1tomoBay_1_1model_1_1dataTypes_1_1order_1_1Part.html#a21a16cfaa442e4ae57f10d8cc440c1fa" target="_top" xlink:title="default ctor ">
<polygon fill="white" stroke="black" points="655,-122.5 655,-152.5 850,-152.5 850,-122.5 655,-122.5"/>
<text text-anchor="start" x="663" y="-140.5" font-family="Helvetica,sans-Serif" font-size="10.00">com.tomoparts.tomoBay.model.data</text>
<text text-anchor="middle" x="752.5" y="-129.5" font-family="Helvetica,sans-Serif" font-size="10.00">Types.order.Part.Part</text>
</a>
</g>
</g>
<!-- Node3&#45;&gt;Node4 -->
<g id="edge3" class="edge"><title>Node3&#45;&gt;Node4</title>
<path fill="none" stroke="midnightblue" d="M535.621,-154.209C574.152,-151.227 617.358,-147.883 654.936,-144.974"/>
<polygon fill="midnightblue" stroke="midnightblue" points="535.111,-150.738 525.411,-154.999 535.651,-157.717 535.111,-150.738"/>
</g>
<!-- Node6 -->
<g id="node6" class="node"><title>Node6</title>
<g id="a_node6"><a xlink:href="classcom_1_1tomoparts_1_1tomoBay_1_1model_1_1dataTypes_1_1order_1_1Part.html#aee50f745ad12c48b5f2dc8eda4fdd6ec" target="_top" xlink:title="retrieve the cost of this particular part from winstock ">
<polygon fill="white" stroke="black" points="330,-98.5 330,-128.5 525,-128.5 525,-98.5 330,-98.5"/>
<text text-anchor="start" x="338" y="-116.5" font-family="Helvetica,sans-Serif" font-size="10.00">com.tomoparts.tomoBay.model.data</text>
<text text-anchor="middle" x="427.5" y="-105.5" font-family="Helvetica,sans-Serif" font-size="10.00">Types.order.Part.getCost</text>
</a>
</g>
</g>
<!-- Node5&#45;&gt;Node6 -->
<g id="edge5" class="edge"><title>Node5&#45;&gt;Node6</title>
<path fill="none" stroke="midnightblue" d="M251.325,-113.5C274.901,-113.5 302.932,-113.5 329.581,-113.5"/>
<polygon fill="midnightblue" stroke="midnightblue" points="251.17,-110 241.17,-113.5 251.17,-117 251.17,-110"/>
</g>
<!-- Node6&#45;&gt;Node4 -->
<g id="edge6" class="edge"><title>Node6&#45;&gt;Node4</title>
<path fill="none" stroke="midnightblue" d="M535.621,-121.459C574.152,-124.322 617.358,-127.533 654.936,-130.325"/>
<polygon fill="midnightblue" stroke="midnightblue" points="535.643,-117.951 525.411,-120.701 535.124,-124.932 535.643,-117.951"/>
</g>
<!-- Node8 -->
<g id="node8" class="node"><title>Node8</title>
<g id="a_node8"><a xlink:href="classcom_1_1tomoparts_1_1tomoBay_1_1presenters_1_1helpers_1_1pickeability_1_1ItemStockLevel.html#a22844faa947573bb01d9313f7bdb1e56" target="_top" xlink:title="Takes the list of items generated in this.assembleItemsList and checks a PartList associated with eac...">
<polygon fill="white" stroke="black" points="283,-49.5 283,-79.5 572,-79.5 572,-49.5 283,-49.5"/>
<text text-anchor="start" x="291" y="-67.5" font-family="Helvetica,sans-Serif" font-size="10.00">com.tomoparts.tomoBay.presenters.helpers.pickeability.</text>
<text text-anchor="middle" x="427.5" y="-56.5" font-family="Helvetica,sans-Serif" font-size="10.00">ItemStockLevel.checkStockLevelOfItems</text>
</a>
</g>
</g>
<!-- Node7&#45;&gt;Node8 -->
<g id="edge8" class="edge"><title>Node7&#45;&gt;Node8</title>
<path fill="none" stroke="midnightblue" d="M256.281,-64.5C264.697,-64.5 273.603,-64.5 282.755,-64.5"/>
<polygon fill="midnightblue" stroke="midnightblue" points="256.277,-61.0001 246.277,-64.5 256.277,-68.0001 256.277,-61.0001"/>
</g>
<!-- Node11 -->
<g id="node11" class="node"><title>Node11</title>
<g id="a_node11"><a xlink:href="classcom_1_1tomoparts_1_1tomoBay_1_1model_1_1services_1_1checkErrorsService_1_1OnRunning.html#ae4a4f4cadce2787c7e80005639fbd5d9" target="_top" xlink:title="this method defines what to do in the given derived state ">
<polygon fill="white" stroke="black" points="306,-0.5 306,-30.5 549,-30.5 549,-0.5 306,-0.5"/>
<text text-anchor="start" x="314" y="-18.5" font-family="Helvetica,sans-Serif" font-size="10.00">com.tomoparts.tomoBay.model.services.check</text>
<text text-anchor="middle" x="427.5" y="-7.5" font-family="Helvetica,sans-Serif" font-size="10.00">ErrorsService.OnRunning.execute</text>
</a>
</g>
</g>
<!-- Node7&#45;&gt;Node11 -->
<g id="edge11" class="edge"><title>Node7&#45;&gt;Node11</title>
<path fill="none" stroke="midnightblue" d="M234.989,-52.0548C249.98,-47.7142 267.177,-43.0468 283,-39.5 297.419,-36.2679 312.741,-33.2597 327.801,-30.5419"/>
<polygon fill="midnightblue" stroke="midnightblue" points="233.614,-48.811 225.007,-54.9898 235.588,-55.5267 233.614,-48.811"/>
</g>
<!-- Node9 -->
<g id="node9" class="node"><title>Node9</title>
<g id="a_node9"><a xlink:href="classcom_1_1tomoparts_1_1tomoBay_1_1presenters_1_1helpers_1_1pickeability_1_1ItemStockLevel.html#a1aed814db05c4991e9bc719f39ea62ce" target="_top" xlink:title="com.tomoparts.tomoBay.presenters.helpers.pickeability.\lItemStockLevel.check">
<polygon fill="white" stroke="black" points="608,-49.5 608,-79.5 897,-79.5 897,-49.5 608,-49.5"/>
<text text-anchor="start" x="616" y="-67.5" font-family="Helvetica,sans-Serif" font-size="10.00">com.tomoparts.tomoBay.presenters.helpers.pickeability.</text>
<text text-anchor="middle" x="752.5" y="-56.5" font-family="Helvetica,sans-Serif" font-size="10.00">ItemStockLevel.check</text>
</a>
</g>
</g>
<!-- Node8&#45;&gt;Node9 -->
<g id="edge9" class="edge"><title>Node8&#45;&gt;Node9</title>
<path fill="none" stroke="midnightblue" d="M582.101,-64.5C590.677,-64.5 599.282,-64.5 607.821,-64.5"/>
<polygon fill="midnightblue" stroke="midnightblue" points="582.054,-61.0001 572.054,-64.5 582.053,-68.0001 582.054,-61.0001"/>
</g>
<!-- Node10 -->
<g id="node10" class="node"><title>Node10</title>
<g id="a_node10"><a xlink:href="classcom_1_1tomoparts_1_1tomoBay_1_1presenters_1_1helpers_1_1pickeability_1_1Pickeablity.html#ae05e03af15e33d53f9e0511ec0295a04" target="_top" xlink:title="default ctor ">
<polygon fill="white" stroke="black" points="933,-49.5 933,-79.5 1222,-79.5 1222,-49.5 933,-49.5"/>
<text text-anchor="start" x="941" y="-67.5" font-family="Helvetica,sans-Serif" font-size="10.00">com.tomoparts.tomoBay.presenters.helpers.pickeability.</text>
<text text-anchor="middle" x="1077.5" y="-56.5" font-family="Helvetica,sans-Serif" font-size="10.00">Pickeablity.Pickeablity</text>
</a>
</g>
</g>
<!-- Node9&#45;&gt;Node10 -->
<g id="edge10" class="edge"><title>Node9&#45;&gt;Node10</title>
<path fill="none" stroke="midnightblue" d="M907.101,-64.5C915.677,-64.5 924.282,-64.5 932.821,-64.5"/>
<polygon fill="midnightblue" stroke="midnightblue" points="907.054,-61.0001 897.054,-64.5 907.053,-68.0001 907.054,-61.0001"/>
</g>
<!-- Node12 -->
<g id="node12" class="node"><title>Node12</title>
<g id="a_node12"><a xlink:href="classcom_1_1tomoparts_1_1tomoBay_1_1model_1_1services_1_1checkErrorsService_1_1CheckErrorsService.html#ae3b0a282dcba7f2d675ca89b1dd48487" target="_top" xlink:title="com.tomoparts.tomoBay.model.services.check\lErrorsService.CheckErrorsService.onRunning">
<polygon fill="white" stroke="black" points="631,-0.5 631,-30.5 874,-30.5 874,-0.5 631,-0.5"/>
<text text-anchor="start" x="639" y="-18.5" font-family="Helvetica,sans-Serif" font-size="10.00">com.tomoparts.tomoBay.model.services.check</text>
<text text-anchor="middle" x="752.5" y="-7.5" font-family="Helvetica,sans-Serif" font-size="10.00">ErrorsService.CheckErrorsService.onRunning</text>
</a>
</g>
</g>
<!-- Node11&#45;&gt;Node12 -->
<g id="edge12" class="edge"><title>Node11&#45;&gt;Node12</title>
<path fill="none" stroke="midnightblue" d="M559.313,-15.5C582.979,-15.5 607.557,-15.5 630.914,-15.5"/>
<polygon fill="midnightblue" stroke="midnightblue" points="559.233,-12.0001 549.233,-15.5 559.233,-19.0001 559.233,-12.0001"/>
</g>
</g>
</svg>
        <g id="navigator" transform="translate(0 0)" fill="#404254">
                <rect fill="#f2f5e9" fill-opacity="0.5" stroke="#606060" stroke-width=".5" x="0" y="0" width="60" height="60"/>
                <use id="zoomplus" xlink:href="#zoomPlus" x="17" y="9" onmousedown="handleZoom(evt,'in')"/>
                <use id="zoomminus" xlink:href="#zoomMin" x="42" y="9" onmousedown="handleZoom(evt,'out')"/>
                <use id="reset" xlink:href="#resetDef" x="30" y="36" onmousedown="handleReset()"/>
                <g id="arrowUp" xlink:href="#dirArrow" transform="translate(30 24)" onmousedown="handlePan(0,-1)">
                  <use xlink:href="#rim" fill="#404040">
                        <set attributeName="fill" to="#808080" begin="arrowUp.mouseover" end="arrowUp.mouseout"/>
                  </use>
                  <path fill="none" stroke="white" stroke-width="1.5" d="M0,-3.0v7 M-2.5,-0.5L0,-3.0L2.5,-0.5"/>
                </g>
                <g id="arrowRight" xlink:href="#dirArrow" transform="rotate(90) translate(36 -43)" onmousedown="handlePan(1,0)">
                  <use xlink:href="#rim" fill="#404040">
                        <set attributeName="fill" to="#808080" begin="arrowRight.mouseover" end="arrowRight.mouseout"/>
                  </use>
                  <path fill="none" stroke="white" stroke-width="1.5" d="M0,-3.0v7 M-2.5,-0.5L0,-3.0L2.5,-0.5"/>
                </g>
                <g id="arrowDown" xlink:href="#dirArrow" transform="rotate(180) translate(-30 -48)" onmousedown="handlePan(0,1)">
                  <use xlink:href="#rim" fill="#404040">
                        <set attributeName="fill" to="#808080" begin="arrowDown.mouseover" end="arrowDown.mouseout"/>
                  </use>
                  <path fill="none" stroke="white" stroke-width="1.5" d="M0,-3.0v7 M-2.5,-0.5L0,-3.0L2.5,-0.5"/>
                </g>
                <g id="arrowLeft" xlink:href="#dirArrow" transform="rotate(270) translate(-36 17)" onmousedown="handlePan(-1,0)">
                  <use xlink:href="#rim" fill="#404040">
                        <set attributeName="fill" to="#808080" begin="arrowLeft.mouseover" end="arrowLeft.mouseout"/>
                  </use>
                  <path fill="none" stroke="white" stroke-width="1.5" d="M0,-3.0v7 M-2.5,-0.5L0,-3.0L2.5,-0.5"/>
                </g>
        </g>
        <svg viewBox="0 0 15 15" width="100%" height="30px" preserveAspectRatio="xMaxYMin meet">
         <g id="arrow_out" transform="scale(0.3 0.3)">
          <a xlink:href="classcom_1_1tomoparts_1_1tomoBay_1_1model_1_1winstock_1_1Stock_a82b5421e7d3a2ba82bdc5d54b09a8069_icgraph_org.svg" target="_base">
           <rect id="button" ry="5" rx="5" y="6" x="6" height="38" width="38"
                fill="#f2f5e9" fill-opacity="0.5" stroke="#606060" stroke-width="1.0"/>
           <path id="arrow"
             d="M 11.500037,31.436501 C 11.940474,20.09759 22.043105,11.32322 32.158766,21.979434 L 37.068811,17.246167 C 37.068811,17.246167 37.088388,32 37.088388,32 L 22.160133,31.978069 C 22.160133,31.978069 26.997745,27.140456 26.997745,27.140456 C 18.528582,18.264221 13.291696,25.230495 11.500037,31.436501 z"
             style="fill:#404040;"/>
          </a>
         </g>
        </svg>
</svg>
