<?xml version="1.0" encoding="UTF-8" standalone="no"?>
<!DOCTYPE svg PUBLIC "-//W3C//DTD SVG 1.1//EN"
 "http://www.w3.org/Graphics/SVG/1.1/DTD/svg11.dtd">
<!-- Generated by graphviz version 2.38.0 (20140413.2041)
 -->
<!-- Title: start Pages: 1 -->
<svg width="385pt" height="333pt"
 viewBox="0.00 0.00 385.00 333.00" xmlns="http://www.w3.org/2000/svg" xmlns:xlink="http://www.w3.org/1999/xlink">
<g id="graph0" class="graph" transform="scale(1 1) rotate(0) translate(4 329)">
<title>start</title>
<polygon fill="white" stroke="none" points="-4,4 -4,-329 381,-329 381,4 -4,4"/>
<!-- Node1 -->
<g id="node1" class="node"><title>Node1</title>
<polygon fill="#bfbfbf" stroke="black" points="0,-153 0,-172 39,-172 39,-153 0,-153"/>
<text text-anchor="middle" x="19.5" y="-160" font-family="Helvetica,sans-Serif" font-size="10.00">start</text>
</g>
<!-- Node2 -->
<g id="node2" class="node"><title>Node2</title>
<g id="a_node2"><a xlink:href="classcom_1_1tomoparts_1_1tomoBay_1_1presenters_1_1presenterActions_1_1concreteActions_1_1ReScanListing.html#adb3dedf31dc2c7fc796f20406c235ccd" target="_top" xlink:title="performs the action specified ">
<polygon fill="white" stroke="black" points="104.5,-294.5 104.5,-324.5 347.5,-324.5 347.5,-294.5 104.5,-294.5"/>
<text text-anchor="start" x="112.5" y="-312.5" font-family="Helvetica,sans-Serif" font-size="10.00">com.tomoparts.tomoBay.presenters.presenter</text>
<text text-anchor="middle" x="226" y="-301.5" font-family="Helvetica,sans-Serif" font-size="10.00">Actions.concreteActions.ReScanListing.execute</text>
</a>
</g>
</g>
<!-- Node1&#45;&gt;Node2 -->
<g id="edge1" class="edge"><title>Node1&#45;&gt;Node2</title>
<path fill="none" stroke="midnightblue" d="M23.3098,-182.128C28.3828,-209.855 41.8193,-259.951 75,-285.5 83.7763,-292.258 93.7104,-297.444 104.186,-301.393"/>
<polygon fill="midnightblue" stroke="midnightblue" points="26.7317,-181.367 21.6595,-172.065 19.824,-182.5 26.7317,-181.367"/>
</g>
<!-- Node3 -->
<g id="node3" class="node"><title>Node3</title>
<g id="a_node3"><a xlink:href="classcom_1_1tomoparts_1_1tomoBay_1_1presenters_1_1presenterActions_1_1concreteActions_1_1ReScanBuyer.html#adb3dedf31dc2c7fc796f20406c235ccd" target="_top" xlink:title="performs the action specified ">
<polygon fill="white" stroke="black" points="105,-245.5 105,-275.5 347,-275.5 347,-245.5 105,-245.5"/>
<text text-anchor="start" x="113" y="-263.5" font-family="Helvetica,sans-Serif" font-size="10.00">com.tomoparts.tomoBay.presenters.presenter</text>
<text text-anchor="middle" x="226" y="-252.5" font-family="Helvetica,sans-Serif" font-size="10.00">Actions.concreteActions.ReScanBuyer.execute</text>
</a>
</g>
</g>
<!-- Node1&#45;&gt;Node3 -->
<g id="edge2" class="edge"><title>Node1&#45;&gt;Node3</title>
<path fill="none" stroke="midnightblue" d="M29.0241,-181.241C37.9263,-198.535 53.588,-223.451 75,-236.5 84.2333,-242.127 94.3566,-246.567 104.848,-250.057"/>
<polygon fill="midnightblue" stroke="midnightblue" points="32.0927,-179.547 24.5714,-172.086 25.7978,-182.609 32.0927,-179.547"/>
</g>
<!-- Node4 -->
<g id="node4" class="node"><title>Node4</title>
<g id="a_node4"><a xlink:href="classcom_1_1tomoparts_1_1tomoBay_1_1test_1_1unit_1_1model_1_1services_1_1individualItemRefreshSe7eedc39c8ddb66d76aa03d307e0beb21.html#a8b260eecbaabcef8473fd87ada040682" target="_top" xlink:title="com.tomoparts.tomoBay.test.unit.model.services.individual\lItemRefreshService.IndividualItemRefreshServiceTest.main">
<polygon fill="white" stroke="black" points="75,-196.5 75,-226.5 377,-226.5 377,-196.5 75,-196.5"/>
<text text-anchor="start" x="83" y="-214.5" font-family="Helvetica,sans-Serif" font-size="10.00">com.tomoparts.tomoBay.test.unit.model.services.individual</text>
<text text-anchor="middle" x="226" y="-203.5" font-family="Helvetica,sans-Serif" font-size="10.00">ItemRefreshService.IndividualItemRefreshServiceTest.main</text>
</a>
</g>
</g>
<!-- Node1&#45;&gt;Node4 -->
<g id="edge3" class="edge"><title>Node1&#45;&gt;Node4</title>
<path fill="none" stroke="midnightblue" d="M47.3802,-176.583C56.0095,-180.624 65.7353,-184.691 75,-187.5 86.3573,-190.943 98.3567,-193.918 110.421,-196.481"/>
<polygon fill="midnightblue" stroke="midnightblue" points="48.7089,-173.337 38.1865,-172.101 45.6412,-179.629 48.7089,-173.337"/>
</g>
<!-- Node5 -->
<g id="node5" class="node"><title>Node5</title>
<g id="a_node5"><a xlink:href="classcom_1_1tomoparts_1_1tomoBay_1_1test_1_1unit_1_1model_1_1services_1_1checkErrorsService_1_1CheckErrorsServiceTest.html#a8b260eecbaabcef8473fd87ada040682" target="_top" xlink:title="com.tomoparts.tomoBay.test.unit.model.services.check\lErrorsService.CheckErrorsServiceTest.main">
<polygon fill="white" stroke="black" points="83,-147.5 83,-177.5 369,-177.5 369,-147.5 83,-147.5"/>
<text text-anchor="start" x="91" y="-165.5" font-family="Helvetica,sans-Serif" font-size="10.00">com.tomoparts.tomoBay.test.unit.model.services.check</text>
<text text-anchor="middle" x="226" y="-154.5" font-family="Helvetica,sans-Serif" font-size="10.00">ErrorsService.CheckErrorsServiceTest.main</text>
</a>
</g>
</g>
<!-- Node1&#45;&gt;Node5 -->
<g id="edge4" class="edge"><title>Node1&#45;&gt;Node5</title>
<path fill="none" stroke="midnightblue" d="M49.1019,-162.5C58.7935,-162.5 70.3658,-162.5 82.8831,-162.5"/>
<polygon fill="midnightblue" stroke="midnightblue" points="49.0087,-159 39.0087,-162.5 49.0087,-166 49.0087,-159"/>
</g>
<!-- Node6 -->
<g id="node6" class="node"><title>Node6</title>
<g id="a_node6"><a xlink:href="classcom_1_1tomoparts_1_1tomoBay_1_1test_1_1unit_1_1model_1_1services_1_1BasicEbayService_1_1BasicEbayServiceTest.html#a8b260eecbaabcef8473fd87ada040682" target="_top" xlink:title="com.tomoparts.tomoBay.test.unit.model.services.\lBasicEbayService.BasicEbayServiceTest.main">
<polygon fill="white" stroke="black" points="97,-98.5 97,-128.5 355,-128.5 355,-98.5 97,-98.5"/>
<text text-anchor="start" x="105" y="-116.5" font-family="Helvetica,sans-Serif" font-size="10.00">com.tomoparts.tomoBay.test.unit.model.services.</text>
<text text-anchor="middle" x="226" y="-105.5" font-family="Helvetica,sans-Serif" font-size="10.00">BasicEbayService.BasicEbayServiceTest.main</text>
</a>
</g>
</g>
<!-- Node1&#45;&gt;Node6 -->
<g id="edge5" class="edge"><title>Node1&#45;&gt;Node6</title>
<path fill="none" stroke="midnightblue" d="M48.527,-148.56C56.8831,-144.844 66.1704,-141.135 75,-138.5 87.9023,-134.65 101.617,-131.342 115.308,-128.512"/>
<polygon fill="midnightblue" stroke="midnightblue" points="46.8349,-145.486 39.2286,-152.861 49.774,-151.839 46.8349,-145.486"/>
</g>
<!-- Node7 -->
<g id="node7" class="node"><title>Node7</title>
<g id="a_node7"><a xlink:href="classcom_1_1tomoparts_1_1tomoBay_1_1test_1_1unit_1_1model_1_1services_1_1reScanErrorsService_1_1ReScanErrorsServiceTest.html#a8b260eecbaabcef8473fd87ada040682" target="_top" xlink:title="com.tomoparts.tomoBay.test.unit.model.services.re\lScanErrorsService.ReScanErrorsServiceTest.main">
<polygon fill="white" stroke="black" points="92,-49.5 92,-79.5 360,-79.5 360,-49.5 92,-49.5"/>
<text text-anchor="start" x="100" y="-67.5" font-family="Helvetica,sans-Serif" font-size="10.00">com.tomoparts.tomoBay.test.unit.model.services.re</text>
<text text-anchor="middle" x="226" y="-56.5" font-family="Helvetica,sans-Serif" font-size="10.00">ScanErrorsService.ReScanErrorsServiceTest.main</text>
</a>
</g>
</g>
<!-- Node1&#45;&gt;Node7 -->
<g id="edge6" class="edge"><title>Node1&#45;&gt;Node7</title>
<path fill="none" stroke="midnightblue" d="M29.2514,-143.768C38.2379,-126.739 53.8879,-102.366 75,-89.5 81.3124,-85.6531 88.0384,-82.3486 95.012,-79.5139"/>
<polygon fill="midnightblue" stroke="midnightblue" points="26.0757,-142.293 24.7393,-152.803 32.3382,-145.421 26.0757,-142.293"/>
</g>
<!-- Node8 -->
<g id="node8" class="node"><title>Node8</title>
<g id="a_node8"><a xlink:href="classcom_1_1tomoparts_1_1tomoBay_1_1test_1_1unit_1_1model_1_1services_1_1emailErrorsService_1_1EmailErrorsServiceTest.html#a8b260eecbaabcef8473fd87ada040682" target="_top" xlink:title="com.tomoparts.tomoBay.test.unit.model.services.email\lErrorsService.EmailErrorsServiceTest.main">
<polygon fill="white" stroke="black" points="84,-0.5 84,-30.5 368,-30.5 368,-0.5 84,-0.5"/>
<text text-anchor="start" x="92" y="-18.5" font-family="Helvetica,sans-Serif" font-size="10.00">com.tomoparts.tomoBay.test.unit.model.services.email</text>
<text text-anchor="middle" x="226" y="-7.5" font-family="Helvetica,sans-Serif" font-size="10.00">ErrorsService.EmailErrorsServiceTest.main</text>
</a>
</g>
</g>
<!-- Node1&#45;&gt;Node8 -->
<g id="edge7" class="edge"><title>Node1&#45;&gt;Node8</title>
<path fill="none" stroke="midnightblue" d="M23.4589,-142.65C28.6774,-115.099 42.2499,-65.808 75,-40.5 79.9092,-36.7063 85.1811,-33.3985 90.7078,-30.5193"/>
<polygon fill="midnightblue" stroke="midnightblue" points="19.9793,-142.234 21.7493,-152.68 26.8798,-143.411 19.9793,-142.234"/>
</g>
</g>
</svg>
