<?xml version="1.0" encoding="UTF-8" standalone="no"?>
<!DOCTYPE svg PUBLIC "-//W3C//DTD SVG 1.1//EN"
 "http://www.w3.org/Graphics/SVG/1.1/DTD/svg11.dtd">
<!-- Generated by graphviz version 2.38.0 (20140413.2041)
 -->
<!-- Title: requestStockLevel Pages: 1 -->
<svg width="556pt" height="116pt"
 viewBox="0.00 0.00 556.00 115.50" xmlns="http://www.w3.org/2000/svg" xmlns:xlink="http://www.w3.org/1999/xlink">
<g id="graph0" class="graph" transform="scale(1 1) rotate(0) translate(4 111.5)">
<title>requestStockLevel</title>
<polygon fill="white" stroke="none" points="-4,4 -4,-111.5 552,-111.5 552,4 -4,4"/>
<!-- Node1 -->
<g id="node1" class="node"><title>Node1</title>
<polygon fill="#bfbfbf" stroke="black" points="0,-38.5 0,-57.5 105,-57.5 105,-38.5 0,-38.5"/>
<text text-anchor="middle" x="52.5" y="-45.5" font-family="Helvetica,sans-Serif" font-size="10.00">requestStockLevel</text>
</g>
<!-- Node2 -->
<g id="node2" class="node"><title>Node2</title>
<g id="a_node2"><a xlink:href="classcom_1_1tomoparts_1_1tomoBay_1_1helpers_1_1XMLParser.html#a9936151017dd4e908cf37d453b22c8ef" target="_top" xlink:title="parses an XML formatted string looking for the first tag specified in the parameters. ">
<polygon fill="white" stroke="black" points="141,-77 141,-107 320,-107 320,-77 141,-77"/>
<text text-anchor="start" x="149" y="-95" font-family="Helvetica,sans-Serif" font-size="10.00">com.tomoparts.tomoBay.helpers.</text>
<text text-anchor="middle" x="230.5" y="-84" font-family="Helvetica,sans-Serif" font-size="10.00">XMLParser.parse</text>
</a>
</g>
</g>
<!-- Node1&#45;&gt;Node2 -->
<g id="edge1" class="edge"><title>Node1&#45;&gt;Node2</title>
<path fill="none" stroke="midnightblue" d="M91.6894,-57.5473C111.505,-62.5012 136.345,-68.7112 159.458,-74.4895"/>
<polygon fill="midnightblue" stroke="midnightblue" points="158.688,-77.9047 169.239,-76.9346 160.386,-71.1137 158.688,-77.9047"/>
</g>
<!-- Node3 -->
<g id="node3" class="node"><title>Node3</title>
<g id="a_node3"><a xlink:href="classcom_1_1tomoparts_1_1tomoBay_1_1model_1_1winstock_1_1Stock.html#a42fa652d82ed49749a0ad929a6c798d0" target="_top" xlink:title="remove the header bumpf from the bottom of the response ">
<polygon fill="white" stroke="black" points="169.5,-38.5 169.5,-57.5 291.5,-57.5 291.5,-38.5 169.5,-38.5"/>
<text text-anchor="middle" x="230.5" y="-45.5" font-family="Helvetica,sans-Serif" font-size="10.00">postFormatXMLString</text>
</a>
</g>
</g>
<!-- Node1&#45;&gt;Node3 -->
<g id="edge2" class="edge"><title>Node1&#45;&gt;Node3</title>
<path fill="none" stroke="midnightblue" d="M105.354,-48C122.215,-48 141.219,-48 159.196,-48"/>
<polygon fill="midnightblue" stroke="midnightblue" points="159.346,-51.5001 169.346,-48 159.346,-44.5001 159.346,-51.5001"/>
</g>
<!-- Node5 -->
<g id="node5" class="node"><title>Node5</title>
<g id="a_node5"><a xlink:href="classcom_1_1tomoparts_1_1tomoBay_1_1model_1_1winstock_1_1Stock.html#a82b5421e7d3a2ba82bdc5d54b09a8069" target="_top" xlink:title="queryWinstockURL">
<polygon fill="white" stroke="black" points="178.5,-0.5 178.5,-19.5 282.5,-19.5 282.5,-0.5 178.5,-0.5"/>
<text text-anchor="middle" x="230.5" y="-7.5" font-family="Helvetica,sans-Serif" font-size="10.00">queryWinstockURL</text>
</a>
</g>
</g>
<!-- Node1&#45;&gt;Node5 -->
<g id="edge4" class="edge"><title>Node1&#45;&gt;Node5</title>
<path fill="none" stroke="midnightblue" d="M97.5603,-38.4115C111.457,-35.3929 126.869,-32.0511 141,-29 151.937,-26.6385 163.637,-24.1207 174.829,-21.7164"/>
<polygon fill="midnightblue" stroke="midnightblue" points="175.885,-25.0694 184.927,-19.548 174.415,-18.2254 175.885,-25.0694"/>
</g>
<!-- Node4 -->
<g id="node4" class="node"><title>Node4</title>
<g id="a_node4"><a xlink:href="classcom_1_1tomoparts_1_1tomoBay_1_1model_1_1net_1_1HttpResponse.html#afb798c825935128953439404fb763997" target="_top" xlink:title="get the Response message ">
<polygon fill="white" stroke="black" points="356,-33 356,-63 548,-63 548,-33 356,-33"/>
<text text-anchor="start" x="364" y="-51" font-family="Helvetica,sans-Serif" font-size="10.00">com.tomoparts.tomoBay.model.net.</text>
<text text-anchor="middle" x="452" y="-40" font-family="Helvetica,sans-Serif" font-size="10.00">HttpResponse.getResponseMessage</text>
</a>
</g>
</g>
<!-- Node3&#45;&gt;Node4 -->
<g id="edge3" class="edge"><title>Node3&#45;&gt;Node4</title>
<path fill="none" stroke="midnightblue" d="M291.77,-48C308.475,-48 327.115,-48 345.59,-48"/>
<polygon fill="midnightblue" stroke="midnightblue" points="345.824,-51.5001 355.824,-48 345.824,-44.5001 345.824,-51.5001"/>
</g>
</g>
</svg>
