<?xml version="1.0" encoding="UTF-8" standalone="no"?>
<!DOCTYPE svg PUBLIC "-//W3C//DTD SVG 1.1//EN"
 "http://www.w3.org/Graphics/SVG/1.1/DTD/svg11.dtd">
<!-- Generated by graphviz version 2.38.0 (20140413.2041)
 -->
<!-- Title: adjust Pages: 1 -->
<svg width="566pt" height="61pt"
 viewBox="0.00 0.00 566.00 61.00" xmlns="http://www.w3.org/2000/svg" xmlns:xlink="http://www.w3.org/1999/xlink">
<g id="graph0" class="graph" transform="scale(1 1) rotate(0) translate(4 57)">
<title>adjust</title>
<polygon fill="white" stroke="none" points="-4,4 -4,-57 562,-57 562,4 -4,4"/>
<!-- Node1 -->
<g id="node1" class="node"><title>Node1</title>
<polygon fill="#bfbfbf" stroke="black" points="0,-17 0,-36 46,-36 46,-17 0,-17"/>
<text text-anchor="middle" x="23" y="-24" font-family="Helvetica,sans-Serif" font-size="10.00">adjust</text>
</g>
<!-- Node2 -->
<g id="node2" class="node"><title>Node2</title>
<g id="a_node2"><a xlink:href="classcom_1_1tomoparts_1_1tomoBay_1_1model_1_1dataTypes_1_1financial_1_1SalesOrderDayBook_1_1AbstractSalesDayBookLine.html#a0c8ce8b50d57fa99babc2c2199a39fe3" target="_top" xlink:title="com.tomoparts.tomoBay.model.data\lTypes.financial.SalesOrderDayBook.\lAbstractSalesDayBookLine.adjustPrices">
<polygon fill="white" stroke="black" points="82,-6 82,-47 288,-47 288,-6 82,-6"/>
<text text-anchor="start" x="90" y="-35" font-family="Helvetica,sans-Serif" font-size="10.00">com.tomoparts.tomoBay.model.data</text>
<text text-anchor="start" x="90" y="-24" font-family="Helvetica,sans-Serif" font-size="10.00">Types.financial.SalesOrderDayBook.</text>
<text text-anchor="middle" x="185" y="-13" font-family="Helvetica,sans-Serif" font-size="10.00">AbstractSalesDayBookLine.adjustPrices</text>
</a>
</g>
</g>
<!-- Node1&#45;&gt;Node2 -->
<g id="edge1" class="edge"><title>Node1&#45;&gt;Node2</title>
<path fill="none" stroke="midnightblue" d="M56.4565,-26.5C64.1491,-26.5 72.7623,-26.5 81.7849,-26.5"/>
<polygon fill="midnightblue" stroke="midnightblue" points="56.2473,-23.0001 46.2473,-26.5 56.2473,-30.0001 56.2473,-23.0001"/>
</g>
<!-- Node3 -->
<g id="node3" class="node"><title>Node3</title>
<g id="a_node3"><a xlink:href="classcom_1_1tomoparts_1_1tomoBay_1_1model_1_1dataTypes_1_1financial_1_1SalesOrderDayBook_1_1AbstractSalesDayBookLine.html#ae9d19609629c59f8df7ddec196fcc30c" target="_top" xlink:title="CONSTRUCTOR, creates a SalesDayBookLine based on the Order passed in as a parameter. ">
<polygon fill="white" stroke="black" points="324,-0.5 324,-52.5 558,-52.5 558,-0.5 324,-0.5"/>
<text text-anchor="start" x="332" y="-40.5" font-family="Helvetica,sans-Serif" font-size="10.00">com.tomoparts.tomoBay.model.data</text>
<text text-anchor="start" x="332" y="-29.5" font-family="Helvetica,sans-Serif" font-size="10.00">Types.financial.SalesOrderDayBook.</text>
<text text-anchor="start" x="332" y="-18.5" font-family="Helvetica,sans-Serif" font-size="10.00">AbstractSalesDayBookLine.AbstractSalesDay</text>
<text text-anchor="middle" x="441" y="-7.5" font-family="Helvetica,sans-Serif" font-size="10.00">BookLine</text>
</a>
</g>
</g>
<!-- Node2&#45;&gt;Node3 -->
<g id="edge2" class="edge"><title>Node2&#45;&gt;Node3</title>
<path fill="none" stroke="midnightblue" d="M298.438,-26.5C306.864,-26.5 315.376,-26.5 323.824,-26.5"/>
<polygon fill="midnightblue" stroke="midnightblue" points="298.214,-23.0001 288.214,-26.5 298.214,-30.0001 298.214,-23.0001"/>
</g>
</g>
</svg>
