<?xml version="1.0" encoding="UTF-8" standalone="no"?>
<!DOCTYPE svg PUBLIC "-//W3C//DTD SVG 1.1//EN"
 "http://www.w3.org/Graphics/SVG/1.1/DTD/svg11.dtd">
<!-- Generated by graphviz version 2.38.0 (20140413.2041)
 -->
<!-- Title: send Pages: 1 -->
<svg width="819pt" height="482pt"
 viewBox="0.00 0.00 819.00 482.00" xmlns="http://www.w3.org/2000/svg" xmlns:xlink="http://www.w3.org/1999/xlink">
<g id="graph0" class="graph" transform="scale(1 1) rotate(0) translate(4 478)">
<title>send</title>
<polygon fill="white" stroke="none" points="-4,4 -4,-478 815,-478 815,4 -4,4"/>
<!-- Node1 -->
<g id="node1" class="node"><title>Node1</title>
<polygon fill="#bfbfbf" stroke="black" points="0,-241 0,-260 40,-260 40,-241 0,-241"/>
<text text-anchor="middle" x="20" y="-248" font-family="Helvetica,sans-Serif" font-size="10.00">send</text>
</g>
<!-- Node2 -->
<g id="node2" class="node"><title>Node2</title>
<g id="a_node2"><a xlink:href="classcom_1_1tomoparts_1_1tomoBay_1_1model_1_1net_1_1email_1_1EmailDirector.html#adf12228c8c87e1262bbaf8b71fb856fc" target="_top" xlink:title="initialises the email and server objects ready to be retrieved by the get methods. ">
<polygon fill="white" stroke="black" points="76,-388.5 76,-418.5 297,-418.5 297,-388.5 76,-388.5"/>
<text text-anchor="start" x="84" y="-406.5" font-family="Helvetica,sans-Serif" font-size="10.00">com.tomoparts.tomoBay.model.net.email.</text>
<text text-anchor="middle" x="186.5" y="-395.5" font-family="Helvetica,sans-Serif" font-size="10.00">EmailDirector.constructEmailAndServer</text>
</a>
</g>
</g>
<!-- Node1&#45;&gt;Node2 -->
<g id="edge1" class="edge"><title>Node1&#45;&gt;Node2</title>
<path fill="none" stroke="midnightblue" d="M26.9297,-260.348C36.2077,-275.273 55.2544,-304.046 76,-324.5 98.8417,-347.02 128.55,-368.036 151.258,-382.722"/>
<polygon fill="midnightblue" stroke="midnightblue" points="149.584,-385.805 159.898,-388.225 153.344,-379.901 149.584,-385.805"/>
</g>
<!-- Node5 -->
<g id="node5" class="node"><title>Node5</title>
<g id="a_node5"><a xlink:href="classcom_1_1tomoparts_1_1tomoBay_1_1helpers_1_1ConfigReader.html#a310420c6db22982498520c2ad7a2b82f" target="_top" xlink:title="find the value of the config variable specified in the arguments. ">
<polygon fill="white" stroke="black" points="97,-284.5 97,-314.5 276,-314.5 276,-284.5 97,-284.5"/>
<text text-anchor="start" x="105" y="-302.5" font-family="Helvetica,sans-Serif" font-size="10.00">com.tomoparts.tomoBay.helpers.</text>
<text text-anchor="middle" x="186.5" y="-291.5" font-family="Helvetica,sans-Serif" font-size="10.00">ConfigReader.getConf</text>
</a>
</g>
</g>
<!-- Node1&#45;&gt;Node5 -->
<g id="edge4" class="edge"><title>Node1&#45;&gt;Node5</title>
<path fill="none" stroke="midnightblue" d="M39.4433,-260.065C49.9404,-265.206 63.46,-271.328 76,-275.5 82.8556,-277.781 90.0257,-279.905 97.2749,-281.87"/>
<polygon fill="midnightblue" stroke="midnightblue" points="96.6278,-285.318 107.187,-284.45 98.3913,-278.544 96.6278,-285.318"/>
</g>
<!-- Node9 -->
<g id="node9" class="node"><title>Node9</title>
<g id="a_node9"><a xlink:href="classcom_1_1tomoparts_1_1tomoBay_1_1model_1_1net_1_1email_1_1EmailDirector.html#a37f3f83a029e5330f47fbf564e17ebb3" target="_top" xlink:title="Provides functionality to access a MailServerSend object, which allows the sending of an Email...">
<polygon fill="white" stroke="black" points="76,-235.5 76,-265.5 297,-265.5 297,-235.5 76,-235.5"/>
<text text-anchor="start" x="84" y="-253.5" font-family="Helvetica,sans-Serif" font-size="10.00">com.tomoparts.tomoBay.model.net.email.</text>
<text text-anchor="middle" x="186.5" y="-242.5" font-family="Helvetica,sans-Serif" font-size="10.00">EmailDirector.getMailSendServer</text>
</a>
</g>
</g>
<!-- Node1&#45;&gt;Node9 -->
<g id="edge8" class="edge"><title>Node1&#45;&gt;Node9</title>
<path fill="none" stroke="midnightblue" d="M40.1922,-250.5C47.3001,-250.5 55.9783,-250.5 65.5216,-250.5"/>
<polygon fill="midnightblue" stroke="midnightblue" points="65.7503,-254 75.7502,-250.5 65.7502,-247 65.7503,-254"/>
</g>
<!-- Node10 -->
<g id="node10" class="node"><title>Node10</title>
<g id="a_node10"><a xlink:href="classcom_1_1tomoparts_1_1tomoBay_1_1model_1_1net_1_1email_1_1MailServerSend.html#ae0ea6b0d6bda14c2c1ea809ca187c4be" target="_top" xlink:title="this method sends the given email using the userID and password provided in the arguments ...">
<polygon fill="white" stroke="black" points="76,-186.5 76,-216.5 297,-216.5 297,-186.5 76,-186.5"/>
<text text-anchor="start" x="84" y="-204.5" font-family="Helvetica,sans-Serif" font-size="10.00">com.tomoparts.tomoBay.model.net.email.</text>
<text text-anchor="middle" x="186.5" y="-193.5" font-family="Helvetica,sans-Serif" font-size="10.00">MailServerSend.send</text>
</a>
</g>
</g>
<!-- Node1&#45;&gt;Node10 -->
<g id="edge9" class="edge"><title>Node1&#45;&gt;Node10</title>
<path fill="none" stroke="midnightblue" d="M40.0013,-241.159C50.4416,-236.296 63.7291,-230.539 76,-226.5 84.1418,-223.82 92.716,-221.324 101.334,-219.027"/>
<polygon fill="midnightblue" stroke="midnightblue" points="102.253,-222.404 111.062,-216.518 100.505,-215.626 102.253,-222.404"/>
</g>
<!-- Node13 -->
<g id="node13" class="node"><title>Node13</title>
<g id="a_node13"><a xlink:href="classcom_1_1tomoparts_1_1tomoBay_1_1model_1_1net_1_1email_1_1MailClient.html#ab932ccc2020ca1398b5eb546e77a8d63" target="_top" xlink:title="set up the email ready to use in the rest of the mail client ">
<polygon fill="white" stroke="black" points="151,-80 151,-99 222,-99 222,-80 151,-80"/>
<text text-anchor="middle" x="186.5" y="-87" font-family="Helvetica,sans-Serif" font-size="10.00">setUpEmail</text>
</a>
</g>
</g>
<!-- Node1&#45;&gt;Node13 -->
<g id="edge13" class="edge"><title>Node1&#45;&gt;Node13</title>
<path fill="none" stroke="midnightblue" d="M27.0501,-240.771C36.4853,-226.002 55.7345,-197.429 76,-176.5 103.137,-148.474 139.344,-121.357 162.546,-105.048"/>
<polygon fill="midnightblue" stroke="midnightblue" points="164.827,-107.725 171.047,-99.1478 160.836,-101.975 164.827,-107.725"/>
</g>
<!-- Node3 -->
<g id="node3" class="node"><title>Node3</title>
<g id="a_node3"><a xlink:href="classcom_1_1tomoparts_1_1tomoBay_1_1model_1_1net_1_1email_1_1AbstractEmailBuilder.html#a4f128fdcd61c6889df2df17738e083fe" target="_top" xlink:title="builds the Email object ">
<polygon fill="white" stroke="black" points="333,-443.5 333,-473.5 554,-473.5 554,-443.5 333,-443.5"/>
<text text-anchor="start" x="341" y="-461.5" font-family="Helvetica,sans-Serif" font-size="10.00">com.tomoparts.tomoBay.model.net.email.</text>
<text text-anchor="middle" x="443.5" y="-450.5" font-family="Helvetica,sans-Serif" font-size="10.00">AbstractEmailBuilder.buildEmail</text>
</a>
</g>
</g>
<!-- Node2&#45;&gt;Node3 -->
<g id="edge2" class="edge"><title>Node2&#45;&gt;Node3</title>
<path fill="none" stroke="midnightblue" d="M257.18,-418.529C289.928,-425.592 329.133,-434.048 363.032,-441.36"/>
<polygon fill="midnightblue" stroke="midnightblue" points="362.391,-444.802 372.904,-443.489 363.867,-437.959 362.391,-444.802"/>
</g>
<!-- Node4 -->
<g id="node4" class="node"><title>Node4</title>
<g id="a_node4"><a xlink:href="classcom_1_1tomoparts_1_1tomoBay_1_1model_1_1net_1_1email_1_1AbstractEmailBuilder.html#a639a9a43711a6d861c0215cfd21a618e" target="_top" xlink:title="populates the MailServerSend object with a specific configuration ">
<polygon fill="white" stroke="black" points="333,-383 333,-424 554,-424 554,-383 333,-383"/>
<text text-anchor="start" x="341" y="-412" font-family="Helvetica,sans-Serif" font-size="10.00">com.tomoparts.tomoBay.model.net.email.</text>
<text text-anchor="start" x="341" y="-401" font-family="Helvetica,sans-Serif" font-size="10.00">AbstractEmailBuilder.buildMailServerSend</text>
<text text-anchor="middle" x="443.5" y="-390" font-family="Helvetica,sans-Serif" font-size="10.00">Connection</text>
</a>
</g>
</g>
<!-- Node2&#45;&gt;Node4 -->
<g id="edge3" class="edge"><title>Node2&#45;&gt;Node4</title>
<path fill="none" stroke="midnightblue" d="M297.123,-403.5C305.661,-403.5 314.308,-403.5 322.907,-403.5"/>
<polygon fill="midnightblue" stroke="midnightblue" points="322.97,-407 332.97,-403.5 322.97,-400 322.97,-407"/>
</g>
<!-- Node6 -->
<g id="node6" class="node"><title>Node6</title>
<g id="a_node6"><a xlink:href="classcom_1_1tomoparts_1_1tomoBay_1_1helpers_1_1ConfigReader.html#ab69b4a3a0fc6a7c7440362b06ec4b4d3" target="_top" xlink:title="reads the whole config file into a string ">
<polygon fill="white" stroke="black" points="354,-333.5 354,-363.5 533,-363.5 533,-333.5 354,-333.5"/>
<text text-anchor="start" x="362" y="-351.5" font-family="Helvetica,sans-Serif" font-size="10.00">com.tomoparts.tomoBay.helpers.</text>
<text text-anchor="middle" x="443.5" y="-340.5" font-family="Helvetica,sans-Serif" font-size="10.00">ConfigReader.getConfig</text>
</a>
</g>
</g>
<!-- Node5&#45;&gt;Node6 -->
<g id="edge5" class="edge"><title>Node5&#45;&gt;Node6</title>
<path fill="none" stroke="midnightblue" d="M265.741,-314.535C293.767,-319.92 325.545,-326.026 354.352,-331.562"/>
<polygon fill="midnightblue" stroke="midnightblue" points="353.926,-335.044 364.407,-333.494 355.247,-328.17 353.926,-335.044"/>
</g>
<!-- Node7 -->
<g id="node7" class="node"><title>Node7</title>
<g id="a_node7"><a xlink:href="enumcom_1_1tomoparts_1_1tomoBay_1_1helpers_1_1Config.html#a43cb99408ba4f337caad395ca67f9a6c" target="_top" xlink:title="return the string associated with the enum const ">
<polygon fill="white" stroke="black" points="354,-284.5 354,-314.5 533,-314.5 533,-284.5 354,-284.5"/>
<text text-anchor="start" x="362" y="-302.5" font-family="Helvetica,sans-Serif" font-size="10.00">com.tomoparts.tomoBay.helpers.</text>
<text text-anchor="middle" x="443.5" y="-291.5" font-family="Helvetica,sans-Serif" font-size="10.00">Config.getVar</text>
</a>
</g>
</g>
<!-- Node5&#45;&gt;Node7 -->
<g id="edge6" class="edge"><title>Node5&#45;&gt;Node7</title>
<path fill="none" stroke="midnightblue" d="M276.329,-299.5C298.142,-299.5 321.623,-299.5 343.867,-299.5"/>
<polygon fill="midnightblue" stroke="midnightblue" points="343.989,-303 353.989,-299.5 343.989,-296 343.989,-303"/>
</g>
<!-- Node8 -->
<g id="node8" class="node"><title>Node8</title>
<g id="a_node8"><a xlink:href="classcom_1_1tomoparts_1_1tomoBay_1_1helpers_1_1XMLParser.html#a9936151017dd4e908cf37d453b22c8ef" target="_top" xlink:title="parses an XML formatted string looking for the first tag specified in the parameters. ">
<polygon fill="white" stroke="black" points="354,-235.5 354,-265.5 533,-265.5 533,-235.5 354,-235.5"/>
<text text-anchor="start" x="362" y="-253.5" font-family="Helvetica,sans-Serif" font-size="10.00">com.tomoparts.tomoBay.helpers.</text>
<text text-anchor="middle" x="443.5" y="-242.5" font-family="Helvetica,sans-Serif" font-size="10.00">XMLParser.parse</text>
</a>
</g>
</g>
<!-- Node5&#45;&gt;Node8 -->
<g id="edge7" class="edge"><title>Node5&#45;&gt;Node8</title>
<path fill="none" stroke="midnightblue" d="M265.741,-284.465C293.767,-279.08 325.545,-272.974 354.352,-267.438"/>
<polygon fill="midnightblue" stroke="midnightblue" points="355.247,-270.83 364.407,-265.506 353.926,-263.956 355.247,-270.83"/>
</g>
<!-- Node11 -->
<g id="node11" class="node"><title>Node11</title>
<g id="a_node11"><a xlink:href="classcom_1_1tomoparts_1_1tomoBay_1_1model_1_1net_1_1email_1_1MailServerSend.html#ae07411f271807d3f10b7e4db187d4b3c" target="_top" xlink:title="generates a MimeMessage from the Email object ">
<polygon fill="white" stroke="black" points="333,-186.5 333,-216.5 554,-216.5 554,-186.5 333,-186.5"/>
<text text-anchor="start" x="341" y="-204.5" font-family="Helvetica,sans-Serif" font-size="10.00">com.tomoparts.tomoBay.model.net.email.</text>
<text text-anchor="middle" x="443.5" y="-193.5" font-family="Helvetica,sans-Serif" font-size="10.00">MailServerSend.generateMimeMessage</text>
</a>
</g>
</g>
<!-- Node10&#45;&gt;Node11 -->
<g id="edge10" class="edge"><title>Node10&#45;&gt;Node11</title>
<path fill="none" stroke="midnightblue" d="M297.123,-201.5C305.661,-201.5 314.308,-201.5 322.907,-201.5"/>
<polygon fill="midnightblue" stroke="midnightblue" points="322.97,-205 332.97,-201.5 322.97,-198 322.97,-205"/>
</g>
<!-- Node12 -->
<g id="node12" class="node"><title>Node12</title>
<g id="a_node12"><a xlink:href="classcom_1_1tomoparts_1_1tomoBay_1_1model_1_1net_1_1email_1_1MailServerSend.html#ab5988b28fa18ed6b82ed54193ed21ccc" target="_top" xlink:title="creates a mail server session. ">
<polygon fill="white" stroke="black" points="590,-164.5 590,-194.5 811,-194.5 811,-164.5 590,-164.5"/>
<text text-anchor="start" x="598" y="-182.5" font-family="Helvetica,sans-Serif" font-size="10.00">com.tomoparts.tomoBay.model.net.email.</text>
<text text-anchor="middle" x="700.5" y="-171.5" font-family="Helvetica,sans-Serif" font-size="10.00">MailServerSend.createMailServerSession</text>
</a>
</g>
</g>
<!-- Node10&#45;&gt;Node12 -->
<g id="edge12" class="edge"><title>Node10&#45;&gt;Node12</title>
<path fill="none" stroke="midnightblue" d="M260.459,-186.464C283.553,-182.379 309.25,-178.526 333,-176.5 415.032,-169.504 507.764,-170.346 579.426,-172.89"/>
<polygon fill="midnightblue" stroke="midnightblue" points="579.719,-176.404 589.842,-173.277 579.979,-169.408 579.719,-176.404"/>
</g>
<!-- Node11&#45;&gt;Node12 -->
<g id="edge11" class="edge"><title>Node11&#45;&gt;Node12</title>
<path fill="none" stroke="midnightblue" d="M554.123,-192.042C562.661,-191.306 571.308,-190.56 579.907,-189.818"/>
<polygon fill="midnightblue" stroke="midnightblue" points="580.308,-193.296 589.97,-188.95 579.706,-186.322 580.308,-193.296"/>
</g>
<!-- Node14 -->
<g id="node14" class="node"><title>Node14</title>
<g id="a_node14"><a xlink:href="classcom_1_1tomoparts_1_1tomoBay_1_1model_1_1net_1_1email_1_1Email.html#a5c78f073f0c4c95dddbb78f7a9eb6cd2" target="_top" xlink:title="set a recipient of the email, valid RecipientType listed in Message.RecipientType : TO/CC/BCC...">
<polygon fill="white" stroke="black" points="333,-98.5 333,-128.5 554,-128.5 554,-98.5 333,-98.5"/>
<text text-anchor="start" x="341" y="-116.5" font-family="Helvetica,sans-Serif" font-size="10.00">com.tomoparts.tomoBay.model.net.email.</text>
<text text-anchor="middle" x="443.5" y="-105.5" font-family="Helvetica,sans-Serif" font-size="10.00">Email.setRecipient</text>
</a>
</g>
</g>
<!-- Node13&#45;&gt;Node14 -->
<g id="edge14" class="edge"><title>Node13&#45;&gt;Node14</title>
<path fill="none" stroke="midnightblue" d="M222.156,-92.7617C248.295,-95.2219 285.805,-98.7523 322.487,-102.205"/>
<polygon fill="midnightblue" stroke="midnightblue" points="322.517,-105.723 332.801,-103.175 323.172,-98.7536 322.517,-105.723"/>
</g>
<!-- Node15 -->
<g id="node15" class="node"><title>Node15</title>
<g id="a_node15"><a xlink:href="classcom_1_1tomoparts_1_1tomoBay_1_1model_1_1net_1_1email_1_1Email.html#a39f0298f055f0b78ad2ac781d38f326f" target="_top" xlink:title="set the subject line of the email. ">
<polygon fill="white" stroke="black" points="333,-49.5 333,-79.5 554,-79.5 554,-49.5 333,-49.5"/>
<text text-anchor="start" x="341" y="-67.5" font-family="Helvetica,sans-Serif" font-size="10.00">com.tomoparts.tomoBay.model.net.email.</text>
<text text-anchor="middle" x="443.5" y="-56.5" font-family="Helvetica,sans-Serif" font-size="10.00">Email.setSubject</text>
</a>
</g>
</g>
<!-- Node13&#45;&gt;Node15 -->
<g id="edge15" class="edge"><title>Node13&#45;&gt;Node15</title>
<path fill="none" stroke="midnightblue" d="M222.156,-86.1024C248.295,-83.5397 285.805,-79.8622 322.487,-76.266"/>
<polygon fill="midnightblue" stroke="midnightblue" points="323.19,-79.714 332.801,-75.2549 322.507,-72.7474 323.19,-79.714"/>
</g>
<!-- Node16 -->
<g id="node16" class="node"><title>Node16</title>
<g id="a_node16"><a xlink:href="classcom_1_1tomoparts_1_1tomoBay_1_1model_1_1net_1_1email_1_1Email.html#acc7b010f914eeee1745a79004eca2481" target="_top" xlink:title="sets the email body ">
<polygon fill="white" stroke="black" points="333,-0.5 333,-30.5 554,-30.5 554,-0.5 333,-0.5"/>
<text text-anchor="start" x="341" y="-18.5" font-family="Helvetica,sans-Serif" font-size="10.00">com.tomoparts.tomoBay.model.net.email.</text>
<text text-anchor="middle" x="443.5" y="-7.5" font-family="Helvetica,sans-Serif" font-size="10.00">Email.setMessage</text>
</a>
</g>
</g>
<!-- Node13&#45;&gt;Node16 -->
<g id="edge16" class="edge"><title>Node13&#45;&gt;Node16</title>
<path fill="none" stroke="midnightblue" d="M212.457,-79.939C241.219,-69.1514 290.05,-51.5433 333,-39.5 341.237,-37.1903 349.874,-34.9662 358.53,-32.8663"/>
<polygon fill="midnightblue" stroke="midnightblue" points="359.37,-36.2644 368.292,-30.5504 357.754,-29.4535 359.37,-36.2644"/>
</g>
</g>
</svg>
