<?xml version="1.0" encoding="UTF-8" standalone="no"?>
<!DOCTYPE svg PUBLIC "-//W3C//DTD SVG 1.1//EN"
 "http://www.w3.org/Graphics/SVG/1.1/DTD/svg11.dtd">
<!-- Generated by graphviz version 2.38.0 (20140413.2041)
 -->
<!-- Title: ErrorsList Pages: 1 -->
<svg width="485pt" height="39pt"
 viewBox="0.00 0.00 485.00 39.00" xmlns="http://www.w3.org/2000/svg" xmlns:xlink="http://www.w3.org/1999/xlink">
<g id="graph0" class="graph" transform="scale(1 1) rotate(0) translate(4 35)">
<title>ErrorsList</title>
<polygon fill="white" stroke="none" points="-4,4 -4,-35 481,-35 481,4 -4,4"/>
<!-- Node1 -->
<g id="node1" class="node"><title>Node1</title>
<polygon fill="#bfbfbf" stroke="black" points="0,-6 0,-25 62,-25 62,-6 0,-6"/>
<text text-anchor="middle" x="31" y="-13" font-family="Helvetica,sans-Serif" font-size="10.00">ErrorsList</text>
</g>
<!-- Node2 -->
<g id="node2" class="node"><title>Node2</title>
<g id="a_node2"><a xlink:href="classcom_1_1tomoparts_1_1tomoBay_1_1model_1_1services_1_1emailErrorsService_1_1ErrorsList.html#a1f92960677ce81dd39ce60043a38140f" target="_top" xlink:title="generate the list of errors. ">
<polygon fill="white" stroke="black" points="98,-6 98,-25 198,-25 198,-6 98,-6"/>
<text text-anchor="middle" x="148" y="-13" font-family="Helvetica,sans-Serif" font-size="10.00">generateErrorList</text>
</a>
</g>
</g>
<!-- Node1&#45;&gt;Node2 -->
<g id="edge1" class="edge"><title>Node1&#45;&gt;Node2</title>
<path fill="none" stroke="midnightblue" d="M62.2149,-15.5C70.1445,-15.5 78.9753,-15.5 87.8585,-15.5"/>
<polygon fill="midnightblue" stroke="midnightblue" points="87.8648,-19.0001 97.8648,-15.5 87.8648,-12.0001 87.8648,-19.0001"/>
</g>
<!-- Node3 -->
<g id="node3" class="node"><title>Node3</title>
<g id="a_node3"><a xlink:href="classcom_1_1tomoparts_1_1tomoBay_1_1model_1_1sql_1_1framework_1_1SelectQueryInvoker.html#a594282bcbcc0731a7d234482717422d7" target="_top" xlink:title="execute a requested query ">
<polygon fill="white" stroke="black" points="234,-0.5 234,-30.5 477,-30.5 477,-0.5 234,-0.5"/>
<text text-anchor="start" x="242" y="-18.5" font-family="Helvetica,sans-Serif" font-size="10.00">com.tomoparts.tomoBay.model.sql.framework.</text>
<text text-anchor="middle" x="355.5" y="-7.5" font-family="Helvetica,sans-Serif" font-size="10.00">SelectQueryInvoker.execute</text>
</a>
</g>
</g>
<!-- Node2&#45;&gt;Node3 -->
<g id="edge2" class="edge"><title>Node2&#45;&gt;Node3</title>
<path fill="none" stroke="midnightblue" d="M198.222,-15.5C206.159,-15.5 214.688,-15.5 223.518,-15.5"/>
<polygon fill="midnightblue" stroke="midnightblue" points="223.6,-19.0001 233.6,-15.5 223.6,-12.0001 223.6,-19.0001"/>
</g>
</g>
</svg>
