<?xml version="1.0" encoding="UTF-8" standalone="no"?>
<!DOCTYPE svg PUBLIC "-//W3C//DTD SVG 1.1//EN"
 "http://www.w3.org/Graphics/SVG/1.1/DTD/svg11.dtd">
<!-- Generated by graphviz version 2.38.0 (20140413.2041)
 -->
<!-- Title: setTIMESTAMPParam Pages: 1 -->
<svg width="1507pt" height="996pt"
 viewBox="0.00 0.00 1507.00 995.95" xmlns="http://www.w3.org/2000/svg" xmlns:xlink="http://www.w3.org/1999/xlink">
<g id="graph0" class="graph" transform="scale(1 1) rotate(0) translate(4 991.954)">
<title>setTIMESTAMPParam</title>
<polygon fill="white" stroke="none" points="-4,4 -4,-991.954 1503,-991.954 1503,4 -4,4"/>
<!-- Node1 -->
<g id="node1" class="node"><title>Node1</title>
<polygon fill="#bfbfbf" stroke="black" points="0,-840.454 0,-859.454 118,-859.454 118,-840.454 0,-840.454"/>
<text text-anchor="middle" x="59" y="-847.454" font-family="Helvetica,sans-Serif" font-size="10.00">setTIMESTAMPParam</text>
</g>
<!-- Node2 -->
<g id="node2" class="node"><title>Node2</title>
<g id="a_node2"><a xlink:href="classcom_1_1tomoparts_1_1tomoBay_1_1model_1_1sql_1_1queries_1_1concreteQueries_1_1insert_1_1InsertEbayOrders.html#af9020b85517904668d036bc2bf89433c" target="_top" xlink:title="com.tomoparts.tomoBay.model.sql.queries.concrete\lQueries.insert.InsertEbayOrders.setParameters">
<polygon fill="white" stroke="black" points="1220.5,-901.954 1220.5,-931.954 1490.5,-931.954 1490.5,-901.954 1220.5,-901.954"/>
<text text-anchor="start" x="1228.5" y="-919.954" font-family="Helvetica,sans-Serif" font-size="10.00">com.tomoparts.tomoBay.model.sql.queries.concrete</text>
<text text-anchor="middle" x="1355.5" y="-908.954" font-family="Helvetica,sans-Serif" font-size="10.00">Queries.insert.InsertEbayOrders.setParameters</text>
</a>
</g>
</g>
<!-- Node1&#45;&gt;Node2 -->
<g id="edge1" class="edge"><title>Node1&#45;&gt;Node2</title>
<path fill="none" stroke="midnightblue" d="M78.2147,-866.762C120.064,-903.551 227.71,-987.954 334.5,-987.954 334.5,-987.954 334.5,-987.954 781,-987.954 961.587,-987.954 1171.75,-952.853 1280.62,-932.012"/>
<polygon fill="midnightblue" stroke="midnightblue" points="80.3099,-863.94 70.5241,-859.879 75.6417,-869.156 80.3099,-863.94"/>
</g>
<!-- Node3 -->
<g id="node3" class="node"><title>Node3</title>
<g id="a_node3"><a xlink:href="classcom_1_1tomoparts_1_1tomoBay_1_1model_1_1sql_1_1framework_1_1QueryUtility.html#a56a65ac583b8720ae73dc81278e5690e" target="_top" xlink:title="set an Integer parameter for the query object specified. ">
<polygon fill="white" stroke="black" points="154,-606.454 154,-625.454 252,-625.454 252,-606.454 154,-606.454"/>
<text text-anchor="middle" x="203" y="-613.454" font-family="Helvetica,sans-Serif" font-size="10.00">setTINYINTParam</text>
</a>
</g>
</g>
<!-- Node1&#45;&gt;Node3 -->
<g id="edge2" class="edge"><title>Node1&#45;&gt;Node3</title>
<path fill="none" stroke="midnightblue" d="M71.1251,-831.621C99.6713,-784.58 174.773,-660.821 196.211,-625.494"/>
<polygon fill="midnightblue" stroke="midnightblue" points="68.1165,-829.833 65.9208,-840.198 74.1009,-833.464 68.1165,-829.833"/>
</g>
<!-- Node4 -->
<g id="node4" class="node"><title>Node4</title>
<g id="a_node4"><a xlink:href="classcom_1_1tomoparts_1_1tomoBay_1_1model_1_1sql_1_1framework_1_1QueryUtility.html#a138f0c046bc0a6df71b168ab35c3c3e3" target="_top" xlink:title="set an Integer parameter for the query object specified. ">
<polygon fill="white" stroke="black" points="288,-489.454 288,-508.454 383,-508.454 383,-489.454 288,-489.454"/>
<text text-anchor="middle" x="335.5" y="-496.454" font-family="Helvetica,sans-Serif" font-size="10.00">setBIGINTParam</text>
</a>
</g>
</g>
<!-- Node3&#45;&gt;Node4 -->
<g id="edge3" class="edge"><title>Node3&#45;&gt;Node4</title>
<path fill="none" stroke="midnightblue" d="M222.438,-599.424C250.073,-574.647 301.368,-528.659 323.673,-508.661"/>
<polygon fill="midnightblue" stroke="midnightblue" points="219.789,-597.098 214.679,-606.38 224.462,-602.31 219.789,-597.098"/>
</g>
<!-- Node5 -->
<g id="node5" class="node"><title>Node5</title>
<g id="a_node5"><a xlink:href="classcom_1_1tomoparts_1_1tomoBay_1_1model_1_1sql_1_1framework_1_1QueryUtility.html#a50955d4f51a1a7a88ef0c8aadbe9c793" target="_top" xlink:title="set an Integer parameter for the query object specified. ">
<polygon fill="white" stroke="black" points="511,-489.454 511,-508.454 597,-508.454 597,-489.454 511,-489.454"/>
<text text-anchor="middle" x="554" y="-496.454" font-family="Helvetica,sans-Serif" font-size="10.00">setBYTEParam</text>
</a>
</g>
</g>
<!-- Node4&#45;&gt;Node5 -->
<g id="edge4" class="edge"><title>Node4&#45;&gt;Node5</title>
<path fill="none" stroke="midnightblue" d="M393.3,-498.954C430.112,-498.954 477.269,-498.954 510.773,-498.954"/>
<polygon fill="midnightblue" stroke="midnightblue" points="393.211,-495.454 383.211,-498.954 393.211,-502.454 393.211,-495.454"/>
</g>
<!-- Node13 -->
<g id="node13" class="node"><title>Node13</title>
<g id="a_node13"><a xlink:href="classcom_1_1tomoparts_1_1tomoBay_1_1model_1_1sql_1_1queries_1_1concreteQueries_1_1insert_1_1InsertEbayItems.html#af9020b85517904668d036bc2bf89433c" target="_top" xlink:title="com.tomoparts.tomoBay.model.sql.queries.concrete\lQueries.insert.InsertEbayItems.setParameters">
<polygon fill="white" stroke="black" points="1220.5,-852.954 1220.5,-882.954 1490.5,-882.954 1490.5,-852.954 1220.5,-852.954"/>
<text text-anchor="start" x="1228.5" y="-870.954" font-family="Helvetica,sans-Serif" font-size="10.00">com.tomoparts.tomoBay.model.sql.queries.concrete</text>
<text text-anchor="middle" x="1355.5" y="-859.954" font-family="Helvetica,sans-Serif" font-size="10.00">Queries.insert.InsertEbayItems.setParameters</text>
</a>
</g>
</g>
<!-- Node4&#45;&gt;Node13 -->
<g id="edge36" class="edge"><title>Node4&#45;&gt;Node13</title>
<path fill="none" stroke="midnightblue" d="M352.08,-516.261C411.537,-580.838 632.831,-807.946 871,-884.954 933.537,-905.175 1100.31,-894.319 1220.5,-882.826"/>
<polygon fill="midnightblue" stroke="midnightblue" points="354.39,-513.601 345.063,-508.574 349.22,-518.32 354.39,-513.601"/>
</g>
<!-- Node14 -->
<g id="node14" class="node"><title>Node14</title>
<g id="a_node14"><a xlink:href="classcom_1_1tomoparts_1_1tomoBay_1_1model_1_1sql_1_1queries_1_1concreteQueries_1_1insert_1_1InsertEbayTransactions.html#af9020b85517904668d036bc2bf89433c" target="_top" xlink:title="com.tomoparts.tomoBay.model.sql.queries.concrete\lQueries.insert.InsertEbayTransactions.setParameters">
<polygon fill="white" stroke="black" points="1219.5,-62.9543 1219.5,-92.9543 1491.5,-92.9543 1491.5,-62.9543 1219.5,-62.9543"/>
<text text-anchor="start" x="1227.5" y="-80.9543" font-family="Helvetica,sans-Serif" font-size="10.00">com.tomoparts.tomoBay.model.sql.queries.concrete</text>
<text text-anchor="middle" x="1355.5" y="-69.9543" font-family="Helvetica,sans-Serif" font-size="10.00">Queries.insert.InsertEbayTransactions.setParameters</text>
</a>
</g>
</g>
<!-- Node4&#45;&gt;Node14 -->
<g id="edge38" class="edge"><title>Node4&#45;&gt;Node14</title>
<path fill="none" stroke="midnightblue" d="M338.45,-479.172C345.409,-412.639 371.199,-198.517 419,-151.954 667.435,90.0418 1149.57,-19.2541 1304.95,-62.9447"/>
<polygon fill="midnightblue" stroke="midnightblue" points="334.962,-478.873 337.43,-489.177 341.926,-479.583 334.962,-478.873"/>
</g>
<!-- Node18 -->
<g id="node18" class="node"><title>Node18</title>
<g id="a_node18"><a xlink:href="classcom_1_1tomoparts_1_1tomoBay_1_1model_1_1sql_1_1queries_1_1concreteQueries_1_1update_1_1UpdateItemNote.html#af9020b85517904668d036bc2bf89433c" target="_top" xlink:title="com.tomoparts.tomoBay.model.sql.queries.concrete\lQueries.update.UpdateItemNote.setParameters">
<polygon fill="white" stroke="black" points="888.5,-164.954 888.5,-194.954 1158.5,-194.954 1158.5,-164.954 888.5,-164.954"/>
<text text-anchor="start" x="896.5" y="-182.954" font-family="Helvetica,sans-Serif" font-size="10.00">com.tomoparts.tomoBay.model.sql.queries.concrete</text>
<text text-anchor="middle" x="1023.5" y="-171.954" font-family="Helvetica,sans-Serif" font-size="10.00">Queries.update.UpdateItemNote.setParameters</text>
</a>
</g>
</g>
<!-- Node4&#45;&gt;Node18 -->
<g id="edge34" class="edge"><title>Node4&#45;&gt;Node18</title>
<path fill="none" stroke="midnightblue" d="M385.279,-486.932C497.817,-458.299 770.885,-383.419 835,-315.954 872.187,-276.825 829.733,-234.753 871,-199.954 876.375,-195.422 882.26,-191.614 888.493,-188.428"/>
<polygon fill="midnightblue" stroke="midnightblue" points="384.374,-483.55 375.538,-489.396 386.091,-490.336 384.374,-483.55"/>
</g>
<!-- Node19 -->
<g id="node19" class="node"><title>Node19</title>
<g id="a_node19"><a xlink:href="classcom_1_1tomoparts_1_1tomoBay_1_1model_1_1sql_1_1queries_1_1concreteQueries_1_1update_1_1UpdateItemBrandAndPartNo.html#af9020b85517904668d036bc2bf89433c" target="_top" xlink:title="com.tomoparts.tomoBay.model.sql.queries.concrete\lQueries.update.UpdateItemBrandAndPartNo.setParameters">
<polygon fill="white" stroke="black" points="871,-115.954 871,-145.954 1176,-145.954 1176,-115.954 871,-115.954"/>
<text text-anchor="start" x="879" y="-133.954" font-family="Helvetica,sans-Serif" font-size="10.00">com.tomoparts.tomoBay.model.sql.queries.concrete</text>
<text text-anchor="middle" x="1023.5" y="-122.954" font-family="Helvetica,sans-Serif" font-size="10.00">Queries.update.UpdateItemBrandAndPartNo.setParameters</text>
</a>
</g>
</g>
<!-- Node4&#45;&gt;Node19 -->
<g id="edge35" class="edge"><title>Node4&#45;&gt;Node19</title>
<path fill="none" stroke="midnightblue" d="M346.427,-480.171C359.847,-456.523 385.948,-416.188 419,-392.954 498.568,-337.023 765.43,-324.92 835,-256.954 869.388,-223.36 834.055,-185.715 871,-154.954 874.991,-151.632 879.252,-148.676 883.721,-146.05"/>
<polygon fill="midnightblue" stroke="midnightblue" points="343.221,-478.737 341.469,-489.186 349.355,-482.11 343.221,-478.737"/>
</g>
<!-- Node20 -->
<g id="node20" class="node"><title>Node20</title>
<g id="a_node20"><a xlink:href="classcom_1_1tomoparts_1_1tomoBay_1_1model_1_1sql_1_1queries_1_1concreteQueries_1_1update_1_1UpdateItemError.html#af9020b85517904668d036bc2bf89433c" target="_top" xlink:title="com.tomoparts.tomoBay.model.sql.queries.concrete\lQueries.update.UpdateItemError.setParameters">
<polygon fill="white" stroke="black" points="888.5,-66.9543 888.5,-96.9543 1158.5,-96.9543 1158.5,-66.9543 888.5,-66.9543"/>
<text text-anchor="start" x="896.5" y="-84.9543" font-family="Helvetica,sans-Serif" font-size="10.00">com.tomoparts.tomoBay.model.sql.queries.concrete</text>
<text text-anchor="middle" x="1023.5" y="-73.9543" font-family="Helvetica,sans-Serif" font-size="10.00">Queries.update.UpdateItemError.setParameters</text>
</a>
</g>
</g>
<!-- Node4&#45;&gt;Node20 -->
<g id="edge37" class="edge"><title>Node4&#45;&gt;Node20</title>
<path fill="none" stroke="midnightblue" d="M340.436,-479.011C348.729,-441.807 371.298,-361.232 419,-312.954 552.555,-177.789 773.562,-120.362 907.838,-96.9737"/>
<polygon fill="midnightblue" stroke="midnightblue" points="336.951,-478.573 338.309,-489.08 343.8,-480.02 336.951,-478.573"/>
</g>
<!-- Node29 -->
<g id="node29" class="node"><title>Node29</title>
<g id="a_node29"><a xlink:href="classcom_1_1tomoparts_1_1tomoBay_1_1model_1_1sql_1_1queries_1_1concreteQueries_1_1select_1_1params_1_1SelectEbayTransactionByID.html#af9020b85517904668d036bc2bf89433c" target="_top" xlink:title="com.tomoparts.tomoBay.model.sql.queries.concrete\lQueries.select.params.SelectEbayTransactionBy\lID.setParameters">
<polygon fill="white" stroke="black" points="419,-918.454 419,-959.454 689,-959.454 689,-918.454 419,-918.454"/>
<text text-anchor="start" x="427" y="-947.454" font-family="Helvetica,sans-Serif" font-size="10.00">com.tomoparts.tomoBay.model.sql.queries.concrete</text>
<text text-anchor="start" x="427" y="-936.454" font-family="Helvetica,sans-Serif" font-size="10.00">Queries.select.params.SelectEbayTransactionBy</text>
<text text-anchor="middle" x="554" y="-925.454" font-family="Helvetica,sans-Serif" font-size="10.00">ID.setParameters</text>
</a>
</g>
</g>
<!-- Node4&#45;&gt;Node29 -->
<g id="edge39" class="edge"><title>Node4&#45;&gt;Node29</title>
<path fill="none" stroke="midnightblue" d="M337.701,-518.819C342.59,-592.966 363.446,-852.183 419,-908.954 422.418,-912.447 426.148,-915.573 430.118,-918.369"/>
<polygon fill="midnightblue" stroke="midnightblue" points="341.177,-518.326 337.051,-508.568 334.191,-518.769 341.177,-518.326"/>
</g>
<!-- Node30 -->
<g id="node30" class="node"><title>Node30</title>
<g id="a_node30"><a xlink:href="classcom_1_1tomoparts_1_1tomoBay_1_1model_1_1sql_1_1queries_1_1concreteQueries_1_1select_1_1params_1_1SelectEbayItemSpecific.html#af9020b85517904668d036bc2bf89433c" target="_top" xlink:title="com.tomoparts.tomoBay.model.sql.queries.concrete\lQueries.select.params.SelectEbayItemSpecific.set\lParameters">
<polygon fill="white" stroke="black" points="419,-858.454 419,-899.454 689,-899.454 689,-858.454 419,-858.454"/>
<text text-anchor="start" x="427" y="-887.454" font-family="Helvetica,sans-Serif" font-size="10.00">com.tomoparts.tomoBay.model.sql.queries.concrete</text>
<text text-anchor="start" x="427" y="-876.454" font-family="Helvetica,sans-Serif" font-size="10.00">Queries.select.params.SelectEbayItemSpecific.set</text>
<text text-anchor="middle" x="554" y="-865.454" font-family="Helvetica,sans-Serif" font-size="10.00">Parameters</text>
</a>
</g>
</g>
<!-- Node4&#45;&gt;Node30 -->
<g id="edge40" class="edge"><title>Node4&#45;&gt;Node30</title>
<path fill="none" stroke="midnightblue" d="M338.597,-518.948C345.95,-585.294 372.657,-796.639 419,-843.954 424.552,-849.623 430.899,-854.412 437.745,-858.453"/>
<polygon fill="midnightblue" stroke="midnightblue" points="342.037,-518.199 337.482,-508.633 335.077,-518.951 342.037,-518.199"/>
</g>
<!-- Node6 -->
<g id="node6" class="node"><title>Node6</title>
<g id="a_node6"><a xlink:href="classcom_1_1tomoparts_1_1tomoBay_1_1model_1_1sql_1_1framework_1_1QueryUtility.html#a3249b16421a9902f2248cb86d4dd3be3" target="_top" xlink:title="set an Integer parameter for the query object specified. ">
<polygon fill="white" stroke="black" points="725,-489.454 725,-508.454 835,-508.454 835,-489.454 725,-489.454"/>
<text text-anchor="middle" x="780" y="-496.454" font-family="Helvetica,sans-Serif" font-size="10.00">setVARCHARParam</text>
</a>
</g>
</g>
<!-- Node5&#45;&gt;Node6 -->
<g id="edge5" class="edge"><title>Node5&#45;&gt;Node6</title>
<path fill="none" stroke="midnightblue" d="M607.238,-498.954C642.537,-498.954 689.037,-498.954 724.751,-498.954"/>
<polygon fill="midnightblue" stroke="midnightblue" points="607.133,-495.454 597.133,-498.954 607.133,-502.454 607.133,-495.454"/>
</g>
<!-- Node6&#45;&gt;Node2 -->
<g id="edge22" class="edge"><title>Node6&#45;&gt;Node2</title>
<path fill="none" stroke="midnightblue" d="M782.592,-518.863C788.791,-590.922 813.857,-836.44 871,-884.954 993.328,-988.809 1201.8,-955.662 1300.12,-932.018"/>
<polygon fill="midnightblue" stroke="midnightblue" points="786.047,-518.181 781.73,-508.505 779.071,-518.761 786.047,-518.181"/>
</g>
<!-- Node7 -->
<g id="node7" class="node"><title>Node7</title>
<g id="a_node7"><a xlink:href="classcom_1_1tomoparts_1_1tomoBay_1_1model_1_1sql_1_1framework_1_1QueryUtility.html#aca3b74b8ac7e194a86c0b896a674e2f2" target="_top" xlink:title="set an Integer parameter for the query object specified. ">
<polygon fill="white" stroke="black" points="971.5,-252.454 971.5,-271.454 1075.5,-271.454 1075.5,-252.454 971.5,-252.454"/>
<text text-anchor="middle" x="1023.5" y="-259.454" font-family="Helvetica,sans-Serif" font-size="10.00">setINTEGERParam</text>
</a>
</g>
</g>
<!-- Node6&#45;&gt;Node7 -->
<g id="edge6" class="edge"><title>Node6&#45;&gt;Node7</title>
<path fill="none" stroke="midnightblue" d="M791.645,-480.401C803.239,-459.736 821.879,-425.128 835,-393.954 854.628,-347.32 832.402,-318.668 871,-285.954 898.425,-262.71 939.056,-257.307 971.338,-257.392"/>
<polygon fill="midnightblue" stroke="midnightblue" points="788.46,-478.924 786.575,-489.35 794.55,-482.375 788.46,-478.924"/>
</g>
<!-- Node10 -->
<g id="node10" class="node"><title>Node10</title>
<g id="a_node10"><a xlink:href="classcom_1_1tomoparts_1_1tomoBay_1_1model_1_1sql_1_1queries_1_1concreteQueries_1_1update_1_1UpdateInvoiceStatus.html#af9020b85517904668d036bc2bf89433c" target="_top" xlink:title="com.tomoparts.tomoBay.model.sql.queries.concrete\lQueries.update.UpdateInvoiceStatus.setParameters">
<polygon fill="white" stroke="black" points="1220.5,-358.954 1220.5,-388.954 1490.5,-388.954 1490.5,-358.954 1220.5,-358.954"/>
<text text-anchor="start" x="1228.5" y="-376.954" font-family="Helvetica,sans-Serif" font-size="10.00">com.tomoparts.tomoBay.model.sql.queries.concrete</text>
<text text-anchor="middle" x="1355.5" y="-365.954" font-family="Helvetica,sans-Serif" font-size="10.00">Queries.update.UpdateInvoiceStatus.setParameters</text>
</a>
</g>
</g>
<!-- Node6&#45;&gt;Node10 -->
<g id="edge18" class="edge"><title>Node6&#45;&gt;Node10</title>
<path fill="none" stroke="midnightblue" d="M790.742,-480.392C801.677,-459.47 819.868,-424.4 835,-393.954 851.457,-360.844 839.705,-338.646 871,-318.954 928.366,-282.858 1112.27,-295.881 1176,-318.954 1195.58,-326.044 1193.11,-340.192 1212,-348.954 1220.43,-352.864 1229.4,-356.166 1238.58,-358.954"/>
<polygon fill="midnightblue" stroke="midnightblue" points="787.54,-478.961 786.002,-489.444 793.742,-482.208 787.54,-478.961"/>
</g>
<!-- Node6&#45;&gt;Node13 -->
<g id="edge23" class="edge"><title>Node6&#45;&gt;Node13</title>
<path fill="none" stroke="midnightblue" d="M782.921,-518.707C790.011,-587.079 817.131,-811.834 871,-854.954 922.994,-896.574 1096.19,-891.607 1220.42,-881.807"/>
<polygon fill="midnightblue" stroke="midnightblue" points="786.375,-518.076 781.891,-508.477 779.411,-518.777 786.375,-518.076"/>
</g>
<!-- Node6&#45;&gt;Node14 -->
<g id="edge24" class="edge"><title>Node6&#45;&gt;Node14</title>
<path fill="none" stroke="midnightblue" d="M792.193,-480.566C804.246,-460.077 823.267,-425.652 835,-393.954 858.95,-329.253 819.679,-289.064 871,-242.954 972.656,-151.62 1069.68,-289.815 1176,-203.954 1213.4,-173.75 1175.21,-132.894 1212,-101.954 1215.94,-98.6443 1220.16,-95.7105 1224.59,-93.1139"/>
<polygon fill="midnightblue" stroke="midnightblue" points="789.168,-478.805 787.047,-489.186 795.178,-482.393 789.168,-478.805"/>
</g>
<!-- Node15 -->
<g id="node15" class="node"><title>Node15</title>
<g id="a_node15"><a xlink:href="classcom_1_1tomoparts_1_1tomoBay_1_1model_1_1sql_1_1queries_1_1concreteQueries_1_1select_1_1params_1_1SelectBuyerByAccAndSRN.html#af9020b85517904668d036bc2bf89433c" target="_top" xlink:title="com.tomoparts.tomoBay.model.sql.queries.concrete\lQueries.select.params.SelectBuyerByAccAndSRN.set\lParameters">
<polygon fill="white" stroke="black" points="1219.5,-549.454 1219.5,-590.454 1491.5,-590.454 1491.5,-549.454 1219.5,-549.454"/>
<text text-anchor="start" x="1227.5" y="-578.454" font-family="Helvetica,sans-Serif" font-size="10.00">com.tomoparts.tomoBay.model.sql.queries.concrete</text>
<text text-anchor="start" x="1227.5" y="-567.454" font-family="Helvetica,sans-Serif" font-size="10.00">Queries.select.params.SelectBuyerByAccAndSRN.set</text>
<text text-anchor="middle" x="1355.5" y="-556.454" font-family="Helvetica,sans-Serif" font-size="10.00">Parameters</text>
</a>
</g>
</g>
<!-- Node6&#45;&gt;Node15 -->
<g id="edge26" class="edge"><title>Node6&#45;&gt;Node15</title>
<path fill="none" stroke="midnightblue" d="M784.633,-518.715C792.662,-555.942 815.775,-635.704 871,-668.954 929.066,-703.914 1110.38,-685.932 1176,-668.954 1234.49,-653.819 1294.25,-614.931 1327.64,-590.642"/>
<polygon fill="midnightblue" stroke="midnightblue" points="788.007,-517.741 782.607,-508.626 781.145,-519.12 788.007,-517.741"/>
</g>
<!-- Node17 -->
<g id="node17" class="node"><title>Node17</title>
<g id="a_node17"><a xlink:href="classcom_1_1tomoparts_1_1tomoBay_1_1model_1_1sql_1_1queries_1_1concreteQueries_1_1insert_1_1InsertOrderInOrderStatus.html#af9020b85517904668d036bc2bf89433c" target="_top" xlink:title="com.tomoparts.tomoBay.model.sql.queries.concrete\lQueries.insert.InsertOrderInOrderStatus.setParameters">
<polygon fill="white" stroke="black" points="883,-814.954 883,-844.954 1164,-844.954 1164,-814.954 883,-814.954"/>
<text text-anchor="start" x="891" y="-832.954" font-family="Helvetica,sans-Serif" font-size="10.00">com.tomoparts.tomoBay.model.sql.queries.concrete</text>
<text text-anchor="middle" x="1023.5" y="-821.954" font-family="Helvetica,sans-Serif" font-size="10.00">Queries.insert.InsertOrderInOrderStatus.setParameters</text>
</a>
</g>
</g>
<!-- Node6&#45;&gt;Node17 -->
<g id="edge17" class="edge"><title>Node6&#45;&gt;Node17</title>
<path fill="none" stroke="midnightblue" d="M780.167,-518.716C779.023,-573.694 783.976,-729.417 871,-805.954 874.799,-809.296 878.869,-812.273 883.149,-814.923"/>
<polygon fill="midnightblue" stroke="midnightblue" points="783.67,-518.68 780.476,-508.578 776.673,-518.466 783.67,-518.68"/>
</g>
<!-- Node6&#45;&gt;Node18 -->
<g id="edge19" class="edge"><title>Node6&#45;&gt;Node18</title>
<path fill="none" stroke="midnightblue" d="M792.44,-480.654C804.708,-460.242 823.916,-425.885 835,-393.954 862.326,-315.234 812.145,-268.943 871,-209.954 876.871,-204.07 883.541,-199.171 890.732,-195.105"/>
<polygon fill="midnightblue" stroke="midnightblue" points="789.422,-478.88 787.193,-489.238 795.395,-482.531 789.422,-478.88"/>
</g>
<!-- Node6&#45;&gt;Node19 -->
<g id="edge20" class="edge"><title>Node6&#45;&gt;Node19</title>
<path fill="none" stroke="midnightblue" d="M787.29,-479.239C797.842,-445.832 819.478,-375.879 835,-315.954 853.386,-244.974 817.549,-205.146 871,-154.954 874.494,-151.673 878.246,-148.735 882.202,-146.107"/>
<polygon fill="midnightblue" stroke="midnightblue" points="783.849,-478.511 784.161,-489.101 790.522,-480.628 783.849,-478.511"/>
</g>
<!-- Node6&#45;&gt;Node20 -->
<g id="edge21" class="edge"><title>Node6&#45;&gt;Node20</title>
<path fill="none" stroke="midnightblue" d="M785.359,-479.245C802.888,-400.07 867.466,-109.256 871,-105.954 876.254,-101.046 882.085,-96.9059 888.313,-93.4269"/>
<polygon fill="midnightblue" stroke="midnightblue" points="781.87,-478.811 783.127,-489.331 788.705,-480.323 781.87,-478.811"/>
</g>
<!-- Node21 -->
<g id="node21" class="node"><title>Node21</title>
<g id="a_node21"><a xlink:href="classcom_1_1tomoparts_1_1tomoBay_1_1model_1_1sql_1_1queries_1_1concreteQueries_1_1update_1_1UpdateEbayBuyer.html#af9020b85517904668d036bc2bf89433c" target="_top" xlink:title="com.tomoparts.tomoBay.model.sql.queries.concrete\lQueries.update.UpdateEbayBuyer.setParameters">
<polygon fill="white" stroke="black" points="888.5,-765.954 888.5,-795.954 1158.5,-795.954 1158.5,-765.954 888.5,-765.954"/>
<text text-anchor="start" x="896.5" y="-783.954" font-family="Helvetica,sans-Serif" font-size="10.00">com.tomoparts.tomoBay.model.sql.queries.concrete</text>
<text text-anchor="middle" x="1023.5" y="-772.954" font-family="Helvetica,sans-Serif" font-size="10.00">Queries.update.UpdateEbayBuyer.setParameters</text>
</a>
</g>
</g>
<!-- Node6&#45;&gt;Node21 -->
<g id="edge25" class="edge"><title>Node6&#45;&gt;Node21</title>
<path fill="none" stroke="midnightblue" d="M781.436,-518.786C783.665,-567.743 796.693,-694.856 871,-756.954 876.313,-761.394 882.109,-765.18 888.236,-768.398"/>
<polygon fill="midnightblue" stroke="midnightblue" points="784.927,-518.465 781.082,-508.593 777.931,-518.708 784.927,-518.465"/>
</g>
<!-- Node22 -->
<g id="node22" class="node"><title>Node22</title>
<g id="a_node22"><a xlink:href="classcom_1_1tomoparts_1_1tomoBay_1_1model_1_1sql_1_1queries_1_1concreteQueries_1_1insert_1_1InsertEbayBuyers.html#af9020b85517904668d036bc2bf89433c" target="_top" xlink:title="com.tomoparts.tomoBay.model.sql.queries.concrete\lQueries.insert.InsertEbayBuyers.setParameters">
<polygon fill="white" stroke="black" points="888.5,-716.954 888.5,-746.954 1158.5,-746.954 1158.5,-716.954 888.5,-716.954"/>
<text text-anchor="start" x="896.5" y="-734.954" font-family="Helvetica,sans-Serif" font-size="10.00">com.tomoparts.tomoBay.model.sql.queries.concrete</text>
<text text-anchor="middle" x="1023.5" y="-723.954" font-family="Helvetica,sans-Serif" font-size="10.00">Queries.insert.InsertEbayBuyers.setParameters</text>
</a>
</g>
</g>
<!-- Node6&#45;&gt;Node22 -->
<g id="edge27" class="edge"><title>Node6&#45;&gt;Node22</title>
<path fill="none" stroke="midnightblue" d="M783.642,-518.501C790.268,-559.46 811.552,-654.421 871,-701.954 878.539,-707.982 886.954,-712.908 895.848,-716.923"/>
<polygon fill="midnightblue" stroke="midnightblue" points="787.081,-517.838 782.142,-508.465 780.158,-518.872 787.081,-517.838"/>
</g>
<!-- Node23 -->
<g id="node23" class="node"><title>Node23</title>
<g id="a_node23"><a xlink:href="classcom_1_1tomoparts_1_1tomoBay_1_1model_1_1sql_1_1queries_1_1concreteQueries_1_1select_1_1params_1_1SelectEbayOrderByBuyer.html#af9020b85517904668d036bc2bf89433c" target="_top" xlink:title="com.tomoparts.tomoBay.model.sql.queries.concrete\lQueries.select.params.SelectEbayOrderByBuyer.set\lParameters">
<polygon fill="white" stroke="black" points="888.5,-618.454 888.5,-659.454 1158.5,-659.454 1158.5,-618.454 888.5,-618.454"/>
<text text-anchor="start" x="896.5" y="-647.454" font-family="Helvetica,sans-Serif" font-size="10.00">com.tomoparts.tomoBay.model.sql.queries.concrete</text>
<text text-anchor="start" x="896.5" y="-636.454" font-family="Helvetica,sans-Serif" font-size="10.00">Queries.select.params.SelectEbayOrderByBuyer.set</text>
<text text-anchor="middle" x="1023.5" y="-625.454" font-family="Helvetica,sans-Serif" font-size="10.00">Parameters</text>
</a>
</g>
</g>
<!-- Node6&#45;&gt;Node23 -->
<g id="edge28" class="edge"><title>Node6&#45;&gt;Node23</title>
<path fill="none" stroke="midnightblue" d="M790.616,-517.309C804.716,-542.283 833.452,-586.433 871,-608.954 876.863,-612.471 883.062,-615.585 889.471,-618.341"/>
<polygon fill="midnightblue" stroke="midnightblue" points="793.654,-515.57 785.788,-508.472 787.511,-518.926 793.654,-515.57"/>
</g>
<!-- Node24 -->
<g id="node24" class="node"><title>Node24</title>
<g id="a_node24"><a xlink:href="classcom_1_1tomoparts_1_1tomoBay_1_1model_1_1sql_1_1queries_1_1concreteQueries_1_1select_1_1params_1_1SelectTransactionByOrder.html#af9020b85517904668d036bc2bf89433c" target="_top" xlink:title="com.tomoparts.tomoBay.model.sql.queries.concrete\lQueries.select.params.SelectTransactionByOrder.set\lParameters">
<polygon fill="white" stroke="black" points="888.5,-558.454 888.5,-599.454 1158.5,-599.454 1158.5,-558.454 888.5,-558.454"/>
<text text-anchor="start" x="896.5" y="-587.454" font-family="Helvetica,sans-Serif" font-size="10.00">com.tomoparts.tomoBay.model.sql.queries.concrete</text>
<text text-anchor="start" x="896.5" y="-576.454" font-family="Helvetica,sans-Serif" font-size="10.00">Queries.select.params.SelectTransactionByOrder.set</text>
<text text-anchor="middle" x="1023.5" y="-565.454" font-family="Helvetica,sans-Serif" font-size="10.00">Parameters</text>
</a>
</g>
</g>
<!-- Node6&#45;&gt;Node24 -->
<g id="edge29" class="edge"><title>Node6&#45;&gt;Node24</title>
<path fill="none" stroke="midnightblue" d="M803.448,-514.027C821.106,-525.227 846.704,-540.05 871,-548.954 880.567,-552.46 890.631,-555.587 900.835,-558.369"/>
<polygon fill="midnightblue" stroke="midnightblue" points="805.284,-511.046 794.987,-508.551 801.481,-516.923 805.284,-511.046"/>
</g>
<!-- Node25 -->
<g id="node25" class="node"><title>Node25</title>
<g id="a_node25"><a xlink:href="classcom_1_1tomoparts_1_1tomoBay_1_1model_1_1sql_1_1queries_1_1concreteQueries_1_1select_1_1para6f75a6d09fd903571426df29e6112491.html#af9020b85517904668d036bc2bf89433c" target="_top" xlink:title="com.tomoparts.tomoBay.model.sql.queries.concrete\lQueries.select.params.SelectBrandAndPartNoBy\lOrderID.setParameters">
<polygon fill="white" stroke="black" points="888.5,-498.454 888.5,-539.454 1158.5,-539.454 1158.5,-498.454 888.5,-498.454"/>
<text text-anchor="start" x="896.5" y="-527.454" font-family="Helvetica,sans-Serif" font-size="10.00">com.tomoparts.tomoBay.model.sql.queries.concrete</text>
<text text-anchor="start" x="896.5" y="-516.454" font-family="Helvetica,sans-Serif" font-size="10.00">Queries.select.params.SelectBrandAndPartNoBy</text>
<text text-anchor="middle" x="1023.5" y="-505.454" font-family="Helvetica,sans-Serif" font-size="10.00">OrderID.setParameters</text>
</a>
</g>
</g>
<!-- Node6&#45;&gt;Node25 -->
<g id="edge30" class="edge"><title>Node6&#45;&gt;Node25</title>
<path fill="none" stroke="midnightblue" d="M845.208,-504.272C858.625,-505.383 873.246,-506.594 888.146,-507.828"/>
<polygon fill="midnightblue" stroke="midnightblue" points="845.452,-500.78 835.197,-503.443 844.874,-507.756 845.452,-500.78"/>
</g>
<!-- Node26 -->
<g id="node26" class="node"><title>Node26</title>
<g id="a_node26"><a xlink:href="classcom_1_1tomoparts_1_1tomoBay_1_1model_1_1sql_1_1queries_1_1concreteQueries_1_1select_1_1params_1_1SelectEbayOrderByID.html#af9020b85517904668d036bc2bf89433c" target="_top" xlink:title="com.tomoparts.tomoBay.model.sql.queries.concrete\lQueries.select.params.SelectEbayOrderByID.set\lParameters">
<polygon fill="white" stroke="black" points="888.5,-438.454 888.5,-479.454 1158.5,-479.454 1158.5,-438.454 888.5,-438.454"/>
<text text-anchor="start" x="896.5" y="-467.454" font-family="Helvetica,sans-Serif" font-size="10.00">com.tomoparts.tomoBay.model.sql.queries.concrete</text>
<text text-anchor="start" x="896.5" y="-456.454" font-family="Helvetica,sans-Serif" font-size="10.00">Queries.select.params.SelectEbayOrderByID.set</text>
<text text-anchor="middle" x="1023.5" y="-445.454" font-family="Helvetica,sans-Serif" font-size="10.00">Parameters</text>
</a>
</g>
</g>
<!-- Node6&#45;&gt;Node26 -->
<g id="edge31" class="edge"><title>Node6&#45;&gt;Node26</title>
<path fill="none" stroke="midnightblue" d="M845.215,-488.318C861.705,-485.587 880.012,-482.555 898.423,-479.505"/>
<polygon fill="midnightblue" stroke="midnightblue" points="844.491,-484.89 835.197,-489.977 845.635,-491.796 844.491,-484.89"/>
</g>
<!-- Node27 -->
<g id="node27" class="node"><title>Node27</title>
<g id="a_node27"><a xlink:href="classcom_1_1tomoparts_1_1tomoBay_1_1model_1_1sql_1_1queries_1_1concreteQueries_1_1select_1_1params_1_1SelectEbayBuyer.html#af9020b85517904668d036bc2bf89433c" target="_top" xlink:title="com.tomoparts.tomoBay.model.sql.queries.concrete\lQueries.select.params.SelectEbayBuyer.setParameters">
<polygon fill="white" stroke="black" points="882,-388.954 882,-418.954 1165,-418.954 1165,-388.954 882,-388.954"/>
<text text-anchor="start" x="890" y="-406.954" font-family="Helvetica,sans-Serif" font-size="10.00">com.tomoparts.tomoBay.model.sql.queries.concrete</text>
<text text-anchor="middle" x="1023.5" y="-395.954" font-family="Helvetica,sans-Serif" font-size="10.00">Queries.select.params.SelectEbayBuyer.setParameters</text>
</a>
</g>
</g>
<!-- Node6&#45;&gt;Node27 -->
<g id="edge32" class="edge"><title>Node6&#45;&gt;Node27</title>
<path fill="none" stroke="midnightblue" d="M797.284,-482.112C814.135,-465.769 842.011,-441.633 871,-428.954 879.915,-425.055 889.367,-421.76 899.023,-418.975"/>
<polygon fill="midnightblue" stroke="midnightblue" points="794.557,-479.888 789.941,-489.424 799.497,-484.848 794.557,-479.888"/>
</g>
<!-- Node28 -->
<g id="node28" class="node"><title>Node28</title>
<g id="a_node28"><a xlink:href="classcom_1_1tomoparts_1_1tomoBay_1_1model_1_1sql_1_1queries_1_1concreteQueries_1_1select_1_1params_1_1SelectFullOrderLine.html#af9020b85517904668d036bc2bf89433c" target="_top" xlink:title="com.tomoparts.tomoBay.model.sql.queries.concrete\lQueries.select.params.SelectFullOrderLine.set\lParameters">
<polygon fill="white" stroke="black" points="888.5,-328.454 888.5,-369.454 1158.5,-369.454 1158.5,-328.454 888.5,-328.454"/>
<text text-anchor="start" x="896.5" y="-357.454" font-family="Helvetica,sans-Serif" font-size="10.00">com.tomoparts.tomoBay.model.sql.queries.concrete</text>
<text text-anchor="start" x="896.5" y="-346.454" font-family="Helvetica,sans-Serif" font-size="10.00">Queries.select.params.SelectFullOrderLine.set</text>
<text text-anchor="middle" x="1023.5" y="-335.454" font-family="Helvetica,sans-Serif" font-size="10.00">Parameters</text>
</a>
</g>
</g>
<!-- Node6&#45;&gt;Node28 -->
<g id="edge33" class="edge"><title>Node6&#45;&gt;Node28</title>
<path fill="none" stroke="midnightblue" d="M789.594,-480.105C802.944,-453.099 831.319,-403.909 871,-378.954 876.561,-375.457 882.445,-372.355 888.539,-369.603"/>
<polygon fill="midnightblue" stroke="midnightblue" points="786.368,-478.74 785.221,-489.273 792.686,-481.754 786.368,-478.74"/>
</g>
<!-- Node7&#45;&gt;Node2 -->
<g id="edge13" class="edge"><title>Node7&#45;&gt;Node2</title>
<path fill="none" stroke="midnightblue" d="M1085.41,-269.027C1117.67,-276.137 1154.87,-290.39 1176,-318.954 1252,-421.712 1126.46,-797.997 1212,-892.954 1214.94,-896.216 1218.14,-899.144 1221.56,-901.769"/>
<polygon fill="midnightblue" stroke="midnightblue" points="1086.08,-265.591 1075.59,-267.041 1084.7,-272.452 1086.08,-265.591"/>
</g>
<!-- Node8 -->
<g id="node8" class="node"><title>Node8</title>
<g id="a_node8"><a xlink:href="classcom_1_1tomoparts_1_1tomoBay_1_1model_1_1sql_1_1framework_1_1QueryUtility.html#a2da2ce60a8a037d55bdc69309db4815b" target="_top" xlink:title="private ctor ensures that this class is never instantiated ">
<polygon fill="white" stroke="black" points="1319.5,-320.454 1319.5,-339.454 1391.5,-339.454 1391.5,-320.454 1319.5,-320.454"/>
<text text-anchor="middle" x="1355.5" y="-327.454" font-family="Helvetica,sans-Serif" font-size="10.00">QueryUtility</text>
</a>
</g>
</g>
<!-- Node7&#45;&gt;Node8 -->
<g id="edge7" class="edge"><title>Node7&#45;&gt;Node8</title>
<path fill="none" stroke="midnightblue" d="M1085.87,-265.64C1114.07,-268.843 1147.5,-274.818 1176,-285.954 1193.91,-292.954 1194.03,-303.113 1212,-309.954 1247.02,-323.286 1289.93,-327.861 1319.45,-329.364"/>
<polygon fill="midnightblue" stroke="midnightblue" points="1086.05,-262.14 1075.74,-264.581 1085.32,-269.102 1086.05,-262.14"/>
</g>
<!-- Node9 -->
<g id="node9" class="node"><title>Node9</title>
<g id="a_node9"><a xlink:href="classcom_1_1tomoparts_1_1tomoBay_1_1model_1_1sql_1_1queries_1_1concreteQueries_1_1update_1_1UpdateInvoiceStatusSRN.html#af9020b85517904668d036bc2bf89433c" target="_top" xlink:title="com.tomoparts.tomoBay.model.sql.queries.concrete\lQueries.update.UpdateInvoiceStatusSRN.setParameters">
<polygon fill="white" stroke="black" points="1212,-270.954 1212,-300.954 1499,-300.954 1499,-270.954 1212,-270.954"/>
<text text-anchor="start" x="1220" y="-288.954" font-family="Helvetica,sans-Serif" font-size="10.00">com.tomoparts.tomoBay.model.sql.queries.concrete</text>
<text text-anchor="middle" x="1355.5" y="-277.954" font-family="Helvetica,sans-Serif" font-size="10.00">Queries.update.UpdateInvoiceStatusSRN.setParameters</text>
</a>
</g>
</g>
<!-- Node7&#45;&gt;Node9 -->
<g id="edge8" class="edge"><title>Node7&#45;&gt;Node9</title>
<path fill="none" stroke="midnightblue" d="M1085.9,-266.419C1121.43,-269.004 1167.74,-272.371 1211.87,-275.581"/>
<polygon fill="midnightblue" stroke="midnightblue" points="1085.93,-262.913 1075.7,-265.678 1085.42,-269.894 1085.93,-262.913"/>
</g>
<!-- Node7&#45;&gt;Node10 -->
<g id="edge9" class="edge"><title>Node7&#45;&gt;Node10</title>
<path fill="none" stroke="midnightblue" d="M1085.84,-259.747C1115.37,-261.497 1149.93,-267.951 1176,-285.954 1202.54,-304.28 1185.62,-330.41 1212,-348.954 1217.45,-352.782 1223.29,-356.085 1229.39,-358.931"/>
<polygon fill="midnightblue" stroke="midnightblue" points="1085.77,-256.241 1075.63,-259.313 1085.47,-263.235 1085.77,-256.241"/>
</g>
<!-- Node11 -->
<g id="node11" class="node"><title>Node11</title>
<g id="a_node11"><a xlink:href="classcom_1_1tomoparts_1_1tomoBay_1_1model_1_1sql_1_1queries_1_1concreteQueries_1_1insert_1_1InsertOutOfHoursOrders.html#af9020b85517904668d036bc2bf89433c" target="_top" xlink:title="com.tomoparts.tomoBay.model.sql.queries.concrete\lQueries.insert.InsertOutOfHoursOrders.setParameters">
<polygon fill="white" stroke="black" points="1217.5,-221.954 1217.5,-251.954 1493.5,-251.954 1493.5,-221.954 1217.5,-221.954"/>
<text text-anchor="start" x="1225.5" y="-239.954" font-family="Helvetica,sans-Serif" font-size="10.00">com.tomoparts.tomoBay.model.sql.queries.concrete</text>
<text text-anchor="middle" x="1355.5" y="-228.954" font-family="Helvetica,sans-Serif" font-size="10.00">Queries.insert.InsertOutOfHoursOrders.setParameters</text>
</a>
</g>
</g>
<!-- Node7&#45;&gt;Node11 -->
<g id="edge10" class="edge"><title>Node7&#45;&gt;Node11</title>
<path fill="none" stroke="midnightblue" d="M1085.81,-257.309C1122.81,-254.507 1171.5,-250.818 1217.25,-247.352"/>
<polygon fill="midnightblue" stroke="midnightblue" points="1085.41,-253.83 1075.7,-258.075 1085.94,-260.81 1085.41,-253.83"/>
</g>
<!-- Node12 -->
<g id="node12" class="node"><title>Node12</title>
<g id="a_node12"><a xlink:href="classcom_1_1tomoparts_1_1tomoBay_1_1model_1_1sql_1_1queries_1_1concreteQueries_1_1select_1_1parac0d31fe89450040cf1dcb1e02765c08b.html#af9020b85517904668d036bc2bf89433c" target="_top" xlink:title="com.tomoparts.tomoBay.model.sql.queries.concrete\lQueries.select.params.SelectEbayOrderHistory\lLastNDays.setParameters">
<polygon fill="white" stroke="black" points="1220.5,-161.454 1220.5,-202.454 1490.5,-202.454 1490.5,-161.454 1220.5,-161.454"/>
<text text-anchor="start" x="1228.5" y="-190.454" font-family="Helvetica,sans-Serif" font-size="10.00">com.tomoparts.tomoBay.model.sql.queries.concrete</text>
<text text-anchor="start" x="1228.5" y="-179.454" font-family="Helvetica,sans-Serif" font-size="10.00">Queries.select.params.SelectEbayOrderHistory</text>
<text text-anchor="middle" x="1355.5" y="-168.454" font-family="Helvetica,sans-Serif" font-size="10.00">LastNDays.setParameters</text>
</a>
</g>
</g>
<!-- Node7&#45;&gt;Node12 -->
<g id="edge11" class="edge"><title>Node7&#45;&gt;Node12</title>
<path fill="none" stroke="midnightblue" d="M1085.74,-258.789C1114.05,-255.699 1147.61,-249.668 1176,-237.954 1194.24,-230.427 1193.95,-219.939 1212,-211.954 1219.98,-208.426 1228.39,-205.303 1236.98,-202.542"/>
<polygon fill="midnightblue" stroke="midnightblue" points="1085.17,-255.328 1075.57,-259.8 1085.86,-262.294 1085.17,-255.328"/>
</g>
<!-- Node7&#45;&gt;Node13 -->
<g id="edge12" class="edge"><title>Node7&#45;&gt;Node13</title>
<path fill="none" stroke="midnightblue" d="M1085.81,-269.817C1117.59,-277.173 1154.21,-291.408 1176,-318.954 1254.11,-417.709 1173.82,-479.972 1212,-599.954 1244.83,-703.147 1316.78,-813.362 1343.89,-852.829"/>
<polygon fill="midnightblue" stroke="midnightblue" points="1086.2,-266.321 1075.69,-267.662 1084.74,-273.167 1086.2,-266.321"/>
</g>
<!-- Node7&#45;&gt;Node14 -->
<g id="edge14" class="edge"><title>Node7&#45;&gt;Node14</title>
<path fill="none" stroke="midnightblue" d="M1085.95,-267.005C1116.5,-266.174 1151.94,-259.684 1176,-237.954 1222.4,-196.045 1165.8,-144.089 1212,-101.954 1215.61,-98.6576 1219.51,-95.7239 1223.61,-93.1169"/>
<polygon fill="midnightblue" stroke="midnightblue" points="1085.77,-263.506 1075.8,-267.084 1085.83,-270.506 1085.77,-263.506"/>
</g>
<!-- Node7&#45;&gt;Node15 -->
<g id="edge15" class="edge"><title>Node7&#45;&gt;Node15</title>
<path fill="none" stroke="midnightblue" d="M1085.85,-273.454C1116.04,-281.771 1151.19,-295.769 1176,-318.954 1204.19,-345.299 1191.51,-365.257 1212,-397.954 1249.16,-457.267 1304.76,-518.447 1334.32,-549.374"/>
<polygon fill="midnightblue" stroke="midnightblue" points="1086.38,-269.976 1075.82,-270.846 1084.62,-276.751 1086.38,-269.976"/>
</g>
<!-- Node16 -->
<g id="node16" class="node"><title>Node16</title>
<g id="a_node16"><a xlink:href="classcom_1_1tomoparts_1_1tomoBay_1_1model_1_1sql_1_1queries_1_1concreteQueries_1_1select_1_1params_1_1SelectBrandByInv.html#af9020b85517904668d036bc2bf89433c" target="_top" xlink:title="com.tomoparts.tomoBay.model.sql.queries.concrete\lQueries.select.params.SelectBrandByInv.setParameters">
<polygon fill="white" stroke="black" points="1212.5,-111.954 1212.5,-141.954 1498.5,-141.954 1498.5,-111.954 1212.5,-111.954"/>
<text text-anchor="start" x="1220.5" y="-129.954" font-family="Helvetica,sans-Serif" font-size="10.00">com.tomoparts.tomoBay.model.sql.queries.concrete</text>
<text text-anchor="middle" x="1355.5" y="-118.954" font-family="Helvetica,sans-Serif" font-size="10.00">Queries.select.params.SelectBrandByInv.setParameters</text>
</a>
</g>
</g>
<!-- Node7&#45;&gt;Node16 -->
<g id="edge16" class="edge"><title>Node7&#45;&gt;Node16</title>
<path fill="none" stroke="midnightblue" d="M1086.16,-265.537C1116.09,-264.184 1150.9,-257.67 1176,-237.954 1208.59,-212.362 1179.63,-177.816 1212,-151.954 1216.71,-148.192 1221.79,-144.915 1227.13,-142.066"/>
<polygon fill="midnightblue" stroke="midnightblue" points="1085.71,-262.048 1075.81,-265.814 1085.9,-269.046 1085.71,-262.048"/>
</g>
</g>
</svg>
