<?xml version="1.0" encoding="UTF-8" standalone="no"?>
<!DOCTYPE svg PUBLIC "-//W3C//DTD SVG 1.1//EN"
 "http://www.w3.org/Graphics/SVG/1.1/DTD/svg11.dtd">
<!-- Generated by graphviz version 2.38.0 (20140413.2041)
 -->
<!-- Title: add Pages: 1 -->
<svg width="1017pt" height="61pt"
 viewBox="0.00 0.00 1017.00 61.00" xmlns="http://www.w3.org/2000/svg" xmlns:xlink="http://www.w3.org/1999/xlink">
<g id="graph0" class="graph" transform="scale(1 1) rotate(0) translate(4 57)">
<title>add</title>
<polygon fill="white" stroke="none" points="-4,4 -4,-57 1013,-57 1013,4 -4,4"/>
<!-- Node1 -->
<g id="node1" class="node"><title>Node1</title>
<polygon fill="#bfbfbf" stroke="black" points="0,-17 0,-36 35,-36 35,-17 0,-17"/>
<text text-anchor="middle" x="17.5" y="-24" font-family="Helvetica,sans-Serif" font-size="10.00">add</text>
</g>
<!-- Node2 -->
<g id="node2" class="node"><title>Node2</title>
<g id="a_node2"><a xlink:href="classcom_1_1tomoparts_1_1tomoBay_1_1model_1_1dataTypes_1_1financial_1_1SalesOrderDayBook_1_1PriceAdjustment.html#a7114ae819db1434d652d784079e06ed8" target="_top" xlink:title="this method represents a fitness function to be used when calculating the adjustments to the Abstract...">
<polygon fill="white" stroke="black" points="71,-6 71,-47 266,-47 266,-6 71,-6"/>
<text text-anchor="start" x="79" y="-35" font-family="Helvetica,sans-Serif" font-size="10.00">com.tomoparts.tomoBay.model.data</text>
<text text-anchor="start" x="79" y="-24" font-family="Helvetica,sans-Serif" font-size="10.00">Types.financial.SalesOrderDayBook.</text>
<text text-anchor="middle" x="168.5" y="-13" font-family="Helvetica,sans-Serif" font-size="10.00">PriceAdjustment.fitness</text>
</a>
</g>
</g>
<!-- Node1&#45;&gt;Node2 -->
<g id="edge1" class="edge"><title>Node1&#45;&gt;Node2</title>
<path fill="none" stroke="midnightblue" d="M45.229,-26.5C52.8086,-26.5 61.5291,-26.5 70.7503,-26.5"/>
<polygon fill="midnightblue" stroke="midnightblue" points="45.0149,-23.0001 35.0149,-26.5 45.0149,-30.0001 45.0149,-23.0001"/>
</g>
<!-- Node3 -->
<g id="node3" class="node"><title>Node3</title>
<g id="a_node3"><a xlink:href="classcom_1_1tomoparts_1_1tomoBay_1_1model_1_1dataTypes_1_1financial_1_1SalesOrderDayBook_1_1PriceAdjustment.html#ac2a5cb96c13a986d05bd0457a1971e2f" target="_top" xlink:title="calculate the adjustments necessary and apply them to the AbstractSalesDayBookLine provided as an arg...">
<polygon fill="white" stroke="black" points="302,-6 302,-47 497,-47 497,-6 302,-6"/>
<text text-anchor="start" x="310" y="-35" font-family="Helvetica,sans-Serif" font-size="10.00">com.tomoparts.tomoBay.model.data</text>
<text text-anchor="start" x="310" y="-24" font-family="Helvetica,sans-Serif" font-size="10.00">Types.financial.SalesOrderDayBook.</text>
<text text-anchor="middle" x="399.5" y="-13" font-family="Helvetica,sans-Serif" font-size="10.00">PriceAdjustment.adjust</text>
</a>
</g>
</g>
<!-- Node2&#45;&gt;Node3 -->
<g id="edge2" class="edge"><title>Node2&#45;&gt;Node3</title>
<path fill="none" stroke="midnightblue" d="M276.498,-26.5C284.904,-26.5 293.363,-26.5 301.695,-26.5"/>
<polygon fill="midnightblue" stroke="midnightblue" points="276.285,-23.0001 266.285,-26.5 276.285,-30.0001 276.285,-23.0001"/>
</g>
<!-- Node4 -->
<g id="node4" class="node"><title>Node4</title>
<g id="a_node4"><a xlink:href="classcom_1_1tomoparts_1_1tomoBay_1_1model_1_1dataTypes_1_1financial_1_1SalesOrderDayBook_1_1AbstractSalesDayBookLine.html#a0c8ce8b50d57fa99babc2c2199a39fe3" target="_top" xlink:title="com.tomoparts.tomoBay.model.data\lTypes.financial.SalesOrderDayBook.\lAbstractSalesDayBookLine.adjustPrices">
<polygon fill="white" stroke="black" points="533,-6 533,-47 739,-47 739,-6 533,-6"/>
<text text-anchor="start" x="541" y="-35" font-family="Helvetica,sans-Serif" font-size="10.00">com.tomoparts.tomoBay.model.data</text>
<text text-anchor="start" x="541" y="-24" font-family="Helvetica,sans-Serif" font-size="10.00">Types.financial.SalesOrderDayBook.</text>
<text text-anchor="middle" x="636" y="-13" font-family="Helvetica,sans-Serif" font-size="10.00">AbstractSalesDayBookLine.adjustPrices</text>
</a>
</g>
</g>
<!-- Node3&#45;&gt;Node4 -->
<g id="edge3" class="edge"><title>Node3&#45;&gt;Node4</title>
<path fill="none" stroke="midnightblue" d="M507.468,-26.5C515.897,-26.5 524.397,-26.5 532.792,-26.5"/>
<polygon fill="midnightblue" stroke="midnightblue" points="507.234,-23.0001 497.234,-26.5 507.234,-30.0001 507.234,-23.0001"/>
</g>
<!-- Node5 -->
<g id="node5" class="node"><title>Node5</title>
<g id="a_node5"><a xlink:href="classcom_1_1tomoparts_1_1tomoBay_1_1model_1_1dataTypes_1_1financial_1_1SalesOrderDayBook_1_1AbstractSalesDayBookLine.html#ae9d19609629c59f8df7ddec196fcc30c" target="_top" xlink:title="CONSTRUCTOR, creates a SalesDayBookLine based on the Order passed in as a parameter. ">
<polygon fill="white" stroke="black" points="775,-0.5 775,-52.5 1009,-52.5 1009,-0.5 775,-0.5"/>
<text text-anchor="start" x="783" y="-40.5" font-family="Helvetica,sans-Serif" font-size="10.00">com.tomoparts.tomoBay.model.data</text>
<text text-anchor="start" x="783" y="-29.5" font-family="Helvetica,sans-Serif" font-size="10.00">Types.financial.SalesOrderDayBook.</text>
<text text-anchor="start" x="783" y="-18.5" font-family="Helvetica,sans-Serif" font-size="10.00">AbstractSalesDayBookLine.AbstractSalesDay</text>
<text text-anchor="middle" x="892" y="-7.5" font-family="Helvetica,sans-Serif" font-size="10.00">BookLine</text>
</a>
</g>
</g>
<!-- Node4&#45;&gt;Node5 -->
<g id="edge4" class="edge"><title>Node4&#45;&gt;Node5</title>
<path fill="none" stroke="midnightblue" d="M749.438,-26.5C757.864,-26.5 766.376,-26.5 774.824,-26.5"/>
<polygon fill="midnightblue" stroke="midnightblue" points="749.214,-23.0001 739.214,-26.5 749.214,-30.0001 749.214,-23.0001"/>
</g>
</g>
</svg>
