<?xml version="1.0" encoding="UTF-8" standalone="no"?>
<!DOCTYPE svg PUBLIC "-//W3C//DTD SVG 1.1//EN"
 "http://www.w3.org/Graphics/SVG/1.1/DTD/svg11.dtd">
<!-- Generated by graphviz version 2.38.0 (20140413.2041)
 -->
<!-- Title: SelectUninvoicedOrdersNoErrorsFactory Pages: 1 -->
<svg width="174pt" height="392pt"
 viewBox="0.00 0.00 174.00 392.00" xmlns="http://www.w3.org/2000/svg" xmlns:xlink="http://www.w3.org/1999/xlink">
<g id="graph0" class="graph" transform="scale(1 1) rotate(0) translate(4 388)">
<title>SelectUninvoicedOrdersNoErrorsFactory</title>
<polygon fill="white" stroke="none" points="-4,4 -4,-388 170,-388 170,4 -4,4"/>
<!-- Node1 -->
<g id="node1" class="node"><title>Node1</title>
<polygon fill="#bfbfbf" stroke="black" points="5,-0.5 5,-90.5 161,-90.5 161,-0.5 5,-0.5"/>
<text text-anchor="start" x="13" y="-78.5" font-family="Helvetica,sans-Serif" font-size="10.00">SelectUninvoicedOrdersNo</text>
<text text-anchor="middle" x="83" y="-67.5" font-family="Helvetica,sans-Serif" font-size="10.00">ErrorsFactory</text>
<polyline fill="none" stroke="black" points="5,-60.5 161,-60.5 "/>
<text text-anchor="middle" x="83" y="-48.5" font-family="Helvetica,sans-Serif" font-size="10.00"> </text>
<polyline fill="none" stroke="black" points="5,-41.5 161,-41.5 "/>
<text text-anchor="start" x="13" y="-29.5" font-family="Helvetica,sans-Serif" font-size="10.00">+ SelectUninvoicedOrdersNo</text>
<text text-anchor="start" x="13" y="-18.5" font-family="Helvetica,sans-Serif" font-size="10.00">ErrorsFactory()</text>
<text text-anchor="start" x="13" y="-7.5" font-family="Helvetica,sans-Serif" font-size="10.00">+ make()</text>
</g>
<!-- Node2 -->
<g id="node2" class="node"><title>Node2</title>
<g id="a_node2"><a xlink:href="interfacecom_1_1tomoparts_1_1tomoBay_1_1model_1_1sql_1_1framework_1_1queryFactories_1_1AbstractSelectNoParamsQueryFactory.html" target="_top" xlink:title="{AbstractSelectNoParamsQuery\lFactory\n||+ make()\l}">
<polygon fill="white" stroke="black" points="0,-127.5 0,-195.5 166,-195.5 166,-127.5 0,-127.5"/>
<text text-anchor="start" x="8" y="-183.5" font-family="Helvetica,sans-Serif" font-size="10.00">AbstractSelectNoParamsQuery</text>
<text text-anchor="middle" x="83" y="-172.5" font-family="Helvetica,sans-Serif" font-size="10.00">Factory</text>
<polyline fill="none" stroke="black" points="0,-165.5 166,-165.5 "/>
<text text-anchor="middle" x="83" y="-153.5" font-family="Helvetica,sans-Serif" font-size="10.00"> </text>
<polyline fill="none" stroke="black" points="0,-146.5 166,-146.5 "/>
<text text-anchor="start" x="8" y="-134.5" font-family="Helvetica,sans-Serif" font-size="10.00">+ make()</text>
</a>
</g>
</g>
<!-- Node2&#45;&gt;Node1 -->
<g id="edge1" class="edge"><title>Node2&#45;&gt;Node1</title>
<path fill="none" stroke="midnightblue" d="M83,-116.972C83,-108.346 83,-99.2838 83,-90.6378"/>
<polygon fill="none" stroke="midnightblue" points="79.5001,-117.22 83,-127.22 86.5001,-117.22 79.5001,-117.22"/>
</g>
<!-- Node3 -->
<g id="node3" class="node"><title>Node3</title>
<g id="a_node3"><a xlink:href="interfacecom_1_1tomoparts_1_1tomoBay_1_1model_1_1sql_1_1framework_1_1queryFactories_1_1AbstractSelectQueryFactory.html" target="_top" xlink:title="{AbstractSelectQueryFactory\n||+ make()\l}">
<polygon fill="white" stroke="black" points="7.5,-232.5 7.5,-289.5 158.5,-289.5 158.5,-232.5 7.5,-232.5"/>
<text text-anchor="middle" x="83" y="-277.5" font-family="Helvetica,sans-Serif" font-size="10.00">AbstractSelectQueryFactory</text>
<polyline fill="none" stroke="black" points="7.5,-270.5 158.5,-270.5 "/>
<text text-anchor="middle" x="83" y="-258.5" font-family="Helvetica,sans-Serif" font-size="10.00"> </text>
<polyline fill="none" stroke="black" points="7.5,-251.5 158.5,-251.5 "/>
<text text-anchor="start" x="15.5" y="-239.5" font-family="Helvetica,sans-Serif" font-size="10.00">+ make()</text>
</a>
</g>
</g>
<!-- Node3&#45;&gt;Node2 -->
<g id="edge2" class="edge"><title>Node3&#45;&gt;Node2</title>
<path fill="none" stroke="midnightblue" d="M83,-222.063C83,-213.393 83,-204.243 83,-195.786"/>
<polygon fill="none" stroke="midnightblue" points="79.5001,-222.321 83,-232.321 86.5001,-222.321 79.5001,-222.321"/>
</g>
<!-- Node4 -->
<g id="node4" class="node"><title>Node4</title>
<g id="a_node4"><a xlink:href="interfacecom_1_1tomoparts_1_1tomoBay_1_1model_1_1sql_1_1framework_1_1queryFactories_1_1AbstractQueryFactory.html" target="_top" xlink:title="all Queries are instantiated using a factory and each of these factories must conform to this interfa...">
<polygon fill="white" stroke="black" points="22.5,-326.5 22.5,-383.5 143.5,-383.5 143.5,-326.5 22.5,-326.5"/>
<text text-anchor="middle" x="83" y="-371.5" font-family="Helvetica,sans-Serif" font-size="10.00">AbstractQueryFactory</text>
<polyline fill="none" stroke="black" points="22.5,-364.5 143.5,-364.5 "/>
<text text-anchor="middle" x="83" y="-352.5" font-family="Helvetica,sans-Serif" font-size="10.00"> </text>
<polyline fill="none" stroke="black" points="22.5,-345.5 143.5,-345.5 "/>
<text text-anchor="start" x="30.5" y="-333.5" font-family="Helvetica,sans-Serif" font-size="10.00">+ make()</text>
</a>
</g>
</g>
<!-- Node4&#45;&gt;Node3 -->
<g id="edge3" class="edge"><title>Node4&#45;&gt;Node3</title>
<path fill="none" stroke="midnightblue" d="M83,-316.209C83,-307.293 83,-297.951 83,-289.584"/>
<polygon fill="none" stroke="midnightblue" points="79.5001,-316.397 83,-326.397 86.5001,-316.397 79.5001,-316.397"/>
</g>
</g>
</svg>
