<?xml version="1.0" encoding="UTF-8" standalone="no"?>
<!DOCTYPE svg PUBLIC "-//W3C//DTD SVG 1.1//EN"
 "http://www.w3.org/Graphics/SVG/1.1/DTD/svg11.dtd">
<!-- Generated by graphviz version 2.38.0 (20140413.2041)
 -->
<!-- Title: InsertOrderInOrderStatusFactory Pages: 1 -->
<svg width="161pt" height="392pt"
 viewBox="0.00 0.00 161.00 392.00" xmlns="http://www.w3.org/2000/svg" xmlns:xlink="http://www.w3.org/1999/xlink">
<g id="graph0" class="graph" transform="scale(1 1) rotate(0) translate(4 388)">
<title>InsertOrderInOrderStatusFactory</title>
<polygon fill="white" stroke="none" points="-4,4 -4,-388 157,-388 157,4 -4,4"/>
<!-- Node1 -->
<g id="node1" class="node"><title>Node1</title>
<polygon fill="#bfbfbf" stroke="black" points="2,-0.5 2,-90.5 151,-90.5 151,-0.5 2,-0.5"/>
<text text-anchor="start" x="10" y="-78.5" font-family="Helvetica,sans-Serif" font-size="10.00">InsertOrderInOrderStatus</text>
<text text-anchor="middle" x="76.5" y="-67.5" font-family="Helvetica,sans-Serif" font-size="10.00">Factory</text>
<polyline fill="none" stroke="black" points="2,-60.5 151,-60.5 "/>
<text text-anchor="middle" x="76.5" y="-48.5" font-family="Helvetica,sans-Serif" font-size="10.00"> </text>
<polyline fill="none" stroke="black" points="2,-41.5 151,-41.5 "/>
<text text-anchor="start" x="10" y="-29.5" font-family="Helvetica,sans-Serif" font-size="10.00">+ InsertOrderInOrderStatus</text>
<text text-anchor="start" x="10" y="-18.5" font-family="Helvetica,sans-Serif" font-size="10.00">Factory()</text>
<text text-anchor="start" x="10" y="-7.5" font-family="Helvetica,sans-Serif" font-size="10.00">+ make()</text>
</g>
<!-- Node2 -->
<g id="node2" class="node"><title>Node2</title>
<g id="a_node2"><a xlink:href="interfacecom_1_1tomoparts_1_1tomoBay_1_1model_1_1sql_1_1framework_1_1queryFactories_1_1AbstractModifyQueryParamsFactory.html" target="_top" xlink:title="{AbstractModifyQueryParams\lFactory\n||+ make()\l}">
<polygon fill="white" stroke="black" points="0,-127.5 0,-195.5 153,-195.5 153,-127.5 0,-127.5"/>
<text text-anchor="start" x="8" y="-183.5" font-family="Helvetica,sans-Serif" font-size="10.00">AbstractModifyQueryParams</text>
<text text-anchor="middle" x="76.5" y="-172.5" font-family="Helvetica,sans-Serif" font-size="10.00">Factory</text>
<polyline fill="none" stroke="black" points="0,-165.5 153,-165.5 "/>
<text text-anchor="middle" x="76.5" y="-153.5" font-family="Helvetica,sans-Serif" font-size="10.00"> </text>
<polyline fill="none" stroke="black" points="0,-146.5 153,-146.5 "/>
<text text-anchor="start" x="8" y="-134.5" font-family="Helvetica,sans-Serif" font-size="10.00">+ make()</text>
</a>
</g>
</g>
<!-- Node2&#45;&gt;Node1 -->
<g id="edge1" class="edge"><title>Node2&#45;&gt;Node1</title>
<path fill="none" stroke="midnightblue" d="M76.5,-116.972C76.5,-108.346 76.5,-99.2838 76.5,-90.6378"/>
<polygon fill="none" stroke="midnightblue" points="73.0001,-117.22 76.5,-127.22 80.0001,-117.22 73.0001,-117.22"/>
</g>
<!-- Node3 -->
<g id="node3" class="node"><title>Node3</title>
<g id="a_node3"><a xlink:href="interfacecom_1_1tomoparts_1_1tomoBay_1_1model_1_1sql_1_1framework_1_1queryFactories_1_1AbstractModifyQueryFactory.html" target="_top" xlink:title="{AbstractModifyQueryFactory\n||+ make()\l}">
<polygon fill="white" stroke="black" points="0.5,-232.5 0.5,-289.5 152.5,-289.5 152.5,-232.5 0.5,-232.5"/>
<text text-anchor="middle" x="76.5" y="-277.5" font-family="Helvetica,sans-Serif" font-size="10.00">AbstractModifyQueryFactory</text>
<polyline fill="none" stroke="black" points="0.5,-270.5 152.5,-270.5 "/>
<text text-anchor="middle" x="76.5" y="-258.5" font-family="Helvetica,sans-Serif" font-size="10.00"> </text>
<polyline fill="none" stroke="black" points="0.5,-251.5 152.5,-251.5 "/>
<text text-anchor="start" x="8.5" y="-239.5" font-family="Helvetica,sans-Serif" font-size="10.00">+ make()</text>
</a>
</g>
</g>
<!-- Node3&#45;&gt;Node2 -->
<g id="edge2" class="edge"><title>Node3&#45;&gt;Node2</title>
<path fill="none" stroke="midnightblue" d="M76.5,-222.063C76.5,-213.393 76.5,-204.243 76.5,-195.786"/>
<polygon fill="none" stroke="midnightblue" points="73.0001,-222.321 76.5,-232.321 80.0001,-222.321 73.0001,-222.321"/>
</g>
<!-- Node4 -->
<g id="node4" class="node"><title>Node4</title>
<g id="a_node4"><a xlink:href="interfacecom_1_1tomoparts_1_1tomoBay_1_1model_1_1sql_1_1framework_1_1queryFactories_1_1AbstractQueryFactory.html" target="_top" xlink:title="all Queries are instantiated using a factory and each of these factories must conform to this interfa...">
<polygon fill="white" stroke="black" points="16,-326.5 16,-383.5 137,-383.5 137,-326.5 16,-326.5"/>
<text text-anchor="middle" x="76.5" y="-371.5" font-family="Helvetica,sans-Serif" font-size="10.00">AbstractQueryFactory</text>
<polyline fill="none" stroke="black" points="16,-364.5 137,-364.5 "/>
<text text-anchor="middle" x="76.5" y="-352.5" font-family="Helvetica,sans-Serif" font-size="10.00"> </text>
<polyline fill="none" stroke="black" points="16,-345.5 137,-345.5 "/>
<text text-anchor="start" x="24" y="-333.5" font-family="Helvetica,sans-Serif" font-size="10.00">+ make()</text>
</a>
</g>
</g>
<!-- Node4&#45;&gt;Node3 -->
<g id="edge3" class="edge"><title>Node4&#45;&gt;Node3</title>
<path fill="none" stroke="midnightblue" d="M76.5,-316.209C76.5,-307.293 76.5,-297.951 76.5,-289.584"/>
<polygon fill="none" stroke="midnightblue" points="73.0001,-316.397 76.5,-326.397 80.0001,-316.397 73.0001,-316.397"/>
</g>
</g>
</svg>
