<?xml version="1.0" encoding="UTF-8" standalone="no"?>
<!DOCTYPE svg PUBLIC "-//W3C//DTD SVG 1.1//EN"
 "http://www.w3.org/Graphics/SVG/1.1/DTD/svg11.dtd">
<!-- Generated by graphviz version 2.38.0 (20140413.2041)
 -->
<!-- Title: reAssembleCategories Pages: 1 -->
<svg width="634pt" height="66pt"
 viewBox="0.00 0.00 634.00 66.00" xmlns="http://www.w3.org/2000/svg" xmlns:xlink="http://www.w3.org/1999/xlink">
<g id="graph0" class="graph" transform="scale(1 1) rotate(0) translate(4 62)">
<title>reAssembleCategories</title>
<polygon fill="white" stroke="none" points="-4,4 -4,-62 630,-62 630,4 -4,4"/>
<!-- Node1 -->
<g id="node1" class="node"><title>Node1</title>
<polygon fill="#bfbfbf" stroke="black" points="0,-19.5 0,-38.5 125,-38.5 125,-19.5 0,-19.5"/>
<text text-anchor="middle" x="62.5" y="-26.5" font-family="Helvetica,sans-Serif" font-size="10.00">reAssembleCategories</text>
</g>
<!-- Node2 -->
<g id="node2" class="node"><title>Node2</title>
<g id="a_node2"><a xlink:href="classcom_1_1tomoparts_1_1tomoBay_1_1helpers_1_1SortOrders.html#a636fab5a9378dd9e3747f06161fd4939" target="_top" xlink:title="sort the list&lt;String&gt; by Invoice status descending (see InvoiceableStatus enum) ">
<polygon fill="white" stroke="black" points="161,-38.5 161,-57.5 261,-57.5 261,-38.5 161,-38.5"/>
<text text-anchor="middle" x="211" y="-45.5" font-family="Helvetica,sans-Serif" font-size="10.00">sortByPickeability</text>
</a>
</g>
</g>
<!-- Node1&#45;&gt;Node2 -->
<g id="edge1" class="edge"><title>Node1&#45;&gt;Node2</title>
<path fill="none" stroke="midnightblue" d="M135.303,-38.3124C143.941,-39.4326 152.606,-40.5564 160.816,-41.6212"/>
<polygon fill="midnightblue" stroke="midnightblue" points="135.572,-34.818 125.205,-37.0026 134.671,-41.7598 135.572,-34.818"/>
</g>
<!-- Node5 -->
<g id="node5" class="node"><title>Node5</title>
<g id="a_node5"><a xlink:href="classcom_1_1tomoparts_1_1tomoBay_1_1helpers_1_1SortOrders.html#a991c04b46f8b24ac19bb83c21173e275" target="_top" xlink:title="sort the List&lt;String&gt; by shipping type descending (see ShippingPriority enum) ">
<polygon fill="white" stroke="black" points="166.5,-0.5 166.5,-19.5 255.5,-19.5 255.5,-0.5 166.5,-0.5"/>
<text text-anchor="middle" x="211" y="-7.5" font-family="Helvetica,sans-Serif" font-size="10.00">sortByShipping</text>
</a>
</g>
</g>
<!-- Node1&#45;&gt;Node5 -->
<g id="edge4" class="edge"><title>Node1&#45;&gt;Node5</title>
<path fill="none" stroke="midnightblue" d="M135.274,-19.6915C145.819,-18.3238 156.405,-16.9509 166.157,-15.6861"/>
<polygon fill="midnightblue" stroke="midnightblue" points="134.671,-16.2402 125.205,-20.9974 135.572,-23.182 134.671,-16.2402"/>
</g>
<!-- Node3 -->
<g id="node3" class="node"><title>Node3</title>
<g id="a_node3"><a xlink:href="classcom_1_1tomoparts_1_1tomoBay_1_1helpers_1_1SortOrders.html#a5020830384922af1e38f13a051a3b95e" target="_top" xlink:title="sort an input list of Strings i.e. ">
<polygon fill="white" stroke="black" points="297,-19.5 297,-38.5 367,-38.5 367,-19.5 297,-19.5"/>
<text text-anchor="middle" x="332" y="-26.5" font-family="Helvetica,sans-Serif" font-size="10.00">sortDefault</text>
</a>
</g>
</g>
<!-- Node2&#45;&gt;Node3 -->
<g id="edge2" class="edge"><title>Node2&#45;&gt;Node3</title>
<path fill="none" stroke="midnightblue" d="M271.052,-38.5715C279.919,-37.1558 288.799,-35.738 296.904,-34.4438"/>
<polygon fill="midnightblue" stroke="midnightblue" points="270.412,-35.1293 261.089,-40.1623 271.516,-42.0417 270.412,-35.1293"/>
</g>
<!-- Node4 -->
<g id="node4" class="node"><title>Node4</title>
<g id="a_node4"><a xlink:href="classcom_1_1tomoparts_1_1tomoBay_1_1presenters_1_1sales_1_1SalesOrderPresenter.html#aae3ef9e158aa1e975acedd263e47fa3c" target="_top" xlink:title="this method is called when you actually want to present the information to be displayed to the approp...">
<polygon fill="white" stroke="black" points="403,-14 403,-44 626,-44 626,-14 403,-14"/>
<text text-anchor="start" x="411" y="-32" font-family="Helvetica,sans-Serif" font-size="10.00">com.tomoparts.tomoBay.presenters.sales.</text>
<text text-anchor="middle" x="514.5" y="-21" font-family="Helvetica,sans-Serif" font-size="10.00">SalesOrderPresenter.present</text>
</a>
</g>
</g>
<!-- Node3&#45;&gt;Node4 -->
<g id="edge3" class="edge"><title>Node3&#45;&gt;Node4</title>
<path fill="none" stroke="midnightblue" d="M377.441,-29C385.405,-29 394.017,-29 402.906,-29"/>
<polygon fill="midnightblue" stroke="midnightblue" points="377.376,-25.5001 367.376,-29 377.375,-32.5001 377.376,-25.5001"/>
</g>
<!-- Node5&#45;&gt;Node3 -->
<g id="edge5" class="edge"><title>Node5&#45;&gt;Node3</title>
<path fill="none" stroke="midnightblue" d="M265.631,-18.563C276.182,-20.2476 286.982,-21.9718 296.685,-23.5211"/>
<polygon fill="midnightblue" stroke="midnightblue" points="266.062,-15.0875 255.635,-16.967 264.959,-22 266.062,-15.0875"/>
</g>
</g>
</svg>
