<?xml version="1.0" encoding="UTF-8" standalone="no"?>
<!DOCTYPE svg PUBLIC "-//W3C//DTD SVG 1.1//EN"
 "http://www.w3.org/Graphics/SVG/1.1/DTD/svg11.dtd">
<!-- Generated by graphviz version 2.38.0 (20140413.2041)
 -->
<!-- Title: ClientSocket Pages: 1 -->
<svg width="305pt" height="193pt"
 viewBox="0.00 0.00 305.00 193.00" xmlns="http://www.w3.org/2000/svg" xmlns:xlink="http://www.w3.org/1999/xlink">
<g id="graph0" class="graph" transform="scale(1 1) rotate(0) translate(4 189)">
<title>ClientSocket</title>
<polygon fill="white" stroke="none" points="-4,4 -4,-189 301,-189 301,4 -4,4"/>
<!-- Node1 -->
<g id="node1" class="node"><title>Node1</title>
<polygon fill="#bfbfbf" stroke="black" points="125.5,-0.5 125.5,-79.5 220.5,-79.5 220.5,-0.5 125.5,-0.5"/>
<text text-anchor="middle" x="173" y="-67.5" font-family="Helvetica,sans-Serif" font-size="10.00">ClientSocket</text>
<polyline fill="none" stroke="black" points="125.5,-60.5 220.5,-60.5 "/>
<text text-anchor="middle" x="173" y="-48.5" font-family="Helvetica,sans-Serif" font-size="10.00"> </text>
<polyline fill="none" stroke="black" points="125.5,-41.5 220.5,-41.5 "/>
<text text-anchor="start" x="133.5" y="-29.5" font-family="Helvetica,sans-Serif" font-size="10.00">+ ClientSocket()</text>
<text text-anchor="start" x="133.5" y="-18.5" font-family="Helvetica,sans-Serif" font-size="10.00">+ send()</text>
<text text-anchor="start" x="133.5" y="-7.5" font-family="Helvetica,sans-Serif" font-size="10.00">+ close()</text>
</g>
<!-- Node2 -->
<g id="node2" class="node"><title>Node2</title>
<polygon fill="white" stroke="#bfbfbf" points="0,-127.5 0,-184.5 100,-184.5 100,-127.5 0,-127.5"/>
<text text-anchor="middle" x="50" y="-172.5" font-family="Helvetica,sans-Serif" font-size="10.00">DataInputStream</text>
<polyline fill="none" stroke="#bfbfbf" points="0,-165.5 100,-165.5 "/>
<text text-anchor="middle" x="50" y="-153.5" font-family="Helvetica,sans-Serif" font-size="10.00"> </text>
<polyline fill="none" stroke="#bfbfbf" points="0,-146.5 100,-146.5 "/>
<text text-anchor="middle" x="50" y="-134.5" font-family="Helvetica,sans-Serif" font-size="10.00"> </text>
</g>
<!-- Node2&#45;&gt;Node1 -->
<g id="edge1" class="edge"><title>Node2&#45;&gt;Node1</title>
<path fill="none" stroke="#404040" d="M79.7749,-127.404C92.6103,-115.508 107.985,-101.258 122.511,-87.7942"/>
<polygon fill="none" stroke="#404040" points="122.616,-87.6978 124.297,-80.6854 131.417,-79.5406 129.735,-86.5529 122.616,-87.6978"/>
<text text-anchor="middle" x="137.5" y="-101" font-family="Helvetica,sans-Serif" font-size="10.00"> &#45;dataIn_M</text>
</g>
<!-- Node3 -->
<g id="node3" class="node"><title>Node3</title>
<polygon fill="white" stroke="#bfbfbf" points="118.5,-127.5 118.5,-184.5 227.5,-184.5 227.5,-127.5 118.5,-127.5"/>
<text text-anchor="middle" x="173" y="-172.5" font-family="Helvetica,sans-Serif" font-size="10.00">DataOutputStream</text>
<polyline fill="none" stroke="#bfbfbf" points="118.5,-165.5 227.5,-165.5 "/>
<text text-anchor="middle" x="173" y="-153.5" font-family="Helvetica,sans-Serif" font-size="10.00"> </text>
<polyline fill="none" stroke="#bfbfbf" points="118.5,-146.5 227.5,-146.5 "/>
<text text-anchor="middle" x="173" y="-134.5" font-family="Helvetica,sans-Serif" font-size="10.00"> </text>
</g>
<!-- Node3&#45;&gt;Node1 -->
<g id="edge2" class="edge"><title>Node3&#45;&gt;Node1</title>
<path fill="none" stroke="#404040" d="M173,-127.404C173,-116.63 173,-103.926 173,-91.6231"/>
<polygon fill="none" stroke="#404040" points="173,-91.5406 169,-85.5406 173,-79.5406 177,-85.5405 173,-91.5406"/>
<text text-anchor="middle" x="203" y="-101" font-family="Helvetica,sans-Serif" font-size="10.00"> &#45;dataOut_M</text>
</g>
<!-- Node4 -->
<g id="node4" class="node"><title>Node4</title>
<polygon fill="white" stroke="#bfbfbf" points="246,-127.5 246,-184.5 296,-184.5 296,-127.5 246,-127.5"/>
<text text-anchor="middle" x="271" y="-172.5" font-family="Helvetica,sans-Serif" font-size="10.00">Socket</text>
<polyline fill="none" stroke="#bfbfbf" points="246,-165.5 296,-165.5 "/>
<text text-anchor="middle" x="271" y="-153.5" font-family="Helvetica,sans-Serif" font-size="10.00"> </text>
<polyline fill="none" stroke="#bfbfbf" points="246,-146.5 296,-146.5 "/>
<text text-anchor="middle" x="271" y="-134.5" font-family="Helvetica,sans-Serif" font-size="10.00"> </text>
</g>
<!-- Node4&#45;&gt;Node1 -->
<g id="edge3" class="edge"><title>Node4&#45;&gt;Node1</title>
<path fill="none" stroke="#404040" d="M256.853,-127.483C251.268,-117.737 244.412,-106.972 237,-98 234.312,-94.747 231.435,-91.5153 228.442,-88.34"/>
<polygon fill="none" stroke="#404040" points="228.206,-88.1013 221.143,-86.6487 219.767,-79.57 226.831,-81.0226 228.206,-88.1013"/>
<text text-anchor="middle" x="271" y="-101" font-family="Helvetica,sans-Serif" font-size="10.00"> &#45;socket_M</text>
</g>
</g>
</svg>
