<?xml version="1.0" encoding="UTF-8" standalone="no"?>
<!DOCTYPE svg PUBLIC "-//W3C//DTD SVG 1.1//EN"
 "http://www.w3.org/Graphics/SVG/1.1/DTD/svg11.dtd">
<!-- Generated by graphviz version 2.38.0 (20140413.2041)
 -->
<!-- Title: addMessage Pages: 1 -->
<svg width="737pt" height="53pt"
 viewBox="0.00 0.00 737.00 52.50" xmlns="http://www.w3.org/2000/svg" xmlns:xlink="http://www.w3.org/1999/xlink">
<g id="graph0" class="graph" transform="scale(1 1) rotate(0) translate(4 48.5)">
<title>addMessage</title>
<polygon fill="white" stroke="none" points="-4,4 -4,-48.5 733,-48.5 733,4 -4,4"/>
<!-- Node1 -->
<g id="node1" class="node"><title>Node1</title>
<polygon fill="#bfbfbf" stroke="black" points="0,-19.5 0,-38.5 77,-38.5 77,-19.5 0,-19.5"/>
<text text-anchor="middle" x="38.5" y="-26.5" font-family="Helvetica,sans-Serif" font-size="10.00">addMessage</text>
</g>
<!-- Node2 -->
<g id="node2" class="node"><title>Node2</title>
<g id="a_node2"><a xlink:href="classcom_1_1tomoparts_1_1tomoBay_1_1model_1_1services_1_1emailErrorsService_1_1OnRunning.html#ae4a4f4cadce2787c7e80005639fbd5d9" target="_top" xlink:title="this method defines what to do in the given derived state ">
<polygon fill="white" stroke="black" points="209,-14 209,-44 451,-44 451,-14 209,-14"/>
<text text-anchor="start" x="217" y="-32" font-family="Helvetica,sans-Serif" font-size="10.00">com.tomoparts.tomoBay.model.services.email</text>
<text text-anchor="middle" x="330" y="-21" font-family="Helvetica,sans-Serif" font-size="10.00">ErrorsService.OnRunning.execute</text>
</a>
</g>
</g>
<!-- Node1&#45;&gt;Node2 -->
<g id="edge1" class="edge"><title>Node1&#45;&gt;Node2</title>
<path fill="none" stroke="midnightblue" d="M87.3454,-29C120.47,-29 166.116,-29 208.822,-29"/>
<polygon fill="midnightblue" stroke="midnightblue" points="87.0503,-25.5001 77.0503,-29 87.0502,-32.5001 87.0503,-25.5001"/>
</g>
<!-- Node4 -->
<g id="node4" class="node"><title>Node4</title>
<g id="a_node4"><a xlink:href="classcom_1_1tomoparts_1_1tomoBay_1_1model_1_1services_1_1emailErrorsService_1_1EmailErrorsMailActions.html#ad1dbcb645114a23c7e2a441cb6ae9ca4" target="_top" xlink:title="handle the creation of the Email by passing in a map with the appropriate data inside it...">
<polygon fill="white" stroke="black" points="113,-0.5 113,-19.5 173,-19.5 173,-0.5 113,-0.5"/>
<text text-anchor="middle" x="143" y="-7.5" font-family="Helvetica,sans-Serif" font-size="10.00">loadData</text>
</a>
</g>
</g>
<!-- Node1&#45;&gt;Node4 -->
<g id="edge3" class="edge"><title>Node1&#45;&gt;Node4</title>
<path fill="none" stroke="midnightblue" d="M87.2013,-20.1578C95.9245,-18.5408 104.786,-16.8983 112.767,-15.4188"/>
<polygon fill="midnightblue" stroke="midnightblue" points="86.2798,-16.7689 77.0852,-22.033 87.5556,-23.6517 86.2798,-16.7689"/>
</g>
<!-- Node3 -->
<g id="node3" class="node"><title>Node3</title>
<g id="a_node3"><a xlink:href="classcom_1_1tomoparts_1_1tomoBay_1_1model_1_1services_1_1emailErrorsService_1_1EmailErrorsService.html#ae3b0a282dcba7f2d675ca89b1dd48487" target="_top" xlink:title="com.tomoparts.tomoBay.model.services.email\lErrorsService.EmailErrorsService.onRunning">
<polygon fill="white" stroke="black" points="487,-14 487,-44 729,-44 729,-14 487,-14"/>
<text text-anchor="start" x="495" y="-32" font-family="Helvetica,sans-Serif" font-size="10.00">com.tomoparts.tomoBay.model.services.email</text>
<text text-anchor="middle" x="608" y="-21" font-family="Helvetica,sans-Serif" font-size="10.00">ErrorsService.EmailErrorsService.onRunning</text>
</a>
</g>
</g>
<!-- Node2&#45;&gt;Node3 -->
<g id="edge2" class="edge"><title>Node2&#45;&gt;Node3</title>
<path fill="none" stroke="midnightblue" d="M461.494,-29C469.91,-29 478.364,-29 486.73,-29"/>
<polygon fill="midnightblue" stroke="midnightblue" points="461.255,-25.5001 451.255,-29 461.255,-32.5001 461.255,-25.5001"/>
</g>
<!-- Node4&#45;&gt;Node2 -->
<g id="edge4" class="edge"><title>Node4&#45;&gt;Node2</title>
<path fill="none" stroke="midnightblue" d="M183.51,-14.0578C191.364,-14.8644 199.986,-15.7499 208.991,-16.6748"/>
<polygon fill="midnightblue" stroke="midnightblue" points="183.619,-10.5507 173.314,-13.0106 182.904,-17.514 183.619,-10.5507"/>
</g>
</g>
</svg>
