<?xml version="1.0" encoding="UTF-8" standalone="no"?>
<!DOCTYPE svg PUBLIC "-//W3C//DTD SVG 1.1//EN"
 "http://www.w3.org/Graphics/SVG/1.1/DTD/svg11.dtd">
<!-- Generated by graphviz version 2.38.0 (20140413.2041)
 -->
<!-- Title: partNoHasError Pages: 1 -->
<svg width="576pt" height="137pt"
 viewBox="0.00 0.00 576.00 137.00" xmlns="http://www.w3.org/2000/svg" xmlns:xlink="http://www.w3.org/1999/xlink">
<g id="graph0" class="graph" transform="scale(1 1) rotate(0) translate(4 133)">
<title>partNoHasError</title>
<polygon fill="white" stroke="none" points="-4,4 -4,-133 572,-133 572,4 -4,4"/>
<!-- Node1 -->
<g id="node1" class="node"><title>Node1</title>
<polygon fill="#bfbfbf" stroke="black" points="0,-55 0,-74 92,-74 92,-55 0,-55"/>
<text text-anchor="middle" x="46" y="-62" font-family="Helvetica,sans-Serif" font-size="10.00">partNoHasError</text>
</g>
<!-- Node2 -->
<g id="node2" class="node"><title>Node2</title>
<g id="a_node2"><a xlink:href="classcom_1_1tomoparts_1_1tomoBay_1_1helpers_1_1BrandToCode.html#a10207714bd294d73dd98b80fd94a2ab8" target="_top" xlink:title="converts converts a string like &quot;citroen&quot; or &quot;fOrd&quot; to a brandcode integer specific to winstock...">
<polygon fill="white" stroke="black" points="148,-98.5 148,-128.5 333,-128.5 333,-98.5 148,-98.5"/>
<text text-anchor="start" x="156" y="-116.5" font-family="Helvetica,sans-Serif" font-size="10.00">com.tomoparts.tomoBay.helpers.</text>
<text text-anchor="middle" x="240.5" y="-105.5" font-family="Helvetica,sans-Serif" font-size="10.00">BrandToCode.convertToWinstockInt</text>
</a>
</g>
</g>
<!-- Node1&#45;&gt;Node2 -->
<g id="edge1" class="edge"><title>Node1&#45;&gt;Node2</title>
<path fill="none" stroke="midnightblue" d="M75.6905,-74.0249C91.1035,-78.9717 110.487,-84.9218 128,-89.5 136.793,-91.7986 146.017,-94.0444 155.235,-96.1825"/>
<polygon fill="midnightblue" stroke="midnightblue" points="154.687,-99.6472 165.215,-98.4577 156.243,-92.8223 154.687,-99.6472"/>
</g>
<!-- Node4 -->
<g id="node4" class="node"><title>Node4</title>
<g id="a_node4"><a xlink:href="classcom_1_1tomoparts_1_1tomoBay_1_1model_1_1services_1_1reScanErrorsService_1_1ItemSpecifics.html#ad28f052945833b0267c4353afcbf58eb" target="_top" xlink:title="returns a particular Item specific ">
<polygon fill="white" stroke="black" points="128,-49.5 128,-79.5 353,-79.5 353,-49.5 128,-49.5"/>
<text text-anchor="start" x="136" y="-67.5" font-family="Helvetica,sans-Serif" font-size="10.00">com.tomoparts.tomoBay.model.services.re</text>
<text text-anchor="middle" x="240.5" y="-56.5" font-family="Helvetica,sans-Serif" font-size="10.00">ScanErrorsService.ItemSpecifics.get</text>
</a>
</g>
</g>
<!-- Node1&#45;&gt;Node4 -->
<g id="edge3" class="edge"><title>Node1&#45;&gt;Node4</title>
<path fill="none" stroke="midnightblue" d="M92.1327,-64.5C100.045,-64.5 108.607,-64.5 117.485,-64.5"/>
<polygon fill="midnightblue" stroke="midnightblue" points="117.624,-68.0001 127.624,-64.5 117.624,-61.0001 117.624,-68.0001"/>
</g>
<!-- Node5 -->
<g id="node5" class="node"><title>Node5</title>
<g id="a_node5"><a xlink:href="classcom_1_1tomoparts_1_1tomoBay_1_1model_1_1dataTypes_1_1PartList.html#af4aaf5b8fadfc85ebed2a9c4d683fba5" target="_top" xlink:title="get the part numbers as a whole ">
<polygon fill="white" stroke="black" points="143,-0.5 143,-30.5 338,-30.5 338,-0.5 143,-0.5"/>
<text text-anchor="start" x="151" y="-18.5" font-family="Helvetica,sans-Serif" font-size="10.00">com.tomoparts.tomoBay.model.data</text>
<text text-anchor="middle" x="240.5" y="-7.5" font-family="Helvetica,sans-Serif" font-size="10.00">Types.PartList.getPartNumbers</text>
</a>
</g>
</g>
<!-- Node1&#45;&gt;Node5 -->
<g id="edge4" class="edge"><title>Node1&#45;&gt;Node5</title>
<path fill="none" stroke="midnightblue" d="M77.6342,-54.8923C92.7317,-50.2933 111.25,-44.854 128,-40.5 138.04,-37.8903 148.63,-35.3037 159.127,-32.8396"/>
<polygon fill="midnightblue" stroke="midnightblue" points="160.19,-36.186 169.141,-30.518 158.609,-29.3669 160.19,-36.186"/>
</g>
<!-- Node3 -->
<g id="node3" class="node"><title>Node3</title>
<g id="a_node3"><a xlink:href="classcom_1_1tomoparts_1_1tomoBay_1_1helpers_1_1BrandToCode.html#a84072526fa5d5ce298cdceffc81f43e7" target="_top" xlink:title="converts a string like &quot;citroen&quot; or &quot;fOrd&quot; to a brandcode specific to winstock. ">
<polygon fill="white" stroke="black" points="389,-98.5 389,-128.5 568,-128.5 568,-98.5 389,-98.5"/>
<text text-anchor="start" x="397" y="-116.5" font-family="Helvetica,sans-Serif" font-size="10.00">com.tomoparts.tomoBay.helpers.</text>
<text text-anchor="middle" x="478.5" y="-105.5" font-family="Helvetica,sans-Serif" font-size="10.00">BrandToCode.convert</text>
</a>
</g>
</g>
<!-- Node2&#45;&gt;Node3 -->
<g id="edge2" class="edge"><title>Node2&#45;&gt;Node3</title>
<path fill="none" stroke="midnightblue" d="M333.082,-113.5C347.925,-113.5 363.356,-113.5 378.369,-113.5"/>
<polygon fill="midnightblue" stroke="midnightblue" points="378.684,-117 388.684,-113.5 378.684,-110 378.684,-117"/>
</g>
</g>
</svg>
