<?xml version="1.0" encoding="UTF-8" standalone="no"?>
<!DOCTYPE svg PUBLIC "-//W3C//DTD SVG 1.1//EN"
 "http://www.w3.org/Graphics/SVG/1.1/DTD/svg11.dtd">
<!-- Generated by graphviz version 2.38.0 (20140413.2041)
 -->
<!-- Title: setConfig Pages: 1 -->
<svg width="321pt" height="88pt"
 viewBox="0.00 0.00 321.00 88.00" xmlns="http://www.w3.org/2000/svg" xmlns:xlink="http://www.w3.org/1999/xlink">
<g id="graph0" class="graph" transform="scale(1 1) rotate(0) translate(4 84)">
<title>setConfig</title>
<polygon fill="white" stroke="none" points="-4,4 -4,-84 317,-84 317,4 -4,4"/>
<!-- Node1 -->
<g id="node1" class="node"><title>Node1</title>
<polygon fill="#bfbfbf" stroke="black" points="0,-30 0,-49 62,-49 62,-30 0,-30"/>
<text text-anchor="middle" x="31" y="-37" font-family="Helvetica,sans-Serif" font-size="10.00">setConfig</text>
</g>
<!-- Node2 -->
<g id="node2" class="node"><title>Node2</title>
<g id="a_node2"><a xlink:href="interfacecom_1_1tomoparts_1_1tomoBay_1_1model_1_1services_1_1AbstractConfiguration.html#a1396a483eb82c942c1769560f87db904" target="_top" xlink:title="used to set the configuration information for the service. ">
<polygon fill="white" stroke="black" points="98,-49.5 98,-79.5 313,-79.5 313,-49.5 98,-49.5"/>
<text text-anchor="start" x="106" y="-67.5" font-family="Helvetica,sans-Serif" font-size="10.00">com.tomoparts.tomoBay.model.services.</text>
<text text-anchor="middle" x="205.5" y="-56.5" font-family="Helvetica,sans-Serif" font-size="10.00">AbstractConfiguration.configure</text>
</a>
</g>
</g>
<!-- Node1&#45;&gt;Node2 -->
<g id="edge1" class="edge"><title>Node1&#45;&gt;Node2</title>
<path fill="none" stroke="midnightblue" d="M62.0472,-43.8547C70.5326,-45.0844 80.3035,-46.5005 90.6684,-48.0027"/>
<polygon fill="midnightblue" stroke="midnightblue" points="90.3666,-51.4954 100.765,-49.466 91.3706,-44.5678 90.3666,-51.4954"/>
</g>
<!-- Node3 -->
<g id="node3" class="node"><title>Node3</title>
<g id="a_node3"><a xlink:href="classcom_1_1tomoparts_1_1tomoBay_1_1helpers_1_1XMLParser.html#a4f989a27fad17308212c0c22aa1fd629" target="_top" xlink:title="returns a NodeList containing all the nodes that have the specified tag name ">
<polygon fill="white" stroke="black" points="116,-0.5 116,-30.5 295,-30.5 295,-0.5 116,-0.5"/>
<text text-anchor="start" x="124" y="-18.5" font-family="Helvetica,sans-Serif" font-size="10.00">com.tomoparts.tomoBay.helpers.</text>
<text text-anchor="middle" x="205.5" y="-7.5" font-family="Helvetica,sans-Serif" font-size="10.00">XMLParser.parseAll</text>
</a>
</g>
</g>
<!-- Node1&#45;&gt;Node3 -->
<g id="edge2" class="edge"><title>Node1&#45;&gt;Node3</title>
<path fill="none" stroke="midnightblue" d="M62.0472,-35.3195C74.5974,-33.5734 89.9595,-31.4361 105.896,-29.2188"/>
<polygon fill="midnightblue" stroke="midnightblue" points="106.451,-32.6754 115.873,-27.8307 105.487,-25.7422 106.451,-32.6754"/>
</g>
</g>
</svg>
