<?xml version="1.0" encoding="UTF-8" standalone="no"?>
<!DOCTYPE svg PUBLIC "-//W3C//DTD SVG 1.1//EN"
 "http://www.w3.org/Graphics/SVG/1.1/DTD/svg11.dtd">
<!-- Generated by graphviz version 2.38.0 (20140413.2041)
 -->
<!-- Title: requestStockLevel Pages: 1 -->
<svg width="1088pt" height="88pt"
 viewBox="0.00 0.00 1088.00 88.00" xmlns="http://www.w3.org/2000/svg" xmlns:xlink="http://www.w3.org/1999/xlink">
<g id="graph0" class="graph" transform="scale(1 1) rotate(0) translate(4 84)">
<title>requestStockLevel</title>
<polygon fill="white" stroke="none" points="-4,4 -4,-84 1084,-84 1084,4 -4,4"/>
<!-- Node1 -->
<g id="node1" class="node"><title>Node1</title>
<polygon fill="#bfbfbf" stroke="black" points="0,-30 0,-49 105,-49 105,-30 0,-30"/>
<text text-anchor="middle" x="52.5" y="-37" font-family="Helvetica,sans-Serif" font-size="10.00">requestStockLevel</text>
</g>
<!-- Node2 -->
<g id="node2" class="node"><title>Node2</title>
<g id="a_node2"><a xlink:href="classcom_1_1tomoparts_1_1tomoBay_1_1presenters_1_1helpers_1_1pickeability_1_1ItemStockLevel.html#a22844faa947573bb01d9313f7bdb1e56" target="_top" xlink:title="Takes the list of items generated in this.assembleItemsList and checks a PartList associated with eac...">
<polygon fill="white" stroke="black" points="141,-49.5 141,-79.5 430,-79.5 430,-49.5 141,-49.5"/>
<text text-anchor="start" x="149" y="-67.5" font-family="Helvetica,sans-Serif" font-size="10.00">com.tomoparts.tomoBay.presenters.helpers.pickeability.</text>
<text text-anchor="middle" x="285.5" y="-56.5" font-family="Helvetica,sans-Serif" font-size="10.00">ItemStockLevel.checkStockLevelOfItems</text>
</a>
</g>
</g>
<!-- Node1&#45;&gt;Node2 -->
<g id="edge1" class="edge"><title>Node1&#45;&gt;Node2</title>
<path fill="none" stroke="midnightblue" d="M115.193,-46.1767C124.783,-47.2146 135.011,-48.3216 145.51,-49.4578"/>
<polygon fill="midnightblue" stroke="midnightblue" points="115.372,-42.6757 105.053,-45.0794 114.619,-49.6351 115.372,-42.6757"/>
</g>
<!-- Node5 -->
<g id="node5" class="node"><title>Node5</title>
<g id="a_node5"><a xlink:href="classcom_1_1tomoparts_1_1tomoBay_1_1model_1_1services_1_1checkErrorsService_1_1OnRunning.html#ae4a4f4cadce2787c7e80005639fbd5d9" target="_top" xlink:title="this method defines what to do in the given derived state ">
<polygon fill="white" stroke="black" points="164,-0.5 164,-30.5 407,-30.5 407,-0.5 164,-0.5"/>
<text text-anchor="start" x="172" y="-18.5" font-family="Helvetica,sans-Serif" font-size="10.00">com.tomoparts.tomoBay.model.services.check</text>
<text text-anchor="middle" x="285.5" y="-7.5" font-family="Helvetica,sans-Serif" font-size="10.00">ErrorsService.OnRunning.execute</text>
</a>
</g>
</g>
<!-- Node1&#45;&gt;Node5 -->
<g id="edge4" class="edge"><title>Node1&#45;&gt;Node5</title>
<path fill="none" stroke="midnightblue" d="M115.212,-33.0883C130.274,-31.5234 146.908,-29.7953 163.691,-28.0516"/>
<polygon fill="midnightblue" stroke="midnightblue" points="114.638,-29.6291 105.053,-34.1438 115.362,-36.5916 114.638,-29.6291"/>
</g>
<!-- Node3 -->
<g id="node3" class="node"><title>Node3</title>
<g id="a_node3"><a xlink:href="classcom_1_1tomoparts_1_1tomoBay_1_1presenters_1_1helpers_1_1pickeability_1_1ItemStockLevel.html#a1aed814db05c4991e9bc719f39ea62ce" target="_top" xlink:title="com.tomoparts.tomoBay.presenters.helpers.pickeability.\lItemStockLevel.check">
<polygon fill="white" stroke="black" points="466,-49.5 466,-79.5 755,-79.5 755,-49.5 466,-49.5"/>
<text text-anchor="start" x="474" y="-67.5" font-family="Helvetica,sans-Serif" font-size="10.00">com.tomoparts.tomoBay.presenters.helpers.pickeability.</text>
<text text-anchor="middle" x="610.5" y="-56.5" font-family="Helvetica,sans-Serif" font-size="10.00">ItemStockLevel.check</text>
</a>
</g>
</g>
<!-- Node2&#45;&gt;Node3 -->
<g id="edge2" class="edge"><title>Node2&#45;&gt;Node3</title>
<path fill="none" stroke="midnightblue" d="M440.101,-64.5C448.677,-64.5 457.282,-64.5 465.821,-64.5"/>
<polygon fill="midnightblue" stroke="midnightblue" points="440.054,-61.0001 430.054,-64.5 440.053,-68.0001 440.054,-61.0001"/>
</g>
<!-- Node4 -->
<g id="node4" class="node"><title>Node4</title>
<g id="a_node4"><a xlink:href="classcom_1_1tomoparts_1_1tomoBay_1_1presenters_1_1helpers_1_1pickeability_1_1Pickeablity.html#ae05e03af15e33d53f9e0511ec0295a04" target="_top" xlink:title="default ctor ">
<polygon fill="white" stroke="black" points="791,-49.5 791,-79.5 1080,-79.5 1080,-49.5 791,-49.5"/>
<text text-anchor="start" x="799" y="-67.5" font-family="Helvetica,sans-Serif" font-size="10.00">com.tomoparts.tomoBay.presenters.helpers.pickeability.</text>
<text text-anchor="middle" x="935.5" y="-56.5" font-family="Helvetica,sans-Serif" font-size="10.00">Pickeablity.Pickeablity</text>
</a>
</g>
</g>
<!-- Node3&#45;&gt;Node4 -->
<g id="edge3" class="edge"><title>Node3&#45;&gt;Node4</title>
<path fill="none" stroke="midnightblue" d="M765.101,-64.5C773.677,-64.5 782.282,-64.5 790.821,-64.5"/>
<polygon fill="midnightblue" stroke="midnightblue" points="765.054,-61.0001 755.054,-64.5 765.053,-68.0001 765.054,-61.0001"/>
</g>
<!-- Node6 -->
<g id="node6" class="node"><title>Node6</title>
<g id="a_node6"><a xlink:href="classcom_1_1tomoparts_1_1tomoBay_1_1model_1_1services_1_1checkErrorsService_1_1CheckErrorsService.html#ae3b0a282dcba7f2d675ca89b1dd48487" target="_top" xlink:title="com.tomoparts.tomoBay.model.services.check\lErrorsService.CheckErrorsService.onRunning">
<polygon fill="white" stroke="black" points="489,-0.5 489,-30.5 732,-30.5 732,-0.5 489,-0.5"/>
<text text-anchor="start" x="497" y="-18.5" font-family="Helvetica,sans-Serif" font-size="10.00">com.tomoparts.tomoBay.model.services.check</text>
<text text-anchor="middle" x="610.5" y="-7.5" font-family="Helvetica,sans-Serif" font-size="10.00">ErrorsService.CheckErrorsService.onRunning</text>
</a>
</g>
</g>
<!-- Node5&#45;&gt;Node6 -->
<g id="edge5" class="edge"><title>Node5&#45;&gt;Node6</title>
<path fill="none" stroke="midnightblue" d="M417.313,-15.5C440.979,-15.5 465.557,-15.5 488.914,-15.5"/>
<polygon fill="midnightblue" stroke="midnightblue" points="417.233,-12.0001 407.233,-15.5 417.233,-19.0001 417.233,-12.0001"/>
</g>
</g>
</svg>
