<?xml version="1.0" encoding="UTF-8" standalone="no"?>
<!DOCTYPE svg PUBLIC "-//W3C//DTD SVG 1.1//EN"
 "http://www.w3.org/Graphics/SVG/1.1/DTD/svg11.dtd">
<!-- Generated by graphviz version 2.38.0 (20140413.2041)
 -->
<!-- Title: generate Pages: 1 -->
<svg width="985pt" height="100pt"
 viewBox="0.00 0.00 985.00 99.50" xmlns="http://www.w3.org/2000/svg" xmlns:xlink="http://www.w3.org/1999/xlink">
<g id="graph0" class="graph" transform="scale(1 1) rotate(0) translate(4 95.5)">
<title>generate</title>
<polygon fill="white" stroke="none" points="-4,4 -4,-95.5 981,-95.5 981,4 -4,4"/>
<!-- Node1 -->
<g id="node1" class="node"><title>Node1</title>
<polygon fill="#bfbfbf" stroke="black" points="0,-33 0,-52 60,-52 60,-33 0,-33"/>
<text text-anchor="middle" x="30" y="-40" font-family="Helvetica,sans-Serif" font-size="10.00">generate</text>
</g>
<!-- Node2 -->
<g id="node2" class="node"><title>Node2</title>
<g id="a_node2"><a xlink:href="classcom_1_1tomoparts_1_1tomoBay_1_1presenters_1_1presenterActions_1_1concreteActions_1_1GenerateRoyalMailCSV.html#ac34b9d298f534dd3494b5f2e050398f0" target="_top" xlink:title="use the information provided to create a CSV file that the frontend can access. ">
<polygon fill="white" stroke="black" points="96,-50 96,-91 338,-91 338,-50 96,-50"/>
<text text-anchor="start" x="104" y="-79" font-family="Helvetica,sans-Serif" font-size="10.00">com.tomoparts.tomoBay.presenters.presenter</text>
<text text-anchor="start" x="104" y="-68" font-family="Helvetica,sans-Serif" font-size="10.00">Actions.concreteActions.GenerateRoyalMail</text>
<text text-anchor="middle" x="217" y="-57" font-family="Helvetica,sans-Serif" font-size="10.00">CSV.createCSV</text>
</a>
</g>
</g>
<!-- Node1&#45;&gt;Node2 -->
<g id="edge1" class="edge"><title>Node1&#45;&gt;Node2</title>
<path fill="none" stroke="midnightblue" d="M70.2428,-48.4394C78.1678,-49.6389 86.8839,-50.9581 95.9914,-52.3365"/>
<polygon fill="midnightblue" stroke="midnightblue" points="70.725,-44.9726 60.3138,-46.9367 69.6774,-51.8938 70.725,-44.9726"/>
</g>
<!-- Node5 -->
<g id="node5" class="node"><title>Node5</title>
<g id="a_node5"><a xlink:href="classcom_1_1tomoparts_1_1tomoBay_1_1test_1_1unit_1_1model_1_1royalMail_1_1RoyalMailCSVGeneratorTest.html#a1036d4ad1717e3668e1b92b56dbf09df" target="_top" xlink:title="com.tomoparts.tomoBay.test.unit.model.royal\lMail.RoyalMailCSVGeneratorTest.testGenerate">
<polygon fill="white" stroke="black" points="97.5,-0.5 97.5,-30.5 336.5,-30.5 336.5,-0.5 97.5,-0.5"/>
<text text-anchor="start" x="105.5" y="-18.5" font-family="Helvetica,sans-Serif" font-size="10.00">com.tomoparts.tomoBay.test.unit.model.royal</text>
<text text-anchor="middle" x="217" y="-7.5" font-family="Helvetica,sans-Serif" font-size="10.00">Mail.RoyalMailCSVGeneratorTest.testGenerate</text>
</a>
</g>
</g>
<!-- Node1&#45;&gt;Node5 -->
<g id="edge4" class="edge"><title>Node1&#45;&gt;Node5</title>
<path fill="none" stroke="midnightblue" d="M70.489,-36.7367C83.2107,-34.8801 97.9519,-32.7286 113.069,-30.5223"/>
<polygon fill="midnightblue" stroke="midnightblue" points="69.7035,-33.3142 60.3138,-38.2218 70.7145,-40.2408 69.7035,-33.3142"/>
</g>
<!-- Node3 -->
<g id="node3" class="node"><title>Node3</title>
<g id="a_node3"><a xlink:href="classcom_1_1tomoparts_1_1tomoBay_1_1presenters_1_1presenterActions_1_1concreteActions_1_1GenerateRoyalMailCSV.html#adb3dedf31dc2c7fc796f20406c235ccd" target="_top" xlink:title="performs the action specified ">
<polygon fill="white" stroke="black" points="374,-50 374,-91 616,-91 616,-50 374,-50"/>
<text text-anchor="start" x="382" y="-79" font-family="Helvetica,sans-Serif" font-size="10.00">com.tomoparts.tomoBay.presenters.presenter</text>
<text text-anchor="start" x="382" y="-68" font-family="Helvetica,sans-Serif" font-size="10.00">Actions.concreteActions.GenerateRoyalMail</text>
<text text-anchor="middle" x="495" y="-57" font-family="Helvetica,sans-Serif" font-size="10.00">CSV.execute</text>
</a>
</g>
</g>
<!-- Node2&#45;&gt;Node3 -->
<g id="edge2" class="edge"><title>Node2&#45;&gt;Node3</title>
<path fill="none" stroke="midnightblue" d="M348.494,-70.5C356.91,-70.5 365.364,-70.5 373.73,-70.5"/>
<polygon fill="midnightblue" stroke="midnightblue" points="348.255,-67.0001 338.255,-70.5 348.255,-74.0001 348.255,-67.0001"/>
</g>
<!-- Node4 -->
<g id="node4" class="node"><title>Node4</title>
<g id="a_node4"><a xlink:href="classcom_1_1tomoparts_1_1tomoBay_1_1test_1_1unit_1_1presenters_1_1presenterActions_1_1concreteAcc52dba77005ac44eb6c856e3f1436b78.html#a1b260e6772d2ced79e03e1c8c5acd12b" target="_top" xlink:title="com.tomoparts.tomoBay.test.unit.presenters.presenter\lActions.concreteActions.GenerateRoyalMailCSVTest.testExecute">
<polygon fill="white" stroke="black" points="652,-55.5 652,-85.5 977,-85.5 977,-55.5 652,-55.5"/>
<text text-anchor="start" x="660" y="-73.5" font-family="Helvetica,sans-Serif" font-size="10.00">com.tomoparts.tomoBay.test.unit.presenters.presenter</text>
<text text-anchor="middle" x="814.5" y="-62.5" font-family="Helvetica,sans-Serif" font-size="10.00">Actions.concreteActions.GenerateRoyalMailCSVTest.testExecute</text>
</a>
</g>
</g>
<!-- Node3&#45;&gt;Node4 -->
<g id="edge3" class="edge"><title>Node3&#45;&gt;Node4</title>
<path fill="none" stroke="midnightblue" d="M626.305,-70.5C634.777,-70.5 643.361,-70.5 651.956,-70.5"/>
<polygon fill="midnightblue" stroke="midnightblue" points="626.033,-67.0001 616.033,-70.5 626.033,-74.0001 626.033,-67.0001"/>
</g>
</g>
</svg>
