<?xml version="1.0" encoding="UTF-8" standalone="no"?>
<!DOCTYPE svg PUBLIC "-//W3C//DTD SVG 1.1//EN"
 "http://www.w3.org/Graphics/SVG/1.1/DTD/svg11.dtd">
<!-- Generated by graphviz version 2.38.0 (20140413.2041)
 -->
<!-- Title: getConf Pages: 1 -->
<svg width="277pt" height="127pt"
 viewBox="0.00 0.00 277.00 126.50" xmlns="http://www.w3.org/2000/svg" xmlns:xlink="http://www.w3.org/1999/xlink">
<g id="graph0" class="graph" transform="scale(1 1) rotate(0) translate(4 122.5)">
<title>getConf</title>
<polygon fill="white" stroke="none" points="-4,4 -4,-122.5 273,-122.5 273,4 -4,4"/>
<!-- Node1 -->
<g id="node1" class="node"><title>Node1</title>
<polygon fill="#bfbfbf" stroke="black" points="0,-55 0,-74 54,-74 54,-55 0,-55"/>
<text text-anchor="middle" x="27" y="-62" font-family="Helvetica,sans-Serif" font-size="10.00">getConf</text>
</g>
<!-- Node2 -->
<g id="node2" class="node"><title>Node2</title>
<g id="a_node2"><a xlink:href="classcom_1_1tomoparts_1_1tomoBay_1_1helpers_1_1ConfigReader.html#ab69b4a3a0fc6a7c7440362b06ec4b4d3" target="_top" xlink:title="reads the whole config file into a string ">
<polygon fill="white" stroke="black" points="148.5,-99 148.5,-118 210.5,-118 210.5,-99 148.5,-99"/>
<text text-anchor="middle" x="179.5" y="-106" font-family="Helvetica,sans-Serif" font-size="10.00">getConfig</text>
</a>
</g>
</g>
<!-- Node1&#45;&gt;Node2 -->
<g id="edge1" class="edge"><title>Node1&#45;&gt;Node2</title>
<path fill="none" stroke="midnightblue" d="M49.1932,-74.1C61.0222,-79.1889 76.1293,-85.249 90,-89.5 105.504,-94.2515 122.888,-98.2595 138.117,-101.351"/>
<polygon fill="midnightblue" stroke="midnightblue" points="137.78,-104.852 148.267,-103.343 139.128,-97.9829 137.78,-104.852"/>
</g>
<!-- Node3 -->
<g id="node3" class="node"><title>Node3</title>
<g id="a_node3"><a xlink:href="enumcom_1_1tomoparts_1_1tomoBay_1_1helpers_1_1Config.html#a43cb99408ba4f337caad395ca67f9a6c" target="_top" xlink:title="return the string associated with the enum const ">
<polygon fill="white" stroke="black" points="90,-49.5 90,-79.5 269,-79.5 269,-49.5 90,-49.5"/>
<text text-anchor="start" x="98" y="-67.5" font-family="Helvetica,sans-Serif" font-size="10.00">com.tomoparts.tomoBay.helpers.</text>
<text text-anchor="middle" x="179.5" y="-56.5" font-family="Helvetica,sans-Serif" font-size="10.00">Config.getVar</text>
</a>
</g>
</g>
<!-- Node1&#45;&gt;Node3 -->
<g id="edge2" class="edge"><title>Node1&#45;&gt;Node3</title>
<path fill="none" stroke="midnightblue" d="M54.2151,-64.5C61.7604,-64.5 70.4708,-64.5 79.7074,-64.5"/>
<polygon fill="midnightblue" stroke="midnightblue" points="79.9064,-68.0001 89.9064,-64.5 79.9063,-61.0001 79.9064,-68.0001"/>
</g>
<!-- Node4 -->
<g id="node4" class="node"><title>Node4</title>
<g id="a_node4"><a xlink:href="classcom_1_1tomoparts_1_1tomoBay_1_1helpers_1_1XMLParser.html#a4f989a27fad17308212c0c22aa1fd629" target="_top" xlink:title="returns a NodeList containing all the nodes that have the specified tag name ">
<polygon fill="white" stroke="black" points="90,-0.5 90,-30.5 269,-30.5 269,-0.5 90,-0.5"/>
<text text-anchor="start" x="98" y="-18.5" font-family="Helvetica,sans-Serif" font-size="10.00">com.tomoparts.tomoBay.helpers.</text>
<text text-anchor="middle" x="179.5" y="-7.5" font-family="Helvetica,sans-Serif" font-size="10.00">XMLParser.parseAll</text>
</a>
</g>
</g>
<!-- Node1&#45;&gt;Node4 -->
<g id="edge3" class="edge"><title>Node1&#45;&gt;Node4</title>
<path fill="none" stroke="midnightblue" d="M51.0709,-54.9747C62.6591,-50.3428 76.9721,-44.8509 90,-40.5 97.2406,-38.0819 104.864,-35.695 112.474,-33.4119"/>
<polygon fill="midnightblue" stroke="midnightblue" points="113.474,-36.766 122.076,-30.5811 111.495,-30.0516 113.474,-36.766"/>
</g>
</g>
</svg>
