<?xml version="1.0" encoding="UTF-8" standalone="no"?>
<!DOCTYPE svg PUBLIC "-//W3C//DTD SVG 1.1//EN"
 "http://www.w3.org/Graphics/SVG/1.1/DTD/svg11.dtd">
<!-- Generated by graphviz version 2.38.0 (20140413.2041)
 -->
<!-- Title: TriggerService Pages: 1 -->
<svg width="294pt" height="204pt"
 viewBox="0.00 0.00 293.50 204.00" xmlns="http://www.w3.org/2000/svg" xmlns:xlink="http://www.w3.org/1999/xlink">
<g id="graph0" class="graph" transform="scale(1 1) rotate(0) translate(4 200)">
<title>TriggerService</title>
<polygon fill="white" stroke="none" points="-4,4 -4,-200 289.5,-200 289.5,4 -4,4"/>
<!-- Node1 -->
<g id="node1" class="node"><title>Node1</title>
<polygon fill="#bfbfbf" stroke="black" points="80,-0.5 80,-90.5 184,-90.5 184,-0.5 80,-0.5"/>
<text text-anchor="middle" x="132" y="-78.5" font-family="Helvetica,sans-Serif" font-size="10.00">TriggerService</text>
<polyline fill="none" stroke="black" points="80,-71.5 184,-71.5 "/>
<text text-anchor="start" x="88" y="-59.5" font-family="Helvetica,sans-Serif" font-size="10.00">&#45; INITIALTHREADS</text>
<text text-anchor="start" x="88" y="-48.5" font-family="Helvetica,sans-Serif" font-size="10.00">&#45; MAXTHREADS</text>
<polyline fill="none" stroke="black" points="80,-41.5 184,-41.5 "/>
<text text-anchor="start" x="88" y="-29.5" font-family="Helvetica,sans-Serif" font-size="10.00">+ TriggerService()</text>
<text text-anchor="start" x="88" y="-18.5" font-family="Helvetica,sans-Serif" font-size="10.00">+ start()</text>
<text text-anchor="start" x="88" y="-7.5" font-family="Helvetica,sans-Serif" font-size="10.00">+ shutdown()</text>
</g>
<!-- Node2 -->
<g id="node2" class="node"><title>Node2</title>
<polygon fill="white" stroke="#bfbfbf" points="0,-138.5 0,-195.5 112,-195.5 112,-138.5 0,-138.5"/>
<text text-anchor="middle" x="56" y="-183.5" font-family="Helvetica,sans-Serif" font-size="10.00">ThreadPoolExecutor</text>
<polyline fill="none" stroke="#bfbfbf" points="0,-176.5 112,-176.5 "/>
<text text-anchor="middle" x="56" y="-164.5" font-family="Helvetica,sans-Serif" font-size="10.00"> </text>
<polyline fill="none" stroke="#bfbfbf" points="0,-157.5 112,-157.5 "/>
<text text-anchor="middle" x="56" y="-145.5" font-family="Helvetica,sans-Serif" font-size="10.00"> </text>
</g>
<!-- Node2&#45;&gt;Node1 -->
<g id="edge1" class="edge"><title>Node2&#45;&gt;Node1</title>
<path fill="none" stroke="#404040" d="M54.2994,-138.463C54.7384,-128.714 56.4719,-117.953 61,-109 63.8453,-103.374 67.4339,-98.03 71.479,-93.0098"/>
<polygon fill="none" stroke="#404040" points="71.7461,-92.711 72.7637,-85.572 79.7449,-83.7656 78.7273,-90.9045 71.7461,-92.711"/>
<text text-anchor="middle" x="123.5" y="-112" font-family="Helvetica,sans-Serif" font-size="10.00"> &#45;THREADPOOLEXECUTOR</text>
</g>
<!-- Node3 -->
<g id="node3" class="node"><title>Node3</title>
<polygon fill="white" stroke="#bfbfbf" points="130.5,-138.5 130.5,-195.5 285.5,-195.5 285.5,-138.5 130.5,-138.5"/>
<text text-anchor="middle" x="208" y="-183.5" font-family="Helvetica,sans-Serif" font-size="10.00">BlockingQueue&lt; Runnable &gt;</text>
<polyline fill="none" stroke="#bfbfbf" points="130.5,-176.5 285.5,-176.5 "/>
<text text-anchor="middle" x="208" y="-164.5" font-family="Helvetica,sans-Serif" font-size="10.00"> </text>
<polyline fill="none" stroke="#bfbfbf" points="130.5,-157.5 285.5,-157.5 "/>
<text text-anchor="middle" x="208" y="-145.5" font-family="Helvetica,sans-Serif" font-size="10.00"> </text>
</g>
<!-- Node3&#45;&gt;Node1 -->
<g id="edge2" class="edge"><title>Node3&#45;&gt;Node1</title>
<path fill="none" stroke="#404040" d="M199.528,-138.43C196.009,-128.783 191.458,-118.096 186,-109 184.328,-106.214 182.53,-103.432 180.64,-100.674"/>
<polygon fill="none" stroke="#404040" points="180.533,-100.529 173.765,-98.0405 173.459,-90.8359 180.227,-93.3241 180.533,-100.529"/>
<text text-anchor="middle" x="228.5" y="-112" font-family="Helvetica,sans-Serif" font-size="10.00"> &#45;THREADPOOL</text>
</g>
</g>
</svg>
