<?xml version="1.0" encoding="UTF-8" standalone="no"?>
<!DOCTYPE svg PUBLIC "-//W3C//DTD SVG 1.1//EN"
 "http://www.w3.org/Graphics/SVG/1.1/DTD/svg11.dtd">
<!-- Generated by graphviz version 2.38.0 (20140413.2041)
 -->
<!-- Title: APIcontext Pages: 1 -->
<svg width="174pt" height="88pt"
 viewBox="0.00 0.00 174.00 88.00" xmlns="http://www.w3.org/2000/svg" xmlns:xlink="http://www.w3.org/1999/xlink">
<g id="graph0" class="graph" transform="scale(1 1) rotate(0) translate(4 84)">
<title>APIcontext</title>
<polygon fill="white" stroke="none" points="-4,4 -4,-84 170,-84 170,4 -4,4"/>
<!-- Node1 -->
<g id="node1" class="node"><title>Node1</title>
<polygon fill="#bfbfbf" stroke="black" points="0,-0.5 0,-79.5 87,-79.5 87,-0.5 0,-0.5"/>
<text text-anchor="middle" x="43.5" y="-67.5" font-family="Helvetica,sans-Serif" font-size="10.00">APIcontext</text>
<polyline fill="none" stroke="black" points="0,-60.5 87,-60.5 "/>
<text text-anchor="middle" x="43.5" y="-48.5" font-family="Helvetica,sans-Serif" font-size="10.00"> </text>
<polyline fill="none" stroke="black" points="0,-41.5 87,-41.5 "/>
<text text-anchor="start" x="8" y="-29.5" font-family="Helvetica,sans-Serif" font-size="10.00">+ apiContext()</text>
<text text-anchor="start" x="8" y="-18.5" font-family="Helvetica,sans-Serif" font-size="10.00">+ instance()</text>
<text text-anchor="start" x="8" y="-7.5" font-family="Helvetica,sans-Serif" font-size="10.00">&#45; APIcontext()</text>
</g>
<!-- Node1&#45;&gt;Node1 -->
<g id="edge1" class="edge"><title>Node1&#45;&gt;Node1</title>
<path fill="none" stroke="#404040" d="M87.1694,-54.3358C97.4301,-53.1575 105,-48.3789 105,-40 105,-35.2869 102.605,-31.7129 98.6829,-29.2781"/>
<polygon fill="none" stroke="#404040" points="98.6186,-29.258 91.6961,-31.2775 87.1694,-25.6642 94.0919,-23.6447 98.6186,-29.258"/>
<text text-anchor="middle" x="135.5" y="-37.5" font-family="Helvetica,sans-Serif" font-size="10.00"> &#45;instance_M</text>
</g>
</g>
</svg>
