<?xml version="1.0" encoding="UTF-8" standalone="no"?>
<!DOCTYPE svg PUBLIC "-//W3C//DTD SVG 1.1//EN"
 "http://www.w3.org/Graphics/SVG/1.1/DTD/svg11.dtd">
<!-- Generated by graphviz version 2.38.0 (20140413.2041)
 -->
<!-- Title: shippingInfo Pages: 1 -->
<svg width="808pt" height="466pt"
 viewBox="0.00 0.00 808.00 466.00" xmlns="http://www.w3.org/2000/svg" xmlns:xlink="http://www.w3.org/1999/xlink">
<g id="graph0" class="graph" transform="scale(1 1) rotate(0) translate(4 462)">
<title>shippingInfo</title>
<polygon fill="white" stroke="none" points="-4,4 -4,-462 804,-462 804,4 -4,4"/>
<!-- Node1 -->
<g id="node1" class="node"><title>Node1</title>
<polygon fill="#bfbfbf" stroke="black" points="0,-220 0,-239 74,-239 74,-220 0,-220"/>
<text text-anchor="middle" x="37" y="-227" font-family="Helvetica,sans-Serif" font-size="10.00">shippingInfo</text>
</g>
<!-- Node2 -->
<g id="node2" class="node"><title>Node2</title>
<g id="a_node2"><a xlink:href="classcom_1_1tomoparts_1_1tomoBay_1_1model_1_1dataTypes_1_1json_1_1JSONentity.html#afead82af115042a64d2604ec5f508f45" target="_top" xlink:title="A leaf node is simply a key value pair. ">
<polygon fill="white" stroke="black" points="115.5,-427.5 115.5,-457.5 310.5,-457.5 310.5,-427.5 115.5,-427.5"/>
<text text-anchor="start" x="123.5" y="-445.5" font-family="Helvetica,sans-Serif" font-size="10.00">com.tomoparts.tomoBay.model.data</text>
<text text-anchor="middle" x="213" y="-434.5" font-family="Helvetica,sans-Serif" font-size="10.00">Types.json.JSONentity.addLeaf</text>
</a>
</g>
</g>
<!-- Node1&#45;&gt;Node2 -->
<g id="edge1" class="edge"><title>Node1&#45;&gt;Node2</title>
<path fill="none" stroke="midnightblue" d="M38.6122,-239.096C41.1337,-270.19 53.4564,-369.012 110,-418.5 111.318,-419.653 112.68,-420.754 114.083,-421.804"/>
<polygon fill="midnightblue" stroke="midnightblue" points="112.222,-424.769 122.515,-427.282 116.036,-418.899 112.222,-424.769"/>
</g>
<!-- Node4 -->
<g id="node4" class="node"><title>Node4</title>
<g id="a_node4"><a xlink:href="classcom_1_1tomoparts_1_1tomoBay_1_1model_1_1dataTypes_1_1order_1_1Order.html#a72e31cd12a6fab47d81bc64942d3f25f" target="_top" xlink:title="Retrieve the Buyer that placed this order. ">
<polygon fill="white" stroke="black" points="115.5,-378.5 115.5,-408.5 310.5,-408.5 310.5,-378.5 115.5,-378.5"/>
<text text-anchor="start" x="123.5" y="-396.5" font-family="Helvetica,sans-Serif" font-size="10.00">com.tomoparts.tomoBay.model.data</text>
<text text-anchor="middle" x="213" y="-385.5" font-family="Helvetica,sans-Serif" font-size="10.00">Types.order.Order.buyer</text>
</a>
</g>
</g>
<!-- Node1&#45;&gt;Node4 -->
<g id="edge3" class="edge"><title>Node1&#45;&gt;Node4</title>
<path fill="none" stroke="midnightblue" d="M40.0044,-239.094C45.8607,-264.627 65.4248,-334.659 110,-369.5 111.612,-370.76 113.28,-371.956 114.995,-373.091"/>
<polygon fill="midnightblue" stroke="midnightblue" points="113.521,-376.282 123.927,-378.27 117.032,-370.226 113.521,-376.282"/>
</g>
<!-- Node5 -->
<g id="node5" class="node"><title>Node5</title>
<g id="a_node5"><a xlink:href="classcom_1_1tomoparts_1_1tomoBay_1_1model_1_1dataTypes_1_1financial_1_1GBP.html#afbeec74a4eeb4f1646f01cfcdf147876" target="_top" xlink:title="converts the given integer into a pounds value ">
<polygon fill="white" stroke="black" points="115.5,-329.5 115.5,-359.5 310.5,-359.5 310.5,-329.5 115.5,-329.5"/>
<text text-anchor="start" x="123.5" y="-347.5" font-family="Helvetica,sans-Serif" font-size="10.00">com.tomoparts.tomoBay.model.data</text>
<text text-anchor="middle" x="213" y="-336.5" font-family="Helvetica,sans-Serif" font-size="10.00">Types.financial.GBP.fromPennies</text>
</a>
</g>
</g>
<!-- Node1&#45;&gt;Node5 -->
<g id="edge4" class="edge"><title>Node1&#45;&gt;Node5</title>
<path fill="none" stroke="midnightblue" d="M42.8664,-239.104C52.8035,-257.697 77.2808,-298.611 110,-319.5 113.32,-321.619 116.805,-323.559 120.405,-325.334"/>
<polygon fill="midnightblue" stroke="midnightblue" points="119.002,-328.541 129.56,-329.417 121.853,-322.148 119.002,-328.541"/>
</g>
<!-- Node6 -->
<g id="node6" class="node"><title>Node6</title>
<g id="a_node6"><a xlink:href="classcom_1_1tomoparts_1_1tomoBay_1_1model_1_1dataTypes_1_1financial_1_1SalesOrderDayBook_1_1AbstractSalesDayBookLine.html#a1b2142782be2899c8c3c19c5b3e05247" target="_top" xlink:title="retrieve a particular AbstractLineItem from the list of items that make up this AbstractSalesDayBookL...">
<polygon fill="white" stroke="black" points="110,-269 110,-310 316,-310 316,-269 110,-269"/>
<text text-anchor="start" x="118" y="-298" font-family="Helvetica,sans-Serif" font-size="10.00">com.tomoparts.tomoBay.model.data</text>
<text text-anchor="start" x="118" y="-287" font-family="Helvetica,sans-Serif" font-size="10.00">Types.financial.SalesOrderDayBook.</text>
<text text-anchor="middle" x="213" y="-276" font-family="Helvetica,sans-Serif" font-size="10.00">AbstractSalesDayBookLine.getLineItem</text>
</a>
</g>
</g>
<!-- Node1&#45;&gt;Node6 -->
<g id="edge5" class="edge"><title>Node1&#45;&gt;Node6</title>
<path fill="none" stroke="midnightblue" d="M59.1862,-239.042C73.4049,-245.268 92.6402,-253.351 110,-259.5 116.196,-261.695 122.641,-263.859 129.148,-265.959"/>
<polygon fill="midnightblue" stroke="midnightblue" points="128.111,-269.302 138.701,-268.987 130.225,-262.629 128.111,-269.302"/>
</g>
<!-- Node7 -->
<g id="node7" class="node"><title>Node7</title>
<g id="a_node7"><a xlink:href="classcom_1_1tomoparts_1_1tomoBay_1_1model_1_1dataTypes_1_1financial_1_1SalesOrderDayBook_1_1AbstractSalesDayBookLine.html#afacf6217c7f58a049b532205066da488" target="_top" xlink:title="retrieve the order that this AbstractSalesDayBookLine refers to. ">
<polygon fill="white" stroke="black" points="115.5,-209 115.5,-250 310.5,-250 310.5,-209 115.5,-209"/>
<text text-anchor="start" x="123.5" y="-238" font-family="Helvetica,sans-Serif" font-size="10.00">com.tomoparts.tomoBay.model.data</text>
<text text-anchor="start" x="123.5" y="-227" font-family="Helvetica,sans-Serif" font-size="10.00">Types.financial.SalesOrderDayBook.</text>
<text text-anchor="middle" x="213" y="-216" font-family="Helvetica,sans-Serif" font-size="10.00">AbstractSalesDayBookLine.orderInfo</text>
</a>
</g>
</g>
<!-- Node1&#45;&gt;Node7 -->
<g id="edge6" class="edge"><title>Node1&#45;&gt;Node7</title>
<path fill="none" stroke="midnightblue" d="M74.0529,-229.5C83.427,-229.5 94.0195,-229.5 105.065,-229.5"/>
<polygon fill="midnightblue" stroke="midnightblue" points="105.314,-233 115.314,-229.5 105.314,-226 105.314,-233"/>
</g>
<!-- Node8 -->
<g id="node8" class="node"><title>Node8</title>
<g id="a_node8"><a xlink:href="classcom_1_1tomoparts_1_1tomoBay_1_1model_1_1dataTypes_1_1order_1_1Order.html#aa1be772bd50137a618371188bfc5d284" target="_top" xlink:title="com.tomoparts.tomoBay.model.data\lTypes.order.Order.shippingCost">
<polygon fill="white" stroke="black" points="115.5,-159.5 115.5,-189.5 310.5,-189.5 310.5,-159.5 115.5,-159.5"/>
<text text-anchor="start" x="123.5" y="-177.5" font-family="Helvetica,sans-Serif" font-size="10.00">com.tomoparts.tomoBay.model.data</text>
<text text-anchor="middle" x="213" y="-166.5" font-family="Helvetica,sans-Serif" font-size="10.00">Types.order.Order.shippingCost</text>
</a>
</g>
</g>
<!-- Node1&#45;&gt;Node8 -->
<g id="edge7" class="edge"><title>Node1&#45;&gt;Node8</title>
<path fill="none" stroke="midnightblue" d="M58.4742,-219.974C72.7116,-213.597 92.247,-205.335 110,-199.5 117.905,-196.902 126.234,-194.435 134.584,-192.136"/>
<polygon fill="midnightblue" stroke="midnightblue" points="135.616,-195.483 144.371,-189.516 133.806,-188.721 135.616,-195.483"/>
</g>
<!-- Node9 -->
<g id="node9" class="node"><title>Node9</title>
<g id="a_node9"><a xlink:href="classcom_1_1tomoparts_1_1tomoBay_1_1model_1_1dataTypes_1_1financial_1_1SalesOrderDayBook_1_1AbstractSalesDayBookLine.html#af4b57d21919c42d55af03391f91a1c08" target="_top" xlink:title="retrieve the number of line items that make up this SalesDayBookLine. ">
<polygon fill="white" stroke="black" points="115.5,-99 115.5,-140 310.5,-140 310.5,-99 115.5,-99"/>
<text text-anchor="start" x="123.5" y="-128" font-family="Helvetica,sans-Serif" font-size="10.00">com.tomoparts.tomoBay.model.data</text>
<text text-anchor="start" x="123.5" y="-117" font-family="Helvetica,sans-Serif" font-size="10.00">Types.financial.SalesOrderDayBook.</text>
<text text-anchor="middle" x="213" y="-106" font-family="Helvetica,sans-Serif" font-size="10.00">AbstractSalesDayBookLine.size</text>
</a>
</g>
</g>
<!-- Node1&#45;&gt;Node9 -->
<g id="edge8" class="edge"><title>Node1&#45;&gt;Node9</title>
<path fill="none" stroke="midnightblue" d="M44.1206,-219.948C55.2347,-203.364 80.3479,-169.231 110,-150.5 113.423,-148.338 117.006,-146.319 120.696,-144.434"/>
<polygon fill="midnightblue" stroke="midnightblue" points="122.506,-147.45 130.06,-140.022 119.522,-141.118 122.506,-147.45"/>
</g>
<!-- Node10 -->
<g id="node10" class="node"><title>Node10</title>
<g id="a_node10"><a xlink:href="classcom_1_1tomoparts_1_1tomoBay_1_1model_1_1dataTypes_1_1order_1_1Buyer.html#a1b6c2d401bf44f453c1b2ed3aaa04638" target="_top" xlink:title="retrieve the second street line of the address of this buyer ">
<polygon fill="white" stroke="black" points="115.5,-49.5 115.5,-79.5 310.5,-79.5 310.5,-49.5 115.5,-49.5"/>
<text text-anchor="start" x="123.5" y="-67.5" font-family="Helvetica,sans-Serif" font-size="10.00">com.tomoparts.tomoBay.model.data</text>
<text text-anchor="middle" x="213" y="-56.5" font-family="Helvetica,sans-Serif" font-size="10.00">Types.order.Buyer.street2</text>
</a>
</g>
</g>
<!-- Node1&#45;&gt;Node10 -->
<g id="edge9" class="edge"><title>Node1&#45;&gt;Node10</title>
<path fill="none" stroke="midnightblue" d="M40.0222,-219.928C45.9227,-194.452 65.5867,-124.547 110,-89.5 112.315,-87.6735 114.744,-85.9779 117.264,-84.4041"/>
<polygon fill="midnightblue" stroke="midnightblue" points="119.079,-87.4003 126.148,-79.5089 115.701,-81.2694 119.079,-87.4003"/>
</g>
<!-- Node13 -->
<g id="node13" class="node"><title>Node13</title>
<g id="a_node13"><a xlink:href="classcom_1_1tomoparts_1_1tomoBay_1_1model_1_1dataTypes_1_1json_1_1JSONentity.html#a77e2151cf49df9f80a4999e0e9e54d55" target="_top" xlink:title="com.tomoparts.tomoBay.model.data\lTypes.json.JSONentity.toString">
<polygon fill="white" stroke="black" points="115.5,-0.5 115.5,-30.5 310.5,-30.5 310.5,-0.5 115.5,-0.5"/>
<text text-anchor="start" x="123.5" y="-18.5" font-family="Helvetica,sans-Serif" font-size="10.00">com.tomoparts.tomoBay.model.data</text>
<text text-anchor="middle" x="213" y="-7.5" font-family="Helvetica,sans-Serif" font-size="10.00">Types.json.JSONentity.toString</text>
</a>
</g>
</g>
<!-- Node1&#45;&gt;Node13 -->
<g id="edge12" class="edge"><title>Node1&#45;&gt;Node13</title>
<path fill="none" stroke="midnightblue" d="M38.5946,-219.854C41.0622,-188.6 53.2387,-89.2665 110,-39.5 111.317,-38.3457 112.678,-37.2442 114.08,-36.1933"/>
<polygon fill="midnightblue" stroke="midnightblue" points="116.034,-39.0975 122.508,-30.7105 112.217,-33.2299 116.034,-39.0975"/>
</g>
<!-- Node3 -->
<g id="node3" class="node"><title>Node3</title>
<g id="a_node3"><a xlink:href="classcom_1_1tomoparts_1_1tomoBay_1_1model_1_1dataTypes_1_1DualList.html#ac6c5d11a7054f49bb7c9489f5893daeb" target="_top" xlink:title="add a value pair to the DualList ">
<polygon fill="white" stroke="black" points="357.5,-427.5 357.5,-457.5 552.5,-457.5 552.5,-427.5 357.5,-427.5"/>
<text text-anchor="start" x="365.5" y="-445.5" font-family="Helvetica,sans-Serif" font-size="10.00">com.tomoparts.tomoBay.model.data</text>
<text text-anchor="middle" x="455" y="-434.5" font-family="Helvetica,sans-Serif" font-size="10.00">Types.DualList.put</text>
</a>
</g>
</g>
<!-- Node2&#45;&gt;Node3 -->
<g id="edge2" class="edge"><title>Node2&#45;&gt;Node3</title>
<path fill="none" stroke="midnightblue" d="M310.58,-442.5C322.587,-442.5 334.921,-442.5 347.073,-442.5"/>
<polygon fill="midnightblue" stroke="midnightblue" points="347.227,-446 357.227,-442.5 347.227,-439 347.227,-446"/>
</g>
<!-- Node11 -->
<g id="node11" class="node"><title>Node11</title>
<g id="a_node11"><a xlink:href="classcom_1_1tomoparts_1_1tomoBay_1_1model_1_1dataTypes_1_1heteroTypeContainer_1_1HeteroFieldContainer.html#a988363ab964d6dc0ccb8560bef5895b6" target="_top" xlink:title="retrieve the the value of an AbstractField from this HeteroFieldContainer, the field should be of the...">
<polygon fill="white" stroke="black" points="352,-44 352,-85 558,-85 558,-44 352,-44"/>
<text text-anchor="start" x="360" y="-73" font-family="Helvetica,sans-Serif" font-size="10.00">com.tomoparts.tomoBay.model.data</text>
<text text-anchor="start" x="360" y="-62" font-family="Helvetica,sans-Serif" font-size="10.00">Types.heteroTypeContainer.HeteroField</text>
<text text-anchor="middle" x="455" y="-51" font-family="Helvetica,sans-Serif" font-size="10.00">Container.get</text>
</a>
</g>
</g>
<!-- Node10&#45;&gt;Node11 -->
<g id="edge10" class="edge"><title>Node10&#45;&gt;Node11</title>
<path fill="none" stroke="midnightblue" d="M310.58,-64.5C320.74,-64.5 331.132,-64.5 341.451,-64.5"/>
<polygon fill="midnightblue" stroke="midnightblue" points="341.734,-68.0001 351.734,-64.5 341.734,-61.0001 341.734,-68.0001"/>
</g>
<!-- Node12 -->
<g id="node12" class="node"><title>Node12</title>
<g id="a_node12"><a xlink:href="classcom_1_1tomoparts_1_1tomoBay_1_1model_1_1dataTypes_1_1heteroTypeContainer_1_1HeteroFieldContainer.html#a9dee3c01eb5ab16203e1c6820a569484" target="_top" xlink:title="performs a type check, assuming that field and type are of the same type then this method returns tru...">
<polygon fill="white" stroke="black" points="594,-44 594,-85 800,-85 800,-44 594,-44"/>
<text text-anchor="start" x="602" y="-73" font-family="Helvetica,sans-Serif" font-size="10.00">com.tomoparts.tomoBay.model.data</text>
<text text-anchor="start" x="602" y="-62" font-family="Helvetica,sans-Serif" font-size="10.00">Types.heteroTypeContainer.HeteroField</text>
<text text-anchor="middle" x="697" y="-51" font-family="Helvetica,sans-Serif" font-size="10.00">Container.isSameType</text>
</a>
</g>
</g>
<!-- Node11&#45;&gt;Node12 -->
<g id="edge11" class="edge"><title>Node11&#45;&gt;Node12</title>
<path fill="none" stroke="midnightblue" d="M558.13,-64.5C566.658,-64.5 575.309,-64.5 583.906,-64.5"/>
<polygon fill="midnightblue" stroke="midnightblue" points="583.962,-68.0001 593.962,-64.5 583.962,-61.0001 583.962,-68.0001"/>
</g>
</g>
</svg>
