<?xml version="1.0" encoding="UTF-8" standalone="no"?>
<!DOCTYPE svg PUBLIC "-//W3C//DTD SVG 1.1//EN"
 "http://www.w3.org/Graphics/SVG/1.1/DTD/svg11.dtd">
<!-- Generated by graphviz version 2.38.0 (20140413.2041)
 -->
<!-- Title: transaction Pages: 1 -->
<svg width="1480pt" height="443pt"
 viewBox="0.00 0.00 1480.00 443.06" xmlns="http://www.w3.org/2000/svg" xmlns:xlink="http://www.w3.org/1999/xlink">
<g id="graph0" class="graph" transform="scale(1 1) rotate(0) translate(4 439.057)">
<title>transaction</title>
<polygon fill="white" stroke="none" points="-4,4 -4,-439.057 1476,-439.057 1476,4 -4,4"/>
<!-- Node1 -->
<g id="node1" class="node"><title>Node1</title>
<polygon fill="#bfbfbf" stroke="black" points="0,-213.5 0,-232.5 71,-232.5 71,-213.5 0,-213.5"/>
<text text-anchor="middle" x="35.5" y="-220.5" font-family="Helvetica,sans-Serif" font-size="10.00">transaction</text>
</g>
<!-- Node2 -->
<g id="node2" class="node"><title>Node2</title>
<g id="a_node2"><a xlink:href="classcom_1_1tomoparts_1_1tomoBay_1_1model_1_1dataTypes_1_1financial_1_1SalesOrderDayBook_1_1AbstractLineItem.html#a28adee7449a135a162898c26b7198092" target="_top" xlink:title="retrieve the description of the invoiced part ">
<polygon fill="white" stroke="black" points="130.5,-350.5 130.5,-391.5 325.5,-391.5 325.5,-350.5 130.5,-350.5"/>
<text text-anchor="start" x="138.5" y="-379.5" font-family="Helvetica,sans-Serif" font-size="10.00">com.tomoparts.tomoBay.model.data</text>
<text text-anchor="start" x="138.5" y="-368.5" font-family="Helvetica,sans-Serif" font-size="10.00">Types.financial.SalesOrderDayBook.</text>
<text text-anchor="middle" x="228" y="-357.5" font-family="Helvetica,sans-Serif" font-size="10.00">AbstractLineItem.description</text>
</a>
</g>
</g>
<!-- Node1&#45;&gt;Node2 -->
<g id="edge1" class="edge"><title>Node1&#45;&gt;Node2</title>
<path fill="none" stroke="midnightblue" d="M42.7214,-242.342C52.2401,-268.766 72.9819,-315.745 107,-341 114.069,-346.248 121.952,-350.585 130.207,-354.167"/>
<polygon fill="midnightblue" stroke="midnightblue" points="45.9711,-241.028 39.4207,-232.701 39.3484,-243.295 45.9711,-241.028"/>
</g>
<!-- Node3 -->
<g id="node3" class="node"><title>Node3</title>
<g id="a_node3"><a xlink:href="classcom_1_1tomoparts_1_1tomoBay_1_1presenters_1_1presenterActions_1_1concreteActions_1_1OrderInfo.html#a703cbb509cdc01530f19b03f573120c9" target="_top" xlink:title="formats the transaction information associated with this order ">
<polygon fill="white" stroke="black" points="385,-324 385,-354 639,-354 639,-324 385,-324"/>
<text text-anchor="start" x="393" y="-342" font-family="Helvetica,sans-Serif" font-size="10.00">com.tomoparts.tomoBay.presenters.presenter</text>
<text text-anchor="middle" x="512" y="-331" font-family="Helvetica,sans-Serif" font-size="10.00">Actions.concreteActions.OrderInfo.transactionInfo</text>
</a>
</g>
</g>
<!-- Node1&#45;&gt;Node3 -->
<g id="edge16" class="edge"><title>Node1&#45;&gt;Node3</title>
<path fill="none" stroke="midnightblue" d="M37.5206,-242.924C40.6878,-281.278 53.6828,-364.77 107,-401 228.493,-483.556 417.654,-392.066 485.616,-354.018"/>
<polygon fill="midnightblue" stroke="midnightblue" points="40.9874,-242.314 36.8195,-232.573 34.0034,-242.787 40.9874,-242.314"/>
</g>
<!-- Node6 -->
<g id="node6" class="node"><title>Node6</title>
<g id="a_node6"><a xlink:href="classcom_1_1tomoparts_1_1tomoBay_1_1presenters_1_1presenterActions_1_1concreteActions_1_1PrintInvoices.html#adb3dedf31dc2c7fc796f20406c235ccd" target="_top" xlink:title="performs the action specified ">
<polygon fill="white" stroke="black" points="107,-181 107,-211 349,-211 349,-181 107,-181"/>
<text text-anchor="start" x="115" y="-199" font-family="Helvetica,sans-Serif" font-size="10.00">com.tomoparts.tomoBay.presenters.presenter</text>
<text text-anchor="middle" x="228" y="-188" font-family="Helvetica,sans-Serif" font-size="10.00">Actions.concreteActions.PrintInvoices.execute</text>
</a>
</g>
</g>
<!-- Node1&#45;&gt;Node6 -->
<g id="edge5" class="edge"><title>Node1&#45;&gt;Node6</title>
<path fill="none" stroke="midnightblue" d="M81.5944,-216.609C93.6196,-214.904 107.137,-212.988 120.962,-211.029"/>
<polygon fill="midnightblue" stroke="midnightblue" points="80.8505,-213.179 71.4406,-218.048 81.8329,-220.11 80.8505,-213.179"/>
</g>
<!-- Node7 -->
<g id="node7" class="node"><title>Node7</title>
<g id="a_node7"><a xlink:href="classcom_1_1tomoparts_1_1tomoBay_1_1model_1_1dataTypes_1_1financial_1_1SalesOrderDayBook_1_1formats_1_1WinstockFormat.html#accefd62bc10c59d9ba78937d90a5fa8c" target="_top" xlink:title="com.tomoparts.tomoBay.model.data\lTypes.financial.SalesOrderDayBook.formats.\lWinstockFormat.format">
<polygon fill="white" stroke="black" points="113.5,-120.5 113.5,-161.5 342.5,-161.5 342.5,-120.5 113.5,-120.5"/>
<text text-anchor="start" x="121.5" y="-149.5" font-family="Helvetica,sans-Serif" font-size="10.00">com.tomoparts.tomoBay.model.data</text>
<text text-anchor="start" x="121.5" y="-138.5" font-family="Helvetica,sans-Serif" font-size="10.00">Types.financial.SalesOrderDayBook.formats.</text>
<text text-anchor="middle" x="228" y="-127.5" font-family="Helvetica,sans-Serif" font-size="10.00">WinstockFormat.format</text>
</a>
</g>
</g>
<!-- Node1&#45;&gt;Node7 -->
<g id="edge6" class="edge"><title>Node1&#45;&gt;Node7</title>
<path fill="none" stroke="midnightblue" d="M54.7923,-206.806C68.3556,-195.569 87.7544,-181.049 107,-172 115.276,-168.109 124.111,-164.655 133.092,-161.601"/>
<polygon fill="midnightblue" stroke="midnightblue" points="52.506,-204.156 47.1549,-213.3 57.0405,-209.489 52.506,-204.156"/>
</g>
<!-- Node8 -->
<g id="node8" class="node"><title>Node8</title>
<g id="a_node8"><a xlink:href="classcom_1_1tomoparts_1_1tomoBay_1_1model_1_1dataTypes_1_1financial_1_1SalesOrderDayBook_1_1AbstractLineItem.html#a06da05dee451bbf7e7ec2f702fc7e3fb" target="_top" xlink:title="retrieve the part number associated with the part that has been invoiced ">
<polygon fill="white" stroke="black" points="130.5,-290.5 130.5,-331.5 325.5,-331.5 325.5,-290.5 130.5,-290.5"/>
<text text-anchor="start" x="138.5" y="-319.5" font-family="Helvetica,sans-Serif" font-size="10.00">com.tomoparts.tomoBay.model.data</text>
<text text-anchor="start" x="138.5" y="-308.5" font-family="Helvetica,sans-Serif" font-size="10.00">Types.financial.SalesOrderDayBook.</text>
<text text-anchor="middle" x="228" y="-297.5" font-family="Helvetica,sans-Serif" font-size="10.00">AbstractLineItem.partNo</text>
</a>
</g>
</g>
<!-- Node1&#45;&gt;Node8 -->
<g id="edge7" class="edge"><title>Node1&#45;&gt;Node8</title>
<path fill="none" stroke="midnightblue" d="M52.9859,-240.223C66.3787,-253.247 86.37,-270.606 107,-281 114.384,-284.72 122.26,-288 130.315,-290.887"/>
<polygon fill="midnightblue" stroke="midnightblue" points="55.0943,-237.381 45.553,-232.775 50.1395,-242.326 55.0943,-237.381"/>
</g>
<!-- Node13 -->
<g id="node13" class="node"><title>Node13</title>
<g id="a_node13"><a xlink:href="classcom_1_1tomoparts_1_1tomoBay_1_1model_1_1dataTypes_1_1financial_1_1SalesOrderDayBook_1_1AbstractLineItem.html#a784e8a839c20c37ba8b20c477cb826c2" target="_top" xlink:title="retrieve the invoiced quantity of the part to be invoiced in this line item ">
<polygon fill="white" stroke="black" points="130.5,-230.5 130.5,-271.5 325.5,-271.5 325.5,-230.5 130.5,-230.5"/>
<text text-anchor="start" x="138.5" y="-259.5" font-family="Helvetica,sans-Serif" font-size="10.00">com.tomoparts.tomoBay.model.data</text>
<text text-anchor="start" x="138.5" y="-248.5" font-family="Helvetica,sans-Serif" font-size="10.00">Types.financial.SalesOrderDayBook.</text>
<text text-anchor="middle" x="228" y="-237.5" font-family="Helvetica,sans-Serif" font-size="10.00">AbstractLineItem.quantity</text>
</a>
</g>
</g>
<!-- Node1&#45;&gt;Node13 -->
<g id="edge13" class="edge"><title>Node1&#45;&gt;Node13</title>
<path fill="none" stroke="midnightblue" d="M81.7122,-229.645C96.3988,-231.804 113.302,-234.288 130.268,-236.782"/>
<polygon fill="midnightblue" stroke="midnightblue" points="81.8433,-226.127 71.4406,-228.136 80.8253,-233.053 81.8433,-226.127"/>
</g>
<!-- Node14 -->
<g id="node14" class="node"><title>Node14</title>
<g id="a_node14"><a xlink:href="classcom_1_1tomoparts_1_1tomoBay_1_1model_1_1dataTypes_1_1financial_1_1SalesOrderDayBook_1_1concreteLineTypes_1_1GSPInvoiceLine.html#a1dbab551a07ec1e0c91c3cc7ef4fcd0b" target="_top" xlink:title="com.tomoparts.tomoBay.model.data\lTypes.financial.SalesOrderDayBook.concrete\lLineTypes.GSPInvoiceLine.unitPrice">
<polygon fill="white" stroke="black" points="113,-60.5 113,-101.5 343,-101.5 343,-60.5 113,-60.5"/>
<text text-anchor="start" x="121" y="-89.5" font-family="Helvetica,sans-Serif" font-size="10.00">com.tomoparts.tomoBay.model.data</text>
<text text-anchor="start" x="121" y="-78.5" font-family="Helvetica,sans-Serif" font-size="10.00">Types.financial.SalesOrderDayBook.concrete</text>
<text text-anchor="middle" x="228" y="-67.5" font-family="Helvetica,sans-Serif" font-size="10.00">LineTypes.GSPInvoiceLine.unitPrice</text>
</a>
</g>
</g>
<!-- Node1&#45;&gt;Node14 -->
<g id="edge17" class="edge"><title>Node1&#45;&gt;Node14</title>
<path fill="none" stroke="midnightblue" d="M43.2789,-203.92C53.2411,-178.703 74.2769,-134.708 107,-111 111.869,-107.472 117.109,-104.357 122.58,-101.607"/>
<polygon fill="midnightblue" stroke="midnightblue" points="39.9337,-202.872 39.6855,-213.464 46.4847,-205.339 39.9337,-202.872"/>
</g>
<!-- Node15 -->
<g id="node15" class="node"><title>Node15</title>
<g id="a_node15"><a xlink:href="classcom_1_1tomoparts_1_1tomoBay_1_1model_1_1dataTypes_1_1financial_1_1SalesOrderDayBook_1_1conc5f457e0fcc0fab8be8291cad74a922e7.html#ad4699f0815895232592f2e0a89f67b39" target="_top" xlink:title="com.tomoparts.tomoBay.model.data\lTypes.financial.SalesOrderDayBook.concrete\lLineTypes.StandardInvoiceLine.unitPrice">
<polygon fill="white" stroke="black" points="113,-0.5 113,-41.5 343,-41.5 343,-0.5 113,-0.5"/>
<text text-anchor="start" x="121" y="-29.5" font-family="Helvetica,sans-Serif" font-size="10.00">com.tomoparts.tomoBay.model.data</text>
<text text-anchor="start" x="121" y="-18.5" font-family="Helvetica,sans-Serif" font-size="10.00">Types.financial.SalesOrderDayBook.concrete</text>
<text text-anchor="middle" x="228" y="-7.5" font-family="Helvetica,sans-Serif" font-size="10.00">LineTypes.StandardInvoiceLine.unitPrice</text>
</a>
</g>
</g>
<!-- Node1&#45;&gt;Node15 -->
<g id="edge18" class="edge"><title>Node1&#45;&gt;Node15</title>
<path fill="none" stroke="midnightblue" d="M38.7881,-203.334C44.0366,-167.465 60.3187,-91.3998 107,-51 111.059,-47.4868 115.471,-44.3736 120.126,-41.6159"/>
<polygon fill="midnightblue" stroke="midnightblue" points="35.2888,-203.099 37.4472,-213.471 42.2284,-204.017 35.2888,-203.099"/>
</g>
<!-- Node2&#45;&gt;Node3 -->
<g id="edge2" class="edge"><title>Node2&#45;&gt;Node3</title>
<path fill="none" stroke="midnightblue" d="M335.988,-358.86C351.862,-357.058 368.347,-355.188 384.573,-353.346"/>
<polygon fill="midnightblue" stroke="midnightblue" points="335.195,-355.427 325.654,-360.032 335.985,-362.382 335.195,-355.427"/>
</g>
<!-- Node4 -->
<g id="node4" class="node"><title>Node4</title>
<g id="a_node4"><a xlink:href="classcom_1_1tomoparts_1_1tomoBay_1_1presenters_1_1presenterActions_1_1concreteActions_1_1OrderInfo.html#afeec1aeda079b77245edea1e74b25f33" target="_top" xlink:title="assembles the various parts of the order and outputs it as a fully formed JSON string. ">
<polygon fill="white" stroke="black" points="675,-324 675,-354 924,-354 924,-324 675,-324"/>
<text text-anchor="start" x="683" y="-342" font-family="Helvetica,sans-Serif" font-size="10.00">com.tomoparts.tomoBay.presenters.presenter</text>
<text text-anchor="middle" x="799.5" y="-331" font-family="Helvetica,sans-Serif" font-size="10.00">Actions.concreteActions.OrderInfo.formatResults</text>
</a>
</g>
</g>
<!-- Node3&#45;&gt;Node4 -->
<g id="edge3" class="edge"><title>Node3&#45;&gt;Node4</title>
<path fill="none" stroke="midnightblue" d="M649.32,-339C657.753,-339 666.217,-339 674.592,-339"/>
<polygon fill="midnightblue" stroke="midnightblue" points="649.056,-335.5 639.056,-339 649.055,-342.5 649.056,-335.5"/>
</g>
<!-- Node5 -->
<g id="node5" class="node"><title>Node5</title>
<g id="a_node5"><a xlink:href="classcom_1_1tomoparts_1_1tomoBay_1_1presenters_1_1presenterActions_1_1concreteActions_1_1OrderInfo.html#adb3dedf31dc2c7fc796f20406c235ccd" target="_top" xlink:title="performs the action specified ">
<polygon fill="white" stroke="black" points="960,-324 960,-354 1202,-354 1202,-324 960,-324"/>
<text text-anchor="start" x="968" y="-342" font-family="Helvetica,sans-Serif" font-size="10.00">com.tomoparts.tomoBay.presenters.presenter</text>
<text text-anchor="middle" x="1081" y="-331" font-family="Helvetica,sans-Serif" font-size="10.00">Actions.concreteActions.OrderInfo.execute</text>
</a>
</g>
</g>
<!-- Node4&#45;&gt;Node5 -->
<g id="edge4" class="edge"><title>Node4&#45;&gt;Node5</title>
<path fill="none" stroke="midnightblue" d="M934.322,-339C942.865,-339 951.439,-339 959.914,-339"/>
<polygon fill="midnightblue" stroke="midnightblue" points="934.313,-335.5 924.313,-339 934.313,-342.5 934.313,-335.5"/>
</g>
<!-- Node8&#45;&gt;Node3 -->
<g id="edge12" class="edge"><title>Node8&#45;&gt;Node3</title>
<path fill="none" stroke="midnightblue" d="M335.988,-321.623C351.862,-323.199 368.347,-324.836 384.573,-326.447"/>
<polygon fill="midnightblue" stroke="midnightblue" points="335.951,-318.102 325.654,-320.597 335.259,-325.068 335.951,-318.102"/>
</g>
<!-- Node9 -->
<g id="node9" class="node"><title>Node9</title>
<g id="a_node9"><a xlink:href="classcom_1_1tomoparts_1_1tomoBay_1_1model_1_1dataTypes_1_1financial_1_1SalesOrderDayBook_1_1PriceAdjustment.html#ad8b7947428df520815c610d319d7375a" target="_top" xlink:title="calculate the total cost (EX VAT) of the testPrices array. ">
<polygon fill="white" stroke="black" points="414.5,-261.5 414.5,-302.5 609.5,-302.5 609.5,-261.5 414.5,-261.5"/>
<text text-anchor="start" x="422.5" y="-290.5" font-family="Helvetica,sans-Serif" font-size="10.00">com.tomoparts.tomoBay.model.data</text>
<text text-anchor="start" x="422.5" y="-279.5" font-family="Helvetica,sans-Serif" font-size="10.00">Types.financial.SalesOrderDayBook.</text>
<text text-anchor="middle" x="512" y="-268.5" font-family="Helvetica,sans-Serif" font-size="10.00">PriceAdjustment.calculateTotal</text>
</a>
</g>
</g>
<!-- Node8&#45;&gt;Node9 -->
<g id="edge8" class="edge"><title>Node8&#45;&gt;Node9</title>
<path fill="none" stroke="midnightblue" d="M335.847,-300.012C361.681,-297.355 389.143,-294.531 414.472,-291.927"/>
<polygon fill="midnightblue" stroke="midnightblue" points="335.243,-296.556 325.654,-301.06 335.959,-303.519 335.243,-296.556"/>
</g>
<!-- Node10 -->
<g id="node10" class="node"><title>Node10</title>
<g id="a_node10"><a xlink:href="classcom_1_1tomoparts_1_1tomoBay_1_1model_1_1dataTypes_1_1financial_1_1SalesOrderDayBook_1_1PriceAdjustment.html#ac2a5cb96c13a986d05bd0457a1971e2f" target="_top" xlink:title="calculate the adjustments necessary and apply them to the AbstractSalesDayBookLine provided as an arg...">
<polygon fill="white" stroke="black" points="702,-261.5 702,-302.5 897,-302.5 897,-261.5 702,-261.5"/>
<text text-anchor="start" x="710" y="-290.5" font-family="Helvetica,sans-Serif" font-size="10.00">com.tomoparts.tomoBay.model.data</text>
<text text-anchor="start" x="710" y="-279.5" font-family="Helvetica,sans-Serif" font-size="10.00">Types.financial.SalesOrderDayBook.</text>
<text text-anchor="middle" x="799.5" y="-268.5" font-family="Helvetica,sans-Serif" font-size="10.00">PriceAdjustment.adjust</text>
</a>
</g>
</g>
<!-- Node9&#45;&gt;Node10 -->
<g id="edge9" class="edge"><title>Node9&#45;&gt;Node10</title>
<path fill="none" stroke="midnightblue" d="M619.879,-282C646.807,-282 675.555,-282 701.942,-282"/>
<polygon fill="midnightblue" stroke="midnightblue" points="619.657,-278.5 609.657,-282 619.657,-285.5 619.657,-278.5"/>
</g>
<!-- Node11 -->
<g id="node11" class="node"><title>Node11</title>
<g id="a_node11"><a xlink:href="classcom_1_1tomoparts_1_1tomoBay_1_1model_1_1dataTypes_1_1financial_1_1SalesOrderDayBook_1_1AbstractSalesDayBookLine.html#a0c8ce8b50d57fa99babc2c2199a39fe3" target="_top" xlink:title="com.tomoparts.tomoBay.model.data\lTypes.financial.SalesOrderDayBook.\lAbstractSalesDayBookLine.adjustPrices">
<polygon fill="white" stroke="black" points="978,-261.5 978,-302.5 1184,-302.5 1184,-261.5 978,-261.5"/>
<text text-anchor="start" x="986" y="-290.5" font-family="Helvetica,sans-Serif" font-size="10.00">com.tomoparts.tomoBay.model.data</text>
<text text-anchor="start" x="986" y="-279.5" font-family="Helvetica,sans-Serif" font-size="10.00">Types.financial.SalesOrderDayBook.</text>
<text text-anchor="middle" x="1081" y="-268.5" font-family="Helvetica,sans-Serif" font-size="10.00">AbstractSalesDayBookLine.adjustPrices</text>
</a>
</g>
</g>
<!-- Node10&#45;&gt;Node11 -->
<g id="edge10" class="edge"><title>Node10&#45;&gt;Node11</title>
<path fill="none" stroke="midnightblue" d="M907.249,-282C930.367,-282 954.762,-282 977.703,-282"/>
<polygon fill="midnightblue" stroke="midnightblue" points="907.079,-278.5 897.079,-282 907.079,-285.5 907.079,-278.5"/>
</g>
<!-- Node12 -->
<g id="node12" class="node"><title>Node12</title>
<g id="a_node12"><a xlink:href="classcom_1_1tomoparts_1_1tomoBay_1_1model_1_1dataTypes_1_1financial_1_1SalesOrderDayBook_1_1AbstractSalesDayBookLine.html#ae9d19609629c59f8df7ddec196fcc30c" target="_top" xlink:title="CONSTRUCTOR, creates a SalesDayBookLine based on the Order passed in as a parameter. ">
<polygon fill="white" stroke="black" points="1238,-256 1238,-308 1472,-308 1472,-256 1238,-256"/>
<text text-anchor="start" x="1246" y="-296" font-family="Helvetica,sans-Serif" font-size="10.00">com.tomoparts.tomoBay.model.data</text>
<text text-anchor="start" x="1246" y="-285" font-family="Helvetica,sans-Serif" font-size="10.00">Types.financial.SalesOrderDayBook.</text>
<text text-anchor="start" x="1246" y="-274" font-family="Helvetica,sans-Serif" font-size="10.00">AbstractSalesDayBookLine.AbstractSalesDay</text>
<text text-anchor="middle" x="1355" y="-263" font-family="Helvetica,sans-Serif" font-size="10.00">BookLine</text>
</a>
</g>
</g>
<!-- Node11&#45;&gt;Node12 -->
<g id="edge11" class="edge"><title>Node11&#45;&gt;Node12</title>
<path fill="none" stroke="midnightblue" d="M1194.38,-282C1208.67,-282 1223.31,-282 1237.66,-282"/>
<polygon fill="midnightblue" stroke="midnightblue" points="1194.06,-278.5 1184.06,-282 1194.06,-285.5 1194.06,-278.5"/>
</g>
<!-- Node13&#45;&gt;Node3 -->
<g id="edge15" class="edge"><title>Node13&#45;&gt;Node3</title>
<path fill="none" stroke="midnightblue" d="M335.455,-274.707C340.104,-276.648 344.641,-278.742 349,-281 367.749,-290.712 366.09,-302.607 385,-312 394.617,-316.777 405.058,-320.712 415.675,-323.952"/>
<polygon fill="midnightblue" stroke="midnightblue" points="336.365,-271.305 325.777,-270.934 333.822,-277.827 336.365,-271.305"/>
</g>
<!-- Node13&#45;&gt;Node9 -->
<g id="edge14" class="edge"><title>Node13&#45;&gt;Node9</title>
<path fill="none" stroke="midnightblue" d="M335.847,-262.746C361.681,-265.586 389.143,-268.604 414.472,-271.389"/>
<polygon fill="midnightblue" stroke="midnightblue" points="335.976,-259.239 325.654,-261.625 335.212,-266.197 335.976,-259.239"/>
</g>
</g>
</svg>
