<?xml version="1.0" encoding="UTF-8" standalone="no"?>
<!DOCTYPE svg PUBLIC "-//W3C//DTD SVG 1.1//EN"
 "http://www.w3.org/Graphics/SVG/1.1/DTD/svg11.dtd">
<!-- Generated by graphviz version 2.38.0 (20140413.2041)
 -->
<!-- Title: getPartNumber Pages: 1 -->
<svg width="1102pt" height="252pt"
 viewBox="0.00 0.00 1102.00 251.50" xmlns="http://www.w3.org/2000/svg" xmlns:xlink="http://www.w3.org/1999/xlink">
<g id="graph0" class="graph" transform="scale(1 1) rotate(0) translate(4 247.5)">
<title>getPartNumber</title>
<polygon fill="white" stroke="none" points="-4,4 -4,-247.5 1098,-247.5 1098,4 -4,4"/>
<!-- Node1 -->
<g id="node1" class="node"><title>Node1</title>
<polygon fill="#bfbfbf" stroke="black" points="0,-144.5 0,-163.5 91,-163.5 91,-144.5 0,-144.5"/>
<text text-anchor="middle" x="45.5" y="-151.5" font-family="Helvetica,sans-Serif" font-size="10.00">getPartNumber</text>
</g>
<!-- Node2 -->
<g id="node2" class="node"><title>Node2</title>
<g id="a_node2"><a xlink:href="classcom_1_1tomoparts_1_1tomoBay_1_1presenters_1_1helpers_1_1pickeability_1_1ItemStockLevel.html#a22844faa947573bb01d9313f7bdb1e56" target="_top" xlink:title="Takes the list of items generated in this.assembleItemsList and checks a PartList associated with eac...">
<polygon fill="white" stroke="black" points="141,-213 141,-243 430,-243 430,-213 141,-213"/>
<text text-anchor="start" x="149" y="-231" font-family="Helvetica,sans-Serif" font-size="10.00">com.tomoparts.tomoBay.presenters.helpers.pickeability.</text>
<text text-anchor="middle" x="285.5" y="-220" font-family="Helvetica,sans-Serif" font-size="10.00">ItemStockLevel.checkStockLevelOfItems</text>
</a>
</g>
</g>
<!-- Node1&#45;&gt;Node2 -->
<g id="edge1" class="edge"><title>Node1&#45;&gt;Node2</title>
<path fill="none" stroke="midnightblue" d="M66.8238,-169.878C82.4139,-181.22 104.937,-195.858 127,-204 136.342,-207.447 146.171,-210.399 156.165,-212.928"/>
<polygon fill="midnightblue" stroke="midnightblue" points="68.6062,-166.84 58.5015,-163.655 64.4143,-172.447 68.6062,-166.84"/>
</g>
<!-- Node5 -->
<g id="node5" class="node"><title>Node5</title>
<g id="a_node5"><a xlink:href="classcom_1_1tomoparts_1_1tomoBay_1_1model_1_1dataTypes_1_1order_1_1Listing.html#a08c9dd8979fc599a5710705156ea0b3e" target="_top" xlink:title="constructor, instantiates this listing based on the listingID provided (aka in the database as itemID...">
<polygon fill="white" stroke="black" points="188,-164 188,-194 383,-194 383,-164 188,-164"/>
<text text-anchor="start" x="196" y="-182" font-family="Helvetica,sans-Serif" font-size="10.00">com.tomoparts.tomoBay.model.data</text>
<text text-anchor="middle" x="285.5" y="-171" font-family="Helvetica,sans-Serif" font-size="10.00">Types.order.Listing.Listing</text>
</a>
</g>
</g>
<!-- Node1&#45;&gt;Node5 -->
<g id="edge4" class="edge"><title>Node1&#45;&gt;Node5</title>
<path fill="none" stroke="midnightblue" d="M101.507,-159.778C127.105,-162.467 158.326,-165.746 187.68,-168.83"/>
<polygon fill="midnightblue" stroke="midnightblue" points="101.577,-156.266 91.266,-158.702 100.846,-163.228 101.577,-156.266"/>
</g>
<!-- Node6 -->
<g id="node6" class="node"><title>Node6</title>
<g id="a_node6"><a xlink:href="classcom_1_1tomoparts_1_1tomoBay_1_1model_1_1royalMail_1_1SAAJTest.html#a8b260eecbaabcef8473fd87ada040682" target="_top" xlink:title="com.tomoparts.tomoBay.model.royal\lMail.SAAJTest.main">
<polygon fill="white" stroke="black" points="187,-115 187,-145 384,-145 384,-115 187,-115"/>
<text text-anchor="start" x="195" y="-133" font-family="Helvetica,sans-Serif" font-size="10.00">com.tomoparts.tomoBay.model.royal</text>
<text text-anchor="middle" x="285.5" y="-122" font-family="Helvetica,sans-Serif" font-size="10.00">Mail.SAAJTest.main</text>
</a>
</g>
</g>
<!-- Node1&#45;&gt;Node6 -->
<g id="edge5" class="edge"><title>Node1&#45;&gt;Node6</title>
<path fill="none" stroke="midnightblue" d="M101.402,-148.464C126.731,-145.909 157.583,-142.798 186.687,-139.863"/>
<polygon fill="midnightblue" stroke="midnightblue" points="100.864,-145 91.266,-149.486 101.567,-151.965 100.864,-145"/>
</g>
<!-- Node7 -->
<g id="node7" class="node"><title>Node7</title>
<g id="a_node7"><a xlink:href="classcom_1_1tomoparts_1_1tomoBay_1_1presenters_1_1presenterActions_1_1concreteActions_1_1StockReOrderAnalysis.html#aa02134599fcce4d6b039274ae5b45b4c" target="_top" xlink:title="Takes the database data and processes it so that the composite part number provided by the database i...">
<polygon fill="white" stroke="black" points="127,-66 127,-96 444,-96 444,-66 127,-66"/>
<text text-anchor="start" x="135" y="-84" font-family="Helvetica,sans-Serif" font-size="10.00">com.tomoparts.tomoBay.presenters.presenter</text>
<text text-anchor="middle" x="285.5" y="-73" font-family="Helvetica,sans-Serif" font-size="10.00">Actions.concreteActions.StockReOrderAnalysis.processDBdata</text>
</a>
</g>
</g>
<!-- Node1&#45;&gt;Node7 -->
<g id="edge6" class="edge"><title>Node1&#45;&gt;Node7</title>
<path fill="none" stroke="midnightblue" d="M67.4894,-138.437C83.1129,-127.635 105.387,-113.829 127,-106 137.673,-102.134 148.967,-98.8648 160.409,-96.1008"/>
<polygon fill="midnightblue" stroke="midnightblue" points="65.2429,-135.74 59.1143,-144.382 69.2947,-141.448 65.2429,-135.74"/>
</g>
<!-- Node3 -->
<g id="node3" class="node"><title>Node3</title>
<g id="a_node3"><a xlink:href="classcom_1_1tomoparts_1_1tomoBay_1_1presenters_1_1helpers_1_1pickeability_1_1ItemStockLevel.html#a1aed814db05c4991e9bc719f39ea62ce" target="_top" xlink:title="com.tomoparts.tomoBay.presenters.helpers.pickeability.\lItemStockLevel.check">
<polygon fill="white" stroke="black" points="480,-213 480,-243 769,-243 769,-213 480,-213"/>
<text text-anchor="start" x="488" y="-231" font-family="Helvetica,sans-Serif" font-size="10.00">com.tomoparts.tomoBay.presenters.helpers.pickeability.</text>
<text text-anchor="middle" x="624.5" y="-220" font-family="Helvetica,sans-Serif" font-size="10.00">ItemStockLevel.check</text>
</a>
</g>
</g>
<!-- Node2&#45;&gt;Node3 -->
<g id="edge2" class="edge"><title>Node2&#45;&gt;Node3</title>
<path fill="none" stroke="midnightblue" d="M440.405,-228C453.53,-228 466.775,-228 479.817,-228"/>
<polygon fill="midnightblue" stroke="midnightblue" points="440.396,-224.5 430.396,-228 440.396,-231.5 440.396,-224.5"/>
</g>
<!-- Node4 -->
<g id="node4" class="node"><title>Node4</title>
<g id="a_node4"><a xlink:href="classcom_1_1tomoparts_1_1tomoBay_1_1presenters_1_1helpers_1_1pickeability_1_1Pickeablity.html#ae05e03af15e33d53f9e0511ec0295a04" target="_top" xlink:title="default ctor ">
<polygon fill="white" stroke="black" points="805,-213 805,-243 1094,-243 1094,-213 805,-213"/>
<text text-anchor="start" x="813" y="-231" font-family="Helvetica,sans-Serif" font-size="10.00">com.tomoparts.tomoBay.presenters.helpers.pickeability.</text>
<text text-anchor="middle" x="949.5" y="-220" font-family="Helvetica,sans-Serif" font-size="10.00">Pickeablity.Pickeablity</text>
</a>
</g>
</g>
<!-- Node3&#45;&gt;Node4 -->
<g id="edge3" class="edge"><title>Node3&#45;&gt;Node4</title>
<path fill="none" stroke="midnightblue" d="M779.101,-228C787.677,-228 796.282,-228 804.821,-228"/>
<polygon fill="midnightblue" stroke="midnightblue" points="779.054,-224.5 769.054,-228 779.053,-231.5 779.054,-224.5"/>
</g>
<!-- Node8 -->
<g id="node8" class="node"><title>Node8</title>
<g id="a_node8"><a xlink:href="classcom_1_1tomoparts_1_1tomoBay_1_1presenters_1_1presenterActions_1_1concreteActions_1_1StockReOrderAnalysis.html#adb3dedf31dc2c7fc796f20406c235ccd" target="_top" xlink:title="performs the action specified ">
<polygon fill="white" stroke="black" points="484,-66 484,-96 765,-96 765,-66 484,-66"/>
<text text-anchor="start" x="492" y="-84" font-family="Helvetica,sans-Serif" font-size="10.00">com.tomoparts.tomoBay.presenters.presenter</text>
<text text-anchor="middle" x="624.5" y="-73" font-family="Helvetica,sans-Serif" font-size="10.00">Actions.concreteActions.StockReOrderAnalysis.execute</text>
</a>
</g>
</g>
<!-- Node7&#45;&gt;Node8 -->
<g id="edge7" class="edge"><title>Node7&#45;&gt;Node8</title>
<path fill="none" stroke="midnightblue" d="M454.427,-81C464.298,-81 474.173,-81 483.914,-81"/>
<polygon fill="midnightblue" stroke="midnightblue" points="454.146,-77.5001 444.146,-81 454.146,-84.5001 454.146,-77.5001"/>
</g>
<!-- Node9 -->
<g id="node9" class="node"><title>Node9</title>
<g id="a_node9"><a xlink:href="classcom_1_1tomoparts_1_1tomoBay_1_1test_1_1unit_1_1presenters_1_1presenterActions_1_1concreteAc8b0f5e9c382ebee7a7abf9009c33838e.html#a07b7831bd5f69df06f9ff2cce3661376" target="_top" xlink:title="com.tomoparts.tomoBay.test.unit.presenters.presenter\lActions.concreteActions.StockReOrderAnalysisTest.test\lExecuteBadData1">
<polygon fill="white" stroke="black" points="807.5,-120.5 807.5,-161.5 1091.5,-161.5 1091.5,-120.5 807.5,-120.5"/>
<text text-anchor="start" x="815.5" y="-149.5" font-family="Helvetica,sans-Serif" font-size="10.00">com.tomoparts.tomoBay.test.unit.presenters.presenter</text>
<text text-anchor="start" x="815.5" y="-138.5" font-family="Helvetica,sans-Serif" font-size="10.00">Actions.concreteActions.StockReOrderAnalysisTest.test</text>
<text text-anchor="middle" x="949.5" y="-127.5" font-family="Helvetica,sans-Serif" font-size="10.00">ExecuteBadData1</text>
</a>
</g>
</g>
<!-- Node8&#45;&gt;Node9 -->
<g id="edge8" class="edge"><title>Node8&#45;&gt;Node9</title>
<path fill="none" stroke="midnightblue" d="M716.554,-97.914C754.323,-104.93 798.485,-113.133 838.08,-120.489"/>
<polygon fill="midnightblue" stroke="midnightblue" points="717.061,-94.4484 706.59,-96.0631 715.782,-101.331 717.061,-94.4484"/>
</g>
<!-- Node10 -->
<g id="node10" class="node"><title>Node10</title>
<g id="a_node10"><a xlink:href="classcom_1_1tomoparts_1_1tomoBay_1_1test_1_1unit_1_1presenters_1_1presenterActions_1_1concreteAc8b0f5e9c382ebee7a7abf9009c33838e.html#a9fe5a553cc6d9ead3154faa3121e5bb9" target="_top" xlink:title="com.tomoparts.tomoBay.test.unit.presenters.presenter\lActions.concreteActions.StockReOrderAnalysisTest.test\lExecuteBadData2">
<polygon fill="white" stroke="black" points="807.5,-60.5 807.5,-101.5 1091.5,-101.5 1091.5,-60.5 807.5,-60.5"/>
<text text-anchor="start" x="815.5" y="-89.5" font-family="Helvetica,sans-Serif" font-size="10.00">com.tomoparts.tomoBay.test.unit.presenters.presenter</text>
<text text-anchor="start" x="815.5" y="-78.5" font-family="Helvetica,sans-Serif" font-size="10.00">Actions.concreteActions.StockReOrderAnalysisTest.test</text>
<text text-anchor="middle" x="949.5" y="-67.5" font-family="Helvetica,sans-Serif" font-size="10.00">ExecuteBadData2</text>
</a>
</g>
</g>
<!-- Node8&#45;&gt;Node10 -->
<g id="edge9" class="edge"><title>Node8&#45;&gt;Node10</title>
<path fill="none" stroke="midnightblue" d="M775.485,-81C786.141,-81 796.865,-81 807.47,-81"/>
<polygon fill="midnightblue" stroke="midnightblue" points="775.294,-77.5001 765.294,-81 775.294,-84.5001 775.294,-77.5001"/>
</g>
<!-- Node11 -->
<g id="node11" class="node"><title>Node11</title>
<g id="a_node11"><a xlink:href="classcom_1_1tomoparts_1_1tomoBay_1_1test_1_1unit_1_1presenters_1_1presenterActions_1_1concreteAc8b0f5e9c382ebee7a7abf9009c33838e.html#a523accba573f6d4c7f68fb358a0563cb" target="_top" xlink:title="com.tomoparts.tomoBay.test.unit.presenters.presenter\lActions.concreteActions.StockReOrderAnalysisTest.test\lExecuteBadData3">
<polygon fill="white" stroke="black" points="807.5,-0.5 807.5,-41.5 1091.5,-41.5 1091.5,-0.5 807.5,-0.5"/>
<text text-anchor="start" x="815.5" y="-29.5" font-family="Helvetica,sans-Serif" font-size="10.00">com.tomoparts.tomoBay.test.unit.presenters.presenter</text>
<text text-anchor="start" x="815.5" y="-18.5" font-family="Helvetica,sans-Serif" font-size="10.00">Actions.concreteActions.StockReOrderAnalysisTest.test</text>
<text text-anchor="middle" x="949.5" y="-7.5" font-family="Helvetica,sans-Serif" font-size="10.00">ExecuteBadData3</text>
</a>
</g>
</g>
<!-- Node8&#45;&gt;Node11 -->
<g id="edge10" class="edge"><title>Node8&#45;&gt;Node11</title>
<path fill="none" stroke="midnightblue" d="M716.554,-64.086C754.323,-57.0701 798.485,-48.8666 838.08,-41.5114"/>
<polygon fill="midnightblue" stroke="midnightblue" points="715.782,-60.6694 706.59,-65.9369 717.061,-67.5516 715.782,-60.6694"/>
</g>
</g>
</svg>
