<?xml version="1.0" encoding="UTF-8" standalone="no"?>
<!DOCTYPE svg PUBLIC "-//W3C//DTD SVG 1.1//EN"
 "http://www.w3.org/Graphics/SVG/1.1/DTD/svg11.dtd">
<!-- Generated by graphviz version 2.38.0 (20140413.2041)
 -->
<!-- Title: addBatch Pages: 1 -->
<svg width="987pt" height="100pt"
 viewBox="0.00 0.00 987.00 99.50" xmlns="http://www.w3.org/2000/svg" xmlns:xlink="http://www.w3.org/1999/xlink">
<g id="graph0" class="graph" transform="scale(1 1) rotate(0) translate(4 95.5)">
<title>addBatch</title>
<polygon fill="white" stroke="none" points="-4,4 -4,-95.5 983,-95.5 983,4 -4,4"/>
<!-- Node1 -->
<g id="node1" class="node"><title>Node1</title>
<polygon fill="#bfbfbf" stroke="black" points="0,-33 0,-52 62,-52 62,-33 0,-33"/>
<text text-anchor="middle" x="31" y="-40" font-family="Helvetica,sans-Serif" font-size="10.00">addBatch</text>
</g>
<!-- Node2 -->
<g id="node2" class="node"><title>Node2</title>
<g id="a_node2"><a xlink:href="classcom_1_1tomoparts_1_1tomoBay_1_1presenters_1_1presenterActions_1_1concreteActions_1_1GenerateRoyalMailCSV.html#ac34b9d298f534dd3494b5f2e050398f0" target="_top" xlink:title="use the information provided to create a CSV file that the frontend can access. ">
<polygon fill="white" stroke="black" points="98,-50 98,-91 340,-91 340,-50 98,-50"/>
<text text-anchor="start" x="106" y="-79" font-family="Helvetica,sans-Serif" font-size="10.00">com.tomoparts.tomoBay.presenters.presenter</text>
<text text-anchor="start" x="106" y="-68" font-family="Helvetica,sans-Serif" font-size="10.00">Actions.concreteActions.GenerateRoyalMail</text>
<text text-anchor="middle" x="219" y="-57" font-family="Helvetica,sans-Serif" font-size="10.00">CSV.createCSV</text>
</a>
</g>
</g>
<!-- Node1&#45;&gt;Node2 -->
<g id="edge1" class="edge"><title>Node1&#45;&gt;Node2</title>
<path fill="none" stroke="midnightblue" d="M72.2094,-48.553C80.1061,-49.7418 88.7621,-51.0448 97.7934,-52.4044"/>
<polygon fill="midnightblue" stroke="midnightblue" points="72.7077,-45.0887 62.2981,-47.061 71.6656,-52.0107 72.7077,-45.0887"/>
</g>
<!-- Node5 -->
<g id="node5" class="node"><title>Node5</title>
<g id="a_node5"><a xlink:href="classcom_1_1tomoparts_1_1tomoBay_1_1test_1_1unit_1_1model_1_1royalMail_1_1RoyalMailCSVGeneratorTest.html#ab20cdf6276354c2559f9b53283174733" target="_top" xlink:title="com.tomoparts.tomoBay.test.unit.model.royal\lMail.RoyalMailCSVGeneratorTest.testAddBatch">
<polygon fill="white" stroke="black" points="99,-0.5 99,-30.5 339,-30.5 339,-0.5 99,-0.5"/>
<text text-anchor="start" x="107" y="-18.5" font-family="Helvetica,sans-Serif" font-size="10.00">com.tomoparts.tomoBay.test.unit.model.royal</text>
<text text-anchor="middle" x="219" y="-7.5" font-family="Helvetica,sans-Serif" font-size="10.00">Mail.RoyalMailCSVGeneratorTest.testAddBatch</text>
</a>
</g>
</g>
<!-- Node1&#45;&gt;Node5 -->
<g id="edge4" class="edge"><title>Node1&#45;&gt;Node5</title>
<path fill="none" stroke="midnightblue" d="M72.4119,-36.6338C85.0318,-34.8018 99.5761,-32.6906 114.486,-30.5263"/>
<polygon fill="midnightblue" stroke="midnightblue" points="71.6915,-33.2016 62.2981,-38.1019 72.6972,-40.1289 71.6915,-33.2016"/>
</g>
<!-- Node3 -->
<g id="node3" class="node"><title>Node3</title>
<g id="a_node3"><a xlink:href="classcom_1_1tomoparts_1_1tomoBay_1_1presenters_1_1presenterActions_1_1concreteActions_1_1GenerateRoyalMailCSV.html#adb3dedf31dc2c7fc796f20406c235ccd" target="_top" xlink:title="performs the action specified ">
<polygon fill="white" stroke="black" points="376,-50 376,-91 618,-91 618,-50 376,-50"/>
<text text-anchor="start" x="384" y="-79" font-family="Helvetica,sans-Serif" font-size="10.00">com.tomoparts.tomoBay.presenters.presenter</text>
<text text-anchor="start" x="384" y="-68" font-family="Helvetica,sans-Serif" font-size="10.00">Actions.concreteActions.GenerateRoyalMail</text>
<text text-anchor="middle" x="497" y="-57" font-family="Helvetica,sans-Serif" font-size="10.00">CSV.execute</text>
</a>
</g>
</g>
<!-- Node2&#45;&gt;Node3 -->
<g id="edge2" class="edge"><title>Node2&#45;&gt;Node3</title>
<path fill="none" stroke="midnightblue" d="M350.494,-70.5C358.91,-70.5 367.364,-70.5 375.73,-70.5"/>
<polygon fill="midnightblue" stroke="midnightblue" points="350.255,-67.0001 340.255,-70.5 350.255,-74.0001 350.255,-67.0001"/>
</g>
<!-- Node4 -->
<g id="node4" class="node"><title>Node4</title>
<g id="a_node4"><a xlink:href="classcom_1_1tomoparts_1_1tomoBay_1_1test_1_1unit_1_1presenters_1_1presenterActions_1_1concreteAcc52dba77005ac44eb6c856e3f1436b78.html#a1b260e6772d2ced79e03e1c8c5acd12b" target="_top" xlink:title="com.tomoparts.tomoBay.test.unit.presenters.presenter\lActions.concreteActions.GenerateRoyalMailCSVTest.testExecute">
<polygon fill="white" stroke="black" points="654,-55.5 654,-85.5 979,-85.5 979,-55.5 654,-55.5"/>
<text text-anchor="start" x="662" y="-73.5" font-family="Helvetica,sans-Serif" font-size="10.00">com.tomoparts.tomoBay.test.unit.presenters.presenter</text>
<text text-anchor="middle" x="816.5" y="-62.5" font-family="Helvetica,sans-Serif" font-size="10.00">Actions.concreteActions.GenerateRoyalMailCSVTest.testExecute</text>
</a>
</g>
</g>
<!-- Node3&#45;&gt;Node4 -->
<g id="edge3" class="edge"><title>Node3&#45;&gt;Node4</title>
<path fill="none" stroke="midnightblue" d="M628.305,-70.5C636.777,-70.5 645.361,-70.5 653.956,-70.5"/>
<polygon fill="midnightblue" stroke="midnightblue" points="628.033,-67.0001 618.033,-70.5 628.033,-74.0001 628.033,-67.0001"/>
</g>
</g>
</svg>
