<?xml version="1.0" encoding="UTF-8" standalone="no"?>
<!DOCTYPE svg PUBLIC "-//W3C//DTD SVG 1.1//EN"
 "http://www.w3.org/Graphics/SVG/1.1/DTD/svg11.dtd">
<!-- Generated by graphviz version 2.38.0 (20140413.2041)
 -->
<!-- Title: buildMailServerSendConnection Pages: 1 -->
<svg width="1311pt" height="173pt"
 viewBox="0.00 0.00 1311.00 173.00" xmlns="http://www.w3.org/2000/svg" xmlns:xlink="http://www.w3.org/1999/xlink">
<g id="graph0" class="graph" transform="scale(1 1) rotate(0) translate(4 169)">
<title>buildMailServerSendConnection</title>
<polygon fill="white" stroke="none" points="-4,4 -4,-169 1307,-169 1307,4 -4,4"/>
<!-- Node1 -->
<g id="node1" class="node"><title>Node1</title>
<polygon fill="#bfbfbf" stroke="black" points="0,-83 0,-102 168,-102 168,-83 0,-83"/>
<text text-anchor="middle" x="84" y="-90" font-family="Helvetica,sans-Serif" font-size="10.00">buildMailServerSendConnection</text>
</g>
<!-- Node2 -->
<g id="node2" class="node"><title>Node2</title>
<g id="a_node2"><a xlink:href="classcom_1_1tomoparts_1_1tomoBay_1_1model_1_1net_1_1email_1_1AbstractEmailBuilder.html#ad89a16fc77d6151bb8b3e2be7825a0ad" target="_top" xlink:title="default constructor ">
<polygon fill="white" stroke="black" points="256.5,-105 256.5,-124 372.5,-124 372.5,-105 256.5,-105"/>
<text text-anchor="middle" x="314.5" y="-112" font-family="Helvetica,sans-Serif" font-size="10.00">AbstractEmailBuilder</text>
</a>
</g>
</g>
<!-- Node1&#45;&gt;Node2 -->
<g id="edge1" class="edge"><title>Node1&#45;&gt;Node2</title>
<path fill="none" stroke="midnightblue" d="M178.216,-101.475C204.738,-104.028 232.827,-106.733 256.496,-109.012"/>
<polygon fill="midnightblue" stroke="midnightblue" points="178.43,-97.9793 168.14,-100.505 177.759,-104.947 178.43,-97.9793"/>
</g>
<!-- Node3 -->
<g id="node3" class="node"><title>Node3</title>
<g id="a_node3"><a xlink:href="classcom_1_1tomoparts_1_1tomoBay_1_1model_1_1net_1_1email_1_1EmailDirector.html#adf12228c8c87e1262bbaf8b71fb856fc" target="_top" xlink:title="initialises the email and server objects ready to be retrieved by the get methods. ">
<polygon fill="white" stroke="black" points="204,-55.5 204,-85.5 425,-85.5 425,-55.5 204,-55.5"/>
<text text-anchor="start" x="212" y="-73.5" font-family="Helvetica,sans-Serif" font-size="10.00">com.tomoparts.tomoBay.model.net.email.</text>
<text text-anchor="middle" x="314.5" y="-62.5" font-family="Helvetica,sans-Serif" font-size="10.00">EmailDirector.constructEmailAndServer</text>
</a>
</g>
</g>
<!-- Node1&#45;&gt;Node3 -->
<g id="edge2" class="edge"><title>Node1&#45;&gt;Node3</title>
<path fill="none" stroke="midnightblue" d="M178.313,-83.5158C186.728,-82.7056 195.3,-81.8803 203.837,-81.0584"/>
<polygon fill="midnightblue" stroke="midnightblue" points="177.759,-80.0529 168.14,-84.4953 178.43,-87.0207 177.759,-80.0529"/>
</g>
<!-- Node4 -->
<g id="node4" class="node"><title>Node4</title>
<g id="a_node4"><a xlink:href="classcom_1_1tomoparts_1_1tomoBay_1_1model_1_1net_1_1email_1_1MailClient.html#af9eddf4b6d3506f30b2f282c86c59ed6" target="_top" xlink:title="sends an email containing a message and subject. ">
<polygon fill="white" stroke="black" points="482.5,-110.5 482.5,-140.5 703.5,-140.5 703.5,-110.5 482.5,-110.5"/>
<text text-anchor="start" x="490.5" y="-128.5" font-family="Helvetica,sans-Serif" font-size="10.00">com.tomoparts.tomoBay.model.net.email.</text>
<text text-anchor="middle" x="593" y="-117.5" font-family="Helvetica,sans-Serif" font-size="10.00">MailClient.send</text>
</a>
</g>
</g>
<!-- Node3&#45;&gt;Node4 -->
<g id="edge3" class="edge"><title>Node3&#45;&gt;Node4</title>
<path fill="none" stroke="midnightblue" d="M397.302,-87.5873C418.068,-91.8643 440.346,-96.4002 461,-100.5 477.579,-103.791 495.354,-107.238 512.296,-110.484"/>
<polygon fill="midnightblue" stroke="midnightblue" points="397.744,-84.1049 387.243,-85.5116 396.33,-90.9604 397.744,-84.1049"/>
</g>
<!-- Node8 -->
<g id="node8" class="node"><title>Node8</title>
<g id="a_node8"><a xlink:href="classcom_1_1tomoparts_1_1tomoBay_1_1model_1_1services_1_1emailErrorsService_1_1EmailErrorsMailActions.html#ac25d519c7ee7b6a51c445abba35389e5" target="_top" xlink:title="default ctor ">
<polygon fill="white" stroke="black" points="472,-50 472,-91 714,-91 714,-50 472,-50"/>
<text text-anchor="start" x="480" y="-79" font-family="Helvetica,sans-Serif" font-size="10.00">com.tomoparts.tomoBay.model.services.email</text>
<text text-anchor="start" x="480" y="-68" font-family="Helvetica,sans-Serif" font-size="10.00">ErrorsService.EmailErrorsMailActions.Email</text>
<text text-anchor="middle" x="593" y="-57" font-family="Helvetica,sans-Serif" font-size="10.00">ErrorsMailActions</text>
</a>
</g>
</g>
<!-- Node3&#45;&gt;Node8 -->
<g id="edge7" class="edge"><title>Node3&#45;&gt;Node8</title>
<path fill="none" stroke="midnightblue" d="M435.332,-70.5C447.486,-70.5 459.832,-70.5 471.987,-70.5"/>
<polygon fill="midnightblue" stroke="midnightblue" points="435.177,-67.0001 425.177,-70.5 435.177,-74.0001 435.177,-67.0001"/>
</g>
<!-- Node9 -->
<g id="node9" class="node"><title>Node9</title>
<g id="a_node9"><a xlink:href="classcom_1_1tomoparts_1_1tomoBay_1_1test_1_1unit_1_1model_1_1net_1_1email_1_1EmailTest.html#a8b260eecbaabcef8473fd87ada040682" target="_top" xlink:title="com.tomoparts.tomoBay.test.unit.model.net.email.\lEmailTest.main">
<polygon fill="white" stroke="black" points="461,-0.5 461,-30.5 725,-30.5 725,-0.5 461,-0.5"/>
<text text-anchor="start" x="469" y="-18.5" font-family="Helvetica,sans-Serif" font-size="10.00">com.tomoparts.tomoBay.test.unit.model.net.email.</text>
<text text-anchor="middle" x="593" y="-7.5" font-family="Helvetica,sans-Serif" font-size="10.00">EmailTest.main</text>
</a>
</g>
</g>
<!-- Node3&#45;&gt;Node9 -->
<g id="edge8" class="edge"><title>Node3&#45;&gt;Node9</title>
<path fill="none" stroke="midnightblue" d="M397.302,-53.4127C418.068,-49.1357 440.346,-44.5998 461,-40.5 477.579,-37.2091 495.354,-33.7622 512.296,-30.5159"/>
<polygon fill="midnightblue" stroke="midnightblue" points="396.33,-50.0396 387.243,-55.4884 397.744,-56.8951 396.33,-50.0396"/>
</g>
<!-- Node5 -->
<g id="node5" class="node"><title>Node5</title>
<g id="a_node5"><a xlink:href="classcom_1_1tomoparts_1_1tomoBay_1_1model_1_1net_1_1email_1_1MailClient.html#a9a353e90e57af1d4968845017c4d6fa8" target="_top" xlink:title="com.tomoparts.tomoBay.model.net.email.\lMailClient.MailClient">
<polygon fill="white" stroke="black" points="782.5,-134.5 782.5,-164.5 1003.5,-164.5 1003.5,-134.5 782.5,-134.5"/>
<text text-anchor="start" x="790.5" y="-152.5" font-family="Helvetica,sans-Serif" font-size="10.00">com.tomoparts.tomoBay.model.net.email.</text>
<text text-anchor="middle" x="893" y="-141.5" font-family="Helvetica,sans-Serif" font-size="10.00">MailClient.MailClient</text>
</a>
</g>
</g>
<!-- Node4&#45;&gt;Node5 -->
<g id="edge4" class="edge"><title>Node4&#45;&gt;Node5</title>
<path fill="none" stroke="midnightblue" d="M713.958,-135.161C736.453,-136.973 759.867,-138.858 782.039,-140.644"/>
<polygon fill="midnightblue" stroke="midnightblue" points="713.943,-131.649 703.695,-134.334 713.381,-138.626 713.943,-131.649"/>
</g>
<!-- Node6 -->
<g id="node6" class="node"><title>Node6</title>
<g id="a_node6"><a xlink:href="classcom_1_1tomoparts_1_1tomoBay_1_1presenters_1_1presenterActions_1_1concreteActions_1_1InvoiceOrders.html#a9c77c827472e4f09aa020d55e7d33b10" target="_top" xlink:title="com.tomoparts.tomoBay.presenters.presenter\lActions.concreteActions.InvoiceOrders.emailResults">
<polygon fill="white" stroke="black" points="761,-85.5 761,-115.5 1025,-115.5 1025,-85.5 761,-85.5"/>
<text text-anchor="start" x="769" y="-103.5" font-family="Helvetica,sans-Serif" font-size="10.00">com.tomoparts.tomoBay.presenters.presenter</text>
<text text-anchor="middle" x="893" y="-92.5" font-family="Helvetica,sans-Serif" font-size="10.00">Actions.concreteActions.InvoiceOrders.emailResults</text>
</a>
</g>
</g>
<!-- Node4&#45;&gt;Node6 -->
<g id="edge5" class="edge"><title>Node4&#45;&gt;Node6</title>
<path fill="none" stroke="midnightblue" d="M713.792,-115.45C729.265,-114.152 745.174,-112.818 760.819,-111.505"/>
<polygon fill="midnightblue" stroke="midnightblue" points="713.367,-111.974 703.695,-116.297 713.952,-118.949 713.367,-111.974"/>
</g>
<!-- Node7 -->
<g id="node7" class="node"><title>Node7</title>
<g id="a_node7"><a xlink:href="classcom_1_1tomoparts_1_1tomoBay_1_1presenters_1_1presenterActions_1_1concreteActions_1_1InvoiceOrders.html#adb3dedf31dc2c7fc796f20406c235ccd" target="_top" xlink:title="performs the action specified ">
<polygon fill="white" stroke="black" points="1061,-85.5 1061,-115.5 1303,-115.5 1303,-85.5 1061,-85.5"/>
<text text-anchor="start" x="1069" y="-103.5" font-family="Helvetica,sans-Serif" font-size="10.00">com.tomoparts.tomoBay.presenters.presenter</text>
<text text-anchor="middle" x="1182" y="-92.5" font-family="Helvetica,sans-Serif" font-size="10.00">Actions.concreteActions.InvoiceOrders.execute</text>
</a>
</g>
</g>
<!-- Node6&#45;&gt;Node7 -->
<g id="edge6" class="edge"><title>Node6&#45;&gt;Node7</title>
<path fill="none" stroke="midnightblue" d="M1035.58,-100.5C1044,-100.5 1052.43,-100.5 1060.75,-100.5"/>
<polygon fill="midnightblue" stroke="midnightblue" points="1035.32,-97.0001 1025.32,-100.5 1035.32,-104 1035.32,-97.0001"/>
</g>
</g>
</svg>
