<?xml version="1.0" encoding="UTF-8" standalone="no"?>
<!DOCTYPE svg PUBLIC "-//W3C//DTD SVG 1.1//EN"
 "http://www.w3.org/Graphics/SVG/1.1/DTD/svg11.dtd">
<!-- Generated by graphviz version 2.38.0 (20140413.2041)
 -->
<!-- Title: OnRunning Pages: 1 -->
<svg width="196pt" height="182pt"
 viewBox="0.00 0.00 195.50 182.00" xmlns="http://www.w3.org/2000/svg" xmlns:xlink="http://www.w3.org/1999/xlink">
<g id="graph0" class="graph" transform="scale(1 1) rotate(0) translate(4 178)">
<title>OnRunning</title>
<polygon fill="white" stroke="none" points="-4,4 -4,-178 191.5,-178 191.5,4 -4,4"/>
<!-- Node1 -->
<g id="node1" class="node"><title>Node1</title>
<polygon fill="#bfbfbf" stroke="black" points="67,-0.5 67,-68.5 154,-68.5 154,-0.5 67,-0.5"/>
<text text-anchor="middle" x="110.5" y="-56.5" font-family="Helvetica,sans-Serif" font-size="10.00">OnRunning</text>
<polyline fill="none" stroke="black" points="67,-49.5 154,-49.5 "/>
<text text-anchor="middle" x="110.5" y="-37.5" font-family="Helvetica,sans-Serif" font-size="10.00"> </text>
<polyline fill="none" stroke="black" points="67,-30.5 154,-30.5 "/>
<text text-anchor="start" x="75" y="-18.5" font-family="Helvetica,sans-Serif" font-size="10.00">+ OnRunning()</text>
<text text-anchor="start" x="75" y="-7.5" font-family="Helvetica,sans-Serif" font-size="10.00">+ execute()</text>
</g>
<!-- Node2 -->
<g id="node2" class="node"><title>Node2</title>
<g id="a_node2"><a xlink:href="interfacecom_1_1tomoparts_1_1tomoBay_1_1model_1_1services_1_1AbstractServiceState.html" target="_top" xlink:title="Copyright(C) 2015 Jan P.C. ">
<polygon fill="white" stroke="black" points="0,-116.5 0,-173.5 119,-173.5 119,-116.5 0,-116.5"/>
<text text-anchor="middle" x="59.5" y="-161.5" font-family="Helvetica,sans-Serif" font-size="10.00">AbstractServiceState</text>
<polyline fill="none" stroke="black" points="0,-154.5 119,-154.5 "/>
<text text-anchor="middle" x="59.5" y="-142.5" font-family="Helvetica,sans-Serif" font-size="10.00"> </text>
<polyline fill="none" stroke="black" points="0,-135.5 119,-135.5 "/>
<text text-anchor="start" x="8" y="-123.5" font-family="Helvetica,sans-Serif" font-size="10.00">+ execute()</text>
</a>
</g>
</g>
<!-- Node2&#45;&gt;Node1 -->
<g id="edge1" class="edge"><title>Node2&#45;&gt;Node1</title>
<path fill="none" stroke="midnightblue" d="M76.8474,-107.094C82.7266,-94.5865 89.252,-80.7041 94.9798,-68.5186"/>
<polygon fill="none" stroke="midnightblue" points="73.5879,-105.801 72.5014,-116.34 79.923,-108.779 73.5879,-105.801"/>
</g>
<!-- Node3 -->
<g id="node3" class="node"><title>Node3</title>
<polygon fill="white" stroke="#bfbfbf" points="137.5,-116.5 137.5,-173.5 187.5,-173.5 187.5,-116.5 137.5,-116.5"/>
<text text-anchor="middle" x="162.5" y="-161.5" font-family="Helvetica,sans-Serif" font-size="10.00">Logger</text>
<polyline fill="none" stroke="#bfbfbf" points="137.5,-154.5 187.5,-154.5 "/>
<text text-anchor="middle" x="162.5" y="-142.5" font-family="Helvetica,sans-Serif" font-size="10.00"> </text>
<polyline fill="none" stroke="#bfbfbf" points="137.5,-135.5 187.5,-135.5 "/>
<text text-anchor="middle" x="162.5" y="-123.5" font-family="Helvetica,sans-Serif" font-size="10.00"> </text>
</g>
<!-- Node3&#45;&gt;Node1 -->
<g id="edge2" class="edge"><title>Node3&#45;&gt;Node1</title>
<path fill="none" stroke="#404040" d="M149.244,-116.34C143.899,-105.188 137.599,-92.0441 131.651,-79.6327"/>
<polygon fill="none" stroke="#404040" points="131.511,-79.3399 125.311,-75.658 126.325,-68.5186 132.525,-72.2005 131.511,-79.3399"/>
<text text-anchor="middle" x="151.5" y="-90" font-family="Helvetica,sans-Serif" font-size="10.00"> &#45;log</text>
</g>
</g>
</svg>
