<?xml version="1.0" encoding="UTF-8" standalone="no"?>
<!DOCTYPE svg PUBLIC "-//W3C//DTD SVG 1.1//EN"
 "http://www.w3.org/Graphics/SVG/1.1/DTD/svg11.dtd">
<!-- Generated by graphviz version 2.38.0 (20140413.2041)
 -->
<!-- Title: Part Pages: 1 -->
<!--zoomable 186 -->
<svg id="main" version="1.1" xmlns="http://www.w3.org/2000/svg" xmlns:xlink="http://www.w3.org/1999/xlink" xml:space="preserve" onload="init(evt)">
<style type="text/css"><![CDATA[
.edge:hover path { stroke: red; }
.edge:hover polygon { stroke: red; fill: red; }
]]></style>
<script type="text/javascript"><![CDATA[
var edges = document.getElementsByTagName('g');
if (edges && edges.length) {
  for (var i=0;i<edges.length;i++) {
    if (edges[i].id.substr(0,4)=='edge') {
      edges[i].setAttribute('class','edge');
    }
  }
}
]]></script>
        <defs>
                <circle id="rim" cx="0" cy="0" r="7"/>
                <circle id="rim2" cx="0" cy="0" r="3.5"/>
                <g id="zoomPlus">
                        <use xlink:href="#rim" fill="#404040">
                                <set attributeName="fill" to="#808080" begin="zoomplus.mouseover" end="zoomplus.mouseout"/>
                        </use>
                        <path d="M-4,0h8M0,-4v8" fill="none" stroke="white" stroke-width="1.5" pointer-events="none"/>
                </g>
                <g id="zoomMin">
                        <use xlink:href="#rim" fill="#404040">
                                <set attributeName="fill" to="#808080" begin="zoomminus.mouseover" end="zoomminus.mouseout"/>
                        </use>
                        <path d="M-4,0h8" fill="none" stroke="white" stroke-width="1.5" pointer-events="none"/>
                </g>
                <g id="dirArrow">
                        <path fill="none" stroke="white" stroke-width="1.5" d="M0,-3.0v7 M-2.5,-0.5L0,-3.0L2.5,-0.5"/>
                </g>
               <g id="resetDef">
                       <use xlink:href="#rim2" fill="#404040">
                               <set attributeName="fill" to="#808080" begin="reset.mouseover" end="reset.mouseout"/>
                       </use>
               </g>
        </defs>

<script type="text/javascript">
var viewWidth = 900;
var viewHeight = 186;
var sectionId = 'dynsection-1';
</script>
<script xlink:href="svgpan.js"/>
<svg id="graph" class="graph">
<g id="viewport">
<title>Part</title>
<polygon fill="white" stroke="none" points="-4,4 -4,-182 896,-182 896,4 -4,4"/>
<!-- Node1 -->
<g id="node1" class="node"><title>Node1</title>
<polygon fill="#bfbfbf" stroke="black" points="0,-49 0,-68 36,-68 36,-49 0,-49"/>
<text text-anchor="middle" x="18" y="-56" font-family="Helvetica,sans-Serif" font-size="10.00">Part</text>
</g>
<!-- Node2 -->
<g id="node2" class="node"><title>Node2</title>
<g id="a_node2"><a xlink:href="classcom_1_1tomoparts_1_1tomoBay_1_1model_1_1dataTypes_1_1order_1_1Part.html#aee50f745ad12c48b5f2dc8eda4fdd6ec" target="_top" xlink:title="retrieve the cost of this particular part from winstock ">
<polygon fill="white" stroke="black" points="88,-30 88,-49 142,-49 142,-30 88,-30"/>
<text text-anchor="middle" x="115" y="-37" font-family="Helvetica,sans-Serif" font-size="10.00">getCost</text>
</a>
</g>
</g>
<!-- Node1&#45;&gt;Node2 -->
<g id="edge1" class="edge"><title>Node1&#45;&gt;Node2</title>
<path fill="none" stroke="midnightblue" d="M36.4245,-55.0151C47.9763,-52.7047 63.5596,-49.5881 77.7289,-46.7542"/>
<polygon fill="midnightblue" stroke="midnightblue" points="78.5991,-50.1496 87.7185,-44.7563 77.2263,-43.2855 78.5991,-50.1496"/>
</g>
<!-- Node10 -->
<g id="node10" class="node"><title>Node10</title>
<g id="a_node10"><a xlink:href="classcom_1_1tomoparts_1_1tomoBay_1_1model_1_1dataTypes_1_1order_1_1Part.html#a35fa0786da9722faf378ccf27cccbea6" target="_top" xlink:title="find the description of this part, using winstock ">
<polygon fill="white" stroke="black" points="72,-68 72,-87 158,-87 158,-68 72,-68"/>
<text text-anchor="middle" x="115" y="-75" font-family="Helvetica,sans-Serif" font-size="10.00">getDescription</text>
</a>
</g>
</g>
<!-- Node1&#45;&gt;Node10 -->
<g id="edge9" class="edge"><title>Node1&#45;&gt;Node10</title>
<path fill="none" stroke="midnightblue" d="M36.4245,-61.9849C43.7412,-63.4482 52.6753,-65.2351 61.8431,-67.0686"/>
<polygon fill="midnightblue" stroke="midnightblue" points="61.3251,-70.5343 71.8173,-69.0635 62.6979,-63.6702 61.3251,-70.5343"/>
</g>
<!-- Node3 -->
<g id="node3" class="node"><title>Node3</title>
<g id="a_node3"><a xlink:href="classcom_1_1tomoparts_1_1tomoBay_1_1model_1_1winstock_1_1Stock.html#a5171bbe1448b8e4840e617ffd75cc261" target="_top" xlink:title="query winstock for the last cost price of a particular part. ">
<polygon fill="white" stroke="black" points="194,-49.5 194,-79.5 411,-79.5 411,-49.5 194,-49.5"/>
<text text-anchor="start" x="202" y="-67.5" font-family="Helvetica,sans-Serif" font-size="10.00">com.tomoparts.tomoBay.model.winstock.</text>
<text text-anchor="middle" x="302.5" y="-56.5" font-family="Helvetica,sans-Serif" font-size="10.00">Stock.requestLastCost</text>
</a>
</g>
</g>
<!-- Node2&#45;&gt;Node3 -->
<g id="edge2" class="edge"><title>Node2&#45;&gt;Node3</title>
<path fill="none" stroke="midnightblue" d="M142.184,-43.0289C153.735,-44.5856 168.198,-46.5348 183.668,-48.6196"/>
<polygon fill="midnightblue" stroke="midnightblue" points="183.58,-52.1394 193.958,-50.0065 184.515,-45.2021 183.58,-52.1394"/>
</g>
<!-- Node8 -->
<g id="node8" class="node"><title>Node8</title>
<g id="a_node8"><a xlink:href="classcom_1_1tomoparts_1_1tomoBay_1_1helpers_1_1BrandToCode.html#a10207714bd294d73dd98b80fd94a2ab8" target="_top" xlink:title="converts converts a string like &quot;citroen&quot; or &quot;fOrd&quot; to a brandcode integer specific to winstock...">
<polygon fill="white" stroke="black" points="210,-0.5 210,-30.5 395,-30.5 395,-0.5 210,-0.5"/>
<text text-anchor="start" x="218" y="-18.5" font-family="Helvetica,sans-Serif" font-size="10.00">com.tomoparts.tomoBay.helpers.</text>
<text text-anchor="middle" x="302.5" y="-7.5" font-family="Helvetica,sans-Serif" font-size="10.00">BrandToCode.convertToWinstockInt</text>
</a>
</g>
</g>
<!-- Node2&#45;&gt;Node8 -->
<g id="edge7" class="edge"><title>Node2&#45;&gt;Node8</title>
<path fill="none" stroke="midnightblue" d="M142.184,-36.1123C157.617,-34.1156 178.246,-31.4466 199.529,-28.693"/>
<polygon fill="midnightblue" stroke="midnightblue" points="200.204,-32.1349 209.672,-27.3807 199.306,-25.1928 200.204,-32.1349"/>
</g>
<!-- Node4 -->
<g id="node4" class="node"><title>Node4</title>
<g id="a_node4"><a xlink:href="classcom_1_1tomoparts_1_1tomoBay_1_1model_1_1winstock_1_1Stock.html#a82b5421e7d3a2ba82bdc5d54b09a8069" target="_top" xlink:title="com.tomoparts.tomoBay.model.winstock.\lStock.queryWinstockURL">
<polygon fill="white" stroke="black" points="447,-147.5 447,-177.5 664,-177.5 664,-147.5 447,-147.5"/>
<text text-anchor="start" x="455" y="-165.5" font-family="Helvetica,sans-Serif" font-size="10.00">com.tomoparts.tomoBay.model.winstock.</text>
<text text-anchor="middle" x="555.5" y="-154.5" font-family="Helvetica,sans-Serif" font-size="10.00">Stock.queryWinstockURL</text>
</a>
</g>
</g>
<!-- Node3&#45;&gt;Node4 -->
<g id="edge3" class="edge"><title>Node3&#45;&gt;Node4</title>
<path fill="none" stroke="midnightblue" d="M394.38,-79.6116C400.21,-82.137 405.812,-85.0774 411,-88.5 433.856,-103.58 424.144,-123.42 447,-138.5 449.432,-140.104 451.955,-141.603 454.549,-143.002"/>
<polygon fill="midnightblue" stroke="midnightblue" points="453.093,-146.186 463.62,-147.388 456.141,-139.884 453.093,-146.186"/>
</g>
<!-- Node5 -->
<g id="node5" class="node"><title>Node5</title>
<g id="a_node5"><a xlink:href="classcom_1_1tomoparts_1_1tomoBay_1_1model_1_1winstock_1_1Stock.html#a42fa652d82ed49749a0ad929a6c798d0" target="_top" xlink:title="remove the header bumpf from the bottom of the response ">
<polygon fill="white" stroke="black" points="447,-98.5 447,-128.5 664,-128.5 664,-98.5 447,-98.5"/>
<text text-anchor="start" x="455" y="-116.5" font-family="Helvetica,sans-Serif" font-size="10.00">com.tomoparts.tomoBay.model.winstock.</text>
<text text-anchor="middle" x="555.5" y="-105.5" font-family="Helvetica,sans-Serif" font-size="10.00">Stock.postFormatXMLString</text>
</a>
</g>
</g>
<!-- Node3&#45;&gt;Node5 -->
<g id="edge4" class="edge"><title>Node3&#45;&gt;Node5</title>
<path fill="none" stroke="midnightblue" d="M380.514,-79.5346C408.1,-84.92 439.38,-91.0264 467.735,-96.5618"/>
<polygon fill="midnightblue" stroke="midnightblue" points="467.146,-100.013 477.632,-98.4938 468.487,-93.1426 467.146,-100.013"/>
</g>
<!-- Node7 -->
<g id="node7" class="node"><title>Node7</title>
<g id="a_node7"><a xlink:href="classcom_1_1tomoparts_1_1tomoBay_1_1helpers_1_1XMLParser.html#a9936151017dd4e908cf37d453b22c8ef" target="_top" xlink:title="parses an XML formatted string looking for the first tag specified in the parameters. ">
<polygon fill="white" stroke="black" points="466,-49.5 466,-79.5 645,-79.5 645,-49.5 466,-49.5"/>
<text text-anchor="start" x="474" y="-67.5" font-family="Helvetica,sans-Serif" font-size="10.00">com.tomoparts.tomoBay.helpers.</text>
<text text-anchor="middle" x="555.5" y="-56.5" font-family="Helvetica,sans-Serif" font-size="10.00">XMLParser.parse</text>
</a>
</g>
</g>
<!-- Node3&#45;&gt;Node7 -->
<g id="edge6" class="edge"><title>Node3&#45;&gt;Node7</title>
<path fill="none" stroke="midnightblue" d="M411.039,-64.5C425.85,-64.5 441.002,-64.5 455.646,-64.5"/>
<polygon fill="midnightblue" stroke="midnightblue" points="455.693,-68.0001 465.693,-64.5 455.693,-61.0001 455.693,-68.0001"/>
</g>
<!-- Node6 -->
<g id="node6" class="node"><title>Node6</title>
<g id="a_node6"><a xlink:href="classcom_1_1tomoparts_1_1tomoBay_1_1model_1_1net_1_1HttpResponse.html#afb798c825935128953439404fb763997" target="_top" xlink:title="get the Response message ">
<polygon fill="white" stroke="black" points="700,-98.5 700,-128.5 892,-128.5 892,-98.5 700,-98.5"/>
<text text-anchor="start" x="708" y="-116.5" font-family="Helvetica,sans-Serif" font-size="10.00">com.tomoparts.tomoBay.model.net.</text>
<text text-anchor="middle" x="796" y="-105.5" font-family="Helvetica,sans-Serif" font-size="10.00">HttpResponse.getResponseMessage</text>
</a>
</g>
</g>
<!-- Node5&#45;&gt;Node6 -->
<g id="edge5" class="edge"><title>Node5&#45;&gt;Node6</title>
<path fill="none" stroke="midnightblue" d="M664.237,-113.5C672.662,-113.5 681.165,-113.5 689.574,-113.5"/>
<polygon fill="midnightblue" stroke="midnightblue" points="689.775,-117 699.775,-113.5 689.775,-110 689.775,-117"/>
</g>
<!-- Node9 -->
<g id="node9" class="node"><title>Node9</title>
<g id="a_node9"><a xlink:href="classcom_1_1tomoparts_1_1tomoBay_1_1helpers_1_1BrandToCode.html#a84072526fa5d5ce298cdceffc81f43e7" target="_top" xlink:title="converts a string like &quot;citroen&quot; or &quot;fOrd&quot; to a brandcode specific to winstock. ">
<polygon fill="white" stroke="black" points="466,-0.5 466,-30.5 645,-30.5 645,-0.5 466,-0.5"/>
<text text-anchor="start" x="474" y="-18.5" font-family="Helvetica,sans-Serif" font-size="10.00">com.tomoparts.tomoBay.helpers.</text>
<text text-anchor="middle" x="555.5" y="-7.5" font-family="Helvetica,sans-Serif" font-size="10.00">BrandToCode.convert</text>
</a>
</g>
</g>
<!-- Node8&#45;&gt;Node9 -->
<g id="edge8" class="edge"><title>Node8&#45;&gt;Node9</title>
<path fill="none" stroke="midnightblue" d="M395.182,-15.5C414.949,-15.5 435.926,-15.5 455.943,-15.5"/>
<polygon fill="midnightblue" stroke="midnightblue" points="455.996,-19.0001 465.996,-15.5 455.996,-12.0001 455.996,-19.0001"/>
</g>
<!-- Node10&#45;&gt;Node8 -->
<g id="edge14" class="edge"><title>Node10&#45;&gt;Node8</title>
<path fill="none" stroke="midnightblue" d="M137.916,-67.8885C144.419,-64.9553 151.531,-61.6668 158,-58.5 174.249,-50.5457 177.022,-45.7484 194,-39.5 200.006,-37.2896 206.279,-35.2469 212.647,-33.3659"/>
<polygon fill="midnightblue" stroke="midnightblue" points="214.025,-36.6146 222.706,-30.5422 212.133,-29.8751 214.025,-36.6146"/>
</g>
<!-- Node11 -->
<g id="node11" class="node"><title>Node11</title>
<g id="a_node11"><a xlink:href="classcom_1_1tomoparts_1_1tomoBay_1_1model_1_1winstock_1_1Stock.html#adaf6c34595911864279e31f375aeedd1" target="_top" xlink:title="query winstock for the description of a particular part. ">
<polygon fill="white" stroke="black" points="194,-98.5 194,-128.5 411,-128.5 411,-98.5 194,-98.5"/>
<text text-anchor="start" x="202" y="-116.5" font-family="Helvetica,sans-Serif" font-size="10.00">com.tomoparts.tomoBay.model.winstock.</text>
<text text-anchor="middle" x="302.5" y="-105.5" font-family="Helvetica,sans-Serif" font-size="10.00">Stock.requestDescription</text>
</a>
</g>
</g>
<!-- Node10&#45;&gt;Node11 -->
<g id="edge10" class="edge"><title>Node10&#45;&gt;Node11</title>
<path fill="none" stroke="midnightblue" d="M158.093,-85.669C174.827,-88.9166 194.736,-92.7802 214.312,-96.5794"/>
<polygon fill="midnightblue" stroke="midnightblue" points="213.706,-100.027 224.189,-98.4963 215.039,-93.1552 213.706,-100.027"/>
</g>
<!-- Node11&#45;&gt;Node4 -->
<g id="edge11" class="edge"><title>Node11&#45;&gt;Node4</title>
<path fill="none" stroke="midnightblue" d="M380.514,-128.535C408.1,-133.92 439.38,-140.026 467.735,-145.562"/>
<polygon fill="midnightblue" stroke="midnightblue" points="467.146,-149.013 477.632,-147.494 468.487,-142.143 467.146,-149.013"/>
</g>
<!-- Node11&#45;&gt;Node5 -->
<g id="edge12" class="edge"><title>Node11&#45;&gt;Node5</title>
<path fill="none" stroke="midnightblue" d="M411.039,-113.5C419.55,-113.5 428.175,-113.5 436.75,-113.5"/>
<polygon fill="midnightblue" stroke="midnightblue" points="436.785,-117 446.785,-113.5 436.785,-110 436.785,-117"/>
</g>
<!-- Node11&#45;&gt;Node7 -->
<g id="edge13" class="edge"><title>Node11&#45;&gt;Node7</title>
<path fill="none" stroke="midnightblue" d="M380.514,-98.4654C408.1,-93.08 439.38,-86.9736 467.735,-81.4382"/>
<polygon fill="midnightblue" stroke="midnightblue" points="468.487,-84.8574 477.632,-79.5062 467.146,-77.9871 468.487,-84.8574"/>
</g>
</g>
</svg>
        <g id="navigator" transform="translate(0 0)" fill="#404254">
                <rect fill="#f2f5e9" fill-opacity="0.5" stroke="#606060" stroke-width=".5" x="0" y="0" width="60" height="60"/>
                <use id="zoomplus" xlink:href="#zoomPlus" x="17" y="9" onmousedown="handleZoom(evt,'in')"/>
                <use id="zoomminus" xlink:href="#zoomMin" x="42" y="9" onmousedown="handleZoom(evt,'out')"/>
                <use id="reset" xlink:href="#resetDef" x="30" y="36" onmousedown="handleReset()"/>
                <g id="arrowUp" xlink:href="#dirArrow" transform="translate(30 24)" onmousedown="handlePan(0,-1)">
                  <use xlink:href="#rim" fill="#404040">
                        <set attributeName="fill" to="#808080" begin="arrowUp.mouseover" end="arrowUp.mouseout"/>
                  </use>
                  <path fill="none" stroke="white" stroke-width="1.5" d="M0,-3.0v7 M-2.5,-0.5L0,-3.0L2.5,-0.5"/>
                </g>
                <g id="arrowRight" xlink:href="#dirArrow" transform="rotate(90) translate(36 -43)" onmousedown="handlePan(1,0)">
                  <use xlink:href="#rim" fill="#404040">
                        <set attributeName="fill" to="#808080" begin="arrowRight.mouseover" end="arrowRight.mouseout"/>
                  </use>
                  <path fill="none" stroke="white" stroke-width="1.5" d="M0,-3.0v7 M-2.5,-0.5L0,-3.0L2.5,-0.5"/>
                </g>
                <g id="arrowDown" xlink:href="#dirArrow" transform="rotate(180) translate(-30 -48)" onmousedown="handlePan(0,1)">
                  <use xlink:href="#rim" fill="#404040">
                        <set attributeName="fill" to="#808080" begin="arrowDown.mouseover" end="arrowDown.mouseout"/>
                  </use>
                  <path fill="none" stroke="white" stroke-width="1.5" d="M0,-3.0v7 M-2.5,-0.5L0,-3.0L2.5,-0.5"/>
                </g>
                <g id="arrowLeft" xlink:href="#dirArrow" transform="rotate(270) translate(-36 17)" onmousedown="handlePan(-1,0)">
                  <use xlink:href="#rim" fill="#404040">
                        <set attributeName="fill" to="#808080" begin="arrowLeft.mouseover" end="arrowLeft.mouseout"/>
                  </use>
                  <path fill="none" stroke="white" stroke-width="1.5" d="M0,-3.0v7 M-2.5,-0.5L0,-3.0L2.5,-0.5"/>
                </g>
        </g>
        <svg viewBox="0 0 15 15" width="100%" height="30px" preserveAspectRatio="xMaxYMin meet">
         <g id="arrow_out" transform="scale(0.3 0.3)">
          <a xlink:href="classcom_1_1tomoparts_1_1tomoBay_1_1model_1_1dataTypes_1_1order_1_1Part_a21a16cfaa442e4ae57f10d8cc440c1fa_cgraph_org.svg" target="_base">
           <rect id="button" ry="5" rx="5" y="6" x="6" height="38" width="38"
                fill="#f2f5e9" fill-opacity="0.5" stroke="#606060" stroke-width="1.0"/>
           <path id="arrow"
             d="M 11.500037,31.436501 C 11.940474,20.09759 22.043105,11.32322 32.158766,21.979434 L 37.068811,17.246167 C 37.068811,17.246167 37.088388,32 37.088388,32 L 22.160133,31.978069 C 22.160133,31.978069 26.997745,27.140456 26.997745,27.140456 C 18.528582,18.264221 13.291696,25.230495 11.500037,31.436501 z"
             style="fill:#404040;"/>
          </a>
         </g>
        </svg>
</svg>
