<?xml version="1.0" encoding="UTF-8" standalone="no"?>
<!DOCTYPE svg PUBLIC "-//W3C//DTD SVG 1.1//EN"
 "http://www.w3.org/Graphics/SVG/1.1/DTD/svg11.dtd">
<!-- Generated by graphviz version 2.38.0 (20140413.2041)
 -->
<!-- Title: TransactionsTable Pages: 1 -->
<!--zoomable 299 -->
<svg id="main" version="1.1" xmlns="http://www.w3.org/2000/svg" xmlns:xlink="http://www.w3.org/1999/xlink" xml:space="preserve" onload="init(evt)">
<style type="text/css"><![CDATA[
.edge:hover path { stroke: red; }
.edge:hover polygon { stroke: red; fill: red; }
]]></style>
<script type="text/javascript"><![CDATA[
var edges = document.getElementsByTagName('g');
if (edges && edges.length) {
  for (var i=0;i<edges.length;i++) {
    if (edges[i].id.substr(0,4)=='edge') {
      edges[i].setAttribute('class','edge');
    }
  }
}
]]></script>
        <defs>
                <circle id="rim" cx="0" cy="0" r="7"/>
                <circle id="rim2" cx="0" cy="0" r="3.5"/>
                <g id="zoomPlus">
                        <use xlink:href="#rim" fill="#404040">
                                <set attributeName="fill" to="#808080" begin="zoomplus.mouseover" end="zoomplus.mouseout"/>
                        </use>
                        <path d="M-4,0h8M0,-4v8" fill="none" stroke="white" stroke-width="1.5" pointer-events="none"/>
                </g>
                <g id="zoomMin">
                        <use xlink:href="#rim" fill="#404040">
                                <set attributeName="fill" to="#808080" begin="zoomminus.mouseover" end="zoomminus.mouseout"/>
                        </use>
                        <path d="M-4,0h8" fill="none" stroke="white" stroke-width="1.5" pointer-events="none"/>
                </g>
                <g id="dirArrow">
                        <path fill="none" stroke="white" stroke-width="1.5" d="M0,-3.0v7 M-2.5,-0.5L0,-3.0L2.5,-0.5"/>
                </g>
               <g id="resetDef">
                       <use xlink:href="#rim2" fill="#404040">
                               <set attributeName="fill" to="#808080" begin="reset.mouseover" end="reset.mouseout"/>
                       </use>
               </g>
        </defs>

<script type="text/javascript">
var viewWidth = 631;
var viewHeight = 299;
var sectionId = 'dynsection-1';
</script>
<script xlink:href="svgpan.js"/>
<svg id="graph" class="graph">
<g id="viewport">
<title>TransactionsTable</title>
<polygon fill="white" stroke="none" points="-4,4 -4,-295 627,-295 627,4 -4,4"/>
<!-- Node1 -->
<g id="node1" class="node"><title>Node1</title>
<polygon fill="#bfbfbf" stroke="black" points="257,-0.5 257,-57.5 374,-57.5 374,-0.5 257,-0.5"/>
<text text-anchor="middle" x="315.5" y="-45.5" font-family="Helvetica,sans-Serif" font-size="10.00">TransactionsTable</text>
<polyline fill="none" stroke="black" points="257,-38.5 374,-38.5 "/>
<text text-anchor="middle" x="315.5" y="-26.5" font-family="Helvetica,sans-Serif" font-size="10.00"> </text>
<polyline fill="none" stroke="black" points="257,-19.5 374,-19.5 "/>
<text text-anchor="start" x="265" y="-7.5" font-family="Helvetica,sans-Serif" font-size="10.00">&#45; TransactionsTable()</text>
</g>
<!-- Node2 -->
<g id="node2" class="node"><title>Node2</title>
<g id="a_node2"><a xlink:href="interfacecom_1_1tomoparts_1_1tomoBay_1_1model_1_1dataTypes_1_1heteroTypeContainer_1_1AbstractTypeSchema.html" target="_top" xlink:title="Derived types of this class represent the schema for a specific database and should only contain publ...">
<polygon fill="white" stroke="black" points="0,-116.5 0,-173.5 119,-173.5 119,-116.5 0,-116.5"/>
<text text-anchor="middle" x="59.5" y="-161.5" font-family="Helvetica,sans-Serif" font-size="10.00">AbstractTypeSchema</text>
<polyline fill="none" stroke="black" points="0,-154.5 119,-154.5 "/>
<text text-anchor="middle" x="59.5" y="-142.5" font-family="Helvetica,sans-Serif" font-size="10.00"> </text>
<polyline fill="none" stroke="black" points="0,-135.5 119,-135.5 "/>
<text text-anchor="middle" x="59.5" y="-123.5" font-family="Helvetica,sans-Serif" font-size="10.00"> </text>
</a>
</g>
</g>
<!-- Node2&#45;&gt;Node1 -->
<g id="edge1" class="edge"><title>Node2&#45;&gt;Node1</title>
<path fill="none" stroke="midnightblue" d="M94.282,-109.445C108.039,-97.385 124.593,-84.7034 141.5,-76 177.616,-57.4087 221.921,-45.837 256.786,-38.9498"/>
<polygon fill="none" stroke="midnightblue" points="91.6075,-107.144 86.5238,-116.439 96.2947,-112.343 91.6075,-107.144"/>
</g>
<!-- Node3 -->
<g id="node3" class="node"><title>Node3</title>
<g id="a_node3"><a xlink:href="classcom_1_1tomoparts_1_1tomoBay_1_1model_1_1sql_1_1schema_1_1transactionsTable_1_1Quantity.html" target="_top" xlink:title="This class represents the quantity field of the ebay_transactions table in the database. ">
<polygon fill="white" stroke="black" points="233.5,-105.5 233.5,-184.5 309.5,-184.5 309.5,-105.5 233.5,-105.5"/>
<text text-anchor="middle" x="271.5" y="-172.5" font-family="Helvetica,sans-Serif" font-size="10.00">Quantity</text>
<polyline fill="none" stroke="black" points="233.5,-165.5 309.5,-165.5 "/>
<text text-anchor="start" x="241.5" y="-153.5" font-family="Helvetica,sans-Serif" font-size="10.00">&#45; size_M</text>
<polyline fill="none" stroke="black" points="233.5,-146.5 309.5,-146.5 "/>
<text text-anchor="start" x="241.5" y="-134.5" font-family="Helvetica,sans-Serif" font-size="10.00">+ Quantity()</text>
<text text-anchor="start" x="241.5" y="-123.5" font-family="Helvetica,sans-Serif" font-size="10.00">+ type()</text>
<text text-anchor="start" x="241.5" y="-112.5" font-family="Helvetica,sans-Serif" font-size="10.00">+ size()</text>
</a>
</g>
</g>
<!-- Node3&#45;&gt;Node1 -->
<g id="edge2" class="edge"><title>Node3&#45;&gt;Node1</title>
<path fill="none" stroke="#404040" d="M271.639,-105.291C272.703,-95.4618 274.755,-85.1108 278.5,-76 279.659,-73.1799 281.049,-70.394 282.599,-67.6725"/>
<polygon fill="none" stroke="#404040" points="282.651,-67.5931 282.596,-60.3822 289.232,-57.5583 289.286,-64.7692 282.651,-67.5931"/>
<text text-anchor="middle" x="308" y="-79" font-family="Helvetica,sans-Serif" font-size="10.00"> +QUANTITY</text>
</g>
<!-- Node4 -->
<g id="node4" class="node"><title>Node4</title>
<g id="a_node4"><a xlink:href="interfacecom_1_1tomoparts_1_1tomoBay_1_1model_1_1dataTypes_1_1heteroTypeContainer_1_1AbstractField.html" target="_top" xlink:title="This interface is the abstract base for all derived AbstractDBField types, and represents a a column ...">
<polygon fill="white" stroke="black" points="339,-222.5 339,-290.5 418,-290.5 418,-222.5 339,-222.5"/>
<text text-anchor="middle" x="378.5" y="-278.5" font-family="Helvetica,sans-Serif" font-size="10.00">AbstractField</text>
<polyline fill="none" stroke="black" points="339,-271.5 418,-271.5 "/>
<text text-anchor="middle" x="378.5" y="-259.5" font-family="Helvetica,sans-Serif" font-size="10.00"> </text>
<polyline fill="none" stroke="black" points="339,-252.5 418,-252.5 "/>
<text text-anchor="start" x="347" y="-240.5" font-family="Helvetica,sans-Serif" font-size="10.00">+ type()</text>
<text text-anchor="start" x="347" y="-229.5" font-family="Helvetica,sans-Serif" font-size="10.00">+ size()</text>
</a>
</g>
</g>
<!-- Node4&#45;&gt;Node1 -->
<g id="edge8" class="edge"><title>Node4&#45;&gt;Node1</title>
<path fill="none" stroke="#404040" d="M338.976,-255.408C288.92,-252.897 204.394,-240.146 164.5,-185 143.66,-156.192 145.767,-135.221 164.5,-105 182.345,-76.211 214.91,-58.1243 245.242,-46.9467"/>
<polygon fill="none" stroke="#404040" points="245.376,-46.9007 249.746,-41.1649 256.722,-42.9932 252.351,-48.729 245.376,-46.9007"/>
<text text-anchor="middle" x="194.5" y="-148" font-family="Helvetica,sans-Serif" font-size="10.00"> +ORDER_ID</text>
<text text-anchor="middle" x="194.5" y="-137" font-family="Helvetica,sans-Serif" font-size="10.00">+ITEM_ID</text>
</g>
<!-- Node4&#45;&gt;Node3 -->
<g id="edge3" class="edge"><title>Node4&#45;&gt;Node3</title>
<path fill="none" stroke="midnightblue" d="M338.888,-214.963C329.255,-205.105 318.977,-194.586 309.424,-184.81"/>
<polygon fill="none" stroke="midnightblue" points="336.614,-217.643 346.106,-222.349 341.62,-212.751 336.614,-217.643"/>
</g>
<!-- Node5 -->
<g id="node5" class="node"><title>Node5</title>
<g id="a_node5"><a xlink:href="classcom_1_1tomoparts_1_1tomoBay_1_1model_1_1sql_1_1schema_1_1transactionsTable_1_1TransactionID.html" target="_top" xlink:title="This class represents the transactionID field of the ebay_transactions table in the database...">
<polygon fill="white" stroke="black" points="328,-105.5 328,-184.5 429,-184.5 429,-105.5 328,-105.5"/>
<text text-anchor="middle" x="378.5" y="-172.5" font-family="Helvetica,sans-Serif" font-size="10.00">TransactionID</text>
<polyline fill="none" stroke="black" points="328,-165.5 429,-165.5 "/>
<text text-anchor="start" x="336" y="-153.5" font-family="Helvetica,sans-Serif" font-size="10.00">&#45; size_M</text>
<polyline fill="none" stroke="black" points="328,-146.5 429,-146.5 "/>
<text text-anchor="start" x="336" y="-134.5" font-family="Helvetica,sans-Serif" font-size="10.00">+ TransactionID()</text>
<text text-anchor="start" x="336" y="-123.5" font-family="Helvetica,sans-Serif" font-size="10.00">+ type()</text>
<text text-anchor="start" x="336" y="-112.5" font-family="Helvetica,sans-Serif" font-size="10.00">+ size()</text>
</a>
</g>
</g>
<!-- Node4&#45;&gt;Node5 -->
<g id="edge5" class="edge"><title>Node4&#45;&gt;Node5</title>
<path fill="none" stroke="midnightblue" d="M378.5,-212.339C378.5,-203.254 378.5,-193.724 378.5,-184.81"/>
<polygon fill="none" stroke="midnightblue" points="375,-212.349 378.5,-222.349 382,-212.349 375,-212.349"/>
</g>
<!-- Node6 -->
<g id="node6" class="node"><title>Node6</title>
<g id="a_node6"><a xlink:href="classcom_1_1tomoparts_1_1tomoBay_1_1model_1_1sql_1_1schema_1_1transactionsTable_1_1ShippingCost.html" target="_top" xlink:title="This class represents the shippingCost field of the ebay_transactions table in the database...">
<polygon fill="white" stroke="black" points="447.5,-105.5 447.5,-184.5 545.5,-184.5 545.5,-105.5 447.5,-105.5"/>
<text text-anchor="middle" x="496.5" y="-172.5" font-family="Helvetica,sans-Serif" font-size="10.00">ShippingCost</text>
<polyline fill="none" stroke="black" points="447.5,-165.5 545.5,-165.5 "/>
<text text-anchor="start" x="455.5" y="-153.5" font-family="Helvetica,sans-Serif" font-size="10.00">&#45; size_M</text>
<polyline fill="none" stroke="black" points="447.5,-146.5 545.5,-146.5 "/>
<text text-anchor="start" x="455.5" y="-134.5" font-family="Helvetica,sans-Serif" font-size="10.00">+ ShippingCost()</text>
<text text-anchor="start" x="455.5" y="-123.5" font-family="Helvetica,sans-Serif" font-size="10.00">+ type()</text>
<text text-anchor="start" x="455.5" y="-112.5" font-family="Helvetica,sans-Serif" font-size="10.00">+ size()</text>
</a>
</g>
</g>
<!-- Node4&#45;&gt;Node6 -->
<g id="edge7" class="edge"><title>Node4&#45;&gt;Node6</title>
<path fill="none" stroke="midnightblue" d="M421.56,-215.542C432.363,-205.517 443.936,-194.778 454.677,-184.81"/>
<polygon fill="none" stroke="midnightblue" points="419.174,-212.982 414.224,-222.349 423.935,-218.113 419.174,-212.982"/>
</g>
<!-- Node7 -->
<g id="node7" class="node"><title>Node7</title>
<g id="a_node7"><a xlink:href="classcom_1_1tomoparts_1_1tomoBay_1_1model_1_1sql_1_1schema_1_1transactionsTable_1_1Price.html" target="_top" xlink:title="This class represents the price field in the ebay_transactions table of the database. ">
<polygon fill="white" stroke="black" points="564,-105.5 564,-184.5 623,-184.5 623,-105.5 564,-105.5"/>
<text text-anchor="middle" x="593.5" y="-172.5" font-family="Helvetica,sans-Serif" font-size="10.00">Price</text>
<polyline fill="none" stroke="black" points="564,-165.5 623,-165.5 "/>
<text text-anchor="start" x="572" y="-153.5" font-family="Helvetica,sans-Serif" font-size="10.00">&#45; size_M</text>
<polyline fill="none" stroke="black" points="564,-146.5 623,-146.5 "/>
<text text-anchor="start" x="572" y="-134.5" font-family="Helvetica,sans-Serif" font-size="10.00">+ Price()</text>
<text text-anchor="start" x="572" y="-123.5" font-family="Helvetica,sans-Serif" font-size="10.00">+ type()</text>
<text text-anchor="start" x="572" y="-112.5" font-family="Helvetica,sans-Serif" font-size="10.00">+ size()</text>
</a>
</g>
</g>
<!-- Node4&#45;&gt;Node7 -->
<g id="edge10" class="edge"><title>Node4&#45;&gt;Node7</title>
<path fill="none" stroke="midnightblue" d="M428.098,-241.582C464.862,-229.895 515.197,-210.93 554.5,-185 557.697,-182.891 560.847,-180.488 563.887,-177.936"/>
<polygon fill="none" stroke="midnightblue" points="426.62,-238.376 418.108,-244.685 428.696,-245.061 426.62,-238.376"/>
</g>
<!-- Node5&#45;&gt;Node1 -->
<g id="edge4" class="edge"><title>Node5&#45;&gt;Node1</title>
<path fill="none" stroke="#404040" d="M357.171,-105.405C350.557,-93.4367 343.273,-80.2559 336.67,-68.3074"/>
<polygon fill="none" stroke="#404040" points="336.64,-68.2538 330.237,-64.9371 330.836,-57.7509 337.239,-61.0676 336.64,-68.2538"/>
<text text-anchor="middle" x="395" y="-79" font-family="Helvetica,sans-Serif" font-size="10.00"> +TRANSACTION_ID</text>
</g>
<!-- Node6&#45;&gt;Node1 -->
<g id="edge6" class="edge"><title>Node6&#45;&gt;Node1</title>
<path fill="none" stroke="#404040" d="M474.065,-105.202C466.426,-94.5806 457.1,-83.8466 446.5,-76 428.683,-62.8111 406.762,-53.1618 385.985,-46.211"/>
<polygon fill="none" stroke="#404040" points="385.706,-46.1235 378.782,-48.139 374.259,-42.523 381.183,-40.5075 385.706,-46.1235"/>
<text text-anchor="middle" x="504" y="-79" font-family="Helvetica,sans-Serif" font-size="10.00"> +SHIPPING_COST</text>
</g>
<!-- Node7&#45;&gt;Node1 -->
<g id="edge9" class="edge"><title>Node7&#45;&gt;Node1</title>
<path fill="none" stroke="#404040" d="M577.582,-105.334C571.293,-94.3263 563.009,-83.344 552.5,-76 526.104,-57.5529 446.006,-44.6778 386.185,-37.3319"/>
<polygon fill="none" stroke="#404040" points="386.049,-37.3158 379.617,-40.5759 374.134,-35.8924 380.566,-32.6324 386.049,-37.3158"/>
<text text-anchor="middle" x="584" y="-79" font-family="Helvetica,sans-Serif" font-size="10.00"> +PRICE</text>
</g>
</g>
</svg>
        <g id="navigator" transform="translate(0 0)" fill="#404254">
                <rect fill="#f2f5e9" fill-opacity="0.5" stroke="#606060" stroke-width=".5" x="0" y="0" width="60" height="60"/>
                <use id="zoomplus" xlink:href="#zoomPlus" x="17" y="9" onmousedown="handleZoom(evt,'in')"/>
                <use id="zoomminus" xlink:href="#zoomMin" x="42" y="9" onmousedown="handleZoom(evt,'out')"/>
                <use id="reset" xlink:href="#resetDef" x="30" y="36" onmousedown="handleReset()"/>
                <g id="arrowUp" xlink:href="#dirArrow" transform="translate(30 24)" onmousedown="handlePan(0,-1)">
                  <use xlink:href="#rim" fill="#404040">
                        <set attributeName="fill" to="#808080" begin="arrowUp.mouseover" end="arrowUp.mouseout"/>
                  </use>
                  <path fill="none" stroke="white" stroke-width="1.5" d="M0,-3.0v7 M-2.5,-0.5L0,-3.0L2.5,-0.5"/>
                </g>
                <g id="arrowRight" xlink:href="#dirArrow" transform="rotate(90) translate(36 -43)" onmousedown="handlePan(1,0)">
                  <use xlink:href="#rim" fill="#404040">
                        <set attributeName="fill" to="#808080" begin="arrowRight.mouseover" end="arrowRight.mouseout"/>
                  </use>
                  <path fill="none" stroke="white" stroke-width="1.5" d="M0,-3.0v7 M-2.5,-0.5L0,-3.0L2.5,-0.5"/>
                </g>
                <g id="arrowDown" xlink:href="#dirArrow" transform="rotate(180) translate(-30 -48)" onmousedown="handlePan(0,1)">
                  <use xlink:href="#rim" fill="#404040">
                        <set attributeName="fill" to="#808080" begin="arrowDown.mouseover" end="arrowDown.mouseout"/>
                  </use>
                  <path fill="none" stroke="white" stroke-width="1.5" d="M0,-3.0v7 M-2.5,-0.5L0,-3.0L2.5,-0.5"/>
                </g>
                <g id="arrowLeft" xlink:href="#dirArrow" transform="rotate(270) translate(-36 17)" onmousedown="handlePan(-1,0)">
                  <use xlink:href="#rim" fill="#404040">
                        <set attributeName="fill" to="#808080" begin="arrowLeft.mouseover" end="arrowLeft.mouseout"/>
                  </use>
                  <path fill="none" stroke="white" stroke-width="1.5" d="M0,-3.0v7 M-2.5,-0.5L0,-3.0L2.5,-0.5"/>
                </g>
        </g>
        <svg viewBox="0 0 15 15" width="100%" height="30px" preserveAspectRatio="xMaxYMin meet">
         <g id="arrow_out" transform="scale(0.3 0.3)">
          <a xlink:href="classcom_1_1tomoparts_1_1tomoBay_1_1model_1_1sql_1_1schema_1_1transactionsTable_1_1TransactionsTable__coll__graph_org.svg" target="_base">
           <rect id="button" ry="5" rx="5" y="6" x="6" height="38" width="38"
                fill="#f2f5e9" fill-opacity="0.5" stroke="#606060" stroke-width="1.0"/>
           <path id="arrow"
             d="M 11.500037,31.436501 C 11.940474,20.09759 22.043105,11.32322 32.158766,21.979434 L 37.068811,17.246167 C 37.068811,17.246167 37.088388,32 37.088388,32 L 22.160133,31.978069 C 22.160133,31.978069 26.997745,27.140456 26.997745,27.140456 C 18.528582,18.264221 13.291696,25.230495 11.500037,31.436501 z"
             style="fill:#404040;"/>
          </a>
         </g>
        </svg>
</svg>
