<?xml version="1.0" encoding="UTF-8" standalone="no"?>
<!DOCTYPE svg PUBLIC "-//W3C//DTD SVG 1.1//EN"
 "http://www.w3.org/Graphics/SVG/1.1/DTD/svg11.dtd">
<!-- Generated by graphviz version 2.38.0 (20140413.2041)
 -->
<!-- Title: AbstractWinstockCommand Pages: 1 -->
<svg width="317pt" height="309pt"
 viewBox="0.00 0.00 317.00 309.00" xmlns="http://www.w3.org/2000/svg" xmlns:xlink="http://www.w3.org/1999/xlink">
<g id="graph0" class="graph" transform="scale(1 1) rotate(0) translate(4 305)">
<title>AbstractWinstockCommand</title>
<polygon fill="white" stroke="none" points="-4,4 -4,-305 313,-305 313,4 -4,4"/>
<!-- Node1 -->
<g id="node1" class="node"><title>Node1</title>
<polygon fill="#bfbfbf" stroke="black" points="26,-0.5 26,-68.5 194,-68.5 194,-0.5 26,-0.5"/>
<text text-anchor="middle" x="110" y="-56.5" font-family="Helvetica,sans-Serif" font-size="10.00">AbstractWinstockCommand</text>
<polyline fill="none" stroke="black" points="26,-49.5 194,-49.5 "/>
<text text-anchor="middle" x="110" y="-37.5" font-family="Helvetica,sans-Serif" font-size="10.00"> </text>
<polyline fill="none" stroke="black" points="26,-30.5 194,-30.5 "/>
<text text-anchor="start" x="34" y="-18.5" font-family="Helvetica,sans-Serif" font-size="10.00">+ execute()</text>
<text text-anchor="start" x="34" y="-7.5" font-family="Helvetica,sans-Serif" font-size="10.00"># AbstractWinstockCommand()</text>
</g>
<!-- Node2 -->
<g id="node2" class="node"><title>Node2</title>
<g id="a_node2"><a xlink:href="classcom_1_1tomoparts_1_1tomoBay_1_1model_1_1winstock_1_1WinstockConfig.html" target="_top" xlink:title="Copyright(C) 2015 Jan P.C. ">
<polygon fill="white" stroke="black" points="0,-116.5 0,-195.5 120,-195.5 120,-116.5 0,-116.5"/>
<text text-anchor="middle" x="60" y="-183.5" font-family="Helvetica,sans-Serif" font-size="10.00">WinstockConfig</text>
<polyline fill="none" stroke="black" points="0,-176.5 120,-176.5 "/>
<text text-anchor="middle" x="60" y="-164.5" font-family="Helvetica,sans-Serif" font-size="10.00"> </text>
<polyline fill="none" stroke="black" points="0,-157.5 120,-157.5 "/>
<text text-anchor="start" x="8" y="-145.5" font-family="Helvetica,sans-Serif" font-size="10.00">+ WinstockConfig()</text>
<text text-anchor="start" x="8" y="-134.5" font-family="Helvetica,sans-Serif" font-size="10.00">+ getMachineName()</text>
<text text-anchor="start" x="8" y="-123.5" font-family="Helvetica,sans-Serif" font-size="10.00">+ getPort()</text>
</a>
</g>
</g>
<!-- Node2&#45;&gt;Node1 -->
<g id="edge1" class="edge"><title>Node2&#45;&gt;Node1</title>
<path fill="none" stroke="#404040" d="M73.4854,-116.259C77.0457,-106.626 81.0126,-96.3756 85,-87 86.0429,-84.5477 87.1416,-82.0442 88.273,-79.5271"/>
<polygon fill="none" stroke="#404040" points="88.3274,-79.4094 87.2194,-72.2839 93.3706,-68.5206 94.4786,-75.6461 88.3274,-79.4094"/>
<text text-anchor="middle" x="112" y="-90" font-family="Helvetica,sans-Serif" font-size="10.00"> #config_M</text>
</g>
<!-- Node3 -->
<g id="node3" class="node"><title>Node3</title>
<g id="a_node3"><a xlink:href="classcom_1_1tomoparts_1_1tomoBay_1_1model_1_1net_1_1ClientSocket.html" target="_top" xlink:title="This class is responsible for creating a client socket connection to a particular machine at a specif...">
<polygon fill="white" stroke="black" points="138.5,-116.5 138.5,-195.5 233.5,-195.5 233.5,-116.5 138.5,-116.5"/>
<text text-anchor="middle" x="186" y="-183.5" font-family="Helvetica,sans-Serif" font-size="10.00">ClientSocket</text>
<polyline fill="none" stroke="black" points="138.5,-176.5 233.5,-176.5 "/>
<text text-anchor="middle" x="186" y="-164.5" font-family="Helvetica,sans-Serif" font-size="10.00"> </text>
<polyline fill="none" stroke="black" points="138.5,-157.5 233.5,-157.5 "/>
<text text-anchor="start" x="146.5" y="-145.5" font-family="Helvetica,sans-Serif" font-size="10.00">+ ClientSocket()</text>
<text text-anchor="start" x="146.5" y="-134.5" font-family="Helvetica,sans-Serif" font-size="10.00">+ send()</text>
<text text-anchor="start" x="146.5" y="-123.5" font-family="Helvetica,sans-Serif" font-size="10.00">+ close()</text>
</a>
</g>
</g>
<!-- Node3&#45;&gt;Node1 -->
<g id="edge2" class="edge"><title>Node3&#45;&gt;Node1</title>
<path fill="none" stroke="#404040" d="M161.325,-116.202C153.816,-104.395 145.512,-91.3377 137.811,-79.2287"/>
<polygon fill="none" stroke="#404040" points="137.673,-79.0124 131.078,-76.0962 131.233,-68.8867 137.829,-71.8029 137.673,-79.0124"/>
<text text-anchor="middle" x="208" y="-90" font-family="Helvetica,sans-Serif" font-size="10.00"> #winstockConnection_M</text>
</g>
<!-- Node4 -->
<g id="node4" class="node"><title>Node4</title>
<polygon fill="white" stroke="#bfbfbf" points="13,-243.5 13,-300.5 113,-300.5 113,-243.5 13,-243.5"/>
<text text-anchor="middle" x="63" y="-288.5" font-family="Helvetica,sans-Serif" font-size="10.00">DataInputStream</text>
<polyline fill="none" stroke="#bfbfbf" points="13,-281.5 113,-281.5 "/>
<text text-anchor="middle" x="63" y="-269.5" font-family="Helvetica,sans-Serif" font-size="10.00"> </text>
<polyline fill="none" stroke="#bfbfbf" points="13,-262.5 113,-262.5 "/>
<text text-anchor="middle" x="63" y="-250.5" font-family="Helvetica,sans-Serif" font-size="10.00"> </text>
</g>
<!-- Node4&#45;&gt;Node3 -->
<g id="edge3" class="edge"><title>Node4&#45;&gt;Node3</title>
<path fill="none" stroke="#404040" d="M92.7749,-243.404C105.61,-231.508 120.985,-217.258 135.511,-203.794"/>
<polygon fill="none" stroke="#404040" points="135.616,-203.698 137.297,-196.685 144.417,-195.541 142.735,-202.553 135.616,-203.698"/>
<text text-anchor="middle" x="150.5" y="-217" font-family="Helvetica,sans-Serif" font-size="10.00"> &#45;dataIn_M</text>
</g>
<!-- Node5 -->
<g id="node5" class="node"><title>Node5</title>
<polygon fill="white" stroke="#bfbfbf" points="131.5,-243.5 131.5,-300.5 240.5,-300.5 240.5,-243.5 131.5,-243.5"/>
<text text-anchor="middle" x="186" y="-288.5" font-family="Helvetica,sans-Serif" font-size="10.00">DataOutputStream</text>
<polyline fill="none" stroke="#bfbfbf" points="131.5,-281.5 240.5,-281.5 "/>
<text text-anchor="middle" x="186" y="-269.5" font-family="Helvetica,sans-Serif" font-size="10.00"> </text>
<polyline fill="none" stroke="#bfbfbf" points="131.5,-262.5 240.5,-262.5 "/>
<text text-anchor="middle" x="186" y="-250.5" font-family="Helvetica,sans-Serif" font-size="10.00"> </text>
</g>
<!-- Node5&#45;&gt;Node3 -->
<g id="edge4" class="edge"><title>Node5&#45;&gt;Node3</title>
<path fill="none" stroke="#404040" d="M186,-243.404C186,-232.63 186,-219.926 186,-207.623"/>
<polygon fill="none" stroke="#404040" points="186,-207.541 182,-201.541 186,-195.541 190,-201.541 186,-207.541"/>
<text text-anchor="middle" x="216" y="-217" font-family="Helvetica,sans-Serif" font-size="10.00"> &#45;dataOut_M</text>
</g>
<!-- Node6 -->
<g id="node6" class="node"><title>Node6</title>
<polygon fill="white" stroke="#bfbfbf" points="259,-243.5 259,-300.5 309,-300.5 309,-243.5 259,-243.5"/>
<text text-anchor="middle" x="284" y="-288.5" font-family="Helvetica,sans-Serif" font-size="10.00">Socket</text>
<polyline fill="none" stroke="#bfbfbf" points="259,-281.5 309,-281.5 "/>
<text text-anchor="middle" x="284" y="-269.5" font-family="Helvetica,sans-Serif" font-size="10.00"> </text>
<polyline fill="none" stroke="#bfbfbf" points="259,-262.5 309,-262.5 "/>
<text text-anchor="middle" x="284" y="-250.5" font-family="Helvetica,sans-Serif" font-size="10.00"> </text>
</g>
<!-- Node6&#45;&gt;Node3 -->
<g id="edge5" class="edge"><title>Node6&#45;&gt;Node3</title>
<path fill="none" stroke="#404040" d="M269.853,-243.483C264.268,-233.737 257.412,-222.972 250,-214 247.312,-210.747 244.435,-207.515 241.442,-204.34"/>
<polygon fill="none" stroke="#404040" points="241.206,-204.101 234.143,-202.649 232.767,-195.57 239.831,-197.023 241.206,-204.101"/>
<text text-anchor="middle" x="283" y="-217" font-family="Helvetica,sans-Serif" font-size="10.00"> &#45;socket_M</text>
</g>
</g>
</svg>
