<?xml version="1.0" encoding="UTF-8" standalone="no"?>
<!DOCTYPE svg PUBLIC "-//W3C//DTD SVG 1.1//EN"
 "http://www.w3.org/Graphics/SVG/1.1/DTD/svg11.dtd">
<!-- Generated by graphviz version 2.38.0 (20140413.2041)
 -->
<!-- Title: size Pages: 1 -->
<svg width="285pt" height="100pt"
 viewBox="0.00 0.00 284.81 99.50" xmlns="http://www.w3.org/2000/svg" xmlns:xlink="http://www.w3.org/1999/xlink">
<g id="graph0" class="graph" transform="scale(1 1) rotate(0) translate(4 95.5)">
<title>size</title>
<polygon fill="white" stroke="none" points="-4,4 -4,-95.5 280.813,-95.5 280.813,4 -4,4"/>
<!-- Node1 -->
<g id="node1" class="node"><title>Node1</title>
<polygon fill="#bfbfbf" stroke="black" points="10.8134,-38.5 10.8134,-57.5 45.8134,-57.5 45.8134,-38.5 10.8134,-38.5"/>
<text text-anchor="middle" x="28.3134" y="-45.5" font-family="Helvetica,sans-Serif" font-size="10.00">size</text>
</g>
<!-- Node1&#45;&gt;Node1 -->
<g id="edge3" class="edge"><title>Node1&#45;&gt;Node1</title>
<path fill="none" stroke="midnightblue" d="M2.43248,-60.3564C-4.3599,-68.3246 4.26707,-76 28.3134,-76 58.4892,-76 64.3829,-63.9129 45.9945,-54.3282"/>
<polygon fill="midnightblue" stroke="midnightblue" points="4.64835,-63.0714 10.6323,-54.3282 0.502088,-57.4315 4.64835,-63.0714"/>
</g>
<!-- Node2 -->
<g id="node2" class="node"><title>Node2</title>
<g id="a_node2"><a xlink:href="classcom_1_1tomoparts_1_1tomoBay_1_1model_1_1dataTypes_1_1DualList.html#ac6c5d11a7054f49bb7c9489f5893daeb" target="_top" xlink:title="add a value pair to the DualList ">
<polygon fill="white" stroke="black" points="81.8134,-61 81.8134,-91 276.813,-91 276.813,-61 81.8134,-61"/>
<text text-anchor="start" x="89.8134" y="-79" font-family="Helvetica,sans-Serif" font-size="10.00">com.tomoparts.tomoBay.model.data</text>
<text text-anchor="middle" x="179.313" y="-68" font-family="Helvetica,sans-Serif" font-size="10.00">Types.DualList&lt; String, String &gt;::put</text>
</a>
</g>
</g>
<!-- Node1&#45;&gt;Node2 -->
<g id="edge1" class="edge"><title>Node1&#45;&gt;Node2</title>
<path fill="none" stroke="midnightblue" d="M56.004,-53.0157C68.0482,-55.279 82.9789,-58.0848 98.2234,-60.9495"/>
<polygon fill="midnightblue" stroke="midnightblue" points="56.3027,-49.5106 45.8283,-51.1035 55.0098,-56.3902 56.3027,-49.5106"/>
</g>
<!-- Node3 -->
<g id="node3" class="node"><title>Node3</title>
<g id="a_node3"><a xlink:href="classcom_1_1tomoparts_1_1tomoBay_1_1model_1_1dataTypes_1_1DualList.html#a1fcb45e5d2428352eb36b487d1d4eea3" target="_top" xlink:title="removes the last value pair in the list. ">
<polygon fill="white" stroke="black" points="81.8134,-0.5 81.8134,-41.5 276.813,-41.5 276.813,-0.5 81.8134,-0.5"/>
<text text-anchor="start" x="89.8134" y="-29.5" font-family="Helvetica,sans-Serif" font-size="10.00">com.tomoparts.tomoBay.model.data</text>
<text text-anchor="start" x="89.8134" y="-18.5" font-family="Helvetica,sans-Serif" font-size="10.00">Types.DualList&lt; String, String</text>
<text text-anchor="middle" x="179.313" y="-7.5" font-family="Helvetica,sans-Serif" font-size="10.00"> &gt;::remove</text>
</a>
</g>
</g>
<!-- Node1&#45;&gt;Node3 -->
<g id="edge2" class="edge"><title>Node1&#45;&gt;Node3</title>
<path fill="none" stroke="midnightblue" d="M55.7785,-43.2043C63.4193,-41.8197 72.2353,-40.2222 81.5637,-38.5318"/>
<polygon fill="midnightblue" stroke="midnightblue" points="55.044,-39.7803 45.8283,-45.0074 56.2922,-46.6682 55.044,-39.7803"/>
</g>
</g>
</svg>
