<?xml version="1.0" encoding="UTF-8" standalone="no"?>
<!DOCTYPE svg PUBLIC "-//W3C//DTD SVG 1.1//EN"
 "http://www.w3.org/Graphics/SVG/1.1/DTD/svg11.dtd">
<!-- Generated by graphviz version 2.38.0 (20140413.2041)
 -->
<!-- Title: present Pages: 1 -->
<!--zoomable 254 -->
<svg id="main" version="1.1" xmlns="http://www.w3.org/2000/svg" xmlns:xlink="http://www.w3.org/1999/xlink" xml:space="preserve" onload="init(evt)">
<style type="text/css"><![CDATA[
.edge:hover path { stroke: red; }
.edge:hover polygon { stroke: red; fill: red; }
]]></style>
<script type="text/javascript"><![CDATA[
var edges = document.getElementsByTagName('g');
if (edges && edges.length) {
  for (var i=0;i<edges.length;i++) {
    if (edges[i].id.substr(0,4)=='edge') {
      edges[i].setAttribute('class','edge');
    }
  }
}
]]></script>
        <defs>
                <circle id="rim" cx="0" cy="0" r="7"/>
                <circle id="rim2" cx="0" cy="0" r="3.5"/>
                <g id="zoomPlus">
                        <use xlink:href="#rim" fill="#404040">
                                <set attributeName="fill" to="#808080" begin="zoomplus.mouseover" end="zoomplus.mouseout"/>
                        </use>
                        <path d="M-4,0h8M0,-4v8" fill="none" stroke="white" stroke-width="1.5" pointer-events="none"/>
                </g>
                <g id="zoomMin">
                        <use xlink:href="#rim" fill="#404040">
                                <set attributeName="fill" to="#808080" begin="zoomminus.mouseover" end="zoomminus.mouseout"/>
                        </use>
                        <path d="M-4,0h8" fill="none" stroke="white" stroke-width="1.5" pointer-events="none"/>
                </g>
                <g id="dirArrow">
                        <path fill="none" stroke="white" stroke-width="1.5" d="M0,-3.0v7 M-2.5,-0.5L0,-3.0L2.5,-0.5"/>
                </g>
               <g id="resetDef">
                       <use xlink:href="#rim2" fill="#404040">
                               <set attributeName="fill" to="#808080" begin="reset.mouseover" end="reset.mouseout"/>
                       </use>
               </g>
        </defs>

<script type="text/javascript">
var viewWidth = 844;
var viewHeight = 254;
var sectionId = 'dynsection-2';
</script>
<script xlink:href="svgpan.js"/>
<svg id="graph" class="graph">
<g id="viewport">
<title>present</title>
<polygon fill="white" stroke="none" points="-4,4 -4,-250 840,-250 840,4 -4,4"/>
<!-- Node1 -->
<g id="node1" class="node"><title>Node1</title>
<polygon fill="#bfbfbf" stroke="black" points="0,-128 0,-147 53,-147 53,-128 0,-128"/>
<text text-anchor="middle" x="26.5" y="-135" font-family="Helvetica,sans-Serif" font-size="10.00">present</text>
</g>
<!-- Node2 -->
<g id="node2" class="node"><title>Node2</title>
<g id="a_node2"><a xlink:href="classcom_1_1tomoparts_1_1tomoBay_1_1presenters_1_1sales_1_1SalesOrderPresenter.html#a2b6f67a7e537dbe24657a74d1df8a17f" target="_top" xlink:title="this method checks the pickeability of the uninvoiced orders and modifies the invoiced column of the ...">
<polygon fill="white" stroke="black" points="165,-221 165,-240 256,-240 256,-221 165,-221"/>
<text text-anchor="middle" x="210.5" y="-228" font-family="Helvetica,sans-Serif" font-size="10.00">checkPickability</text>
</a>
</g>
</g>
<!-- Node1&#45;&gt;Node2 -->
<g id="edge1" class="edge"><title>Node1&#45;&gt;Node2</title>
<path fill="none" stroke="midnightblue" d="M32.4334,-147.105C41.3283,-163.346 61.6977,-195.98 89,-211.5 108.789,-222.749 133.201,-227.901 154.867,-230.093"/>
<polygon fill="midnightblue" stroke="midnightblue" points="154.67,-233.589 164.925,-230.925 155.247,-226.613 154.67,-233.589"/>
</g>
<!-- Node4 -->
<g id="node4" class="node"><title>Node4</title>
<g id="a_node4"><a xlink:href="classcom_1_1tomoparts_1_1tomoBay_1_1model_1_1sql_1_1framework_1_1SelectQueryInvoker.html#a594282bcbcc0731a7d234482717422d7" target="_top" xlink:title="execute a requested query ">
<polygon fill="white" stroke="black" points="89,-171.5 89,-201.5 332,-201.5 332,-171.5 89,-171.5"/>
<text text-anchor="start" x="97" y="-189.5" font-family="Helvetica,sans-Serif" font-size="10.00">com.tomoparts.tomoBay.model.sql.framework.</text>
<text text-anchor="middle" x="210.5" y="-178.5" font-family="Helvetica,sans-Serif" font-size="10.00">SelectQueryInvoker.execute</text>
</a>
</g>
</g>
<!-- Node1&#45;&gt;Node4 -->
<g id="edge3" class="edge"><title>Node1&#45;&gt;Node4</title>
<path fill="none" stroke="midnightblue" d="M48.2094,-147.066C59.9742,-152.207 75.0898,-158.329 89,-162.5 96.9302,-164.878 105.226,-167.087 113.593,-169.123"/>
<polygon fill="midnightblue" stroke="midnightblue" points="112.896,-172.554 123.432,-171.433 114.497,-165.74 112.896,-172.554"/>
</g>
<!-- Node5 -->
<g id="node5" class="node"><title>Node5</title>
<g id="a_node5"><a xlink:href="interfacecom_1_1tomoparts_1_1tomoBay_1_1view_1_1AbstractView.html#a5724666c8c61c4e2ef28d5364c8c13d0" target="_top" xlink:title="this method is responsible for formatting the data as required for the specific derived view ...">
<polygon fill="white" stroke="black" points="128.5,-122.5 128.5,-152.5 292.5,-152.5 292.5,-122.5 128.5,-122.5"/>
<text text-anchor="start" x="136.5" y="-140.5" font-family="Helvetica,sans-Serif" font-size="10.00">com.tomoparts.tomoBay.view.</text>
<text text-anchor="middle" x="210.5" y="-129.5" font-family="Helvetica,sans-Serif" font-size="10.00">AbstractView.format</text>
</a>
</g>
</g>
<!-- Node1&#45;&gt;Node5 -->
<g id="edge4" class="edge"><title>Node1&#45;&gt;Node5</title>
<path fill="none" stroke="midnightblue" d="M53.1901,-137.5C70.4233,-137.5 94.261,-137.5 118.133,-137.5"/>
<polygon fill="midnightblue" stroke="midnightblue" points="118.346,-141 128.346,-137.5 118.346,-134 118.346,-141"/>
</g>
<!-- Node6 -->
<g id="node6" class="node"><title>Node6</title>
<g id="a_node6"><a xlink:href="classcom_1_1tomoparts_1_1tomoBay_1_1model_1_1dataTypes_1_1ServerStatus.html#a0de06b49749247f1ab7e4f12e7e4bf50" target="_top" xlink:title="Allows a part of the system to query the current status of the server. ">
<polygon fill="white" stroke="black" points="113,-73.5 113,-103.5 308,-103.5 308,-73.5 113,-73.5"/>
<text text-anchor="start" x="121" y="-91.5" font-family="Helvetica,sans-Serif" font-size="10.00">com.tomoparts.tomoBay.model.data</text>
<text text-anchor="middle" x="210.5" y="-80.5" font-family="Helvetica,sans-Serif" font-size="10.00">Types.ServerStatus.getStatus</text>
</a>
</g>
</g>
<!-- Node1&#45;&gt;Node6 -->
<g id="edge5" class="edge"><title>Node1&#45;&gt;Node6</title>
<path fill="none" stroke="midnightblue" d="M49.3916,-127.925C60.9986,-123.113 75.5944,-117.476 89,-113.5 98.2945,-110.743 108.08,-108.179 117.89,-105.824"/>
<polygon fill="midnightblue" stroke="midnightblue" points="118.746,-109.219 127.691,-103.541 117.158,-102.401 118.746,-109.219"/>
</g>
<!-- Node7 -->
<g id="node7" class="node"><title>Node7</title>
<g id="a_node7"><a xlink:href="classcom_1_1tomoparts_1_1tomoBay_1_1helpers_1_1SortOrders.html#a5020830384922af1e38f13a051a3b95e" target="_top" xlink:title="sort an input list of Strings i.e. ">
<polygon fill="white" stroke="black" points="121,-24.5 121,-54.5 300,-54.5 300,-24.5 121,-24.5"/>
<text text-anchor="start" x="129" y="-42.5" font-family="Helvetica,sans-Serif" font-size="10.00">com.tomoparts.tomoBay.helpers.</text>
<text text-anchor="middle" x="210.5" y="-31.5" font-family="Helvetica,sans-Serif" font-size="10.00">SortOrders.sortDefault</text>
</a>
</g>
</g>
<!-- Node1&#45;&gt;Node7 -->
<g id="edge6" class="edge"><title>Node1&#45;&gt;Node7</title>
<path fill="none" stroke="midnightblue" d="M32.6451,-127.753C41.7154,-111.599 62.1587,-79.48 89,-63.5 95.9714,-59.3496 103.531,-55.9027 111.351,-53.0419"/>
<polygon fill="midnightblue" stroke="midnightblue" points="112.61,-56.3115 120.995,-49.8351 110.402,-49.669 112.61,-56.3115"/>
</g>
<!-- Node3 -->
<g id="node3" class="node"><title>Node3</title>
<g id="a_node3"><a xlink:href="classcom_1_1tomoparts_1_1tomoBay_1_1model_1_1dataTypes_1_1conditionalStatement_1_1Conditional.html#a9ded3da6c663530d70e82bab5b8b40ab" target="_top" xlink:title="Evaluate the start condition inherent to this conditional (if it exists). ">
<polygon fill="white" stroke="black" points="368,-215.5 368,-245.5 619,-245.5 619,-215.5 368,-215.5"/>
<text text-anchor="start" x="376" y="-233.5" font-family="Helvetica,sans-Serif" font-size="10.00">com.tomoparts.tomoBay.model.data</text>
<text text-anchor="middle" x="493.5" y="-222.5" font-family="Helvetica,sans-Serif" font-size="10.00">Types.conditionalStatement.Conditional.evaluate</text>
</a>
</g>
</g>
<!-- Node2&#45;&gt;Node3 -->
<g id="edge2" class="edge"><title>Node2&#45;&gt;Node3</title>
<path fill="none" stroke="midnightblue" d="M256.025,-230.5C283.68,-230.5 320.837,-230.5 357.494,-230.5"/>
<polygon fill="midnightblue" stroke="midnightblue" points="357.812,-234 367.812,-230.5 357.812,-227 357.812,-234"/>
</g>
<!-- Node8 -->
<g id="node8" class="node"><title>Node8</title>
<g id="a_node8"><a xlink:href="classcom_1_1tomoparts_1_1tomoBay_1_1helpers_1_1SortOrders.html#a636fab5a9378dd9e3747f06161fd4939" target="_top" xlink:title="sort the list&lt;String&gt; by Invoice status descending (see InvoiceableStatus enum) ">
<polygon fill="white" stroke="black" points="404,-49.5 404,-79.5 583,-79.5 583,-49.5 404,-49.5"/>
<text text-anchor="start" x="412" y="-67.5" font-family="Helvetica,sans-Serif" font-size="10.00">com.tomoparts.tomoBay.helpers.</text>
<text text-anchor="middle" x="493.5" y="-56.5" font-family="Helvetica,sans-Serif" font-size="10.00">SortOrders.sortByPickeability</text>
</a>
</g>
</g>
<!-- Node7&#45;&gt;Node8 -->
<g id="edge7" class="edge"><title>Node7&#45;&gt;Node8</title>
<path fill="none" stroke="midnightblue" d="M300.024,-47.3758C329.798,-50.0248 363.197,-52.9962 393.71,-55.7109"/>
<polygon fill="midnightblue" stroke="midnightblue" points="393.667,-59.2208 403.938,-56.6208 394.287,-52.2483 393.667,-59.2208"/>
</g>
<!-- Node10 -->
<g id="node10" class="node"><title>Node10</title>
<g id="a_node10"><a xlink:href="classcom_1_1tomoparts_1_1tomoBay_1_1helpers_1_1SortOrders.html#a991c04b46f8b24ac19bb83c21173e275" target="_top" xlink:title="sort the List&lt;String&gt; by shipping type descending (see ShippingPriority enum) ">
<polygon fill="white" stroke="black" points="404,-0.5 404,-30.5 583,-30.5 583,-0.5 404,-0.5"/>
<text text-anchor="start" x="412" y="-18.5" font-family="Helvetica,sans-Serif" font-size="10.00">com.tomoparts.tomoBay.helpers.</text>
<text text-anchor="middle" x="493.5" y="-7.5" font-family="Helvetica,sans-Serif" font-size="10.00">SortOrders.sortByShipping</text>
</a>
</g>
</g>
<!-- Node7&#45;&gt;Node10 -->
<g id="edge9" class="edge"><title>Node7&#45;&gt;Node10</title>
<path fill="none" stroke="midnightblue" d="M300.024,-31.9392C329.798,-29.3962 363.197,-26.5436 393.71,-23.9376"/>
<polygon fill="midnightblue" stroke="midnightblue" points="394.272,-27.4024 403.938,-23.064 393.676,-20.4278 394.272,-27.4024"/>
</g>
<!-- Node9 -->
<g id="node9" class="node"><title>Node9</title>
<g id="a_node9"><a xlink:href="classcom_1_1tomoparts_1_1tomoBay_1_1helpers_1_1SortOrders.html#a0b90063741216b57551fe1385847f4df" target="_top" xlink:title="reassemble the categories into one list ">
<polygon fill="white" stroke="black" points="655,-24.5 655,-54.5 836,-54.5 836,-24.5 655,-24.5"/>
<text text-anchor="start" x="663" y="-42.5" font-family="Helvetica,sans-Serif" font-size="10.00">com.tomoparts.tomoBay.helpers.</text>
<text text-anchor="middle" x="745.5" y="-31.5" font-family="Helvetica,sans-Serif" font-size="10.00">SortOrders.reAssembleCategories</text>
</a>
</g>
</g>
<!-- Node8&#45;&gt;Node9 -->
<g id="edge8" class="edge"><title>Node8&#45;&gt;Node9</title>
<path fill="none" stroke="midnightblue" d="M583.345,-55.6155C603.155,-53.6345 624.291,-51.5209 644.515,-49.4985"/>
<polygon fill="midnightblue" stroke="midnightblue" points="645.075,-52.96 654.677,-48.4823 644.379,-45.9948 645.075,-52.96"/>
</g>
<!-- Node10&#45;&gt;Node9 -->
<g id="edge10" class="edge"><title>Node10&#45;&gt;Node9</title>
<path fill="none" stroke="midnightblue" d="M583.345,-24.0291C603.155,-25.9309 624.291,-27.9599 644.515,-29.9015"/>
<polygon fill="midnightblue" stroke="midnightblue" points="644.389,-33.4053 654.677,-30.877 645.058,-26.4374 644.389,-33.4053"/>
</g>
</g>
</svg>
        <g id="navigator" transform="translate(0 0)" fill="#404254">
                <rect fill="#f2f5e9" fill-opacity="0.5" stroke="#606060" stroke-width=".5" x="0" y="0" width="60" height="60"/>
                <use id="zoomplus" xlink:href="#zoomPlus" x="17" y="9" onmousedown="handleZoom(evt,'in')"/>
                <use id="zoomminus" xlink:href="#zoomMin" x="42" y="9" onmousedown="handleZoom(evt,'out')"/>
                <use id="reset" xlink:href="#resetDef" x="30" y="36" onmousedown="handleReset()"/>
                <g id="arrowUp" xlink:href="#dirArrow" transform="translate(30 24)" onmousedown="handlePan(0,-1)">
                  <use xlink:href="#rim" fill="#404040">
                        <set attributeName="fill" to="#808080" begin="arrowUp.mouseover" end="arrowUp.mouseout"/>
                  </use>
                  <path fill="none" stroke="white" stroke-width="1.5" d="M0,-3.0v7 M-2.5,-0.5L0,-3.0L2.5,-0.5"/>
                </g>
                <g id="arrowRight" xlink:href="#dirArrow" transform="rotate(90) translate(36 -43)" onmousedown="handlePan(1,0)">
                  <use xlink:href="#rim" fill="#404040">
                        <set attributeName="fill" to="#808080" begin="arrowRight.mouseover" end="arrowRight.mouseout"/>
                  </use>
                  <path fill="none" stroke="white" stroke-width="1.5" d="M0,-3.0v7 M-2.5,-0.5L0,-3.0L2.5,-0.5"/>
                </g>
                <g id="arrowDown" xlink:href="#dirArrow" transform="rotate(180) translate(-30 -48)" onmousedown="handlePan(0,1)">
                  <use xlink:href="#rim" fill="#404040">
                        <set attributeName="fill" to="#808080" begin="arrowDown.mouseover" end="arrowDown.mouseout"/>
                  </use>
                  <path fill="none" stroke="white" stroke-width="1.5" d="M0,-3.0v7 M-2.5,-0.5L0,-3.0L2.5,-0.5"/>
                </g>
                <g id="arrowLeft" xlink:href="#dirArrow" transform="rotate(270) translate(-36 17)" onmousedown="handlePan(-1,0)">
                  <use xlink:href="#rim" fill="#404040">
                        <set attributeName="fill" to="#808080" begin="arrowLeft.mouseover" end="arrowLeft.mouseout"/>
                  </use>
                  <path fill="none" stroke="white" stroke-width="1.5" d="M0,-3.0v7 M-2.5,-0.5L0,-3.0L2.5,-0.5"/>
                </g>
        </g>
        <svg viewBox="0 0 15 15" width="100%" height="30px" preserveAspectRatio="xMaxYMin meet">
         <g id="arrow_out" transform="scale(0.3 0.3)">
          <a xlink:href="classcom_1_1tomoparts_1_1tomoBay_1_1presenters_1_1sales_1_1SalesOrderPresenter_aae3ef9e158aa1e975acedd263e47fa3c_cgraph_org.svg" target="_base">
           <rect id="button" ry="5" rx="5" y="6" x="6" height="38" width="38"
                fill="#f2f5e9" fill-opacity="0.5" stroke="#606060" stroke-width="1.0"/>
           <path id="arrow"
             d="M 11.500037,31.436501 C 11.940474,20.09759 22.043105,11.32322 32.158766,21.979434 L 37.068811,17.246167 C 37.068811,17.246167 37.088388,32 37.088388,32 L 22.160133,31.978069 C 22.160133,31.978069 26.997745,27.140456 26.997745,27.140456 C 18.528582,18.264221 13.291696,25.230495 11.500037,31.436501 z"
             style="fill:#404040;"/>
          </a>
         </g>
        </svg>
</svg>
