<?xml version="1.0" encoding="UTF-8" standalone="no"?>
<!DOCTYPE svg PUBLIC "-//W3C//DTD SVG 1.1//EN"
 "http://www.w3.org/Graphics/SVG/1.1/DTD/svg11.dtd">
<!-- Generated by graphviz version 2.38.0 (20140413.2041)
 -->
<!-- Title: SelectBrandAndPartNoByOrderID Pages: 1 -->
<svg width="202pt" height="458pt"
 viewBox="0.00 0.00 202.00 458.00" xmlns="http://www.w3.org/2000/svg" xmlns:xlink="http://www.w3.org/1999/xlink">
<g id="graph0" class="graph" transform="scale(1 1) rotate(0) translate(4 454)">
<title>SelectBrandAndPartNoByOrderID</title>
<polygon fill="white" stroke="none" points="-4,4 -4,-454 198,-454 198,4 -4,4"/>
<!-- Node1 -->
<g id="node1" class="node"><title>Node1</title>
<polygon fill="#bfbfbf" stroke="black" points="-1.42109e-14,-0.5 -1.42109e-14,-90.5 194,-90.5 194,-0.5 -1.42109e-14,-0.5"/>
<text text-anchor="middle" x="97" y="-78.5" font-family="Helvetica,sans-Serif" font-size="10.00">SelectBrandAndPartNoByOrderID</text>
<polyline fill="none" stroke="black" points="-1.42109e-14,-71.5 194,-71.5 "/>
<text text-anchor="start" x="8" y="-59.5" font-family="Helvetica,sans-Serif" font-size="10.00">&#45; query</text>
<polyline fill="none" stroke="black" points="-1.42109e-14,-52.5 194,-52.5 "/>
<text text-anchor="start" x="8" y="-40.5" font-family="Helvetica,sans-Serif" font-size="10.00">+ SelectBrandAndPartNoByOrderID()</text>
<text text-anchor="start" x="8" y="-29.5" font-family="Helvetica,sans-Serif" font-size="10.00"># format()</text>
<text text-anchor="start" x="8" y="-18.5" font-family="Helvetica,sans-Serif" font-size="10.00"># setParameters()</text>
<text text-anchor="start" x="8" y="-7.5" font-family="Helvetica,sans-Serif" font-size="10.00"># queryString()</text>
</g>
<!-- Node2 -->
<g id="node2" class="node"><title>Node2</title>
<g id="a_node2"><a xlink:href="classcom_1_1tomoparts_1_1tomoBay_1_1model_1_1sql_1_1framework_1_1queryTypes_1_1select_1_1AbstractSelectParamsQuery.html" target="_top" xlink:title="This class defines the abstract base for all Select queries that take parameters. ...">
<polygon fill="white" stroke="black" points="11.5,-127.5 11.5,-217.5 182.5,-217.5 182.5,-127.5 11.5,-127.5"/>
<text text-anchor="middle" x="97" y="-205.5" font-family="Helvetica,sans-Serif" font-size="10.00">AbstractSelectParamsQuery</text>
<polyline fill="none" stroke="black" points="11.5,-198.5 182.5,-198.5 "/>
<text text-anchor="middle" x="97" y="-186.5" font-family="Helvetica,sans-Serif" font-size="10.00"> </text>
<polyline fill="none" stroke="black" points="11.5,-179.5 182.5,-179.5 "/>
<text text-anchor="start" x="19.5" y="-167.5" font-family="Helvetica,sans-Serif" font-size="10.00">+ AbstractSelectParamsQuery()</text>
<text text-anchor="start" x="19.5" y="-156.5" font-family="Helvetica,sans-Serif" font-size="10.00">+ execute()</text>
<text text-anchor="start" x="19.5" y="-145.5" font-family="Helvetica,sans-Serif" font-size="10.00"># setParameters()</text>
<text text-anchor="start" x="19.5" y="-134.5" font-family="Helvetica,sans-Serif" font-size="10.00">&#45; initQuery()</text>
</a>
</g>
</g>
<!-- Node2&#45;&gt;Node1 -->
<g id="edge1" class="edge"><title>Node2&#45;&gt;Node1</title>
<path fill="none" stroke="midnightblue" d="M97,-117.157C97,-108.282 97,-99.1831 97,-90.5937"/>
<polygon fill="none" stroke="midnightblue" points="93.5001,-117.43 97,-127.43 100.5,-117.43 93.5001,-117.43"/>
</g>
<!-- Node3 -->
<g id="node3" class="node"><title>Node3</title>
<g id="a_node3"><a xlink:href="classcom_1_1tomoparts_1_1tomoBay_1_1model_1_1sql_1_1framework_1_1queryTypes_1_1select_1_1AbstractSelectQuery.html" target="_top" xlink:title="{AbstractSelectQuery\n||+ AbstractSelectQuery()\l# format()\l}">
<polygon fill="white" stroke="black" points="30,-254.5 30,-322.5 164,-322.5 164,-254.5 30,-254.5"/>
<text text-anchor="middle" x="97" y="-310.5" font-family="Helvetica,sans-Serif" font-size="10.00">AbstractSelectQuery</text>
<polyline fill="none" stroke="black" points="30,-303.5 164,-303.5 "/>
<text text-anchor="middle" x="97" y="-291.5" font-family="Helvetica,sans-Serif" font-size="10.00"> </text>
<polyline fill="none" stroke="black" points="30,-284.5 164,-284.5 "/>
<text text-anchor="start" x="38" y="-272.5" font-family="Helvetica,sans-Serif" font-size="10.00">+ AbstractSelectQuery()</text>
<text text-anchor="start" x="38" y="-261.5" font-family="Helvetica,sans-Serif" font-size="10.00"># format()</text>
</a>
</g>
</g>
<!-- Node3&#45;&gt;Node2 -->
<g id="edge2" class="edge"><title>Node3&#45;&gt;Node2</title>
<path fill="none" stroke="midnightblue" d="M97,-243.972C97,-235.346 97,-226.284 97,-217.638"/>
<polygon fill="none" stroke="midnightblue" points="93.5001,-244.22 97,-254.22 100.5,-244.22 93.5001,-244.22"/>
</g>
<!-- Node4 -->
<g id="node4" class="node"><title>Node4</title>
<g id="a_node4"><a xlink:href="classcom_1_1tomoparts_1_1tomoBay_1_1model_1_1sql_1_1framework_1_1queryTypes_1_1AbstractDBQuery.html" target="_top" xlink:title="Interface that all database queries must adhere to. ">
<polygon fill="white" stroke="black" points="47,-359.5 47,-449.5 147,-449.5 147,-359.5 47,-359.5"/>
<text text-anchor="middle" x="97" y="-437.5" font-family="Helvetica,sans-Serif" font-size="10.00">AbstractDBQuery</text>
<polyline fill="none" stroke="black" points="47,-430.5 147,-430.5 "/>
<text text-anchor="start" x="55" y="-418.5" font-family="Helvetica,sans-Serif" font-size="10.00"># statement_M</text>
<text text-anchor="start" x="55" y="-407.5" font-family="Helvetica,sans-Serif" font-size="10.00"># connection_M</text>
<polyline fill="none" stroke="black" points="47,-400.5 147,-400.5 "/>
<text text-anchor="start" x="55" y="-388.5" font-family="Helvetica,sans-Serif" font-size="10.00">+ statement()</text>
<text text-anchor="start" x="55" y="-377.5" font-family="Helvetica,sans-Serif" font-size="10.00"># queryString()</text>
<text text-anchor="start" x="55" y="-366.5" font-family="Helvetica,sans-Serif" font-size="10.00"># cleanup()</text>
</a>
</g>
</g>
<!-- Node4&#45;&gt;Node3 -->
<g id="edge3" class="edge"><title>Node4&#45;&gt;Node3</title>
<path fill="none" stroke="midnightblue" d="M97,-349.316C97,-340.285 97,-331.159 97,-322.848"/>
<polygon fill="none" stroke="midnightblue" points="93.5001,-349.425 97,-359.425 100.5,-349.425 93.5001,-349.425"/>
</g>
</g>
</svg>
