<?xml version="1.0" encoding="UTF-8" standalone="no"?>
<!DOCTYPE svg PUBLIC "-//W3C//DTD SVG 1.1//EN"
 "http://www.w3.org/Graphics/SVG/1.1/DTD/svg11.dtd">
<!-- Generated by graphviz version 2.38.0 (20140413.2041)
 -->
<!-- Title: brand Pages: 1 -->
<svg width="905pt" height="149pt"
 viewBox="0.00 0.00 905.00 149.00" xmlns="http://www.w3.org/2000/svg" xmlns:xlink="http://www.w3.org/1999/xlink">
<g id="graph0" class="graph" transform="scale(1 1) rotate(0) translate(4 145)">
<title>brand</title>
<polygon fill="white" stroke="none" points="-4,4 -4,-145 901,-145 901,4 -4,4"/>
<!-- Node1 -->
<g id="node1" class="node"><title>Node1</title>
<polygon fill="#bfbfbf" stroke="black" points="0,-61 0,-80 44,-80 44,-61 0,-61"/>
<text text-anchor="middle" x="22" y="-68" font-family="Helvetica,sans-Serif" font-size="10.00">brand</text>
</g>
<!-- Node2 -->
<g id="node2" class="node"><title>Node2</title>
<g id="a_node2"><a xlink:href="classcom_1_1tomoparts_1_1tomoBay_1_1presenters_1_1presenterActions_1_1concreteActions_1_1PrintInvoices.html#adb3dedf31dc2c7fc796f20406c235ccd" target="_top" xlink:title="performs the action specified ">
<polygon fill="white" stroke="black" points="86,-110.5 86,-140.5 328,-140.5 328,-110.5 86,-110.5"/>
<text text-anchor="start" x="94" y="-128.5" font-family="Helvetica,sans-Serif" font-size="10.00">com.tomoparts.tomoBay.presenters.presenter</text>
<text text-anchor="middle" x="207" y="-117.5" font-family="Helvetica,sans-Serif" font-size="10.00">Actions.concreteActions.PrintInvoices.execute</text>
</a>
</g>
</g>
<!-- Node1&#45;&gt;Node2 -->
<g id="edge1" class="edge"><title>Node1&#45;&gt;Node2</title>
<path fill="none" stroke="midnightblue" d="M47.2398,-85.2411C57.1117,-90.7115 68.8156,-96.5415 80,-100.5 90.8271,-104.332 102.397,-107.634 113.973,-110.464"/>
<polygon fill="midnightblue" stroke="midnightblue" points="48.829,-82.1178 38.413,-80.1792 45.3467,-88.1902 48.829,-82.1178"/>
</g>
<!-- Node3 -->
<g id="node3" class="node"><title>Node3</title>
<g id="a_node3"><a xlink:href="classcom_1_1tomoparts_1_1tomoBay_1_1model_1_1dataTypes_1_1financial_1_1SalesOrderDayBook_1_1formats_1_1WinstockFormat.html#accefd62bc10c59d9ba78937d90a5fa8c" target="_top" xlink:title="com.tomoparts.tomoBay.model.data\lTypes.financial.SalesOrderDayBook.formats.\lWinstockFormat.format">
<polygon fill="white" stroke="black" points="92.5,-50 92.5,-91 321.5,-91 321.5,-50 92.5,-50"/>
<text text-anchor="start" x="100.5" y="-79" font-family="Helvetica,sans-Serif" font-size="10.00">com.tomoparts.tomoBay.model.data</text>
<text text-anchor="start" x="100.5" y="-68" font-family="Helvetica,sans-Serif" font-size="10.00">Types.financial.SalesOrderDayBook.formats.</text>
<text text-anchor="middle" x="207" y="-57" font-family="Helvetica,sans-Serif" font-size="10.00">WinstockFormat.format</text>
</a>
</g>
</g>
<!-- Node1&#45;&gt;Node3 -->
<g id="edge2" class="edge"><title>Node1&#45;&gt;Node3</title>
<path fill="none" stroke="midnightblue" d="M54.6122,-70.5C65.61,-70.5 78.6663,-70.5 92.4311,-70.5"/>
<polygon fill="midnightblue" stroke="midnightblue" points="54.3506,-67.0001 44.3506,-70.5 54.3505,-74.0001 54.3506,-67.0001"/>
</g>
<!-- Node4 -->
<g id="node4" class="node"><title>Node4</title>
<g id="a_node4"><a xlink:href="classcom_1_1tomoparts_1_1tomoBay_1_1presenters_1_1presenterActions_1_1concreteActions_1_1OrderInfo.html#a703cbb509cdc01530f19b03f573120c9" target="_top" xlink:title="formats the transaction information associated with this order ">
<polygon fill="white" stroke="black" points="80,-0.5 80,-30.5 334,-30.5 334,-0.5 80,-0.5"/>
<text text-anchor="start" x="88" y="-18.5" font-family="Helvetica,sans-Serif" font-size="10.00">com.tomoparts.tomoBay.presenters.presenter</text>
<text text-anchor="middle" x="207" y="-7.5" font-family="Helvetica,sans-Serif" font-size="10.00">Actions.concreteActions.OrderInfo.transactionInfo</text>
</a>
</g>
</g>
<!-- Node1&#45;&gt;Node4 -->
<g id="edge3" class="edge"><title>Node1&#45;&gt;Node4</title>
<path fill="none" stroke="midnightblue" d="M47.2398,-55.7589C57.1117,-50.2885 68.8156,-44.4585 80,-40.5 90.8271,-36.6679 102.397,-33.3659 113.973,-30.5358"/>
<polygon fill="midnightblue" stroke="midnightblue" points="45.3467,-52.8098 38.413,-60.8208 48.829,-58.8822 45.3467,-52.8098"/>
</g>
<!-- Node5 -->
<g id="node5" class="node"><title>Node5</title>
<g id="a_node5"><a xlink:href="classcom_1_1tomoparts_1_1tomoBay_1_1presenters_1_1presenterActions_1_1concreteActions_1_1OrderInfo.html#afeec1aeda079b77245edea1e74b25f33" target="_top" xlink:title="assembles the various parts of the order and outputs it as a fully formed JSON string. ">
<polygon fill="white" stroke="black" points="370,-0.5 370,-30.5 619,-30.5 619,-0.5 370,-0.5"/>
<text text-anchor="start" x="378" y="-18.5" font-family="Helvetica,sans-Serif" font-size="10.00">com.tomoparts.tomoBay.presenters.presenter</text>
<text text-anchor="middle" x="494.5" y="-7.5" font-family="Helvetica,sans-Serif" font-size="10.00">Actions.concreteActions.OrderInfo.formatResults</text>
</a>
</g>
</g>
<!-- Node4&#45;&gt;Node5 -->
<g id="edge4" class="edge"><title>Node4&#45;&gt;Node5</title>
<path fill="none" stroke="midnightblue" d="M344.32,-15.5C352.753,-15.5 361.217,-15.5 369.592,-15.5"/>
<polygon fill="midnightblue" stroke="midnightblue" points="344.056,-12.0001 334.056,-15.5 344.055,-19.0001 344.056,-12.0001"/>
</g>
<!-- Node6 -->
<g id="node6" class="node"><title>Node6</title>
<g id="a_node6"><a xlink:href="classcom_1_1tomoparts_1_1tomoBay_1_1presenters_1_1presenterActions_1_1concreteActions_1_1OrderInfo.html#adb3dedf31dc2c7fc796f20406c235ccd" target="_top" xlink:title="performs the action specified ">
<polygon fill="white" stroke="black" points="655,-0.5 655,-30.5 897,-30.5 897,-0.5 655,-0.5"/>
<text text-anchor="start" x="663" y="-18.5" font-family="Helvetica,sans-Serif" font-size="10.00">com.tomoparts.tomoBay.presenters.presenter</text>
<text text-anchor="middle" x="776" y="-7.5" font-family="Helvetica,sans-Serif" font-size="10.00">Actions.concreteActions.OrderInfo.execute</text>
</a>
</g>
</g>
<!-- Node5&#45;&gt;Node6 -->
<g id="edge5" class="edge"><title>Node5&#45;&gt;Node6</title>
<path fill="none" stroke="midnightblue" d="M629.322,-15.5C637.865,-15.5 646.439,-15.5 654.914,-15.5"/>
<polygon fill="midnightblue" stroke="midnightblue" points="629.313,-12.0001 619.313,-15.5 629.313,-19.0001 629.313,-12.0001"/>
</g>
</g>
</svg>
