<?xml version="1.0" encoding="UTF-8" standalone="no"?>
<!DOCTYPE svg PUBLIC "-//W3C//DTD SVG 1.1//EN"
 "http://www.w3.org/Graphics/SVG/1.1/DTD/svg11.dtd">
<!-- Generated by graphviz version 2.38.0 (20140413.2041)
 -->
<!-- Title: getStatus Pages: 1 -->
<svg width="584pt" height="137pt"
 viewBox="0.00 0.00 584.00 137.00" xmlns="http://www.w3.org/2000/svg" xmlns:xlink="http://www.w3.org/1999/xlink">
<g id="graph0" class="graph" transform="scale(1 1) rotate(0) translate(4 133)">
<title>getStatus</title>
<polygon fill="white" stroke="none" points="-4,4 -4,-133 580,-133 580,4 -4,4"/>
<!-- Node1 -->
<g id="node1" class="node"><title>Node1</title>
<polygon fill="#bfbfbf" stroke="black" points="0,-55 0,-74 64,-74 64,-55 0,-55"/>
<text text-anchor="middle" x="32" y="-62" font-family="Helvetica,sans-Serif" font-size="10.00">getStatus</text>
</g>
<!-- Node2 -->
<g id="node2" class="node"><title>Node2</title>
<g id="a_node2"><a xlink:href="classcom_1_1tomoparts_1_1tomoBay_1_1model_1_1services_1_1AbstractService.html#a4e220ddae734089d146b78363526057f" target="_top" xlink:title="The individual services equivalent of main. ">
<polygon fill="white" stroke="black" points="104,-98.5 104,-128.5 319,-128.5 319,-98.5 104,-98.5"/>
<text text-anchor="start" x="112" y="-116.5" font-family="Helvetica,sans-Serif" font-size="10.00">com.tomoparts.tomoBay.model.services.</text>
<text text-anchor="middle" x="211.5" y="-105.5" font-family="Helvetica,sans-Serif" font-size="10.00">AbstractService.call</text>
</a>
</g>
</g>
<!-- Node1&#45;&gt;Node2 -->
<g id="edge1" class="edge"><title>Node1&#45;&gt;Node2</title>
<path fill="none" stroke="midnightblue" d="M65.5,-77.6944C76.3588,-81.8153 88.5991,-86.1536 100,-89.5 111.019,-92.7344 122.773,-95.7439 134.349,-98.4623"/>
<polygon fill="midnightblue" stroke="midnightblue" points="66.5688,-74.3551 55.9797,-74.0058 64.0397,-80.8823 66.5688,-74.3551"/>
</g>
<!-- Node3 -->
<g id="node3" class="node"><title>Node3</title>
<g id="a_node3"><a xlink:href="classcom_1_1tomoparts_1_1tomoBay_1_1view_1_1views_1_1salesOrderView_1_1SalesOrderView.html#a79629cb15df56cead861ca956e1855e6" target="_top" xlink:title="defines a set of set of String values that equate to the &#39;invoiced&#39; values grabbed from the database...">
<polygon fill="white" stroke="black" points="103,-49.5 103,-79.5 320,-79.5 320,-49.5 103,-49.5"/>
<text text-anchor="start" x="111" y="-67.5" font-family="Helvetica,sans-Serif" font-size="10.00">com.tomoparts.tomoBay.view.views.sales</text>
<text text-anchor="middle" x="211.5" y="-56.5" font-family="Helvetica,sans-Serif" font-size="10.00">OrderView.SalesOrderView.pickeability</text>
</a>
</g>
</g>
<!-- Node1&#45;&gt;Node3 -->
<g id="edge2" class="edge"><title>Node1&#45;&gt;Node3</title>
<path fill="none" stroke="midnightblue" d="M74.4869,-64.5C83.1953,-64.5 92.761,-64.5 102.659,-64.5"/>
<polygon fill="midnightblue" stroke="midnightblue" points="74.3249,-61.0001 64.3248,-64.5 74.3248,-68.0001 74.3249,-61.0001"/>
</g>
<!-- Node5 -->
<g id="node5" class="node"><title>Node5</title>
<g id="a_node5"><a xlink:href="classcom_1_1tomoparts_1_1tomoBay_1_1presenters_1_1sales_1_1SalesOrderPresenter.html#aae3ef9e158aa1e975acedd263e47fa3c" target="_top" xlink:title="this method is called when you actually want to present the information to be displayed to the approp...">
<polygon fill="white" stroke="black" points="100,-0.5 100,-30.5 323,-30.5 323,-0.5 100,-0.5"/>
<text text-anchor="start" x="108" y="-18.5" font-family="Helvetica,sans-Serif" font-size="10.00">com.tomoparts.tomoBay.presenters.sales.</text>
<text text-anchor="middle" x="211.5" y="-7.5" font-family="Helvetica,sans-Serif" font-size="10.00">SalesOrderPresenter.present</text>
</a>
</g>
</g>
<!-- Node1&#45;&gt;Node5 -->
<g id="edge4" class="edge"><title>Node1&#45;&gt;Node5</title>
<path fill="none" stroke="midnightblue" d="M67.1881,-51.35C77.6336,-47.5777 89.2117,-43.64 100,-40.5 112.275,-36.9271 125.441,-33.5569 138.253,-30.5168"/>
<polygon fill="midnightblue" stroke="midnightblue" points="65.759,-48.1464 57.5831,-54.8847 68.1766,-54.7156 65.759,-48.1464"/>
</g>
<!-- Node4 -->
<g id="node4" class="node"><title>Node4</title>
<g id="a_node4"><a xlink:href="classcom_1_1tomoparts_1_1tomoBay_1_1view_1_1views_1_1salesOrderView_1_1SalesOrderView.html#a5724666c8c61c4e2ef28d5364c8c13d0" target="_top" xlink:title="this method is responsible for formatting the data as required for the specific derived view ...">
<polygon fill="white" stroke="black" points="359,-49.5 359,-79.5 576,-79.5 576,-49.5 359,-49.5"/>
<text text-anchor="start" x="367" y="-67.5" font-family="Helvetica,sans-Serif" font-size="10.00">com.tomoparts.tomoBay.view.views.sales</text>
<text text-anchor="middle" x="467.5" y="-56.5" font-family="Helvetica,sans-Serif" font-size="10.00">OrderView.SalesOrderView.format</text>
</a>
</g>
</g>
<!-- Node3&#45;&gt;Node4 -->
<g id="edge3" class="edge"><title>Node3&#45;&gt;Node4</title>
<path fill="none" stroke="midnightblue" d="M330.393,-64.5C339.802,-64.5 349.279,-64.5 358.614,-64.5"/>
<polygon fill="midnightblue" stroke="midnightblue" points="330.219,-61.0001 320.219,-64.5 330.219,-68.0001 330.219,-61.0001"/>
</g>
</g>
</svg>
