<?xml version="1.0" encoding="UTF-8" standalone="no"?>
<!DOCTYPE svg PUBLIC "-//W3C//DTD SVG 1.1//EN"
 "http://www.w3.org/Graphics/SVG/1.1/DTD/svg11.dtd">
<!-- Generated by graphviz version 2.38.0 (20140413.2041)
 -->
<!-- Title: MailClient Pages: 1 -->
<!--zoomable 465 -->
<svg id="main" version="1.1" xmlns="http://www.w3.org/2000/svg" xmlns:xlink="http://www.w3.org/1999/xlink" xml:space="preserve" onload="init(evt)">
<style type="text/css"><![CDATA[
.edge:hover path { stroke: red; }
.edge:hover polygon { stroke: red; fill: red; }
]]></style>
<script type="text/javascript"><![CDATA[
var edges = document.getElementsByTagName('g');
if (edges && edges.length) {
  for (var i=0;i<edges.length;i++) {
    if (edges[i].id.substr(0,4)=='edge') {
      edges[i].setAttribute('class','edge');
    }
  }
}
]]></script>
        <defs>
                <circle id="rim" cx="0" cy="0" r="7"/>
                <circle id="rim2" cx="0" cy="0" r="3.5"/>
                <g id="zoomPlus">
                        <use xlink:href="#rim" fill="#404040">
                                <set attributeName="fill" to="#808080" begin="zoomplus.mouseover" end="zoomplus.mouseout"/>
                        </use>
                        <path d="M-4,0h8M0,-4v8" fill="none" stroke="white" stroke-width="1.5" pointer-events="none"/>
                </g>
                <g id="zoomMin">
                        <use xlink:href="#rim" fill="#404040">
                                <set attributeName="fill" to="#808080" begin="zoomminus.mouseover" end="zoomminus.mouseout"/>
                        </use>
                        <path d="M-4,0h8" fill="none" stroke="white" stroke-width="1.5" pointer-events="none"/>
                </g>
                <g id="dirArrow">
                        <path fill="none" stroke="white" stroke-width="1.5" d="M0,-3.0v7 M-2.5,-0.5L0,-3.0L2.5,-0.5"/>
                </g>
               <g id="resetDef">
                       <use xlink:href="#rim2" fill="#404040">
                               <set attributeName="fill" to="#808080" begin="reset.mouseover" end="reset.mouseout"/>
                       </use>
               </g>
        </defs>

<script type="text/javascript">
var viewWidth = 917;
var viewHeight = 465;
var sectionId = 'dynsection-1';
</script>
<script xlink:href="svgpan.js"/>
<svg id="graph" class="graph">
<g id="viewport">
<title>MailClient</title>
<polygon fill="white" stroke="none" points="-4,4 -4,-461 913,-461 913,4 -4,4"/>
<!-- Node1 -->
<g id="node1" class="node"><title>Node1</title>
<polygon fill="#bfbfbf" stroke="black" points="0,-248 0,-267 62,-267 62,-248 0,-248"/>
<text text-anchor="middle" x="31" y="-255" font-family="Helvetica,sans-Serif" font-size="10.00">MailClient</text>
</g>
<!-- Node2 -->
<g id="node2" class="node"><title>Node2</title>
<g id="a_node2"><a xlink:href="classcom_1_1tomoparts_1_1tomoBay_1_1model_1_1net_1_1email_1_1MailClient.html#af9eddf4b6d3506f30b2f282c86c59ed6" target="_top" xlink:title="sends an email containing a message and subject. ">
<polygon fill="white" stroke="black" points="98,-248 98,-267 138,-267 138,-248 98,-248"/>
<text text-anchor="middle" x="118" y="-255" font-family="Helvetica,sans-Serif" font-size="10.00">send</text>
</a>
</g>
</g>
<!-- Node1&#45;&gt;Node2 -->
<g id="edge1" class="edge"><title>Node1&#45;&gt;Node2</title>
<path fill="none" stroke="midnightblue" d="M62.2072,-257.5C70.4355,-257.5 79.3364,-257.5 87.5236,-257.5"/>
<polygon fill="midnightblue" stroke="midnightblue" points="87.7587,-261 97.7587,-257.5 87.7586,-254 87.7587,-261"/>
</g>
<!-- Node3 -->
<g id="node3" class="node"><title>Node3</title>
<g id="a_node3"><a xlink:href="classcom_1_1tomoparts_1_1tomoBay_1_1model_1_1net_1_1email_1_1EmailDirector.html#adf12228c8c87e1262bbaf8b71fb856fc" target="_top" xlink:title="initialises the email and server objects ready to be retrieved by the get methods. ">
<polygon fill="white" stroke="black" points="174,-371.5 174,-401.5 395,-401.5 395,-371.5 174,-371.5"/>
<text text-anchor="start" x="182" y="-389.5" font-family="Helvetica,sans-Serif" font-size="10.00">com.tomoparts.tomoBay.model.net.email.</text>
<text text-anchor="middle" x="284.5" y="-378.5" font-family="Helvetica,sans-Serif" font-size="10.00">EmailDirector.constructEmailAndServer</text>
</a>
</g>
</g>
<!-- Node2&#45;&gt;Node3 -->
<g id="edge2" class="edge"><title>Node2&#45;&gt;Node3</title>
<path fill="none" stroke="midnightblue" d="M125.086,-267.439C134.282,-281.846 152.902,-308.746 174,-326.5 193.433,-342.853 218.013,-356.805 238.96,-367.128"/>
<polygon fill="midnightblue" stroke="midnightblue" points="237.463,-370.292 247.992,-371.469 240.495,-363.983 237.463,-370.292"/>
</g>
<!-- Node6 -->
<g id="node6" class="node"><title>Node6</title>
<g id="a_node6"><a xlink:href="classcom_1_1tomoparts_1_1tomoBay_1_1model_1_1net_1_1email_1_1EmailDirector.html#a37f3f83a029e5330f47fbf564e17ebb3" target="_top" xlink:title="Provides functionality to access a MailServerSend object, which allows the sending of an Email...">
<polygon fill="white" stroke="black" points="174,-286.5 174,-316.5 395,-316.5 395,-286.5 174,-286.5"/>
<text text-anchor="start" x="182" y="-304.5" font-family="Helvetica,sans-Serif" font-size="10.00">com.tomoparts.tomoBay.model.net.email.</text>
<text text-anchor="middle" x="284.5" y="-293.5" font-family="Helvetica,sans-Serif" font-size="10.00">EmailDirector.getMailSendServer</text>
</a>
</g>
</g>
<!-- Node2&#45;&gt;Node6 -->
<g id="edge5" class="edge"><title>Node2&#45;&gt;Node6</title>
<path fill="none" stroke="midnightblue" d="M138.182,-264.698C148.676,-268.49 161.956,-273.056 174,-276.5 183.184,-279.126 192.862,-281.663 202.509,-284.048"/>
<polygon fill="midnightblue" stroke="midnightblue" points="201.987,-287.522 212.53,-286.476 203.635,-280.719 201.987,-287.522"/>
</g>
<!-- Node7 -->
<g id="node7" class="node"><title>Node7</title>
<g id="a_node7"><a xlink:href="classcom_1_1tomoparts_1_1tomoBay_1_1model_1_1net_1_1email_1_1MailClient.html#ab932ccc2020ca1398b5eb546e77a8d63" target="_top" xlink:title="set up the email ready to use in the rest of the mail client ">
<polygon fill="white" stroke="black" points="249,-248 249,-267 320,-267 320,-248 249,-248"/>
<text text-anchor="middle" x="284.5" y="-255" font-family="Helvetica,sans-Serif" font-size="10.00">setUpEmail</text>
</a>
</g>
</g>
<!-- Node2&#45;&gt;Node7 -->
<g id="edge6" class="edge"><title>Node2&#45;&gt;Node7</title>
<path fill="none" stroke="midnightblue" d="M138.192,-257.5C162.664,-257.5 205.75,-257.5 238.67,-257.5"/>
<polygon fill="midnightblue" stroke="midnightblue" points="238.965,-261 248.965,-257.5 238.965,-254 238.965,-261"/>
</g>
<!-- Node11 -->
<g id="node11" class="node"><title>Node11</title>
<g id="a_node11"><a xlink:href="classcom_1_1tomoparts_1_1tomoBay_1_1helpers_1_1ConfigReader.html#a310420c6db22982498520c2ad7a2b82f" target="_top" xlink:title="find the value of the config variable specified in the arguments. ">
<polygon fill="white" stroke="black" points="195,-145.5 195,-175.5 374,-175.5 374,-145.5 195,-145.5"/>
<text text-anchor="start" x="203" y="-163.5" font-family="Helvetica,sans-Serif" font-size="10.00">com.tomoparts.tomoBay.helpers.</text>
<text text-anchor="middle" x="284.5" y="-152.5" font-family="Helvetica,sans-Serif" font-size="10.00">ConfigReader.getConf</text>
</a>
</g>
</g>
<!-- Node2&#45;&gt;Node11 -->
<g id="edge10" class="edge"><title>Node2&#45;&gt;Node11</title>
<path fill="none" stroke="midnightblue" d="M135.374,-247.845C161.708,-232.317 214.042,-201.457 248.916,-180.893"/>
<polygon fill="midnightblue" stroke="midnightblue" points="250.98,-183.739 257.817,-175.645 247.425,-177.709 250.98,-183.739"/>
</g>
<!-- Node15 -->
<g id="node15" class="node"><title>Node15</title>
<g id="a_node15"><a xlink:href="classcom_1_1tomoparts_1_1tomoBay_1_1model_1_1net_1_1email_1_1MailServerSend.html#ae0ea6b0d6bda14c2c1ea809ca187c4be" target="_top" xlink:title="this method sends the given email using the userID and password provided in the arguments ...">
<polygon fill="white" stroke="black" points="174,-22.5 174,-52.5 395,-52.5 395,-22.5 174,-22.5"/>
<text text-anchor="start" x="182" y="-40.5" font-family="Helvetica,sans-Serif" font-size="10.00">com.tomoparts.tomoBay.model.net.email.</text>
<text text-anchor="middle" x="284.5" y="-29.5" font-family="Helvetica,sans-Serif" font-size="10.00">MailServerSend.send</text>
</a>
</g>
</g>
<!-- Node2&#45;&gt;Node15 -->
<g id="edge14" class="edge"><title>Node2&#45;&gt;Node15</title>
<path fill="none" stroke="midnightblue" d="M121.803,-247.922C128.419,-226.364 146.544,-172.988 174,-135.5 196.385,-104.937 229.643,-76.8575 253.629,-58.6633"/>
<polygon fill="midnightblue" stroke="midnightblue" points="255.767,-61.4348 261.693,-52.6522 251.584,-55.8224 255.767,-61.4348"/>
</g>
<!-- Node4 -->
<g id="node4" class="node"><title>Node4</title>
<g id="a_node4"><a xlink:href="classcom_1_1tomoparts_1_1tomoBay_1_1model_1_1net_1_1email_1_1AbstractEmailBuilder.html#a4f128fdcd61c6889df2df17738e083fe" target="_top" xlink:title="builds the Email object ">
<polygon fill="white" stroke="black" points="431,-426.5 431,-456.5 652,-456.5 652,-426.5 431,-426.5"/>
<text text-anchor="start" x="439" y="-444.5" font-family="Helvetica,sans-Serif" font-size="10.00">com.tomoparts.tomoBay.model.net.email.</text>
<text text-anchor="middle" x="541.5" y="-433.5" font-family="Helvetica,sans-Serif" font-size="10.00">AbstractEmailBuilder.buildEmail</text>
</a>
</g>
</g>
<!-- Node3&#45;&gt;Node4 -->
<g id="edge3" class="edge"><title>Node3&#45;&gt;Node4</title>
<path fill="none" stroke="midnightblue" d="M355.18,-401.529C387.928,-408.592 427.133,-417.048 461.032,-424.36"/>
<polygon fill="midnightblue" stroke="midnightblue" points="460.391,-427.802 470.904,-426.489 461.867,-420.959 460.391,-427.802"/>
</g>
<!-- Node5 -->
<g id="node5" class="node"><title>Node5</title>
<g id="a_node5"><a xlink:href="classcom_1_1tomoparts_1_1tomoBay_1_1model_1_1net_1_1email_1_1AbstractEmailBuilder.html#a639a9a43711a6d861c0215cfd21a618e" target="_top" xlink:title="populates the MailServerSend object with a specific configuration ">
<polygon fill="white" stroke="black" points="431,-366 431,-407 652,-407 652,-366 431,-366"/>
<text text-anchor="start" x="439" y="-395" font-family="Helvetica,sans-Serif" font-size="10.00">com.tomoparts.tomoBay.model.net.email.</text>
<text text-anchor="start" x="439" y="-384" font-family="Helvetica,sans-Serif" font-size="10.00">AbstractEmailBuilder.buildMailServerSend</text>
<text text-anchor="middle" x="541.5" y="-373" font-family="Helvetica,sans-Serif" font-size="10.00">Connection</text>
</a>
</g>
</g>
<!-- Node3&#45;&gt;Node5 -->
<g id="edge4" class="edge"><title>Node3&#45;&gt;Node5</title>
<path fill="none" stroke="midnightblue" d="M395.123,-386.5C403.661,-386.5 412.308,-386.5 420.907,-386.5"/>
<polygon fill="midnightblue" stroke="midnightblue" points="420.97,-390 430.97,-386.5 420.97,-383 420.97,-390"/>
</g>
<!-- Node8 -->
<g id="node8" class="node"><title>Node8</title>
<g id="a_node8"><a xlink:href="classcom_1_1tomoparts_1_1tomoBay_1_1model_1_1net_1_1email_1_1Email.html#a5c78f073f0c4c95dddbb78f7a9eb6cd2" target="_top" xlink:title="set a recipient of the email, valid RecipientType listed in Message.RecipientType : TO/CC/BCC...">
<polygon fill="white" stroke="black" points="431,-316.5 431,-346.5 652,-346.5 652,-316.5 431,-316.5"/>
<text text-anchor="start" x="439" y="-334.5" font-family="Helvetica,sans-Serif" font-size="10.00">com.tomoparts.tomoBay.model.net.email.</text>
<text text-anchor="middle" x="541.5" y="-323.5" font-family="Helvetica,sans-Serif" font-size="10.00">Email.setRecipient</text>
</a>
</g>
</g>
<!-- Node7&#45;&gt;Node8 -->
<g id="edge7" class="edge"><title>Node7&#45;&gt;Node8</title>
<path fill="none" stroke="midnightblue" d="M320.423,-259.319C342.644,-261.559 371.546,-266.524 395,-277.5 413.864,-286.328 412.294,-298.342 431,-307.5 435.093,-309.504 439.353,-311.341 443.715,-313.027"/>
<polygon fill="midnightblue" stroke="midnightblue" points="442.809,-316.42 453.404,-316.479 445.159,-309.826 442.809,-316.42"/>
</g>
<!-- Node9 -->
<g id="node9" class="node"><title>Node9</title>
<g id="a_node9"><a xlink:href="classcom_1_1tomoparts_1_1tomoBay_1_1model_1_1net_1_1email_1_1Email.html#a39f0298f055f0b78ad2ac781d38f326f" target="_top" xlink:title="set the subject line of the email. ">
<polygon fill="white" stroke="black" points="431,-267.5 431,-297.5 652,-297.5 652,-267.5 431,-267.5"/>
<text text-anchor="start" x="439" y="-285.5" font-family="Helvetica,sans-Serif" font-size="10.00">com.tomoparts.tomoBay.model.net.email.</text>
<text text-anchor="middle" x="541.5" y="-274.5" font-family="Helvetica,sans-Serif" font-size="10.00">Email.setSubject</text>
</a>
</g>
</g>
<!-- Node7&#45;&gt;Node9 -->
<g id="edge8" class="edge"><title>Node7&#45;&gt;Node9</title>
<path fill="none" stroke="midnightblue" d="M320.156,-260.898C346.295,-263.46 383.805,-267.138 420.487,-270.734"/>
<polygon fill="midnightblue" stroke="midnightblue" points="420.507,-274.253 430.801,-271.745 421.19,-267.286 420.507,-274.253"/>
</g>
<!-- Node10 -->
<g id="node10" class="node"><title>Node10</title>
<g id="a_node10"><a xlink:href="classcom_1_1tomoparts_1_1tomoBay_1_1model_1_1net_1_1email_1_1Email.html#acc7b010f914eeee1745a79004eca2481" target="_top" xlink:title="sets the email body ">
<polygon fill="white" stroke="black" points="431,-218.5 431,-248.5 652,-248.5 652,-218.5 431,-218.5"/>
<text text-anchor="start" x="439" y="-236.5" font-family="Helvetica,sans-Serif" font-size="10.00">com.tomoparts.tomoBay.model.net.email.</text>
<text text-anchor="middle" x="541.5" y="-225.5" font-family="Helvetica,sans-Serif" font-size="10.00">Email.setMessage</text>
</a>
</g>
</g>
<!-- Node7&#45;&gt;Node10 -->
<g id="edge9" class="edge"><title>Node7&#45;&gt;Node10</title>
<path fill="none" stroke="midnightblue" d="M320.156,-254.238C346.295,-251.778 383.805,-248.248 420.487,-244.795"/>
<polygon fill="midnightblue" stroke="midnightblue" points="421.172,-248.246 430.801,-243.825 420.517,-241.277 421.172,-248.246"/>
</g>
<!-- Node12 -->
<g id="node12" class="node"><title>Node12</title>
<g id="a_node12"><a xlink:href="classcom_1_1tomoparts_1_1tomoBay_1_1helpers_1_1ConfigReader.html#ab69b4a3a0fc6a7c7440362b06ec4b4d3" target="_top" xlink:title="reads the whole config file into a string ">
<polygon fill="white" stroke="black" points="452,-169.5 452,-199.5 631,-199.5 631,-169.5 452,-169.5"/>
<text text-anchor="start" x="460" y="-187.5" font-family="Helvetica,sans-Serif" font-size="10.00">com.tomoparts.tomoBay.helpers.</text>
<text text-anchor="middle" x="541.5" y="-176.5" font-family="Helvetica,sans-Serif" font-size="10.00">ConfigReader.getConfig</text>
</a>
</g>
</g>
<!-- Node11&#45;&gt;Node12 -->
<g id="edge11" class="edge"><title>Node11&#45;&gt;Node12</title>
<path fill="none" stroke="midnightblue" d="M374.329,-168.86C396.142,-170.913 419.623,-173.123 441.867,-175.217"/>
<polygon fill="midnightblue" stroke="midnightblue" points="441.705,-178.717 451.989,-176.17 442.361,-171.748 441.705,-178.717"/>
</g>
<!-- Node13 -->
<g id="node13" class="node"><title>Node13</title>
<g id="a_node13"><a xlink:href="enumcom_1_1tomoparts_1_1tomoBay_1_1helpers_1_1Config.html#a43cb99408ba4f337caad395ca67f9a6c" target="_top" xlink:title="return the string associated with the enum const ">
<polygon fill="white" stroke="black" points="452,-120.5 452,-150.5 631,-150.5 631,-120.5 452,-120.5"/>
<text text-anchor="start" x="460" y="-138.5" font-family="Helvetica,sans-Serif" font-size="10.00">com.tomoparts.tomoBay.helpers.</text>
<text text-anchor="middle" x="541.5" y="-127.5" font-family="Helvetica,sans-Serif" font-size="10.00">Config.getVar</text>
</a>
</g>
</g>
<!-- Node11&#45;&gt;Node13 -->
<g id="edge12" class="edge"><title>Node11&#45;&gt;Node13</title>
<path fill="none" stroke="midnightblue" d="M374.329,-151.791C396.142,-149.653 419.623,-147.351 441.867,-145.17"/>
<polygon fill="midnightblue" stroke="midnightblue" points="442.378,-148.637 451.989,-144.178 441.695,-141.67 442.378,-148.637"/>
</g>
<!-- Node14 -->
<g id="node14" class="node"><title>Node14</title>
<g id="a_node14"><a xlink:href="classcom_1_1tomoparts_1_1tomoBay_1_1helpers_1_1XMLParser.html#a9936151017dd4e908cf37d453b22c8ef" target="_top" xlink:title="parses an XML formatted string looking for the first tag specified in the parameters. ">
<polygon fill="white" stroke="black" points="452,-71.5 452,-101.5 631,-101.5 631,-71.5 452,-71.5"/>
<text text-anchor="start" x="460" y="-89.5" font-family="Helvetica,sans-Serif" font-size="10.00">com.tomoparts.tomoBay.helpers.</text>
<text text-anchor="middle" x="541.5" y="-78.5" font-family="Helvetica,sans-Serif" font-size="10.00">XMLParser.parse</text>
</a>
</g>
</g>
<!-- Node11&#45;&gt;Node14 -->
<g id="edge13" class="edge"><title>Node11&#45;&gt;Node14</title>
<path fill="none" stroke="midnightblue" d="M325.252,-145.451C354.281,-134.804 394.737,-120.668 431,-110.5 439.237,-108.19 447.874,-105.966 456.53,-103.866"/>
<polygon fill="midnightblue" stroke="midnightblue" points="457.37,-107.264 466.292,-101.55 455.754,-100.453 457.37,-107.264"/>
</g>
<!-- Node16 -->
<g id="node16" class="node"><title>Node16</title>
<g id="a_node16"><a xlink:href="classcom_1_1tomoparts_1_1tomoBay_1_1model_1_1net_1_1email_1_1MailServerSend.html#ae07411f271807d3f10b7e4db187d4b3c" target="_top" xlink:title="generates a MimeMessage from the Email object ">
<polygon fill="white" stroke="black" points="431,-22.5 431,-52.5 652,-52.5 652,-22.5 431,-22.5"/>
<text text-anchor="start" x="439" y="-40.5" font-family="Helvetica,sans-Serif" font-size="10.00">com.tomoparts.tomoBay.model.net.email.</text>
<text text-anchor="middle" x="541.5" y="-29.5" font-family="Helvetica,sans-Serif" font-size="10.00">MailServerSend.generateMimeMessage</text>
</a>
</g>
</g>
<!-- Node15&#45;&gt;Node16 -->
<g id="edge15" class="edge"><title>Node15&#45;&gt;Node16</title>
<path fill="none" stroke="midnightblue" d="M395.123,-37.5C403.661,-37.5 412.308,-37.5 420.907,-37.5"/>
<polygon fill="midnightblue" stroke="midnightblue" points="420.97,-41.0001 430.97,-37.5 420.97,-34.0001 420.97,-41.0001"/>
</g>
<!-- Node17 -->
<g id="node17" class="node"><title>Node17</title>
<g id="a_node17"><a xlink:href="classcom_1_1tomoparts_1_1tomoBay_1_1model_1_1net_1_1email_1_1MailServerSend.html#ab5988b28fa18ed6b82ed54193ed21ccc" target="_top" xlink:title="creates a mail server session. ">
<polygon fill="white" stroke="black" points="688,-0.5 688,-30.5 909,-30.5 909,-0.5 688,-0.5"/>
<text text-anchor="start" x="696" y="-18.5" font-family="Helvetica,sans-Serif" font-size="10.00">com.tomoparts.tomoBay.model.net.email.</text>
<text text-anchor="middle" x="798.5" y="-7.5" font-family="Helvetica,sans-Serif" font-size="10.00">MailServerSend.createMailServerSession</text>
</a>
</g>
</g>
<!-- Node15&#45;&gt;Node17 -->
<g id="edge17" class="edge"><title>Node15&#45;&gt;Node17</title>
<path fill="none" stroke="midnightblue" d="M358.459,-22.4644C381.553,-18.3788 407.25,-14.5256 431,-12.5 513.032,-5.50386 605.764,-6.34599 677.426,-8.89034"/>
<polygon fill="midnightblue" stroke="midnightblue" points="677.719,-12.4036 687.842,-9.27736 677.979,-5.40839 677.719,-12.4036"/>
</g>
<!-- Node16&#45;&gt;Node17 -->
<g id="edge16" class="edge"><title>Node16&#45;&gt;Node17</title>
<path fill="none" stroke="midnightblue" d="M652.123,-28.0423C660.661,-27.3057 669.308,-26.5597 677.907,-25.8178"/>
<polygon fill="midnightblue" stroke="midnightblue" points="678.308,-29.2964 687.97,-24.9497 677.706,-22.3223 678.308,-29.2964"/>
</g>
</g>
</svg>
        <g id="navigator" transform="translate(0 0)" fill="#404254">
                <rect fill="#f2f5e9" fill-opacity="0.5" stroke="#606060" stroke-width=".5" x="0" y="0" width="60" height="60"/>
                <use id="zoomplus" xlink:href="#zoomPlus" x="17" y="9" onmousedown="handleZoom(evt,'in')"/>
                <use id="zoomminus" xlink:href="#zoomMin" x="42" y="9" onmousedown="handleZoom(evt,'out')"/>
                <use id="reset" xlink:href="#resetDef" x="30" y="36" onmousedown="handleReset()"/>
                <g id="arrowUp" xlink:href="#dirArrow" transform="translate(30 24)" onmousedown="handlePan(0,-1)">
                  <use xlink:href="#rim" fill="#404040">
                        <set attributeName="fill" to="#808080" begin="arrowUp.mouseover" end="arrowUp.mouseout"/>
                  </use>
                  <path fill="none" stroke="white" stroke-width="1.5" d="M0,-3.0v7 M-2.5,-0.5L0,-3.0L2.5,-0.5"/>
                </g>
                <g id="arrowRight" xlink:href="#dirArrow" transform="rotate(90) translate(36 -43)" onmousedown="handlePan(1,0)">
                  <use xlink:href="#rim" fill="#404040">
                        <set attributeName="fill" to="#808080" begin="arrowRight.mouseover" end="arrowRight.mouseout"/>
                  </use>
                  <path fill="none" stroke="white" stroke-width="1.5" d="M0,-3.0v7 M-2.5,-0.5L0,-3.0L2.5,-0.5"/>
                </g>
                <g id="arrowDown" xlink:href="#dirArrow" transform="rotate(180) translate(-30 -48)" onmousedown="handlePan(0,1)">
                  <use xlink:href="#rim" fill="#404040">
                        <set attributeName="fill" to="#808080" begin="arrowDown.mouseover" end="arrowDown.mouseout"/>
                  </use>
                  <path fill="none" stroke="white" stroke-width="1.5" d="M0,-3.0v7 M-2.5,-0.5L0,-3.0L2.5,-0.5"/>
                </g>
                <g id="arrowLeft" xlink:href="#dirArrow" transform="rotate(270) translate(-36 17)" onmousedown="handlePan(-1,0)">
                  <use xlink:href="#rim" fill="#404040">
                        <set attributeName="fill" to="#808080" begin="arrowLeft.mouseover" end="arrowLeft.mouseout"/>
                  </use>
                  <path fill="none" stroke="white" stroke-width="1.5" d="M0,-3.0v7 M-2.5,-0.5L0,-3.0L2.5,-0.5"/>
                </g>
        </g>
        <svg viewBox="0 0 15 15" width="100%" height="30px" preserveAspectRatio="xMaxYMin meet">
         <g id="arrow_out" transform="scale(0.3 0.3)">
          <a xlink:href="classcom_1_1tomoparts_1_1tomoBay_1_1model_1_1net_1_1email_1_1MailClient_a9a353e90e57af1d4968845017c4d6fa8_cgraph_org.svg" target="_base">
           <rect id="button" ry="5" rx="5" y="6" x="6" height="38" width="38"
                fill="#f2f5e9" fill-opacity="0.5" stroke="#606060" stroke-width="1.0"/>
           <path id="arrow"
             d="M 11.500037,31.436501 C 11.940474,20.09759 22.043105,11.32322 32.158766,21.979434 L 37.068811,17.246167 C 37.068811,17.246167 37.088388,32 37.088388,32 L 22.160133,31.978069 C 22.160133,31.978069 26.997745,27.140456 26.997745,27.140456 C 18.528582,18.264221 13.291696,25.230495 11.500037,31.436501 z"
             style="fill:#404040;"/>
          </a>
         </g>
        </svg>
</svg>
