<?xml version="1.0" encoding="UTF-8" standalone="no"?>
<!DOCTYPE svg PUBLIC "-//W3C//DTD SVG 1.1//EN"
 "http://www.w3.org/Graphics/SVG/1.1/DTD/svg11.dtd">
<!-- Generated by graphviz version 2.38.0 (20140413.2041)
 -->
<!-- Title: partNo Pages: 1 -->
<svg width="1181pt" height="105pt"
 viewBox="0.00 0.00 1181.00 105.00" xmlns="http://www.w3.org/2000/svg" xmlns:xlink="http://www.w3.org/1999/xlink">
<g id="graph0" class="graph" transform="scale(1 1) rotate(0) translate(4 101)">
<title>partNo</title>
<polygon fill="white" stroke="none" points="-4,4 -4,-101 1177,-101 1177,4 -4,4"/>
<!-- Node1 -->
<g id="node1" class="node"><title>Node1</title>
<polygon fill="#bfbfbf" stroke="black" points="0,-33 0,-52 50,-52 50,-33 0,-33"/>
<text text-anchor="middle" x="25" y="-40" font-family="Helvetica,sans-Serif" font-size="10.00">partNo</text>
</g>
<!-- Node2 -->
<g id="node2" class="node"><title>Node2</title>
<g id="a_node2"><a xlink:href="classcom_1_1tomoparts_1_1tomoBay_1_1model_1_1dataTypes_1_1financial_1_1SalesOrderDayBook_1_1PriceAdjustment.html#ad8b7947428df520815c610d319d7375a" target="_top" xlink:title="calculate the total cost (EX VAT) of the testPrices array. ">
<polygon fill="white" stroke="black" points="115.5,-50 115.5,-91 310.5,-91 310.5,-50 115.5,-50"/>
<text text-anchor="start" x="123.5" y="-79" font-family="Helvetica,sans-Serif" font-size="10.00">com.tomoparts.tomoBay.model.data</text>
<text text-anchor="start" x="123.5" y="-68" font-family="Helvetica,sans-Serif" font-size="10.00">Types.financial.SalesOrderDayBook.</text>
<text text-anchor="middle" x="213" y="-57" font-family="Helvetica,sans-Serif" font-size="10.00">PriceAdjustment.calculateTotal</text>
</a>
</g>
</g>
<!-- Node1&#45;&gt;Node2 -->
<g id="edge1" class="edge"><title>Node1&#45;&gt;Node2</title>
<path fill="none" stroke="midnightblue" d="M60.5246,-47.6973C76.192,-50.0558 95.5849,-52.9751 115.204,-55.9285"/>
<polygon fill="midnightblue" stroke="midnightblue" points="60.7259,-44.1882 50.3163,-46.1605 59.6838,-51.1102 60.7259,-44.1882"/>
</g>
<!-- Node6 -->
<g id="node6" class="node"><title>Node6</title>
<g id="a_node6"><a xlink:href="classcom_1_1tomoparts_1_1tomoBay_1_1presenters_1_1presenterActions_1_1concreteActions_1_1OrderInfo.html#a703cbb509cdc01530f19b03f573120c9" target="_top" xlink:title="formats the transaction information associated with this order ">
<polygon fill="white" stroke="black" points="86,-0.5 86,-30.5 340,-30.5 340,-0.5 86,-0.5"/>
<text text-anchor="start" x="94" y="-18.5" font-family="Helvetica,sans-Serif" font-size="10.00">com.tomoparts.tomoBay.presenters.presenter</text>
<text text-anchor="middle" x="213" y="-7.5" font-family="Helvetica,sans-Serif" font-size="10.00">Actions.concreteActions.OrderInfo.transactionInfo</text>
</a>
</g>
</g>
<!-- Node1&#45;&gt;Node6 -->
<g id="edge5" class="edge"><title>Node1&#45;&gt;Node6</title>
<path fill="none" stroke="midnightblue" d="M60.3356,-37.5158C74.2455,-35.4966 91.1146,-33.0479 108.479,-30.5272"/>
<polygon fill="midnightblue" stroke="midnightblue" points="59.7097,-34.0699 50.3163,-38.9702 60.7154,-40.9973 59.7097,-34.0699"/>
</g>
<!-- Node3 -->
<g id="node3" class="node"><title>Node3</title>
<g id="a_node3"><a xlink:href="classcom_1_1tomoparts_1_1tomoBay_1_1model_1_1dataTypes_1_1financial_1_1SalesOrderDayBook_1_1PriceAdjustment.html#ac2a5cb96c13a986d05bd0457a1971e2f" target="_top" xlink:title="calculate the adjustments necessary and apply them to the AbstractSalesDayBookLine provided as an arg...">
<polygon fill="white" stroke="black" points="403,-50 403,-91 598,-91 598,-50 403,-50"/>
<text text-anchor="start" x="411" y="-79" font-family="Helvetica,sans-Serif" font-size="10.00">com.tomoparts.tomoBay.model.data</text>
<text text-anchor="start" x="411" y="-68" font-family="Helvetica,sans-Serif" font-size="10.00">Types.financial.SalesOrderDayBook.</text>
<text text-anchor="middle" x="500.5" y="-57" font-family="Helvetica,sans-Serif" font-size="10.00">PriceAdjustment.adjust</text>
</a>
</g>
</g>
<!-- Node2&#45;&gt;Node3 -->
<g id="edge2" class="edge"><title>Node2&#45;&gt;Node3</title>
<path fill="none" stroke="midnightblue" d="M320.879,-70.5C347.807,-70.5 376.555,-70.5 402.942,-70.5"/>
<polygon fill="midnightblue" stroke="midnightblue" points="320.657,-67.0001 310.657,-70.5 320.657,-74.0001 320.657,-67.0001"/>
</g>
<!-- Node4 -->
<g id="node4" class="node"><title>Node4</title>
<g id="a_node4"><a xlink:href="classcom_1_1tomoparts_1_1tomoBay_1_1model_1_1dataTypes_1_1financial_1_1SalesOrderDayBook_1_1AbstractSalesDayBookLine.html#a0c8ce8b50d57fa99babc2c2199a39fe3" target="_top" xlink:title="com.tomoparts.tomoBay.model.data\lTypes.financial.SalesOrderDayBook.\lAbstractSalesDayBookLine.adjustPrices">
<polygon fill="white" stroke="black" points="679,-50 679,-91 885,-91 885,-50 679,-50"/>
<text text-anchor="start" x="687" y="-79" font-family="Helvetica,sans-Serif" font-size="10.00">com.tomoparts.tomoBay.model.data</text>
<text text-anchor="start" x="687" y="-68" font-family="Helvetica,sans-Serif" font-size="10.00">Types.financial.SalesOrderDayBook.</text>
<text text-anchor="middle" x="782" y="-57" font-family="Helvetica,sans-Serif" font-size="10.00">AbstractSalesDayBookLine.adjustPrices</text>
</a>
</g>
</g>
<!-- Node3&#45;&gt;Node4 -->
<g id="edge3" class="edge"><title>Node3&#45;&gt;Node4</title>
<path fill="none" stroke="midnightblue" d="M608.249,-70.5C631.367,-70.5 655.762,-70.5 678.703,-70.5"/>
<polygon fill="midnightblue" stroke="midnightblue" points="608.079,-67.0001 598.079,-70.5 608.079,-74.0001 608.079,-67.0001"/>
</g>
<!-- Node5 -->
<g id="node5" class="node"><title>Node5</title>
<g id="a_node5"><a xlink:href="classcom_1_1tomoparts_1_1tomoBay_1_1model_1_1dataTypes_1_1financial_1_1SalesOrderDayBook_1_1AbstractSalesDayBookLine.html#ae9d19609629c59f8df7ddec196fcc30c" target="_top" xlink:title="CONSTRUCTOR, creates a SalesDayBookLine based on the Order passed in as a parameter. ">
<polygon fill="white" stroke="black" points="939,-44.5 939,-96.5 1173,-96.5 1173,-44.5 939,-44.5"/>
<text text-anchor="start" x="947" y="-84.5" font-family="Helvetica,sans-Serif" font-size="10.00">com.tomoparts.tomoBay.model.data</text>
<text text-anchor="start" x="947" y="-73.5" font-family="Helvetica,sans-Serif" font-size="10.00">Types.financial.SalesOrderDayBook.</text>
<text text-anchor="start" x="947" y="-62.5" font-family="Helvetica,sans-Serif" font-size="10.00">AbstractSalesDayBookLine.AbstractSalesDay</text>
<text text-anchor="middle" x="1056" y="-51.5" font-family="Helvetica,sans-Serif" font-size="10.00">BookLine</text>
</a>
</g>
</g>
<!-- Node4&#45;&gt;Node5 -->
<g id="edge4" class="edge"><title>Node4&#45;&gt;Node5</title>
<path fill="none" stroke="midnightblue" d="M895.385,-70.5C909.668,-70.5 924.311,-70.5 938.655,-70.5"/>
<polygon fill="midnightblue" stroke="midnightblue" points="895.057,-67.0001 885.057,-70.5 895.057,-74.0001 895.057,-67.0001"/>
</g>
<!-- Node7 -->
<g id="node7" class="node"><title>Node7</title>
<g id="a_node7"><a xlink:href="classcom_1_1tomoparts_1_1tomoBay_1_1presenters_1_1presenterActions_1_1concreteActions_1_1OrderInfo.html#afeec1aeda079b77245edea1e74b25f33" target="_top" xlink:title="assembles the various parts of the order and outputs it as a fully formed JSON string. ">
<polygon fill="white" stroke="black" points="376,-0.5 376,-30.5 625,-30.5 625,-0.5 376,-0.5"/>
<text text-anchor="start" x="384" y="-18.5" font-family="Helvetica,sans-Serif" font-size="10.00">com.tomoparts.tomoBay.presenters.presenter</text>
<text text-anchor="middle" x="500.5" y="-7.5" font-family="Helvetica,sans-Serif" font-size="10.00">Actions.concreteActions.OrderInfo.formatResults</text>
</a>
</g>
</g>
<!-- Node6&#45;&gt;Node7 -->
<g id="edge6" class="edge"><title>Node6&#45;&gt;Node7</title>
<path fill="none" stroke="midnightblue" d="M350.32,-15.5C358.753,-15.5 367.217,-15.5 375.592,-15.5"/>
<polygon fill="midnightblue" stroke="midnightblue" points="350.056,-12.0001 340.056,-15.5 350.055,-19.0001 350.056,-12.0001"/>
</g>
<!-- Node8 -->
<g id="node8" class="node"><title>Node8</title>
<g id="a_node8"><a xlink:href="classcom_1_1tomoparts_1_1tomoBay_1_1presenters_1_1presenterActions_1_1concreteActions_1_1OrderInfo.html#adb3dedf31dc2c7fc796f20406c235ccd" target="_top" xlink:title="performs the action specified ">
<polygon fill="white" stroke="black" points="661,-0.5 661,-30.5 903,-30.5 903,-0.5 661,-0.5"/>
<text text-anchor="start" x="669" y="-18.5" font-family="Helvetica,sans-Serif" font-size="10.00">com.tomoparts.tomoBay.presenters.presenter</text>
<text text-anchor="middle" x="782" y="-7.5" font-family="Helvetica,sans-Serif" font-size="10.00">Actions.concreteActions.OrderInfo.execute</text>
</a>
</g>
</g>
<!-- Node7&#45;&gt;Node8 -->
<g id="edge7" class="edge"><title>Node7&#45;&gt;Node8</title>
<path fill="none" stroke="midnightblue" d="M635.322,-15.5C643.865,-15.5 652.439,-15.5 660.914,-15.5"/>
<polygon fill="midnightblue" stroke="midnightblue" points="635.313,-12.0001 625.313,-15.5 635.313,-19.0001 635.313,-12.0001"/>
</g>
</g>
</svg>
