<?xml version="1.0" encoding="UTF-8" standalone="no"?>
<!DOCTYPE svg PUBLIC "-//W3C//DTD SVG 1.1//EN"
 "http://www.w3.org/Graphics/SVG/1.1/DTD/svg11.dtd">
<!-- Generated by graphviz version 2.38.0 (20140413.2041)
 -->
<!-- Title: ConnectionManager Pages: 1 -->
<svg width="224pt" height="193pt"
 viewBox="0.00 0.00 223.50 193.00" xmlns="http://www.w3.org/2000/svg" xmlns:xlink="http://www.w3.org/1999/xlink">
<g id="graph0" class="graph" transform="scale(1 1) rotate(0) translate(4 189)">
<title>ConnectionManager</title>
<polygon fill="white" stroke="none" points="-4,4 -4,-189 219.5,-189 219.5,4 -4,4"/>
<!-- Node1 -->
<g id="node1" class="node"><title>Node1</title>
<polygon fill="#bfbfbf" stroke="black" points="6.5,-0.5 6.5,-79.5 133.5,-79.5 133.5,-0.5 6.5,-0.5"/>
<text text-anchor="middle" x="70" y="-67.5" font-family="Helvetica,sans-Serif" font-size="10.00">ConnectionManager</text>
<polyline fill="none" stroke="black" points="6.5,-60.5 133.5,-60.5 "/>
<text text-anchor="middle" x="70" y="-48.5" font-family="Helvetica,sans-Serif" font-size="10.00"> </text>
<polyline fill="none" stroke="black" points="6.5,-41.5 133.5,-41.5 "/>
<text text-anchor="start" x="14.5" y="-29.5" font-family="Helvetica,sans-Serif" font-size="10.00">+ getConnection()</text>
<text text-anchor="start" x="14.5" y="-18.5" font-family="Helvetica,sans-Serif" font-size="10.00">+ instance()</text>
<text text-anchor="start" x="14.5" y="-7.5" font-family="Helvetica,sans-Serif" font-size="10.00">&#45; ConnectionManager()</text>
</g>
<!-- Node1&#45;&gt;Node1 -->
<g id="edge1" class="edge"><title>Node1&#45;&gt;Node1</title>
<path fill="none" stroke="#404040" d="M133.558,-50.8048C144.174,-49.293 151.5,-45.6914 151.5,-40 151.5,-36.7986 149.182,-34.2584 145.265,-32.3794"/>
<polygon fill="none" stroke="#404040" points="145.137,-32.3449 138.298,-34.6298 133.558,-29.1952 140.398,-26.9103 145.137,-32.3449"/>
<text text-anchor="middle" x="183.5" y="-37.5" font-family="Helvetica,sans-Serif" font-size="10.00"> &#45;connMan_M</text>
</g>
<!-- Node2 -->
<g id="node2" class="node"><title>Node2</title>
<polygon fill="white" stroke="#bfbfbf" points="0,-127.5 0,-184.5 140,-184.5 140,-127.5 0,-127.5"/>
<text text-anchor="middle" x="70" y="-172.5" font-family="Helvetica,sans-Serif" font-size="10.00">ComboPooledDataSource</text>
<polyline fill="none" stroke="#bfbfbf" points="0,-165.5 140,-165.5 "/>
<text text-anchor="middle" x="70" y="-153.5" font-family="Helvetica,sans-Serif" font-size="10.00"> </text>
<polyline fill="none" stroke="#bfbfbf" points="0,-146.5 140,-146.5 "/>
<text text-anchor="middle" x="70" y="-134.5" font-family="Helvetica,sans-Serif" font-size="10.00"> </text>
</g>
<!-- Node2&#45;&gt;Node1 -->
<g id="edge2" class="edge"><title>Node2&#45;&gt;Node1</title>
<path fill="none" stroke="#404040" d="M70,-127.404C70,-116.63 70,-103.926 70,-91.6231"/>
<polygon fill="none" stroke="#404040" points="70.0001,-91.5406 66,-85.5406 70,-79.5406 74,-85.5405 70.0001,-91.5406"/>
<text text-anchor="middle" x="85" y="-101" font-family="Helvetica,sans-Serif" font-size="10.00"> &#45;cpds</text>
</g>
</g>
</svg>
