<?xml version="1.0" encoding="UTF-8" standalone="no"?>
<!DOCTYPE svg PUBLIC "-//W3C//DTD SVG 1.1//EN"
 "http://www.w3.org/Graphics/SVG/1.1/DTD/svg11.dtd">
<!-- Generated by graphviz version 2.38.0 (20140413.2041)
 -->
<!-- Title: emailResults Pages: 1 -->
<!--zoomable 482 -->
<svg id="main" version="1.1" xmlns="http://www.w3.org/2000/svg" xmlns:xlink="http://www.w3.org/1999/xlink" xml:space="preserve" onload="init(evt)">
<style type="text/css"><![CDATA[
.edge:hover path { stroke: red; }
.edge:hover polygon { stroke: red; fill: red; }
]]></style>
<script type="text/javascript"><![CDATA[
var edges = document.getElementsByTagName('g');
if (edges && edges.length) {
  for (var i=0;i<edges.length;i++) {
    if (edges[i].id.substr(0,4)=='edge') {
      edges[i].setAttribute('class','edge');
    }
  }
}
]]></script>
        <defs>
                <circle id="rim" cx="0" cy="0" r="7"/>
                <circle id="rim2" cx="0" cy="0" r="3.5"/>
                <g id="zoomPlus">
                        <use xlink:href="#rim" fill="#404040">
                                <set attributeName="fill" to="#808080" begin="zoomplus.mouseover" end="zoomplus.mouseout"/>
                        </use>
                        <path d="M-4,0h8M0,-4v8" fill="none" stroke="white" stroke-width="1.5" pointer-events="none"/>
                </g>
                <g id="zoomMin">
                        <use xlink:href="#rim" fill="#404040">
                                <set attributeName="fill" to="#808080" begin="zoomminus.mouseover" end="zoomminus.mouseout"/>
                        </use>
                        <path d="M-4,0h8" fill="none" stroke="white" stroke-width="1.5" pointer-events="none"/>
                </g>
                <g id="dirArrow">
                        <path fill="none" stroke="white" stroke-width="1.5" d="M0,-3.0v7 M-2.5,-0.5L0,-3.0L2.5,-0.5"/>
                </g>
               <g id="resetDef">
                       <use xlink:href="#rim2" fill="#404040">
                               <set attributeName="fill" to="#808080" begin="reset.mouseover" end="reset.mouseout"/>
                       </use>
               </g>
        </defs>

<script type="text/javascript">
var viewWidth = 1113;
var viewHeight = 482;
var sectionId = 'dynsection-10';
</script>
<script xlink:href="svgpan.js"/>
<svg id="graph" class="graph">
<g id="viewport">
<title>emailResults</title>
<polygon fill="white" stroke="none" points="-4,4 -4,-478 1109,-478 1109,4 -4,4"/>
<!-- Node1 -->
<g id="node1" class="node"><title>Node1</title>
<polygon fill="#bfbfbf" stroke="black" points="0,-241 0,-260 77,-260 77,-241 0,-241"/>
<text text-anchor="middle" x="38.5" y="-248" font-family="Helvetica,sans-Serif" font-size="10.00">emailResults</text>
</g>
<!-- Node2 -->
<g id="node2" class="node"><title>Node2</title>
<g id="a_node2"><a xlink:href="classcom_1_1tomoparts_1_1tomoBay_1_1model_1_1net_1_1email_1_1MailClient.html#af9eddf4b6d3506f30b2f282c86c59ed6" target="_top" xlink:title="sends an email containing a message and subject. ">
<polygon fill="white" stroke="black" points="113,-235.5 113,-265.5 334,-265.5 334,-235.5 113,-235.5"/>
<text text-anchor="start" x="121" y="-253.5" font-family="Helvetica,sans-Serif" font-size="10.00">com.tomoparts.tomoBay.model.net.email.</text>
<text text-anchor="middle" x="223.5" y="-242.5" font-family="Helvetica,sans-Serif" font-size="10.00">MailClient.send</text>
</a>
</g>
</g>
<!-- Node1&#45;&gt;Node2 -->
<g id="edge1" class="edge"><title>Node1&#45;&gt;Node2</title>
<path fill="none" stroke="midnightblue" d="M77.4177,-250.5C85.1763,-250.5 93.7285,-250.5 102.682,-250.5"/>
<polygon fill="midnightblue" stroke="midnightblue" points="102.94,-254 112.94,-250.5 102.94,-247 102.94,-254"/>
</g>
<!-- Node3 -->
<g id="node3" class="node"><title>Node3</title>
<g id="a_node3"><a xlink:href="classcom_1_1tomoparts_1_1tomoBay_1_1model_1_1net_1_1email_1_1EmailDirector.html#adf12228c8c87e1262bbaf8b71fb856fc" target="_top" xlink:title="initialises the email and server objects ready to be retrieved by the get methods. ">
<polygon fill="white" stroke="black" points="370,-388.5 370,-418.5 591,-418.5 591,-388.5 370,-388.5"/>
<text text-anchor="start" x="378" y="-406.5" font-family="Helvetica,sans-Serif" font-size="10.00">com.tomoparts.tomoBay.model.net.email.</text>
<text text-anchor="middle" x="480.5" y="-395.5" font-family="Helvetica,sans-Serif" font-size="10.00">EmailDirector.constructEmailAndServer</text>
</a>
</g>
</g>
<!-- Node2&#45;&gt;Node3 -->
<g id="edge2" class="edge"><title>Node2&#45;&gt;Node3</title>
<path fill="none" stroke="midnightblue" d="M249.883,-265.73C295.992,-293.395 393.525,-351.915 445.392,-383.035"/>
<polygon fill="midnightblue" stroke="midnightblue" points="443.844,-386.188 454.22,-388.332 447.446,-380.186 443.844,-386.188"/>
</g>
<!-- Node6 -->
<g id="node6" class="node"><title>Node6</title>
<g id="a_node6"><a xlink:href="classcom_1_1tomoparts_1_1tomoBay_1_1helpers_1_1ConfigReader.html#a310420c6db22982498520c2ad7a2b82f" target="_top" xlink:title="find the value of the config variable specified in the arguments. ">
<polygon fill="white" stroke="black" points="391,-284.5 391,-314.5 570,-314.5 570,-284.5 391,-284.5"/>
<text text-anchor="start" x="399" y="-302.5" font-family="Helvetica,sans-Serif" font-size="10.00">com.tomoparts.tomoBay.helpers.</text>
<text text-anchor="middle" x="480.5" y="-291.5" font-family="Helvetica,sans-Serif" font-size="10.00">ConfigReader.getConf</text>
</a>
</g>
</g>
<!-- Node2&#45;&gt;Node6 -->
<g id="edge5" class="edge"><title>Node2&#45;&gt;Node6</title>
<path fill="none" stroke="midnightblue" d="M302.741,-265.535C330.767,-270.92 362.545,-277.026 391.352,-282.562"/>
<polygon fill="midnightblue" stroke="midnightblue" points="390.926,-286.044 401.407,-284.494 392.247,-279.17 390.926,-286.044"/>
</g>
<!-- Node10 -->
<g id="node10" class="node"><title>Node10</title>
<g id="a_node10"><a xlink:href="classcom_1_1tomoparts_1_1tomoBay_1_1model_1_1net_1_1email_1_1EmailDirector.html#a37f3f83a029e5330f47fbf564e17ebb3" target="_top" xlink:title="Provides functionality to access a MailServerSend object, which allows the sending of an Email...">
<polygon fill="white" stroke="black" points="370,-235.5 370,-265.5 591,-265.5 591,-235.5 370,-235.5"/>
<text text-anchor="start" x="378" y="-253.5" font-family="Helvetica,sans-Serif" font-size="10.00">com.tomoparts.tomoBay.model.net.email.</text>
<text text-anchor="middle" x="480.5" y="-242.5" font-family="Helvetica,sans-Serif" font-size="10.00">EmailDirector.getMailSendServer</text>
</a>
</g>
</g>
<!-- Node2&#45;&gt;Node10 -->
<g id="edge9" class="edge"><title>Node2&#45;&gt;Node10</title>
<path fill="none" stroke="midnightblue" d="M334.123,-250.5C342.661,-250.5 351.308,-250.5 359.907,-250.5"/>
<polygon fill="midnightblue" stroke="midnightblue" points="359.97,-254 369.97,-250.5 359.97,-247 359.97,-254"/>
</g>
<!-- Node11 -->
<g id="node11" class="node"><title>Node11</title>
<g id="a_node11"><a xlink:href="classcom_1_1tomoparts_1_1tomoBay_1_1model_1_1net_1_1email_1_1MailServerSend.html#ae0ea6b0d6bda14c2c1ea809ca187c4be" target="_top" xlink:title="this method sends the given email using the userID and password provided in the arguments ...">
<polygon fill="white" stroke="black" points="370,-186.5 370,-216.5 591,-216.5 591,-186.5 370,-186.5"/>
<text text-anchor="start" x="378" y="-204.5" font-family="Helvetica,sans-Serif" font-size="10.00">com.tomoparts.tomoBay.model.net.email.</text>
<text text-anchor="middle" x="480.5" y="-193.5" font-family="Helvetica,sans-Serif" font-size="10.00">MailServerSend.send</text>
</a>
</g>
</g>
<!-- Node2&#45;&gt;Node11 -->
<g id="edge10" class="edge"><title>Node2&#45;&gt;Node11</title>
<path fill="none" stroke="midnightblue" d="M302.741,-235.465C330.767,-230.08 362.545,-223.974 391.352,-218.438"/>
<polygon fill="midnightblue" stroke="midnightblue" points="392.247,-221.83 401.407,-216.506 390.926,-214.956 392.247,-221.83"/>
</g>
<!-- Node14 -->
<g id="node14" class="node"><title>Node14</title>
<g id="a_node14"><a xlink:href="classcom_1_1tomoparts_1_1tomoBay_1_1model_1_1net_1_1email_1_1MailClient.html#ab932ccc2020ca1398b5eb546e77a8d63" target="_top" xlink:title="set up the email ready to use in the rest of the mail client ">
<polygon fill="white" stroke="black" points="370,-74.5 370,-104.5 591,-104.5 591,-74.5 370,-74.5"/>
<text text-anchor="start" x="378" y="-92.5" font-family="Helvetica,sans-Serif" font-size="10.00">com.tomoparts.tomoBay.model.net.email.</text>
<text text-anchor="middle" x="480.5" y="-81.5" font-family="Helvetica,sans-Serif" font-size="10.00">MailClient.setUpEmail</text>
</a>
</g>
</g>
<!-- Node2&#45;&gt;Node14 -->
<g id="edge14" class="edge"><title>Node2&#45;&gt;Node14</title>
<path fill="none" stroke="midnightblue" d="M248.49,-235.354C294.433,-206.346 394.881,-142.926 446.872,-110.101"/>
<polygon fill="midnightblue" stroke="midnightblue" points="448.801,-113.022 455.388,-104.724 445.064,-107.103 448.801,-113.022"/>
</g>
<!-- Node4 -->
<g id="node4" class="node"><title>Node4</title>
<g id="a_node4"><a xlink:href="classcom_1_1tomoparts_1_1tomoBay_1_1model_1_1net_1_1email_1_1AbstractEmailBuilder.html#a4f128fdcd61c6889df2df17738e083fe" target="_top" xlink:title="builds the Email object ">
<polygon fill="white" stroke="black" points="627,-443.5 627,-473.5 848,-473.5 848,-443.5 627,-443.5"/>
<text text-anchor="start" x="635" y="-461.5" font-family="Helvetica,sans-Serif" font-size="10.00">com.tomoparts.tomoBay.model.net.email.</text>
<text text-anchor="middle" x="737.5" y="-450.5" font-family="Helvetica,sans-Serif" font-size="10.00">AbstractEmailBuilder.buildEmail</text>
</a>
</g>
</g>
<!-- Node3&#45;&gt;Node4 -->
<g id="edge3" class="edge"><title>Node3&#45;&gt;Node4</title>
<path fill="none" stroke="midnightblue" d="M551.18,-418.529C583.928,-425.592 623.133,-434.048 657.032,-441.36"/>
<polygon fill="midnightblue" stroke="midnightblue" points="656.391,-444.802 666.904,-443.489 657.867,-437.959 656.391,-444.802"/>
</g>
<!-- Node5 -->
<g id="node5" class="node"><title>Node5</title>
<g id="a_node5"><a xlink:href="classcom_1_1tomoparts_1_1tomoBay_1_1model_1_1net_1_1email_1_1AbstractEmailBuilder.html#a639a9a43711a6d861c0215cfd21a618e" target="_top" xlink:title="populates the MailServerSend object with a specific configuration ">
<polygon fill="white" stroke="black" points="627,-383 627,-424 848,-424 848,-383 627,-383"/>
<text text-anchor="start" x="635" y="-412" font-family="Helvetica,sans-Serif" font-size="10.00">com.tomoparts.tomoBay.model.net.email.</text>
<text text-anchor="start" x="635" y="-401" font-family="Helvetica,sans-Serif" font-size="10.00">AbstractEmailBuilder.buildMailServerSend</text>
<text text-anchor="middle" x="737.5" y="-390" font-family="Helvetica,sans-Serif" font-size="10.00">Connection</text>
</a>
</g>
</g>
<!-- Node3&#45;&gt;Node5 -->
<g id="edge4" class="edge"><title>Node3&#45;&gt;Node5</title>
<path fill="none" stroke="midnightblue" d="M591.123,-403.5C599.661,-403.5 608.308,-403.5 616.907,-403.5"/>
<polygon fill="midnightblue" stroke="midnightblue" points="616.97,-407 626.97,-403.5 616.97,-400 616.97,-407"/>
</g>
<!-- Node7 -->
<g id="node7" class="node"><title>Node7</title>
<g id="a_node7"><a xlink:href="classcom_1_1tomoparts_1_1tomoBay_1_1helpers_1_1ConfigReader.html#ab69b4a3a0fc6a7c7440362b06ec4b4d3" target="_top" xlink:title="reads the whole config file into a string ">
<polygon fill="white" stroke="black" points="648,-333.5 648,-363.5 827,-363.5 827,-333.5 648,-333.5"/>
<text text-anchor="start" x="656" y="-351.5" font-family="Helvetica,sans-Serif" font-size="10.00">com.tomoparts.tomoBay.helpers.</text>
<text text-anchor="middle" x="737.5" y="-340.5" font-family="Helvetica,sans-Serif" font-size="10.00">ConfigReader.getConfig</text>
</a>
</g>
</g>
<!-- Node6&#45;&gt;Node7 -->
<g id="edge6" class="edge"><title>Node6&#45;&gt;Node7</title>
<path fill="none" stroke="midnightblue" d="M559.741,-314.535C587.767,-319.92 619.545,-326.026 648.352,-331.562"/>
<polygon fill="midnightblue" stroke="midnightblue" points="647.926,-335.044 658.407,-333.494 649.247,-328.17 647.926,-335.044"/>
</g>
<!-- Node8 -->
<g id="node8" class="node"><title>Node8</title>
<g id="a_node8"><a xlink:href="enumcom_1_1tomoparts_1_1tomoBay_1_1helpers_1_1Config.html#a43cb99408ba4f337caad395ca67f9a6c" target="_top" xlink:title="return the string associated with the enum const ">
<polygon fill="white" stroke="black" points="648,-284.5 648,-314.5 827,-314.5 827,-284.5 648,-284.5"/>
<text text-anchor="start" x="656" y="-302.5" font-family="Helvetica,sans-Serif" font-size="10.00">com.tomoparts.tomoBay.helpers.</text>
<text text-anchor="middle" x="737.5" y="-291.5" font-family="Helvetica,sans-Serif" font-size="10.00">Config.getVar</text>
</a>
</g>
</g>
<!-- Node6&#45;&gt;Node8 -->
<g id="edge7" class="edge"><title>Node6&#45;&gt;Node8</title>
<path fill="none" stroke="midnightblue" d="M570.329,-299.5C592.142,-299.5 615.623,-299.5 637.867,-299.5"/>
<polygon fill="midnightblue" stroke="midnightblue" points="637.989,-303 647.989,-299.5 637.989,-296 637.989,-303"/>
</g>
<!-- Node9 -->
<g id="node9" class="node"><title>Node9</title>
<g id="a_node9"><a xlink:href="classcom_1_1tomoparts_1_1tomoBay_1_1helpers_1_1XMLParser.html#a9936151017dd4e908cf37d453b22c8ef" target="_top" xlink:title="parses an XML formatted string looking for the first tag specified in the parameters. ">
<polygon fill="white" stroke="black" points="648,-235.5 648,-265.5 827,-265.5 827,-235.5 648,-235.5"/>
<text text-anchor="start" x="656" y="-253.5" font-family="Helvetica,sans-Serif" font-size="10.00">com.tomoparts.tomoBay.helpers.</text>
<text text-anchor="middle" x="737.5" y="-242.5" font-family="Helvetica,sans-Serif" font-size="10.00">XMLParser.parse</text>
</a>
</g>
</g>
<!-- Node6&#45;&gt;Node9 -->
<g id="edge8" class="edge"><title>Node6&#45;&gt;Node9</title>
<path fill="none" stroke="midnightblue" d="M559.741,-284.465C587.767,-279.08 619.545,-272.974 648.352,-267.438"/>
<polygon fill="midnightblue" stroke="midnightblue" points="649.247,-270.83 658.407,-265.506 647.926,-263.956 649.247,-270.83"/>
</g>
<!-- Node12 -->
<g id="node12" class="node"><title>Node12</title>
<g id="a_node12"><a xlink:href="classcom_1_1tomoparts_1_1tomoBay_1_1model_1_1net_1_1email_1_1MailServerSend.html#ab5988b28fa18ed6b82ed54193ed21ccc" target="_top" xlink:title="creates a mail server session. ">
<polygon fill="white" stroke="black" points="884,-169.5 884,-199.5 1105,-199.5 1105,-169.5 884,-169.5"/>
<text text-anchor="start" x="892" y="-187.5" font-family="Helvetica,sans-Serif" font-size="10.00">com.tomoparts.tomoBay.model.net.email.</text>
<text text-anchor="middle" x="994.5" y="-176.5" font-family="Helvetica,sans-Serif" font-size="10.00">MailServerSend.createMailServerSession</text>
</a>
</g>
</g>
<!-- Node11&#45;&gt;Node12 -->
<g id="edge11" class="edge"><title>Node11&#45;&gt;Node12</title>
<path fill="none" stroke="midnightblue" d="M591.023,-197.864C674.099,-195.105 788.193,-191.317 873.693,-188.478"/>
<polygon fill="midnightblue" stroke="midnightblue" points="873.833,-191.975 883.711,-188.145 873.6,-184.979 873.833,-191.975"/>
</g>
<!-- Node13 -->
<g id="node13" class="node"><title>Node13</title>
<g id="a_node13"><a xlink:href="classcom_1_1tomoparts_1_1tomoBay_1_1model_1_1net_1_1email_1_1MailServerSend.html#ae07411f271807d3f10b7e4db187d4b3c" target="_top" xlink:title="generates a MimeMessage from the Email object ">
<polygon fill="white" stroke="black" points="627,-147.5 627,-177.5 848,-177.5 848,-147.5 627,-147.5"/>
<text text-anchor="start" x="635" y="-165.5" font-family="Helvetica,sans-Serif" font-size="10.00">com.tomoparts.tomoBay.model.net.email.</text>
<text text-anchor="middle" x="737.5" y="-154.5" font-family="Helvetica,sans-Serif" font-size="10.00">MailServerSend.generateMimeMessage</text>
</a>
</g>
</g>
<!-- Node11&#45;&gt;Node13 -->
<g id="edge12" class="edge"><title>Node11&#45;&gt;Node13</title>
<path fill="none" stroke="midnightblue" d="M579.725,-186.477C595.643,-184.043 612.204,-181.51 628.342,-179.042"/>
<polygon fill="midnightblue" stroke="midnightblue" points="628.97,-182.487 638.326,-177.515 627.911,-175.567 628.97,-182.487"/>
</g>
<!-- Node13&#45;&gt;Node12 -->
<g id="edge13" class="edge"><title>Node13&#45;&gt;Node12</title>
<path fill="none" stroke="midnightblue" d="M848.123,-171.958C856.661,-172.694 865.308,-173.44 873.907,-174.182"/>
<polygon fill="midnightblue" stroke="midnightblue" points="873.706,-177.678 883.97,-175.05 874.308,-170.704 873.706,-177.678"/>
</g>
<!-- Node15 -->
<g id="node15" class="node"><title>Node15</title>
<g id="a_node15"><a xlink:href="classcom_1_1tomoparts_1_1tomoBay_1_1model_1_1net_1_1email_1_1Email.html#acc7b010f914eeee1745a79004eca2481" target="_top" xlink:title="sets the email body ">
<polygon fill="white" stroke="black" points="627,-98.5 627,-128.5 848,-128.5 848,-98.5 627,-98.5"/>
<text text-anchor="start" x="635" y="-116.5" font-family="Helvetica,sans-Serif" font-size="10.00">com.tomoparts.tomoBay.model.net.email.</text>
<text text-anchor="middle" x="737.5" y="-105.5" font-family="Helvetica,sans-Serif" font-size="10.00">Email.setMessage</text>
</a>
</g>
</g>
<!-- Node14&#45;&gt;Node15 -->
<g id="edge15" class="edge"><title>Node14&#45;&gt;Node15</title>
<path fill="none" stroke="midnightblue" d="M591.123,-99.8174C599.661,-100.621 608.308,-101.435 616.907,-102.244"/>
<polygon fill="midnightblue" stroke="midnightblue" points="616.686,-105.739 626.97,-103.191 617.342,-98.7695 616.686,-105.739"/>
</g>
<!-- Node16 -->
<g id="node16" class="node"><title>Node16</title>
<g id="a_node16"><a xlink:href="classcom_1_1tomoparts_1_1tomoBay_1_1model_1_1net_1_1email_1_1Email.html#a5c78f073f0c4c95dddbb78f7a9eb6cd2" target="_top" xlink:title="set a recipient of the email, valid RecipientType listed in Message.RecipientType : TO/CC/BCC...">
<polygon fill="white" stroke="black" points="627,-49.5 627,-79.5 848,-79.5 848,-49.5 627,-49.5"/>
<text text-anchor="start" x="635" y="-67.5" font-family="Helvetica,sans-Serif" font-size="10.00">com.tomoparts.tomoBay.model.net.email.</text>
<text text-anchor="middle" x="737.5" y="-56.5" font-family="Helvetica,sans-Serif" font-size="10.00">Email.setRecipient</text>
</a>
</g>
</g>
<!-- Node14&#45;&gt;Node16 -->
<g id="edge16" class="edge"><title>Node14&#45;&gt;Node16</title>
<path fill="none" stroke="midnightblue" d="M591.123,-78.7527C599.661,-77.9156 608.308,-77.0679 616.907,-76.2248"/>
<polygon fill="midnightblue" stroke="midnightblue" points="617.359,-79.6974 626.97,-75.2383 616.676,-72.7308 617.359,-79.6974"/>
</g>
<!-- Node17 -->
<g id="node17" class="node"><title>Node17</title>
<g id="a_node17"><a xlink:href="classcom_1_1tomoparts_1_1tomoBay_1_1model_1_1net_1_1email_1_1Email.html#a39f0298f055f0b78ad2ac781d38f326f" target="_top" xlink:title="set the subject line of the email. ">
<polygon fill="white" stroke="black" points="627,-0.5 627,-30.5 848,-30.5 848,-0.5 627,-0.5"/>
<text text-anchor="start" x="635" y="-18.5" font-family="Helvetica,sans-Serif" font-size="10.00">com.tomoparts.tomoBay.model.net.email.</text>
<text text-anchor="middle" x="737.5" y="-7.5" font-family="Helvetica,sans-Serif" font-size="10.00">Email.setSubject</text>
</a>
</g>
</g>
<!-- Node14&#45;&gt;Node17 -->
<g id="edge17" class="edge"><title>Node14&#45;&gt;Node17</title>
<path fill="none" stroke="midnightblue" d="M521.252,-74.4513C550.281,-63.8035 590.737,-49.6683 627,-39.5 635.237,-37.1903 643.874,-34.9662 652.53,-32.8663"/>
<polygon fill="midnightblue" stroke="midnightblue" points="653.37,-36.2644 662.292,-30.5504 651.754,-29.4535 653.37,-36.2644"/>
</g>
</g>
</svg>
        <g id="navigator" transform="translate(0 0)" fill="#404254">
                <rect fill="#f2f5e9" fill-opacity="0.5" stroke="#606060" stroke-width=".5" x="0" y="0" width="60" height="60"/>
                <use id="zoomplus" xlink:href="#zoomPlus" x="17" y="9" onmousedown="handleZoom(evt,'in')"/>
                <use id="zoomminus" xlink:href="#zoomMin" x="42" y="9" onmousedown="handleZoom(evt,'out')"/>
                <use id="reset" xlink:href="#resetDef" x="30" y="36" onmousedown="handleReset()"/>
                <g id="arrowUp" xlink:href="#dirArrow" transform="translate(30 24)" onmousedown="handlePan(0,-1)">
                  <use xlink:href="#rim" fill="#404040">
                        <set attributeName="fill" to="#808080" begin="arrowUp.mouseover" end="arrowUp.mouseout"/>
                  </use>
                  <path fill="none" stroke="white" stroke-width="1.5" d="M0,-3.0v7 M-2.5,-0.5L0,-3.0L2.5,-0.5"/>
                </g>
                <g id="arrowRight" xlink:href="#dirArrow" transform="rotate(90) translate(36 -43)" onmousedown="handlePan(1,0)">
                  <use xlink:href="#rim" fill="#404040">
                        <set attributeName="fill" to="#808080" begin="arrowRight.mouseover" end="arrowRight.mouseout"/>
                  </use>
                  <path fill="none" stroke="white" stroke-width="1.5" d="M0,-3.0v7 M-2.5,-0.5L0,-3.0L2.5,-0.5"/>
                </g>
                <g id="arrowDown" xlink:href="#dirArrow" transform="rotate(180) translate(-30 -48)" onmousedown="handlePan(0,1)">
                  <use xlink:href="#rim" fill="#404040">
                        <set attributeName="fill" to="#808080" begin="arrowDown.mouseover" end="arrowDown.mouseout"/>
                  </use>
                  <path fill="none" stroke="white" stroke-width="1.5" d="M0,-3.0v7 M-2.5,-0.5L0,-3.0L2.5,-0.5"/>
                </g>
                <g id="arrowLeft" xlink:href="#dirArrow" transform="rotate(270) translate(-36 17)" onmousedown="handlePan(-1,0)">
                  <use xlink:href="#rim" fill="#404040">
                        <set attributeName="fill" to="#808080" begin="arrowLeft.mouseover" end="arrowLeft.mouseout"/>
                  </use>
                  <path fill="none" stroke="white" stroke-width="1.5" d="M0,-3.0v7 M-2.5,-0.5L0,-3.0L2.5,-0.5"/>
                </g>
        </g>
        <svg viewBox="0 0 15 15" width="100%" height="30px" preserveAspectRatio="xMaxYMin meet">
         <g id="arrow_out" transform="scale(0.3 0.3)">
          <a xlink:href="classcom_1_1tomoparts_1_1tomoBay_1_1presenters_1_1presenterActions_1_1concreteActions_1_1InvoiceOrders_a9c77c827472e4f09aa020d55e7d33b10_cgraph_org.svg" target="_base">
           <rect id="button" ry="5" rx="5" y="6" x="6" height="38" width="38"
                fill="#f2f5e9" fill-opacity="0.5" stroke="#606060" stroke-width="1.0"/>
           <path id="arrow"
             d="M 11.500037,31.436501 C 11.940474,20.09759 22.043105,11.32322 32.158766,21.979434 L 37.068811,17.246167 C 37.068811,17.246167 37.088388,32 37.088388,32 L 22.160133,31.978069 C 22.160133,31.978069 26.997745,27.140456 26.997745,27.140456 C 18.528582,18.264221 13.291696,25.230495 11.500037,31.436501 z"
             style="fill:#404040;"/>
          </a>
         </g>
        </svg>
</svg>
