<?xml version="1.0" encoding="UTF-8" standalone="no"?>
<!DOCTYPE svg PUBLIC "-//W3C//DTD SVG 1.1//EN"
 "http://www.w3.org/Graphics/SVG/1.1/DTD/svg11.dtd">
<!-- Generated by graphviz version 2.38.0 (20140413.2041)
 -->
<!-- Title: setUpEmail Pages: 1 -->
<!--zoomable 78 -->
<svg id="main" version="1.1" xmlns="http://www.w3.org/2000/svg" xmlns:xlink="http://www.w3.org/1999/xlink" xml:space="preserve" onload="init(evt)">
<style type="text/css"><![CDATA[
.edge:hover path { stroke: red; }
.edge:hover polygon { stroke: red; fill: red; }
]]></style>
<script type="text/javascript"><![CDATA[
var edges = document.getElementsByTagName('g');
if (edges && edges.length) {
  for (var i=0;i<edges.length;i++) {
    if (edges[i].id.substr(0,4)=='edge') {
      edges[i].setAttribute('class','edge');
    }
  }
}
]]></script>
        <defs>
                <circle id="rim" cx="0" cy="0" r="7"/>
                <circle id="rim2" cx="0" cy="0" r="3.5"/>
                <g id="zoomPlus">
                        <use xlink:href="#rim" fill="#404040">
                                <set attributeName="fill" to="#808080" begin="zoomplus.mouseover" end="zoomplus.mouseout"/>
                        </use>
                        <path d="M-4,0h8M0,-4v8" fill="none" stroke="white" stroke-width="1.5" pointer-events="none"/>
                </g>
                <g id="zoomMin">
                        <use xlink:href="#rim" fill="#404040">
                                <set attributeName="fill" to="#808080" begin="zoomminus.mouseover" end="zoomminus.mouseout"/>
                        </use>
                        <path d="M-4,0h8" fill="none" stroke="white" stroke-width="1.5" pointer-events="none"/>
                </g>
                <g id="dirArrow">
                        <path fill="none" stroke="white" stroke-width="1.5" d="M0,-3.0v7 M-2.5,-0.5L0,-3.0L2.5,-0.5"/>
                </g>
               <g id="resetDef">
                       <use xlink:href="#rim2" fill="#404040">
                               <set attributeName="fill" to="#808080" begin="reset.mouseover" end="reset.mouseout"/>
                       </use>
               </g>
        </defs>

<script type="text/javascript">
var viewWidth = 733;
var viewHeight = 78;
var sectionId = 'dynsection-5';
</script>
<script xlink:href="svgpan.js"/>
<svg id="graph" class="graph">
<g id="viewport">
<title>setUpEmail</title>
<polygon fill="white" stroke="none" points="-4,4 -4,-73.5 729,-73.5 729,4 -4,4"/>
<!-- Node1 -->
<g id="node1" class="node"><title>Node1</title>
<polygon fill="#bfbfbf" stroke="black" points="0,-22.5 0,-41.5 71,-41.5 71,-22.5 0,-22.5"/>
<text text-anchor="middle" x="35.5" y="-29.5" font-family="Helvetica,sans-Serif" font-size="10.00">setUpEmail</text>
</g>
<!-- Node2 -->
<g id="node2" class="node"><title>Node2</title>
<g id="a_node2"><a xlink:href="classcom_1_1tomoparts_1_1tomoBay_1_1model_1_1net_1_1email_1_1MailClient.html#af9eddf4b6d3506f30b2f282c86c59ed6" target="_top" xlink:title="sends an email containing a message and subject. ">
<polygon fill="white" stroke="black" points="107,-22.5 107,-41.5 147,-41.5 147,-22.5 107,-22.5"/>
<text text-anchor="middle" x="127" y="-29.5" font-family="Helvetica,sans-Serif" font-size="10.00">send</text>
</a>
</g>
</g>
<!-- Node1&#45;&gt;Node2 -->
<g id="edge1" class="edge"><title>Node1&#45;&gt;Node2</title>
<path fill="none" stroke="midnightblue" d="M81.2688,-32C90.3428,-32 99.4158,-32 106.995,-32"/>
<polygon fill="midnightblue" stroke="midnightblue" points="81.1031,-28.5001 71.103,-32 81.103,-35.5001 81.1031,-28.5001"/>
</g>
<!-- Node3 -->
<g id="node3" class="node"><title>Node3</title>
<g id="a_node3"><a xlink:href="classcom_1_1tomoparts_1_1tomoBay_1_1presenters_1_1presenterActions_1_1concreteActions_1_1InvoiceOrders.html#a9c77c827472e4f09aa020d55e7d33b10" target="_top" xlink:title="com.tomoparts.tomoBay.presenters.presenter\lActions.concreteActions.InvoiceOrders.emailResults">
<polygon fill="white" stroke="black" points="183,-39 183,-69 447,-69 447,-39 183,-39"/>
<text text-anchor="start" x="191" y="-57" font-family="Helvetica,sans-Serif" font-size="10.00">com.tomoparts.tomoBay.presenters.presenter</text>
<text text-anchor="middle" x="315" y="-46" font-family="Helvetica,sans-Serif" font-size="10.00">Actions.concreteActions.InvoiceOrders.emailResults</text>
</a>
</g>
</g>
<!-- Node2&#45;&gt;Node3 -->
<g id="edge2" class="edge"><title>Node2&#45;&gt;Node3</title>
<path fill="none" stroke="midnightblue" d="M157.416,-35.4793C166.123,-36.5091 176.256,-37.7077 187.101,-38.9905"/>
<polygon fill="midnightblue" stroke="midnightblue" points="157.547,-31.9704 147.205,-34.2715 156.724,-38.922 157.547,-31.9704"/>
</g>
<!-- Node5 -->
<g id="node5" class="node"><title>Node5</title>
<g id="a_node5"><a xlink:href="classcom_1_1tomoparts_1_1tomoBay_1_1model_1_1net_1_1email_1_1MailClient.html#a9a353e90e57af1d4968845017c4d6fa8" target="_top" xlink:title="MailClient">
<polygon fill="white" stroke="black" points="284,-0.5 284,-19.5 346,-19.5 346,-0.5 284,-0.5"/>
<text text-anchor="middle" x="315" y="-7.5" font-family="Helvetica,sans-Serif" font-size="10.00">MailClient</text>
</a>
</g>
</g>
<!-- Node2&#45;&gt;Node5 -->
<g id="edge4" class="edge"><title>Node2&#45;&gt;Node5</title>
<path fill="none" stroke="midnightblue" d="M157.145,-28.5528C191.684,-24.4675 248.945,-17.6947 283.898,-13.5605"/>
<polygon fill="midnightblue" stroke="midnightblue" points="156.724,-25.078 147.205,-29.7285 157.547,-32.0296 156.724,-25.078"/>
</g>
<!-- Node4 -->
<g id="node4" class="node"><title>Node4</title>
<g id="a_node4"><a xlink:href="classcom_1_1tomoparts_1_1tomoBay_1_1presenters_1_1presenterActions_1_1concreteActions_1_1InvoiceOrders.html#adb3dedf31dc2c7fc796f20406c235ccd" target="_top" xlink:title="performs the action specified ">
<polygon fill="white" stroke="black" points="483,-39 483,-69 725,-69 725,-39 483,-39"/>
<text text-anchor="start" x="491" y="-57" font-family="Helvetica,sans-Serif" font-size="10.00">com.tomoparts.tomoBay.presenters.presenter</text>
<text text-anchor="middle" x="604" y="-46" font-family="Helvetica,sans-Serif" font-size="10.00">Actions.concreteActions.InvoiceOrders.execute</text>
</a>
</g>
</g>
<!-- Node3&#45;&gt;Node4 -->
<g id="edge3" class="edge"><title>Node3&#45;&gt;Node4</title>
<path fill="none" stroke="midnightblue" d="M457.581,-54C466.002,-54 474.432,-54 482.754,-54"/>
<polygon fill="midnightblue" stroke="midnightblue" points="457.321,-50.5001 447.321,-54 457.321,-57.5001 457.321,-50.5001"/>
</g>
</g>
</svg>
        <g id="navigator" transform="translate(0 0)" fill="#404254">
                <rect fill="#f2f5e9" fill-opacity="0.5" stroke="#606060" stroke-width=".5" x="0" y="0" width="60" height="60"/>
                <use id="zoomplus" xlink:href="#zoomPlus" x="17" y="9" onmousedown="handleZoom(evt,'in')"/>
                <use id="zoomminus" xlink:href="#zoomMin" x="42" y="9" onmousedown="handleZoom(evt,'out')"/>
                <use id="reset" xlink:href="#resetDef" x="30" y="36" onmousedown="handleReset()"/>
                <g id="arrowUp" xlink:href="#dirArrow" transform="translate(30 24)" onmousedown="handlePan(0,-1)">
                  <use xlink:href="#rim" fill="#404040">
                        <set attributeName="fill" to="#808080" begin="arrowUp.mouseover" end="arrowUp.mouseout"/>
                  </use>
                  <path fill="none" stroke="white" stroke-width="1.5" d="M0,-3.0v7 M-2.5,-0.5L0,-3.0L2.5,-0.5"/>
                </g>
                <g id="arrowRight" xlink:href="#dirArrow" transform="rotate(90) translate(36 -43)" onmousedown="handlePan(1,0)">
                  <use xlink:href="#rim" fill="#404040">
                        <set attributeName="fill" to="#808080" begin="arrowRight.mouseover" end="arrowRight.mouseout"/>
                  </use>
                  <path fill="none" stroke="white" stroke-width="1.5" d="M0,-3.0v7 M-2.5,-0.5L0,-3.0L2.5,-0.5"/>
                </g>
                <g id="arrowDown" xlink:href="#dirArrow" transform="rotate(180) translate(-30 -48)" onmousedown="handlePan(0,1)">
                  <use xlink:href="#rim" fill="#404040">
                        <set attributeName="fill" to="#808080" begin="arrowDown.mouseover" end="arrowDown.mouseout"/>
                  </use>
                  <path fill="none" stroke="white" stroke-width="1.5" d="M0,-3.0v7 M-2.5,-0.5L0,-3.0L2.5,-0.5"/>
                </g>
                <g id="arrowLeft" xlink:href="#dirArrow" transform="rotate(270) translate(-36 17)" onmousedown="handlePan(-1,0)">
                  <use xlink:href="#rim" fill="#404040">
                        <set attributeName="fill" to="#808080" begin="arrowLeft.mouseover" end="arrowLeft.mouseout"/>
                  </use>
                  <path fill="none" stroke="white" stroke-width="1.5" d="M0,-3.0v7 M-2.5,-0.5L0,-3.0L2.5,-0.5"/>
                </g>
        </g>
        <svg viewBox="0 0 15 15" width="100%" height="30px" preserveAspectRatio="xMaxYMin meet">
         <g id="arrow_out" transform="scale(0.3 0.3)">
          <a xlink:href="classcom_1_1tomoparts_1_1tomoBay_1_1model_1_1net_1_1email_1_1MailClient_ab932ccc2020ca1398b5eb546e77a8d63_icgraph_org.svg" target="_base">
           <rect id="button" ry="5" rx="5" y="6" x="6" height="38" width="38"
                fill="#f2f5e9" fill-opacity="0.5" stroke="#606060" stroke-width="1.0"/>
           <path id="arrow"
             d="M 11.500037,31.436501 C 11.940474,20.09759 22.043105,11.32322 32.158766,21.979434 L 37.068811,17.246167 C 37.068811,17.246167 37.088388,32 37.088388,32 L 22.160133,31.978069 C 22.160133,31.978069 26.997745,27.140456 26.997745,27.140456 C 18.528582,18.264221 13.291696,25.230495 11.500037,31.436501 z"
             style="fill:#404040;"/>
          </a>
         </g>
        </svg>
</svg>
