<?xml version="1.0" encoding="UTF-8" standalone="no"?>
<!DOCTYPE svg PUBLIC "-//W3C//DTD SVG 1.1//EN"
 "http://www.w3.org/Graphics/SVG/1.1/DTD/svg11.dtd">
<!-- Generated by graphviz version 2.38.0 (20140413.2041)
 -->
<!-- Title: setUpCall Pages: 1 -->
<svg width="1055pt" height="39pt"
 viewBox="0.00 0.00 1055.00 39.00" xmlns="http://www.w3.org/2000/svg" xmlns:xlink="http://www.w3.org/1999/xlink">
<g id="graph0" class="graph" transform="scale(1 1) rotate(0) translate(4 35)">
<title>setUpCall</title>
<polygon fill="white" stroke="none" points="-4,4 -4,-35 1051,-35 1051,4 -4,4"/>
<!-- Node1 -->
<g id="node1" class="node"><title>Node1</title>
<polygon fill="#bfbfbf" stroke="black" points="0,-6 0,-25 62,-25 62,-6 0,-6"/>
<text text-anchor="middle" x="31" y="-13" font-family="Helvetica,sans-Serif" font-size="10.00">setUpCall</text>
</g>
<!-- Node2 -->
<g id="node2" class="node"><title>Node2</title>
<g id="a_node2"><a xlink:href="classcom_1_1tomoparts_1_1tomoBay_1_1model_1_1eBayAPI_1_1OrdersCall.html#a6531876c53fd0c3c56eec68bd1b00df0" target="_top" xlink:title="This method performs a call to the API grabbing a list of orders for the specified number of days...">
<polygon fill="white" stroke="black" points="98,-6 98,-25 130,-25 130,-6 98,-6"/>
<text text-anchor="middle" x="114" y="-13" font-family="Helvetica,sans-Serif" font-size="10.00">call</text>
</a>
</g>
</g>
<!-- Node1&#45;&gt;Node2 -->
<g id="edge1" class="edge"><title>Node1&#45;&gt;Node2</title>
<path fill="none" stroke="midnightblue" d="M72.248,-15.5C81.2728,-15.5 90.3143,-15.5 97.5798,-15.5"/>
<polygon fill="midnightblue" stroke="midnightblue" points="72.1614,-12.0001 62.1614,-15.5 72.1614,-19.0001 72.1614,-12.0001"/>
</g>
<!-- Node3 -->
<g id="node3" class="node"><title>Node3</title>
<g id="a_node3"><a xlink:href="classcom_1_1tomoparts_1_1tomoBay_1_1model_1_1services_1_1basicEbayUpdateService_1_1OnRunning.html#ae4a4f4cadce2787c7e80005639fbd5d9" target="_top" xlink:title="this method defines what to do in the given derived state ">
<polygon fill="white" stroke="black" points="166,-0.5 166,-30.5 406,-30.5 406,-0.5 166,-0.5"/>
<text text-anchor="start" x="174" y="-18.5" font-family="Helvetica,sans-Serif" font-size="10.00">com.tomoparts.tomoBay.model.services.basic</text>
<text text-anchor="middle" x="286" y="-7.5" font-family="Helvetica,sans-Serif" font-size="10.00">EbayUpdateService.OnRunning.execute</text>
</a>
</g>
</g>
<!-- Node2&#45;&gt;Node3 -->
<g id="edge2" class="edge"><title>Node2&#45;&gt;Node3</title>
<path fill="none" stroke="midnightblue" d="M140.347,-15.5C147.776,-15.5 156.432,-15.5 165.747,-15.5"/>
<polygon fill="midnightblue" stroke="midnightblue" points="140.086,-12.0001 130.086,-15.5 140.086,-19.0001 140.086,-12.0001"/>
</g>
<!-- Node4 -->
<g id="node4" class="node"><title>Node4</title>
<g id="a_node4"><a xlink:href="classcom_1_1tomoparts_1_1tomoBay_1_1model_1_1services_1_1basicEbayUpdateService_1_1BasicEbayUpdateService.html#ae3b0a282dcba7f2d675ca89b1dd48487" target="_top" xlink:title="com.tomoparts.tomoBay.model.services.basic\lEbayUpdateService.BasicEbayUpdateService.onRunning">
<polygon fill="white" stroke="black" points="442,-0.5 442,-30.5 728,-30.5 728,-0.5 442,-0.5"/>
<text text-anchor="start" x="450" y="-18.5" font-family="Helvetica,sans-Serif" font-size="10.00">com.tomoparts.tomoBay.model.services.basic</text>
<text text-anchor="middle" x="585" y="-7.5" font-family="Helvetica,sans-Serif" font-size="10.00">EbayUpdateService.BasicEbayUpdateService.onRunning</text>
</a>
</g>
</g>
<!-- Node3&#45;&gt;Node4 -->
<g id="edge3" class="edge"><title>Node3&#45;&gt;Node4</title>
<path fill="none" stroke="midnightblue" d="M416.363,-15.5C424.826,-15.5 433.373,-15.5 441.892,-15.5"/>
<polygon fill="midnightblue" stroke="midnightblue" points="416.09,-12.0001 406.09,-15.5 416.09,-19.0001 416.09,-12.0001"/>
</g>
<!-- Node5 -->
<g id="node5" class="node"><title>Node5</title>
<g id="a_node5"><a xlink:href="classcom_1_1tomoparts_1_1tomoBay_1_1model_1_1services_1_1basicEbayUpdateService_1_1BasicEbayUpdateService.html#afd85cd6baa355d54ab15c19c16c21df9" target="_top" xlink:title="com.tomoparts.tomoBay.model.services.basic\lEbayUpdateService.BasicEbayUpdateService.onPaused">
<polygon fill="white" stroke="black" points="764,-0.5 764,-30.5 1047,-30.5 1047,-0.5 764,-0.5"/>
<text text-anchor="start" x="772" y="-18.5" font-family="Helvetica,sans-Serif" font-size="10.00">com.tomoparts.tomoBay.model.services.basic</text>
<text text-anchor="middle" x="905.5" y="-7.5" font-family="Helvetica,sans-Serif" font-size="10.00">EbayUpdateService.BasicEbayUpdateService.onPaused</text>
</a>
</g>
</g>
<!-- Node4&#45;&gt;Node5 -->
<g id="edge4" class="edge"><title>Node4&#45;&gt;Node5</title>
<path fill="none" stroke="midnightblue" d="M738.12,-15.5C746.742,-15.5 755.392,-15.5 763.968,-15.5"/>
<polygon fill="midnightblue" stroke="midnightblue" points="738.018,-12.0001 728.018,-15.5 738.018,-19.0001 738.018,-12.0001"/>
</g>
</g>
</svg>
