<?xml version="1.0" encoding="UTF-8" standalone="no"?>
<!DOCTYPE svg PUBLIC "-//W3C//DTD SVG 1.1//EN"
 "http://www.w3.org/Graphics/SVG/1.1/DTD/svg11.dtd">
<!-- Generated by graphviz version 2.38.0 (20140413.2041)
 -->
<!-- Title: execute Pages: 1 -->
<!--zoomable 137 -->
<svg id="main" version="1.1" xmlns="http://www.w3.org/2000/svg" xmlns:xlink="http://www.w3.org/1999/xlink" xml:space="preserve" onload="init(evt)">
<style type="text/css"><![CDATA[
.edge:hover path { stroke: red; }
.edge:hover polygon { stroke: red; fill: red; }
]]></style>
<script type="text/javascript"><![CDATA[
var edges = document.getElementsByTagName('g');
if (edges && edges.length) {
  for (var i=0;i<edges.length;i++) {
    if (edges[i].id.substr(0,4)=='edge') {
      edges[i].setAttribute('class','edge');
    }
  }
}
]]></script>
        <defs>
                <circle id="rim" cx="0" cy="0" r="7"/>
                <circle id="rim2" cx="0" cy="0" r="3.5"/>
                <g id="zoomPlus">
                        <use xlink:href="#rim" fill="#404040">
                                <set attributeName="fill" to="#808080" begin="zoomplus.mouseover" end="zoomplus.mouseout"/>
                        </use>
                        <path d="M-4,0h8M0,-4v8" fill="none" stroke="white" stroke-width="1.5" pointer-events="none"/>
                </g>
                <g id="zoomMin">
                        <use xlink:href="#rim" fill="#404040">
                                <set attributeName="fill" to="#808080" begin="zoomminus.mouseover" end="zoomminus.mouseout"/>
                        </use>
                        <path d="M-4,0h8" fill="none" stroke="white" stroke-width="1.5" pointer-events="none"/>
                </g>
                <g id="dirArrow">
                        <path fill="none" stroke="white" stroke-width="1.5" d="M0,-3.0v7 M-2.5,-0.5L0,-3.0L2.5,-0.5"/>
                </g>
               <g id="resetDef">
                       <use xlink:href="#rim2" fill="#404040">
                               <set attributeName="fill" to="#808080" begin="reset.mouseover" end="reset.mouseout"/>
                       </use>
               </g>
        </defs>

<script type="text/javascript">
var viewWidth = 662;
var viewHeight = 137;
var sectionId = 'dynsection-2';
</script>
<script xlink:href="svgpan.js"/>
<svg id="graph" class="graph">
<g id="viewport">
<title>execute</title>
<polygon fill="white" stroke="none" points="-4,4 -4,-133 658,-133 658,4 -4,4"/>
<!-- Node1 -->
<g id="node1" class="node"><title>Node1</title>
<polygon fill="#bfbfbf" stroke="black" points="0,-55 0,-74 55,-74 55,-55 0,-55"/>
<text text-anchor="middle" x="27.5" y="-62" font-family="Helvetica,sans-Serif" font-size="10.00">execute</text>
</g>
<!-- Node2 -->
<g id="node2" class="node"><title>Node2</title>
<g id="a_node2"><a xlink:href="classcom_1_1tomoparts_1_1tomoBay_1_1model_1_1winstock_1_1payloads_1_1AbstractPayload.html#accbe948d47bdcb50d5d6e820df17b53f" target="_top" xlink:title="This method contains the implementiation for the specific command that this payload is applicable to...">
<polygon fill="white" stroke="black" points="91.5,-98.5 91.5,-128.5 354.5,-128.5 354.5,-98.5 91.5,-98.5"/>
<text text-anchor="start" x="99.5" y="-116.5" font-family="Helvetica,sans-Serif" font-size="10.00">com.tomoparts.tomoBay.model.winstock.payloads.</text>
<text text-anchor="middle" x="223" y="-105.5" font-family="Helvetica,sans-Serif" font-size="10.00">AbstractPayload.getPayload</text>
</a>
</g>
</g>
<!-- Node1&#45;&gt;Node2 -->
<g id="edge1" class="edge"><title>Node1&#45;&gt;Node2</title>
<path fill="none" stroke="midnightblue" d="M49.2531,-74.0127C61.2464,-79.2013 76.7396,-85.3862 91,-89.5 99.5652,-91.9709 108.522,-94.2418 117.558,-96.3171"/>
<polygon fill="midnightblue" stroke="midnightblue" points="116.858,-99.747 127.379,-98.4923 118.372,-92.9126 116.858,-99.747"/>
</g>
<!-- Node4 -->
<g id="node4" class="node"><title>Node4</title>
<g id="a_node4"><a xlink:href="classcom_1_1tomoparts_1_1tomoBay_1_1model_1_1winstock_1_1response_1_1PutInvoiceResponse.html#a4cf1590708926bf0922aea8577102605" target="_top" xlink:title="used by the AbstractWinstockCommand associated with this response to insert the raw byte values into ...">
<polygon fill="white" stroke="black" points="91,-49.5 91,-79.5 355,-79.5 355,-49.5 91,-49.5"/>
<text text-anchor="start" x="99" y="-67.5" font-family="Helvetica,sans-Serif" font-size="10.00">com.tomoparts.tomoBay.model.winstock.response.</text>
<text text-anchor="middle" x="223" y="-56.5" font-family="Helvetica,sans-Serif" font-size="10.00">PutInvoiceResponse.setResponseBytes</text>
</a>
</g>
</g>
<!-- Node1&#45;&gt;Node4 -->
<g id="edge3" class="edge"><title>Node1&#45;&gt;Node4</title>
<path fill="none" stroke="midnightblue" d="M55.4053,-64.5C62.8814,-64.5 71.5487,-64.5 80.9246,-64.5"/>
<polygon fill="midnightblue" stroke="midnightblue" points="80.9315,-68.0001 90.9315,-64.5 80.9315,-61.0001 80.9315,-68.0001"/>
</g>
<!-- Node5 -->
<g id="node5" class="node"><title>Node5</title>
<g id="a_node5"><a xlink:href="classcom_1_1tomoparts_1_1tomoBay_1_1model_1_1winstock_1_1response_1_1PutInvoiceResponse.html#a512082f1cf5ec9f6633f3e6b086bfc2e" target="_top" xlink:title="used by the AbstractWinswtock command associated with this response to insert the raw byte values tha...">
<polygon fill="white" stroke="black" points="91,-0.5 91,-30.5 355,-30.5 355,-0.5 91,-0.5"/>
<text text-anchor="start" x="99" y="-18.5" font-family="Helvetica,sans-Serif" font-size="10.00">com.tomoparts.tomoBay.model.winstock.response.</text>
<text text-anchor="middle" x="223" y="-7.5" font-family="Helvetica,sans-Serif" font-size="10.00">PutInvoiceResponse.setSentBytes</text>
</a>
</g>
</g>
<!-- Node1&#45;&gt;Node5 -->
<g id="edge4" class="edge"><title>Node1&#45;&gt;Node5</title>
<path fill="none" stroke="midnightblue" d="M50.4469,-54.9698C62.2856,-50.1115 77.2508,-44.418 91,-40.5 100.871,-37.687 111.252,-35.0986 121.671,-32.7413"/>
<polygon fill="midnightblue" stroke="midnightblue" points="122.637,-36.1127 131.655,-30.5522 121.137,-29.2751 122.637,-36.1127"/>
</g>
<!-- Node3 -->
<g id="node3" class="node"><title>Node3</title>
<g id="a_node3"><a xlink:href="classcom_1_1tomoparts_1_1tomoBay_1_1model_1_1winstock_1_1payloads_1_1AbstractPayload.html#adcaaf6dd0b7838f6139746922d0dc607" target="_top" xlink:title="reassembles the internal list as a byte[] that can be passed straight to the ClientSockets object...">
<polygon fill="white" stroke="black" points="391,-98.5 391,-128.5 654,-128.5 654,-98.5 391,-98.5"/>
<text text-anchor="start" x="399" y="-116.5" font-family="Helvetica,sans-Serif" font-size="10.00">com.tomoparts.tomoBay.model.winstock.payloads.</text>
<text text-anchor="middle" x="522.5" y="-105.5" font-family="Helvetica,sans-Serif" font-size="10.00">AbstractPayload.getResult</text>
</a>
</g>
</g>
<!-- Node2&#45;&gt;Node3 -->
<g id="edge2" class="edge"><title>Node2&#45;&gt;Node3</title>
<path fill="none" stroke="midnightblue" d="M354.921,-113.5C363.436,-113.5 372.031,-113.5 380.591,-113.5"/>
<polygon fill="midnightblue" stroke="midnightblue" points="380.616,-117 390.616,-113.5 380.616,-110 380.616,-117"/>
</g>
</g>
</svg>
        <g id="navigator" transform="translate(0 0)" fill="#404254">
                <rect fill="#f2f5e9" fill-opacity="0.5" stroke="#606060" stroke-width=".5" x="0" y="0" width="60" height="60"/>
                <use id="zoomplus" xlink:href="#zoomPlus" x="17" y="9" onmousedown="handleZoom(evt,'in')"/>
                <use id="zoomminus" xlink:href="#zoomMin" x="42" y="9" onmousedown="handleZoom(evt,'out')"/>
                <use id="reset" xlink:href="#resetDef" x="30" y="36" onmousedown="handleReset()"/>
                <g id="arrowUp" xlink:href="#dirArrow" transform="translate(30 24)" onmousedown="handlePan(0,-1)">
                  <use xlink:href="#rim" fill="#404040">
                        <set attributeName="fill" to="#808080" begin="arrowUp.mouseover" end="arrowUp.mouseout"/>
                  </use>
                  <path fill="none" stroke="white" stroke-width="1.5" d="M0,-3.0v7 M-2.5,-0.5L0,-3.0L2.5,-0.5"/>
                </g>
                <g id="arrowRight" xlink:href="#dirArrow" transform="rotate(90) translate(36 -43)" onmousedown="handlePan(1,0)">
                  <use xlink:href="#rim" fill="#404040">
                        <set attributeName="fill" to="#808080" begin="arrowRight.mouseover" end="arrowRight.mouseout"/>
                  </use>
                  <path fill="none" stroke="white" stroke-width="1.5" d="M0,-3.0v7 M-2.5,-0.5L0,-3.0L2.5,-0.5"/>
                </g>
                <g id="arrowDown" xlink:href="#dirArrow" transform="rotate(180) translate(-30 -48)" onmousedown="handlePan(0,1)">
                  <use xlink:href="#rim" fill="#404040">
                        <set attributeName="fill" to="#808080" begin="arrowDown.mouseover" end="arrowDown.mouseout"/>
                  </use>
                  <path fill="none" stroke="white" stroke-width="1.5" d="M0,-3.0v7 M-2.5,-0.5L0,-3.0L2.5,-0.5"/>
                </g>
                <g id="arrowLeft" xlink:href="#dirArrow" transform="rotate(270) translate(-36 17)" onmousedown="handlePan(-1,0)">
                  <use xlink:href="#rim" fill="#404040">
                        <set attributeName="fill" to="#808080" begin="arrowLeft.mouseover" end="arrowLeft.mouseout"/>
                  </use>
                  <path fill="none" stroke="white" stroke-width="1.5" d="M0,-3.0v7 M-2.5,-0.5L0,-3.0L2.5,-0.5"/>
                </g>
        </g>
        <svg viewBox="0 0 15 15" width="100%" height="30px" preserveAspectRatio="xMaxYMin meet">
         <g id="arrow_out" transform="scale(0.3 0.3)">
          <a xlink:href="classcom_1_1tomoparts_1_1tomoBay_1_1model_1_1winstock_1_1commands_1_1PutInvoiceCommand_a7071375027f2b78eeccfb1816c9de2c4_cgraph_org.svg" target="_base">
           <rect id="button" ry="5" rx="5" y="6" x="6" height="38" width="38"
                fill="#f2f5e9" fill-opacity="0.5" stroke="#606060" stroke-width="1.0"/>
           <path id="arrow"
             d="M 11.500037,31.436501 C 11.940474,20.09759 22.043105,11.32322 32.158766,21.979434 L 37.068811,17.246167 C 37.068811,17.246167 37.088388,32 37.088388,32 L 22.160133,31.978069 C 22.160133,31.978069 26.997745,27.140456 26.997745,27.140456 C 18.528582,18.264221 13.291696,25.230495 11.500037,31.436501 z"
             style="fill:#404040;"/>
          </a>
         </g>
        </svg>
</svg>
