<?xml version="1.0" encoding="UTF-8" standalone="no"?>
<!DOCTYPE svg PUBLIC "-//W3C//DTD SVG 1.1//EN"
 "http://www.w3.org/Graphics/SVG/1.1/DTD/svg11.dtd">
<!-- Generated by graphviz version 2.38.0 (20140413.2041)
 -->
<!-- Title: createMailServerSession Pages: 1 -->
<!--zoomable 137 -->
<svg id="main" version="1.1" xmlns="http://www.w3.org/2000/svg" xmlns:xlink="http://www.w3.org/1999/xlink" xml:space="preserve" onload="init(evt)">
<style type="text/css"><![CDATA[
.edge:hover path { stroke: red; }
.edge:hover polygon { stroke: red; fill: red; }
]]></style>
<script type="text/javascript"><![CDATA[
var edges = document.getElementsByTagName('g');
if (edges && edges.length) {
  for (var i=0;i<edges.length;i++) {
    if (edges[i].id.substr(0,4)=='edge') {
      edges[i].setAttribute('class','edge');
    }
  }
}
]]></script>
        <defs>
                <circle id="rim" cx="0" cy="0" r="7"/>
                <circle id="rim2" cx="0" cy="0" r="3.5"/>
                <g id="zoomPlus">
                        <use xlink:href="#rim" fill="#404040">
                                <set attributeName="fill" to="#808080" begin="zoomplus.mouseover" end="zoomplus.mouseout"/>
                        </use>
                        <path d="M-4,0h8M0,-4v8" fill="none" stroke="white" stroke-width="1.5" pointer-events="none"/>
                </g>
                <g id="zoomMin">
                        <use xlink:href="#rim" fill="#404040">
                                <set attributeName="fill" to="#808080" begin="zoomminus.mouseover" end="zoomminus.mouseout"/>
                        </use>
                        <path d="M-4,0h8" fill="none" stroke="white" stroke-width="1.5" pointer-events="none"/>
                </g>
                <g id="dirArrow">
                        <path fill="none" stroke="white" stroke-width="1.5" d="M0,-3.0v7 M-2.5,-0.5L0,-3.0L2.5,-0.5"/>
                </g>
               <g id="resetDef">
                       <use xlink:href="#rim2" fill="#404040">
                               <set attributeName="fill" to="#808080" begin="reset.mouseover" end="reset.mouseout"/>
                       </use>
               </g>
        </defs>

<script type="text/javascript">
var viewWidth = 1262;
var viewHeight = 137;
var sectionId = 'dynsection-5';
</script>
<script xlink:href="svgpan.js"/>
<svg id="graph" class="graph">
<g id="viewport">
<title>createMailServerSession</title>
<polygon fill="white" stroke="none" points="-4,4 -4,-133 1258,-133 1258,4 -4,4"/>
<!-- Node1 -->
<g id="node1" class="node"><title>Node1</title>
<polygon fill="#bfbfbf" stroke="black" points="0,-55 0,-74 135,-74 135,-55 0,-55"/>
<text text-anchor="middle" x="67.5" y="-62" font-family="Helvetica,sans-Serif" font-size="10.00">createMailServerSession</text>
</g>
<!-- Node2 -->
<g id="node2" class="node"><title>Node2</title>
<g id="a_node2"><a xlink:href="classcom_1_1tomoparts_1_1tomoBay_1_1model_1_1net_1_1email_1_1MailServerSend.html#ae07411f271807d3f10b7e4db187d4b3c" target="_top" xlink:title="generates a MimeMessage from the Email object ">
<polygon fill="white" stroke="black" points="171,-74 171,-93 300,-93 300,-74 171,-74"/>
<text text-anchor="middle" x="235.5" y="-81" font-family="Helvetica,sans-Serif" font-size="10.00">generateMimeMessage</text>
</a>
</g>
</g>
<!-- Node1&#45;&gt;Node2 -->
<g id="edge1" class="edge"><title>Node1&#45;&gt;Node2</title>
<path fill="none" stroke="midnightblue" d="M145.119,-73.2697C153.742,-74.2566 162.457,-75.2541 170.889,-76.2193"/>
<polygon fill="midnightblue" stroke="midnightblue" points="145.395,-69.7785 135.062,-72.1185 144.599,-76.7331 145.395,-69.7785"/>
</g>
<!-- Node3 -->
<g id="node3" class="node"><title>Node3</title>
<g id="a_node3"><a xlink:href="classcom_1_1tomoparts_1_1tomoBay_1_1model_1_1net_1_1email_1_1MailServerSend.html#ae0ea6b0d6bda14c2c1ea809ca187c4be" target="_top" xlink:title="this method sends the given email using the userID and password provided in the arguments ...">
<polygon fill="white" stroke="black" points="336,-55 336,-74 376,-74 376,-55 336,-55"/>
<text text-anchor="middle" x="356" y="-62" font-family="Helvetica,sans-Serif" font-size="10.00">send</text>
</a>
</g>
</g>
<!-- Node1&#45;&gt;Node3 -->
<g id="edge11" class="edge"><title>Node1&#45;&gt;Node3</title>
<path fill="none" stroke="midnightblue" d="M145.454,-64.5C209.962,-64.5 297.482,-64.5 335.753,-64.5"/>
<polygon fill="midnightblue" stroke="midnightblue" points="145.31,-61.0001 135.31,-64.5 145.31,-68.0001 145.31,-61.0001"/>
</g>
<!-- Node2&#45;&gt;Node3 -->
<g id="edge2" class="edge"><title>Node2&#45;&gt;Node3</title>
<path fill="none" stroke="midnightblue" d="M306.18,-72.3277C317.058,-70.5835 327.452,-68.9169 335.832,-67.5733"/>
<polygon fill="midnightblue" stroke="midnightblue" points="305.417,-68.9052 296.097,-73.9443 306.525,-75.817 305.417,-68.9052"/>
</g>
<!-- Node4 -->
<g id="node4" class="node"><title>Node4</title>
<g id="a_node4"><a xlink:href="classcom_1_1tomoparts_1_1tomoBay_1_1test_1_1unit_1_1model_1_1net_1_1email_1_1EmailTest.html#a8b260eecbaabcef8473fd87ada040682" target="_top" xlink:title="com.tomoparts.tomoBay.test.unit.model.net.email.\lEmailTest.main">
<polygon fill="white" stroke="black" points="412,-98.5 412,-128.5 676,-128.5 676,-98.5 412,-98.5"/>
<text text-anchor="start" x="420" y="-116.5" font-family="Helvetica,sans-Serif" font-size="10.00">com.tomoparts.tomoBay.test.unit.model.net.email.</text>
<text text-anchor="middle" x="544" y="-105.5" font-family="Helvetica,sans-Serif" font-size="10.00">EmailTest.main</text>
</a>
</g>
</g>
<!-- Node3&#45;&gt;Node4 -->
<g id="edge3" class="edge"><title>Node3&#45;&gt;Node4</title>
<path fill="none" stroke="midnightblue" d="M384.382,-78.5434C393.042,-82.5473 402.765,-86.6037 412,-89.5 422.81,-92.8904 434.282,-95.8622 445.765,-98.4515"/>
<polygon fill="midnightblue" stroke="midnightblue" points="385.67,-75.2793 375.14,-74.1099 382.643,-81.5907 385.67,-75.2793"/>
</g>
<!-- Node5 -->
<g id="node5" class="node"><title>Node5</title>
<g id="a_node5"><a xlink:href="classcom_1_1tomoparts_1_1tomoBay_1_1model_1_1net_1_1email_1_1MailClient.html#af9eddf4b6d3506f30b2f282c86c59ed6" target="_top" xlink:title="sends an email containing a message and subject. ">
<polygon fill="white" stroke="black" points="433.5,-49.5 433.5,-79.5 654.5,-79.5 654.5,-49.5 433.5,-49.5"/>
<text text-anchor="start" x="441.5" y="-67.5" font-family="Helvetica,sans-Serif" font-size="10.00">com.tomoparts.tomoBay.model.net.email.</text>
<text text-anchor="middle" x="544" y="-56.5" font-family="Helvetica,sans-Serif" font-size="10.00">MailClient.send</text>
</a>
</g>
</g>
<!-- Node3&#45;&gt;Node5 -->
<g id="edge4" class="edge"><title>Node3&#45;&gt;Node5</title>
<path fill="none" stroke="midnightblue" d="M386.463,-64.5C399.654,-64.5 416.113,-64.5 433.362,-64.5"/>
<polygon fill="midnightblue" stroke="midnightblue" points="386.205,-61.0001 376.205,-64.5 386.205,-68.0001 386.205,-61.0001"/>
</g>
<!-- Node9 -->
<g id="node9" class="node"><title>Node9</title>
<g id="a_node9"><a xlink:href="classcom_1_1tomoparts_1_1tomoBay_1_1model_1_1services_1_1emailErrorsService_1_1EmailErrorsMailActions.html#ae9399f5ec7881c5d18173def8068108e" target="_top" xlink:title="send the email ">
<polygon fill="white" stroke="black" points="423,-0.5 423,-30.5 665,-30.5 665,-0.5 423,-0.5"/>
<text text-anchor="start" x="431" y="-18.5" font-family="Helvetica,sans-Serif" font-size="10.00">com.tomoparts.tomoBay.model.services.email</text>
<text text-anchor="middle" x="544" y="-7.5" font-family="Helvetica,sans-Serif" font-size="10.00">ErrorsService.EmailErrorsMailActions.send</text>
</a>
</g>
</g>
<!-- Node3&#45;&gt;Node9 -->
<g id="edge8" class="edge"><title>Node3&#45;&gt;Node9</title>
<path fill="none" stroke="midnightblue" d="M385.061,-50.8203C393.566,-47.0679 403.033,-43.2739 412,-40.5 424.166,-36.7365 437.15,-33.4363 450.041,-30.5738"/>
<polygon fill="midnightblue" stroke="midnightblue" points="383.588,-47.6452 375.945,-54.9828 386.495,-54.0128 383.588,-47.6452"/>
</g>
<!-- Node6 -->
<g id="node6" class="node"><title>Node6</title>
<g id="a_node6"><a xlink:href="classcom_1_1tomoparts_1_1tomoBay_1_1presenters_1_1presenterActions_1_1concreteActions_1_1InvoiceOrders.html#a9c77c827472e4f09aa020d55e7d33b10" target="_top" xlink:title="com.tomoparts.tomoBay.presenters.presenter\lActions.concreteActions.InvoiceOrders.emailResults">
<polygon fill="white" stroke="black" points="712,-98.5 712,-128.5 976,-128.5 976,-98.5 712,-98.5"/>
<text text-anchor="start" x="720" y="-116.5" font-family="Helvetica,sans-Serif" font-size="10.00">com.tomoparts.tomoBay.presenters.presenter</text>
<text text-anchor="middle" x="844" y="-105.5" font-family="Helvetica,sans-Serif" font-size="10.00">Actions.concreteActions.InvoiceOrders.emailResults</text>
</a>
</g>
</g>
<!-- Node5&#45;&gt;Node6 -->
<g id="edge5" class="edge"><title>Node5&#45;&gt;Node6</title>
<path fill="none" stroke="midnightblue" d="M646.428,-81.1778C680.568,-86.7913 718.43,-93.017 751.738,-98.4938"/>
<polygon fill="midnightblue" stroke="midnightblue" points="646.87,-77.7036 636.435,-79.5346 645.735,-84.6108 646.87,-77.7036"/>
</g>
<!-- Node8 -->
<g id="node8" class="node"><title>Node8</title>
<g id="a_node8"><a xlink:href="classcom_1_1tomoparts_1_1tomoBay_1_1model_1_1net_1_1email_1_1MailClient.html#a9a353e90e57af1d4968845017c4d6fa8" target="_top" xlink:title="com.tomoparts.tomoBay.model.net.email.\lMailClient.MailClient">
<polygon fill="white" stroke="black" points="733.5,-49.5 733.5,-79.5 954.5,-79.5 954.5,-49.5 733.5,-49.5"/>
<text text-anchor="start" x="741.5" y="-67.5" font-family="Helvetica,sans-Serif" font-size="10.00">com.tomoparts.tomoBay.model.net.email.</text>
<text text-anchor="middle" x="844" y="-56.5" font-family="Helvetica,sans-Serif" font-size="10.00">MailClient.MailClient</text>
</a>
</g>
</g>
<!-- Node5&#45;&gt;Node8 -->
<g id="edge7" class="edge"><title>Node5&#45;&gt;Node8</title>
<path fill="none" stroke="midnightblue" d="M664.958,-64.5C687.453,-64.5 710.867,-64.5 733.039,-64.5"/>
<polygon fill="midnightblue" stroke="midnightblue" points="664.695,-61.0001 654.695,-64.5 664.695,-68.0001 664.695,-61.0001"/>
</g>
<!-- Node7 -->
<g id="node7" class="node"><title>Node7</title>
<g id="a_node7"><a xlink:href="classcom_1_1tomoparts_1_1tomoBay_1_1presenters_1_1presenterActions_1_1concreteActions_1_1InvoiceOrders.html#adb3dedf31dc2c7fc796f20406c235ccd" target="_top" xlink:title="performs the action specified ">
<polygon fill="white" stroke="black" points="1012,-98.5 1012,-128.5 1254,-128.5 1254,-98.5 1012,-98.5"/>
<text text-anchor="start" x="1020" y="-116.5" font-family="Helvetica,sans-Serif" font-size="10.00">com.tomoparts.tomoBay.presenters.presenter</text>
<text text-anchor="middle" x="1133" y="-105.5" font-family="Helvetica,sans-Serif" font-size="10.00">Actions.concreteActions.InvoiceOrders.execute</text>
</a>
</g>
</g>
<!-- Node6&#45;&gt;Node7 -->
<g id="edge6" class="edge"><title>Node6&#45;&gt;Node7</title>
<path fill="none" stroke="midnightblue" d="M986.581,-113.5C995.002,-113.5 1003.43,-113.5 1011.75,-113.5"/>
<polygon fill="midnightblue" stroke="midnightblue" points="986.321,-110 976.321,-113.5 986.321,-117 986.321,-110"/>
</g>
<!-- Node10 -->
<g id="node10" class="node"><title>Node10</title>
<g id="a_node10"><a xlink:href="classcom_1_1tomoparts_1_1tomoBay_1_1model_1_1services_1_1emailErrorsService_1_1OnRunning.html#ae4a4f4cadce2787c7e80005639fbd5d9" target="_top" xlink:title="this method defines what to do in the given derived state ">
<polygon fill="white" stroke="black" points="723,-0.5 723,-30.5 965,-30.5 965,-0.5 723,-0.5"/>
<text text-anchor="start" x="731" y="-18.5" font-family="Helvetica,sans-Serif" font-size="10.00">com.tomoparts.tomoBay.model.services.email</text>
<text text-anchor="middle" x="844" y="-7.5" font-family="Helvetica,sans-Serif" font-size="10.00">ErrorsService.OnRunning.execute</text>
</a>
</g>
</g>
<!-- Node9&#45;&gt;Node10 -->
<g id="edge9" class="edge"><title>Node9&#45;&gt;Node10</title>
<path fill="none" stroke="midnightblue" d="M675.592,-15.5C691.25,-15.5 707.183,-15.5 722.686,-15.5"/>
<polygon fill="midnightblue" stroke="midnightblue" points="675.349,-12.0001 665.349,-15.5 675.349,-19.0001 675.349,-12.0001"/>
</g>
<!-- Node11 -->
<g id="node11" class="node"><title>Node11</title>
<g id="a_node11"><a xlink:href="classcom_1_1tomoparts_1_1tomoBay_1_1model_1_1services_1_1emailErrorsService_1_1EmailErrorsService.html#ae3b0a282dcba7f2d675ca89b1dd48487" target="_top" xlink:title="com.tomoparts.tomoBay.model.services.email\lErrorsService.EmailErrorsService.onRunning">
<polygon fill="white" stroke="black" points="1012,-0.5 1012,-30.5 1254,-30.5 1254,-0.5 1012,-0.5"/>
<text text-anchor="start" x="1020" y="-18.5" font-family="Helvetica,sans-Serif" font-size="10.00">com.tomoparts.tomoBay.model.services.email</text>
<text text-anchor="middle" x="1133" y="-7.5" font-family="Helvetica,sans-Serif" font-size="10.00">ErrorsService.EmailErrorsService.onRunning</text>
</a>
</g>
</g>
<!-- Node10&#45;&gt;Node11 -->
<g id="edge10" class="edge"><title>Node10&#45;&gt;Node11</title>
<path fill="none" stroke="midnightblue" d="M975.278,-15.5C987.499,-15.5 999.848,-15.5 1011.97,-15.5"/>
<polygon fill="midnightblue" stroke="midnightblue" points="975.051,-12.0001 965.051,-15.5 975.051,-19.0001 975.051,-12.0001"/>
</g>
</g>
</svg>
        <g id="navigator" transform="translate(0 0)" fill="#404254">
                <rect fill="#f2f5e9" fill-opacity="0.5" stroke="#606060" stroke-width=".5" x="0" y="0" width="60" height="60"/>
                <use id="zoomplus" xlink:href="#zoomPlus" x="17" y="9" onmousedown="handleZoom(evt,'in')"/>
                <use id="zoomminus" xlink:href="#zoomMin" x="42" y="9" onmousedown="handleZoom(evt,'out')"/>
                <use id="reset" xlink:href="#resetDef" x="30" y="36" onmousedown="handleReset()"/>
                <g id="arrowUp" xlink:href="#dirArrow" transform="translate(30 24)" onmousedown="handlePan(0,-1)">
                  <use xlink:href="#rim" fill="#404040">
                        <set attributeName="fill" to="#808080" begin="arrowUp.mouseover" end="arrowUp.mouseout"/>
                  </use>
                  <path fill="none" stroke="white" stroke-width="1.5" d="M0,-3.0v7 M-2.5,-0.5L0,-3.0L2.5,-0.5"/>
                </g>
                <g id="arrowRight" xlink:href="#dirArrow" transform="rotate(90) translate(36 -43)" onmousedown="handlePan(1,0)">
                  <use xlink:href="#rim" fill="#404040">
                        <set attributeName="fill" to="#808080" begin="arrowRight.mouseover" end="arrowRight.mouseout"/>
                  </use>
                  <path fill="none" stroke="white" stroke-width="1.5" d="M0,-3.0v7 M-2.5,-0.5L0,-3.0L2.5,-0.5"/>
                </g>
                <g id="arrowDown" xlink:href="#dirArrow" transform="rotate(180) translate(-30 -48)" onmousedown="handlePan(0,1)">
                  <use xlink:href="#rim" fill="#404040">
                        <set attributeName="fill" to="#808080" begin="arrowDown.mouseover" end="arrowDown.mouseout"/>
                  </use>
                  <path fill="none" stroke="white" stroke-width="1.5" d="M0,-3.0v7 M-2.5,-0.5L0,-3.0L2.5,-0.5"/>
                </g>
                <g id="arrowLeft" xlink:href="#dirArrow" transform="rotate(270) translate(-36 17)" onmousedown="handlePan(-1,0)">
                  <use xlink:href="#rim" fill="#404040">
                        <set attributeName="fill" to="#808080" begin="arrowLeft.mouseover" end="arrowLeft.mouseout"/>
                  </use>
                  <path fill="none" stroke="white" stroke-width="1.5" d="M0,-3.0v7 M-2.5,-0.5L0,-3.0L2.5,-0.5"/>
                </g>
        </g>
        <svg viewBox="0 0 15 15" width="100%" height="30px" preserveAspectRatio="xMaxYMin meet">
         <g id="arrow_out" transform="scale(0.3 0.3)">
          <a xlink:href="classcom_1_1tomoparts_1_1tomoBay_1_1model_1_1net_1_1email_1_1MailServerSend_ab5988b28fa18ed6b82ed54193ed21ccc_icgraph_org.svg" target="_base">
           <rect id="button" ry="5" rx="5" y="6" x="6" height="38" width="38"
                fill="#f2f5e9" fill-opacity="0.5" stroke="#606060" stroke-width="1.0"/>
           <path id="arrow"
             d="M 11.500037,31.436501 C 11.940474,20.09759 22.043105,11.32322 32.158766,21.979434 L 37.068811,17.246167 C 37.068811,17.246167 37.088388,32 37.088388,32 L 22.160133,31.978069 C 22.160133,31.978069 26.997745,27.140456 26.997745,27.140456 C 18.528582,18.264221 13.291696,25.230495 11.500037,31.436501 z"
             style="fill:#404040;"/>
          </a>
         </g>
        </svg>
</svg>
