<?xml version="1.0" encoding="UTF-8" standalone="no"?>
<!DOCTYPE svg PUBLIC "-//W3C//DTD SVG 1.1//EN"
 "http://www.w3.org/Graphics/SVG/1.1/DTD/svg11.dtd">
<!-- Generated by graphviz version 2.38.0 (20140413.2041)
 -->
<!-- Title: OrderDetailsPresenterFactory Pages: 1 -->
<svg width="185pt" height="171pt"
 viewBox="0.00 0.00 185.00 171.00" xmlns="http://www.w3.org/2000/svg" xmlns:xlink="http://www.w3.org/1999/xlink">
<g id="graph0" class="graph" transform="scale(1 1) rotate(0) translate(4 167)">
<title>OrderDetailsPresenterFactory</title>
<polygon fill="white" stroke="none" points="-4,4 -4,-167 181,-167 181,4 -4,4"/>
<!-- Node1 -->
<g id="node1" class="node"><title>Node1</title>
<polygon fill="#bfbfbf" stroke="black" points="-1.42109e-14,-0.5 -1.42109e-14,-68.5 177,-68.5 177,-0.5 -1.42109e-14,-0.5"/>
<text text-anchor="middle" x="88.5" y="-56.5" font-family="Helvetica,sans-Serif" font-size="10.00">OrderDetailsPresenterFactory</text>
<polyline fill="none" stroke="black" points="-1.42109e-14,-49.5 177,-49.5 "/>
<text text-anchor="middle" x="88.5" y="-37.5" font-family="Helvetica,sans-Serif" font-size="10.00"> </text>
<polyline fill="none" stroke="black" points="-1.42109e-14,-30.5 177,-30.5 "/>
<text text-anchor="start" x="8" y="-18.5" font-family="Helvetica,sans-Serif" font-size="10.00">+ OrderDetailsPresenterFactory()</text>
<text text-anchor="start" x="8" y="-7.5" font-family="Helvetica,sans-Serif" font-size="10.00">+ make()</text>
</g>
<!-- Node2 -->
<g id="node2" class="node"><title>Node2</title>
<g id="a_node2"><a xlink:href="interfacecom_1_1tomoparts_1_1tomoBay_1_1presenters_1_1factories_1_1AbstractPresenterFactory.html" target="_top" xlink:title="This is the interface that all presenter factories should subscribe to. ">
<polygon fill="white" stroke="black" points="19,-105.5 19,-162.5 158,-162.5 158,-105.5 19,-105.5"/>
<text text-anchor="middle" x="88.5" y="-150.5" font-family="Helvetica,sans-Serif" font-size="10.00">AbstractPresenterFactory</text>
<polyline fill="none" stroke="black" points="19,-143.5 158,-143.5 "/>
<text text-anchor="middle" x="88.5" y="-131.5" font-family="Helvetica,sans-Serif" font-size="10.00"> </text>
<polyline fill="none" stroke="black" points="19,-124.5 158,-124.5 "/>
<text text-anchor="start" x="27" y="-112.5" font-family="Helvetica,sans-Serif" font-size="10.00">+ make()</text>
</a>
</g>
</g>
<!-- Node2&#45;&gt;Node1 -->
<g id="edge1" class="edge"><title>Node2&#45;&gt;Node1</title>
<path fill="none" stroke="midnightblue" d="M88.5,-95.0631C88.5,-86.3933 88.5,-77.2431 88.5,-68.7855"/>
<polygon fill="none" stroke="midnightblue" points="85.0001,-95.3212 88.5,-105.321 92.0001,-95.3212 85.0001,-95.3212"/>
</g>
</g>
</svg>
