<?xml version="1.0" encoding="UTF-8" standalone="no"?>
<!DOCTYPE svg PUBLIC "-//W3C//DTD SVG 1.1//EN"
 "http://www.w3.org/Graphics/SVG/1.1/DTD/svg11.dtd">
<!-- Generated by graphviz version 2.38.0 (20140413.2041)
 -->
<!-- Title: getResponseMessage Pages: 1 -->
<!--zoomable 247 -->
<svg id="main" version="1.1" xmlns="http://www.w3.org/2000/svg" xmlns:xlink="http://www.w3.org/1999/xlink" xml:space="preserve" onload="init(evt)">
<style type="text/css"><![CDATA[
.edge:hover path { stroke: red; }
.edge:hover polygon { stroke: red; fill: red; }
]]></style>
<script type="text/javascript"><![CDATA[
var edges = document.getElementsByTagName('g');
if (edges && edges.length) {
  for (var i=0;i<edges.length;i++) {
    if (edges[i].id.substr(0,4)=='edge') {
      edges[i].setAttribute('class','edge');
    }
  }
}
]]></script>
        <defs>
                <circle id="rim" cx="0" cy="0" r="7"/>
                <circle id="rim2" cx="0" cy="0" r="3.5"/>
                <g id="zoomPlus">
                        <use xlink:href="#rim" fill="#404040">
                                <set attributeName="fill" to="#808080" begin="zoomplus.mouseover" end="zoomplus.mouseout"/>
                        </use>
                        <path d="M-4,0h8M0,-4v8" fill="none" stroke="white" stroke-width="1.5" pointer-events="none"/>
                </g>
                <g id="zoomMin">
                        <use xlink:href="#rim" fill="#404040">
                                <set attributeName="fill" to="#808080" begin="zoomminus.mouseover" end="zoomminus.mouseout"/>
                        </use>
                        <path d="M-4,0h8" fill="none" stroke="white" stroke-width="1.5" pointer-events="none"/>
                </g>
                <g id="dirArrow">
                        <path fill="none" stroke="white" stroke-width="1.5" d="M0,-3.0v7 M-2.5,-0.5L0,-3.0L2.5,-0.5"/>
                </g>
               <g id="resetDef">
                       <use xlink:href="#rim2" fill="#404040">
                               <set attributeName="fill" to="#808080" begin="reset.mouseover" end="reset.mouseout"/>
                       </use>
               </g>
        </defs>

<script type="text/javascript">
var viewWidth = 1647;
var viewHeight = 247;
var sectionId = 'dynsection-1';
</script>
<script xlink:href="svgpan.js"/>
<svg id="graph" class="graph">
<g id="viewport">
<title>getResponseMessage</title>
<polygon fill="white" stroke="none" points="-4,4 -4,-242.5 1643,-242.5 1643,4 -4,4"/>
<!-- Node1 -->
<g id="node1" class="node"><title>Node1</title>
<polygon fill="#bfbfbf" stroke="black" points="0,-90.5 0,-109.5 122,-109.5 122,-90.5 0,-90.5"/>
<text text-anchor="middle" x="61" y="-97.5" font-family="Helvetica,sans-Serif" font-size="10.00">getResponseMessage</text>
</g>
<!-- Node2 -->
<g id="node2" class="node"><title>Node2</title>
<g id="a_node2"><a xlink:href="classcom_1_1tomoparts_1_1tomoBay_1_1model_1_1winstock_1_1Stock.html#a42fa652d82ed49749a0ad929a6c798d0" target="_top" xlink:title="remove the header bumpf from the bottom of the response ">
<polygon fill="white" stroke="black" points="158,-85 158,-115 375,-115 375,-85 158,-85"/>
<text text-anchor="start" x="166" y="-103" font-family="Helvetica,sans-Serif" font-size="10.00">com.tomoparts.tomoBay.model.winstock.</text>
<text text-anchor="middle" x="266.5" y="-92" font-family="Helvetica,sans-Serif" font-size="10.00">Stock.postFormatXMLString</text>
</a>
</g>
</g>
<!-- Node1&#45;&gt;Node2 -->
<g id="edge1" class="edge"><title>Node1&#45;&gt;Node2</title>
<path fill="none" stroke="midnightblue" d="M132.449,-100C140.658,-100 149.168,-100 157.735,-100"/>
<polygon fill="midnightblue" stroke="midnightblue" points="132.231,-96.5001 122.231,-100 132.231,-103.5 132.231,-96.5001"/>
</g>
<!-- Node3 -->
<g id="node3" class="node"><title>Node3</title>
<g id="a_node3"><a xlink:href="classcom_1_1tomoparts_1_1tomoBay_1_1model_1_1winstock_1_1Stock.html#a06d21b6ad2b8a746c52fadb5d4711778" target="_top" xlink:title="query winstock for the stock level of a particular part. ">
<polygon fill="white" stroke="black" points="411,-159 411,-189 628,-189 628,-159 411,-159"/>
<text text-anchor="start" x="419" y="-177" font-family="Helvetica,sans-Serif" font-size="10.00">com.tomoparts.tomoBay.model.winstock.</text>
<text text-anchor="middle" x="519.5" y="-166" font-family="Helvetica,sans-Serif" font-size="10.00">Stock.requestStockLevel</text>
</a>
</g>
</g>
<!-- Node2&#45;&gt;Node3 -->
<g id="edge2" class="edge"><title>Node2&#45;&gt;Node3</title>
<path fill="none" stroke="midnightblue" d="M317.715,-118.531C345.081,-128.279 379.668,-140.032 411,-149 423.25,-152.506 436.39,-155.878 449.131,-158.948"/>
<polygon fill="midnightblue" stroke="midnightblue" points="318.573,-115.121 307.979,-115.04 316.21,-121.71 318.573,-115.121"/>
</g>
<!-- Node9 -->
<g id="node9" class="node"><title>Node9</title>
<g id="a_node9"><a xlink:href="classcom_1_1tomoparts_1_1tomoBay_1_1model_1_1winstock_1_1Stock.html#adaf6c34595911864279e31f375aeedd1" target="_top" xlink:title="query winstock for the description of a particular part. ">
<polygon fill="white" stroke="black" points="411,-110 411,-140 628,-140 628,-110 411,-110"/>
<text text-anchor="start" x="419" y="-128" font-family="Helvetica,sans-Serif" font-size="10.00">com.tomoparts.tomoBay.model.winstock.</text>
<text text-anchor="middle" x="519.5" y="-117" font-family="Helvetica,sans-Serif" font-size="10.00">Stock.requestDescription</text>
</a>
</g>
</g>
<!-- Node2&#45;&gt;Node9 -->
<g id="edge8" class="edge"><title>Node2&#45;&gt;Node9</title>
<path fill="none" stroke="midnightblue" d="M385.073,-111.71C393.648,-112.565 402.272,-113.424 410.785,-114.271"/>
<polygon fill="midnightblue" stroke="midnightblue" points="385.337,-108.219 375.039,-110.711 384.643,-115.185 385.337,-108.219"/>
</g>
<!-- Node12 -->
<g id="node12" class="node"><title>Node12</title>
<g id="a_node12"><a xlink:href="classcom_1_1tomoparts_1_1tomoBay_1_1model_1_1winstock_1_1Stock.html#a5171bbe1448b8e4840e617ffd75cc261" target="_top" xlink:title="query winstock for the last cost price of a particular part. ">
<polygon fill="white" stroke="black" points="411,-61 411,-91 628,-91 628,-61 411,-61"/>
<text text-anchor="start" x="419" y="-79" font-family="Helvetica,sans-Serif" font-size="10.00">com.tomoparts.tomoBay.model.winstock.</text>
<text text-anchor="middle" x="519.5" y="-68" font-family="Helvetica,sans-Serif" font-size="10.00">Stock.requestLastCost</text>
</a>
</g>
</g>
<!-- Node2&#45;&gt;Node12 -->
<g id="edge11" class="edge"><title>Node2&#45;&gt;Node12</title>
<path fill="none" stroke="midnightblue" d="M385.073,-88.758C393.648,-87.9381 402.272,-87.1134 410.785,-86.2994"/>
<polygon fill="midnightblue" stroke="midnightblue" points="384.66,-85.2814 375.039,-89.7174 385.327,-92.2496 384.66,-85.2814"/>
</g>
<!-- Node14 -->
<g id="node14" class="node"><title>Node14</title>
<g id="a_node14"><a xlink:href="classcom_1_1tomoparts_1_1tomoBay_1_1model_1_1winstock_1_1Stock.html#a4cbeebb8b8e67f9e1478b8b0d77d4228" target="_top" xlink:title="query winstock for the weight of a particular invoice ">
<polygon fill="white" stroke="black" points="411,-9 411,-39 628,-39 628,-9 411,-9"/>
<text text-anchor="start" x="419" y="-27" font-family="Helvetica,sans-Serif" font-size="10.00">com.tomoparts.tomoBay.model.winstock.</text>
<text text-anchor="middle" x="519.5" y="-16" font-family="Helvetica,sans-Serif" font-size="10.00">Stock.requestInvoiceWeight</text>
</a>
</g>
</g>
<!-- Node2&#45;&gt;Node14 -->
<g id="edge14" class="edge"><title>Node2&#45;&gt;Node14</title>
<path fill="none" stroke="midnightblue" d="M318.371,-81.4794C345.662,-71.8362 379.973,-60.1766 411,-51 425.116,-46.825 440.396,-42.7341 454.882,-39.05"/>
<polygon fill="midnightblue" stroke="midnightblue" points="316.905,-78.2861 308.654,-84.9326 319.249,-84.8821 316.905,-78.2861"/>
</g>
<!-- Node4 -->
<g id="node4" class="node"><title>Node4</title>
<g id="a_node4"><a xlink:href="classcom_1_1tomoparts_1_1tomoBay_1_1model_1_1services_1_1checkErrorsService_1_1OnRunning.html#ae4a4f4cadce2787c7e80005639fbd5d9" target="_top" xlink:title="this method defines what to do in the given derived state ">
<polygon fill="white" stroke="black" points="687,-208 687,-238 930,-238 930,-208 687,-208"/>
<text text-anchor="start" x="695" y="-226" font-family="Helvetica,sans-Serif" font-size="10.00">com.tomoparts.tomoBay.model.services.check</text>
<text text-anchor="middle" x="808.5" y="-215" font-family="Helvetica,sans-Serif" font-size="10.00">ErrorsService.OnRunning.execute</text>
</a>
</g>
</g>
<!-- Node3&#45;&gt;Node4 -->
<g id="edge3" class="edge"><title>Node3&#45;&gt;Node4</title>
<path fill="none" stroke="midnightblue" d="M616.115,-190.751C632.101,-193.524 648.518,-196.357 664,-199 681.18,-201.933 699.524,-205.029 717.156,-207.986"/>
<polygon fill="midnightblue" stroke="midnightblue" points="616.681,-187.296 606.229,-189.033 615.482,-194.193 616.681,-187.296"/>
</g>
<!-- Node6 -->
<g id="node6" class="node"><title>Node6</title>
<g id="a_node6"><a xlink:href="classcom_1_1tomoparts_1_1tomoBay_1_1presenters_1_1helpers_1_1pickeability_1_1ItemStockLevel.html#a22844faa947573bb01d9313f7bdb1e56" target="_top" xlink:title="Takes the list of items generated in this.assembleItemsList and checks a PartList associated with eac...">
<polygon fill="white" stroke="black" points="664,-159 664,-189 953,-189 953,-159 664,-159"/>
<text text-anchor="start" x="672" y="-177" font-family="Helvetica,sans-Serif" font-size="10.00">com.tomoparts.tomoBay.presenters.helpers.pickeability.</text>
<text text-anchor="middle" x="808.5" y="-166" font-family="Helvetica,sans-Serif" font-size="10.00">ItemStockLevel.checkStockLevelOfItems</text>
</a>
</g>
</g>
<!-- Node3&#45;&gt;Node6 -->
<g id="edge5" class="edge"><title>Node3&#45;&gt;Node6</title>
<path fill="none" stroke="midnightblue" d="M638.33,-174C646.702,-174 655.195,-174 663.69,-174"/>
<polygon fill="midnightblue" stroke="midnightblue" points="638.185,-170.5 628.185,-174 638.185,-177.5 638.185,-170.5"/>
</g>
<!-- Node5 -->
<g id="node5" class="node"><title>Node5</title>
<g id="a_node5"><a xlink:href="classcom_1_1tomoparts_1_1tomoBay_1_1model_1_1services_1_1checkErrorsService_1_1CheckErrorsService.html#ae3b0a282dcba7f2d675ca89b1dd48487" target="_top" xlink:title="com.tomoparts.tomoBay.model.services.check\lErrorsService.CheckErrorsService.onRunning">
<polygon fill="white" stroke="black" points="1012,-208 1012,-238 1255,-238 1255,-208 1012,-208"/>
<text text-anchor="start" x="1020" y="-226" font-family="Helvetica,sans-Serif" font-size="10.00">com.tomoparts.tomoBay.model.services.check</text>
<text text-anchor="middle" x="1133.5" y="-215" font-family="Helvetica,sans-Serif" font-size="10.00">ErrorsService.CheckErrorsService.onRunning</text>
</a>
</g>
</g>
<!-- Node4&#45;&gt;Node5 -->
<g id="edge4" class="edge"><title>Node4&#45;&gt;Node5</title>
<path fill="none" stroke="midnightblue" d="M940.313,-223C963.979,-223 988.557,-223 1011.91,-223"/>
<polygon fill="midnightblue" stroke="midnightblue" points="940.233,-219.5 930.233,-223 940.233,-226.5 940.233,-219.5"/>
</g>
<!-- Node7 -->
<g id="node7" class="node"><title>Node7</title>
<g id="a_node7"><a xlink:href="classcom_1_1tomoparts_1_1tomoBay_1_1presenters_1_1helpers_1_1pickeability_1_1ItemStockLevel.html#a1aed814db05c4991e9bc719f39ea62ce" target="_top" xlink:title="com.tomoparts.tomoBay.presenters.helpers.pickeability.\lItemStockLevel.check">
<polygon fill="white" stroke="black" points="989,-159 989,-189 1278,-189 1278,-159 989,-159"/>
<text text-anchor="start" x="997" y="-177" font-family="Helvetica,sans-Serif" font-size="10.00">com.tomoparts.tomoBay.presenters.helpers.pickeability.</text>
<text text-anchor="middle" x="1133.5" y="-166" font-family="Helvetica,sans-Serif" font-size="10.00">ItemStockLevel.check</text>
</a>
</g>
</g>
<!-- Node6&#45;&gt;Node7 -->
<g id="edge6" class="edge"><title>Node6&#45;&gt;Node7</title>
<path fill="none" stroke="midnightblue" d="M963.101,-174C971.677,-174 980.282,-174 988.821,-174"/>
<polygon fill="midnightblue" stroke="midnightblue" points="963.054,-170.5 953.054,-174 963.053,-177.5 963.054,-170.5"/>
</g>
<!-- Node8 -->
<g id="node8" class="node"><title>Node8</title>
<g id="a_node8"><a xlink:href="classcom_1_1tomoparts_1_1tomoBay_1_1presenters_1_1helpers_1_1pickeability_1_1Pickeablity.html#ae05e03af15e33d53f9e0511ec0295a04" target="_top" xlink:title="default ctor ">
<polygon fill="white" stroke="black" points="1332,-159 1332,-189 1621,-189 1621,-159 1332,-159"/>
<text text-anchor="start" x="1340" y="-177" font-family="Helvetica,sans-Serif" font-size="10.00">com.tomoparts.tomoBay.presenters.helpers.pickeability.</text>
<text text-anchor="middle" x="1476.5" y="-166" font-family="Helvetica,sans-Serif" font-size="10.00">Pickeablity.Pickeablity</text>
</a>
</g>
</g>
<!-- Node7&#45;&gt;Node8 -->
<g id="edge7" class="edge"><title>Node7&#45;&gt;Node8</title>
<path fill="none" stroke="midnightblue" d="M1288.15,-174C1302.66,-174 1317.35,-174 1331.77,-174"/>
<polygon fill="midnightblue" stroke="midnightblue" points="1288.13,-170.5 1278.13,-174 1288.13,-177.5 1288.13,-170.5"/>
</g>
<!-- Node10 -->
<g id="node10" class="node"><title>Node10</title>
<g id="a_node10"><a xlink:href="classcom_1_1tomoparts_1_1tomoBay_1_1model_1_1dataTypes_1_1order_1_1Part.html#a35fa0786da9722faf378ccf27cccbea6" target="_top" xlink:title="find the description of this part, using winstock ">
<polygon fill="white" stroke="black" points="711,-110 711,-140 906,-140 906,-110 711,-110"/>
<text text-anchor="start" x="719" y="-128" font-family="Helvetica,sans-Serif" font-size="10.00">com.tomoparts.tomoBay.model.data</text>
<text text-anchor="middle" x="808.5" y="-117" font-family="Helvetica,sans-Serif" font-size="10.00">Types.order.Part.getDescription</text>
</a>
</g>
</g>
<!-- Node9&#45;&gt;Node10 -->
<g id="edge9" class="edge"><title>Node9&#45;&gt;Node10</title>
<path fill="none" stroke="midnightblue" d="M638.401,-125C662.401,-125 687.387,-125 710.557,-125"/>
<polygon fill="midnightblue" stroke="midnightblue" points="638.185,-121.5 628.185,-125 638.185,-128.5 638.185,-121.5"/>
</g>
<!-- Node11 -->
<g id="node11" class="node"><title>Node11</title>
<g id="a_node11"><a xlink:href="classcom_1_1tomoparts_1_1tomoBay_1_1model_1_1dataTypes_1_1order_1_1Part.html#a21a16cfaa442e4ae57f10d8cc440c1fa" target="_top" xlink:title="default ctor ">
<polygon fill="white" stroke="black" points="1036,-85 1036,-115 1231,-115 1231,-85 1036,-85"/>
<text text-anchor="start" x="1044" y="-103" font-family="Helvetica,sans-Serif" font-size="10.00">com.tomoparts.tomoBay.model.data</text>
<text text-anchor="middle" x="1133.5" y="-92" font-family="Helvetica,sans-Serif" font-size="10.00">Types.order.Part.Part</text>
</a>
</g>
</g>
<!-- Node10&#45;&gt;Node11 -->
<g id="edge10" class="edge"><title>Node10&#45;&gt;Node11</title>
<path fill="none" stroke="midnightblue" d="M916.621,-116.709C955.152,-113.727 998.358,-110.383 1035.94,-107.474"/>
<polygon fill="midnightblue" stroke="midnightblue" points="916.111,-113.238 906.411,-117.499 916.651,-120.217 916.111,-113.238"/>
</g>
<!-- Node13 -->
<g id="node13" class="node"><title>Node13</title>
<g id="a_node13"><a xlink:href="classcom_1_1tomoparts_1_1tomoBay_1_1model_1_1dataTypes_1_1order_1_1Part.html#aee50f745ad12c48b5f2dc8eda4fdd6ec" target="_top" xlink:title="retrieve the cost of this particular part from winstock ">
<polygon fill="white" stroke="black" points="711,-61 711,-91 906,-91 906,-61 711,-61"/>
<text text-anchor="start" x="719" y="-79" font-family="Helvetica,sans-Serif" font-size="10.00">com.tomoparts.tomoBay.model.data</text>
<text text-anchor="middle" x="808.5" y="-68" font-family="Helvetica,sans-Serif" font-size="10.00">Types.order.Part.getCost</text>
</a>
</g>
</g>
<!-- Node12&#45;&gt;Node13 -->
<g id="edge12" class="edge"><title>Node12&#45;&gt;Node13</title>
<path fill="none" stroke="midnightblue" d="M638.401,-76C662.401,-76 687.387,-76 710.557,-76"/>
<polygon fill="midnightblue" stroke="midnightblue" points="638.185,-72.5001 628.185,-76 638.185,-79.5001 638.185,-72.5001"/>
</g>
<!-- Node13&#45;&gt;Node11 -->
<g id="edge13" class="edge"><title>Node13&#45;&gt;Node11</title>
<path fill="none" stroke="midnightblue" d="M916.621,-83.9594C955.152,-86.8224 998.358,-90.0328 1035.94,-92.825"/>
<polygon fill="midnightblue" stroke="midnightblue" points="916.643,-80.4515 906.411,-83.2008 916.124,-87.4323 916.643,-80.4515"/>
</g>
<!-- Node15 -->
<g id="node15" class="node"><title>Node15</title>
<g id="a_node15"><a xlink:href="classcom_1_1tomoparts_1_1tomoBay_1_1presenters_1_1presenterActions_1_1concreteActions_1_1GenerateRoyalMailCSV.html#a47374b8c1f5da171d280ddcb6b7df252" target="_top" xlink:title="queries winstock for the weight associated with the invoice number provided as an argument...">
<polygon fill="white" stroke="black" points="687.5,-0.5 687.5,-41.5 929.5,-41.5 929.5,-0.5 687.5,-0.5"/>
<text text-anchor="start" x="695.5" y="-29.5" font-family="Helvetica,sans-Serif" font-size="10.00">com.tomoparts.tomoBay.presenters.presenter</text>
<text text-anchor="start" x="695.5" y="-18.5" font-family="Helvetica,sans-Serif" font-size="10.00">Actions.concreteActions.GenerateRoyalMail</text>
<text text-anchor="middle" x="808.5" y="-7.5" font-family="Helvetica,sans-Serif" font-size="10.00">CSV.getInvoiceWeight</text>
</a>
</g>
</g>
<!-- Node14&#45;&gt;Node15 -->
<g id="edge15" class="edge"><title>Node14&#45;&gt;Node15</title>
<path fill="none" stroke="midnightblue" d="M638.64,-22.7651C654.658,-22.5977 671.112,-22.4257 687.168,-22.2578"/>
<polygon fill="midnightblue" stroke="midnightblue" points="638.148,-19.2699 628.185,-22.8744 638.221,-26.2696 638.148,-19.2699"/>
</g>
<!-- Node16 -->
<g id="node16" class="node"><title>Node16</title>
<g id="a_node16"><a xlink:href="classcom_1_1tomoparts_1_1tomoBay_1_1presenters_1_1presenterActions_1_1concreteActions_1_1GenerateRoyalMailCSV.html#adb3dedf31dc2c7fc796f20406c235ccd" target="_top" xlink:title="performs the action specified ">
<polygon fill="white" stroke="black" points="1012.5,-0.5 1012.5,-41.5 1254.5,-41.5 1254.5,-0.5 1012.5,-0.5"/>
<text text-anchor="start" x="1020.5" y="-29.5" font-family="Helvetica,sans-Serif" font-size="10.00">com.tomoparts.tomoBay.presenters.presenter</text>
<text text-anchor="start" x="1020.5" y="-18.5" font-family="Helvetica,sans-Serif" font-size="10.00">Actions.concreteActions.GenerateRoyalMail</text>
<text text-anchor="middle" x="1133.5" y="-7.5" font-family="Helvetica,sans-Serif" font-size="10.00">CSV.execute</text>
</a>
</g>
</g>
<!-- Node15&#45;&gt;Node16 -->
<g id="edge16" class="edge"><title>Node15&#45;&gt;Node16</title>
<path fill="none" stroke="midnightblue" d="M939.967,-21C963.902,-21 988.782,-21 1012.4,-21"/>
<polygon fill="midnightblue" stroke="midnightblue" points="939.773,-17.5001 929.773,-21 939.773,-24.5001 939.773,-17.5001"/>
</g>
<!-- Node17 -->
<g id="node17" class="node"><title>Node17</title>
<g id="a_node17"><a xlink:href="classcom_1_1tomoparts_1_1tomoBay_1_1test_1_1unit_1_1presenters_1_1presenterActions_1_1concreteAcc52dba77005ac44eb6c856e3f1436b78.html#a1b260e6772d2ced79e03e1c8c5acd12b" target="_top" xlink:title="com.tomoparts.tomoBay.test.unit.presenters.presenter\lActions.concreteActions.GenerateRoyalMailCSVTest.testExecute">
<polygon fill="white" stroke="black" points="1314,-6 1314,-36 1639,-36 1639,-6 1314,-6"/>
<text text-anchor="start" x="1322" y="-24" font-family="Helvetica,sans-Serif" font-size="10.00">com.tomoparts.tomoBay.test.unit.presenters.presenter</text>
<text text-anchor="middle" x="1476.5" y="-13" font-family="Helvetica,sans-Serif" font-size="10.00">Actions.concreteActions.GenerateRoyalMailCSVTest.testExecute</text>
</a>
</g>
</g>
<!-- Node16&#45;&gt;Node17 -->
<g id="edge17" class="edge"><title>Node16&#45;&gt;Node17</title>
<path fill="none" stroke="midnightblue" d="M1265.14,-21C1281.12,-21 1297.59,-21 1313.95,-21"/>
<polygon fill="midnightblue" stroke="midnightblue" points="1264.72,-17.5001 1254.72,-21 1264.72,-24.5001 1264.72,-17.5001"/>
</g>
</g>
</svg>
        <g id="navigator" transform="translate(0 0)" fill="#404254">
                <rect fill="#f2f5e9" fill-opacity="0.5" stroke="#606060" stroke-width=".5" x="0" y="0" width="60" height="60"/>
                <use id="zoomplus" xlink:href="#zoomPlus" x="17" y="9" onmousedown="handleZoom(evt,'in')"/>
                <use id="zoomminus" xlink:href="#zoomMin" x="42" y="9" onmousedown="handleZoom(evt,'out')"/>
                <use id="reset" xlink:href="#resetDef" x="30" y="36" onmousedown="handleReset()"/>
                <g id="arrowUp" xlink:href="#dirArrow" transform="translate(30 24)" onmousedown="handlePan(0,-1)">
                  <use xlink:href="#rim" fill="#404040">
                        <set attributeName="fill" to="#808080" begin="arrowUp.mouseover" end="arrowUp.mouseout"/>
                  </use>
                  <path fill="none" stroke="white" stroke-width="1.5" d="M0,-3.0v7 M-2.5,-0.5L0,-3.0L2.5,-0.5"/>
                </g>
                <g id="arrowRight" xlink:href="#dirArrow" transform="rotate(90) translate(36 -43)" onmousedown="handlePan(1,0)">
                  <use xlink:href="#rim" fill="#404040">
                        <set attributeName="fill" to="#808080" begin="arrowRight.mouseover" end="arrowRight.mouseout"/>
                  </use>
                  <path fill="none" stroke="white" stroke-width="1.5" d="M0,-3.0v7 M-2.5,-0.5L0,-3.0L2.5,-0.5"/>
                </g>
                <g id="arrowDown" xlink:href="#dirArrow" transform="rotate(180) translate(-30 -48)" onmousedown="handlePan(0,1)">
                  <use xlink:href="#rim" fill="#404040">
                        <set attributeName="fill" to="#808080" begin="arrowDown.mouseover" end="arrowDown.mouseout"/>
                  </use>
                  <path fill="none" stroke="white" stroke-width="1.5" d="M0,-3.0v7 M-2.5,-0.5L0,-3.0L2.5,-0.5"/>
                </g>
                <g id="arrowLeft" xlink:href="#dirArrow" transform="rotate(270) translate(-36 17)" onmousedown="handlePan(-1,0)">
                  <use xlink:href="#rim" fill="#404040">
                        <set attributeName="fill" to="#808080" begin="arrowLeft.mouseover" end="arrowLeft.mouseout"/>
                  </use>
                  <path fill="none" stroke="white" stroke-width="1.5" d="M0,-3.0v7 M-2.5,-0.5L0,-3.0L2.5,-0.5"/>
                </g>
        </g>
        <svg viewBox="0 0 15 15" width="100%" height="30px" preserveAspectRatio="xMaxYMin meet">
         <g id="arrow_out" transform="scale(0.3 0.3)">
          <a xlink:href="classcom_1_1tomoparts_1_1tomoBay_1_1model_1_1net_1_1HttpResponse_afb798c825935128953439404fb763997_icgraph_org.svg" target="_base">
           <rect id="button" ry="5" rx="5" y="6" x="6" height="38" width="38"
                fill="#f2f5e9" fill-opacity="0.5" stroke="#606060" stroke-width="1.0"/>
           <path id="arrow"
             d="M 11.500037,31.436501 C 11.940474,20.09759 22.043105,11.32322 32.158766,21.979434 L 37.068811,17.246167 C 37.068811,17.246167 37.088388,32 37.088388,32 L 22.160133,31.978069 C 22.160133,31.978069 26.997745,27.140456 26.997745,27.140456 C 18.528582,18.264221 13.291696,25.230495 11.500037,31.436501 z"
             style="fill:#404040;"/>
          </a>
         </g>
        </svg>
</svg>
