<?xml version="1.0" encoding="UTF-8" standalone="no"?>
<!DOCTYPE svg PUBLIC "-//W3C//DTD SVG 1.1//EN"
 "http://www.w3.org/Graphics/SVG/1.1/DTD/svg11.dtd">
<!-- Generated by graphviz version 2.38.0 (20140413.2041)
 -->
<!-- Title: Stock Pages: 1 -->
<svg width="148pt" height="303pt"
 viewBox="0.00 0.00 148.00 303.00" xmlns="http://www.w3.org/2000/svg" xmlns:xlink="http://www.w3.org/1999/xlink">
<g id="graph0" class="graph" transform="scale(1 1) rotate(0) translate(4 299)">
<title>Stock</title>
<polygon fill="white" stroke="none" points="-4,4 -4,-299 144,-299 144,4 -4,4"/>
<!-- Node1 -->
<g id="node1" class="node"><title>Node1</title>
<polygon fill="#bfbfbf" stroke="black" points="1.5,-0.5 1.5,-156.5 138.5,-156.5 138.5,-0.5 1.5,-0.5"/>
<text text-anchor="middle" x="70" y="-144.5" font-family="Helvetica,sans-Serif" font-size="10.00">Stock</text>
<polyline fill="none" stroke="black" points="1.5,-137.5 138.5,-137.5 "/>
<text text-anchor="start" x="9.5" y="-125.5" font-family="Helvetica,sans-Serif" font-size="10.00">+ ERROR</text>
<text text-anchor="start" x="9.5" y="-114.5" font-family="Helvetica,sans-Serif" font-size="10.00">&#45; HTTP_HEADER</text>
<text text-anchor="start" x="9.5" y="-103.5" font-family="Helvetica,sans-Serif" font-size="10.00">&#45; URL_PT1_M</text>
<text text-anchor="start" x="9.5" y="-92.5" font-family="Helvetica,sans-Serif" font-size="10.00">&#45; URL_PT2_M</text>
<polyline fill="none" stroke="black" points="1.5,-85.5 138.5,-85.5 "/>
<text text-anchor="start" x="9.5" y="-73.5" font-family="Helvetica,sans-Serif" font-size="10.00">+ Stock()</text>
<text text-anchor="start" x="9.5" y="-62.5" font-family="Helvetica,sans-Serif" font-size="10.00">+ requestStockLevel()</text>
<text text-anchor="start" x="9.5" y="-51.5" font-family="Helvetica,sans-Serif" font-size="10.00">+ requestDescription()</text>
<text text-anchor="start" x="9.5" y="-40.5" font-family="Helvetica,sans-Serif" font-size="10.00">+ requestLastCost()</text>
<text text-anchor="start" x="9.5" y="-29.5" font-family="Helvetica,sans-Serif" font-size="10.00">+ requestInvoiceWeight()</text>
<text text-anchor="start" x="9.5" y="-18.5" font-family="Helvetica,sans-Serif" font-size="10.00">&#45; queryWinstockURL()</text>
<text text-anchor="start" x="9.5" y="-7.5" font-family="Helvetica,sans-Serif" font-size="10.00">&#45; postFormatXMLString()</text>
</g>
<!-- Node2 -->
<g id="node2" class="node"><title>Node2</title>
<g id="a_node2"><a xlink:href="classcom_1_1tomoparts_1_1tomoBay_1_1model_1_1net_1_1HttpResponse.html" target="_top" xlink:title="Copyright(C) 2015 Jan P.C. ">
<polygon fill="white" stroke="black" points="0,-204.5 0,-294.5 140,-294.5 140,-204.5 0,-204.5"/>
<text text-anchor="middle" x="70" y="-282.5" font-family="Helvetica,sans-Serif" font-size="10.00">HttpResponse</text>
<polyline fill="none" stroke="black" points="0,-275.5 140,-275.5 "/>
<text text-anchor="start" x="8" y="-263.5" font-family="Helvetica,sans-Serif" font-size="10.00">&#45; responseCode_M</text>
<text text-anchor="start" x="8" y="-252.5" font-family="Helvetica,sans-Serif" font-size="10.00">&#45; responseMessage_M</text>
<polyline fill="none" stroke="black" points="0,-245.5 140,-245.5 "/>
<text text-anchor="start" x="8" y="-233.5" font-family="Helvetica,sans-Serif" font-size="10.00">+ HttpResponse()</text>
<text text-anchor="start" x="8" y="-222.5" font-family="Helvetica,sans-Serif" font-size="10.00">+ getResponseCode()</text>
<text text-anchor="start" x="8" y="-211.5" font-family="Helvetica,sans-Serif" font-size="10.00">+ getResponseMessage()</text>
</a>
</g>
</g>
<!-- Node2&#45;&gt;Node1 -->
<g id="edge1" class="edge"><title>Node2&#45;&gt;Node1</title>
<path fill="none" stroke="#404040" d="M70,-204.097C70,-193.168 70,-181.075 70,-168.845"/>
<polygon fill="none" stroke="#404040" points="70.0001,-168.609 66,-162.609 70,-156.609 74,-162.609 70.0001,-168.609"/>
<text text-anchor="middle" x="102.5" y="-178" font-family="Helvetica,sans-Serif" font-size="10.00"> &#45;response_M</text>
</g>
</g>
</svg>
