<?xml version="1.0" encoding="UTF-8" standalone="no"?>
<!DOCTYPE svg PUBLIC "-//W3C//DTD SVG 1.1//EN"
 "http://www.w3.org/Graphics/SVG/1.1/DTD/svg11.dtd">
<!-- Generated by graphviz version 2.38.0 (20140413.2041)
 -->
<!-- Title: GmailBuilder Pages: 1 -->
<svg width="379pt" height="480pt"
 viewBox="0.00 0.00 378.50 480.00" xmlns="http://www.w3.org/2000/svg" xmlns:xlink="http://www.w3.org/1999/xlink">
<g id="graph0" class="graph" transform="scale(1 1) rotate(0) translate(4 476)">
<title>GmailBuilder</title>
<polygon fill="white" stroke="none" points="-4,4 -4,-476 374.5,-476 374.5,4 -4,4"/>
<!-- Node1 -->
<g id="node1" class="node"><title>Node1</title>
<polygon fill="#bfbfbf" stroke="black" points="172,-0.5 172,-79.5 359,-79.5 359,-0.5 172,-0.5"/>
<text text-anchor="middle" x="265.5" y="-67.5" font-family="Helvetica,sans-Serif" font-size="10.00">GmailBuilder</text>
<polyline fill="none" stroke="black" points="172,-60.5 359,-60.5 "/>
<text text-anchor="start" x="180" y="-48.5" font-family="Helvetica,sans-Serif" font-size="10.00">&#45; transportProtocol</text>
<text text-anchor="start" x="180" y="-37.5" font-family="Helvetica,sans-Serif" font-size="10.00">&#45; serverIP</text>
<polyline fill="none" stroke="black" points="172,-30.5 359,-30.5 "/>
<text text-anchor="start" x="180" y="-18.5" font-family="Helvetica,sans-Serif" font-size="10.00">+ GmailBuilder()</text>
<text text-anchor="start" x="180" y="-7.5" font-family="Helvetica,sans-Serif" font-size="10.00"># buildMailServerSendConnection()</text>
</g>
<!-- Node2 -->
<g id="node2" class="node"><title>Node2</title>
<g id="a_node2"><a xlink:href="classcom_1_1tomoparts_1_1tomoBay_1_1model_1_1net_1_1email_1_1AbstractEmailBuilder.html" target="_top" xlink:title="Copyright(C) 2015 Jan P.C. ">
<polygon fill="white" stroke="black" points="43,-127.5 43,-206.5 230,-206.5 230,-127.5 43,-127.5"/>
<text text-anchor="middle" x="136.5" y="-194.5" font-family="Helvetica,sans-Serif" font-size="10.00">AbstractEmailBuilder</text>
<polyline fill="none" stroke="black" points="43,-187.5 230,-187.5 "/>
<text text-anchor="middle" x="136.5" y="-175.5" font-family="Helvetica,sans-Serif" font-size="10.00"> </text>
<polyline fill="none" stroke="black" points="43,-168.5 230,-168.5 "/>
<text text-anchor="start" x="51" y="-156.5" font-family="Helvetica,sans-Serif" font-size="10.00"># AbstractEmailBuilder()</text>
<text text-anchor="start" x="51" y="-145.5" font-family="Helvetica,sans-Serif" font-size="10.00"># buildMailServerSendConnection()</text>
<text text-anchor="start" x="51" y="-134.5" font-family="Helvetica,sans-Serif" font-size="10.00"># buildEmail()</text>
</a>
</g>
</g>
<!-- Node2&#45;&gt;Node1 -->
<g id="edge1" class="edge"><title>Node2&#45;&gt;Node1</title>
<path fill="none" stroke="midnightblue" d="M183.765,-120.201C197.52,-106.873 212.403,-92.4508 225.652,-79.6121"/>
<polygon fill="none" stroke="midnightblue" points="181.003,-118.003 176.257,-127.476 185.874,-123.031 181.003,-118.003"/>
</g>
<!-- Node3 -->
<g id="node3" class="node"><title>Node3</title>
<g id="a_node3"><a xlink:href="classcom_1_1tomoparts_1_1tomoBay_1_1model_1_1net_1_1email_1_1MailServerSend.html" target="_top" xlink:title="This class represents a MailServer send connection, it allows the sending of email from a specific ad...">
<polygon fill="white" stroke="black" points="0,-254.5 0,-355.5 149,-355.5 149,-254.5 0,-254.5"/>
<text text-anchor="middle" x="74.5" y="-343.5" font-family="Helvetica,sans-Serif" font-size="10.00">MailServerSend</text>
<polyline fill="none" stroke="black" points="0,-336.5 149,-336.5 "/>
<text text-anchor="start" x="8" y="-324.5" font-family="Helvetica,sans-Serif" font-size="10.00"># transportProtocol</text>
<text text-anchor="start" x="8" y="-313.5" font-family="Helvetica,sans-Serif" font-size="10.00"># serverIP_M</text>
<polyline fill="none" stroke="black" points="0,-306.5 149,-306.5 "/>
<text text-anchor="start" x="8" y="-294.5" font-family="Helvetica,sans-Serif" font-size="10.00">+ send()</text>
<text text-anchor="start" x="8" y="-283.5" font-family="Helvetica,sans-Serif" font-size="10.00"># MailServerSend()</text>
<text text-anchor="start" x="8" y="-272.5" font-family="Helvetica,sans-Serif" font-size="10.00">&#45; generateMimeMessage()</text>
<text text-anchor="start" x="8" y="-261.5" font-family="Helvetica,sans-Serif" font-size="10.00">&#45; createMailServerSession()</text>
</a>
</g>
</g>
<!-- Node3&#45;&gt;Node2 -->
<g id="edge2" class="edge"><title>Node3&#45;&gt;Node2</title>
<path fill="none" stroke="#404040" d="M97.2345,-254.131C102.63,-242.296 108.385,-229.671 113.78,-217.838"/>
<polygon fill="none" stroke="#404040" points="113.84,-217.706 112.689,-210.587 118.818,-206.787 119.968,-213.906 113.84,-217.706"/>
<text text-anchor="middle" x="148" y="-228" font-family="Helvetica,sans-Serif" font-size="10.00"> #mailServer_M</text>
</g>
<!-- Node4 -->
<g id="node4" class="node"><title>Node4</title>
<polygon fill="white" stroke="#bfbfbf" points="42,-409 42,-466 107,-466 107,-409 42,-409"/>
<text text-anchor="middle" x="74.5" y="-454" font-family="Helvetica,sans-Serif" font-size="10.00">Properties</text>
<polyline fill="none" stroke="#bfbfbf" points="42,-447 107,-447 "/>
<text text-anchor="middle" x="74.5" y="-435" font-family="Helvetica,sans-Serif" font-size="10.00"> </text>
<polyline fill="none" stroke="#bfbfbf" points="42,-428 107,-428 "/>
<text text-anchor="middle" x="74.5" y="-416" font-family="Helvetica,sans-Serif" font-size="10.00"> </text>
</g>
<!-- Node4&#45;&gt;Node3 -->
<g id="edge3" class="edge"><title>Node4&#45;&gt;Node3</title>
<path fill="none" stroke="#404040" d="M74.5,-408.824C74.5,-396.725 74.5,-382.01 74.5,-367.54"/>
<polygon fill="none" stroke="#404040" points="74.5001,-367.505 70.5,-361.505 74.5,-355.505 78.5,-361.505 74.5001,-367.505"/>
<text text-anchor="middle" x="130.5" y="-377" font-family="Helvetica,sans-Serif" font-size="10.00"> #mailServerProperties</text>
</g>
<!-- Node5 -->
<g id="node5" class="node"><title>Node5</title>
<g id="a_node5"><a xlink:href="classcom_1_1tomoparts_1_1tomoBay_1_1model_1_1net_1_1email_1_1Email.html" target="_top" xlink:title="This class represents an email, it contains recipients a subject and a message body. ">
<polygon fill="white" stroke="black" points="167.5,-254.5 167.5,-355.5 277.5,-355.5 277.5,-254.5 167.5,-254.5"/>
<text text-anchor="middle" x="222.5" y="-343.5" font-family="Helvetica,sans-Serif" font-size="10.00">Email</text>
<polyline fill="none" stroke="black" points="167.5,-336.5 277.5,-336.5 "/>
<text text-anchor="start" x="175.5" y="-324.5" font-family="Helvetica,sans-Serif" font-size="10.00"># subject_M</text>
<text text-anchor="start" x="175.5" y="-313.5" font-family="Helvetica,sans-Serif" font-size="10.00"># messageBody_M</text>
<polyline fill="none" stroke="black" points="167.5,-306.5 277.5,-306.5 "/>
<text text-anchor="start" x="175.5" y="-294.5" font-family="Helvetica,sans-Serif" font-size="10.00">+ setRecipient()</text>
<text text-anchor="start" x="175.5" y="-283.5" font-family="Helvetica,sans-Serif" font-size="10.00">+ setSubject()</text>
<text text-anchor="start" x="175.5" y="-272.5" font-family="Helvetica,sans-Serif" font-size="10.00">+ setMessage()</text>
<text text-anchor="start" x="175.5" y="-261.5" font-family="Helvetica,sans-Serif" font-size="10.00"># Email()</text>
</a>
</g>
</g>
<!-- Node5&#45;&gt;Node2 -->
<g id="edge4" class="edge"><title>Node5&#45;&gt;Node2</title>
<path fill="none" stroke="#404040" d="M204.089,-254.232C199.568,-244.235 194.328,-234.034 188.5,-225 186.628,-222.098 184.605,-219.203 182.482,-216.342"/>
<polygon fill="none" stroke="#404040" points="182.377,-216.209 175.52,-213.977 174.944,-206.789 181.801,-209.021 182.377,-216.209"/>
<text text-anchor="middle" x="220.5" y="-228" font-family="Helvetica,sans-Serif" font-size="10.00"> #email_M</text>
</g>
<!-- Node6 -->
<g id="node6" class="node"><title>Node6</title>
<polygon fill="white" stroke="#bfbfbf" points="136.5,-403.5 136.5,-471.5 308.5,-471.5 308.5,-403.5 136.5,-403.5"/>
<text text-anchor="start" x="144.5" y="-459.5" font-family="Helvetica,sans-Serif" font-size="10.00">Map&lt; String, Message.Recipient</text>
<text text-anchor="middle" x="222.5" y="-448.5" font-family="Helvetica,sans-Serif" font-size="10.00">Type &gt;</text>
<polyline fill="none" stroke="#bfbfbf" points="136.5,-441.5 308.5,-441.5 "/>
<text text-anchor="middle" x="222.5" y="-429.5" font-family="Helvetica,sans-Serif" font-size="10.00"> </text>
<polyline fill="none" stroke="#bfbfbf" points="136.5,-422.5 308.5,-422.5 "/>
<text text-anchor="middle" x="222.5" y="-410.5" font-family="Helvetica,sans-Serif" font-size="10.00"> </text>
</g>
<!-- Node6&#45;&gt;Node5 -->
<g id="edge5" class="edge"><title>Node6&#45;&gt;Node5</title>
<path fill="none" stroke="#404040" d="M222.5,-403.232C222.5,-392.471 222.5,-380.168 222.5,-368.015"/>
<polygon fill="none" stroke="#404040" points="222.5,-367.975 218.5,-361.975 222.5,-355.975 226.5,-361.975 222.5,-367.975"/>
<text text-anchor="middle" x="258.5" y="-377" font-family="Helvetica,sans-Serif" font-size="10.00"> #recipients_M</text>
</g>
<!-- Node7 -->
<g id="node7" class="node"><title>Node7</title>
<polygon fill="white" stroke="#bfbfbf" points="248.5,-138.5 248.5,-195.5 370.5,-195.5 370.5,-138.5 248.5,-138.5"/>
<text text-anchor="middle" x="309.5" y="-183.5" font-family="Helvetica,sans-Serif" font-size="10.00">Map&lt; String, String &gt;</text>
<polyline fill="none" stroke="#bfbfbf" points="248.5,-176.5 370.5,-176.5 "/>
<text text-anchor="middle" x="309.5" y="-164.5" font-family="Helvetica,sans-Serif" font-size="10.00"> </text>
<polyline fill="none" stroke="#bfbfbf" points="248.5,-157.5 370.5,-157.5 "/>
<text text-anchor="middle" x="309.5" y="-145.5" font-family="Helvetica,sans-Serif" font-size="10.00"> </text>
</g>
<!-- Node7&#45;&gt;Node1 -->
<g id="edge6" class="edge"><title>Node7&#45;&gt;Node1</title>
<path fill="none" stroke="#404040" d="M299.735,-138.258C294.845,-124.368 288.774,-107.118 283.107,-91.0205"/>
<polygon fill="none" stroke="#404040" points="283.06,-90.886 277.295,-86.5545 279.075,-79.5667 284.841,-83.8982 283.06,-90.886"/>
<text text-anchor="middle" x="317.5" y="-101" font-family="Helvetica,sans-Serif" font-size="10.00"> &#45;properties</text>
</g>
</g>
</svg>
