<?xml version="1.0" encoding="UTF-8" standalone="no"?>
<!DOCTYPE svg PUBLIC "-//W3C//DTD SVG 1.1//EN"
 "http://www.w3.org/Graphics/SVG/1.1/DTD/svg11.dtd">
<!-- Generated by graphviz version 2.38.0 (20140413.2041)
 -->
<!-- Title: getID Pages: 1 -->
<svg width="901pt" height="50pt"
 viewBox="0.00 0.00 901.00 50.00" xmlns="http://www.w3.org/2000/svg" xmlns:xlink="http://www.w3.org/1999/xlink">
<g id="graph0" class="graph" transform="scale(1 1) rotate(0) translate(4 46)">
<title>getID</title>
<polygon fill="white" stroke="none" points="-4,4 -4,-46 897,-46 897,4 -4,4"/>
<!-- Node1 -->
<g id="node1" class="node"><title>Node1</title>
<polygon fill="#bfbfbf" stroke="black" points="0,-11.5 0,-30.5 42,-30.5 42,-11.5 0,-11.5"/>
<text text-anchor="middle" x="21" y="-18.5" font-family="Helvetica,sans-Serif" font-size="10.00">getID</text>
</g>
<!-- Node2 -->
<g id="node2" class="node"><title>Node2</title>
<g id="a_node2"><a xlink:href="classcom_1_1tomoparts_1_1tomoBay_1_1model_1_1services_1_1reScanErrorsService_1_1ReScanErrorsDBActions.html#a686181ed1b6d7f86e1b05653dc98f37e" target="_top" xlink:title="updates the database with corrected information, as provided in the ItemSpecifics passed in as an arg...">
<polygon fill="white" stroke="black" points="78,-0.5 78,-41.5 336,-41.5 336,-0.5 78,-0.5"/>
<text text-anchor="start" x="86" y="-29.5" font-family="Helvetica,sans-Serif" font-size="10.00">com.tomoparts.tomoBay.model.services.re</text>
<text text-anchor="start" x="86" y="-18.5" font-family="Helvetica,sans-Serif" font-size="10.00">ScanErrorsService.ReScanErrorsDBActions.update</text>
<text text-anchor="middle" x="207" y="-7.5" font-family="Helvetica,sans-Serif" font-size="10.00">DBwithCorrectedInfo</text>
</a>
</g>
</g>
<!-- Node1&#45;&gt;Node2 -->
<g id="edge1" class="edge"><title>Node1&#45;&gt;Node2</title>
<path fill="none" stroke="midnightblue" d="M52.0652,-21C59.6895,-21 68.3732,-21 77.6439,-21"/>
<polygon fill="midnightblue" stroke="midnightblue" points="52.0415,-17.5001 42.0415,-21 52.0415,-24.5001 52.0415,-17.5001"/>
</g>
<!-- Node3 -->
<g id="node3" class="node"><title>Node3</title>
<g id="a_node3"><a xlink:href="classcom_1_1tomoparts_1_1tomoBay_1_1model_1_1services_1_1reScanErrorsService_1_1OnRunning.html#ae4a4f4cadce2787c7e80005639fbd5d9" target="_top" xlink:title="this method defines what to do in the given derived state ">
<polygon fill="white" stroke="black" points="372,-6 372,-36 597,-36 597,-6 372,-6"/>
<text text-anchor="start" x="380" y="-24" font-family="Helvetica,sans-Serif" font-size="10.00">com.tomoparts.tomoBay.model.services.re</text>
<text text-anchor="middle" x="484.5" y="-13" font-family="Helvetica,sans-Serif" font-size="10.00">ScanErrorsService.OnRunning.execute</text>
</a>
</g>
</g>
<!-- Node2&#45;&gt;Node3 -->
<g id="edge2" class="edge"><title>Node2&#45;&gt;Node3</title>
<path fill="none" stroke="midnightblue" d="M346.164,-21C354.768,-21 363.369,-21 371.835,-21"/>
<polygon fill="midnightblue" stroke="midnightblue" points="346.072,-17.5001 336.072,-21 346.072,-24.5001 346.072,-17.5001"/>
</g>
<!-- Node4 -->
<g id="node4" class="node"><title>Node4</title>
<g id="a_node4"><a xlink:href="classcom_1_1tomoparts_1_1tomoBay_1_1model_1_1services_1_1reScanErrorsService_1_1ReScanErrorsService.html#ae3b0a282dcba7f2d675ca89b1dd48487" target="_top" xlink:title="com.tomoparts.tomoBay.model.services.re\lScanErrorsService.ReScanErrorsService.onRunning">
<polygon fill="white" stroke="black" points="633,-6 633,-36 893,-36 893,-6 633,-6"/>
<text text-anchor="start" x="641" y="-24" font-family="Helvetica,sans-Serif" font-size="10.00">com.tomoparts.tomoBay.model.services.re</text>
<text text-anchor="middle" x="763" y="-13" font-family="Helvetica,sans-Serif" font-size="10.00">ScanErrorsService.ReScanErrorsService.onRunning</text>
</a>
</g>
</g>
<!-- Node3&#45;&gt;Node4 -->
<g id="edge3" class="edge"><title>Node3&#45;&gt;Node4</title>
<path fill="none" stroke="midnightblue" d="M607.362,-21C615.761,-21 624.241,-21 632.677,-21"/>
<polygon fill="midnightblue" stroke="midnightblue" points="607.166,-17.5001 597.166,-21 607.166,-24.5001 607.166,-17.5001"/>
</g>
</g>
</svg>
