<?xml version="1.0" encoding="UTF-8" standalone="no"?>
<!DOCTYPE svg PUBLIC "-//W3C//DTD SVG 1.1//EN"
 "http://www.w3.org/Graphics/SVG/1.1/DTD/svg11.dtd">
<!-- Generated by graphviz version 2.38.0 (20140413.2041)
 -->
<!-- Title: PresenterFactory Pages: 1 -->
<svg width="250pt" height="215pt"
 viewBox="0.00 0.00 250.00 215.00" xmlns="http://www.w3.org/2000/svg" xmlns:xlink="http://www.w3.org/1999/xlink">
<g id="graph0" class="graph" transform="scale(1 1) rotate(0) translate(4 211)">
<title>PresenterFactory</title>
<polygon fill="white" stroke="none" points="-4,4 -4,-211 246,-211 246,4 -4,4"/>
<!-- Node1 -->
<g id="node1" class="node"><title>Node1</title>
<polygon fill="#bfbfbf" stroke="black" points="62.5,-0.5 62.5,-68.5 179.5,-68.5 179.5,-0.5 62.5,-0.5"/>
<text text-anchor="middle" x="121" y="-56.5" font-family="Helvetica,sans-Serif" font-size="10.00">PresenterFactory</text>
<polyline fill="none" stroke="black" points="62.5,-49.5 179.5,-49.5 "/>
<text text-anchor="middle" x="121" y="-37.5" font-family="Helvetica,sans-Serif" font-size="10.00"> </text>
<polyline fill="none" stroke="black" points="62.5,-30.5 179.5,-30.5 "/>
<text text-anchor="start" x="70.5" y="-18.5" font-family="Helvetica,sans-Serif" font-size="10.00">+ PresenterFactory()</text>
<text text-anchor="start" x="70.5" y="-7.5" font-family="Helvetica,sans-Serif" font-size="10.00">+ make()</text>
</g>
<!-- Node2 -->
<g id="node2" class="node"><title>Node2</title>
<polygon fill="white" stroke="#bfbfbf" points="-1.42109e-14,-116.5 -1.42109e-14,-206.5 242,-206.5 242,-116.5 -1.42109e-14,-116.5"/>
<text text-anchor="start" x="8" y="-194.5" font-family="Helvetica,sans-Serif" font-size="10.00">Map&lt; com.tomoparts.tomoBay.presenters.</text>
<text text-anchor="start" x="8" y="-183.5" font-family="Helvetica,sans-Serif" font-size="10.00">PresenterFactory.PresenterType,</text>
<text text-anchor="start" x="8" y="-172.5" font-family="Helvetica,sans-Serif" font-size="10.00"> com.tomoparts.tomoBay.presenters.factories.</text>
<text text-anchor="middle" x="121" y="-161.5" font-family="Helvetica,sans-Serif" font-size="10.00">AbstractPresenterFactory &gt;</text>
<polyline fill="none" stroke="#bfbfbf" points="-1.42109e-14,-154.5 242,-154.5 "/>
<text text-anchor="middle" x="121" y="-142.5" font-family="Helvetica,sans-Serif" font-size="10.00"> </text>
<polyline fill="none" stroke="#bfbfbf" points="-1.42109e-14,-135.5 242,-135.5 "/>
<text text-anchor="middle" x="121" y="-123.5" font-family="Helvetica,sans-Serif" font-size="10.00"> </text>
</g>
<!-- Node2&#45;&gt;Node1 -->
<g id="edge1" class="edge"><title>Node2&#45;&gt;Node1</title>
<path fill="none" stroke="#404040" d="M121,-116.43C121,-104.867 121,-92.3802 121,-80.7566"/>
<polygon fill="none" stroke="#404040" points="121,-80.5672 117,-74.5672 121,-68.5672 125,-74.5671 121,-80.5672"/>
<text text-anchor="middle" x="165" y="-90" font-family="Helvetica,sans-Serif" font-size="10.00"> &#45;presenterMap_M</text>
</g>
</g>
</svg>
