<?xml version="1.0" encoding="UTF-8" standalone="no"?>
<!DOCTYPE svg PUBLIC "-//W3C//DTD SVG 1.1//EN"
 "http://www.w3.org/Graphics/SVG/1.1/DTD/svg11.dtd">
<!-- Generated by graphviz version 2.38.0 (20140413.2041)
 -->
<!-- Title: Buyer Pages: 1 -->
<svg width="294pt" height="50pt"
 viewBox="0.00 0.00 294.00 50.00" xmlns="http://www.w3.org/2000/svg" xmlns:xlink="http://www.w3.org/1999/xlink">
<g id="graph0" class="graph" transform="scale(1 1) rotate(0) translate(4 46)">
<title>Buyer</title>
<polygon fill="white" stroke="none" points="-4,4 -4,-46 290,-46 290,4 -4,4"/>
<!-- Node1 -->
<g id="node1" class="node"><title>Node1</title>
<polygon fill="#bfbfbf" stroke="black" points="0,-11.5 0,-30.5 44,-30.5 44,-11.5 0,-11.5"/>
<text text-anchor="middle" x="22" y="-18.5" font-family="Helvetica,sans-Serif" font-size="10.00">Buyer</text>
</g>
<!-- Node2 -->
<g id="node2" class="node"><title>Node2</title>
<g id="a_node2"><a xlink:href="classcom_1_1tomoparts_1_1tomoBay_1_1model_1_1dataTypes_1_1heteroTypeContainer_1_1HeteroFieldContainer.html#af4b57d21919c42d55af03391f91a1c08" target="_top" xlink:title="retrieves the size of this HeteroFieldContainer ">
<polygon fill="white" stroke="black" points="80,-0.5 80,-41.5 286,-41.5 286,-0.5 80,-0.5"/>
<text text-anchor="start" x="88" y="-29.5" font-family="Helvetica,sans-Serif" font-size="10.00">com.tomoparts.tomoBay.model.data</text>
<text text-anchor="start" x="88" y="-18.5" font-family="Helvetica,sans-Serif" font-size="10.00">Types.heteroTypeContainer.HeteroField</text>
<text text-anchor="middle" x="183" y="-7.5" font-family="Helvetica,sans-Serif" font-size="10.00">Container.size</text>
</a>
</g>
</g>
<!-- Node1&#45;&gt;Node2 -->
<g id="edge1" class="edge"><title>Node1&#45;&gt;Node2</title>
<path fill="none" stroke="midnightblue" d="M44.114,-21C51.3867,-21 60.1124,-21 69.5966,-21"/>
<polygon fill="midnightblue" stroke="midnightblue" points="69.7258,-24.5001 79.7258,-21 69.7257,-17.5001 69.7258,-24.5001"/>
</g>
</g>
</svg>
