<?xml version="1.0" encoding="UTF-8" standalone="no"?>
<!DOCTYPE svg PUBLIC "-//W3C//DTD SVG 1.1//EN"
 "http://www.w3.org/Graphics/SVG/1.1/DTD/svg11.dtd">
<!-- Generated by graphviz version 2.38.0 (20140413.2041)
 -->
<!-- Title: executeStatic Pages: 1 -->
<svg width="322pt" height="88pt"
 viewBox="0.00 0.00 322.00 88.00" xmlns="http://www.w3.org/2000/svg" xmlns:xlink="http://www.w3.org/1999/xlink">
<g id="graph0" class="graph" transform="scale(1 1) rotate(0) translate(4 84)">
<title>executeStatic</title>
<polygon fill="white" stroke="none" points="-4,4 -4,-84 318,-84 318,4 -4,4"/>
<!-- Node1 -->
<g id="node1" class="node"><title>Node1</title>
<polygon fill="#bfbfbf" stroke="black" points="0,-30 0,-49 83,-49 83,-30 0,-30"/>
<text text-anchor="middle" x="41.5" y="-37" font-family="Helvetica,sans-Serif" font-size="10.00">executeStatic</text>
</g>
<!-- Node2 -->
<g id="node2" class="node"><title>Node2</title>
<g id="a_node2"><a xlink:href="classcom_1_1tomoparts_1_1tomoBay_1_1model_1_1dataTypes_1_1ServerStatus.html#a5a970a0f69193c7d515425d3ade75334" target="_top" xlink:title="retrieve an instance of this object ">
<polygon fill="white" stroke="black" points="119,-49.5 119,-79.5 314,-79.5 314,-49.5 119,-49.5"/>
<text text-anchor="start" x="127" y="-67.5" font-family="Helvetica,sans-Serif" font-size="10.00">com.tomoparts.tomoBay.model.data</text>
<text text-anchor="middle" x="216.5" y="-56.5" font-family="Helvetica,sans-Serif" font-size="10.00">Types.ServerStatus.instance</text>
</a>
</g>
</g>
<!-- Node1&#45;&gt;Node2 -->
<g id="edge1" class="edge"><title>Node1&#45;&gt;Node2</title>
<path fill="none" stroke="midnightblue" d="M83.0608,-45.3614C91.0551,-46.5166 99.7869,-47.7785 108.83,-49.0853"/>
<polygon fill="midnightblue" stroke="midnightblue" points="108.347,-52.5518 118.745,-50.5181 109.349,-45.6238 108.347,-52.5518"/>
</g>
<!-- Node3 -->
<g id="node3" class="node"><title>Node3</title>
<g id="a_node3"><a xlink:href="classcom_1_1tomoparts_1_1tomoBay_1_1model_1_1dataTypes_1_1ServerStatus.html#ae8ffecb6ba6ddfc3fab85af64f6350f5" target="_top" xlink:title="allows a part of the system to set the status of the server. ">
<polygon fill="white" stroke="black" points="119,-0.5 119,-30.5 314,-30.5 314,-0.5 119,-0.5"/>
<text text-anchor="start" x="127" y="-18.5" font-family="Helvetica,sans-Serif" font-size="10.00">com.tomoparts.tomoBay.model.data</text>
<text text-anchor="middle" x="216.5" y="-7.5" font-family="Helvetica,sans-Serif" font-size="10.00">Types.ServerStatus.setStatus</text>
</a>
</g>
</g>
<!-- Node1&#45;&gt;Node3 -->
<g id="edge2" class="edge"><title>Node1&#45;&gt;Node3</title>
<path fill="none" stroke="midnightblue" d="M83.0608,-33.8731C91.0551,-32.764 99.7869,-31.5527 108.83,-30.2981"/>
<polygon fill="midnightblue" stroke="midnightblue" points="109.321,-33.7636 118.745,-28.9226 108.359,-26.83 109.321,-33.7636"/>
</g>
</g>
</svg>
