<?xml version="1.0" encoding="UTF-8" standalone="no"?>
<!DOCTYPE svg PUBLIC "-//W3C//DTD SVG 1.1//EN"
 "http://www.w3.org/Graphics/SVG/1.1/DTD/svg11.dtd">
<!-- Generated by graphviz version 2.38.0 (20140413.2041)
 -->
<!-- Title: AbstractSelectNoParamsQuery Pages: 1 -->
<svg width="1769pt" height="458pt"
 viewBox="0.00 0.00 1769.00 458.00" xmlns="http://www.w3.org/2000/svg" xmlns:xlink="http://www.w3.org/1999/xlink">
<g id="graph0" class="graph" transform="scale(1 1) rotate(0) translate(4 454)">
<title>AbstractSelectNoParamsQuery</title>
<polygon fill="white" stroke="none" points="-4,4 -4,-454 1765,-454 1765,4 -4,4"/>
<!-- Node1 -->
<g id="node1" class="node"><title>Node1</title>
<polygon fill="#bfbfbf" stroke="black" points="748.5,-138.5 748.5,-217.5 933.5,-217.5 933.5,-138.5 748.5,-138.5"/>
<text text-anchor="middle" x="841" y="-205.5" font-family="Helvetica,sans-Serif" font-size="10.00">AbstractSelectNoParamsQuery</text>
<polyline fill="none" stroke="black" points="748.5,-198.5 933.5,-198.5 "/>
<text text-anchor="middle" x="841" y="-186.5" font-family="Helvetica,sans-Serif" font-size="10.00"> </text>
<polyline fill="none" stroke="black" points="748.5,-179.5 933.5,-179.5 "/>
<text text-anchor="start" x="756.5" y="-167.5" font-family="Helvetica,sans-Serif" font-size="10.00">+ AbstractSelectNoParamsQuery()</text>
<text text-anchor="start" x="756.5" y="-156.5" font-family="Helvetica,sans-Serif" font-size="10.00">+ execute()</text>
<text text-anchor="start" x="756.5" y="-145.5" font-family="Helvetica,sans-Serif" font-size="10.00"># initQuery()</text>
</g>
<!-- Node4 -->
<g id="node4" class="node"><title>Node4</title>
<g id="a_node4"><a xlink:href="classcom_1_1tomoparts_1_1tomoBay_1_1model_1_1sql_1_1queries_1_1concreteQueries_1_1select_1_1noParams_1_1SelectAccounts.html" target="_top" xlink:title="Copyright(C) 2015 Jan P.C. ">
<polygon fill="white" stroke="black" points="0,-11.5 0,-90.5 110,-90.5 110,-11.5 0,-11.5"/>
<text text-anchor="middle" x="55" y="-78.5" font-family="Helvetica,sans-Serif" font-size="10.00">SelectAccounts</text>
<polyline fill="none" stroke="black" points="0,-71.5 110,-71.5 "/>
<text text-anchor="start" x="8" y="-59.5" font-family="Helvetica,sans-Serif" font-size="10.00">&#45; query</text>
<polyline fill="none" stroke="black" points="0,-52.5 110,-52.5 "/>
<text text-anchor="start" x="8" y="-40.5" font-family="Helvetica,sans-Serif" font-size="10.00">+ SelectAccounts()</text>
<text text-anchor="start" x="8" y="-29.5" font-family="Helvetica,sans-Serif" font-size="10.00"># format()</text>
<text text-anchor="start" x="8" y="-18.5" font-family="Helvetica,sans-Serif" font-size="10.00"># queryString()</text>
</a>
</g>
</g>
<!-- Node1&#45;&gt;Node4 -->
<g id="edge3" class="edge"><title>Node1&#45;&gt;Node4</title>
<path fill="none" stroke="midnightblue" d="M738.169,-173.301C566.321,-165.962 228.793,-146.28 119,-102 111.808,-99.0994 104.752,-95.1372 98.1059,-90.7035"/>
<polygon fill="none" stroke="midnightblue" points="738.1,-176.801 748.238,-173.725 738.395,-169.807 738.1,-176.801"/>
</g>
<!-- Node5 -->
<g id="node5" class="node"><title>Node5</title>
<g id="a_node5"><a xlink:href="classcom_1_1tomoparts_1_1tomoBay_1_1model_1_1sql_1_1queries_1_1concreteQueries_1_1select_1_1noParams_1_1SelectEbayBuyers.html" target="_top" xlink:title="{SelectEbayBuyers\n|&#45; query\l|+ SelectEbayBuyers()\l# format()\l# queryString()\l}">
<polygon fill="white" stroke="black" points="128,-11.5 128,-90.5 250,-90.5 250,-11.5 128,-11.5"/>
<text text-anchor="middle" x="189" y="-78.5" font-family="Helvetica,sans-Serif" font-size="10.00">SelectEbayBuyers</text>
<polyline fill="none" stroke="black" points="128,-71.5 250,-71.5 "/>
<text text-anchor="start" x="136" y="-59.5" font-family="Helvetica,sans-Serif" font-size="10.00">&#45; query</text>
<polyline fill="none" stroke="black" points="128,-52.5 250,-52.5 "/>
<text text-anchor="start" x="136" y="-40.5" font-family="Helvetica,sans-Serif" font-size="10.00">+ SelectEbayBuyers()</text>
<text text-anchor="start" x="136" y="-29.5" font-family="Helvetica,sans-Serif" font-size="10.00"># format()</text>
<text text-anchor="start" x="136" y="-18.5" font-family="Helvetica,sans-Serif" font-size="10.00"># queryString()</text>
</a>
</g>
</g>
<!-- Node1&#45;&gt;Node5 -->
<g id="edge4" class="edge"><title>Node1&#45;&gt;Node5</title>
<path fill="none" stroke="midnightblue" d="M738.227,-169.809C595.157,-158.77 343.965,-135.366 259,-102 251.354,-98.9975 243.763,-94.9773 236.555,-90.5152"/>
<polygon fill="none" stroke="midnightblue" points="738.099,-173.309 748.337,-170.582 738.633,-166.33 738.099,-173.309"/>
</g>
<!-- Node6 -->
<g id="node6" class="node"><title>Node6</title>
<g id="a_node6"><a xlink:href="classcom_1_1tomoparts_1_1tomoBay_1_1model_1_1sql_1_1queries_1_1concreteQueries_1_1select_1_1noParams_1_1SelectEbayItems.html" target="_top" xlink:title="This class represents a query that selects all the fields in the items table of the database...">
<polygon fill="white" stroke="black" points="268,-11.5 268,-90.5 384,-90.5 384,-11.5 268,-11.5"/>
<text text-anchor="middle" x="326" y="-78.5" font-family="Helvetica,sans-Serif" font-size="10.00">SelectEbayItems</text>
<polyline fill="none" stroke="black" points="268,-71.5 384,-71.5 "/>
<text text-anchor="start" x="276" y="-59.5" font-family="Helvetica,sans-Serif" font-size="10.00">&#45; query</text>
<polyline fill="none" stroke="black" points="268,-52.5 384,-52.5 "/>
<text text-anchor="start" x="276" y="-40.5" font-family="Helvetica,sans-Serif" font-size="10.00">+ SelectEbayItems()</text>
<text text-anchor="start" x="276" y="-29.5" font-family="Helvetica,sans-Serif" font-size="10.00"># format()</text>
<text text-anchor="start" x="276" y="-18.5" font-family="Helvetica,sans-Serif" font-size="10.00"># queryString()</text>
</a>
</g>
</g>
<!-- Node1&#45;&gt;Node6 -->
<g id="edge5" class="edge"><title>Node1&#45;&gt;Node6</title>
<path fill="none" stroke="midnightblue" d="M738.187,-173.524C644.805,-167.223 504.964,-149.799 393,-102 385.792,-98.9227 378.644,-94.919 371.85,-90.5165"/>
<polygon fill="none" stroke="midnightblue" points="738.002,-177.019 748.206,-174.17 738.452,-170.034 738.002,-177.019"/>
</g>
<!-- Node7 -->
<g id="node7" class="node"><title>Node7</title>
<g id="a_node7"><a xlink:href="classcom_1_1tomoparts_1_1tomoBay_1_1model_1_1sql_1_1queries_1_1concreteQueries_1_1select_1_1noParams_1_1SelectEbayItemsError.html" target="_top" xlink:title="{SelectEbayItemsError\n|&#45; query\l|+ SelectEbayItemsError()\l# format()\l# queryString()\l}">
<polygon fill="white" stroke="black" points="402.5,-11.5 402.5,-90.5 541.5,-90.5 541.5,-11.5 402.5,-11.5"/>
<text text-anchor="middle" x="472" y="-78.5" font-family="Helvetica,sans-Serif" font-size="10.00">SelectEbayItemsError</text>
<polyline fill="none" stroke="black" points="402.5,-71.5 541.5,-71.5 "/>
<text text-anchor="start" x="410.5" y="-59.5" font-family="Helvetica,sans-Serif" font-size="10.00">&#45; query</text>
<polyline fill="none" stroke="black" points="402.5,-52.5 541.5,-52.5 "/>
<text text-anchor="start" x="410.5" y="-40.5" font-family="Helvetica,sans-Serif" font-size="10.00">+ SelectEbayItemsError()</text>
<text text-anchor="start" x="410.5" y="-29.5" font-family="Helvetica,sans-Serif" font-size="10.00"># format()</text>
<text text-anchor="start" x="410.5" y="-18.5" font-family="Helvetica,sans-Serif" font-size="10.00"># queryString()</text>
</a>
</g>
</g>
<!-- Node1&#45;&gt;Node7 -->
<g id="edge6" class="edge"><title>Node1&#45;&gt;Node7</title>
<path fill="none" stroke="midnightblue" d="M738.397,-158.611C681.718,-146.457 610.874,-127.929 551,-102 543.404,-98.7104 535.699,-94.7471 528.23,-90.509"/>
<polygon fill="none" stroke="midnightblue" points="737.94,-162.091 748.447,-160.731 739.385,-155.242 737.94,-162.091"/>
</g>
<!-- Node8 -->
<g id="node8" class="node"><title>Node8</title>
<g id="a_node8"><a xlink:href="classcom_1_1tomoparts_1_1tomoBay_1_1model_1_1sql_1_1queries_1_1concreteQueries_1_1select_1_1noPaa32333c0bd056ac5fb6e9af79a150a72.html" target="_top" xlink:title="This class represents a query that selects all items (from the transactions table) that do not curren...">
<polygon fill="white" stroke="black" points="560,-11.5 560,-90.5 762,-90.5 762,-11.5 560,-11.5"/>
<text text-anchor="middle" x="661" y="-78.5" font-family="Helvetica,sans-Serif" font-size="10.00">SelectEbayItemsNotInTransactions</text>
<polyline fill="none" stroke="black" points="560,-71.5 762,-71.5 "/>
<text text-anchor="start" x="568" y="-59.5" font-family="Helvetica,sans-Serif" font-size="10.00">&#45; query</text>
<polyline fill="none" stroke="black" points="560,-52.5 762,-52.5 "/>
<text text-anchor="start" x="568" y="-40.5" font-family="Helvetica,sans-Serif" font-size="10.00">+ SelectEbayItemsNotInTransactions()</text>
<text text-anchor="start" x="568" y="-29.5" font-family="Helvetica,sans-Serif" font-size="10.00"># format()</text>
<text text-anchor="start" x="568" y="-18.5" font-family="Helvetica,sans-Serif" font-size="10.00"># queryString()</text>
</a>
</g>
</g>
<!-- Node1&#45;&gt;Node8 -->
<g id="edge7" class="edge"><title>Node1&#45;&gt;Node8</title>
<path fill="none" stroke="midnightblue" d="M777.175,-132.677C757.398,-118.943 735.774,-103.926 716.601,-90.6121"/>
<polygon fill="none" stroke="midnightblue" points="775.315,-135.647 785.525,-138.476 779.308,-129.897 775.315,-135.647"/>
</g>
<!-- Node9 -->
<g id="node9" class="node"><title>Node9</title>
<g id="a_node9"><a xlink:href="classcom_1_1tomoparts_1_1tomoBay_1_1model_1_1sql_1_1queries_1_1concreteQueries_1_1select_1_1noParams_1_1SelectEbayOrders.html" target="_top" xlink:title="This class represents a query that selects all data contained in the orders table of the database sor...">
<polygon fill="white" stroke="black" points="780.5,-11.5 780.5,-90.5 901.5,-90.5 901.5,-11.5 780.5,-11.5"/>
<text text-anchor="middle" x="841" y="-78.5" font-family="Helvetica,sans-Serif" font-size="10.00">SelectEbayOrders</text>
<polyline fill="none" stroke="black" points="780.5,-71.5 901.5,-71.5 "/>
<text text-anchor="start" x="788.5" y="-59.5" font-family="Helvetica,sans-Serif" font-size="10.00">&#45; query</text>
<polyline fill="none" stroke="black" points="780.5,-52.5 901.5,-52.5 "/>
<text text-anchor="start" x="788.5" y="-40.5" font-family="Helvetica,sans-Serif" font-size="10.00">+ SelectEbayOrders()</text>
<text text-anchor="start" x="788.5" y="-29.5" font-family="Helvetica,sans-Serif" font-size="10.00"># format()</text>
<text text-anchor="start" x="788.5" y="-18.5" font-family="Helvetica,sans-Serif" font-size="10.00"># queryString()</text>
</a>
</g>
</g>
<!-- Node1&#45;&gt;Node9 -->
<g id="edge8" class="edge"><title>Node1&#45;&gt;Node9</title>
<path fill="none" stroke="midnightblue" d="M841,-128.222C841,-115.745 841,-102.5 841,-90.6121"/>
<polygon fill="none" stroke="midnightblue" points="837.5,-128.476 841,-138.476 844.5,-128.476 837.5,-128.476"/>
</g>
<!-- Node10 -->
<g id="node10" class="node"><title>Node10</title>
<g id="a_node10"><a xlink:href="classcom_1_1tomoparts_1_1tomoBay_1_1model_1_1sql_1_1queries_1_1concreteQueries_1_1select_1_1noParams_1_1SelectInvoicedOrders.html" target="_top" xlink:title="This class represents a query that selects all data from the orders table that is not currently invoi...">
<polygon fill="white" stroke="black" points="919.5,-11.5 919.5,-90.5 1056.5,-90.5 1056.5,-11.5 919.5,-11.5"/>
<text text-anchor="middle" x="988" y="-78.5" font-family="Helvetica,sans-Serif" font-size="10.00">SelectInvoicedOrders</text>
<polyline fill="none" stroke="black" points="919.5,-71.5 1056.5,-71.5 "/>
<text text-anchor="start" x="927.5" y="-59.5" font-family="Helvetica,sans-Serif" font-size="10.00">&#45; query</text>
<polyline fill="none" stroke="black" points="919.5,-52.5 1056.5,-52.5 "/>
<text text-anchor="start" x="927.5" y="-40.5" font-family="Helvetica,sans-Serif" font-size="10.00">+ SelectInvoicedOrders()</text>
<text text-anchor="start" x="927.5" y="-29.5" font-family="Helvetica,sans-Serif" font-size="10.00"># format()</text>
<text text-anchor="start" x="927.5" y="-18.5" font-family="Helvetica,sans-Serif" font-size="10.00"># queryString()</text>
</a>
</g>
</g>
<!-- Node1&#45;&gt;Node10 -->
<g id="edge9" class="edge"><title>Node1&#45;&gt;Node10</title>
<path fill="none" stroke="midnightblue" d="M893.99,-131.94C909.905,-118.407 927.214,-103.689 942.592,-90.6121"/>
<polygon fill="none" stroke="midnightblue" points="891.655,-129.332 886.304,-138.476 896.19,-134.664 891.655,-129.332"/>
</g>
<!-- Node11 -->
<g id="node11" class="node"><title>Node11</title>
<g id="a_node11"><a xlink:href="classcom_1_1tomoparts_1_1tomoBay_1_1model_1_1sql_1_1queries_1_1concreteQueries_1_1select_1_1noPaffaa1f4285688b2df2b3fc4eb56e39bf.html" target="_top" xlink:title="{SelectUncalculatedInvoices\n|&#45; query\l|+ SelectUncalculatedInvoices()\l# format()\l# queryString()\l}">
<polygon fill="white" stroke="black" points="1075,-11.5 1075,-90.5 1241,-90.5 1241,-11.5 1075,-11.5"/>
<text text-anchor="middle" x="1158" y="-78.5" font-family="Helvetica,sans-Serif" font-size="10.00">SelectUncalculatedInvoices</text>
<polyline fill="none" stroke="black" points="1075,-71.5 1241,-71.5 "/>
<text text-anchor="start" x="1083" y="-59.5" font-family="Helvetica,sans-Serif" font-size="10.00">&#45; query</text>
<polyline fill="none" stroke="black" points="1075,-52.5 1241,-52.5 "/>
<text text-anchor="start" x="1083" y="-40.5" font-family="Helvetica,sans-Serif" font-size="10.00">+ SelectUncalculatedInvoices()</text>
<text text-anchor="start" x="1083" y="-29.5" font-family="Helvetica,sans-Serif" font-size="10.00"># format()</text>
<text text-anchor="start" x="1083" y="-18.5" font-family="Helvetica,sans-Serif" font-size="10.00"># queryString()</text>
</a>
</g>
</g>
<!-- Node1&#45;&gt;Node11 -->
<g id="edge10" class="edge"><title>Node1&#45;&gt;Node11</title>
<path fill="none" stroke="midnightblue" d="M943.296,-147.1C982.275,-134.62 1026.75,-119.051 1066,-102 1074,-98.5235 1082.24,-94.5929 1090.34,-90.5007"/>
<polygon fill="none" stroke="midnightblue" points="941.983,-143.844 933.511,-150.205 944.101,-150.516 941.983,-143.844"/>
</g>
<!-- Node12 -->
<g id="node12" class="node"><title>Node12</title>
<g id="a_node12"><a xlink:href="classcom_1_1tomoparts_1_1tomoBay_1_1model_1_1sql_1_1queries_1_1concreteQueries_1_1select_1_1noPac045058079565929c5fd2a8063650a98.html" target="_top" xlink:title="{SelectUncalculatedOrders\n|&#45; query\l|+ SelectUncalculatedOrders()\l# format()\l# queryString()\l}">
<polygon fill="white" stroke="black" points="1259,-11.5 1259,-90.5 1419,-90.5 1419,-11.5 1259,-11.5"/>
<text text-anchor="middle" x="1339" y="-78.5" font-family="Helvetica,sans-Serif" font-size="10.00">SelectUncalculatedOrders</text>
<polyline fill="none" stroke="black" points="1259,-71.5 1419,-71.5 "/>
<text text-anchor="start" x="1267" y="-59.5" font-family="Helvetica,sans-Serif" font-size="10.00">&#45; query</text>
<polyline fill="none" stroke="black" points="1259,-52.5 1419,-52.5 "/>
<text text-anchor="start" x="1267" y="-40.5" font-family="Helvetica,sans-Serif" font-size="10.00">+ SelectUncalculatedOrders()</text>
<text text-anchor="start" x="1267" y="-29.5" font-family="Helvetica,sans-Serif" font-size="10.00"># format()</text>
<text text-anchor="start" x="1267" y="-18.5" font-family="Helvetica,sans-Serif" font-size="10.00"># queryString()</text>
</a>
</g>
</g>
<!-- Node1&#45;&gt;Node12 -->
<g id="edge11" class="edge"><title>Node1&#45;&gt;Node12</title>
<path fill="none" stroke="midnightblue" d="M943.923,-167.642C1028.15,-157.75 1149.36,-138.35 1250,-102 1258.67,-98.8693 1267.49,-94.9474 1276.04,-90.685"/>
<polygon fill="none" stroke="midnightblue" points="943.373,-164.182 933.839,-168.802 944.173,-171.136 943.373,-164.182"/>
</g>
<!-- Node13 -->
<g id="node13" class="node"><title>Node13</title>
<g id="a_node13"><a xlink:href="classcom_1_1tomoparts_1_1tomoBay_1_1model_1_1sql_1_1queries_1_1concreteQueries_1_1select_1_1noParams_1_1SelectUninvoicedOrders.html" target="_top" xlink:title="This class represents a query that selects all data from the orders table that is not currently invoi...">
<polygon fill="white" stroke="black" points="1437,-11.5 1437,-90.5 1587,-90.5 1587,-11.5 1437,-11.5"/>
<text text-anchor="middle" x="1512" y="-78.5" font-family="Helvetica,sans-Serif" font-size="10.00">SelectUninvoicedOrders</text>
<polyline fill="none" stroke="black" points="1437,-71.5 1587,-71.5 "/>
<text text-anchor="start" x="1445" y="-59.5" font-family="Helvetica,sans-Serif" font-size="10.00">&#45; query</text>
<polyline fill="none" stroke="black" points="1437,-52.5 1587,-52.5 "/>
<text text-anchor="start" x="1445" y="-40.5" font-family="Helvetica,sans-Serif" font-size="10.00">+ SelectUninvoicedOrders()</text>
<text text-anchor="start" x="1445" y="-29.5" font-family="Helvetica,sans-Serif" font-size="10.00"># format()</text>
<text text-anchor="start" x="1445" y="-18.5" font-family="Helvetica,sans-Serif" font-size="10.00"># queryString()</text>
</a>
</g>
</g>
<!-- Node1&#45;&gt;Node13 -->
<g id="edge12" class="edge"><title>Node1&#45;&gt;Node13</title>
<path fill="none" stroke="midnightblue" d="M943.86,-176.439C1063.36,-172.951 1264.96,-158.208 1428,-102 1436.66,-99.013 1445.41,-95.0614 1453.82,-90.6851"/>
<polygon fill="none" stroke="midnightblue" points="943.525,-172.947 933.623,-176.716 943.714,-179.944 943.525,-172.947"/>
</g>
<!-- Node14 -->
<g id="node14" class="node"><title>Node14</title>
<g id="a_node14"><a xlink:href="classcom_1_1tomoparts_1_1tomoBay_1_1model_1_1sql_1_1queries_1_1concreteQueries_1_1select_1_1noPaba5dcd9f7e04485d15cf92acc4cc6726.html" target="_top" xlink:title="{SelectUninvoicedOrdersNo\lErrors\n|&#45; query\l|+ SelectUninvoicedOrdersNo\lErrors()\l# format()\l# queryString()\l}">
<polygon fill="white" stroke="black" points="1605,-0.5 1605,-101.5 1761,-101.5 1761,-0.5 1605,-0.5"/>
<text text-anchor="start" x="1613" y="-89.5" font-family="Helvetica,sans-Serif" font-size="10.00">SelectUninvoicedOrdersNo</text>
<text text-anchor="middle" x="1683" y="-78.5" font-family="Helvetica,sans-Serif" font-size="10.00">Errors</text>
<polyline fill="none" stroke="black" points="1605,-71.5 1761,-71.5 "/>
<text text-anchor="start" x="1613" y="-59.5" font-family="Helvetica,sans-Serif" font-size="10.00">&#45; query</text>
<polyline fill="none" stroke="black" points="1605,-52.5 1761,-52.5 "/>
<text text-anchor="start" x="1613" y="-40.5" font-family="Helvetica,sans-Serif" font-size="10.00">+ SelectUninvoicedOrdersNo</text>
<text text-anchor="start" x="1613" y="-29.5" font-family="Helvetica,sans-Serif" font-size="10.00">Errors()</text>
<text text-anchor="start" x="1613" y="-18.5" font-family="Helvetica,sans-Serif" font-size="10.00"># format()</text>
<text text-anchor="start" x="1613" y="-7.5" font-family="Helvetica,sans-Serif" font-size="10.00"># queryString()</text>
</a>
</g>
</g>
<!-- Node1&#45;&gt;Node14 -->
<g id="edge13" class="edge"><title>Node1&#45;&gt;Node14</title>
<path fill="none" stroke="midnightblue" d="M943.804,-172.136C1121.22,-162.854 1477.26,-140.075 1596,-102 1598.99,-101.042 1601.98,-99.9724 1604.97,-98.8103"/>
<polygon fill="none" stroke="midnightblue" points="943.482,-168.648 933.677,-172.661 943.845,-175.638 943.482,-168.648"/>
</g>
<!-- Node2 -->
<g id="node2" class="node"><title>Node2</title>
<g id="a_node2"><a xlink:href="classcom_1_1tomoparts_1_1tomoBay_1_1model_1_1sql_1_1framework_1_1queryTypes_1_1select_1_1AbstractSelectQuery.html" target="_top" xlink:title="{AbstractSelectQuery\n||+ AbstractSelectQuery()\l# format()\l}">
<polygon fill="white" stroke="black" points="774,-254.5 774,-322.5 908,-322.5 908,-254.5 774,-254.5"/>
<text text-anchor="middle" x="841" y="-310.5" font-family="Helvetica,sans-Serif" font-size="10.00">AbstractSelectQuery</text>
<polyline fill="none" stroke="black" points="774,-303.5 908,-303.5 "/>
<text text-anchor="middle" x="841" y="-291.5" font-family="Helvetica,sans-Serif" font-size="10.00"> </text>
<polyline fill="none" stroke="black" points="774,-284.5 908,-284.5 "/>
<text text-anchor="start" x="782" y="-272.5" font-family="Helvetica,sans-Serif" font-size="10.00">+ AbstractSelectQuery()</text>
<text text-anchor="start" x="782" y="-261.5" font-family="Helvetica,sans-Serif" font-size="10.00"># format()</text>
</a>
</g>
</g>
<!-- Node2&#45;&gt;Node1 -->
<g id="edge1" class="edge"><title>Node2&#45;&gt;Node1</title>
<path fill="none" stroke="midnightblue" d="M841,-244.274C841,-235.476 841,-226.275 841,-217.649"/>
<polygon fill="none" stroke="midnightblue" points="837.5,-244.357 841,-254.357 844.5,-244.357 837.5,-244.357"/>
</g>
<!-- Node3 -->
<g id="node3" class="node"><title>Node3</title>
<g id="a_node3"><a xlink:href="classcom_1_1tomoparts_1_1tomoBay_1_1model_1_1sql_1_1framework_1_1queryTypes_1_1AbstractDBQuery.html" target="_top" xlink:title="Interface that all database queries must adhere to. ">
<polygon fill="white" stroke="black" points="791,-359.5 791,-449.5 891,-449.5 891,-359.5 791,-359.5"/>
<text text-anchor="middle" x="841" y="-437.5" font-family="Helvetica,sans-Serif" font-size="10.00">AbstractDBQuery</text>
<polyline fill="none" stroke="black" points="791,-430.5 891,-430.5 "/>
<text text-anchor="start" x="799" y="-418.5" font-family="Helvetica,sans-Serif" font-size="10.00"># statement_M</text>
<text text-anchor="start" x="799" y="-407.5" font-family="Helvetica,sans-Serif" font-size="10.00"># connection_M</text>
<polyline fill="none" stroke="black" points="791,-400.5 891,-400.5 "/>
<text text-anchor="start" x="799" y="-388.5" font-family="Helvetica,sans-Serif" font-size="10.00">+ statement()</text>
<text text-anchor="start" x="799" y="-377.5" font-family="Helvetica,sans-Serif" font-size="10.00"># queryString()</text>
<text text-anchor="start" x="799" y="-366.5" font-family="Helvetica,sans-Serif" font-size="10.00"># cleanup()</text>
</a>
</g>
</g>
<!-- Node3&#45;&gt;Node2 -->
<g id="edge2" class="edge"><title>Node3&#45;&gt;Node2</title>
<path fill="none" stroke="midnightblue" d="M841,-349.316C841,-340.285 841,-331.159 841,-322.848"/>
<polygon fill="none" stroke="midnightblue" points="837.5,-349.425 841,-359.425 844.5,-349.425 837.5,-349.425"/>
</g>
</g>
</svg>
