<?xml version="1.0" encoding="UTF-8" standalone="no"?>
<!DOCTYPE svg PUBLIC "-//W3C//DTD SVG 1.1//EN"
 "http://www.w3.org/Graphics/SVG/1.1/DTD/svg11.dtd">
<!-- Generated by graphviz version 2.38.0 (20140413.2041)
 -->
<!-- Title: getLineItem Pages: 1 -->
<!--zoomable 296 -->
<svg id="main" version="1.1" xmlns="http://www.w3.org/2000/svg" xmlns:xlink="http://www.w3.org/1999/xlink" xml:space="preserve" onload="init(evt)">
<style type="text/css"><![CDATA[
.edge:hover path { stroke: red; }
.edge:hover polygon { stroke: red; fill: red; }
]]></style>
<script type="text/javascript"><![CDATA[
var edges = document.getElementsByTagName('g');
if (edges && edges.length) {
  for (var i=0;i<edges.length;i++) {
    if (edges[i].id.substr(0,4)=='edge') {
      edges[i].setAttribute('class','edge');
    }
  }
}
]]></script>
        <defs>
                <circle id="rim" cx="0" cy="0" r="7"/>
                <circle id="rim2" cx="0" cy="0" r="3.5"/>
                <g id="zoomPlus">
                        <use xlink:href="#rim" fill="#404040">
                                <set attributeName="fill" to="#808080" begin="zoomplus.mouseover" end="zoomplus.mouseout"/>
                        </use>
                        <path d="M-4,0h8M0,-4v8" fill="none" stroke="white" stroke-width="1.5" pointer-events="none"/>
                </g>
                <g id="zoomMin">
                        <use xlink:href="#rim" fill="#404040">
                                <set attributeName="fill" to="#808080" begin="zoomminus.mouseover" end="zoomminus.mouseout"/>
                        </use>
                        <path d="M-4,0h8" fill="none" stroke="white" stroke-width="1.5" pointer-events="none"/>
                </g>
                <g id="dirArrow">
                        <path fill="none" stroke="white" stroke-width="1.5" d="M0,-3.0v7 M-2.5,-0.5L0,-3.0L2.5,-0.5"/>
                </g>
               <g id="resetDef">
                       <use xlink:href="#rim2" fill="#404040">
                               <set attributeName="fill" to="#808080" begin="reset.mouseover" end="reset.mouseout"/>
                       </use>
               </g>
        </defs>

<script type="text/javascript">
var viewWidth = 1227;
var viewHeight = 296;
var sectionId = 'dynsection-3';
</script>
<script xlink:href="svgpan.js"/>
<svg id="graph" class="graph">
<g id="viewport">
<title>getLineItem</title>
<polygon fill="white" stroke="none" points="-4,4 -4,-291.5 1223,-291.5 1223,4 -4,4"/>
<!-- Node1 -->
<g id="node1" class="node"><title>Node1</title>
<polygon fill="#bfbfbf" stroke="black" points="0,-123 0,-142 74,-142 74,-123 0,-123"/>
<text text-anchor="middle" x="37" y="-130" font-family="Helvetica,sans-Serif" font-size="10.00">getLineItem</text>
</g>
<!-- Node2 -->
<g id="node2" class="node"><title>Node2</title>
<g id="a_node2"><a xlink:href="classcom_1_1tomoparts_1_1tomoBay_1_1model_1_1dataTypes_1_1financial_1_1SalesOrderDayBook_1_1PriceAdjustment.html#ad8b7947428df520815c610d319d7375a" target="_top" xlink:title="calculate the total cost (EX VAT) of the testPrices array. ">
<polygon fill="white" stroke="black" points="427,-246 427,-287 622,-287 622,-246 427,-246"/>
<text text-anchor="start" x="435" y="-275" font-family="Helvetica,sans-Serif" font-size="10.00">com.tomoparts.tomoBay.model.data</text>
<text text-anchor="start" x="435" y="-264" font-family="Helvetica,sans-Serif" font-size="10.00">Types.financial.SalesOrderDayBook.</text>
<text text-anchor="middle" x="524.5" y="-253" font-family="Helvetica,sans-Serif" font-size="10.00">PriceAdjustment.calculateTotal</text>
</a>
</g>
</g>
<!-- Node1&#45;&gt;Node2 -->
<g id="edge1" class="edge"><title>Node1&#45;&gt;Node2</title>
<path fill="none" stroke="midnightblue" d="M47.7379,-150.961C59.5338,-171.276 81.4276,-203.088 110,-218.5 208.432,-271.594 338.958,-278.038 426.81,-274.83"/>
<polygon fill="midnightblue" stroke="midnightblue" points="50.6925,-149.072 42.7734,-142.034 44.5749,-152.474 50.6925,-149.072"/>
</g>
<!-- Node6 -->
<g id="node6" class="node"><title>Node6</title>
<g id="a_node6"><a xlink:href="classcom_1_1tomoparts_1_1tomoBay_1_1model_1_1dataTypes_1_1financial_1_1SalesOrderDayBook_1_1PriceAdjustment.html#afd83b468aec87b8e8c03649edfb3cbbc" target="_top" xlink:title="convert the internal list of AbstractLineItem withing the AbstractSalesDayBookLine to an array...">
<polygon fill="white" stroke="black" points="427,-186 427,-227 622,-227 622,-186 427,-186"/>
<text text-anchor="start" x="435" y="-215" font-family="Helvetica,sans-Serif" font-size="10.00">com.tomoparts.tomoBay.model.data</text>
<text text-anchor="start" x="435" y="-204" font-family="Helvetica,sans-Serif" font-size="10.00">Types.financial.SalesOrderDayBook.</text>
<text text-anchor="middle" x="524.5" y="-193" font-family="Helvetica,sans-Serif" font-size="10.00">PriceAdjustment.convertListToArray</text>
</a>
</g>
</g>
<!-- Node1&#45;&gt;Node6 -->
<g id="edge5" class="edge"><title>Node1&#45;&gt;Node6</title>
<path fill="none" stroke="midnightblue" d="M53.7331,-149.145C67.2557,-162.213 88.0066,-179.494 110,-187.5 213.319,-225.112 340.839,-224.552 426.727,-218.014"/>
<polygon fill="midnightblue" stroke="midnightblue" points="56.1897,-146.652 46.6517,-142.039 51.2314,-151.593 56.1897,-146.652"/>
</g>
<!-- Node7 -->
<g id="node7" class="node"><title>Node7</title>
<g id="a_node7"><a xlink:href="classcom_1_1tomoparts_1_1tomoBay_1_1model_1_1dataTypes_1_1financial_1_1SalesOrderDayBook_1_1PriceAdjustment.html#a25654edd2b19acf24a704a92f4cfbf6e" target="_top" xlink:title="returns the number of AbstractLineItems (minus postage line items) contained within this AbstractSale...">
<polygon fill="white" stroke="black" points="139.5,-137 139.5,-178 334.5,-178 334.5,-137 139.5,-137"/>
<text text-anchor="start" x="147.5" y="-166" font-family="Helvetica,sans-Serif" font-size="10.00">com.tomoparts.tomoBay.model.data</text>
<text text-anchor="start" x="147.5" y="-155" font-family="Helvetica,sans-Serif" font-size="10.00">Types.financial.SalesOrderDayBook.</text>
<text text-anchor="middle" x="237" y="-144" font-family="Helvetica,sans-Serif" font-size="10.00">PriceAdjustment.noOfItems</text>
</a>
</g>
</g>
<!-- Node1&#45;&gt;Node7 -->
<g id="edge7" class="edge"><title>Node1&#45;&gt;Node7</title>
<path fill="none" stroke="midnightblue" d="M84.6933,-138.396C101.12,-140.47 120.241,-142.884 139.252,-145.284"/>
<polygon fill="midnightblue" stroke="midnightblue" points="84.6759,-134.866 74.3163,-137.085 83.799,-141.811 84.6759,-134.866"/>
</g>
<!-- Node8 -->
<g id="node8" class="node"><title>Node8</title>
<g id="a_node8"><a xlink:href="classcom_1_1tomoparts_1_1tomoBay_1_1model_1_1dataTypes_1_1financial_1_1SalesOrderDayBook_1_1PriceAdjustment.html#a7c388ac8b6eb2f6704db5aa38b291f1d" target="_top" xlink:title="actually performs the adjustement ">
<polygon fill="white" stroke="black" points="425.5,-88 425.5,-129 623.5,-129 623.5,-88 425.5,-88"/>
<text text-anchor="start" x="433.5" y="-117" font-family="Helvetica,sans-Serif" font-size="10.00">com.tomoparts.tomoBay.model.data</text>
<text text-anchor="start" x="433.5" y="-106" font-family="Helvetica,sans-Serif" font-size="10.00">Types.financial.SalesOrderDayBook.</text>
<text text-anchor="middle" x="524.5" y="-95" font-family="Helvetica,sans-Serif" font-size="10.00">PriceAdjustment.performAdjustement</text>
</a>
</g>
</g>
<!-- Node1&#45;&gt;Node8 -->
<g id="edge10" class="edge"><title>Node1&#45;&gt;Node8</title>
<path fill="none" stroke="midnightblue" d="M84.4219,-129.116C92.9279,-128.541 101.729,-127.977 110,-127.5 217.796,-121.281 341.496,-115.817 425.299,-112.364"/>
<polygon fill="midnightblue" stroke="midnightblue" points="83.9843,-125.638 74.2484,-129.816 84.4653,-132.621 83.9843,-125.638"/>
</g>
<!-- Node9 -->
<g id="node9" class="node"><title>Node9</title>
<g id="a_node9"><a xlink:href="classcom_1_1tomoparts_1_1tomoBay_1_1presenters_1_1presenterActions_1_1concreteActions_1_1OrderInfo.html#ab4b3569de633225260e7e17c8947c8c5" target="_top" xlink:title="formats the shipping information associated with this order ">
<polygon fill="white" stroke="black" points="116,-49.5 116,-79.5 358,-79.5 358,-49.5 116,-49.5"/>
<text text-anchor="start" x="124" y="-67.5" font-family="Helvetica,sans-Serif" font-size="10.00">com.tomoparts.tomoBay.presenters.presenter</text>
<text text-anchor="middle" x="237" y="-56.5" font-family="Helvetica,sans-Serif" font-size="10.00">Actions.concreteActions.OrderInfo.shippingInfo</text>
</a>
</g>
</g>
<!-- Node1&#45;&gt;Node9 -->
<g id="edge12" class="edge"><title>Node1&#45;&gt;Node9</title>
<path fill="none" stroke="midnightblue" d="M62.2335,-117.741C75.8741,-109.943 93.4464,-100.725 110,-94.5 125.575,-88.6431 142.674,-83.6655 159.115,-79.5483"/>
<polygon fill="midnightblue" stroke="midnightblue" points="60.3459,-114.79 53.479,-122.858 63.8785,-120.833 60.3459,-114.79"/>
</g>
<!-- Node12 -->
<g id="node12" class="node"><title>Node12</title>
<g id="a_node12"><a xlink:href="classcom_1_1tomoparts_1_1tomoBay_1_1presenters_1_1presenterActions_1_1concreteActions_1_1OrderInfo.html#a703cbb509cdc01530f19b03f573120c9" target="_top" xlink:title="formats the transaction information associated with this order ">
<polygon fill="white" stroke="black" points="110,-0.5 110,-30.5 364,-30.5 364,-0.5 110,-0.5"/>
<text text-anchor="start" x="118" y="-18.5" font-family="Helvetica,sans-Serif" font-size="10.00">com.tomoparts.tomoBay.presenters.presenter</text>
<text text-anchor="middle" x="237" y="-7.5" font-family="Helvetica,sans-Serif" font-size="10.00">Actions.concreteActions.OrderInfo.transactionInfo</text>
</a>
</g>
</g>
<!-- Node1&#45;&gt;Node12 -->
<g id="edge15" class="edge"><title>Node1&#45;&gt;Node12</title>
<path fill="none" stroke="midnightblue" d="M47.2377,-113.575C58.7991,-92.0204 80.6977,-57.4696 110,-39.5 115.6,-36.0658 121.583,-33.1044 127.785,-30.5524"/>
<polygon fill="midnightblue" stroke="midnightblue" points="43.9952,-112.227 42.5342,-122.721 50.2203,-115.429 43.9952,-112.227"/>
</g>
<!-- Node3 -->
<g id="node3" class="node"><title>Node3</title>
<g id="a_node3"><a xlink:href="classcom_1_1tomoparts_1_1tomoBay_1_1model_1_1dataTypes_1_1financial_1_1SalesOrderDayBook_1_1PriceAdjustment.html#ac2a5cb96c13a986d05bd0457a1971e2f" target="_top" xlink:title="calculate the adjustments necessary and apply them to the AbstractSalesDayBookLine provided as an arg...">
<polygon fill="white" stroke="black" points="708.5,-161 708.5,-202 903.5,-202 903.5,-161 708.5,-161"/>
<text text-anchor="start" x="716.5" y="-190" font-family="Helvetica,sans-Serif" font-size="10.00">com.tomoparts.tomoBay.model.data</text>
<text text-anchor="start" x="716.5" y="-179" font-family="Helvetica,sans-Serif" font-size="10.00">Types.financial.SalesOrderDayBook.</text>
<text text-anchor="middle" x="806" y="-168" font-family="Helvetica,sans-Serif" font-size="10.00">PriceAdjustment.adjust</text>
</a>
</g>
</g>
<!-- Node2&#45;&gt;Node3 -->
<g id="edge2" class="edge"><title>Node2&#45;&gt;Node3</title>
<path fill="none" stroke="midnightblue" d="M624.575,-243.367C632.865,-241.149 641.095,-238.847 649,-236.5 683.274,-226.323 721.108,-213.037 750.932,-202.072"/>
<polygon fill="midnightblue" stroke="midnightblue" points="623.61,-240.002 614.83,-245.932 625.392,-246.772 623.61,-240.002"/>
</g>
<!-- Node4 -->
<g id="node4" class="node"><title>Node4</title>
<g id="a_node4"><a xlink:href="classcom_1_1tomoparts_1_1tomoBay_1_1model_1_1dataTypes_1_1financial_1_1SalesOrderDayBook_1_1AbstractSalesDayBookLine.html#a0c8ce8b50d57fa99babc2c2199a39fe3" target="_top" xlink:title="adjustPrices">
<polygon fill="white" stroke="black" points="963,-172 963,-191 1037,-191 1037,-172 963,-172"/>
<text text-anchor="middle" x="1000" y="-179" font-family="Helvetica,sans-Serif" font-size="10.00">adjustPrices</text>
</a>
</g>
</g>
<!-- Node3&#45;&gt;Node4 -->
<g id="edge3" class="edge"><title>Node3&#45;&gt;Node4</title>
<path fill="none" stroke="midnightblue" d="M913.929,-181.5C931.469,-181.5 948.516,-181.5 962.687,-181.5"/>
<polygon fill="midnightblue" stroke="midnightblue" points="913.563,-178 903.562,-181.5 913.562,-185 913.563,-178"/>
</g>
<!-- Node5 -->
<g id="node5" class="node"><title>Node5</title>
<g id="a_node5"><a xlink:href="classcom_1_1tomoparts_1_1tomoBay_1_1model_1_1dataTypes_1_1financial_1_1SalesOrderDayBook_1_1AbstractSalesDayBookLine.html#ae9d19609629c59f8df7ddec196fcc30c" target="_top" xlink:title="CONSTRUCTOR, creates a SalesDayBookLine based on the Order passed in as a parameter. ">
<polygon fill="white" stroke="black" points="1073,-172 1073,-191 1219,-191 1219,-172 1073,-172"/>
<text text-anchor="middle" x="1146" y="-179" font-family="Helvetica,sans-Serif" font-size="10.00">AbstractSalesDayBookLine</text>
</a>
</g>
</g>
<!-- Node4&#45;&gt;Node5 -->
<g id="edge4" class="edge"><title>Node4&#45;&gt;Node5</title>
<path fill="none" stroke="midnightblue" d="M1047.6,-181.5C1055.65,-181.5 1064.18,-181.5 1072.72,-181.5"/>
<polygon fill="midnightblue" stroke="midnightblue" points="1047.34,-178 1037.34,-181.5 1047.34,-185 1047.34,-178"/>
</g>
<!-- Node6&#45;&gt;Node3 -->
<g id="edge6" class="edge"><title>Node6&#45;&gt;Node3</title>
<path fill="none" stroke="midnightblue" d="M632.329,-196.945C657.353,-194.706 683.87,-192.335 708.417,-190.139"/>
<polygon fill="midnightblue" stroke="midnightblue" points="631.728,-193.484 622.079,-197.861 632.352,-200.457 631.728,-193.484"/>
</g>
<!-- Node7&#45;&gt;Node3 -->
<g id="edge8" class="edge"><title>Node7&#45;&gt;Node3</title>
<path fill="none" stroke="midnightblue" d="M344.777,-162.02C449.416,-166.449 607.486,-173.14 708.459,-177.414"/>
<polygon fill="midnightblue" stroke="midnightblue" points="344.644,-158.511 334.505,-161.585 344.348,-165.505 344.644,-158.511"/>
</g>
<!-- Node7&#45;&gt;Node6 -->
<g id="edge9" class="edge"><title>Node7&#45;&gt;Node6</title>
<path fill="none" stroke="midnightblue" d="M344.524,-175.783C371.553,-180.422 400.438,-185.379 426.942,-189.928"/>
<polygon fill="midnightblue" stroke="midnightblue" points="345.105,-172.331 334.657,-174.089 343.921,-179.23 345.105,-172.331"/>
</g>
<!-- Node8&#45;&gt;Node3 -->
<g id="edge11" class="edge"><title>Node8&#45;&gt;Node3</title>
<path fill="none" stroke="midnightblue" d="M614.125,-131.647C650.197,-141.069 691.541,-151.867 726.506,-160.999"/>
<polygon fill="midnightblue" stroke="midnightblue" points="614.66,-128.17 604.1,-129.029 612.891,-134.942 614.66,-128.17"/>
</g>
<!-- Node10 -->
<g id="node10" class="node"><title>Node10</title>
<g id="a_node10"><a xlink:href="classcom_1_1tomoparts_1_1tomoBay_1_1presenters_1_1presenterActions_1_1concreteActions_1_1OrderInfo.html#afeec1aeda079b77245edea1e74b25f33" target="_top" xlink:title="assembles the various parts of the order and outputs it as a fully formed JSON string. ">
<polygon fill="white" stroke="black" points="400,-19.5 400,-49.5 649,-49.5 649,-19.5 400,-19.5"/>
<text text-anchor="start" x="408" y="-37.5" font-family="Helvetica,sans-Serif" font-size="10.00">com.tomoparts.tomoBay.presenters.presenter</text>
<text text-anchor="middle" x="524.5" y="-26.5" font-family="Helvetica,sans-Serif" font-size="10.00">Actions.concreteActions.OrderInfo.formatResults</text>
</a>
</g>
</g>
<!-- Node9&#45;&gt;Node10 -->
<g id="edge13" class="edge"><title>Node9&#45;&gt;Node10</title>
<path fill="none" stroke="midnightblue" d="M368.258,-50.8127C378.733,-49.712 389.298,-48.6018 399.725,-47.5061"/>
<polygon fill="midnightblue" stroke="midnightblue" points="367.83,-47.3383 358.25,-51.8642 368.561,-54.3 367.83,-47.3383"/>
</g>
<!-- Node11 -->
<g id="node11" class="node"><title>Node11</title>
<g id="a_node11"><a xlink:href="classcom_1_1tomoparts_1_1tomoBay_1_1presenters_1_1presenterActions_1_1concreteActions_1_1OrderInfo.html#adb3dedf31dc2c7fc796f20406c235ccd" target="_top" xlink:title="performs the action specified ">
<polygon fill="white" stroke="black" points="685,-19.5 685,-49.5 927,-49.5 927,-19.5 685,-19.5"/>
<text text-anchor="start" x="693" y="-37.5" font-family="Helvetica,sans-Serif" font-size="10.00">com.tomoparts.tomoBay.presenters.presenter</text>
<text text-anchor="middle" x="806" y="-26.5" font-family="Helvetica,sans-Serif" font-size="10.00">Actions.concreteActions.OrderInfo.execute</text>
</a>
</g>
</g>
<!-- Node10&#45;&gt;Node11 -->
<g id="edge14" class="edge"><title>Node10&#45;&gt;Node11</title>
<path fill="none" stroke="midnightblue" d="M659.322,-34.5C667.865,-34.5 676.439,-34.5 684.914,-34.5"/>
<polygon fill="midnightblue" stroke="midnightblue" points="659.313,-31.0001 649.313,-34.5 659.313,-38.0001 659.313,-31.0001"/>
</g>
<!-- Node12&#45;&gt;Node10 -->
<g id="edge16" class="edge"><title>Node12&#45;&gt;Node10</title>
<path fill="none" stroke="midnightblue" d="M374.042,-24.5536C382.567,-25.1209 391.125,-25.6904 399.592,-26.254"/>
<polygon fill="midnightblue" stroke="midnightblue" points="374.266,-21.0608 364.056,-23.889 373.801,-28.0454 374.266,-21.0608"/>
</g>
</g>
</svg>
        <g id="navigator" transform="translate(0 0)" fill="#404254">
                <rect fill="#f2f5e9" fill-opacity="0.5" stroke="#606060" stroke-width=".5" x="0" y="0" width="60" height="60"/>
                <use id="zoomplus" xlink:href="#zoomPlus" x="17" y="9" onmousedown="handleZoom(evt,'in')"/>
                <use id="zoomminus" xlink:href="#zoomMin" x="42" y="9" onmousedown="handleZoom(evt,'out')"/>
                <use id="reset" xlink:href="#resetDef" x="30" y="36" onmousedown="handleReset()"/>
                <g id="arrowUp" xlink:href="#dirArrow" transform="translate(30 24)" onmousedown="handlePan(0,-1)">
                  <use xlink:href="#rim" fill="#404040">
                        <set attributeName="fill" to="#808080" begin="arrowUp.mouseover" end="arrowUp.mouseout"/>
                  </use>
                  <path fill="none" stroke="white" stroke-width="1.5" d="M0,-3.0v7 M-2.5,-0.5L0,-3.0L2.5,-0.5"/>
                </g>
                <g id="arrowRight" xlink:href="#dirArrow" transform="rotate(90) translate(36 -43)" onmousedown="handlePan(1,0)">
                  <use xlink:href="#rim" fill="#404040">
                        <set attributeName="fill" to="#808080" begin="arrowRight.mouseover" end="arrowRight.mouseout"/>
                  </use>
                  <path fill="none" stroke="white" stroke-width="1.5" d="M0,-3.0v7 M-2.5,-0.5L0,-3.0L2.5,-0.5"/>
                </g>
                <g id="arrowDown" xlink:href="#dirArrow" transform="rotate(180) translate(-30 -48)" onmousedown="handlePan(0,1)">
                  <use xlink:href="#rim" fill="#404040">
                        <set attributeName="fill" to="#808080" begin="arrowDown.mouseover" end="arrowDown.mouseout"/>
                  </use>
                  <path fill="none" stroke="white" stroke-width="1.5" d="M0,-3.0v7 M-2.5,-0.5L0,-3.0L2.5,-0.5"/>
                </g>
                <g id="arrowLeft" xlink:href="#dirArrow" transform="rotate(270) translate(-36 17)" onmousedown="handlePan(-1,0)">
                  <use xlink:href="#rim" fill="#404040">
                        <set attributeName="fill" to="#808080" begin="arrowLeft.mouseover" end="arrowLeft.mouseout"/>
                  </use>
                  <path fill="none" stroke="white" stroke-width="1.5" d="M0,-3.0v7 M-2.5,-0.5L0,-3.0L2.5,-0.5"/>
                </g>
        </g>
        <svg viewBox="0 0 15 15" width="100%" height="30px" preserveAspectRatio="xMaxYMin meet">
         <g id="arrow_out" transform="scale(0.3 0.3)">
          <a xlink:href="classcom_1_1tomoparts_1_1tomoBay_1_1model_1_1dataTypes_1_1financial_1_1SalesOrderDayBook_1_1AbstractSalesDayBookLine_a1b2142782be2899c8c3c19c5b3e05247_icgraph_org.svg" target="_base">
           <rect id="button" ry="5" rx="5" y="6" x="6" height="38" width="38"
                fill="#f2f5e9" fill-opacity="0.5" stroke="#606060" stroke-width="1.0"/>
           <path id="arrow"
             d="M 11.500037,31.436501 C 11.940474,20.09759 22.043105,11.32322 32.158766,21.979434 L 37.068811,17.246167 C 37.068811,17.246167 37.088388,32 37.088388,32 L 22.160133,31.978069 C 22.160133,31.978069 26.997745,27.140456 26.997745,27.140456 C 18.528582,18.264221 13.291696,25.230495 11.500037,31.436501 z"
             style="fill:#404040;"/>
          </a>
         </g>
        </svg>
</svg>
