<?xml version="1.0" encoding="UTF-8" standalone="no"?>
<!DOCTYPE svg PUBLIC "-//W3C//DTD SVG 1.1//EN"
 "http://www.w3.org/Graphics/SVG/1.1/DTD/svg11.dtd">
<!-- Generated by graphviz version 2.38.0 (20140413.2041)
 -->
<!-- Title: AbstractSalesDayBookLine Pages: 1 -->
<svg width="849pt" height="1491pt"
 viewBox="0.00 0.00 849.00 1491.00" xmlns="http://www.w3.org/2000/svg" xmlns:xlink="http://www.w3.org/1999/xlink">
<g id="graph0" class="graph" transform="scale(1 1) rotate(0) translate(4 1487)">
<title>AbstractSalesDayBookLine</title>
<polygon fill="white" stroke="none" points="-4,4 -4,-1487 845,-1487 845,4 -4,4"/>
<!-- Node1 -->
<g id="node1" class="node"><title>Node1</title>
<polygon fill="#bfbfbf" stroke="black" points="152.5,-0.5 152.5,-178.5 316.5,-178.5 316.5,-0.5 152.5,-0.5"/>
<text text-anchor="middle" x="234.5" y="-166.5" font-family="Helvetica,sans-Serif" font-size="10.00">AbstractSalesDayBookLine</text>
<polyline fill="none" stroke="black" points="152.5,-159.5 316.5,-159.5 "/>
<text text-anchor="start" x="160.5" y="-147.5" font-family="Helvetica,sans-Serif" font-size="10.00">&#45; createdTime_M</text>
<polyline fill="none" stroke="black" points="152.5,-140.5 316.5,-140.5 "/>
<text text-anchor="start" x="160.5" y="-128.5" font-family="Helvetica,sans-Serif" font-size="10.00">+ AbstractSalesDayBookLine()</text>
<text text-anchor="start" x="160.5" y="-117.5" font-family="Helvetica,sans-Serif" font-size="10.00">+ getLineItem()</text>
<text text-anchor="start" x="160.5" y="-106.5" font-family="Helvetica,sans-Serif" font-size="10.00">+ size()</text>
<text text-anchor="start" x="160.5" y="-95.5" font-family="Helvetica,sans-Serif" font-size="10.00">+ orderInfo()</text>
<text text-anchor="start" x="160.5" y="-84.5" font-family="Helvetica,sans-Serif" font-size="10.00">+ createdDate()</text>
<text text-anchor="start" x="160.5" y="-73.5" font-family="Helvetica,sans-Serif" font-size="10.00">+ totalIncVat()</text>
<text text-anchor="start" x="160.5" y="-62.5" font-family="Helvetica,sans-Serif" font-size="10.00">+ totalExVat()</text>
<text text-anchor="start" x="160.5" y="-51.5" font-family="Helvetica,sans-Serif" font-size="10.00">+ invoiceNumber()</text>
<text text-anchor="start" x="160.5" y="-40.5" font-family="Helvetica,sans-Serif" font-size="10.00">+ format()</text>
<text text-anchor="start" x="160.5" y="-29.5" font-family="Helvetica,sans-Serif" font-size="10.00">+ iterator()</text>
<text text-anchor="start" x="160.5" y="-18.5" font-family="Helvetica,sans-Serif" font-size="10.00"># generateLineItems()</text>
<text text-anchor="start" x="160.5" y="-7.5" font-family="Helvetica,sans-Serif" font-size="10.00">&#45; adjustPrices()</text>
</g>
<!-- Node2 -->
<g id="node2" class="node"><title>Node2</title>
<polygon fill="white" stroke="#bfbfbf" points="0,-298 0,-355 157,-355 157,-298 0,-298"/>
<text text-anchor="middle" x="78.5" y="-343" font-family="Helvetica,sans-Serif" font-size="10.00">Iterable&lt; AbstractLineItem &gt;</text>
<polyline fill="none" stroke="#bfbfbf" points="0,-336 157,-336 "/>
<text text-anchor="middle" x="78.5" y="-324" font-family="Helvetica,sans-Serif" font-size="10.00"> </text>
<polyline fill="none" stroke="#bfbfbf" points="0,-317 157,-317 "/>
<text text-anchor="middle" x="78.5" y="-305" font-family="Helvetica,sans-Serif" font-size="10.00"> </text>
</g>
<!-- Node2&#45;&gt;Node1 -->
<g id="edge1" class="edge"><title>Node2&#45;&gt;Node1</title>
<path fill="none" stroke="midnightblue" d="M102.786,-288.916C122.352,-259.44 150.687,-216.757 176.066,-178.525"/>
<polygon fill="none" stroke="midnightblue" points="99.6225,-287.352 97.0079,-297.62 105.455,-291.224 99.6225,-287.352"/>
</g>
<!-- Node3 -->
<g id="node3" class="node"><title>Node3</title>
<g id="a_node3"><a xlink:href="classcom_1_1tomoparts_1_1tomoBay_1_1model_1_1dataTypes_1_1order_1_1Order.html" target="_top" xlink:title="This class represents an eBay order, and the relevant information associated with it...">
<polygon fill="white" stroke="black" points="175,-226.5 175,-426.5 294,-426.5 294,-226.5 175,-226.5"/>
<text text-anchor="middle" x="234.5" y="-414.5" font-family="Helvetica,sans-Serif" font-size="10.00">Order</text>
<polyline fill="none" stroke="black" points="175,-407.5 294,-407.5 "/>
<text text-anchor="middle" x="234.5" y="-395.5" font-family="Helvetica,sans-Serif" font-size="10.00"> </text>
<polyline fill="none" stroke="black" points="175,-388.5 294,-388.5 "/>
<text text-anchor="start" x="183" y="-376.5" font-family="Helvetica,sans-Serif" font-size="10.00">+ Order()</text>
<text text-anchor="start" x="183" y="-365.5" font-family="Helvetica,sans-Serif" font-size="10.00">+ orderID()</text>
<text text-anchor="start" x="183" y="-354.5" font-family="Helvetica,sans-Serif" font-size="10.00">+ buyer()</text>
<text text-anchor="start" x="183" y="-343.5" font-family="Helvetica,sans-Serif" font-size="10.00">+ transaction()</text>
<text text-anchor="start" x="183" y="-332.5" font-family="Helvetica,sans-Serif" font-size="10.00">+ noOfTransactions()</text>
<text text-anchor="start" x="183" y="-321.5" font-family="Helvetica,sans-Serif" font-size="10.00">+ salesRecNo()</text>
<text text-anchor="start" x="183" y="-310.5" font-family="Helvetica,sans-Serif" font-size="10.00">+ account()</text>
<text text-anchor="start" x="183" y="-299.5" font-family="Helvetica,sans-Serif" font-size="10.00">+ shippingType()</text>
<text text-anchor="start" x="183" y="-288.5" font-family="Helvetica,sans-Serif" font-size="10.00">+ createdTime()</text>
<text text-anchor="start" x="183" y="-277.5" font-family="Helvetica,sans-Serif" font-size="10.00">+ invoiceNo()</text>
<text text-anchor="start" x="183" y="-266.5" font-family="Helvetica,sans-Serif" font-size="10.00">+ totalPrice()</text>
<text text-anchor="start" x="183" y="-255.5" font-family="Helvetica,sans-Serif" font-size="10.00">+ shippingCost()</text>
<text text-anchor="start" x="183" y="-244.5" font-family="Helvetica,sans-Serif" font-size="10.00">&#45; getOrderInfo()</text>
<text text-anchor="start" x="183" y="-233.5" font-family="Helvetica,sans-Serif" font-size="10.00">&#45; getTransactionList()</text>
</a>
</g>
</g>
<!-- Node3&#45;&gt;Node1 -->
<g id="edge2" class="edge"><title>Node3&#45;&gt;Node1</title>
<path fill="none" stroke="#404040" d="M234.5,-226.179C234.5,-214.465 234.5,-202.504 234.5,-190.776"/>
<polygon fill="none" stroke="#404040" points="234.5,-190.66 230.5,-184.66 234.5,-178.66 238.5,-184.66 234.5,-190.66"/>
<text text-anchor="middle" x="257.5" y="-200" font-family="Helvetica,sans-Serif" font-size="10.00"> &#45;order_M</text>
</g>
<!-- Node4 -->
<g id="node4" class="node"><title>Node4</title>
<polygon fill="white" stroke="#bfbfbf" points="133.5,-502 133.5,-559 183.5,-559 183.5,-502 133.5,-502"/>
<text text-anchor="middle" x="158.5" y="-547" font-family="Helvetica,sans-Serif" font-size="10.00">Logger</text>
<polyline fill="none" stroke="#bfbfbf" points="133.5,-540 183.5,-540 "/>
<text text-anchor="middle" x="158.5" y="-528" font-family="Helvetica,sans-Serif" font-size="10.00"> </text>
<polyline fill="none" stroke="#bfbfbf" points="133.5,-521 183.5,-521 "/>
<text text-anchor="middle" x="158.5" y="-509" font-family="Helvetica,sans-Serif" font-size="10.00"> </text>
</g>
<!-- Node4&#45;&gt;Node3 -->
<g id="edge3" class="edge"><title>Node4&#45;&gt;Node3</title>
<path fill="none" stroke="#404040" d="M160.365,-501.926C162.079,-485.137 165.339,-463.442 171.5,-445 172.256,-442.736 173.054,-440.464 173.888,-438.188"/>
<polygon fill="none" stroke="#404040" points="173.974,-437.969 172.434,-430.924 178.345,-426.794 179.885,-433.839 173.974,-437.969"/>
<text text-anchor="middle" x="184.5" y="-448" font-family="Helvetica,sans-Serif" font-size="10.00"> ~log</text>
</g>
<!-- Node5 -->
<g id="node5" class="node"><title>Node5</title>
<g id="a_node5"><a xlink:href="classcom_1_1tomoparts_1_1tomoBay_1_1model_1_1dataTypes_1_1heteroTypeContainer_1_1HeteroFieldContainer.html" target="_top" xlink:title="This class represents a container of AbstractField types and a value associated with this field...">
<polygon fill="white" stroke="black" points="254,-1006.5 254,-1129.5 391,-1129.5 391,-1006.5 254,-1006.5"/>
<text text-anchor="middle" x="322.5" y="-1117.5" font-family="Helvetica,sans-Serif" font-size="10.00">HeteroFieldContainer</text>
<polyline fill="none" stroke="black" points="254,-1110.5 391,-1110.5 "/>
<text text-anchor="middle" x="322.5" y="-1098.5" font-family="Helvetica,sans-Serif" font-size="10.00"> </text>
<polyline fill="none" stroke="black" points="254,-1091.5 391,-1091.5 "/>
<text text-anchor="start" x="262" y="-1079.5" font-family="Helvetica,sans-Serif" font-size="10.00">+ HeteroFieldContainer()</text>
<text text-anchor="start" x="262" y="-1068.5" font-family="Helvetica,sans-Serif" font-size="10.00">+ clear()</text>
<text text-anchor="start" x="262" y="-1057.5" font-family="Helvetica,sans-Serif" font-size="10.00">+ size()</text>
<text text-anchor="start" x="262" y="-1046.5" font-family="Helvetica,sans-Serif" font-size="10.00">+ finalize()</text>
<text text-anchor="start" x="262" y="-1035.5" font-family="Helvetica,sans-Serif" font-size="10.00">~ add()</text>
<text text-anchor="start" x="262" y="-1024.5" font-family="Helvetica,sans-Serif" font-size="10.00">~ get()</text>
<text text-anchor="start" x="262" y="-1013.5" font-family="Helvetica,sans-Serif" font-size="10.00">&#45; isSameType()</text>
</a>
</g>
</g>
<!-- Node5&#45;&gt;Node3 -->
<g id="edge4" class="edge"><title>Node5&#45;&gt;Node3</title>
<path fill="none" stroke="#404040" d="M291.092,-1006.48C262.836,-948.395 223.398,-857.287 207.5,-773 186.264,-660.414 198.566,-529.264 212.749,-438.553"/>
<polygon fill="none" stroke="#404040" points="212.768,-438.433 209.769,-431.876 214.668,-426.585 217.668,-433.142 212.768,-438.433"/>
<text text-anchor="middle" x="242" y="-686.5" font-family="Helvetica,sans-Serif" font-size="10.00"> &#45;order_info_M</text>
</g>
<!-- Node7 -->
<g id="node7" class="node"><title>Node7</title>
<g id="a_node7"><a xlink:href="classcom_1_1tomoparts_1_1tomoBay_1_1model_1_1dataTypes_1_1order_1_1Buyer.html" target="_top" xlink:title="This class represents an eBay buyer and once instantiated contains all the pertinent information on t...">
<polygon fill="white" stroke="black" points="285.5,-605.5 285.5,-772.5 365.5,-772.5 365.5,-605.5 285.5,-605.5"/>
<text text-anchor="middle" x="325.5" y="-760.5" font-family="Helvetica,sans-Serif" font-size="10.00">Buyer</text>
<polyline fill="none" stroke="black" points="285.5,-753.5 365.5,-753.5 "/>
<text text-anchor="start" x="293.5" y="-741.5" font-family="Helvetica,sans-Serif" font-size="10.00">&#45; ERRORMSG</text>
<polyline fill="none" stroke="black" points="285.5,-734.5 365.5,-734.5 "/>
<text text-anchor="start" x="293.5" y="-722.5" font-family="Helvetica,sans-Serif" font-size="10.00">+ Buyer()</text>
<text text-anchor="start" x="293.5" y="-711.5" font-family="Helvetica,sans-Serif" font-size="10.00">+ Buyer()</text>
<text text-anchor="start" x="293.5" y="-700.5" font-family="Helvetica,sans-Serif" font-size="10.00">+ buyerID()</text>
<text text-anchor="start" x="293.5" y="-689.5" font-family="Helvetica,sans-Serif" font-size="10.00">+ name()</text>
<text text-anchor="start" x="293.5" y="-678.5" font-family="Helvetica,sans-Serif" font-size="10.00">+ street1()</text>
<text text-anchor="start" x="293.5" y="-667.5" font-family="Helvetica,sans-Serif" font-size="10.00">+ street2()</text>
<text text-anchor="start" x="293.5" y="-656.5" font-family="Helvetica,sans-Serif" font-size="10.00">+ county()</text>
<text text-anchor="start" x="293.5" y="-645.5" font-family="Helvetica,sans-Serif" font-size="10.00">+ city()</text>
<text text-anchor="start" x="293.5" y="-634.5" font-family="Helvetica,sans-Serif" font-size="10.00">+ postcode()</text>
<text text-anchor="start" x="293.5" y="-623.5" font-family="Helvetica,sans-Serif" font-size="10.00">+ email()</text>
<text text-anchor="start" x="293.5" y="-612.5" font-family="Helvetica,sans-Serif" font-size="10.00">+ phoneNo()</text>
</a>
</g>
</g>
<!-- Node5&#45;&gt;Node7 -->
<g id="edge7" class="edge"><title>Node5&#45;&gt;Node7</title>
<path fill="none" stroke="#404040" d="M307.124,-1006.3C305.203,-996.562 303.548,-986.546 302.5,-977 295.475,-913.003 301.341,-840.753 308.904,-784.755"/>
<polygon fill="none" stroke="#404040" points="308.928,-784.585 305.799,-778.088 310.592,-772.701 313.722,-779.198 308.928,-784.585"/>
<text text-anchor="middle" x="335" y="-969" font-family="Helvetica,sans-Serif" font-size="10.00"> &#45;buyerInfo_M</text>
</g>
<!-- Node8 -->
<g id="node8" class="node"><title>Node8</title>
<g id="a_node8"><a xlink:href="classcom_1_1tomoparts_1_1tomoBay_1_1model_1_1dataTypes_1_1order_1_1Transaction.html" target="_top" xlink:title="This class represents an eBay transaction, each transaction contains 1 Listing. ">
<polygon fill="white" stroke="black" points="324,-474.5 324,-586.5 443,-586.5 443,-474.5 324,-474.5"/>
<text text-anchor="middle" x="383.5" y="-574.5" font-family="Helvetica,sans-Serif" font-size="10.00">Transaction</text>
<polyline fill="none" stroke="black" points="324,-567.5 443,-567.5 "/>
<text text-anchor="middle" x="383.5" y="-555.5" font-family="Helvetica,sans-Serif" font-size="10.00"> </text>
<polyline fill="none" stroke="black" points="324,-548.5 443,-548.5 "/>
<text text-anchor="start" x="332" y="-536.5" font-family="Helvetica,sans-Serif" font-size="10.00">+ Transaction()</text>
<text text-anchor="start" x="332" y="-525.5" font-family="Helvetica,sans-Serif" font-size="10.00">+ listing()</text>
<text text-anchor="start" x="332" y="-514.5" font-family="Helvetica,sans-Serif" font-size="10.00">+ qtyPurchased()</text>
<text text-anchor="start" x="332" y="-503.5" font-family="Helvetica,sans-Serif" font-size="10.00">+ transactionPrice()</text>
<text text-anchor="start" x="332" y="-492.5" font-family="Helvetica,sans-Serif" font-size="10.00">+ shippingCost()</text>
<text text-anchor="start" x="332" y="-481.5" font-family="Helvetica,sans-Serif" font-size="10.00">&#45; getTransactionInfo()</text>
</a>
</g>
</g>
<!-- Node5&#45;&gt;Node8 -->
<g id="edge9" class="edge"><title>Node5&#45;&gt;Node8</title>
<path fill="none" stroke="#404040" d="M357.122,-1006.39C361.316,-996.807 364.995,-986.818 367.5,-977 385.212,-907.569 385.672,-705.501 384.571,-598.997"/>
<polygon fill="none" stroke="#404040" points="384.569,-598.809 380.502,-592.855 384.434,-586.81 388.501,-592.765 384.569,-598.809"/>
<text text-anchor="middle" x="432" y="-867" font-family="Helvetica,sans-Serif" font-size="10.00"> &#45;transaction_info_M</text>
</g>
<!-- Node9 -->
<g id="node9" class="node"><title>Node9</title>
<g id="a_node9"><a xlink:href="classcom_1_1tomoparts_1_1tomoBay_1_1model_1_1dataTypes_1_1order_1_1Listing.html" target="_top" xlink:title="This class represents an eBay Listing and once instantiated, contains all the information pertinent t...">
<polygon fill="white" stroke="black" points="497,-791.5 497,-947.5 592,-947.5 592,-791.5 497,-791.5"/>
<text text-anchor="middle" x="544.5" y="-935.5" font-family="Helvetica,sans-Serif" font-size="10.00">Listing</text>
<polyline fill="none" stroke="black" points="497,-928.5 592,-928.5 "/>
<text text-anchor="start" x="505" y="-916.5" font-family="Helvetica,sans-Serif" font-size="10.00">&#45; partQtys_M</text>
<polyline fill="none" stroke="black" points="497,-909.5 592,-909.5 "/>
<text text-anchor="start" x="505" y="-897.5" font-family="Helvetica,sans-Serif" font-size="10.00">+ Listing()</text>
<text text-anchor="start" x="505" y="-886.5" font-family="Helvetica,sans-Serif" font-size="10.00">+ listingID()</text>
<text text-anchor="start" x="505" y="-875.5" font-family="Helvetica,sans-Serif" font-size="10.00">+ title()</text>
<text text-anchor="start" x="505" y="-864.5" font-family="Helvetica,sans-Serif" font-size="10.00">+ brand()</text>
<text text-anchor="start" x="505" y="-853.5" font-family="Helvetica,sans-Serif" font-size="10.00">+ noOfParts()</text>
<text text-anchor="start" x="505" y="-842.5" font-family="Helvetica,sans-Serif" font-size="10.00">+ partNos()</text>
<text text-anchor="start" x="505" y="-831.5" font-family="Helvetica,sans-Serif" font-size="10.00">+ part()</text>
<text text-anchor="start" x="505" y="-820.5" font-family="Helvetica,sans-Serif" font-size="10.00">+ qty()</text>
<text text-anchor="start" x="505" y="-809.5" font-family="Helvetica,sans-Serif" font-size="10.00">+ listingCost()</text>
<text text-anchor="start" x="505" y="-798.5" font-family="Helvetica,sans-Serif" font-size="10.00">&#45; getListingInfo()</text>
</a>
</g>
</g>
<!-- Node5&#45;&gt;Node9 -->
<g id="edge11" class="edge"><title>Node5&#45;&gt;Node9</title>
<path fill="none" stroke="#404040" d="M391.339,-1021.68C420.797,-1000.84 454.729,-974.809 482.5,-948 484.464,-946.104 486.423,-944.146 488.369,-942.14"/>
<polygon fill="none" stroke="#404040" points="488.619,-941.871 489.783,-934.754 496.8,-933.092 495.636,-940.208 488.619,-941.871"/>
<text text-anchor="middle" x="498" y="-969" font-family="Helvetica,sans-Serif" font-size="10.00"> &#45;ListingInfo_M</text>
</g>
<!-- Node6 -->
<g id="node6" class="node"><title>Node6</title>
<polygon fill="white" stroke="#bfbfbf" points="209,-1227 209,-1306 436,-1306 436,-1227 209,-1227"/>
<text text-anchor="start" x="217" y="-1294" font-family="Helvetica,sans-Serif" font-size="10.00">Map&lt; String, Map&lt; com.tomoparts.tomo</text>
<text text-anchor="start" x="217" y="-1283" font-family="Helvetica,sans-Serif" font-size="10.00">Bay.model.dataTypes.heteroTypeContainer.</text>
<text text-anchor="middle" x="322.5" y="-1272" font-family="Helvetica,sans-Serif" font-size="10.00">AbstractField, Object &gt; &gt;</text>
<polyline fill="none" stroke="#bfbfbf" points="209,-1265 436,-1265 "/>
<text text-anchor="middle" x="322.5" y="-1253" font-family="Helvetica,sans-Serif" font-size="10.00"> </text>
<polyline fill="none" stroke="#bfbfbf" points="209,-1246 436,-1246 "/>
<text text-anchor="middle" x="322.5" y="-1234" font-family="Helvetica,sans-Serif" font-size="10.00"> </text>
</g>
<!-- Node6&#45;&gt;Node5 -->
<g id="edge5" class="edge"><title>Node6&#45;&gt;Node5</title>
<path fill="none" stroke="#404040" d="M322.5,-1226.68C322.5,-1202.5 322.5,-1170.64 322.5,-1141.89"/>
<polygon fill="none" stroke="#404040" points="322.5,-1141.79 318.5,-1135.79 322.5,-1129.79 326.5,-1135.79 322.5,-1141.79"/>
<text text-anchor="middle" x="353" y="-1162" font-family="Helvetica,sans-Serif" font-size="10.00"> &#45;fieldMap_M</text>
</g>
<!-- Node7&#45;&gt;Node3 -->
<g id="edge6" class="edge"><title>Node7&#45;&gt;Node3</title>
<path fill="none" stroke="#404040" d="M285.292,-610.8C284.037,-608.833 282.772,-606.896 281.5,-605 275.697,-596.353 270.639,-596.556 266.5,-587 246.543,-540.922 237.858,-486.211 234.431,-438.933"/>
<polygon fill="none" stroke="#404040" points="234.418,-438.741 230.043,-433.009 233.651,-426.766 238.026,-432.498 234.418,-438.741"/>
<text text-anchor="middle" x="290.5" y="-528" font-family="Helvetica,sans-Serif" font-size="10.00"> &#45;buyer_M</text>
</g>
<!-- Node8&#45;&gt;Node3 -->
<g id="edge8" class="edge"><title>Node8&#45;&gt;Node3</title>
<path fill="none" stroke="#404040" d="M338.86,-474.452C326.84,-459.242 313.989,-442.622 302.5,-427 302.064,-426.407 301.628,-425.812 301.19,-425.215"/>
<polygon fill="none" stroke="#404040" points="301.094,-425.083 294.335,-422.57 294.055,-415.364 300.814,-417.877 301.094,-425.083"/>
<text text-anchor="middle" x="364.5" y="-448" font-family="Helvetica,sans-Serif" font-size="10.00"> &#45;transactions_M</text>
</g>
<!-- Node9&#45;&gt;Node8 -->
<g id="edge10" class="edge"><title>Node9&#45;&gt;Node8</title>
<path fill="none" stroke="#404040" d="M507.563,-791.185C479.64,-732.737 441.709,-653.341 415.165,-597.781"/>
<polygon fill="none" stroke="#404040" points="415.021,-597.479 408.826,-593.79 409.848,-586.651 416.044,-590.341 415.021,-597.479"/>
<text text-anchor="middle" x="522" y="-686.5" font-family="Helvetica,sans-Serif" font-size="10.00"> &#45;listing_M</text>
</g>
<!-- Node10 -->
<g id="node10" class="node"><title>Node10</title>
<g id="a_node10"><a xlink:href="classcom_1_1tomoparts_1_1tomoBay_1_1model_1_1dataTypes_1_1order_1_1Part.html" target="_top" xlink:title="{Part\n|&#45; cost_M\l&#45; BADCHAR\l|+ Part()\l+ partNo()\l+ brand()\l+ description()\l+ cost()\l&#45; getCost()\l&#45; getDescription()\l&#45; badChar()\l}">
<polygon fill="white" stroke="black" points="494,-995.5 494,-1140.5 595,-1140.5 595,-995.5 494,-995.5"/>
<text text-anchor="middle" x="544.5" y="-1128.5" font-family="Helvetica,sans-Serif" font-size="10.00">Part</text>
<polyline fill="none" stroke="black" points="494,-1121.5 595,-1121.5 "/>
<text text-anchor="start" x="502" y="-1109.5" font-family="Helvetica,sans-Serif" font-size="10.00">&#45; cost_M</text>
<text text-anchor="start" x="502" y="-1098.5" font-family="Helvetica,sans-Serif" font-size="10.00">&#45; BADCHAR</text>
<polyline fill="none" stroke="black" points="494,-1091.5 595,-1091.5 "/>
<text text-anchor="start" x="502" y="-1079.5" font-family="Helvetica,sans-Serif" font-size="10.00">+ Part()</text>
<text text-anchor="start" x="502" y="-1068.5" font-family="Helvetica,sans-Serif" font-size="10.00">+ partNo()</text>
<text text-anchor="start" x="502" y="-1057.5" font-family="Helvetica,sans-Serif" font-size="10.00">+ brand()</text>
<text text-anchor="start" x="502" y="-1046.5" font-family="Helvetica,sans-Serif" font-size="10.00">+ description()</text>
<text text-anchor="start" x="502" y="-1035.5" font-family="Helvetica,sans-Serif" font-size="10.00">+ cost()</text>
<text text-anchor="start" x="502" y="-1024.5" font-family="Helvetica,sans-Serif" font-size="10.00">&#45; getCost()</text>
<text text-anchor="start" x="502" y="-1013.5" font-family="Helvetica,sans-Serif" font-size="10.00">&#45; getDescription()</text>
<text text-anchor="start" x="502" y="-1002.5" font-family="Helvetica,sans-Serif" font-size="10.00">&#45; badChar()</text>
</a>
</g>
</g>
<!-- Node10&#45;&gt;Node9 -->
<g id="edge12" class="edge"><title>Node10&#45;&gt;Node9</title>
<path fill="none" stroke="#404040" d="M544.5,-995.225C544.5,-983.752 544.5,-971.758 544.5,-959.936"/>
<polygon fill="none" stroke="#404040" points="544.5,-959.708 540.5,-953.708 544.5,-947.708 548.5,-953.708 544.5,-959.708"/>
<text text-anchor="middle" x="567.5" y="-969" font-family="Helvetica,sans-Serif" font-size="10.00"> &#45;parts_M</text>
</g>
<!-- Node11 -->
<g id="node11" class="node"><title>Node11</title>
<g id="a_node11"><a xlink:href="classcom_1_1tomoparts_1_1tomoBay_1_1model_1_1winstock_1_1Stock.html" target="_top" xlink:title="This class is responsible for querying winstock for information. ">
<polygon fill="white" stroke="black" points="459,-1188.5 459,-1344.5 596,-1344.5 596,-1188.5 459,-1188.5"/>
<text text-anchor="middle" x="527.5" y="-1332.5" font-family="Helvetica,sans-Serif" font-size="10.00">Stock</text>
<polyline fill="none" stroke="black" points="459,-1325.5 596,-1325.5 "/>
<text text-anchor="start" x="467" y="-1313.5" font-family="Helvetica,sans-Serif" font-size="10.00">+ ERROR</text>
<text text-anchor="start" x="467" y="-1302.5" font-family="Helvetica,sans-Serif" font-size="10.00">&#45; HTTP_HEADER</text>
<text text-anchor="start" x="467" y="-1291.5" font-family="Helvetica,sans-Serif" font-size="10.00">&#45; URL_PT1_M</text>
<text text-anchor="start" x="467" y="-1280.5" font-family="Helvetica,sans-Serif" font-size="10.00">&#45; URL_PT2_M</text>
<polyline fill="none" stroke="black" points="459,-1273.5 596,-1273.5 "/>
<text text-anchor="start" x="467" y="-1261.5" font-family="Helvetica,sans-Serif" font-size="10.00">+ Stock()</text>
<text text-anchor="start" x="467" y="-1250.5" font-family="Helvetica,sans-Serif" font-size="10.00">+ requestStockLevel()</text>
<text text-anchor="start" x="467" y="-1239.5" font-family="Helvetica,sans-Serif" font-size="10.00">+ requestDescription()</text>
<text text-anchor="start" x="467" y="-1228.5" font-family="Helvetica,sans-Serif" font-size="10.00">+ requestLastCost()</text>
<text text-anchor="start" x="467" y="-1217.5" font-family="Helvetica,sans-Serif" font-size="10.00">+ requestInvoiceWeight()</text>
<text text-anchor="start" x="467" y="-1206.5" font-family="Helvetica,sans-Serif" font-size="10.00">&#45; queryWinstockURL()</text>
<text text-anchor="start" x="467" y="-1195.5" font-family="Helvetica,sans-Serif" font-size="10.00">&#45; postFormatXMLString()</text>
</a>
</g>
</g>
<!-- Node11&#45;&gt;Node10 -->
<g id="edge13" class="edge"><title>Node11&#45;&gt;Node10</title>
<path fill="none" stroke="#404040" d="M534.17,-1188.4C535.178,-1176.75 536.222,-1164.68 537.242,-1152.9"/>
<polygon fill="none" stroke="#404040" points="537.258,-1152.7 533.791,-1146.38 538.293,-1140.75 541.761,-1147.07 537.258,-1152.7"/>
<text text-anchor="middle" x="568" y="-1162" font-family="Helvetica,sans-Serif" font-size="10.00"> &#45;winstock_M</text>
</g>
<!-- Node12 -->
<g id="node12" class="node"><title>Node12</title>
<g id="a_node12"><a xlink:href="classcom_1_1tomoparts_1_1tomoBay_1_1model_1_1net_1_1HttpResponse.html" target="_top" xlink:title="Copyright(C) 2015 Jan P.C. ">
<polygon fill="white" stroke="black" points="457.5,-1392.5 457.5,-1482.5 597.5,-1482.5 597.5,-1392.5 457.5,-1392.5"/>
<text text-anchor="middle" x="527.5" y="-1470.5" font-family="Helvetica,sans-Serif" font-size="10.00">HttpResponse</text>
<polyline fill="none" stroke="black" points="457.5,-1463.5 597.5,-1463.5 "/>
<text text-anchor="start" x="465.5" y="-1451.5" font-family="Helvetica,sans-Serif" font-size="10.00">&#45; responseCode_M</text>
<text text-anchor="start" x="465.5" y="-1440.5" font-family="Helvetica,sans-Serif" font-size="10.00">&#45; responseMessage_M</text>
<polyline fill="none" stroke="black" points="457.5,-1433.5 597.5,-1433.5 "/>
<text text-anchor="start" x="465.5" y="-1421.5" font-family="Helvetica,sans-Serif" font-size="10.00">+ HttpResponse()</text>
<text text-anchor="start" x="465.5" y="-1410.5" font-family="Helvetica,sans-Serif" font-size="10.00">+ getResponseCode()</text>
<text text-anchor="start" x="465.5" y="-1399.5" font-family="Helvetica,sans-Serif" font-size="10.00">+ getResponseMessage()</text>
</a>
</g>
</g>
<!-- Node12&#45;&gt;Node11 -->
<g id="edge14" class="edge"><title>Node12&#45;&gt;Node11</title>
<path fill="none" stroke="#404040" d="M527.5,-1392.1C527.5,-1381.17 527.5,-1369.07 527.5,-1356.85"/>
<polygon fill="none" stroke="#404040" points="527.5,-1356.61 523.5,-1350.61 527.5,-1344.61 531.5,-1350.61 527.5,-1356.61"/>
<text text-anchor="middle" x="560" y="-1366" font-family="Helvetica,sans-Serif" font-size="10.00"> &#45;response_M</text>
</g>
<!-- Node13 -->
<g id="node13" class="node"><title>Node13</title>
<polygon fill="white" stroke="#bfbfbf" points="614,-1227 614,-1306 841,-1306 841,-1227 614,-1227"/>
<text text-anchor="start" x="622" y="-1294" font-family="Helvetica,sans-Serif" font-size="10.00">Map&lt; com.tomoparts.tomoBay.model.data</text>
<text text-anchor="start" x="622" y="-1283" font-family="Helvetica,sans-Serif" font-size="10.00">Types.order.Part.stringTypes,</text>
<text text-anchor="middle" x="727.5" y="-1272" font-family="Helvetica,sans-Serif" font-size="10.00"> String &gt;</text>
<polyline fill="none" stroke="#bfbfbf" points="614,-1265 841,-1265 "/>
<text text-anchor="middle" x="727.5" y="-1253" font-family="Helvetica,sans-Serif" font-size="10.00"> </text>
<polyline fill="none" stroke="#bfbfbf" points="614,-1246 841,-1246 "/>
<text text-anchor="middle" x="727.5" y="-1234" font-family="Helvetica,sans-Serif" font-size="10.00"> </text>
</g>
<!-- Node13&#45;&gt;Node10 -->
<g id="edge15" class="edge"><title>Node13&#45;&gt;Node10</title>
<path fill="none" stroke="#404040" d="M691.345,-1226.68C666.317,-1199.8 632.438,-1163.43 603.529,-1132.38"/>
<polygon fill="none" stroke="#404040" points="603.305,-1132.14 596.288,-1130.48 595.126,-1123.36 602.143,-1125.03 603.305,-1132.14"/>
<text text-anchor="middle" x="685" y="-1162" font-family="Helvetica,sans-Serif" font-size="10.00"> &#45;stringProperties_M</text>
</g>
<!-- Node14 -->
<g id="node14" class="node"><title>Node14</title>
<polygon fill="white" stroke="#bfbfbf" points="312,-287 312,-366 521,-366 521,-287 312,-287"/>
<text text-anchor="start" x="320" y="-354" font-family="Helvetica,sans-Serif" font-size="10.00">List&lt; com.tomoparts.tomo</text>
<text text-anchor="start" x="320" y="-343" font-family="Helvetica,sans-Serif" font-size="10.00">Bay.model.dataTypes.financial.</text>
<text text-anchor="middle" x="416.5" y="-332" font-family="Helvetica,sans-Serif" font-size="10.00">SalesOrderDayBook.AbstractLineItem &gt;</text>
<polyline fill="none" stroke="#bfbfbf" points="312,-325 521,-325 "/>
<text text-anchor="middle" x="416.5" y="-313" font-family="Helvetica,sans-Serif" font-size="10.00"> </text>
<polyline fill="none" stroke="#bfbfbf" points="312,-306 521,-306 "/>
<text text-anchor="middle" x="416.5" y="-294" font-family="Helvetica,sans-Serif" font-size="10.00"> </text>
</g>
<!-- Node14&#45;&gt;Node1 -->
<g id="edge16" class="edge"><title>Node14&#45;&gt;Node1</title>
<path fill="none" stroke="#404040" d="M386.65,-286.958C365.91,-260.178 337.282,-223.213 310.45,-188.567"/>
<polygon fill="none" stroke="#404040" points="310.285,-188.354 303.449,-186.06 302.937,-178.867 309.774,-181.161 310.285,-188.354"/>
<text text-anchor="middle" x="357.5" y="-200" font-family="Helvetica,sans-Serif" font-size="10.00"> &#45;lineItems_M</text>
</g>
</g>
</svg>
