<?xml version="1.0" encoding="UTF-8" standalone="no"?>
<!DOCTYPE svg PUBLIC "-//W3C//DTD SVG 1.1//EN"
 "http://www.w3.org/Graphics/SVG/1.1/DTD/svg11.dtd">
<!-- Generated by graphviz version 2.38.0 (20140413.2041)
 -->
<!-- Title: county Pages: 1 -->
<svg width="898pt" height="100pt"
 viewBox="0.00 0.00 898.00 99.50" xmlns="http://www.w3.org/2000/svg" xmlns:xlink="http://www.w3.org/1999/xlink">
<g id="graph0" class="graph" transform="scale(1 1) rotate(0) translate(4 95.5)">
<title>county</title>
<polygon fill="white" stroke="none" points="-4,4 -4,-95.5 894,-95.5 894,4 -4,4"/>
<!-- Node1 -->
<g id="node1" class="node"><title>Node1</title>
<polygon fill="#bfbfbf" stroke="black" points="0,-38.5 0,-57.5 49,-57.5 49,-38.5 0,-38.5"/>
<text text-anchor="middle" x="24.5" y="-45.5" font-family="Helvetica,sans-Serif" font-size="10.00">county</text>
</g>
<!-- Node2 -->
<g id="node2" class="node"><title>Node2</title>
<g id="a_node2"><a xlink:href="classcom_1_1tomoparts_1_1tomoBay_1_1presenters_1_1presenterActions_1_1concreteActions_1_1OrderInfo.html#a0efe6811d772c53811b18a441c11b757" target="_top" xlink:title="formats the buyer information associated with this order ">
<polygon fill="white" stroke="black" points="85,-61 85,-91 327,-91 327,-61 85,-61"/>
<text text-anchor="start" x="93" y="-79" font-family="Helvetica,sans-Serif" font-size="10.00">com.tomoparts.tomoBay.presenters.presenter</text>
<text text-anchor="middle" x="206" y="-68" font-family="Helvetica,sans-Serif" font-size="10.00">Actions.concreteActions.OrderInfo.buyerInfo</text>
</a>
</g>
</g>
<!-- Node1&#45;&gt;Node2 -->
<g id="edge1" class="edge"><title>Node1&#45;&gt;Node2</title>
<path fill="none" stroke="midnightblue" d="M59.5582,-53.3127C73.77,-55.5296 91.0624,-58.227 108.694,-60.9773"/>
<polygon fill="midnightblue" stroke="midnightblue" points="59.7562,-49.8013 49.3362,-51.7182 58.6773,-56.7177 59.7562,-49.8013"/>
</g>
<!-- Node5 -->
<g id="node5" class="node"><title>Node5</title>
<g id="a_node5"><a xlink:href="classcom_1_1tomoparts_1_1tomoBay_1_1model_1_1dataTypes_1_1financial_1_1SalesOrderDayBook_1_1formats_1_1WinstockFormat.html#accefd62bc10c59d9ba78937d90a5fa8c" target="_top" xlink:title="com.tomoparts.tomoBay.model.data\lTypes.financial.SalesOrderDayBook.formats.\lWinstockFormat.format">
<polygon fill="white" stroke="black" points="91.5,-0.5 91.5,-41.5 320.5,-41.5 320.5,-0.5 91.5,-0.5"/>
<text text-anchor="start" x="99.5" y="-29.5" font-family="Helvetica,sans-Serif" font-size="10.00">com.tomoparts.tomoBay.model.data</text>
<text text-anchor="start" x="99.5" y="-18.5" font-family="Helvetica,sans-Serif" font-size="10.00">Types.financial.SalesOrderDayBook.formats.</text>
<text text-anchor="middle" x="206" y="-7.5" font-family="Helvetica,sans-Serif" font-size="10.00">WinstockFormat.format</text>
</a>
</g>
</g>
<!-- Node1&#45;&gt;Node5 -->
<g id="edge4" class="edge"><title>Node1&#45;&gt;Node5</title>
<path fill="none" stroke="midnightblue" d="M59.4843,-42.8882C69.0374,-41.4512 79.9868,-39.8042 91.4979,-38.0727"/>
<polygon fill="midnightblue" stroke="midnightblue" points="58.7043,-39.466 49.3362,-44.4146 59.7456,-46.3881 58.7043,-39.466"/>
</g>
<!-- Node3 -->
<g id="node3" class="node"><title>Node3</title>
<g id="a_node3"><a xlink:href="classcom_1_1tomoparts_1_1tomoBay_1_1presenters_1_1presenterActions_1_1concreteActions_1_1OrderInfo.html#afeec1aeda079b77245edea1e74b25f33" target="_top" xlink:title="assembles the various parts of the order and outputs it as a fully formed JSON string. ">
<polygon fill="white" stroke="black" points="363,-61 363,-91 612,-91 612,-61 363,-61"/>
<text text-anchor="start" x="371" y="-79" font-family="Helvetica,sans-Serif" font-size="10.00">com.tomoparts.tomoBay.presenters.presenter</text>
<text text-anchor="middle" x="487.5" y="-68" font-family="Helvetica,sans-Serif" font-size="10.00">Actions.concreteActions.OrderInfo.formatResults</text>
</a>
</g>
</g>
<!-- Node2&#45;&gt;Node3 -->
<g id="edge2" class="edge"><title>Node2&#45;&gt;Node3</title>
<path fill="none" stroke="midnightblue" d="M337.18,-76C345.745,-76 354.358,-76 362.89,-76"/>
<polygon fill="midnightblue" stroke="midnightblue" points="337.155,-72.5001 327.155,-76 337.155,-79.5001 337.155,-72.5001"/>
</g>
<!-- Node4 -->
<g id="node4" class="node"><title>Node4</title>
<g id="a_node4"><a xlink:href="classcom_1_1tomoparts_1_1tomoBay_1_1presenters_1_1presenterActions_1_1concreteActions_1_1OrderInfo.html#adb3dedf31dc2c7fc796f20406c235ccd" target="_top" xlink:title="performs the action specified ">
<polygon fill="white" stroke="black" points="648,-61 648,-91 890,-91 890,-61 648,-61"/>
<text text-anchor="start" x="656" y="-79" font-family="Helvetica,sans-Serif" font-size="10.00">com.tomoparts.tomoBay.presenters.presenter</text>
<text text-anchor="middle" x="769" y="-68" font-family="Helvetica,sans-Serif" font-size="10.00">Actions.concreteActions.OrderInfo.execute</text>
</a>
</g>
</g>
<!-- Node3&#45;&gt;Node4 -->
<g id="edge3" class="edge"><title>Node3&#45;&gt;Node4</title>
<path fill="none" stroke="midnightblue" d="M622.322,-76C630.865,-76 639.439,-76 647.914,-76"/>
<polygon fill="midnightblue" stroke="midnightblue" points="622.313,-72.5001 612.313,-76 622.313,-79.5001 622.313,-72.5001"/>
</g>
</g>
</svg>
