<?xml version="1.0" encoding="UTF-8" standalone="no"?>
<!DOCTYPE svg PUBLIC "-//W3C//DTD SVG 1.1//EN"
 "http://www.w3.org/Graphics/SVG/1.1/DTD/svg11.dtd">
<!-- Generated by graphviz version 2.38.0 (20140413.2041)
 -->
<!-- Title: Order Pages: 1 -->
<svg width="788pt" height="176pt"
 viewBox="0.00 0.00 788.00 176.00" xmlns="http://www.w3.org/2000/svg" xmlns:xlink="http://www.w3.org/1999/xlink">
<g id="graph0" class="graph" transform="scale(1 1) rotate(0) translate(4 172)">
<title>Order</title>
<polygon fill="white" stroke="none" points="-4,4 -4,-172 784,-172 784,4 -4,4"/>
<!-- Node1 -->
<g id="node1" class="node"><title>Node1</title>
<polygon fill="#bfbfbf" stroke="black" points="0,-69 0,-88 44,-88 44,-69 0,-69"/>
<text text-anchor="middle" x="22" y="-76" font-family="Helvetica,sans-Serif" font-size="10.00">Order</text>
</g>
<!-- Node2 -->
<g id="node2" class="node"><title>Node2</title>
<g id="a_node2"><a xlink:href="classcom_1_1tomoparts_1_1tomoBay_1_1model_1_1dataTypes_1_1heteroTypeContainer_1_1HeteroFieldContainer.html#a988363ab964d6dc0ccb8560bef5895b6" target="_top" xlink:title="retrieve the the value of an AbstractField from this HeteroFieldContainer, the field should be of the...">
<polygon fill="white" stroke="black" points="313.5,-17 313.5,-58 519.5,-58 519.5,-17 313.5,-17"/>
<text text-anchor="start" x="321.5" y="-46" font-family="Helvetica,sans-Serif" font-size="10.00">com.tomoparts.tomoBay.model.data</text>
<text text-anchor="start" x="321.5" y="-35" font-family="Helvetica,sans-Serif" font-size="10.00">Types.heteroTypeContainer.HeteroField</text>
<text text-anchor="middle" x="416.5" y="-24" font-family="Helvetica,sans-Serif" font-size="10.00">Container.get</text>
</a>
</g>
</g>
<!-- Node1&#45;&gt;Node2 -->
<g id="edge1" class="edge"><title>Node1&#45;&gt;Node2</title>
<path fill="none" stroke="midnightblue" d="M44.1025,-76.2957C92.141,-71.2776 212.517,-58.7033 303.304,-49.2198"/>
<polygon fill="midnightblue" stroke="midnightblue" points="303.802,-52.687 313.384,-48.1669 303.074,-45.7249 303.802,-52.687"/>
</g>
<!-- Node4 -->
<g id="node4" class="node"><title>Node4</title>
<g id="a_node4"><a xlink:href="classcom_1_1tomoparts_1_1tomoBay_1_1model_1_1dataTypes_1_1order_1_1Order.html#a3db324ec2aad9cf01bed37c33055982d" target="_top" xlink:title="helper method, retrieves the order specific information from the database, in order to be able to pop...">
<polygon fill="white" stroke="black" points="131,-126 131,-145 208,-145 208,-126 131,-126"/>
<text text-anchor="middle" x="169.5" y="-133" font-family="Helvetica,sans-Serif" font-size="10.00">getOrderInfo</text>
</a>
</g>
</g>
<!-- Node1&#45;&gt;Node4 -->
<g id="edge3" class="edge"><title>Node1&#45;&gt;Node4</title>
<path fill="none" stroke="midnightblue" d="M34.474,-88.0597C45.4815,-96.748 62.9092,-109.279 80,-116.5 92.8043,-121.91 107.326,-125.849 120.849,-128.689"/>
<polygon fill="midnightblue" stroke="midnightblue" points="120.467,-132.18 130.951,-130.652 121.803,-125.309 120.467,-132.18"/>
</g>
<!-- Node7 -->
<g id="node7" class="node"><title>Node7</title>
<g id="a_node7"><a xlink:href="classcom_1_1tomoparts_1_1tomoBay_1_1model_1_1dataTypes_1_1order_1_1Order.html#a76355aa9cd8f667cbacc05801005dbf2" target="_top" xlink:title="helper method, retrieves the transactions associated with this order by querying the database and usi...">
<polygon fill="white" stroke="black" points="117.5,-88 117.5,-107 221.5,-107 221.5,-88 117.5,-88"/>
<text text-anchor="middle" x="169.5" y="-95" font-family="Helvetica,sans-Serif" font-size="10.00">getTransactionList</text>
</a>
</g>
</g>
<!-- Node1&#45;&gt;Node7 -->
<g id="edge7" class="edge"><title>Node1&#45;&gt;Node7</title>
<path fill="none" stroke="midnightblue" d="M44.1569,-81.2628C60.7657,-83.4316 84.7659,-86.5657 107.26,-89.503"/>
<polygon fill="midnightblue" stroke="midnightblue" points="107.088,-93.0102 117.457,-90.8346 107.994,-86.0691 107.088,-93.0102"/>
</g>
<!-- Node8 -->
<g id="node8" class="node"><title>Node8</title>
<g id="a_node8"><a xlink:href="classcom_1_1tomoparts_1_1tomoBay_1_1helpers_1_1StackTraceToString.html#acc17f606a32b47fa21910194d3fc44c6" target="_top" xlink:title="Converts the stack trace of the exception provided into a string. ">
<polygon fill="white" stroke="black" points="80,-0.5 80,-30.5 259,-30.5 259,-0.5 80,-0.5"/>
<text text-anchor="start" x="88" y="-18.5" font-family="Helvetica,sans-Serif" font-size="10.00">com.tomoparts.tomoBay.helpers.</text>
<text text-anchor="middle" x="169.5" y="-7.5" font-family="Helvetica,sans-Serif" font-size="10.00">StackTraceToString.toString</text>
</a>
</g>
</g>
<!-- Node1&#45;&gt;Node8 -->
<g id="edge10" class="edge"><title>Node1&#45;&gt;Node8</title>
<path fill="none" stroke="midnightblue" d="M37.5734,-68.9831C48.8437,-61.8926 65.0045,-52.3014 80,-45.5 89.0864,-41.3788 98.9147,-37.5063 108.604,-34.0009"/>
<polygon fill="midnightblue" stroke="midnightblue" points="109.941,-37.2408 118.214,-30.6222 107.619,-30.637 109.941,-37.2408"/>
</g>
<!-- Node3 -->
<g id="node3" class="node"><title>Node3</title>
<g id="a_node3"><a xlink:href="classcom_1_1tomoparts_1_1tomoBay_1_1model_1_1dataTypes_1_1heteroTypeContainer_1_1HeteroFieldContainer.html#a9dee3c01eb5ab16203e1c6820a569484" target="_top" xlink:title="performs a type check, assuming that field and type are of the same type then this method returns tru...">
<polygon fill="white" stroke="black" points="574,-47 574,-88 780,-88 780,-47 574,-47"/>
<text text-anchor="start" x="582" y="-76" font-family="Helvetica,sans-Serif" font-size="10.00">com.tomoparts.tomoBay.model.data</text>
<text text-anchor="start" x="582" y="-65" font-family="Helvetica,sans-Serif" font-size="10.00">Types.heteroTypeContainer.HeteroField</text>
<text text-anchor="middle" x="677" y="-54" font-family="Helvetica,sans-Serif" font-size="10.00">Container.isSameType</text>
</a>
</g>
</g>
<!-- Node2&#45;&gt;Node3 -->
<g id="edge2" class="edge"><title>Node2&#45;&gt;Node3</title>
<path fill="none" stroke="midnightblue" d="M519.666,-49.3568C534.114,-51.0335 549.034,-52.765 563.66,-54.4625"/>
<polygon fill="midnightblue" stroke="midnightblue" points="563.393,-57.9549 573.73,-55.6311 564.2,-51.0015 563.393,-57.9549"/>
</g>
<!-- Node5 -->
<g id="node5" class="node"><title>Node5</title>
<g id="a_node5"><a xlink:href="classcom_1_1tomoparts_1_1tomoBay_1_1model_1_1dataTypes_1_1heteroTypeContainer_1_1HeteroFieldContainer.html#a3ba6289417930238a36bfee0056b6398" target="_top" xlink:title="add an arbitrary value to this Field container with the stipulation that this value is of the same ty...">
<polygon fill="white" stroke="black" points="313.5,-77 313.5,-118 519.5,-118 519.5,-77 313.5,-77"/>
<text text-anchor="start" x="321.5" y="-106" font-family="Helvetica,sans-Serif" font-size="10.00">com.tomoparts.tomoBay.model.data</text>
<text text-anchor="start" x="321.5" y="-95" font-family="Helvetica,sans-Serif" font-size="10.00">Types.heteroTypeContainer.HeteroField</text>
<text text-anchor="middle" x="416.5" y="-84" font-family="Helvetica,sans-Serif" font-size="10.00">Container.add</text>
</a>
</g>
</g>
<!-- Node4&#45;&gt;Node5 -->
<g id="edge4" class="edge"><title>Node4&#45;&gt;Node5</title>
<path fill="none" stroke="midnightblue" d="M208.244,-129.646C233.839,-125.676 269.115,-120.205 303.311,-114.901"/>
<polygon fill="midnightblue" stroke="midnightblue" points="304.051,-118.328 313.396,-113.336 302.978,-111.411 304.051,-118.328"/>
</g>
<!-- Node6 -->
<g id="node6" class="node"><title>Node6</title>
<g id="a_node6"><a xlink:href="classcom_1_1tomoparts_1_1tomoBay_1_1model_1_1sql_1_1framework_1_1SelectQueryInvoker.html#a594282bcbcc0731a7d234482717422d7" target="_top" xlink:title="execute a requested query ">
<polygon fill="white" stroke="black" points="295,-137.5 295,-167.5 538,-167.5 538,-137.5 295,-137.5"/>
<text text-anchor="start" x="303" y="-155.5" font-family="Helvetica,sans-Serif" font-size="10.00">com.tomoparts.tomoBay.model.sql.framework.</text>
<text text-anchor="middle" x="416.5" y="-144.5" font-family="Helvetica,sans-Serif" font-size="10.00">SelectQueryInvoker.execute</text>
</a>
</g>
</g>
<!-- Node4&#45;&gt;Node6 -->
<g id="edge6" class="edge"><title>Node4&#45;&gt;Node6</title>
<path fill="none" stroke="midnightblue" d="M208.244,-138.119C229.165,-139.571 256.554,-141.471 284.536,-143.413"/>
<polygon fill="midnightblue" stroke="midnightblue" points="284.642,-146.928 294.86,-144.129 285.127,-139.945 284.642,-146.928"/>
</g>
<!-- Node5&#45;&gt;Node3 -->
<g id="edge5" class="edge"><title>Node5&#45;&gt;Node3</title>
<path fill="none" stroke="midnightblue" d="M519.666,-85.6432C534.114,-83.9665 549.034,-82.235 563.66,-80.5375"/>
<polygon fill="midnightblue" stroke="midnightblue" points="564.2,-83.9985 573.73,-79.3689 563.393,-77.0451 564.2,-83.9985"/>
</g>
<!-- Node7&#45;&gt;Node5 -->
<g id="edge8" class="edge"><title>Node7&#45;&gt;Node5</title>
<path fill="none" stroke="midnightblue" d="M221.562,-97.5C245.397,-97.5 274.779,-97.5 303.398,-97.5"/>
<polygon fill="midnightblue" stroke="midnightblue" points="303.479,-101 313.479,-97.5 303.479,-94.0001 303.479,-101"/>
</g>
<!-- Node7&#45;&gt;Node6 -->
<g id="edge9" class="edge"><title>Node7&#45;&gt;Node6</title>
<path fill="none" stroke="midnightblue" d="M218.442,-107.015C231.639,-109.845 245.919,-113.104 259,-116.5 275.193,-120.704 278.792,-123.352 295,-127.5 305.538,-130.197 316.651,-132.81 327.693,-135.266"/>
<polygon fill="midnightblue" stroke="midnightblue" points="327.279,-138.758 337.796,-137.475 328.774,-131.92 327.279,-138.758"/>
</g>
</g>
</svg>
