<?xml version="1.0" encoding="UTF-8" standalone="no"?>
<!DOCTYPE svg PUBLIC "-//W3C//DTD SVG 1.1//EN"
 "http://www.w3.org/Graphics/SVG/1.1/DTD/svg11.dtd">
<!-- Generated by graphviz version 2.38.0 (20140413.2041)
 -->
<!-- Title: exist Pages: 1 -->
<svg width="603pt" height="39pt"
 viewBox="0.00 0.00 603.00 39.00" xmlns="http://www.w3.org/2000/svg" xmlns:xlink="http://www.w3.org/1999/xlink">
<g id="graph0" class="graph" transform="scale(1 1) rotate(0) translate(4 35)">
<title>exist</title>
<polygon fill="white" stroke="none" points="-4,4 -4,-35 599,-35 599,4 -4,4"/>
<!-- Node1 -->
<g id="node1" class="node"><title>Node1</title>
<polygon fill="#bfbfbf" stroke="black" points="0,-6 0,-25 39,-25 39,-6 0,-6"/>
<text text-anchor="middle" x="19.5" y="-13" font-family="Helvetica,sans-Serif" font-size="10.00">exist</text>
</g>
<!-- Node2 -->
<g id="node2" class="node"><title>Node2</title>
<g id="a_node2"><a xlink:href="classcom_1_1tomoparts_1_1tomoBay_1_1model_1_1services_1_1emailErrorsService_1_1OnRunning.html#ae4a4f4cadce2787c7e80005639fbd5d9" target="_top" xlink:title="this method defines what to do in the given derived state ">
<polygon fill="white" stroke="black" points="75,-0.5 75,-30.5 317,-30.5 317,-0.5 75,-0.5"/>
<text text-anchor="start" x="83" y="-18.5" font-family="Helvetica,sans-Serif" font-size="10.00">com.tomoparts.tomoBay.model.services.email</text>
<text text-anchor="middle" x="196" y="-7.5" font-family="Helvetica,sans-Serif" font-size="10.00">ErrorsService.OnRunning.execute</text>
</a>
</g>
</g>
<!-- Node1&#45;&gt;Node2 -->
<g id="edge1" class="edge"><title>Node1&#45;&gt;Node2</title>
<path fill="none" stroke="midnightblue" d="M49.4088,-15.5C56.9595,-15.5 65.5862,-15.5 74.7862,-15.5"/>
<polygon fill="midnightblue" stroke="midnightblue" points="49.1746,-12.0001 39.1746,-15.5 49.1745,-19.0001 49.1746,-12.0001"/>
</g>
<!-- Node3 -->
<g id="node3" class="node"><title>Node3</title>
<g id="a_node3"><a xlink:href="classcom_1_1tomoparts_1_1tomoBay_1_1model_1_1services_1_1emailErrorsService_1_1EmailErrorsService.html#ae3b0a282dcba7f2d675ca89b1dd48487" target="_top" xlink:title="com.tomoparts.tomoBay.model.services.email\lErrorsService.EmailErrorsService.onRunning">
<polygon fill="white" stroke="black" points="353,-0.5 353,-30.5 595,-30.5 595,-0.5 353,-0.5"/>
<text text-anchor="start" x="361" y="-18.5" font-family="Helvetica,sans-Serif" font-size="10.00">com.tomoparts.tomoBay.model.services.email</text>
<text text-anchor="middle" x="474" y="-7.5" font-family="Helvetica,sans-Serif" font-size="10.00">ErrorsService.EmailErrorsService.onRunning</text>
</a>
</g>
</g>
<!-- Node2&#45;&gt;Node3 -->
<g id="edge2" class="edge"><title>Node2&#45;&gt;Node3</title>
<path fill="none" stroke="midnightblue" d="M327.494,-15.5C335.91,-15.5 344.364,-15.5 352.73,-15.5"/>
<polygon fill="midnightblue" stroke="midnightblue" points="327.255,-12.0001 317.255,-15.5 327.255,-19.0001 327.255,-12.0001"/>
</g>
</g>
</svg>
