<?xml version="1.0" encoding="UTF-8" standalone="no"?>
<!DOCTYPE svg PUBLIC "-//W3C//DTD SVG 1.1//EN"
 "http://www.w3.org/Graphics/SVG/1.1/DTD/svg11.dtd">
<!-- Generated by graphviz version 2.38.0 (20140413.2041)
 -->
<!-- Title: Buyer Pages: 1 -->
<svg width="235pt" height="474pt"
 viewBox="0.00 0.00 235.00 474.00" xmlns="http://www.w3.org/2000/svg" xmlns:xlink="http://www.w3.org/1999/xlink">
<g id="graph0" class="graph" transform="scale(1 1) rotate(0) translate(4 470)">
<title>Buyer</title>
<polygon fill="white" stroke="none" points="-4,4 -4,-470 231,-470 231,4 -4,4"/>
<!-- Node1 -->
<g id="node1" class="node"><title>Node1</title>
<polygon fill="#bfbfbf" stroke="black" points="73.5,-0.5 73.5,-167.5 153.5,-167.5 153.5,-0.5 73.5,-0.5"/>
<text text-anchor="middle" x="113.5" y="-155.5" font-family="Helvetica,sans-Serif" font-size="10.00">Buyer</text>
<polyline fill="none" stroke="black" points="73.5,-148.5 153.5,-148.5 "/>
<text text-anchor="start" x="81.5" y="-136.5" font-family="Helvetica,sans-Serif" font-size="10.00">&#45; ERRORMSG</text>
<polyline fill="none" stroke="black" points="73.5,-129.5 153.5,-129.5 "/>
<text text-anchor="start" x="81.5" y="-117.5" font-family="Helvetica,sans-Serif" font-size="10.00">+ Buyer()</text>
<text text-anchor="start" x="81.5" y="-106.5" font-family="Helvetica,sans-Serif" font-size="10.00">+ Buyer()</text>
<text text-anchor="start" x="81.5" y="-95.5" font-family="Helvetica,sans-Serif" font-size="10.00">+ buyerID()</text>
<text text-anchor="start" x="81.5" y="-84.5" font-family="Helvetica,sans-Serif" font-size="10.00">+ name()</text>
<text text-anchor="start" x="81.5" y="-73.5" font-family="Helvetica,sans-Serif" font-size="10.00">+ street1()</text>
<text text-anchor="start" x="81.5" y="-62.5" font-family="Helvetica,sans-Serif" font-size="10.00">+ street2()</text>
<text text-anchor="start" x="81.5" y="-51.5" font-family="Helvetica,sans-Serif" font-size="10.00">+ county()</text>
<text text-anchor="start" x="81.5" y="-40.5" font-family="Helvetica,sans-Serif" font-size="10.00">+ city()</text>
<text text-anchor="start" x="81.5" y="-29.5" font-family="Helvetica,sans-Serif" font-size="10.00">+ postcode()</text>
<text text-anchor="start" x="81.5" y="-18.5" font-family="Helvetica,sans-Serif" font-size="10.00">+ email()</text>
<text text-anchor="start" x="81.5" y="-7.5" font-family="Helvetica,sans-Serif" font-size="10.00">+ phoneNo()</text>
</g>
<!-- Node2 -->
<g id="node2" class="node"><title>Node2</title>
<g id="a_node2"><a xlink:href="classcom_1_1tomoparts_1_1tomoBay_1_1model_1_1dataTypes_1_1heteroTypeContainer_1_1HeteroFieldContainer.html" target="_top" xlink:title="This class represents a container of AbstractField types and a value associated with this field...">
<polygon fill="white" stroke="black" points="45,-215.5 45,-338.5 182,-338.5 182,-215.5 45,-215.5"/>
<text text-anchor="middle" x="113.5" y="-326.5" font-family="Helvetica,sans-Serif" font-size="10.00">HeteroFieldContainer</text>
<polyline fill="none" stroke="black" points="45,-319.5 182,-319.5 "/>
<text text-anchor="middle" x="113.5" y="-307.5" font-family="Helvetica,sans-Serif" font-size="10.00"> </text>
<polyline fill="none" stroke="black" points="45,-300.5 182,-300.5 "/>
<text text-anchor="start" x="53" y="-288.5" font-family="Helvetica,sans-Serif" font-size="10.00">+ HeteroFieldContainer()</text>
<text text-anchor="start" x="53" y="-277.5" font-family="Helvetica,sans-Serif" font-size="10.00">+ clear()</text>
<text text-anchor="start" x="53" y="-266.5" font-family="Helvetica,sans-Serif" font-size="10.00">+ size()</text>
<text text-anchor="start" x="53" y="-255.5" font-family="Helvetica,sans-Serif" font-size="10.00">+ finalize()</text>
<text text-anchor="start" x="53" y="-244.5" font-family="Helvetica,sans-Serif" font-size="10.00">~ add()</text>
<text text-anchor="start" x="53" y="-233.5" font-family="Helvetica,sans-Serif" font-size="10.00">~ get()</text>
<text text-anchor="start" x="53" y="-222.5" font-family="Helvetica,sans-Serif" font-size="10.00">&#45; isSameType()</text>
</a>
</g>
</g>
<!-- Node2&#45;&gt;Node1 -->
<g id="edge1" class="edge"><title>Node2&#45;&gt;Node1</title>
<path fill="none" stroke="#404040" d="M113.5,-215.304C113.5,-203.916 113.5,-191.764 113.5,-179.63"/>
<polygon fill="none" stroke="#404040" points="113.5,-179.532 109.5,-173.532 113.5,-167.532 117.5,-173.532 113.5,-179.532"/>
<text text-anchor="middle" x="146" y="-189" font-family="Helvetica,sans-Serif" font-size="10.00"> &#45;buyerInfo_M</text>
</g>
<!-- Node3 -->
<g id="node3" class="node"><title>Node3</title>
<polygon fill="white" stroke="#bfbfbf" points="0,-386.5 0,-465.5 227,-465.5 227,-386.5 0,-386.5"/>
<text text-anchor="start" x="8" y="-453.5" font-family="Helvetica,sans-Serif" font-size="10.00">Map&lt; String, Map&lt; com.tomoparts.tomo</text>
<text text-anchor="start" x="8" y="-442.5" font-family="Helvetica,sans-Serif" font-size="10.00">Bay.model.dataTypes.heteroTypeContainer.</text>
<text text-anchor="middle" x="113.5" y="-431.5" font-family="Helvetica,sans-Serif" font-size="10.00">AbstractField, Object &gt; &gt;</text>
<polyline fill="none" stroke="#bfbfbf" points="0,-424.5 227,-424.5 "/>
<text text-anchor="middle" x="113.5" y="-412.5" font-family="Helvetica,sans-Serif" font-size="10.00"> </text>
<polyline fill="none" stroke="#bfbfbf" points="0,-405.5 227,-405.5 "/>
<text text-anchor="middle" x="113.5" y="-393.5" font-family="Helvetica,sans-Serif" font-size="10.00"> </text>
</g>
<!-- Node3&#45;&gt;Node2 -->
<g id="edge2" class="edge"><title>Node3&#45;&gt;Node2</title>
<path fill="none" stroke="#404040" d="M113.5,-386.377C113.5,-375.404 113.5,-363.08 113.5,-350.783"/>
<polygon fill="none" stroke="#404040" points="113.5,-350.546 109.5,-344.546 113.5,-338.546 117.5,-344.546 113.5,-350.546"/>
<text text-anchor="middle" x="144" y="-360" font-family="Helvetica,sans-Serif" font-size="10.00"> &#45;fieldMap_M</text>
</g>
</g>
</svg>
