<?xml version="1.0" encoding="UTF-8" standalone="no"?>
<!DOCTYPE svg PUBLIC "-//W3C//DTD SVG 1.1//EN"
 "http://www.w3.org/Graphics/SVG/1.1/DTD/svg11.dtd">
<!-- Generated by graphviz version 2.38.0 (20140413.2041)
 -->
<!-- Title: account Pages: 1 -->
<svg width="547pt" height="100pt"
 viewBox="0.00 0.00 547.00 99.50" xmlns="http://www.w3.org/2000/svg" xmlns:xlink="http://www.w3.org/1999/xlink">
<g id="graph0" class="graph" transform="scale(1 1) rotate(0) translate(4 95.5)">
<title>account</title>
<polygon fill="white" stroke="none" points="-4,4 -4,-95.5 543,-95.5 543,4 -4,4"/>
<!-- Node1 -->
<g id="node1" class="node"><title>Node1</title>
<polygon fill="#bfbfbf" stroke="black" points="0,-33 0,-52 55,-52 55,-33 0,-33"/>
<text text-anchor="middle" x="27.5" y="-40" font-family="Helvetica,sans-Serif" font-size="10.00">account</text>
</g>
<!-- Node2 -->
<g id="node2" class="node"><title>Node2</title>
<g id="a_node2"><a xlink:href="classcom_1_1tomoparts_1_1tomoBay_1_1model_1_1dataTypes_1_1heteroTypeContainer_1_1HeteroFieldContainer.html#a988363ab964d6dc0ccb8560bef5895b6" target="_top" xlink:title="retrieve the the value of an AbstractField from this HeteroFieldContainer, the field should be of the...">
<polygon fill="white" stroke="black" points="91,-50 91,-91 297,-91 297,-50 91,-50"/>
<text text-anchor="start" x="99" y="-79" font-family="Helvetica,sans-Serif" font-size="10.00">com.tomoparts.tomoBay.model.data</text>
<text text-anchor="start" x="99" y="-68" font-family="Helvetica,sans-Serif" font-size="10.00">Types.heteroTypeContainer.HeteroField</text>
<text text-anchor="middle" x="194" y="-57" font-family="Helvetica,sans-Serif" font-size="10.00">Container.get</text>
</a>
</g>
</g>
<!-- Node1&#45;&gt;Node2 -->
<g id="edge1" class="edge"><title>Node1&#45;&gt;Node2</title>
<path fill="none" stroke="midnightblue" d="M55.2959,-47.061C62.8637,-48.3491 71.6038,-49.8368 80.9362,-51.4253"/>
<polygon fill="midnightblue" stroke="midnightblue" points="80.4061,-54.8853 90.8516,-53.113 81.5808,-47.9846 80.4061,-54.8853"/>
</g>
<!-- Node4 -->
<g id="node4" class="node"><title>Node4</title>
<g id="a_node4"><a xlink:href="classcom_1_1tomoparts_1_1tomoBay_1_1model_1_1eBayAPI_1_1EbayAccounts.html#a263b122a1c598841624ba7d1e4a6c617" target="_top" xlink:title="convert an account ID to a textual name value. ">
<polygon fill="white" stroke="black" points="104.5,-0.5 104.5,-30.5 283.5,-30.5 283.5,-0.5 104.5,-0.5"/>
<text text-anchor="start" x="112.5" y="-18.5" font-family="Helvetica,sans-Serif" font-size="10.00">com.tomoparts.tomoBay.model.e</text>
<text text-anchor="middle" x="194" y="-7.5" font-family="Helvetica,sans-Serif" font-size="10.00">BayAPI.EbayAccounts.name</text>
</a>
</g>
</g>
<!-- Node1&#45;&gt;Node4 -->
<g id="edge3" class="edge"><title>Node1&#45;&gt;Node4</title>
<path fill="none" stroke="midnightblue" d="M55.2959,-38.1019C66.3915,-36.2807 80.0073,-34.0459 94.3149,-31.6976"/>
<polygon fill="midnightblue" stroke="midnightblue" points="95.0071,-35.1309 104.308,-30.0573 93.8733,-28.2233 95.0071,-35.1309"/>
</g>
<!-- Node3 -->
<g id="node3" class="node"><title>Node3</title>
<g id="a_node3"><a xlink:href="classcom_1_1tomoparts_1_1tomoBay_1_1model_1_1dataTypes_1_1heteroTypeContainer_1_1HeteroFieldContainer.html#a9dee3c01eb5ab16203e1c6820a569484" target="_top" xlink:title="performs a type check, assuming that field and type are of the same type then this method returns tru...">
<polygon fill="white" stroke="black" points="333,-50 333,-91 539,-91 539,-50 333,-50"/>
<text text-anchor="start" x="341" y="-79" font-family="Helvetica,sans-Serif" font-size="10.00">com.tomoparts.tomoBay.model.data</text>
<text text-anchor="start" x="341" y="-68" font-family="Helvetica,sans-Serif" font-size="10.00">Types.heteroTypeContainer.HeteroField</text>
<text text-anchor="middle" x="436" y="-57" font-family="Helvetica,sans-Serif" font-size="10.00">Container.isSameType</text>
</a>
</g>
</g>
<!-- Node2&#45;&gt;Node3 -->
<g id="edge2" class="edge"><title>Node2&#45;&gt;Node3</title>
<path fill="none" stroke="midnightblue" d="M297.13,-70.5C305.658,-70.5 314.309,-70.5 322.906,-70.5"/>
<polygon fill="midnightblue" stroke="midnightblue" points="322.962,-74.0001 332.962,-70.5 322.962,-67.0001 322.962,-74.0001"/>
</g>
<!-- Node5 -->
<g id="node5" class="node"><title>Node5</title>
<g id="a_node5"><a xlink:href="classcom_1_1tomoparts_1_1tomoBay_1_1model_1_1eBayAPI_1_1EbayAccounts.html#a137163c03f463ad5d9581aef47a9a3e4" target="_top" xlink:title="retrieve the id for the account name specified ">
<polygon fill="white" stroke="black" points="346.5,-0.5 346.5,-30.5 525.5,-30.5 525.5,-0.5 346.5,-0.5"/>
<text text-anchor="start" x="354.5" y="-18.5" font-family="Helvetica,sans-Serif" font-size="10.00">com.tomoparts.tomoBay.model.e</text>
<text text-anchor="middle" x="436" y="-7.5" font-family="Helvetica,sans-Serif" font-size="10.00">BayAPI.EbayAccounts.id</text>
</a>
</g>
</g>
<!-- Node4&#45;&gt;Node5 -->
<g id="edge4" class="edge"><title>Node4&#45;&gt;Node5</title>
<path fill="none" stroke="midnightblue" d="M283.685,-15.5C300.763,-15.5 318.752,-15.5 336.129,-15.5"/>
<polygon fill="midnightblue" stroke="midnightblue" points="336.279,-19.0001 346.279,-15.5 336.279,-12.0001 336.279,-19.0001"/>
</g>
</g>
</svg>
