<?xml version="1.0" encoding="UTF-8" standalone="no"?>
<!DOCTYPE svg PUBLIC "-//W3C//DTD SVG 1.1//EN"
 "http://www.w3.org/Graphics/SVG/1.1/DTD/svg11.dtd">
<!-- Generated by graphviz version 2.38.0 (20140413.2041)
 -->
<!-- Title: currentTime Pages: 1 -->
<svg width="489pt" height="88pt"
 viewBox="0.00 0.00 489.00 88.00" xmlns="http://www.w3.org/2000/svg" xmlns:xlink="http://www.w3.org/1999/xlink">
<g id="graph0" class="graph" transform="scale(1 1) rotate(0) translate(4 84)">
<title>currentTime</title>
<polygon fill="white" stroke="none" points="-4,4 -4,-84 485,-84 485,4 -4,4"/>
<!-- Node1 -->
<g id="node1" class="node"><title>Node1</title>
<polygon fill="#bfbfbf" stroke="black" points="0,-31 0,-50 74,-50 74,-31 0,-31"/>
<text text-anchor="middle" x="37" y="-38" font-family="Helvetica,sans-Serif" font-size="10.00">currentTime</text>
</g>
<!-- Node2 -->
<g id="node2" class="node"><title>Node2</title>
<g id="a_node2"><a xlink:href="classcom_1_1tomoparts_1_1tomoBay_1_1helpers_1_1checkTime_1_1CheckTime.html#af31970b2cae33cc4cccfdae4154a2328" target="_top" xlink:title="tells you whether the current time is within the range specified in the config file. ">
<polygon fill="white" stroke="black" points="127,-52 127,-71 189,-71 189,-52 127,-52"/>
<text text-anchor="middle" x="158" y="-59" font-family="Helvetica,sans-Serif" font-size="10.00">isInRange</text>
</a>
</g>
</g>
<!-- Node1&#45;&gt;Node2 -->
<g id="edge1" class="edge"><title>Node1&#45;&gt;Node2</title>
<path fill="none" stroke="midnightblue" d="M84.1783,-48.6491C98.4504,-51.1677 113.8,-53.8765 126.71,-56.1548"/>
<polygon fill="midnightblue" stroke="midnightblue" points="84.483,-45.1489 74.0269,-46.8577 83.2664,-52.0424 84.483,-45.1489"/>
</g>
<!-- Node4 -->
<g id="node4" class="node"><title>Node4</title>
<g id="a_node4"><a xlink:href="classcom_1_1tomoparts_1_1tomoBay_1_1helpers_1_1checkTime_1_1CheckTime.html#a225d1db0a963fb1f5633a532c55cf856" target="_top" xlink:title="if before the start time for today returns yesterdays date otherwise returns todays date...">
<polygon fill="white" stroke="black" points="110,-11 110,-30 206,-30 206,-11 110,-11"/>
<text text-anchor="middle" x="158" y="-18" font-family="Helvetica,sans-Serif" font-size="10.00">OutOfHoursDate</text>
</a>
</g>
</g>
<!-- Node1&#45;&gt;Node4 -->
<g id="edge3" class="edge"><title>Node1&#45;&gt;Node4</title>
<path fill="none" stroke="midnightblue" d="M84.0398,-32.7622C92.4419,-31.3501 101.222,-29.8745 109.661,-28.4562"/>
<polygon fill="midnightblue" stroke="midnightblue" points="83.3084,-29.336 74.0269,-34.4451 84.4687,-36.2391 83.3084,-29.336"/>
</g>
<!-- Node3 -->
<g id="node3" class="node"><title>Node3</title>
<g id="a_node3"><a xlink:href="classcom_1_1tomoparts_1_1tomoBay_1_1model_1_1services_1_1outOfHoursService_1_1OutOfHoursService.html#ae3b0a282dcba7f2d675ca89b1dd48487" target="_top" xlink:title="com.tomoparts.tomoBay.model.services.out\lOfHoursService.OutOfHoursService.onRunning">
<polygon fill="white" stroke="black" points="242,-49.5 242,-79.5 481,-79.5 481,-49.5 242,-49.5"/>
<text text-anchor="start" x="250" y="-67.5" font-family="Helvetica,sans-Serif" font-size="10.00">com.tomoparts.tomoBay.model.services.out</text>
<text text-anchor="middle" x="361.5" y="-56.5" font-family="Helvetica,sans-Serif" font-size="10.00">OfHoursService.OutOfHoursService.onRunning</text>
</a>
</g>
</g>
<!-- Node2&#45;&gt;Node3 -->
<g id="edge2" class="edge"><title>Node2&#45;&gt;Node3</title>
<path fill="none" stroke="midnightblue" d="M199.288,-62.0998C211.94,-62.2882 226.611,-62.5066 241.847,-62.7335"/>
<polygon fill="midnightblue" stroke="midnightblue" points="199.218,-58.5985 189.167,-61.9491 199.113,-65.5977 199.218,-58.5985"/>
</g>
<!-- Node5 -->
<g id="node5" class="node"><title>Node5</title>
<g id="a_node5"><a xlink:href="classcom_1_1tomoparts_1_1tomoBay_1_1model_1_1services_1_1outOfHoursService_1_1OnRunning.html#aab5fa521184a6c2221356e77de439f57" target="_top" xlink:title="com.tomoparts.tomoBay.model.services.out\lOfHoursService.OnRunning.getDate">
<polygon fill="white" stroke="black" points="246,-0.5 246,-30.5 477,-30.5 477,-0.5 246,-0.5"/>
<text text-anchor="start" x="254" y="-18.5" font-family="Helvetica,sans-Serif" font-size="10.00">com.tomoparts.tomoBay.model.services.out</text>
<text text-anchor="middle" x="361.5" y="-7.5" font-family="Helvetica,sans-Serif" font-size="10.00">OfHoursService.OnRunning.getDate</text>
</a>
</g>
</g>
<!-- Node4&#45;&gt;Node5 -->
<g id="edge4" class="edge"><title>Node4&#45;&gt;Node5</title>
<path fill="none" stroke="midnightblue" d="M216.47,-19.074C225.776,-18.843 235.691,-18.597 245.797,-18.3462"/>
<polygon fill="midnightblue" stroke="midnightblue" points="216.153,-15.5806 206.243,-19.3277 216.327,-22.5785 216.153,-15.5806"/>
</g>
</g>
</svg>
