<?xml version="1.0" encoding="UTF-8" standalone="no"?>
<!DOCTYPE svg PUBLIC "-//W3C//DTD SVG 1.1//EN"
 "http://www.w3.org/Graphics/SVG/1.1/DTD/svg11.dtd">
<!-- Generated by graphviz version 2.38.0 (20140413.2041)
 -->
<!-- Title: createSuggestedOrders Pages: 1 -->
<svg width="550pt" height="170pt"
 viewBox="0.00 0.00 550.00 170.00" xmlns="http://www.w3.org/2000/svg" xmlns:xlink="http://www.w3.org/1999/xlink">
<g id="graph0" class="graph" transform="scale(1 1) rotate(0) translate(4 166)">
<title>createSuggestedOrders</title>
<polygon fill="white" stroke="none" points="-4,4 -4,-166 546,-166 546,4 -4,4"/>
<!-- Node1 -->
<g id="node1" class="node"><title>Node1</title>
<polygon fill="#bfbfbf" stroke="black" points="0,-71.5 0,-90.5 131,-90.5 131,-71.5 0,-71.5"/>
<text text-anchor="middle" x="65.5" y="-78.5" font-family="Helvetica,sans-Serif" font-size="10.00">createSuggestedOrders</text>
</g>
<!-- Node2 -->
<g id="node2" class="node"><title>Node2</title>
<g id="a_node2"><a xlink:href="classcom_1_1tomoparts_1_1tomoBay_1_1presenters_1_1presenterActions_1_1concreteActions_1_1StockReOrderAnalysis.html#adb3dedf31dc2c7fc796f20406c235ccd" target="_top" xlink:title="performs the action specified ">
<polygon fill="white" stroke="black" points="167,-71.5 167,-90.5 222,-90.5 222,-71.5 167,-71.5"/>
<text text-anchor="middle" x="194.5" y="-78.5" font-family="Helvetica,sans-Serif" font-size="10.00">execute</text>
</a>
</g>
</g>
<!-- Node1&#45;&gt;Node2 -->
<g id="edge1" class="edge"><title>Node1&#45;&gt;Node2</title>
<path fill="none" stroke="midnightblue" d="M141.125,-81C150.269,-81 159.095,-81 166.813,-81"/>
<polygon fill="midnightblue" stroke="midnightblue" points="141.116,-77.5001 131.116,-81 141.116,-84.5001 141.116,-77.5001"/>
</g>
<!-- Node3 -->
<g id="node3" class="node"><title>Node3</title>
<g id="a_node3"><a xlink:href="classcom_1_1tomoparts_1_1tomoBay_1_1test_1_1unit_1_1presenters_1_1presenterActions_1_1concreteAc8b0f5e9c382ebee7a7abf9009c33838e.html#a07b7831bd5f69df06f9ff2cce3661376" target="_top" xlink:title="com.tomoparts.tomoBay.test.unit.presenters.presenter\lActions.concreteActions.StockReOrderAnalysisTest.test\lExecuteBadData1">
<polygon fill="white" stroke="black" points="258,-120.5 258,-161.5 542,-161.5 542,-120.5 258,-120.5"/>
<text text-anchor="start" x="266" y="-149.5" font-family="Helvetica,sans-Serif" font-size="10.00">com.tomoparts.tomoBay.test.unit.presenters.presenter</text>
<text text-anchor="start" x="266" y="-138.5" font-family="Helvetica,sans-Serif" font-size="10.00">Actions.concreteActions.StockReOrderAnalysisTest.test</text>
<text text-anchor="middle" x="400" y="-127.5" font-family="Helvetica,sans-Serif" font-size="10.00">ExecuteBadData1</text>
</a>
</g>
</g>
<!-- Node2&#45;&gt;Node3 -->
<g id="edge2" class="edge"><title>Node2&#45;&gt;Node3</title>
<path fill="none" stroke="midnightblue" d="M221.592,-95.2378C232.583,-100.779 245.665,-106.794 258,-111 268.186,-114.473 278.928,-117.625 289.752,-120.467"/>
<polygon fill="midnightblue" stroke="midnightblue" points="223.033,-92.0424 212.544,-90.5474 219.812,-98.257 223.033,-92.0424"/>
</g>
<!-- Node4 -->
<g id="node4" class="node"><title>Node4</title>
<g id="a_node4"><a xlink:href="classcom_1_1tomoparts_1_1tomoBay_1_1test_1_1unit_1_1presenters_1_1presenterActions_1_1concreteAc8b0f5e9c382ebee7a7abf9009c33838e.html#a9fe5a553cc6d9ead3154faa3121e5bb9" target="_top" xlink:title="com.tomoparts.tomoBay.test.unit.presenters.presenter\lActions.concreteActions.StockReOrderAnalysisTest.test\lExecuteBadData2">
<polygon fill="white" stroke="black" points="258,-60.5 258,-101.5 542,-101.5 542,-60.5 258,-60.5"/>
<text text-anchor="start" x="266" y="-89.5" font-family="Helvetica,sans-Serif" font-size="10.00">com.tomoparts.tomoBay.test.unit.presenters.presenter</text>
<text text-anchor="start" x="266" y="-78.5" font-family="Helvetica,sans-Serif" font-size="10.00">Actions.concreteActions.StockReOrderAnalysisTest.test</text>
<text text-anchor="middle" x="400" y="-67.5" font-family="Helvetica,sans-Serif" font-size="10.00">ExecuteBadData2</text>
</a>
</g>
</g>
<!-- Node2&#45;&gt;Node4 -->
<g id="edge3" class="edge"><title>Node2&#45;&gt;Node4</title>
<path fill="none" stroke="midnightblue" d="M232.106,-81C239.863,-81 248.491,-81 257.624,-81"/>
<polygon fill="midnightblue" stroke="midnightblue" points="232.104,-77.5001 222.104,-81 232.104,-84.5001 232.104,-77.5001"/>
</g>
<!-- Node5 -->
<g id="node5" class="node"><title>Node5</title>
<g id="a_node5"><a xlink:href="classcom_1_1tomoparts_1_1tomoBay_1_1test_1_1unit_1_1presenters_1_1presenterActions_1_1concreteAc8b0f5e9c382ebee7a7abf9009c33838e.html#a523accba573f6d4c7f68fb358a0563cb" target="_top" xlink:title="com.tomoparts.tomoBay.test.unit.presenters.presenter\lActions.concreteActions.StockReOrderAnalysisTest.test\lExecuteBadData3">
<polygon fill="white" stroke="black" points="258,-0.5 258,-41.5 542,-41.5 542,-0.5 258,-0.5"/>
<text text-anchor="start" x="266" y="-29.5" font-family="Helvetica,sans-Serif" font-size="10.00">com.tomoparts.tomoBay.test.unit.presenters.presenter</text>
<text text-anchor="start" x="266" y="-18.5" font-family="Helvetica,sans-Serif" font-size="10.00">Actions.concreteActions.StockReOrderAnalysisTest.test</text>
<text text-anchor="middle" x="400" y="-7.5" font-family="Helvetica,sans-Serif" font-size="10.00">ExecuteBadData3</text>
</a>
</g>
</g>
<!-- Node2&#45;&gt;Node5 -->
<g id="edge4" class="edge"><title>Node2&#45;&gt;Node5</title>
<path fill="none" stroke="midnightblue" d="M221.592,-66.7622C232.583,-61.2207 245.665,-55.2056 258,-51 268.186,-47.5272 278.928,-44.3747 289.752,-41.5328"/>
<polygon fill="midnightblue" stroke="midnightblue" points="219.812,-63.743 212.544,-71.4526 223.033,-69.9576 219.812,-63.743"/>
</g>
</g>
</svg>
