<?xml version="1.0" encoding="UTF-8" standalone="no"?>
<!DOCTYPE svg PUBLIC "-//W3C//DTD SVG 1.1//EN"
 "http://www.w3.org/Graphics/SVG/1.1/DTD/svg11.dtd">
<!-- Generated by graphviz version 2.38.0 (20140413.2041)
 -->
<!-- Title: createCSV Pages: 1 -->
<svg width="312pt" height="137pt"
 viewBox="0.00 0.00 312.00 137.00" xmlns="http://www.w3.org/2000/svg" xmlns:xlink="http://www.w3.org/1999/xlink">
<g id="graph0" class="graph" transform="scale(1 1) rotate(0) translate(4 133)">
<title>createCSV</title>
<polygon fill="white" stroke="none" points="-4,4 -4,-133 308,-133 308,4 -4,4"/>
<!-- Node1 -->
<g id="node1" class="node"><title>Node1</title>
<polygon fill="#bfbfbf" stroke="black" points="0,-55 0,-74 68,-74 68,-55 0,-55"/>
<text text-anchor="middle" x="34" y="-62" font-family="Helvetica,sans-Serif" font-size="10.00">createCSV</text>
</g>
<!-- Node2 -->
<g id="node2" class="node"><title>Node2</title>
<g id="a_node2"><a xlink:href="classcom_1_1tomoparts_1_1tomoBay_1_1model_1_1royalMail_1_1RoyalMailCSVGenerator.html#a2529b2ea0d2aefc60749e34c2d1cf74e" target="_top" xlink:title="adds a whole batch of data to the end of the CSV ">
<polygon fill="white" stroke="black" points="104,-98.5 104,-128.5 304,-128.5 304,-98.5 104,-98.5"/>
<text text-anchor="start" x="112" y="-116.5" font-family="Helvetica,sans-Serif" font-size="10.00">com.tomoparts.tomoBay.model.royal</text>
<text text-anchor="middle" x="204" y="-105.5" font-family="Helvetica,sans-Serif" font-size="10.00">Mail.RoyalMailCSVGenerator.addBatch</text>
</a>
</g>
</g>
<!-- Node1&#45;&gt;Node2 -->
<g id="edge1" class="edge"><title>Node1&#45;&gt;Node2</title>
<path fill="none" stroke="midnightblue" d="M59.3703,-74.0702C72.4802,-79.0299 88.995,-84.9778 104,-89.5 111.382,-91.7247 119.12,-93.8877 126.88,-95.9454"/>
<polygon fill="midnightblue" stroke="midnightblue" points="126.136,-99.3684 136.695,-98.4924 127.895,-92.5928 126.136,-99.3684"/>
</g>
<!-- Node3 -->
<g id="node3" class="node"><title>Node3</title>
<g id="a_node3"><a xlink:href="classcom_1_1tomoparts_1_1tomoBay_1_1model_1_1royalMail_1_1RoyalMailCSVGenerator.html#ac60739d0a2d1d8d69f238b4cc4f4a8de" target="_top" xlink:title="Generated the actual CSV file, it will overwrite any file already at that path with the name specifie...">
<polygon fill="white" stroke="black" points="105,-49.5 105,-79.5 303,-79.5 303,-49.5 105,-49.5"/>
<text text-anchor="start" x="113" y="-67.5" font-family="Helvetica,sans-Serif" font-size="10.00">com.tomoparts.tomoBay.model.royal</text>
<text text-anchor="middle" x="204" y="-56.5" font-family="Helvetica,sans-Serif" font-size="10.00">Mail.RoyalMailCSVGenerator.generate</text>
</a>
</g>
</g>
<!-- Node1&#45;&gt;Node3 -->
<g id="edge2" class="edge"><title>Node1&#45;&gt;Node3</title>
<path fill="none" stroke="midnightblue" d="M68.1914,-64.5C76.1268,-64.5 85.0313,-64.5 94.3822,-64.5"/>
<polygon fill="midnightblue" stroke="midnightblue" points="94.6795,-68.0001 104.679,-64.5 94.6794,-61.0001 94.6795,-68.0001"/>
</g>
<!-- Node4 -->
<g id="node4" class="node"><title>Node4</title>
<g id="a_node4"><a xlink:href="classcom_1_1tomoparts_1_1tomoBay_1_1model_1_1royalMail_1_1RoyalMailCSVGenerator.html#ad146fa8579a5f8a876c4688cc5a68520" target="_top" xlink:title="informative String representation of the CSV file at the point in time where this method is called...">
<polygon fill="white" stroke="black" points="105.5,-0.5 105.5,-30.5 302.5,-30.5 302.5,-0.5 105.5,-0.5"/>
<text text-anchor="start" x="113.5" y="-18.5" font-family="Helvetica,sans-Serif" font-size="10.00">com.tomoparts.tomoBay.model.royal</text>
<text text-anchor="middle" x="204" y="-7.5" font-family="Helvetica,sans-Serif" font-size="10.00">Mail.RoyalMailCSVGenerator.toString</text>
</a>
</g>
</g>
<!-- Node1&#45;&gt;Node4 -->
<g id="edge3" class="edge"><title>Node1&#45;&gt;Node4</title>
<path fill="none" stroke="midnightblue" d="M60.7106,-54.9575C73.6157,-50.3214 89.5418,-44.831 104,-40.5 112.39,-37.9868 121.229,-35.5125 130.031,-33.1557"/>
<polygon fill="midnightblue" stroke="midnightblue" points="131.149,-36.4807 139.927,-30.5489 129.366,-29.7116 131.149,-36.4807"/>
</g>
</g>
</svg>
