<?xml version="1.0" encoding="UTF-8" standalone="no"?>
<!DOCTYPE svg PUBLIC "-//W3C//DTD SVG 1.1//EN"
 "http://www.w3.org/Graphics/SVG/1.1/DTD/svg11.dtd">
<!-- Generated by graphviz version 2.38.0 (20140413.2041)
 -->
<!-- Title: PartList Pages: 1 -->
<svg width="221pt" height="28pt"
 viewBox="0.00 0.00 221.00 28.00" xmlns="http://www.w3.org/2000/svg" xmlns:xlink="http://www.w3.org/1999/xlink">
<g id="graph0" class="graph" transform="scale(1 1) rotate(0) translate(4 24)">
<title>PartList</title>
<polygon fill="white" stroke="none" points="-4,4 -4,-24 217,-24 217,4 -4,4"/>
<!-- Node1 -->
<g id="node1" class="node"><title>Node1</title>
<polygon fill="#bfbfbf" stroke="black" points="0,-0.5 0,-19.5 53,-19.5 53,-0.5 0,-0.5"/>
<text text-anchor="middle" x="26.5" y="-7.5" font-family="Helvetica,sans-Serif" font-size="10.00">PartList</text>
</g>
<!-- Node2 -->
<g id="node2" class="node"><title>Node2</title>
<g id="a_node2"><a xlink:href="classcom_1_1tomoparts_1_1tomoBay_1_1model_1_1dataTypes_1_1PartList.html#a5820ad58620d1c2f8e4ad5235b16aff8" target="_top" xlink:title="uses regex to decompose the composite part number into quantities and part numbers, then place these in the partlist. ">
<polygon fill="white" stroke="black" points="89,-0.5 89,-19.5 142,-19.5 142,-0.5 89,-0.5"/>
<text text-anchor="middle" x="115.5" y="-7.5" font-family="Helvetica,sans-Serif" font-size="10.00">convert</text>
</a>
</g>
</g>
<!-- Node1&#45;&gt;Node2 -->
<g id="edge1" class="edge"><title>Node1&#45;&gt;Node2</title>
<path fill="none" stroke="midnightblue" d="M53.1323,-10C61.1144,-10 70.0679,-10 78.6164,-10"/>
<polygon fill="midnightblue" stroke="midnightblue" points="78.7503,-13.5001 88.7503,-10 78.7502,-6.5001 78.7503,-13.5001"/>
</g>
<!-- Node3 -->
<g id="node3" class="node"><title>Node3</title>
<g id="a_node3"><a xlink:href="classcom_1_1tomoparts_1_1tomoBay_1_1model_1_1dataTypes_1_1PartList.html#a28c43de18d366920e349056a44ae1aaf" target="_top" xlink:title="add a part number to the PartList with a given quantity ">
<polygon fill="white" stroke="black" points="178,-0.5 178,-19.5 213,-19.5 213,-0.5 178,-0.5"/>
<text text-anchor="middle" x="195.5" y="-7.5" font-family="Helvetica,sans-Serif" font-size="10.00">add</text>
</a>
</g>
</g>
<!-- Node2&#45;&gt;Node3 -->
<g id="edge2" class="edge"><title>Node2&#45;&gt;Node3</title>
<path fill="none" stroke="midnightblue" d="M142.04,-10C150.196,-10 159.247,-10 167.502,-10"/>
<polygon fill="midnightblue" stroke="midnightblue" points="167.755,-13.5001 177.755,-10 167.755,-6.5001 167.755,-13.5001"/>
</g>
</g>
</svg>
