<?xml version="1.0" encoding="UTF-8" standalone="no"?>
<!DOCTYPE svg PUBLIC "-//W3C//DTD SVG 1.1//EN"
 "http://www.w3.org/Graphics/SVG/1.1/DTD/svg11.dtd">
<!-- Generated by graphviz version 2.38.0 (20140413.2041)
 -->
<!-- Title: get Pages: 1 -->
<svg width="905pt" height="110pt"
 viewBox="0.00 0.00 905.00 110.00" xmlns="http://www.w3.org/2000/svg" xmlns:xlink="http://www.w3.org/1999/xlink">
<g id="graph0" class="graph" transform="scale(1 1) rotate(0) translate(4 106)">
<title>get</title>
<polygon fill="white" stroke="none" points="-4,4 -4,-106 901,-106 901,4 -4,4"/>
<!-- Node1 -->
<g id="node1" class="node"><title>Node1</title>
<polygon fill="#bfbfbf" stroke="black" points="0,-41.5 0,-60.5 32,-60.5 32,-41.5 0,-41.5"/>
<text text-anchor="middle" x="16" y="-48.5" font-family="Helvetica,sans-Serif" font-size="10.00">get</text>
</g>
<!-- Node2 -->
<g id="node2" class="node"><title>Node2</title>
<g id="a_node2"><a xlink:href="classcom_1_1tomoparts_1_1tomoBay_1_1model_1_1services_1_1reScanErrorsService_1_1ReScanErrorsWinstockActions.html#a08319255a892c8a0f21883af69843d6c" target="_top" xlink:title="this method checks to see if a particular item (through the ItemSpecifics passed in as an argument) h...">
<polygon fill="white" stroke="black" points="68,-60.5 68,-101.5 340,-101.5 340,-60.5 68,-60.5"/>
<text text-anchor="start" x="76" y="-89.5" font-family="Helvetica,sans-Serif" font-size="10.00">com.tomoparts.tomoBay.model.services.re</text>
<text text-anchor="start" x="76" y="-78.5" font-family="Helvetica,sans-Serif" font-size="10.00">ScanErrorsService.ReScanErrorsWinstockActions.part</text>
<text text-anchor="middle" x="204" y="-67.5" font-family="Helvetica,sans-Serif" font-size="10.00">NoHasError</text>
</a>
</g>
</g>
<!-- Node1&#45;&gt;Node2 -->
<g id="edge1" class="edge"><title>Node1&#45;&gt;Node2</title>
<path fill="none" stroke="midnightblue" d="M42.2833,-55.078C51.7012,-56.597 63.1424,-58.4423 75.5345,-60.441"/>
<polygon fill="midnightblue" stroke="midnightblue" points="42.6509,-51.5921 32.2212,-53.455 41.5362,-58.5028 42.6509,-51.5921"/>
</g>
<!-- Node5 -->
<g id="node5" class="node"><title>Node5</title>
<g id="a_node5"><a xlink:href="classcom_1_1tomoparts_1_1tomoBay_1_1model_1_1services_1_1reScanErrorsService_1_1ReScanErrorsDBActions.html#a686181ed1b6d7f86e1b05653dc98f37e" target="_top" xlink:title="updates the database with corrected information, as provided in the ItemSpecifics passed in as an arg...">
<polygon fill="white" stroke="black" points="75,-0.5 75,-41.5 333,-41.5 333,-0.5 75,-0.5"/>
<text text-anchor="start" x="83" y="-29.5" font-family="Helvetica,sans-Serif" font-size="10.00">com.tomoparts.tomoBay.model.services.re</text>
<text text-anchor="start" x="83" y="-18.5" font-family="Helvetica,sans-Serif" font-size="10.00">ScanErrorsService.ReScanErrorsDBActions.update</text>
<text text-anchor="middle" x="204" y="-7.5" font-family="Helvetica,sans-Serif" font-size="10.00">DBwithCorrectedInfo</text>
</a>
</g>
</g>
<!-- Node1&#45;&gt;Node5 -->
<g id="edge4" class="edge"><title>Node1&#45;&gt;Node5</title>
<path fill="none" stroke="midnightblue" d="M42.2833,-46.922C51.7012,-45.403 63.1424,-43.5577 75.5345,-41.559"/>
<polygon fill="midnightblue" stroke="midnightblue" points="41.5362,-43.4972 32.2212,-48.545 42.6509,-50.4079 41.5362,-43.4972"/>
</g>
<!-- Node3 -->
<g id="node3" class="node"><title>Node3</title>
<g id="a_node3"><a xlink:href="classcom_1_1tomoparts_1_1tomoBay_1_1model_1_1services_1_1reScanErrorsService_1_1OnRunning.html#ae4a4f4cadce2787c7e80005639fbd5d9" target="_top" xlink:title="this method defines what to do in the given derived state ">
<polygon fill="white" stroke="black" points="376,-36 376,-66 601,-66 601,-36 376,-36"/>
<text text-anchor="start" x="384" y="-54" font-family="Helvetica,sans-Serif" font-size="10.00">com.tomoparts.tomoBay.model.services.re</text>
<text text-anchor="middle" x="488.5" y="-43" font-family="Helvetica,sans-Serif" font-size="10.00">ScanErrorsService.OnRunning.execute</text>
</a>
</g>
</g>
<!-- Node2&#45;&gt;Node3 -->
<g id="edge2" class="edge"><title>Node2&#45;&gt;Node3</title>
<path fill="none" stroke="midnightblue" d="M350.105,-65.5906C358.674,-64.6806 367.225,-63.7726 375.63,-62.88"/>
<polygon fill="midnightblue" stroke="midnightblue" points="349.619,-62.1225 340.045,-66.659 350.358,-69.0833 349.619,-62.1225"/>
</g>
<!-- Node4 -->
<g id="node4" class="node"><title>Node4</title>
<g id="a_node4"><a xlink:href="classcom_1_1tomoparts_1_1tomoBay_1_1model_1_1services_1_1reScanErrorsService_1_1ReScanErrorsService.html#ae3b0a282dcba7f2d675ca89b1dd48487" target="_top" xlink:title="com.tomoparts.tomoBay.model.services.re\lScanErrorsService.ReScanErrorsService.onRunning">
<polygon fill="white" stroke="black" points="637,-36 637,-66 897,-66 897,-36 637,-36"/>
<text text-anchor="start" x="645" y="-54" font-family="Helvetica,sans-Serif" font-size="10.00">com.tomoparts.tomoBay.model.services.re</text>
<text text-anchor="middle" x="767" y="-43" font-family="Helvetica,sans-Serif" font-size="10.00">ScanErrorsService.ReScanErrorsService.onRunning</text>
</a>
</g>
</g>
<!-- Node3&#45;&gt;Node4 -->
<g id="edge3" class="edge"><title>Node3&#45;&gt;Node4</title>
<path fill="none" stroke="midnightblue" d="M611.362,-51C619.761,-51 628.241,-51 636.677,-51"/>
<polygon fill="midnightblue" stroke="midnightblue" points="611.166,-47.5001 601.166,-51 611.166,-54.5001 611.166,-47.5001"/>
</g>
<!-- Node5&#45;&gt;Node3 -->
<g id="edge5" class="edge"><title>Node5&#45;&gt;Node3</title>
<path fill="none" stroke="midnightblue" d="M343.107,-35.6662C354.101,-36.8338 365.121,-38.004 375.899,-39.1486"/>
<polygon fill="midnightblue" stroke="midnightblue" points="343.339,-32.1712 333.025,-34.5956 342.6,-39.1321 343.339,-32.1712"/>
</g>
</g>
</svg>
