<?xml version="1.0" encoding="UTF-8" standalone="no"?>
<!DOCTYPE svg PUBLIC "-//W3C//DTD SVG 1.1//EN"
 "http://www.w3.org/Graphics/SVG/1.1/DTD/svg11.dtd">
<!-- Generated by graphviz version 2.38.0 (20140413.2041)
 -->
<!-- Title: constructEmailAndServer Pages: 1 -->
<svg width="403pt" height="100pt"
 viewBox="0.00 0.00 403.00 99.50" xmlns="http://www.w3.org/2000/svg" xmlns:xlink="http://www.w3.org/1999/xlink">
<g id="graph0" class="graph" transform="scale(1 1) rotate(0) translate(4 95.5)">
<title>constructEmailAndServer</title>
<polygon fill="white" stroke="none" points="-4,4 -4,-95.5 399,-95.5 399,4 -4,4"/>
<!-- Node1 -->
<g id="node1" class="node"><title>Node1</title>
<polygon fill="#bfbfbf" stroke="black" points="0,-38.5 0,-57.5 138,-57.5 138,-38.5 0,-38.5"/>
<text text-anchor="middle" x="69" y="-45.5" font-family="Helvetica,sans-Serif" font-size="10.00">constructEmailAndServer</text>
</g>
<!-- Node2 -->
<g id="node2" class="node"><title>Node2</title>
<g id="a_node2"><a xlink:href="classcom_1_1tomoparts_1_1tomoBay_1_1model_1_1net_1_1email_1_1AbstractEmailBuilder.html#a4f128fdcd61c6889df2df17738e083fe" target="_top" xlink:title="builds the Email object ">
<polygon fill="white" stroke="black" points="174,-61 174,-91 395,-91 395,-61 174,-61"/>
<text text-anchor="start" x="182" y="-79" font-family="Helvetica,sans-Serif" font-size="10.00">com.tomoparts.tomoBay.model.net.email.</text>
<text text-anchor="middle" x="284.5" y="-68" font-family="Helvetica,sans-Serif" font-size="10.00">AbstractEmailBuilder.buildEmail</text>
</a>
</g>
</g>
<!-- Node1&#45;&gt;Node2 -->
<g id="edge1" class="edge"><title>Node1&#45;&gt;Node2</title>
<path fill="none" stroke="midnightblue" d="M138.14,-56.9364C146.474,-58.0294 155.172,-59.1701 163.987,-60.3262"/>
<polygon fill="midnightblue" stroke="midnightblue" points="163.607,-63.8062 173.977,-61.6363 164.517,-56.8656 163.607,-63.8062"/>
</g>
<!-- Node3 -->
<g id="node3" class="node"><title>Node3</title>
<g id="a_node3"><a xlink:href="classcom_1_1tomoparts_1_1tomoBay_1_1model_1_1net_1_1email_1_1AbstractEmailBuilder.html#a639a9a43711a6d861c0215cfd21a618e" target="_top" xlink:title="populates the MailServerSend object with a specific configuration ">
<polygon fill="white" stroke="black" points="174,-0.5 174,-41.5 395,-41.5 395,-0.5 174,-0.5"/>
<text text-anchor="start" x="182" y="-29.5" font-family="Helvetica,sans-Serif" font-size="10.00">com.tomoparts.tomoBay.model.net.email.</text>
<text text-anchor="start" x="182" y="-18.5" font-family="Helvetica,sans-Serif" font-size="10.00">AbstractEmailBuilder.buildMailServerSend</text>
<text text-anchor="middle" x="284.5" y="-7.5" font-family="Helvetica,sans-Serif" font-size="10.00">Connection</text>
</a>
</g>
</g>
<!-- Node1&#45;&gt;Node3 -->
<g id="edge2" class="edge"><title>Node1&#45;&gt;Node3</title>
<path fill="none" stroke="midnightblue" d="M138.14,-39.3828C146.474,-38.3288 155.172,-37.2288 163.987,-36.114"/>
<polygon fill="midnightblue" stroke="midnightblue" points="164.495,-39.5777 173.977,-34.8507 163.617,-32.6331 164.495,-39.5777"/>
</g>
</g>
</svg>
