<?xml version="1.0" encoding="UTF-8" standalone="no"?>
<!DOCTYPE svg PUBLIC "-//W3C//DTD SVG 1.1//EN"
 "http://www.w3.org/Graphics/SVG/1.1/DTD/svg11.dtd">
<!-- Generated by graphviz version 2.38.0 (20140413.2041)
 -->
<!-- Title: loadData Pages: 1 -->
<svg width="439pt" height="137pt"
 viewBox="0.00 0.00 439.00 137.00" xmlns="http://www.w3.org/2000/svg" xmlns:xlink="http://www.w3.org/1999/xlink">
<g id="graph0" class="graph" transform="scale(1 1) rotate(0) translate(4 133)">
<title>loadData</title>
<polygon fill="white" stroke="none" points="-4,4 -4,-133 435,-133 435,4 -4,4"/>
<!-- Node1 -->
<g id="node1" class="node"><title>Node1</title>
<polygon fill="#bfbfbf" stroke="black" points="0,-55 0,-74 60,-74 60,-55 0,-55"/>
<text text-anchor="middle" x="30" y="-62" font-family="Helvetica,sans-Serif" font-size="10.00">loadData</text>
</g>
<!-- Node2 -->
<g id="node2" class="node"><title>Node2</title>
<g id="a_node2"><a xlink:href="classcom_1_1tomoparts_1_1tomoBay_1_1model_1_1services_1_1emailErrorsService_1_1EmailErrorsMailActions.html#a05337b002b830d253e7580044fbe0419" target="_top" xlink:title="add a message to the email ">
<polygon fill="white" stroke="black" points="96.5,-98 96.5,-117 173.5,-117 173.5,-98 96.5,-98"/>
<text text-anchor="middle" x="135" y="-105" font-family="Helvetica,sans-Serif" font-size="10.00">addMessage</text>
</a>
</g>
</g>
<!-- Node1&#45;&gt;Node2 -->
<g id="edge1" class="edge"><title>Node1&#45;&gt;Node2</title>
<path fill="none" stroke="midnightblue" d="M53.859,-74.0431C67.9942,-79.9442 86.3501,-87.6073 101.927,-94.1105"/>
<polygon fill="midnightblue" stroke="midnightblue" points="100.628,-97.3609 111.205,-97.9836 103.325,-90.9012 100.628,-97.3609"/>
</g>
<!-- Node4 -->
<g id="node4" class="node"><title>Node4</title>
<g id="a_node4"><a xlink:href="classcom_1_1tomoparts_1_1tomoBay_1_1model_1_1services_1_1emailErrorsService_1_1EmailErrorsMailActions.html#a6821a16486f28486b3191bb50a167262" target="_top" xlink:title="add a recipient to the email ">
<polygon fill="white" stroke="black" points="96,-55 96,-74 174,-74 174,-55 96,-55"/>
<text text-anchor="middle" x="135" y="-62" font-family="Helvetica,sans-Serif" font-size="10.00">addRecipient</text>
</a>
</g>
</g>
<!-- Node1&#45;&gt;Node4 -->
<g id="edge3" class="edge"><title>Node1&#45;&gt;Node4</title>
<path fill="none" stroke="midnightblue" d="M60.2402,-64.5C68.1912,-64.5 77.0189,-64.5 85.7233,-64.5"/>
<polygon fill="midnightblue" stroke="midnightblue" points="85.825,-68.0001 95.825,-64.5 85.8249,-61.0001 85.825,-68.0001"/>
</g>
<!-- Node6 -->
<g id="node6" class="node"><title>Node6</title>
<g id="a_node6"><a xlink:href="classcom_1_1tomoparts_1_1tomoBay_1_1model_1_1services_1_1emailErrorsService_1_1EmailErrorsMailActions.html#a2a8614817e293230d76a7dfab60c7f4f" target="_top" xlink:title="add a subject line to the email ">
<polygon fill="white" stroke="black" points="99.5,-12 99.5,-31 170.5,-31 170.5,-12 99.5,-12"/>
<text text-anchor="middle" x="135" y="-19" font-family="Helvetica,sans-Serif" font-size="10.00">addSubject</text>
</a>
</g>
</g>
<!-- Node1&#45;&gt;Node6 -->
<g id="edge5" class="edge"><title>Node1&#45;&gt;Node6</title>
<path fill="none" stroke="midnightblue" d="M53.859,-54.9569C67.9942,-49.0558 86.3501,-41.3927 101.927,-34.8895"/>
<polygon fill="midnightblue" stroke="midnightblue" points="103.325,-38.0988 111.205,-31.0164 100.628,-31.6391 103.325,-38.0988"/>
</g>
<!-- Node3 -->
<g id="node3" class="node"><title>Node3</title>
<g id="a_node3"><a xlink:href="classcom_1_1tomoparts_1_1tomoBay_1_1model_1_1net_1_1email_1_1Email.html#acc7b010f914eeee1745a79004eca2481" target="_top" xlink:title="sets the email body ">
<polygon fill="white" stroke="black" points="210,-98.5 210,-128.5 431,-128.5 431,-98.5 210,-98.5"/>
<text text-anchor="start" x="218" y="-116.5" font-family="Helvetica,sans-Serif" font-size="10.00">com.tomoparts.tomoBay.model.net.email.</text>
<text text-anchor="middle" x="320.5" y="-105.5" font-family="Helvetica,sans-Serif" font-size="10.00">Email.setMessage</text>
</a>
</g>
</g>
<!-- Node2&#45;&gt;Node3 -->
<g id="edge2" class="edge"><title>Node2&#45;&gt;Node3</title>
<path fill="none" stroke="midnightblue" d="M173.577,-108.729C181.585,-108.991 190.451,-109.28 199.741,-109.584"/>
<polygon fill="midnightblue" stroke="midnightblue" points="199.858,-113.09 209.967,-109.919 200.087,-106.094 199.858,-113.09"/>
</g>
<!-- Node5 -->
<g id="node5" class="node"><title>Node5</title>
<g id="a_node5"><a xlink:href="classcom_1_1tomoparts_1_1tomoBay_1_1model_1_1net_1_1email_1_1Email.html#a5c78f073f0c4c95dddbb78f7a9eb6cd2" target="_top" xlink:title="set a recipient of the email, valid RecipientType listed in Message.RecipientType : TO/CC/BCC...">
<polygon fill="white" stroke="black" points="210,-49.5 210,-79.5 431,-79.5 431,-49.5 210,-49.5"/>
<text text-anchor="start" x="218" y="-67.5" font-family="Helvetica,sans-Serif" font-size="10.00">com.tomoparts.tomoBay.model.net.email.</text>
<text text-anchor="middle" x="320.5" y="-56.5" font-family="Helvetica,sans-Serif" font-size="10.00">Email.setRecipient</text>
</a>
</g>
</g>
<!-- Node4&#45;&gt;Node5 -->
<g id="edge4" class="edge"><title>Node4&#45;&gt;Node5</title>
<path fill="none" stroke="midnightblue" d="M174.021,-64.5C181.801,-64.5 190.377,-64.5 199.355,-64.5"/>
<polygon fill="midnightblue" stroke="midnightblue" points="199.641,-68.0001 209.641,-64.5 199.641,-61.0001 199.641,-68.0001"/>
</g>
<!-- Node7 -->
<g id="node7" class="node"><title>Node7</title>
<g id="a_node7"><a xlink:href="classcom_1_1tomoparts_1_1tomoBay_1_1model_1_1net_1_1email_1_1Email.html#a39f0298f055f0b78ad2ac781d38f326f" target="_top" xlink:title="set the subject line of the email. ">
<polygon fill="white" stroke="black" points="210,-0.5 210,-30.5 431,-30.5 431,-0.5 210,-0.5"/>
<text text-anchor="start" x="218" y="-18.5" font-family="Helvetica,sans-Serif" font-size="10.00">com.tomoparts.tomoBay.model.net.email.</text>
<text text-anchor="middle" x="320.5" y="-7.5" font-family="Helvetica,sans-Serif" font-size="10.00">Email.setSubject</text>
</a>
</g>
</g>
<!-- Node6&#45;&gt;Node7 -->
<g id="edge6" class="edge"><title>Node6&#45;&gt;Node7</title>
<path fill="none" stroke="midnightblue" d="M170.515,-20.3714C179.248,-20.0859 189.133,-19.7627 199.555,-19.4219"/>
<polygon fill="midnightblue" stroke="midnightblue" points="199.812,-22.9155 209.693,-19.0904 199.584,-15.9192 199.812,-22.9155"/>
</g>
</g>
</svg>
