<?xml version="1.0" encoding="UTF-8" standalone="no"?>
<!DOCTYPE svg PUBLIC "-//W3C//DTD SVG 1.1//EN"
 "http://www.w3.org/Graphics/SVG/1.1/DTD/svg11.dtd">
<!-- Generated by graphviz version 2.38.0 (20140413.2041)
 -->
<!-- Title: setUpEmail Pages: 1 -->
<svg width="336pt" height="137pt"
 viewBox="0.00 0.00 336.00 137.00" xmlns="http://www.w3.org/2000/svg" xmlns:xlink="http://www.w3.org/1999/xlink">
<g id="graph0" class="graph" transform="scale(1 1) rotate(0) translate(4 133)">
<title>setUpEmail</title>
<polygon fill="white" stroke="none" points="-4,4 -4,-133 332,-133 332,4 -4,4"/>
<!-- Node1 -->
<g id="node1" class="node"><title>Node1</title>
<polygon fill="#bfbfbf" stroke="black" points="0,-55 0,-74 71,-74 71,-55 0,-55"/>
<text text-anchor="middle" x="35.5" y="-62" font-family="Helvetica,sans-Serif" font-size="10.00">setUpEmail</text>
</g>
<!-- Node2 -->
<g id="node2" class="node"><title>Node2</title>
<g id="a_node2"><a xlink:href="classcom_1_1tomoparts_1_1tomoBay_1_1model_1_1net_1_1email_1_1Email.html#acc7b010f914eeee1745a79004eca2481" target="_top" xlink:title="sets the email body ">
<polygon fill="white" stroke="black" points="107,-98.5 107,-128.5 328,-128.5 328,-98.5 107,-98.5"/>
<text text-anchor="start" x="115" y="-116.5" font-family="Helvetica,sans-Serif" font-size="10.00">com.tomoparts.tomoBay.model.net.email.</text>
<text text-anchor="middle" x="217.5" y="-105.5" font-family="Helvetica,sans-Serif" font-size="10.00">Email.setMessage</text>
</a>
</g>
</g>
<!-- Node1&#45;&gt;Node2 -->
<g id="edge1" class="edge"><title>Node1&#45;&gt;Node2</title>
<path fill="none" stroke="midnightblue" d="M61.052,-74.0576C74.4919,-79.0729 91.5164,-85.0766 107,-89.5 115.07,-91.8055 123.528,-94.0152 132.016,-96.0962"/>
<polygon fill="midnightblue" stroke="midnightblue" points="131.43,-99.5548 141.97,-98.4778 133.059,-92.747 131.43,-99.5548"/>
</g>
<!-- Node3 -->
<g id="node3" class="node"><title>Node3</title>
<g id="a_node3"><a xlink:href="classcom_1_1tomoparts_1_1tomoBay_1_1model_1_1net_1_1email_1_1Email.html#a5c78f073f0c4c95dddbb78f7a9eb6cd2" target="_top" xlink:title="set a recipient of the email, valid RecipientType listed in Message.RecipientType : TO/CC/BCC...">
<polygon fill="white" stroke="black" points="107,-49.5 107,-79.5 328,-79.5 328,-49.5 107,-49.5"/>
<text text-anchor="start" x="115" y="-67.5" font-family="Helvetica,sans-Serif" font-size="10.00">com.tomoparts.tomoBay.model.net.email.</text>
<text text-anchor="middle" x="217.5" y="-56.5" font-family="Helvetica,sans-Serif" font-size="10.00">Email.setRecipient</text>
</a>
</g>
</g>
<!-- Node1&#45;&gt;Node3 -->
<g id="edge2" class="edge"><title>Node1&#45;&gt;Node3</title>
<path fill="none" stroke="midnightblue" d="M71.2058,-64.5C79.0083,-64.5 87.716,-64.5 96.8853,-64.5"/>
<polygon fill="midnightblue" stroke="midnightblue" points="96.9951,-68.0001 106.995,-64.5 96.995,-61.0001 96.9951,-68.0001"/>
</g>
<!-- Node4 -->
<g id="node4" class="node"><title>Node4</title>
<g id="a_node4"><a xlink:href="classcom_1_1tomoparts_1_1tomoBay_1_1model_1_1net_1_1email_1_1Email.html#a39f0298f055f0b78ad2ac781d38f326f" target="_top" xlink:title="set the subject line of the email. ">
<polygon fill="white" stroke="black" points="107,-0.5 107,-30.5 328,-30.5 328,-0.5 107,-0.5"/>
<text text-anchor="start" x="115" y="-18.5" font-family="Helvetica,sans-Serif" font-size="10.00">com.tomoparts.tomoBay.model.net.email.</text>
<text text-anchor="middle" x="217.5" y="-7.5" font-family="Helvetica,sans-Serif" font-size="10.00">Email.setSubject</text>
</a>
</g>
</g>
<!-- Node1&#45;&gt;Node4 -->
<g id="edge3" class="edge"><title>Node1&#45;&gt;Node4</title>
<path fill="none" stroke="midnightblue" d="M62.4122,-54.96C75.6495,-50.2704 92.0732,-44.7324 107,-40.5 116.357,-37.847 126.224,-35.2788 136.047,-32.8631"/>
<polygon fill="midnightblue" stroke="midnightblue" points="136.936,-36.2492 145.835,-30.5008 135.293,-29.4446 136.936,-36.2492"/>
</g>
</g>
</svg>
