<?xml version="1.0" encoding="UTF-8" standalone="no"?>
<!DOCTYPE svg PUBLIC "-//W3C//DTD SVG 1.1//EN"
 "http://www.w3.org/Graphics/SVG/1.1/DTD/svg11.dtd">
<!-- Generated by graphviz version 2.38.0 (20140413.2041)
 -->
<!-- Title: True Pages: 1 -->
<svg width="90pt" height="171pt"
 viewBox="0.00 0.00 90.00 171.00" xmlns="http://www.w3.org/2000/svg" xmlns:xlink="http://www.w3.org/1999/xlink">
<g id="graph0" class="graph" transform="scale(1 1) rotate(0) translate(4 167)">
<title>True</title>
<polygon fill="white" stroke="none" points="-4,4 -4,-167 86,-167 86,4 -4,4"/>
<!-- Node1 -->
<g id="node1" class="node"><title>Node1</title>
<polygon fill="#bfbfbf" stroke="black" points="3,-0.5 3,-68.5 79,-68.5 79,-0.5 3,-0.5"/>
<text text-anchor="middle" x="41" y="-56.5" font-family="Helvetica,sans-Serif" font-size="10.00">True</text>
<polyline fill="none" stroke="black" points="3,-49.5 79,-49.5 "/>
<text text-anchor="middle" x="41" y="-37.5" font-family="Helvetica,sans-Serif" font-size="10.00"> </text>
<polyline fill="none" stroke="black" points="3,-30.5 79,-30.5 "/>
<text text-anchor="start" x="11" y="-18.5" font-family="Helvetica,sans-Serif" font-size="10.00">+ True()</text>
<text text-anchor="start" x="11" y="-7.5" font-family="Helvetica,sans-Serif" font-size="10.00">~ dispatch()</text>
</g>
<!-- Node2 -->
<g id="node2" class="node"><title>Node2</title>
<g id="a_node2"><a xlink:href="interfacecom_1_1tomoparts_1_1tomoBay_1_1model_1_1dataTypes_1_1conditionalStatement_1_1AbstractTruth.html" target="_top" xlink:title="This class is the abstract base for the True and False objects. ">
<polygon fill="white" stroke="black" points="0,-105.5 0,-162.5 82,-162.5 82,-105.5 0,-105.5"/>
<text text-anchor="middle" x="41" y="-150.5" font-family="Helvetica,sans-Serif" font-size="10.00">AbstractTruth</text>
<polyline fill="none" stroke="black" points="0,-143.5 82,-143.5 "/>
<text text-anchor="middle" x="41" y="-131.5" font-family="Helvetica,sans-Serif" font-size="10.00"> </text>
<polyline fill="none" stroke="black" points="0,-124.5 82,-124.5 "/>
<text text-anchor="start" x="8" y="-112.5" font-family="Helvetica,sans-Serif" font-size="10.00">+ dispatch()</text>
</a>
</g>
</g>
<!-- Node2&#45;&gt;Node1 -->
<g id="edge1" class="edge"><title>Node2&#45;&gt;Node1</title>
<path fill="none" stroke="midnightblue" d="M41,-95.0631C41,-86.3933 41,-77.2431 41,-68.7855"/>
<polygon fill="none" stroke="midnightblue" points="37.5001,-95.3212 41,-105.321 44.5001,-95.3212 37.5001,-95.3212"/>
</g>
</g>
</svg>
