<?xml version="1.0" encoding="UTF-8" standalone="no"?>
<!DOCTYPE svg PUBLIC "-//W3C//DTD SVG 1.1//EN"
 "http://www.w3.org/Graphics/SVG/1.1/DTD/svg11.dtd">
<!-- Generated by graphviz version 2.38.0 (20140413.2041)
 -->
<!-- Title: execute Pages: 1 -->
<svg width="1317pt" height="602pt"
 viewBox="0.00 0.00 1317.00 602.00" xmlns="http://www.w3.org/2000/svg" xmlns:xlink="http://www.w3.org/1999/xlink">
<g id="graph0" class="graph" transform="scale(1 1) rotate(0) translate(4 598)">
<title>execute</title>
<polygon fill="white" stroke="none" points="-4,4 -4,-598 1313,-598 1313,4 -4,4"/>
<!-- Node1 -->
<g id="node1" class="node"><title>Node1</title>
<polygon fill="#bfbfbf" stroke="black" points="0,-290 0,-309 55,-309 55,-290 0,-290"/>
<text text-anchor="middle" x="27.5" y="-297" font-family="Helvetica,sans-Serif" font-size="10.00">execute</text>
</g>
<!-- Node2 -->
<g id="node2" class="node"><title>Node2</title>
<g id="a_node2"><a xlink:href="classcom_1_1tomoparts_1_1tomoBay_1_1presenters_1_1presenterActions_1_1concreteActions_1_1MarkAsInvoiced.html#adb3dedf31dc2c7fc796f20406c235ccd" target="_top" xlink:title="performs the action specified ">
<polygon fill="white" stroke="black" points="97.5,-563.5 97.5,-593.5 348.5,-593.5 348.5,-563.5 97.5,-563.5"/>
<text text-anchor="start" x="105.5" y="-581.5" font-family="Helvetica,sans-Serif" font-size="10.00">com.tomoparts.tomoBay.presenters.presenter</text>
<text text-anchor="middle" x="223" y="-570.5" font-family="Helvetica,sans-Serif" font-size="10.00">Actions.concreteActions.MarkAsInvoiced.execute</text>
</a>
</g>
</g>
<!-- Node1&#45;&gt;Node2 -->
<g id="edge1" class="edge"><title>Node1&#45;&gt;Node2</title>
<path fill="none" stroke="midnightblue" d="M30.5713,-319.09C36.6794,-373.029 56.3941,-521.883 91,-554.5 94.5334,-557.83 98.3687,-560.776 102.432,-563.377"/>
<polygon fill="midnightblue" stroke="midnightblue" points="34.0446,-318.655 29.4739,-309.097 27.0864,-319.419 34.0446,-318.655"/>
</g>
<!-- Node3 -->
<g id="node3" class="node"><title>Node3</title>
<g id="a_node3"><a xlink:href="classcom_1_1tomoparts_1_1tomoBay_1_1presenters_1_1presenterActions_1_1concreteActions_1_1MarkAsUninvoiced.html#adb3dedf31dc2c7fc796f20406c235ccd" target="_top" xlink:title="performs the action specified ">
<polygon fill="white" stroke="black" points="91,-514.5 91,-544.5 355,-544.5 355,-514.5 91,-514.5"/>
<text text-anchor="start" x="99" y="-532.5" font-family="Helvetica,sans-Serif" font-size="10.00">com.tomoparts.tomoBay.presenters.presenter</text>
<text text-anchor="middle" x="223" y="-521.5" font-family="Helvetica,sans-Serif" font-size="10.00">Actions.concreteActions.MarkAsUninvoiced.execute</text>
</a>
</g>
</g>
<!-- Node1&#45;&gt;Node3 -->
<g id="edge2" class="edge"><title>Node1&#45;&gt;Node3</title>
<path fill="none" stroke="midnightblue" d="M28.1733,-319.194C28.638,-360.488 35.9504,-456.363 91,-505.5 94.7949,-508.887 98.905,-511.87 103.248,-514.492"/>
<polygon fill="midnightblue" stroke="midnightblue" points="31.6733,-319.085 28.1898,-309.079 24.6734,-319.073 31.6733,-319.085"/>
</g>
<!-- Node4 -->
<g id="node4" class="node"><title>Node4</title>
<g id="a_node4"><a xlink:href="classcom_1_1tomoparts_1_1tomoBay_1_1model_1_1services_1_1outOfHoursService_1_1OnRunning.html#ae4a4f4cadce2787c7e80005639fbd5d9" target="_top" xlink:title="this method defines what to do in the given derived state ">
<polygon fill="white" stroke="black" points="107.5,-465.5 107.5,-495.5 338.5,-495.5 338.5,-465.5 107.5,-465.5"/>
<text text-anchor="start" x="115.5" y="-483.5" font-family="Helvetica,sans-Serif" font-size="10.00">com.tomoparts.tomoBay.model.services.out</text>
<text text-anchor="middle" x="223" y="-472.5" font-family="Helvetica,sans-Serif" font-size="10.00">OfHoursService.OnRunning.execute</text>
</a>
</g>
</g>
<!-- Node1&#45;&gt;Node4 -->
<g id="edge3" class="edge"><title>Node1&#45;&gt;Node4</title>
<path fill="none" stroke="midnightblue" d="M30.3119,-319.086C34.5338,-352.767 48.1899,-421.414 91,-456.5 96.0072,-460.604 101.486,-464.097 107.274,-467.064"/>
<polygon fill="midnightblue" stroke="midnightblue" points="33.7862,-318.66 29.2132,-309.103 26.8282,-319.426 33.7862,-318.66"/>
</g>
<!-- Node6 -->
<g id="node6" class="node"><title>Node6</title>
<g id="a_node6"><a xlink:href="classcom_1_1tomoparts_1_1tomoBay_1_1model_1_1services_1_1individualItemRefreshService_1_1RePopulateEbayItem.html#a9b89b443a8826a0c43b0bf19215986fc" target="_top" xlink:title="update the database with the new brand and part number information gleaned from an ItemCall ...">
<polygon fill="white" stroke="black" points="93,-416.5 93,-446.5 353,-446.5 353,-416.5 93,-416.5"/>
<text text-anchor="start" x="101" y="-434.5" font-family="Helvetica,sans-Serif" font-size="10.00">com.tomoparts.tomoBay.model.services.individual</text>
<text text-anchor="middle" x="223" y="-423.5" font-family="Helvetica,sans-Serif" font-size="10.00">ItemRefreshService.RePopulateEbayItem.populate</text>
</a>
</g>
</g>
<!-- Node1&#45;&gt;Node6 -->
<g id="edge5" class="edge"><title>Node1&#45;&gt;Node6</title>
<path fill="none" stroke="midnightblue" d="M34.1133,-318.869C42.3403,-343.594 60.1452,-385.765 91,-407.5 95.8202,-410.895 100.98,-413.853 106.364,-416.425"/>
<polygon fill="midnightblue" stroke="midnightblue" points="37.4029,-317.661 31.0789,-309.161 30.7217,-319.75 37.4029,-317.661"/>
</g>
<!-- Node9 -->
<g id="node9" class="node"><title>Node9</title>
<g id="a_node9"><a xlink:href="classcom_1_1tomoparts_1_1tomoBay_1_1model_1_1services_1_1basicEbayUpdateService_1_1Buyers__Table.html#a6f7920f082037fcd84e9fb020730e4f6" target="_top" xlink:title="populates the Orders Table in the database with data grabbed from the ebay API ">
<polygon fill="white" stroke="black" points="103,-367.5 103,-397.5 343,-397.5 343,-367.5 103,-367.5"/>
<text text-anchor="start" x="111" y="-385.5" font-family="Helvetica,sans-Serif" font-size="10.00">com.tomoparts.tomoBay.model.services.basic</text>
<text text-anchor="middle" x="223" y="-374.5" font-family="Helvetica,sans-Serif" font-size="10.00">EbayUpdateService.Buyers_Table.populate</text>
</a>
</g>
</g>
<!-- Node1&#45;&gt;Node9 -->
<g id="edge8" class="edge"><title>Node1&#45;&gt;Node9</title>
<path fill="none" stroke="midnightblue" d="M42.5159,-317.015C54.0943,-330.248 71.7125,-347.743 91,-357.5 98.6444,-361.367 106.816,-364.638 115.202,-367.406"/>
<polygon fill="midnightblue" stroke="midnightblue" points="44.9386,-314.458 35.8225,-309.06 39.5822,-318.965 44.9386,-314.458"/>
</g>
<!-- Node13 -->
<g id="node13" class="node"><title>Node13</title>
<g id="a_node13"><a xlink:href="classcom_1_1tomoparts_1_1tomoBay_1_1model_1_1services_1_1basicEbayUpdateService_1_1Transactions__Table.html#a6f7920f082037fcd84e9fb020730e4f6" target="_top" xlink:title="populates the Orders Table in the database with data grabbed from the ebay API ">
<polygon fill="white" stroke="black" points="103,-307 103,-348 343,-348 343,-307 103,-307"/>
<text text-anchor="start" x="111" y="-336" font-family="Helvetica,sans-Serif" font-size="10.00">com.tomoparts.tomoBay.model.services.basic</text>
<text text-anchor="start" x="111" y="-325" font-family="Helvetica,sans-Serif" font-size="10.00">EbayUpdateService.Transactions</text>
<text text-anchor="middle" x="223" y="-314" font-family="Helvetica,sans-Serif" font-size="10.00">_Table.populate</text>
</a>
</g>
</g>
<!-- Node1&#45;&gt;Node13 -->
<g id="edge12" class="edge"><title>Node1&#45;&gt;Node13</title>
<path fill="none" stroke="midnightblue" d="M65.4327,-304.844C76.4755,-306.442 89.2295,-308.288 102.595,-310.222"/>
<polygon fill="midnightblue" stroke="midnightblue" points="65.8035,-301.362 55.4053,-303.393 64.801,-308.289 65.8035,-301.362"/>
</g>
<!-- Node14 -->
<g id="node14" class="node"><title>Node14</title>
<g id="a_node14"><a xlink:href="classcom_1_1tomoparts_1_1tomoBay_1_1model_1_1services_1_1basicEbayUpdateService_1_1ItemsAndPartsTable.html#a0a4965df2e2331547f6b8d56f962b70c" target="_top" xlink:title="populates the Orders Table in the database with data grabbed from the ebay API ">
<polygon fill="white" stroke="black" points="96,-257.5 96,-287.5 350,-287.5 350,-257.5 96,-257.5"/>
<text text-anchor="start" x="104" y="-275.5" font-family="Helvetica,sans-Serif" font-size="10.00">com.tomoparts.tomoBay.model.services.basic</text>
<text text-anchor="middle" x="223" y="-264.5" font-family="Helvetica,sans-Serif" font-size="10.00">EbayUpdateService.ItemsAndPartsTable.populate</text>
</a>
</g>
</g>
<!-- Node1&#45;&gt;Node14 -->
<g id="edge14" class="edge"><title>Node1&#45;&gt;Node14</title>
<path fill="none" stroke="midnightblue" d="M65.6432,-294.317C79.7913,-292.343 96.7256,-289.98 114.146,-287.549"/>
<polygon fill="midnightblue" stroke="midnightblue" points="64.8257,-290.897 55.4053,-295.746 65.7931,-297.83 64.8257,-290.897"/>
</g>
<!-- Node15 -->
<g id="node15" class="node"><title>Node15</title>
<g id="a_node15"><a xlink:href="classcom_1_1tomoparts_1_1tomoBay_1_1model_1_1services_1_1basicEbayUpdateService_1_1Orders__Table.html#abb8f83ca32eba7defe488f4d08be8c74" target="_top" xlink:title="populates the Orders Table in the database with data grabbed from the ebay API ">
<polygon fill="white" stroke="black" points="103,-208.5 103,-238.5 343,-238.5 343,-208.5 103,-208.5"/>
<text text-anchor="start" x="111" y="-226.5" font-family="Helvetica,sans-Serif" font-size="10.00">com.tomoparts.tomoBay.model.services.basic</text>
<text text-anchor="middle" x="223" y="-215.5" font-family="Helvetica,sans-Serif" font-size="10.00">EbayUpdateService.Orders_Table.populate</text>
</a>
</g>
</g>
<!-- Node1&#45;&gt;Node15 -->
<g id="edge16" class="edge"><title>Node1&#45;&gt;Node15</title>
<path fill="none" stroke="midnightblue" d="M44.4059,-282.241C56.1474,-270.588 73.1326,-255.859 91,-247.5 98.4348,-244.022 106.327,-241.047 114.406,-238.502"/>
<polygon fill="midnightblue" stroke="midnightblue" points="41.6195,-280.087 37.1684,-289.701 46.6437,-284.961 41.6195,-280.087"/>
</g>
<!-- Node16 -->
<g id="node16" class="node"><title>Node16</title>
<g id="a_node16"><a xlink:href="classcom_1_1tomoparts_1_1tomoBay_1_1model_1_1services_1_1reScanBuyerService_1_1DBActions.html#ada9d7427b2cf9579ce36b038793eadd0" target="_top" xlink:title="updates the buyer table in the database with the new buyer information. ">
<polygon fill="white" stroke="black" points="100,-159.5 100,-189.5 346,-189.5 346,-159.5 100,-159.5"/>
<text text-anchor="start" x="108" y="-177.5" font-family="Helvetica,sans-Serif" font-size="10.00">com.tomoparts.tomoBay.model.services.re</text>
<text text-anchor="middle" x="223" y="-166.5" font-family="Helvetica,sans-Serif" font-size="10.00">ScanBuyerService.DBActions.updateBuyerTable</text>
</a>
</g>
</g>
<!-- Node1&#45;&gt;Node16 -->
<g id="edge18" class="edge"><title>Node1&#45;&gt;Node16</title>
<path fill="none" stroke="midnightblue" d="M34.855,-280.351C43.6251,-257.081 61.7568,-218.46 91,-198.5 95.9652,-195.111 101.273,-192.163 106.803,-189.601"/>
<polygon fill="midnightblue" stroke="midnightblue" points="31.5334,-279.246 31.4779,-289.841 38.1282,-281.593 31.5334,-279.246"/>
</g>
<!-- Node20 -->
<g id="node20" class="node"><title>Node20</title>
<g id="a_node20"><a xlink:href="classcom_1_1tomoparts_1_1tomoBay_1_1presenters_1_1presenterActions_1_1concreteActions_1_1InvoiceOrders.html#a68025f3b1c18d39e769389078a0663a2" target="_top" xlink:title="update the database entry for a particular order to include the invoice number in the invoiced column...">
<polygon fill="white" stroke="black" points="97.5,-110.5 97.5,-140.5 348.5,-140.5 348.5,-110.5 97.5,-110.5"/>
<text text-anchor="start" x="105.5" y="-128.5" font-family="Helvetica,sans-Serif" font-size="10.00">com.tomoparts.tomoBay.presenters.presenter</text>
<text text-anchor="middle" x="223" y="-117.5" font-family="Helvetica,sans-Serif" font-size="10.00">Actions.concreteActions.InvoiceOrders.updateDB</text>
</a>
</g>
</g>
<!-- Node1&#45;&gt;Node20 -->
<g id="edge22" class="edge"><title>Node1&#45;&gt;Node20</title>
<path fill="none" stroke="midnightblue" d="M30.7266,-279.878C35.5193,-247.359 49.9414,-182.608 91,-149.5 95.1398,-146.162 99.5931,-143.23 104.27,-140.658"/>
<polygon fill="midnightblue" stroke="midnightblue" points="27.2383,-279.56 29.4051,-289.931 34.1786,-280.473 27.2383,-279.56"/>
</g>
<!-- Node22 -->
<g id="node22" class="node"><title>Node22</title>
<g id="a_node22"><a xlink:href="classcom_1_1tomoparts_1_1tomoBay_1_1model_1_1services_1_1reScanErrorsService_1_1ReScanErrorsDBActions.html#a686181ed1b6d7f86e1b05653dc98f37e" target="_top" xlink:title="updates the database with corrected information, as provided in the ItemSpecifics passed in as an arg...">
<polygon fill="white" stroke="black" points="94,-50 94,-91 352,-91 352,-50 94,-50"/>
<text text-anchor="start" x="102" y="-79" font-family="Helvetica,sans-Serif" font-size="10.00">com.tomoparts.tomoBay.model.services.re</text>
<text text-anchor="start" x="102" y="-68" font-family="Helvetica,sans-Serif" font-size="10.00">ScanErrorsService.ReScanErrorsDBActions.update</text>
<text text-anchor="middle" x="223" y="-57" font-family="Helvetica,sans-Serif" font-size="10.00">DBwithCorrectedInfo</text>
</a>
</g>
</g>
<!-- Node1&#45;&gt;Node22 -->
<g id="edge24" class="edge"><title>Node1&#45;&gt;Node22</title>
<path fill="none" stroke="midnightblue" d="M28.5966,-279.83C29.9158,-239.822 38.8372,-148.687 91,-100.5 94.7704,-97.0169 98.8602,-93.911 103.187,-91.143"/>
<polygon fill="midnightblue" stroke="midnightblue" points="25.0963,-279.819 28.3952,-289.887 32.0948,-279.959 25.0963,-279.819"/>
</g>
<!-- Node25 -->
<g id="node25" class="node"><title>Node25</title>
<g id="a_node25"><a xlink:href="classcom_1_1tomoparts_1_1tomoBay_1_1model_1_1services_1_1checkErrorsService_1_1OnRunning.html#a31cd6cc646f62a47db7edc3f4f8d2da5" target="_top" xlink:title="this method updates the notes field in the database to reflect the error that has been found ...">
<polygon fill="white" stroke="black" points="101.5,-0.5 101.5,-30.5 344.5,-30.5 344.5,-0.5 101.5,-0.5"/>
<text text-anchor="start" x="109.5" y="-18.5" font-family="Helvetica,sans-Serif" font-size="10.00">com.tomoparts.tomoBay.model.services.check</text>
<text text-anchor="middle" x="223" y="-7.5" font-family="Helvetica,sans-Serif" font-size="10.00">ErrorsService.OnRunning.updateItemNote</text>
</a>
</g>
</g>
<!-- Node1&#45;&gt;Node25 -->
<g id="edge27" class="edge"><title>Node1&#45;&gt;Node25</title>
<path fill="none" stroke="midnightblue" d="M30.5374,-279.619C36.5572,-224.877 56.0635,-73.7914 91,-40.5 94.939,-36.7464 99.2588,-33.4713 103.856,-30.6185"/>
<polygon fill="midnightblue" stroke="midnightblue" points="27.036,-279.447 29.4568,-289.761 33.9966,-280.188 27.036,-279.447"/>
</g>
<!-- Node5 -->
<g id="node5" class="node"><title>Node5</title>
<g id="a_node5"><a xlink:href="classcom_1_1tomoparts_1_1tomoBay_1_1model_1_1services_1_1outOfHoursService_1_1OutOfHoursService.html#ae3b0a282dcba7f2d675ca89b1dd48487" target="_top" xlink:title="com.tomoparts.tomoBay.model.services.out\lOfHoursService.OutOfHoursService.onRunning">
<polygon fill="white" stroke="black" points="401.5,-465.5 401.5,-495.5 640.5,-495.5 640.5,-465.5 401.5,-465.5"/>
<text text-anchor="start" x="409.5" y="-483.5" font-family="Helvetica,sans-Serif" font-size="10.00">com.tomoparts.tomoBay.model.services.out</text>
<text text-anchor="middle" x="521" y="-472.5" font-family="Helvetica,sans-Serif" font-size="10.00">OfHoursService.OutOfHoursService.onRunning</text>
</a>
</g>
</g>
<!-- Node4&#45;&gt;Node5 -->
<g id="edge4" class="edge"><title>Node4&#45;&gt;Node5</title>
<path fill="none" stroke="midnightblue" d="M349.008,-480.5C366.331,-480.5 384.085,-480.5 401.289,-480.5"/>
<polygon fill="midnightblue" stroke="midnightblue" points="348.865,-477 338.865,-480.5 348.865,-484 348.865,-477"/>
</g>
<!-- Node7 -->
<g id="node7" class="node"><title>Node7</title>
<g id="a_node7"><a xlink:href="classcom_1_1tomoparts_1_1tomoBay_1_1model_1_1services_1_1individualItemRefreshService_1_1OnRunning.html#ae4a4f4cadce2787c7e80005639fbd5d9" target="_top" xlink:title="this method defines what to do in the given derived state ">
<polygon fill="white" stroke="black" points="391,-416.5 391,-446.5 651,-446.5 651,-416.5 391,-416.5"/>
<text text-anchor="start" x="399" y="-434.5" font-family="Helvetica,sans-Serif" font-size="10.00">com.tomoparts.tomoBay.model.services.individual</text>
<text text-anchor="middle" x="521" y="-423.5" font-family="Helvetica,sans-Serif" font-size="10.00">ItemRefreshService.OnRunning.execute</text>
</a>
</g>
</g>
<!-- Node6&#45;&gt;Node7 -->
<g id="edge6" class="edge"><title>Node6&#45;&gt;Node7</title>
<path fill="none" stroke="midnightblue" d="M363.641,-431.5C372.734,-431.5 381.87,-431.5 390.91,-431.5"/>
<polygon fill="midnightblue" stroke="midnightblue" points="363.399,-428 353.399,-431.5 363.399,-435 363.399,-428"/>
</g>
<!-- Node8 -->
<g id="node8" class="node"><title>Node8</title>
<g id="a_node8"><a xlink:href="classcom_1_1tomoparts_1_1tomoBay_1_1model_1_1services_1_1individualItemRefreshService_1_1IndividualItemRefreshService.html#ae3b0a282dcba7f2d675ca89b1dd48487" target="_top" xlink:title="com.tomoparts.tomoBay.model.services.individual\lItemRefreshService.IndividualItemRefreshService.onRunning">
<polygon fill="white" stroke="black" points="687,-416.5 687,-446.5 990,-446.5 990,-416.5 687,-416.5"/>
<text text-anchor="start" x="695" y="-434.5" font-family="Helvetica,sans-Serif" font-size="10.00">com.tomoparts.tomoBay.model.services.individual</text>
<text text-anchor="middle" x="838.5" y="-423.5" font-family="Helvetica,sans-Serif" font-size="10.00">ItemRefreshService.IndividualItemRefreshService.onRunning</text>
</a>
</g>
</g>
<!-- Node7&#45;&gt;Node8 -->
<g id="edge7" class="edge"><title>Node7&#45;&gt;Node8</title>
<path fill="none" stroke="midnightblue" d="M661.467,-431.5C669.888,-431.5 678.38,-431.5 686.845,-431.5"/>
<polygon fill="midnightblue" stroke="midnightblue" points="661.236,-428 651.236,-431.5 661.236,-435 661.236,-428"/>
</g>
<!-- Node10 -->
<g id="node10" class="node"><title>Node10</title>
<g id="a_node10"><a xlink:href="classcom_1_1tomoparts_1_1tomoBay_1_1model_1_1services_1_1basicEbayUpdateService_1_1OnRunning.html#ae4a4f4cadce2787c7e80005639fbd5d9" target="_top" xlink:title="this method defines what to do in the given derived state ">
<polygon fill="white" stroke="black" points="401,-285.5 401,-315.5 641,-315.5 641,-285.5 401,-285.5"/>
<text text-anchor="start" x="409" y="-303.5" font-family="Helvetica,sans-Serif" font-size="10.00">com.tomoparts.tomoBay.model.services.basic</text>
<text text-anchor="middle" x="521" y="-292.5" font-family="Helvetica,sans-Serif" font-size="10.00">EbayUpdateService.OnRunning.execute</text>
</a>
</g>
</g>
<!-- Node9&#45;&gt;Node10 -->
<g id="edge9" class="edge"><title>Node9&#45;&gt;Node10</title>
<path fill="none" stroke="midnightblue" d="M321.95,-365.412C333.149,-362.984 344.359,-360.338 355,-357.5 399.072,-345.748 448.351,-328.114 481.484,-315.575"/>
<polygon fill="midnightblue" stroke="midnightblue" points="321.185,-361.996 312.125,-367.489 322.633,-368.845 321.185,-361.996"/>
</g>
<!-- Node11 -->
<g id="node11" class="node"><title>Node11</title>
<g id="a_node11"><a xlink:href="classcom_1_1tomoparts_1_1tomoBay_1_1model_1_1services_1_1basicEbayUpdateService_1_1BasicEbayUpdateService.html#ae3b0a282dcba7f2d675ca89b1dd48487" target="_top" xlink:title="com.tomoparts.tomoBay.model.services.basic\lEbayUpdateService.BasicEbayUpdateService.onRunning">
<polygon fill="white" stroke="black" points="695.5,-285.5 695.5,-315.5 981.5,-315.5 981.5,-285.5 695.5,-285.5"/>
<text text-anchor="start" x="703.5" y="-303.5" font-family="Helvetica,sans-Serif" font-size="10.00">com.tomoparts.tomoBay.model.services.basic</text>
<text text-anchor="middle" x="838.5" y="-292.5" font-family="Helvetica,sans-Serif" font-size="10.00">EbayUpdateService.BasicEbayUpdateService.onRunning</text>
</a>
</g>
</g>
<!-- Node10&#45;&gt;Node11 -->
<g id="edge10" class="edge"><title>Node10&#45;&gt;Node11</title>
<path fill="none" stroke="midnightblue" d="M651.675,-300.5C666.042,-300.5 680.731,-300.5 695.243,-300.5"/>
<polygon fill="midnightblue" stroke="midnightblue" points="651.277,-297 641.277,-300.5 651.277,-304 651.277,-297"/>
</g>
<!-- Node12 -->
<g id="node12" class="node"><title>Node12</title>
<g id="a_node12"><a xlink:href="classcom_1_1tomoparts_1_1tomoBay_1_1model_1_1services_1_1basicEbayUpdateService_1_1BasicEbayUpdateService.html#afd85cd6baa355d54ab15c19c16c21df9" target="_top" xlink:title="com.tomoparts.tomoBay.model.services.basic\lEbayUpdateService.BasicEbayUpdateService.onPaused">
<polygon fill="white" stroke="black" points="1026,-285.5 1026,-315.5 1309,-315.5 1309,-285.5 1026,-285.5"/>
<text text-anchor="start" x="1034" y="-303.5" font-family="Helvetica,sans-Serif" font-size="10.00">com.tomoparts.tomoBay.model.services.basic</text>
<text text-anchor="middle" x="1167.5" y="-292.5" font-family="Helvetica,sans-Serif" font-size="10.00">EbayUpdateService.BasicEbayUpdateService.onPaused</text>
</a>
</g>
</g>
<!-- Node11&#45;&gt;Node12 -->
<g id="edge11" class="edge"><title>Node11&#45;&gt;Node12</title>
<path fill="none" stroke="midnightblue" d="M991.548,-300.5C1003.01,-300.5 1014.55,-300.5 1025.93,-300.5"/>
<polygon fill="midnightblue" stroke="midnightblue" points="991.5,-297 981.5,-300.5 991.5,-304 991.5,-297"/>
</g>
<!-- Node13&#45;&gt;Node10 -->
<g id="edge13" class="edge"><title>Node13&#45;&gt;Node10</title>
<path fill="none" stroke="midnightblue" d="M353.39,-315.698C369.099,-314.265 385.092,-312.806 400.647,-311.387"/>
<polygon fill="midnightblue" stroke="midnightblue" points="352.756,-312.241 343.115,-316.635 353.392,-319.212 352.756,-312.241"/>
</g>
<!-- Node14&#45;&gt;Node10 -->
<g id="edge15" class="edge"><title>Node14&#45;&gt;Node10</title>
<path fill="none" stroke="midnightblue" d="M360.578,-285.42C373.943,-286.684 387.433,-287.96 400.609,-289.206"/>
<polygon fill="midnightblue" stroke="midnightblue" points="360.674,-281.913 350.389,-284.456 360.015,-288.882 360.674,-281.913"/>
</g>
<!-- Node15&#45;&gt;Node10 -->
<g id="edge17" class="edge"><title>Node15&#45;&gt;Node10</title>
<path fill="none" stroke="midnightblue" d="M324.453,-240.527C334.81,-242.693 345.143,-245.025 355,-247.5 397.605,-258.197 445.281,-273.932 478.386,-285.478"/>
<polygon fill="midnightblue" stroke="midnightblue" points="325.03,-237.072 314.532,-238.502 323.63,-243.931 325.03,-237.072"/>
</g>
<!-- Node17 -->
<g id="node17" class="node"><title>Node17</title>
<g id="a_node17"><a xlink:href="classcom_1_1tomoparts_1_1tomoBay_1_1model_1_1services_1_1reScanBuyerService_1_1OnRunning.html#ae4a4f4cadce2787c7e80005639fbd5d9" target="_top" xlink:title="this method defines what to do in the given derived state ">
<polygon fill="white" stroke="black" points="408.5,-159.5 408.5,-189.5 633.5,-189.5 633.5,-159.5 408.5,-159.5"/>
<text text-anchor="start" x="416.5" y="-177.5" font-family="Helvetica,sans-Serif" font-size="10.00">com.tomoparts.tomoBay.model.services.re</text>
<text text-anchor="middle" x="521" y="-166.5" font-family="Helvetica,sans-Serif" font-size="10.00">ScanBuyerService.OnRunning.execute</text>
</a>
</g>
</g>
<!-- Node16&#45;&gt;Node17 -->
<g id="edge19" class="edge"><title>Node16&#45;&gt;Node17</title>
<path fill="none" stroke="midnightblue" d="M356.263,-174.5C373.587,-174.5 391.202,-174.5 408.145,-174.5"/>
<polygon fill="midnightblue" stroke="midnightblue" points="356.103,-171 346.103,-174.5 356.103,-178 356.103,-171"/>
</g>
<!-- Node18 -->
<g id="node18" class="node"><title>Node18</title>
<g id="a_node18"><a xlink:href="classcom_1_1tomoparts_1_1tomoBay_1_1model_1_1services_1_1reScanBuyerService_1_1ReScanBuyerService.html#ae3b0a282dcba7f2d675ca89b1dd48487" target="_top" xlink:title="com.tomoparts.tomoBay.model.services.re\lScanBuyerService.ReScanBuyerService.onRunning">
<polygon fill="white" stroke="black" points="709,-159.5 709,-189.5 968,-189.5 968,-159.5 709,-159.5"/>
<text text-anchor="start" x="717" y="-177.5" font-family="Helvetica,sans-Serif" font-size="10.00">com.tomoparts.tomoBay.model.services.re</text>
<text text-anchor="middle" x="838.5" y="-166.5" font-family="Helvetica,sans-Serif" font-size="10.00">ScanBuyerService.ReScanBuyerService.onRunning</text>
</a>
</g>
</g>
<!-- Node17&#45;&gt;Node18 -->
<g id="edge20" class="edge"><title>Node17&#45;&gt;Node18</title>
<path fill="none" stroke="midnightblue" d="M643.721,-174.5C665.021,-174.5 687.247,-174.5 708.731,-174.5"/>
<polygon fill="midnightblue" stroke="midnightblue" points="643.678,-171 633.677,-174.5 643.677,-178 643.678,-171"/>
</g>
<!-- Node19 -->
<g id="node19" class="node"><title>Node19</title>
<g id="a_node19"><a xlink:href="classcom_1_1tomoparts_1_1tomoBay_1_1model_1_1services_1_1reScanBuyerService_1_1ReScanBuyerService.html#afd85cd6baa355d54ab15c19c16c21df9" target="_top" xlink:title="com.tomoparts.tomoBay.model.services.re\lScanBuyerService.ReScanBuyerService.onPaused">
<polygon fill="white" stroke="black" points="1039.5,-159.5 1039.5,-189.5 1295.5,-189.5 1295.5,-159.5 1039.5,-159.5"/>
<text text-anchor="start" x="1047.5" y="-177.5" font-family="Helvetica,sans-Serif" font-size="10.00">com.tomoparts.tomoBay.model.services.re</text>
<text text-anchor="middle" x="1167.5" y="-166.5" font-family="Helvetica,sans-Serif" font-size="10.00">ScanBuyerService.ReScanBuyerService.onPaused</text>
</a>
</g>
</g>
<!-- Node18&#45;&gt;Node19 -->
<g id="edge21" class="edge"><title>Node18&#45;&gt;Node19</title>
<path fill="none" stroke="midnightblue" d="M978.478,-174.5C998.716,-174.5 1019.47,-174.5 1039.45,-174.5"/>
<polygon fill="midnightblue" stroke="midnightblue" points="978.27,-171 968.27,-174.5 978.27,-178 978.27,-171"/>
</g>
<!-- Node21 -->
<g id="node21" class="node"><title>Node21</title>
<g id="a_node21"><a xlink:href="classcom_1_1tomoparts_1_1tomoBay_1_1presenters_1_1presenterActions_1_1concreteActions_1_1InvoiceOrders.html#adb3dedf31dc2c7fc796f20406c235ccd" target="_top" xlink:title="performs the action specified ">
<polygon fill="white" stroke="black" points="400,-110.5 400,-140.5 642,-140.5 642,-110.5 400,-110.5"/>
<text text-anchor="start" x="408" y="-128.5" font-family="Helvetica,sans-Serif" font-size="10.00">com.tomoparts.tomoBay.presenters.presenter</text>
<text text-anchor="middle" x="521" y="-117.5" font-family="Helvetica,sans-Serif" font-size="10.00">Actions.concreteActions.InvoiceOrders.execute</text>
</a>
</g>
</g>
<!-- Node20&#45;&gt;Node21 -->
<g id="edge23" class="edge"><title>Node20&#45;&gt;Node21</title>
<path fill="none" stroke="midnightblue" d="M359.019,-125.5C372.595,-125.5 386.319,-125.5 399.727,-125.5"/>
<polygon fill="midnightblue" stroke="midnightblue" points="358.673,-122 348.673,-125.5 358.673,-129 358.673,-122"/>
</g>
<!-- Node23 -->
<g id="node23" class="node"><title>Node23</title>
<g id="a_node23"><a xlink:href="classcom_1_1tomoparts_1_1tomoBay_1_1model_1_1services_1_1reScanErrorsService_1_1OnRunning.html#ae4a4f4cadce2787c7e80005639fbd5d9" target="_top" xlink:title="this method defines what to do in the given derived state ">
<polygon fill="white" stroke="black" points="408.5,-55.5 408.5,-85.5 633.5,-85.5 633.5,-55.5 408.5,-55.5"/>
<text text-anchor="start" x="416.5" y="-73.5" font-family="Helvetica,sans-Serif" font-size="10.00">com.tomoparts.tomoBay.model.services.re</text>
<text text-anchor="middle" x="521" y="-62.5" font-family="Helvetica,sans-Serif" font-size="10.00">ScanErrorsService.OnRunning.execute</text>
</a>
</g>
</g>
<!-- Node22&#45;&gt;Node23 -->
<g id="edge25" class="edge"><title>Node22&#45;&gt;Node23</title>
<path fill="none" stroke="midnightblue" d="M362.25,-70.5C377.726,-70.5 393.344,-70.5 408.425,-70.5"/>
<polygon fill="midnightblue" stroke="midnightblue" points="362.108,-67.0001 352.108,-70.5 362.108,-74.0001 362.108,-67.0001"/>
</g>
<!-- Node24 -->
<g id="node24" class="node"><title>Node24</title>
<g id="a_node24"><a xlink:href="classcom_1_1tomoparts_1_1tomoBay_1_1model_1_1services_1_1reScanErrorsService_1_1ReScanErrorsService.html#ae3b0a282dcba7f2d675ca89b1dd48487" target="_top" xlink:title="com.tomoparts.tomoBay.model.services.re\lScanErrorsService.ReScanErrorsService.onRunning">
<polygon fill="white" stroke="black" points="708.5,-55.5 708.5,-85.5 968.5,-85.5 968.5,-55.5 708.5,-55.5"/>
<text text-anchor="start" x="716.5" y="-73.5" font-family="Helvetica,sans-Serif" font-size="10.00">com.tomoparts.tomoBay.model.services.re</text>
<text text-anchor="middle" x="838.5" y="-62.5" font-family="Helvetica,sans-Serif" font-size="10.00">ScanErrorsService.ReScanErrorsService.onRunning</text>
</a>
</g>
</g>
<!-- Node23&#45;&gt;Node24 -->
<g id="edge26" class="edge"><title>Node23&#45;&gt;Node24</title>
<path fill="none" stroke="midnightblue" d="M643.684,-70.5C664.906,-70.5 687.047,-70.5 708.458,-70.5"/>
<polygon fill="midnightblue" stroke="midnightblue" points="643.678,-67.0001 633.677,-70.5 643.677,-74.0001 643.678,-67.0001"/>
</g>
<!-- Node26 -->
<g id="node26" class="node"><title>Node26</title>
<g id="a_node26"><a xlink:href="classcom_1_1tomoparts_1_1tomoBay_1_1model_1_1services_1_1checkErrorsService_1_1OnRunning.html#ae4a4f4cadce2787c7e80005639fbd5d9" target="_top" xlink:title="this method defines what to do in the given derived state ">
<polygon fill="white" stroke="black" points="399.5,-0.5 399.5,-30.5 642.5,-30.5 642.5,-0.5 399.5,-0.5"/>
<text text-anchor="start" x="407.5" y="-18.5" font-family="Helvetica,sans-Serif" font-size="10.00">com.tomoparts.tomoBay.model.services.check</text>
<text text-anchor="middle" x="521" y="-7.5" font-family="Helvetica,sans-Serif" font-size="10.00">ErrorsService.OnRunning.execute</text>
</a>
</g>
</g>
<!-- Node25&#45;&gt;Node26 -->
<g id="edge28" class="edge"><title>Node25&#45;&gt;Node26</title>
<path fill="none" stroke="midnightblue" d="M354.943,-15.5C369.626,-15.5 384.537,-15.5 399.085,-15.5"/>
<polygon fill="midnightblue" stroke="midnightblue" points="354.821,-12.0001 344.821,-15.5 354.821,-19.0001 354.821,-12.0001"/>
</g>
<!-- Node27 -->
<g id="node27" class="node"><title>Node27</title>
<g id="a_node27"><a xlink:href="classcom_1_1tomoparts_1_1tomoBay_1_1model_1_1services_1_1checkErrorsService_1_1CheckErrorsService.html#ae3b0a282dcba7f2d675ca89b1dd48487" target="_top" xlink:title="com.tomoparts.tomoBay.model.services.check\lErrorsService.CheckErrorsService.onRunning">
<polygon fill="white" stroke="black" points="717,-0.5 717,-30.5 960,-30.5 960,-0.5 717,-0.5"/>
<text text-anchor="start" x="725" y="-18.5" font-family="Helvetica,sans-Serif" font-size="10.00">com.tomoparts.tomoBay.model.services.check</text>
<text text-anchor="middle" x="838.5" y="-7.5" font-family="Helvetica,sans-Serif" font-size="10.00">ErrorsService.CheckErrorsService.onRunning</text>
</a>
</g>
</g>
<!-- Node26&#45;&gt;Node27 -->
<g id="edge29" class="edge"><title>Node26&#45;&gt;Node27</title>
<path fill="none" stroke="midnightblue" d="M652.68,-15.5C673.96,-15.5 695.917,-15.5 716.939,-15.5"/>
<polygon fill="midnightblue" stroke="midnightblue" points="652.628,-12.0001 642.627,-15.5 652.627,-19.0001 652.628,-12.0001"/>
</g>
</g>
</svg>
