<?xml version="1.0" encoding="UTF-8" standalone="no"?>
<!DOCTYPE svg PUBLIC "-//W3C//DTD SVG 1.1//EN"
 "http://www.w3.org/Graphics/SVG/1.1/DTD/svg11.dtd">
<!-- Generated by graphviz version 2.38.0 (20140413.2041)
 -->
<!-- Title: AbstractLineItem Pages: 1 -->
<svg width="458pt" height="292pt"
 viewBox="0.00 0.00 457.50 292.00" xmlns="http://www.w3.org/2000/svg" xmlns:xlink="http://www.w3.org/1999/xlink">
<g id="graph0" class="graph" transform="scale(1 1) rotate(0) translate(4 288)">
<title>AbstractLineItem</title>
<polygon fill="white" stroke="none" points="-4,4 -4,-288 453.5,-288 453.5,4 -4,4"/>
<!-- Node1 -->
<g id="node1" class="node"><title>Node1</title>
<polygon fill="#bfbfbf" stroke="black" points="131.5,-138.5 131.5,-283.5 252.5,-283.5 252.5,-138.5 131.5,-138.5"/>
<text text-anchor="middle" x="192" y="-271.5" font-family="Helvetica,sans-Serif" font-size="10.00">AbstractLineItem</text>
<polyline fill="none" stroke="black" points="131.5,-264.5 252.5,-264.5 "/>
<text text-anchor="start" x="139.5" y="-252.5" font-family="Helvetica,sans-Serif" font-size="10.00"># partIndex</text>
<text text-anchor="start" x="139.5" y="-241.5" font-family="Helvetica,sans-Serif" font-size="10.00"># transactionIndex_M</text>
<text text-anchor="start" x="139.5" y="-230.5" font-family="Helvetica,sans-Serif" font-size="10.00">&#45; price_M</text>
<polyline fill="none" stroke="black" points="131.5,-223.5 252.5,-223.5 "/>
<text text-anchor="start" x="139.5" y="-211.5" font-family="Helvetica,sans-Serif" font-size="10.00">+ AbstractLineItem()</text>
<text text-anchor="start" x="139.5" y="-200.5" font-family="Helvetica,sans-Serif" font-size="10.00">+ adjustPrice()</text>
<text text-anchor="start" x="139.5" y="-189.5" font-family="Helvetica,sans-Serif" font-size="10.00">+ quantity()</text>
<text text-anchor="start" x="139.5" y="-178.5" font-family="Helvetica,sans-Serif" font-size="10.00">+ description()</text>
<text text-anchor="start" x="139.5" y="-167.5" font-family="Helvetica,sans-Serif" font-size="10.00">+ partNo()</text>
<text text-anchor="start" x="139.5" y="-156.5" font-family="Helvetica,sans-Serif" font-size="10.00">+ price()</text>
<text text-anchor="start" x="139.5" y="-145.5" font-family="Helvetica,sans-Serif" font-size="10.00"># unitPrice()</text>
</g>
<!-- Node2 -->
<g id="node2" class="node"><title>Node2</title>
<g id="a_node2"><a xlink:href="classcom_1_1tomoparts_1_1tomoBay_1_1model_1_1dataTypes_1_1financial_1_1SalesOrderDayBook_1_1concreteLineTypes_1_1GSPInvoiceLine.html" target="_top" xlink:title="{GSPInvoiceLine\n||+ GSPInvoiceLine()\l# unitPrice()\l}">
<polygon fill="white" stroke="black" points="0,-17 0,-85 108,-85 108,-17 0,-17"/>
<text text-anchor="middle" x="54" y="-73" font-family="Helvetica,sans-Serif" font-size="10.00">GSPInvoiceLine</text>
<polyline fill="none" stroke="black" points="0,-66 108,-66 "/>
<text text-anchor="middle" x="54" y="-54" font-family="Helvetica,sans-Serif" font-size="10.00"> </text>
<polyline fill="none" stroke="black" points="0,-47 108,-47 "/>
<text text-anchor="start" x="8" y="-35" font-family="Helvetica,sans-Serif" font-size="10.00">+ GSPInvoiceLine()</text>
<text text-anchor="start" x="8" y="-24" font-family="Helvetica,sans-Serif" font-size="10.00"># unitPrice()</text>
</a>
</g>
</g>
<!-- Node1&#45;&gt;Node2 -->
<g id="edge1" class="edge"><title>Node1&#45;&gt;Node2</title>
<path fill="none" stroke="midnightblue" d="M124.75,-133.004C110.086,-116.214 95.316,-99.3039 83.0924,-85.3086"/>
<polygon fill="none" stroke="midnightblue" points="122.257,-135.47 131.471,-140.699 127.529,-130.865 122.257,-135.47"/>
</g>
<!-- Node3 -->
<g id="node3" class="node"><title>Node3</title>
<g id="a_node3"><a xlink:href="classcom_1_1tomoparts_1_1tomoBay_1_1model_1_1dataTypes_1_1financial_1_1SalesOrderDayBook_1_1conc5f457e0fcc0fab8be8291cad74a922e7.html" target="_top" xlink:title="{StandardInvoiceLine\n||+ StandardInvoiceLine()\l# unitPrice()\l}">
<polygon fill="white" stroke="black" points="126,-17 126,-85 258,-85 258,-17 126,-17"/>
<text text-anchor="middle" x="192" y="-73" font-family="Helvetica,sans-Serif" font-size="10.00">StandardInvoiceLine</text>
<polyline fill="none" stroke="black" points="126,-66 258,-66 "/>
<text text-anchor="middle" x="192" y="-54" font-family="Helvetica,sans-Serif" font-size="10.00"> </text>
<polyline fill="none" stroke="black" points="126,-47 258,-47 "/>
<text text-anchor="start" x="134" y="-35" font-family="Helvetica,sans-Serif" font-size="10.00">+ StandardInvoiceLine()</text>
<text text-anchor="start" x="134" y="-24" font-family="Helvetica,sans-Serif" font-size="10.00"># unitPrice()</text>
</a>
</g>
</g>
<!-- Node1&#45;&gt;Node3 -->
<g id="edge2" class="edge"><title>Node1&#45;&gt;Node3</title>
<path fill="none" stroke="midnightblue" d="M192,-128.332C192,-113.009 192,-97.8196 192,-85.0739"/>
<polygon fill="none" stroke="midnightblue" points="188.5,-128.397 192,-138.397 195.5,-128.397 188.5,-128.397"/>
</g>
<!-- Node4 -->
<g id="node4" class="node"><title>Node4</title>
<g id="a_node4"><a xlink:href="classcom_1_1tomoparts_1_1tomoBay_1_1model_1_1dataTypes_1_1financial_1_1SalesOrderDayBook_1_1conc0f525c284f2a5ac946be158d6b0f9d09.html" target="_top" xlink:title="{StandardInvoiceShippingLine\n||+ StandardInvoiceShippingLine()\l+ quantity()\l+ description()\l+ partNo()\l# unitPrice()\l}">
<polygon fill="white" stroke="black" points="276.5,-0.5 276.5,-101.5 449.5,-101.5 449.5,-0.5 276.5,-0.5"/>
<text text-anchor="middle" x="363" y="-89.5" font-family="Helvetica,sans-Serif" font-size="10.00">StandardInvoiceShippingLine</text>
<polyline fill="none" stroke="black" points="276.5,-82.5 449.5,-82.5 "/>
<text text-anchor="middle" x="363" y="-70.5" font-family="Helvetica,sans-Serif" font-size="10.00"> </text>
<polyline fill="none" stroke="black" points="276.5,-63.5 449.5,-63.5 "/>
<text text-anchor="start" x="284.5" y="-51.5" font-family="Helvetica,sans-Serif" font-size="10.00">+ StandardInvoiceShippingLine()</text>
<text text-anchor="start" x="284.5" y="-40.5" font-family="Helvetica,sans-Serif" font-size="10.00">+ quantity()</text>
<text text-anchor="start" x="284.5" y="-29.5" font-family="Helvetica,sans-Serif" font-size="10.00">+ description()</text>
<text text-anchor="start" x="284.5" y="-18.5" font-family="Helvetica,sans-Serif" font-size="10.00">+ partNo()</text>
<text text-anchor="start" x="284.5" y="-7.5" font-family="Helvetica,sans-Serif" font-size="10.00"># unitPrice()</text>
</a>
</g>
</g>
<!-- Node1&#45;&gt;Node4 -->
<g id="edge3" class="edge"><title>Node1&#45;&gt;Node4</title>
<path fill="none" stroke="midnightblue" d="M260.193,-146.991C276.504,-131.92 293.692,-116.039 309.247,-101.667"/>
<polygon fill="none" stroke="midnightblue" points="257.739,-144.493 252.77,-153.85 262.49,-149.635 257.739,-144.493"/>
</g>
</g>
</svg>
