<?xml version="1.0" encoding="UTF-8" standalone="no"?>
<!DOCTYPE svg PUBLIC "-//W3C//DTD SVG 1.1//EN"
 "http://www.w3.org/Graphics/SVG/1.1/DTD/svg11.dtd">
<!-- Generated by graphviz version 2.38.0 (20140413.2041)
 -->
<!-- Title: execute Pages: 1 -->
<svg width="595pt" height="127pt"
 viewBox="0.00 0.00 595.00 127.00" xmlns="http://www.w3.org/2000/svg" xmlns:xlink="http://www.w3.org/1999/xlink">
<g id="graph0" class="graph" transform="scale(1 1) rotate(0) translate(4 123)">
<title>execute</title>
<polygon fill="white" stroke="none" points="-4,4 -4,-123 591,-123 591,4 -4,4"/>
<!-- Node1 -->
<g id="node1" class="node"><title>Node1</title>
<polygon fill="#bfbfbf" stroke="black" points="0,-50 0,-69 55,-69 55,-50 0,-50"/>
<text text-anchor="middle" x="27.5" y="-57" font-family="Helvetica,sans-Serif" font-size="10.00">execute</text>
</g>
<!-- Node2 -->
<g id="node2" class="node"><title>Node2</title>
<g id="a_node2"><a xlink:href="classcom_1_1tomoparts_1_1tomoBay_1_1model_1_1sql_1_1framework_1_1queryTypes_1_1select_1_1AbstractSelectQuery.html#acecbbfccf76297fa31b5aed8da0edb33" target="_top" xlink:title="the results from a select query come in the form of a ResultSet object, this needs to be closed befor...">
<polygon fill="white" stroke="black" points="91,-88.5 91,-118.5 361,-118.5 361,-88.5 91,-88.5"/>
<text text-anchor="start" x="99" y="-106.5" font-family="Helvetica,sans-Serif" font-size="10.00">com.tomoparts.tomoBay.model.sql.framework.query</text>
<text text-anchor="middle" x="226" y="-95.5" font-family="Helvetica,sans-Serif" font-size="10.00">Types.select.AbstractSelectQuery.format</text>
</a>
</g>
</g>
<!-- Node1&#45;&gt;Node2 -->
<g id="edge1" class="edge"><title>Node1&#45;&gt;Node2</title>
<path fill="none" stroke="midnightblue" d="M55.0848,-68.2917C66.1195,-71.755 79.1021,-75.5911 91,-78.5 102.494,-81.3102 114.61,-83.9763 126.666,-86.4474"/>
<polygon fill="midnightblue" stroke="midnightblue" points="126.271,-89.9379 136.765,-88.4762 127.65,-83.0751 126.271,-89.9379"/>
</g>
<!-- Node3 -->
<g id="node3" class="node"><title>Node3</title>
<g id="a_node3"><a xlink:href="classcom_1_1tomoparts_1_1tomoBay_1_1model_1_1sql_1_1framework_1_1queryTypes_1_1select_1_1AbstractSelectNoParamsQuery.html#a66a7a791928180e34d307439b289d906" target="_top" xlink:title="initialise the connection and statement and set transaction variables. ">
<polygon fill="white" stroke="black" points="196.5,-50 196.5,-69 255.5,-69 255.5,-50 196.5,-50"/>
<text text-anchor="middle" x="226" y="-57" font-family="Helvetica,sans-Serif" font-size="10.00">initQuery</text>
</a>
</g>
</g>
<!-- Node1&#45;&gt;Node3 -->
<g id="edge2" class="edge"><title>Node1&#45;&gt;Node3</title>
<path fill="none" stroke="midnightblue" d="M55.0009,-59.5C88.7067,-59.5 147.184,-59.5 185.988,-59.5"/>
<polygon fill="midnightblue" stroke="midnightblue" points="186.375,-63.0001 196.375,-59.5 186.375,-56.0001 186.375,-63.0001"/>
</g>
<!-- Node6 -->
<g id="node6" class="node"><title>Node6</title>
<g id="a_node6"><a xlink:href="classcom_1_1tomoparts_1_1tomoBay_1_1model_1_1sql_1_1framework_1_1queryTypes_1_1AbstractDBQuery.html#ae8a5c5f1701ee77ef658050c8345d518" target="_top" xlink:title="Used by derived classes to define the Query string to be used in the query. ">
<polygon fill="white" stroke="black" points="91,-0.5 91,-30.5 361,-30.5 361,-0.5 91,-0.5"/>
<text text-anchor="start" x="99" y="-18.5" font-family="Helvetica,sans-Serif" font-size="10.00">com.tomoparts.tomoBay.model.sql.framework.query</text>
<text text-anchor="middle" x="226" y="-7.5" font-family="Helvetica,sans-Serif" font-size="10.00">Types.AbstractDBQuery.queryString</text>
</a>
</g>
</g>
<!-- Node1&#45;&gt;Node6 -->
<g id="edge5" class="edge"><title>Node1&#45;&gt;Node6</title>
<path fill="none" stroke="midnightblue" d="M55.0848,-50.7083C66.1195,-47.245 79.1021,-43.4089 91,-40.5 102.494,-37.6898 114.61,-35.0237 126.666,-32.5526"/>
<polygon fill="midnightblue" stroke="midnightblue" points="127.65,-35.9249 136.765,-30.5238 126.271,-29.0621 127.65,-35.9249"/>
</g>
<!-- Node4 -->
<g id="node4" class="node"><title>Node4</title>
<g id="a_node4"><a xlink:href="classcom_1_1tomoparts_1_1tomoBay_1_1model_1_1sql_1_1ConnectionManager.html#ad3127f02d7c94f382c86d2ad87307bcb" target="_top" xlink:title="instance method returns an instance of the ConnectionManager class ">
<polygon fill="white" stroke="black" points="397,-69.5 397,-99.5 587,-99.5 587,-69.5 397,-69.5"/>
<text text-anchor="start" x="405" y="-87.5" font-family="Helvetica,sans-Serif" font-size="10.00">com.tomoparts.tomoBay.model.sql.</text>
<text text-anchor="middle" x="492" y="-76.5" font-family="Helvetica,sans-Serif" font-size="10.00">ConnectionManager.instance</text>
</a>
</g>
</g>
<!-- Node3&#45;&gt;Node4 -->
<g id="edge3" class="edge"><title>Node3&#45;&gt;Node4</title>
<path fill="none" stroke="midnightblue" d="M255.503,-62.1992C286.933,-65.1755 339.343,-70.1385 386.75,-74.6279"/>
<polygon fill="midnightblue" stroke="midnightblue" points="386.496,-78.1194 396.781,-75.5778 387.156,-71.1505 386.496,-78.1194"/>
</g>
<!-- Node5 -->
<g id="node5" class="node"><title>Node5</title>
<g id="a_node5"><a xlink:href="classcom_1_1tomoparts_1_1tomoBay_1_1model_1_1sql_1_1ConnectionManager.html#abe00cdf87aed55bbe5ef191c248b62b1" target="_top" xlink:title="retrieves a database connection from the pool of available connections. ">
<polygon fill="white" stroke="black" points="397,-20.5 397,-50.5 587,-50.5 587,-20.5 397,-20.5"/>
<text text-anchor="start" x="405" y="-38.5" font-family="Helvetica,sans-Serif" font-size="10.00">com.tomoparts.tomoBay.model.sql.</text>
<text text-anchor="middle" x="492" y="-27.5" font-family="Helvetica,sans-Serif" font-size="10.00">ConnectionManager.getConnection</text>
</a>
</g>
</g>
<!-- Node3&#45;&gt;Node5 -->
<g id="edge4" class="edge"><title>Node3&#45;&gt;Node5</title>
<path fill="none" stroke="midnightblue" d="M255.503,-56.9088C286.933,-54.0515 339.343,-49.287 386.75,-44.9772"/>
<polygon fill="midnightblue" stroke="midnightblue" points="387.139,-48.4564 396.781,-44.0653 386.506,-41.4851 387.139,-48.4564"/>
</g>
</g>
</svg>
