<?xml version="1.0" encoding="UTF-8" standalone="no"?>
<!DOCTYPE svg PUBLIC "-//W3C//DTD SVG 1.1//EN"
 "http://www.w3.org/Graphics/SVG/1.1/DTD/svg11.dtd">
<!-- Generated by graphviz version 2.38.0 (20140413.2041)
 -->
<!-- Title: refresh Pages: 1 -->
<svg width="636pt" height="137pt"
 viewBox="0.00 0.00 636.00 137.00" xmlns="http://www.w3.org/2000/svg" xmlns:xlink="http://www.w3.org/1999/xlink">
<g id="graph0" class="graph" transform="scale(1 1) rotate(0) translate(4 133)">
<title>refresh</title>
<polygon fill="white" stroke="none" points="-4,4 -4,-133 632,-133 632,4 -4,4"/>
<!-- Node1 -->
<g id="node1" class="node"><title>Node1</title>
<polygon fill="#bfbfbf" stroke="black" points="0,-55 0,-74 50,-74 50,-55 0,-55"/>
<text text-anchor="middle" x="25" y="-62" font-family="Helvetica,sans-Serif" font-size="10.00">refresh</text>
</g>
<!-- Node2 -->
<g id="node2" class="node"><title>Node2</title>
<g id="a_node2"><a xlink:href="classcom_1_1tomoparts_1_1tomoBay_1_1helpers_1_1Shipping__Priority.html#aeaa068d370466a132fa02c3dd61f4111" target="_top" xlink:title="populates the internal map containing the shipping priorities ">
<polygon fill="white" stroke="black" points="86,-55 86,-74 198,-74 198,-55 86,-55"/>
<text text-anchor="middle" x="142" y="-62" font-family="Helvetica,sans-Serif" font-size="10.00">populatePriorityMap</text>
</a>
</g>
</g>
<!-- Node1&#45;&gt;Node2 -->
<g id="edge1" class="edge"><title>Node1&#45;&gt;Node2</title>
<path fill="none" stroke="midnightblue" d="M50.1078,-64.5C57.6686,-64.5 66.4082,-64.5 75.418,-64.5"/>
<polygon fill="midnightblue" stroke="midnightblue" points="75.6566,-68.0001 85.6566,-64.5 75.6566,-61.0001 75.6566,-68.0001"/>
</g>
<!-- Node3 -->
<g id="node3" class="node"><title>Node3</title>
<g id="a_node3"><a xlink:href="classcom_1_1tomoparts_1_1tomoBay_1_1helpers_1_1ConfigReader.html#a7059b3afa0bba045e7069deaa7460887" target="_top" xlink:title="Find all values of the specified config variable, if multiple instances exist then the array will be ...">
<polygon fill="white" stroke="black" points="234,-49.5 234,-79.5 413,-79.5 413,-49.5 234,-49.5"/>
<text text-anchor="start" x="242" y="-67.5" font-family="Helvetica,sans-Serif" font-size="10.00">com.tomoparts.tomoBay.helpers.</text>
<text text-anchor="middle" x="323.5" y="-56.5" font-family="Helvetica,sans-Serif" font-size="10.00">ConfigReader.getConfs</text>
</a>
</g>
</g>
<!-- Node2&#45;&gt;Node3 -->
<g id="edge2" class="edge"><title>Node2&#45;&gt;Node3</title>
<path fill="none" stroke="midnightblue" d="M198.321,-64.5C206.391,-64.5 214.899,-64.5 223.522,-64.5"/>
<polygon fill="midnightblue" stroke="midnightblue" points="223.677,-68.0001 233.677,-64.5 223.677,-61.0001 223.677,-68.0001"/>
</g>
<!-- Node4 -->
<g id="node4" class="node"><title>Node4</title>
<g id="a_node4"><a xlink:href="classcom_1_1tomoparts_1_1tomoBay_1_1helpers_1_1ConfigReader.html#ab69b4a3a0fc6a7c7440362b06ec4b4d3" target="_top" xlink:title="reads the whole config file into a string ">
<polygon fill="white" stroke="black" points="449,-98.5 449,-128.5 628,-128.5 628,-98.5 449,-98.5"/>
<text text-anchor="start" x="457" y="-116.5" font-family="Helvetica,sans-Serif" font-size="10.00">com.tomoparts.tomoBay.helpers.</text>
<text text-anchor="middle" x="538.5" y="-105.5" font-family="Helvetica,sans-Serif" font-size="10.00">ConfigReader.getConfig</text>
</a>
</g>
</g>
<!-- Node3&#45;&gt;Node4 -->
<g id="edge3" class="edge"><title>Node3&#45;&gt;Node4</title>
<path fill="none" stroke="midnightblue" d="M389.855,-79.5346C412.753,-84.8024 438.651,-90.7601 462.291,-96.1984"/>
<polygon fill="midnightblue" stroke="midnightblue" points="461.739,-99.6627 472.269,-98.4938 463.308,-92.8409 461.739,-99.6627"/>
</g>
<!-- Node5 -->
<g id="node5" class="node"><title>Node5</title>
<g id="a_node5"><a xlink:href="enumcom_1_1tomoparts_1_1tomoBay_1_1helpers_1_1Config.html#a43cb99408ba4f337caad395ca67f9a6c" target="_top" xlink:title="return the string associated with the enum const ">
<polygon fill="white" stroke="black" points="449,-49.5 449,-79.5 628,-79.5 628,-49.5 449,-49.5"/>
<text text-anchor="start" x="457" y="-67.5" font-family="Helvetica,sans-Serif" font-size="10.00">com.tomoparts.tomoBay.helpers.</text>
<text text-anchor="middle" x="538.5" y="-56.5" font-family="Helvetica,sans-Serif" font-size="10.00">Config.getVar</text>
</a>
</g>
</g>
<!-- Node3&#45;&gt;Node5 -->
<g id="edge4" class="edge"><title>Node3&#45;&gt;Node5</title>
<path fill="none" stroke="midnightblue" d="M413.289,-64.5C421.648,-64.5 430.156,-64.5 438.601,-64.5"/>
<polygon fill="midnightblue" stroke="midnightblue" points="438.855,-68.0001 448.855,-64.5 438.855,-61.0001 438.855,-68.0001"/>
</g>
<!-- Node6 -->
<g id="node6" class="node"><title>Node6</title>
<g id="a_node6"><a xlink:href="classcom_1_1tomoparts_1_1tomoBay_1_1helpers_1_1XMLParser.html#a4f989a27fad17308212c0c22aa1fd629" target="_top" xlink:title="returns a NodeList containing all the nodes that have the specified tag name ">
<polygon fill="white" stroke="black" points="449,-0.5 449,-30.5 628,-30.5 628,-0.5 449,-0.5"/>
<text text-anchor="start" x="457" y="-18.5" font-family="Helvetica,sans-Serif" font-size="10.00">com.tomoparts.tomoBay.helpers.</text>
<text text-anchor="middle" x="538.5" y="-7.5" font-family="Helvetica,sans-Serif" font-size="10.00">XMLParser.parseAll</text>
</a>
</g>
</g>
<!-- Node3&#45;&gt;Node6 -->
<g id="edge5" class="edge"><title>Node3&#45;&gt;Node6</title>
<path fill="none" stroke="midnightblue" d="M389.855,-49.4654C412.753,-44.1976 438.651,-38.2399 462.291,-32.8016"/>
<polygon fill="midnightblue" stroke="midnightblue" points="463.308,-36.1591 472.269,-30.5062 461.739,-29.3373 463.308,-36.1591"/>
</g>
</g>
</svg>
