<?xml version="1.0" encoding="UTF-8" standalone="no"?>
<!DOCTYPE svg PUBLIC "-//W3C//DTD SVG 1.1//EN"
 "http://www.w3.org/Graphics/SVG/1.1/DTD/svg11.dtd">
<!-- Generated by graphviz version 2.38.0 (20140413.2041)
 -->
<!-- Title: checkStockLevelOfItems Pages: 1 -->
<svg width="876pt" height="235pt"
 viewBox="0.00 0.00 876.00 235.00" xmlns="http://www.w3.org/2000/svg" xmlns:xlink="http://www.w3.org/1999/xlink">
<g id="graph0" class="graph" transform="scale(1 1) rotate(0) translate(4 231)">
<title>checkStockLevelOfItems</title>
<polygon fill="white" stroke="none" points="-4,4 -4,-231 872,-231 872,4 -4,4"/>
<!-- Node1 -->
<g id="node1" class="node"><title>Node1</title>
<polygon fill="#bfbfbf" stroke="black" points="0,-104 0,-123 134,-123 134,-104 0,-104"/>
<text text-anchor="middle" x="67" y="-111" font-family="Helvetica,sans-Serif" font-size="10.00">checkStockLevelOfItems</text>
</g>
<!-- Node2 -->
<g id="node2" class="node"><title>Node2</title>
<g id="a_node2"><a xlink:href="classcom_1_1tomoparts_1_1tomoBay_1_1helpers_1_1BrandToCode.html#a10207714bd294d73dd98b80fd94a2ab8" target="_top" xlink:title="converts converts a string like &quot;citroen&quot; or &quot;fOrd&quot; to a brandcode integer specific to winstock...">
<polygon fill="white" stroke="black" points="186,-196.5 186,-226.5 371,-226.5 371,-196.5 186,-196.5"/>
<text text-anchor="start" x="194" y="-214.5" font-family="Helvetica,sans-Serif" font-size="10.00">com.tomoparts.tomoBay.helpers.</text>
<text text-anchor="middle" x="278.5" y="-203.5" font-family="Helvetica,sans-Serif" font-size="10.00">BrandToCode.convertToWinstockInt</text>
</a>
</g>
</g>
<!-- Node1&#45;&gt;Node2 -->
<g id="edge1" class="edge"><title>Node1&#45;&gt;Node2</title>
<path fill="none" stroke="midnightblue" d="M78.1075,-123.064C95.4702,-138.949 132.705,-170.682 170,-187.5 174.674,-189.608 179.548,-191.537 184.529,-193.303"/>
<polygon fill="midnightblue" stroke="midnightblue" points="183.623,-196.689 194.216,-196.499 185.816,-190.042 183.623,-196.689"/>
</g>
<!-- Node4 -->
<g id="node4" class="node"><title>Node4</title>
<g id="a_node4"><a xlink:href="classcom_1_1tomoparts_1_1tomoBay_1_1model_1_1dataTypes_1_1PartList.html#ab743beefffd4d159c3b91639caee92da" target="_top" xlink:title="get the part number at position i in the list ">
<polygon fill="white" stroke="black" points="181,-147.5 181,-177.5 376,-177.5 376,-147.5 181,-147.5"/>
<text text-anchor="start" x="189" y="-165.5" font-family="Helvetica,sans-Serif" font-size="10.00">com.tomoparts.tomoBay.model.data</text>
<text text-anchor="middle" x="278.5" y="-154.5" font-family="Helvetica,sans-Serif" font-size="10.00">Types.PartList.getPartNumber</text>
</a>
</g>
</g>
<!-- Node1&#45;&gt;Node4 -->
<g id="edge3" class="edge"><title>Node1&#45;&gt;Node4</title>
<path fill="none" stroke="midnightblue" d="M106.22,-123.066C125.349,-127.804 148.875,-133.554 170,-138.5 179.496,-140.723 189.474,-143.013 199.367,-145.255"/>
<polygon fill="midnightblue" stroke="midnightblue" points="198.684,-148.689 209.209,-147.477 200.225,-141.861 198.684,-148.689"/>
</g>
<!-- Node5 -->
<g id="node5" class="node"><title>Node5</title>
<g id="a_node5"><a xlink:href="classcom_1_1tomoparts_1_1tomoBay_1_1model_1_1dataTypes_1_1PartList.html#a5bebcb62b6ffa7676eacf169f0bfe603" target="_top" xlink:title="get the quantity of the part number at position i in the list ">
<polygon fill="white" stroke="black" points="181,-98.5 181,-128.5 376,-128.5 376,-98.5 181,-98.5"/>
<text text-anchor="start" x="189" y="-116.5" font-family="Helvetica,sans-Serif" font-size="10.00">com.tomoparts.tomoBay.model.data</text>
<text text-anchor="middle" x="278.5" y="-105.5" font-family="Helvetica,sans-Serif" font-size="10.00">Types.PartList.getPartQty</text>
</a>
</g>
</g>
<!-- Node1&#45;&gt;Node5 -->
<g id="edge4" class="edge"><title>Node1&#45;&gt;Node5</title>
<path fill="none" stroke="midnightblue" d="M134.287,-113.5C145.807,-113.5 158.047,-113.5 170.331,-113.5"/>
<polygon fill="midnightblue" stroke="midnightblue" points="170.646,-117 180.646,-113.5 170.646,-110 170.646,-117"/>
</g>
<!-- Node6 -->
<g id="node6" class="node"><title>Node6</title>
<g id="a_node6"><a xlink:href="classcom_1_1tomoparts_1_1tomoBay_1_1model_1_1winstock_1_1Stock.html#a06d21b6ad2b8a746c52fadb5d4711778" target="_top" xlink:title="query winstock for the stock level of a particular part. ">
<polygon fill="white" stroke="black" points="170,-49.5 170,-79.5 387,-79.5 387,-49.5 170,-49.5"/>
<text text-anchor="start" x="178" y="-67.5" font-family="Helvetica,sans-Serif" font-size="10.00">com.tomoparts.tomoBay.model.winstock.</text>
<text text-anchor="middle" x="278.5" y="-56.5" font-family="Helvetica,sans-Serif" font-size="10.00">Stock.requestStockLevel</text>
</a>
</g>
</g>
<!-- Node1&#45;&gt;Node6 -->
<g id="edge5" class="edge"><title>Node1&#45;&gt;Node6</title>
<path fill="none" stroke="midnightblue" d="M108.694,-103.899C127.371,-99.4998 149.806,-94.2238 170,-89.5 180.571,-87.0272 191.728,-84.4245 202.694,-81.8704"/>
<polygon fill="midnightblue" stroke="midnightblue" points="203.743,-85.2199 212.689,-79.5437 202.156,-78.4022 203.743,-85.2199"/>
</g>
<!-- Node11 -->
<g id="node11" class="node"><title>Node11</title>
<g id="a_node11"><a xlink:href="classcom_1_1tomoparts_1_1tomoBay_1_1model_1_1dataTypes_1_1PartList.html#af4b57d21919c42d55af03391f91a1c08" target="_top" xlink:title="the size of the part list. ">
<polygon fill="white" stroke="black" points="181,-0.5 181,-30.5 376,-30.5 376,-0.5 181,-0.5"/>
<text text-anchor="start" x="189" y="-18.5" font-family="Helvetica,sans-Serif" font-size="10.00">com.tomoparts.tomoBay.model.data</text>
<text text-anchor="middle" x="278.5" y="-7.5" font-family="Helvetica,sans-Serif" font-size="10.00">Types.PartList.size</text>
</a>
</g>
</g>
<!-- Node1&#45;&gt;Node11 -->
<g id="edge10" class="edge"><title>Node1&#45;&gt;Node11</title>
<path fill="none" stroke="midnightblue" d="M78.4308,-103.855C95.9734,-88.166 133.097,-57.1945 170,-40.5 175.614,-37.9604 181.513,-35.6643 187.539,-33.5907"/>
<polygon fill="midnightblue" stroke="midnightblue" points="188.643,-36.912 197.087,-30.5122 186.495,-30.2498 188.643,-36.912"/>
</g>
<!-- Node3 -->
<g id="node3" class="node"><title>Node3</title>
<g id="a_node3"><a xlink:href="classcom_1_1tomoparts_1_1tomoBay_1_1helpers_1_1BrandToCode.html#a84072526fa5d5ce298cdceffc81f43e7" target="_top" xlink:title="converts a string like &quot;citroen&quot; or &quot;fOrd&quot; to a brandcode specific to winstock. ">
<polygon fill="white" stroke="black" points="442,-196.5 442,-226.5 621,-226.5 621,-196.5 442,-196.5"/>
<text text-anchor="start" x="450" y="-214.5" font-family="Helvetica,sans-Serif" font-size="10.00">com.tomoparts.tomoBay.helpers.</text>
<text text-anchor="middle" x="531.5" y="-203.5" font-family="Helvetica,sans-Serif" font-size="10.00">BrandToCode.convert</text>
</a>
</g>
</g>
<!-- Node2&#45;&gt;Node3 -->
<g id="edge2" class="edge"><title>Node2&#45;&gt;Node3</title>
<path fill="none" stroke="midnightblue" d="M371.182,-211.5C390.949,-211.5 411.926,-211.5 431.943,-211.5"/>
<polygon fill="midnightblue" stroke="midnightblue" points="431.996,-215 441.996,-211.5 431.996,-208 431.996,-215"/>
</g>
<!-- Node7 -->
<g id="node7" class="node"><title>Node7</title>
<g id="a_node7"><a xlink:href="classcom_1_1tomoparts_1_1tomoBay_1_1helpers_1_1XMLParser.html#a9936151017dd4e908cf37d453b22c8ef" target="_top" xlink:title="parses an XML formatted string looking for the first tag specified in the parameters. ">
<polygon fill="white" stroke="black" points="442,-98.5 442,-128.5 621,-128.5 621,-98.5 442,-98.5"/>
<text text-anchor="start" x="450" y="-116.5" font-family="Helvetica,sans-Serif" font-size="10.00">com.tomoparts.tomoBay.helpers.</text>
<text text-anchor="middle" x="531.5" y="-105.5" font-family="Helvetica,sans-Serif" font-size="10.00">XMLParser.parse</text>
</a>
</g>
</g>
<!-- Node6&#45;&gt;Node7 -->
<g id="edge6" class="edge"><title>Node6&#45;&gt;Node7</title>
<path fill="none" stroke="midnightblue" d="M356.514,-79.5346C384.1,-84.92 415.38,-91.0264 443.735,-96.5618"/>
<polygon fill="midnightblue" stroke="midnightblue" points="443.146,-100.013 453.632,-98.4938 444.487,-93.1426 443.146,-100.013"/>
</g>
<!-- Node8 -->
<g id="node8" class="node"><title>Node8</title>
<g id="a_node8"><a xlink:href="classcom_1_1tomoparts_1_1tomoBay_1_1model_1_1winstock_1_1Stock.html#a42fa652d82ed49749a0ad929a6c798d0" target="_top" xlink:title="remove the header bumpf from the bottom of the response ">
<polygon fill="white" stroke="black" points="423,-49.5 423,-79.5 640,-79.5 640,-49.5 423,-49.5"/>
<text text-anchor="start" x="431" y="-67.5" font-family="Helvetica,sans-Serif" font-size="10.00">com.tomoparts.tomoBay.model.winstock.</text>
<text text-anchor="middle" x="531.5" y="-56.5" font-family="Helvetica,sans-Serif" font-size="10.00">Stock.postFormatXMLString</text>
</a>
</g>
</g>
<!-- Node6&#45;&gt;Node8 -->
<g id="edge7" class="edge"><title>Node6&#45;&gt;Node8</title>
<path fill="none" stroke="midnightblue" d="M387.039,-64.5C395.55,-64.5 404.175,-64.5 412.75,-64.5"/>
<polygon fill="midnightblue" stroke="midnightblue" points="412.785,-68.0001 422.785,-64.5 412.785,-61.0001 412.785,-68.0001"/>
</g>
<!-- Node10 -->
<g id="node10" class="node"><title>Node10</title>
<g id="a_node10"><a xlink:href="classcom_1_1tomoparts_1_1tomoBay_1_1model_1_1winstock_1_1Stock.html#a82b5421e7d3a2ba82bdc5d54b09a8069" target="_top" xlink:title="com.tomoparts.tomoBay.model.winstock.\lStock.queryWinstockURL">
<polygon fill="white" stroke="black" points="423,-0.5 423,-30.5 640,-30.5 640,-0.5 423,-0.5"/>
<text text-anchor="start" x="431" y="-18.5" font-family="Helvetica,sans-Serif" font-size="10.00">com.tomoparts.tomoBay.model.winstock.</text>
<text text-anchor="middle" x="531.5" y="-7.5" font-family="Helvetica,sans-Serif" font-size="10.00">Stock.queryWinstockURL</text>
</a>
</g>
</g>
<!-- Node6&#45;&gt;Node10 -->
<g id="edge9" class="edge"><title>Node6&#45;&gt;Node10</title>
<path fill="none" stroke="midnightblue" d="M356.514,-49.4654C384.1,-44.08 415.38,-37.9736 443.735,-32.4382"/>
<polygon fill="midnightblue" stroke="midnightblue" points="444.487,-35.8574 453.632,-30.5062 443.146,-28.9871 444.487,-35.8574"/>
</g>
<!-- Node9 -->
<g id="node9" class="node"><title>Node9</title>
<g id="a_node9"><a xlink:href="classcom_1_1tomoparts_1_1tomoBay_1_1model_1_1net_1_1HttpResponse.html#afb798c825935128953439404fb763997" target="_top" xlink:title="get the Response message ">
<polygon fill="white" stroke="black" points="676,-49.5 676,-79.5 868,-79.5 868,-49.5 676,-49.5"/>
<text text-anchor="start" x="684" y="-67.5" font-family="Helvetica,sans-Serif" font-size="10.00">com.tomoparts.tomoBay.model.net.</text>
<text text-anchor="middle" x="772" y="-56.5" font-family="Helvetica,sans-Serif" font-size="10.00">HttpResponse.getResponseMessage</text>
</a>
</g>
</g>
<!-- Node8&#45;&gt;Node9 -->
<g id="edge8" class="edge"><title>Node8&#45;&gt;Node9</title>
<path fill="none" stroke="midnightblue" d="M640.237,-64.5C648.662,-64.5 657.165,-64.5 665.574,-64.5"/>
<polygon fill="midnightblue" stroke="midnightblue" points="665.775,-68.0001 675.775,-64.5 665.775,-61.0001 665.775,-68.0001"/>
</g>
</g>
</svg>
