<?xml version="1.0" encoding="UTF-8" standalone="no"?>
<!DOCTYPE svg PUBLIC "-//W3C//DTD SVG 1.1//EN"
 "http://www.w3.org/Graphics/SVG/1.1/DTD/svg11.dtd">
<!-- Generated by graphviz version 2.38.0 (20140413.2041)
 -->
<!-- Title: format Pages: 1 -->
<svg width="525pt" height="137pt"
 viewBox="0.00 0.00 525.00 137.00" xmlns="http://www.w3.org/2000/svg" xmlns:xlink="http://www.w3.org/1999/xlink">
<g id="graph0" class="graph" transform="scale(1 1) rotate(0) translate(4 133)">
<title>format</title>
<polygon fill="white" stroke="none" points="-4,4 -4,-133 521,-133 521,4 -4,4"/>
<!-- Node1 -->
<g id="node1" class="node"><title>Node1</title>
<polygon fill="#bfbfbf" stroke="black" points="0,-55 0,-74 49,-74 49,-55 0,-55"/>
<text text-anchor="middle" x="24.5" y="-62" font-family="Helvetica,sans-Serif" font-size="10.00">format</text>
</g>
<!-- Node2 -->
<g id="node2" class="node"><title>Node2</title>
<g id="a_node2"><a xlink:href="classcom_1_1tomoparts_1_1tomoBay_1_1model_1_1eBayAPI_1_1EbayAccounts.html#a263b122a1c598841624ba7d1e4a6c617" target="_top" xlink:title="convert an account ID to a textual name value. ">
<polygon fill="white" stroke="black" points="85,-95.5 85,-125.5 264,-125.5 264,-95.5 85,-95.5"/>
<text text-anchor="start" x="93" y="-113.5" font-family="Helvetica,sans-Serif" font-size="10.00">com.tomoparts.tomoBay.model.e</text>
<text text-anchor="middle" x="174.5" y="-102.5" font-family="Helvetica,sans-Serif" font-size="10.00">BayAPI.EbayAccounts.name</text>
</a>
</g>
</g>
<!-- Node1&#45;&gt;Node2 -->
<g id="edge1" class="edge"><title>Node1&#45;&gt;Node2</title>
<path fill="none" stroke="midnightblue" d="M49.2194,-72.152C60.1101,-75.6454 73.1998,-79.8161 85,-83.5 94.4303,-86.4441 104.437,-89.5318 114.199,-92.5244"/>
<polygon fill="midnightblue" stroke="midnightblue" points="113.263,-95.898 123.85,-95.4763 115.311,-89.2042 113.263,-95.898"/>
</g>
<!-- Node4 -->
<g id="node4" class="node"><title>Node4</title>
<g id="a_node4"><a xlink:href="classcom_1_1tomoparts_1_1tomoBay_1_1view_1_1views_1_1salesOrderView_1_1SalesOrderView.html#a79629cb15df56cead861ca956e1855e6" target="_top" xlink:title="defines a set of set of String values that equate to the &#39;invoiced&#39; values grabbed from the database...">
<polygon fill="white" stroke="black" points="140,-55 140,-74 209,-74 209,-55 140,-55"/>
<text text-anchor="middle" x="174.5" y="-62" font-family="Helvetica,sans-Serif" font-size="10.00">pickeability</text>
</a>
</g>
</g>
<!-- Node1&#45;&gt;Node4 -->
<g id="edge3" class="edge"><title>Node1&#45;&gt;Node4</title>
<path fill="none" stroke="midnightblue" d="M49.2788,-64.5C70.9195,-64.5 103.41,-64.5 129.735,-64.5"/>
<polygon fill="midnightblue" stroke="midnightblue" points="129.853,-68.0001 139.853,-64.5 129.853,-61.0001 129.853,-68.0001"/>
</g>
<!-- Node7 -->
<g id="node7" class="node"><title>Node7</title>
<g id="a_node7"><a xlink:href="classcom_1_1tomoparts_1_1tomoBay_1_1view_1_1views_1_1salesOrderView_1_1SalesOrderView.html#ac9b3e6217f0b9dac4613adf2e8d5e195" target="_top" xlink:title="replace the last instance of a particular character in a string with another. ">
<polygon fill="white" stroke="black" points="138.5,-17 138.5,-36 210.5,-36 210.5,-17 138.5,-17"/>
<text text-anchor="middle" x="174.5" y="-24" font-family="Helvetica,sans-Serif" font-size="10.00">replaceLast</text>
</a>
</g>
</g>
<!-- Node1&#45;&gt;Node7 -->
<g id="edge6" class="edge"><title>Node1&#45;&gt;Node7</title>
<path fill="none" stroke="midnightblue" d="M49.0853,-56.3842C59.9489,-52.7971 73.0545,-48.6814 85,-45.5 99.0524,-41.7575 114.51,-38.2379 128.52,-35.2692"/>
<polygon fill="midnightblue" stroke="midnightblue" points="129.347,-38.6722 138.425,-33.2096 127.922,-31.8188 129.347,-38.6722"/>
</g>
<!-- Node3 -->
<g id="node3" class="node"><title>Node3</title>
<g id="a_node3"><a xlink:href="classcom_1_1tomoparts_1_1tomoBay_1_1model_1_1eBayAPI_1_1EbayAccounts.html#a137163c03f463ad5d9581aef47a9a3e4" target="_top" xlink:title="retrieve the id for the account name specified ">
<polygon fill="white" stroke="black" points="319,-98.5 319,-128.5 498,-128.5 498,-98.5 319,-98.5"/>
<text text-anchor="start" x="327" y="-116.5" font-family="Helvetica,sans-Serif" font-size="10.00">com.tomoparts.tomoBay.model.e</text>
<text text-anchor="middle" x="408.5" y="-105.5" font-family="Helvetica,sans-Serif" font-size="10.00">BayAPI.EbayAccounts.id</text>
</a>
</g>
</g>
<!-- Node2&#45;&gt;Node3 -->
<g id="edge2" class="edge"><title>Node2&#45;&gt;Node3</title>
<path fill="none" stroke="midnightblue" d="M264.202,-111.647C278.753,-111.835 293.911,-112.031 308.689,-112.222"/>
<polygon fill="midnightblue" stroke="midnightblue" points="308.802,-115.724 318.847,-112.354 308.893,-108.725 308.802,-115.724"/>
</g>
<!-- Node5 -->
<g id="node5" class="node"><title>Node5</title>
<g id="a_node5"><a xlink:href="classcom_1_1tomoparts_1_1tomoBay_1_1model_1_1dataTypes_1_1ServerStatus.html#a0de06b49749247f1ab7e4f12e7e4bf50" target="_top" xlink:title="Allows a part of the system to query the current status of the server. ">
<polygon fill="white" stroke="black" points="311,-49.5 311,-79.5 506,-79.5 506,-49.5 311,-49.5"/>
<text text-anchor="start" x="319" y="-67.5" font-family="Helvetica,sans-Serif" font-size="10.00">com.tomoparts.tomoBay.model.data</text>
<text text-anchor="middle" x="408.5" y="-56.5" font-family="Helvetica,sans-Serif" font-size="10.00">Types.ServerStatus.getStatus</text>
</a>
</g>
</g>
<!-- Node4&#45;&gt;Node5 -->
<g id="edge4" class="edge"><title>Node4&#45;&gt;Node5</title>
<path fill="none" stroke="midnightblue" d="M209.235,-64.5C233.437,-64.5 267.482,-64.5 300.541,-64.5"/>
<polygon fill="midnightblue" stroke="midnightblue" points="300.758,-68.0001 310.758,-64.5 300.758,-61.0001 300.758,-68.0001"/>
</g>
<!-- Node6 -->
<g id="node6" class="node"><title>Node6</title>
<g id="a_node6"><a xlink:href="classcom_1_1tomoparts_1_1tomoBay_1_1view_1_1views_1_1salesOrderView_1_1OrderStatusContext.html#ae4943f14d8c16791602f385be909b085" target="_top" xlink:title="com.tomoparts.tomoBay.view.views.sales\lOrderView.OrderStatusContext.get">
<polygon fill="white" stroke="black" points="300,-0.5 300,-30.5 517,-30.5 517,-0.5 300,-0.5"/>
<text text-anchor="start" x="308" y="-18.5" font-family="Helvetica,sans-Serif" font-size="10.00">com.tomoparts.tomoBay.view.views.sales</text>
<text text-anchor="middle" x="408.5" y="-7.5" font-family="Helvetica,sans-Serif" font-size="10.00">OrderView.OrderStatusContext.get</text>
</a>
</g>
</g>
<!-- Node4&#45;&gt;Node6 -->
<g id="edge5" class="edge"><title>Node4&#45;&gt;Node6</title>
<path fill="none" stroke="midnightblue" d="M209.235,-57.375C239.885,-50.9014 286.323,-41.0934 326.553,-32.5966"/>
<polygon fill="midnightblue" stroke="midnightblue" points="327.304,-36.0152 336.365,-30.5242 325.858,-29.1663 327.304,-36.0152"/>
</g>
</g>
</svg>
