<?xml version="1.0" encoding="UTF-8" standalone="no"?>
<!DOCTYPE svg PUBLIC "-//W3C//DTD SVG 1.1//EN"
 "http://www.w3.org/Graphics/SVG/1.1/DTD/svg11.dtd">
<!-- Generated by graphviz version 2.38.0 (20140413.2041)
 -->
<!-- Title: RoyalMailCSVGenerator Pages: 1 -->
<svg width="218pt" height="336pt"
 viewBox="0.00 0.00 217.50 336.00" xmlns="http://www.w3.org/2000/svg" xmlns:xlink="http://www.w3.org/1999/xlink">
<g id="graph0" class="graph" transform="scale(1 1) rotate(0) translate(4 332)">
<title>RoyalMailCSVGenerator</title>
<polygon fill="white" stroke="none" points="-4,4 -4,-332 213.5,-332 213.5,4 -4,4"/>
<!-- Node1 -->
<g id="node1" class="node"><title>Node1</title>
<polygon fill="#bfbfbf" stroke="black" points="33.5,-0.5 33.5,-178.5 182.5,-178.5 182.5,-0.5 33.5,-0.5"/>
<text text-anchor="middle" x="108" y="-166.5" font-family="Helvetica,sans-Serif" font-size="10.00">RoyalMailCSVGenerator</text>
<polyline fill="none" stroke="black" points="33.5,-159.5 182.5,-159.5 "/>
<text text-anchor="start" x="41.5" y="-147.5" font-family="Helvetica,sans-Serif" font-size="10.00">&#45; columnNames_M</text>
<text text-anchor="start" x="41.5" y="-136.5" font-family="Helvetica,sans-Serif" font-size="10.00">&#45; columnValidations_M</text>
<text text-anchor="start" x="41.5" y="-125.5" font-family="Helvetica,sans-Serif" font-size="10.00">&#45; separator_M</text>
<text text-anchor="start" x="41.5" y="-114.5" font-family="Helvetica,sans-Serif" font-size="10.00">&#45; entryIndicator_M</text>
<polyline fill="none" stroke="black" points="33.5,-107.5 182.5,-107.5 "/>
<text text-anchor="start" x="41.5" y="-95.5" font-family="Helvetica,sans-Serif" font-size="10.00">+ RoyalMailCSVGenerator()</text>
<text text-anchor="start" x="41.5" y="-84.5" font-family="Helvetica,sans-Serif" font-size="10.00">+ setseparators()</text>
<text text-anchor="start" x="41.5" y="-73.5" font-family="Helvetica,sans-Serif" font-size="10.00">+ addRow()</text>
<text text-anchor="start" x="41.5" y="-62.5" font-family="Helvetica,sans-Serif" font-size="10.00">+ addBatch()</text>
<text text-anchor="start" x="41.5" y="-51.5" font-family="Helvetica,sans-Serif" font-size="10.00">+ generate()</text>
<text text-anchor="start" x="41.5" y="-40.5" font-family="Helvetica,sans-Serif" font-size="10.00">+ size()</text>
<text text-anchor="start" x="41.5" y="-29.5" font-family="Helvetica,sans-Serif" font-size="10.00">+ toString()</text>
<text text-anchor="start" x="41.5" y="-18.5" font-family="Helvetica,sans-Serif" font-size="10.00">&#45; checkSize()</text>
<text text-anchor="start" x="41.5" y="-7.5" font-family="Helvetica,sans-Serif" font-size="10.00">&#45; validate()</text>
</g>
<!-- Node2 -->
<g id="node2" class="node"><title>Node2</title>
<g id="a_node2"><a xlink:href="interfacecom_1_1tomoparts_1_1tomoBay_1_1model_1_1royalMail_1_1CSVGenerator.html" target="_top" xlink:title="This is the public interface for all CSV generator derived classes and defines the necessary function...">
<polygon fill="white" stroke="black" points="0,-226.5 0,-327.5 102,-327.5 102,-226.5 0,-226.5"/>
<text text-anchor="middle" x="51" y="-315.5" font-family="Helvetica,sans-Serif" font-size="10.00">CSVGenerator</text>
<polyline fill="none" stroke="black" points="0,-308.5 102,-308.5 "/>
<text text-anchor="middle" x="51" y="-296.5" font-family="Helvetica,sans-Serif" font-size="10.00"> </text>
<polyline fill="none" stroke="black" points="0,-289.5 102,-289.5 "/>
<text text-anchor="start" x="8" y="-277.5" font-family="Helvetica,sans-Serif" font-size="10.00">+ setseparators()</text>
<text text-anchor="start" x="8" y="-266.5" font-family="Helvetica,sans-Serif" font-size="10.00">+ addRow()</text>
<text text-anchor="start" x="8" y="-255.5" font-family="Helvetica,sans-Serif" font-size="10.00">+ generate()</text>
<text text-anchor="start" x="8" y="-244.5" font-family="Helvetica,sans-Serif" font-size="10.00">+ size()</text>
<text text-anchor="start" x="8" y="-233.5" font-family="Helvetica,sans-Serif" font-size="10.00">+ toString()</text>
</a>
</g>
</g>
<!-- Node2&#45;&gt;Node1 -->
<g id="edge1" class="edge"><title>Node2&#45;&gt;Node1</title>
<path fill="none" stroke="midnightblue" d="M69.315,-216.396C73.0157,-204.352 76.9803,-191.45 80.9091,-178.664"/>
<polygon fill="none" stroke="midnightblue" points="65.8666,-215.702 66.275,-226.289 72.5579,-217.759 65.8666,-215.702"/>
</g>
<!-- Node3 -->
<g id="node3" class="node"><title>Node3</title>
<polygon fill="white" stroke="#bfbfbf" points="120.5,-248.5 120.5,-305.5 209.5,-305.5 209.5,-248.5 120.5,-248.5"/>
<text text-anchor="middle" x="165" y="-293.5" font-family="Helvetica,sans-Serif" font-size="10.00">List&lt; String[]&gt;</text>
<polyline fill="none" stroke="#bfbfbf" points="120.5,-286.5 209.5,-286.5 "/>
<text text-anchor="middle" x="165" y="-274.5" font-family="Helvetica,sans-Serif" font-size="10.00"> </text>
<polyline fill="none" stroke="#bfbfbf" points="120.5,-267.5 209.5,-267.5 "/>
<text text-anchor="middle" x="165" y="-255.5" font-family="Helvetica,sans-Serif" font-size="10.00"> </text>
</g>
<!-- Node3&#45;&gt;Node1 -->
<g id="edge2" class="edge"><title>Node3&#45;&gt;Node1</title>
<path fill="none" stroke="#404040" d="M156.467,-248.229C151.623,-232.465 145.232,-211.668 138.687,-190.368"/>
<polygon fill="none" stroke="#404040" points="138.676,-190.332 133.09,-185.772 135.151,-178.861 140.737,-183.422 138.676,-190.332"/>
<text text-anchor="middle" x="168" y="-200" font-family="Helvetica,sans-Serif" font-size="10.00"> &#45;result_M</text>
</g>
</g>
</svg>
