<?xml version="1.0" encoding="UTF-8" standalone="no"?>
<!DOCTYPE svg PUBLIC "-//W3C//DTD SVG 1.1//EN"
 "http://www.w3.org/Graphics/SVG/1.1/DTD/svg11.dtd">
<!-- Generated by graphviz version 2.38.0 (20140413.2041)
 -->
<!-- Title: partNo Pages: 1 -->
<svg width="1412pt" height="105pt"
 viewBox="0.00 0.00 1412.00 105.00" xmlns="http://www.w3.org/2000/svg" xmlns:xlink="http://www.w3.org/1999/xlink">
<g id="graph0" class="graph" transform="scale(1 1) rotate(0) translate(4 101)">
<title>partNo</title>
<polygon fill="white" stroke="none" points="-4,4 -4,-101 1408,-101 1408,4 -4,4"/>
<!-- Node1 -->
<g id="node1" class="node"><title>Node1</title>
<polygon fill="#bfbfbf" stroke="black" points="0,-33 0,-52 50,-52 50,-33 0,-33"/>
<text text-anchor="middle" x="25" y="-40" font-family="Helvetica,sans-Serif" font-size="10.00">partNo</text>
</g>
<!-- Node2 -->
<g id="node2" class="node"><title>Node2</title>
<g id="a_node2"><a xlink:href="classcom_1_1tomoparts_1_1tomoBay_1_1model_1_1dataTypes_1_1financial_1_1SalesOrderDayBook_1_1AbstractLineItem.html#a06da05dee451bbf7e7ec2f702fc7e3fb" target="_top" xlink:title="retrieve the part number associated with the part that has been invoiced ">
<polygon fill="white" stroke="black" points="86,-22 86,-63 281,-63 281,-22 86,-22"/>
<text text-anchor="start" x="94" y="-51" font-family="Helvetica,sans-Serif" font-size="10.00">com.tomoparts.tomoBay.model.data</text>
<text text-anchor="start" x="94" y="-40" font-family="Helvetica,sans-Serif" font-size="10.00">Types.financial.SalesOrderDayBook.</text>
<text text-anchor="middle" x="183.5" y="-29" font-family="Helvetica,sans-Serif" font-size="10.00">AbstractLineItem.partNo</text>
</a>
</g>
</g>
<!-- Node1&#45;&gt;Node2 -->
<g id="edge1" class="edge"><title>Node1&#45;&gt;Node2</title>
<path fill="none" stroke="midnightblue" d="M60.2394,-42.5C68.1035,-42.5 76.8465,-42.5 85.9389,-42.5"/>
<polygon fill="midnightblue" stroke="midnightblue" points="60.1102,-39.0001 50.1102,-42.5 60.1101,-46.0001 60.1102,-39.0001"/>
</g>
<!-- Node3 -->
<g id="node3" class="node"><title>Node3</title>
<g id="a_node3"><a xlink:href="classcom_1_1tomoparts_1_1tomoBay_1_1model_1_1dataTypes_1_1financial_1_1SalesOrderDayBook_1_1PriceAdjustment.html#ad8b7947428df520815c610d319d7375a" target="_top" xlink:title="calculate the total cost (EX VAT) of the testPrices array. ">
<polygon fill="white" stroke="black" points="346.5,-50 346.5,-91 541.5,-91 541.5,-50 346.5,-50"/>
<text text-anchor="start" x="354.5" y="-79" font-family="Helvetica,sans-Serif" font-size="10.00">com.tomoparts.tomoBay.model.data</text>
<text text-anchor="start" x="354.5" y="-68" font-family="Helvetica,sans-Serif" font-size="10.00">Types.financial.SalesOrderDayBook.</text>
<text text-anchor="middle" x="444" y="-57" font-family="Helvetica,sans-Serif" font-size="10.00">PriceAdjustment.calculateTotal</text>
</a>
</g>
</g>
<!-- Node2&#45;&gt;Node3 -->
<g id="edge2" class="edge"><title>Node2&#45;&gt;Node3</title>
<path fill="none" stroke="midnightblue" d="M291.223,-54.0599C309.535,-56.0434 328.469,-58.0943 346.494,-60.0467"/>
<polygon fill="midnightblue" stroke="midnightblue" points="291.442,-50.5633 281.123,-52.966 290.688,-57.5226 291.442,-50.5633"/>
</g>
<!-- Node7 -->
<g id="node7" class="node"><title>Node7</title>
<g id="a_node7"><a xlink:href="classcom_1_1tomoparts_1_1tomoBay_1_1presenters_1_1presenterActions_1_1concreteActions_1_1OrderInfo.html#a703cbb509cdc01530f19b03f573120c9" target="_top" xlink:title="formats the transaction information associated with this order ">
<polygon fill="white" stroke="black" points="317,-0.5 317,-30.5 571,-30.5 571,-0.5 317,-0.5"/>
<text text-anchor="start" x="325" y="-18.5" font-family="Helvetica,sans-Serif" font-size="10.00">com.tomoparts.tomoBay.presenters.presenter</text>
<text text-anchor="middle" x="444" y="-7.5" font-family="Helvetica,sans-Serif" font-size="10.00">Actions.concreteActions.OrderInfo.transactionInfo</text>
</a>
</g>
</g>
<!-- Node2&#45;&gt;Node7 -->
<g id="edge6" class="edge"><title>Node2&#45;&gt;Node7</title>
<path fill="none" stroke="midnightblue" d="M291.281,-31.3469C299.669,-30.4707 308.188,-29.581 316.69,-28.693"/>
<polygon fill="midnightblue" stroke="midnightblue" points="290.706,-27.8878 281.123,-32.4078 291.433,-34.8499 290.706,-27.8878"/>
</g>
<!-- Node4 -->
<g id="node4" class="node"><title>Node4</title>
<g id="a_node4"><a xlink:href="classcom_1_1tomoparts_1_1tomoBay_1_1model_1_1dataTypes_1_1financial_1_1SalesOrderDayBook_1_1PriceAdjustment.html#ac2a5cb96c13a986d05bd0457a1971e2f" target="_top" xlink:title="calculate the adjustments necessary and apply them to the AbstractSalesDayBookLine provided as an arg...">
<polygon fill="white" stroke="black" points="634,-50 634,-91 829,-91 829,-50 634,-50"/>
<text text-anchor="start" x="642" y="-79" font-family="Helvetica,sans-Serif" font-size="10.00">com.tomoparts.tomoBay.model.data</text>
<text text-anchor="start" x="642" y="-68" font-family="Helvetica,sans-Serif" font-size="10.00">Types.financial.SalesOrderDayBook.</text>
<text text-anchor="middle" x="731.5" y="-57" font-family="Helvetica,sans-Serif" font-size="10.00">PriceAdjustment.adjust</text>
</a>
</g>
</g>
<!-- Node3&#45;&gt;Node4 -->
<g id="edge3" class="edge"><title>Node3&#45;&gt;Node4</title>
<path fill="none" stroke="midnightblue" d="M551.879,-70.5C578.807,-70.5 607.555,-70.5 633.942,-70.5"/>
<polygon fill="midnightblue" stroke="midnightblue" points="551.657,-67.0001 541.657,-70.5 551.657,-74.0001 551.657,-67.0001"/>
</g>
<!-- Node5 -->
<g id="node5" class="node"><title>Node5</title>
<g id="a_node5"><a xlink:href="classcom_1_1tomoparts_1_1tomoBay_1_1model_1_1dataTypes_1_1financial_1_1SalesOrderDayBook_1_1AbstractSalesDayBookLine.html#a0c8ce8b50d57fa99babc2c2199a39fe3" target="_top" xlink:title="com.tomoparts.tomoBay.model.data\lTypes.financial.SalesOrderDayBook.\lAbstractSalesDayBookLine.adjustPrices">
<polygon fill="white" stroke="black" points="910,-50 910,-91 1116,-91 1116,-50 910,-50"/>
<text text-anchor="start" x="918" y="-79" font-family="Helvetica,sans-Serif" font-size="10.00">com.tomoparts.tomoBay.model.data</text>
<text text-anchor="start" x="918" y="-68" font-family="Helvetica,sans-Serif" font-size="10.00">Types.financial.SalesOrderDayBook.</text>
<text text-anchor="middle" x="1013" y="-57" font-family="Helvetica,sans-Serif" font-size="10.00">AbstractSalesDayBookLine.adjustPrices</text>
</a>
</g>
</g>
<!-- Node4&#45;&gt;Node5 -->
<g id="edge4" class="edge"><title>Node4&#45;&gt;Node5</title>
<path fill="none" stroke="midnightblue" d="M839.249,-70.5C862.367,-70.5 886.762,-70.5 909.703,-70.5"/>
<polygon fill="midnightblue" stroke="midnightblue" points="839.079,-67.0001 829.079,-70.5 839.079,-74.0001 839.079,-67.0001"/>
</g>
<!-- Node6 -->
<g id="node6" class="node"><title>Node6</title>
<g id="a_node6"><a xlink:href="classcom_1_1tomoparts_1_1tomoBay_1_1model_1_1dataTypes_1_1financial_1_1SalesOrderDayBook_1_1AbstractSalesDayBookLine.html#ae9d19609629c59f8df7ddec196fcc30c" target="_top" xlink:title="CONSTRUCTOR, creates a SalesDayBookLine based on the Order passed in as a parameter. ">
<polygon fill="white" stroke="black" points="1170,-44.5 1170,-96.5 1404,-96.5 1404,-44.5 1170,-44.5"/>
<text text-anchor="start" x="1178" y="-84.5" font-family="Helvetica,sans-Serif" font-size="10.00">com.tomoparts.tomoBay.model.data</text>
<text text-anchor="start" x="1178" y="-73.5" font-family="Helvetica,sans-Serif" font-size="10.00">Types.financial.SalesOrderDayBook.</text>
<text text-anchor="start" x="1178" y="-62.5" font-family="Helvetica,sans-Serif" font-size="10.00">AbstractSalesDayBookLine.AbstractSalesDay</text>
<text text-anchor="middle" x="1287" y="-51.5" font-family="Helvetica,sans-Serif" font-size="10.00">BookLine</text>
</a>
</g>
</g>
<!-- Node5&#45;&gt;Node6 -->
<g id="edge5" class="edge"><title>Node5&#45;&gt;Node6</title>
<path fill="none" stroke="midnightblue" d="M1126.38,-70.5C1140.67,-70.5 1155.31,-70.5 1169.66,-70.5"/>
<polygon fill="midnightblue" stroke="midnightblue" points="1126.06,-67.0001 1116.06,-70.5 1126.06,-74.0001 1126.06,-67.0001"/>
</g>
<!-- Node8 -->
<g id="node8" class="node"><title>Node8</title>
<g id="a_node8"><a xlink:href="classcom_1_1tomoparts_1_1tomoBay_1_1presenters_1_1presenterActions_1_1concreteActions_1_1OrderInfo.html#afeec1aeda079b77245edea1e74b25f33" target="_top" xlink:title="assembles the various parts of the order and outputs it as a fully formed JSON string. ">
<polygon fill="white" stroke="black" points="607,-0.5 607,-30.5 856,-30.5 856,-0.5 607,-0.5"/>
<text text-anchor="start" x="615" y="-18.5" font-family="Helvetica,sans-Serif" font-size="10.00">com.tomoparts.tomoBay.presenters.presenter</text>
<text text-anchor="middle" x="731.5" y="-7.5" font-family="Helvetica,sans-Serif" font-size="10.00">Actions.concreteActions.OrderInfo.formatResults</text>
</a>
</g>
</g>
<!-- Node7&#45;&gt;Node8 -->
<g id="edge7" class="edge"><title>Node7&#45;&gt;Node8</title>
<path fill="none" stroke="midnightblue" d="M581.32,-15.5C589.753,-15.5 598.217,-15.5 606.592,-15.5"/>
<polygon fill="midnightblue" stroke="midnightblue" points="581.056,-12.0001 571.056,-15.5 581.055,-19.0001 581.056,-12.0001"/>
</g>
<!-- Node9 -->
<g id="node9" class="node"><title>Node9</title>
<g id="a_node9"><a xlink:href="classcom_1_1tomoparts_1_1tomoBay_1_1presenters_1_1presenterActions_1_1concreteActions_1_1OrderInfo.html#adb3dedf31dc2c7fc796f20406c235ccd" target="_top" xlink:title="performs the action specified ">
<polygon fill="white" stroke="black" points="892,-0.5 892,-30.5 1134,-30.5 1134,-0.5 892,-0.5"/>
<text text-anchor="start" x="900" y="-18.5" font-family="Helvetica,sans-Serif" font-size="10.00">com.tomoparts.tomoBay.presenters.presenter</text>
<text text-anchor="middle" x="1013" y="-7.5" font-family="Helvetica,sans-Serif" font-size="10.00">Actions.concreteActions.OrderInfo.execute</text>
</a>
</g>
</g>
<!-- Node8&#45;&gt;Node9 -->
<g id="edge8" class="edge"><title>Node8&#45;&gt;Node9</title>
<path fill="none" stroke="midnightblue" d="M866.322,-15.5C874.865,-15.5 883.439,-15.5 891.914,-15.5"/>
<polygon fill="midnightblue" stroke="midnightblue" points="866.313,-12.0001 856.313,-15.5 866.313,-19.0001 866.313,-12.0001"/>
</g>
</g>
</svg>
