<?xml version="1.0" encoding="UTF-8" standalone="no"?>
<!DOCTYPE svg PUBLIC "-//W3C//DTD SVG 1.1//EN"
 "http://www.w3.org/Graphics/SVG/1.1/DTD/svg11.dtd">
<!-- Generated by graphviz version 2.38.0 (20140413.2041)
 -->
<!-- Title: street1 Pages: 1 -->
<svg width="900pt" height="100pt"
 viewBox="0.00 0.00 900.00 99.50" xmlns="http://www.w3.org/2000/svg" xmlns:xlink="http://www.w3.org/1999/xlink">
<g id="graph0" class="graph" transform="scale(1 1) rotate(0) translate(4 95.5)">
<title>street1</title>
<polygon fill="white" stroke="none" points="-4,4 -4,-95.5 896,-95.5 896,4 -4,4"/>
<!-- Node1 -->
<g id="node1" class="node"><title>Node1</title>
<polygon fill="#bfbfbf" stroke="black" points="0,-38.5 0,-57.5 51,-57.5 51,-38.5 0,-38.5"/>
<text text-anchor="middle" x="25.5" y="-45.5" font-family="Helvetica,sans-Serif" font-size="10.00">street1</text>
</g>
<!-- Node2 -->
<g id="node2" class="node"><title>Node2</title>
<g id="a_node2"><a xlink:href="classcom_1_1tomoparts_1_1tomoBay_1_1presenters_1_1presenterActions_1_1concreteActions_1_1OrderInfo.html#a0efe6811d772c53811b18a441c11b757" target="_top" xlink:title="formats the buyer information associated with this order ">
<polygon fill="white" stroke="black" points="87,-61 87,-91 329,-91 329,-61 87,-61"/>
<text text-anchor="start" x="95" y="-79" font-family="Helvetica,sans-Serif" font-size="10.00">com.tomoparts.tomoBay.presenters.presenter</text>
<text text-anchor="middle" x="208" y="-68" font-family="Helvetica,sans-Serif" font-size="10.00">Actions.concreteActions.OrderInfo.buyerInfo</text>
</a>
</g>
</g>
<!-- Node1&#45;&gt;Node2 -->
<g id="edge1" class="edge"><title>Node1&#45;&gt;Node2</title>
<path fill="none" stroke="midnightblue" d="M61.4126,-53.4158C75.5513,-55.6091 92.641,-58.2601 110.065,-60.963"/>
<polygon fill="midnightblue" stroke="midnightblue" points="61.6376,-49.9089 51.2193,-51.8346 60.5646,-56.8262 61.6376,-49.9089"/>
</g>
<!-- Node5 -->
<g id="node5" class="node"><title>Node5</title>
<g id="a_node5"><a xlink:href="classcom_1_1tomoparts_1_1tomoBay_1_1model_1_1dataTypes_1_1financial_1_1SalesOrderDayBook_1_1formats_1_1WinstockFormat.html#accefd62bc10c59d9ba78937d90a5fa8c" target="_top" xlink:title="com.tomoparts.tomoBay.model.data\lTypes.financial.SalesOrderDayBook.formats.\lWinstockFormat.format">
<polygon fill="white" stroke="black" points="93.5,-0.5 93.5,-41.5 322.5,-41.5 322.5,-0.5 93.5,-0.5"/>
<text text-anchor="start" x="101.5" y="-29.5" font-family="Helvetica,sans-Serif" font-size="10.00">com.tomoparts.tomoBay.model.data</text>
<text text-anchor="start" x="101.5" y="-18.5" font-family="Helvetica,sans-Serif" font-size="10.00">Types.financial.SalesOrderDayBook.formats.</text>
<text text-anchor="middle" x="208" y="-7.5" font-family="Helvetica,sans-Serif" font-size="10.00">WinstockFormat.format</text>
</a>
</g>
</g>
<!-- Node1&#45;&gt;Node5 -->
<g id="edge4" class="edge"><title>Node1&#45;&gt;Node5</title>
<path fill="none" stroke="midnightblue" d="M61.3818,-42.7822C70.9279,-41.3543 81.821,-39.7248 93.2548,-38.0145"/>
<polygon fill="midnightblue" stroke="midnightblue" points="60.5914,-39.3614 51.2193,-44.3024 61.6271,-46.2844 60.5914,-39.3614"/>
</g>
<!-- Node3 -->
<g id="node3" class="node"><title>Node3</title>
<g id="a_node3"><a xlink:href="classcom_1_1tomoparts_1_1tomoBay_1_1presenters_1_1presenterActions_1_1concreteActions_1_1OrderInfo.html#afeec1aeda079b77245edea1e74b25f33" target="_top" xlink:title="assembles the various parts of the order and outputs it as a fully formed JSON string. ">
<polygon fill="white" stroke="black" points="365,-61 365,-91 614,-91 614,-61 365,-61"/>
<text text-anchor="start" x="373" y="-79" font-family="Helvetica,sans-Serif" font-size="10.00">com.tomoparts.tomoBay.presenters.presenter</text>
<text text-anchor="middle" x="489.5" y="-68" font-family="Helvetica,sans-Serif" font-size="10.00">Actions.concreteActions.OrderInfo.formatResults</text>
</a>
</g>
</g>
<!-- Node2&#45;&gt;Node3 -->
<g id="edge2" class="edge"><title>Node2&#45;&gt;Node3</title>
<path fill="none" stroke="midnightblue" d="M339.18,-76C347.745,-76 356.358,-76 364.89,-76"/>
<polygon fill="midnightblue" stroke="midnightblue" points="339.155,-72.5001 329.155,-76 339.155,-79.5001 339.155,-72.5001"/>
</g>
<!-- Node4 -->
<g id="node4" class="node"><title>Node4</title>
<g id="a_node4"><a xlink:href="classcom_1_1tomoparts_1_1tomoBay_1_1presenters_1_1presenterActions_1_1concreteActions_1_1OrderInfo.html#adb3dedf31dc2c7fc796f20406c235ccd" target="_top" xlink:title="performs the action specified ">
<polygon fill="white" stroke="black" points="650,-61 650,-91 892,-91 892,-61 650,-61"/>
<text text-anchor="start" x="658" y="-79" font-family="Helvetica,sans-Serif" font-size="10.00">com.tomoparts.tomoBay.presenters.presenter</text>
<text text-anchor="middle" x="771" y="-68" font-family="Helvetica,sans-Serif" font-size="10.00">Actions.concreteActions.OrderInfo.execute</text>
</a>
</g>
</g>
<!-- Node3&#45;&gt;Node4 -->
<g id="edge3" class="edge"><title>Node3&#45;&gt;Node4</title>
<path fill="none" stroke="midnightblue" d="M624.322,-76C632.865,-76 641.439,-76 649.914,-76"/>
<polygon fill="midnightblue" stroke="midnightblue" points="624.313,-72.5001 614.313,-76 624.313,-79.5001 624.313,-72.5001"/>
</g>
</g>
</svg>
