<?xml version="1.0" encoding="UTF-8" standalone="no"?>
<!DOCTYPE svg PUBLIC "-//W3C//DTD SVG 1.1//EN"
 "http://www.w3.org/Graphics/SVG/1.1/DTD/svg11.dtd">
<!-- Generated by graphviz version 2.38.0 (20140413.2041)
 -->
<!-- Title: ItemCall Pages: 1 -->
<svg width="341pt" height="193pt"
 viewBox="0.00 0.00 341.00 193.00" xmlns="http://www.w3.org/2000/svg" xmlns:xlink="http://www.w3.org/1999/xlink">
<g id="graph0" class="graph" transform="scale(1 1) rotate(0) translate(4 189)">
<title>ItemCall</title>
<polygon fill="white" stroke="none" points="-4,4 -4,-189 337,-189 337,4 -4,4"/>
<!-- Node1 -->
<g id="node1" class="node"><title>Node1</title>
<polygon fill="#bfbfbf" stroke="black" points="124.5,-0.5 124.5,-68.5 198.5,-68.5 198.5,-0.5 124.5,-0.5"/>
<text text-anchor="middle" x="161.5" y="-56.5" font-family="Helvetica,sans-Serif" font-size="10.00">ItemCall</text>
<polyline fill="none" stroke="black" points="124.5,-49.5 198.5,-49.5 "/>
<text text-anchor="middle" x="161.5" y="-37.5" font-family="Helvetica,sans-Serif" font-size="10.00"> </text>
<polyline fill="none" stroke="black" points="124.5,-30.5 198.5,-30.5 "/>
<text text-anchor="start" x="132.5" y="-18.5" font-family="Helvetica,sans-Serif" font-size="10.00">+ ItemCall()</text>
<text text-anchor="start" x="132.5" y="-7.5" font-family="Helvetica,sans-Serif" font-size="10.00">+ call()</text>
</g>
<!-- Node2 -->
<g id="node2" class="node"><title>Node2</title>
<g id="a_node2"><a xlink:href="classcom_1_1tomoparts_1_1tomoBay_1_1model_1_1eBayAPI_1_1AbstractAPIcall.html" target="_top" xlink:title="This is the abstract base class for all the recievers in this command pattern, it provides a common w...">
<polygon fill="white" stroke="black" points="0,-116.5 0,-184.5 107,-184.5 107,-116.5 0,-116.5"/>
<text text-anchor="middle" x="53.5" y="-172.5" font-family="Helvetica,sans-Serif" font-size="10.00">AbstractAPIcall</text>
<polyline fill="none" stroke="black" points="0,-165.5 107,-165.5 "/>
<text text-anchor="start" x="8" y="-153.5" font-family="Helvetica,sans-Serif" font-size="10.00"># usrToken_M</text>
<text text-anchor="start" x="8" y="-142.5" font-family="Helvetica,sans-Serif" font-size="10.00"># server_M</text>
<polyline fill="none" stroke="black" points="0,-135.5 107,-135.5 "/>
<text text-anchor="start" x="8" y="-123.5" font-family="Helvetica,sans-Serif" font-size="10.00"># AbstractAPIcall()</text>
</a>
</g>
</g>
<!-- Node2&#45;&gt;Node1 -->
<g id="edge1" class="edge"><title>Node2&#45;&gt;Node1</title>
<path fill="none" stroke="midnightblue" d="M92.1965,-108.654C104.641,-95.5179 118.267,-81.1346 130.119,-68.6243"/>
<polygon fill="none" stroke="midnightblue" points="89.365,-106.553 85.0284,-116.22 94.4467,-111.368 89.365,-106.553"/>
</g>
<!-- Node3 -->
<g id="node3" class="node"><title>Node3</title>
<polygon fill="white" stroke="#bfbfbf" points="125,-122 125,-179 198,-179 198,-122 125,-122"/>
<text text-anchor="middle" x="161.5" y="-167" font-family="Helvetica,sans-Serif" font-size="10.00">GetItemCall</text>
<polyline fill="none" stroke="#bfbfbf" points="125,-160 198,-160 "/>
<text text-anchor="middle" x="161.5" y="-148" font-family="Helvetica,sans-Serif" font-size="10.00"> </text>
<polyline fill="none" stroke="#bfbfbf" points="125,-141 198,-141 "/>
<text text-anchor="middle" x="161.5" y="-129" font-family="Helvetica,sans-Serif" font-size="10.00"> </text>
</g>
<!-- Node3&#45;&gt;Node1 -->
<g id="edge2" class="edge"><title>Node3&#45;&gt;Node1</title>
<path fill="none" stroke="#404040" d="M161.5,-121.904C161.5,-109.594 161.5,-94.7638 161.5,-80.8919"/>
<polygon fill="none" stroke="#404040" points="161.5,-80.5214 157.5,-74.5214 161.5,-68.5214 165.5,-74.5213 161.5,-80.5214"/>
<text text-anchor="middle" x="185" y="-90" font-family="Helvetica,sans-Serif" font-size="10.00"> ~item_M</text>
</g>
<!-- Node4 -->
<g id="node4" class="node"><title>Node4</title>
<polygon fill="white" stroke="#bfbfbf" points="216,-122 216,-179 333,-179 333,-122 216,-122"/>
<text text-anchor="middle" x="274.5" y="-167" font-family="Helvetica,sans-Serif" font-size="10.00">GetItemRequestType</text>
<polyline fill="none" stroke="#bfbfbf" points="216,-160 333,-160 "/>
<text text-anchor="middle" x="274.5" y="-148" font-family="Helvetica,sans-Serif" font-size="10.00"> </text>
<polyline fill="none" stroke="#bfbfbf" points="216,-141 333,-141 "/>
<text text-anchor="middle" x="274.5" y="-129" font-family="Helvetica,sans-Serif" font-size="10.00"> </text>
</g>
<!-- Node4&#45;&gt;Node1 -->
<g id="edge3" class="edge"><title>Node4&#45;&gt;Node1</title>
<path fill="none" stroke="#404040" d="M247.146,-121.904C233.823,-108.463 217.523,-92.0187 202.732,-77.0969"/>
<polygon fill="none" stroke="#404040" points="202.68,-77.044 195.615,-75.5986 194.232,-68.5214 201.296,-69.9667 202.68,-77.044"/>
<text text-anchor="middle" x="252" y="-90" font-family="Helvetica,sans-Serif" font-size="10.00"> ~itemreq_M</text>
</g>
</g>
</svg>
