<?xml version="1.0" encoding="UTF-8" standalone="no"?>
<!DOCTYPE svg PUBLIC "-//W3C//DTD SVG 1.1//EN"
 "http://www.w3.org/Graphics/SVG/1.1/DTD/svg11.dtd">
<!-- Generated by graphviz version 2.38.0 (20140413.2041)
 -->
<!-- Title: execute Pages: 1 -->
<svg width="863pt" height="380pt"
 viewBox="0.00 0.00 863.00 380.00" xmlns="http://www.w3.org/2000/svg" xmlns:xlink="http://www.w3.org/1999/xlink">
<g id="graph0" class="graph" transform="scale(1 1) rotate(0) translate(4 376)">
<title>execute</title>
<polygon fill="white" stroke="none" points="-4,4 -4,-376 859,-376 859,4 -4,4"/>
<!-- Node1 -->
<g id="node1" class="node"><title>Node1</title>
<polygon fill="#bfbfbf" stroke="black" points="0,-249 0,-268 55,-268 55,-249 0,-249"/>
<text text-anchor="middle" x="27.5" y="-256" font-family="Helvetica,sans-Serif" font-size="10.00">execute</text>
</g>
<!-- Node2 -->
<g id="node2" class="node"><title>Node2</title>
<g id="a_node2"><a xlink:href="classcom_1_1tomoparts_1_1tomoBay_1_1helpers_1_1BrandToCode.html#a10207714bd294d73dd98b80fd94a2ab8" target="_top" xlink:title="converts converts a string like &quot;citroen&quot; or &quot;fOrd&quot; to a brandcode integer specific to winstock...">
<polygon fill="white" stroke="black" points="120,-341.5 120,-371.5 305,-371.5 305,-341.5 120,-341.5"/>
<text text-anchor="start" x="128" y="-359.5" font-family="Helvetica,sans-Serif" font-size="10.00">com.tomoparts.tomoBay.helpers.</text>
<text text-anchor="middle" x="212.5" y="-348.5" font-family="Helvetica,sans-Serif" font-size="10.00">BrandToCode.convertToWinstockInt</text>
</a>
</g>
</g>
<!-- Node1&#45;&gt;Node2 -->
<g id="edge1" class="edge"><title>Node1&#45;&gt;Node2</title>
<path fill="none" stroke="midnightblue" d="M33.771,-268.247C43.0509,-284.401 63.9159,-316.521 91,-332.5 96.9867,-336.032 103.402,-339.054 110.039,-341.638"/>
<polygon fill="midnightblue" stroke="midnightblue" points="109.304,-345.09 119.898,-345.119 111.634,-338.489 109.304,-345.09"/>
</g>
<!-- Node4 -->
<g id="node4" class="node"><title>Node4</title>
<g id="a_node4"><a xlink:href="classcom_1_1tomoparts_1_1tomoBay_1_1model_1_1sql_1_1framework_1_1SelectQueryInvoker.html#a594282bcbcc0731a7d234482717422d7" target="_top" xlink:title="execute a requested query ">
<polygon fill="white" stroke="black" points="91,-292.5 91,-322.5 334,-322.5 334,-292.5 91,-292.5"/>
<text text-anchor="start" x="99" y="-310.5" font-family="Helvetica,sans-Serif" font-size="10.00">com.tomoparts.tomoBay.model.sql.framework.</text>
<text text-anchor="middle" x="212.5" y="-299.5" font-family="Helvetica,sans-Serif" font-size="10.00">SelectQueryInvoker.execute</text>
</a>
</g>
</g>
<!-- Node1&#45;&gt;Node4 -->
<g id="edge3" class="edge"><title>Node1&#45;&gt;Node4</title>
<path fill="none" stroke="midnightblue" d="M49.5617,-268.051C61.5226,-273.188 76.8837,-279.31 91,-283.5 99.0103,-285.878 107.391,-288.09 115.84,-290.131"/>
<polygon fill="midnightblue" stroke="midnightblue" points="115.239,-293.585 125.773,-292.449 116.83,-286.768 115.239,-293.585"/>
</g>
<!-- Node5 -->
<g id="node5" class="node"><title>Node5</title>
<g id="a_node5"><a xlink:href="classcom_1_1tomoparts_1_1tomoBay_1_1model_1_1dataTypes_1_1PartList.html#af4aaf5b8fadfc85ebed2a9c4d683fba5" target="_top" xlink:title="get the part numbers as a whole ">
<polygon fill="white" stroke="black" points="115,-243.5 115,-273.5 310,-273.5 310,-243.5 115,-243.5"/>
<text text-anchor="start" x="123" y="-261.5" font-family="Helvetica,sans-Serif" font-size="10.00">com.tomoparts.tomoBay.model.data</text>
<text text-anchor="middle" x="212.5" y="-250.5" font-family="Helvetica,sans-Serif" font-size="10.00">Types.PartList.getPartNumbers</text>
</a>
</g>
</g>
<!-- Node1&#45;&gt;Node5 -->
<g id="edge4" class="edge"><title>Node1&#45;&gt;Node5</title>
<path fill="none" stroke="midnightblue" d="M55.1098,-258.5C68.6596,-258.5 86.1209,-258.5 104.44,-258.5"/>
<polygon fill="midnightblue" stroke="midnightblue" points="104.685,-262 114.685,-258.5 104.685,-255 104.685,-262"/>
</g>
<!-- Node6 -->
<g id="node6" class="node"><title>Node6</title>
<g id="a_node6"><a xlink:href="classcom_1_1tomoparts_1_1tomoBay_1_1model_1_1winstock_1_1Stock.html#a06d21b6ad2b8a746c52fadb5d4711778" target="_top" xlink:title="query winstock for the stock level of a particular part. ">
<polygon fill="white" stroke="black" points="104,-194.5 104,-224.5 321,-224.5 321,-194.5 104,-194.5"/>
<text text-anchor="start" x="112" y="-212.5" font-family="Helvetica,sans-Serif" font-size="10.00">com.tomoparts.tomoBay.model.winstock.</text>
<text text-anchor="middle" x="212.5" y="-201.5" font-family="Helvetica,sans-Serif" font-size="10.00">Stock.requestStockLevel</text>
</a>
</g>
</g>
<!-- Node1&#45;&gt;Node6 -->
<g id="edge5" class="edge"><title>Node1&#45;&gt;Node6</title>
<path fill="none" stroke="midnightblue" d="M50.7622,-248.941C62.5618,-244.133 77.3941,-238.495 91,-234.5 100.379,-231.746 110.254,-229.178 120.148,-226.817"/>
<polygon fill="midnightblue" stroke="midnightblue" points="121.08,-230.194 130.032,-224.527 119.5,-223.375 121.08,-230.194"/>
</g>
<!-- Node11 -->
<g id="node11" class="node"><title>Node11</title>
<g id="a_node11"><a xlink:href="classcom_1_1tomoparts_1_1tomoBay_1_1model_1_1services_1_1checkErrorsService_1_1OnRunning.html#a31cd6cc646f62a47db7edc3f4f8d2da5" target="_top" xlink:title="this method updates the notes field in the database to reflect the error that has been found ...">
<polygon fill="white" stroke="black" points="165,-91 165,-110 260,-110 260,-91 165,-91"/>
<text text-anchor="middle" x="212.5" y="-98" font-family="Helvetica,sans-Serif" font-size="10.00">updateItemNote</text>
</a>
</g>
</g>
<!-- Node1&#45;&gt;Node11 -->
<g id="edge10" class="edge"><title>Node1&#45;&gt;Node11</title>
<path fill="none" stroke="midnightblue" d="M35.4777,-248.693C46.3335,-233.821 68.3803,-205.117 91,-184.5 121.215,-156.961 160.842,-130.972 186.244,-115.391"/>
<polygon fill="midnightblue" stroke="midnightblue" points="188.175,-118.313 194.915,-110.138 184.548,-112.326 188.175,-118.313"/>
</g>
<!-- Node3 -->
<g id="node3" class="node"><title>Node3</title>
<g id="a_node3"><a xlink:href="classcom_1_1tomoparts_1_1tomoBay_1_1helpers_1_1BrandToCode.html#a84072526fa5d5ce298cdceffc81f43e7" target="_top" xlink:title="converts a string like &quot;citroen&quot; or &quot;fOrd&quot; to a brandcode specific to winstock. ">
<polygon fill="white" stroke="black" points="402,-341.5 402,-371.5 581,-371.5 581,-341.5 402,-341.5"/>
<text text-anchor="start" x="410" y="-359.5" font-family="Helvetica,sans-Serif" font-size="10.00">com.tomoparts.tomoBay.helpers.</text>
<text text-anchor="middle" x="491.5" y="-348.5" font-family="Helvetica,sans-Serif" font-size="10.00">BrandToCode.convert</text>
</a>
</g>
</g>
<!-- Node2&#45;&gt;Node3 -->
<g id="edge2" class="edge"><title>Node2&#45;&gt;Node3</title>
<path fill="none" stroke="midnightblue" d="M305.352,-356.5C332.983,-356.5 363.419,-356.5 391.493,-356.5"/>
<polygon fill="midnightblue" stroke="midnightblue" points="391.719,-360 401.719,-356.5 391.719,-353 391.719,-360"/>
</g>
<!-- Node7 -->
<g id="node7" class="node"><title>Node7</title>
<g id="a_node7"><a xlink:href="classcom_1_1tomoparts_1_1tomoBay_1_1model_1_1winstock_1_1Stock.html#a82b5421e7d3a2ba82bdc5d54b09a8069" target="_top" xlink:title="com.tomoparts.tomoBay.model.winstock.\lStock.queryWinstockURL">
<polygon fill="white" stroke="black" points="383,-268.5 383,-298.5 600,-298.5 600,-268.5 383,-268.5"/>
<text text-anchor="start" x="391" y="-286.5" font-family="Helvetica,sans-Serif" font-size="10.00">com.tomoparts.tomoBay.model.winstock.</text>
<text text-anchor="middle" x="491.5" y="-275.5" font-family="Helvetica,sans-Serif" font-size="10.00">Stock.queryWinstockURL</text>
</a>
</g>
</g>
<!-- Node6&#45;&gt;Node7 -->
<g id="edge6" class="edge"><title>Node6&#45;&gt;Node7</title>
<path fill="none" stroke="midnightblue" d="M305.497,-224.537C315.294,-227.328 324.97,-230.62 334,-234.5 351.898,-242.189 352.072,-251.882 370,-259.5 375.092,-261.664 380.389,-263.635 385.798,-265.432"/>
<polygon fill="midnightblue" stroke="midnightblue" points="385.045,-268.862 395.633,-268.479 387.117,-262.176 385.045,-268.862"/>
</g>
<!-- Node8 -->
<g id="node8" class="node"><title>Node8</title>
<g id="a_node8"><a xlink:href="classcom_1_1tomoparts_1_1tomoBay_1_1model_1_1winstock_1_1Stock.html#a42fa652d82ed49749a0ad929a6c798d0" target="_top" xlink:title="remove the header bumpf from the bottom of the response ">
<polygon fill="white" stroke="black" points="383,-219.5 383,-249.5 600,-249.5 600,-219.5 383,-219.5"/>
<text text-anchor="start" x="391" y="-237.5" font-family="Helvetica,sans-Serif" font-size="10.00">com.tomoparts.tomoBay.model.winstock.</text>
<text text-anchor="middle" x="491.5" y="-226.5" font-family="Helvetica,sans-Serif" font-size="10.00">Stock.postFormatXMLString</text>
</a>
</g>
</g>
<!-- Node6&#45;&gt;Node8 -->
<g id="edge7" class="edge"><title>Node6&#45;&gt;Node8</title>
<path fill="none" stroke="midnightblue" d="M321.389,-219.237C338.278,-220.762 355.806,-222.344 372.9,-223.886"/>
<polygon fill="midnightblue" stroke="midnightblue" points="372.632,-227.376 382.906,-224.789 373.261,-220.405 372.632,-227.376"/>
</g>
<!-- Node10 -->
<g id="node10" class="node"><title>Node10</title>
<g id="a_node10"><a xlink:href="classcom_1_1tomoparts_1_1tomoBay_1_1helpers_1_1XMLParser.html#a9936151017dd4e908cf37d453b22c8ef" target="_top" xlink:title="parses an XML formatted string looking for the first tag specified in the parameters. ">
<polygon fill="white" stroke="black" points="402,-170.5 402,-200.5 581,-200.5 581,-170.5 402,-170.5"/>
<text text-anchor="start" x="410" y="-188.5" font-family="Helvetica,sans-Serif" font-size="10.00">com.tomoparts.tomoBay.helpers.</text>
<text text-anchor="middle" x="491.5" y="-177.5" font-family="Helvetica,sans-Serif" font-size="10.00">XMLParser.parse</text>
</a>
</g>
</g>
<!-- Node6&#45;&gt;Node10 -->
<g id="edge9" class="edge"><title>Node6&#45;&gt;Node10</title>
<path fill="none" stroke="midnightblue" d="M321.389,-200.152C344.546,-198.146 368.905,-196.035 391.697,-194.061"/>
<polygon fill="midnightblue" stroke="midnightblue" points="392.043,-197.544 401.704,-193.194 391.439,-190.57 392.043,-197.544"/>
</g>
<!-- Node9 -->
<g id="node9" class="node"><title>Node9</title>
<g id="a_node9"><a xlink:href="classcom_1_1tomoparts_1_1tomoBay_1_1model_1_1net_1_1HttpResponse.html#afb798c825935128953439404fb763997" target="_top" xlink:title="get the Response message ">
<polygon fill="white" stroke="black" points="656,-219.5 656,-249.5 848,-249.5 848,-219.5 656,-219.5"/>
<text text-anchor="start" x="664" y="-237.5" font-family="Helvetica,sans-Serif" font-size="10.00">com.tomoparts.tomoBay.model.net.</text>
<text text-anchor="middle" x="752" y="-226.5" font-family="Helvetica,sans-Serif" font-size="10.00">HttpResponse.getResponseMessage</text>
</a>
</g>
</g>
<!-- Node8&#45;&gt;Node9 -->
<g id="edge8" class="edge"><title>Node8&#45;&gt;Node9</title>
<path fill="none" stroke="midnightblue" d="M600.255,-234.5C615.226,-234.5 630.592,-234.5 645.52,-234.5"/>
<polygon fill="midnightblue" stroke="midnightblue" points="645.775,-238 655.775,-234.5 645.774,-231 645.775,-238"/>
</g>
<!-- Node12 -->
<g id="node12" class="node"><title>Node12</title>
<g id="a_node12"><a xlink:href="classcom_1_1tomoparts_1_1tomoBay_1_1model_1_1dataTypes_1_1heteroTypeContainer_1_1HeteroFieldContainer.html#a988363ab964d6dc0ccb8560bef5895b6" target="_top" xlink:title="retrieve the the value of an AbstractField from this HeteroFieldContainer, the field should be of the...">
<polygon fill="white" stroke="black" points="388.5,-110 388.5,-151 594.5,-151 594.5,-110 388.5,-110"/>
<text text-anchor="start" x="396.5" y="-139" font-family="Helvetica,sans-Serif" font-size="10.00">com.tomoparts.tomoBay.model.data</text>
<text text-anchor="start" x="396.5" y="-128" font-family="Helvetica,sans-Serif" font-size="10.00">Types.heteroTypeContainer.HeteroField</text>
<text text-anchor="middle" x="491.5" y="-117" font-family="Helvetica,sans-Serif" font-size="10.00">Container.get</text>
</a>
</g>
</g>
<!-- Node11&#45;&gt;Node12 -->
<g id="edge11" class="edge"><title>Node11&#45;&gt;Node12</title>
<path fill="none" stroke="midnightblue" d="M260.176,-105.555C292.51,-109.057 336.997,-113.875 378.256,-118.344"/>
<polygon fill="midnightblue" stroke="midnightblue" points="378.069,-121.844 388.387,-119.441 378.822,-114.884 378.069,-121.844"/>
</g>
<!-- Node14 -->
<g id="node14" class="node"><title>Node14</title>
<g id="a_node14"><a xlink:href="classcom_1_1tomoparts_1_1tomoBay_1_1model_1_1dataTypes_1_1heteroTypeContainer_1_1HeteroFieldContainer.html#a3ba6289417930238a36bfee0056b6398" target="_top" xlink:title="add an arbitrary value to this Field container with the stipulation that this value is of the same ty...">
<polygon fill="white" stroke="black" points="388.5,-50 388.5,-91 594.5,-91 594.5,-50 388.5,-50"/>
<text text-anchor="start" x="396.5" y="-79" font-family="Helvetica,sans-Serif" font-size="10.00">com.tomoparts.tomoBay.model.data</text>
<text text-anchor="start" x="396.5" y="-68" font-family="Helvetica,sans-Serif" font-size="10.00">Types.heteroTypeContainer.HeteroField</text>
<text text-anchor="middle" x="491.5" y="-57" font-family="Helvetica,sans-Serif" font-size="10.00">Container.add</text>
</a>
</g>
</g>
<!-- Node11&#45;&gt;Node14 -->
<g id="edge13" class="edge"><title>Node11&#45;&gt;Node14</title>
<path fill="none" stroke="midnightblue" d="M260.176,-95.4448C292.51,-91.943 336.997,-87.1249 378.256,-82.6564"/>
<polygon fill="midnightblue" stroke="midnightblue" points="378.822,-86.1156 388.387,-81.5591 378.069,-79.1563 378.822,-86.1156"/>
</g>
<!-- Node15 -->
<g id="node15" class="node"><title>Node15</title>
<g id="a_node15"><a xlink:href="classcom_1_1tomoparts_1_1tomoBay_1_1model_1_1sql_1_1framework_1_1ModifyQueryInvoker.html#ab8ef0fdf15f6720620e297c77ab25d46" target="_top" xlink:title="com.tomoparts.tomoBay.model.sql.framework.\lModifyQueryInvoker.execute">
<polygon fill="white" stroke="black" points="370,-0.5 370,-30.5 613,-30.5 613,-0.5 370,-0.5"/>
<text text-anchor="start" x="378" y="-18.5" font-family="Helvetica,sans-Serif" font-size="10.00">com.tomoparts.tomoBay.model.sql.framework.</text>
<text text-anchor="middle" x="491.5" y="-7.5" font-family="Helvetica,sans-Serif" font-size="10.00">ModifyQueryInvoker.execute</text>
</a>
</g>
</g>
<!-- Node11&#45;&gt;Node15 -->
<g id="edge15" class="edge"><title>Node11&#45;&gt;Node15</title>
<path fill="none" stroke="midnightblue" d="M235.146,-90.9173C264.999,-77.9995 320.718,-54.9564 370,-40.5 379.38,-37.7486 389.255,-35.1822 399.15,-32.8225"/>
<polygon fill="midnightblue" stroke="midnightblue" points="400.081,-36.1994 409.033,-30.5325 398.501,-29.3801 400.081,-36.1994"/>
</g>
<!-- Node13 -->
<g id="node13" class="node"><title>Node13</title>
<g id="a_node13"><a xlink:href="classcom_1_1tomoparts_1_1tomoBay_1_1model_1_1dataTypes_1_1heteroTypeContainer_1_1HeteroFieldContainer.html#a9dee3c01eb5ab16203e1c6820a569484" target="_top" xlink:title="performs a type check, assuming that field and type are of the same type then this method returns tru...">
<polygon fill="white" stroke="black" points="649,-80 649,-121 855,-121 855,-80 649,-80"/>
<text text-anchor="start" x="657" y="-109" font-family="Helvetica,sans-Serif" font-size="10.00">com.tomoparts.tomoBay.model.data</text>
<text text-anchor="start" x="657" y="-98" font-family="Helvetica,sans-Serif" font-size="10.00">Types.heteroTypeContainer.HeteroField</text>
<text text-anchor="middle" x="752" y="-87" font-family="Helvetica,sans-Serif" font-size="10.00">Container.isSameType</text>
</a>
</g>
</g>
<!-- Node12&#45;&gt;Node13 -->
<g id="edge12" class="edge"><title>Node12&#45;&gt;Node13</title>
<path fill="none" stroke="midnightblue" d="M594.666,-118.643C609.114,-116.967 624.034,-115.235 638.66,-113.538"/>
<polygon fill="midnightblue" stroke="midnightblue" points="639.2,-116.998 648.73,-112.369 638.393,-110.045 639.2,-116.998"/>
</g>
<!-- Node14&#45;&gt;Node13 -->
<g id="edge14" class="edge"><title>Node14&#45;&gt;Node13</title>
<path fill="none" stroke="midnightblue" d="M594.666,-82.3568C609.114,-84.0335 624.034,-85.765 638.66,-87.4625"/>
<polygon fill="midnightblue" stroke="midnightblue" points="638.393,-90.9549 648.73,-88.6311 639.2,-84.0015 638.393,-90.9549"/>
</g>
</g>
</svg>
