<?xml version="1.0" encoding="UTF-8" standalone="no"?>
<!DOCTYPE svg PUBLIC "-//W3C//DTD SVG 1.1//EN"
 "http://www.w3.org/Graphics/SVG/1.1/DTD/svg11.dtd">
<!-- Generated by graphviz version 2.38.0 (20140413.2041)
 -->
<!-- Title: evaluate Pages: 1 -->
<svg width="650pt" height="186pt"
 viewBox="0.00 0.00 650.00 186.00" xmlns="http://www.w3.org/2000/svg" xmlns:xlink="http://www.w3.org/1999/xlink">
<g id="graph0" class="graph" transform="scale(1 1) rotate(0) translate(4 182)">
<title>evaluate</title>
<polygon fill="white" stroke="none" points="-4,4 -4,-182 646,-182 646,4 -4,4"/>
<!-- Node1 -->
<g id="node1" class="node"><title>Node1</title>
<polygon fill="#bfbfbf" stroke="black" points="0,-79 0,-98 58,-98 58,-79 0,-79"/>
<text text-anchor="middle" x="29" y="-86" font-family="Helvetica,sans-Serif" font-size="10.00">evaluate</text>
</g>
<!-- Node2 -->
<g id="node2" class="node"><title>Node2</title>
<g id="a_node2"><a xlink:href="classcom_1_1tomoparts_1_1tomoBay_1_1presenters_1_1sales_1_1SalesOrderPresenter.html#a2b6f67a7e537dbe24657a74d1df8a17f" target="_top" xlink:title="this method checks the pickeability of the uninvoiced orders and modifies the invoiced column of the ...">
<polygon fill="white" stroke="black" points="127,-147.5 127,-177.5 350,-177.5 350,-147.5 127,-147.5"/>
<text text-anchor="start" x="135" y="-165.5" font-family="Helvetica,sans-Serif" font-size="10.00">com.tomoparts.tomoBay.presenters.sales.</text>
<text text-anchor="middle" x="238.5" y="-154.5" font-family="Helvetica,sans-Serif" font-size="10.00">SalesOrderPresenter.checkPickability</text>
</a>
</g>
</g>
<!-- Node1&#45;&gt;Node2 -->
<g id="edge1" class="edge"><title>Node1&#45;&gt;Node2</title>
<path fill="none" stroke="midnightblue" d="M46.8726,-105.552C58.9521,-116.722 76.1733,-130.657 94,-138.5 104.404,-143.077 115.585,-146.787 126.947,-149.793"/>
<polygon fill="midnightblue" stroke="midnightblue" points="49.0258,-102.767 39.387,-98.3689 44.1793,-107.818 49.0258,-102.767"/>
</g>
<!-- Node4 -->
<g id="node4" class="node"><title>Node4</title>
<g id="a_node4"><a xlink:href="classcom_1_1tomoparts_1_1tomoBay_1_1presenters_1_1helpers_1_1pickeability_1_1AllPickeableResult.html#a10604e1d3a05544addde64d28eac0ebe" target="_top" xlink:title="com.tomoparts.tomoBay.presenters.helpers.pickeability.\lAllPickeableResult.result">
<polygon fill="white" stroke="black" points="94,-98.5 94,-128.5 383,-128.5 383,-98.5 94,-98.5"/>
<text text-anchor="start" x="102" y="-116.5" font-family="Helvetica,sans-Serif" font-size="10.00">com.tomoparts.tomoBay.presenters.helpers.pickeability.</text>
<text text-anchor="middle" x="238.5" y="-105.5" font-family="Helvetica,sans-Serif" font-size="10.00">AllPickeableResult.result</text>
</a>
</g>
</g>
<!-- Node1&#45;&gt;Node4 -->
<g id="edge3" class="edge"><title>Node1&#45;&gt;Node4</title>
<path fill="none" stroke="midnightblue" d="M68.7039,-93.1631C81.6229,-94.7196 96.7972,-96.5479 112.658,-98.4588"/>
<polygon fill="midnightblue" stroke="midnightblue" points="68.7638,-89.6451 58.4169,-91.9237 67.9264,-96.5948 68.7638,-89.6451"/>
</g>
<!-- Node5 -->
<g id="node5" class="node"><title>Node5</title>
<g id="a_node5"><a xlink:href="classcom_1_1tomoparts_1_1tomoBay_1_1presenters_1_1helpers_1_1pickeability_1_1UnPickeableResult.html#a10604e1d3a05544addde64d28eac0ebe" target="_top" xlink:title="com.tomoparts.tomoBay.presenters.helpers.pickeability.\lUnPickeableResult.result">
<polygon fill="white" stroke="black" points="94,-49.5 94,-79.5 383,-79.5 383,-49.5 94,-49.5"/>
<text text-anchor="start" x="102" y="-67.5" font-family="Helvetica,sans-Serif" font-size="10.00">com.tomoparts.tomoBay.presenters.helpers.pickeability.</text>
<text text-anchor="middle" x="238.5" y="-56.5" font-family="Helvetica,sans-Serif" font-size="10.00">UnPickeableResult.result</text>
</a>
</g>
</g>
<!-- Node1&#45;&gt;Node5 -->
<g id="edge4" class="edge"><title>Node1&#45;&gt;Node5</title>
<path fill="none" stroke="midnightblue" d="M68.5176,-84.045C80.1115,-82.704 93.5341,-81.1515 107.646,-79.5193"/>
<polygon fill="midnightblue" stroke="midnightblue" points="67.9485,-80.5873 58.4169,-85.2132 68.7529,-87.541 67.9485,-80.5873"/>
</g>
<!-- Node6 -->
<g id="node6" class="node"><title>Node6</title>
<g id="a_node6"><a xlink:href="classcom_1_1tomoparts_1_1tomoBay_1_1presenters_1_1helpers_1_1pickeability_1_1ErrorResult.html#a10604e1d3a05544addde64d28eac0ebe" target="_top" xlink:title="com.tomoparts.tomoBay.presenters.helpers.pickeability.\lErrorResult.result">
<polygon fill="white" stroke="black" points="94,-0.5 94,-30.5 383,-30.5 383,-0.5 94,-0.5"/>
<text text-anchor="start" x="102" y="-18.5" font-family="Helvetica,sans-Serif" font-size="10.00">com.tomoparts.tomoBay.presenters.helpers.pickeability.</text>
<text text-anchor="middle" x="238.5" y="-7.5" font-family="Helvetica,sans-Serif" font-size="10.00">ErrorResult.result</text>
</a>
</g>
</g>
<!-- Node1&#45;&gt;Node6 -->
<g id="edge5" class="edge"><title>Node1&#45;&gt;Node6</title>
<path fill="none" stroke="midnightblue" d="M47.4414,-71.8043C59.5578,-61.1692 76.5978,-48.0221 94,-40.5 103.053,-36.5869 112.678,-33.2858 122.491,-30.5012"/>
<polygon fill="midnightblue" stroke="midnightblue" points="44.9396,-69.3485 39.8957,-78.6656 49.649,-74.5275 44.9396,-69.3485"/>
</g>
<!-- Node3 -->
<g id="node3" class="node"><title>Node3</title>
<g id="a_node3"><a xlink:href="classcom_1_1tomoparts_1_1tomoBay_1_1presenters_1_1sales_1_1SalesOrderPresenter.html#aae3ef9e158aa1e975acedd263e47fa3c" target="_top" xlink:title="this method is called when you actually want to present the information to be displayed to the approp...">
<polygon fill="white" stroke="black" points="419,-147.5 419,-177.5 642,-177.5 642,-147.5 419,-147.5"/>
<text text-anchor="start" x="427" y="-165.5" font-family="Helvetica,sans-Serif" font-size="10.00">com.tomoparts.tomoBay.presenters.sales.</text>
<text text-anchor="middle" x="530.5" y="-154.5" font-family="Helvetica,sans-Serif" font-size="10.00">SalesOrderPresenter.present</text>
</a>
</g>
</g>
<!-- Node2&#45;&gt;Node3 -->
<g id="edge2" class="edge"><title>Node2&#45;&gt;Node3</title>
<path fill="none" stroke="midnightblue" d="M360.415,-162.5C379.726,-162.5 399.622,-162.5 418.684,-162.5"/>
<polygon fill="midnightblue" stroke="midnightblue" points="360.378,-159 350.378,-162.5 360.378,-166 360.378,-159"/>
</g>
</g>
</svg>
