<?xml version="1.0" encoding="UTF-8" standalone="no"?>
<!DOCTYPE svg PUBLIC "-//W3C//DTD SVG 1.1//EN"
 "http://www.w3.org/Graphics/SVG/1.1/DTD/svg11.dtd">
<!-- Generated by graphviz version 2.38.0 (20140413.2041)
 -->
<!-- Title: EmailErrorsService Pages: 1 -->
<svg width="331pt" height="376pt"
 viewBox="0.00 0.00 330.50 376.00" xmlns="http://www.w3.org/2000/svg" xmlns:xlink="http://www.w3.org/1999/xlink">
<g id="graph0" class="graph" transform="scale(1 1) rotate(0) translate(4 372)">
<title>EmailErrorsService</title>
<polygon fill="white" stroke="none" points="-4,4 -4,-372 326.5,-372 326.5,4 -4,4"/>
<!-- Node1 -->
<g id="node1" class="node"><title>Node1</title>
<polygon fill="#bfbfbf" stroke="black" points="115,-0.5 115,-112.5 240,-112.5 240,-0.5 115,-0.5"/>
<text text-anchor="middle" x="177.5" y="-100.5" font-family="Helvetica,sans-Serif" font-size="10.00">EmailErrorsService</text>
<polyline fill="none" stroke="black" points="115,-93.5 240,-93.5 "/>
<text text-anchor="middle" x="177.5" y="-81.5" font-family="Helvetica,sans-Serif" font-size="10.00"> </text>
<polyline fill="none" stroke="black" points="115,-74.5 240,-74.5 "/>
<text text-anchor="start" x="123" y="-62.5" font-family="Helvetica,sans-Serif" font-size="10.00">+ EmailErrorsService()</text>
<text text-anchor="start" x="123" y="-51.5" font-family="Helvetica,sans-Serif" font-size="10.00">~ setConfig()</text>
<text text-anchor="start" x="123" y="-40.5" font-family="Helvetica,sans-Serif" font-size="10.00"># onRunning()</text>
<text text-anchor="start" x="123" y="-29.5" font-family="Helvetica,sans-Serif" font-size="10.00"># onPaused()</text>
<text text-anchor="start" x="123" y="-18.5" font-family="Helvetica,sans-Serif" font-size="10.00"># onStopped()</text>
<text text-anchor="start" x="123" y="-7.5" font-family="Helvetica,sans-Serif" font-size="10.00"># onError()</text>
</g>
<!-- Node2 -->
<g id="node2" class="node"><title>Node2</title>
<g id="a_node2"><a xlink:href="classcom_1_1tomoparts_1_1tomoBay_1_1model_1_1services_1_1AbstractService.html" target="_top" xlink:title="Allows the system to only accept runnable&#39;s that implement this interface rather than all runnables...">
<polygon fill="white" stroke="black" points="6.5,-160.5 6.5,-272.5 98.5,-272.5 98.5,-160.5 6.5,-160.5"/>
<text text-anchor="middle" x="52.5" y="-260.5" font-family="Helvetica,sans-Serif" font-size="10.00">AbstractService</text>
<polyline fill="none" stroke="black" points="6.5,-253.5 98.5,-253.5 "/>
<text text-anchor="middle" x="52.5" y="-241.5" font-family="Helvetica,sans-Serif" font-size="10.00"> </text>
<polyline fill="none" stroke="black" points="6.5,-234.5 98.5,-234.5 "/>
<text text-anchor="start" x="14.5" y="-222.5" font-family="Helvetica,sans-Serif" font-size="10.00">+ call()</text>
<text text-anchor="start" x="14.5" y="-211.5" font-family="Helvetica,sans-Serif" font-size="10.00">+ setConfig()</text>
<text text-anchor="start" x="14.5" y="-200.5" font-family="Helvetica,sans-Serif" font-size="10.00"># onRunning()</text>
<text text-anchor="start" x="14.5" y="-189.5" font-family="Helvetica,sans-Serif" font-size="10.00"># onPaused()</text>
<text text-anchor="start" x="14.5" y="-178.5" font-family="Helvetica,sans-Serif" font-size="10.00"># onStopped()</text>
<text text-anchor="start" x="14.5" y="-167.5" font-family="Helvetica,sans-Serif" font-size="10.00"># onError()</text>
</a>
</g>
</g>
<!-- Node2&#45;&gt;Node1 -->
<g id="edge1" class="edge"><title>Node2&#45;&gt;Node1</title>
<path fill="none" stroke="midnightblue" d="M102.581,-152.197C112.915,-139.135 123.721,-125.477 133.806,-112.73"/>
<polygon fill="none" stroke="midnightblue" points="99.6786,-150.225 96.2189,-160.239 105.168,-154.568 99.6786,-150.225"/>
</g>
<!-- Node3 -->
<g id="node3" class="node"><title>Node3</title>
<polygon fill="white" stroke="#bfbfbf" points="0,-310.5 0,-367.5 105,-367.5 105,-310.5 0,-310.5"/>
<text text-anchor="middle" x="52.5" y="-355.5" font-family="Helvetica,sans-Serif" font-size="10.00">Callable&lt; String &gt;</text>
<polyline fill="none" stroke="#bfbfbf" points="0,-348.5 105,-348.5 "/>
<text text-anchor="middle" x="52.5" y="-336.5" font-family="Helvetica,sans-Serif" font-size="10.00"> </text>
<polyline fill="none" stroke="#bfbfbf" points="0,-329.5 105,-329.5 "/>
<text text-anchor="middle" x="52.5" y="-317.5" font-family="Helvetica,sans-Serif" font-size="10.00"> </text>
</g>
<!-- Node3&#45;&gt;Node2 -->
<g id="edge2" class="edge"><title>Node3&#45;&gt;Node2</title>
<path fill="none" stroke="midnightblue" d="M52.5,-300.109C52.5,-291.362 52.5,-281.883 52.5,-272.569"/>
<polygon fill="none" stroke="midnightblue" points="49.0001,-300.355 52.5,-310.355 56.0001,-300.355 49.0001,-300.355"/>
</g>
<!-- Node4 -->
<g id="node4" class="node"><title>Node4</title>
<polygon fill="white" stroke="#bfbfbf" points="116.5,-177 116.5,-256 322.5,-256 322.5,-177 116.5,-177"/>
<text text-anchor="start" x="124.5" y="-244" font-family="Helvetica,sans-Serif" font-size="10.00">Map&lt; String, com.tomoparts.tomo</text>
<text text-anchor="start" x="124.5" y="-233" font-family="Helvetica,sans-Serif" font-size="10.00">Bay.model.services.emailErrorsService.</text>
<text text-anchor="middle" x="219.5" y="-222" font-family="Helvetica,sans-Serif" font-size="10.00">EmailErrorsService.emailDataType &gt;</text>
<polyline fill="none" stroke="#bfbfbf" points="116.5,-215 322.5,-215 "/>
<text text-anchor="middle" x="219.5" y="-203" font-family="Helvetica,sans-Serif" font-size="10.00"> </text>
<polyline fill="none" stroke="#bfbfbf" points="116.5,-196 322.5,-196 "/>
<text text-anchor="middle" x="219.5" y="-184" font-family="Helvetica,sans-Serif" font-size="10.00"> </text>
</g>
<!-- Node4&#45;&gt;Node1 -->
<g id="edge3" class="edge"><title>Node4&#45;&gt;Node1</title>
<path fill="none" stroke="#404040" d="M209.226,-176.849C205.022,-161.036 200.035,-142.275 195.274,-124.366"/>
<polygon fill="none" stroke="#404040" points="195.272,-124.357 189.865,-119.586 192.189,-112.76 197.597,-117.531 195.272,-124.357"/>
<text text-anchor="middle" x="231.5" y="-134" font-family="Helvetica,sans-Serif" font-size="10.00"> &#45;mailData_M</text>
</g>
</g>
</svg>
