<?xml version="1.0" encoding="UTF-8" standalone="no"?>
<!DOCTYPE svg PUBLIC "-//W3C//DTD SVG 1.1//EN"
 "http://www.w3.org/Graphics/SVG/1.1/DTD/svg11.dtd">
<!-- Generated by graphviz version 2.38.0 (20140413.2041)
 -->
<!-- Title: setTINYINTParam Pages: 1 -->
<!--zoomable 312 -->
<svg id="main" version="1.1" xmlns="http://www.w3.org/2000/svg" xmlns:xlink="http://www.w3.org/1999/xlink" xml:space="preserve" onload="init(evt)">
<style type="text/css"><![CDATA[
.edge:hover path { stroke: red; }
.edge:hover polygon { stroke: red; fill: red; }
]]></style>
<script type="text/javascript"><![CDATA[
var edges = document.getElementsByTagName('g');
if (edges && edges.length) {
  for (var i=0;i<edges.length;i++) {
    if (edges[i].id.substr(0,4)=='edge') {
      edges[i].setAttribute('class','edge');
    }
  }
}
]]></script>
        <defs>
                <circle id="rim" cx="0" cy="0" r="7"/>
                <circle id="rim2" cx="0" cy="0" r="3.5"/>
                <g id="zoomPlus">
                        <use xlink:href="#rim" fill="#404040">
                                <set attributeName="fill" to="#808080" begin="zoomplus.mouseover" end="zoomplus.mouseout"/>
                        </use>
                        <path d="M-4,0h8M0,-4v8" fill="none" stroke="white" stroke-width="1.5" pointer-events="none"/>
                </g>
                <g id="zoomMin">
                        <use xlink:href="#rim" fill="#404040">
                                <set attributeName="fill" to="#808080" begin="zoomminus.mouseover" end="zoomminus.mouseout"/>
                        </use>
                        <path d="M-4,0h8" fill="none" stroke="white" stroke-width="1.5" pointer-events="none"/>
                </g>
                <g id="dirArrow">
                        <path fill="none" stroke="white" stroke-width="1.5" d="M0,-3.0v7 M-2.5,-0.5L0,-3.0L2.5,-0.5"/>
                </g>
               <g id="resetDef">
                       <use xlink:href="#rim2" fill="#404040">
                               <set attributeName="fill" to="#808080" begin="reset.mouseover" end="reset.mouseout"/>
                       </use>
               </g>
        </defs>

<script type="text/javascript">
var viewWidth = 1266;
var viewHeight = 312;
var sectionId = 'dynsection-10';
</script>
<script xlink:href="svgpan.js"/>
<svg id="graph" class="graph">
<g id="viewport">
<title>setTINYINTParam</title>
<polygon fill="white" stroke="none" points="-4,4 -4,-308 1262,-308 1262,4 -4,4"/>
<!-- Node1 -->
<g id="node1" class="node"><title>Node1</title>
<polygon fill="#bfbfbf" stroke="black" points="0,-142.5 0,-161.5 98,-161.5 98,-142.5 0,-142.5"/>
<text text-anchor="middle" x="49" y="-149.5" font-family="Helvetica,sans-Serif" font-size="10.00">setTINYINTParam</text>
</g>
<!-- Node2 -->
<g id="node2" class="node"><title>Node2</title>
<g id="a_node2"><a xlink:href="classcom_1_1tomoparts_1_1tomoBay_1_1model_1_1dataTypes_1_1heteroTypeContainer_1_1HeteroFieldContainer.html#a988363ab964d6dc0ccb8560bef5895b6" target="_top" xlink:title="retrieve the the value of an AbstractField from this HeteroFieldContainer, the field should be of the...">
<polygon fill="white" stroke="black" points="714,-207.5 714,-248.5 920,-248.5 920,-207.5 714,-207.5"/>
<text text-anchor="start" x="722" y="-236.5" font-family="Helvetica,sans-Serif" font-size="10.00">com.tomoparts.tomoBay.model.data</text>
<text text-anchor="start" x="722" y="-225.5" font-family="Helvetica,sans-Serif" font-size="10.00">Types.heteroTypeContainer.HeteroField</text>
<text text-anchor="middle" x="817" y="-214.5" font-family="Helvetica,sans-Serif" font-size="10.00">Container.get</text>
</a>
</g>
</g>
<!-- Node1&#45;&gt;Node2 -->
<g id="edge1" class="edge"><title>Node1&#45;&gt;Node2</title>
<path fill="none" stroke="midnightblue" d="M59.2175,-161.508C92.5142,-194.785 210.976,-304 331.5,-304 331.5,-304 331.5,-304 466,-304 566.067,-304 678.636,-273.966 748.445,-251.659"/>
<polygon fill="midnightblue" stroke="midnightblue" points="749.568,-254.974 758.005,-248.567 747.414,-248.314 749.568,-254.974"/>
</g>
<!-- Node4 -->
<g id="node4" class="node"><title>Node4</title>
<g id="a_node4"><a xlink:href="classcom_1_1tomoparts_1_1tomoBay_1_1model_1_1sql_1_1framework_1_1QueryUtility.html#ab07d04299a96461dcf893416b8e32604" target="_top" xlink:title="set an Integer parameter for the query object specified. ">
<polygon fill="white" stroke="black" points="134,-142.5 134,-161.5 252,-161.5 252,-142.5 134,-142.5"/>
<text text-anchor="middle" x="193" y="-149.5" font-family="Helvetica,sans-Serif" font-size="10.00">setTIMESTAMPParam</text>
</a>
</g>
</g>
<!-- Node1&#45;&gt;Node4 -->
<g id="edge3" class="edge"><title>Node1&#45;&gt;Node4</title>
<path fill="none" stroke="midnightblue" d="M98.0747,-152C106.344,-152 115.079,-152 123.759,-152"/>
<polygon fill="midnightblue" stroke="midnightblue" points="123.891,-155.5 133.891,-152 123.891,-148.5 123.891,-155.5"/>
</g>
<!-- Node5 -->
<g id="node5" class="node"><title>Node5</title>
<g id="a_node5"><a xlink:href="classcom_1_1tomoparts_1_1tomoBay_1_1model_1_1sql_1_1framework_1_1queryTypes_1_1AbstractDBQuery.html#a41678b13e84de4335130f10cea7ae562" target="_top" xlink:title="get the statement object associated with this query ">
<polygon fill="white" stroke="black" points="682,-61 682,-91 952,-91 952,-61 682,-61"/>
<text text-anchor="start" x="690" y="-79" font-family="Helvetica,sans-Serif" font-size="10.00">com.tomoparts.tomoBay.model.sql.framework.query</text>
<text text-anchor="middle" x="817" y="-68" font-family="Helvetica,sans-Serif" font-size="10.00">Types.AbstractDBQuery.statement</text>
</a>
</g>
</g>
<!-- Node1&#45;&gt;Node5 -->
<g id="edge16" class="edge"><title>Node1&#45;&gt;Node5</title>
<path fill="none" stroke="midnightblue" d="M59.2175,-142.492C92.5142,-109.215 210.976,-0 331.5,-0 331.5,-0 331.5,-0 466,-0 574.455,-0 697.598,-35.2806 765.067,-57.7659"/>
<polygon fill="midnightblue" stroke="midnightblue" points="764.015,-61.1047 774.609,-60.9848 766.253,-54.472 764.015,-61.1047"/>
</g>
<!-- Node3 -->
<g id="node3" class="node"><title>Node3</title>
<g id="a_node3"><a xlink:href="classcom_1_1tomoparts_1_1tomoBay_1_1model_1_1dataTypes_1_1heteroTypeContainer_1_1HeteroFieldContainer.html#a9dee3c01eb5ab16203e1c6820a569484" target="_top" xlink:title="performs a type check, assuming that field and type are of the same type then this method returns tru...">
<polygon fill="white" stroke="black" points="1020,-207.5 1020,-248.5 1226,-248.5 1226,-207.5 1020,-207.5"/>
<text text-anchor="start" x="1028" y="-236.5" font-family="Helvetica,sans-Serif" font-size="10.00">com.tomoparts.tomoBay.model.data</text>
<text text-anchor="start" x="1028" y="-225.5" font-family="Helvetica,sans-Serif" font-size="10.00">Types.heteroTypeContainer.HeteroField</text>
<text text-anchor="middle" x="1123" y="-214.5" font-family="Helvetica,sans-Serif" font-size="10.00">Container.isSameType</text>
</a>
</g>
</g>
<!-- Node2&#45;&gt;Node3 -->
<g id="edge2" class="edge"><title>Node2&#45;&gt;Node3</title>
<path fill="none" stroke="midnightblue" d="M920.073,-228C948.85,-228 980.312,-228 1009.65,-228"/>
<polygon fill="midnightblue" stroke="midnightblue" points="1009.94,-231.5 1019.94,-228 1009.94,-224.5 1009.94,-231.5"/>
</g>
<!-- Node4&#45;&gt;Node2 -->
<g id="edge6" class="edge"><title>Node4&#45;&gt;Node2</title>
<path fill="none" stroke="midnightblue" d="M240.839,-161.561C255.892,-164.609 272.645,-167.974 288,-171 405.21,-194.097 434.101,-204.401 553,-216 602.269,-220.806 656.922,-223.694 703.585,-225.425"/>
<polygon fill="midnightblue" stroke="midnightblue" points="703.604,-228.928 713.723,-225.788 703.854,-221.933 703.604,-228.928"/>
</g>
<!-- Node4&#45;&gt;Node5 -->
<g id="edge4" class="edge"><title>Node4&#45;&gt;Node5</title>
<path fill="none" stroke="midnightblue" d="M239.853,-142.491C255.15,-139.383 272.295,-135.969 288,-133 343.428,-122.522 357.233,-119.488 413,-111 475.02,-101.56 490.556,-99.0263 553,-93 591.358,-89.2981 632.944,-86.192 671.482,-83.6903"/>
<polygon fill="midnightblue" stroke="midnightblue" points="671.98,-87.1657 681.736,-83.0341 671.533,-80.18 671.98,-87.1657"/>
</g>
<!-- Node7 -->
<g id="node7" class="node"><title>Node7</title>
<g id="a_node7"><a xlink:href="classcom_1_1tomoparts_1_1tomoBay_1_1model_1_1sql_1_1framework_1_1QueryUtility.html#a202aab30c77e06c32318efd5cf949ca3" target="_top" xlink:title="set an Integer parameter for the query object specified. ">
<polygon fill="white" stroke="black" points="288,-142.5 288,-161.5 377,-161.5 377,-142.5 288,-142.5"/>
<text text-anchor="middle" x="332.5" y="-149.5" font-family="Helvetica,sans-Serif" font-size="10.00">setDATEParam</text>
</a>
</g>
</g>
<!-- Node4&#45;&gt;Node7 -->
<g id="edge7" class="edge"><title>Node4&#45;&gt;Node7</title>
<path fill="none" stroke="midnightblue" d="M252.312,-152C260.65,-152 269.197,-152 277.447,-152"/>
<polygon fill="midnightblue" stroke="midnightblue" points="277.702,-155.5 287.702,-152 277.702,-148.5 277.702,-155.5"/>
</g>
<!-- Node6 -->
<g id="node6" class="node"><title>Node6</title>
<g id="a_node6"><a xlink:href="classcom_1_1tomoparts_1_1tomoBay_1_1model_1_1sql_1_1framework_1_1queryTypes_1_1AbstractDBQuery.html#ae8a5c5f1701ee77ef658050c8345d518" target="_top" xlink:title="Used by derived classes to define the Query string to be used in the query. ">
<polygon fill="white" stroke="black" points="988,-61 988,-91 1258,-91 1258,-61 988,-61"/>
<text text-anchor="start" x="996" y="-79" font-family="Helvetica,sans-Serif" font-size="10.00">com.tomoparts.tomoBay.model.sql.framework.query</text>
<text text-anchor="middle" x="1123" y="-68" font-family="Helvetica,sans-Serif" font-size="10.00">Types.AbstractDBQuery.queryString</text>
</a>
</g>
</g>
<!-- Node5&#45;&gt;Node6 -->
<g id="edge5" class="edge"><title>Node5&#45;&gt;Node6</title>
<path fill="none" stroke="midnightblue" d="M952.224,-76C960.592,-76 969.032,-76 977.443,-76"/>
<polygon fill="midnightblue" stroke="midnightblue" points="977.679,-79.5001 987.679,-76 977.679,-72.5001 977.679,-79.5001"/>
</g>
<!-- Node7&#45;&gt;Node2 -->
<g id="edge9" class="edge"><title>Node7&#45;&gt;Node2</title>
<path fill="none" stroke="midnightblue" d="M371.4,-161.587C384.533,-164.768 399.376,-168.207 413,-171 510.417,-190.969 622.516,-206.209 703.715,-215.884"/>
<polygon fill="midnightblue" stroke="midnightblue" points="703.618,-219.397 713.96,-217.095 704.44,-212.445 703.618,-219.397"/>
</g>
<!-- Node7&#45;&gt;Node5 -->
<g id="edge8" class="edge"><title>Node7&#45;&gt;Node5</title>
<path fill="none" stroke="midnightblue" d="M370.577,-142.499C383.903,-139.254 399.079,-135.753 413,-133 498.745,-116.044 595.717,-102.166 673.048,-92.3502"/>
<polygon fill="midnightblue" stroke="midnightblue" points="673.858,-95.7758 683.342,-91.0527 672.983,-88.8308 673.858,-95.7758"/>
</g>
<!-- Node8 -->
<g id="node8" class="node"><title>Node8</title>
<g id="a_node8"><a xlink:href="classcom_1_1tomoparts_1_1tomoBay_1_1model_1_1sql_1_1framework_1_1QueryUtility.html#a5677c2440b48e612fb51b57130555e5d" target="_top" xlink:title="set an Integer parameter for the query object specified. ">
<polygon fill="white" stroke="black" points="413,-142.5 413,-161.5 517,-161.5 517,-142.5 413,-142.5"/>
<text text-anchor="middle" x="465" y="-149.5" font-family="Helvetica,sans-Serif" font-size="10.00">setDOUBLEParam</text>
</a>
</g>
</g>
<!-- Node7&#45;&gt;Node8 -->
<g id="edge10" class="edge"><title>Node7&#45;&gt;Node8</title>
<path fill="none" stroke="midnightblue" d="M377.318,-152C385.514,-152 394.217,-152 402.826,-152"/>
<polygon fill="midnightblue" stroke="midnightblue" points="402.852,-155.5 412.852,-152 402.852,-148.5 402.852,-155.5"/>
</g>
<!-- Node8&#45;&gt;Node2 -->
<g id="edge12" class="edge"><title>Node8&#45;&gt;Node2</title>
<path fill="none" stroke="midnightblue" d="M509.81,-161.582C523.627,-164.6 538.951,-167.943 553,-171 605.106,-182.336 663.028,-194.894 711.223,-205.331"/>
<polygon fill="midnightblue" stroke="midnightblue" points="710.526,-208.762 721.04,-207.457 712.007,-201.92 710.526,-208.762"/>
</g>
<!-- Node8&#45;&gt;Node5 -->
<g id="edge11" class="edge"><title>Node8&#45;&gt;Node5</title>
<path fill="none" stroke="midnightblue" d="M509.81,-142.418C523.627,-139.4 538.951,-136.057 553,-133 614.651,-119.587 684.446,-104.463 736.635,-93.1664"/>
<polygon fill="midnightblue" stroke="midnightblue" points="737.467,-96.5677 746.5,-91.0314 735.986,-89.7261 737.467,-96.5677"/>
</g>
<!-- Node9 -->
<g id="node9" class="node"><title>Node9</title>
<g id="a_node9"><a xlink:href="classcom_1_1tomoparts_1_1tomoBay_1_1model_1_1sql_1_1framework_1_1QueryUtility.html#adf8f1fea7b649baadeb0297c41be72f5" target="_top" xlink:title="set an Integer parameter for the query object specified. ">
<polygon fill="white" stroke="black" points="553,-142.5 553,-161.5 646,-161.5 646,-142.5 553,-142.5"/>
<text text-anchor="middle" x="599.5" y="-149.5" font-family="Helvetica,sans-Serif" font-size="10.00">setFLOATParam</text>
</a>
</g>
</g>
<!-- Node8&#45;&gt;Node9 -->
<g id="edge13" class="edge"><title>Node8&#45;&gt;Node9</title>
<path fill="none" stroke="midnightblue" d="M517.228,-152C525.512,-152 534.126,-152 542.515,-152"/>
<polygon fill="midnightblue" stroke="midnightblue" points="542.599,-155.5 552.599,-152 542.599,-148.5 542.599,-155.5"/>
</g>
<!-- Node9&#45;&gt;Node2 -->
<g id="edge15" class="edge"><title>Node9&#45;&gt;Node2</title>
<path fill="none" stroke="midnightblue" d="M627.793,-161.625C657.886,-172.238 707.43,-189.711 748.134,-204.066"/>
<polygon fill="midnightblue" stroke="midnightblue" points="747.143,-207.428 757.738,-207.453 749.471,-200.826 747.143,-207.428"/>
</g>
<!-- Node9&#45;&gt;Node5 -->
<g id="edge14" class="edge"><title>Node9&#45;&gt;Node5</title>
<path fill="none" stroke="midnightblue" d="M627.793,-142.375C661.909,-130.343 721.024,-109.495 763.916,-94.3683"/>
<polygon fill="midnightblue" stroke="midnightblue" points="765.085,-97.6674 773.352,-91.0407 762.757,-91.0659 765.085,-97.6674"/>
</g>
</g>
</svg>
        <g id="navigator" transform="translate(0 0)" fill="#404254">
                <rect fill="#f2f5e9" fill-opacity="0.5" stroke="#606060" stroke-width=".5" x="0" y="0" width="60" height="60"/>
                <use id="zoomplus" xlink:href="#zoomPlus" x="17" y="9" onmousedown="handleZoom(evt,'in')"/>
                <use id="zoomminus" xlink:href="#zoomMin" x="42" y="9" onmousedown="handleZoom(evt,'out')"/>
                <use id="reset" xlink:href="#resetDef" x="30" y="36" onmousedown="handleReset()"/>
                <g id="arrowUp" xlink:href="#dirArrow" transform="translate(30 24)" onmousedown="handlePan(0,-1)">
                  <use xlink:href="#rim" fill="#404040">
                        <set attributeName="fill" to="#808080" begin="arrowUp.mouseover" end="arrowUp.mouseout"/>
                  </use>
                  <path fill="none" stroke="white" stroke-width="1.5" d="M0,-3.0v7 M-2.5,-0.5L0,-3.0L2.5,-0.5"/>
                </g>
                <g id="arrowRight" xlink:href="#dirArrow" transform="rotate(90) translate(36 -43)" onmousedown="handlePan(1,0)">
                  <use xlink:href="#rim" fill="#404040">
                        <set attributeName="fill" to="#808080" begin="arrowRight.mouseover" end="arrowRight.mouseout"/>
                  </use>
                  <path fill="none" stroke="white" stroke-width="1.5" d="M0,-3.0v7 M-2.5,-0.5L0,-3.0L2.5,-0.5"/>
                </g>
                <g id="arrowDown" xlink:href="#dirArrow" transform="rotate(180) translate(-30 -48)" onmousedown="handlePan(0,1)">
                  <use xlink:href="#rim" fill="#404040">
                        <set attributeName="fill" to="#808080" begin="arrowDown.mouseover" end="arrowDown.mouseout"/>
                  </use>
                  <path fill="none" stroke="white" stroke-width="1.5" d="M0,-3.0v7 M-2.5,-0.5L0,-3.0L2.5,-0.5"/>
                </g>
                <g id="arrowLeft" xlink:href="#dirArrow" transform="rotate(270) translate(-36 17)" onmousedown="handlePan(-1,0)">
                  <use xlink:href="#rim" fill="#404040">
                        <set attributeName="fill" to="#808080" begin="arrowLeft.mouseover" end="arrowLeft.mouseout"/>
                  </use>
                  <path fill="none" stroke="white" stroke-width="1.5" d="M0,-3.0v7 M-2.5,-0.5L0,-3.0L2.5,-0.5"/>
                </g>
        </g>
        <svg viewBox="0 0 15 15" width="100%" height="30px" preserveAspectRatio="xMaxYMin meet">
         <g id="arrow_out" transform="scale(0.3 0.3)">
          <a xlink:href="classcom_1_1tomoparts_1_1tomoBay_1_1model_1_1sql_1_1framework_1_1QueryUtility_a56a65ac583b8720ae73dc81278e5690e_cgraph_org.svg" target="_base">
           <rect id="button" ry="5" rx="5" y="6" x="6" height="38" width="38"
                fill="#f2f5e9" fill-opacity="0.5" stroke="#606060" stroke-width="1.0"/>
           <path id="arrow"
             d="M 11.500037,31.436501 C 11.940474,20.09759 22.043105,11.32322 32.158766,21.979434 L 37.068811,17.246167 C 37.068811,17.246167 37.088388,32 37.088388,32 L 22.160133,31.978069 C 22.160133,31.978069 26.997745,27.140456 26.997745,27.140456 C 18.528582,18.264221 13.291696,25.230495 11.500037,31.436501 z"
             style="fill:#404040;"/>
          </a>
         </g>
        </svg>
</svg>
