<?xml version="1.0" encoding="UTF-8" standalone="no"?>
<!DOCTYPE svg PUBLIC "-//W3C//DTD SVG 1.1//EN"
 "http://www.w3.org/Graphics/SVG/1.1/DTD/svg11.dtd">
<!-- Generated by graphviz version 2.38.0 (20140413.2041)
 -->
<!-- Title: invoiceNo Pages: 1 -->
<svg width="1172pt" height="156pt"
 viewBox="0.00 0.00 1172.00 155.51" xmlns="http://www.w3.org/2000/svg" xmlns:xlink="http://www.w3.org/1999/xlink">
<g id="graph0" class="graph" transform="scale(1 1) rotate(0) translate(4 151.506)">
<title>invoiceNo</title>
<polygon fill="white" stroke="none" points="-4,4 -4,-151.506 1168,-151.506 1168,4 -4,4"/>
<!-- Node1 -->
<g id="node1" class="node"><title>Node1</title>
<polygon fill="#bfbfbf" stroke="black" points="0,-79 0,-98 63,-98 63,-79 0,-79"/>
<text text-anchor="middle" x="31.5" y="-86" font-family="Helvetica,sans-Serif" font-size="10.00">invoiceNo</text>
</g>
<!-- Node2 -->
<g id="node2" class="node"><title>Node2</title>
<g id="a_node2"><a xlink:href="classcom_1_1tomoparts_1_1tomoBay_1_1model_1_1dataTypes_1_1financial_1_1SalesOrderDayBook_1_1AbstractSalesDayBookLine.html#a2322342510367e536d54eb47f2c43512" target="_top" xlink:title="returns the invoice number of this invoice, if it exists. ">
<polygon fill="white" stroke="black" points="99,-68 99,-109 320,-109 320,-68 99,-68"/>
<text text-anchor="start" x="107" y="-97" font-family="Helvetica,sans-Serif" font-size="10.00">com.tomoparts.tomoBay.model.data</text>
<text text-anchor="start" x="107" y="-86" font-family="Helvetica,sans-Serif" font-size="10.00">Types.financial.SalesOrderDayBook.</text>
<text text-anchor="middle" x="209.5" y="-75" font-family="Helvetica,sans-Serif" font-size="10.00">AbstractSalesDayBookLine.invoiceNumber</text>
</a>
</g>
</g>
<!-- Node1&#45;&gt;Node2 -->
<g id="edge1" class="edge"><title>Node1&#45;&gt;Node2</title>
<path fill="none" stroke="midnightblue" d="M73.1954,-88.5C81.1824,-88.5 89.9091,-88.5 98.9597,-88.5"/>
<polygon fill="midnightblue" stroke="midnightblue" points="73.1569,-85.0001 63.1569,-88.5 73.1568,-92.0001 73.1569,-85.0001"/>
</g>
<!-- Node3 -->
<g id="node3" class="node"><title>Node3</title>
<g id="a_node3"><a xlink:href="classcom_1_1tomoparts_1_1tomoBay_1_1presenters_1_1presenterActions_1_1concreteActions_1_1PrintInvoices.html#adb3dedf31dc2c7fc796f20406c235ccd" target="_top" xlink:title="performs the action specified ">
<polygon fill="white" stroke="black" points="640.5,-95.5 640.5,-125.5 882.5,-125.5 882.5,-95.5 640.5,-95.5"/>
<text text-anchor="start" x="648.5" y="-113.5" font-family="Helvetica,sans-Serif" font-size="10.00">com.tomoparts.tomoBay.presenters.presenter</text>
<text text-anchor="middle" x="761.5" y="-102.5" font-family="Helvetica,sans-Serif" font-size="10.00">Actions.concreteActions.PrintInvoices.execute</text>
</a>
</g>
</g>
<!-- Node2&#45;&gt;Node3 -->
<g id="edge2" class="edge"><title>Node2&#45;&gt;Node3</title>
<path fill="none" stroke="midnightblue" d="M266.798,-112.719C293.326,-122.856 325.732,-133.444 356,-138.5 471.431,-157.78 607.53,-140.21 688.771,-125.521"/>
<polygon fill="midnightblue" stroke="midnightblue" points="267.893,-109.39 257.305,-109.016 265.349,-115.911 267.893,-109.39"/>
</g>
<!-- Node4 -->
<g id="node4" class="node"><title>Node4</title>
<g id="a_node4"><a xlink:href="classcom_1_1tomoparts_1_1tomoBay_1_1presenters_1_1presenterActions_1_1concreteActions_1_1InvoiceOrders.html#adb3dedf31dc2c7fc796f20406c235ccd" target="_top" xlink:title="performs the action specified ">
<polygon fill="white" stroke="black" points="357.5,-98.5 357.5,-128.5 599.5,-128.5 599.5,-98.5 357.5,-98.5"/>
<text text-anchor="start" x="365.5" y="-116.5" font-family="Helvetica,sans-Serif" font-size="10.00">com.tomoparts.tomoBay.presenters.presenter</text>
<text text-anchor="middle" x="478.5" y="-105.5" font-family="Helvetica,sans-Serif" font-size="10.00">Actions.concreteActions.InvoiceOrders.execute</text>
</a>
</g>
</g>
<!-- Node2&#45;&gt;Node4 -->
<g id="edge3" class="edge"><title>Node2&#45;&gt;Node4</title>
<path fill="none" stroke="midnightblue" d="M330.337,-99.7207C339.305,-100.56 348.357,-101.408 357.328,-102.248"/>
<polygon fill="midnightblue" stroke="midnightblue" points="330.538,-96.2243 320.255,-98.7767 329.885,-103.194 330.538,-96.2243"/>
</g>
<!-- Node5 -->
<g id="node5" class="node"><title>Node5</title>
<g id="a_node5"><a xlink:href="classcom_1_1tomoparts_1_1tomoBay_1_1presenters_1_1presenterActions_1_1concreteActions_1_1PrintInvoices.html#a3396bf15e4a594abdeb16cb37f076ce2" target="_top" xlink:title="actually send the data to the winstock server to print the invoice ">
<polygon fill="white" stroke="black" points="357.5,-49.5 357.5,-79.5 599.5,-79.5 599.5,-49.5 357.5,-49.5"/>
<text text-anchor="start" x="365.5" y="-67.5" font-family="Helvetica,sans-Serif" font-size="10.00">com.tomoparts.tomoBay.presenters.presenter</text>
<text text-anchor="middle" x="478.5" y="-56.5" font-family="Helvetica,sans-Serif" font-size="10.00">Actions.concreteActions.PrintInvoices.print</text>
</a>
</g>
</g>
<!-- Node2&#45;&gt;Node5 -->
<g id="edge4" class="edge"><title>Node2&#45;&gt;Node5</title>
<path fill="none" stroke="midnightblue" d="M330.337,-77.7282C339.305,-76.922 348.357,-76.1084 357.328,-75.302"/>
<polygon fill="midnightblue" stroke="midnightblue" points="329.901,-74.2531 320.255,-78.6344 330.528,-81.225 329.901,-74.2531"/>
</g>
<!-- Node6 -->
<g id="node6" class="node"><title>Node6</title>
<g id="a_node6"><a xlink:href="classcom_1_1tomoparts_1_1tomoBay_1_1presenters_1_1presenterActions_1_1concreteActions_1_1OrderInfo.html#a95f980d76c5d92ed97b2aaab0d2d0c21" target="_top" xlink:title="formats the summary information for this Order ">
<polygon fill="white" stroke="black" points="356,-0.5 356,-30.5 601,-30.5 601,-0.5 356,-0.5"/>
<text text-anchor="start" x="364" y="-18.5" font-family="Helvetica,sans-Serif" font-size="10.00">com.tomoparts.tomoBay.presenters.presenter</text>
<text text-anchor="middle" x="478.5" y="-7.5" font-family="Helvetica,sans-Serif" font-size="10.00">Actions.concreteActions.OrderInfo.summaryInfo</text>
</a>
</g>
</g>
<!-- Node2&#45;&gt;Node6 -->
<g id="edge6" class="edge"><title>Node2&#45;&gt;Node6</title>
<path fill="none" stroke="midnightblue" d="M275.652,-64.5471C300.571,-55.9186 329.394,-46.5758 356,-39.5 368.156,-36.2672 381.101,-33.2587 393.839,-30.5406"/>
<polygon fill="midnightblue" stroke="midnightblue" points="274.235,-61.3349 265.949,-67.9385 276.544,-67.9429 274.235,-61.3349"/>
</g>
<!-- Node5&#45;&gt;Node3 -->
<g id="edge5" class="edge"><title>Node5&#45;&gt;Node3</title>
<path fill="none" stroke="midnightblue" d="M581.498,-81.1973C610.033,-85.8683 640.863,-90.9152 668.764,-95.4826"/>
<polygon fill="midnightblue" stroke="midnightblue" points="581.944,-77.7237 571.51,-79.5621 580.813,-84.6317 581.944,-77.7237"/>
</g>
<!-- Node7 -->
<g id="node7" class="node"><title>Node7</title>
<g id="a_node7"><a xlink:href="classcom_1_1tomoparts_1_1tomoBay_1_1presenters_1_1presenterActions_1_1concreteActions_1_1OrderInfo.html#afeec1aeda079b77245edea1e74b25f33" target="_top" xlink:title="assembles the various parts of the order and outputs it as a fully formed JSON string. ">
<polygon fill="white" stroke="black" points="637,-0.5 637,-30.5 886,-30.5 886,-0.5 637,-0.5"/>
<text text-anchor="start" x="645" y="-18.5" font-family="Helvetica,sans-Serif" font-size="10.00">com.tomoparts.tomoBay.presenters.presenter</text>
<text text-anchor="middle" x="761.5" y="-7.5" font-family="Helvetica,sans-Serif" font-size="10.00">Actions.concreteActions.OrderInfo.formatResults</text>
</a>
</g>
</g>
<!-- Node6&#45;&gt;Node7 -->
<g id="edge7" class="edge"><title>Node6&#45;&gt;Node7</title>
<path fill="none" stroke="midnightblue" d="M611.164,-15.5C619.747,-15.5 628.374,-15.5 636.917,-15.5"/>
<polygon fill="midnightblue" stroke="midnightblue" points="611.116,-12.0001 601.116,-15.5 611.116,-19.0001 611.116,-12.0001"/>
</g>
<!-- Node8 -->
<g id="node8" class="node"><title>Node8</title>
<g id="a_node8"><a xlink:href="classcom_1_1tomoparts_1_1tomoBay_1_1presenters_1_1presenterActions_1_1concreteActions_1_1OrderInfo.html#adb3dedf31dc2c7fc796f20406c235ccd" target="_top" xlink:title="performs the action specified ">
<polygon fill="white" stroke="black" points="922,-0.5 922,-30.5 1164,-30.5 1164,-0.5 922,-0.5"/>
<text text-anchor="start" x="930" y="-18.5" font-family="Helvetica,sans-Serif" font-size="10.00">com.tomoparts.tomoBay.presenters.presenter</text>
<text text-anchor="middle" x="1043" y="-7.5" font-family="Helvetica,sans-Serif" font-size="10.00">Actions.concreteActions.OrderInfo.execute</text>
</a>
</g>
</g>
<!-- Node7&#45;&gt;Node8 -->
<g id="edge8" class="edge"><title>Node7&#45;&gt;Node8</title>
<path fill="none" stroke="midnightblue" d="M896.322,-15.5C904.865,-15.5 913.439,-15.5 921.914,-15.5"/>
<polygon fill="midnightblue" stroke="midnightblue" points="896.313,-12.0001 886.313,-15.5 896.313,-19.0001 896.313,-12.0001"/>
</g>
</g>
</svg>
