<?xml version="1.0" encoding="UTF-8" standalone="no"?>
<!DOCTYPE svg PUBLIC "-//W3C//DTD SVG 1.1//EN"
 "http://www.w3.org/Graphics/SVG/1.1/DTD/svg11.dtd">
<!-- Generated by graphviz version 2.38.0 (20140413.2041)
 -->
<!-- Title: createdTime Pages: 1 -->
<svg width="929pt" height="123pt"
 viewBox="0.00 0.00 929.00 122.71" xmlns="http://www.w3.org/2000/svg" xmlns:xlink="http://www.w3.org/1999/xlink">
<g id="graph0" class="graph" transform="scale(1 1) rotate(0) translate(4 118.705)">
<title>createdTime</title>
<polygon fill="white" stroke="none" points="-4,4 -4,-118.705 925,-118.705 925,4 -4,4"/>
<!-- Node1 -->
<g id="node1" class="node"><title>Node1</title>
<polygon fill="#bfbfbf" stroke="black" points="0,-61 0,-80 77,-80 77,-61 0,-61"/>
<text text-anchor="middle" x="38.5" y="-68" font-family="Helvetica,sans-Serif" font-size="10.00">createdTime</text>
</g>
<!-- Node2 -->
<g id="node2" class="node"><title>Node2</title>
<g id="a_node2"><a xlink:href="classcom_1_1tomoparts_1_1tomoBay_1_1presenters_1_1presenterActions_1_1concreteActions_1_1InvoiceOrders.html#adb3dedf31dc2c7fc796f20406c235ccd" target="_top" xlink:title="performs the action specified ">
<polygon fill="white" stroke="black" points="397.5,-79.5 397.5,-109.5 639.5,-109.5 639.5,-79.5 397.5,-79.5"/>
<text text-anchor="start" x="405.5" y="-97.5" font-family="Helvetica,sans-Serif" font-size="10.00">com.tomoparts.tomoBay.presenters.presenter</text>
<text text-anchor="middle" x="518.5" y="-86.5" font-family="Helvetica,sans-Serif" font-size="10.00">Actions.concreteActions.InvoiceOrders.execute</text>
</a>
</g>
</g>
<!-- Node1&#45;&gt;Node2 -->
<g id="edge1" class="edge"><title>Node1&#45;&gt;Node2</title>
<path fill="none" stroke="midnightblue" d="M66.536,-84.4785C80.0956,-90.7175 97.002,-97.3608 113,-100.5 207.247,-118.993 316.227,-116.017 397.308,-109.231"/>
<polygon fill="midnightblue" stroke="midnightblue" points="67.8457,-81.2252 57.3148,-80.063 64.8225,-87.5387 67.8457,-81.2252"/>
</g>
<!-- Node3 -->
<g id="node3" class="node"><title>Node3</title>
<g id="a_node3"><a xlink:href="classcom_1_1tomoparts_1_1tomoBay_1_1presenters_1_1presenterActions_1_1concreteActions_1_1InvoiceOrders.html#a589f75735e26f66e44061ac5047d0cf0" target="_top" xlink:title="com.tomoparts.tomoBay.presenters.presenter\lActions.concreteActions.InvoiceOrders.format\lMailResult">
<polygon fill="white" stroke="black" points="114.5,-50 114.5,-91 356.5,-91 356.5,-50 114.5,-50"/>
<text text-anchor="start" x="122.5" y="-79" font-family="Helvetica,sans-Serif" font-size="10.00">com.tomoparts.tomoBay.presenters.presenter</text>
<text text-anchor="start" x="122.5" y="-68" font-family="Helvetica,sans-Serif" font-size="10.00">Actions.concreteActions.InvoiceOrders.format</text>
<text text-anchor="middle" x="235.5" y="-57" font-family="Helvetica,sans-Serif" font-size="10.00">MailResult</text>
</a>
</g>
</g>
<!-- Node1&#45;&gt;Node3 -->
<g id="edge2" class="edge"><title>Node1&#45;&gt;Node3</title>
<path fill="none" stroke="midnightblue" d="M87.3711,-70.5C95.7878,-70.5 104.877,-70.5 114.265,-70.5"/>
<polygon fill="midnightblue" stroke="midnightblue" points="87.098,-67.0001 77.098,-70.5 87.0979,-74.0001 87.098,-67.0001"/>
</g>
<!-- Node4 -->
<g id="node4" class="node"><title>Node4</title>
<g id="a_node4"><a xlink:href="classcom_1_1tomoparts_1_1tomoBay_1_1presenters_1_1presenterActions_1_1concreteActions_1_1OrderInfo.html#a95f980d76c5d92ed97b2aaab0d2d0c21" target="_top" xlink:title="formats the summary information for this Order ">
<polygon fill="white" stroke="black" points="113,-0.5 113,-30.5 358,-30.5 358,-0.5 113,-0.5"/>
<text text-anchor="start" x="121" y="-18.5" font-family="Helvetica,sans-Serif" font-size="10.00">com.tomoparts.tomoBay.presenters.presenter</text>
<text text-anchor="middle" x="235.5" y="-7.5" font-family="Helvetica,sans-Serif" font-size="10.00">Actions.concreteActions.OrderInfo.summaryInfo</text>
</a>
</g>
</g>
<!-- Node1&#45;&gt;Node4 -->
<g id="edge4" class="edge"><title>Node1&#45;&gt;Node4</title>
<path fill="none" stroke="midnightblue" d="M69.5247,-56.7777C82.6678,-51.1562 98.3943,-44.9418 113,-40.5 125.156,-36.8031 138.163,-33.4823 150.982,-30.5607"/>
<polygon fill="midnightblue" stroke="midnightblue" points="67.8015,-53.711 60.039,-60.9217 70.6039,-60.1256 67.8015,-53.711"/>
</g>
<!-- Node3&#45;&gt;Node2 -->
<g id="edge3" class="edge"><title>Node3&#45;&gt;Node2</title>
<path fill="none" stroke="midnightblue" d="M366.986,-81.6447C377.111,-82.5095 387.305,-83.3802 397.358,-84.2388"/>
<polygon fill="midnightblue" stroke="midnightblue" points="367.154,-78.1464 356.892,-80.7826 366.558,-85.121 367.154,-78.1464"/>
</g>
<!-- Node5 -->
<g id="node5" class="node"><title>Node5</title>
<g id="a_node5"><a xlink:href="classcom_1_1tomoparts_1_1tomoBay_1_1presenters_1_1presenterActions_1_1concreteActions_1_1OrderInfo.html#afeec1aeda079b77245edea1e74b25f33" target="_top" xlink:title="assembles the various parts of the order and outputs it as a fully formed JSON string. ">
<polygon fill="white" stroke="black" points="394,-0.5 394,-30.5 643,-30.5 643,-0.5 394,-0.5"/>
<text text-anchor="start" x="402" y="-18.5" font-family="Helvetica,sans-Serif" font-size="10.00">com.tomoparts.tomoBay.presenters.presenter</text>
<text text-anchor="middle" x="518.5" y="-7.5" font-family="Helvetica,sans-Serif" font-size="10.00">Actions.concreteActions.OrderInfo.formatResults</text>
</a>
</g>
</g>
<!-- Node4&#45;&gt;Node5 -->
<g id="edge5" class="edge"><title>Node4&#45;&gt;Node5</title>
<path fill="none" stroke="midnightblue" d="M368.164,-15.5C376.747,-15.5 385.374,-15.5 393.917,-15.5"/>
<polygon fill="midnightblue" stroke="midnightblue" points="368.116,-12.0001 358.116,-15.5 368.116,-19.0001 368.116,-12.0001"/>
</g>
<!-- Node6 -->
<g id="node6" class="node"><title>Node6</title>
<g id="a_node6"><a xlink:href="classcom_1_1tomoparts_1_1tomoBay_1_1presenters_1_1presenterActions_1_1concreteActions_1_1OrderInfo.html#adb3dedf31dc2c7fc796f20406c235ccd" target="_top" xlink:title="performs the action specified ">
<polygon fill="white" stroke="black" points="679,-0.5 679,-30.5 921,-30.5 921,-0.5 679,-0.5"/>
<text text-anchor="start" x="687" y="-18.5" font-family="Helvetica,sans-Serif" font-size="10.00">com.tomoparts.tomoBay.presenters.presenter</text>
<text text-anchor="middle" x="800" y="-7.5" font-family="Helvetica,sans-Serif" font-size="10.00">Actions.concreteActions.OrderInfo.execute</text>
</a>
</g>
</g>
<!-- Node5&#45;&gt;Node6 -->
<g id="edge6" class="edge"><title>Node5&#45;&gt;Node6</title>
<path fill="none" stroke="midnightblue" d="M653.322,-15.5C661.865,-15.5 670.439,-15.5 678.914,-15.5"/>
<polygon fill="midnightblue" stroke="midnightblue" points="653.313,-12.0001 643.313,-15.5 653.313,-19.0001 653.313,-12.0001"/>
</g>
</g>
</svg>
