<?xml version="1.0" encoding="UTF-8" standalone="no"?>
<!DOCTYPE svg PUBLIC "-//W3C//DTD SVG 1.1//EN"
 "http://www.w3.org/Graphics/SVG/1.1/DTD/svg11.dtd">
<!-- Generated by graphviz version 2.38.0 (20140413.2041)
 -->
<!-- Title: PeriodicServicesControllerFactory Pages: 1 -->
<svg width="177pt" height="193pt"
 viewBox="0.00 0.00 177.00 193.00" xmlns="http://www.w3.org/2000/svg" xmlns:xlink="http://www.w3.org/1999/xlink">
<g id="graph0" class="graph" transform="scale(1 1) rotate(0) translate(4 189)">
<title>PeriodicServicesControllerFactory</title>
<polygon fill="white" stroke="none" points="-4,4 -4,-189 173,-189 173,4 -4,4"/>
<!-- Node1 -->
<g id="node1" class="node"><title>Node1</title>
<polygon fill="#bfbfbf" stroke="black" points="8.5,-0.5 8.5,-90.5 160.5,-90.5 160.5,-0.5 8.5,-0.5"/>
<text text-anchor="start" x="16.5" y="-78.5" font-family="Helvetica,sans-Serif" font-size="10.00">PeriodicServicesController</text>
<text text-anchor="middle" x="84.5" y="-67.5" font-family="Helvetica,sans-Serif" font-size="10.00">Factory</text>
<polyline fill="none" stroke="black" points="8.5,-60.5 160.5,-60.5 "/>
<text text-anchor="middle" x="84.5" y="-48.5" font-family="Helvetica,sans-Serif" font-size="10.00"> </text>
<polyline fill="none" stroke="black" points="8.5,-41.5 160.5,-41.5 "/>
<text text-anchor="start" x="16.5" y="-29.5" font-family="Helvetica,sans-Serif" font-size="10.00">+ PeriodicServicesController</text>
<text text-anchor="start" x="16.5" y="-18.5" font-family="Helvetica,sans-Serif" font-size="10.00">Factory()</text>
<text text-anchor="start" x="16.5" y="-7.5" font-family="Helvetica,sans-Serif" font-size="10.00">+ make()</text>
</g>
<!-- Node2 -->
<g id="node2" class="node"><title>Node2</title>
<g id="a_node2"><a xlink:href="interfacecom_1_1tomoparts_1_1tomoBay_1_1presenters_1_1presenterActions_1_1factories_1_1AbstractPresenterActionFactory.html" target="_top" xlink:title="the interface all factories that create AbstractPresenterAction objects should inherit from...">
<polygon fill="white" stroke="black" points="-1.42109e-14,-127.5 -1.42109e-14,-184.5 169,-184.5 169,-127.5 -1.42109e-14,-127.5"/>
<text text-anchor="middle" x="84.5" y="-172.5" font-family="Helvetica,sans-Serif" font-size="10.00">AbstractPresenterActionFactory</text>
<polyline fill="none" stroke="black" points="-1.42109e-14,-165.5 169,-165.5 "/>
<text text-anchor="middle" x="84.5" y="-153.5" font-family="Helvetica,sans-Serif" font-size="10.00"> </text>
<polyline fill="none" stroke="black" points="-1.42109e-14,-146.5 169,-146.5 "/>
<text text-anchor="start" x="8" y="-134.5" font-family="Helvetica,sans-Serif" font-size="10.00">+ make()</text>
</a>
</g>
</g>
<!-- Node2&#45;&gt;Node1 -->
<g id="edge1" class="edge"><title>Node2&#45;&gt;Node1</title>
<path fill="none" stroke="midnightblue" d="M84.5,-117.214C84.5,-108.609 84.5,-99.3943 84.5,-90.5541"/>
<polygon fill="none" stroke="midnightblue" points="81.0001,-117.34 84.5,-127.34 88.0001,-117.34 81.0001,-117.34"/>
</g>
</g>
</svg>
