<?xml version="1.0" encoding="UTF-8" standalone="no"?>
<!DOCTYPE svg PUBLIC "-//W3C//DTD SVG 1.1//EN"
 "http://www.w3.org/Graphics/SVG/1.1/DTD/svg11.dtd">
<!-- Generated by graphviz version 2.38.0 (20140413.2041)
 -->
<!-- Title: instance Pages: 1 -->
<svg width="821pt" height="88pt"
 viewBox="0.00 0.00 821.00 88.00" xmlns="http://www.w3.org/2000/svg" xmlns:xlink="http://www.w3.org/1999/xlink">
<g id="graph0" class="graph" transform="scale(1 1) rotate(0) translate(4 84)">
<title>instance</title>
<polygon fill="white" stroke="none" points="-4,4 -4,-84 817,-84 817,4 -4,4"/>
<!-- Node1 -->
<g id="node1" class="node"><title>Node1</title>
<polygon fill="#bfbfbf" stroke="black" points="0,-24.5 0,-43.5 57,-43.5 57,-24.5 0,-24.5"/>
<text text-anchor="middle" x="28.5" y="-31.5" font-family="Helvetica,sans-Serif" font-size="10.00">instance</text>
</g>
<!-- Node2 -->
<g id="node2" class="node"><title>Node2</title>
<g id="a_node2"><a xlink:href="classcom_1_1tomoparts_1_1tomoBay_1_1presenters_1_1presenterActions_1_1concreteActions_1_1PeriodicServicesController.html#a201d11e815c2a711053672277546c945" target="_top" xlink:title="com.tomoparts.tomoBay.presenters.presenter\lActions.concreteActions.PeriodicServices\lController.executeStatic">
<polygon fill="white" stroke="black" points="93,-38.5 93,-79.5 335,-79.5 335,-38.5 93,-38.5"/>
<text text-anchor="start" x="101" y="-67.5" font-family="Helvetica,sans-Serif" font-size="10.00">com.tomoparts.tomoBay.presenters.presenter</text>
<text text-anchor="start" x="101" y="-56.5" font-family="Helvetica,sans-Serif" font-size="10.00">Actions.concreteActions.PeriodicServices</text>
<text text-anchor="middle" x="214" y="-45.5" font-family="Helvetica,sans-Serif" font-size="10.00">Controller.executeStatic</text>
</a>
</g>
</g>
<!-- Node1&#45;&gt;Node2 -->
<g id="edge1" class="edge"><title>Node1&#45;&gt;Node2</title>
<path fill="none" stroke="midnightblue" d="M67.4301,-39.1676C75.1965,-40.2257 83.7587,-41.3922 92.7245,-42.6137"/>
<polygon fill="midnightblue" stroke="midnightblue" points="67.7507,-35.679 57.3697,-37.797 66.8057,-42.6149 67.7507,-35.679"/>
</g>
<!-- Node5 -->
<g id="node5" class="node"><title>Node5</title>
<g id="a_node5"><a xlink:href="classcom_1_1tomoparts_1_1tomoBay_1_1MAIN.html#a61e38df44ecd3cfa182ce847a01fa2c7" target="_top" xlink:title="com.tomoparts.tomoBay.MAIN.main">
<polygon fill="white" stroke="black" points="118,-0.5 118,-19.5 310,-19.5 310,-0.5 118,-0.5"/>
<text text-anchor="middle" x="214" y="-7.5" font-family="Helvetica,sans-Serif" font-size="10.00">com.tomoparts.tomoBay.MAIN.main</text>
</a>
</g>
</g>
<!-- Node1&#45;&gt;Node5 -->
<g id="edge4" class="edge"><title>Node1&#45;&gt;Node5</title>
<path fill="none" stroke="midnightblue" d="M67.4603,-29.0352C88.4202,-26.2938 115.17,-22.7952 140.004,-19.5471"/>
<polygon fill="midnightblue" stroke="midnightblue" points="66.8313,-25.5875 57.3697,-30.3549 67.7392,-32.5284 66.8313,-25.5875"/>
</g>
<!-- Node3 -->
<g id="node3" class="node"><title>Node3</title>
<g id="a_node3"><a xlink:href="classcom_1_1tomoparts_1_1tomoBay_1_1presenters_1_1presenterActions_1_1concreteActions_1_1PeriodicServicesController.html#adb3dedf31dc2c7fc796f20406c235ccd" target="_top" xlink:title="performs the action specified ">
<polygon fill="white" stroke="black" points="371,-38.5 371,-79.5 613,-79.5 613,-38.5 371,-38.5"/>
<text text-anchor="start" x="379" y="-67.5" font-family="Helvetica,sans-Serif" font-size="10.00">com.tomoparts.tomoBay.presenters.presenter</text>
<text text-anchor="start" x="379" y="-56.5" font-family="Helvetica,sans-Serif" font-size="10.00">Actions.concreteActions.PeriodicServices</text>
<text text-anchor="middle" x="492" y="-45.5" font-family="Helvetica,sans-Serif" font-size="10.00">Controller.execute</text>
</a>
</g>
</g>
<!-- Node2&#45;&gt;Node3 -->
<g id="edge2" class="edge"><title>Node2&#45;&gt;Node3</title>
<path fill="none" stroke="midnightblue" d="M345.494,-59C353.91,-59 362.364,-59 370.73,-59"/>
<polygon fill="midnightblue" stroke="midnightblue" points="345.255,-55.5001 335.255,-59 345.255,-62.5001 345.255,-55.5001"/>
</g>
<!-- Node4 -->
<g id="node4" class="node"><title>Node4</title>
<g id="a_node4"><a xlink:href="classcom_1_1tomoparts_1_1tomoBay_1_1view_1_1RetardServlet.html#a1a499993fcbc802bf7f39ff4e8185050" target="_top" xlink:title="service method, this controls how the servlet responds to particular URL query strings ...">
<polygon fill="white" stroke="black" points="649,-44 649,-74 813,-74 813,-44 649,-44"/>
<text text-anchor="start" x="657" y="-62" font-family="Helvetica,sans-Serif" font-size="10.00">com.tomoparts.tomoBay.view.</text>
<text text-anchor="middle" x="731" y="-51" font-family="Helvetica,sans-Serif" font-size="10.00">RetardServlet.doGet</text>
</a>
</g>
</g>
<!-- Node3&#45;&gt;Node4 -->
<g id="edge3" class="edge"><title>Node3&#45;&gt;Node4</title>
<path fill="none" stroke="midnightblue" d="M623.37,-59C631.98,-59 640.505,-59 648.761,-59"/>
<polygon fill="midnightblue" stroke="midnightblue" points="623.236,-55.5001 613.236,-59 623.236,-62.5001 623.236,-55.5001"/>
</g>
</g>
</svg>
