<?xml version="1.0" encoding="UTF-8" standalone="no"?>
<!DOCTYPE svg PUBLIC "-//W3C//DTD SVG 1.1//EN"
 "http://www.w3.org/Graphics/SVG/1.1/DTD/svg11.dtd">
<!-- Generated by graphviz version 2.38.0 (20140413.2041)
 -->
<!-- Title: street2 Pages: 1 -->
<svg width="900pt" height="253pt"
 viewBox="0.00 0.00 900.00 253.00" xmlns="http://www.w3.org/2000/svg" xmlns:xlink="http://www.w3.org/1999/xlink">
<g id="graph0" class="graph" transform="scale(1 1) rotate(0) translate(4 249)">
<title>street2</title>
<polygon fill="white" stroke="none" points="-4,4 -4,-249 896,-249 896,4 -4,4"/>
<!-- Node1 -->
<g id="node1" class="node"><title>Node1</title>
<polygon fill="#bfbfbf" stroke="black" points="0,-137 0,-156 51,-156 51,-137 0,-137"/>
<text text-anchor="middle" x="25.5" y="-144" font-family="Helvetica,sans-Serif" font-size="10.00">street2</text>
</g>
<!-- Node2 -->
<g id="node2" class="node"><title>Node2</title>
<g id="a_node2"><a xlink:href="classcom_1_1tomoparts_1_1tomoBay_1_1presenters_1_1presenterActions_1_1concreteActions_1_1OrderInfo.html#a0efe6811d772c53811b18a441c11b757" target="_top" xlink:title="formats the buyer information associated with this order ">
<polygon fill="white" stroke="black" points="87,-214.5 87,-244.5 329,-244.5 329,-214.5 87,-214.5"/>
<text text-anchor="start" x="95" y="-232.5" font-family="Helvetica,sans-Serif" font-size="10.00">com.tomoparts.tomoBay.presenters.presenter</text>
<text text-anchor="middle" x="208" y="-221.5" font-family="Helvetica,sans-Serif" font-size="10.00">Actions.concreteActions.OrderInfo.buyerInfo</text>
</a>
</g>
</g>
<!-- Node1&#45;&gt;Node2 -->
<g id="edge1" class="edge"><title>Node1&#45;&gt;Node2</title>
<path fill="none" stroke="midnightblue" d="M39.997,-163.935C51.1662,-177.123 68.2027,-194.598 87,-204.5 94.3429,-208.368 102.234,-211.638 110.335,-214.402"/>
<polygon fill="midnightblue" stroke="midnightblue" points="42.573,-161.555 33.5451,-156.01 37.1447,-165.975 42.573,-161.555"/>
</g>
<!-- Node5 -->
<g id="node5" class="node"><title>Node5</title>
<g id="a_node5"><a xlink:href="classcom_1_1tomoparts_1_1tomoBay_1_1model_1_1dataTypes_1_1financial_1_1SalesOrderDayBook_1_1formats_1_1WinstockFormat.html#accefd62bc10c59d9ba78937d90a5fa8c" target="_top" xlink:title="com.tomoparts.tomoBay.model.data\lTypes.financial.SalesOrderDayBook.formats.\lWinstockFormat.format">
<polygon fill="white" stroke="black" points="93.5,-154 93.5,-195 322.5,-195 322.5,-154 93.5,-154"/>
<text text-anchor="start" x="101.5" y="-183" font-family="Helvetica,sans-Serif" font-size="10.00">com.tomoparts.tomoBay.model.data</text>
<text text-anchor="start" x="101.5" y="-172" font-family="Helvetica,sans-Serif" font-size="10.00">Types.financial.SalesOrderDayBook.formats.</text>
<text text-anchor="middle" x="208" y="-161" font-family="Helvetica,sans-Serif" font-size="10.00">WinstockFormat.format</text>
</a>
</g>
</g>
<!-- Node1&#45;&gt;Node5 -->
<g id="edge4" class="edge"><title>Node1&#45;&gt;Node5</title>
<path fill="none" stroke="midnightblue" d="M61.3818,-151.911C70.9279,-153.392 81.821,-155.082 93.2548,-156.855"/>
<polygon fill="midnightblue" stroke="midnightblue" points="61.6376,-148.409 51.2193,-150.335 60.5646,-155.326 61.6376,-148.409"/>
</g>
<!-- Node6 -->
<g id="node6" class="node"><title>Node6</title>
<g id="a_node6"><a xlink:href="classcom_1_1tomoparts_1_1tomoBay_1_1model_1_1dataTypes_1_1financial_1_1SalesOrderDayBook_1_1SalesDayBookLineFactory.html#a2d63fd7591115332417a84014f39b204" target="_top" xlink:title="create the requested AbstractSalesDayBookLine. ">
<polygon fill="white" stroke="black" points="110.5,-44 110.5,-85 305.5,-85 305.5,-44 110.5,-44"/>
<text text-anchor="start" x="118.5" y="-73" font-family="Helvetica,sans-Serif" font-size="10.00">com.tomoparts.tomoBay.model.data</text>
<text text-anchor="start" x="118.5" y="-62" font-family="Helvetica,sans-Serif" font-size="10.00">Types.financial.SalesOrderDayBook.</text>
<text text-anchor="middle" x="208" y="-51" font-family="Helvetica,sans-Serif" font-size="10.00">SalesDayBookLineFactory.make</text>
</a>
</g>
</g>
<!-- Node1&#45;&gt;Node6 -->
<g id="edge5" class="edge"><title>Node1&#45;&gt;Node6</title>
<path fill="none" stroke="midnightblue" d="M41.9619,-129.572C53.3581,-118.074 69.8094,-103.395 87,-94.5 94.343,-90.7006 102.191,-87.3655 110.227,-84.441"/>
<polygon fill="midnightblue" stroke="midnightblue" points="39.3203,-127.27 34.9328,-136.914 44.3766,-132.111 39.3203,-127.27"/>
</g>
<!-- Node9 -->
<g id="node9" class="node"><title>Node9</title>
<g id="a_node9"><a xlink:href="classcom_1_1tomoparts_1_1tomoBay_1_1presenters_1_1presenterActions_1_1concreteActions_1_1OrderInfo.html#ab4b3569de633225260e7e17c8947c8c5" target="_top" xlink:title="formats the shipping information associated with this order ">
<polygon fill="white" stroke="black" points="87,-104.5 87,-134.5 329,-134.5 329,-104.5 87,-104.5"/>
<text text-anchor="start" x="95" y="-122.5" font-family="Helvetica,sans-Serif" font-size="10.00">com.tomoparts.tomoBay.presenters.presenter</text>
<text text-anchor="middle" x="208" y="-111.5" font-family="Helvetica,sans-Serif" font-size="10.00">Actions.concreteActions.OrderInfo.shippingInfo</text>
</a>
</g>
</g>
<!-- Node1&#45;&gt;Node9 -->
<g id="edge9" class="edge"><title>Node1&#45;&gt;Node9</title>
<path fill="none" stroke="midnightblue" d="M61.2049,-141.309C74.4001,-139.335 90.1873,-136.973 106.426,-134.544"/>
<polygon fill="midnightblue" stroke="midnightblue" points="60.5914,-137.861 51.2193,-142.802 61.6271,-144.784 60.5914,-137.861"/>
</g>
<!-- Node3 -->
<g id="node3" class="node"><title>Node3</title>
<g id="a_node3"><a xlink:href="classcom_1_1tomoparts_1_1tomoBay_1_1presenters_1_1presenterActions_1_1concreteActions_1_1OrderInfo.html#afeec1aeda079b77245edea1e74b25f33" target="_top" xlink:title="assembles the various parts of the order and outputs it as a fully formed JSON string. ">
<polygon fill="white" stroke="black" points="365,-137.5 365,-167.5 614,-167.5 614,-137.5 365,-137.5"/>
<text text-anchor="start" x="373" y="-155.5" font-family="Helvetica,sans-Serif" font-size="10.00">com.tomoparts.tomoBay.presenters.presenter</text>
<text text-anchor="middle" x="489.5" y="-144.5" font-family="Helvetica,sans-Serif" font-size="10.00">Actions.concreteActions.OrderInfo.formatResults</text>
</a>
</g>
</g>
<!-- Node2&#45;&gt;Node3 -->
<g id="edge2" class="edge"><title>Node2&#45;&gt;Node3</title>
<path fill="none" stroke="midnightblue" d="M297.234,-212.273C307.976,-209.836 318.766,-207.225 329,-204.5 369.387,-193.744 414.614,-178.708 446.564,-167.569"/>
<polygon fill="midnightblue" stroke="midnightblue" points="296.4,-208.873 287.398,-214.461 297.92,-215.706 296.4,-208.873"/>
</g>
<!-- Node4 -->
<g id="node4" class="node"><title>Node4</title>
<g id="a_node4"><a xlink:href="classcom_1_1tomoparts_1_1tomoBay_1_1presenters_1_1presenterActions_1_1concreteActions_1_1OrderInfo.html#adb3dedf31dc2c7fc796f20406c235ccd" target="_top" xlink:title="performs the action specified ">
<polygon fill="white" stroke="black" points="650,-115.5 650,-145.5 892,-145.5 892,-115.5 650,-115.5"/>
<text text-anchor="start" x="658" y="-133.5" font-family="Helvetica,sans-Serif" font-size="10.00">com.tomoparts.tomoBay.presenters.presenter</text>
<text text-anchor="middle" x="771" y="-122.5" font-family="Helvetica,sans-Serif" font-size="10.00">Actions.concreteActions.OrderInfo.execute</text>
</a>
</g>
</g>
<!-- Node3&#45;&gt;Node4 -->
<g id="edge3" class="edge"><title>Node3&#45;&gt;Node4</title>
<path fill="none" stroke="midnightblue" d="M624.322,-141.967C632.865,-141.294 641.439,-140.619 649.914,-139.952"/>
<polygon fill="midnightblue" stroke="midnightblue" points="624.008,-138.48 614.313,-142.754 624.557,-145.459 624.008,-138.48"/>
</g>
<!-- Node6&#45;&gt;Node4 -->
<g id="edge6" class="edge"><title>Node6&#45;&gt;Node4</title>
<path fill="none" stroke="midnightblue" d="M315.994,-81.6741C332.389,-84.0991 349.133,-86.458 365,-88.5 460.527,-100.794 569.092,-111.899 649.758,-119.598"/>
<polygon fill="midnightblue" stroke="midnightblue" points="316.25,-78.1735 305.842,-80.1579 315.216,-85.0967 316.25,-78.1735"/>
</g>
<!-- Node7 -->
<g id="node7" class="node"><title>Node7</title>
<g id="a_node7"><a xlink:href="classcom_1_1tomoparts_1_1tomoBay_1_1presenters_1_1presenterActions_1_1concreteActions_1_1PrintInvoices.html#adb3dedf31dc2c7fc796f20406c235ccd" target="_top" xlink:title="performs the action specified ">
<polygon fill="white" stroke="black" points="368.5,-49.5 368.5,-79.5 610.5,-79.5 610.5,-49.5 368.5,-49.5"/>
<text text-anchor="start" x="376.5" y="-67.5" font-family="Helvetica,sans-Serif" font-size="10.00">com.tomoparts.tomoBay.presenters.presenter</text>
<text text-anchor="middle" x="489.5" y="-56.5" font-family="Helvetica,sans-Serif" font-size="10.00">Actions.concreteActions.PrintInvoices.execute</text>
</a>
</g>
</g>
<!-- Node6&#45;&gt;Node7 -->
<g id="edge7" class="edge"><title>Node6&#45;&gt;Node7</title>
<path fill="none" stroke="midnightblue" d="M315.619,-64.5C332.825,-64.5 350.742,-64.5 368.243,-64.5"/>
<polygon fill="midnightblue" stroke="midnightblue" points="315.579,-61.0001 305.579,-64.5 315.579,-68.0001 315.579,-61.0001"/>
</g>
<!-- Node8 -->
<g id="node8" class="node"><title>Node8</title>
<g id="a_node8"><a xlink:href="classcom_1_1tomoparts_1_1tomoBay_1_1presenters_1_1presenterActions_1_1concreteActions_1_1InvoiceOrders.html#adb3dedf31dc2c7fc796f20406c235ccd" target="_top" xlink:title="performs the action specified ">
<polygon fill="white" stroke="black" points="368.5,-0.5 368.5,-30.5 610.5,-30.5 610.5,-0.5 368.5,-0.5"/>
<text text-anchor="start" x="376.5" y="-18.5" font-family="Helvetica,sans-Serif" font-size="10.00">com.tomoparts.tomoBay.presenters.presenter</text>
<text text-anchor="middle" x="489.5" y="-7.5" font-family="Helvetica,sans-Serif" font-size="10.00">Actions.concreteActions.InvoiceOrders.execute</text>
</a>
</g>
</g>
<!-- Node6&#45;&gt;Node8 -->
<g id="edge8" class="edge"><title>Node6&#45;&gt;Node8</title>
<path fill="none" stroke="midnightblue" d="M315.665,-45.8003C344.435,-40.7564 375.191,-35.3645 402.664,-30.5482"/>
<polygon fill="midnightblue" stroke="midnightblue" points="314.825,-42.3941 305.579,-47.5684 316.034,-49.2889 314.825,-42.3941"/>
</g>
<!-- Node9&#45;&gt;Node3 -->
<g id="edge10" class="edge"><title>Node9&#45;&gt;Node3</title>
<path fill="none" stroke="midnightblue" d="M339.18,-134.87C347.745,-135.881 356.358,-136.898 364.89,-137.906"/>
<polygon fill="midnightblue" stroke="midnightblue" points="339.497,-131.383 329.155,-133.686 338.676,-138.335 339.497,-131.383"/>
</g>
</g>
</svg>
