<?xml version="1.0" encoding="UTF-8" standalone="no"?>
<!DOCTYPE svg PUBLIC "-//W3C//DTD SVG 1.1//EN"
 "http://www.w3.org/Graphics/SVG/1.1/DTD/svg11.dtd">
<!-- Generated by graphviz version 2.38.0 (20140413.2041)
 -->
<!-- Title: present Pages: 1 -->
<svg width="582pt" height="193pt"
 viewBox="0.00 0.00 582.00 192.50" xmlns="http://www.w3.org/2000/svg" xmlns:xlink="http://www.w3.org/1999/xlink">
<g id="graph0" class="graph" transform="scale(1 1) rotate(0) translate(4 188.5)">
<title>present</title>
<polygon fill="white" stroke="none" points="-4,4 -4,-188.5 578,-188.5 578,4 -4,4"/>
<!-- Node1 -->
<g id="node1" class="node"><title>Node1</title>
<polygon fill="#bfbfbf" stroke="black" points="0,-74 0,-93 53,-93 53,-74 0,-74"/>
<text text-anchor="middle" x="26.5" y="-81" font-family="Helvetica,sans-Serif" font-size="10.00">present</text>
</g>
<!-- Node2 -->
<g id="node2" class="node"><title>Node2</title>
<g id="a_node2"><a xlink:href="classcom_1_1tomoparts_1_1tomoBay_1_1model_1_1dataTypes_1_1heteroTypeContainer_1_1HeteroFieldContainer.html#a3ba6289417930238a36bfee0056b6398" target="_top" xlink:title="add an arbitrary value to this Field container with the stipulation that this value is of the same ty...">
<polygon fill="white" stroke="black" points="107.5,-143 107.5,-184 313.5,-184 313.5,-143 107.5,-143"/>
<text text-anchor="start" x="115.5" y="-172" font-family="Helvetica,sans-Serif" font-size="10.00">com.tomoparts.tomoBay.model.data</text>
<text text-anchor="start" x="115.5" y="-161" font-family="Helvetica,sans-Serif" font-size="10.00">Types.heteroTypeContainer.HeteroField</text>
<text text-anchor="middle" x="210.5" y="-150" font-family="Helvetica,sans-Serif" font-size="10.00">Container.add</text>
</a>
</g>
</g>
<!-- Node1&#45;&gt;Node2 -->
<g id="edge1" class="edge"><title>Node1&#45;&gt;Node2</title>
<path fill="none" stroke="midnightblue" d="M36.5734,-93.0974C47.8196,-104.427 68.0732,-123.045 89,-133.5 93.0696,-135.533 97.2871,-137.435 101.6,-139.213"/>
<polygon fill="midnightblue" stroke="midnightblue" points="100.586,-142.573 111.176,-142.912 103.109,-136.044 100.586,-142.573"/>
</g>
<!-- Node4 -->
<g id="node4" class="node"><title>Node4</title>
<g id="a_node4"><a xlink:href="classcom_1_1tomoparts_1_1tomoBay_1_1model_1_1sql_1_1framework_1_1SelectQueryInvoker.html#a594282bcbcc0731a7d234482717422d7" target="_top" xlink:title="execute a requested query ">
<polygon fill="white" stroke="black" points="89,-93.5 89,-123.5 332,-123.5 332,-93.5 89,-93.5"/>
<text text-anchor="start" x="97" y="-111.5" font-family="Helvetica,sans-Serif" font-size="10.00">com.tomoparts.tomoBay.model.sql.framework.</text>
<text text-anchor="middle" x="210.5" y="-100.5" font-family="Helvetica,sans-Serif" font-size="10.00">SelectQueryInvoker.execute</text>
</a>
</g>
</g>
<!-- Node1&#45;&gt;Node4 -->
<g id="edge3" class="edge"><title>Node1&#45;&gt;Node4</title>
<path fill="none" stroke="midnightblue" d="M53.1901,-87.0289C63.5192,-88.4477 76.2208,-90.1924 89.8803,-92.0687"/>
<polygon fill="midnightblue" stroke="midnightblue" points="89.5923,-95.562 99.9756,-93.4554 90.545,-88.6271 89.5923,-95.562"/>
</g>
<!-- Node5 -->
<g id="node5" class="node"><title>Node5</title>
<g id="a_node5"><a xlink:href="interfacecom_1_1tomoparts_1_1tomoBay_1_1view_1_1AbstractView.html#a5724666c8c61c4e2ef28d5364c8c13d0" target="_top" xlink:title="this method is responsible for formatting the data as required for the specific derived view ...">
<polygon fill="white" stroke="black" points="128.5,-44.5 128.5,-74.5 292.5,-74.5 292.5,-44.5 128.5,-44.5"/>
<text text-anchor="start" x="136.5" y="-62.5" font-family="Helvetica,sans-Serif" font-size="10.00">com.tomoparts.tomoBay.view.</text>
<text text-anchor="middle" x="210.5" y="-51.5" font-family="Helvetica,sans-Serif" font-size="10.00">AbstractView.format</text>
</a>
</g>
</g>
<!-- Node1&#45;&gt;Node5 -->
<g id="edge4" class="edge"><title>Node1&#45;&gt;Node5</title>
<path fill="none" stroke="midnightblue" d="M53.1901,-80.1123C70.4233,-77.8398 94.261,-74.6963 118.133,-71.5485"/>
<polygon fill="midnightblue" stroke="midnightblue" points="118.889,-74.979 128.346,-70.2016 117.974,-68.0391 118.889,-74.979"/>
</g>
<!-- Node6 -->
<g id="node6" class="node"><title>Node6</title>
<g id="a_node6"><a xlink:href="classcom_1_1tomoparts_1_1tomoBay_1_1presenters_1_1sales_1_1OutOfHoursPresenter.html#a802b943fe484579ab3930df39a019430" target="_top" xlink:title="remove orders older than the ">
<polygon fill="white" stroke="black" points="160,-6 160,-25 261,-25 261,-6 160,-6"/>
<text text-anchor="middle" x="210.5" y="-13" font-family="Helvetica,sans-Serif" font-size="10.00">removeOldOrders</text>
</a>
</g>
</g>
<!-- Node1&#45;&gt;Node6 -->
<g id="edge5" class="edge"><title>Node1&#45;&gt;Node6</title>
<path fill="none" stroke="midnightblue" d="M36.4667,-73.7907C47.6079,-62.3887 67.7581,-43.8481 89,-34.5 107.904,-26.1806 129.893,-21.4424 149.872,-18.7642"/>
<polygon fill="midnightblue" stroke="midnightblue" points="150.289,-22.2394 159.802,-17.5759 149.457,-15.289 150.289,-22.2394"/>
</g>
<!-- Node3 -->
<g id="node3" class="node"><title>Node3</title>
<g id="a_node3"><a xlink:href="classcom_1_1tomoparts_1_1tomoBay_1_1model_1_1dataTypes_1_1heteroTypeContainer_1_1HeteroFieldContainer.html#a9dee3c01eb5ab16203e1c6820a569484" target="_top" xlink:title="performs a type check, assuming that field and type are of the same type then this method returns tru...">
<polygon fill="white" stroke="black" points="368,-143 368,-184 574,-184 574,-143 368,-143"/>
<text text-anchor="start" x="376" y="-172" font-family="Helvetica,sans-Serif" font-size="10.00">com.tomoparts.tomoBay.model.data</text>
<text text-anchor="start" x="376" y="-161" font-family="Helvetica,sans-Serif" font-size="10.00">Types.heteroTypeContainer.HeteroField</text>
<text text-anchor="middle" x="471" y="-150" font-family="Helvetica,sans-Serif" font-size="10.00">Container.isSameType</text>
</a>
</g>
</g>
<!-- Node2&#45;&gt;Node3 -->
<g id="edge2" class="edge"><title>Node2&#45;&gt;Node3</title>
<path fill="none" stroke="midnightblue" d="M313.666,-163.5C328.114,-163.5 343.034,-163.5 357.66,-163.5"/>
<polygon fill="midnightblue" stroke="midnightblue" points="357.73,-167 367.73,-163.5 357.73,-160 357.73,-167"/>
</g>
<!-- Node7 -->
<g id="node7" class="node"><title>Node7</title>
<g id="a_node7"><a xlink:href="classcom_1_1tomoparts_1_1tomoBay_1_1helpers_1_1TimeStampFunctions.html#ae0df31ac021474f703c930ef53c9b09d" target="_top" xlink:title="this method compares the timestamp provided, with the current date to see if it is older than the spe...">
<polygon fill="white" stroke="black" points="381.5,-0.5 381.5,-30.5 560.5,-30.5 560.5,-0.5 381.5,-0.5"/>
<text text-anchor="start" x="389.5" y="-18.5" font-family="Helvetica,sans-Serif" font-size="10.00">com.tomoparts.tomoBay.helpers.</text>
<text text-anchor="middle" x="471" y="-7.5" font-family="Helvetica,sans-Serif" font-size="10.00">TimeStampFunctions.olderThan</text>
</a>
</g>
</g>
<!-- Node6&#45;&gt;Node7 -->
<g id="edge6" class="edge"><title>Node6&#45;&gt;Node7</title>
<path fill="none" stroke="midnightblue" d="M261.036,-15.5C292.257,-15.5 333.66,-15.5 371.372,-15.5"/>
<polygon fill="midnightblue" stroke="midnightblue" points="371.384,-19.0001 381.384,-15.5 371.384,-12.0001 371.384,-19.0001"/>
</g>
</g>
</svg>
