<?xml version="1.0" encoding="UTF-8" standalone="no"?>
<!DOCTYPE svg PUBLIC "-//W3C//DTD SVG 1.1//EN"
 "http://www.w3.org/Graphics/SVG/1.1/DTD/svg11.dtd">
<!-- Generated by graphviz version 2.38.0 (20140413.2041)
 -->
<!-- Title: get Pages: 1 -->
<svg width="546pt" height="39pt"
 viewBox="0.00 0.00 546.00 39.00" xmlns="http://www.w3.org/2000/svg" xmlns:xlink="http://www.w3.org/1999/xlink">
<g id="graph0" class="graph" transform="scale(1 1) rotate(0) translate(4 35)">
<title>get</title>
<polygon fill="white" stroke="none" points="-4,4 -4,-35 542,-35 542,4 -4,4"/>
<!-- Node1 -->
<g id="node1" class="node"><title>Node1</title>
<polygon fill="#bfbfbf" stroke="black" points="0,-6 0,-25 32,-25 32,-6 0,-6"/>
<text text-anchor="middle" x="16" y="-13" font-family="Helvetica,sans-Serif" font-size="10.00">get</text>
</g>
<!-- Node2 -->
<g id="node2" class="node"><title>Node2</title>
<g id="a_node2"><a xlink:href="classcom_1_1tomoparts_1_1tomoBay_1_1view_1_1views_1_1salesOrderView_1_1SalesOrderView.html#a79629cb15df56cead861ca956e1855e6" target="_top" xlink:title="defines a set of set of String values that equate to the &#39;invoiced&#39; values grabbed from the database...">
<polygon fill="white" stroke="black" points="68,-0.5 68,-30.5 285,-30.5 285,-0.5 68,-0.5"/>
<text text-anchor="start" x="76" y="-18.5" font-family="Helvetica,sans-Serif" font-size="10.00">com.tomoparts.tomoBay.view.views.sales</text>
<text text-anchor="middle" x="176.5" y="-7.5" font-family="Helvetica,sans-Serif" font-size="10.00">OrderView.SalesOrderView.pickeability</text>
</a>
</g>
</g>
<!-- Node1&#45;&gt;Node2 -->
<g id="edge1" class="edge"><title>Node1&#45;&gt;Node2</title>
<path fill="none" stroke="midnightblue" d="M42.2226,-15.5C49.7151,-15.5 58.4372,-15.5 67.7669,-15.5"/>
<polygon fill="midnightblue" stroke="midnightblue" points="42.1977,-12.0001 32.1976,-15.5 42.1976,-19.0001 42.1977,-12.0001"/>
</g>
<!-- Node3 -->
<g id="node3" class="node"><title>Node3</title>
<g id="a_node3"><a xlink:href="classcom_1_1tomoparts_1_1tomoBay_1_1view_1_1views_1_1salesOrderView_1_1SalesOrderView.html#a5724666c8c61c4e2ef28d5364c8c13d0" target="_top" xlink:title="this method is responsible for formatting the data as required for the specific derived view ...">
<polygon fill="white" stroke="black" points="321,-0.5 321,-30.5 538,-30.5 538,-0.5 321,-0.5"/>
<text text-anchor="start" x="329" y="-18.5" font-family="Helvetica,sans-Serif" font-size="10.00">com.tomoparts.tomoBay.view.views.sales</text>
<text text-anchor="middle" x="429.5" y="-7.5" font-family="Helvetica,sans-Serif" font-size="10.00">OrderView.SalesOrderView.format</text>
</a>
</g>
</g>
<!-- Node2&#45;&gt;Node3 -->
<g id="edge2" class="edge"><title>Node2&#45;&gt;Node3</title>
<path fill="none" stroke="midnightblue" d="M295.073,-15.5C303.648,-15.5 312.272,-15.5 320.785,-15.5"/>
<polygon fill="midnightblue" stroke="midnightblue" points="295.039,-12.0001 285.039,-15.5 295.039,-19.0001 295.039,-12.0001"/>
</g>
</g>
</svg>
