<?xml version="1.0" encoding="UTF-8" standalone="no"?>
<!DOCTYPE svg PUBLIC "-//W3C//DTD SVG 1.1//EN"
 "http://www.w3.org/Graphics/SVG/1.1/DTD/svg11.dtd">
<!-- Generated by graphviz version 2.38.0 (20140413.2041)
 -->
<!-- Title: setDATEParam Pages: 1 -->
<svg width="978pt" height="121pt"
 viewBox="0.00 0.00 978.00 120.50" xmlns="http://www.w3.org/2000/svg" xmlns:xlink="http://www.w3.org/1999/xlink">
<g id="graph0" class="graph" transform="scale(1 1) rotate(0) translate(4 116.5)">
<title>setDATEParam</title>
<polygon fill="white" stroke="none" points="-4,4 -4,-116.5 974,-116.5 974,4 -4,4"/>
<!-- Node1 -->
<g id="node1" class="node"><title>Node1</title>
<polygon fill="#bfbfbf" stroke="black" points="0,-44 0,-63 89,-63 89,-44 0,-44"/>
<text text-anchor="middle" x="44.5" y="-51" font-family="Helvetica,sans-Serif" font-size="10.00">setDATEParam</text>
</g>
<!-- Node2 -->
<g id="node2" class="node"><title>Node2</title>
<g id="a_node2"><a xlink:href="classcom_1_1tomoparts_1_1tomoBay_1_1model_1_1dataTypes_1_1heteroTypeContainer_1_1HeteroFieldContainer.html#a988363ab964d6dc0ccb8560bef5895b6" target="_top" xlink:title="retrieve the the value of an AbstractField from this HeteroFieldContainer, the field should be of the...">
<polygon fill="white" stroke="black" points="426,-71 426,-112 632,-112 632,-71 426,-71"/>
<text text-anchor="start" x="434" y="-100" font-family="Helvetica,sans-Serif" font-size="10.00">com.tomoparts.tomoBay.model.data</text>
<text text-anchor="start" x="434" y="-89" font-family="Helvetica,sans-Serif" font-size="10.00">Types.heteroTypeContainer.HeteroField</text>
<text text-anchor="middle" x="529" y="-78" font-family="Helvetica,sans-Serif" font-size="10.00">Container.get</text>
</a>
</g>
</g>
<!-- Node1&#45;&gt;Node2 -->
<g id="edge1" class="edge"><title>Node1&#45;&gt;Node2</title>
<path fill="none" stroke="midnightblue" d="M82.1461,-63.0658C95.5648,-66.3544 110.911,-69.8672 125,-72.5 186.724,-84.0345 202.35,-87.2682 265,-91.5 314.339,-94.8327 369.002,-95.3455 415.655,-94.828"/>
<polygon fill="midnightblue" stroke="midnightblue" points="415.836,-98.326 425.79,-94.6981 415.746,-91.3266 415.836,-98.326"/>
</g>
<!-- Node4 -->
<g id="node4" class="node"><title>Node4</title>
<g id="a_node4"><a xlink:href="classcom_1_1tomoparts_1_1tomoBay_1_1model_1_1sql_1_1framework_1_1QueryUtility.html#a5677c2440b48e612fb51b57130555e5d" target="_top" xlink:title="set an Integer parameter for the query object specified. ">
<polygon fill="white" stroke="black" points="125,-44 125,-63 229,-63 229,-44 125,-44"/>
<text text-anchor="middle" x="177" y="-51" font-family="Helvetica,sans-Serif" font-size="10.00">setDOUBLEParam</text>
</a>
</g>
</g>
<!-- Node1&#45;&gt;Node4 -->
<g id="edge3" class="edge"><title>Node1&#45;&gt;Node4</title>
<path fill="none" stroke="midnightblue" d="M89.3176,-53.5C97.5136,-53.5 106.217,-53.5 114.826,-53.5"/>
<polygon fill="midnightblue" stroke="midnightblue" points="114.852,-57.0001 124.852,-53.5 114.852,-50.0001 114.852,-57.0001"/>
</g>
<!-- Node5 -->
<g id="node5" class="node"><title>Node5</title>
<g id="a_node5"><a xlink:href="classcom_1_1tomoparts_1_1tomoBay_1_1model_1_1sql_1_1framework_1_1queryTypes_1_1AbstractDBQuery.html#a41678b13e84de4335130f10cea7ae562" target="_top" xlink:title="get the statement object associated with this query ">
<polygon fill="white" stroke="black" points="394,-0.5 394,-30.5 664,-30.5 664,-0.5 394,-0.5"/>
<text text-anchor="start" x="402" y="-18.5" font-family="Helvetica,sans-Serif" font-size="10.00">com.tomoparts.tomoBay.model.sql.framework.query</text>
<text text-anchor="middle" x="529" y="-7.5" font-family="Helvetica,sans-Serif" font-size="10.00">Types.AbstractDBQuery.statement</text>
</a>
</g>
</g>
<!-- Node1&#45;&gt;Node5 -->
<g id="edge10" class="edge"><title>Node1&#45;&gt;Node5</title>
<path fill="none" stroke="midnightblue" d="M80.504,-43.9999C94.2828,-40.5591 110.299,-36.9267 125,-34.5 209.988,-20.4713 306.322,-15.5363 383.489,-14.1955"/>
<polygon fill="midnightblue" stroke="midnightblue" points="383.82,-17.6909 393.764,-14.0361 383.711,-10.6917 383.82,-17.6909"/>
</g>
<!-- Node3 -->
<g id="node3" class="node"><title>Node3</title>
<g id="a_node3"><a xlink:href="classcom_1_1tomoparts_1_1tomoBay_1_1model_1_1dataTypes_1_1heteroTypeContainer_1_1HeteroFieldContainer.html#a9dee3c01eb5ab16203e1c6820a569484" target="_top" xlink:title="performs a type check, assuming that field and type are of the same type then this method returns tru...">
<polygon fill="white" stroke="black" points="732,-71 732,-112 938,-112 938,-71 732,-71"/>
<text text-anchor="start" x="740" y="-100" font-family="Helvetica,sans-Serif" font-size="10.00">com.tomoparts.tomoBay.model.data</text>
<text text-anchor="start" x="740" y="-89" font-family="Helvetica,sans-Serif" font-size="10.00">Types.heteroTypeContainer.HeteroField</text>
<text text-anchor="middle" x="835" y="-78" font-family="Helvetica,sans-Serif" font-size="10.00">Container.isSameType</text>
</a>
</g>
</g>
<!-- Node2&#45;&gt;Node3 -->
<g id="edge2" class="edge"><title>Node2&#45;&gt;Node3</title>
<path fill="none" stroke="midnightblue" d="M632.073,-91.5C660.85,-91.5 692.312,-91.5 721.655,-91.5"/>
<polygon fill="midnightblue" stroke="midnightblue" points="721.937,-95.0001 731.937,-91.5 721.937,-88.0001 721.937,-95.0001"/>
</g>
<!-- Node4&#45;&gt;Node2 -->
<g id="edge6" class="edge"><title>Node4&#45;&gt;Node2</title>
<path fill="none" stroke="midnightblue" d="M215.899,-63.0102C231.077,-66.4948 248.781,-70.1553 265,-72.5 314.175,-79.6088 368.927,-84.1051 415.688,-86.9262"/>
<polygon fill="midnightblue" stroke="midnightblue" points="415.659,-90.4304 425.847,-87.5205 416.068,-83.4424 415.659,-90.4304"/>
</g>
<!-- Node4&#45;&gt;Node5 -->
<g id="edge4" class="edge"><title>Node4&#45;&gt;Node5</title>
<path fill="none" stroke="midnightblue" d="M215.899,-43.9898C231.077,-40.5052 248.781,-36.8447 265,-34.5 303.264,-28.9685 344.904,-25.0189 383.529,-22.2094"/>
<polygon fill="midnightblue" stroke="midnightblue" points="384.078,-25.6794 393.807,-21.4832 383.585,-18.6968 384.078,-25.6794"/>
</g>
<!-- Node7 -->
<g id="node7" class="node"><title>Node7</title>
<g id="a_node7"><a xlink:href="classcom_1_1tomoparts_1_1tomoBay_1_1model_1_1sql_1_1framework_1_1QueryUtility.html#adf8f1fea7b649baadeb0297c41be72f5" target="_top" xlink:title="set an Integer parameter for the query object specified. ">
<polygon fill="white" stroke="black" points="265,-44 265,-63 358,-63 358,-44 265,-44"/>
<text text-anchor="middle" x="311.5" y="-51" font-family="Helvetica,sans-Serif" font-size="10.00">setFLOATParam</text>
</a>
</g>
</g>
<!-- Node4&#45;&gt;Node7 -->
<g id="edge7" class="edge"><title>Node4&#45;&gt;Node7</title>
<path fill="none" stroke="midnightblue" d="M229.228,-53.5C237.512,-53.5 246.126,-53.5 254.515,-53.5"/>
<polygon fill="midnightblue" stroke="midnightblue" points="254.599,-57.0001 264.599,-53.5 254.599,-50.0001 254.599,-57.0001"/>
</g>
<!-- Node6 -->
<g id="node6" class="node"><title>Node6</title>
<g id="a_node6"><a xlink:href="classcom_1_1tomoparts_1_1tomoBay_1_1model_1_1sql_1_1framework_1_1queryTypes_1_1AbstractDBQuery.html#ae8a5c5f1701ee77ef658050c8345d518" target="_top" xlink:title="Used by derived classes to define the Query string to be used in the query. ">
<polygon fill="white" stroke="black" points="700,-0.5 700,-30.5 970,-30.5 970,-0.5 700,-0.5"/>
<text text-anchor="start" x="708" y="-18.5" font-family="Helvetica,sans-Serif" font-size="10.00">com.tomoparts.tomoBay.model.sql.framework.query</text>
<text text-anchor="middle" x="835" y="-7.5" font-family="Helvetica,sans-Serif" font-size="10.00">Types.AbstractDBQuery.queryString</text>
</a>
</g>
</g>
<!-- Node5&#45;&gt;Node6 -->
<g id="edge5" class="edge"><title>Node5&#45;&gt;Node6</title>
<path fill="none" stroke="midnightblue" d="M664.224,-15.5C672.592,-15.5 681.032,-15.5 689.443,-15.5"/>
<polygon fill="midnightblue" stroke="midnightblue" points="689.679,-19.0001 699.679,-15.5 689.679,-12.0001 689.679,-19.0001"/>
</g>
<!-- Node7&#45;&gt;Node2 -->
<g id="edge9" class="edge"><title>Node7&#45;&gt;Node2</title>
<path fill="none" stroke="midnightblue" d="M358.202,-61.5588C375.19,-64.5544 395.3,-68.1005 415.63,-71.6853"/>
<polygon fill="midnightblue" stroke="midnightblue" points="415.159,-75.1561 425.614,-73.4459 416.374,-68.2625 415.159,-75.1561"/>
</g>
<!-- Node7&#45;&gt;Node5 -->
<g id="edge8" class="edge"><title>Node7&#45;&gt;Node5</title>
<path fill="none" stroke="midnightblue" d="M358.202,-45.4412C380.003,-41.5968 406.946,-36.846 432.896,-32.2701"/>
<polygon fill="midnightblue" stroke="midnightblue" points="433.54,-35.7106 442.78,-30.5271 432.324,-28.8169 433.54,-35.7106"/>
</g>
</g>
</svg>
