<?xml version="1.0" encoding="UTF-8" standalone="no"?>
<!DOCTYPE svg PUBLIC "-//W3C//DTD SVG 1.1//EN"
 "http://www.w3.org/Graphics/SVG/1.1/DTD/svg11.dtd">
<!-- Generated by graphviz version 2.38.0 (20140413.2041)
 -->
<!-- Title: setUpEmail Pages: 1 -->
<svg width="733pt" height="78pt"
 viewBox="0.00 0.00 733.00 77.50" xmlns="http://www.w3.org/2000/svg" xmlns:xlink="http://www.w3.org/1999/xlink">
<g id="graph0" class="graph" transform="scale(1 1) rotate(0) translate(4 73.5)">
<title>setUpEmail</title>
<polygon fill="white" stroke="none" points="-4,4 -4,-73.5 729,-73.5 729,4 -4,4"/>
<!-- Node1 -->
<g id="node1" class="node"><title>Node1</title>
<polygon fill="#bfbfbf" stroke="black" points="0,-22.5 0,-41.5 71,-41.5 71,-22.5 0,-22.5"/>
<text text-anchor="middle" x="35.5" y="-29.5" font-family="Helvetica,sans-Serif" font-size="10.00">setUpEmail</text>
</g>
<!-- Node2 -->
<g id="node2" class="node"><title>Node2</title>
<g id="a_node2"><a xlink:href="classcom_1_1tomoparts_1_1tomoBay_1_1model_1_1net_1_1email_1_1MailClient.html#af9eddf4b6d3506f30b2f282c86c59ed6" target="_top" xlink:title="sends an email containing a message and subject. ">
<polygon fill="white" stroke="black" points="107,-22.5 107,-41.5 147,-41.5 147,-22.5 107,-22.5"/>
<text text-anchor="middle" x="127" y="-29.5" font-family="Helvetica,sans-Serif" font-size="10.00">send</text>
</a>
</g>
</g>
<!-- Node1&#45;&gt;Node2 -->
<g id="edge1" class="edge"><title>Node1&#45;&gt;Node2</title>
<path fill="none" stroke="midnightblue" d="M81.2688,-32C90.3428,-32 99.4158,-32 106.995,-32"/>
<polygon fill="midnightblue" stroke="midnightblue" points="81.1031,-28.5001 71.103,-32 81.103,-35.5001 81.1031,-28.5001"/>
</g>
<!-- Node3 -->
<g id="node3" class="node"><title>Node3</title>
<g id="a_node3"><a xlink:href="classcom_1_1tomoparts_1_1tomoBay_1_1presenters_1_1presenterActions_1_1concreteActions_1_1InvoiceOrders.html#a9c77c827472e4f09aa020d55e7d33b10" target="_top" xlink:title="com.tomoparts.tomoBay.presenters.presenter\lActions.concreteActions.InvoiceOrders.emailResults">
<polygon fill="white" stroke="black" points="183,-39 183,-69 447,-69 447,-39 183,-39"/>
<text text-anchor="start" x="191" y="-57" font-family="Helvetica,sans-Serif" font-size="10.00">com.tomoparts.tomoBay.presenters.presenter</text>
<text text-anchor="middle" x="315" y="-46" font-family="Helvetica,sans-Serif" font-size="10.00">Actions.concreteActions.InvoiceOrders.emailResults</text>
</a>
</g>
</g>
<!-- Node2&#45;&gt;Node3 -->
<g id="edge2" class="edge"><title>Node2&#45;&gt;Node3</title>
<path fill="none" stroke="midnightblue" d="M157.416,-35.4793C166.123,-36.5091 176.256,-37.7077 187.101,-38.9905"/>
<polygon fill="midnightblue" stroke="midnightblue" points="157.547,-31.9704 147.205,-34.2715 156.724,-38.922 157.547,-31.9704"/>
</g>
<!-- Node5 -->
<g id="node5" class="node"><title>Node5</title>
<g id="a_node5"><a xlink:href="classcom_1_1tomoparts_1_1tomoBay_1_1model_1_1net_1_1email_1_1MailClient.html#a9a353e90e57af1d4968845017c4d6fa8" target="_top" xlink:title="MailClient">
<polygon fill="white" stroke="black" points="284,-0.5 284,-19.5 346,-19.5 346,-0.5 284,-0.5"/>
<text text-anchor="middle" x="315" y="-7.5" font-family="Helvetica,sans-Serif" font-size="10.00">MailClient</text>
</a>
</g>
</g>
<!-- Node2&#45;&gt;Node5 -->
<g id="edge4" class="edge"><title>Node2&#45;&gt;Node5</title>
<path fill="none" stroke="midnightblue" d="M157.145,-28.5528C191.684,-24.4675 248.945,-17.6947 283.898,-13.5605"/>
<polygon fill="midnightblue" stroke="midnightblue" points="156.724,-25.078 147.205,-29.7285 157.547,-32.0296 156.724,-25.078"/>
</g>
<!-- Node4 -->
<g id="node4" class="node"><title>Node4</title>
<g id="a_node4"><a xlink:href="classcom_1_1tomoparts_1_1tomoBay_1_1presenters_1_1presenterActions_1_1concreteActions_1_1InvoiceOrders.html#adb3dedf31dc2c7fc796f20406c235ccd" target="_top" xlink:title="performs the action specified ">
<polygon fill="white" stroke="black" points="483,-39 483,-69 725,-69 725,-39 483,-39"/>
<text text-anchor="start" x="491" y="-57" font-family="Helvetica,sans-Serif" font-size="10.00">com.tomoparts.tomoBay.presenters.presenter</text>
<text text-anchor="middle" x="604" y="-46" font-family="Helvetica,sans-Serif" font-size="10.00">Actions.concreteActions.InvoiceOrders.execute</text>
</a>
</g>
</g>
<!-- Node3&#45;&gt;Node4 -->
<g id="edge3" class="edge"><title>Node3&#45;&gt;Node4</title>
<path fill="none" stroke="midnightblue" d="M457.581,-54C466.002,-54 474.432,-54 482.754,-54"/>
<polygon fill="midnightblue" stroke="midnightblue" points="457.321,-50.5001 447.321,-54 457.321,-57.5001 457.321,-50.5001"/>
</g>
</g>
</svg>
