<?xml version="1.0" encoding="UTF-8" standalone="no"?>
<!DOCTYPE svg PUBLIC "-//W3C//DTD SVG 1.1//EN"
 "http://www.w3.org/Graphics/SVG/1.1/DTD/svg11.dtd">
<!-- Generated by graphviz version 2.38.0 (20140413.2041)
 -->
<!-- Title: EmailErrorsMailActions Pages: 1 -->
<svg width="663pt" height="651pt"
 viewBox="0.00 0.00 662.50 651.00" xmlns="http://www.w3.org/2000/svg" xmlns:xlink="http://www.w3.org/1999/xlink">
<g id="graph0" class="graph" transform="scale(1 1) rotate(0) translate(4 647)">
<title>EmailErrorsMailActions</title>
<polygon fill="white" stroke="none" points="-4,4 -4,-647 658.5,-647 658.5,4 -4,4"/>
<!-- Node1 -->
<g id="node1" class="node"><title>Node1</title>
<polygon fill="#bfbfbf" stroke="black" points="180,-0.5 180,-112.5 324,-112.5 324,-0.5 180,-0.5"/>
<text text-anchor="middle" x="252" y="-100.5" font-family="Helvetica,sans-Serif" font-size="10.00">EmailErrorsMailActions</text>
<polyline fill="none" stroke="black" points="180,-93.5 324,-93.5 "/>
<text text-anchor="middle" x="252" y="-81.5" font-family="Helvetica,sans-Serif" font-size="10.00"> </text>
<polyline fill="none" stroke="black" points="180,-74.5 324,-74.5 "/>
<text text-anchor="start" x="188" y="-62.5" font-family="Helvetica,sans-Serif" font-size="10.00">+ EmailErrorsMailActions()</text>
<text text-anchor="start" x="188" y="-51.5" font-family="Helvetica,sans-Serif" font-size="10.00">+ loadData()</text>
<text text-anchor="start" x="188" y="-40.5" font-family="Helvetica,sans-Serif" font-size="10.00">+ send()</text>
<text text-anchor="start" x="188" y="-29.5" font-family="Helvetica,sans-Serif" font-size="10.00">+ addMessage()</text>
<text text-anchor="start" x="188" y="-18.5" font-family="Helvetica,sans-Serif" font-size="10.00">&#45; addRecipient()</text>
<text text-anchor="start" x="188" y="-7.5" font-family="Helvetica,sans-Serif" font-size="10.00">&#45; addSubject()</text>
</g>
<!-- Node2 -->
<g id="node2" class="node"><title>Node2</title>
<g id="a_node2"><a xlink:href="classcom_1_1tomoparts_1_1tomoBay_1_1model_1_1net_1_1email_1_1MailServerSend.html" target="_top" xlink:title="This class represents a MailServer send connection, it allows the sending of email from a specific ad...">
<polygon fill="white" stroke="black" points="193.5,-425.5 193.5,-526.5 342.5,-526.5 342.5,-425.5 193.5,-425.5"/>
<text text-anchor="middle" x="268" y="-514.5" font-family="Helvetica,sans-Serif" font-size="10.00">MailServerSend</text>
<polyline fill="none" stroke="black" points="193.5,-507.5 342.5,-507.5 "/>
<text text-anchor="start" x="201.5" y="-495.5" font-family="Helvetica,sans-Serif" font-size="10.00"># transportProtocol</text>
<text text-anchor="start" x="201.5" y="-484.5" font-family="Helvetica,sans-Serif" font-size="10.00"># serverIP_M</text>
<polyline fill="none" stroke="black" points="193.5,-477.5 342.5,-477.5 "/>
<text text-anchor="start" x="201.5" y="-465.5" font-family="Helvetica,sans-Serif" font-size="10.00">+ send()</text>
<text text-anchor="start" x="201.5" y="-454.5" font-family="Helvetica,sans-Serif" font-size="10.00"># MailServerSend()</text>
<text text-anchor="start" x="201.5" y="-443.5" font-family="Helvetica,sans-Serif" font-size="10.00">&#45; generateMimeMessage()</text>
<text text-anchor="start" x="201.5" y="-432.5" font-family="Helvetica,sans-Serif" font-size="10.00">&#45; createMailServerSession()</text>
</a>
</g>
</g>
<!-- Node2&#45;&gt;Node1 -->
<g id="edge1" class="edge"><title>Node2&#45;&gt;Node1</title>
<path fill="none" stroke="#404040" d="M284.396,-425.227C285.877,-419.143 287.141,-412.968 288,-407 305.485,-285.586 315.694,-250.5 288,-131 287.471,-128.716 286.86,-126.421 286.181,-124.126"/>
<polygon fill="none" stroke="#404040" points="286.157,-124.056 280.429,-119.674 282.271,-112.702 287.999,-117.084 286.157,-124.056"/>
<text text-anchor="middle" x="347.5" y="-272" font-family="Helvetica,sans-Serif" font-size="10.00"> &#45;sendConnection</text>
</g>
<!-- Node8 -->
<g id="node8" class="node"><title>Node8</title>
<g id="a_node8"><a xlink:href="classcom_1_1tomoparts_1_1tomoBay_1_1model_1_1net_1_1email_1_1AbstractEmailBuilder.html" target="_top" xlink:title="Copyright(C) 2015 Jan P.C. ">
<polygon fill="white" stroke="black" points="87.5,-298.5 87.5,-377.5 274.5,-377.5 274.5,-298.5 87.5,-298.5"/>
<text text-anchor="middle" x="181" y="-365.5" font-family="Helvetica,sans-Serif" font-size="10.00">AbstractEmailBuilder</text>
<polyline fill="none" stroke="black" points="87.5,-358.5 274.5,-358.5 "/>
<text text-anchor="middle" x="181" y="-346.5" font-family="Helvetica,sans-Serif" font-size="10.00"> </text>
<polyline fill="none" stroke="black" points="87.5,-339.5 274.5,-339.5 "/>
<text text-anchor="start" x="95.5" y="-327.5" font-family="Helvetica,sans-Serif" font-size="10.00"># AbstractEmailBuilder()</text>
<text text-anchor="start" x="95.5" y="-316.5" font-family="Helvetica,sans-Serif" font-size="10.00"># buildMailServerSendConnection()</text>
<text text-anchor="start" x="95.5" y="-305.5" font-family="Helvetica,sans-Serif" font-size="10.00"># buildEmail()</text>
</a>
</g>
</g>
<!-- Node2&#45;&gt;Node8 -->
<g id="edge8" class="edge"><title>Node2&#45;&gt;Node8</title>
<path fill="none" stroke="#404040" d="M223.706,-425.327C219.166,-419.33 214.825,-413.147 211,-407 207.464,-401.317 204.129,-395.144 201.059,-388.915"/>
<polygon fill="none" stroke="#404040" points="200.914,-388.604 194.75,-384.862 195.833,-377.733 201.997,-381.475 200.914,-388.604"/>
<text text-anchor="middle" x="249.5" y="-399" font-family="Helvetica,sans-Serif" font-size="10.00"> #mailServer_M</text>
</g>
<!-- Node3 -->
<g id="node3" class="node"><title>Node3</title>
<polygon fill="white" stroke="#bfbfbf" points="235.5,-580 235.5,-637 300.5,-637 300.5,-580 235.5,-580"/>
<text text-anchor="middle" x="268" y="-625" font-family="Helvetica,sans-Serif" font-size="10.00">Properties</text>
<polyline fill="none" stroke="#bfbfbf" points="235.5,-618 300.5,-618 "/>
<text text-anchor="middle" x="268" y="-606" font-family="Helvetica,sans-Serif" font-size="10.00"> </text>
<polyline fill="none" stroke="#bfbfbf" points="235.5,-599 300.5,-599 "/>
<text text-anchor="middle" x="268" y="-587" font-family="Helvetica,sans-Serif" font-size="10.00"> </text>
</g>
<!-- Node3&#45;&gt;Node2 -->
<g id="edge2" class="edge"><title>Node3&#45;&gt;Node2</title>
<path fill="none" stroke="#404040" d="M268,-579.824C268,-567.725 268,-553.01 268,-538.54"/>
<polygon fill="none" stroke="#404040" points="268,-538.505 264,-532.505 268,-526.505 272,-532.505 268,-538.505"/>
<text text-anchor="middle" x="324" y="-548" font-family="Helvetica,sans-Serif" font-size="10.00"> #mailServerProperties</text>
</g>
<!-- Node4 -->
<g id="node4" class="node"><title>Node4</title>
<polygon fill="white" stroke="#bfbfbf" points="329.5,-160.5 329.5,-250.5 654.5,-250.5 654.5,-160.5 329.5,-160.5"/>
<text text-anchor="start" x="337.5" y="-238.5" font-family="Helvetica,sans-Serif" font-size="10.00">Map&lt; com.tomoparts.tomoBay.model.services.email</text>
<text text-anchor="start" x="337.5" y="-227.5" font-family="Helvetica,sans-Serif" font-size="10.00">ErrorsService.EmailErrorsService.com.tomoparts.tomo</text>
<text text-anchor="start" x="337.5" y="-216.5" font-family="Helvetica,sans-Serif" font-size="10.00">Bay.model.services.emailErrorsService.EmailErrorsService.email</text>
<text text-anchor="middle" x="492" y="-205.5" font-family="Helvetica,sans-Serif" font-size="10.00">DataType, Message.RecipientType &gt;</text>
<polyline fill="none" stroke="#bfbfbf" points="329.5,-198.5 654.5,-198.5 "/>
<text text-anchor="middle" x="492" y="-186.5" font-family="Helvetica,sans-Serif" font-size="10.00"> </text>
<polyline fill="none" stroke="#bfbfbf" points="329.5,-179.5 654.5,-179.5 "/>
<text text-anchor="middle" x="492" y="-167.5" font-family="Helvetica,sans-Serif" font-size="10.00"> </text>
</g>
<!-- Node4&#45;&gt;Node1 -->
<g id="edge3" class="edge"><title>Node4&#45;&gt;Node1</title>
<path fill="none" stroke="#404040" d="M419.992,-160.395C393.179,-143.972 362.54,-125.205 334.833,-108.235"/>
<polygon fill="none" stroke="#404040" points="334.605,-108.095 327.399,-108.372 324.372,-101.828 331.577,-101.55 334.605,-108.095"/>
<text text-anchor="middle" x="420.5" y="-134" font-family="Helvetica,sans-Serif" font-size="10.00"> &#45;recipients_M</text>
</g>
<!-- Node5 -->
<g id="node5" class="node"><title>Node5</title>
<g id="a_node5"><a xlink:href="classcom_1_1tomoparts_1_1tomoBay_1_1model_1_1net_1_1email_1_1Email.html" target="_top" xlink:title="This class represents an email, it contains recipients a subject and a message body. ">
<polygon fill="white" stroke="black" points="31,-425.5 31,-526.5 141,-526.5 141,-425.5 31,-425.5"/>
<text text-anchor="middle" x="86" y="-514.5" font-family="Helvetica,sans-Serif" font-size="10.00">Email</text>
<polyline fill="none" stroke="black" points="31,-507.5 141,-507.5 "/>
<text text-anchor="start" x="39" y="-495.5" font-family="Helvetica,sans-Serif" font-size="10.00"># subject_M</text>
<text text-anchor="start" x="39" y="-484.5" font-family="Helvetica,sans-Serif" font-size="10.00"># messageBody_M</text>
<polyline fill="none" stroke="black" points="31,-477.5 141,-477.5 "/>
<text text-anchor="start" x="39" y="-465.5" font-family="Helvetica,sans-Serif" font-size="10.00">+ setRecipient()</text>
<text text-anchor="start" x="39" y="-454.5" font-family="Helvetica,sans-Serif" font-size="10.00">+ setSubject()</text>
<text text-anchor="start" x="39" y="-443.5" font-family="Helvetica,sans-Serif" font-size="10.00">+ setMessage()</text>
<text text-anchor="start" x="39" y="-432.5" font-family="Helvetica,sans-Serif" font-size="10.00"># Email()</text>
</a>
</g>
</g>
<!-- Node5&#45;&gt;Node1 -->
<g id="edge4" class="edge"><title>Node5&#45;&gt;Node1</title>
<path fill="none" stroke="#404040" d="M74.5631,-425.376C62.2341,-359.148 50.7576,-240.842 103,-160 119.401,-134.621 144.528,-113.837 169.503,-97.7811"/>
<polygon fill="none" stroke="#404040" points="169.59,-97.7277 172.587,-91.1693 179.794,-91.414 176.796,-97.9724 169.59,-97.7277"/>
<text text-anchor="middle" x="84" y="-272" font-family="Helvetica,sans-Serif" font-size="10.00"> &#45;email</text>
</g>
<!-- Node5&#45;&gt;Node8 -->
<g id="edge9" class="edge"><title>Node5&#45;&gt;Node8</title>
<path fill="none" stroke="#404040" d="M120.835,-425.131C129.358,-412.93 138.467,-399.89 146.952,-387.743"/>
<polygon fill="none" stroke="#404040" points="147.034,-387.625 147.191,-380.415 153.906,-377.787 153.749,-384.997 147.034,-387.625"/>
<text text-anchor="middle" x="166" y="-399" font-family="Helvetica,sans-Serif" font-size="10.00"> #email_M</text>
</g>
<!-- Node6 -->
<g id="node6" class="node"><title>Node6</title>
<polygon fill="white" stroke="#bfbfbf" points="0,-574.5 0,-642.5 172,-642.5 172,-574.5 0,-574.5"/>
<text text-anchor="start" x="8" y="-630.5" font-family="Helvetica,sans-Serif" font-size="10.00">Map&lt; String, Message.Recipient</text>
<text text-anchor="middle" x="86" y="-619.5" font-family="Helvetica,sans-Serif" font-size="10.00">Type &gt;</text>
<polyline fill="none" stroke="#bfbfbf" points="0,-612.5 172,-612.5 "/>
<text text-anchor="middle" x="86" y="-600.5" font-family="Helvetica,sans-Serif" font-size="10.00"> </text>
<polyline fill="none" stroke="#bfbfbf" points="0,-593.5 172,-593.5 "/>
<text text-anchor="middle" x="86" y="-581.5" font-family="Helvetica,sans-Serif" font-size="10.00"> </text>
</g>
<!-- Node6&#45;&gt;Node5 -->
<g id="edge5" class="edge"><title>Node6&#45;&gt;Node5</title>
<path fill="none" stroke="#404040" d="M86,-574.232C86,-563.471 86,-551.168 86,-539.015"/>
<polygon fill="none" stroke="#404040" points="86.0001,-538.975 82,-532.975 86,-526.975 90,-532.975 86.0001,-538.975"/>
<text text-anchor="middle" x="122" y="-548" font-family="Helvetica,sans-Serif" font-size="10.00"> #recipients_M</text>
</g>
<!-- Node7 -->
<g id="node7" class="node"><title>Node7</title>
<g id="a_node7"><a xlink:href="classcom_1_1tomoparts_1_1tomoBay_1_1model_1_1net_1_1email_1_1EmailDirector.html" target="_top" xlink:title="Copyright(C) 2015 Jan P.C. ">
<polygon fill="white" stroke="black" points="112.5,-160.5 112.5,-250.5 269.5,-250.5 269.5,-160.5 112.5,-160.5"/>
<text text-anchor="middle" x="191" y="-238.5" font-family="Helvetica,sans-Serif" font-size="10.00">EmailDirector</text>
<polyline fill="none" stroke="black" points="112.5,-231.5 269.5,-231.5 "/>
<text text-anchor="middle" x="191" y="-219.5" font-family="Helvetica,sans-Serif" font-size="10.00"> </text>
<polyline fill="none" stroke="black" points="112.5,-212.5 269.5,-212.5 "/>
<text text-anchor="start" x="120.5" y="-200.5" font-family="Helvetica,sans-Serif" font-size="10.00">+ EmailDirector()</text>
<text text-anchor="start" x="120.5" y="-189.5" font-family="Helvetica,sans-Serif" font-size="10.00">+ constructEmailAndServer()</text>
<text text-anchor="start" x="120.5" y="-178.5" font-family="Helvetica,sans-Serif" font-size="10.00">+ getEmail()</text>
<text text-anchor="start" x="120.5" y="-167.5" font-family="Helvetica,sans-Serif" font-size="10.00">+ getMailSendServer()</text>
</a>
</g>
</g>
<!-- Node7&#45;&gt;Node1 -->
<g id="edge6" class="edge"><title>Node7&#45;&gt;Node1</title>
<path fill="none" stroke="#404040" d="M196.619,-160.193C198.635,-150.378 201.351,-140.173 205,-131 205.94,-128.636 206.96,-126.266 208.043,-123.9"/>
<polygon fill="none" stroke="#404040" points="208.172,-123.643 207.273,-116.489 213.532,-112.907 214.43,-120.062 208.172,-123.643"/>
<text text-anchor="middle" x="246.5" y="-134" font-family="Helvetica,sans-Serif" font-size="10.00"> &#45;mailManager_M</text>
</g>
<!-- Node8&#45;&gt;Node7 -->
<g id="edge7" class="edge"><title>Node8&#45;&gt;Node7</title>
<path fill="none" stroke="#404040" d="M183.973,-298.199C184.819,-287.158 185.759,-274.901 186.668,-263.035"/>
<polygon fill="none" stroke="#404040" points="186.682,-262.844 183.153,-256.556 187.599,-250.879 191.129,-257.167 186.682,-262.844"/>
<text text-anchor="middle" x="215" y="-272" font-family="Helvetica,sans-Serif" font-size="10.00"> ~builder_M</text>
</g>
</g>
</svg>
