<?xml version="1.0" encoding="UTF-8" standalone="no"?>
<!DOCTYPE svg PUBLIC "-//W3C//DTD SVG 1.1//EN"
 "http://www.w3.org/Graphics/SVG/1.1/DTD/svg11.dtd">
<!-- Generated by graphviz version 2.38.0 (20140413.2041)
 -->
<!-- Title: totalExVat Pages: 1 -->
<svg width="1020pt" height="117pt"
 viewBox="0.00 0.00 1020.00 116.50" xmlns="http://www.w3.org/2000/svg" xmlns:xlink="http://www.w3.org/1999/xlink">
<g id="graph0" class="graph" transform="scale(1 1) rotate(0) translate(4 112.5)">
<title>totalExVat</title>
<polygon fill="white" stroke="none" points="-4,4 -4,-112.5 1016,-112.5 1016,4 -4,4"/>
<!-- Node1 -->
<g id="node1" class="node"><title>Node1</title>
<polygon fill="#bfbfbf" stroke="black" points="0,-61.5 0,-80.5 66,-80.5 66,-61.5 0,-61.5"/>
<text text-anchor="middle" x="33" y="-68.5" font-family="Helvetica,sans-Serif" font-size="10.00">totalExVat</text>
</g>
<!-- Node2 -->
<g id="node2" class="node"><title>Node2</title>
<g id="a_node2"><a xlink:href="classcom_1_1tomoparts_1_1tomoBay_1_1model_1_1dataTypes_1_1financial_1_1VAT.html#a9dfd34f223ef659c7eaa29ffc0f06b02" target="_top" xlink:title="subtract vat to the value provided as argument ">
<polygon fill="white" stroke="black" points="102,-78 102,-108 297,-108 297,-78 102,-78"/>
<text text-anchor="start" x="110" y="-96" font-family="Helvetica,sans-Serif" font-size="10.00">com.tomoparts.tomoBay.model.data</text>
<text text-anchor="middle" x="199.5" y="-85" font-family="Helvetica,sans-Serif" font-size="10.00">Types.financial.VAT.subtract</text>
</a>
</g>
</g>
<!-- Node1&#45;&gt;Node2 -->
<g id="edge1" class="edge"><title>Node1&#45;&gt;Node2</title>
<path fill="none" stroke="midnightblue" d="M66.1078,-75.294C73.8669,-76.3317 82.5887,-77.4982 91.7573,-78.7244"/>
<polygon fill="midnightblue" stroke="midnightblue" points="91.4815,-82.2186 101.857,-80.0751 92.4095,-75.2804 91.4815,-82.2186"/>
</g>
<!-- Node3 -->
<g id="node3" class="node"><title>Node3</title>
<g id="a_node3"><a xlink:href="classcom_1_1tomoparts_1_1tomoBay_1_1model_1_1dataTypes_1_1financial_1_1SalesOrderDayBook_1_1AbstractSalesDayBookLine.html#aea325f3c68ee2726fc713821e3e2b63c" target="_top" xlink:title="retrieve the total (including VAT) price of this order ">
<polygon fill="white" stroke="black" points="165.5,-39.5 165.5,-58.5 233.5,-58.5 233.5,-39.5 165.5,-39.5"/>
<text text-anchor="middle" x="199.5" y="-46.5" font-family="Helvetica,sans-Serif" font-size="10.00">totalIncVat</text>
</a>
</g>
</g>
<!-- Node1&#45;&gt;Node3 -->
<g id="edge2" class="edge"><title>Node1&#45;&gt;Node3</title>
<path fill="none" stroke="midnightblue" d="M66.1078,-66.706C91.5897,-63.298 127.455,-58.5015 155.43,-54.7601"/>
<polygon fill="midnightblue" stroke="midnightblue" points="155.898,-58.2288 165.346,-53.434 154.97,-51.2906 155.898,-58.2288"/>
</g>
<!-- Node4 -->
<g id="node4" class="node"><title>Node4</title>
<g id="a_node4"><a xlink:href="classcom_1_1tomoparts_1_1tomoBay_1_1model_1_1dataTypes_1_1financial_1_1GBP.html#a4869bc1854b4c53820b934c48bc7d868" target="_top" xlink:title="converts the given amount of pound into pennies (rounding down in the process) ">
<polygon fill="white" stroke="black" points="333,-59 333,-89 528,-89 528,-59 333,-59"/>
<text text-anchor="start" x="341" y="-77" font-family="Helvetica,sans-Serif" font-size="10.00">com.tomoparts.tomoBay.model.data</text>
<text text-anchor="middle" x="430.5" y="-66" font-family="Helvetica,sans-Serif" font-size="10.00">Types.financial.GBP.toPennies</text>
</a>
</g>
</g>
<!-- Node3&#45;&gt;Node4 -->
<g id="edge3" class="edge"><title>Node3&#45;&gt;Node4</title>
<path fill="none" stroke="midnightblue" d="M233.799,-52.6352C257.406,-55.2125 290.503,-58.8256 322.772,-62.3485"/>
<polygon fill="midnightblue" stroke="midnightblue" points="322.428,-65.8316 332.749,-63.4377 323.188,-58.873 322.428,-65.8316"/>
</g>
<!-- Node6 -->
<g id="node6" class="node"><title>Node6</title>
<g id="a_node6"><a xlink:href="classcom_1_1tomoparts_1_1tomoBay_1_1model_1_1dataTypes_1_1order_1_1Order.html#abbc5ea6a986dd37b7239d4c859db9f2b" target="_top" xlink:title="retrieve the total price associated with this order, i.e. ">
<polygon fill="white" stroke="black" points="333,-9 333,-39 528,-39 528,-9 333,-9"/>
<text text-anchor="start" x="341" y="-27" font-family="Helvetica,sans-Serif" font-size="10.00">com.tomoparts.tomoBay.model.data</text>
<text text-anchor="middle" x="430.5" y="-16" font-family="Helvetica,sans-Serif" font-size="10.00">Types.order.Order.totalPrice</text>
</a>
</g>
</g>
<!-- Node3&#45;&gt;Node6 -->
<g id="edge5" class="edge"><title>Node3&#45;&gt;Node6</title>
<path fill="none" stroke="midnightblue" d="M233.799,-45.3648C257.406,-42.7875 290.503,-39.1744 322.772,-35.6515"/>
<polygon fill="midnightblue" stroke="midnightblue" points="323.188,-39.127 332.749,-34.5623 322.428,-32.1684 323.188,-39.127"/>
</g>
<!-- Node5 -->
<g id="node5" class="node"><title>Node5</title>
<g id="a_node5"><a xlink:href="classcom_1_1tomoparts_1_1tomoBay_1_1model_1_1dataTypes_1_1financial_1_1GBP.html#ab1488ca02aec4338b86ca2ab9691627f" target="_top" xlink:title="converts the given integer to a string representing the number of pennies ">
<polygon fill="white" stroke="black" points="569.5,-61 569.5,-91 764.5,-91 764.5,-61 569.5,-61"/>
<text text-anchor="start" x="577.5" y="-79" font-family="Helvetica,sans-Serif" font-size="10.00">com.tomoparts.tomoBay.model.data</text>
<text text-anchor="middle" x="667" y="-68" font-family="Helvetica,sans-Serif" font-size="10.00">Types.financial.GBP.toString</text>
</a>
</g>
</g>
<!-- Node4&#45;&gt;Node5 -->
<g id="edge4" class="edge"><title>Node4&#45;&gt;Node5</title>
<path fill="none" stroke="midnightblue" d="M528.234,-74.825C538.453,-74.9122 548.887,-75.0012 559.212,-75.0892"/>
<polygon fill="midnightblue" stroke="midnightblue" points="559.459,-78.5914 569.488,-75.1769 559.519,-71.5916 559.459,-78.5914"/>
</g>
<!-- Node7 -->
<g id="node7" class="node"><title>Node7</title>
<g id="a_node7"><a xlink:href="classcom_1_1tomoparts_1_1tomoBay_1_1model_1_1dataTypes_1_1heteroTypeContainer_1_1HeteroFieldContainer.html#a988363ab964d6dc0ccb8560bef5895b6" target="_top" xlink:title="retrieve the the value of an AbstractField from this HeteroFieldContainer, the field should be of the...">
<polygon fill="white" stroke="black" points="564,-0.5 564,-41.5 770,-41.5 770,-0.5 564,-0.5"/>
<text text-anchor="start" x="572" y="-29.5" font-family="Helvetica,sans-Serif" font-size="10.00">com.tomoparts.tomoBay.model.data</text>
<text text-anchor="start" x="572" y="-18.5" font-family="Helvetica,sans-Serif" font-size="10.00">Types.heteroTypeContainer.HeteroField</text>
<text text-anchor="middle" x="667" y="-7.5" font-family="Helvetica,sans-Serif" font-size="10.00">Container.get</text>
</a>
</g>
</g>
<!-- Node6&#45;&gt;Node7 -->
<g id="edge6" class="edge"><title>Node6&#45;&gt;Node7</title>
<path fill="none" stroke="midnightblue" d="M528.234,-22.7625C536.667,-22.6546 545.247,-22.5448 553.79,-22.4355"/>
<polygon fill="midnightblue" stroke="midnightblue" points="553.838,-25.9353 563.792,-22.3076 553.748,-18.9359 553.838,-25.9353"/>
</g>
<!-- Node8 -->
<g id="node8" class="node"><title>Node8</title>
<g id="a_node8"><a xlink:href="classcom_1_1tomoparts_1_1tomoBay_1_1model_1_1dataTypes_1_1heteroTypeContainer_1_1HeteroFieldContainer.html#a9dee3c01eb5ab16203e1c6820a569484" target="_top" xlink:title="performs a type check, assuming that field and type are of the same type then this method returns tru...">
<polygon fill="white" stroke="black" points="806,-0.5 806,-41.5 1012,-41.5 1012,-0.5 806,-0.5"/>
<text text-anchor="start" x="814" y="-29.5" font-family="Helvetica,sans-Serif" font-size="10.00">com.tomoparts.tomoBay.model.data</text>
<text text-anchor="start" x="814" y="-18.5" font-family="Helvetica,sans-Serif" font-size="10.00">Types.heteroTypeContainer.HeteroField</text>
<text text-anchor="middle" x="909" y="-7.5" font-family="Helvetica,sans-Serif" font-size="10.00">Container.isSameType</text>
</a>
</g>
</g>
<!-- Node7&#45;&gt;Node8 -->
<g id="edge7" class="edge"><title>Node7&#45;&gt;Node8</title>
<path fill="none" stroke="midnightblue" d="M770.13,-21C778.658,-21 787.309,-21 795.906,-21"/>
<polygon fill="midnightblue" stroke="midnightblue" points="795.962,-24.5001 805.962,-21 795.962,-17.5001 795.962,-24.5001"/>
</g>
</g>
</svg>
