<?xml version="1.0" encoding="UTF-8" standalone="no"?>
<!DOCTYPE svg PUBLIC "-//W3C//DTD SVG 1.1//EN"
 "http://www.w3.org/Graphics/SVG/1.1/DTD/svg11.dtd">
<!-- Generated by graphviz version 2.38.0 (20140413.2041)
 -->
<!-- Title: adjust Pages: 1 -->
<svg width="1168pt" height="712pt"
 viewBox="0.00 0.00 1168.00 711.50" xmlns="http://www.w3.org/2000/svg" xmlns:xlink="http://www.w3.org/1999/xlink">
<g id="graph0" class="graph" transform="scale(1 1) rotate(0) translate(4 707.5)">
<title>adjust</title>
<polygon fill="white" stroke="none" points="-4,4 -4,-707.5 1164,-707.5 1164,4 -4,4"/>
<!-- Node1 -->
<g id="node1" class="node"><title>Node1</title>
<polygon fill="#bfbfbf" stroke="black" points="0,-268.5 0,-287.5 46,-287.5 46,-268.5 0,-268.5"/>
<text text-anchor="middle" x="23" y="-275.5" font-family="Helvetica,sans-Serif" font-size="10.00">adjust</text>
</g>
<!-- Node2 -->
<g id="node2" class="node"><title>Node2</title>
<g id="a_node2"><a xlink:href="classcom_1_1tomoparts_1_1tomoBay_1_1model_1_1dataTypes_1_1financial_1_1SalesOrderDayBook_1_1PriceAdjustment.html#ab87b89ac78a0b524caca5d21d70693d6" target="_top" xlink:title="the incremental amount to adjust the price by. ">
<polygon fill="white" stroke="black" points="94,-382.5 94,-401.5 186,-401.5 186,-382.5 94,-382.5"/>
<text text-anchor="middle" x="140" y="-389.5" font-family="Helvetica,sans-Serif" font-size="10.00">adjustmentAmt</text>
</a>
</g>
</g>
<!-- Node1&#45;&gt;Node2 -->
<g id="edge1" class="edge"><title>Node1&#45;&gt;Node2</title>
<path fill="none" stroke="midnightblue" d="M27.2879,-287.614C34.2966,-306.697 52.5161,-349.535 82,-373 84.2955,-374.827 86.7746,-376.482 89.3693,-377.98"/>
<polygon fill="midnightblue" stroke="midnightblue" points="88.0199,-381.217 98.5373,-382.496 91.1128,-374.937 88.0199,-381.217"/>
</g>
<!-- Node3 -->
<g id="node3" class="node"><title>Node3</title>
<g id="a_node3"><a xlink:href="classcom_1_1tomoparts_1_1tomoBay_1_1model_1_1dataTypes_1_1financial_1_1SalesOrderDayBook_1_1PriceAdjustment.html#ad8b7947428df520815c610d319d7375a" target="_top" xlink:title="calculate the total cost (EX VAT) of the testPrices array. ">
<polygon fill="white" stroke="black" points="98.5,-344.5 98.5,-363.5 181.5,-363.5 181.5,-344.5 98.5,-344.5"/>
<text text-anchor="middle" x="140" y="-351.5" font-family="Helvetica,sans-Serif" font-size="10.00">calculateTotal</text>
</a>
</g>
</g>
<!-- Node1&#45;&gt;Node3 -->
<g id="edge2" class="edge"><title>Node1&#45;&gt;Node3</title>
<path fill="none" stroke="midnightblue" d="M33.0451,-287.899C43.8266,-299.246 62.8074,-317.841 82,-330 88.0331,-333.822 94.7791,-337.278 101.46,-340.301"/>
<polygon fill="midnightblue" stroke="midnightblue" points="100.54,-343.713 111.112,-344.411 103.283,-337.273 100.54,-343.713"/>
</g>
<!-- Node19 -->
<g id="node19" class="node"><title>Node19</title>
<g id="a_node19"><a xlink:href="classcom_1_1tomoparts_1_1tomoBay_1_1model_1_1dataTypes_1_1financial_1_1SalesOrderDayBook_1_1PriceAdjustment.html#afd83b468aec87b8e8c03649edfb3cbbc" target="_top" xlink:title="convert the internal list of AbstractLineItem withing the AbstractSalesDayBookLine to an array...">
<polygon fill="white" stroke="black" points="87,-268.5 87,-287.5 193,-287.5 193,-268.5 87,-268.5"/>
<text text-anchor="middle" x="140" y="-275.5" font-family="Helvetica,sans-Serif" font-size="10.00">convertListToArray</text>
</a>
</g>
</g>
<!-- Node1&#45;&gt;Node19 -->
<g id="edge21" class="edge"><title>Node1&#45;&gt;Node19</title>
<path fill="none" stroke="midnightblue" d="M46.1732,-278C55.0681,-278 65.8045,-278 76.7718,-278"/>
<polygon fill="midnightblue" stroke="midnightblue" points="76.8627,-281.5 86.8626,-278 76.8626,-274.5 76.8627,-281.5"/>
</g>
<!-- Node20 -->
<g id="node20" class="node"><title>Node20</title>
<g id="a_node20"><a xlink:href="classcom_1_1tomoparts_1_1tomoBay_1_1model_1_1dataTypes_1_1financial_1_1SalesOrderDayBook_1_1PriceAdjustment.html#a25654edd2b19acf24a704a92f4cfbf6e" target="_top" xlink:title="returns the number of AbstractLineItems (minus postage line items) contained within this AbstractSale...">
<polygon fill="white" stroke="black" points="301,-306.5 301,-325.5 367,-325.5 367,-306.5 301,-306.5"/>
<text text-anchor="middle" x="334" y="-313.5" font-family="Helvetica,sans-Serif" font-size="10.00">noOfItems</text>
</a>
</g>
</g>
<!-- Node1&#45;&gt;Node20 -->
<g id="edge34" class="edge"><title>Node1&#45;&gt;Node20</title>
<path fill="none" stroke="midnightblue" d="M46.2495,-286.684C56.9052,-290.48 69.9442,-294.606 82,-297 154.431,-311.386 240.604,-315.058 290.818,-315.893"/>
<polygon fill="midnightblue" stroke="midnightblue" points="290.923,-319.395 300.97,-316.031 291.018,-312.395 290.923,-319.395"/>
</g>
<!-- Node21 -->
<g id="node21" class="node"><title>Node21</title>
<g id="a_node21"><a xlink:href="classcom_1_1tomoparts_1_1tomoBay_1_1model_1_1dataTypes_1_1financial_1_1SalesOrderDayBook_1_1PriceAdjustment.html#a7114ae819db1434d652d784079e06ed8" target="_top" xlink:title="this method represents a fitness function to be used when calculating the adjustments to the Abstract...">
<polygon fill="white" stroke="black" points="116,-100.5 116,-119.5 164,-119.5 164,-100.5 116,-100.5"/>
<text text-anchor="middle" x="140" y="-107.5" font-family="Helvetica,sans-Serif" font-size="10.00">fitness</text>
</a>
</g>
</g>
<!-- Node1&#45;&gt;Node21 -->
<g id="edge27" class="edge"><title>Node1&#45;&gt;Node21</title>
<path fill="none" stroke="midnightblue" d="M29.6802,-268.433C39.7933,-251.53 61.762,-215.392 82,-186 96.074,-165.56 113.295,-142.892 125.102,-127.677"/>
<polygon fill="midnightblue" stroke="midnightblue" points="127.971,-129.69 131.363,-119.652 122.452,-125.383 127.971,-129.69"/>
</g>
<!-- Node27 -->
<g id="node27" class="node"><title>Node27</title>
<g id="a_node27"><a xlink:href="classcom_1_1tomoparts_1_1tomoBay_1_1model_1_1dataTypes_1_1financial_1_1SalesOrderDayBook_1_1PriceAdjustment.html#a7c388ac8b6eb2f6704db5aa38b291f1d" target="_top" xlink:title="actually performs the adjustement ">
<polygon fill="white" stroke="black" points="82,-195.5 82,-214.5 198,-214.5 198,-195.5 82,-195.5"/>
<text text-anchor="middle" x="140" y="-202.5" font-family="Helvetica,sans-Serif" font-size="10.00">performAdjustement</text>
</a>
</g>
</g>
<!-- Node1&#45;&gt;Node27 -->
<g id="edge35" class="edge"><title>Node1&#45;&gt;Node27</title>
<path fill="none" stroke="midnightblue" d="M39.0342,-268.457C58.4911,-256.106 92.6052,-234.451 115.499,-219.918"/>
<polygon fill="midnightblue" stroke="midnightblue" points="117.395,-222.86 123.962,-214.546 113.644,-216.95 117.395,-222.86"/>
</g>
<!-- Node29 -->
<g id="node29" class="node"><title>Node29</title>
<g id="a_node29"><a xlink:href="classcom_1_1tomoparts_1_1tomoBay_1_1model_1_1dataTypes_1_1financial_1_1SalesOrderDayBook_1_1PriceAdjustment.html#a5d20b1c4f1b7bf1cd99d70ccdc4a00df" target="_top" xlink:title="The smallest quantity of the parts on this AbstractSalesDayBookLine. ">
<polygon fill="white" stroke="black" points="103,-62.5 103,-81.5 177,-81.5 177,-62.5 103,-62.5"/>
<text text-anchor="middle" x="140" y="-69.5" font-family="Helvetica,sans-Serif" font-size="10.00">smallestQty</text>
</a>
</g>
</g>
<!-- Node1&#45;&gt;Node29 -->
<g id="edge39" class="edge"><title>Node1&#45;&gt;Node29</title>
<path fill="none" stroke="midnightblue" d="M24.072,-268.323C24.8311,-237.834 31.3452,-142.73 82,-91 85.3799,-87.5484 89.4024,-84.7237 93.7244,-82.4123"/>
<polygon fill="midnightblue" stroke="midnightblue" points="95.1763,-85.5972 102.906,-78.3518 92.3452,-79.1952 95.1763,-85.5972"/>
</g>
<!-- Node4 -->
<g id="node4" class="node"><title>Node4</title>
<g id="a_node4"><a xlink:href="classcom_1_1tomoparts_1_1tomoBay_1_1model_1_1dataTypes_1_1financial_1_1SalesOrderDayBook_1_1AbstractSalesDayBookLine.html#af4b57d21919c42d55af03391f91a1c08" target="_top" xlink:title="retrieve the number of line items that make up this SalesDayBookLine. ">
<polygon fill="white" stroke="black" points="475.5,-306.5 475.5,-347.5 670.5,-347.5 670.5,-306.5 475.5,-306.5"/>
<text text-anchor="start" x="483.5" y="-335.5" font-family="Helvetica,sans-Serif" font-size="10.00">com.tomoparts.tomoBay.model.data</text>
<text text-anchor="start" x="483.5" y="-324.5" font-family="Helvetica,sans-Serif" font-size="10.00">Types.financial.SalesOrderDayBook.</text>
<text text-anchor="middle" x="573" y="-313.5" font-family="Helvetica,sans-Serif" font-size="10.00">AbstractSalesDayBookLine.size</text>
</a>
</g>
</g>
<!-- Node3&#45;&gt;Node4 -->
<g id="edge3" class="edge"><title>Node3&#45;&gt;Node4</title>
<path fill="none" stroke="midnightblue" d="M181.594,-361.456C197.83,-364.086 216.741,-366.708 234,-368 322.641,-374.635 346.086,-381.132 434,-368 450.547,-365.528 453.975,-361.805 470,-357 477.13,-354.862 484.545,-352.653 491.979,-350.449"/>
<polygon fill="midnightblue" stroke="midnightblue" points="493.143,-353.755 501.738,-347.56 491.156,-347.042 493.143,-353.755"/>
</g>
<!-- Node5 -->
<g id="node5" class="node"><title>Node5</title>
<g id="a_node5"><a xlink:href="classcom_1_1tomoparts_1_1tomoBay_1_1model_1_1dataTypes_1_1financial_1_1SalesOrderDayBook_1_1AbstractSalesDayBookLine.html#a1b2142782be2899c8c3c19c5b3e05247" target="_top" xlink:title="retrieve a particular AbstractLineItem from the list of items that make up this AbstractSalesDayBookL...">
<polygon fill="white" stroke="black" points="470,-246.5 470,-287.5 676,-287.5 676,-246.5 470,-246.5"/>
<text text-anchor="start" x="478" y="-275.5" font-family="Helvetica,sans-Serif" font-size="10.00">com.tomoparts.tomoBay.model.data</text>
<text text-anchor="start" x="478" y="-264.5" font-family="Helvetica,sans-Serif" font-size="10.00">Types.financial.SalesOrderDayBook.</text>
<text text-anchor="middle" x="573" y="-253.5" font-family="Helvetica,sans-Serif" font-size="10.00">AbstractSalesDayBookLine.getLineItem</text>
</a>
</g>
</g>
<!-- Node3&#45;&gt;Node5 -->
<g id="edge4" class="edge"><title>Node3&#45;&gt;Node5</title>
<path fill="none" stroke="midnightblue" d="M181.664,-360.333C240.439,-367.564 351.16,-373.856 434,-335 455.063,-325.121 450.157,-309.145 470,-297 472.963,-295.186 476.042,-293.477 479.203,-291.867"/>
<polygon fill="midnightblue" stroke="midnightblue" points="480.744,-295.011 488.303,-287.587 477.764,-288.676 480.744,-295.011"/>
</g>
<!-- Node6 -->
<g id="node6" class="node"><title>Node6</title>
<g id="a_node6"><a xlink:href="classcom_1_1tomoparts_1_1tomoBay_1_1model_1_1dataTypes_1_1financial_1_1SalesOrderDayBook_1_1AbstractLineItem.html#a06da05dee451bbf7e7ec2f702fc7e3fb" target="_top" xlink:title="retrieve the part number associated with the part that has been invoiced ">
<polygon fill="white" stroke="black" points="236.5,-527.5 236.5,-568.5 431.5,-568.5 431.5,-527.5 236.5,-527.5"/>
<text text-anchor="start" x="244.5" y="-556.5" font-family="Helvetica,sans-Serif" font-size="10.00">com.tomoparts.tomoBay.model.data</text>
<text text-anchor="start" x="244.5" y="-545.5" font-family="Helvetica,sans-Serif" font-size="10.00">Types.financial.SalesOrderDayBook.</text>
<text text-anchor="middle" x="334" y="-534.5" font-family="Helvetica,sans-Serif" font-size="10.00">AbstractLineItem.partNo</text>
</a>
</g>
</g>
<!-- Node3&#45;&gt;Node6 -->
<g id="edge5" class="edge"><title>Node3&#45;&gt;Node6</title>
<path fill="none" stroke="midnightblue" d="M181.568,-362.046C187.672,-364.714 193.44,-368.268 198,-373 237.524,-414.015 197.921,-451.923 234,-496 242.757,-506.699 254.303,-515.469 266.409,-522.556"/>
<polygon fill="midnightblue" stroke="midnightblue" points="264.839,-525.687 275.291,-527.422 268.203,-519.548 264.839,-525.687"/>
</g>
<!-- Node12 -->
<g id="node12" class="node"><title>Node12</title>
<g id="a_node12"><a xlink:href="classcom_1_1tomoparts_1_1tomoBay_1_1model_1_1dataTypes_1_1financial_1_1SalesOrderDayBook_1_1AbstractLineItem.html#a784e8a839c20c37ba8b20c477cb826c2" target="_top" xlink:title="retrieve the invoiced quantity of the part to be invoiced in this line item ">
<polygon fill="white" stroke="black" points="236.5,-445.5 236.5,-486.5 431.5,-486.5 431.5,-445.5 236.5,-445.5"/>
<text text-anchor="start" x="244.5" y="-474.5" font-family="Helvetica,sans-Serif" font-size="10.00">com.tomoparts.tomoBay.model.data</text>
<text text-anchor="start" x="244.5" y="-463.5" font-family="Helvetica,sans-Serif" font-size="10.00">Types.financial.SalesOrderDayBook.</text>
<text text-anchor="middle" x="334" y="-452.5" font-family="Helvetica,sans-Serif" font-size="10.00">AbstractLineItem.quantity</text>
</a>
</g>
</g>
<!-- Node3&#45;&gt;Node12 -->
<g id="edge11" class="edge"><title>Node3&#45;&gt;Node12</title>
<path fill="none" stroke="midnightblue" d="M177.278,-363.542C184.39,-366.11 191.617,-369.244 198,-373 216.707,-384.007 216.635,-392.979 234,-406 250.431,-418.321 269.519,-430.366 286.524,-440.392"/>
<polygon fill="midnightblue" stroke="midnightblue" points="284.799,-443.437 295.202,-445.441 288.319,-437.387 284.799,-443.437"/>
</g>
<!-- Node17 -->
<g id="node17" class="node"><title>Node17</title>
<g id="a_node17"><a xlink:href="classcom_1_1tomoparts_1_1tomoBay_1_1model_1_1dataTypes_1_1financial_1_1SalesOrderDayBook_1_1AbstractLineItem.html#a906729ff4a7b3a1638da9e1b47e8ada2" target="_top" xlink:title="retrieve the price of the quantity of parts invoiced (EX VAT) ">
<polygon fill="white" stroke="black" points="236.5,-208.5 236.5,-249.5 431.5,-249.5 431.5,-208.5 236.5,-208.5"/>
<text text-anchor="start" x="244.5" y="-237.5" font-family="Helvetica,sans-Serif" font-size="10.00">com.tomoparts.tomoBay.model.data</text>
<text text-anchor="start" x="244.5" y="-226.5" font-family="Helvetica,sans-Serif" font-size="10.00">Types.financial.SalesOrderDayBook.</text>
<text text-anchor="middle" x="334" y="-215.5" font-family="Helvetica,sans-Serif" font-size="10.00">AbstractLineItem.price</text>
</a>
</g>
</g>
<!-- Node3&#45;&gt;Node17 -->
<g id="edge19" class="edge"><title>Node3&#45;&gt;Node17</title>
<path fill="none" stroke="midnightblue" d="M155.747,-344.399C184.746,-325.519 250.081,-282.984 292.812,-255.164"/>
<polygon fill="midnightblue" stroke="midnightblue" points="294.832,-258.026 301.303,-249.636 291.013,-252.159 294.832,-258.026"/>
</g>
<!-- Node7 -->
<g id="node7" class="node"><title>Node7</title>
<g id="a_node7"><a xlink:href="classcom_1_1tomoparts_1_1tomoBay_1_1model_1_1dataTypes_1_1order_1_1Transaction.html#ae22e0c0169b69acfb681cf924aa8f0a8" target="_top" xlink:title="retrieve the listing associated with this transaction ">
<polygon fill="white" stroke="black" points="475.5,-465 475.5,-495 670.5,-495 670.5,-465 475.5,-465"/>
<text text-anchor="start" x="483.5" y="-483" font-family="Helvetica,sans-Serif" font-size="10.00">com.tomoparts.tomoBay.model.data</text>
<text text-anchor="middle" x="573" y="-472" font-family="Helvetica,sans-Serif" font-size="10.00">Types.order.Transaction.listing</text>
</a>
</g>
</g>
<!-- Node6&#45;&gt;Node7 -->
<g id="edge6" class="edge"><title>Node6&#45;&gt;Node7</title>
<path fill="none" stroke="midnightblue" d="M394.483,-527.42C417.886,-519.637 445.076,-510.981 470,-504 477.995,-501.761 486.382,-499.557 494.766,-497.447"/>
<polygon fill="midnightblue" stroke="midnightblue" points="495.717,-500.818 504.583,-495.018 494.035,-494.023 495.717,-500.818"/>
</g>
<!-- Node8 -->
<g id="node8" class="node"><title>Node8</title>
<g id="a_node8"><a xlink:href="classcom_1_1tomoparts_1_1tomoBay_1_1model_1_1dataTypes_1_1financial_1_1SalesOrderDayBook_1_1AbstractSalesDayBookLine.html#afacf6217c7f58a049b532205066da488" target="_top" xlink:title="retrieve the order that this AbstractSalesDayBookLine refers to. ">
<polygon fill="white" stroke="black" points="475.5,-563.5 475.5,-604.5 670.5,-604.5 670.5,-563.5 475.5,-563.5"/>
<text text-anchor="start" x="483.5" y="-592.5" font-family="Helvetica,sans-Serif" font-size="10.00">com.tomoparts.tomoBay.model.data</text>
<text text-anchor="start" x="483.5" y="-581.5" font-family="Helvetica,sans-Serif" font-size="10.00">Types.financial.SalesOrderDayBook.</text>
<text text-anchor="middle" x="573" y="-570.5" font-family="Helvetica,sans-Serif" font-size="10.00">AbstractSalesDayBookLine.orderInfo</text>
</a>
</g>
</g>
<!-- Node6&#45;&gt;Node8 -->
<g id="edge7" class="edge"><title>Node6&#45;&gt;Node8</title>
<path fill="none" stroke="midnightblue" d="M431.739,-562.695C442.714,-564.362 453.948,-566.068 465.045,-567.754"/>
<polygon fill="midnightblue" stroke="midnightblue" points="464.774,-571.253 475.186,-569.294 465.825,-564.332 464.774,-571.253"/>
</g>
<!-- Node9 -->
<g id="node9" class="node"><title>Node9</title>
<g id="a_node9"><a xlink:href="classcom_1_1tomoparts_1_1tomoBay_1_1model_1_1dataTypes_1_1order_1_1Listing.html#aeb86e87dbdd13b9820905d09d542e7e4" target="_top" xlink:title="retrieve the part specified in the parameter ">
<polygon fill="white" stroke="black" points="475.5,-673 475.5,-703 670.5,-703 670.5,-673 475.5,-673"/>
<text text-anchor="start" x="483.5" y="-691" font-family="Helvetica,sans-Serif" font-size="10.00">com.tomoparts.tomoBay.model.data</text>
<text text-anchor="middle" x="573" y="-680" font-family="Helvetica,sans-Serif" font-size="10.00">Types.order.Listing.part</text>
</a>
</g>
</g>
<!-- Node6&#45;&gt;Node9 -->
<g id="edge8" class="edge"><title>Node6&#45;&gt;Node9</title>
<path fill="none" stroke="midnightblue" d="M352.928,-568.578C376.93,-594.797 422.073,-639.627 470,-664 473.831,-665.948 477.823,-667.741 481.915,-669.391"/>
<polygon fill="midnightblue" stroke="midnightblue" points="481.02,-672.792 491.613,-672.987 483.453,-666.229 481.02,-672.792"/>
</g>
<!-- Node10 -->
<g id="node10" class="node"><title>Node10</title>
<g id="a_node10"><a xlink:href="classcom_1_1tomoparts_1_1tomoBay_1_1model_1_1dataTypes_1_1order_1_1Part.html#a2320984310c02a9113e686abe8576df1" target="_top" xlink:title="retrieve the part number for this part ">
<polygon fill="white" stroke="black" points="475.5,-624 475.5,-654 670.5,-654 670.5,-624 475.5,-624"/>
<text text-anchor="start" x="483.5" y="-642" font-family="Helvetica,sans-Serif" font-size="10.00">com.tomoparts.tomoBay.model.data</text>
<text text-anchor="middle" x="573" y="-631" font-family="Helvetica,sans-Serif" font-size="10.00">Types.order.Part.partNo</text>
</a>
</g>
</g>
<!-- Node6&#45;&gt;Node10 -->
<g id="edge9" class="edge"><title>Node6&#45;&gt;Node10</title>
<path fill="none" stroke="midnightblue" d="M371.598,-568.558C398.239,-582.855 435.537,-601.516 470,-614 477.172,-616.598 484.723,-619.014 492.339,-621.239"/>
<polygon fill="midnightblue" stroke="midnightblue" points="491.423,-624.617 501.997,-623.954 493.318,-617.878 491.423,-624.617"/>
</g>
<!-- Node11 -->
<g id="node11" class="node"><title>Node11</title>
<g id="a_node11"><a xlink:href="classcom_1_1tomoparts_1_1tomoBay_1_1model_1_1dataTypes_1_1order_1_1Order.html#a39d4b856c1dcba627c763d60c3be86b0" target="_top" xlink:title="An order is made up of transactions, this method retrieves the specified transaction, given the index parameter. ">
<polygon fill="white" stroke="black" points="475.5,-514 475.5,-544 670.5,-544 670.5,-514 475.5,-514"/>
<text text-anchor="start" x="483.5" y="-532" font-family="Helvetica,sans-Serif" font-size="10.00">com.tomoparts.tomoBay.model.data</text>
<text text-anchor="middle" x="573" y="-521" font-family="Helvetica,sans-Serif" font-size="10.00">Types.order.Order.transaction</text>
</a>
</g>
</g>
<!-- Node6&#45;&gt;Node11 -->
<g id="edge10" class="edge"><title>Node6&#45;&gt;Node11</title>
<path fill="none" stroke="midnightblue" d="M431.739,-540.245C442.714,-539.365 453.948,-538.464 465.045,-537.574"/>
<polygon fill="midnightblue" stroke="midnightblue" points="465.498,-541.049 475.186,-536.761 464.939,-534.072 465.498,-541.049"/>
</g>
<!-- Node12&#45;&gt;Node7 -->
<g id="edge12" class="edge"><title>Node12&#45;&gt;Node7</title>
<path fill="none" stroke="midnightblue" d="M431.739,-471.715C442.714,-472.363 453.948,-473.026 465.045,-473.682"/>
<polygon fill="midnightblue" stroke="midnightblue" points="464.997,-477.185 475.186,-474.281 465.41,-470.197 464.997,-477.185"/>
</g>
<!-- Node12&#45;&gt;Node8 -->
<g id="edge13" class="edge"><title>Node12&#45;&gt;Node8</title>
<path fill="none" stroke="midnightblue" d="M380.972,-486.69C398.252,-495.341 417.655,-506.146 434,-518 452.065,-531.101 450.782,-541.658 470,-553 473.824,-555.257 477.827,-557.363 481.943,-559.327"/>
<polygon fill="midnightblue" stroke="midnightblue" points="480.545,-562.536 491.104,-563.402 483.39,-556.14 480.545,-562.536"/>
</g>
<!-- Node12&#45;&gt;Node11 -->
<g id="edge18" class="edge"><title>Node12&#45;&gt;Node11</title>
<path fill="none" stroke="midnightblue" d="M406.34,-486.57C426.852,-492.352 449.279,-498.546 470,-504 479.521,-506.506 489.564,-509.067 499.485,-511.549"/>
<polygon fill="midnightblue" stroke="midnightblue" points="498.792,-514.983 509.341,-513.999 500.481,-508.19 498.792,-514.983"/>
</g>
<!-- Node13 -->
<g id="node13" class="node"><title>Node13</title>
<g id="a_node13"><a xlink:href="classcom_1_1tomoparts_1_1tomoBay_1_1model_1_1dataTypes_1_1order_1_1Listing.html#a2c8f5d3f860a7215f1fff79890a6cfa1" target="_top" xlink:title="retrieve the qty of the part at this index. ">
<polygon fill="white" stroke="black" points="475.5,-416 475.5,-446 670.5,-446 670.5,-416 475.5,-416"/>
<text text-anchor="start" x="483.5" y="-434" font-family="Helvetica,sans-Serif" font-size="10.00">com.tomoparts.tomoBay.model.data</text>
<text text-anchor="middle" x="573" y="-423" font-family="Helvetica,sans-Serif" font-size="10.00">Types.order.Listing.qty</text>
</a>
</g>
</g>
<!-- Node12&#45;&gt;Node13 -->
<g id="edge14" class="edge"><title>Node12&#45;&gt;Node13</title>
<path fill="none" stroke="midnightblue" d="M431.739,-451.714C442.714,-450.093 453.948,-448.434 465.045,-446.795"/>
<polygon fill="midnightblue" stroke="midnightblue" points="465.805,-450.221 475.186,-445.297 464.782,-443.296 465.805,-450.221"/>
</g>
<!-- Node14 -->
<g id="node14" class="node"><title>Node14</title>
<g id="a_node14"><a xlink:href="classcom_1_1tomoparts_1_1tomoBay_1_1model_1_1dataTypes_1_1order_1_1Transaction.html#a797e1f8fbba4deea93ecb02ed24ea81b" target="_top" xlink:title="retrieve the quantity of this listing purchased ">
<polygon fill="white" stroke="black" points="473,-367 473,-397 673,-397 673,-367 473,-367"/>
<text text-anchor="start" x="481" y="-385" font-family="Helvetica,sans-Serif" font-size="10.00">com.tomoparts.tomoBay.model.data</text>
<text text-anchor="middle" x="573" y="-374" font-family="Helvetica,sans-Serif" font-size="10.00">Types.order.Transaction.qtyPurchased</text>
</a>
</g>
</g>
<!-- Node12&#45;&gt;Node14 -->
<g id="edge15" class="edge"><title>Node12&#45;&gt;Node14</title>
<path fill="none" stroke="midnightblue" d="M375.86,-445.435C402.23,-432.77 437.549,-416.922 470,-406 476.697,-403.746 483.711,-401.623 490.79,-399.644"/>
<polygon fill="midnightblue" stroke="midnightblue" points="491.717,-403.019 500.46,-397.035 489.894,-396.261 491.717,-403.019"/>
</g>
<!-- Node15 -->
<g id="node15" class="node"><title>Node15</title>
<g id="a_node15"><a xlink:href="classcom_1_1tomoparts_1_1tomoBay_1_1model_1_1dataTypes_1_1heteroTypeContainer_1_1HeteroFieldContainer.html#a988363ab964d6dc0ccb8560bef5895b6" target="_top" xlink:title="retrieve the the value of an AbstractField from this HeteroFieldContainer, the field should be of the...">
<polygon fill="white" stroke="black" points="712,-94.5 712,-135.5 918,-135.5 918,-94.5 712,-94.5"/>
<text text-anchor="start" x="720" y="-123.5" font-family="Helvetica,sans-Serif" font-size="10.00">com.tomoparts.tomoBay.model.data</text>
<text text-anchor="start" x="720" y="-112.5" font-family="Helvetica,sans-Serif" font-size="10.00">Types.heteroTypeContainer.HeteroField</text>
<text text-anchor="middle" x="815" y="-101.5" font-family="Helvetica,sans-Serif" font-size="10.00">Container.get</text>
</a>
</g>
</g>
<!-- Node14&#45;&gt;Node15 -->
<g id="edge16" class="edge"><title>Node14&#45;&gt;Node15</title>
<path fill="none" stroke="midnightblue" d="M659.161,-366.986C665.138,-364.197 670.833,-360.899 676,-357 748.749,-302.103 789.17,-196.903 805.439,-145.199"/>
<polygon fill="midnightblue" stroke="midnightblue" points="808.796,-146.189 808.373,-135.602 802.102,-144.142 808.796,-146.189"/>
</g>
<!-- Node16 -->
<g id="node16" class="node"><title>Node16</title>
<g id="a_node16"><a xlink:href="classcom_1_1tomoparts_1_1tomoBay_1_1model_1_1dataTypes_1_1heteroTypeContainer_1_1HeteroFieldContainer.html#a9dee3c01eb5ab16203e1c6820a569484" target="_top" xlink:title="performs a type check, assuming that field and type are of the same type then this method returns tru...">
<polygon fill="white" stroke="black" points="954,-94.5 954,-135.5 1160,-135.5 1160,-94.5 954,-94.5"/>
<text text-anchor="start" x="962" y="-123.5" font-family="Helvetica,sans-Serif" font-size="10.00">com.tomoparts.tomoBay.model.data</text>
<text text-anchor="start" x="962" y="-112.5" font-family="Helvetica,sans-Serif" font-size="10.00">Types.heteroTypeContainer.HeteroField</text>
<text text-anchor="middle" x="1057" y="-101.5" font-family="Helvetica,sans-Serif" font-size="10.00">Container.isSameType</text>
</a>
</g>
</g>
<!-- Node15&#45;&gt;Node16 -->
<g id="edge17" class="edge"><title>Node15&#45;&gt;Node16</title>
<path fill="none" stroke="midnightblue" d="M918.13,-115C926.658,-115 935.309,-115 943.906,-115"/>
<polygon fill="midnightblue" stroke="midnightblue" points="943.962,-118.5 953.962,-115 943.962,-111.5 943.962,-118.5"/>
</g>
<!-- Node18 -->
<g id="node18" class="node"><title>Node18</title>
<g id="a_node18"><a xlink:href="classcom_1_1tomoparts_1_1tomoBay_1_1model_1_1dataTypes_1_1financial_1_1SalesOrderDayBook_1_1AbstractLineItem.html#a9384ad6463e803ada82c6c35d708939a" target="_top" xlink:title="implementation specific code used to work out the unit price for a specific line item ...">
<polygon fill="white" stroke="black" points="475.5,-186.5 475.5,-227.5 670.5,-227.5 670.5,-186.5 475.5,-186.5"/>
<text text-anchor="start" x="483.5" y="-215.5" font-family="Helvetica,sans-Serif" font-size="10.00">com.tomoparts.tomoBay.model.data</text>
<text text-anchor="start" x="483.5" y="-204.5" font-family="Helvetica,sans-Serif" font-size="10.00">Types.financial.SalesOrderDayBook.</text>
<text text-anchor="middle" x="573" y="-193.5" font-family="Helvetica,sans-Serif" font-size="10.00">AbstractLineItem.unitPrice</text>
</a>
</g>
</g>
<!-- Node17&#45;&gt;Node18 -->
<g id="edge20" class="edge"><title>Node17&#45;&gt;Node18</title>
<path fill="none" stroke="midnightblue" d="M431.739,-220.02C442.714,-219.001 453.948,-217.958 465.045,-216.928"/>
<polygon fill="midnightblue" stroke="midnightblue" points="465.553,-220.396 475.186,-215.987 464.906,-213.426 465.553,-220.396"/>
</g>
<!-- Node19&#45;&gt;Node5 -->
<g id="edge25" class="edge"><title>Node19&#45;&gt;Node5</title>
<path fill="none" stroke="midnightblue" d="M193.418,-276.662C259.236,-274.982 373.931,-272.055 459.877,-269.862"/>
<polygon fill="midnightblue" stroke="midnightblue" points="460.038,-273.359 469.945,-269.605 459.859,-266.361 460.038,-273.359"/>
</g>
<!-- Node19&#45;&gt;Node17 -->
<g id="edge26" class="edge"><title>Node19&#45;&gt;Node17</title>
<path fill="none" stroke="midnightblue" d="M178.475,-268.436C196.823,-263.754 219.782,-257.894 242.346,-252.136"/>
<polygon fill="midnightblue" stroke="midnightblue" points="243.497,-255.454 252.321,-249.59 241.766,-248.671 243.497,-255.454"/>
</g>
<!-- Node19&#45;&gt;Node20 -->
<g id="edge22" class="edge"><title>Node19&#45;&gt;Node20</title>
<path fill="none" stroke="midnightblue" d="M189.45,-287.589C220.653,-293.765 260.823,-301.715 290.731,-307.634"/>
<polygon fill="midnightblue" stroke="midnightblue" points="290.361,-311.129 300.85,-309.637 291.72,-304.262 290.361,-311.129"/>
</g>
<!-- Node20&#45;&gt;Node4 -->
<g id="edge24" class="edge"><title>Node20&#45;&gt;Node4</title>
<path fill="none" stroke="midnightblue" d="M367.457,-317.506C392.784,-318.682 429.488,-320.386 464.834,-322.026"/>
<polygon fill="midnightblue" stroke="midnightblue" points="465.098,-325.542 475.25,-322.509 465.423,-318.55 465.098,-325.542"/>
</g>
<!-- Node20&#45;&gt;Node5 -->
<g id="edge23" class="edge"><title>Node20&#45;&gt;Node5</title>
<path fill="none" stroke="midnightblue" d="M367.457,-309.29C392.207,-304.172 427.822,-296.809 462.417,-289.656"/>
<polygon fill="midnightblue" stroke="midnightblue" points="463.536,-292.999 472.621,-287.547 462.119,-286.144 463.536,-292.999"/>
</g>
<!-- Node22 -->
<g id="node22" class="node"><title>Node22</title>
<g id="a_node22"><a xlink:href="classcom_1_1tomoparts_1_1tomoBay_1_1model_1_1dataTypes_1_1financial_1_1SalesOrderDayBook_1_1AbstractSalesDayBookLine.html#aea325f3c68ee2726fc713821e3e2b63c" target="_top" xlink:title="retrieve the total (including VAT) price of this order ">
<polygon fill="white" stroke="black" points="234,-0.5 234,-41.5 434,-41.5 434,-0.5 234,-0.5"/>
<text text-anchor="start" x="242" y="-29.5" font-family="Helvetica,sans-Serif" font-size="10.00">com.tomoparts.tomoBay.model.data</text>
<text text-anchor="start" x="242" y="-18.5" font-family="Helvetica,sans-Serif" font-size="10.00">Types.financial.SalesOrderDayBook.</text>
<text text-anchor="middle" x="334" y="-7.5" font-family="Helvetica,sans-Serif" font-size="10.00">AbstractSalesDayBookLine.totalIncVat</text>
</a>
</g>
</g>
<!-- Node21&#45;&gt;Node22 -->
<g id="edge28" class="edge"><title>Node21&#45;&gt;Node22</title>
<path fill="none" stroke="midnightblue" d="M164.135,-105.193C175.007,-102.23 187.791,-97.6869 198,-91 218.008,-77.8953 213.814,-63.8282 234,-51 236.766,-49.2421 239.641,-47.5823 242.595,-46.0157"/>
<polygon fill="midnightblue" stroke="midnightblue" points="244.213,-49.1207 251.666,-41.59 241.144,-42.8296 244.213,-49.1207"/>
</g>
<!-- Node26 -->
<g id="node26" class="node"><title>Node26</title>
<g id="a_node26"><a xlink:href="classcom_1_1tomoparts_1_1tomoBay_1_1model_1_1dataTypes_1_1financial_1_1VAT.html#a7bcf3530e5a4922be3b84c3cc2490750" target="_top" xlink:title="add vat to the value provided as argument ">
<polygon fill="white" stroke="black" points="236.5,-61 236.5,-91 431.5,-91 431.5,-61 236.5,-61"/>
<text text-anchor="start" x="244.5" y="-79" font-family="Helvetica,sans-Serif" font-size="10.00">com.tomoparts.tomoBay.model.data</text>
<text text-anchor="middle" x="334" y="-68" font-family="Helvetica,sans-Serif" font-size="10.00">Types.financial.VAT.add</text>
</a>
</g>
</g>
<!-- Node21&#45;&gt;Node26 -->
<g id="edge33" class="edge"><title>Node21&#45;&gt;Node26</title>
<path fill="none" stroke="midnightblue" d="M164.16,-105.899C182.814,-102.595 210.37,-97.7158 237.834,-92.8522"/>
<polygon fill="midnightblue" stroke="midnightblue" points="238.696,-96.2542 247.932,-91.0641 237.475,-89.3615 238.696,-96.2542"/>
</g>
<!-- Node23 -->
<g id="node23" class="node"><title>Node23</title>
<g id="a_node23"><a xlink:href="classcom_1_1tomoparts_1_1tomoBay_1_1model_1_1dataTypes_1_1financial_1_1GBP.html#a4869bc1854b4c53820b934c48bc7d868" target="_top" xlink:title="converts the given amount of pound into pennies (rounding down in the process) ">
<polygon fill="white" stroke="black" points="475.5,-6 475.5,-36 670.5,-36 670.5,-6 475.5,-6"/>
<text text-anchor="start" x="483.5" y="-24" font-family="Helvetica,sans-Serif" font-size="10.00">com.tomoparts.tomoBay.model.data</text>
<text text-anchor="middle" x="573" y="-13" font-family="Helvetica,sans-Serif" font-size="10.00">Types.financial.GBP.toPennies</text>
</a>
</g>
</g>
<!-- Node22&#45;&gt;Node23 -->
<g id="edge29" class="edge"><title>Node22&#45;&gt;Node23</title>
<path fill="none" stroke="midnightblue" d="M434.136,-21C444.315,-21 454.691,-21 464.95,-21"/>
<polygon fill="midnightblue" stroke="midnightblue" points="465.16,-24.5001 475.16,-21 465.16,-17.5001 465.16,-24.5001"/>
</g>
<!-- Node25 -->
<g id="node25" class="node"><title>Node25</title>
<g id="a_node25"><a xlink:href="classcom_1_1tomoparts_1_1tomoBay_1_1model_1_1dataTypes_1_1order_1_1Order.html#abbc5ea6a986dd37b7239d4c859db9f2b" target="_top" xlink:title="retrieve the total price associated with this order, i.e. ">
<polygon fill="white" stroke="black" points="475.5,-97 475.5,-127 670.5,-127 670.5,-97 475.5,-97"/>
<text text-anchor="start" x="483.5" y="-115" font-family="Helvetica,sans-Serif" font-size="10.00">com.tomoparts.tomoBay.model.data</text>
<text text-anchor="middle" x="573" y="-104" font-family="Helvetica,sans-Serif" font-size="10.00">Types.order.Order.totalPrice</text>
</a>
</g>
</g>
<!-- Node22&#45;&gt;Node25 -->
<g id="edge31" class="edge"><title>Node22&#45;&gt;Node25</title>
<path fill="none" stroke="midnightblue" d="M406.459,-41.5159C415.782,-44.5248 425.16,-47.7208 434,-51 467.503,-63.428 504.486,-79.9322 531.727,-92.6393"/>
<polygon fill="midnightblue" stroke="midnightblue" points="530.395,-95.8805 540.934,-96.9627 533.37,-89.5443 530.395,-95.8805"/>
</g>
<!-- Node24 -->
<g id="node24" class="node"><title>Node24</title>
<g id="a_node24"><a xlink:href="classcom_1_1tomoparts_1_1tomoBay_1_1model_1_1dataTypes_1_1financial_1_1GBP.html#ab1488ca02aec4338b86ca2ab9691627f" target="_top" xlink:title="converts the given integer to a string representing the number of pennies ">
<polygon fill="white" stroke="black" points="717.5,-6 717.5,-36 912.5,-36 912.5,-6 717.5,-6"/>
<text text-anchor="start" x="725.5" y="-24" font-family="Helvetica,sans-Serif" font-size="10.00">com.tomoparts.tomoBay.model.data</text>
<text text-anchor="middle" x="815" y="-13" font-family="Helvetica,sans-Serif" font-size="10.00">Types.financial.GBP.toString</text>
</a>
</g>
</g>
<!-- Node23&#45;&gt;Node24 -->
<g id="edge30" class="edge"><title>Node23&#45;&gt;Node24</title>
<path fill="none" stroke="midnightblue" d="M670.58,-21C682.587,-21 694.921,-21 707.073,-21"/>
<polygon fill="midnightblue" stroke="midnightblue" points="707.227,-24.5001 717.227,-21 707.227,-17.5001 707.227,-24.5001"/>
</g>
<!-- Node25&#45;&gt;Node15 -->
<g id="edge32" class="edge"><title>Node25&#45;&gt;Node15</title>
<path fill="none" stroke="midnightblue" d="M670.58,-113.207C680.74,-113.334 691.132,-113.464 701.451,-113.593"/>
<polygon fill="midnightblue" stroke="midnightblue" points="701.691,-117.096 711.734,-113.722 701.779,-110.097 701.691,-117.096"/>
</g>
<!-- Node27&#45;&gt;Node5 -->
<g id="edge36" class="edge"><title>Node27&#45;&gt;Node5</title>
<path fill="none" stroke="midnightblue" d="M175.698,-195.401C232.405,-181.61 347.3,-161.708 434,-199 455.371,-208.192 450.157,-224.855 470,-237 472.963,-238.814 476.042,-240.523 479.203,-242.133"/>
<polygon fill="midnightblue" stroke="midnightblue" points="477.764,-245.324 488.303,-246.413 480.744,-238.989 477.764,-245.324"/>
</g>
<!-- Node27&#45;&gt;Node17 -->
<g id="edge37" class="edge"><title>Node27&#45;&gt;Node17</title>
<path fill="none" stroke="midnightblue" d="M198.086,-212.136C207.029,-213.254 216.514,-214.439 226.146,-215.643"/>
<polygon fill="midnightblue" stroke="midnightblue" points="225.864,-219.135 236.221,-216.903 226.732,-212.189 225.864,-219.135"/>
</g>
<!-- Node28 -->
<g id="node28" class="node"><title>Node28</title>
<g id="a_node28"><a xlink:href="classcom_1_1tomoparts_1_1tomoBay_1_1model_1_1dataTypes_1_1financial_1_1SalesOrderDayBook_1_1AbstractLineItem.html#ab0170f53be617ec2ea8746f9f5c7c596" target="_top" xlink:title="add or subtract the given amount of pennies from this line item ">
<polygon fill="white" stroke="black" points="236.5,-110.5 236.5,-151.5 431.5,-151.5 431.5,-110.5 236.5,-110.5"/>
<text text-anchor="start" x="244.5" y="-139.5" font-family="Helvetica,sans-Serif" font-size="10.00">com.tomoparts.tomoBay.model.data</text>
<text text-anchor="start" x="244.5" y="-128.5" font-family="Helvetica,sans-Serif" font-size="10.00">Types.financial.SalesOrderDayBook.</text>
<text text-anchor="middle" x="334" y="-117.5" font-family="Helvetica,sans-Serif" font-size="10.00">AbstractLineItem.adjustPrice</text>
</a>
</g>
</g>
<!-- Node27&#45;&gt;Node28 -->
<g id="edge38" class="edge"><title>Node27&#45;&gt;Node28</title>
<path fill="none" stroke="midnightblue" d="M163.029,-195.343C181.782,-187.223 209.5,-175.459 234,-166 243.537,-162.318 253.646,-158.57 263.619,-154.961"/>
<polygon fill="midnightblue" stroke="midnightblue" points="264.888,-158.224 273.116,-151.55 262.522,-151.636 264.888,-158.224"/>
</g>
</g>
</svg>
