<?xml version="1.0" encoding="UTF-8" standalone="no"?>
<!DOCTYPE svg PUBLIC "-//W3C//DTD SVG 1.1//EN"
 "http://www.w3.org/Graphics/SVG/1.1/DTD/svg11.dtd">
<!-- Generated by graphviz version 2.38.0 (20140413.2041)
 -->
<!-- Title: totalIncVat Pages: 1 -->
<!--zoomable 100 -->
<svg id="main" version="1.1" xmlns="http://www.w3.org/2000/svg" xmlns:xlink="http://www.w3.org/1999/xlink" xml:space="preserve" onload="init(evt)">
<style type="text/css"><![CDATA[
.edge:hover path { stroke: red; }
.edge:hover polygon { stroke: red; fill: red; }
]]></style>
<script type="text/javascript"><![CDATA[
var edges = document.getElementsByTagName('g');
if (edges && edges.length) {
  for (var i=0;i<edges.length;i++) {
    if (edges[i].id.substr(0,4)=='edge') {
      edges[i].setAttribute('class','edge');
    }
  }
}
]]></script>
        <defs>
                <circle id="rim" cx="0" cy="0" r="7"/>
                <circle id="rim2" cx="0" cy="0" r="3.5"/>
                <g id="zoomPlus">
                        <use xlink:href="#rim" fill="#404040">
                                <set attributeName="fill" to="#808080" begin="zoomplus.mouseover" end="zoomplus.mouseout"/>
                        </use>
                        <path d="M-4,0h8M0,-4v8" fill="none" stroke="white" stroke-width="1.5" pointer-events="none"/>
                </g>
                <g id="zoomMin">
                        <use xlink:href="#rim" fill="#404040">
                                <set attributeName="fill" to="#808080" begin="zoomminus.mouseover" end="zoomminus.mouseout"/>
                        </use>
                        <path d="M-4,0h8" fill="none" stroke="white" stroke-width="1.5" pointer-events="none"/>
                </g>
                <g id="dirArrow">
                        <path fill="none" stroke="white" stroke-width="1.5" d="M0,-3.0v7 M-2.5,-0.5L0,-3.0L2.5,-0.5"/>
                </g>
               <g id="resetDef">
                       <use xlink:href="#rim2" fill="#404040">
                               <set attributeName="fill" to="#808080" begin="reset.mouseover" end="reset.mouseout"/>
                       </use>
               </g>
        </defs>

<script type="text/javascript">
var viewWidth = 791;
var viewHeight = 100;
var sectionId = 'dynsection-6';
</script>
<script xlink:href="svgpan.js"/>
<svg id="graph" class="graph">
<g id="viewport">
<title>totalIncVat</title>
<polygon fill="white" stroke="none" points="-4,4 -4,-95.5 787,-95.5 787,4 -4,4"/>
<!-- Node1 -->
<g id="node1" class="node"><title>Node1</title>
<polygon fill="#bfbfbf" stroke="black" points="0,-39.5 0,-58.5 68,-58.5 68,-39.5 0,-39.5"/>
<text text-anchor="middle" x="34" y="-46.5" font-family="Helvetica,sans-Serif" font-size="10.00">totalIncVat</text>
</g>
<!-- Node2 -->
<g id="node2" class="node"><title>Node2</title>
<g id="a_node2"><a xlink:href="classcom_1_1tomoparts_1_1tomoBay_1_1model_1_1dataTypes_1_1financial_1_1GBP.html#a4869bc1854b4c53820b934c48bc7d868" target="_top" xlink:title="converts the given amount of pound into pennies (rounding down in the process) ">
<polygon fill="white" stroke="black" points="104,-59 104,-89 299,-89 299,-59 104,-59"/>
<text text-anchor="start" x="112" y="-77" font-family="Helvetica,sans-Serif" font-size="10.00">com.tomoparts.tomoBay.model.data</text>
<text text-anchor="middle" x="201.5" y="-66" font-family="Helvetica,sans-Serif" font-size="10.00">Types.financial.GBP.toPennies</text>
</a>
</g>
</g>
<!-- Node1&#45;&gt;Node2 -->
<g id="edge1" class="edge"><title>Node1&#45;&gt;Node2</title>
<path fill="none" stroke="midnightblue" d="M68.0936,-53.999C75.8523,-55.171 84.5352,-56.4827 93.645,-57.8588"/>
<polygon fill="midnightblue" stroke="midnightblue" points="93.2637,-61.3408 103.674,-59.3738 94.3093,-54.4193 93.2637,-61.3408"/>
</g>
<!-- Node4 -->
<g id="node4" class="node"><title>Node4</title>
<g id="a_node4"><a xlink:href="classcom_1_1tomoparts_1_1tomoBay_1_1model_1_1dataTypes_1_1order_1_1Order.html#abbc5ea6a986dd37b7239d4c859db9f2b" target="_top" xlink:title="retrieve the total price associated with this order, i.e. ">
<polygon fill="white" stroke="black" points="104,-9 104,-39 299,-39 299,-9 104,-9"/>
<text text-anchor="start" x="112" y="-27" font-family="Helvetica,sans-Serif" font-size="10.00">com.tomoparts.tomoBay.model.data</text>
<text text-anchor="middle" x="201.5" y="-16" font-family="Helvetica,sans-Serif" font-size="10.00">Types.order.Order.totalPrice</text>
</a>
</g>
</g>
<!-- Node1&#45;&gt;Node4 -->
<g id="edge3" class="edge"><title>Node1&#45;&gt;Node4</title>
<path fill="none" stroke="midnightblue" d="M68.0936,-44.001C75.8523,-42.829 84.5352,-41.5173 93.645,-40.1412"/>
<polygon fill="midnightblue" stroke="midnightblue" points="94.3093,-43.5807 103.674,-38.6262 93.2637,-36.6592 94.3093,-43.5807"/>
</g>
<!-- Node3 -->
<g id="node3" class="node"><title>Node3</title>
<g id="a_node3"><a xlink:href="classcom_1_1tomoparts_1_1tomoBay_1_1model_1_1dataTypes_1_1financial_1_1GBP.html#ab1488ca02aec4338b86ca2ab9691627f" target="_top" xlink:title="converts the given integer to a string representing the number of pennies ">
<polygon fill="white" stroke="black" points="340.5,-61 340.5,-91 535.5,-91 535.5,-61 340.5,-61"/>
<text text-anchor="start" x="348.5" y="-79" font-family="Helvetica,sans-Serif" font-size="10.00">com.tomoparts.tomoBay.model.data</text>
<text text-anchor="middle" x="438" y="-68" font-family="Helvetica,sans-Serif" font-size="10.00">Types.financial.GBP.toString</text>
</a>
</g>
</g>
<!-- Node2&#45;&gt;Node3 -->
<g id="edge2" class="edge"><title>Node2&#45;&gt;Node3</title>
<path fill="none" stroke="midnightblue" d="M299.234,-74.825C309.453,-74.9122 319.887,-75.0012 330.212,-75.0892"/>
<polygon fill="midnightblue" stroke="midnightblue" points="330.459,-78.5914 340.488,-75.1769 330.519,-71.5916 330.459,-78.5914"/>
</g>
<!-- Node5 -->
<g id="node5" class="node"><title>Node5</title>
<g id="a_node5"><a xlink:href="classcom_1_1tomoparts_1_1tomoBay_1_1model_1_1dataTypes_1_1heteroTypeContainer_1_1HeteroFieldContainer.html#a988363ab964d6dc0ccb8560bef5895b6" target="_top" xlink:title="retrieve the the value of an AbstractField from this HeteroFieldContainer, the field should be of the...">
<polygon fill="white" stroke="black" points="335,-0.5 335,-41.5 541,-41.5 541,-0.5 335,-0.5"/>
<text text-anchor="start" x="343" y="-29.5" font-family="Helvetica,sans-Serif" font-size="10.00">com.tomoparts.tomoBay.model.data</text>
<text text-anchor="start" x="343" y="-18.5" font-family="Helvetica,sans-Serif" font-size="10.00">Types.heteroTypeContainer.HeteroField</text>
<text text-anchor="middle" x="438" y="-7.5" font-family="Helvetica,sans-Serif" font-size="10.00">Container.get</text>
</a>
</g>
</g>
<!-- Node4&#45;&gt;Node5 -->
<g id="edge4" class="edge"><title>Node4&#45;&gt;Node5</title>
<path fill="none" stroke="midnightblue" d="M299.234,-22.7625C307.667,-22.6546 316.247,-22.5448 324.79,-22.4355"/>
<polygon fill="midnightblue" stroke="midnightblue" points="324.838,-25.9353 334.792,-22.3076 324.748,-18.9359 324.838,-25.9353"/>
</g>
<!-- Node6 -->
<g id="node6" class="node"><title>Node6</title>
<g id="a_node6"><a xlink:href="classcom_1_1tomoparts_1_1tomoBay_1_1model_1_1dataTypes_1_1heteroTypeContainer_1_1HeteroFieldContainer.html#a9dee3c01eb5ab16203e1c6820a569484" target="_top" xlink:title="performs a type check, assuming that field and type are of the same type then this method returns tru...">
<polygon fill="white" stroke="black" points="577,-0.5 577,-41.5 783,-41.5 783,-0.5 577,-0.5"/>
<text text-anchor="start" x="585" y="-29.5" font-family="Helvetica,sans-Serif" font-size="10.00">com.tomoparts.tomoBay.model.data</text>
<text text-anchor="start" x="585" y="-18.5" font-family="Helvetica,sans-Serif" font-size="10.00">Types.heteroTypeContainer.HeteroField</text>
<text text-anchor="middle" x="680" y="-7.5" font-family="Helvetica,sans-Serif" font-size="10.00">Container.isSameType</text>
</a>
</g>
</g>
<!-- Node5&#45;&gt;Node6 -->
<g id="edge5" class="edge"><title>Node5&#45;&gt;Node6</title>
<path fill="none" stroke="midnightblue" d="M541.13,-21C549.658,-21 558.309,-21 566.906,-21"/>
<polygon fill="midnightblue" stroke="midnightblue" points="566.962,-24.5001 576.962,-21 566.962,-17.5001 566.962,-24.5001"/>
</g>
</g>
</svg>
        <g id="navigator" transform="translate(0 0)" fill="#404254">
                <rect fill="#f2f5e9" fill-opacity="0.5" stroke="#606060" stroke-width=".5" x="0" y="0" width="60" height="60"/>
                <use id="zoomplus" xlink:href="#zoomPlus" x="17" y="9" onmousedown="handleZoom(evt,'in')"/>
                <use id="zoomminus" xlink:href="#zoomMin" x="42" y="9" onmousedown="handleZoom(evt,'out')"/>
                <use id="reset" xlink:href="#resetDef" x="30" y="36" onmousedown="handleReset()"/>
                <g id="arrowUp" xlink:href="#dirArrow" transform="translate(30 24)" onmousedown="handlePan(0,-1)">
                  <use xlink:href="#rim" fill="#404040">
                        <set attributeName="fill" to="#808080" begin="arrowUp.mouseover" end="arrowUp.mouseout"/>
                  </use>
                  <path fill="none" stroke="white" stroke-width="1.5" d="M0,-3.0v7 M-2.5,-0.5L0,-3.0L2.5,-0.5"/>
                </g>
                <g id="arrowRight" xlink:href="#dirArrow" transform="rotate(90) translate(36 -43)" onmousedown="handlePan(1,0)">
                  <use xlink:href="#rim" fill="#404040">
                        <set attributeName="fill" to="#808080" begin="arrowRight.mouseover" end="arrowRight.mouseout"/>
                  </use>
                  <path fill="none" stroke="white" stroke-width="1.5" d="M0,-3.0v7 M-2.5,-0.5L0,-3.0L2.5,-0.5"/>
                </g>
                <g id="arrowDown" xlink:href="#dirArrow" transform="rotate(180) translate(-30 -48)" onmousedown="handlePan(0,1)">
                  <use xlink:href="#rim" fill="#404040">
                        <set attributeName="fill" to="#808080" begin="arrowDown.mouseover" end="arrowDown.mouseout"/>
                  </use>
                  <path fill="none" stroke="white" stroke-width="1.5" d="M0,-3.0v7 M-2.5,-0.5L0,-3.0L2.5,-0.5"/>
                </g>
                <g id="arrowLeft" xlink:href="#dirArrow" transform="rotate(270) translate(-36 17)" onmousedown="handlePan(-1,0)">
                  <use xlink:href="#rim" fill="#404040">
                        <set attributeName="fill" to="#808080" begin="arrowLeft.mouseover" end="arrowLeft.mouseout"/>
                  </use>
                  <path fill="none" stroke="white" stroke-width="1.5" d="M0,-3.0v7 M-2.5,-0.5L0,-3.0L2.5,-0.5"/>
                </g>
        </g>
        <svg viewBox="0 0 15 15" width="100%" height="30px" preserveAspectRatio="xMaxYMin meet">
         <g id="arrow_out" transform="scale(0.3 0.3)">
          <a xlink:href="classcom_1_1tomoparts_1_1tomoBay_1_1model_1_1dataTypes_1_1financial_1_1SalesOrderDayBook_1_1AbstractSalesDayBookLine_aea325f3c68ee2726fc713821e3e2b63c_cgraph_org.svg" target="_base">
           <rect id="button" ry="5" rx="5" y="6" x="6" height="38" width="38"
                fill="#f2f5e9" fill-opacity="0.5" stroke="#606060" stroke-width="1.0"/>
           <path id="arrow"
             d="M 11.500037,31.436501 C 11.940474,20.09759 22.043105,11.32322 32.158766,21.979434 L 37.068811,17.246167 C 37.068811,17.246167 37.088388,32 37.088388,32 L 22.160133,31.978069 C 22.160133,31.978069 26.997745,27.140456 26.997745,27.140456 C 18.528582,18.264221 13.291696,25.230495 11.500037,31.436501 z"
             style="fill:#404040;"/>
          </a>
         </g>
        </svg>
</svg>
