<?xml version="1.0" encoding="UTF-8" standalone="no"?>
<!DOCTYPE svg PUBLIC "-//W3C//DTD SVG 1.1//EN"
 "http://www.w3.org/Graphics/SVG/1.1/DTD/svg11.dtd">
<!-- Generated by graphviz version 2.38.0 (20140413.2041)
 -->
<!-- Title: GenerateRoyalMailCSV Pages: 1 -->
<!--zoomable 562 -->
<svg id="main" version="1.1" xmlns="http://www.w3.org/2000/svg" xmlns:xlink="http://www.w3.org/1999/xlink" xml:space="preserve" onload="init(evt)">
<style type="text/css"><![CDATA[
.edge:hover path { stroke: red; }
.edge:hover polygon { stroke: red; fill: red; }
]]></style>
<script type="text/javascript"><![CDATA[
var edges = document.getElementsByTagName('g');
if (edges && edges.length) {
  for (var i=0;i<edges.length;i++) {
    if (edges[i].id.substr(0,4)=='edge') {
      edges[i].setAttribute('class','edge');
    }
  }
}
]]></script>
        <defs>
                <circle id="rim" cx="0" cy="0" r="7"/>
                <circle id="rim2" cx="0" cy="0" r="3.5"/>
                <g id="zoomPlus">
                        <use xlink:href="#rim" fill="#404040">
                                <set attributeName="fill" to="#808080" begin="zoomplus.mouseover" end="zoomplus.mouseout"/>
                        </use>
                        <path d="M-4,0h8M0,-4v8" fill="none" stroke="white" stroke-width="1.5" pointer-events="none"/>
                </g>
                <g id="zoomMin">
                        <use xlink:href="#rim" fill="#404040">
                                <set attributeName="fill" to="#808080" begin="zoomminus.mouseover" end="zoomminus.mouseout"/>
                        </use>
                        <path d="M-4,0h8" fill="none" stroke="white" stroke-width="1.5" pointer-events="none"/>
                </g>
                <g id="dirArrow">
                        <path fill="none" stroke="white" stroke-width="1.5" d="M0,-3.0v7 M-2.5,-0.5L0,-3.0L2.5,-0.5"/>
                </g>
               <g id="resetDef">
                       <use xlink:href="#rim2" fill="#404040">
                               <set attributeName="fill" to="#808080" begin="reset.mouseover" end="reset.mouseout"/>
                       </use>
               </g>
        </defs>

<script type="text/javascript">
var viewWidth = 337;
var viewHeight = 562;
var sectionId = 'dynsection-1';
</script>
<script xlink:href="svgpan.js"/>
<svg id="graph" class="graph">
<g id="viewport">
<title>GenerateRoyalMailCSV</title>
<polygon fill="white" stroke="none" points="-4,4 -4,-558 332.5,-558 332.5,4 -4,4"/>
<!-- Node1 -->
<g id="node1" class="node"><title>Node1</title>
<polygon fill="#bfbfbf" stroke="black" points="42,-0.5 42,-178.5 188,-178.5 188,-0.5 42,-0.5"/>
<text text-anchor="middle" x="115" y="-166.5" font-family="Helvetica,sans-Serif" font-size="10.00">GenerateRoyalMailCSV</text>
<polyline fill="none" stroke="black" points="42,-159.5 188,-159.5 "/>
<text text-anchor="start" x="50" y="-147.5" font-family="Helvetica,sans-Serif" font-size="10.00">&#45; ACCOUNT</text>
<text text-anchor="start" x="50" y="-136.5" font-family="Helvetica,sans-Serif" font-size="10.00">&#45; SALES_REC_NO</text>
<text text-anchor="start" x="50" y="-125.5" font-family="Helvetica,sans-Serif" font-size="10.00">&#45; SERVICE</text>
<text text-anchor="start" x="50" y="-114.5" font-family="Helvetica,sans-Serif" font-size="10.00">&#45; SERVICE_ENHANCEMENT</text>
<text text-anchor="start" x="50" y="-103.5" font-family="Helvetica,sans-Serif" font-size="10.00">&#45; FORMAT</text>
<polyline fill="none" stroke="black" points="42,-96.5 188,-96.5 "/>
<text text-anchor="start" x="50" y="-84.5" font-family="Helvetica,sans-Serif" font-size="10.00">+ GenerateRoyalMailCSV()</text>
<text text-anchor="start" x="50" y="-73.5" font-family="Helvetica,sans-Serif" font-size="10.00">+ execute()</text>
<text text-anchor="start" x="50" y="-62.5" font-family="Helvetica,sans-Serif" font-size="10.00">&#45; processInput()</text>
<text text-anchor="start" x="50" y="-51.5" font-family="Helvetica,sans-Serif" font-size="10.00">&#45; formatInitialData()</text>
<text text-anchor="start" x="50" y="-40.5" font-family="Helvetica,sans-Serif" font-size="10.00">&#45; grabAndProcessDBData()</text>
<text text-anchor="start" x="50" y="-29.5" font-family="Helvetica,sans-Serif" font-size="10.00">&#45; getInvoiceWeight()</text>
<text text-anchor="start" x="50" y="-18.5" font-family="Helvetica,sans-Serif" font-size="10.00">&#45; formatReferenceFields()</text>
<text text-anchor="start" x="50" y="-7.5" font-family="Helvetica,sans-Serif" font-size="10.00">&#45; createCSV()</text>
</g>
<!-- Node2 -->
<g id="node2" class="node"><title>Node2</title>
<g id="a_node2"><a xlink:href="interfacecom_1_1tomoparts_1_1tomoBay_1_1presenters_1_1presenterActions_1_1AbstractPresenterAction.html" target="_top" xlink:title="Copyright(C) 2015 Jan P.C. ">
<polygon fill="white" stroke="black" points="0,-287 0,-344 134,-344 134,-287 0,-287"/>
<text text-anchor="middle" x="67" y="-332" font-family="Helvetica,sans-Serif" font-size="10.00">AbstractPresenterAction</text>
<polyline fill="none" stroke="black" points="0,-325 134,-325 "/>
<text text-anchor="middle" x="67" y="-313" font-family="Helvetica,sans-Serif" font-size="10.00"> </text>
<polyline fill="none" stroke="black" points="0,-306 134,-306 "/>
<text text-anchor="start" x="8" y="-294" font-family="Helvetica,sans-Serif" font-size="10.00">+ execute()</text>
</a>
</g>
</g>
<!-- Node2&#45;&gt;Node1 -->
<g id="edge1" class="edge"><title>Node2&#45;&gt;Node1</title>
<path fill="none" stroke="midnightblue" d="M75.148,-276.476C80.8945,-249.659 88.8345,-212.606 96.1157,-178.627"/>
<polygon fill="none" stroke="midnightblue" points="71.6552,-276.072 72.9822,-286.583 78.4999,-277.539 71.6552,-276.072"/>
</g>
<!-- Node3 -->
<g id="node3" class="node"><title>Node3</title>
<g id="a_node3"><a xlink:href="classcom_1_1tomoparts_1_1tomoBay_1_1model_1_1royalMail_1_1RoyalMailCSVGenerator.html" target="_top" xlink:title="This class represents an object that generates CSV files in a format that the Royal Mail Dispatch Man...">
<polygon fill="white" stroke="black" points="152.5,-226.5 152.5,-404.5 301.5,-404.5 301.5,-226.5 152.5,-226.5"/>
<text text-anchor="middle" x="227" y="-392.5" font-family="Helvetica,sans-Serif" font-size="10.00">RoyalMailCSVGenerator</text>
<polyline fill="none" stroke="black" points="152.5,-385.5 301.5,-385.5 "/>
<text text-anchor="start" x="160.5" y="-373.5" font-family="Helvetica,sans-Serif" font-size="10.00">&#45; columnNames_M</text>
<text text-anchor="start" x="160.5" y="-362.5" font-family="Helvetica,sans-Serif" font-size="10.00">&#45; columnValidations_M</text>
<text text-anchor="start" x="160.5" y="-351.5" font-family="Helvetica,sans-Serif" font-size="10.00">&#45; separator_M</text>
<text text-anchor="start" x="160.5" y="-340.5" font-family="Helvetica,sans-Serif" font-size="10.00">&#45; entryIndicator_M</text>
<polyline fill="none" stroke="black" points="152.5,-333.5 301.5,-333.5 "/>
<text text-anchor="start" x="160.5" y="-321.5" font-family="Helvetica,sans-Serif" font-size="10.00">+ RoyalMailCSVGenerator()</text>
<text text-anchor="start" x="160.5" y="-310.5" font-family="Helvetica,sans-Serif" font-size="10.00">+ setseparators()</text>
<text text-anchor="start" x="160.5" y="-299.5" font-family="Helvetica,sans-Serif" font-size="10.00">+ addRow()</text>
<text text-anchor="start" x="160.5" y="-288.5" font-family="Helvetica,sans-Serif" font-size="10.00">+ addBatch()</text>
<text text-anchor="start" x="160.5" y="-277.5" font-family="Helvetica,sans-Serif" font-size="10.00">+ generate()</text>
<text text-anchor="start" x="160.5" y="-266.5" font-family="Helvetica,sans-Serif" font-size="10.00">+ size()</text>
<text text-anchor="start" x="160.5" y="-255.5" font-family="Helvetica,sans-Serif" font-size="10.00">+ toString()</text>
<text text-anchor="start" x="160.5" y="-244.5" font-family="Helvetica,sans-Serif" font-size="10.00">&#45; checkSize()</text>
<text text-anchor="start" x="160.5" y="-233.5" font-family="Helvetica,sans-Serif" font-size="10.00">&#45; validate()</text>
</a>
</g>
</g>
<!-- Node3&#45;&gt;Node1 -->
<g id="edge2" class="edge"><title>Node3&#45;&gt;Node1</title>
<path fill="none" stroke="#404040" d="M182.895,-226.291C176.835,-214.17 170.58,-201.66 164.432,-189.364"/>
<polygon fill="none" stroke="#404040" points="164.431,-189.362 158.17,-185.784 159.064,-178.629 165.325,-182.207 164.431,-189.362"/>
<text text-anchor="middle" x="199" y="-200" font-family="Helvetica,sans-Serif" font-size="10.00"> &#45;csvGen_M</text>
</g>
<!-- Node4 -->
<g id="node4" class="node"><title>Node4</title>
<g id="a_node4"><a xlink:href="interfacecom_1_1tomoparts_1_1tomoBay_1_1model_1_1royalMail_1_1CSVGenerator.html" target="_top" xlink:title="This is the public interface for all CSV generator derived classes and defines the necessary function...">
<polygon fill="white" stroke="black" points="119,-452.5 119,-553.5 221,-553.5 221,-452.5 119,-452.5"/>
<text text-anchor="middle" x="170" y="-541.5" font-family="Helvetica,sans-Serif" font-size="10.00">CSVGenerator</text>
<polyline fill="none" stroke="black" points="119,-534.5 221,-534.5 "/>
<text text-anchor="middle" x="170" y="-522.5" font-family="Helvetica,sans-Serif" font-size="10.00"> </text>
<polyline fill="none" stroke="black" points="119,-515.5 221,-515.5 "/>
<text text-anchor="start" x="127" y="-503.5" font-family="Helvetica,sans-Serif" font-size="10.00">+ setseparators()</text>
<text text-anchor="start" x="127" y="-492.5" font-family="Helvetica,sans-Serif" font-size="10.00">+ addRow()</text>
<text text-anchor="start" x="127" y="-481.5" font-family="Helvetica,sans-Serif" font-size="10.00">+ generate()</text>
<text text-anchor="start" x="127" y="-470.5" font-family="Helvetica,sans-Serif" font-size="10.00">+ size()</text>
<text text-anchor="start" x="127" y="-459.5" font-family="Helvetica,sans-Serif" font-size="10.00">+ toString()</text>
</a>
</g>
</g>
<!-- Node4&#45;&gt;Node3 -->
<g id="edge3" class="edge"><title>Node4&#45;&gt;Node3</title>
<path fill="none" stroke="midnightblue" d="M188.315,-442.396C192.016,-430.352 195.98,-417.45 199.909,-404.664"/>
<polygon fill="none" stroke="midnightblue" points="184.867,-441.702 185.275,-452.289 191.558,-443.759 184.867,-441.702"/>
</g>
<!-- Node5 -->
<g id="node5" class="node"><title>Node5</title>
<polygon fill="white" stroke="#bfbfbf" points="239.5,-474.5 239.5,-531.5 328.5,-531.5 328.5,-474.5 239.5,-474.5"/>
<text text-anchor="middle" x="284" y="-519.5" font-family="Helvetica,sans-Serif" font-size="10.00">List&lt; String[]&gt;</text>
<polyline fill="none" stroke="#bfbfbf" points="239.5,-512.5 328.5,-512.5 "/>
<text text-anchor="middle" x="284" y="-500.5" font-family="Helvetica,sans-Serif" font-size="10.00"> </text>
<polyline fill="none" stroke="#bfbfbf" points="239.5,-493.5 328.5,-493.5 "/>
<text text-anchor="middle" x="284" y="-481.5" font-family="Helvetica,sans-Serif" font-size="10.00"> </text>
</g>
<!-- Node5&#45;&gt;Node3 -->
<g id="edge4" class="edge"><title>Node5&#45;&gt;Node3</title>
<path fill="none" stroke="#404040" d="M275.467,-474.229C270.623,-458.465 264.232,-437.668 257.687,-416.368"/>
<polygon fill="none" stroke="#404040" points="257.676,-416.332 252.09,-411.772 254.151,-404.861 259.737,-409.422 257.676,-416.332"/>
<text text-anchor="middle" x="286" y="-426" font-family="Helvetica,sans-Serif" font-size="10.00"> &#45;result_M</text>
</g>
</g>
</svg>
        <g id="navigator" transform="translate(0 0)" fill="#404254">
                <rect fill="#f2f5e9" fill-opacity="0.5" stroke="#606060" stroke-width=".5" x="0" y="0" width="60" height="60"/>
                <use id="zoomplus" xlink:href="#zoomPlus" x="17" y="9" onmousedown="handleZoom(evt,'in')"/>
                <use id="zoomminus" xlink:href="#zoomMin" x="42" y="9" onmousedown="handleZoom(evt,'out')"/>
                <use id="reset" xlink:href="#resetDef" x="30" y="36" onmousedown="handleReset()"/>
                <g id="arrowUp" xlink:href="#dirArrow" transform="translate(30 24)" onmousedown="handlePan(0,-1)">
                  <use xlink:href="#rim" fill="#404040">
                        <set attributeName="fill" to="#808080" begin="arrowUp.mouseover" end="arrowUp.mouseout"/>
                  </use>
                  <path fill="none" stroke="white" stroke-width="1.5" d="M0,-3.0v7 M-2.5,-0.5L0,-3.0L2.5,-0.5"/>
                </g>
                <g id="arrowRight" xlink:href="#dirArrow" transform="rotate(90) translate(36 -43)" onmousedown="handlePan(1,0)">
                  <use xlink:href="#rim" fill="#404040">
                        <set attributeName="fill" to="#808080" begin="arrowRight.mouseover" end="arrowRight.mouseout"/>
                  </use>
                  <path fill="none" stroke="white" stroke-width="1.5" d="M0,-3.0v7 M-2.5,-0.5L0,-3.0L2.5,-0.5"/>
                </g>
                <g id="arrowDown" xlink:href="#dirArrow" transform="rotate(180) translate(-30 -48)" onmousedown="handlePan(0,1)">
                  <use xlink:href="#rim" fill="#404040">
                        <set attributeName="fill" to="#808080" begin="arrowDown.mouseover" end="arrowDown.mouseout"/>
                  </use>
                  <path fill="none" stroke="white" stroke-width="1.5" d="M0,-3.0v7 M-2.5,-0.5L0,-3.0L2.5,-0.5"/>
                </g>
                <g id="arrowLeft" xlink:href="#dirArrow" transform="rotate(270) translate(-36 17)" onmousedown="handlePan(-1,0)">
                  <use xlink:href="#rim" fill="#404040">
                        <set attributeName="fill" to="#808080" begin="arrowLeft.mouseover" end="arrowLeft.mouseout"/>
                  </use>
                  <path fill="none" stroke="white" stroke-width="1.5" d="M0,-3.0v7 M-2.5,-0.5L0,-3.0L2.5,-0.5"/>
                </g>
        </g>
        <svg viewBox="0 0 15 15" width="100%" height="30px" preserveAspectRatio="xMaxYMin meet">
         <g id="arrow_out" transform="scale(0.3 0.3)">
          <a xlink:href="classcom_1_1tomoparts_1_1tomoBay_1_1presenters_1_1presenterActions_1_1concreteActions_1_1GenerateRoyalMailCSV__coll__graph_org.svg" target="_base">
           <rect id="button" ry="5" rx="5" y="6" x="6" height="38" width="38"
                fill="#f2f5e9" fill-opacity="0.5" stroke="#606060" stroke-width="1.0"/>
           <path id="arrow"
             d="M 11.500037,31.436501 C 11.940474,20.09759 22.043105,11.32322 32.158766,21.979434 L 37.068811,17.246167 C 37.068811,17.246167 37.088388,32 37.088388,32 L 22.160133,31.978069 C 22.160133,31.978069 26.997745,27.140456 26.997745,27.140456 C 18.528582,18.264221 13.291696,25.230495 11.500037,31.436501 z"
             style="fill:#404040;"/>
          </a>
         </g>
        </svg>
</svg>
