<?xml version="1.0" encoding="UTF-8" standalone="no"?>
<!DOCTYPE svg PUBLIC "-//W3C//DTD SVG 1.1//EN"
 "http://www.w3.org/Graphics/SVG/1.1/DTD/svg11.dtd">
<!-- Generated by graphviz version 2.38.0 (20140413.2041)
 -->
<!-- Title: OrderStatusContext Pages: 1 -->
<svg width="139pt" height="182pt"
 viewBox="0.00 0.00 139.00 182.00" xmlns="http://www.w3.org/2000/svg" xmlns:xlink="http://www.w3.org/1999/xlink">
<g id="graph0" class="graph" transform="scale(1 1) rotate(0) translate(4 178)">
<title>OrderStatusContext</title>
<polygon fill="white" stroke="none" points="-4,4 -4,-178 135,-178 135,4 -4,4"/>
<!-- Node1 -->
<g id="node1" class="node"><title>Node1</title>
<polygon fill="#bfbfbf" stroke="black" points="0,-0.5 0,-68.5 131,-68.5 131,-0.5 0,-0.5"/>
<text text-anchor="middle" x="65.5" y="-56.5" font-family="Helvetica,sans-Serif" font-size="10.00">OrderStatusContext</text>
<polyline fill="none" stroke="black" points="0,-49.5 131,-49.5 "/>
<text text-anchor="middle" x="65.5" y="-37.5" font-family="Helvetica,sans-Serif" font-size="10.00"> </text>
<polyline fill="none" stroke="black" points="0,-30.5 131,-30.5 "/>
<text text-anchor="start" x="8" y="-18.5" font-family="Helvetica,sans-Serif" font-size="10.00">+ OrderStatusContext()</text>
<text text-anchor="start" x="8" y="-7.5" font-family="Helvetica,sans-Serif" font-size="10.00">+ get()</text>
</g>
<!-- Node2 -->
<g id="node2" class="node"><title>Node2</title>
<polygon fill="white" stroke="#bfbfbf" points="1.5,-116.5 1.5,-173.5 129.5,-173.5 129.5,-116.5 1.5,-116.5"/>
<text text-anchor="middle" x="65.5" y="-161.5" font-family="Helvetica,sans-Serif" font-size="10.00">Map&lt; Integer, String &gt;</text>
<polyline fill="none" stroke="#bfbfbf" points="1.5,-154.5 129.5,-154.5 "/>
<text text-anchor="middle" x="65.5" y="-142.5" font-family="Helvetica,sans-Serif" font-size="10.00"> </text>
<polyline fill="none" stroke="#bfbfbf" points="1.5,-135.5 129.5,-135.5 "/>
<text text-anchor="middle" x="65.5" y="-123.5" font-family="Helvetica,sans-Serif" font-size="10.00"> </text>
</g>
<!-- Node2&#45;&gt;Node1 -->
<g id="edge1" class="edge"><title>Node2&#45;&gt;Node1</title>
<path fill="none" stroke="#404040" d="M65.5,-116.34C65.5,-105.529 65.5,-92.847 65.5,-80.7745"/>
<polygon fill="none" stroke="#404040" points="65.5001,-80.5186 61.5,-74.5186 65.5,-68.5186 69.5,-74.5185 65.5001,-80.5186"/>
<text text-anchor="middle" x="94.5" y="-90" font-family="Helvetica,sans-Serif" font-size="10.00"> &#45;statusMap</text>
</g>
</g>
</svg>
