<?xml version="1.0" encoding="UTF-8" standalone="no"?>
<!DOCTYPE svg PUBLIC "-//W3C//DTD SVG 1.1//EN"
 "http://www.w3.org/Graphics/SVG/1.1/DTD/svg11.dtd">
<!-- Generated by graphviz version 2.38.0 (20140413.2041)
 -->
<!-- Title: setBYTEParam Pages: 1 -->
<svg width="904pt" height="1097pt"
 viewBox="0.00 0.00 904.00 1096.50" xmlns="http://www.w3.org/2000/svg" xmlns:xlink="http://www.w3.org/1999/xlink">
<g id="graph0" class="graph" transform="scale(1 1) rotate(0) translate(4 1092.5)">
<title>setBYTEParam</title>
<polygon fill="white" stroke="none" points="-4,4 -4,-1092.5 900,-1092.5 900,4 -4,4"/>
<!-- Node1 -->
<g id="node1" class="node"><title>Node1</title>
<polygon fill="#bfbfbf" stroke="black" points="0,-478.5 0,-497.5 86,-497.5 86,-478.5 0,-478.5"/>
<text text-anchor="middle" x="43" y="-485.5" font-family="Helvetica,sans-Serif" font-size="10.00">setBYTEParam</text>
</g>
<!-- Node2 -->
<g id="node2" class="node"><title>Node2</title>
<g id="a_node2"><a xlink:href="classcom_1_1tomoparts_1_1tomoBay_1_1model_1_1sql_1_1framework_1_1QueryUtility.html#a3249b16421a9902f2248cb86d4dd3be3" target="_top" xlink:title="set an Integer parameter for the query object specified. ">
<polygon fill="white" stroke="black" points="122,-478.5 122,-497.5 232,-497.5 232,-478.5 122,-478.5"/>
<text text-anchor="middle" x="177" y="-485.5" font-family="Helvetica,sans-Serif" font-size="10.00">setVARCHARParam</text>
</a>
</g>
</g>
<!-- Node1&#45;&gt;Node2 -->
<g id="edge1" class="edge"><title>Node1&#45;&gt;Node2</title>
<path fill="none" stroke="midnightblue" d="M96.1756,-488C104.571,-488 113.279,-488 121.723,-488"/>
<polygon fill="midnightblue" stroke="midnightblue" points="96.1286,-484.5 86.1285,-488 96.1285,-491.5 96.1286,-484.5"/>
</g>
<!-- Node3 -->
<g id="node3" class="node"><title>Node3</title>
<g id="a_node3"><a xlink:href="classcom_1_1tomoparts_1_1tomoBay_1_1model_1_1sql_1_1framework_1_1QueryUtility.html#aca3b74b8ac7e194a86c0b896a674e2f2" target="_top" xlink:title="set an Integer parameter for the query object specified. ">
<polygon fill="white" stroke="black" points="368.5,-816.5 368.5,-835.5 472.5,-835.5 472.5,-816.5 368.5,-816.5"/>
<text text-anchor="middle" x="420.5" y="-823.5" font-family="Helvetica,sans-Serif" font-size="10.00">setINTEGERParam</text>
</a>
</g>
</g>
<!-- Node2&#45;&gt;Node3 -->
<g id="edge2" class="edge"><title>Node2&#45;&gt;Node3</title>
<path fill="none" stroke="midnightblue" d="M177.683,-507.994C177.975,-561.673 186.497,-710.139 268,-788 294.666,-813.475 335.757,-822.607 368.42,-825.571"/>
<polygon fill="midnightblue" stroke="midnightblue" points="181.184,-507.789 177.726,-497.774 174.184,-507.759 181.184,-507.789"/>
</g>
<!-- Node6 -->
<g id="node6" class="node"><title>Node6</title>
<g id="a_node6"><a xlink:href="classcom_1_1tomoparts_1_1tomoBay_1_1model_1_1sql_1_1queries_1_1concreteQueries_1_1update_1_1UpdateInvoiceStatus.html#af9020b85517904668d036bc2bf89433c" target="_top" xlink:title="com.tomoparts.tomoBay.model.sql.queries.concrete\lQueries.update.UpdateInvoiceStatus.setParameters">
<polygon fill="white" stroke="black" points="617.5,-1058 617.5,-1088 887.5,-1088 887.5,-1058 617.5,-1058"/>
<text text-anchor="start" x="625.5" y="-1076" font-family="Helvetica,sans-Serif" font-size="10.00">com.tomoparts.tomoBay.model.sql.queries.concrete</text>
<text text-anchor="middle" x="752.5" y="-1065" font-family="Helvetica,sans-Serif" font-size="10.00">Queries.update.UpdateInvoiceStatus.setParameters</text>
</a>
</g>
</g>
<!-- Node2&#45;&gt;Node6 -->
<g id="edge14" class="edge"><title>Node2&#45;&gt;Node6</title>
<path fill="none" stroke="midnightblue" d="M177.904,-507.987C178.612,-566.04 187.785,-737.352 268,-845 373.388,-986.43 443.639,-986.64 609,-1048 619.479,-1051.89 630.621,-1055.18 641.878,-1057.97"/>
<polygon fill="midnightblue" stroke="midnightblue" points="181.403,-507.643 177.858,-497.659 174.403,-507.675 181.403,-507.643"/>
</g>
<!-- Node9 -->
<g id="node9" class="node"><title>Node9</title>
<g id="a_node9"><a xlink:href="classcom_1_1tomoparts_1_1tomoBay_1_1model_1_1sql_1_1queries_1_1concreteQueries_1_1insert_1_1InsertEbayItems.html#af9020b85517904668d036bc2bf89433c" target="_top" xlink:title="com.tomoparts.tomoBay.model.sql.queries.concrete\lQueries.insert.InsertEbayItems.setParameters">
<polygon fill="white" stroke="black" points="617.5,-762 617.5,-792 887.5,-792 887.5,-762 617.5,-762"/>
<text text-anchor="start" x="625.5" y="-780" font-family="Helvetica,sans-Serif" font-size="10.00">com.tomoparts.tomoBay.model.sql.queries.concrete</text>
<text text-anchor="middle" x="752.5" y="-769" font-family="Helvetica,sans-Serif" font-size="10.00">Queries.insert.InsertEbayItems.setParameters</text>
</a>
</g>
</g>
<!-- Node2&#45;&gt;Node9 -->
<g id="edge19" class="edge"><title>Node2&#45;&gt;Node9</title>
<path fill="none" stroke="midnightblue" d="M178.461,-507.739C180.756,-555.833 193.941,-679.274 268,-736 320.959,-776.564 493.442,-782.63 617.292,-781.357"/>
<polygon fill="midnightblue" stroke="midnightblue" points="181.957,-507.564 178.093,-497.698 174.961,-507.82 181.957,-507.564"/>
</g>
<!-- Node10 -->
<g id="node10" class="node"><title>Node10</title>
<g id="a_node10"><a xlink:href="classcom_1_1tomoparts_1_1tomoBay_1_1model_1_1sql_1_1queries_1_1concreteQueries_1_1insert_1_1InsertEbayOrders.html#af9020b85517904668d036bc2bf89433c" target="_top" xlink:title="com.tomoparts.tomoBay.model.sql.queries.concrete\lQueries.insert.InsertEbayOrders.setParameters">
<polygon fill="white" stroke="black" points="617.5,-713 617.5,-743 887.5,-743 887.5,-713 617.5,-713"/>
<text text-anchor="start" x="625.5" y="-731" font-family="Helvetica,sans-Serif" font-size="10.00">com.tomoparts.tomoBay.model.sql.queries.concrete</text>
<text text-anchor="middle" x="752.5" y="-720" font-family="Helvetica,sans-Serif" font-size="10.00">Queries.insert.InsertEbayOrders.setParameters</text>
</a>
</g>
</g>
<!-- Node2&#45;&gt;Node10 -->
<g id="edge18" class="edge"><title>Node2&#45;&gt;Node10</title>
<path fill="none" stroke="midnightblue" d="M180.258,-507.638C186.175,-549.102 206.217,-645.344 268,-689 391.453,-776.233 579.492,-760.309 680.85,-743.003"/>
<polygon fill="midnightblue" stroke="midnightblue" points="183.725,-507.163 178.965,-497.698 176.784,-508.065 183.725,-507.163"/>
</g>
<!-- Node11 -->
<g id="node11" class="node"><title>Node11</title>
<g id="a_node11"><a xlink:href="classcom_1_1tomoparts_1_1tomoBay_1_1model_1_1sql_1_1queries_1_1concreteQueries_1_1insert_1_1InsertEbayTransactions.html#af9020b85517904668d036bc2bf89433c" target="_top" xlink:title="com.tomoparts.tomoBay.model.sql.queries.concrete\lQueries.insert.InsertEbayTransactions.setParameters">
<polygon fill="white" stroke="black" points="616.5,-664 616.5,-694 888.5,-694 888.5,-664 616.5,-664"/>
<text text-anchor="start" x="624.5" y="-682" font-family="Helvetica,sans-Serif" font-size="10.00">com.tomoparts.tomoBay.model.sql.queries.concrete</text>
<text text-anchor="middle" x="752.5" y="-671" font-family="Helvetica,sans-Serif" font-size="10.00">Queries.insert.InsertEbayTransactions.setParameters</text>
</a>
</g>
</g>
<!-- Node2&#45;&gt;Node11 -->
<g id="edge20" class="edge"><title>Node2&#45;&gt;Node11</title>
<path fill="none" stroke="midnightblue" d="M181.678,-507.788C189.783,-545.1 213.02,-625.223 268,-660 323.864,-695.336 493.765,-694.407 616.383,-688.447"/>
<polygon fill="midnightblue" stroke="midnightblue" points="185.046,-506.786 179.63,-497.68 178.185,-508.176 185.046,-506.786"/>
</g>
<!-- Node12 -->
<g id="node12" class="node"><title>Node12</title>
<g id="a_node12"><a xlink:href="classcom_1_1tomoparts_1_1tomoBay_1_1model_1_1sql_1_1queries_1_1concreteQueries_1_1select_1_1params_1_1SelectBuyerByAccAndSRN.html#af9020b85517904668d036bc2bf89433c" target="_top" xlink:title="com.tomoparts.tomoBay.model.sql.queries.concrete\lQueries.select.params.SelectBuyerByAccAndSRN.set\lParameters">
<polygon fill="white" stroke="black" points="616.5,-603.5 616.5,-644.5 888.5,-644.5 888.5,-603.5 616.5,-603.5"/>
<text text-anchor="start" x="624.5" y="-632.5" font-family="Helvetica,sans-Serif" font-size="10.00">com.tomoparts.tomoBay.model.sql.queries.concrete</text>
<text text-anchor="start" x="624.5" y="-621.5" font-family="Helvetica,sans-Serif" font-size="10.00">Queries.select.params.SelectBuyerByAccAndSRN.set</text>
<text text-anchor="middle" x="752.5" y="-610.5" font-family="Helvetica,sans-Serif" font-size="10.00">Parameters</text>
</a>
</g>
</g>
<!-- Node2&#45;&gt;Node12 -->
<g id="edge22" class="edge"><title>Node2&#45;&gt;Node12</title>
<path fill="none" stroke="midnightblue" d="M183.139,-507.556C193.101,-540.984 218.544,-608.192 268,-636 325.455,-668.305 494.289,-656.473 616.279,-642.49"/>
<polygon fill="midnightblue" stroke="midnightblue" points="186.42,-506.298 180.341,-497.62 179.682,-508.195 186.42,-506.298"/>
</g>
<!-- Node14 -->
<g id="node14" class="node"><title>Node14</title>
<g id="a_node14"><a xlink:href="classcom_1_1tomoparts_1_1tomoBay_1_1model_1_1sql_1_1queries_1_1concreteQueries_1_1insert_1_1InsertOrderInOrderStatus.html#af9020b85517904668d036bc2bf89433c" target="_top" xlink:title="com.tomoparts.tomoBay.model.sql.queries.concrete\lQueries.insert.InsertOrderInOrderStatus.setParameters">
<polygon fill="white" stroke="black" points="280,-596 280,-626 561,-626 561,-596 280,-596"/>
<text text-anchor="start" x="288" y="-614" font-family="Helvetica,sans-Serif" font-size="10.00">com.tomoparts.tomoBay.model.sql.queries.concrete</text>
<text text-anchor="middle" x="420.5" y="-603" font-family="Helvetica,sans-Serif" font-size="10.00">Queries.insert.InsertOrderInOrderStatus.setParameters</text>
</a>
</g>
</g>
<!-- Node2&#45;&gt;Node14 -->
<g id="edge13" class="edge"><title>Node2&#45;&gt;Node14</title>
<path fill="none" stroke="midnightblue" d="M189.032,-506.352C203.887,-529.298 232.588,-567.882 268,-587 274.327,-590.416 281.004,-593.378 287.888,-595.944"/>
<polygon fill="midnightblue" stroke="midnightblue" points="191.809,-504.193 183.534,-497.578 185.878,-507.91 191.809,-504.193"/>
</g>
<!-- Node15 -->
<g id="node15" class="node"><title>Node15</title>
<g id="a_node15"><a xlink:href="classcom_1_1tomoparts_1_1tomoBay_1_1model_1_1sql_1_1queries_1_1concreteQueries_1_1update_1_1UpdateItemNote.html#af9020b85517904668d036bc2bf89433c" target="_top" xlink:title="com.tomoparts.tomoBay.model.sql.queries.concrete\lQueries.update.UpdateItemNote.setParameters">
<polygon fill="white" stroke="black" points="285.5,-547 285.5,-577 555.5,-577 555.5,-547 285.5,-547"/>
<text text-anchor="start" x="293.5" y="-565" font-family="Helvetica,sans-Serif" font-size="10.00">com.tomoparts.tomoBay.model.sql.queries.concrete</text>
<text text-anchor="middle" x="420.5" y="-554" font-family="Helvetica,sans-Serif" font-size="10.00">Queries.update.UpdateItemNote.setParameters</text>
</a>
</g>
</g>
<!-- Node2&#45;&gt;Node15 -->
<g id="edge15" class="edge"><title>Node2&#45;&gt;Node15</title>
<path fill="none" stroke="midnightblue" d="M200.044,-503.138C217.661,-514.504 243.394,-529.514 268,-538 278.07,-541.473 288.692,-544.446 299.447,-546.992"/>
<polygon fill="midnightblue" stroke="midnightblue" points="201.895,-500.166 191.621,-497.58 198.04,-506.009 201.895,-500.166"/>
</g>
<!-- Node16 -->
<g id="node16" class="node"><title>Node16</title>
<g id="a_node16"><a xlink:href="classcom_1_1tomoparts_1_1tomoBay_1_1model_1_1sql_1_1queries_1_1concreteQueries_1_1update_1_1UpdateItemBrandAndPartNo.html#af9020b85517904668d036bc2bf89433c" target="_top" xlink:title="com.tomoparts.tomoBay.model.sql.queries.concrete\lQueries.update.UpdateItemBrandAndPartNo.setParameters">
<polygon fill="white" stroke="black" points="268,-498 268,-528 573,-528 573,-498 268,-498"/>
<text text-anchor="start" x="276" y="-516" font-family="Helvetica,sans-Serif" font-size="10.00">com.tomoparts.tomoBay.model.sql.queries.concrete</text>
<text text-anchor="middle" x="420.5" y="-505" font-family="Helvetica,sans-Serif" font-size="10.00">Queries.update.UpdateItemBrandAndPartNo.setParameters</text>
</a>
</g>
</g>
<!-- Node2&#45;&gt;Node16 -->
<g id="edge16" class="edge"><title>Node2&#45;&gt;Node16</title>
<path fill="none" stroke="midnightblue" d="M242.16,-494.642C252.37,-495.699 263.278,-496.828 274.476,-497.987"/>
<polygon fill="midnightblue" stroke="midnightblue" points="242.505,-491.159 232.197,-493.61 241.784,-498.122 242.505,-491.159"/>
</g>
<!-- Node17 -->
<g id="node17" class="node"><title>Node17</title>
<g id="a_node17"><a xlink:href="classcom_1_1tomoparts_1_1tomoBay_1_1model_1_1sql_1_1queries_1_1concreteQueries_1_1update_1_1UpdateItemError.html#af9020b85517904668d036bc2bf89433c" target="_top" xlink:title="com.tomoparts.tomoBay.model.sql.queries.concrete\lQueries.update.UpdateItemError.setParameters">
<polygon fill="white" stroke="black" points="285.5,-449 285.5,-479 555.5,-479 555.5,-449 285.5,-449"/>
<text text-anchor="start" x="293.5" y="-467" font-family="Helvetica,sans-Serif" font-size="10.00">com.tomoparts.tomoBay.model.sql.queries.concrete</text>
<text text-anchor="middle" x="420.5" y="-456" font-family="Helvetica,sans-Serif" font-size="10.00">Queries.update.UpdateItemError.setParameters</text>
</a>
</g>
</g>
<!-- Node2&#45;&gt;Node17 -->
<g id="edge17" class="edge"><title>Node2&#45;&gt;Node17</title>
<path fill="none" stroke="midnightblue" d="M242.208,-481.619C255.625,-480.286 270.246,-478.833 285.146,-477.352"/>
<polygon fill="midnightblue" stroke="midnightblue" points="241.802,-478.142 232.197,-482.614 242.494,-485.108 241.802,-478.142"/>
</g>
<!-- Node18 -->
<g id="node18" class="node"><title>Node18</title>
<g id="a_node18"><a xlink:href="classcom_1_1tomoparts_1_1tomoBay_1_1model_1_1sql_1_1queries_1_1concreteQueries_1_1update_1_1UpdateEbayBuyer.html#af9020b85517904668d036bc2bf89433c" target="_top" xlink:title="com.tomoparts.tomoBay.model.sql.queries.concrete\lQueries.update.UpdateEbayBuyer.setParameters">
<polygon fill="white" stroke="black" points="285.5,-400 285.5,-430 555.5,-430 555.5,-400 285.5,-400"/>
<text text-anchor="start" x="293.5" y="-418" font-family="Helvetica,sans-Serif" font-size="10.00">com.tomoparts.tomoBay.model.sql.queries.concrete</text>
<text text-anchor="middle" x="420.5" y="-407" font-family="Helvetica,sans-Serif" font-size="10.00">Queries.update.UpdateEbayBuyer.setParameters</text>
</a>
</g>
</g>
<!-- Node2&#45;&gt;Node18 -->
<g id="edge21" class="edge"><title>Node2&#45;&gt;Node18</title>
<path fill="none" stroke="midnightblue" d="M201.258,-472.858C218.889,-462.073 244.085,-448.105 268,-440 279.488,-436.107 291.677,-432.808 303.957,-430.015"/>
<polygon fill="midnightblue" stroke="midnightblue" points="198.918,-470.193 192.298,-478.465 202.632,-476.127 198.918,-470.193"/>
</g>
<!-- Node19 -->
<g id="node19" class="node"><title>Node19</title>
<g id="a_node19"><a xlink:href="classcom_1_1tomoparts_1_1tomoBay_1_1model_1_1sql_1_1queries_1_1concreteQueries_1_1insert_1_1InsertEbayBuyers.html#af9020b85517904668d036bc2bf89433c" target="_top" xlink:title="com.tomoparts.tomoBay.model.sql.queries.concrete\lQueries.insert.InsertEbayBuyers.setParameters">
<polygon fill="white" stroke="black" points="285.5,-351 285.5,-381 555.5,-381 555.5,-351 285.5,-351"/>
<text text-anchor="start" x="293.5" y="-369" font-family="Helvetica,sans-Serif" font-size="10.00">com.tomoparts.tomoBay.model.sql.queries.concrete</text>
<text text-anchor="middle" x="420.5" y="-358" font-family="Helvetica,sans-Serif" font-size="10.00">Queries.insert.InsertEbayBuyers.setParameters</text>
</a>
</g>
</g>
<!-- Node2&#45;&gt;Node19 -->
<g id="edge23" class="edge"><title>Node2&#45;&gt;Node19</title>
<path fill="none" stroke="midnightblue" d="M189.371,-469.712C204.407,-447.226 233.12,-409.747 268,-391 275.162,-387.151 282.767,-383.864 290.61,-381.06"/>
<polygon fill="midnightblue" stroke="midnightblue" points="186.286,-468.037 183.786,-478.332 192.161,-471.843 186.286,-468.037"/>
</g>
<!-- Node20 -->
<g id="node20" class="node"><title>Node20</title>
<g id="a_node20"><a xlink:href="classcom_1_1tomoparts_1_1tomoBay_1_1model_1_1sql_1_1queries_1_1concreteQueries_1_1select_1_1params_1_1SelectEbayOrderByBuyer.html#af9020b85517904668d036bc2bf89433c" target="_top" xlink:title="com.tomoparts.tomoBay.model.sql.queries.concrete\lQueries.select.params.SelectEbayOrderByBuyer.set\lParameters">
<polygon fill="white" stroke="black" points="285.5,-290.5 285.5,-331.5 555.5,-331.5 555.5,-290.5 285.5,-290.5"/>
<text text-anchor="start" x="293.5" y="-319.5" font-family="Helvetica,sans-Serif" font-size="10.00">com.tomoparts.tomoBay.model.sql.queries.concrete</text>
<text text-anchor="start" x="293.5" y="-308.5" font-family="Helvetica,sans-Serif" font-size="10.00">Queries.select.params.SelectEbayOrderByBuyer.set</text>
<text text-anchor="middle" x="420.5" y="-297.5" font-family="Helvetica,sans-Serif" font-size="10.00">Parameters</text>
</a>
</g>
</g>
<!-- Node2&#45;&gt;Node20 -->
<g id="edge24" class="edge"><title>Node2&#45;&gt;Node20</title>
<path fill="none" stroke="midnightblue" d="M184.167,-468.787C195.413,-437.017 222.395,-373.882 268,-342 273.611,-338.078 279.607,-334.629 285.856,-331.599"/>
<polygon fill="midnightblue" stroke="midnightblue" points="180.848,-467.675 180.952,-478.269 187.478,-469.922 180.848,-467.675"/>
</g>
<!-- Node21 -->
<g id="node21" class="node"><title>Node21</title>
<g id="a_node21"><a xlink:href="classcom_1_1tomoparts_1_1tomoBay_1_1model_1_1sql_1_1queries_1_1concreteQueries_1_1select_1_1params_1_1SelectTransactionByOrder.html#af9020b85517904668d036bc2bf89433c" target="_top" xlink:title="com.tomoparts.tomoBay.model.sql.queries.concrete\lQueries.select.params.SelectTransactionByOrder.set\lParameters">
<polygon fill="white" stroke="black" points="285.5,-230.5 285.5,-271.5 555.5,-271.5 555.5,-230.5 285.5,-230.5"/>
<text text-anchor="start" x="293.5" y="-259.5" font-family="Helvetica,sans-Serif" font-size="10.00">com.tomoparts.tomoBay.model.sql.queries.concrete</text>
<text text-anchor="start" x="293.5" y="-248.5" font-family="Helvetica,sans-Serif" font-size="10.00">Queries.select.params.SelectTransactionByOrder.set</text>
<text text-anchor="middle" x="420.5" y="-237.5" font-family="Helvetica,sans-Serif" font-size="10.00">Parameters</text>
</a>
</g>
</g>
<!-- Node2&#45;&gt;Node21 -->
<g id="edge25" class="edge"><title>Node2&#45;&gt;Node21</title>
<path fill="none" stroke="midnightblue" d="M180.474,-468.345C186.81,-426.745 207.617,-329.638 268,-281 273.325,-276.711 279.092,-272.979 285.16,-269.735"/>
<polygon fill="midnightblue" stroke="midnightblue" points="177,-467.918 179.077,-478.307 183.932,-468.89 177,-467.918"/>
</g>
<!-- Node22 -->
<g id="node22" class="node"><title>Node22</title>
<g id="a_node22"><a xlink:href="classcom_1_1tomoparts_1_1tomoBay_1_1model_1_1sql_1_1queries_1_1concreteQueries_1_1select_1_1para6f75a6d09fd903571426df29e6112491.html#af9020b85517904668d036bc2bf89433c" target="_top" xlink:title="com.tomoparts.tomoBay.model.sql.queries.concrete\lQueries.select.params.SelectBrandAndPartNoBy\lOrderID.setParameters">
<polygon fill="white" stroke="black" points="285.5,-170.5 285.5,-211.5 555.5,-211.5 555.5,-170.5 285.5,-170.5"/>
<text text-anchor="start" x="293.5" y="-199.5" font-family="Helvetica,sans-Serif" font-size="10.00">com.tomoparts.tomoBay.model.sql.queries.concrete</text>
<text text-anchor="start" x="293.5" y="-188.5" font-family="Helvetica,sans-Serif" font-size="10.00">Queries.select.params.SelectBrandAndPartNoBy</text>
<text text-anchor="middle" x="420.5" y="-177.5" font-family="Helvetica,sans-Serif" font-size="10.00">OrderID.setParameters</text>
</a>
</g>
</g>
<!-- Node2&#45;&gt;Node22 -->
<g id="edge26" class="edge"><title>Node2&#45;&gt;Node22</title>
<path fill="none" stroke="midnightblue" d="M178.32,-468.331C180.261,-418.615 192.637,-287.176 268,-221 273.339,-216.312 279.196,-212.273 285.407,-208.798"/>
<polygon fill="midnightblue" stroke="midnightblue" points="174.82,-468.296 178.032,-478.392 181.817,-468.497 174.82,-468.296"/>
</g>
<!-- Node23 -->
<g id="node23" class="node"><title>Node23</title>
<g id="a_node23"><a xlink:href="classcom_1_1tomoparts_1_1tomoBay_1_1model_1_1sql_1_1queries_1_1concreteQueries_1_1select_1_1params_1_1SelectEbayOrderByID.html#af9020b85517904668d036bc2bf89433c" target="_top" xlink:title="com.tomoparts.tomoBay.model.sql.queries.concrete\lQueries.select.params.SelectEbayOrderByID.set\lParameters">
<polygon fill="white" stroke="black" points="285.5,-110.5 285.5,-151.5 555.5,-151.5 555.5,-110.5 285.5,-110.5"/>
<text text-anchor="start" x="293.5" y="-139.5" font-family="Helvetica,sans-Serif" font-size="10.00">com.tomoparts.tomoBay.model.sql.queries.concrete</text>
<text text-anchor="start" x="293.5" y="-128.5" font-family="Helvetica,sans-Serif" font-size="10.00">Queries.select.params.SelectEbayOrderByID.set</text>
<text text-anchor="middle" x="420.5" y="-117.5" font-family="Helvetica,sans-Serif" font-size="10.00">Parameters</text>
</a>
</g>
</g>
<!-- Node2&#45;&gt;Node23 -->
<g id="edge27" class="edge"><title>Node2&#45;&gt;Node23</title>
<path fill="none" stroke="midnightblue" d="M180.667,-468.497C189.783,-404.727 221.719,-204.016 268,-161 273.303,-156.071 279.172,-151.849 285.43,-148.238"/>
<polygon fill="midnightblue" stroke="midnightblue" points="177.196,-468.05 179.274,-478.439 184.128,-469.022 177.196,-468.05"/>
</g>
<!-- Node24 -->
<g id="node24" class="node"><title>Node24</title>
<g id="a_node24"><a xlink:href="classcom_1_1tomoparts_1_1tomoBay_1_1model_1_1sql_1_1queries_1_1concreteQueries_1_1select_1_1params_1_1SelectEbayBuyer.html#af9020b85517904668d036bc2bf89433c" target="_top" xlink:title="com.tomoparts.tomoBay.model.sql.queries.concrete\lQueries.select.params.SelectEbayBuyer.setParameters">
<polygon fill="white" stroke="black" points="279,-61 279,-91 562,-91 562,-61 279,-61"/>
<text text-anchor="start" x="287" y="-79" font-family="Helvetica,sans-Serif" font-size="10.00">com.tomoparts.tomoBay.model.sql.queries.concrete</text>
<text text-anchor="middle" x="420.5" y="-68" font-family="Helvetica,sans-Serif" font-size="10.00">Queries.select.params.SelectEbayBuyer.setParameters</text>
</a>
</g>
</g>
<!-- Node2&#45;&gt;Node24 -->
<g id="edge28" class="edge"><title>Node2&#45;&gt;Node24</title>
<path fill="none" stroke="midnightblue" d="M179.748,-468.197C186.486,-396.553 213.174,-152.376 268,-101 271.988,-97.2633 276.308,-93.9647 280.883,-91.0581"/>
<polygon fill="midnightblue" stroke="midnightblue" points="176.262,-467.88 178.837,-478.158 183.233,-468.518 176.262,-467.88"/>
</g>
<!-- Node25 -->
<g id="node25" class="node"><title>Node25</title>
<g id="a_node25"><a xlink:href="classcom_1_1tomoparts_1_1tomoBay_1_1model_1_1sql_1_1queries_1_1concreteQueries_1_1select_1_1params_1_1SelectFullOrderLine.html#af9020b85517904668d036bc2bf89433c" target="_top" xlink:title="com.tomoparts.tomoBay.model.sql.queries.concrete\lQueries.select.params.SelectFullOrderLine.set\lParameters">
<polygon fill="white" stroke="black" points="285.5,-0.5 285.5,-41.5 555.5,-41.5 555.5,-0.5 285.5,-0.5"/>
<text text-anchor="start" x="293.5" y="-29.5" font-family="Helvetica,sans-Serif" font-size="10.00">com.tomoparts.tomoBay.model.sql.queries.concrete</text>
<text text-anchor="start" x="293.5" y="-18.5" font-family="Helvetica,sans-Serif" font-size="10.00">Queries.select.params.SelectFullOrderLine.set</text>
<text text-anchor="middle" x="420.5" y="-7.5" font-family="Helvetica,sans-Serif" font-size="10.00">Parameters</text>
</a>
</g>
</g>
<!-- Node2&#45;&gt;Node25 -->
<g id="edge29" class="edge"><title>Node2&#45;&gt;Node25</title>
<path fill="none" stroke="midnightblue" d="M179.237,-468.273C184.482,-391.115 207.467,-111.074 268,-51 273.234,-45.806 279.091,-41.3818 285.378,-37.6218"/>
<polygon fill="midnightblue" stroke="midnightblue" points="175.728,-468.286 178.567,-478.494 182.713,-468.744 175.728,-468.286"/>
</g>
<!-- Node4 -->
<g id="node4" class="node"><title>Node4</title>
<g id="a_node4"><a xlink:href="classcom_1_1tomoparts_1_1tomoBay_1_1model_1_1sql_1_1framework_1_1QueryUtility.html#a2da2ce60a8a037d55bdc69309db4815b" target="_top" xlink:title="private ctor ensures that this class is never instantiated ">
<polygon fill="white" stroke="black" points="716.5,-1019.5 716.5,-1038.5 788.5,-1038.5 788.5,-1019.5 716.5,-1019.5"/>
<text text-anchor="middle" x="752.5" y="-1026.5" font-family="Helvetica,sans-Serif" font-size="10.00">QueryUtility</text>
</a>
</g>
</g>
<!-- Node3&#45;&gt;Node4 -->
<g id="edge3" class="edge"><title>Node3&#45;&gt;Node4</title>
<path fill="none" stroke="midnightblue" d="M443.594,-841.633C474.726,-864.33 532.249,-908.771 573,-955 592.319,-976.916 584.277,-994.434 609,-1010 641.21,-1030.28 685.612,-1033.14 716.251,-1032.14"/>
<polygon fill="midnightblue" stroke="midnightblue" points="445.344,-838.58 435.187,-835.567 441.248,-844.257 445.344,-838.58"/>
</g>
<!-- Node5 -->
<g id="node5" class="node"><title>Node5</title>
<g id="a_node5"><a xlink:href="classcom_1_1tomoparts_1_1tomoBay_1_1model_1_1sql_1_1queries_1_1concreteQueries_1_1update_1_1UpdateInvoiceStatusSRN.html#af9020b85517904668d036bc2bf89433c" target="_top" xlink:title="com.tomoparts.tomoBay.model.sql.queries.concrete\lQueries.update.UpdateInvoiceStatusSRN.setParameters">
<polygon fill="white" stroke="black" points="609,-970 609,-1000 896,-1000 896,-970 609,-970"/>
<text text-anchor="start" x="617" y="-988" font-family="Helvetica,sans-Serif" font-size="10.00">com.tomoparts.tomoBay.model.sql.queries.concrete</text>
<text text-anchor="middle" x="752.5" y="-977" font-family="Helvetica,sans-Serif" font-size="10.00">Queries.update.UpdateInvoiceStatusSRN.setParameters</text>
</a>
</g>
</g>
<!-- Node3&#45;&gt;Node5 -->
<g id="edge4" class="edge"><title>Node3&#45;&gt;Node5</title>
<path fill="none" stroke="midnightblue" d="M438.88,-842.853C470.107,-872.067 539.002,-931.781 609,-961 617.335,-964.479 626.143,-967.454 635.128,-969.999"/>
<polygon fill="midnightblue" stroke="midnightblue" points="441.102,-840.136 431.437,-835.795 436.285,-845.216 441.102,-840.136"/>
</g>
<!-- Node3&#45;&gt;Node6 -->
<g id="edge5" class="edge"><title>Node3&#45;&gt;Node6</title>
<path fill="none" stroke="midnightblue" d="M446.093,-841.243C479.119,-862.843 537.72,-905.308 573,-955 598.658,-991.14 574.748,-1019.87 609,-1048 613.561,-1051.75 618.486,-1055.02 623.669,-1057.86"/>
<polygon fill="midnightblue" stroke="midnightblue" points="447.801,-838.18 437.497,-835.715 444.015,-844.068 447.801,-838.18"/>
</g>
<!-- Node7 -->
<g id="node7" class="node"><title>Node7</title>
<g id="a_node7"><a xlink:href="classcom_1_1tomoparts_1_1tomoBay_1_1model_1_1sql_1_1queries_1_1concreteQueries_1_1insert_1_1InsertOutOfHoursOrders.html#af9020b85517904668d036bc2bf89433c" target="_top" xlink:title="com.tomoparts.tomoBay.model.sql.queries.concrete\lQueries.insert.InsertOutOfHoursOrders.setParameters">
<polygon fill="white" stroke="black" points="614.5,-921 614.5,-951 890.5,-951 890.5,-921 614.5,-921"/>
<text text-anchor="start" x="622.5" y="-939" font-family="Helvetica,sans-Serif" font-size="10.00">com.tomoparts.tomoBay.model.sql.queries.concrete</text>
<text text-anchor="middle" x="752.5" y="-928" font-family="Helvetica,sans-Serif" font-size="10.00">Queries.insert.InsertOutOfHoursOrders.setParameters</text>
</a>
</g>
</g>
<!-- Node3&#45;&gt;Node7 -->
<g id="edge6" class="edge"><title>Node3&#45;&gt;Node7</title>
<path fill="none" stroke="midnightblue" d="M447.961,-840.585C483.532,-859.58 549.226,-892.533 609,-911 621.359,-914.818 634.513,-918.112 647.641,-920.938"/>
<polygon fill="midnightblue" stroke="midnightblue" points="449.219,-837.287 438.756,-835.621 445.897,-843.448 449.219,-837.287"/>
</g>
<!-- Node8 -->
<g id="node8" class="node"><title>Node8</title>
<g id="a_node8"><a xlink:href="classcom_1_1tomoparts_1_1tomoBay_1_1model_1_1sql_1_1queries_1_1concreteQueries_1_1select_1_1parac0d31fe89450040cf1dcb1e02765c08b.html#af9020b85517904668d036bc2bf89433c" target="_top" xlink:title="com.tomoparts.tomoBay.model.sql.queries.concrete\lQueries.select.params.SelectEbayOrderHistory\lLastNDays.setParameters">
<polygon fill="white" stroke="black" points="617.5,-860.5 617.5,-901.5 887.5,-901.5 887.5,-860.5 617.5,-860.5"/>
<text text-anchor="start" x="625.5" y="-889.5" font-family="Helvetica,sans-Serif" font-size="10.00">com.tomoparts.tomoBay.model.sql.queries.concrete</text>
<text text-anchor="start" x="625.5" y="-878.5" font-family="Helvetica,sans-Serif" font-size="10.00">Queries.select.params.SelectEbayOrderHistory</text>
<text text-anchor="middle" x="752.5" y="-867.5" font-family="Helvetica,sans-Serif" font-size="10.00">LastNDays.setParameters</text>
</a>
</g>
</g>
<!-- Node3&#45;&gt;Node8 -->
<g id="edge7" class="edge"><title>Node3&#45;&gt;Node8</title>
<path fill="none" stroke="midnightblue" d="M482.77,-836.212C523.634,-843.022 578.778,-852.213 628.479,-860.496"/>
<polygon fill="midnightblue" stroke="midnightblue" points="483.14,-832.725 472.7,-834.533 481.989,-839.63 483.14,-832.725"/>
</g>
<!-- Node3&#45;&gt;Node9 -->
<g id="edge8" class="edge"><title>Node3&#45;&gt;Node9</title>
<path fill="none" stroke="midnightblue" d="M482.719,-816.91C529.67,-809.938 595.495,-800.164 650.251,-792.034"/>
<polygon fill="midnightblue" stroke="midnightblue" points="482.078,-813.467 472.7,-818.398 483.106,-820.391 482.078,-813.467"/>
</g>
<!-- Node3&#45;&gt;Node10 -->
<g id="edge9" class="edge"><title>Node3&#45;&gt;Node10</title>
<path fill="none" stroke="midnightblue" d="M451.685,-812.104C488.221,-795.789 551.955,-768.94 609,-753 622.547,-749.215 636.986,-745.889 651.278,-743.003"/>
<polygon fill="midnightblue" stroke="midnightblue" points="449.809,-809.11 442.129,-816.408 452.684,-815.492 449.809,-809.11"/>
</g>
<!-- Node3&#45;&gt;Node11 -->
<g id="edge10" class="edge"><title>Node3&#45;&gt;Node11</title>
<path fill="none" stroke="midnightblue" d="M440.634,-809.711C473.009,-783.078 541.666,-730.525 609,-704 618.815,-700.134 629.245,-696.863 639.825,-694.097"/>
<polygon fill="midnightblue" stroke="midnightblue" points="438.295,-807.104 432.85,-816.193 442.774,-812.483 438.295,-807.104"/>
</g>
<!-- Node3&#45;&gt;Node12 -->
<g id="edge11" class="edge"><title>Node3&#45;&gt;Node12</title>
<path fill="none" stroke="midnightblue" d="M435.172,-808.452C463.525,-773.36 532.5,-694.517 609,-655 616.648,-651.049 624.778,-647.601 633.127,-644.592"/>
<polygon fill="midnightblue" stroke="midnightblue" points="432.35,-806.378 428.859,-816.381 437.826,-810.738 432.35,-806.378"/>
</g>
<!-- Node13 -->
<g id="node13" class="node"><title>Node13</title>
<g id="a_node13"><a xlink:href="classcom_1_1tomoparts_1_1tomoBay_1_1model_1_1sql_1_1queries_1_1concreteQueries_1_1select_1_1params_1_1SelectBrandByInv.html#af9020b85517904668d036bc2bf89433c" target="_top" xlink:title="com.tomoparts.tomoBay.model.sql.queries.concrete\lQueries.select.params.SelectBrandByInv.setParameters">
<polygon fill="white" stroke="black" points="609.5,-811 609.5,-841 895.5,-841 895.5,-811 609.5,-811"/>
<text text-anchor="start" x="617.5" y="-829" font-family="Helvetica,sans-Serif" font-size="10.00">com.tomoparts.tomoBay.model.sql.queries.concrete</text>
<text text-anchor="middle" x="752.5" y="-818" font-family="Helvetica,sans-Serif" font-size="10.00">Queries.select.params.SelectBrandByInv.setParameters</text>
</a>
</g>
</g>
<!-- Node3&#45;&gt;Node13 -->
<g id="edge12" class="edge"><title>Node3&#45;&gt;Node13</title>
<path fill="none" stroke="midnightblue" d="M482.923,-826C518.552,-826 564.999,-826 609.226,-826"/>
<polygon fill="midnightblue" stroke="midnightblue" points="482.7,-822.5 472.7,-826 482.7,-829.5 482.7,-822.5"/>
</g>
</g>
</svg>
