<?xml version="1.0" encoding="UTF-8" standalone="no"?>
<!DOCTYPE svg PUBLIC "-//W3C//DTD SVG 1.1//EN"
 "http://www.w3.org/Graphics/SVG/1.1/DTD/svg11.dtd">
<!-- Generated by graphviz version 2.38.0 (20140413.2041)
 -->
<!-- Title: SelectEbayItemsErrorFactory Pages: 1 -->
<svg width="182pt" height="370pt"
 viewBox="0.00 0.00 182.00 370.00" xmlns="http://www.w3.org/2000/svg" xmlns:xlink="http://www.w3.org/1999/xlink">
<g id="graph0" class="graph" transform="scale(1 1) rotate(0) translate(4 366)">
<title>SelectEbayItemsErrorFactory</title>
<polygon fill="white" stroke="none" points="-4,4 -4,-366 178,-366 178,4 -4,4"/>
<!-- Node1 -->
<g id="node1" class="node"><title>Node1</title>
<polygon fill="#bfbfbf" stroke="black" points="0,-0.5 0,-68.5 174,-68.5 174,-0.5 0,-0.5"/>
<text text-anchor="middle" x="87" y="-56.5" font-family="Helvetica,sans-Serif" font-size="10.00">SelectEbayItemsErrorFactory</text>
<polyline fill="none" stroke="black" points="0,-49.5 174,-49.5 "/>
<text text-anchor="middle" x="87" y="-37.5" font-family="Helvetica,sans-Serif" font-size="10.00"> </text>
<polyline fill="none" stroke="black" points="0,-30.5 174,-30.5 "/>
<text text-anchor="start" x="8" y="-18.5" font-family="Helvetica,sans-Serif" font-size="10.00">+ SelectEbayItemsErrorFactory()</text>
<text text-anchor="start" x="8" y="-7.5" font-family="Helvetica,sans-Serif" font-size="10.00">+ make()</text>
</g>
<!-- Node2 -->
<g id="node2" class="node"><title>Node2</title>
<g id="a_node2"><a xlink:href="interfacecom_1_1tomoparts_1_1tomoBay_1_1model_1_1sql_1_1framework_1_1queryFactories_1_1AbstractSelectNoParamsQueryFactory.html" target="_top" xlink:title="{AbstractSelectNoParamsQuery\lFactory\n||+ make()\l}">
<polygon fill="white" stroke="black" points="4,-105.5 4,-173.5 170,-173.5 170,-105.5 4,-105.5"/>
<text text-anchor="start" x="12" y="-161.5" font-family="Helvetica,sans-Serif" font-size="10.00">AbstractSelectNoParamsQuery</text>
<text text-anchor="middle" x="87" y="-150.5" font-family="Helvetica,sans-Serif" font-size="10.00">Factory</text>
<polyline fill="none" stroke="black" points="4,-143.5 170,-143.5 "/>
<text text-anchor="middle" x="87" y="-131.5" font-family="Helvetica,sans-Serif" font-size="10.00"> </text>
<polyline fill="none" stroke="black" points="4,-124.5 170,-124.5 "/>
<text text-anchor="start" x="12" y="-112.5" font-family="Helvetica,sans-Serif" font-size="10.00">+ make()</text>
</a>
</g>
</g>
<!-- Node2&#45;&gt;Node1 -->
<g id="edge1" class="edge"><title>Node2&#45;&gt;Node1</title>
<path fill="none" stroke="midnightblue" d="M87,-95.1362C87,-86.256 87,-77.0447 87,-68.5947"/>
<polygon fill="none" stroke="midnightblue" points="83.5001,-95.3432 87,-105.343 90.5001,-95.3432 83.5001,-95.3432"/>
</g>
<!-- Node3 -->
<g id="node3" class="node"><title>Node3</title>
<g id="a_node3"><a xlink:href="interfacecom_1_1tomoparts_1_1tomoBay_1_1model_1_1sql_1_1framework_1_1queryFactories_1_1AbstractSelectQueryFactory.html" target="_top" xlink:title="{AbstractSelectQueryFactory\n||+ make()\l}">
<polygon fill="white" stroke="black" points="11.5,-210.5 11.5,-267.5 162.5,-267.5 162.5,-210.5 11.5,-210.5"/>
<text text-anchor="middle" x="87" y="-255.5" font-family="Helvetica,sans-Serif" font-size="10.00">AbstractSelectQueryFactory</text>
<polyline fill="none" stroke="black" points="11.5,-248.5 162.5,-248.5 "/>
<text text-anchor="middle" x="87" y="-236.5" font-family="Helvetica,sans-Serif" font-size="10.00"> </text>
<polyline fill="none" stroke="black" points="11.5,-229.5 162.5,-229.5 "/>
<text text-anchor="start" x="19.5" y="-217.5" font-family="Helvetica,sans-Serif" font-size="10.00">+ make()</text>
</a>
</g>
</g>
<!-- Node3&#45;&gt;Node2 -->
<g id="edge2" class="edge"><title>Node3&#45;&gt;Node2</title>
<path fill="none" stroke="midnightblue" d="M87,-200.063C87,-191.393 87,-182.243 87,-173.786"/>
<polygon fill="none" stroke="midnightblue" points="83.5001,-200.321 87,-210.321 90.5001,-200.321 83.5001,-200.321"/>
</g>
<!-- Node4 -->
<g id="node4" class="node"><title>Node4</title>
<g id="a_node4"><a xlink:href="interfacecom_1_1tomoparts_1_1tomoBay_1_1model_1_1sql_1_1framework_1_1queryFactories_1_1AbstractQueryFactory.html" target="_top" xlink:title="all Queries are instantiated using a factory and each of these factories must conform to this interfa...">
<polygon fill="white" stroke="black" points="26.5,-304.5 26.5,-361.5 147.5,-361.5 147.5,-304.5 26.5,-304.5"/>
<text text-anchor="middle" x="87" y="-349.5" font-family="Helvetica,sans-Serif" font-size="10.00">AbstractQueryFactory</text>
<polyline fill="none" stroke="black" points="26.5,-342.5 147.5,-342.5 "/>
<text text-anchor="middle" x="87" y="-330.5" font-family="Helvetica,sans-Serif" font-size="10.00"> </text>
<polyline fill="none" stroke="black" points="26.5,-323.5 147.5,-323.5 "/>
<text text-anchor="start" x="34.5" y="-311.5" font-family="Helvetica,sans-Serif" font-size="10.00">+ make()</text>
</a>
</g>
</g>
<!-- Node4&#45;&gt;Node3 -->
<g id="edge3" class="edge"><title>Node4&#45;&gt;Node3</title>
<path fill="none" stroke="midnightblue" d="M87,-294.209C87,-285.293 87,-275.951 87,-267.584"/>
<polygon fill="none" stroke="midnightblue" points="83.5001,-294.397 87,-304.397 90.5001,-294.397 83.5001,-294.397"/>
</g>
</g>
</svg>
