<?xml version="1.0" encoding="UTF-8" standalone="no"?>
<!DOCTYPE svg PUBLIC "-//W3C//DTD SVG 1.1//EN"
 "http://www.w3.org/Graphics/SVG/1.1/DTD/svg11.dtd">
<!-- Generated by graphviz version 2.38.0 (20140413.2041)
 -->
<!-- Title: JSONentity Pages: 1 -->
<svg width="264pt" height="237pt"
 viewBox="0.00 0.00 263.50 237.00" xmlns="http://www.w3.org/2000/svg" xmlns:xlink="http://www.w3.org/1999/xlink">
<g id="graph0" class="graph" transform="scale(1 1) rotate(0) translate(4 233)">
<title>JSONentity</title>
<polygon fill="white" stroke="none" points="-4,4 -4,-233 259.5,-233 259.5,4 -4,4"/>
<!-- Node1 -->
<g id="node1" class="node"><title>Node1</title>
<polygon fill="#bfbfbf" stroke="black" points="66.5,-105.5 66.5,-228.5 185.5,-228.5 185.5,-105.5 66.5,-105.5"/>
<text text-anchor="middle" x="126" y="-216.5" font-family="Helvetica,sans-Serif" font-size="10.00">JSONentity</text>
<polyline fill="none" stroke="black" points="66.5,-209.5 185.5,-209.5 "/>
<text text-anchor="start" x="74.5" y="-197.5" font-family="Helvetica,sans-Serif" font-size="10.00"># children_M</text>
<polyline fill="none" stroke="black" points="66.5,-190.5 185.5,-190.5 "/>
<text text-anchor="start" x="74.5" y="-178.5" font-family="Helvetica,sans-Serif" font-size="10.00">+ JSONentity()</text>
<text text-anchor="start" x="74.5" y="-167.5" font-family="Helvetica,sans-Serif" font-size="10.00">+ addPreFormatted()</text>
<text text-anchor="start" x="74.5" y="-156.5" font-family="Helvetica,sans-Serif" font-size="10.00">+ addLeaf()</text>
<text text-anchor="start" x="74.5" y="-145.5" font-family="Helvetica,sans-Serif" font-size="10.00">+ addBranch()</text>
<text text-anchor="start" x="74.5" y="-134.5" font-family="Helvetica,sans-Serif" font-size="10.00">+ clear()</text>
<text text-anchor="start" x="74.5" y="-123.5" font-family="Helvetica,sans-Serif" font-size="10.00">+ finalize()</text>
<text text-anchor="start" x="74.5" y="-112.5" font-family="Helvetica,sans-Serif" font-size="10.00">+ toString()</text>
</g>
<!-- Node2 -->
<g id="node2" class="node"><title>Node2</title>
<g id="a_node2"><a xlink:href="classcom_1_1tomoparts_1_1tomoBay_1_1model_1_1dataTypes_1_1json_1_1JSONentity__array.html" target="_top" xlink:title="This class represents a JSON array. ">
<polygon fill="white" stroke="black" points="0,-0.5 0,-68.5 116,-68.5 116,-0.5 0,-0.5"/>
<text text-anchor="middle" x="58" y="-56.5" font-family="Helvetica,sans-Serif" font-size="10.00">JSONentity_array</text>
<polyline fill="none" stroke="black" points="0,-49.5 116,-49.5 "/>
<text text-anchor="middle" x="58" y="-37.5" font-family="Helvetica,sans-Serif" font-size="10.00"> </text>
<polyline fill="none" stroke="black" points="0,-30.5 116,-30.5 "/>
<text text-anchor="start" x="8" y="-18.5" font-family="Helvetica,sans-Serif" font-size="10.00">+ JSONentity_array()</text>
<text text-anchor="start" x="8" y="-7.5" font-family="Helvetica,sans-Serif" font-size="10.00">+ toString()</text>
</a>
</g>
</g>
<!-- Node1&#45;&gt;Node2 -->
<g id="edge1" class="edge"><title>Node1&#45;&gt;Node2</title>
<path fill="none" stroke="midnightblue" d="M89.7484,-96.429C84.7019,-86.744 79.7218,-77.1866 75.2554,-68.6152"/>
<polygon fill="none" stroke="midnightblue" points="86.6639,-98.0836 94.3889,-105.335 92.8717,-94.8489 86.6639,-98.0836"/>
</g>
<!-- Node3 -->
<g id="node3" class="node"><title>Node3</title>
<g id="a_node3"><a xlink:href="classcom_1_1tomoparts_1_1tomoBay_1_1model_1_1dataTypes_1_1json_1_1JSONentity__object.html" target="_top" xlink:title="This class represents a general JSON Object. ">
<polygon fill="white" stroke="black" points="134.5,-0.5 134.5,-68.5 255.5,-68.5 255.5,-0.5 134.5,-0.5"/>
<text text-anchor="middle" x="195" y="-56.5" font-family="Helvetica,sans-Serif" font-size="10.00">JSONentity_object</text>
<polyline fill="none" stroke="black" points="134.5,-49.5 255.5,-49.5 "/>
<text text-anchor="middle" x="195" y="-37.5" font-family="Helvetica,sans-Serif" font-size="10.00"> </text>
<polyline fill="none" stroke="black" points="134.5,-30.5 255.5,-30.5 "/>
<text text-anchor="start" x="142.5" y="-18.5" font-family="Helvetica,sans-Serif" font-size="10.00">+ JSONentity_object()</text>
<text text-anchor="start" x="142.5" y="-7.5" font-family="Helvetica,sans-Serif" font-size="10.00">+ toString()</text>
</a>
</g>
</g>
<!-- Node1&#45;&gt;Node3 -->
<g id="edge2" class="edge"><title>Node1&#45;&gt;Node3</title>
<path fill="none" stroke="midnightblue" d="M162.785,-96.429C167.905,-86.744 172.959,-77.1866 177.491,-68.6152"/>
<polygon fill="none" stroke="midnightblue" points="159.656,-94.8582 158.076,-105.335 165.844,-98.1302 159.656,-94.8582"/>
</g>
</g>
</svg>
