<?xml version="1.0" encoding="UTF-8" standalone="no"?>
<!DOCTYPE svg PUBLIC "-//W3C//DTD SVG 1.1//EN"
 "http://www.w3.org/Graphics/SVG/1.1/DTD/svg11.dtd">
<!-- Generated by graphviz version 2.38.0 (20140413.2041)
 -->
<!-- Title: SelectBrandAndPartNoByOrderID Pages: 1 -->
<svg width="219pt" height="555pt"
 viewBox="0.00 0.00 219.00 555.00" xmlns="http://www.w3.org/2000/svg" xmlns:xlink="http://www.w3.org/1999/xlink">
<g id="graph0" class="graph" transform="scale(1 1) rotate(0) translate(4 551)">
<title>SelectBrandAndPartNoByOrderID</title>
<polygon fill="white" stroke="none" points="-4,4 -4,-551 215,-551 215,4 -4,4"/>
<!-- Node1 -->
<g id="node1" class="node"><title>Node1</title>
<polygon fill="#bfbfbf" stroke="black" points="0,-0.5 0,-90.5 194,-90.5 194,-0.5 0,-0.5"/>
<text text-anchor="middle" x="97" y="-78.5" font-family="Helvetica,sans-Serif" font-size="10.00">SelectBrandAndPartNoByOrderID</text>
<polyline fill="none" stroke="black" points="0,-71.5 194,-71.5 "/>
<text text-anchor="start" x="8" y="-59.5" font-family="Helvetica,sans-Serif" font-size="10.00">&#45; query</text>
<polyline fill="none" stroke="black" points="0,-52.5 194,-52.5 "/>
<text text-anchor="start" x="8" y="-40.5" font-family="Helvetica,sans-Serif" font-size="10.00">+ SelectBrandAndPartNoByOrderID()</text>
<text text-anchor="start" x="8" y="-29.5" font-family="Helvetica,sans-Serif" font-size="10.00"># format()</text>
<text text-anchor="start" x="8" y="-18.5" font-family="Helvetica,sans-Serif" font-size="10.00"># setParameters()</text>
<text text-anchor="start" x="8" y="-7.5" font-family="Helvetica,sans-Serif" font-size="10.00"># queryString()</text>
</g>
<!-- Node2 -->
<g id="node2" class="node"><title>Node2</title>
<g id="a_node2"><a xlink:href="classcom_1_1tomoparts_1_1tomoBay_1_1model_1_1sql_1_1framework_1_1queryTypes_1_1select_1_1AbstractSelectParamsQuery.html" target="_top" xlink:title="This class defines the abstract base for all Select queries that take parameters. ...">
<polygon fill="white" stroke="black" points="11.5,-128.5 11.5,-218.5 182.5,-218.5 182.5,-128.5 11.5,-128.5"/>
<text text-anchor="middle" x="97" y="-206.5" font-family="Helvetica,sans-Serif" font-size="10.00">AbstractSelectParamsQuery</text>
<polyline fill="none" stroke="black" points="11.5,-199.5 182.5,-199.5 "/>
<text text-anchor="middle" x="97" y="-187.5" font-family="Helvetica,sans-Serif" font-size="10.00"> </text>
<polyline fill="none" stroke="black" points="11.5,-180.5 182.5,-180.5 "/>
<text text-anchor="start" x="19.5" y="-168.5" font-family="Helvetica,sans-Serif" font-size="10.00">+ AbstractSelectParamsQuery()</text>
<text text-anchor="start" x="19.5" y="-157.5" font-family="Helvetica,sans-Serif" font-size="10.00">+ execute()</text>
<text text-anchor="start" x="19.5" y="-146.5" font-family="Helvetica,sans-Serif" font-size="10.00"># setParameters()</text>
<text text-anchor="start" x="19.5" y="-135.5" font-family="Helvetica,sans-Serif" font-size="10.00">&#45; initQuery()</text>
</a>
</g>
</g>
<!-- Node2&#45;&gt;Node1 -->
<g id="edge1" class="edge"><title>Node2&#45;&gt;Node1</title>
<path fill="none" stroke="midnightblue" d="M97,-118.226C97,-109.056 97,-99.6331 97,-90.7568"/>
<polygon fill="none" stroke="midnightblue" points="93.5001,-118.431 97,-128.431 100.5,-118.431 93.5001,-118.431"/>
</g>
<!-- Node3 -->
<g id="node3" class="node"><title>Node3</title>
<g id="a_node3"><a xlink:href="classcom_1_1tomoparts_1_1tomoBay_1_1model_1_1sql_1_1framework_1_1queryTypes_1_1select_1_1AbstractSelectQuery.html" target="_top" xlink:title="{AbstractSelectQuery\n||+ AbstractSelectQuery()\l# format()\l}">
<polygon fill="white" stroke="black" points="30,-256.5 30,-324.5 164,-324.5 164,-256.5 30,-256.5"/>
<text text-anchor="middle" x="97" y="-312.5" font-family="Helvetica,sans-Serif" font-size="10.00">AbstractSelectQuery</text>
<polyline fill="none" stroke="black" points="30,-305.5 164,-305.5 "/>
<text text-anchor="middle" x="97" y="-293.5" font-family="Helvetica,sans-Serif" font-size="10.00"> </text>
<polyline fill="none" stroke="black" points="30,-286.5 164,-286.5 "/>
<text text-anchor="start" x="38" y="-274.5" font-family="Helvetica,sans-Serif" font-size="10.00">+ AbstractSelectQuery()</text>
<text text-anchor="start" x="38" y="-263.5" font-family="Helvetica,sans-Serif" font-size="10.00"># format()</text>
</a>
</g>
</g>
<!-- Node3&#45;&gt;Node2 -->
<g id="edge2" class="edge"><title>Node3&#45;&gt;Node2</title>
<path fill="none" stroke="midnightblue" d="M97,-246.055C97,-237.146 97,-227.757 97,-218.818"/>
<polygon fill="none" stroke="midnightblue" points="93.5001,-246.237 97,-256.237 100.5,-246.237 93.5001,-246.237"/>
</g>
<!-- Node4 -->
<g id="node4" class="node"><title>Node4</title>
<g id="a_node4"><a xlink:href="classcom_1_1tomoparts_1_1tomoBay_1_1model_1_1sql_1_1framework_1_1queryTypes_1_1AbstractDBQuery.html" target="_top" xlink:title="Interface that all database queries must adhere to. ">
<polygon fill="white" stroke="black" points="47,-362.5 47,-441.5 147,-441.5 147,-362.5 47,-362.5"/>
<text text-anchor="middle" x="97" y="-429.5" font-family="Helvetica,sans-Serif" font-size="10.00">AbstractDBQuery</text>
<polyline fill="none" stroke="black" points="47,-422.5 147,-422.5 "/>
<text text-anchor="middle" x="97" y="-410.5" font-family="Helvetica,sans-Serif" font-size="10.00"> </text>
<polyline fill="none" stroke="black" points="47,-403.5 147,-403.5 "/>
<text text-anchor="start" x="55" y="-391.5" font-family="Helvetica,sans-Serif" font-size="10.00">+ statement()</text>
<text text-anchor="start" x="55" y="-380.5" font-family="Helvetica,sans-Serif" font-size="10.00"># queryString()</text>
<text text-anchor="start" x="55" y="-369.5" font-family="Helvetica,sans-Serif" font-size="10.00"># cleanup()</text>
</a>
</g>
</g>
<!-- Node4&#45;&gt;Node3 -->
<g id="edge3" class="edge"><title>Node4&#45;&gt;Node3</title>
<path fill="none" stroke="midnightblue" d="M97,-352.381C97,-343.016 97,-333.409 97,-324.674"/>
<polygon fill="none" stroke="midnightblue" points="93.5001,-352.394 97,-362.394 100.5,-352.394 93.5001,-352.394"/>
</g>
<!-- Node5 -->
<g id="node5" class="node"><title>Node5</title>
<polygon fill="white" stroke="#bfbfbf" points="6.5,-489.5 6.5,-546.5 77.5,-546.5 77.5,-489.5 6.5,-489.5"/>
<text text-anchor="middle" x="42" y="-534.5" font-family="Helvetica,sans-Serif" font-size="10.00">Connection</text>
<polyline fill="none" stroke="#bfbfbf" points="6.5,-527.5 77.5,-527.5 "/>
<text text-anchor="middle" x="42" y="-515.5" font-family="Helvetica,sans-Serif" font-size="10.00"> </text>
<polyline fill="none" stroke="#bfbfbf" points="6.5,-508.5 77.5,-508.5 "/>
<text text-anchor="middle" x="42" y="-496.5" font-family="Helvetica,sans-Serif" font-size="10.00"> </text>
</g>
<!-- Node5&#45;&gt;Node4 -->
<g id="edge4" class="edge"><title>Node5&#45;&gt;Node4</title>
<path fill="none" stroke="#404040" d="M44.0838,-489.223C45.5189,-479.659 47.9353,-469.078 52,-460 53.2398,-457.231 54.6441,-454.479 56.171,-451.765"/>
<polygon fill="none" stroke="#404040" points="56.2101,-451.703 56.0049,-444.495 62.5796,-441.533 62.7849,-448.741 56.2101,-451.703"/>
<text text-anchor="middle" x="91" y="-463" font-family="Helvetica,sans-Serif" font-size="10.00"> #connection_M</text>
</g>
<!-- Node6 -->
<g id="node6" class="node"><title>Node6</title>
<polygon fill="white" stroke="#bfbfbf" points="96,-489.5 96,-546.5 208,-546.5 208,-489.5 96,-489.5"/>
<text text-anchor="middle" x="152" y="-534.5" font-family="Helvetica,sans-Serif" font-size="10.00">PreparedStatement</text>
<polyline fill="none" stroke="#bfbfbf" points="96,-527.5 208,-527.5 "/>
<text text-anchor="middle" x="152" y="-515.5" font-family="Helvetica,sans-Serif" font-size="10.00"> </text>
<polyline fill="none" stroke="#bfbfbf" points="96,-508.5 208,-508.5 "/>
<text text-anchor="middle" x="152" y="-496.5" font-family="Helvetica,sans-Serif" font-size="10.00"> </text>
</g>
<!-- Node6&#45;&gt;Node4 -->
<g id="edge5" class="edge"><title>Node6&#45;&gt;Node4</title>
<path fill="none" stroke="#404040" d="M142.334,-489.378C138.766,-479.926 134.489,-469.376 130,-460 128.771,-457.433 127.469,-454.826 126.119,-452.212"/>
<polygon fill="none" stroke="#404040" points="126.047,-452.077 119.685,-448.681 120.373,-441.503 126.735,-444.899 126.047,-452.077"/>
<text text-anchor="middle" x="173" y="-463" font-family="Helvetica,sans-Serif" font-size="10.00"> #statement_M</text>
</g>
</g>
</svg>
