<?xml version="1.0" encoding="UTF-8" standalone="no"?>
<!DOCTYPE svg PUBLIC "-//W3C//DTD SVG 1.1//EN"
 "http://www.w3.org/Graphics/SVG/1.1/DTD/svg11.dtd">
<!-- Generated by graphviz version 2.38.0 (20140413.2041)
 -->
<!-- Title: print Pages: 1 -->
<svg width="1061pt" height="198pt"
 viewBox="0.00 0.00 1061.00 198.00" xmlns="http://www.w3.org/2000/svg" xmlns:xlink="http://www.w3.org/1999/xlink">
<g id="graph0" class="graph" transform="scale(1 1) rotate(0) translate(4 194)">
<title>print</title>
<polygon fill="white" stroke="none" points="-4,4 -4,-194 1057,-194 1057,4 -4,4"/>
<!-- Node1 -->
<g id="node1" class="node"><title>Node1</title>
<polygon fill="#bfbfbf" stroke="black" points="0,-82 0,-101 38,-101 38,-82 0,-82"/>
<text text-anchor="middle" x="19" y="-89" font-family="Helvetica,sans-Serif" font-size="10.00">print</text>
</g>
<!-- Node2 -->
<g id="node2" class="node"><title>Node2</title>
<g id="a_node2"><a xlink:href="classcom_1_1tomoparts_1_1tomoBay_1_1model_1_1winstock_1_1WinstockCommandInvoker.html#af1434b0b82b0016e3a50a6aaecc770c2" target="_top" xlink:title="This method executes the AbstractWinstockCommand that the user has requested. ">
<polygon fill="white" stroke="black" points="97.5,-159.5 97.5,-189.5 314.5,-189.5 314.5,-159.5 97.5,-159.5"/>
<text text-anchor="start" x="105.5" y="-177.5" font-family="Helvetica,sans-Serif" font-size="10.00">com.tomoparts.tomoBay.model.winstock.</text>
<text text-anchor="middle" x="206" y="-166.5" font-family="Helvetica,sans-Serif" font-size="10.00">WinstockCommandInvoker.execute</text>
</a>
</g>
</g>
<!-- Node1&#45;&gt;Node2 -->
<g id="edge1" class="edge"><title>Node1&#45;&gt;Node2</title>
<path fill="none" stroke="midnightblue" d="M26.0148,-101.073C34.8316,-114.242 52.5656,-137.655 74,-149.5 78.4457,-151.957 83.0914,-154.176 87.8703,-156.18"/>
<polygon fill="midnightblue" stroke="midnightblue" points="86.617,-159.448 97.2068,-159.776 89.1329,-152.916 86.617,-159.448"/>
</g>
<!-- Node3 -->
<g id="node3" class="node"><title>Node3</title>
<g id="a_node3"><a xlink:href="classcom_1_1tomoparts_1_1tomoBay_1_1model_1_1dataTypes_1_1financial_1_1SalesOrderDayBook_1_1AbstractSalesDayBookLine.html#a2322342510367e536d54eb47f2c43512" target="_top" xlink:title="returns the invoice number of this invoice, if it exists. ">
<polygon fill="white" stroke="black" points="95.5,-99 95.5,-140 316.5,-140 316.5,-99 95.5,-99"/>
<text text-anchor="start" x="103.5" y="-128" font-family="Helvetica,sans-Serif" font-size="10.00">com.tomoparts.tomoBay.model.data</text>
<text text-anchor="start" x="103.5" y="-117" font-family="Helvetica,sans-Serif" font-size="10.00">Types.financial.SalesOrderDayBook.</text>
<text text-anchor="middle" x="206" y="-106" font-family="Helvetica,sans-Serif" font-size="10.00">AbstractSalesDayBookLine.invoiceNumber</text>
</a>
</g>
</g>
<!-- Node1&#45;&gt;Node3 -->
<g id="edge2" class="edge"><title>Node1&#45;&gt;Node3</title>
<path fill="none" stroke="midnightblue" d="M38.0754,-94.2357C50.021,-96.0437 66.828,-98.5875 85.2146,-101.37"/>
<polygon fill="midnightblue" stroke="midnightblue" points="84.851,-104.855 95.2622,-102.891 85.8986,-97.9339 84.851,-104.855"/>
</g>
<!-- Node8 -->
<g id="node8" class="node"><title>Node8</title>
<g id="a_node8"><a xlink:href="interfacecom_1_1tomoparts_1_1tomoBay_1_1model_1_1winstock_1_1response_1_1AbstractWinstockCommandResponse.html#a94c43012f032cf0ad0acc1d6a6047cf6" target="_top" xlink:title="method of descerning whether the AbstractWinstockCommand associated with this AbstractWinstockCommand...">
<polygon fill="white" stroke="black" points="74,-49.5 74,-79.5 338,-79.5 338,-49.5 74,-49.5"/>
<text text-anchor="start" x="82" y="-67.5" font-family="Helvetica,sans-Serif" font-size="10.00">com.tomoparts.tomoBay.model.winstock.response.</text>
<text text-anchor="middle" x="206" y="-56.5" font-family="Helvetica,sans-Serif" font-size="10.00">AbstractWinstockCommandResponse.isSuccess</text>
</a>
</g>
</g>
<!-- Node1&#45;&gt;Node8 -->
<g id="edge7" class="edge"><title>Node1&#45;&gt;Node8</title>
<path fill="none" stroke="midnightblue" d="M38.0754,-88.862C51.4971,-86.9031 71.0556,-84.0486 92.0965,-80.9778"/>
<polygon fill="midnightblue" stroke="midnightblue" points="92.7966,-84.4128 102.186,-79.5052 91.7857,-77.4862 92.7966,-84.4128"/>
</g>
<!-- Node9 -->
<g id="node9" class="node"><title>Node9</title>
<g id="a_node9"><a xlink:href="classcom_1_1tomoparts_1_1tomoBay_1_1helpers_1_1StackTraceToString.html#acc17f606a32b47fa21910194d3fc44c6" target="_top" xlink:title="Converts the stack trace of the exception provided into a string. ">
<polygon fill="white" stroke="black" points="116.5,-0.5 116.5,-30.5 295.5,-30.5 295.5,-0.5 116.5,-0.5"/>
<text text-anchor="start" x="124.5" y="-18.5" font-family="Helvetica,sans-Serif" font-size="10.00">com.tomoparts.tomoBay.helpers.</text>
<text text-anchor="middle" x="206" y="-7.5" font-family="Helvetica,sans-Serif" font-size="10.00">StackTraceToString.toString</text>
</a>
</g>
</g>
<!-- Node1&#45;&gt;Node9 -->
<g id="edge8" class="edge"><title>Node1&#45;&gt;Node9</title>
<path fill="none" stroke="midnightblue" d="M27.2481,-81.8923C36.6642,-70.1493 54.2524,-50.5983 74,-40.5 84.1245,-35.3226 95.1858,-31.2117 106.452,-27.9485"/>
<polygon fill="midnightblue" stroke="midnightblue" points="107.629,-31.2567 116.387,-25.2936 105.822,-24.494 107.629,-31.2567"/>
</g>
<!-- Node4 -->
<g id="node4" class="node"><title>Node4</title>
<g id="a_node4"><a xlink:href="classcom_1_1tomoparts_1_1tomoBay_1_1model_1_1dataTypes_1_1order_1_1Order.html#a71ffaf8494f38432864d46ea421343fc" target="_top" xlink:title="retrieve the invoice number from this order(if it has one) ">
<polygon fill="white" stroke="black" points="374,-131.5 374,-161.5 569,-161.5 569,-131.5 374,-131.5"/>
<text text-anchor="start" x="382" y="-149.5" font-family="Helvetica,sans-Serif" font-size="10.00">com.tomoparts.tomoBay.model.data</text>
<text text-anchor="middle" x="471.5" y="-138.5" font-family="Helvetica,sans-Serif" font-size="10.00">Types.order.Order.invoiceNo</text>
</a>
</g>
</g>
<!-- Node3&#45;&gt;Node4 -->
<g id="edge3" class="edge"><title>Node3&#45;&gt;Node4</title>
<path fill="none" stroke="midnightblue" d="M316.84,-130.755C332.362,-132.345 348.302,-133.979 363.765,-135.563"/>
<polygon fill="midnightblue" stroke="midnightblue" points="363.543,-139.059 373.848,-136.596 364.257,-132.095 363.543,-139.059"/>
</g>
<!-- Node7 -->
<g id="node7" class="node"><title>Node7</title>
<g id="a_node7"><a xlink:href="classcom_1_1tomoparts_1_1tomoBay_1_1model_1_1dataTypes_1_1financial_1_1SalesOrderDayBook_1_1AbstractSalesDayBookLine.html#afacf6217c7f58a049b532205066da488" target="_top" xlink:title="retrieve the order that this AbstractSalesDayBookLine refers to. ">
<polygon fill="white" stroke="black" points="374,-71 374,-112 569,-112 569,-71 374,-71"/>
<text text-anchor="start" x="382" y="-100" font-family="Helvetica,sans-Serif" font-size="10.00">com.tomoparts.tomoBay.model.data</text>
<text text-anchor="start" x="382" y="-89" font-family="Helvetica,sans-Serif" font-size="10.00">Types.financial.SalesOrderDayBook.</text>
<text text-anchor="middle" x="471.5" y="-78" font-family="Helvetica,sans-Serif" font-size="10.00">AbstractSalesDayBookLine.orderInfo</text>
</a>
</g>
</g>
<!-- Node3&#45;&gt;Node7 -->
<g id="edge6" class="edge"><title>Node3&#45;&gt;Node7</title>
<path fill="none" stroke="midnightblue" d="M316.84,-107.828C332.362,-106.179 348.302,-104.485 363.765,-102.842"/>
<polygon fill="midnightblue" stroke="midnightblue" points="364.274,-106.308 373.848,-101.77 363.534,-99.3468 364.274,-106.308"/>
</g>
<!-- Node5 -->
<g id="node5" class="node"><title>Node5</title>
<g id="a_node5"><a xlink:href="classcom_1_1tomoparts_1_1tomoBay_1_1model_1_1dataTypes_1_1heteroTypeContainer_1_1HeteroFieldContainer.html#a988363ab964d6dc0ccb8560bef5895b6" target="_top" xlink:title="retrieve the the value of an AbstractField from this HeteroFieldContainer, the field should be of the...">
<polygon fill="white" stroke="black" points="605,-126 605,-167 811,-167 811,-126 605,-126"/>
<text text-anchor="start" x="613" y="-155" font-family="Helvetica,sans-Serif" font-size="10.00">com.tomoparts.tomoBay.model.data</text>
<text text-anchor="start" x="613" y="-144" font-family="Helvetica,sans-Serif" font-size="10.00">Types.heteroTypeContainer.HeteroField</text>
<text text-anchor="middle" x="708" y="-133" font-family="Helvetica,sans-Serif" font-size="10.00">Container.get</text>
</a>
</g>
</g>
<!-- Node4&#45;&gt;Node5 -->
<g id="edge4" class="edge"><title>Node4&#45;&gt;Node5</title>
<path fill="none" stroke="midnightblue" d="M569.234,-146.5C577.667,-146.5 586.247,-146.5 594.79,-146.5"/>
<polygon fill="midnightblue" stroke="midnightblue" points="594.792,-150 604.792,-146.5 594.792,-143 594.792,-150"/>
</g>
<!-- Node6 -->
<g id="node6" class="node"><title>Node6</title>
<g id="a_node6"><a xlink:href="classcom_1_1tomoparts_1_1tomoBay_1_1model_1_1dataTypes_1_1heteroTypeContainer_1_1HeteroFieldContainer.html#a9dee3c01eb5ab16203e1c6820a569484" target="_top" xlink:title="performs a type check, assuming that field and type are of the same type then this method returns tru...">
<polygon fill="white" stroke="black" points="847,-126 847,-167 1053,-167 1053,-126 847,-126"/>
<text text-anchor="start" x="855" y="-155" font-family="Helvetica,sans-Serif" font-size="10.00">com.tomoparts.tomoBay.model.data</text>
<text text-anchor="start" x="855" y="-144" font-family="Helvetica,sans-Serif" font-size="10.00">Types.heteroTypeContainer.HeteroField</text>
<text text-anchor="middle" x="950" y="-133" font-family="Helvetica,sans-Serif" font-size="10.00">Container.isSameType</text>
</a>
</g>
</g>
<!-- Node5&#45;&gt;Node6 -->
<g id="edge5" class="edge"><title>Node5&#45;&gt;Node6</title>
<path fill="none" stroke="midnightblue" d="M811.13,-146.5C819.658,-146.5 828.309,-146.5 836.906,-146.5"/>
<polygon fill="midnightblue" stroke="midnightblue" points="836.962,-150 846.962,-146.5 836.962,-143 836.962,-150"/>
</g>
</g>
</svg>
