<?xml version="1.0" encoding="UTF-8" standalone="no"?>
<!DOCTYPE svg PUBLIC "-//W3C//DTD SVG 1.1//EN"
 "http://www.w3.org/Graphics/SVG/1.1/DTD/svg11.dtd">
<!-- Generated by graphviz version 2.38.0 (20140413.2041)
 -->
<!-- Title: AbstractSelectParamsQuery Pages: 1 -->
<svg width="213pt" height="427pt"
 viewBox="0.00 0.00 212.50 427.00" xmlns="http://www.w3.org/2000/svg" xmlns:xlink="http://www.w3.org/1999/xlink">
<g id="graph0" class="graph" transform="scale(1 1) rotate(0) translate(4 423)">
<title>AbstractSelectParamsQuery</title>
<polygon fill="white" stroke="none" points="-4,4 -4,-423 208.5,-423 208.5,4 -4,4"/>
<!-- Node1 -->
<g id="node1" class="node"><title>Node1</title>
<polygon fill="#bfbfbf" stroke="black" points="5,-0.5 5,-90.5 176,-90.5 176,-0.5 5,-0.5"/>
<text text-anchor="middle" x="90.5" y="-78.5" font-family="Helvetica,sans-Serif" font-size="10.00">AbstractSelectParamsQuery</text>
<polyline fill="none" stroke="black" points="5,-71.5 176,-71.5 "/>
<text text-anchor="middle" x="90.5" y="-59.5" font-family="Helvetica,sans-Serif" font-size="10.00"> </text>
<polyline fill="none" stroke="black" points="5,-52.5 176,-52.5 "/>
<text text-anchor="start" x="13" y="-40.5" font-family="Helvetica,sans-Serif" font-size="10.00">+ AbstractSelectParamsQuery()</text>
<text text-anchor="start" x="13" y="-29.5" font-family="Helvetica,sans-Serif" font-size="10.00">+ execute()</text>
<text text-anchor="start" x="13" y="-18.5" font-family="Helvetica,sans-Serif" font-size="10.00"># setParameters()</text>
<text text-anchor="start" x="13" y="-7.5" font-family="Helvetica,sans-Serif" font-size="10.00">&#45; initQuery()</text>
</g>
<!-- Node2 -->
<g id="node2" class="node"><title>Node2</title>
<g id="a_node2"><a xlink:href="classcom_1_1tomoparts_1_1tomoBay_1_1model_1_1sql_1_1framework_1_1queryTypes_1_1select_1_1AbstractSelectQuery.html" target="_top" xlink:title="{AbstractSelectQuery\n||+ AbstractSelectQuery()\l# format()\l}">
<polygon fill="white" stroke="black" points="23.5,-128.5 23.5,-196.5 157.5,-196.5 157.5,-128.5 23.5,-128.5"/>
<text text-anchor="middle" x="90.5" y="-184.5" font-family="Helvetica,sans-Serif" font-size="10.00">AbstractSelectQuery</text>
<polyline fill="none" stroke="black" points="23.5,-177.5 157.5,-177.5 "/>
<text text-anchor="middle" x="90.5" y="-165.5" font-family="Helvetica,sans-Serif" font-size="10.00"> </text>
<polyline fill="none" stroke="black" points="23.5,-158.5 157.5,-158.5 "/>
<text text-anchor="start" x="31.5" y="-146.5" font-family="Helvetica,sans-Serif" font-size="10.00">+ AbstractSelectQuery()</text>
<text text-anchor="start" x="31.5" y="-135.5" font-family="Helvetica,sans-Serif" font-size="10.00"># format()</text>
</a>
</g>
</g>
<!-- Node2&#45;&gt;Node1 -->
<g id="edge1" class="edge"><title>Node2&#45;&gt;Node1</title>
<path fill="none" stroke="midnightblue" d="M90.5,-118.055C90.5,-109.146 90.5,-99.7573 90.5,-90.8181"/>
<polygon fill="none" stroke="midnightblue" points="87.0001,-118.237 90.5,-128.237 94.0001,-118.237 87.0001,-118.237"/>
</g>
<!-- Node3 -->
<g id="node3" class="node"><title>Node3</title>
<g id="a_node3"><a xlink:href="classcom_1_1tomoparts_1_1tomoBay_1_1model_1_1sql_1_1framework_1_1queryTypes_1_1AbstractDBQuery.html" target="_top" xlink:title="Interface that all database queries must adhere to. ">
<polygon fill="white" stroke="black" points="40.5,-234.5 40.5,-313.5 140.5,-313.5 140.5,-234.5 40.5,-234.5"/>
<text text-anchor="middle" x="90.5" y="-301.5" font-family="Helvetica,sans-Serif" font-size="10.00">AbstractDBQuery</text>
<polyline fill="none" stroke="black" points="40.5,-294.5 140.5,-294.5 "/>
<text text-anchor="middle" x="90.5" y="-282.5" font-family="Helvetica,sans-Serif" font-size="10.00"> </text>
<polyline fill="none" stroke="black" points="40.5,-275.5 140.5,-275.5 "/>
<text text-anchor="start" x="48.5" y="-263.5" font-family="Helvetica,sans-Serif" font-size="10.00">+ statement()</text>
<text text-anchor="start" x="48.5" y="-252.5" font-family="Helvetica,sans-Serif" font-size="10.00"># queryString()</text>
<text text-anchor="start" x="48.5" y="-241.5" font-family="Helvetica,sans-Serif" font-size="10.00"># cleanup()</text>
</a>
</g>
</g>
<!-- Node3&#45;&gt;Node2 -->
<g id="edge2" class="edge"><title>Node3&#45;&gt;Node2</title>
<path fill="none" stroke="midnightblue" d="M90.5,-224.381C90.5,-215.016 90.5,-205.409 90.5,-196.674"/>
<polygon fill="none" stroke="midnightblue" points="87.0001,-224.394 90.5,-234.394 94.0001,-224.394 87.0001,-224.394"/>
</g>
<!-- Node4 -->
<g id="node4" class="node"><title>Node4</title>
<polygon fill="white" stroke="#bfbfbf" points="0,-361.5 0,-418.5 71,-418.5 71,-361.5 0,-361.5"/>
<text text-anchor="middle" x="35.5" y="-406.5" font-family="Helvetica,sans-Serif" font-size="10.00">Connection</text>
<polyline fill="none" stroke="#bfbfbf" points="0,-399.5 71,-399.5 "/>
<text text-anchor="middle" x="35.5" y="-387.5" font-family="Helvetica,sans-Serif" font-size="10.00"> </text>
<polyline fill="none" stroke="#bfbfbf" points="0,-380.5 71,-380.5 "/>
<text text-anchor="middle" x="35.5" y="-368.5" font-family="Helvetica,sans-Serif" font-size="10.00"> </text>
</g>
<!-- Node4&#45;&gt;Node3 -->
<g id="edge3" class="edge"><title>Node4&#45;&gt;Node3</title>
<path fill="none" stroke="#404040" d="M37.5838,-361.223C39.0189,-351.659 41.4353,-341.078 45.5,-332 46.7398,-329.231 48.1441,-326.479 49.671,-323.765"/>
<polygon fill="none" stroke="#404040" points="49.7101,-323.703 49.5049,-316.495 56.0796,-313.533 56.2849,-320.741 49.7101,-323.703"/>
<text text-anchor="middle" x="84.5" y="-335" font-family="Helvetica,sans-Serif" font-size="10.00"> #connection_M</text>
</g>
<!-- Node5 -->
<g id="node5" class="node"><title>Node5</title>
<polygon fill="white" stroke="#bfbfbf" points="89.5,-361.5 89.5,-418.5 201.5,-418.5 201.5,-361.5 89.5,-361.5"/>
<text text-anchor="middle" x="145.5" y="-406.5" font-family="Helvetica,sans-Serif" font-size="10.00">PreparedStatement</text>
<polyline fill="none" stroke="#bfbfbf" points="89.5,-399.5 201.5,-399.5 "/>
<text text-anchor="middle" x="145.5" y="-387.5" font-family="Helvetica,sans-Serif" font-size="10.00"> </text>
<polyline fill="none" stroke="#bfbfbf" points="89.5,-380.5 201.5,-380.5 "/>
<text text-anchor="middle" x="145.5" y="-368.5" font-family="Helvetica,sans-Serif" font-size="10.00"> </text>
</g>
<!-- Node5&#45;&gt;Node3 -->
<g id="edge4" class="edge"><title>Node5&#45;&gt;Node3</title>
<path fill="none" stroke="#404040" d="M135.834,-361.378C132.266,-351.926 127.989,-341.376 123.5,-332 122.271,-329.433 120.969,-326.826 119.619,-324.212"/>
<polygon fill="none" stroke="#404040" points="119.547,-324.077 113.185,-320.681 113.873,-313.503 120.235,-316.899 119.547,-324.077"/>
<text text-anchor="middle" x="166.5" y="-335" font-family="Helvetica,sans-Serif" font-size="10.00"> #statement_M</text>
</g>
</g>
</svg>
