<?xml version="1.0" encoding="UTF-8" standalone="no"?>
<!DOCTYPE svg PUBLIC "-//W3C//DTD SVG 1.1//EN"
 "http://www.w3.org/Graphics/SVG/1.1/DTD/svg11.dtd">
<!-- Generated by graphviz version 2.38.0 (20140413.2041)
 -->
<!-- Title: format Pages: 1 -->
<svg width="613pt" height="50pt"
 viewBox="0.00 0.00 613.00 50.00" xmlns="http://www.w3.org/2000/svg" xmlns:xlink="http://www.w3.org/1999/xlink">
<g id="graph0" class="graph" transform="scale(1 1) rotate(0) translate(4 46)">
<title>format</title>
<polygon fill="white" stroke="none" points="-4,4 -4,-46 609,-46 609,4 -4,4"/>
<!-- Node1 -->
<g id="node1" class="node"><title>Node1</title>
<polygon fill="#bfbfbf" stroke="black" points="0,-11.5 0,-30.5 49,-30.5 49,-11.5 0,-11.5"/>
<text text-anchor="middle" x="24.5" y="-18.5" font-family="Helvetica,sans-Serif" font-size="10.00">format</text>
</g>
<!-- Node2 -->
<g id="node2" class="node"><title>Node2</title>
<g id="a_node2"><a xlink:href="classcom_1_1tomoparts_1_1tomoBay_1_1presenters_1_1presenterActions_1_1concreteActions_1_1InvoiceOrders.html#a78298d20dc15b33bf695c69785741a68" target="_top" xlink:title="formats the AbstractSalesDayBookLine into a format that can be passed to the WinstockCommandInvoker. ">
<polygon fill="white" stroke="black" points="85,-0.5 85,-41.5 327,-41.5 327,-0.5 85,-0.5"/>
<text text-anchor="start" x="93" y="-29.5" font-family="Helvetica,sans-Serif" font-size="10.00">com.tomoparts.tomoBay.presenters.presenter</text>
<text text-anchor="start" x="93" y="-18.5" font-family="Helvetica,sans-Serif" font-size="10.00">Actions.concreteActions.InvoiceOrders.format</text>
<text text-anchor="middle" x="206" y="-7.5" font-family="Helvetica,sans-Serif" font-size="10.00">AsDualList</text>
</a>
</g>
</g>
<!-- Node1&#45;&gt;Node2 -->
<g id="edge1" class="edge"><title>Node1&#45;&gt;Node2</title>
<path fill="none" stroke="midnightblue" d="M59.5582,-21C67.2452,-21 75.8335,-21 84.8892,-21"/>
<polygon fill="midnightblue" stroke="midnightblue" points="59.3362,-17.5001 49.3362,-21 59.3362,-24.5001 59.3362,-17.5001"/>
</g>
<!-- Node3 -->
<g id="node3" class="node"><title>Node3</title>
<g id="a_node3"><a xlink:href="classcom_1_1tomoparts_1_1tomoBay_1_1presenters_1_1presenterActions_1_1concreteActions_1_1InvoiceOrders.html#adb3dedf31dc2c7fc796f20406c235ccd" target="_top" xlink:title="performs the action specified ">
<polygon fill="white" stroke="black" points="363,-6 363,-36 605,-36 605,-6 363,-6"/>
<text text-anchor="start" x="371" y="-24" font-family="Helvetica,sans-Serif" font-size="10.00">com.tomoparts.tomoBay.presenters.presenter</text>
<text text-anchor="middle" x="484" y="-13" font-family="Helvetica,sans-Serif" font-size="10.00">Actions.concreteActions.InvoiceOrders.execute</text>
</a>
</g>
</g>
<!-- Node2&#45;&gt;Node3 -->
<g id="edge2" class="edge"><title>Node2&#45;&gt;Node3</title>
<path fill="none" stroke="midnightblue" d="M337.494,-21C345.91,-21 354.364,-21 362.73,-21"/>
<polygon fill="midnightblue" stroke="midnightblue" points="337.255,-17.5001 327.255,-21 337.255,-24.5001 337.255,-17.5001"/>
</g>
</g>
</svg>
