<?xml version="1.0" encoding="UTF-8" standalone="no"?>
<!DOCTYPE svg PUBLIC "-//W3C//DTD SVG 1.1//EN"
 "http://www.w3.org/Graphics/SVG/1.1/DTD/svg11.dtd">
<!-- Generated by graphviz version 2.38.0 (20140413.2041)
 -->
<!-- Title: OrdersCall Pages: 1 -->
<svg width="289pt" height="88pt"
 viewBox="0.00 0.00 289.00 88.00" xmlns="http://www.w3.org/2000/svg" xmlns:xlink="http://www.w3.org/1999/xlink">
<g id="graph0" class="graph" transform="scale(1 1) rotate(0) translate(4 84)">
<title>OrdersCall</title>
<polygon fill="white" stroke="none" points="-4,4 -4,-84 285,-84 285,4 -4,4"/>
<!-- Node1 -->
<g id="node1" class="node"><title>Node1</title>
<polygon fill="#bfbfbf" stroke="black" points="0,-30 0,-49 66,-49 66,-30 0,-30"/>
<text text-anchor="middle" x="33" y="-37" font-family="Helvetica,sans-Serif" font-size="10.00">OrdersCall</text>
</g>
<!-- Node2 -->
<g id="node2" class="node"><title>Node2</title>
<g id="a_node2"><a xlink:href="classcom_1_1tomoparts_1_1tomoBay_1_1model_1_1eBayAPI_1_1APIcontext.html#a2ffa8b387d0db2f1192c42e5d37386e5" target="_top" xlink:title="used for getting an ApiContext object that can then be passed to individual API calls. ">
<polygon fill="white" stroke="black" points="102,-49.5 102,-79.5 281,-79.5 281,-49.5 102,-49.5"/>
<text text-anchor="start" x="110" y="-67.5" font-family="Helvetica,sans-Serif" font-size="10.00">com.tomoparts.tomoBay.model.e</text>
<text text-anchor="middle" x="191.5" y="-56.5" font-family="Helvetica,sans-Serif" font-size="10.00">BayAPI.APIcontext.apiContext</text>
</a>
</g>
</g>
<!-- Node1&#45;&gt;Node2 -->
<g id="edge1" class="edge"><title>Node1&#45;&gt;Node2</title>
<path fill="none" stroke="midnightblue" d="M66.0478,-44.6195C73.8628,-45.8679 82.6357,-47.2693 91.8118,-48.7351"/>
<polygon fill="midnightblue" stroke="midnightblue" points="91.4739,-52.2254 101.901,-50.3468 92.5782,-45.3131 91.4739,-52.2254"/>
</g>
<!-- Node3 -->
<g id="node3" class="node"><title>Node3</title>
<g id="a_node3"><a xlink:href="classcom_1_1tomoparts_1_1tomoBay_1_1model_1_1eBayAPI_1_1APIcontext.html#a8992e1a212bc23facdb69618e2615466" target="_top" xlink:title="Used instead of constructor for getting an APIcontext instance. ">
<polygon fill="white" stroke="black" points="102,-0.5 102,-30.5 281,-30.5 281,-0.5 102,-0.5"/>
<text text-anchor="start" x="110" y="-18.5" font-family="Helvetica,sans-Serif" font-size="10.00">com.tomoparts.tomoBay.model.e</text>
<text text-anchor="middle" x="191.5" y="-7.5" font-family="Helvetica,sans-Serif" font-size="10.00">BayAPI.APIcontext.instance</text>
</a>
</g>
</g>
<!-- Node1&#45;&gt;Node3 -->
<g id="edge2" class="edge"><title>Node1&#45;&gt;Node3</title>
<path fill="none" stroke="midnightblue" d="M66.0478,-34.5853C73.8628,-33.3869 82.6357,-32.0415 91.8118,-30.6343"/>
<polygon fill="midnightblue" stroke="midnightblue" points="92.547,-34.0626 101.901,-29.0871 91.4859,-27.1434 92.547,-34.0626"/>
</g>
</g>
</svg>
