<?xml version="1.0" encoding="UTF-8" standalone="no"?>
<!DOCTYPE svg PUBLIC "-//W3C//DTD SVG 1.1//EN"
 "http://www.w3.org/Graphics/SVG/1.1/DTD/svg11.dtd">
<!-- Generated by graphviz version 2.38.0 (20140413.2041)
 -->
<!-- Title: AbstractSelectQuery Pages: 1 -->
<svg width="213pt" height="299pt"
 viewBox="0.00 0.00 212.50 299.00" xmlns="http://www.w3.org/2000/svg" xmlns:xlink="http://www.w3.org/1999/xlink">
<g id="graph0" class="graph" transform="scale(1 1) rotate(0) translate(4 295)">
<title>AbstractSelectQuery</title>
<polygon fill="white" stroke="none" points="-4,4 -4,-295 208.5,-295 208.5,4 -4,4"/>
<!-- Node1 -->
<g id="node1" class="node"><title>Node1</title>
<polygon fill="#bfbfbf" stroke="black" points="23.5,-0.5 23.5,-68.5 157.5,-68.5 157.5,-0.5 23.5,-0.5"/>
<text text-anchor="middle" x="90.5" y="-56.5" font-family="Helvetica,sans-Serif" font-size="10.00">AbstractSelectQuery</text>
<polyline fill="none" stroke="black" points="23.5,-49.5 157.5,-49.5 "/>
<text text-anchor="middle" x="90.5" y="-37.5" font-family="Helvetica,sans-Serif" font-size="10.00"> </text>
<polyline fill="none" stroke="black" points="23.5,-30.5 157.5,-30.5 "/>
<text text-anchor="start" x="31.5" y="-18.5" font-family="Helvetica,sans-Serif" font-size="10.00">+ AbstractSelectQuery()</text>
<text text-anchor="start" x="31.5" y="-7.5" font-family="Helvetica,sans-Serif" font-size="10.00"># format()</text>
</g>
<!-- Node2 -->
<g id="node2" class="node"><title>Node2</title>
<g id="a_node2"><a xlink:href="classcom_1_1tomoparts_1_1tomoBay_1_1model_1_1sql_1_1framework_1_1queryTypes_1_1AbstractDBQuery.html" target="_top" xlink:title="Interface that all database queries must adhere to. ">
<polygon fill="white" stroke="black" points="40.5,-106.5 40.5,-185.5 140.5,-185.5 140.5,-106.5 40.5,-106.5"/>
<text text-anchor="middle" x="90.5" y="-173.5" font-family="Helvetica,sans-Serif" font-size="10.00">AbstractDBQuery</text>
<polyline fill="none" stroke="black" points="40.5,-166.5 140.5,-166.5 "/>
<text text-anchor="middle" x="90.5" y="-154.5" font-family="Helvetica,sans-Serif" font-size="10.00"> </text>
<polyline fill="none" stroke="black" points="40.5,-147.5 140.5,-147.5 "/>
<text text-anchor="start" x="48.5" y="-135.5" font-family="Helvetica,sans-Serif" font-size="10.00">+ statement()</text>
<text text-anchor="start" x="48.5" y="-124.5" font-family="Helvetica,sans-Serif" font-size="10.00"># queryString()</text>
<text text-anchor="start" x="48.5" y="-113.5" font-family="Helvetica,sans-Serif" font-size="10.00"># cleanup()</text>
</a>
</g>
</g>
<!-- Node2&#45;&gt;Node1 -->
<g id="edge1" class="edge"><title>Node2&#45;&gt;Node1</title>
<path fill="none" stroke="midnightblue" d="M90.5,-96.3805C90.5,-87.0158 90.5,-77.4088 90.5,-68.674"/>
<polygon fill="none" stroke="midnightblue" points="87.0001,-96.3944 90.5,-106.394 94.0001,-96.3944 87.0001,-96.3944"/>
</g>
<!-- Node3 -->
<g id="node3" class="node"><title>Node3</title>
<polygon fill="white" stroke="#bfbfbf" points="0,-233.5 0,-290.5 71,-290.5 71,-233.5 0,-233.5"/>
<text text-anchor="middle" x="35.5" y="-278.5" font-family="Helvetica,sans-Serif" font-size="10.00">Connection</text>
<polyline fill="none" stroke="#bfbfbf" points="0,-271.5 71,-271.5 "/>
<text text-anchor="middle" x="35.5" y="-259.5" font-family="Helvetica,sans-Serif" font-size="10.00"> </text>
<polyline fill="none" stroke="#bfbfbf" points="0,-252.5 71,-252.5 "/>
<text text-anchor="middle" x="35.5" y="-240.5" font-family="Helvetica,sans-Serif" font-size="10.00"> </text>
</g>
<!-- Node3&#45;&gt;Node2 -->
<g id="edge2" class="edge"><title>Node3&#45;&gt;Node2</title>
<path fill="none" stroke="#404040" d="M37.5838,-233.223C39.0189,-223.659 41.4353,-213.078 45.5,-204 46.7398,-201.231 48.1441,-198.479 49.671,-195.765"/>
<polygon fill="none" stroke="#404040" points="49.7101,-195.703 49.5049,-188.495 56.0796,-185.533 56.2849,-192.741 49.7101,-195.703"/>
<text text-anchor="middle" x="84.5" y="-207" font-family="Helvetica,sans-Serif" font-size="10.00"> #connection_M</text>
</g>
<!-- Node4 -->
<g id="node4" class="node"><title>Node4</title>
<polygon fill="white" stroke="#bfbfbf" points="89.5,-233.5 89.5,-290.5 201.5,-290.5 201.5,-233.5 89.5,-233.5"/>
<text text-anchor="middle" x="145.5" y="-278.5" font-family="Helvetica,sans-Serif" font-size="10.00">PreparedStatement</text>
<polyline fill="none" stroke="#bfbfbf" points="89.5,-271.5 201.5,-271.5 "/>
<text text-anchor="middle" x="145.5" y="-259.5" font-family="Helvetica,sans-Serif" font-size="10.00"> </text>
<polyline fill="none" stroke="#bfbfbf" points="89.5,-252.5 201.5,-252.5 "/>
<text text-anchor="middle" x="145.5" y="-240.5" font-family="Helvetica,sans-Serif" font-size="10.00"> </text>
</g>
<!-- Node4&#45;&gt;Node2 -->
<g id="edge3" class="edge"><title>Node4&#45;&gt;Node2</title>
<path fill="none" stroke="#404040" d="M135.834,-233.378C132.266,-223.926 127.989,-213.376 123.5,-204 122.271,-201.433 120.969,-198.826 119.619,-196.212"/>
<polygon fill="none" stroke="#404040" points="119.547,-196.077 113.185,-192.681 113.873,-185.503 120.235,-188.899 119.547,-196.077"/>
<text text-anchor="middle" x="166.5" y="-207" font-family="Helvetica,sans-Serif" font-size="10.00"> #statement_M</text>
</g>
</g>
</svg>
