<?xml version="1.0" encoding="UTF-8" standalone="no"?>
<!DOCTYPE svg PUBLIC "-//W3C//DTD SVG 1.1//EN"
 "http://www.w3.org/Graphics/SVG/1.1/DTD/svg11.dtd">
<!-- Generated by graphviz version 2.38.0 (20140413.2041)
 -->
<!-- Title: processDBdata Pages: 1 -->
<svg width="329pt" height="137pt"
 viewBox="0.00 0.00 329.00 137.00" xmlns="http://www.w3.org/2000/svg" xmlns:xlink="http://www.w3.org/1999/xlink">
<g id="graph0" class="graph" transform="scale(1 1) rotate(0) translate(4 133)">
<title>processDBdata</title>
<polygon fill="white" stroke="none" points="-4,4 -4,-133 325,-133 325,4 -4,4"/>
<!-- Node1 -->
<g id="node1" class="node"><title>Node1</title>
<polygon fill="#bfbfbf" stroke="black" points="0,-55 0,-74 90,-74 90,-55 0,-55"/>
<text text-anchor="middle" x="45" y="-62" font-family="Helvetica,sans-Serif" font-size="10.00">processDBdata</text>
</g>
<!-- Node2 -->
<g id="node2" class="node"><title>Node2</title>
<g id="a_node2"><a xlink:href="classcom_1_1tomoparts_1_1tomoBay_1_1model_1_1dataTypes_1_1PartList.html#ab743beefffd4d159c3b91639caee92da" target="_top" xlink:title="get the part number at position i in the list ">
<polygon fill="white" stroke="black" points="126,-98.5 126,-128.5 321,-128.5 321,-98.5 126,-98.5"/>
<text text-anchor="start" x="134" y="-116.5" font-family="Helvetica,sans-Serif" font-size="10.00">com.tomoparts.tomoBay.model.data</text>
<text text-anchor="middle" x="223.5" y="-105.5" font-family="Helvetica,sans-Serif" font-size="10.00">Types.PartList.getPartNumber</text>
</a>
</g>
</g>
<!-- Node1&#45;&gt;Node2 -->
<g id="edge1" class="edge"><title>Node1&#45;&gt;Node2</title>
<path fill="none" stroke="midnightblue" d="M75.1342,-74.0593C90.2471,-78.9023 109.047,-84.7473 126,-89.5 133.741,-91.67 141.858,-93.8447 149.96,-95.9505"/>
<polygon fill="midnightblue" stroke="midnightblue" points="149.25,-99.3819 159.807,-98.4801 150.992,-92.602 149.25,-99.3819"/>
</g>
<!-- Node3 -->
<g id="node3" class="node"><title>Node3</title>
<g id="a_node3"><a xlink:href="classcom_1_1tomoparts_1_1tomoBay_1_1model_1_1dataTypes_1_1PartList.html#a5bebcb62b6ffa7676eacf169f0bfe603" target="_top" xlink:title="get the quantity of the part number at position i in the list ">
<polygon fill="white" stroke="black" points="126,-49.5 126,-79.5 321,-79.5 321,-49.5 126,-49.5"/>
<text text-anchor="start" x="134" y="-67.5" font-family="Helvetica,sans-Serif" font-size="10.00">com.tomoparts.tomoBay.model.data</text>
<text text-anchor="middle" x="223.5" y="-56.5" font-family="Helvetica,sans-Serif" font-size="10.00">Types.PartList.getPartQty</text>
</a>
</g>
</g>
<!-- Node1&#45;&gt;Node3 -->
<g id="edge2" class="edge"><title>Node1&#45;&gt;Node3</title>
<path fill="none" stroke="midnightblue" d="M90.0831,-64.5C98.0952,-64.5 106.762,-64.5 115.694,-64.5"/>
<polygon fill="midnightblue" stroke="midnightblue" points="115.871,-68.0001 125.871,-64.5 115.871,-61.0001 115.871,-68.0001"/>
</g>
<!-- Node4 -->
<g id="node4" class="node"><title>Node4</title>
<g id="a_node4"><a xlink:href="classcom_1_1tomoparts_1_1tomoBay_1_1model_1_1dataTypes_1_1PartList.html#af4b57d21919c42d55af03391f91a1c08" target="_top" xlink:title="the size of the part list. ">
<polygon fill="white" stroke="black" points="126,-0.5 126,-30.5 321,-30.5 321,-0.5 126,-0.5"/>
<text text-anchor="start" x="134" y="-18.5" font-family="Helvetica,sans-Serif" font-size="10.00">com.tomoparts.tomoBay.model.data</text>
<text text-anchor="middle" x="223.5" y="-7.5" font-family="Helvetica,sans-Serif" font-size="10.00">Types.PartList.size</text>
</a>
</g>
</g>
<!-- Node1&#45;&gt;Node4 -->
<g id="edge3" class="edge"><title>Node1&#45;&gt;Node4</title>
<path fill="none" stroke="midnightblue" d="M76.6921,-54.995C91.546,-50.4711 109.66,-45.0657 126,-40.5 134.752,-38.0545 143.974,-35.5604 153.104,-33.1406"/>
<polygon fill="midnightblue" stroke="midnightblue" points="154.169,-36.4796 162.949,-30.5498 152.387,-29.7101 154.169,-36.4796"/>
</g>
</g>
</svg>
