<?xml version="1.0" encoding="UTF-8" standalone="no"?>
<!DOCTYPE svg PUBLIC "-//W3C//DTD SVG 1.1//EN"
 "http://www.w3.org/Graphics/SVG/1.1/DTD/svg11.dtd">
<!-- Generated by graphviz version 2.38.0 (20140413.2041)
 -->
<!-- Title: getDate Pages: 1 -->
<svg width="548pt" height="88pt"
 viewBox="0.00 0.00 548.00 88.00" xmlns="http://www.w3.org/2000/svg" xmlns:xlink="http://www.w3.org/1999/xlink">
<g id="graph0" class="graph" transform="scale(1 1) rotate(0) translate(4 84)">
<title>getDate</title>
<polygon fill="white" stroke="none" points="-4,4 -4,-84 544,-84 544,4 -4,4"/>
<!-- Node1 -->
<g id="node1" class="node"><title>Node1</title>
<polygon fill="#bfbfbf" stroke="black" points="0,-30 0,-49 56,-49 56,-30 0,-30"/>
<text text-anchor="middle" x="28" y="-37" font-family="Helvetica,sans-Serif" font-size="10.00">getDate</text>
</g>
<!-- Node2 -->
<g id="node2" class="node"><title>Node2</title>
<g id="a_node2"><a xlink:href="classcom_1_1tomoparts_1_1tomoBay_1_1helpers_1_1checkTime_1_1CheckTime.html#a225d1db0a963fb1f5633a532c55cf856" target="_top" xlink:title="if before the start time for today returns yesterdays date otherwise returns todays date...">
<polygon fill="white" stroke="black" points="92,-24.5 92,-54.5 298,-54.5 298,-24.5 92,-24.5"/>
<text text-anchor="start" x="100" y="-42.5" font-family="Helvetica,sans-Serif" font-size="10.00">com.tomoparts.tomoBay.helpers.check</text>
<text text-anchor="middle" x="195" y="-31.5" font-family="Helvetica,sans-Serif" font-size="10.00">Time.CheckTime.OutOfHoursDate</text>
</a>
</g>
</g>
<!-- Node1&#45;&gt;Node2 -->
<g id="edge1" class="edge"><title>Node1&#45;&gt;Node2</title>
<path fill="none" stroke="midnightblue" d="M56.2464,-39.5C63.7749,-39.5 72.4396,-39.5 81.6811,-39.5"/>
<polygon fill="midnightblue" stroke="midnightblue" points="81.909,-43.0001 91.909,-39.5 81.909,-36.0001 81.909,-43.0001"/>
</g>
<!-- Node3 -->
<g id="node3" class="node"><title>Node3</title>
<g id="a_node3"><a xlink:href="classcom_1_1tomoparts_1_1tomoBay_1_1helpers_1_1checkTime_1_1CheckTime.html#af394562cb305633b3bbf2c09a3fb1fc6" target="_top" xlink:title="queries the current day ">
<polygon fill="white" stroke="black" points="334,-49.5 334,-79.5 540,-79.5 540,-49.5 334,-49.5"/>
<text text-anchor="start" x="342" y="-67.5" font-family="Helvetica,sans-Serif" font-size="10.00">com.tomoparts.tomoBay.helpers.check</text>
<text text-anchor="middle" x="437" y="-56.5" font-family="Helvetica,sans-Serif" font-size="10.00">Time.CheckTime.currentDay</text>
</a>
</g>
</g>
<!-- Node2&#45;&gt;Node3 -->
<g id="edge2" class="edge"><title>Node2&#45;&gt;Node3</title>
<path fill="none" stroke="midnightblue" d="M298.13,-50.1385C306.658,-51.0268 315.309,-51.928 323.906,-52.8235"/>
<polygon fill="midnightblue" stroke="midnightblue" points="323.653,-56.3161 333.962,-53.8711 324.379,-49.3537 323.653,-56.3161"/>
</g>
<!-- Node4 -->
<g id="node4" class="node"><title>Node4</title>
<g id="a_node4"><a xlink:href="classcom_1_1tomoparts_1_1tomoBay_1_1helpers_1_1checkTime_1_1CheckTime.html#a7f5f1b75867f0102f330c328973abad9" target="_top" xlink:title="queries the current time ">
<polygon fill="white" stroke="black" points="334,-0.5 334,-30.5 540,-30.5 540,-0.5 334,-0.5"/>
<text text-anchor="start" x="342" y="-18.5" font-family="Helvetica,sans-Serif" font-size="10.00">com.tomoparts.tomoBay.helpers.check</text>
<text text-anchor="middle" x="437" y="-7.5" font-family="Helvetica,sans-Serif" font-size="10.00">Time.CheckTime.currentTime</text>
</a>
</g>
</g>
<!-- Node2&#45;&gt;Node4 -->
<g id="edge3" class="edge"><title>Node2&#45;&gt;Node4</title>
<path fill="none" stroke="midnightblue" d="M298.13,-29.287C306.658,-28.4342 315.309,-27.5691 323.906,-26.7094"/>
<polygon fill="midnightblue" stroke="midnightblue" points="324.36,-30.1815 333.962,-25.7038 323.663,-23.2163 324.36,-30.1815"/>
</g>
</g>
</svg>
