<?xml version="1.0" encoding="UTF-8" standalone="no"?>
<!DOCTYPE svg PUBLIC "-//W3C//DTD SVG 1.1//EN"
 "http://www.w3.org/Graphics/SVG/1.1/DTD/svg11.dtd">
<!-- Generated by graphviz version 2.38.0 (20140413.2041)
 -->
<!-- Title: addRow Pages: 1 -->
<svg width="359pt" height="258pt"
 viewBox="0.00 0.00 359.00 257.50" xmlns="http://www.w3.org/2000/svg" xmlns:xlink="http://www.w3.org/1999/xlink">
<g id="graph0" class="graph" transform="scale(1 1) rotate(0) translate(4 253.5)">
<title>addRow</title>
<polygon fill="white" stroke="none" points="-4,4 -4,-253.5 355,-253.5 355,4 -4,4"/>
<!-- Node1 -->
<g id="node1" class="node"><title>Node1</title>
<polygon fill="#bfbfbf" stroke="black" points="0,-126.5 0,-145.5 53,-145.5 53,-126.5 0,-126.5"/>
<text text-anchor="middle" x="26.5" y="-133.5" font-family="Helvetica,sans-Serif" font-size="10.00">addRow</text>
</g>
<!-- Node2 -->
<g id="node2" class="node"><title>Node2</title>
<g id="a_node2"><a xlink:href="classcom_1_1tomoparts_1_1tomoBay_1_1test_1_1unit_1_1model_1_1royalMail_1_1RoyalMailCSVGeneratorTest.html#a66e66076494011bb61c1f78024b4527c" target="_top" xlink:title="com.tomoparts.tomoBay.test.unit.model.royal\lMail.RoyalMailCSVGeneratorTest.testAddRow">
<polygon fill="white" stroke="black" points="100.5,-219 100.5,-249 339.5,-249 339.5,-219 100.5,-219"/>
<text text-anchor="start" x="108.5" y="-237" font-family="Helvetica,sans-Serif" font-size="10.00">com.tomoparts.tomoBay.test.unit.model.royal</text>
<text text-anchor="middle" x="220" y="-226" font-family="Helvetica,sans-Serif" font-size="10.00">Mail.RoyalMailCSVGeneratorTest.testAddRow</text>
</a>
</g>
</g>
<!-- Node1&#45;&gt;Node2 -->
<g id="edge1" class="edge"><title>Node1&#45;&gt;Node2</title>
<path fill="none" stroke="midnightblue" d="M37.7946,-154.641C48.3312,-171.864 66.3487,-196.729 89,-210 94.8417,-213.423 101.063,-216.375 107.5,-218.92"/>
<polygon fill="midnightblue" stroke="midnightblue" points="40.5403,-152.402 32.4769,-145.529 34.4945,-155.93 40.5403,-152.402"/>
</g>
<!-- Node3 -->
<g id="node3" class="node"><title>Node3</title>
<g id="a_node3"><a xlink:href="classcom_1_1tomoparts_1_1tomoBay_1_1test_1_1unit_1_1model_1_1royalMail_1_1RoyalMailCSVGeneratorTest.html#a1036d4ad1717e3668e1b92b56dbf09df" target="_top" xlink:title="com.tomoparts.tomoBay.test.unit.model.royal\lMail.RoyalMailCSVGeneratorTest.testGenerate">
<polygon fill="white" stroke="black" points="100.5,-170 100.5,-200 339.5,-200 339.5,-170 100.5,-170"/>
<text text-anchor="start" x="108.5" y="-188" font-family="Helvetica,sans-Serif" font-size="10.00">com.tomoparts.tomoBay.test.unit.model.royal</text>
<text text-anchor="middle" x="220" y="-177" font-family="Helvetica,sans-Serif" font-size="10.00">Mail.RoyalMailCSVGeneratorTest.testGenerate</text>
</a>
</g>
</g>
<!-- Node1&#45;&gt;Node3 -->
<g id="edge2" class="edge"><title>Node1&#45;&gt;Node3</title>
<path fill="none" stroke="midnightblue" d="M57.3295,-149.55C67.2528,-153.672 78.4627,-157.92 89,-161 100.455,-164.348 112.621,-167.326 124.735,-169.946"/>
<polygon fill="midnightblue" stroke="midnightblue" points="58.4784,-146.235 47.9077,-145.519 55.7247,-152.67 58.4784,-146.235"/>
</g>
<!-- Node4 -->
<g id="node4" class="node"><title>Node4</title>
<g id="a_node4"><a xlink:href="classcom_1_1tomoparts_1_1tomoBay_1_1test_1_1unit_1_1model_1_1royalMail_1_1RoyalMailCSVGeneratorTest.html#a4f16e86bb3ba3d0c933b524c43a83bea" target="_top" xlink:title="com.tomoparts.tomoBay.test.unit.model.royal\lMail.RoyalMailCSVGeneratorTest.testSetseparators">
<polygon fill="white" stroke="black" points="89,-121 89,-151 351,-151 351,-121 89,-121"/>
<text text-anchor="start" x="97" y="-139" font-family="Helvetica,sans-Serif" font-size="10.00">com.tomoparts.tomoBay.test.unit.model.royal</text>
<text text-anchor="middle" x="220" y="-128" font-family="Helvetica,sans-Serif" font-size="10.00">Mail.RoyalMailCSVGeneratorTest.testSetseparators</text>
</a>
</g>
</g>
<!-- Node1&#45;&gt;Node4 -->
<g id="edge3" class="edge"><title>Node1&#45;&gt;Node4</title>
<path fill="none" stroke="midnightblue" d="M63.5899,-136C71.28,-136 79.8237,-136 88.8366,-136"/>
<polygon fill="midnightblue" stroke="midnightblue" points="63.3266,-132.5 53.3265,-136 63.3265,-139.5 63.3266,-132.5"/>
</g>
<!-- Node5 -->
<g id="node5" class="node"><title>Node5</title>
<g id="a_node5"><a xlink:href="classcom_1_1tomoparts_1_1tomoBay_1_1test_1_1unit_1_1model_1_1royalMail_1_1RoyalMailCSVGeneratorTest.html#a228f0f1aaa740933e1ee5526464b0d4e" target="_top" xlink:title="com.tomoparts.tomoBay.test.unit.model.royal\lMail.RoyalMailCSVGeneratorTest.testToString\lBadInput">
<polygon fill="white" stroke="black" points="100.5,-60.5 100.5,-101.5 339.5,-101.5 339.5,-60.5 100.5,-60.5"/>
<text text-anchor="start" x="108.5" y="-89.5" font-family="Helvetica,sans-Serif" font-size="10.00">com.tomoparts.tomoBay.test.unit.model.royal</text>
<text text-anchor="start" x="108.5" y="-78.5" font-family="Helvetica,sans-Serif" font-size="10.00">Mail.RoyalMailCSVGeneratorTest.testToString</text>
<text text-anchor="middle" x="220" y="-67.5" font-family="Helvetica,sans-Serif" font-size="10.00">BadInput</text>
</a>
</g>
</g>
<!-- Node1&#45;&gt;Node5 -->
<g id="edge4" class="edge"><title>Node1&#45;&gt;Node5</title>
<path fill="none" stroke="midnightblue" d="M59.1844,-122.672C68.6767,-118.942 79.1763,-115.072 89,-112 100.847,-108.295 113.421,-104.785 125.899,-101.55"/>
<polygon fill="midnightblue" stroke="midnightblue" points="57.703,-119.495 49.7274,-126.47 60.3115,-125.991 57.703,-119.495"/>
</g>
<!-- Node6 -->
<g id="node6" class="node"><title>Node6</title>
<g id="a_node6"><a xlink:href="classcom_1_1tomoparts_1_1tomoBay_1_1test_1_1unit_1_1model_1_1royalMail_1_1RoyalMailCSVGeneratorTest.html#aa785bc5cc98af5c4ec7210ac0e314af4" target="_top" xlink:title="com.tomoparts.tomoBay.test.unit.model.royal\lMail.RoyalMailCSVGeneratorTest.testToString\lGoodInput">
<polygon fill="white" stroke="black" points="100.5,-0.5 100.5,-41.5 339.5,-41.5 339.5,-0.5 100.5,-0.5"/>
<text text-anchor="start" x="108.5" y="-29.5" font-family="Helvetica,sans-Serif" font-size="10.00">com.tomoparts.tomoBay.test.unit.model.royal</text>
<text text-anchor="start" x="108.5" y="-18.5" font-family="Helvetica,sans-Serif" font-size="10.00">Mail.RoyalMailCSVGeneratorTest.testToString</text>
<text text-anchor="middle" x="220" y="-7.5" font-family="Helvetica,sans-Serif" font-size="10.00">GoodInput</text>
</a>
</g>
</g>
<!-- Node1&#45;&gt;Node6 -->
<g id="edge5" class="edge"><title>Node1&#45;&gt;Node6</title>
<path fill="none" stroke="midnightblue" d="M36.0649,-117.174C45.979,-97.5669 64.1818,-67.4604 89,-51 94.3083,-47.4793 99.9763,-44.3689 105.865,-41.6211"/>
<polygon fill="midnightblue" stroke="midnightblue" points="32.8347,-115.815 31.6448,-126.343 39.1402,-118.855 32.8347,-115.815"/>
</g>
</g>
</svg>
