<?xml version="1.0" encoding="UTF-8" standalone="no"?>
<!DOCTYPE svg PUBLIC "-//W3C//DTD SVG 1.1//EN"
 "http://www.w3.org/Graphics/SVG/1.1/DTD/svg11.dtd">
<!-- Generated by graphviz version 2.38.0 (20140413.2041)
 -->
<!-- Title: PickeableStatus Pages: 1 -->
<svg width="199pt" height="314pt"
 viewBox="0.00 0.00 199.00 314.00" xmlns="http://www.w3.org/2000/svg" xmlns:xlink="http://www.w3.org/1999/xlink">
<g id="graph0" class="graph" transform="scale(1 1) rotate(0) translate(4 310)">
<title>PickeableStatus</title>
<polygon fill="white" stroke="none" points="-4,4 -4,-310 195,-310 195,4 -4,4"/>
<!-- Node1 -->
<g id="node1" class="node"><title>Node1</title>
<polygon fill="#bfbfbf" stroke="black" points="14,-0.5 14,-178.5 177,-178.5 177,-0.5 14,-0.5"/>
<text text-anchor="middle" x="95.5" y="-166.5" font-family="Helvetica,sans-Serif" font-size="10.00">PickeableStatus</text>
<polyline fill="none" stroke="black" points="14,-159.5 177,-159.5 "/>
<text text-anchor="start" x="22" y="-147.5" font-family="Helvetica,sans-Serif" font-size="10.00">+ ERROR</text>
<text text-anchor="start" x="22" y="-136.5" font-family="Helvetica,sans-Serif" font-size="10.00">+ PICKEABLE</text>
<text text-anchor="start" x="22" y="-125.5" font-family="Helvetica,sans-Serif" font-size="10.00">+ PARTIAL</text>
<text text-anchor="start" x="22" y="-114.5" font-family="Helvetica,sans-Serif" font-size="10.00">+ UNPICKEABLE</text>
<text text-anchor="start" x="22" y="-103.5" font-family="Helvetica,sans-Serif" font-size="10.00">+ PICKEABLE_PROCESSING</text>
<text text-anchor="start" x="22" y="-92.5" font-family="Helvetica,sans-Serif" font-size="10.00">+ PARTIAL_PROCESSING</text>
<text text-anchor="start" x="22" y="-81.5" font-family="Helvetica,sans-Serif" font-size="10.00">+ UNPICKEABLE_PROCESSING</text>
<text text-anchor="start" x="22" y="-70.5" font-family="Helvetica,sans-Serif" font-size="10.00">&#45; status_M</text>
<text text-anchor="start" x="22" y="-59.5" font-family="Helvetica,sans-Serif" font-size="10.00">&#45; size</text>
<polyline fill="none" stroke="black" points="14,-52.5 177,-52.5 "/>
<text text-anchor="start" x="22" y="-40.5" font-family="Helvetica,sans-Serif" font-size="10.00">+ getStatusCode()</text>
<text text-anchor="start" x="22" y="-29.5" font-family="Helvetica,sans-Serif" font-size="10.00">+ fromInt()</text>
<text text-anchor="start" x="22" y="-18.5" font-family="Helvetica,sans-Serif" font-size="10.00">+ size()</text>
<text text-anchor="start" x="22" y="-7.5" font-family="Helvetica,sans-Serif" font-size="10.00">&#45; PickeableStatus()</text>
</g>
<!-- Node2 -->
<g id="node2" class="node"><title>Node2</title>
<polygon fill="white" stroke="#bfbfbf" points="0,-226.5 0,-305.5 191,-305.5 191,-226.5 0,-226.5"/>
<text text-anchor="start" x="8" y="-293.5" font-family="Helvetica,sans-Serif" font-size="10.00">Map&lt; Integer, com.tomoparts.tomo</text>
<text text-anchor="start" x="8" y="-282.5" font-family="Helvetica,sans-Serif" font-size="10.00">Bay.presenters.helpers.pickeability.</text>
<text text-anchor="middle" x="95.5" y="-271.5" font-family="Helvetica,sans-Serif" font-size="10.00">PickeableStatus &gt;</text>
<polyline fill="none" stroke="#bfbfbf" points="0,-264.5 191,-264.5 "/>
<text text-anchor="middle" x="95.5" y="-252.5" font-family="Helvetica,sans-Serif" font-size="10.00"> </text>
<polyline fill="none" stroke="#bfbfbf" points="0,-245.5 191,-245.5 "/>
<text text-anchor="middle" x="95.5" y="-233.5" font-family="Helvetica,sans-Serif" font-size="10.00"> </text>
</g>
<!-- Node2&#45;&gt;Node1 -->
<g id="edge1" class="edge"><title>Node2&#45;&gt;Node1</title>
<path fill="none" stroke="#404040" d="M95.5,-226.273C95.5,-215.544 95.5,-203.38 95.5,-190.847"/>
<polygon fill="none" stroke="#404040" points="95.5001,-190.752 91.5,-184.753 95.5,-178.752 99.5,-184.752 95.5001,-190.752"/>
<text text-anchor="middle" x="123" y="-200" font-family="Helvetica,sans-Serif" font-size="10.00"> &#45;fromInt_M</text>
</g>
</g>
</svg>
