<?xml version="1.0" encoding="UTF-8" standalone="no"?>
<!DOCTYPE svg PUBLIC "-//W3C//DTD SVG 1.1//EN"
 "http://www.w3.org/Graphics/SVG/1.1/DTD/svg11.dtd">
<!-- Generated by graphviz version 2.38.0 (20140413.2041)
 -->
<!-- Title: ResultCodes Pages: 1 -->
<svg width="199pt" height="281pt"
 viewBox="0.00 0.00 199.00 281.00" xmlns="http://www.w3.org/2000/svg" xmlns:xlink="http://www.w3.org/1999/xlink">
<g id="graph0" class="graph" transform="scale(1 1) rotate(0) translate(4 277)">
<title>ResultCodes</title>
<polygon fill="white" stroke="none" points="-4,4 -4,-277 195,-277 195,4 -4,4"/>
<!-- Node1 -->
<g id="node1" class="node"><title>Node1</title>
<polygon fill="#bfbfbf" stroke="black" points="33,-0.5 33,-145.5 158,-145.5 158,-0.5 33,-0.5"/>
<text text-anchor="middle" x="95.5" y="-133.5" font-family="Helvetica,sans-Serif" font-size="10.00">ResultCodes</text>
<polyline fill="none" stroke="black" points="33,-126.5 158,-126.5 "/>
<text text-anchor="start" x="41" y="-114.5" font-family="Helvetica,sans-Serif" font-size="10.00">+ SUCCESS</text>
<text text-anchor="start" x="41" y="-103.5" font-family="Helvetica,sans-Serif" font-size="10.00">+ TERMINATOR_ERROR</text>
<text text-anchor="start" x="41" y="-92.5" font-family="Helvetica,sans-Serif" font-size="10.00">+ INVOICING_ERROR</text>
<text text-anchor="start" x="41" y="-81.5" font-family="Helvetica,sans-Serif" font-size="10.00">+ ERROR_SYNTAX</text>
<text text-anchor="start" x="41" y="-70.5" font-family="Helvetica,sans-Serif" font-size="10.00">+ SYNTAX_ERROR</text>
<text text-anchor="start" x="41" y="-59.5" font-family="Helvetica,sans-Serif" font-size="10.00">+ PRINTING_ERROR</text>
<text text-anchor="start" x="41" y="-48.5" font-family="Helvetica,sans-Serif" font-size="10.00">&#45; codes_M</text>
<polyline fill="none" stroke="black" points="33,-41.5 158,-41.5 "/>
<text text-anchor="start" x="41" y="-29.5" font-family="Helvetica,sans-Serif" font-size="10.00">+ [static initializer]()</text>
<text text-anchor="start" x="41" y="-18.5" font-family="Helvetica,sans-Serif" font-size="10.00">+ forValue()</text>
<text text-anchor="start" x="41" y="-7.5" font-family="Helvetica,sans-Serif" font-size="10.00">&#45; ResultCodes()</text>
</g>
<!-- Node2 -->
<g id="node2" class="node"><title>Node2</title>
<polygon fill="white" stroke="#bfbfbf" points="0,-193.5 0,-272.5 191,-272.5 191,-193.5 0,-193.5"/>
<text text-anchor="start" x="8" y="-260.5" font-family="Helvetica,sans-Serif" font-size="10.00">Map&lt; Integer, com.tomoparts.tomo</text>
<text text-anchor="start" x="8" y="-249.5" font-family="Helvetica,sans-Serif" font-size="10.00">Bay.model.winstock.response.Result</text>
<text text-anchor="middle" x="95.5" y="-238.5" font-family="Helvetica,sans-Serif" font-size="10.00">Codes &gt;</text>
<polyline fill="none" stroke="#bfbfbf" points="0,-231.5 191,-231.5 "/>
<text text-anchor="middle" x="95.5" y="-219.5" font-family="Helvetica,sans-Serif" font-size="10.00"> </text>
<polyline fill="none" stroke="#bfbfbf" points="0,-212.5 191,-212.5 "/>
<text text-anchor="middle" x="95.5" y="-200.5" font-family="Helvetica,sans-Serif" font-size="10.00"> </text>
</g>
<!-- Node2&#45;&gt;Node1 -->
<g id="edge1" class="edge"><title>Node2&#45;&gt;Node1</title>
<path fill="none" stroke="#404040" d="M95.5,-193.349C95.5,-182.523 95.5,-170.315 95.5,-157.945"/>
<polygon fill="none" stroke="#404040" points="95.5001,-157.566 91.5,-151.566 95.5,-145.566 99.5,-151.566 95.5001,-157.566"/>
<text text-anchor="middle" x="133" y="-167" font-family="Helvetica,sans-Serif" font-size="10.00"> &#45;codesByValue</text>
</g>
</g>
</svg>
