<?xml version="1.0" encoding="UTF-8" standalone="no"?>
<!DOCTYPE svg PUBLIC "-//W3C//DTD SVG 1.1//EN"
 "http://www.w3.org/Graphics/SVG/1.1/DTD/svg11.dtd">
<!-- Generated by graphviz version 2.38.0 (20140413.2041)
 -->
<!-- Title: Graphical Class Hierarchy Pages: 1 -->
<svg width="248pt" height="66pt"
 viewBox="0.00 0.00 248.00 66.00" xmlns="http://www.w3.org/2000/svg" xmlns:xlink="http://www.w3.org/1999/xlink">
<g id="graph0" class="graph" transform="scale(1 1) rotate(0) translate(4 62)">
<title>Graphical Class Hierarchy</title>
<polygon fill="white" stroke="none" points="-4,4 -4,-62 244,-62 244,4 -4,4"/>
<!-- Node1 -->
<g id="node1" class="node"><title>Node1</title>
<g id="a_node1"><a xlink:href="classcom_1_1tomoparts_1_1tomoBay_1_1model_1_1winstock_1_1payloads_1_1AbstractPayload.html" target="_top" xlink:title="This is the abstract base class for all Payload sub types. ">
<polygon fill="white" stroke="black" points="0,-19.5 0,-38.5 95,-38.5 95,-19.5 0,-19.5"/>
<text text-anchor="middle" x="47.5" y="-26.5" font-family="Helvetica,sans-Serif" font-size="10.00">AbstractPayload</text>
</a>
</g>
</g>
<!-- Node2 -->
<g id="node2" class="node"><title>Node2</title>
<g id="a_node2"><a xlink:href="classcom_1_1tomoparts_1_1tomoBay_1_1model_1_1winstock_1_1payloads_1_1PrintInvoicePayload.html" target="_top" xlink:title="This class converts data into a byte[] payload that can be used passed to a ClientSocket object...">
<polygon fill="white" stroke="black" points="131,-38.5 131,-57.5 240,-57.5 240,-38.5 131,-38.5"/>
<text text-anchor="middle" x="185.5" y="-45.5" font-family="Helvetica,sans-Serif" font-size="10.00">PrintInvoicePayload</text>
</a>
</g>
</g>
<!-- Node1&#45;&gt;Node2 -->
<g id="edge1" class="edge"><title>Node1&#45;&gt;Node2</title>
<path fill="none" stroke="midnightblue" d="M105.35,-36.9423C113.709,-38.1101 122.299,-39.3102 130.597,-40.4694"/>
<polygon fill="midnightblue" stroke="midnightblue" points="105.692,-33.4561 95.3035,-35.5387 104.723,-40.3888 105.692,-33.4561"/>
</g>
<!-- Node3 -->
<g id="node3" class="node"><title>Node3</title>
<g id="a_node3"><a xlink:href="classcom_1_1tomoparts_1_1tomoBay_1_1model_1_1winstock_1_1payloads_1_1PutInvoicePayload.html" target="_top" xlink:title="PutInvoiceMessage DataType Label Notes &#160;byte[4] Header &quot;WSC0&quot; byte Type 34 byte Company 0=ford...">
<polygon fill="white" stroke="black" points="134,-0.5 134,-19.5 237,-19.5 237,-0.5 134,-0.5"/>
<text text-anchor="middle" x="185.5" y="-7.5" font-family="Helvetica,sans-Serif" font-size="10.00">PutInvoicePayload</text>
</a>
</g>
</g>
<!-- Node1&#45;&gt;Node3 -->
<g id="edge2" class="edge"><title>Node1&#45;&gt;Node3</title>
<path fill="none" stroke="midnightblue" d="M105.41,-21.0494C114.862,-19.7288 124.609,-18.3671 133.892,-17.0703"/>
<polygon fill="midnightblue" stroke="midnightblue" points="104.723,-17.6112 95.3035,-22.4613 105.692,-24.5439 104.723,-17.6112"/>
</g>
</g>
</svg>
