<?xml version="1.0" encoding="UTF-8" standalone="no"?>
<!DOCTYPE svg PUBLIC "-//W3C//DTD SVG 1.1//EN"
 "http://www.w3.org/Graphics/SVG/1.1/DTD/svg11.dtd">
<!-- Generated by graphviz version 2.38.0 (20140413.2041)
 -->
<!-- Title: Graphical Class Hierarchy Pages: 1 -->
<svg width="374pt" height="496pt"
 viewBox="0.00 0.00 374.00 496.00" xmlns="http://www.w3.org/2000/svg" xmlns:xlink="http://www.w3.org/1999/xlink">
<g id="graph0" class="graph" transform="scale(1 1) rotate(0) translate(4 492)">
<title>Graphical Class Hierarchy</title>
<polygon fill="white" stroke="none" points="-4,4 -4,-492 370,-492 370,4 -4,4"/>
<!-- Node1 -->
<g id="node1" class="node"><title>Node1</title>
<g id="a_node1"><a xlink:href="interfacecom_1_1tomoparts_1_1tomoBay_1_1presenters_1_1presenterActions_1_1factories_1_1AbstractPresenterActionFactory.html" target="_top" xlink:title="the interface all factories that create AbstractPresenterAction objects should inherit from...">
<polygon fill="white" stroke="black" points="0,-240.5 0,-259.5 169,-259.5 169,-240.5 0,-240.5"/>
<text text-anchor="middle" x="84.5" y="-247.5" font-family="Helvetica,sans-Serif" font-size="10.00">AbstractPresenterActionFactory</text>
</a>
</g>
</g>
<!-- Node2 -->
<g id="node2" class="node"><title>Node2</title>
<g id="a_node2"><a xlink:href="classcom_1_1tomoparts_1_1tomoBay_1_1presenters_1_1presenterActions_1_1factories_1_1BuyerDetailsFactory.html" target="_top" xlink:title="Copyright(C) 2015 Jan P.C. ">
<polygon fill="white" stroke="black" points="229,-468.5 229,-487.5 342,-487.5 342,-468.5 229,-468.5"/>
<text text-anchor="middle" x="285.5" y="-475.5" font-family="Helvetica,sans-Serif" font-size="10.00">BuyerDetailsFactory</text>
</a>
</g>
</g>
<!-- Node1&#45;&gt;Node2 -->
<g id="edge1" class="edge"><title>Node1&#45;&gt;Node2</title>
<path fill="none" stroke="midnightblue" d="M90.8699,-269.504C103.403,-311.212 138.674,-409.308 205,-459 212.041,-464.275 220.335,-468.11 228.862,-470.892"/>
<polygon fill="midnightblue" stroke="midnightblue" points="94.189,-268.382 88.0488,-259.748 87.4646,-270.327 94.189,-268.382"/>
</g>
<!-- Node3 -->
<g id="node3" class="node"><title>Node3</title>
<g id="a_node3"><a xlink:href="classcom_1_1tomoparts_1_1tomoBay_1_1presenters_1_1presenterActions_1_1factories_1_1BuyerListFactory.html" target="_top" xlink:title="Copyright(C) 2015 Jan P.C. ">
<polygon fill="white" stroke="black" points="237.5,-430.5 237.5,-449.5 333.5,-449.5 333.5,-430.5 237.5,-430.5"/>
<text text-anchor="middle" x="285.5" y="-437.5" font-family="Helvetica,sans-Serif" font-size="10.00">BuyerListFactory</text>
</a>
</g>
</g>
<!-- Node1&#45;&gt;Node3 -->
<g id="edge2" class="edge"><title>Node1&#45;&gt;Node3</title>
<path fill="none" stroke="midnightblue" d="M93.1626,-268.85C108.659,-304.484 147.232,-381.672 205,-421 214.502,-427.469 225.949,-431.746 237.161,-434.571"/>
<polygon fill="midnightblue" stroke="midnightblue" points="96.3664,-267.44 89.2521,-259.589 89.9176,-270.163 96.3664,-267.44"/>
</g>
<!-- Node4 -->
<g id="node4" class="node"><title>Node4</title>
<g id="a_node4"><a xlink:href="classcom_1_1tomoparts_1_1tomoBay_1_1presenters_1_1presenterActions_1_1factories_1_1GenerateRoyalMailCSVFactory.html" target="_top" xlink:title="Copyright(C) 2015 Jan P.C. ">
<polygon fill="white" stroke="black" points="205,-392.5 205,-411.5 366,-411.5 366,-392.5 205,-392.5"/>
<text text-anchor="middle" x="285.5" y="-399.5" font-family="Helvetica,sans-Serif" font-size="10.00">GenerateRoyalMailCSVFactory</text>
</a>
</g>
</g>
<!-- Node1&#45;&gt;Node4 -->
<g id="edge3" class="edge"><title>Node1&#45;&gt;Node4</title>
<path fill="none" stroke="midnightblue" d="M96.8376,-268.628C115.577,-297.755 155.866,-353.768 205,-383 211.586,-386.918 218.93,-390.029 226.421,-392.498"/>
<polygon fill="midnightblue" stroke="midnightblue" points="99.611,-266.463 91.3271,-259.858 93.684,-270.188 99.611,-266.463"/>
</g>
<!-- Node5 -->
<g id="node5" class="node"><title>Node5</title>
<g id="a_node5"><a xlink:href="classcom_1_1tomoparts_1_1tomoBay_1_1presenters_1_1presenterActions_1_1factories_1_1InvoiceOrdersFactory.html" target="_top" xlink:title="Copyright(C) 2015 Jan P.C. ">
<polygon fill="white" stroke="black" points="227,-354.5 227,-373.5 344,-373.5 344,-354.5 227,-354.5"/>
<text text-anchor="middle" x="285.5" y="-361.5" font-family="Helvetica,sans-Serif" font-size="10.00">InvoiceOrdersFactory</text>
</a>
</g>
</g>
<!-- Node1&#45;&gt;Node5 -->
<g id="edge4" class="edge"><title>Node1&#45;&gt;Node5</title>
<path fill="none" stroke="midnightblue" d="M101.788,-266.904C123.384,-288.317 163.616,-324.849 205,-345 212.91,-348.852 221.652,-351.952 230.359,-354.439"/>
<polygon fill="midnightblue" stroke="midnightblue" points="104.231,-264.397 94.7067,-259.757 99.2589,-269.324 104.231,-264.397"/>
</g>
<!-- Node6 -->
<g id="node6" class="node"><title>Node6</title>
<g id="a_node6"><a xlink:href="classcom_1_1tomoparts_1_1tomoBay_1_1presenters_1_1presenterActions_1_1factories_1_1LogFileViewerFactory.html" target="_top" xlink:title="factory that creates a LogFileViewer object ">
<polygon fill="white" stroke="black" points="227.5,-316.5 227.5,-335.5 343.5,-335.5 343.5,-316.5 227.5,-316.5"/>
<text text-anchor="middle" x="285.5" y="-323.5" font-family="Helvetica,sans-Serif" font-size="10.00">LogFileViewerFactory</text>
</a>
</g>
</g>
<!-- Node1&#45;&gt;Node6 -->
<g id="edge5" class="edge"><title>Node1&#45;&gt;Node6</title>
<path fill="none" stroke="midnightblue" d="M111.898,-264.581C135.668,-277.224 171.858,-295.283 205,-307 215.302,-310.642 226.599,-313.812 237.36,-316.465"/>
<polygon fill="midnightblue" stroke="midnightblue" points="113.285,-261.353 102.821,-259.695 109.967,-267.517 113.285,-261.353"/>
</g>
<!-- Node7 -->
<g id="node7" class="node"><title>Node7</title>
<g id="a_node7"><a xlink:href="classcom_1_1tomoparts_1_1tomoBay_1_1presenters_1_1presenterActions_1_1factories_1_1MarkAsInvoicedFactory.html" target="_top" xlink:title="MarkAsInvoicedFactory">
<polygon fill="white" stroke="black" points="222.5,-278.5 222.5,-297.5 348.5,-297.5 348.5,-278.5 222.5,-278.5"/>
<text text-anchor="middle" x="285.5" y="-285.5" font-family="Helvetica,sans-Serif" font-size="10.00">MarkAsInvoicedFactory</text>
</a>
</g>
</g>
<!-- Node1&#45;&gt;Node7 -->
<g id="edge6" class="edge"><title>Node1&#45;&gt;Node7</title>
<path fill="none" stroke="midnightblue" d="M145.295,-261.418C173.768,-266.855 207.431,-273.283 234.52,-278.456"/>
<polygon fill="midnightblue" stroke="midnightblue" points="145.938,-257.978 135.459,-259.54 144.625,-264.854 145.938,-257.978"/>
</g>
<!-- Node8 -->
<g id="node8" class="node"><title>Node8</title>
<g id="a_node8"><a xlink:href="classcom_1_1tomoparts_1_1tomoBay_1_1presenters_1_1presenterActions_1_1factories_1_1MarkAsUninvoicedFactory.html" target="_top" xlink:title="this is a factory that creates MarkAsUninvoiced objects ">
<polygon fill="white" stroke="black" points="215.5,-240.5 215.5,-259.5 355.5,-259.5 355.5,-240.5 215.5,-240.5"/>
<text text-anchor="middle" x="285.5" y="-247.5" font-family="Helvetica,sans-Serif" font-size="10.00">MarkAsUninvoicedFactory</text>
</a>
</g>
</g>
<!-- Node1&#45;&gt;Node8 -->
<g id="edge7" class="edge"><title>Node1&#45;&gt;Node8</title>
<path fill="none" stroke="midnightblue" d="M179.21,-250C191.381,-250 203.668,-250 215.34,-250"/>
<polygon fill="midnightblue" stroke="midnightblue" points="179.029,-246.5 169.029,-250 179.029,-253.5 179.029,-246.5"/>
</g>
<!-- Node9 -->
<g id="node9" class="node"><title>Node9</title>
<g id="a_node9"><a xlink:href="classcom_1_1tomoparts_1_1tomoBay_1_1presenters_1_1presenterActions_1_1factories_1_1OrderInfoFactory.html" target="_top" xlink:title="OrderInfoFactory">
<polygon fill="white" stroke="black" points="237.5,-202.5 237.5,-221.5 333.5,-221.5 333.5,-202.5 237.5,-202.5"/>
<text text-anchor="middle" x="285.5" y="-209.5" font-family="Helvetica,sans-Serif" font-size="10.00">OrderInfoFactory</text>
</a>
</g>
</g>
<!-- Node1&#45;&gt;Node9 -->
<g id="edge8" class="edge"><title>Node1&#45;&gt;Node9</title>
<path fill="none" stroke="midnightblue" d="M145.601,-238.523C174.979,-232.914 209.822,-226.26 237.26,-221.021"/>
<polygon fill="midnightblue" stroke="midnightblue" points="144.625,-235.146 135.459,-240.46 145.938,-242.022 144.625,-235.146"/>
</g>
<!-- Node10 -->
<g id="node10" class="node"><title>Node10</title>
<g id="a_node10"><a xlink:href="classcom_1_1tomoparts_1_1tomoBay_1_1presenters_1_1presenterActions_1_1factories_1_1PeriodicServicesControllerFactory.html" target="_top" xlink:title="this is a factory that creates PeriodicServicesController objects ">
<polygon fill="white" stroke="black" points="215,-153 215,-183 356,-183 356,-153 215,-153"/>
<text text-anchor="start" x="223" y="-171" font-family="Helvetica,sans-Serif" font-size="10.00">PeriodicServicesController</text>
<text text-anchor="middle" x="285.5" y="-160" font-family="Helvetica,sans-Serif" font-size="10.00">Factory</text>
</a>
</g>
</g>
<!-- Node1&#45;&gt;Node10 -->
<g id="edge9" class="edge"><title>Node1&#45;&gt;Node10</title>
<path fill="none" stroke="midnightblue" d="M112.937,-235.555C136.848,-223.296 172.665,-205.723 205,-193 213.886,-189.504 223.474,-186.148 232.812,-183.094"/>
<polygon fill="midnightblue" stroke="midnightblue" points="111.048,-232.591 103.772,-240.292 114.262,-238.809 111.048,-232.591"/>
</g>
<!-- Node11 -->
<g id="node11" class="node"><title>Node11</title>
<g id="a_node11"><a xlink:href="classcom_1_1tomoparts_1_1tomoBay_1_1presenters_1_1presenterActions_1_1factories_1_1PrintInvoicesFactory.html" target="_top" xlink:title="Copyright(C) 2015 Jan P.C. ">
<polygon fill="white" stroke="black" points="229.5,-114.5 229.5,-133.5 341.5,-133.5 341.5,-114.5 229.5,-114.5"/>
<text text-anchor="middle" x="285.5" y="-121.5" font-family="Helvetica,sans-Serif" font-size="10.00">PrintInvoicesFactory</text>
</a>
</g>
</g>
<!-- Node1&#45;&gt;Node11 -->
<g id="edge10" class="edge"><title>Node1&#45;&gt;Node11</title>
<path fill="none" stroke="midnightblue" d="M100.134,-232.592C120.98,-208.935 161.541,-166.959 205,-144 213.18,-139.679 222.331,-136.262 231.433,-133.57"/>
<polygon fill="midnightblue" stroke="midnightblue" points="97.2685,-230.555 93.3774,-240.409 102.565,-235.132 97.2685,-230.555"/>
</g>
<!-- Node12 -->
<g id="node12" class="node"><title>Node12</title>
<g id="a_node12"><a xlink:href="classcom_1_1tomoparts_1_1tomoBay_1_1presenters_1_1presenterActions_1_1factories_1_1ReScanBuyerFactory.html" target="_top" xlink:title="Copyright(C) 2015 Jan P.C. ">
<polygon fill="white" stroke="black" points="227.5,-76.5 227.5,-95.5 343.5,-95.5 343.5,-76.5 227.5,-76.5"/>
<text text-anchor="middle" x="285.5" y="-83.5" font-family="Helvetica,sans-Serif" font-size="10.00">ReScanBuyerFactory</text>
</a>
</g>
</g>
<!-- Node1&#45;&gt;Node12 -->
<g id="edge11" class="edge"><title>Node1&#45;&gt;Node12</title>
<path fill="none" stroke="midnightblue" d="M95.3915,-231.461C113.049,-200.243 153.063,-137.421 205,-105 211.741,-100.792 219.337,-97.5156 227.092,-94.9649"/>
<polygon fill="midnightblue" stroke="midnightblue" points="92.2219,-229.961 90.4575,-240.408 98.3515,-233.342 92.2219,-229.961"/>
</g>
<!-- Node13 -->
<g id="node13" class="node"><title>Node13</title>
<g id="a_node13"><a xlink:href="classcom_1_1tomoparts_1_1tomoBay_1_1presenters_1_1presenterActions_1_1factories_1_1ReScanListingFactory.html" target="_top" xlink:title="this is a factory that creates ReScanListing objects ">
<polygon fill="white" stroke="black" points="226,-38.5 226,-57.5 345,-57.5 345,-38.5 226,-38.5"/>
<text text-anchor="middle" x="285.5" y="-45.5" font-family="Helvetica,sans-Serif" font-size="10.00">ReScanListingFactory</text>
</a>
</g>
</g>
<!-- Node1&#45;&gt;Node13 -->
<g id="edge12" class="edge"><title>Node1&#45;&gt;Node13</title>
<path fill="none" stroke="midnightblue" d="M92.5723,-230.375C107.272,-192.503 144.852,-109.349 205,-67 211.266,-62.5884 218.426,-59.1926 225.823,-56.5803"/>
<polygon fill="midnightblue" stroke="midnightblue" points="89.1279,-229.591 88.8884,-240.183 95.6809,-232.053 89.1279,-229.591"/>
</g>
<!-- Node14 -->
<g id="node14" class="node"><title>Node14</title>
<g id="a_node14"><a xlink:href="classcom_1_1tomoparts_1_1tomoBay_1_1presenters_1_1presenterActions_1_1factories_1_1StockReOrderAnalysisFactory.html" target="_top" xlink:title="StockReOrderAnalysisFactory">
<polygon fill="white" stroke="black" points="207,-0.5 207,-19.5 364,-19.5 364,-0.5 207,-0.5"/>
<text text-anchor="middle" x="285.5" y="-7.5" font-family="Helvetica,sans-Serif" font-size="10.00">StockReOrderAnalysisFactory</text>
</a>
</g>
</g>
<!-- Node1&#45;&gt;Node14 -->
<g id="edge13" class="edge"><title>Node1&#45;&gt;Node14</title>
<path fill="none" stroke="midnightblue" d="M90.2861,-230.282C101.921,-186.736 135.94,-82.0299 205,-29 210.065,-25.1108 215.806,-22.0018 221.828,-19.5189"/>
<polygon fill="midnightblue" stroke="midnightblue" points="86.8394,-229.633 87.7483,-240.189 93.6204,-231.37 86.8394,-229.633"/>
</g>
</g>
</svg>
