<?xml version="1.0" encoding="UTF-8" standalone="no"?>
<!DOCTYPE svg PUBLIC "-//W3C//DTD SVG 1.1//EN"
 "http://www.w3.org/Graphics/SVG/1.1/DTD/svg11.dtd">
<!-- Generated by graphviz version 2.38.0 (20140413.2041)
 -->
<!-- Title: Graphical Class Hierarchy Pages: 1 -->
<svg width="434pt" height="142pt"
 viewBox="0.00 0.00 434.00 142.00" xmlns="http://www.w3.org/2000/svg" xmlns:xlink="http://www.w3.org/1999/xlink">
<g id="graph0" class="graph" transform="scale(1 1) rotate(0) translate(4 138)">
<title>Graphical Class Hierarchy</title>
<polygon fill="white" stroke="none" points="-4,4 -4,-138 430,-138 430,4 -4,4"/>
<!-- Node1 -->
<g id="node1" class="node"><title>Node1</title>
<polygon fill="white" stroke="#bfbfbf" points="0,-76.5 0,-95.5 53,-95.5 53,-76.5 0,-76.5"/>
<text text-anchor="middle" x="26.5" y="-83.5" font-family="Helvetica,sans-Serif" font-size="10.00">Iterable</text>
</g>
<!-- Node2 -->
<g id="node2" class="node"><title>Node2</title>
<g id="a_node2"><a xlink:href="classcom_1_1tomoparts_1_1tomoBay_1_1model_1_1dataTypes_1_1DataSetList.html" target="_top" xlink:title="DataSetList\&lt; K, V \&gt;">
<polygon fill="white" stroke="black" points="105,-114.5 105,-133.5 219,-133.5 219,-114.5 105,-114.5"/>
<text text-anchor="middle" x="162" y="-121.5" font-family="Helvetica,sans-Serif" font-size="10.00">DataSetList&lt; K, V &gt;</text>
</a>
</g>
</g>
<!-- Node1&#45;&gt;Node2 -->
<g id="edge1" class="edge"><title>Node1&#45;&gt;Node2</title>
<path fill="none" stroke="midnightblue" d="M62.8526,-97.1978C71.3926,-99.8264 80.506,-102.568 89,-105 100.186,-108.202 112.405,-111.501 123.55,-114.433"/>
<polygon fill="midnightblue" stroke="midnightblue" points="63.7503,-93.8117 53.1622,-94.1895 61.6748,-100.497 63.7503,-93.8117"/>
</g>
<!-- Node3 -->
<g id="node3" class="node"><title>Node3</title>
<g id="a_node3"><a xlink:href="classcom_1_1tomoparts_1_1tomoBay_1_1model_1_1dataTypes_1_1DualList.html" target="_top" xlink:title="A DualList can be seen as two parralel lists of generic type, or alternatively a list containing valu...">
<polygon fill="white" stroke="black" points="107.5,-76.5 107.5,-95.5 216.5,-95.5 216.5,-76.5 107.5,-76.5"/>
<text text-anchor="middle" x="162" y="-83.5" font-family="Helvetica,sans-Serif" font-size="10.00">DualList&lt; V1, V2 &gt;</text>
</a>
</g>
</g>
<!-- Node1&#45;&gt;Node3 -->
<g id="edge2" class="edge"><title>Node1&#45;&gt;Node3</title>
<path fill="none" stroke="midnightblue" d="M63.5486,-86C77.0472,-86 92.6874,-86 107.434,-86"/>
<polygon fill="midnightblue" stroke="midnightblue" points="63.2402,-82.5001 53.2401,-86 63.2401,-89.5001 63.2402,-82.5001"/>
</g>
<!-- Node4 -->
<g id="node4" class="node"><title>Node4</title>
<g id="a_node4"><a xlink:href="classcom_1_1tomoparts_1_1tomoBay_1_1model_1_1dataTypes_1_1financial_1_1SalesOrderDayBook_1_1AbstractSalesDayBookLine.html" target="_top" xlink:title="This class represents an Abstract sales day book entry, i.e. ">
<polygon fill="white" stroke="black" points="89,-38.5 89,-57.5 235,-57.5 235,-38.5 89,-38.5"/>
<text text-anchor="middle" x="162" y="-45.5" font-family="Helvetica,sans-Serif" font-size="10.00">AbstractSalesDayBookLine</text>
</a>
</g>
</g>
<!-- Node1&#45;&gt;Node4 -->
<g id="edge3" class="edge"><title>Node1&#45;&gt;Node4</title>
<path fill="none" stroke="midnightblue" d="M62.8526,-74.8022C71.3926,-72.1736 80.506,-69.4317 89,-67 100.186,-63.7977 112.405,-60.4987 123.55,-57.5668"/>
<polygon fill="midnightblue" stroke="midnightblue" points="61.6748,-71.503 53.1622,-77.8105 63.7503,-78.1883 61.6748,-71.503"/>
</g>
<!-- Node5 -->
<g id="node5" class="node"><title>Node5</title>
<g id="a_node5"><a xlink:href="classcom_1_1tomoparts_1_1tomoBay_1_1model_1_1dataTypes_1_1financial_1_1SalesOrderDayBook_1_1concreteLineTypes_1_1GSPInvoice.html" target="_top" xlink:title="GSPInvoice">
<polygon fill="white" stroke="black" points="313.5,-76.5 313.5,-95.5 383.5,-95.5 383.5,-76.5 313.5,-76.5"/>
<text text-anchor="middle" x="348.5" y="-83.5" font-family="Helvetica,sans-Serif" font-size="10.00">GSPInvoice</text>
</a>
</g>
</g>
<!-- Node4&#45;&gt;Node5 -->
<g id="edge4" class="edge"><title>Node4&#45;&gt;Node5</title>
<path fill="none" stroke="midnightblue" d="M219.698,-59.6777C250.374,-65.9957 287.241,-73.589 313.478,-78.9929"/>
<polygon fill="midnightblue" stroke="midnightblue" points="220.058,-56.1783 209.557,-57.589 218.645,-63.0344 220.058,-56.1783"/>
</g>
<!-- Node6 -->
<g id="node6" class="node"><title>Node6</title>
<g id="a_node6"><a xlink:href="classcom_1_1tomoparts_1_1tomoBay_1_1model_1_1dataTypes_1_1financial_1_1SalesOrderDayBook_1_1conc7e5bfa2ca7d29ae399a076f000f5c217.html" target="_top" xlink:title="This class represents a standard invoice without extra shipping. ">
<polygon fill="white" stroke="black" points="301.5,-38.5 301.5,-57.5 395.5,-57.5 395.5,-38.5 301.5,-38.5"/>
<text text-anchor="middle" x="348.5" y="-45.5" font-family="Helvetica,sans-Serif" font-size="10.00">StandardInvoice</text>
</a>
</g>
</g>
<!-- Node4&#45;&gt;Node6 -->
<g id="edge5" class="edge"><title>Node4&#45;&gt;Node6</title>
<path fill="none" stroke="midnightblue" d="M245.382,-48C264.545,-48 284.282,-48 301.235,-48"/>
<polygon fill="midnightblue" stroke="midnightblue" points="245.125,-44.5001 235.125,-48 245.125,-51.5001 245.125,-44.5001"/>
</g>
<!-- Node7 -->
<g id="node7" class="node"><title>Node7</title>
<g id="a_node7"><a xlink:href="classcom_1_1tomoparts_1_1tomoBay_1_1model_1_1dataTypes_1_1financial_1_1SalesOrderDayBook_1_1conc423d5799d246db2ad40dc7ffc82f40db.html" target="_top" xlink:title="StandardInvoiceWithShipping">
<polygon fill="white" stroke="black" points="271,-0.5 271,-19.5 426,-19.5 426,-0.5 271,-0.5"/>
<text text-anchor="middle" x="348.5" y="-7.5" font-family="Helvetica,sans-Serif" font-size="10.00">StandardInvoiceWithShipping</text>
</a>
</g>
</g>
<!-- Node4&#45;&gt;Node7 -->
<g id="edge6" class="edge"><title>Node4&#45;&gt;Node7</title>
<path fill="none" stroke="midnightblue" d="M219.367,-36.3905C245.607,-30.986 276.436,-24.6365 301.278,-19.5201"/>
<polygon fill="midnightblue" stroke="midnightblue" points="218.645,-32.9656 209.557,-38.411 220.058,-39.8217 218.645,-32.9656"/>
</g>
</g>
</svg>
