<?xml version="1.0" encoding="UTF-8" standalone="no"?>
<!DOCTYPE svg PUBLIC "-//W3C//DTD SVG 1.1//EN"
 "http://www.w3.org/Graphics/SVG/1.1/DTD/svg11.dtd">
<!-- Generated by graphviz version 2.38.0 (20140413.2041)
 -->
<!-- Title: Graphical Class Hierarchy Pages: 1 -->
<svg width="214pt" height="66pt"
 viewBox="0.00 0.00 214.00 66.00" xmlns="http://www.w3.org/2000/svg" xmlns:xlink="http://www.w3.org/1999/xlink">
<g id="graph0" class="graph" transform="scale(1 1) rotate(0) translate(4 62)">
<title>Graphical Class Hierarchy</title>
<polygon fill="white" stroke="none" points="-4,4 -4,-62 210,-62 210,4 -4,4"/>
<!-- Node1 -->
<g id="node1" class="node"><title>Node1</title>
<g id="a_node1"><a xlink:href="classcom_1_1tomoparts_1_1tomoBay_1_1model_1_1dataTypes_1_1json_1_1JSONentity.html" target="_top" xlink:title="This class acts as the abstract base for all derived JSON classes. ">
<polygon fill="white" stroke="black" points="0,-19.5 0,-38.5 68,-38.5 68,-19.5 0,-19.5"/>
<text text-anchor="middle" x="34" y="-26.5" font-family="Helvetica,sans-Serif" font-size="10.00">JSONentity</text>
</a>
</g>
</g>
<!-- Node2 -->
<g id="node2" class="node"><title>Node2</title>
<g id="a_node2"><a xlink:href="classcom_1_1tomoparts_1_1tomoBay_1_1model_1_1dataTypes_1_1json_1_1JSONentity__array.html" target="_top" xlink:title="This class represents a JSON array. ">
<polygon fill="white" stroke="black" points="106,-38.5 106,-57.5 204,-57.5 204,-38.5 106,-38.5"/>
<text text-anchor="middle" x="155" y="-45.5" font-family="Helvetica,sans-Serif" font-size="10.00">JSONentity_array</text>
</a>
</g>
</g>
<!-- Node1&#45;&gt;Node2 -->
<g id="edge1" class="edge"><title>Node1&#45;&gt;Node2</title>
<path fill="none" stroke="midnightblue" d="M78.0707,-35.8768C87.1096,-37.32 96.6973,-38.8508 105.906,-40.3212"/>
<polygon fill="midnightblue" stroke="midnightblue" points="78.5749,-32.4131 68.1481,-34.2926 77.4712,-39.3255 78.5749,-32.4131"/>
</g>
<!-- Node3 -->
<g id="node3" class="node"><title>Node3</title>
<g id="a_node3"><a xlink:href="classcom_1_1tomoparts_1_1tomoBay_1_1model_1_1dataTypes_1_1json_1_1JSONentity__object.html" target="_top" xlink:title="This class represents a general JSON Object. ">
<polygon fill="white" stroke="black" points="104,-0.5 104,-19.5 206,-19.5 206,-0.5 104,-0.5"/>
<text text-anchor="middle" x="155" y="-7.5" font-family="Helvetica,sans-Serif" font-size="10.00">JSONentity_object</text>
</a>
</g>
</g>
<!-- Node1&#45;&gt;Node3 -->
<g id="edge2" class="edge"><title>Node1&#45;&gt;Node3</title>
<path fill="none" stroke="midnightblue" d="M78.2938,-22.0876C86.5347,-20.7718 95.2246,-19.3843 103.663,-18.0371"/>
<polygon fill="midnightblue" stroke="midnightblue" points="77.4712,-18.6745 68.1481,-23.7074 78.5749,-25.5869 77.4712,-18.6745"/>
</g>
</g>
</svg>
