<?xml version="1.0" encoding="UTF-8" standalone="no"?>
<!DOCTYPE svg PUBLIC "-//W3C//DTD SVG 1.1//EN"
 "http://www.w3.org/Graphics/SVG/1.1/DTD/svg11.dtd">
<!-- Generated by graphviz version 2.38.0 (20140413.2041)
 -->
<!-- Title: Graphical Class Hierarchy Pages: 1 -->
<svg width="198pt" height="142pt"
 viewBox="0.00 0.00 198.00 142.00" xmlns="http://www.w3.org/2000/svg" xmlns:xlink="http://www.w3.org/1999/xlink">
<g id="graph0" class="graph" transform="scale(1 1) rotate(0) translate(4 138)">
<title>Graphical Class Hierarchy</title>
<polygon fill="white" stroke="none" points="-4,4 -4,-138 194,-138 194,4 -4,4"/>
<!-- Node1 -->
<g id="node1" class="node"><title>Node1</title>
<g id="a_node1"><a xlink:href="classcom_1_1tomoparts_1_1tomoBay_1_1model_1_1dataTypes_1_1conditionalStatement_1_1Condition.html" target="_top" xlink:title="This Class encapsulates the condition part of the conditional statement. ">
<polygon fill="white" stroke="black" points="0,-57.5 0,-76.5 62,-76.5 62,-57.5 0,-57.5"/>
<text text-anchor="middle" x="31" y="-64.5" font-family="Helvetica,sans-Serif" font-size="10.00">Condition</text>
</a>
</g>
</g>
<!-- Node2 -->
<g id="node2" class="node"><title>Node2</title>
<g id="a_node2"><a xlink:href="classcom_1_1tomoparts_1_1tomoBay_1_1presenters_1_1helpers_1_1pickeability_1_1AllPickeable.html" target="_top" xlink:title="AllPickeable">
<polygon fill="white" stroke="black" points="107.5,-114.5 107.5,-133.5 180.5,-133.5 180.5,-114.5 107.5,-114.5"/>
<text text-anchor="middle" x="144" y="-121.5" font-family="Helvetica,sans-Serif" font-size="10.00">AllPickeable</text>
</a>
</g>
</g>
<!-- Node1&#45;&gt;Node2 -->
<g id="edge1" class="edge"><title>Node1&#45;&gt;Node2</title>
<path fill="none" stroke="midnightblue" d="M56.203,-81.8897C68.5199,-89.2205 83.8453,-97.9702 98,-105 104.684,-108.319 112.09,-111.602 118.932,-114.481"/>
<polygon fill="midnightblue" stroke="midnightblue" points="57.812,-78.7731 47.4398,-76.6124 54.2007,-84.7697 57.812,-78.7731"/>
</g>
<!-- Node3 -->
<g id="node3" class="node"><title>Node3</title>
<g id="a_node3"><a xlink:href="classcom_1_1tomoparts_1_1tomoBay_1_1presenters_1_1helpers_1_1pickeability_1_1Error.html" target="_top" xlink:title="Error">
<polygon fill="white" stroke="black" points="124,-76.5 124,-95.5 164,-95.5 164,-76.5 124,-76.5"/>
<text text-anchor="middle" x="144" y="-83.5" font-family="Helvetica,sans-Serif" font-size="10.00">Error</text>
</a>
</g>
</g>
<!-- Node1&#45;&gt;Node3 -->
<g id="edge2" class="edge"><title>Node1&#45;&gt;Node3</title>
<path fill="none" stroke="midnightblue" d="M72.0873,-73.8618C89.6975,-76.8761 109.556,-80.2754 123.769,-82.7082"/>
<polygon fill="midnightblue" stroke="midnightblue" points="72.4854,-70.3791 62.0382,-72.1417 71.3043,-77.2788 72.4854,-70.3791"/>
</g>
<!-- Node4 -->
<g id="node4" class="node"><title>Node4</title>
<g id="a_node4"><a xlink:href="classcom_1_1tomoparts_1_1tomoBay_1_1presenters_1_1helpers_1_1pickeability_1_1PartialPickeable.html" target="_top" xlink:title="PartialPickeable">
<polygon fill="white" stroke="black" points="98,-38.5 98,-57.5 190,-57.5 190,-38.5 98,-38.5"/>
<text text-anchor="middle" x="144" y="-45.5" font-family="Helvetica,sans-Serif" font-size="10.00">PartialPickeable</text>
</a>
</g>
</g>
<!-- Node1&#45;&gt;Node4 -->
<g id="edge3" class="edge"><title>Node1&#45;&gt;Node4</title>
<path fill="none" stroke="midnightblue" d="M71.9873,-60.1553C80.4016,-58.715 89.3331,-57.1862 97.9196,-55.7165"/>
<polygon fill="midnightblue" stroke="midnightblue" points="71.3043,-56.7212 62.0382,-61.8583 72.4854,-63.6209 71.3043,-56.7212"/>
</g>
<!-- Node5 -->
<g id="node5" class="node"><title>Node5</title>
<g id="a_node5"><a xlink:href="classcom_1_1tomoparts_1_1tomoBay_1_1presenters_1_1helpers_1_1pickeability_1_1UnPickeable.html" target="_top" xlink:title="UnPickeable">
<polygon fill="white" stroke="black" points="106.5,-0.5 106.5,-19.5 181.5,-19.5 181.5,-0.5 106.5,-0.5"/>
<text text-anchor="middle" x="144" y="-7.5" font-family="Helvetica,sans-Serif" font-size="10.00">UnPickeable</text>
</a>
</g>
</g>
<!-- Node1&#45;&gt;Node5 -->
<g id="edge4" class="edge"><title>Node1&#45;&gt;Node5</title>
<path fill="none" stroke="midnightblue" d="M56.203,-52.1103C68.5199,-44.7795 83.8453,-36.0298 98,-29 104.684,-25.6805 112.09,-22.3981 118.932,-19.5194"/>
<polygon fill="midnightblue" stroke="midnightblue" points="54.2007,-49.2303 47.4398,-57.3876 57.812,-55.2269 54.2007,-49.2303"/>
</g>
</g>
</svg>
