<?xml version="1.0" encoding="UTF-8" standalone="no"?>
<!DOCTYPE svg PUBLIC "-//W3C//DTD SVG 1.1//EN"
 "http://www.w3.org/Graphics/SVG/1.1/DTD/svg11.dtd">
<!-- Generated by graphviz version 2.38.0 (20140413.2041)
 -->
<!-- Title: Graphical Class Hierarchy Pages: 1 -->
<svg width="319pt" height="522pt"
 viewBox="0.00 0.00 319.00 522.00" xmlns="http://www.w3.org/2000/svg" xmlns:xlink="http://www.w3.org/1999/xlink">
<g id="graph0" class="graph" transform="scale(1 1) rotate(0) translate(4 518)">
<title>Graphical Class Hierarchy</title>
<polygon fill="white" stroke="none" points="-4,4 -4,-518 315,-518 315,4 -4,4"/>
<!-- Node1 -->
<g id="node1" class="node"><title>Node1</title>
<g id="a_node1"><a xlink:href="interfacecom_1_1tomoparts_1_1tomoBay_1_1presenters_1_1presenterActions_1_1AbstractPresenterAction.html" target="_top" xlink:title="Copyright(C) 2015 Jan P.C. ">
<polygon fill="white" stroke="black" points="0,-247.5 0,-266.5 134,-266.5 134,-247.5 0,-247.5"/>
<text text-anchor="middle" x="67" y="-254.5" font-family="Helvetica,sans-Serif" font-size="10.00">AbstractPresenterAction</text>
</a>
</g>
</g>
<!-- Node2 -->
<g id="node2" class="node"><title>Node2</title>
<g id="a_node2"><a xlink:href="classcom_1_1tomoparts_1_1tomoBay_1_1presenters_1_1presenterActions_1_1concreteActions_1_1BuyerDetails.html" target="_top" xlink:title="Copyright(C) 2015 Jan P.C. ">
<polygon fill="white" stroke="black" points="202,-494.5 202,-513.5 279,-513.5 279,-494.5 202,-494.5"/>
<text text-anchor="middle" x="240.5" y="-501.5" font-family="Helvetica,sans-Serif" font-size="10.00">BuyerDetails</text>
</a>
</g>
</g>
<!-- Node1&#45;&gt;Node2 -->
<g id="edge1" class="edge"><title>Node1&#45;&gt;Node2</title>
<path fill="none" stroke="midnightblue" d="M70.9895,-276.497C78.7956,-320.567 103.965,-428.414 170,-485 178.928,-492.651 190.671,-497.245 201.956,-499.995"/>
<polygon fill="midnightblue" stroke="midnightblue" points="74.4225,-275.804 69.3302,-266.514 67.5173,-276.952 74.4225,-275.804"/>
</g>
<!-- Node3 -->
<g id="node3" class="node"><title>Node3</title>
<g id="a_node3"><a xlink:href="classcom_1_1tomoparts_1_1tomoBay_1_1presenters_1_1presenterActions_1_1concreteActions_1_1BuyerList.html" target="_top" xlink:title="Copyright(C) 2015 Jan P.C. ">
<polygon fill="white" stroke="black" points="210,-456.5 210,-475.5 271,-475.5 271,-456.5 210,-456.5"/>
<text text-anchor="middle" x="240.5" y="-463.5" font-family="Helvetica,sans-Serif" font-size="10.00">BuyerList</text>
</a>
</g>
</g>
<!-- Node1&#45;&gt;Node3 -->
<g id="edge2" class="edge"><title>Node1&#45;&gt;Node3</title>
<path fill="none" stroke="midnightblue" d="M72.9237,-276.611C83.6693,-315.287 112.956,-401.575 170,-447 181.253,-455.961 196.421,-460.705 209.715,-463.213"/>
<polygon fill="midnightblue" stroke="midnightblue" points="76.2238,-275.401 70.2746,-266.634 69.4583,-277.198 76.2238,-275.401"/>
</g>
<!-- Node4 -->
<g id="node4" class="node"><title>Node4</title>
<g id="a_node4"><a xlink:href="classcom_1_1tomoparts_1_1tomoBay_1_1presenters_1_1presenterActions_1_1concreteActions_1_1GenerateRoyalMailCSV.html" target="_top" xlink:title="This class represents a presenter action that will generate a CSV file in a format compatible with th...">
<polygon fill="white" stroke="black" points="177.5,-418.5 177.5,-437.5 303.5,-437.5 303.5,-418.5 177.5,-418.5"/>
<text text-anchor="middle" x="240.5" y="-425.5" font-family="Helvetica,sans-Serif" font-size="10.00">GenerateRoyalMailCSV</text>
</a>
</g>
</g>
<!-- Node1&#45;&gt;Node4 -->
<g id="edge3" class="edge"><title>Node1&#45;&gt;Node4</title>
<path fill="none" stroke="midnightblue" d="M75.5484,-276.212C89.2971,-308.656 121.548,-374.167 170,-409 175.383,-412.87 181.516,-415.952 187.858,-418.406"/>
<polygon fill="midnightblue" stroke="midnightblue" points="78.6278,-274.496 71.5985,-266.568 72.1502,-277.149 78.6278,-274.496"/>
</g>
<!-- Node5 -->
<g id="node5" class="node"><title>Node5</title>
<g id="a_node5"><a xlink:href="classcom_1_1tomoparts_1_1tomoBay_1_1presenters_1_1presenterActions_1_1concreteActions_1_1InvoiceOrders.html" target="_top" xlink:title="This AbstractPresenterAction provides functionality to invoice a number of orders based on the order ...">
<polygon fill="white" stroke="black" points="199.5,-380.5 199.5,-399.5 281.5,-399.5 281.5,-380.5 199.5,-380.5"/>
<text text-anchor="middle" x="240.5" y="-387.5" font-family="Helvetica,sans-Serif" font-size="10.00">InvoiceOrders</text>
</a>
</g>
</g>
<!-- Node1&#45;&gt;Node5 -->
<g id="edge4" class="edge"><title>Node1&#45;&gt;Node5</title>
<path fill="none" stroke="midnightblue" d="M79.375,-275.277C96.1005,-300.616 129.743,-346.103 170,-371 178.83,-376.461 189.24,-380.378 199.277,-383.178"/>
<polygon fill="midnightblue" stroke="midnightblue" points="82.1697,-273.152 73.8147,-266.637 76.2833,-276.94 82.1697,-273.152"/>
</g>
<!-- Node6 -->
<g id="node6" class="node"><title>Node6</title>
<g id="a_node6"><a xlink:href="classcom_1_1tomoparts_1_1tomoBay_1_1presenters_1_1presenterActions_1_1concreteActions_1_1LogFileViewer.html" target="_top" xlink:title="LogFileViewer">
<polygon fill="white" stroke="black" points="200,-342.5 200,-361.5 281,-361.5 281,-342.5 200,-342.5"/>
<text text-anchor="middle" x="240.5" y="-349.5" font-family="Helvetica,sans-Serif" font-size="10.00">LogFileViewer</text>
</a>
</g>
</g>
<!-- Node1&#45;&gt;Node6 -->
<g id="edge5" class="edge"><title>Node1&#45;&gt;Node6</title>
<path fill="none" stroke="midnightblue" d="M85.5711,-273.36C104.89,-290.525 137.52,-317.166 170,-333 179.332,-337.55 189.919,-341.146 199.965,-343.93"/>
<polygon fill="midnightblue" stroke="midnightblue" points="87.9096,-270.756 78.1456,-266.643 83.2138,-275.947 87.9096,-270.756"/>
</g>
<!-- Node7 -->
<g id="node7" class="node"><title>Node7</title>
<g id="a_node7"><a xlink:href="classcom_1_1tomoparts_1_1tomoBay_1_1presenters_1_1presenterActions_1_1concreteActions_1_1MarkAsInvoiced.html" target="_top" xlink:title="Copyright(C) 2015 Jan P.C. ">
<polygon fill="white" stroke="black" points="195,-304.5 195,-323.5 286,-323.5 286,-304.5 195,-304.5"/>
<text text-anchor="middle" x="240.5" y="-311.5" font-family="Helvetica,sans-Serif" font-size="10.00">MarkAsInvoiced</text>
</a>
</g>
</g>
<!-- Node1&#45;&gt;Node7 -->
<g id="edge6" class="edge"><title>Node1&#45;&gt;Node7</title>
<path fill="none" stroke="midnightblue" d="M101.19,-270.226C121.009,-277.906 146.766,-287.513 170,-295 180.358,-298.338 191.703,-301.601 202.167,-304.456"/>
<polygon fill="midnightblue" stroke="midnightblue" points="102.283,-266.895 91.6948,-266.517 99.7363,-273.415 102.283,-266.895"/>
</g>
<!-- Node8 -->
<g id="node8" class="node"><title>Node8</title>
<g id="a_node8"><a xlink:href="classcom_1_1tomoparts_1_1tomoBay_1_1presenters_1_1presenterActions_1_1concreteActions_1_1MarkAsUninvoiced.html" target="_top" xlink:title="Copyright(C) 2015 Jan P.C. ">
<polygon fill="white" stroke="black" points="188.5,-266.5 188.5,-285.5 292.5,-285.5 292.5,-266.5 188.5,-266.5"/>
<text text-anchor="middle" x="240.5" y="-273.5" font-family="Helvetica,sans-Serif" font-size="10.00">MarkAsUninvoiced</text>
</a>
</g>
</g>
<!-- Node1&#45;&gt;Node8 -->
<g id="edge7" class="edge"><title>Node1&#45;&gt;Node8</title>
<path fill="none" stroke="midnightblue" d="M144.484,-265.473C159.303,-267.115 174.496,-268.798 188.264,-270.324"/>
<polygon fill="midnightblue" stroke="midnightblue" points="144.631,-261.968 134.306,-264.346 143.86,-268.926 144.631,-261.968"/>
</g>
<!-- Node9 -->
<g id="node9" class="node"><title>Node9</title>
<g id="a_node9"><a xlink:href="classcom_1_1tomoparts_1_1tomoBay_1_1presenters_1_1presenterActions_1_1concreteActions_1_1OrderInfo.html" target="_top" xlink:title="Copyright(C) 2015 Jan P.C. ">
<polygon fill="white" stroke="black" points="210,-228.5 210,-247.5 271,-247.5 271,-228.5 210,-228.5"/>
<text text-anchor="middle" x="240.5" y="-235.5" font-family="Helvetica,sans-Serif" font-size="10.00">OrderInfo</text>
</a>
</g>
</g>
<!-- Node1&#45;&gt;Node9 -->
<g id="edge8" class="edge"><title>Node1&#45;&gt;Node9</title>
<path fill="none" stroke="midnightblue" d="M144.471,-248.528C167.55,-245.971 191.536,-243.314 209.636,-241.309"/>
<polygon fill="midnightblue" stroke="midnightblue" points="143.86,-245.074 134.306,-249.654 144.631,-252.032 143.86,-245.074"/>
</g>
<!-- Node10 -->
<g id="node10" class="node"><title>Node10</title>
<g id="a_node10"><a xlink:href="classcom_1_1tomoparts_1_1tomoBay_1_1presenters_1_1presenterActions_1_1concreteActions_1_1PeriodicServicesController.html" target="_top" xlink:title="PeriodicServicesController">
<polygon fill="white" stroke="black" points="170,-190.5 170,-209.5 311,-209.5 311,-190.5 170,-190.5"/>
<text text-anchor="middle" x="240.5" y="-197.5" font-family="Helvetica,sans-Serif" font-size="10.00">PeriodicServicesController</text>
</a>
</g>
</g>
<!-- Node1&#45;&gt;Node10 -->
<g id="edge9" class="edge"><title>Node1&#45;&gt;Node10</title>
<path fill="none" stroke="midnightblue" d="M101.19,-243.774C121.009,-236.094 146.766,-226.487 170,-219 180.358,-215.662 191.703,-212.399 202.167,-209.544"/>
<polygon fill="midnightblue" stroke="midnightblue" points="99.7363,-240.585 91.6948,-247.483 102.283,-247.105 99.7363,-240.585"/>
</g>
<!-- Node11 -->
<g id="node11" class="node"><title>Node11</title>
<g id="a_node11"><a xlink:href="classcom_1_1tomoparts_1_1tomoBay_1_1presenters_1_1presenterActions_1_1concreteActions_1_1PrintInvoices.html" target="_top" xlink:title="PrintInvoices">
<polygon fill="white" stroke="black" points="202,-152.5 202,-171.5 279,-171.5 279,-152.5 202,-152.5"/>
<text text-anchor="middle" x="240.5" y="-159.5" font-family="Helvetica,sans-Serif" font-size="10.00">PrintInvoices</text>
</a>
</g>
</g>
<!-- Node1&#45;&gt;Node11 -->
<g id="edge10" class="edge"><title>Node1&#45;&gt;Node11</title>
<path fill="none" stroke="midnightblue" d="M85.5711,-240.64C104.89,-223.475 137.52,-196.834 170,-181 179.894,-176.176 191.199,-172.424 201.775,-169.576"/>
<polygon fill="midnightblue" stroke="midnightblue" points="83.2138,-238.053 78.1456,-247.357 87.9096,-243.244 83.2138,-238.053"/>
</g>
<!-- Node12 -->
<g id="node12" class="node"><title>Node12</title>
<g id="a_node12"><a xlink:href="classcom_1_1tomoparts_1_1tomoBay_1_1presenters_1_1presenterActions_1_1concreteActions_1_1ReScanBuyer.html" target="_top" xlink:title="Copyright(C) 2015 Jan P.C. ">
<polygon fill="white" stroke="black" points="200.5,-114.5 200.5,-133.5 280.5,-133.5 280.5,-114.5 200.5,-114.5"/>
<text text-anchor="middle" x="240.5" y="-121.5" font-family="Helvetica,sans-Serif" font-size="10.00">ReScanBuyer</text>
</a>
</g>
</g>
<!-- Node1&#45;&gt;Node12 -->
<g id="edge11" class="edge"><title>Node1&#45;&gt;Node12</title>
<path fill="none" stroke="midnightblue" d="M79.375,-238.723C96.1005,-213.384 129.743,-167.897 170,-143 179.149,-137.342 189.995,-133.341 200.364,-130.522"/>
<polygon fill="midnightblue" stroke="midnightblue" points="76.2833,-237.06 73.8147,-247.363 82.1697,-240.848 76.2833,-237.06"/>
</g>
<!-- Node13 -->
<g id="node13" class="node"><title>Node13</title>
<g id="a_node13"><a xlink:href="classcom_1_1tomoparts_1_1tomoBay_1_1presenters_1_1presenterActions_1_1concreteActions_1_1ReScanListing.html" target="_top" xlink:title="ReScanListing">
<polygon fill="white" stroke="black" points="199,-76.5 199,-95.5 282,-95.5 282,-76.5 199,-76.5"/>
<text text-anchor="middle" x="240.5" y="-83.5" font-family="Helvetica,sans-Serif" font-size="10.00">ReScanListing</text>
</a>
</g>
</g>
<!-- Node1&#45;&gt;Node13 -->
<g id="edge12" class="edge"><title>Node1&#45;&gt;Node13</title>
<path fill="none" stroke="midnightblue" d="M75.5484,-237.788C89.2971,-205.344 121.548,-139.833 170,-105 178.43,-98.9396 188.699,-94.8117 198.729,-92.0004"/>
<polygon fill="midnightblue" stroke="midnightblue" points="72.1502,-236.851 71.5985,-247.432 78.6278,-239.504 72.1502,-236.851"/>
</g>
<!-- Node14 -->
<g id="node14" class="node"><title>Node14</title>
<g id="a_node14"><a xlink:href="classcom_1_1tomoparts_1_1tomoBay_1_1presenters_1_1presenterActions_1_1concreteActions_1_1SendToPicking.html" target="_top" xlink:title="SendToPicking">
<polygon fill="white" stroke="black" points="197.5,-38.5 197.5,-57.5 283.5,-57.5 283.5,-38.5 197.5,-38.5"/>
<text text-anchor="middle" x="240.5" y="-45.5" font-family="Helvetica,sans-Serif" font-size="10.00">SendToPicking</text>
</a>
</g>
</g>
<!-- Node1&#45;&gt;Node14 -->
<g id="edge13" class="edge"><title>Node1&#45;&gt;Node14</title>
<path fill="none" stroke="midnightblue" d="M72.9237,-237.389C83.6693,-198.713 112.956,-112.425 170,-67 177.828,-60.7663 187.551,-56.5732 197.22,-53.7541"/>
<polygon fill="midnightblue" stroke="midnightblue" points="69.4583,-236.802 70.2746,-247.366 76.2238,-238.599 69.4583,-236.802"/>
</g>
<!-- Node15 -->
<g id="node15" class="node"><title>Node15</title>
<g id="a_node15"><a xlink:href="classcom_1_1tomoparts_1_1tomoBay_1_1presenters_1_1presenterActions_1_1concreteActions_1_1StockReOrderAnalysis.html" target="_top" xlink:title="This class represents functionality to. ">
<polygon fill="white" stroke="black" points="179.5,-0.5 179.5,-19.5 301.5,-19.5 301.5,-0.5 179.5,-0.5"/>
<text text-anchor="middle" x="240.5" y="-7.5" font-family="Helvetica,sans-Serif" font-size="10.00">StockReOrderAnalysis</text>
</a>
</g>
</g>
<!-- Node1&#45;&gt;Node15 -->
<g id="edge14" class="edge"><title>Node1&#45;&gt;Node15</title>
<path fill="none" stroke="midnightblue" d="M70.9895,-237.503C78.7956,-193.433 103.965,-85.5864 170,-29 174.559,-25.0931 179.852,-21.9833 185.443,-19.5091"/>
<polygon fill="midnightblue" stroke="midnightblue" points="67.5173,-237.048 69.3302,-247.486 74.4225,-238.196 67.5173,-237.048"/>
</g>
</g>
</svg>
