<?xml version="1.0" encoding="UTF-8" standalone="no"?>
<!DOCTYPE svg PUBLIC "-//W3C//DTD SVG 1.1//EN"
 "http://www.w3.org/Graphics/SVG/1.1/DTD/svg11.dtd">
<!-- Generated by graphviz version 2.38.0 (20140413.2041)
 -->
<!-- Title: Graphical Class Hierarchy Pages: 1 -->
<svg width="373pt" height="674pt"
 viewBox="0.00 0.00 373.00 674.00" xmlns="http://www.w3.org/2000/svg" xmlns:xlink="http://www.w3.org/1999/xlink">
<g id="graph0" class="graph" transform="scale(1 1) rotate(0) translate(4 670)">
<title>Graphical Class Hierarchy</title>
<polygon fill="white" stroke="none" points="-4,4 -4,-670 369,-670 369,4 -4,4"/>
<!-- Node1 -->
<g id="node1" class="node"><title>Node1</title>
<g id="a_node1"><a xlink:href="interfacecom_1_1tomoparts_1_1tomoBay_1_1model_1_1winstock_1_1payloads_1_1componentFactories_1_1AbstractComponentFactory.html" target="_top" xlink:title="This is the interface that all AbstractPayloadComponent factories should subscribe to...">
<polygon fill="white" stroke="black" points="0,-323.5 0,-342.5 149,-342.5 149,-323.5 0,-323.5"/>
<text text-anchor="middle" x="74.5" y="-330.5" font-family="Helvetica,sans-Serif" font-size="10.00">AbstractComponentFactory</text>
</a>
</g>
</g>
<!-- Node2 -->
<g id="node2" class="node"><title>Node2</title>
<g id="a_node2"><a xlink:href="classcom_1_1tomoparts_1_1tomoBay_1_1model_1_1winstock_1_1payloads_1_1componentFactories_1_1AddressComponentFactory.html" target="_top" xlink:title="Copyright(C) 2015 Jan P.C. ">
<polygon fill="white" stroke="black" points="201.5,-646.5 201.5,-665.5 348.5,-665.5 348.5,-646.5 201.5,-646.5"/>
<text text-anchor="middle" x="275" y="-653.5" font-family="Helvetica,sans-Serif" font-size="10.00">AddressComponentFactory</text>
</a>
</g>
</g>
<!-- Node1&#45;&gt;Node2 -->
<g id="edge1" class="edge"><title>Node1&#45;&gt;Node2</title>
<path fill="none" stroke="midnightblue" d="M76.3252,-352.811C79.7188,-407.255 97.0198,-560.193 185,-637 189.88,-641.26 195.48,-644.643 201.443,-647.32"/>
<polygon fill="midnightblue" stroke="midnightblue" points="79.8165,-352.552 75.7917,-342.751 72.8263,-352.922 79.8165,-352.552"/>
</g>
<!-- Node3 -->
<g id="node3" class="node"><title>Node3</title>
<g id="a_node3"><a xlink:href="classcom_1_1tomoparts_1_1tomoBay_1_1model_1_1winstock_1_1payloads_1_1componentFactories_1_1CityComponentFactory.html" target="_top" xlink:title="Copyright(C) 2015 Jan P.C. ">
<polygon fill="white" stroke="black" points="212,-608.5 212,-627.5 338,-627.5 338,-608.5 212,-608.5"/>
<text text-anchor="middle" x="275" y="-615.5" font-family="Helvetica,sans-Serif" font-size="10.00">CityComponentFactory</text>
</a>
</g>
</g>
<!-- Node1&#45;&gt;Node3 -->
<g id="edge2" class="edge"><title>Node1&#45;&gt;Node3</title>
<path fill="none" stroke="midnightblue" d="M77.4436,-352.635C83.4547,-402.258 106.377,-533.405 185,-599 192.643,-605.377 201.914,-609.765 211.55,-612.759"/>
<polygon fill="midnightblue" stroke="midnightblue" points="80.9108,-352.144 76.3284,-342.592 73.9535,-352.917 80.9108,-352.144"/>
</g>
<!-- Node4 -->
<g id="node4" class="node"><title>Node4</title>
<g id="a_node4"><a xlink:href="classcom_1_1tomoparts_1_1tomoBay_1_1model_1_1winstock_1_1payloads_1_1componentFactories_1_1CompanyComponentFactory.html" target="_top" xlink:title="Copyright(C) 2015 Jan P.C. ">
<polygon fill="white" stroke="black" points="198,-570.5 198,-589.5 352,-589.5 352,-570.5 198,-570.5"/>
<text text-anchor="middle" x="275" y="-577.5" font-family="Helvetica,sans-Serif" font-size="10.00">CompanyComponentFactory</text>
</a>
</g>
</g>
<!-- Node1&#45;&gt;Node4 -->
<g id="edge3" class="edge"><title>Node1&#45;&gt;Node4</title>
<path fill="none" stroke="midnightblue" d="M78.8903,-352.513C87.7008,-397.026 115.648,-506.428 185,-561 189.842,-564.81 195.275,-567.901 201.005,-570.402"/>
<polygon fill="midnightblue" stroke="midnightblue" points="82.3276,-351.853 77.0491,-342.667 75.4469,-353.14 82.3276,-351.853"/>
</g>
<!-- Node5 -->
<g id="node5" class="node"><title>Node5</title>
<g id="a_node5"><a xlink:href="classcom_1_1tomoparts_1_1tomoBay_1_1model_1_1winstock_1_1payloads_1_1componentFactories_1_1CountyComponentFactory.html" target="_top" xlink:title="Copyright(C) 2015 Jan P.C. ">
<polygon fill="white" stroke="black" points="204,-532.5 204,-551.5 346,-551.5 346,-532.5 204,-532.5"/>
<text text-anchor="middle" x="275" y="-539.5" font-family="Helvetica,sans-Serif" font-size="10.00">CountyComponentFactory</text>
</a>
</g>
</g>
<!-- Node1&#45;&gt;Node5 -->
<g id="edge4" class="edge"><title>Node1&#45;&gt;Node5</title>
<path fill="none" stroke="midnightblue" d="M80.8534,-352.415C92.6601,-391.393 124.787,-479.176 185,-523 190.748,-527.184 197.226,-530.484 203.999,-533.082"/>
<polygon fill="midnightblue" stroke="midnightblue" points="84.2085,-351.418 78.0557,-342.793 77.4868,-353.372 84.2085,-351.418"/>
</g>
<!-- Node6 -->
<g id="node6" class="node"><title>Node6</title>
<g id="a_node6"><a xlink:href="classcom_1_1tomoparts_1_1tomoBay_1_1model_1_1winstock_1_1payloads_1_1componentFactories_1_1DescriptionComponentFactory.html" target="_top" xlink:title="Copyright(C) 2015 Jan P.C. ">
<polygon fill="white" stroke="black" points="194,-494.5 194,-513.5 356,-513.5 356,-494.5 194,-494.5"/>
<text text-anchor="middle" x="275" y="-501.5" font-family="Helvetica,sans-Serif" font-size="10.00">DescriptionComponentFactory</text>
</a>
</g>
</g>
<!-- Node1&#45;&gt;Node6 -->
<g id="edge5" class="edge"><title>Node1&#45;&gt;Node6</title>
<path fill="none" stroke="midnightblue" d="M83.5958,-352.092C98.5274,-384.851 133.642,-451.468 185,-485 190.953,-488.887 197.564,-491.994 204.416,-494.476"/>
<polygon fill="midnightblue" stroke="midnightblue" points="86.7033,-350.465 79.462,-342.731 80.2999,-353.293 86.7033,-350.465"/>
</g>
<!-- Node7 -->
<g id="node7" class="node"><title>Node7</title>
<g id="a_node7"><a xlink:href="classcom_1_1tomoparts_1_1tomoBay_1_1model_1_1winstock_1_1payloads_1_1componentFactories_1_1InStockComponentFactory.html" target="_top" xlink:title="Copyright(C) 2015 Jan P.C. ">
<polygon fill="white" stroke="black" points="203.5,-456.5 203.5,-475.5 346.5,-475.5 346.5,-456.5 203.5,-456.5"/>
<text text-anchor="middle" x="275" y="-463.5" font-family="Helvetica,sans-Serif" font-size="10.00">InStockComponentFactory</text>
</a>
</g>
</g>
<!-- Node1&#45;&gt;Node7 -->
<g id="edge6" class="edge"><title>Node1&#45;&gt;Node7</title>
<path fill="none" stroke="midnightblue" d="M87.606,-351.245C105.639,-376.884 142.075,-423.106 185,-447 191.902,-450.842 199.504,-453.908 207.268,-456.355"/>
<polygon fill="midnightblue" stroke="midnightblue" points="90.3614,-349.075 81.8172,-342.81 84.5898,-353.036 90.3614,-349.075"/>
</g>
<!-- Node8 -->
<g id="node8" class="node"><title>Node8</title>
<g id="a_node8"><a xlink:href="classcom_1_1tomoparts_1_1tomoBay_1_1model_1_1winstock_1_1payloads_1_1componentFactories_1_1InvLinesComponentFactory.html" target="_top" xlink:title="Copyright(C) 2015 Jan P.C. ">
<polygon fill="white" stroke="black" points="202,-418.5 202,-437.5 348,-437.5 348,-418.5 202,-418.5"/>
<text text-anchor="middle" x="275" y="-425.5" font-family="Helvetica,sans-Serif" font-size="10.00">InvLinesComponentFactory</text>
</a>
</g>
</g>
<!-- Node1&#45;&gt;Node8 -->
<g id="edge7" class="edge"><title>Node1&#45;&gt;Node8</title>
<path fill="none" stroke="midnightblue" d="M93.801,-349.158C114.5,-366.567 149.91,-393.81 185,-409 193.845,-412.829 203.527,-415.912 213.147,-418.387"/>
<polygon fill="midnightblue" stroke="midnightblue" points="95.9939,-346.428 86.1227,-342.58 91.4396,-351.744 95.9939,-346.428"/>
</g>
<!-- Node9 -->
<g id="node9" class="node"><title>Node9</title>
<g id="a_node9"><a xlink:href="classcom_1_1tomoparts_1_1tomoBay_1_1model_1_1winstock_1_1payloads_1_1componentFactories_1_1InvoiceAccountComponentFactory.html" target="_top" xlink:title="Copyright(C) 2015 Jan P.C. ">
<polygon fill="white" stroke="black" points="185,-380.5 185,-399.5 365,-399.5 365,-380.5 185,-380.5"/>
<text text-anchor="middle" x="275" y="-387.5" font-family="Helvetica,sans-Serif" font-size="10.00">InvoiceAccountComponentFactory</text>
</a>
</g>
</g>
<!-- Node1&#45;&gt;Node9 -->
<g id="edge8" class="edge"><title>Node1&#45;&gt;Node9</title>
<path fill="none" stroke="midnightblue" d="M110.058,-346.224C131.438,-354.096 159.567,-363.902 185,-371 197.479,-374.483 211.095,-377.684 223.839,-380.426"/>
<polygon fill="midnightblue" stroke="midnightblue" points="111.038,-342.855 100.446,-342.648 108.598,-349.415 111.038,-342.855"/>
</g>
<!-- Node10 -->
<g id="node10" class="node"><title>Node10</title>
<g id="a_node10"><a xlink:href="classcom_1_1tomoparts_1_1tomoBay_1_1model_1_1winstock_1_1payloads_1_1componentFactories_1_1InvoiceNoComponentFactory.html" target="_top" xlink:title="Copyright(C) 2015 Jan P.C. ">
<polygon fill="white" stroke="black" points="197.5,-342.5 197.5,-361.5 352.5,-361.5 352.5,-342.5 197.5,-342.5"/>
<text text-anchor="middle" x="275" y="-349.5" font-family="Helvetica,sans-Serif" font-size="10.00">InvoiceNoComponentFactory</text>
</a>
</g>
</g>
<!-- Node1&#45;&gt;Node10 -->
<g id="edge9" class="edge"><title>Node1&#45;&gt;Node10</title>
<path fill="none" stroke="midnightblue" d="M159.224,-341.014C171.921,-342.229 184.965,-343.478 197.498,-344.677"/>
<polygon fill="midnightblue" stroke="midnightblue" points="159.42,-337.517 149.132,-340.048 158.753,-344.485 159.42,-337.517"/>
</g>
<!-- Node11 -->
<g id="node11" class="node"><title>Node11</title>
<g id="a_node11"><a xlink:href="classcom_1_1tomoparts_1_1tomoBay_1_1model_1_1winstock_1_1payloads_1_1componentFactories_1_1NameComponentFactory.html" target="_top" xlink:title="NameComponentFactory">
<polygon fill="white" stroke="black" points="206.5,-304.5 206.5,-323.5 343.5,-323.5 343.5,-304.5 206.5,-304.5"/>
<text text-anchor="middle" x="275" y="-311.5" font-family="Helvetica,sans-Serif" font-size="10.00">NameComponentFactory</text>
</a>
</g>
</g>
<!-- Node1&#45;&gt;Node11 -->
<g id="edge10" class="edge"><title>Node1&#45;&gt;Node11</title>
<path fill="none" stroke="midnightblue" d="M159.353,-324.974C175.048,-323.471 191.269,-321.919 206.395,-320.471"/>
<polygon fill="midnightblue" stroke="midnightblue" points="158.753,-321.515 149.132,-325.952 159.42,-328.483 158.753,-321.515"/>
</g>
<!-- Node12 -->
<g id="node12" class="node"><title>Node12</title>
<g id="a_node12"><a xlink:href="classcom_1_1tomoparts_1_1tomoBay_1_1model_1_1winstock_1_1payloads_1_1componentFactories_1_1OrderNoComponentFactory.html" target="_top" xlink:title="Copyright(C) 2015 Jan P.C. ">
<polygon fill="white" stroke="black" points="200.5,-266.5 200.5,-285.5 349.5,-285.5 349.5,-266.5 200.5,-266.5"/>
<text text-anchor="middle" x="275" y="-273.5" font-family="Helvetica,sans-Serif" font-size="10.00">OrderNoComponentFactory</text>
</a>
</g>
</g>
<!-- Node1&#45;&gt;Node12 -->
<g id="edge11" class="edge"><title>Node1&#45;&gt;Node12</title>
<path fill="none" stroke="midnightblue" d="M110.058,-319.776C131.438,-311.904 159.567,-302.098 185,-295 197.479,-291.517 211.095,-288.316 223.839,-285.574"/>
<polygon fill="midnightblue" stroke="midnightblue" points="108.598,-316.585 100.446,-323.352 111.038,-323.145 108.598,-316.585"/>
</g>
<!-- Node13 -->
<g id="node13" class="node"><title>Node13</title>
<g id="a_node13"><a xlink:href="classcom_1_1tomoparts_1_1tomoBay_1_1model_1_1winstock_1_1payloads_1_1componentFactories_1_1PackingListsComponentFactory.html" target="_top" xlink:title="Copyright(C) 2015 Jan P.C. ">
<polygon fill="white" stroke="black" points="191.5,-228.5 191.5,-247.5 358.5,-247.5 358.5,-228.5 191.5,-228.5"/>
<text text-anchor="middle" x="275" y="-235.5" font-family="Helvetica,sans-Serif" font-size="10.00">PackingListsComponentFactory</text>
</a>
</g>
</g>
<!-- Node1&#45;&gt;Node13 -->
<g id="edge12" class="edge"><title>Node1&#45;&gt;Node13</title>
<path fill="none" stroke="midnightblue" d="M93.801,-316.842C114.5,-299.433 149.91,-272.19 185,-257 193.845,-253.171 203.527,-250.088 213.147,-247.613"/>
<polygon fill="midnightblue" stroke="midnightblue" points="91.4396,-314.256 86.1227,-323.42 95.9939,-319.572 91.4396,-314.256"/>
</g>
<!-- Node14 -->
<g id="node14" class="node"><title>Node14</title>
<g id="a_node14"><a xlink:href="classcom_1_1tomoparts_1_1tomoBay_1_1model_1_1winstock_1_1payloads_1_1componentFactories_1_1PartNoComponentFactory.html" target="_top" xlink:title="Copyright(C) 2015 Jan P.C. ">
<polygon fill="white" stroke="black" points="204.5,-190.5 204.5,-209.5 345.5,-209.5 345.5,-190.5 204.5,-190.5"/>
<text text-anchor="middle" x="275" y="-197.5" font-family="Helvetica,sans-Serif" font-size="10.00">PartNoComponentFactory</text>
</a>
</g>
</g>
<!-- Node1&#45;&gt;Node14 -->
<g id="edge13" class="edge"><title>Node1&#45;&gt;Node14</title>
<path fill="none" stroke="midnightblue" d="M87.606,-314.755C105.639,-289.116 142.075,-242.894 185,-219 191.902,-215.158 199.504,-212.092 207.268,-209.645"/>
<polygon fill="midnightblue" stroke="midnightblue" points="84.5898,-312.964 81.8172,-323.19 90.3614,-316.925 84.5898,-312.964"/>
</g>
<!-- Node15 -->
<g id="node15" class="node"><title>Node15</title>
<g id="a_node15"><a xlink:href="classcom_1_1tomoparts_1_1tomoBay_1_1model_1_1winstock_1_1payloads_1_1componentFactories_1_1PostCodeComponentFactory.html" target="_top" xlink:title="Copyright(C) 2015 Jan P.C. ">
<polygon fill="white" stroke="black" points="198,-152.5 198,-171.5 352,-171.5 352,-152.5 198,-152.5"/>
<text text-anchor="middle" x="275" y="-159.5" font-family="Helvetica,sans-Serif" font-size="10.00">PostCodeComponentFactory</text>
</a>
</g>
</g>
<!-- Node1&#45;&gt;Node15 -->
<g id="edge14" class="edge"><title>Node1&#45;&gt;Node15</title>
<path fill="none" stroke="midnightblue" d="M83.5958,-313.908C98.5274,-281.149 133.642,-214.532 185,-181 190.953,-177.113 197.564,-174.006 204.416,-171.524"/>
<polygon fill="midnightblue" stroke="midnightblue" points="80.2999,-312.707 79.462,-323.269 86.7033,-315.535 80.2999,-312.707"/>
</g>
<!-- Node16 -->
<g id="node16" class="node"><title>Node16</title>
<g id="a_node16"><a xlink:href="classcom_1_1tomoparts_1_1tomoBay_1_1model_1_1winstock_1_1payloads_1_1componentFactories_1_1PriceComponentFactory.html" target="_top" xlink:title="Copyright(C) 2015 Jan P.C. ">
<polygon fill="white" stroke="black" points="209.5,-114.5 209.5,-133.5 340.5,-133.5 340.5,-114.5 209.5,-114.5"/>
<text text-anchor="middle" x="275" y="-121.5" font-family="Helvetica,sans-Serif" font-size="10.00">PriceComponentFactory</text>
</a>
</g>
</g>
<!-- Node1&#45;&gt;Node16 -->
<g id="edge15" class="edge"><title>Node1&#45;&gt;Node16</title>
<path fill="none" stroke="midnightblue" d="M80.8534,-313.585C92.6601,-274.607 124.787,-186.824 185,-143 192.281,-137.7 200.733,-133.819 209.472,-130.987"/>
<polygon fill="midnightblue" stroke="midnightblue" points="77.4868,-312.628 78.0557,-323.207 84.2085,-314.582 77.4868,-312.628"/>
</g>
<!-- Node17 -->
<g id="node17" class="node"><title>Node17</title>
<g id="a_node17"><a xlink:href="classcom_1_1tomoparts_1_1tomoBay_1_1model_1_1winstock_1_1payloads_1_1componentFactories_1_1PrintCopiesComponentFactory.html" target="_top" xlink:title="Copyright(C) 2015 Jan P.C. ">
<polygon fill="white" stroke="black" points="194,-76.5 194,-95.5 356,-95.5 356,-76.5 194,-76.5"/>
<text text-anchor="middle" x="275" y="-83.5" font-family="Helvetica,sans-Serif" font-size="10.00">PrintCopiesComponentFactory</text>
</a>
</g>
</g>
<!-- Node1&#45;&gt;Node17 -->
<g id="edge16" class="edge"><title>Node1&#45;&gt;Node17</title>
<path fill="none" stroke="midnightblue" d="M78.8903,-313.487C87.7008,-268.974 115.648,-159.572 185,-105 189.842,-101.19 195.275,-98.0992 201.005,-95.5979"/>
<polygon fill="midnightblue" stroke="midnightblue" points="75.4469,-312.86 77.0491,-323.333 82.3276,-314.147 75.4469,-312.86"/>
</g>
<!-- Node18 -->
<g id="node18" class="node"><title>Node18</title>
<g id="a_node18"><a xlink:href="classcom_1_1tomoparts_1_1tomoBay_1_1model_1_1winstock_1_1payloads_1_1componentFactories_1_1QuantityComponentFactory.html" target="_top" xlink:title="Copyright(C) 2015 Jan P.C. ">
<polygon fill="white" stroke="black" points="200.5,-38.5 200.5,-57.5 349.5,-57.5 349.5,-38.5 200.5,-38.5"/>
<text text-anchor="middle" x="275" y="-45.5" font-family="Helvetica,sans-Serif" font-size="10.00">QuantityComponentFactory</text>
</a>
</g>
</g>
<!-- Node1&#45;&gt;Node18 -->
<g id="edge17" class="edge"><title>Node1&#45;&gt;Node18</title>
<path fill="none" stroke="midnightblue" d="M77.4436,-313.365C83.4547,-263.742 106.377,-132.595 185,-67 189.61,-63.1538 194.813,-60.0308 200.33,-57.5011"/>
<polygon fill="midnightblue" stroke="midnightblue" points="73.9535,-313.083 76.3284,-323.408 80.9108,-313.856 73.9535,-313.083"/>
</g>
<!-- Node19 -->
<g id="node19" class="node"><title>Node19</title>
<g id="a_node19"><a xlink:href="classcom_1_1tomoparts_1_1tomoBay_1_1model_1_1winstock_1_1payloads_1_1componentFactories_1_1TypeComponentFactory.html" target="_top" xlink:title="TypeComponentFactory">
<polygon fill="white" stroke="black" points="209.5,-0.5 209.5,-19.5 340.5,-19.5 340.5,-0.5 209.5,-0.5"/>
<text text-anchor="middle" x="275" y="-7.5" font-family="Helvetica,sans-Serif" font-size="10.00">TypeComponentFactory</text>
</a>
</g>
</g>
<!-- Node1&#45;&gt;Node19 -->
<g id="edge18" class="edge"><title>Node1&#45;&gt;Node19</title>
<path fill="none" stroke="midnightblue" d="M76.3252,-313.189C79.7188,-258.745 97.0198,-105.807 185,-29 192.022,-22.8695 200.535,-18.5557 209.478,-15.5466"/>
<polygon fill="midnightblue" stroke="midnightblue" points="72.8263,-313.078 75.7917,-323.249 79.8165,-313.448 72.8263,-313.078"/>
</g>
</g>
</svg>
