<?xml version="1.0" encoding="UTF-8" standalone="no"?>
<!DOCTYPE svg PUBLIC "-//W3C//DTD SVG 1.1//EN"
 "http://www.w3.org/Graphics/SVG/1.1/DTD/svg11.dtd">
<!-- Generated by graphviz version 2.38.0 (20140413.2041)
 -->
<!-- Title: Graphical Class Hierarchy Pages: 1 -->
<svg width="315pt" height="66pt"
 viewBox="0.00 0.00 315.00 66.00" xmlns="http://www.w3.org/2000/svg" xmlns:xlink="http://www.w3.org/1999/xlink">
<g id="graph0" class="graph" transform="scale(1 1) rotate(0) translate(4 62)">
<title>Graphical Class Hierarchy</title>
<polygon fill="white" stroke="none" points="-4,4 -4,-62 311,-62 311,4 -4,4"/>
<!-- Node1 -->
<g id="node1" class="node"><title>Node1</title>
<g id="a_node1"><a xlink:href="classcom_1_1tomoparts_1_1tomoBay_1_1model_1_1winstock_1_1commands_1_1AbstractWinstockCommand.html" target="_top" xlink:title="This is the abstract base class for all Winstock commands, and acts as the abstract command in a GoF ...">
<polygon fill="white" stroke="black" points="0,-19.5 0,-38.5 149,-38.5 149,-19.5 0,-19.5"/>
<text text-anchor="middle" x="74.5" y="-26.5" font-family="Helvetica,sans-Serif" font-size="10.00">AbstractWinstockCommand</text>
</a>
</g>
</g>
<!-- Node2 -->
<g id="node2" class="node"><title>Node2</title>
<g id="a_node2"><a xlink:href="classcom_1_1tomoparts_1_1tomoBay_1_1model_1_1winstock_1_1commands_1_1PrintInvoiceCommand.html" target="_top" xlink:title="This class represents a command to winstock to print an invoice. ">
<polygon fill="white" stroke="black" points="185,-38.5 185,-57.5 307,-57.5 307,-38.5 185,-38.5"/>
<text text-anchor="middle" x="246" y="-45.5" font-family="Helvetica,sans-Serif" font-size="10.00">PrintInvoiceCommand</text>
</a>
</g>
</g>
<!-- Node1&#45;&gt;Node2 -->
<g id="edge1" class="edge"><title>Node1&#45;&gt;Node2</title>
<path fill="none" stroke="midnightblue" d="M159.411,-38.406C168.002,-39.369 176.605,-40.3333 184.866,-41.2593"/>
<polygon fill="midnightblue" stroke="midnightblue" points="159.68,-34.9142 149.352,-37.2784 158.9,-41.8707 159.68,-34.9142"/>
</g>
<!-- Node3 -->
<g id="node3" class="node"><title>Node3</title>
<g id="a_node3"><a xlink:href="classcom_1_1tomoparts_1_1tomoBay_1_1model_1_1winstock_1_1commands_1_1PutInvoiceCommand.html" target="_top" xlink:title="this class instructs winstock to create an invoice given the data that is passed in. ">
<polygon fill="white" stroke="black" points="188,-0.5 188,-19.5 304,-19.5 304,-0.5 188,-0.5"/>
<text text-anchor="middle" x="246" y="-7.5" font-family="Helvetica,sans-Serif" font-size="10.00">PutInvoiceCommand</text>
</a>
</g>
</g>
<!-- Node1&#45;&gt;Node3 -->
<g id="edge2" class="edge"><title>Node1&#45;&gt;Node3</title>
<path fill="none" stroke="midnightblue" d="M159.405,-19.5948C169.076,-18.5106 178.763,-17.4248 187.96,-16.3938"/>
<polygon fill="midnightblue" stroke="midnightblue" points="158.9,-16.1293 149.352,-20.7216 159.68,-23.0858 158.9,-16.1293"/>
</g>
</g>
</svg>
