<?xml version="1.0" encoding="UTF-8" standalone="no"?>
<!DOCTYPE svg PUBLIC "-//W3C//DTD SVG 1.1//EN"
 "http://www.w3.org/Graphics/SVG/1.1/DTD/svg11.dtd">
<!-- Generated by graphviz version 2.38.0 (20140413.2041)
 -->
<!-- Title: Graphical Class Hierarchy Pages: 1 -->
<svg width="326pt" height="306pt"
 viewBox="0.00 0.00 326.00 306.00" xmlns="http://www.w3.org/2000/svg" xmlns:xlink="http://www.w3.org/1999/xlink">
<g id="graph0" class="graph" transform="scale(1 1) rotate(0) translate(4 302)">
<title>Graphical Class Hierarchy</title>
<polygon fill="white" stroke="none" points="-4,4 -4,-302 322,-302 322,4 -4,4"/>
<!-- Node1 -->
<g id="node1" class="node"><title>Node1</title>
<g id="a_node1"><a xlink:href="interfacecom_1_1tomoparts_1_1tomoBay_1_1model_1_1services_1_1factories_1_1AbstractServiceFactory.html" target="_top" xlink:title="This interface is the construct that all the Service factories must conform to. ">
<polygon fill="white" stroke="black" points="0,-136.5 0,-155.5 128,-155.5 128,-136.5 0,-136.5"/>
<text text-anchor="middle" x="64" y="-143.5" font-family="Helvetica,sans-Serif" font-size="10.00">AbstractServiceFactory</text>
</a>
</g>
</g>
<!-- Node2 -->
<g id="node2" class="node"><title>Node2</title>
<g id="a_node2"><a xlink:href="classcom_1_1tomoparts_1_1tomoBay_1_1model_1_1services_1_1factories_1_1BasicEbayServiceFactory.html" target="_top" xlink:title="This factory creates a BasicEbayUpdateService. ">
<polygon fill="white" stroke="black" points="173,-278.5 173,-297.5 309,-297.5 309,-278.5 173,-278.5"/>
<text text-anchor="middle" x="241" y="-285.5" font-family="Helvetica,sans-Serif" font-size="10.00">BasicEbayServiceFactory</text>
</a>
</g>
</g>
<!-- Node1&#45;&gt;Node2 -->
<g id="edge1" class="edge"><title>Node1&#45;&gt;Node2</title>
<path fill="none" stroke="midnightblue" d="M74.8019,-164.694C90.0923,-191.962 122.25,-242.296 164,-269 170.072,-272.884 176.888,-275.974 183.879,-278.433"/>
<polygon fill="midnightblue" stroke="midnightblue" points="77.8023,-162.885 69.9452,-155.778 71.6551,-166.234 77.8023,-162.885"/>
</g>
<!-- Node3 -->
<g id="node3" class="node"><title>Node3</title>
<g id="a_node3"><a xlink:href="classcom_1_1tomoparts_1_1tomoBay_1_1model_1_1services_1_1factories_1_1CheckErrorsFactory.html" target="_top" xlink:title="CheckErrorsFactory">
<polygon fill="white" stroke="black" points="186,-240.5 186,-259.5 296,-259.5 296,-240.5 186,-240.5"/>
<text text-anchor="middle" x="241" y="-247.5" font-family="Helvetica,sans-Serif" font-size="10.00">CheckErrorsFactory</text>
</a>
</g>
</g>
<!-- Node1&#45;&gt;Node3 -->
<g id="edge2" class="edge"><title>Node1&#45;&gt;Node3</title>
<path fill="none" stroke="midnightblue" d="M80.0683,-163.03C98.1228,-182.376 130.194,-213.52 164,-231 171.49,-234.873 179.81,-237.985 188.119,-240.476"/>
<polygon fill="midnightblue" stroke="midnightblue" points="82.5524,-160.56 73.2247,-155.535 77.3833,-165.28 82.5524,-160.56"/>
</g>
<!-- Node4 -->
<g id="node4" class="node"><title>Node4</title>
<g id="a_node4"><a xlink:href="classcom_1_1tomoparts_1_1tomoBay_1_1model_1_1services_1_1factories_1_1EmailErrorsServiceFactory.html" target="_top" xlink:title="EmailErrorsServiceFactory">
<polygon fill="white" stroke="black" points="170,-202.5 170,-221.5 312,-221.5 312,-202.5 170,-202.5"/>
<text text-anchor="middle" x="241" y="-209.5" font-family="Helvetica,sans-Serif" font-size="10.00">EmailErrorsServiceFactory</text>
</a>
</g>
</g>
<!-- Node1&#45;&gt;Node4 -->
<g id="edge3" class="edge"><title>Node1&#45;&gt;Node4</title>
<path fill="none" stroke="midnightblue" d="M91.365,-160.281C110.968,-170.46 138.603,-183.899 164,-193 173.986,-196.579 184.943,-199.741 195.351,-202.407"/>
<polygon fill="midnightblue" stroke="midnightblue" points="92.9116,-157.14 82.4323,-155.58 89.6512,-163.335 92.9116,-157.14"/>
</g>
<!-- Node5 -->
<g id="node5" class="node"><title>Node5</title>
<g id="a_node5"><a xlink:href="classcom_1_1tomoparts_1_1tomoBay_1_1model_1_1services_1_1factories_1_1IndividualItemRefreshServiceFactory.html" target="_top" xlink:title="This factory creates an IndividualItemRefreshService. ">
<polygon fill="white" stroke="black" points="164,-153 164,-183 318,-183 318,-153 164,-153"/>
<text text-anchor="start" x="172" y="-171" font-family="Helvetica,sans-Serif" font-size="10.00">IndividualItemRefreshService</text>
<text text-anchor="middle" x="241" y="-160" font-family="Helvetica,sans-Serif" font-size="10.00">Factory</text>
</a>
</g>
</g>
<!-- Node1&#45;&gt;Node5 -->
<g id="edge4" class="edge"><title>Node1&#45;&gt;Node5</title>
<path fill="none" stroke="midnightblue" d="M138.33,-155.219C146.742,-156.276 155.334,-157.356 163.783,-158.418"/>
<polygon fill="midnightblue" stroke="midnightblue" points="138.538,-151.717 128.179,-153.943 137.664,-158.663 138.538,-151.717"/>
</g>
<!-- Node6 -->
<g id="node6" class="node"><title>Node6</title>
<g id="a_node6"><a xlink:href="classcom_1_1tomoparts_1_1tomoBay_1_1model_1_1services_1_1factories_1_1OutOfHoursServiceFactory.html" target="_top" xlink:title="Copyright(C) 2015 Jan P.C. ">
<polygon fill="white" stroke="black" points="169.5,-114.5 169.5,-133.5 312.5,-133.5 312.5,-114.5 169.5,-114.5"/>
<text text-anchor="middle" x="241" y="-121.5" font-family="Helvetica,sans-Serif" font-size="10.00">OutOfHoursServiceFactory</text>
</a>
</g>
</g>
<!-- Node1&#45;&gt;Node6 -->
<g id="edge5" class="edge"><title>Node1&#45;&gt;Node6</title>
<path fill="none" stroke="midnightblue" d="M138.372,-136.776C148.676,-135.481 159.249,-134.152 169.499,-132.863"/>
<polygon fill="midnightblue" stroke="midnightblue" points="137.664,-133.337 128.179,-138.057 138.538,-140.283 137.664,-133.337"/>
</g>
<!-- Node7 -->
<g id="node7" class="node"><title>Node7</title>
<g id="a_node7"><a xlink:href="classcom_1_1tomoparts_1_1tomoBay_1_1model_1_1services_1_1factories_1_1ReScanBuyerServiceFactory.html" target="_top" xlink:title="Copyright(C) 2015 Jan P.C. ">
<polygon fill="white" stroke="black" points="165.5,-76.5 165.5,-95.5 316.5,-95.5 316.5,-76.5 165.5,-76.5"/>
<text text-anchor="middle" x="241" y="-83.5" font-family="Helvetica,sans-Serif" font-size="10.00">ReScanBuyerServiceFactory</text>
</a>
</g>
</g>
<!-- Node1&#45;&gt;Node7 -->
<g id="edge6" class="edge"><title>Node1&#45;&gt;Node7</title>
<path fill="none" stroke="midnightblue" d="M94.7594,-132.323C114.193,-123.731 140.273,-112.831 164,-105 174.59,-101.504 186.194,-98.2988 197.075,-95.556"/>
<polygon fill="midnightblue" stroke="midnightblue" points="93.2215,-129.177 85.5221,-136.455 96.0796,-135.567 93.2215,-129.177"/>
</g>
<!-- Node8 -->
<g id="node8" class="node"><title>Node8</title>
<g id="a_node8"><a xlink:href="classcom_1_1tomoparts_1_1tomoBay_1_1model_1_1services_1_1factories_1_1ReScanErrorsServiceFactory.html" target="_top" xlink:title="Copyright(C) 2015 Jan P.C. ">
<polygon fill="white" stroke="black" points="165,-38.5 165,-57.5 317,-57.5 317,-38.5 165,-38.5"/>
<text text-anchor="middle" x="241" y="-45.5" font-family="Helvetica,sans-Serif" font-size="10.00">ReScanErrorsServiceFactory</text>
</a>
</g>
</g>
<!-- Node1&#45;&gt;Node8 -->
<g id="edge7" class="edge"><title>Node1&#45;&gt;Node8</title>
<path fill="none" stroke="midnightblue" d="M81.4284,-129.127C99.8915,-111.128 131.549,-83.0473 164,-67 171.802,-63.1416 180.454,-60.0249 189.042,-57.5203"/>
<polygon fill="midnightblue" stroke="midnightblue" points="78.7565,-126.849 74.1388,-136.384 83.6951,-131.81 78.7565,-126.849"/>
</g>
<!-- Node9 -->
<g id="node9" class="node"><title>Node9</title>
<g id="a_node9"><a xlink:href="classcom_1_1tomoparts_1_1tomoBay_1_1model_1_1services_1_1factories_1_1TestServiceFactory.html" target="_top" xlink:title="This factory creates a test service. ">
<polygon fill="white" stroke="black" points="187.5,-0.5 187.5,-19.5 294.5,-19.5 294.5,-0.5 187.5,-0.5"/>
<text text-anchor="middle" x="241" y="-7.5" font-family="Helvetica,sans-Serif" font-size="10.00">TestServiceFactory</text>
</a>
</g>
</g>
<!-- Node1&#45;&gt;Node9 -->
<g id="edge8" class="edge"><title>Node1&#45;&gt;Node9</title>
<path fill="none" stroke="midnightblue" d="M75.476,-127.495C91.2313,-101.405 123.538,-54.1855 164,-29 171.043,-24.6159 179.045,-21.2423 187.149,-18.6466"/>
<polygon fill="midnightblue" stroke="midnightblue" points="72.3102,-125.974 70.2655,-136.37 78.3468,-129.518 72.3102,-125.974"/>
</g>
</g>
</svg>
