<?xml version="1.0" encoding="UTF-8" standalone="no"?>
<!DOCTYPE svg PUBLIC "-//W3C//DTD SVG 1.1//EN"
 "http://www.w3.org/Graphics/SVG/1.1/DTD/svg11.dtd">
<!-- Generated by graphviz version 2.38.0 (20140413.2041)
 -->
<!-- Title: Graphical Class Hierarchy Pages: 1 -->
<svg width="342pt" height="142pt"
 viewBox="0.00 0.00 342.00 142.00" xmlns="http://www.w3.org/2000/svg" xmlns:xlink="http://www.w3.org/1999/xlink">
<g id="graph0" class="graph" transform="scale(1 1) rotate(0) translate(4 138)">
<title>Graphical Class Hierarchy</title>
<polygon fill="white" stroke="none" points="-4,4 -4,-138 338,-138 338,4 -4,4"/>
<!-- Node1 -->
<g id="node1" class="node"><title>Node1</title>
<g id="a_node1"><a xlink:href="interfacecom_1_1tomoparts_1_1tomoBay_1_1model_1_1services_1_1AbstractConfiguration.html" target="_top" xlink:title="Copyright(C) 2015 Jan P.C. ">
<polygon fill="white" stroke="black" points="0,-57.5 0,-76.5 149,-76.5 149,-57.5 0,-57.5"/>
<text text-anchor="middle" x="74.5" y="-64.5" font-family="Helvetica,sans-Serif" font-size="10.00">AbstractConfiguration&lt; T &gt;</text>
</a>
</g>
</g>
<!-- Node2 -->
<g id="node2" class="node"><title>Node2</title>
<g id="a_node2"><a xlink:href="classcom_1_1tomoparts_1_1tomoBay_1_1model_1_1services_1_1emailErrorsService_1_1EmailErrorsConfig.html" target="_top" xlink:title="Copyright(C) 2015 Jan P.C. ">
<polygon fill="white" stroke="black" points="209,-114.5 209,-133.5 310,-133.5 310,-114.5 209,-114.5"/>
<text text-anchor="middle" x="259.5" y="-121.5" font-family="Helvetica,sans-Serif" font-size="10.00">EmailErrorsConfig</text>
</a>
</g>
</g>
<!-- Node1&#45;&gt;Node2 -->
<g id="edge1" class="edge"><title>Node1&#45;&gt;Node2</title>
<path fill="none" stroke="midnightblue" d="M111.019,-80.145C132.331,-87.8267 160.057,-97.4616 185,-105 195.976,-108.317 207.981,-111.574 219.047,-114.429"/>
<polygon fill="midnightblue" stroke="midnightblue" points="112.007,-76.7802 101.413,-76.6584 109.619,-83.3602 112.007,-76.7802"/>
</g>
<!-- Node3 -->
<g id="node3" class="node"><title>Node3</title>
<g id="a_node3"><a xlink:href="classcom_1_1tomoparts_1_1tomoBay_1_1model_1_1services_1_1individualItemRefreshService_1_1IndividualItemRefreshConfig.html" target="_top" xlink:title="This class defines an object that is passed to the IndividualItemRefreshService setConfig method...">
<polygon fill="white" stroke="black" points="185,-76.5 185,-95.5 334,-95.5 334,-76.5 185,-76.5"/>
<text text-anchor="middle" x="259.5" y="-83.5" font-family="Helvetica,sans-Serif" font-size="10.00">IndividualItemRefreshConfig</text>
</a>
</g>
</g>
<!-- Node1&#45;&gt;Node3 -->
<g id="edge2" class="edge"><title>Node1&#45;&gt;Node3</title>
<path fill="none" stroke="midnightblue" d="M159.109,-75.6807C167.651,-76.5676 176.285,-77.464 184.711,-78.3388"/>
<polygon fill="midnightblue" stroke="midnightblue" points="159.45,-72.1974 149.142,-74.6459 158.727,-79.16 159.45,-72.1974"/>
</g>
<!-- Node4 -->
<g id="node4" class="node"><title>Node4</title>
<g id="a_node4"><a xlink:href="classcom_1_1tomoparts_1_1tomoBay_1_1model_1_1services_1_1reScanBuyerService_1_1ReScanBuyerServiceConfig.html" target="_top" xlink:title="Copyright(C) 2015 Jan P.C. ">
<polygon fill="white" stroke="black" points="186.5,-38.5 186.5,-57.5 332.5,-57.5 332.5,-38.5 186.5,-38.5"/>
<text text-anchor="middle" x="259.5" y="-45.5" font-family="Helvetica,sans-Serif" font-size="10.00">ReScanBuyerServiceConfig</text>
</a>
</g>
</g>
<!-- Node1&#45;&gt;Node4 -->
<g id="edge3" class="edge"><title>Node1&#45;&gt;Node4</title>
<path fill="none" stroke="midnightblue" d="M159.326,-58.2967C168.401,-57.3545 177.578,-56.4017 186.496,-55.4759"/>
<polygon fill="midnightblue" stroke="midnightblue" points="158.727,-54.84 149.142,-59.3541 159.45,-61.8026 158.727,-54.84"/>
</g>
<!-- Node5 -->
<g id="node5" class="node"><title>Node5</title>
<g id="a_node5"><a xlink:href="classcom_1_1tomoparts_1_1tomoBay_1_1model_1_1services_1_1updateOrderStatusService_1_1UpdateOrderStatusConfig.html" target="_top" xlink:title="configuration object for the UpdateOrderStatusService, carries OrderStatus (enum) information ...">
<polygon fill="white" stroke="black" points="189.5,-0.5 189.5,-19.5 329.5,-19.5 329.5,-0.5 189.5,-0.5"/>
<text text-anchor="middle" x="259.5" y="-7.5" font-family="Helvetica,sans-Serif" font-size="10.00">UpdateOrderStatusConfig</text>
</a>
</g>
</g>
<!-- Node1&#45;&gt;Node5 -->
<g id="edge4" class="edge"><title>Node1&#45;&gt;Node5</title>
<path fill="none" stroke="midnightblue" d="M111.019,-53.855C132.331,-46.1733 160.057,-36.5384 185,-29 195.976,-25.6827 207.981,-22.4258 219.047,-19.5713"/>
<polygon fill="midnightblue" stroke="midnightblue" points="109.619,-50.6398 101.413,-57.3416 112.007,-57.2198 109.619,-50.6398"/>
</g>
</g>
</svg>
