<?xml version="1.0" encoding="UTF-8" standalone="no"?>
<!DOCTYPE svg PUBLIC "-//W3C//DTD SVG 1.1//EN"
 "http://www.w3.org/Graphics/SVG/1.1/DTD/svg11.dtd">
<!-- Generated by graphviz version 2.38.0 (20140413.2041)
 -->
<!-- Title: Graphical Class Hierarchy Pages: 1 -->
<svg width="291pt" height="370pt"
 viewBox="0.00 0.00 291.00 370.00" xmlns="http://www.w3.org/2000/svg" xmlns:xlink="http://www.w3.org/1999/xlink">
<g id="graph0" class="graph" transform="scale(1 1) rotate(0) translate(4 366)">
<title>Graphical Class Hierarchy</title>
<polygon fill="white" stroke="none" points="-4,4 -4,-366 287,-366 287,4 -4,4"/>
<!-- Node1 -->
<g id="node1" class="node"><title>Node1</title>
<g id="a_node1"><a xlink:href="interfacecom_1_1tomoparts_1_1tomoBay_1_1presenters_1_1AbstractPresenter.html" target="_top" xlink:title="provides an interface that all presenters should subscribe to. ">
<polygon fill="white" stroke="black" points="0,-171.5 0,-190.5 104,-190.5 104,-171.5 0,-171.5"/>
<text text-anchor="middle" x="52" y="-178.5" font-family="Helvetica,sans-Serif" font-size="10.00">AbstractPresenter</text>
</a>
</g>
</g>
<!-- Node2 -->
<g id="node2" class="node"><title>Node2</title>
<g id="a_node2"><a xlink:href="classcom_1_1tomoparts_1_1tomoBay_1_1presenters_1_1admin_1_1AdminPresenter.html" target="_top" xlink:title="AdminPresenter">
<polygon fill="white" stroke="black" points="164.5,-342.5 164.5,-361.5 258.5,-361.5 258.5,-342.5 164.5,-342.5"/>
<text text-anchor="middle" x="211.5" y="-349.5" font-family="Helvetica,sans-Serif" font-size="10.00">AdminPresenter</text>
</a>
</g>
</g>
<!-- Node1&#45;&gt;Node2 -->
<g id="edge1" class="edge"><title>Node1&#45;&gt;Node2</title>
<path fill="none" stroke="midnightblue" d="M58.612,-200.203C69.0981,-232.634 94.7948,-298.126 140,-333 147.126,-338.497 155.722,-342.407 164.425,-345.187"/>
<polygon fill="midnightblue" stroke="midnightblue" points="61.9297,-199.084 55.6328,-190.564 55.2419,-201.151 61.9297,-199.084"/>
</g>
<!-- Node3 -->
<g id="node3" class="node"><title>Node3</title>
<g id="a_node3"><a xlink:href="classcom_1_1tomoparts_1_1tomoBay_1_1presenters_1_1crm_1_1CRMDetailPresenter.html" target="_top" xlink:title="CRMDetailPresenter">
<polygon fill="white" stroke="black" points="155.5,-304.5 155.5,-323.5 267.5,-323.5 267.5,-304.5 155.5,-304.5"/>
<text text-anchor="middle" x="211.5" y="-311.5" font-family="Helvetica,sans-Serif" font-size="10.00">CRMDetailPresenter</text>
</a>
</g>
</g>
<!-- Node1&#45;&gt;Node3 -->
<g id="edge2" class="edge"><title>Node1&#45;&gt;Node3</title>
<path fill="none" stroke="midnightblue" d="M62.1862,-199.661C75.6884,-225.12 103.317,-270.381 140,-295 145.789,-298.885 152.345,-301.978 159.07,-304.44"/>
<polygon fill="midnightblue" stroke="midnightblue" points="65.2482,-197.961 57.5678,-190.663 59.0207,-201.158 65.2482,-197.961"/>
</g>
<!-- Node4 -->
<g id="node4" class="node"><title>Node4</title>
<g id="a_node4"><a xlink:href="classcom_1_1tomoparts_1_1tomoBay_1_1presenters_1_1crm_1_1CRMOverviewPresenter.html" target="_top" xlink:title="CRMOverviewPresenter">
<polygon fill="white" stroke="black" points="148,-266.5 148,-285.5 275,-285.5 275,-266.5 148,-266.5"/>
<text text-anchor="middle" x="211.5" y="-273.5" font-family="Helvetica,sans-Serif" font-size="10.00">CRMOverviewPresenter</text>
</a>
</g>
</g>
<!-- Node1&#45;&gt;Node4 -->
<g id="edge3" class="edge"><title>Node1&#45;&gt;Node4</title>
<path fill="none" stroke="midnightblue" d="M68.3738,-198.441C84.5514,-215.745 111.572,-241.814 140,-257 147.156,-260.823 155.14,-263.921 163.091,-266.419"/>
<polygon fill="midnightblue" stroke="midnightblue" points="70.6699,-195.764 61.3444,-190.736 65.4988,-200.482 70.6699,-195.764"/>
</g>
<!-- Node5 -->
<g id="node5" class="node"><title>Node5</title>
<g id="a_node5"><a xlink:href="classcom_1_1tomoparts_1_1tomoBay_1_1presenters_1_1error_1_1ErrorPresenter.html" target="_top" xlink:title="This class provides the presenter for the scenario in which the designer of the frontend has supplied...">
<polygon fill="white" stroke="black" points="168.5,-228.5 168.5,-247.5 254.5,-247.5 254.5,-228.5 168.5,-228.5"/>
<text text-anchor="middle" x="211.5" y="-235.5" font-family="Helvetica,sans-Serif" font-size="10.00">ErrorPresenter</text>
</a>
</g>
</g>
<!-- Node1&#45;&gt;Node5 -->
<g id="edge4" class="edge"><title>Node1&#45;&gt;Node5</title>
<path fill="none" stroke="midnightblue" d="M81.9393,-194.931C98.6618,-202.653 120.239,-212.065 140,-219 149.928,-222.484 160.829,-225.706 171.028,-228.47"/>
<polygon fill="midnightblue" stroke="midnightblue" points="83.2458,-191.678 72.7048,-190.611 80.2798,-198.019 83.2458,-191.678"/>
</g>
<!-- Node6 -->
<g id="node6" class="node"><title>Node6</title>
<g id="a_node6"><a xlink:href="classcom_1_1tomoparts_1_1tomoBay_1_1presenters_1_1orderDetails_1_1OrderDetailsPresenter.html" target="_top" xlink:title="OrderDetailsPresenter">
<polygon fill="white" stroke="black" points="150,-190.5 150,-209.5 273,-209.5 273,-190.5 150,-190.5"/>
<text text-anchor="middle" x="211.5" y="-197.5" font-family="Helvetica,sans-Serif" font-size="10.00">OrderDetailsPresenter</text>
</a>
</g>
</g>
<!-- Node1&#45;&gt;Node6 -->
<g id="edge5" class="edge"><title>Node1&#45;&gt;Node6</title>
<path fill="none" stroke="midnightblue" d="M114.22,-188.385C125.885,-189.793 138.091,-191.265 149.742,-192.67"/>
<polygon fill="midnightblue" stroke="midnightblue" points="114.483,-184.892 104.136,-187.169 113.645,-191.841 114.483,-184.892"/>
</g>
<!-- Node7 -->
<g id="node7" class="node"><title>Node7</title>
<g id="a_node7"><a xlink:href="classcom_1_1tomoparts_1_1tomoBay_1_1presenters_1_1root_1_1RootPresenter.html" target="_top" xlink:title="this is the presenter for the root of the webApp. ">
<polygon fill="white" stroke="black" points="169,-152.5 169,-171.5 254,-171.5 254,-152.5 169,-152.5"/>
<text text-anchor="middle" x="211.5" y="-159.5" font-family="Helvetica,sans-Serif" font-size="10.00">RootPresenter</text>
</a>
</g>
</g>
<!-- Node1&#45;&gt;Node7 -->
<g id="edge6" class="edge"><title>Node1&#45;&gt;Node7</title>
<path fill="none" stroke="midnightblue" d="M114.137,-173.625C132.436,-171.417 152.072,-169.048 168.814,-167.029"/>
<polygon fill="midnightblue" stroke="midnightblue" points="113.645,-170.159 104.136,-174.831 114.483,-177.108 113.645,-170.159"/>
</g>
<!-- Node8 -->
<g id="node8" class="node"><title>Node8</title>
<g id="a_node8"><a xlink:href="classcom_1_1tomoparts_1_1tomoBay_1_1presenters_1_1sales_1_1OutOfHoursPresenter.html" target="_top" xlink:title="OutOfHoursPresenter">
<polygon fill="white" stroke="black" points="152,-114.5 152,-133.5 271,-133.5 271,-114.5 152,-114.5"/>
<text text-anchor="middle" x="211.5" y="-121.5" font-family="Helvetica,sans-Serif" font-size="10.00">OutOfHoursPresenter</text>
</a>
</g>
</g>
<!-- Node1&#45;&gt;Node8 -->
<g id="edge7" class="edge"><title>Node1&#45;&gt;Node8</title>
<path fill="none" stroke="midnightblue" d="M81.9393,-167.069C98.6618,-159.347 120.239,-149.935 140,-143 149.928,-139.516 160.829,-136.294 171.028,-133.53"/>
<polygon fill="midnightblue" stroke="midnightblue" points="80.2798,-163.981 72.7048,-171.389 83.2458,-170.322 80.2798,-163.981"/>
</g>
<!-- Node9 -->
<g id="node9" class="node"><title>Node9</title>
<g id="a_node9"><a xlink:href="classcom_1_1tomoparts_1_1tomoBay_1_1presenters_1_1sales_1_1SalesHistoryPresenter.html" target="_top" xlink:title="This class represents the History presenter of the Sales area of the WebApp. ">
<polygon fill="white" stroke="black" points="150,-76.5 150,-95.5 273,-95.5 273,-76.5 150,-76.5"/>
<text text-anchor="middle" x="211.5" y="-83.5" font-family="Helvetica,sans-Serif" font-size="10.00">SalesHistoryPresenter</text>
</a>
</g>
</g>
<!-- Node1&#45;&gt;Node9 -->
<g id="edge8" class="edge"><title>Node1&#45;&gt;Node9</title>
<path fill="none" stroke="midnightblue" d="M68.3738,-163.559C84.5514,-146.255 111.572,-120.186 140,-105 147.156,-101.177 155.14,-98.0786 163.091,-95.5806"/>
<polygon fill="midnightblue" stroke="midnightblue" points="65.4988,-161.518 61.3444,-171.264 70.6699,-166.236 65.4988,-161.518"/>
</g>
<!-- Node10 -->
<g id="node10" class="node"><title>Node10</title>
<g id="a_node10"><a xlink:href="classcom_1_1tomoparts_1_1tomoBay_1_1presenters_1_1sales_1_1SalesOrderPresenter.html" target="_top" xlink:title="This class is responsible for providing the dynamic data to the orders section of the sales &#39;Orders&#39; ...">
<polygon fill="white" stroke="black" points="153.5,-38.5 153.5,-57.5 269.5,-57.5 269.5,-38.5 153.5,-38.5"/>
<text text-anchor="middle" x="211.5" y="-45.5" font-family="Helvetica,sans-Serif" font-size="10.00">SalesOrderPresenter</text>
</a>
</g>
</g>
<!-- Node1&#45;&gt;Node10 -->
<g id="edge9" class="edge"><title>Node1&#45;&gt;Node10</title>
<path fill="none" stroke="midnightblue" d="M62.1862,-162.339C75.6884,-136.88 103.317,-91.6189 140,-67 145.789,-63.1148 152.345,-60.022 159.07,-57.5605"/>
<polygon fill="midnightblue" stroke="midnightblue" points="59.0207,-160.842 57.5678,-171.337 65.2482,-164.039 59.0207,-160.842"/>
</g>
<!-- Node11 -->
<g id="node11" class="node"><title>Node11</title>
<g id="a_node11"><a xlink:href="classcom_1_1tomoparts_1_1tomoBay_1_1presenters_1_1warehouse_1_1WarehouseOrderPresenter.html" target="_top" xlink:title="This class is responsible for providing the dynamic information specific to the picking area of the w...">
<polygon fill="white" stroke="black" points="140,-0.5 140,-19.5 283,-19.5 283,-0.5 140,-0.5"/>
<text text-anchor="middle" x="211.5" y="-7.5" font-family="Helvetica,sans-Serif" font-size="10.00">WarehouseOrderPresenter</text>
</a>
</g>
</g>
<!-- Node1&#45;&gt;Node11 -->
<g id="edge10" class="edge"><title>Node1&#45;&gt;Node11</title>
<path fill="none" stroke="midnightblue" d="M58.612,-161.797C69.0981,-129.366 94.7948,-63.8741 140,-29 145.018,-25.1285 150.766,-22.0446 156.766,-19.5882"/>
<polygon fill="midnightblue" stroke="midnightblue" points="55.2419,-160.849 55.6328,-171.436 61.9297,-162.916 55.2419,-160.849"/>
</g>
</g>
</svg>
