<?xml version="1.0" encoding="UTF-8" standalone="no"?>
<!DOCTYPE svg PUBLIC "-//W3C//DTD SVG 1.1//EN"
 "http://www.w3.org/Graphics/SVG/1.1/DTD/svg11.dtd">
<!-- Generated by graphviz version 2.38.0 (20140413.2041)
 -->
<!-- Title: Graphical Class Hierarchy Pages: 1 -->
<svg width="235pt" height="88pt"
 viewBox="0.00 0.00 235.00 88.00" xmlns="http://www.w3.org/2000/svg" xmlns:xlink="http://www.w3.org/1999/xlink">
<g id="graph0" class="graph" transform="scale(1 1) rotate(0) translate(4 84)">
<title>Graphical Class Hierarchy</title>
<polygon fill="white" stroke="none" points="-4,4 -4,-84 231,-84 231,4 -4,4"/>
<!-- Node1 -->
<g id="node1" class="node"><title>Node1</title>
<polygon fill="white" stroke="#bfbfbf" points="0,-30 0,-49 52,-49 52,-30 0,-30"/>
<text text-anchor="middle" x="26" y="-37" font-family="Helvetica,sans-Serif" font-size="10.00">Iterator</text>
</g>
<!-- Node2 -->
<g id="node2" class="node"><title>Node2</title>
<g id="a_node2"><a xlink:href="classcom_1_1tomoparts_1_1tomoBay_1_1model_1_1dataTypes_1_1DataSetList_1_1DataSetListIterator.html" target="_top" xlink:title="DataSetList\&lt; K, V \&gt;\l.DataSetListIterator\&lt; T \&gt;">
<polygon fill="white" stroke="black" points="88,-49.5 88,-79.5 227,-79.5 227,-49.5 88,-49.5"/>
<text text-anchor="start" x="96" y="-67.5" font-family="Helvetica,sans-Serif" font-size="10.00">DataSetList&lt; K, V &gt;</text>
<text text-anchor="middle" x="157.5" y="-56.5" font-family="Helvetica,sans-Serif" font-size="10.00">.DataSetListIterator&lt; T &gt;</text>
</a>
</g>
</g>
<!-- Node1&#45;&gt;Node2 -->
<g id="edge1" class="edge"><title>Node1&#45;&gt;Node2</title>
<path fill="none" stroke="midnightblue" d="M62.316,-46.3178C70.3309,-47.865 79.1101,-49.5599 87.9839,-51.2729"/>
<polygon fill="midnightblue" stroke="midnightblue" points="62.7585,-42.8386 52.2763,-44.3796 61.4316,-49.7117 62.7585,-42.8386"/>
</g>
<!-- Node3 -->
<g id="node3" class="node"><title>Node3</title>
<g id="a_node3"><a xlink:href="classcom_1_1tomoparts_1_1tomoBay_1_1model_1_1dataTypes_1_1DualList_1_1childIterator.html" target="_top" xlink:title="this private inner class provides an iterator for the above ">
<polygon fill="white" stroke="black" points="90.5,-0.5 90.5,-30.5 224.5,-30.5 224.5,-0.5 90.5,-0.5"/>
<text text-anchor="start" x="98.5" y="-18.5" font-family="Helvetica,sans-Serif" font-size="10.00">DualList&lt; V1, V2 &gt;.child</text>
<text text-anchor="middle" x="157.5" y="-7.5" font-family="Helvetica,sans-Serif" font-size="10.00">Iterator</text>
</a>
</g>
</g>
<!-- Node1&#45;&gt;Node3 -->
<g id="edge2" class="edge"><title>Node1&#45;&gt;Node3</title>
<path fill="none" stroke="midnightblue" d="M62.1265,-32.9901C70.927,-31.3591 80.6583,-29.5556 90.4296,-27.7447"/>
<polygon fill="midnightblue" stroke="midnightblue" points="61.4711,-29.5519 52.2763,-34.8156 62.7467,-36.4347 61.4711,-29.5519"/>
</g>
</g>
</svg>
