<?xml version="1.0" encoding="UTF-8" standalone="no"?>
<!DOCTYPE svg PUBLIC "-//W3C//DTD SVG 1.1//EN"
 "http://www.w3.org/Graphics/SVG/1.1/DTD/svg11.dtd">
<!-- Generated by graphviz version 2.38.0 (20140413.2041)
 -->
<!-- Title: Graphical Class Hierarchy Pages: 1 -->
<svg width="345pt" height="116pt"
 viewBox="0.00 0.00 345.00 115.50" xmlns="http://www.w3.org/2000/svg" xmlns:xlink="http://www.w3.org/1999/xlink">
<g id="graph0" class="graph" transform="scale(1 1) rotate(0) translate(4 111.5)">
<title>Graphical Class Hierarchy</title>
<polygon fill="white" stroke="none" points="-4,4 -4,-111.5 341,-111.5 341,4 -4,4"/>
<!-- Node1 -->
<g id="node1" class="node"><title>Node1</title>
<g id="a_node1"><a xlink:href="interfacecom_1_1tomoparts_1_1tomoBay_1_1model_1_1dataTypes_1_1financial_1_1SalesOrderDayBook_1_1a38f4d3f32912069bfc4d3f63627866d.html" target="_top" xlink:title="AbstractSalesDayBookLine\lFactory">
<polygon fill="white" stroke="black" points="0,-44.5 0,-74.5 146,-74.5 146,-44.5 0,-44.5"/>
<text text-anchor="start" x="8" y="-62.5" font-family="Helvetica,sans-Serif" font-size="10.00">AbstractSalesDayBookLine</text>
<text text-anchor="middle" x="73" y="-51.5" font-family="Helvetica,sans-Serif" font-size="10.00">Factory</text>
</a>
</g>
</g>
<!-- Node2 -->
<g id="node2" class="node"><title>Node2</title>
<g id="a_node2"><a xlink:href="classcom_1_1tomoparts_1_1tomoBay_1_1model_1_1dataTypes_1_1financial_1_1SalesOrderDayBook_1_1factories_1_1GSPInvoiceFactory.html" target="_top" xlink:title="GSPInvoiceFactory">
<polygon fill="white" stroke="black" points="207,-88 207,-107 312,-107 312,-88 207,-88"/>
<text text-anchor="middle" x="259.5" y="-95" font-family="Helvetica,sans-Serif" font-size="10.00">GSPInvoiceFactory</text>
</a>
</g>
</g>
<!-- Node1&#45;&gt;Node2 -->
<g id="edge1" class="edge"><title>Node1&#45;&gt;Node2</title>
<path fill="none" stroke="midnightblue" d="M156.117,-76.413C175.363,-80.3769 195.204,-84.4634 212.235,-87.9711"/>
<polygon fill="midnightblue" stroke="midnightblue" points="156.626,-72.9444 146.125,-74.3551 155.214,-79.8005 156.626,-72.9444"/>
</g>
<!-- Node3 -->
<g id="node3" class="node"><title>Node3</title>
<g id="a_node3"><a xlink:href="classcom_1_1tomoparts_1_1tomoBay_1_1model_1_1dataTypes_1_1financial_1_1SalesOrderDayBook_1_1factories_1_1StandardInvoiceFactory.html" target="_top" xlink:title="StandardInvoiceFactory">
<polygon fill="white" stroke="black" points="195,-50 195,-69 324,-69 324,-50 195,-50"/>
<text text-anchor="middle" x="259.5" y="-57" font-family="Helvetica,sans-Serif" font-size="10.00">StandardInvoiceFactory</text>
</a>
</g>
</g>
<!-- Node1&#45;&gt;Node3 -->
<g id="edge2" class="edge"><title>Node1&#45;&gt;Node3</title>
<path fill="none" stroke="midnightblue" d="M156.389,-59.5C169.281,-59.5 182.433,-59.5 194.822,-59.5"/>
<polygon fill="midnightblue" stroke="midnightblue" points="156.125,-56.0001 146.125,-59.5 156.125,-63.0001 156.125,-56.0001"/>
</g>
<!-- Node4 -->
<g id="node4" class="node"><title>Node4</title>
<g id="a_node4"><a xlink:href="classcom_1_1tomoparts_1_1tomoBay_1_1model_1_1dataTypes_1_1financial_1_1SalesOrderDayBook_1_1fact707545dc5e0233d2b91fe6b2827e5abc.html" target="_top" xlink:title="StandardInvoiceWithShipping\lFactory">
<polygon fill="white" stroke="black" points="182,-0.5 182,-30.5 337,-30.5 337,-0.5 182,-0.5"/>
<text text-anchor="start" x="190" y="-18.5" font-family="Helvetica,sans-Serif" font-size="10.00">StandardInvoiceWithShipping</text>
<text text-anchor="middle" x="259.5" y="-7.5" font-family="Helvetica,sans-Serif" font-size="10.00">Factory</text>
</a>
</g>
</g>
<!-- Node1&#45;&gt;Node4 -->
<g id="edge3" class="edge"><title>Node1&#45;&gt;Node4</title>
<path fill="none" stroke="midnightblue" d="M146.864,-42.1231C162.943,-38.2888 179.844,-34.2582 195.492,-30.5262"/>
<polygon fill="midnightblue" stroke="midnightblue" points="145.894,-38.7564 136.978,-44.4808 147.518,-45.5654 145.894,-38.7564"/>
</g>
</g>
</svg>
