<?xml version="1.0" encoding="UTF-8" standalone="no"?>
<!DOCTYPE svg PUBLIC "-//W3C//DTD SVG 1.1//EN"
 "http://www.w3.org/Graphics/SVG/1.1/DTD/svg11.dtd">
<!-- Generated by graphviz version 2.38.0 (20140413.2041)
 -->
<!-- Title: Graphical Class Hierarchy Pages: 1 -->
<svg width="254pt" height="180pt"
 viewBox="0.00 0.00 254.00 180.00" xmlns="http://www.w3.org/2000/svg" xmlns:xlink="http://www.w3.org/1999/xlink">
<g id="graph0" class="graph" transform="scale(1 1) rotate(0) translate(4 176)">
<title>Graphical Class Hierarchy</title>
<polygon fill="white" stroke="none" points="-4,4 -4,-176 250,-176 250,4 -4,4"/>
<!-- Node1 -->
<g id="node1" class="node"><title>Node1</title>
<g id="a_node1"><a xlink:href="classcom_1_1tomoparts_1_1tomoBay_1_1model_1_1eBayAPI_1_1AbstractAPIcall.html" target="_top" xlink:title="This is the abstract base class for all the recievers in this command pattern, it provides a common w...">
<polygon fill="white" stroke="black" points="0,-76.5 0,-95.5 88,-95.5 88,-76.5 0,-76.5"/>
<text text-anchor="middle" x="44" y="-83.5" font-family="Helvetica,sans-Serif" font-size="10.00">AbstractAPIcall</text>
</a>
</g>
</g>
<!-- Node2 -->
<g id="node2" class="node"><title>Node2</title>
<g id="a_node2"><a xlink:href="classcom_1_1tomoparts_1_1tomoBay_1_1model_1_1eBayAPI_1_1GetSessionID.html" target="_top" xlink:title="GetSessionID">
<polygon fill="white" stroke="black" points="144.5,-152.5 144.5,-171.5 225.5,-171.5 225.5,-152.5 144.5,-152.5"/>
<text text-anchor="middle" x="185" y="-159.5" font-family="Helvetica,sans-Serif" font-size="10.00">GetSessionID</text>
</a>
</g>
</g>
<!-- Node1&#45;&gt;Node2 -->
<g id="edge1" class="edge"><title>Node1&#45;&gt;Node2</title>
<path fill="none" stroke="midnightblue" d="M63.484,-101.959C78.8332,-114.543 101.689,-131.783 124,-143 131.322,-146.681 139.503,-149.836 147.412,-152.457"/>
<polygon fill="midnightblue" stroke="midnightblue" points="65.6961,-99.2466 55.78,-95.5154 61.2049,-104.616 65.6961,-99.2466"/>
</g>
<!-- Node3 -->
<g id="node3" class="node"><title>Node3</title>
<g id="a_node3"><a xlink:href="classcom_1_1tomoparts_1_1tomoBay_1_1model_1_1eBayAPI_1_1ItemCall.html" target="_top" xlink:title="This class represents an eBay API call requesting Item Data. ">
<polygon fill="white" stroke="black" points="157,-114.5 157,-133.5 213,-133.5 213,-114.5 157,-114.5"/>
<text text-anchor="middle" x="185" y="-121.5" font-family="Helvetica,sans-Serif" font-size="10.00">ItemCall</text>
</a>
</g>
</g>
<!-- Node1&#45;&gt;Node3 -->
<g id="edge2" class="edge"><title>Node1&#45;&gt;Node3</title>
<path fill="none" stroke="midnightblue" d="M89.904,-98.2759C111.959,-104.305 137.809,-111.372 156.828,-116.572"/>
<polygon fill="midnightblue" stroke="midnightblue" points="90.6446,-94.85 80.0756,-95.589 88.7986,-101.602 90.6446,-94.85"/>
</g>
<!-- Node4 -->
<g id="node4" class="node"><title>Node4</title>
<g id="a_node4"><a xlink:href="classcom_1_1tomoparts_1_1tomoBay_1_1model_1_1eBayAPI_1_1ListingsCall.html" target="_top" xlink:title="This represents an eBay API call requesting information about a listing. ">
<polygon fill="white" stroke="black" points="150,-76.5 150,-95.5 220,-95.5 220,-76.5 150,-76.5"/>
<text text-anchor="middle" x="185" y="-83.5" font-family="Helvetica,sans-Serif" font-size="10.00">ListingsCall</text>
</a>
</g>
</g>
<!-- Node1&#45;&gt;Node4 -->
<g id="edge3" class="edge"><title>Node1&#45;&gt;Node4</title>
<path fill="none" stroke="midnightblue" d="M98.6643,-86C115.786,-86 134.262,-86 149.629,-86"/>
<polygon fill="midnightblue" stroke="midnightblue" points="98.2186,-82.5001 88.2185,-86 98.2185,-89.5001 98.2186,-82.5001"/>
</g>
<!-- Node5 -->
<g id="node5" class="node"><title>Node5</title>
<g id="a_node5"><a xlink:href="classcom_1_1tomoparts_1_1tomoBay_1_1model_1_1eBayAPI_1_1OrdersCall.html" target="_top" xlink:title="This represents an eBay API call that requests information about an order. ">
<polygon fill="white" stroke="black" points="152,-38.5 152,-57.5 218,-57.5 218,-38.5 152,-38.5"/>
<text text-anchor="middle" x="185" y="-45.5" font-family="Helvetica,sans-Serif" font-size="10.00">OrdersCall</text>
</a>
</g>
</g>
<!-- Node1&#45;&gt;Node5 -->
<g id="edge4" class="edge"><title>Node1&#45;&gt;Node5</title>
<path fill="none" stroke="midnightblue" d="M89.9785,-73.7037C110.127,-68.1956 133.429,-61.8253 151.794,-56.8045"/>
<polygon fill="midnightblue" stroke="midnightblue" points="88.7986,-70.3978 80.0756,-76.411 90.6446,-77.15 88.7986,-70.3978"/>
</g>
<!-- Node6 -->
<g id="node6" class="node"><title>Node6</title>
<g id="a_node6"><a xlink:href="classcom_1_1tomoparts_1_1tomoBay_1_1model_1_1eBayAPI_1_1OrderTransactionsCall.html" target="_top" xlink:title="OrderTransactionsCall">
<polygon fill="white" stroke="black" points="124,-0.5 124,-19.5 246,-19.5 246,-0.5 124,-0.5"/>
<text text-anchor="middle" x="185" y="-7.5" font-family="Helvetica,sans-Serif" font-size="10.00">OrderTransactionsCall</text>
</a>
</g>
</g>
<!-- Node1&#45;&gt;Node6 -->
<g id="edge5" class="edge"><title>Node1&#45;&gt;Node6</title>
<path fill="none" stroke="midnightblue" d="M63.484,-70.0407C78.8332,-57.4573 101.689,-40.2172 124,-29 131.322,-25.319 139.503,-22.1641 147.412,-19.5429"/>
<polygon fill="midnightblue" stroke="midnightblue" points="61.2049,-67.384 55.78,-76.4846 65.6961,-72.7534 61.2049,-67.384"/>
</g>
</g>
</svg>
