<?xml version="1.0" encoding="UTF-8" standalone="no"?>
<!DOCTYPE svg PUBLIC "-//W3C//DTD SVG 1.1//EN"
 "http://www.w3.org/Graphics/SVG/1.1/DTD/svg11.dtd">
<!-- Generated by graphviz version 2.38.0 (20140413.2041)
 -->
<!-- Title: Graphical Class Hierarchy Pages: 1 -->
<svg width="197pt" height="66pt"
 viewBox="0.00 0.00 197.00 66.00" xmlns="http://www.w3.org/2000/svg" xmlns:xlink="http://www.w3.org/1999/xlink">
<g id="graph0" class="graph" transform="scale(1 1) rotate(0) translate(4 62)">
<title>Graphical Class Hierarchy</title>
<polygon fill="white" stroke="none" points="-4,4 -4,-62 193,-62 193,4 -4,4"/>
<!-- Node1 -->
<g id="node1" class="node"><title>Node1</title>
<polygon fill="white" stroke="#bfbfbf" points="0,-19.5 0,-38.5 71,-38.5 71,-19.5 0,-19.5"/>
<text text-anchor="middle" x="35.5" y="-26.5" font-family="Helvetica,sans-Serif" font-size="10.00">HttpServlet</text>
</g>
<!-- Node2 -->
<g id="node2" class="node"><title>Node2</title>
<g id="a_node2"><a xlink:href="classcom_1_1tomoparts_1_1tomoBay_1_1view_1_1DataServlet.html" target="_top" xlink:title="This class represents the Data servlet that the webApp can query for a particular presenter which wil...">
<polygon fill="white" stroke="black" points="111,-38.5 111,-57.5 185,-57.5 185,-38.5 111,-38.5"/>
<text text-anchor="middle" x="148" y="-45.5" font-family="Helvetica,sans-Serif" font-size="10.00">DataServlet</text>
</a>
</g>
</g>
<!-- Node1&#45;&gt;Node2 -->
<g id="edge1" class="edge"><title>Node1&#45;&gt;Node2</title>
<path fill="none" stroke="midnightblue" d="M81.2303,-36.6912C91.1092,-38.3898 101.454,-40.1686 110.938,-41.7992"/>
<polygon fill="midnightblue" stroke="midnightblue" points="81.6082,-33.2049 71.1597,-34.9596 80.422,-40.1036 81.6082,-33.2049"/>
</g>
<!-- Node3 -->
<g id="node3" class="node"><title>Node3</title>
<g id="a_node3"><a xlink:href="classcom_1_1tomoparts_1_1tomoBay_1_1view_1_1RetardServlet.html" target="_top" xlink:title="RetardServlet">
<polygon fill="white" stroke="black" points="107,-0.5 107,-19.5 189,-19.5 189,-0.5 107,-0.5"/>
<text text-anchor="middle" x="148" y="-7.5" font-family="Helvetica,sans-Serif" font-size="10.00">RetardServlet</text>
</a>
</g>
</g>
<!-- Node1&#45;&gt;Node3 -->
<g id="edge2" class="edge"><title>Node1&#45;&gt;Node3</title>
<path fill="none" stroke="midnightblue" d="M81.2084,-21.3126C89.6299,-19.8645 98.3907,-18.3582 106.668,-16.9348"/>
<polygon fill="midnightblue" stroke="midnightblue" points="80.422,-17.8964 71.1597,-23.0404 81.6082,-24.7951 80.422,-17.8964"/>
</g>
</g>
</svg>
