<?xml version="1.0" encoding="UTF-8" standalone="no"?>
<!DOCTYPE svg PUBLIC "-//W3C//DTD SVG 1.1//EN"
 "http://www.w3.org/Graphics/SVG/1.1/DTD/svg11.dtd">
<!-- Generated by graphviz version 2.38.0 (20140413.2041)
 -->
<!-- Title: Graphical Class Hierarchy Pages: 1 -->
<svg width="239pt" height="142pt"
 viewBox="0.00 0.00 239.00 142.00" xmlns="http://www.w3.org/2000/svg" xmlns:xlink="http://www.w3.org/1999/xlink">
<g id="graph0" class="graph" transform="scale(1 1) rotate(0) translate(4 138)">
<title>Graphical Class Hierarchy</title>
<polygon fill="white" stroke="none" points="-4,4 -4,-138 235,-138 235,4 -4,4"/>
<!-- Node1 -->
<g id="node1" class="node"><title>Node1</title>
<g id="a_node1"><a xlink:href="classcom_1_1tomoparts_1_1tomoBay_1_1model_1_1dataTypes_1_1conditionalStatement_1_1Result.html" target="_top" xlink:title="This class defines the Abstract Base class for all derived Result classes. ">
<polygon fill="white" stroke="black" points="0,-57.5 0,-76.5 74,-76.5 74,-57.5 0,-57.5"/>
<text text-anchor="middle" x="37" y="-64.5" font-family="Helvetica,sans-Serif" font-size="10.00">Result&lt; T &gt;</text>
</a>
</g>
</g>
<!-- Node2 -->
<g id="node2" class="node"><title>Node2</title>
<g id="a_node2"><a xlink:href="classcom_1_1tomoparts_1_1tomoBay_1_1presenters_1_1helpers_1_1pickeability_1_1AllPickeableResult.html" target="_top" xlink:title="AllPickeableResult">
<polygon fill="white" stroke="black" points="119.5,-114.5 119.5,-133.5 221.5,-133.5 221.5,-114.5 119.5,-114.5"/>
<text text-anchor="middle" x="170.5" y="-121.5" font-family="Helvetica,sans-Serif" font-size="10.00">AllPickeableResult</text>
</a>
</g>
</g>
<!-- Node1&#45;&gt;Node2 -->
<g id="edge1" class="edge"><title>Node1&#45;&gt;Node2</title>
<path fill="none" stroke="midnightblue" d="M62.9622,-81.5728C76.5819,-89.1637 93.9044,-98.245 110,-105 118.299,-108.483 127.471,-111.705 136.078,-114.468"/>
<polygon fill="midnightblue" stroke="midnightblue" points="64.6117,-78.4847 54.1854,-76.6025 61.1623,-84.5758 64.6117,-78.4847"/>
</g>
<!-- Node3 -->
<g id="node3" class="node"><title>Node3</title>
<g id="a_node3"><a xlink:href="classcom_1_1tomoparts_1_1tomoBay_1_1presenters_1_1helpers_1_1pickeability_1_1ErrorResult.html" target="_top" xlink:title="ErrorResult">
<polygon fill="white" stroke="black" points="136,-76.5 136,-95.5 205,-95.5 205,-76.5 136,-76.5"/>
<text text-anchor="middle" x="170.5" y="-83.5" font-family="Helvetica,sans-Serif" font-size="10.00">ErrorResult</text>
</a>
</g>
</g>
<!-- Node1&#45;&gt;Node3 -->
<g id="edge2" class="edge"><title>Node1&#45;&gt;Node3</title>
<path fill="none" stroke="midnightblue" d="M84.4875,-73.7168C101.335,-76.1511 120.034,-78.8529 135.595,-81.1012"/>
<polygon fill="midnightblue" stroke="midnightblue" points="84.6788,-70.2082 74.2811,-72.2421 83.6777,-77.1363 84.6788,-70.2082"/>
</g>
<!-- Node4 -->
<g id="node4" class="node"><title>Node4</title>
<g id="a_node4"><a xlink:href="classcom_1_1tomoparts_1_1tomoBay_1_1presenters_1_1helpers_1_1pickeability_1_1PartialPickeableResult.html" target="_top" xlink:title="PartialPickeableResult">
<polygon fill="white" stroke="black" points="110,-38.5 110,-57.5 231,-57.5 231,-38.5 110,-38.5"/>
<text text-anchor="middle" x="170.5" y="-45.5" font-family="Helvetica,sans-Serif" font-size="10.00">PartialPickeableResult</text>
</a>
</g>
</g>
<!-- Node1&#45;&gt;Node4 -->
<g id="edge3" class="edge"><title>Node1&#45;&gt;Node4</title>
<path fill="none" stroke="midnightblue" d="M84.4232,-60.2925C92.6519,-59.1035 101.324,-57.8506 109.857,-56.6176"/>
<polygon fill="midnightblue" stroke="midnightblue" points="83.6777,-56.8637 74.2811,-61.7579 84.6788,-63.7918 83.6777,-56.8637"/>
</g>
<!-- Node5 -->
<g id="node5" class="node"><title>Node5</title>
<g id="a_node5"><a xlink:href="classcom_1_1tomoparts_1_1tomoBay_1_1presenters_1_1helpers_1_1pickeability_1_1UnPickeableResult.html" target="_top" xlink:title="UnPickeableResult">
<polygon fill="white" stroke="black" points="118.5,-0.5 118.5,-19.5 222.5,-19.5 222.5,-0.5 118.5,-0.5"/>
<text text-anchor="middle" x="170.5" y="-7.5" font-family="Helvetica,sans-Serif" font-size="10.00">UnPickeableResult</text>
</a>
</g>
</g>
<!-- Node1&#45;&gt;Node5 -->
<g id="edge4" class="edge"><title>Node1&#45;&gt;Node5</title>
<path fill="none" stroke="midnightblue" d="M62.9622,-52.4272C76.5819,-44.8363 93.9044,-35.755 110,-29 118.299,-25.517 127.471,-22.2953 136.078,-19.5316"/>
<polygon fill="midnightblue" stroke="midnightblue" points="61.1623,-49.4242 54.1854,-57.3975 64.6117,-55.5153 61.1623,-49.4242"/>
</g>
</g>
</svg>
