<?xml version="1.0" encoding="UTF-8" standalone="no"?>
<!DOCTYPE svg PUBLIC "-//W3C//DTD SVG 1.1//EN"
 "http://www.w3.org/Graphics/SVG/1.1/DTD/svg11.dtd">
<!-- Generated by graphviz version 2.38.0 (20140413.2041)
 -->
<!-- Title: Graphical Class Hierarchy Pages: 1 -->
<svg width="347pt" height="332pt"
 viewBox="0.00 0.00 347.00 332.00" xmlns="http://www.w3.org/2000/svg" xmlns:xlink="http://www.w3.org/1999/xlink">
<g id="graph0" class="graph" transform="scale(1 1) rotate(0) translate(4 328)">
<title>Graphical Class Hierarchy</title>
<polygon fill="white" stroke="none" points="-4,4 -4,-328 343,-328 343,4 -4,4"/>
<!-- Node1 -->
<g id="node1" class="node"><title>Node1</title>
<g id="a_node1"><a xlink:href="interfacecom_1_1tomoparts_1_1tomoBay_1_1presenters_1_1factories_1_1AbstractPresenterFactory.html" target="_top" xlink:title="This is the interface that all presenter factories should subscribe to. ">
<polygon fill="white" stroke="black" points="0,-152.5 0,-171.5 139,-171.5 139,-152.5 0,-152.5"/>
<text text-anchor="middle" x="69.5" y="-159.5" font-family="Helvetica,sans-Serif" font-size="10.00">AbstractPresenterFactory</text>
</a>
</g>
</g>
<!-- Node2 -->
<g id="node2" class="node"><title>Node2</title>
<g id="a_node2"><a xlink:href="classcom_1_1tomoparts_1_1tomoBay_1_1presenters_1_1factories_1_1AdminServicePresenterFactory.html" target="_top" xlink:title="Copyright(C) 2015 Jan P.C. ">
<polygon fill="white" stroke="black" points="175,-304.5 175,-323.5 339,-323.5 339,-304.5 175,-304.5"/>
<text text-anchor="middle" x="257" y="-311.5" font-family="Helvetica,sans-Serif" font-size="10.00">AdminServicePresenterFactory</text>
</a>
</g>
</g>
<!-- Node1&#45;&gt;Node2 -->
<g id="edge1" class="edge"><title>Node1&#45;&gt;Node2</title>
<path fill="none" stroke="midnightblue" d="M79.7681,-180.62C95.2872,-209.786 129.374,-265.908 175,-295 181.09,-298.883 187.89,-301.974 194.892,-304.434"/>
<polygon fill="midnightblue" stroke="midnightblue" points="82.7645,-178.795 75.0647,-171.517 76.5455,-182.008 82.7645,-178.795"/>
</g>
<!-- Node3 -->
<g id="node3" class="node"><title>Node3</title>
<g id="a_node3"><a xlink:href="classcom_1_1tomoparts_1_1tomoBay_1_1presenters_1_1factories_1_1CRMDetailPresenterFactory.html" target="_top" xlink:title="Copyright(C) 2015 Jan P.C. ">
<polygon fill="white" stroke="black" points="183.5,-266.5 183.5,-285.5 330.5,-285.5 330.5,-266.5 183.5,-266.5"/>
<text text-anchor="middle" x="257" y="-273.5" font-family="Helvetica,sans-Serif" font-size="10.00">CRMDetailPresenterFactory</text>
</a>
</g>
</g>
<!-- Node1&#45;&gt;Node3 -->
<g id="edge2" class="edge"><title>Node1&#45;&gt;Node3</title>
<path fill="none" stroke="midnightblue" d="M84.4821,-179.246C102.92,-200.801 137.45,-237.255 175,-257 182.415,-260.899 190.628,-264.007 198.896,-266.481"/>
<polygon fill="midnightblue" stroke="midnightblue" points="87.1223,-176.947 78.0208,-171.523 81.7536,-181.439 87.1223,-176.947"/>
</g>
<!-- Node4 -->
<g id="node4" class="node"><title>Node4</title>
<g id="a_node4"><a xlink:href="classcom_1_1tomoparts_1_1tomoBay_1_1presenters_1_1factories_1_1CRMOverviewPresenterFactory.html" target="_top" xlink:title="Copyright(C) 2015 Jan P.C. ">
<polygon fill="white" stroke="black" points="176,-228.5 176,-247.5 338,-247.5 338,-228.5 176,-228.5"/>
<text text-anchor="middle" x="257" y="-235.5" font-family="Helvetica,sans-Serif" font-size="10.00">CRMOverviewPresenterFactory</text>
</a>
</g>
</g>
<!-- Node1&#45;&gt;Node4 -->
<g id="edge3" class="edge"><title>Node1&#45;&gt;Node4</title>
<path fill="none" stroke="midnightblue" d="M93.7968,-177.09C114.418,-189.855 145.703,-207.809 175,-219 184.715,-222.711 195.373,-225.837 205.674,-228.415"/>
<polygon fill="midnightblue" stroke="midnightblue" points="95.4469,-173.993 85.1183,-171.632 91.7205,-179.919 95.4469,-173.993"/>
</g>
<!-- Node5 -->
<g id="node5" class="node"><title>Node5</title>
<g id="a_node5"><a xlink:href="classcom_1_1tomoparts_1_1tomoBay_1_1presenters_1_1factories_1_1ErrorPresenterFactory.html" target="_top" xlink:title="This class is creates an ErrorPresenter object. ">
<polygon fill="white" stroke="black" points="196,-190.5 196,-209.5 318,-209.5 318,-190.5 196,-190.5"/>
<text text-anchor="middle" x="257" y="-197.5" font-family="Helvetica,sans-Serif" font-size="10.00">ErrorPresenterFactory</text>
</a>
</g>
</g>
<!-- Node1&#45;&gt;Node5 -->
<g id="edge4" class="edge"><title>Node1&#45;&gt;Node5</title>
<path fill="none" stroke="midnightblue" d="M127.173,-173.61C153.555,-179.014 184.551,-185.364 209.527,-190.48"/>
<polygon fill="midnightblue" stroke="midnightblue" points="127.808,-170.167 117.309,-171.589 126.404,-177.025 127.808,-170.167"/>
</g>
<!-- Node6 -->
<g id="node6" class="node"><title>Node6</title>
<g id="a_node6"><a xlink:href="classcom_1_1tomoparts_1_1tomoBay_1_1presenters_1_1factories_1_1OrderDetailsPresenterFactory.html" target="_top" xlink:title="OrderDetailsPresenterFactory">
<polygon fill="white" stroke="black" points="178,-152.5 178,-171.5 336,-171.5 336,-152.5 178,-152.5"/>
<text text-anchor="middle" x="257" y="-159.5" font-family="Helvetica,sans-Serif" font-size="10.00">OrderDetailsPresenterFactory</text>
</a>
</g>
</g>
<!-- Node1&#45;&gt;Node6 -->
<g id="edge5" class="edge"><title>Node1&#45;&gt;Node6</title>
<path fill="none" stroke="midnightblue" d="M149.196,-162C158.64,-162 168.282,-162 177.72,-162"/>
<polygon fill="midnightblue" stroke="midnightblue" points="149.046,-158.5 139.046,-162 149.046,-165.5 149.046,-158.5"/>
</g>
<!-- Node7 -->
<g id="node7" class="node"><title>Node7</title>
<g id="a_node7"><a xlink:href="classcom_1_1tomoparts_1_1tomoBay_1_1presenters_1_1factories_1_1OutOfHoursPresenterFactory.html" target="_top" xlink:title="Copyright(C) 2015 Jan P.C. ">
<polygon fill="white" stroke="black" points="179.5,-114.5 179.5,-133.5 334.5,-133.5 334.5,-114.5 179.5,-114.5"/>
<text text-anchor="middle" x="257" y="-121.5" font-family="Helvetica,sans-Serif" font-size="10.00">OutOfHoursPresenterFactory</text>
</a>
</g>
</g>
<!-- Node1&#45;&gt;Node7 -->
<g id="edge6" class="edge"><title>Node1&#45;&gt;Node7</title>
<path fill="none" stroke="midnightblue" d="M127.173,-150.39C153.555,-144.986 184.551,-138.636 209.527,-133.52"/>
<polygon fill="midnightblue" stroke="midnightblue" points="126.404,-146.975 117.309,-152.411 127.808,-153.833 126.404,-146.975"/>
</g>
<!-- Node8 -->
<g id="node8" class="node"><title>Node8</title>
<g id="a_node8"><a xlink:href="classcom_1_1tomoparts_1_1tomoBay_1_1presenters_1_1factories_1_1RootPresenterFactory.html" target="_top" xlink:title="This class is creates an RootPresenter object. ">
<polygon fill="white" stroke="black" points="197,-76.5 197,-95.5 317,-95.5 317,-76.5 197,-76.5"/>
<text text-anchor="middle" x="257" y="-83.5" font-family="Helvetica,sans-Serif" font-size="10.00">RootPresenterFactory</text>
</a>
</g>
</g>
<!-- Node1&#45;&gt;Node8 -->
<g id="edge7" class="edge"><title>Node1&#45;&gt;Node8</title>
<path fill="none" stroke="midnightblue" d="M93.7968,-146.91C114.418,-134.145 145.703,-116.191 175,-105 184.715,-101.289 195.373,-98.1625 205.674,-95.5853"/>
<polygon fill="midnightblue" stroke="midnightblue" points="91.7205,-144.081 85.1183,-152.368 95.4469,-150.007 91.7205,-144.081"/>
</g>
<!-- Node9 -->
<g id="node9" class="node"><title>Node9</title>
<g id="a_node9"><a xlink:href="classcom_1_1tomoparts_1_1tomoBay_1_1presenters_1_1factories_1_1SalesHistoryPresenterFactory.html" target="_top" xlink:title="Copyright(C) 2015 Jan P.C. ">
<polygon fill="white" stroke="black" points="178,-38.5 178,-57.5 336,-57.5 336,-38.5 178,-38.5"/>
<text text-anchor="middle" x="257" y="-45.5" font-family="Helvetica,sans-Serif" font-size="10.00">SalesHistoryPresenterFactory</text>
</a>
</g>
</g>
<!-- Node1&#45;&gt;Node9 -->
<g id="edge8" class="edge"><title>Node1&#45;&gt;Node9</title>
<path fill="none" stroke="midnightblue" d="M84.4821,-144.754C102.92,-123.199 137.45,-86.7454 175,-67 182.415,-63.1009 190.628,-59.9933 198.896,-57.5187"/>
<polygon fill="midnightblue" stroke="midnightblue" points="81.7536,-142.561 78.0208,-152.477 87.1223,-147.053 81.7536,-142.561"/>
</g>
<!-- Node10 -->
<g id="node10" class="node"><title>Node10</title>
<g id="a_node10"><a xlink:href="classcom_1_1tomoparts_1_1tomoBay_1_1presenters_1_1factories_1_1SalesOrderPresenterFactory.html" target="_top" xlink:title="This class is creates an SalesOrderPresenter object. ">
<polygon fill="white" stroke="black" points="181,-0.5 181,-19.5 333,-19.5 333,-0.5 181,-0.5"/>
<text text-anchor="middle" x="257" y="-7.5" font-family="Helvetica,sans-Serif" font-size="10.00">SalesOrderPresenterFactory</text>
</a>
</g>
</g>
<!-- Node1&#45;&gt;Node10 -->
<g id="edge9" class="edge"><title>Node1&#45;&gt;Node10</title>
<path fill="none" stroke="midnightblue" d="M79.7681,-143.38C95.2872,-114.214 129.374,-58.0918 175,-29 181.09,-25.1172 187.89,-22.0264 194.892,-19.5662"/>
<polygon fill="midnightblue" stroke="midnightblue" points="76.5455,-141.992 75.0647,-152.483 82.7645,-145.205 76.5455,-141.992"/>
</g>
</g>
</svg>
