<?xml version="1.0" encoding="UTF-8" standalone="no"?>
<!DOCTYPE svg PUBLIC "-//W3C//DTD SVG 1.1//EN"
 "http://www.w3.org/Graphics/SVG/1.1/DTD/svg11.dtd">
<!-- Generated by graphviz version 2.38.0 (20140413.2041)
 -->
<!-- Title: Graphical Class Hierarchy Pages: 1 -->
<svg width="231pt" height="256pt"
 viewBox="0.00 0.00 231.00 256.00" xmlns="http://www.w3.org/2000/svg" xmlns:xlink="http://www.w3.org/1999/xlink">
<g id="graph0" class="graph" transform="scale(1 1) rotate(0) translate(4 252)">
<title>Graphical Class Hierarchy</title>
<polygon fill="white" stroke="none" points="-4,4 -4,-252 227,-252 227,4 -4,4"/>
<!-- Node1 -->
<g id="node1" class="node"><title>Node1</title>
<g id="a_node1"><a xlink:href="interfacecom_1_1tomoparts_1_1tomoBay_1_1model_1_1services_1_1AbstractServiceState.html" target="_top" xlink:title="Copyright(C) 2015 Jan P.C. ">
<polygon fill="white" stroke="black" points="0,-114.5 0,-133.5 119,-133.5 119,-114.5 0,-114.5"/>
<text text-anchor="middle" x="59.5" y="-121.5" font-family="Helvetica,sans-Serif" font-size="10.00">AbstractServiceState</text>
</a>
</g>
</g>
<!-- Node2 -->
<g id="node2" class="node"><title>Node2</title>
<g id="a_node2"><a xlink:href="classcom_1_1tomoparts_1_1tomoBay_1_1model_1_1services_1_1basicEbayUpdateService_1_1OnRunning.html" target="_top" xlink:title="OnRunning">
<polygon fill="white" stroke="black" points="155,-228.5 155,-247.5 223,-247.5 223,-228.5 155,-228.5"/>
<text text-anchor="middle" x="189" y="-235.5" font-family="Helvetica,sans-Serif" font-size="10.00">OnRunning</text>
</a>
</g>
</g>
<!-- Node1&#45;&gt;Node2 -->
<g id="edge1" class="edge"><title>Node1&#45;&gt;Node2</title>
<path fill="none" stroke="midnightblue" d="M75.3372,-141.517C92.9973,-161.715 124.011,-195.186 155,-219 159.403,-222.384 164.47,-225.593 169.29,-228.377"/>
<polygon fill="midnightblue" stroke="midnightblue" points="77.8087,-139.024 68.6251,-133.741 72.5095,-143.598 77.8087,-139.024"/>
</g>
<!-- Node3 -->
<g id="node3" class="node"><title>Node3</title>
<g id="a_node3"><a xlink:href="classcom_1_1tomoparts_1_1tomoBay_1_1model_1_1services_1_1checkErrorsService_1_1OnRunning.html" target="_top" xlink:title="Copyright(C) 2015 Jan P.C. ">
<polygon fill="white" stroke="black" points="155,-190.5 155,-209.5 223,-209.5 223,-190.5 155,-190.5"/>
<text text-anchor="middle" x="189" y="-197.5" font-family="Helvetica,sans-Serif" font-size="10.00">OnRunning</text>
</a>
</g>
</g>
<!-- Node1&#45;&gt;Node3 -->
<g id="edge2" class="edge"><title>Node1&#45;&gt;Node3</title>
<path fill="none" stroke="midnightblue" d="M84.8011,-138.843C103.84,-150.428 131.028,-166.871 155,-181 160.24,-184.088 165.975,-187.411 171.174,-190.4"/>
<polygon fill="midnightblue" stroke="midnightblue" points="86.52,-135.792 76.1591,-133.578 82.878,-141.77 86.52,-135.792"/>
</g>
<!-- Node4 -->
<g id="node4" class="node"><title>Node4</title>
<g id="a_node4"><a xlink:href="classcom_1_1tomoparts_1_1tomoBay_1_1model_1_1services_1_1emailErrorsService_1_1OnRunning.html" target="_top" xlink:title="Copyright(C) 2015 Jan P.C. ">
<polygon fill="white" stroke="black" points="155,-152.5 155,-171.5 223,-171.5 223,-152.5 155,-152.5"/>
<text text-anchor="middle" x="189" y="-159.5" font-family="Helvetica,sans-Serif" font-size="10.00">OnRunning</text>
</a>
</g>
</g>
<!-- Node1&#45;&gt;Node4 -->
<g id="edge3" class="edge"><title>Node1&#45;&gt;Node4</title>
<path fill="none" stroke="midnightblue" d="M102.559,-136.535C119.904,-141.705 139.681,-147.599 155.837,-152.414"/>
<polygon fill="midnightblue" stroke="midnightblue" points="103.257,-133.091 92.6736,-133.589 101.257,-139.8 103.257,-133.091"/>
</g>
<!-- Node5 -->
<g id="node5" class="node"><title>Node5</title>
<g id="a_node5"><a xlink:href="classcom_1_1tomoparts_1_1tomoBay_1_1model_1_1services_1_1individualItemRefreshService_1_1OnRunning.html" target="_top" xlink:title="OnRunning">
<polygon fill="white" stroke="black" points="155,-114.5 155,-133.5 223,-133.5 223,-114.5 155,-114.5"/>
<text text-anchor="middle" x="189" y="-121.5" font-family="Helvetica,sans-Serif" font-size="10.00">OnRunning</text>
</a>
</g>
</g>
<!-- Node1&#45;&gt;Node5 -->
<g id="edge4" class="edge"><title>Node1&#45;&gt;Node5</title>
<path fill="none" stroke="midnightblue" d="M129.142,-124C138.088,-124 146.904,-124 154.88,-124"/>
<polygon fill="midnightblue" stroke="midnightblue" points="129.026,-120.5 119.026,-124 129.026,-127.5 129.026,-120.5"/>
</g>
<!-- Node6 -->
<g id="node6" class="node"><title>Node6</title>
<g id="a_node6"><a xlink:href="classcom_1_1tomoparts_1_1tomoBay_1_1model_1_1services_1_1outOfHoursService_1_1OnRunning.html" target="_top" xlink:title="Copyright(C) 2015 Jan P.C. ">
<polygon fill="white" stroke="black" points="155,-76.5 155,-95.5 223,-95.5 223,-76.5 155,-76.5"/>
<text text-anchor="middle" x="189" y="-83.5" font-family="Helvetica,sans-Serif" font-size="10.00">OnRunning</text>
</a>
</g>
</g>
<!-- Node1&#45;&gt;Node6 -->
<g id="edge5" class="edge"><title>Node1&#45;&gt;Node6</title>
<path fill="none" stroke="midnightblue" d="M102.559,-111.465C119.904,-106.295 139.681,-100.401 155.837,-95.5859"/>
<polygon fill="midnightblue" stroke="midnightblue" points="101.257,-108.2 92.6736,-114.411 103.257,-114.909 101.257,-108.2"/>
</g>
<!-- Node7 -->
<g id="node7" class="node"><title>Node7</title>
<g id="a_node7"><a xlink:href="classcom_1_1tomoparts_1_1tomoBay_1_1model_1_1services_1_1reScanBuyerService_1_1OnRunning.html" target="_top" xlink:title="OnRunning">
<polygon fill="white" stroke="black" points="155,-38.5 155,-57.5 223,-57.5 223,-38.5 155,-38.5"/>
<text text-anchor="middle" x="189" y="-45.5" font-family="Helvetica,sans-Serif" font-size="10.00">OnRunning</text>
</a>
</g>
</g>
<!-- Node1&#45;&gt;Node7 -->
<g id="edge6" class="edge"><title>Node1&#45;&gt;Node7</title>
<path fill="none" stroke="midnightblue" d="M84.8011,-109.157C103.84,-97.5723 131.028,-81.129 155,-67 160.24,-63.9118 165.975,-60.5894 171.174,-57.6"/>
<polygon fill="midnightblue" stroke="midnightblue" points="82.878,-106.23 76.1591,-114.422 86.52,-112.208 82.878,-106.23"/>
</g>
<!-- Node8 -->
<g id="node8" class="node"><title>Node8</title>
<g id="a_node8"><a xlink:href="classcom_1_1tomoparts_1_1tomoBay_1_1model_1_1services_1_1reScanErrorsService_1_1OnRunning.html" target="_top" xlink:title="Copyright(C) 2015 Jan P.C. ">
<polygon fill="white" stroke="black" points="155,-0.5 155,-19.5 223,-19.5 223,-0.5 155,-0.5"/>
<text text-anchor="middle" x="189" y="-7.5" font-family="Helvetica,sans-Serif" font-size="10.00">OnRunning</text>
</a>
</g>
</g>
<!-- Node1&#45;&gt;Node8 -->
<g id="edge7" class="edge"><title>Node1&#45;&gt;Node8</title>
<path fill="none" stroke="midnightblue" d="M75.3372,-106.483C92.9973,-86.2854 124.011,-52.8143 155,-29 159.403,-25.6163 164.47,-22.4075 169.29,-19.6231"/>
<polygon fill="midnightblue" stroke="midnightblue" points="72.5095,-104.402 68.6251,-114.259 77.8087,-108.976 72.5095,-104.402"/>
</g>
</g>
</svg>
