<?xml version="1.0" encoding="UTF-8" standalone="no"?>
<!DOCTYPE svg PUBLIC "-//W3C//DTD SVG 1.1//EN"
 "http://www.w3.org/Graphics/SVG/1.1/DTD/svg11.dtd">
<!-- Generated by graphviz version 2.38.0 (20140413.2041)
 -->
<!-- Title: Graphical Class Hierarchy Pages: 1 -->
<svg width="358pt" height="66pt"
 viewBox="0.00 0.00 358.00 66.00" xmlns="http://www.w3.org/2000/svg" xmlns:xlink="http://www.w3.org/1999/xlink">
<g id="graph0" class="graph" transform="scale(1 1) rotate(0) translate(4 62)">
<title>Graphical Class Hierarchy</title>
<polygon fill="white" stroke="none" points="-4,4 -4,-62 354,-62 354,4 -4,4"/>
<!-- Node1 -->
<g id="node1" class="node"><title>Node1</title>
<g id="a_node1"><a xlink:href="interfacecom_1_1tomoparts_1_1tomoBay_1_1model_1_1winstock_1_1response_1_1AbstractWinstockCommandResponse.html" target="_top" xlink:title="This is the interface that all winstock command responses should subscribe to. ">
<polygon fill="white" stroke="black" points="0,-19.5 0,-38.5 196,-38.5 196,-19.5 0,-19.5"/>
<text text-anchor="middle" x="98" y="-26.5" font-family="Helvetica,sans-Serif" font-size="10.00">AbstractWinstockCommandResponse</text>
</a>
</g>
</g>
<!-- Node2 -->
<g id="node2" class="node"><title>Node2</title>
<g id="a_node2"><a xlink:href="classcom_1_1tomoparts_1_1tomoBay_1_1model_1_1winstock_1_1response_1_1PrintInvoiceResponse.html" target="_top" xlink:title="PrintInvoiceResponse">
<polygon fill="white" stroke="black" points="232,-38.5 232,-57.5 350,-57.5 350,-38.5 232,-38.5"/>
<text text-anchor="middle" x="291" y="-45.5" font-family="Helvetica,sans-Serif" font-size="10.00">PrintInvoiceResponse</text>
</a>
</g>
</g>
<!-- Node1&#45;&gt;Node2 -->
<g id="edge1" class="edge"><title>Node1&#45;&gt;Node2</title>
<path fill="none" stroke="midnightblue" d="M204.849,-39.5295C214.097,-40.4494 223.213,-41.3563 231.847,-42.2151"/>
<polygon fill="midnightblue" stroke="midnightblue" points="205.077,-36.035 194.78,-38.5278 204.384,-43.0006 205.077,-36.035"/>
</g>
<!-- Node3 -->
<g id="node3" class="node"><title>Node3</title>
<g id="a_node3"><a xlink:href="classcom_1_1tomoparts_1_1tomoBay_1_1model_1_1winstock_1_1response_1_1PutInvoiceResponse.html" target="_top" xlink:title="This class is the AbstractWinstockCommandResponse associated with the PutInvoiceCommand. ">
<polygon fill="white" stroke="black" points="235,-0.5 235,-19.5 347,-19.5 347,-0.5 235,-0.5"/>
<text text-anchor="middle" x="291" y="-7.5" font-family="Helvetica,sans-Serif" font-size="10.00">PutInvoiceResponse</text>
</a>
</g>
</g>
<!-- Node1&#45;&gt;Node3 -->
<g id="edge2" class="edge"><title>Node1&#45;&gt;Node3</title>
<path fill="none" stroke="midnightblue" d="M204.771,-18.4783C215.157,-17.4451 225.378,-16.4283 234.937,-15.4775"/>
<polygon fill="midnightblue" stroke="midnightblue" points="204.384,-14.9994 194.78,-19.4722 205.077,-21.965 204.384,-14.9994"/>
</g>
</g>
</svg>
