<?xml version="1.0" encoding="UTF-8" standalone="no"?>
<!DOCTYPE svg PUBLIC "-//W3C//DTD SVG 1.1//EN"
 "http://www.w3.org/Graphics/SVG/1.1/DTD/svg11.dtd">
<!-- Generated by graphviz version 2.38.0 (20140413.2041)
 -->
<!-- Title: Graphical Class Hierarchy Pages: 1 -->
<svg width="167pt" height="66pt"
 viewBox="0.00 0.00 167.00 66.00" xmlns="http://www.w3.org/2000/svg" xmlns:xlink="http://www.w3.org/1999/xlink">
<g id="graph0" class="graph" transform="scale(1 1) rotate(0) translate(4 62)">
<title>Graphical Class Hierarchy</title>
<polygon fill="white" stroke="none" points="-4,4 -4,-62 163,-62 163,4 -4,4"/>
<!-- Node1 -->
<g id="node1" class="node"><title>Node1</title>
<g id="a_node1"><a xlink:href="interfacecom_1_1tomoparts_1_1tomoBay_1_1model_1_1dataTypes_1_1conditionalStatement_1_1AbstractTruth.html" target="_top" xlink:title="This class is the abstract base for the True and False objects. ">
<polygon fill="white" stroke="black" points="0,-19.5 0,-38.5 82,-38.5 82,-19.5 0,-19.5"/>
<text text-anchor="middle" x="41" y="-26.5" font-family="Helvetica,sans-Serif" font-size="10.00">AbstractTruth</text>
</a>
</g>
</g>
<!-- Node2 -->
<g id="node2" class="node"><title>Node2</title>
<g id="a_node2"><a xlink:href="classcom_1_1tomoparts_1_1tomoBay_1_1model_1_1dataTypes_1_1conditionalStatement_1_1False.html" target="_top" xlink:title="This class represents a False outcome to a Condition object, its dispatch() method calls the appropri...">
<polygon fill="white" stroke="black" points="118,-38.5 118,-57.5 159,-57.5 159,-38.5 118,-38.5"/>
<text text-anchor="middle" x="138.5" y="-45.5" font-family="Helvetica,sans-Serif" font-size="10.00">False</text>
</a>
</g>
</g>
<!-- Node1&#45;&gt;Node2 -->
<g id="edge1" class="edge"><title>Node1&#45;&gt;Node2</title>
<path fill="none" stroke="midnightblue" d="M92.1358,-38.9747C101.287,-40.7953 110.321,-42.5926 117.889,-44.0983"/>
<polygon fill="midnightblue" stroke="midnightblue" points="92.7146,-35.5213 82.2238,-37.0026 91.3486,-42.3867 92.7146,-35.5213"/>
</g>
<!-- Node3 -->
<g id="node3" class="node"><title>Node3</title>
<g id="a_node3"><a xlink:href="classcom_1_1tomoparts_1_1tomoBay_1_1model_1_1dataTypes_1_1conditionalStatement_1_1True.html" target="_top" xlink:title="This class represents a True outcome to a Condition object, its dispatch() method calls the appropria...">
<polygon fill="white" stroke="black" points="119.5,-0.5 119.5,-19.5 157.5,-19.5 157.5,-0.5 119.5,-0.5"/>
<text text-anchor="middle" x="138.5" y="-7.5" font-family="Helvetica,sans-Serif" font-size="10.00">True</text>
</a>
</g>
</g>
<!-- Node1&#45;&gt;Node3 -->
<g id="edge2" class="edge"><title>Node1&#45;&gt;Node3</title>
<path fill="none" stroke="midnightblue" d="M92.3216,-18.9884C102.027,-17.0575 111.59,-15.1549 119.401,-13.6008"/>
<polygon fill="midnightblue" stroke="midnightblue" points="91.3486,-15.6133 82.2238,-20.9974 92.7146,-22.4787 91.3486,-15.6133"/>
</g>
</g>
</svg>
