<?xml version="1.0" encoding="UTF-8" standalone="no"?>
<!DOCTYPE svg PUBLIC "-//W3C//DTD SVG 1.1//EN"
 "http://www.w3.org/Graphics/SVG/1.1/DTD/svg11.dtd">
<!-- Generated by graphviz version 2.38.0 (20140413.2041)
 -->
<!-- Title: Graphical Class Hierarchy Pages: 1 -->
<svg width="233pt" height="1320pt"
 viewBox="0.00 0.00 233.00 1320.00" xmlns="http://www.w3.org/2000/svg" xmlns:xlink="http://www.w3.org/1999/xlink">
<g id="graph0" class="graph" transform="scale(1 1) rotate(0) translate(4 1316)">
<title>Graphical Class Hierarchy</title>
<polygon fill="white" stroke="none" points="-4,4 -4,-1316 229,-1316 229,4 -4,4"/>
<!-- Node1 -->
<g id="node1" class="node"><title>Node1</title>
<g id="a_node1"><a xlink:href="interfacecom_1_1tomoparts_1_1tomoBay_1_1model_1_1dataTypes_1_1heteroTypeContainer_1_1AbstractField.html" target="_top" xlink:title="This interface is the abstract base for all derived AbstractDBField types, and represents a a column ...">
<polygon fill="white" stroke="black" points="0,-646.5 0,-665.5 79,-665.5 79,-646.5 0,-646.5"/>
<text text-anchor="middle" x="39.5" y="-653.5" font-family="Helvetica,sans-Serif" font-size="10.00">AbstractField</text>
</a>
</g>
</g>
<!-- Node2 -->
<g id="node2" class="node"><title>Node2</title>
<g id="a_node2"><a xlink:href="classcom_1_1tomoparts_1_1tomoBay_1_1model_1_1sql_1_1schema_1_1accountsTable_1_1AccountName.html" target="_top" xlink:title="This represents the name field in the ebay_accounts table of the database. ">
<polygon fill="white" stroke="black" points="127.5,-1292.5 127.5,-1311.5 212.5,-1311.5 212.5,-1292.5 127.5,-1292.5"/>
<text text-anchor="middle" x="170" y="-1299.5" font-family="Helvetica,sans-Serif" font-size="10.00">AccountName</text>
</a>
</g>
</g>
<!-- Node1&#45;&gt;Node2 -->
<g id="edge1" class="edge"><title>Node1&#45;&gt;Node2</title>
<path fill="none" stroke="midnightblue" d="M40.1358,-676.06C38.7855,-772.343 37.6196,-1186.4 115,-1283 118.355,-1287.19 122.698,-1290.46 127.462,-1293"/>
<polygon fill="midnightblue" stroke="midnightblue" points="43.6372,-675.99 40.2961,-665.936 36.6381,-675.879 43.6372,-675.99"/>
</g>
<!-- Node3 -->
<g id="node3" class="node"><title>Node3</title>
<g id="a_node3"><a xlink:href="classcom_1_1tomoparts_1_1tomoBay_1_1model_1_1sql_1_1schema_1_1accountsTable_1_1ApiKey.html" target="_top" xlink:title="This represents the apiKey field in the ebay_accounts table of the database. ">
<polygon fill="white" stroke="black" points="145.5,-1254.5 145.5,-1273.5 194.5,-1273.5 194.5,-1254.5 145.5,-1254.5"/>
<text text-anchor="middle" x="170" y="-1261.5" font-family="Helvetica,sans-Serif" font-size="10.00">ApiKey</text>
</a>
</g>
</g>
<!-- Node1&#45;&gt;Node3 -->
<g id="edge2" class="edge"><title>Node1&#45;&gt;Node3</title>
<path fill="none" stroke="midnightblue" d="M40.3079,-675.996C39.8133,-768.566 42.2033,-1154.82 115,-1245 122.366,-1254.13 134.415,-1258.87 145.264,-1261.34"/>
<polygon fill="midnightblue" stroke="midnightblue" points="43.8093,-675.801 40.3819,-665.776 36.8095,-675.75 43.8093,-675.801"/>
</g>
<!-- Node4 -->
<g id="node4" class="node"><title>Node4</title>
<g id="a_node4"><a xlink:href="classcom_1_1tomoparts_1_1tomoBay_1_1model_1_1sql_1_1schema_1_1accountsTable_1_1Id.html" target="_top" xlink:title="This represents the id field of the ebay_accounts table in the database. ">
<polygon fill="white" stroke="black" points="155.5,-1216.5 155.5,-1235.5 184.5,-1235.5 184.5,-1216.5 155.5,-1216.5"/>
<text text-anchor="middle" x="170" y="-1223.5" font-family="Helvetica,sans-Serif" font-size="10.00">Id</text>
</a>
</g>
</g>
<!-- Node1&#45;&gt;Node4 -->
<g id="edge3" class="edge"><title>Node1&#45;&gt;Node4</title>
<path fill="none" stroke="midnightblue" d="M40.5013,-675.811C40.8964,-764.358 46.7473,-1123.19 115,-1207 124.79,-1219.02 142.701,-1223.45 155.2,-1225.07"/>
<polygon fill="midnightblue" stroke="midnightblue" points="44.0008,-675.559 40.476,-665.568 37.0008,-675.577 44.0008,-675.559"/>
</g>
<!-- Node5 -->
<g id="node5" class="node"><title>Node5</title>
<g id="a_node5"><a xlink:href="classcom_1_1tomoparts_1_1tomoBay_1_1model_1_1sql_1_1schema_1_1accountsTable_1_1LookbackDays.html" target="_top" xlink:title="This represents the lookbackDays field of the ebay_accounts table in the database. ">
<polygon fill="white" stroke="black" points="127,-1178.5 127,-1197.5 213,-1197.5 213,-1178.5 127,-1178.5"/>
<text text-anchor="middle" x="170" y="-1185.5" font-family="Helvetica,sans-Serif" font-size="10.00">LookbackDays</text>
</a>
</g>
</g>
<!-- Node1&#45;&gt;Node5 -->
<g id="edge4" class="edge"><title>Node1&#45;&gt;Node5</title>
<path fill="none" stroke="midnightblue" d="M40.7212,-675.784C42.0544,-760.465 51.3224,-1091.59 115,-1169 118.22,-1172.91 122.3,-1176.02 126.77,-1178.49"/>
<polygon fill="midnightblue" stroke="midnightblue" points="44.22,-675.669 40.5831,-665.718 37.2207,-675.765 44.22,-675.669"/>
</g>
<!-- Node6 -->
<g id="node6" class="node"><title>Node6</title>
<g id="a_node6"><a xlink:href="classcom_1_1tomoparts_1_1tomoBay_1_1model_1_1sql_1_1schema_1_1accountsTable_1_1ServerAddr.html" target="_top" xlink:title="ServerAddr">
<polygon fill="white" stroke="black" points="134.5,-1140.5 134.5,-1159.5 205.5,-1159.5 205.5,-1140.5 134.5,-1140.5"/>
<text text-anchor="middle" x="170" y="-1147.5" font-family="Helvetica,sans-Serif" font-size="10.00">ServerAddr</text>
</a>
</g>
</g>
<!-- Node1&#45;&gt;Node6 -->
<g id="edge5" class="edge"><title>Node1&#45;&gt;Node6</title>
<path fill="none" stroke="midnightblue" d="M40.9845,-676.095C43.3318,-757.275 55.9679,-1060.06 115,-1131 120.022,-1137.04 127.087,-1141.15 134.456,-1143.97"/>
<polygon fill="midnightblue" stroke="midnightblue" points="44.4748,-675.682 40.7085,-665.779 37.4773,-675.869 44.4748,-675.682"/>
</g>
<!-- Node7 -->
<g id="node7" class="node"><title>Node7</title>
<g id="a_node7"><a xlink:href="classcom_1_1tomoparts_1_1tomoBay_1_1model_1_1sql_1_1schema_1_1buyerTable_1_1BuyerID.html" target="_top" xlink:title="This represents the buyerID field of the ebay_buyers table in the database. ">
<polygon fill="white" stroke="black" points="143,-1102.5 143,-1121.5 197,-1121.5 197,-1102.5 143,-1102.5"/>
<text text-anchor="middle" x="170" y="-1109.5" font-family="Helvetica,sans-Serif" font-size="10.00">BuyerID</text>
</a>
</g>
</g>
<!-- Node1&#45;&gt;Node7 -->
<g id="edge6" class="edge"><title>Node1&#45;&gt;Node7</title>
<path fill="none" stroke="midnightblue" d="M41.2802,-675.948C44.6689,-752.764 60.4875,-1028.37 115,-1093 121.984,-1101.28 132.811,-1105.95 142.941,-1108.59"/>
<polygon fill="midnightblue" stroke="midnightblue" points="44.7683,-675.589 40.853,-665.745 37.7745,-675.882 44.7683,-675.589"/>
</g>
<!-- Node8 -->
<g id="node8" class="node"><title>Node8</title>
<g id="a_node8"><a xlink:href="classcom_1_1tomoparts_1_1tomoBay_1_1model_1_1sql_1_1schema_1_1buyerTable_1_1City.html" target="_top" xlink:title="This represents the city field of the ebay_buyers table in the database. ">
<polygon fill="white" stroke="black" points="152.5,-1064.5 152.5,-1083.5 187.5,-1083.5 187.5,-1064.5 152.5,-1064.5"/>
<text text-anchor="middle" x="170" y="-1071.5" font-family="Helvetica,sans-Serif" font-size="10.00">City</text>
</a>
</g>
</g>
<!-- Node1&#45;&gt;Node8 -->
<g id="edge7" class="edge"><title>Node1&#45;&gt;Node8</title>
<path fill="none" stroke="midnightblue" d="M41.6136,-675.591C46.0819,-747.617 64.9447,-996.591 115,-1055 124.313,-1065.87 140.234,-1070.52 152.384,-1072.51"/>
<polygon fill="midnightblue" stroke="midnightblue" points="45.1074,-675.38 41.0175,-665.607 38.1198,-675.798 45.1074,-675.38"/>
</g>
<!-- Node9 -->
<g id="node9" class="node"><title>Node9</title>
<g id="a_node9"><a xlink:href="classcom_1_1tomoparts_1_1tomoBay_1_1model_1_1sql_1_1schema_1_1buyerTable_1_1County.html" target="_top" xlink:title="the county field of the ebay_buyers table in the database. ">
<polygon fill="white" stroke="black" points="145,-1026.5 145,-1045.5 195,-1045.5 195,-1026.5 145,-1026.5"/>
<text text-anchor="middle" x="170" y="-1033.5" font-family="Helvetica,sans-Serif" font-size="10.00">County</text>
</a>
</g>
</g>
<!-- Node1&#45;&gt;Node9 -->
<g id="edge8" class="edge"><title>Node1&#45;&gt;Node9</title>
<path fill="none" stroke="midnightblue" d="M42.0576,-675.87C47.7528,-743.725 69.5309,-964.948 115,-1017 122.519,-1025.61 134.18,-1030.32 144.744,-1032.89"/>
<polygon fill="midnightblue" stroke="midnightblue" points="45.5293,-675.379 41.2292,-665.696 38.5524,-675.947 45.5293,-675.379"/>
</g>
<!-- Node10 -->
<g id="node10" class="node"><title>Node10</title>
<g id="a_node10"><a xlink:href="classcom_1_1tomoparts_1_1tomoBay_1_1model_1_1sql_1_1schema_1_1buyerTable_1_1Email.html" target="_top" xlink:title="The email field of the ebay_buyers table in the database. ">
<polygon fill="white" stroke="black" points="148.5,-988.5 148.5,-1007.5 191.5,-1007.5 191.5,-988.5 148.5,-988.5"/>
<text text-anchor="middle" x="170" y="-995.5" font-family="Helvetica,sans-Serif" font-size="10.00">Email</text>
</a>
</g>
</g>
<!-- Node1&#45;&gt;Node10 -->
<g id="edge9" class="edge"><title>Node1&#45;&gt;Node10</title>
<path fill="none" stroke="midnightblue" d="M42.5728,-675.788C49.5411,-738.776 74.0131,-933.162 115,-979 123.479,-988.483 136.979,-993.233 148.36,-995.612"/>
<polygon fill="midnightblue" stroke="midnightblue" points="46.0285,-675.188 41.4754,-665.621 39.0689,-675.939 46.0285,-675.188"/>
</g>
<!-- Node11 -->
<g id="node11" class="node"><title>Node11</title>
<g id="a_node11"><a xlink:href="classcom_1_1tomoparts_1_1tomoBay_1_1model_1_1sql_1_1schema_1_1buyerTable_1_1Name.html" target="_top" xlink:title="the name field of the ebay_buyers table in the database. ">
<polygon fill="white" stroke="black" points="147,-950.5 147,-969.5 193,-969.5 193,-950.5 147,-950.5"/>
<text text-anchor="middle" x="170" y="-957.5" font-family="Helvetica,sans-Serif" font-size="10.00">Name</text>
</a>
</g>
</g>
<!-- Node1&#45;&gt;Node11 -->
<g id="edge10" class="edge"><title>Node1&#45;&gt;Node11</title>
<path fill="none" stroke="midnightblue" d="M39.7436,-675.874C38.9107,-726.855 43.8214,-863.682 115,-941 123.212,-949.92 135.861,-954.654 146.853,-957.165"/>
<polygon fill="midnightblue" stroke="midnightblue" points="43.2498,-675.681 40.0142,-665.592 36.2522,-675.497 43.2498,-675.681"/>
</g>
<!-- Node12 -->
<g id="node12" class="node"><title>Node12</title>
<g id="a_node12"><a xlink:href="classcom_1_1tomoparts_1_1tomoBay_1_1model_1_1sql_1_1schema_1_1buyerTable_1_1Phone.html" target="_top" xlink:title="the phoneNo field in the ebay_buyers table of the database. ">
<polygon fill="white" stroke="black" points="146.5,-912.5 146.5,-931.5 193.5,-931.5 193.5,-912.5 146.5,-912.5"/>
<text text-anchor="middle" x="170" y="-919.5" font-family="Helvetica,sans-Serif" font-size="10.00">Phone</text>
</a>
</g>
</g>
<!-- Node1&#45;&gt;Node12 -->
<g id="edge11" class="edge"><title>Node1&#45;&gt;Node12</title>
<path fill="none" stroke="midnightblue" d="M40.7048,-675.678C42.2553,-721.743 52.5257,-837.624 115,-903 123.239,-911.622 135.62,-916.336 146.448,-918.911"/>
<polygon fill="midnightblue" stroke="midnightblue" points="44.2008,-675.46 40.472,-665.543 37.2027,-675.621 44.2008,-675.46"/>
</g>
<!-- Node13 -->
<g id="node13" class="node"><title>Node13</title>
<g id="a_node13"><a xlink:href="classcom_1_1tomoparts_1_1tomoBay_1_1model_1_1sql_1_1schema_1_1buyerTable_1_1Postcode.html" target="_top" xlink:title="The postcode field of the ebay_buyers table in the database. ">
<polygon fill="white" stroke="black" points="139.5,-874.5 139.5,-893.5 200.5,-893.5 200.5,-874.5 139.5,-874.5"/>
<text text-anchor="middle" x="170" y="-881.5" font-family="Helvetica,sans-Serif" font-size="10.00">Postcode</text>
</a>
</g>
</g>
<!-- Node1&#45;&gt;Node13 -->
<g id="edge12" class="edge"><title>Node1&#45;&gt;Node13</title>
<path fill="none" stroke="midnightblue" d="M42.0094,-675.951C46.1718,-717.01 61.3605,-811.58 115,-865 121.619,-871.592 130.658,-875.905 139.447,-878.724"/>
<polygon fill="midnightblue" stroke="midnightblue" points="45.4845,-675.516 41.1051,-665.868 38.5125,-676.141 45.4845,-675.516"/>
</g>
<!-- Node14 -->
<g id="node14" class="node"><title>Node14</title>
<g id="a_node14"><a xlink:href="classcom_1_1tomoparts_1_1tomoBay_1_1model_1_1sql_1_1schema_1_1buyerTable_1_1Street.html" target="_top" xlink:title="this represents both the street1 and street2 fields of the ebay_buyers table in the database...">
<polygon fill="white" stroke="black" points="146.5,-836.5 146.5,-855.5 193.5,-855.5 193.5,-836.5 146.5,-836.5"/>
<text text-anchor="middle" x="170" y="-843.5" font-family="Helvetica,sans-Serif" font-size="10.00">Street</text>
</a>
</g>
</g>
<!-- Node1&#45;&gt;Node14 -->
<g id="edge13" class="edge"><title>Node1&#45;&gt;Node14</title>
<path fill="none" stroke="midnightblue" d="M43.7751,-675.663C50.6508,-710.894 69.851,-785.013 115,-827 123.588,-834.986 135.732,-839.647 146.329,-842.351"/>
<polygon fill="midnightblue" stroke="midnightblue" points="47.1924,-674.892 41.9585,-665.68 40.3055,-676.145 47.1924,-674.892"/>
</g>
<!-- Node15 -->
<g id="node15" class="node"><title>Node15</title>
<g id="a_node15"><a xlink:href="classcom_1_1tomoparts_1_1tomoBay_1_1model_1_1sql_1_1schema_1_1itemsTable_1_1Brand.html" target="_top" xlink:title="this is the brand field of the ebay_items table in the database. ">
<polygon fill="white" stroke="black" points="147.5,-798.5 147.5,-817.5 192.5,-817.5 192.5,-798.5 147.5,-798.5"/>
<text text-anchor="middle" x="170" y="-805.5" font-family="Helvetica,sans-Serif" font-size="10.00">Brand</text>
</a>
</g>
</g>
<!-- Node1&#45;&gt;Node15 -->
<g id="edge14" class="edge"><title>Node1&#45;&gt;Node15</title>
<path fill="none" stroke="midnightblue" d="M46.3711,-675.248C56.0874,-703.986 78.1811,-758.034 115,-789 124.203,-796.74 136.77,-801.408 147.465,-804.179"/>
<polygon fill="midnightblue" stroke="midnightblue" points="49.6511,-674.016 43.2483,-665.574 42.9896,-676.166 49.6511,-674.016"/>
</g>
<!-- Node16 -->
<g id="node16" class="node"><title>Node16</title>
<g id="a_node16"><a xlink:href="classcom_1_1tomoparts_1_1tomoBay_1_1model_1_1sql_1_1schema_1_1itemsTable_1_1Condition.html" target="_top" xlink:title="this is the condition field of the ebay_items table, this field represents the selling condition of t...">
<polygon fill="white" stroke="black" points="139,-760.5 139,-779.5 201,-779.5 201,-760.5 139,-760.5"/>
<text text-anchor="middle" x="170" y="-767.5" font-family="Helvetica,sans-Serif" font-size="10.00">Condition</text>
</a>
</g>
</g>
<!-- Node1&#45;&gt;Node16 -->
<g id="edge15" class="edge"><title>Node1&#45;&gt;Node16</title>
<path fill="none" stroke="midnightblue" d="M50.468,-674.269C62.9383,-695.528 86.1956,-730.347 115,-751 122.108,-756.096 130.71,-759.934 138.939,-762.776"/>
<polygon fill="midnightblue" stroke="midnightblue" points="53.4999,-672.52 45.5162,-665.555 47.4139,-675.978 53.4999,-672.52"/>
</g>
<!-- Node17 -->
<g id="node17" class="node"><title>Node17</title>
<g id="a_node17"><a xlink:href="classcom_1_1tomoparts_1_1tomoBay_1_1model_1_1sql_1_1schema_1_1itemsTable_1_1ItemID.html" target="_top" xlink:title="this is the itemID field of the ebay_items table, this is the primary key for the ebay_items table an...">
<polygon fill="white" stroke="black" points="146,-722.5 146,-741.5 194,-741.5 194,-722.5 146,-722.5"/>
<text text-anchor="middle" x="170" y="-729.5" font-family="Helvetica,sans-Serif" font-size="10.00">ItemID</text>
</a>
</g>
</g>
<!-- Node1&#45;&gt;Node17 -->
<g id="edge16" class="edge"><title>Node1&#45;&gt;Node17</title>
<path fill="none" stroke="midnightblue" d="M58.5223,-672.404C72.9542,-684.868 94.1635,-701.733 115,-713 124.704,-718.247 136.145,-722.516 145.992,-725.669"/>
<polygon fill="midnightblue" stroke="midnightblue" points="60.6775,-669.638 50.8622,-665.649 56.0478,-674.888 60.6775,-669.638"/>
</g>
<!-- Node18 -->
<g id="node18" class="node"><title>Node18</title>
<g id="a_node18"><a xlink:href="classcom_1_1tomoparts_1_1tomoBay_1_1model_1_1sql_1_1schema_1_1itemsTable_1_1Notes.html" target="_top" xlink:title="This is the notes field of the ebay_items table in the database. ">
<polygon fill="white" stroke="black" points="147.5,-684.5 147.5,-703.5 192.5,-703.5 192.5,-684.5 147.5,-684.5"/>
<text text-anchor="middle" x="170" y="-691.5" font-family="Helvetica,sans-Serif" font-size="10.00">Notes</text>
</a>
</g>
</g>
<!-- Node1&#45;&gt;Node18 -->
<g id="edge17" class="edge"><title>Node1&#45;&gt;Node18</title>
<path fill="none" stroke="midnightblue" d="M82.5826,-668.445C104.28,-674.861 129.822,-682.414 147.483,-687.637"/>
<polygon fill="midnightblue" stroke="midnightblue" points="83.508,-665.069 72.926,-665.589 81.5229,-671.781 83.508,-665.069"/>
</g>
<!-- Node19 -->
<g id="node19" class="node"><title>Node19</title>
<g id="a_node19"><a xlink:href="classcom_1_1tomoparts_1_1tomoBay_1_1model_1_1sql_1_1schema_1_1itemsTable_1_1PartNo.html" target="_top" xlink:title="This is the partNo field of the ebay_items table in the database. ">
<polygon fill="white" stroke="black" points="145,-646.5 145,-665.5 195,-665.5 195,-646.5 145,-646.5"/>
<text text-anchor="middle" x="170" y="-653.5" font-family="Helvetica,sans-Serif" font-size="10.00">PartNo</text>
</a>
</g>
</g>
<!-- Node1&#45;&gt;Node19 -->
<g id="edge18" class="edge"><title>Node1&#45;&gt;Node19</title>
<path fill="none" stroke="midnightblue" d="M89.0569,-656C108.036,-656 128.961,-656 144.641,-656"/>
<polygon fill="midnightblue" stroke="midnightblue" points="89.0543,-652.5 79.0542,-656 89.0542,-659.5 89.0543,-652.5"/>
</g>
<!-- Node20 -->
<g id="node20" class="node"><title>Node20</title>
<g id="a_node20"><a xlink:href="classcom_1_1tomoparts_1_1tomoBay_1_1model_1_1sql_1_1schema_1_1itemsTable_1_1Title.html" target="_top" xlink:title="This is the title field of the ebay_items table in the database. ">
<polygon fill="white" stroke="black" points="152,-608.5 152,-627.5 188,-627.5 188,-608.5 152,-608.5"/>
<text text-anchor="middle" x="170" y="-615.5" font-family="Helvetica,sans-Serif" font-size="10.00">Title</text>
</a>
</g>
</g>
<!-- Node1&#45;&gt;Node20 -->
<g id="edge19" class="edge"><title>Node1&#45;&gt;Node20</title>
<path fill="none" stroke="midnightblue" d="M82.7133,-643.517C106.297,-636.543 134.387,-628.236 151.961,-623.039"/>
<polygon fill="midnightblue" stroke="midnightblue" points="81.5229,-640.219 72.926,-646.411 83.508,-646.931 81.5229,-640.219"/>
</g>
<!-- Node21 -->
<g id="node21" class="node"><title>Node21</title>
<g id="a_node21"><a xlink:href="classcom_1_1tomoparts_1_1tomoBay_1_1model_1_1sql_1_1schema_1_1nonDBFields_1_1CustomIntegerField.html" target="_top" xlink:title="This class represents the input or return to/from a custom integer field, i.e. ">
<polygon fill="white" stroke="black" points="115,-570.5 115,-589.5 225,-589.5 225,-570.5 115,-570.5"/>
<text text-anchor="middle" x="170" y="-577.5" font-family="Helvetica,sans-Serif" font-size="10.00">CustomIntegerField</text>
</a>
</g>
</g>
<!-- Node1&#45;&gt;Node21 -->
<g id="edge20" class="edge"><title>Node1&#45;&gt;Node21</title>
<path fill="none" stroke="midnightblue" d="M58.5223,-639.596C72.9542,-627.132 94.1635,-610.267 115,-599 121.731,-595.36 129.299,-592.191 136.59,-589.538"/>
<polygon fill="midnightblue" stroke="midnightblue" points="56.0478,-637.112 50.8622,-646.351 60.6775,-642.362 56.0478,-637.112"/>
</g>
<!-- Node22 -->
<g id="node22" class="node"><title>Node22</title>
<g id="a_node22"><a xlink:href="classcom_1_1tomoparts_1_1tomoBay_1_1model_1_1sql_1_1schema_1_1nonDBFields_1_1ResultCode.html" target="_top" xlink:title="This represents a resultcode that comes back from an update or insert query. ">
<polygon fill="white" stroke="black" points="134.5,-532.5 134.5,-551.5 205.5,-551.5 205.5,-532.5 134.5,-532.5"/>
<text text-anchor="middle" x="170" y="-539.5" font-family="Helvetica,sans-Serif" font-size="10.00">ResultCode</text>
</a>
</g>
</g>
<!-- Node1&#45;&gt;Node22 -->
<g id="edge21" class="edge"><title>Node1&#45;&gt;Node22</title>
<path fill="none" stroke="midnightblue" d="M50.468,-637.731C62.9383,-616.472 86.1956,-581.653 115,-561 120.815,-556.83 127.631,-553.503 134.424,-550.875"/>
<polygon fill="midnightblue" stroke="midnightblue" points="47.4139,-636.022 45.5162,-646.445 53.4999,-639.48 47.4139,-636.022"/>
</g>
<!-- Node23 -->
<g id="node23" class="node"><title>Node23</title>
<g id="a_node23"><a xlink:href="classcom_1_1tomoparts_1_1tomoBay_1_1model_1_1sql_1_1schema_1_1ordersTable_1_1CreatedTime.html" target="_top" xlink:title="this is the createdTime field of the ebay_orders table in the database. ">
<polygon fill="white" stroke="black" points="131,-494.5 131,-513.5 209,-513.5 209,-494.5 131,-494.5"/>
<text text-anchor="middle" x="170" y="-501.5" font-family="Helvetica,sans-Serif" font-size="10.00">CreatedTime</text>
</a>
</g>
</g>
<!-- Node1&#45;&gt;Node23 -->
<g id="edge22" class="edge"><title>Node1&#45;&gt;Node23</title>
<path fill="none" stroke="midnightblue" d="M46.3711,-636.752C56.0874,-608.014 78.1811,-553.966 115,-523 119.64,-519.098 125.134,-515.977 130.813,-513.486"/>
<polygon fill="midnightblue" stroke="midnightblue" points="42.9896,-635.834 43.2483,-646.426 49.6511,-637.984 42.9896,-635.834"/>
</g>
<!-- Node24 -->
<g id="node24" class="node"><title>Node24</title>
<g id="a_node24"><a xlink:href="classcom_1_1tomoparts_1_1tomoBay_1_1model_1_1sql_1_1schema_1_1ordersTable_1_1Invoiced.html" target="_top" xlink:title="this is the invoiced field of the ebay_orders table in the database. ">
<polygon fill="white" stroke="black" points="142,-456.5 142,-475.5 198,-475.5 198,-456.5 142,-456.5"/>
<text text-anchor="middle" x="170" y="-463.5" font-family="Helvetica,sans-Serif" font-size="10.00">Invoiced</text>
</a>
</g>
</g>
<!-- Node1&#45;&gt;Node24 -->
<g id="edge23" class="edge"><title>Node1&#45;&gt;Node24</title>
<path fill="none" stroke="midnightblue" d="M43.7751,-636.337C50.6508,-601.106 69.851,-526.987 115,-485 122.423,-478.097 132.504,-473.678 141.946,-470.86"/>
<polygon fill="midnightblue" stroke="midnightblue" points="40.3055,-635.855 41.9585,-646.32 47.1924,-637.108 40.3055,-635.855"/>
</g>
<!-- Node25 -->
<g id="node25" class="node"><title>Node25</title>
<g id="a_node25"><a xlink:href="classcom_1_1tomoparts_1_1tomoBay_1_1model_1_1sql_1_1schema_1_1ordersTable_1_1OrderID.html" target="_top" xlink:title="this is the orderID field of the ebay_orders table in the database, and is the primary key for this t...">
<polygon fill="white" stroke="black" points="143.5,-418.5 143.5,-437.5 196.5,-437.5 196.5,-418.5 143.5,-418.5"/>
<text text-anchor="middle" x="170" y="-425.5" font-family="Helvetica,sans-Serif" font-size="10.00">OrderID</text>
</a>
</g>
</g>
<!-- Node1&#45;&gt;Node25 -->
<g id="edge24" class="edge"><title>Node1&#45;&gt;Node25</title>
<path fill="none" stroke="midnightblue" d="M42.0094,-636.049C46.1718,-594.99 61.3605,-500.42 115,-447 122.605,-439.426 133.404,-434.861 143.349,-432.114"/>
<polygon fill="midnightblue" stroke="midnightblue" points="38.5125,-635.859 41.1051,-646.132 45.4845,-636.484 38.5125,-635.859"/>
</g>
<!-- Node26 -->
<g id="node26" class="node"><title>Node26</title>
<g id="a_node26"><a xlink:href="classcom_1_1tomoparts_1_1tomoBay_1_1model_1_1sql_1_1schema_1_1ordersTable_1_1OrderTotal.html" target="_top" xlink:title="this is the account field of the ebay_orders table in the database. ">
<polygon fill="white" stroke="black" points="136.5,-380.5 136.5,-399.5 203.5,-399.5 203.5,-380.5 136.5,-380.5"/>
<text text-anchor="middle" x="170" y="-387.5" font-family="Helvetica,sans-Serif" font-size="10.00">OrderTotal</text>
</a>
</g>
</g>
<!-- Node1&#45;&gt;Node26 -->
<g id="edge25" class="edge"><title>Node1&#45;&gt;Node26</title>
<path fill="none" stroke="midnightblue" d="M40.7048,-636.322C42.2553,-590.257 52.5257,-474.376 115,-409 120.768,-402.964 128.564,-398.844 136.437,-396.032"/>
<polygon fill="midnightblue" stroke="midnightblue" points="37.2027,-636.379 40.472,-646.457 44.2008,-636.54 37.2027,-636.379"/>
</g>
<!-- Node27 -->
<g id="node27" class="node"><title>Node27</title>
<g id="a_node27"><a xlink:href="classcom_1_1tomoparts_1_1tomoBay_1_1model_1_1sql_1_1schema_1_1ordersTable_1_1SalesRecNo.html" target="_top" xlink:title="his is the salesRecNo field of the ebay_orders table in the database, it is a number generated by eba...">
<polygon fill="white" stroke="black" points="133,-342.5 133,-361.5 207,-361.5 207,-342.5 133,-342.5"/>
<text text-anchor="middle" x="170" y="-349.5" font-family="Helvetica,sans-Serif" font-size="10.00">SalesRecNo</text>
</a>
</g>
</g>
<!-- Node1&#45;&gt;Node27 -->
<g id="edge26" class="edge"><title>Node1&#45;&gt;Node27</title>
<path fill="none" stroke="midnightblue" d="M39.7436,-636.126C38.9107,-585.145 43.8214,-448.318 115,-371 119.846,-365.736 126.238,-361.929 132.923,-359.178"/>
<polygon fill="midnightblue" stroke="midnightblue" points="36.2522,-636.503 40.0142,-646.408 43.2498,-636.319 36.2522,-636.503"/>
</g>
<!-- Node28 -->
<g id="node28" class="node"><title>Node28</title>
<g id="a_node28"><a xlink:href="classcom_1_1tomoparts_1_1tomoBay_1_1model_1_1sql_1_1schema_1_1ordersTable_1_1ShippingType.html" target="_top" xlink:title="this is the shippingType field of the ebay_orders table of the database and is a textual representati...">
<polygon fill="white" stroke="black" points="130,-304.5 130,-323.5 210,-323.5 210,-304.5 130,-304.5"/>
<text text-anchor="middle" x="170" y="-311.5" font-family="Helvetica,sans-Serif" font-size="10.00">ShippingType</text>
</a>
</g>
</g>
<!-- Node1&#45;&gt;Node28 -->
<g id="edge27" class="edge"><title>Node1&#45;&gt;Node28</title>
<path fill="none" stroke="midnightblue" d="M42.5728,-636.212C49.5411,-573.224 74.0131,-378.838 115,-333 119.041,-328.481 124.222,-325.036 129.771,-322.411"/>
<polygon fill="midnightblue" stroke="midnightblue" points="39.0689,-636.061 41.4754,-646.379 46.0285,-636.812 39.0689,-636.061"/>
</g>
<!-- Node29 -->
<g id="node29" class="node"><title>Node29</title>
<g id="a_node29"><a xlink:href="classcom_1_1tomoparts_1_1tomoBay_1_1model_1_1sql_1_1schema_1_1orderStatusTable_1_1Packing.html" target="_top" xlink:title="this is the packing field of the order_status table in the database. ">
<polygon fill="white" stroke="black" points="143.5,-266.5 143.5,-285.5 196.5,-285.5 196.5,-266.5 143.5,-266.5"/>
<text text-anchor="middle" x="170" y="-273.5" font-family="Helvetica,sans-Serif" font-size="10.00">Packing</text>
</a>
</g>
</g>
<!-- Node1&#45;&gt;Node29 -->
<g id="edge28" class="edge"><title>Node1&#45;&gt;Node29</title>
<path fill="none" stroke="midnightblue" d="M42.0576,-636.13C47.7528,-568.275 69.5309,-347.052 115,-295 122.192,-286.767 133.174,-282.101 143.36,-279.457"/>
<polygon fill="midnightblue" stroke="midnightblue" points="38.5524,-636.053 41.2292,-646.304 45.5293,-636.621 38.5524,-636.053"/>
</g>
<!-- Node30 -->
<g id="node30" class="node"><title>Node30</title>
<g id="a_node30"><a xlink:href="classcom_1_1tomoparts_1_1tomoBay_1_1model_1_1sql_1_1schema_1_1orderStatusTable_1_1Picking.html" target="_top" xlink:title="this is the picking field of the order_status table in the database. ">
<polygon fill="white" stroke="black" points="145,-228.5 145,-247.5 195,-247.5 195,-228.5 145,-228.5"/>
<text text-anchor="middle" x="170" y="-235.5" font-family="Helvetica,sans-Serif" font-size="10.00">Picking</text>
</a>
</g>
</g>
<!-- Node1&#45;&gt;Node30 -->
<g id="edge29" class="edge"><title>Node1&#45;&gt;Node30</title>
<path fill="none" stroke="midnightblue" d="M41.6136,-636.409C46.0819,-564.383 64.9447,-315.409 115,-257 122.502,-248.246 134.293,-243.524 144.945,-240.978"/>
<polygon fill="midnightblue" stroke="midnightblue" points="38.1198,-636.202 41.0175,-646.393 45.1074,-636.62 38.1198,-636.202"/>
</g>
<!-- Node31 -->
<g id="node31" class="node"><title>Node31</title>
<g id="a_node31"><a xlink:href="classcom_1_1tomoparts_1_1tomoBay_1_1model_1_1sql_1_1schema_1_1orderStatusTable_1_1Shipping.html" target="_top" xlink:title="this is the packing field of the order_status table in the database. ">
<polygon fill="white" stroke="black" points="141,-190.5 141,-209.5 199,-209.5 199,-190.5 141,-190.5"/>
<text text-anchor="middle" x="170" y="-197.5" font-family="Helvetica,sans-Serif" font-size="10.00">Shipping</text>
</a>
</g>
</g>
<!-- Node1&#45;&gt;Node31 -->
<g id="edge30" class="edge"><title>Node1&#45;&gt;Node31</title>
<path fill="none" stroke="midnightblue" d="M41.2802,-636.052C44.6689,-559.236 60.4875,-283.632 115,-219 121.536,-211.251 131.436,-206.661 140.982,-203.942"/>
<polygon fill="midnightblue" stroke="midnightblue" points="37.7745,-636.118 40.853,-646.255 44.7683,-636.411 37.7745,-636.118"/>
</g>
<!-- Node32 -->
<g id="node32" class="node"><title>Node32</title>
<g id="a_node32"><a xlink:href="classcom_1_1tomoparts_1_1tomoBay_1_1model_1_1sql_1_1schema_1_1outOfHoursTable_1_1Date.html" target="_top" xlink:title="This class represents the date field of the out_of_hours table in the database. ">
<polygon fill="white" stroke="black" points="150,-152.5 150,-171.5 190,-171.5 190,-152.5 150,-152.5"/>
<text text-anchor="middle" x="170" y="-159.5" font-family="Helvetica,sans-Serif" font-size="10.00">Date</text>
</a>
</g>
</g>
<!-- Node1&#45;&gt;Node32 -->
<g id="edge31" class="edge"><title>Node1&#45;&gt;Node32</title>
<path fill="none" stroke="midnightblue" d="M40.9845,-635.905C43.3318,-554.725 55.9679,-251.942 115,-181 123.582,-170.687 138.129,-165.967 149.964,-163.809"/>
<polygon fill="midnightblue" stroke="midnightblue" points="37.4773,-636.131 40.7085,-646.221 44.4748,-636.318 37.4773,-636.131"/>
</g>
<!-- Node33 -->
<g id="node33" class="node"><title>Node33</title>
<g id="a_node33"><a xlink:href="classcom_1_1tomoparts_1_1tomoBay_1_1model_1_1sql_1_1schema_1_1transactionsTable_1_1Price.html" target="_top" xlink:title="This class represents the price field in the ebay_transactions table of the database. ">
<polygon fill="white" stroke="black" points="150,-114.5 150,-133.5 190,-133.5 190,-114.5 150,-114.5"/>
<text text-anchor="middle" x="170" y="-121.5" font-family="Helvetica,sans-Serif" font-size="10.00">Price</text>
</a>
</g>
</g>
<!-- Node1&#45;&gt;Node33 -->
<g id="edge32" class="edge"><title>Node1&#45;&gt;Node33</title>
<path fill="none" stroke="midnightblue" d="M40.7212,-636.216C42.0544,-551.535 51.3224,-220.414 115,-143 123.523,-132.638 138.074,-127.921 149.925,-125.777"/>
<polygon fill="midnightblue" stroke="midnightblue" points="37.2207,-636.235 40.5831,-646.282 44.22,-636.331 37.2207,-636.235"/>
</g>
<!-- Node34 -->
<g id="node34" class="node"><title>Node34</title>
<g id="a_node34"><a xlink:href="classcom_1_1tomoparts_1_1tomoBay_1_1model_1_1sql_1_1schema_1_1transactionsTable_1_1Quantity.html" target="_top" xlink:title="This class represents the quantity field of the ebay_transactions table in the database. ">
<polygon fill="white" stroke="black" points="141.5,-76.5 141.5,-95.5 198.5,-95.5 198.5,-76.5 141.5,-76.5"/>
<text text-anchor="middle" x="170" y="-83.5" font-family="Helvetica,sans-Serif" font-size="10.00">Quantity</text>
</a>
</g>
</g>
<!-- Node1&#45;&gt;Node34 -->
<g id="edge33" class="edge"><title>Node1&#45;&gt;Node34</title>
<path fill="none" stroke="midnightblue" d="M40.5013,-636.189C40.8964,-547.642 46.7473,-188.812 115,-105 121.527,-96.9854 131.663,-92.347 141.398,-89.6642"/>
<polygon fill="midnightblue" stroke="midnightblue" points="37.0008,-636.423 40.476,-646.432 44.0008,-636.441 37.0008,-636.423"/>
</g>
<!-- Node35 -->
<g id="node35" class="node"><title>Node35</title>
<g id="a_node35"><a xlink:href="classcom_1_1tomoparts_1_1tomoBay_1_1model_1_1sql_1_1schema_1_1transactionsTable_1_1ShippingCost.html" target="_top" xlink:title="This class represents the shippingCost field of the ebay_transactions table in the database...">
<polygon fill="white" stroke="black" points="130,-38.5 130,-57.5 210,-57.5 210,-38.5 130,-38.5"/>
<text text-anchor="middle" x="170" y="-45.5" font-family="Helvetica,sans-Serif" font-size="10.00">ShippingCost</text>
</a>
</g>
</g>
<!-- Node1&#45;&gt;Node35 -->
<g id="edge34" class="edge"><title>Node1&#45;&gt;Node35</title>
<path fill="none" stroke="midnightblue" d="M40.3079,-636.004C39.8133,-543.434 42.2033,-157.179 115,-67 118.933,-62.1281 124.2,-58.5034 129.907,-55.8071"/>
<polygon fill="midnightblue" stroke="midnightblue" points="36.8095,-636.25 40.3819,-646.224 43.8093,-636.199 36.8095,-636.25"/>
</g>
<!-- Node36 -->
<g id="node36" class="node"><title>Node36</title>
<g id="a_node36"><a xlink:href="classcom_1_1tomoparts_1_1tomoBay_1_1model_1_1sql_1_1schema_1_1transactionsTable_1_1TransactionID.html" target="_top" xlink:title="This class represents the transactionID field of the ebay_transactions table in the database...">
<polygon fill="white" stroke="black" points="129,-0.5 129,-19.5 211,-19.5 211,-0.5 129,-0.5"/>
<text text-anchor="middle" x="170" y="-7.5" font-family="Helvetica,sans-Serif" font-size="10.00">TransactionID</text>
</a>
</g>
</g>
<!-- Node1&#45;&gt;Node36 -->
<g id="edge35" class="edge"><title>Node1&#45;&gt;Node36</title>
<path fill="none" stroke="midnightblue" d="M40.1358,-635.94C38.7855,-539.657 37.6196,-125.601 115,-29 118.666,-24.4236 123.51,-20.9474 128.795,-18.3074"/>
<polygon fill="midnightblue" stroke="midnightblue" points="36.6381,-636.121 40.2961,-646.064 43.6372,-636.01 36.6381,-636.121"/>
</g>
</g>
</svg>
