<?xml version="1.0" encoding="UTF-8" standalone="no"?>
<!DOCTYPE svg PUBLIC "-//W3C//DTD SVG 1.1//EN"
 "http://www.w3.org/Graphics/SVG/1.1/DTD/svg11.dtd">
<!-- Generated by graphviz version 2.38.0 (20140413.2041)
 -->
<!-- Title: Graphical Class Hierarchy Pages: 1 -->
<svg width="242pt" height="370pt"
 viewBox="0.00 0.00 242.00 370.00" xmlns="http://www.w3.org/2000/svg" xmlns:xlink="http://www.w3.org/1999/xlink">
<g id="graph0" class="graph" transform="scale(1 1) rotate(0) translate(4 366)">
<title>Graphical Class Hierarchy</title>
<polygon fill="white" stroke="none" points="-4,4 -4,-366 238,-366 238,4 -4,4"/>
<!-- Node1 -->
<g id="node1" class="node"><title>Node1</title>
<g id="a_node1"><a xlink:href="interfacecom_1_1tomoparts_1_1tomoBay_1_1view_1_1AbstractView.html" target="_top" xlink:title="this is the interface that all views must subscribe to. ">
<polygon fill="white" stroke="black" points="0,-171.5 0,-190.5 79,-190.5 79,-171.5 0,-171.5"/>
<text text-anchor="middle" x="39.5" y="-178.5" font-family="Helvetica,sans-Serif" font-size="10.00">AbstractView</text>
</a>
</g>
</g>
<!-- Node2 -->
<g id="node2" class="node"><title>Node2</title>
<g id="a_node2"><a xlink:href="classcom_1_1tomoparts_1_1tomoBay_1_1view_1_1views_1_1AdminServiceView.html" target="_top" xlink:title="AdminServiceView">
<polygon fill="white" stroke="black" points="122.5,-342.5 122.5,-361.5 226.5,-361.5 226.5,-342.5 122.5,-342.5"/>
<text text-anchor="middle" x="174.5" y="-349.5" font-family="Helvetica,sans-Serif" font-size="10.00">AdminServiceView</text>
</a>
</g>
</g>
<!-- Node1&#45;&gt;Node2 -->
<g id="edge1" class="edge"><title>Node1&#45;&gt;Node2</title>
<path fill="none" stroke="midnightblue" d="M44.8945,-200.812C53.0772,-233.129 73.6954,-297.169 115,-333 119.436,-336.849 124.667,-339.92 130.145,-342.372"/>
<polygon fill="midnightblue" stroke="midnightblue" points="48.2315,-199.717 42.5053,-190.803 41.4227,-201.342 48.2315,-199.717"/>
</g>
<!-- Node3 -->
<g id="node3" class="node"><title>Node3</title>
<g id="a_node3"><a xlink:href="classcom_1_1tomoparts_1_1tomoBay_1_1view_1_1views_1_1CRMDetailView.html" target="_top" xlink:title="CRMDetailView">
<polygon fill="white" stroke="black" points="131,-304.5 131,-323.5 218,-323.5 218,-304.5 131,-304.5"/>
<text text-anchor="middle" x="174.5" y="-311.5" font-family="Helvetica,sans-Serif" font-size="10.00">CRMDetailView</text>
</a>
</g>
</g>
<!-- Node1&#45;&gt;Node3 -->
<g id="edge2" class="edge"><title>Node1&#45;&gt;Node3</title>
<path fill="none" stroke="midnightblue" d="M48.1197,-200.087C59.1627,-225.379 81.9725,-269.736 115,-295 120.089,-298.893 126.006,-302.004 132.083,-304.487"/>
<polygon fill="midnightblue" stroke="midnightblue" points="51.2058,-198.396 44.1119,-190.527 44.7501,-201.102 51.2058,-198.396"/>
</g>
<!-- Node4 -->
<g id="node4" class="node"><title>Node4</title>
<g id="a_node4"><a xlink:href="classcom_1_1tomoparts_1_1tomoBay_1_1view_1_1views_1_1CRMOverviewView.html" target="_top" xlink:title="CRMOverviewView">
<polygon fill="white" stroke="black" points="123.5,-266.5 123.5,-285.5 225.5,-285.5 225.5,-266.5 123.5,-266.5"/>
<text text-anchor="middle" x="174.5" y="-273.5" font-family="Helvetica,sans-Serif" font-size="10.00">CRMOverviewView</text>
</a>
</g>
</g>
<!-- Node1&#45;&gt;Node4 -->
<g id="edge3" class="edge"><title>Node1&#45;&gt;Node4</title>
<path fill="none" stroke="midnightblue" d="M53.6642,-198.723C67.2673,-215.879 89.9892,-241.504 115,-257 121.173,-260.824 128.194,-263.958 135.177,-266.497"/>
<polygon fill="midnightblue" stroke="midnightblue" points="56.2959,-196.404 47.4181,-190.621 50.7522,-200.678 56.2959,-196.404"/>
</g>
<!-- Node5 -->
<g id="node5" class="node"><title>Node5</title>
<g id="a_node5"><a xlink:href="classcom_1_1tomoparts_1_1tomoBay_1_1view_1_1views_1_1ErrorView.html" target="_top" xlink:title="ErrorView">
<polygon fill="white" stroke="black" points="143.5,-228.5 143.5,-247.5 205.5,-247.5 205.5,-228.5 143.5,-228.5"/>
<text text-anchor="middle" x="174.5" y="-235.5" font-family="Helvetica,sans-Serif" font-size="10.00">ErrorView</text>
</a>
</g>
</g>
<!-- Node1&#45;&gt;Node5 -->
<g id="edge4" class="edge"><title>Node1&#45;&gt;Node5</title>
<path fill="none" stroke="midnightblue" d="M66.4006,-195.485C80.5137,-203.05 98.4346,-212.135 115,-219 124.076,-222.761 134.184,-226.273 143.41,-229.228"/>
<polygon fill="midnightblue" stroke="midnightblue" points="67.7587,-192.239 57.3017,-190.536 64.414,-198.388 67.7587,-192.239"/>
</g>
<!-- Node6 -->
<g id="node6" class="node"><title>Node6</title>
<g id="a_node6"><a xlink:href="classcom_1_1tomoparts_1_1tomoBay_1_1view_1_1views_1_1OrderView.html" target="_top" xlink:title="OrderView">
<polygon fill="white" stroke="black" points="142,-190.5 142,-209.5 207,-209.5 207,-190.5 142,-190.5"/>
<text text-anchor="middle" x="174.5" y="-197.5" font-family="Helvetica,sans-Serif" font-size="10.00">OrderView</text>
</a>
</g>
</g>
<!-- Node1&#45;&gt;Node6 -->
<g id="edge5" class="edge"><title>Node1&#45;&gt;Node6</title>
<path fill="none" stroke="midnightblue" d="M89.3442,-187.978C106.768,-190.467 125.935,-193.205 141.57,-195.439"/>
<polygon fill="midnightblue" stroke="midnightblue" points="89.7211,-184.496 79.3266,-186.547 88.7311,-191.426 89.7211,-184.496"/>
</g>
<!-- Node7 -->
<g id="node7" class="node"><title>Node7</title>
<g id="a_node7"><a xlink:href="classcom_1_1tomoparts_1_1tomoBay_1_1view_1_1views_1_1OutOfHoursView.html" target="_top" xlink:title="OutOfHoursView">
<polygon fill="white" stroke="black" points="127,-152.5 127,-171.5 222,-171.5 222,-152.5 127,-152.5"/>
<text text-anchor="middle" x="174.5" y="-159.5" font-family="Helvetica,sans-Serif" font-size="10.00">OutOfHoursView</text>
</a>
</g>
</g>
<!-- Node1&#45;&gt;Node7 -->
<g id="edge6" class="edge"><title>Node1&#45;&gt;Node7</title>
<path fill="none" stroke="midnightblue" d="M89.3707,-174.018C101.616,-172.269 114.722,-170.397 126.856,-168.663"/>
<polygon fill="midnightblue" stroke="midnightblue" points="88.7311,-170.574 79.3266,-175.453 89.7211,-177.504 88.7311,-170.574"/>
</g>
<!-- Node8 -->
<g id="node8" class="node"><title>Node8</title>
<g id="a_node8"><a xlink:href="classcom_1_1tomoparts_1_1tomoBay_1_1view_1_1views_1_1RootView.html" target="_top" xlink:title="RootView">
<polygon fill="white" stroke="black" points="144.5,-114.5 144.5,-133.5 204.5,-133.5 204.5,-114.5 144.5,-114.5"/>
<text text-anchor="middle" x="174.5" y="-121.5" font-family="Helvetica,sans-Serif" font-size="10.00">RootView</text>
</a>
</g>
</g>
<!-- Node1&#45;&gt;Node8 -->
<g id="edge7" class="edge"><title>Node1&#45;&gt;Node8</title>
<path fill="none" stroke="midnightblue" d="M66.4006,-166.515C80.5137,-158.95 98.4346,-149.865 115,-143 124.372,-139.116 134.844,-135.499 144.309,-132.484"/>
<polygon fill="midnightblue" stroke="midnightblue" points="64.414,-163.612 57.3017,-171.464 67.7587,-169.761 64.414,-163.612"/>
</g>
<!-- Node9 -->
<g id="node9" class="node"><title>Node9</title>
<g id="a_node9"><a xlink:href="classcom_1_1tomoparts_1_1tomoBay_1_1view_1_1views_1_1SalesHistoryView.html" target="_top" xlink:title="SalesHistoryView">
<polygon fill="white" stroke="black" points="125.5,-76.5 125.5,-95.5 223.5,-95.5 223.5,-76.5 125.5,-76.5"/>
<text text-anchor="middle" x="174.5" y="-83.5" font-family="Helvetica,sans-Serif" font-size="10.00">SalesHistoryView</text>
</a>
</g>
</g>
<!-- Node1&#45;&gt;Node9 -->
<g id="edge8" class="edge"><title>Node1&#45;&gt;Node9</title>
<path fill="none" stroke="midnightblue" d="M53.6642,-163.277C67.2673,-146.121 89.9892,-120.496 115,-105 121.173,-101.176 128.194,-98.0422 135.177,-95.5027"/>
<polygon fill="midnightblue" stroke="midnightblue" points="50.7522,-161.322 47.4181,-171.379 56.2959,-165.596 50.7522,-161.322"/>
</g>
<!-- Node10 -->
<g id="node10" class="node"><title>Node10</title>
<g id="a_node10"><a xlink:href="classcom_1_1tomoparts_1_1tomoBay_1_1view_1_1views_1_1salesOrderView_1_1SalesOrderView.html" target="_top" xlink:title="This class is responsible for formatting the data passed to it by the SalesOrderPresenter and providi...">
<polygon fill="white" stroke="black" points="128.5,-38.5 128.5,-57.5 220.5,-57.5 220.5,-38.5 128.5,-38.5"/>
<text text-anchor="middle" x="174.5" y="-45.5" font-family="Helvetica,sans-Serif" font-size="10.00">SalesOrderView</text>
</a>
</g>
</g>
<!-- Node1&#45;&gt;Node10 -->
<g id="edge9" class="edge"><title>Node1&#45;&gt;Node10</title>
<path fill="none" stroke="midnightblue" d="M48.1197,-161.913C59.1627,-136.621 81.9725,-92.2643 115,-67 120.089,-63.1072 126.006,-59.9955 132.083,-57.5125"/>
<polygon fill="midnightblue" stroke="midnightblue" points="44.7501,-160.898 44.1119,-171.473 51.2058,-163.604 44.7501,-160.898"/>
</g>
<!-- Node11 -->
<g id="node11" class="node"><title>Node11</title>
<g id="a_node11"><a xlink:href="classcom_1_1tomoparts_1_1tomoBay_1_1view_1_1views_1_1WarehouseOrderView.html" target="_top" xlink:title="WarehouseOrderView">
<polygon fill="white" stroke="black" points="115,-0.5 115,-19.5 234,-19.5 234,-0.5 115,-0.5"/>
<text text-anchor="middle" x="174.5" y="-7.5" font-family="Helvetica,sans-Serif" font-size="10.00">WarehouseOrderView</text>
</a>
</g>
</g>
<!-- Node1&#45;&gt;Node11 -->
<g id="edge10" class="edge"><title>Node1&#45;&gt;Node11</title>
<path fill="none" stroke="midnightblue" d="M44.8945,-161.188C53.0772,-128.871 73.6954,-64.831 115,-29 119.436,-25.1514 124.667,-22.0795 130.145,-19.6282"/>
<polygon fill="midnightblue" stroke="midnightblue" points="41.4227,-160.658 42.5053,-171.197 48.2315,-162.283 41.4227,-160.658"/>
</g>
</g>
</svg>
