<?xml version="1.0" encoding="UTF-8" standalone="no"?>
<!DOCTYPE svg PUBLIC "-//W3C//DTD SVG 1.1//EN"
 "http://www.w3.org/Graphics/SVG/1.1/DTD/svg11.dtd">
<!-- Generated by graphviz version 2.38.0 (20140413.2041)
 -->
<!-- Title: Graphical Class Hierarchy Pages: 1 -->
<svg width="340pt" height="674pt"
 viewBox="0.00 0.00 340.00 674.00" xmlns="http://www.w3.org/2000/svg" xmlns:xlink="http://www.w3.org/1999/xlink">
<g id="graph0" class="graph" transform="scale(1 1) rotate(0) translate(4 670)">
<title>Graphical Class Hierarchy</title>
<polygon fill="white" stroke="none" points="-4,4 -4,-670 336,-670 336,4 -4,4"/>
<!-- Node1 -->
<g id="node1" class="node"><title>Node1</title>
<g id="a_node1"><a xlink:href="classcom_1_1tomoparts_1_1tomoBay_1_1model_1_1winstock_1_1payloads_1_1components_1_1AbstractPayloadComponent.html" target="_top" xlink:title="AbstractPayloadComponent">
<polygon fill="white" stroke="black" points="0,-323.5 0,-342.5 151,-342.5 151,-323.5 0,-323.5"/>
<text text-anchor="middle" x="75.5" y="-330.5" font-family="Helvetica,sans-Serif" font-size="10.00">AbstractPayloadComponent</text>
</a>
</g>
</g>
<!-- Node2 -->
<g id="node2" class="node"><title>Node2</title>
<g id="a_node2"><a xlink:href="classcom_1_1tomoparts_1_1tomoBay_1_1model_1_1winstock_1_1payloads_1_1components_1_1AddressComponent.html" target="_top" xlink:title="AddressComponent">
<polygon fill="white" stroke="black" points="203.5,-646.5 203.5,-665.5 315.5,-665.5 315.5,-646.5 203.5,-646.5"/>
<text text-anchor="middle" x="259.5" y="-653.5" font-family="Helvetica,sans-Serif" font-size="10.00">AddressComponent</text>
</a>
</g>
</g>
<!-- Node1&#45;&gt;Node2 -->
<g id="edge1" class="edge"><title>Node1&#45;&gt;Node2</title>
<path fill="none" stroke="midnightblue" d="M77.6226,-352.93C81.7792,-407.102 100.919,-558.251 187,-637 191.738,-641.335 197.353,-644.701 203.322,-647.312"/>
<polygon fill="midnightblue" stroke="midnightblue" points="81.0936,-352.38 76.929,-342.638 74.1094,-352.851 81.0936,-352.38"/>
</g>
<!-- Node3 -->
<g id="node3" class="node"><title>Node3</title>
<g id="a_node3"><a xlink:href="classcom_1_1tomoparts_1_1tomoBay_1_1model_1_1winstock_1_1payloads_1_1components_1_1CityComponent.html" target="_top" xlink:title="CityComponent">
<polygon fill="white" stroke="black" points="214,-608.5 214,-627.5 305,-627.5 305,-608.5 214,-608.5"/>
<text text-anchor="middle" x="259.5" y="-615.5" font-family="Helvetica,sans-Serif" font-size="10.00">CityComponent</text>
</a>
</g>
</g>
<!-- Node1&#45;&gt;Node3 -->
<g id="edge2" class="edge"><title>Node1&#45;&gt;Node3</title>
<path fill="none" stroke="midnightblue" d="M78.7627,-352.745C85.4949,-402.094 109.985,-531.67 187,-599 194.542,-605.594 204.126,-609.933 213.807,-612.78"/>
<polygon fill="midnightblue" stroke="midnightblue" points="82.2245,-352.221 77.4963,-342.74 75.2799,-353.1 82.2245,-352.221"/>
</g>
<!-- Node4 -->
<g id="node4" class="node"><title>Node4</title>
<g id="a_node4"><a xlink:href="classcom_1_1tomoparts_1_1tomoBay_1_1model_1_1winstock_1_1payloads_1_1components_1_1CompanyComponent.html" target="_top" xlink:title="CompanyComponent">
<polygon fill="white" stroke="black" points="200,-570.5 200,-589.5 319,-589.5 319,-570.5 200,-570.5"/>
<text text-anchor="middle" x="259.5" y="-577.5" font-family="Helvetica,sans-Serif" font-size="10.00">CompanyComponent</text>
</a>
</g>
</g>
<!-- Node1&#45;&gt;Node4 -->
<g id="edge3" class="edge"><title>Node1&#45;&gt;Node4</title>
<path fill="none" stroke="midnightblue" d="M80.2288,-352.562C89.7039,-396.767 118.945,-504.875 187,-561 191.657,-564.841 197.014,-567.912 202.658,-570.366"/>
<polygon fill="midnightblue" stroke="midnightblue" points="83.6148,-351.648 78.1912,-342.547 76.7553,-353.044 83.6148,-351.648"/>
</g>
<!-- Node5 -->
<g id="node5" class="node"><title>Node5</title>
<g id="a_node5"><a xlink:href="classcom_1_1tomoparts_1_1tomoBay_1_1model_1_1winstock_1_1payloads_1_1components_1_1CountyComponent.html" target="_top" xlink:title="CountyComponent">
<polygon fill="white" stroke="black" points="206,-532.5 206,-551.5 313,-551.5 313,-532.5 206,-532.5"/>
<text text-anchor="middle" x="259.5" y="-539.5" font-family="Helvetica,sans-Serif" font-size="10.00">CountyComponent</text>
</a>
</g>
</g>
<!-- Node1&#45;&gt;Node5 -->
<g id="edge4" class="edge"><title>Node1&#45;&gt;Node5</title>
<path fill="none" stroke="midnightblue" d="M82.2998,-352.668C94.7737,-391.447 127.917,-477.909 187,-523 192.616,-527.286 199.119,-530.607 205.868,-533.18"/>
<polygon fill="midnightblue" stroke="midnightblue" points="85.5041,-351.183 79.205,-342.664 78.8168,-353.252 85.5041,-351.183"/>
</g>
<!-- Node6 -->
<g id="node6" class="node"><title>Node6</title>
<g id="a_node6"><a xlink:href="classcom_1_1tomoparts_1_1tomoBay_1_1model_1_1winstock_1_1payloads_1_1components_1_1DescriptionComponent.html" target="_top" xlink:title="DescriptionComponent">
<polygon fill="white" stroke="black" points="196,-494.5 196,-513.5 323,-513.5 323,-494.5 196,-494.5"/>
<text text-anchor="middle" x="259.5" y="-501.5" font-family="Helvetica,sans-Serif" font-size="10.00">DescriptionComponent</text>
</a>
</g>
</g>
<!-- Node1&#45;&gt;Node6 -->
<g id="edge5" class="edge"><title>Node1&#45;&gt;Node6</title>
<path fill="none" stroke="midnightblue" d="M84.8943,-351.831C100.306,-384.188 136.252,-450.21 187,-485 192.615,-488.849 198.969,-491.919 205.516,-494.367"/>
<polygon fill="midnightblue" stroke="midnightblue" points="87.9946,-350.196 80.6192,-342.59 81.6416,-353.136 87.9946,-350.196"/>
</g>
<!-- Node7 -->
<g id="node7" class="node"><title>Node7</title>
<g id="a_node7"><a xlink:href="classcom_1_1tomoparts_1_1tomoBay_1_1model_1_1winstock_1_1payloads_1_1components_1_1InStockComponent.html" target="_top" xlink:title="Copyright(C) 2015 Jan P.C. ">
<polygon fill="white" stroke="black" points="205.5,-456.5 205.5,-475.5 313.5,-475.5 313.5,-456.5 205.5,-456.5"/>
<text text-anchor="middle" x="259.5" y="-463.5" font-family="Helvetica,sans-Serif" font-size="10.00">InStockComponent</text>
</a>
</g>
</g>
<!-- Node1&#45;&gt;Node7 -->
<g id="edge6" class="edge"><title>Node1&#45;&gt;Node7</title>
<path fill="none" stroke="midnightblue" d="M88.9208,-350.956C107.367,-376.243 144.436,-422.04 187,-447 193.648,-450.898 201.107,-454.013 208.632,-456.497"/>
<polygon fill="midnightblue" stroke="midnightblue" points="91.6484,-348.753 82.9919,-342.644 85.9497,-352.818 91.6484,-348.753"/>
</g>
<!-- Node8 -->
<g id="node8" class="node"><title>Node8</title>
<g id="a_node8"><a xlink:href="classcom_1_1tomoparts_1_1tomoBay_1_1model_1_1winstock_1_1payloads_1_1components_1_1InvLineComponent.html" target="_top" xlink:title="Copyright(C) 2015 Jan P.C. ">
<polygon fill="white" stroke="black" points="206.5,-418.5 206.5,-437.5 312.5,-437.5 312.5,-418.5 206.5,-418.5"/>
<text text-anchor="middle" x="259.5" y="-425.5" font-family="Helvetica,sans-Serif" font-size="10.00">InvLineComponent</text>
</a>
</g>
</g>
<!-- Node1&#45;&gt;Node8 -->
<g id="edge7" class="edge"><title>Node1&#45;&gt;Node8</title>
<path fill="none" stroke="midnightblue" d="M95.4779,-349.098C116.562,-366.225 152.234,-393.009 187,-409 195.168,-412.757 204.215,-415.88 213.05,-418.435"/>
<polygon fill="midnightblue" stroke="midnightblue" points="97.574,-346.29 87.6342,-342.622 93.1173,-351.688 97.574,-346.29"/>
</g>
<!-- Node9 -->
<g id="node9" class="node"><title>Node9</title>
<g id="a_node9"><a xlink:href="classcom_1_1tomoparts_1_1tomoBay_1_1model_1_1winstock_1_1payloads_1_1components_1_1InvoiceAccountComponent.html" target="_top" xlink:title="InvoiceAccountComponent">
<polygon fill="white" stroke="black" points="187,-380.5 187,-399.5 332,-399.5 332,-380.5 187,-380.5"/>
<text text-anchor="middle" x="259.5" y="-387.5" font-family="Helvetica,sans-Serif" font-size="10.00">InvoiceAccountComponent</text>
</a>
</g>
</g>
<!-- Node1&#45;&gt;Node9 -->
<g id="edge8" class="edge"><title>Node1&#45;&gt;Node9</title>
<path fill="none" stroke="midnightblue" d="M112.372,-346.064C133.889,-353.717 161.869,-363.35 187,-371 197.813,-374.291 209.641,-377.565 220.508,-380.444"/>
<polygon fill="midnightblue" stroke="midnightblue" points="113.267,-342.667 102.673,-342.592 110.909,-349.257 113.267,-342.667"/>
</g>
<!-- Node10 -->
<g id="node10" class="node"><title>Node10</title>
<g id="a_node10"><a xlink:href="classcom_1_1tomoparts_1_1tomoBay_1_1model_1_1winstock_1_1payloads_1_1components_1_1InvoiceNoComponent.html" target="_top" xlink:title="Copyright(C) 2015 Jan P.C. ">
<polygon fill="white" stroke="black" points="200,-342.5 200,-361.5 319,-361.5 319,-342.5 200,-342.5"/>
<text text-anchor="middle" x="259.5" y="-349.5" font-family="Helvetica,sans-Serif" font-size="10.00">InvoiceNoComponent</text>
</a>
</g>
</g>
<!-- Node1&#45;&gt;Node10 -->
<g id="edge9" class="edge"><title>Node1&#45;&gt;Node10</title>
<path fill="none" stroke="midnightblue" d="M161.054,-341.827C174.203,-343.2 187.533,-344.591 199.938,-345.886"/>
<polygon fill="midnightblue" stroke="midnightblue" points="161.361,-338.34 151.051,-340.783 160.634,-345.302 161.361,-338.34"/>
</g>
<!-- Node11 -->
<g id="node11" class="node"><title>Node11</title>
<g id="a_node11"><a xlink:href="classcom_1_1tomoparts_1_1tomoBay_1_1model_1_1winstock_1_1payloads_1_1components_1_1NameComponent.html" target="_top" xlink:title="NameComponent">
<polygon fill="white" stroke="black" points="208.5,-304.5 208.5,-323.5 310.5,-323.5 310.5,-304.5 208.5,-304.5"/>
<text text-anchor="middle" x="259.5" y="-311.5" font-family="Helvetica,sans-Serif" font-size="10.00">NameComponent</text>
</a>
</g>
</g>
<!-- Node1&#45;&gt;Node11 -->
<g id="edge10" class="edge"><title>Node1&#45;&gt;Node11</title>
<path fill="none" stroke="midnightblue" d="M161.095,-324.169C177.313,-322.476 193.803,-320.754 208.492,-319.221"/>
<polygon fill="midnightblue" stroke="midnightblue" points="160.634,-320.698 151.051,-325.217 161.361,-327.66 160.634,-320.698"/>
</g>
<!-- Node12 -->
<g id="node12" class="node"><title>Node12</title>
<g id="a_node12"><a xlink:href="classcom_1_1tomoparts_1_1tomoBay_1_1model_1_1winstock_1_1payloads_1_1components_1_1OrderNoComponent.html" target="_top" xlink:title="OrderNoComponent">
<polygon fill="white" stroke="black" points="203,-266.5 203,-285.5 316,-285.5 316,-266.5 203,-266.5"/>
<text text-anchor="middle" x="259.5" y="-273.5" font-family="Helvetica,sans-Serif" font-size="10.00">OrderNoComponent</text>
</a>
</g>
</g>
<!-- Node1&#45;&gt;Node12 -->
<g id="edge11" class="edge"><title>Node1&#45;&gt;Node12</title>
<path fill="none" stroke="midnightblue" d="M112.372,-319.936C133.889,-312.283 161.869,-302.65 187,-295 197.813,-291.709 209.641,-288.435 220.508,-285.556"/>
<polygon fill="midnightblue" stroke="midnightblue" points="110.909,-316.743 102.673,-323.408 113.267,-323.333 110.909,-316.743"/>
</g>
<!-- Node13 -->
<g id="node13" class="node"><title>Node13</title>
<g id="a_node13"><a xlink:href="classcom_1_1tomoparts_1_1tomoBay_1_1model_1_1winstock_1_1payloads_1_1components_1_1PackingListsComponent.html" target="_top" xlink:title="Copyright(C) 2015 Jan P.C. ">
<polygon fill="white" stroke="black" points="194,-228.5 194,-247.5 325,-247.5 325,-228.5 194,-228.5"/>
<text text-anchor="middle" x="259.5" y="-235.5" font-family="Helvetica,sans-Serif" font-size="10.00">PackingListsComponent</text>
</a>
</g>
</g>
<!-- Node1&#45;&gt;Node13 -->
<g id="edge12" class="edge"><title>Node1&#45;&gt;Node13</title>
<path fill="none" stroke="midnightblue" d="M95.4779,-316.902C116.562,-299.775 152.234,-272.991 187,-257 195.168,-253.243 204.215,-250.12 213.05,-247.565"/>
<polygon fill="midnightblue" stroke="midnightblue" points="93.1173,-314.312 87.6342,-323.378 97.574,-319.71 93.1173,-314.312"/>
</g>
<!-- Node14 -->
<g id="node14" class="node"><title>Node14</title>
<g id="a_node14"><a xlink:href="classcom_1_1tomoparts_1_1tomoBay_1_1model_1_1winstock_1_1payloads_1_1components_1_1PartNoComponent.html" target="_top" xlink:title="PartNoComponent">
<polygon fill="white" stroke="black" points="206.5,-190.5 206.5,-209.5 312.5,-209.5 312.5,-190.5 206.5,-190.5"/>
<text text-anchor="middle" x="259.5" y="-197.5" font-family="Helvetica,sans-Serif" font-size="10.00">PartNoComponent</text>
</a>
</g>
</g>
<!-- Node1&#45;&gt;Node14 -->
<g id="edge13" class="edge"><title>Node1&#45;&gt;Node14</title>
<path fill="none" stroke="midnightblue" d="M88.9208,-315.044C107.367,-289.757 144.436,-243.96 187,-219 193.648,-215.102 201.107,-211.987 208.632,-209.503"/>
<polygon fill="midnightblue" stroke="midnightblue" points="85.9497,-313.182 82.9919,-323.356 91.6484,-317.247 85.9497,-313.182"/>
</g>
<!-- Node15 -->
<g id="node15" class="node"><title>Node15</title>
<g id="a_node15"><a xlink:href="classcom_1_1tomoparts_1_1tomoBay_1_1model_1_1winstock_1_1payloads_1_1components_1_1PostCodeComponent.html" target="_top" xlink:title="PostCodeComponent">
<polygon fill="white" stroke="black" points="200,-152.5 200,-171.5 319,-171.5 319,-152.5 200,-152.5"/>
<text text-anchor="middle" x="259.5" y="-159.5" font-family="Helvetica,sans-Serif" font-size="10.00">PostCodeComponent</text>
</a>
</g>
</g>
<!-- Node1&#45;&gt;Node15 -->
<g id="edge14" class="edge"><title>Node1&#45;&gt;Node15</title>
<path fill="none" stroke="midnightblue" d="M84.8943,-314.169C100.306,-281.812 136.252,-215.79 187,-181 192.615,-177.151 198.969,-174.081 205.516,-171.633"/>
<polygon fill="midnightblue" stroke="midnightblue" points="81.6416,-312.864 80.6192,-323.41 87.9946,-315.804 81.6416,-312.864"/>
</g>
<!-- Node16 -->
<g id="node16" class="node"><title>Node16</title>
<g id="a_node16"><a xlink:href="classcom_1_1tomoparts_1_1tomoBay_1_1model_1_1winstock_1_1payloads_1_1components_1_1PriceComponent.html" target="_top" xlink:title="Copyright(C) 2015 Jan P.C. ">
<polygon fill="white" stroke="black" points="211.5,-114.5 211.5,-133.5 307.5,-133.5 307.5,-114.5 211.5,-114.5"/>
<text text-anchor="middle" x="259.5" y="-121.5" font-family="Helvetica,sans-Serif" font-size="10.00">PriceComponent</text>
</a>
</g>
</g>
<!-- Node1&#45;&gt;Node16 -->
<g id="edge15" class="edge"><title>Node1&#45;&gt;Node16</title>
<path fill="none" stroke="midnightblue" d="M82.2998,-313.332C94.7737,-274.553 127.917,-188.091 187,-143 194.147,-137.545 202.732,-133.653 211.433,-130.877"/>
<polygon fill="midnightblue" stroke="midnightblue" points="78.8168,-312.748 79.205,-323.336 85.5041,-314.817 78.8168,-312.748"/>
</g>
<!-- Node17 -->
<g id="node17" class="node"><title>Node17</title>
<g id="a_node17"><a xlink:href="classcom_1_1tomoparts_1_1tomoBay_1_1model_1_1winstock_1_1payloads_1_1components_1_1PrintCopiesComponent.html" target="_top" xlink:title="Copyright(C) 2015 Jan P.C. ">
<polygon fill="white" stroke="black" points="196,-76.5 196,-95.5 323,-95.5 323,-76.5 196,-76.5"/>
<text text-anchor="middle" x="259.5" y="-83.5" font-family="Helvetica,sans-Serif" font-size="10.00">PrintCopiesComponent</text>
</a>
</g>
</g>
<!-- Node1&#45;&gt;Node17 -->
<g id="edge16" class="edge"><title>Node1&#45;&gt;Node17</title>
<path fill="none" stroke="midnightblue" d="M80.2288,-313.438C89.7039,-269.233 118.945,-161.125 187,-105 191.657,-101.159 197.014,-98.0883 202.658,-95.634"/>
<polygon fill="midnightblue" stroke="midnightblue" points="76.7553,-312.956 78.1912,-323.453 83.6148,-314.352 76.7553,-312.956"/>
</g>
<!-- Node18 -->
<g id="node18" class="node"><title>Node18</title>
<g id="a_node18"><a xlink:href="classcom_1_1tomoparts_1_1tomoBay_1_1model_1_1winstock_1_1payloads_1_1components_1_1QuantityComponent.html" target="_top" xlink:title="Copyright(C) 2015 Jan P.C. ">
<polygon fill="white" stroke="black" points="203,-38.5 203,-57.5 316,-57.5 316,-38.5 203,-38.5"/>
<text text-anchor="middle" x="259.5" y="-45.5" font-family="Helvetica,sans-Serif" font-size="10.00">QuantityComponent</text>
</a>
</g>
</g>
<!-- Node1&#45;&gt;Node18 -->
<g id="edge17" class="edge"><title>Node1&#45;&gt;Node18</title>
<path fill="none" stroke="midnightblue" d="M78.7627,-313.255C85.4949,-263.906 109.985,-134.33 187,-67 191.641,-62.9422 197.056,-59.7381 202.791,-57.2103"/>
<polygon fill="midnightblue" stroke="midnightblue" points="75.2799,-312.9 77.4963,-323.26 82.2245,-313.779 75.2799,-312.9"/>
</g>
<!-- Node19 -->
<g id="node19" class="node"><title>Node19</title>
<g id="a_node19"><a xlink:href="classcom_1_1tomoparts_1_1tomoBay_1_1model_1_1winstock_1_1payloads_1_1components_1_1TypeComponent.html" target="_top" xlink:title="Copyright(C) 2015 Jan P.C. ">
<polygon fill="white" stroke="black" points="212,-0.5 212,-19.5 307,-19.5 307,-0.5 212,-0.5"/>
<text text-anchor="middle" x="259.5" y="-7.5" font-family="Helvetica,sans-Serif" font-size="10.00">TypeComponent</text>
</a>
</g>
</g>
<!-- Node1&#45;&gt;Node19 -->
<g id="edge18" class="edge"><title>Node1&#45;&gt;Node19</title>
<path fill="none" stroke="midnightblue" d="M77.6226,-313.07C81.7792,-258.898 100.919,-107.749 187,-29 193.918,-22.6713 202.705,-18.4069 211.731,-15.5442"/>
<polygon fill="midnightblue" stroke="midnightblue" points="74.1094,-313.149 76.929,-323.362 81.0936,-313.62 74.1094,-313.149"/>
</g>
</g>
</svg>
