<?xml version="1.0" encoding="UTF-8" standalone="no"?>
<!DOCTYPE svg PUBLIC "-//W3C//DTD SVG 1.1//EN"
 "http://www.w3.org/Graphics/SVG/1.1/DTD/svg11.dtd">
<!-- Generated by graphviz version 2.38.0 (20140413.2041)
 -->
<!-- Title: Graphical Class Hierarchy Pages: 1 -->
<svg width="380pt" height="332pt"
 viewBox="0.00 0.00 380.00 332.00" xmlns="http://www.w3.org/2000/svg" xmlns:xlink="http://www.w3.org/1999/xlink">
<g id="graph0" class="graph" transform="scale(1 1) rotate(0) translate(4 328)">
<title>Graphical Class Hierarchy</title>
<polygon fill="white" stroke="none" points="-4,4 -4,-328 376,-328 376,4 -4,4"/>
<!-- Node1 -->
<g id="node1" class="node"><title>Node1</title>
<polygon fill="white" stroke="#bfbfbf" points="0,-152.5 0,-171.5 54,-171.5 54,-152.5 0,-152.5"/>
<text text-anchor="middle" x="27" y="-159.5" font-family="Helvetica,sans-Serif" font-size="10.00">Callable</text>
</g>
<!-- Node2 -->
<g id="node2" class="node"><title>Node2</title>
<g id="a_node2"><a xlink:href="classcom_1_1tomoparts_1_1tomoBay_1_1model_1_1services_1_1AbstractService.html" target="_top" xlink:title="Allows the system to only accept runnable&#39;s that implement this interface rather than all runnables...">
<polygon fill="white" stroke="black" points="90,-152.5 90,-171.5 182,-171.5 182,-152.5 90,-152.5"/>
<text text-anchor="middle" x="136" y="-159.5" font-family="Helvetica,sans-Serif" font-size="10.00">AbstractService</text>
</a>
</g>
</g>
<!-- Node1&#45;&gt;Node2 -->
<g id="edge1" class="edge"><title>Node1&#45;&gt;Node2</title>
<path fill="none" stroke="midnightblue" d="M64.2281,-162C72.4777,-162 81.3412,-162 89.9095,-162"/>
<polygon fill="midnightblue" stroke="midnightblue" points="64.1752,-158.5 54.1751,-162 64.1751,-165.5 64.1752,-158.5"/>
</g>
<!-- Node3 -->
<g id="node3" class="node"><title>Node3</title>
<g id="a_node3"><a xlink:href="classcom_1_1tomoparts_1_1tomoBay_1_1model_1_1services_1_1basicEbayUpdateService_1_1BasicEbayUpdateService.html" target="_top" xlink:title="This class represents the start of the execution flow for the eBay Service, The service quereies the ...">
<polygon fill="white" stroke="black" points="227,-304.5 227,-323.5 363,-323.5 363,-304.5 227,-304.5"/>
<text text-anchor="middle" x="295" y="-311.5" font-family="Helvetica,sans-Serif" font-size="10.00">BasicEbayUpdateService</text>
</a>
</g>
</g>
<!-- Node2&#45;&gt;Node3 -->
<g id="edge2" class="edge"><title>Node2&#45;&gt;Node3</title>
<path fill="none" stroke="midnightblue" d="M143.356,-181.326C153.994,-210.569 178.243,-265.745 218,-295 223.258,-298.869 229.216,-301.955 235.427,-304.416"/>
<polygon fill="midnightblue" stroke="midnightblue" points="146.64,-180.116 140.048,-171.821 140.029,-182.416 146.64,-180.116"/>
</g>
<!-- Node4 -->
<g id="node4" class="node"><title>Node4</title>
<g id="a_node4"><a xlink:href="classcom_1_1tomoparts_1_1tomoBay_1_1model_1_1services_1_1checkErrorsService_1_1CheckErrorsService.html" target="_top" xlink:title="CheckErrorsService">
<polygon fill="white" stroke="black" points="240,-266.5 240,-285.5 350,-285.5 350,-266.5 240,-266.5"/>
<text text-anchor="middle" x="295" y="-273.5" font-family="Helvetica,sans-Serif" font-size="10.00">CheckErrorsService</text>
</a>
</g>
</g>
<!-- Node2&#45;&gt;Node4 -->
<g id="edge3" class="edge"><title>Node2&#45;&gt;Node4</title>
<path fill="none" stroke="midnightblue" d="M147.504,-180.108C161.019,-201.757 186.547,-237.504 218,-257 224.705,-261.156 232.273,-264.404 239.968,-266.942"/>
<polygon fill="midnightblue" stroke="midnightblue" points="150.481,-178.268 142.312,-171.521 144.491,-181.89 150.481,-178.268"/>
</g>
<!-- Node5 -->
<g id="node5" class="node"><title>Node5</title>
<g id="a_node5"><a xlink:href="classcom_1_1tomoparts_1_1tomoBay_1_1model_1_1services_1_1emailErrorsService_1_1EmailErrorsService.html" target="_top" xlink:title="This service is responsible for generating a list of erroneous items that exist within the database a...">
<polygon fill="white" stroke="black" points="241.5,-228.5 241.5,-247.5 348.5,-247.5 348.5,-228.5 241.5,-228.5"/>
<text text-anchor="middle" x="295" y="-235.5" font-family="Helvetica,sans-Serif" font-size="10.00">EmailErrorsService</text>
</a>
</g>
</g>
<!-- Node2&#45;&gt;Node5 -->
<g id="edge4" class="edge"><title>Node2&#45;&gt;Node5</title>
<path fill="none" stroke="midnightblue" d="M155.57,-178.092C171.243,-190.898 194.78,-208.376 218,-219 226.286,-222.791 235.441,-225.899 244.442,-228.422"/>
<polygon fill="midnightblue" stroke="midnightblue" points="157.641,-175.261 147.724,-171.531 153.151,-180.631 157.641,-175.261"/>
</g>
<!-- Node6 -->
<g id="node6" class="node"><title>Node6</title>
<g id="a_node6"><a xlink:href="classcom_1_1tomoparts_1_1tomoBay_1_1model_1_1services_1_1individualItemRefreshService_1_1IndividualItemRefreshService.html" target="_top" xlink:title="This service updates an individual item by re querying the eBay API for item information. ">
<polygon fill="white" stroke="black" points="218,-190.5 218,-209.5 372,-209.5 372,-190.5 218,-190.5"/>
<text text-anchor="middle" x="295" y="-197.5" font-family="Helvetica,sans-Serif" font-size="10.00">IndividualItemRefreshService</text>
</a>
</g>
</g>
<!-- Node2&#45;&gt;Node6 -->
<g id="edge5" class="edge"><title>Node2&#45;&gt;Node6</title>
<path fill="none" stroke="midnightblue" d="M186.447,-173.968C208.448,-179.293 233.994,-185.476 254.667,-190.48"/>
<polygon fill="midnightblue" stroke="midnightblue" points="187.16,-170.54 176.618,-171.589 185.514,-177.343 187.16,-170.54"/>
</g>
<!-- Node7 -->
<g id="node7" class="node"><title>Node7</title>
<g id="a_node7"><a xlink:href="classcom_1_1tomoparts_1_1tomoBay_1_1model_1_1services_1_1outOfHoursService_1_1OutOfHoursService.html" target="_top" xlink:title="OutOfHoursService">
<polygon fill="white" stroke="black" points="241,-152.5 241,-171.5 349,-171.5 349,-152.5 241,-152.5"/>
<text text-anchor="middle" x="295" y="-159.5" font-family="Helvetica,sans-Serif" font-size="10.00">OutOfHoursService</text>
</a>
</g>
</g>
<!-- Node2&#45;&gt;Node7 -->
<g id="edge6" class="edge"><title>Node2&#45;&gt;Node7</title>
<path fill="none" stroke="midnightblue" d="M192.527,-162C208.261,-162 225.347,-162 240.932,-162"/>
<polygon fill="midnightblue" stroke="midnightblue" points="192.411,-158.5 182.411,-162 192.411,-165.5 192.411,-158.5"/>
</g>
<!-- Node8 -->
<g id="node8" class="node"><title>Node8</title>
<g id="a_node8"><a xlink:href="classcom_1_1tomoparts_1_1tomoBay_1_1model_1_1services_1_1reScanBuyerService_1_1ReScanBuyerService.html" target="_top" xlink:title="Copyright(C) 2015 Jan P.C. ">
<polygon fill="white" stroke="black" points="237,-114.5 237,-133.5 353,-133.5 353,-114.5 237,-114.5"/>
<text text-anchor="middle" x="295" y="-121.5" font-family="Helvetica,sans-Serif" font-size="10.00">ReScanBuyerService</text>
</a>
</g>
</g>
<!-- Node2&#45;&gt;Node8 -->
<g id="edge7" class="edge"><title>Node2&#45;&gt;Node8</title>
<path fill="none" stroke="midnightblue" d="M186.447,-150.032C208.448,-144.707 233.994,-138.524 254.667,-133.52"/>
<polygon fill="midnightblue" stroke="midnightblue" points="185.514,-146.657 176.618,-152.411 187.16,-153.46 185.514,-146.657"/>
</g>
<!-- Node9 -->
<g id="node9" class="node"><title>Node9</title>
<g id="a_node9"><a xlink:href="classcom_1_1tomoparts_1_1tomoBay_1_1model_1_1services_1_1reScanErrorsService_1_1ReScanErrorsService.html" target="_top" xlink:title="ReScanErrorsService">
<polygon fill="white" stroke="black" points="237,-76.5 237,-95.5 353,-95.5 353,-76.5 237,-76.5"/>
<text text-anchor="middle" x="295" y="-83.5" font-family="Helvetica,sans-Serif" font-size="10.00">ReScanErrorsService</text>
</a>
</g>
</g>
<!-- Node2&#45;&gt;Node9 -->
<g id="edge8" class="edge"><title>Node2&#45;&gt;Node9</title>
<path fill="none" stroke="midnightblue" d="M155.57,-145.908C171.243,-133.102 194.78,-115.624 218,-105 226.286,-101.209 235.441,-98.1007 244.442,-95.5777"/>
<polygon fill="midnightblue" stroke="midnightblue" points="153.151,-143.369 147.724,-152.469 157.641,-148.739 153.151,-143.369"/>
</g>
<!-- Node10 -->
<g id="node10" class="node"><title>Node10</title>
<g id="a_node10"><a xlink:href="classcom_1_1tomoparts_1_1tomoBay_1_1model_1_1services_1_1testService_1_1TestService.html" target="_top" xlink:title="A test service. ">
<polygon fill="white" stroke="black" points="259,-38.5 259,-57.5 331,-57.5 331,-38.5 259,-38.5"/>
<text text-anchor="middle" x="295" y="-45.5" font-family="Helvetica,sans-Serif" font-size="10.00">TestService</text>
</a>
</g>
</g>
<!-- Node2&#45;&gt;Node10 -->
<g id="edge9" class="edge"><title>Node2&#45;&gt;Node10</title>
<path fill="none" stroke="midnightblue" d="M147.504,-143.892C161.019,-122.243 186.547,-86.4959 218,-67 230.254,-59.4048 245.39,-54.8419 258.92,-52.1023"/>
<polygon fill="midnightblue" stroke="midnightblue" points="144.491,-142.11 142.312,-152.479 150.481,-145.732 144.491,-142.11"/>
</g>
<!-- Node11 -->
<g id="node11" class="node"><title>Node11</title>
<g id="a_node11"><a xlink:href="classcom_1_1tomoparts_1_1tomoBay_1_1model_1_1services_1_1updateOrderStatusService_1_1UpdateOrderStatusService.html" target="_top" xlink:title="This service is responsible for updateing the status of an order i.e. ">
<polygon fill="white" stroke="black" points="222,-0.5 222,-19.5 368,-19.5 368,-0.5 222,-0.5"/>
<text text-anchor="middle" x="295" y="-7.5" font-family="Helvetica,sans-Serif" font-size="10.00">UpdateOrderStatusService</text>
</a>
</g>
</g>
<!-- Node2&#45;&gt;Node11 -->
<g id="edge10" class="edge"><title>Node2&#45;&gt;Node11</title>
<path fill="none" stroke="midnightblue" d="M143.356,-142.674C153.994,-113.431 178.243,-58.2548 218,-29 223.258,-25.1309 229.216,-22.0447 235.427,-19.5839"/>
<polygon fill="midnightblue" stroke="midnightblue" points="140.029,-141.584 140.048,-152.179 146.64,-143.884 140.029,-141.584"/>
</g>
</g>
</svg>
