<?xml version="1.0" encoding="UTF-8" standalone="no"?>
<!DOCTYPE svg PUBLIC "-//W3C//DTD SVG 1.1//EN"
 "http://www.w3.org/Graphics/SVG/1.1/DTD/svg11.dtd">
<!-- Generated by graphviz version 2.38.0 (20140413.2041)
 -->
<!-- Title: AbstractTypeSchema Pages: 1 -->
<svg width="988pt" height="248pt"
 viewBox="0.00 0.00 987.50 248.00" xmlns="http://www.w3.org/2000/svg" xmlns:xlink="http://www.w3.org/1999/xlink">
<g id="graph0" class="graph" transform="scale(1 1) rotate(0) translate(4 244)">
<title>AbstractTypeSchema</title>
<polygon fill="white" stroke="none" points="-4,4 -4,-244 983.5,-244 983.5,4 -4,4"/>
<!-- Node1 -->
<g id="node1" class="node"><title>Node1</title>
<polygon fill="#bfbfbf" stroke="black" points="402.5,-182.5 402.5,-239.5 521.5,-239.5 521.5,-182.5 402.5,-182.5"/>
<text text-anchor="middle" x="462" y="-227.5" font-family="Helvetica,sans-Serif" font-size="10.00">AbstractTypeSchema</text>
<polyline fill="none" stroke="black" points="402.5,-220.5 521.5,-220.5 "/>
<text text-anchor="middle" x="462" y="-208.5" font-family="Helvetica,sans-Serif" font-size="10.00"> </text>
<polyline fill="none" stroke="black" points="402.5,-201.5 521.5,-201.5 "/>
<text text-anchor="middle" x="462" y="-189.5" font-family="Helvetica,sans-Serif" font-size="10.00"> </text>
</g>
<!-- Node2 -->
<g id="node2" class="node"><title>Node2</title>
<g id="a_node2"><a xlink:href="classcom_1_1tomoparts_1_1tomoBay_1_1model_1_1sql_1_1schema_1_1accountsTable_1_1AccountsTable.html" target="_top" xlink:title="This represents the structure of the ebay_accounts table in the database. ">
<polygon fill="white" stroke="black" points="0,-22.5 0,-123.5 112,-123.5 112,-22.5 0,-22.5"/>
<text text-anchor="middle" x="56" y="-111.5" font-family="Helvetica,sans-Serif" font-size="10.00">AccountsTable</text>
<polyline fill="none" stroke="black" points="0,-104.5 112,-104.5 "/>
<text text-anchor="start" x="8" y="-92.5" font-family="Helvetica,sans-Serif" font-size="10.00">+ ID</text>
<text text-anchor="start" x="8" y="-81.5" font-family="Helvetica,sans-Serif" font-size="10.00">+ API_KEY</text>
<text text-anchor="start" x="8" y="-70.5" font-family="Helvetica,sans-Serif" font-size="10.00">+ SERVER_ADDR</text>
<text text-anchor="start" x="8" y="-59.5" font-family="Helvetica,sans-Serif" font-size="10.00">+ ACCOUNT_NAME</text>
<text text-anchor="start" x="8" y="-48.5" font-family="Helvetica,sans-Serif" font-size="10.00">+ LOOKBACK_DAYS</text>
<polyline fill="none" stroke="black" points="0,-41.5 112,-41.5 "/>
<text text-anchor="start" x="8" y="-29.5" font-family="Helvetica,sans-Serif" font-size="10.00">+ AccountsTable()</text>
</a>
</g>
</g>
<!-- Node1&#45;&gt;Node2 -->
<g id="edge1" class="edge"><title>Node1&#45;&gt;Node2</title>
<path fill="none" stroke="midnightblue" d="M391.987,-209.74C319.77,-206.641 206.007,-193.66 121,-146 110.718,-140.235 101.198,-132.24 92.794,-123.664"/>
<polygon fill="none" stroke="midnightblue" points="392.207,-213.251 402.332,-210.129 392.47,-206.256 392.207,-213.251"/>
</g>
<!-- Node3 -->
<g id="node3" class="node"><title>Node3</title>
<g id="a_node3"><a xlink:href="classcom_1_1tomoparts_1_1tomoBay_1_1model_1_1sql_1_1schema_1_1buyerTable_1_1BuyerTable.html" target="_top" xlink:title="This represents the structure of the ebay_buyers table in the database. ">
<polygon fill="white" stroke="black" points="130,-0.5 130,-145.5 214,-145.5 214,-0.5 130,-0.5"/>
<text text-anchor="middle" x="172" y="-133.5" font-family="Helvetica,sans-Serif" font-size="10.00">BuyerTable</text>
<polyline fill="none" stroke="black" points="130,-126.5 214,-126.5 "/>
<text text-anchor="start" x="138" y="-114.5" font-family="Helvetica,sans-Serif" font-size="10.00">+ BUYERID</text>
<text text-anchor="start" x="138" y="-103.5" font-family="Helvetica,sans-Serif" font-size="10.00">+ NAME</text>
<text text-anchor="start" x="138" y="-92.5" font-family="Helvetica,sans-Serif" font-size="10.00">+ STREET1</text>
<text text-anchor="start" x="138" y="-81.5" font-family="Helvetica,sans-Serif" font-size="10.00">+ STREET2</text>
<text text-anchor="start" x="138" y="-70.5" font-family="Helvetica,sans-Serif" font-size="10.00">+ CITY</text>
<text text-anchor="start" x="138" y="-59.5" font-family="Helvetica,sans-Serif" font-size="10.00">+ COUNTY</text>
<text text-anchor="start" x="138" y="-48.5" font-family="Helvetica,sans-Serif" font-size="10.00">+ POSTCODE</text>
<text text-anchor="start" x="138" y="-37.5" font-family="Helvetica,sans-Serif" font-size="10.00">+ EMAIL</text>
<text text-anchor="start" x="138" y="-26.5" font-family="Helvetica,sans-Serif" font-size="10.00">+ PHONE</text>
<polyline fill="none" stroke="black" points="130,-19.5 214,-19.5 "/>
<text text-anchor="start" x="138" y="-7.5" font-family="Helvetica,sans-Serif" font-size="10.00">&#45; BuyerTable()</text>
</a>
</g>
</g>
<!-- Node1&#45;&gt;Node3 -->
<g id="edge2" class="edge"><title>Node1&#45;&gt;Node3</title>
<path fill="none" stroke="midnightblue" d="M392.027,-203.99C341.317,-196.772 273.134,-180.896 223,-146 219.983,-143.9 217.083,-141.56 214.305,-139.045"/>
<polygon fill="none" stroke="midnightblue" points="391.871,-207.501 402.248,-205.362 392.803,-200.563 391.871,-207.501"/>
</g>
<!-- Node4 -->
<g id="node4" class="node"><title>Node4</title>
<g id="a_node4"><a xlink:href="classcom_1_1tomoparts_1_1tomoBay_1_1model_1_1sql_1_1schema_1_1itemsTable_1_1ItemsTable.html" target="_top" xlink:title="This represents the structure of the ebay_items table of the database. ">
<polygon fill="white" stroke="black" points="232.5,-11.5 232.5,-134.5 315.5,-134.5 315.5,-11.5 232.5,-11.5"/>
<text text-anchor="middle" x="274" y="-122.5" font-family="Helvetica,sans-Serif" font-size="10.00">ItemsTable</text>
<polyline fill="none" stroke="black" points="232.5,-115.5 315.5,-115.5 "/>
<text text-anchor="start" x="240.5" y="-103.5" font-family="Helvetica,sans-Serif" font-size="10.00">+ ITEM_ID</text>
<text text-anchor="start" x="240.5" y="-92.5" font-family="Helvetica,sans-Serif" font-size="10.00">+ TITLE</text>
<text text-anchor="start" x="240.5" y="-81.5" font-family="Helvetica,sans-Serif" font-size="10.00">+ CONDITION</text>
<text text-anchor="start" x="240.5" y="-70.5" font-family="Helvetica,sans-Serif" font-size="10.00">+ BRAND</text>
<text text-anchor="start" x="240.5" y="-59.5" font-family="Helvetica,sans-Serif" font-size="10.00">+ PART_NO</text>
<text text-anchor="start" x="240.5" y="-48.5" font-family="Helvetica,sans-Serif" font-size="10.00">+ NOTES</text>
<text text-anchor="start" x="240.5" y="-37.5" font-family="Helvetica,sans-Serif" font-size="10.00">+ ACCOUNT</text>
<polyline fill="none" stroke="black" points="232.5,-30.5 315.5,-30.5 "/>
<text text-anchor="start" x="240.5" y="-18.5" font-family="Helvetica,sans-Serif" font-size="10.00">&#45; ItemsTable()</text>
</a>
</g>
</g>
<!-- Node1&#45;&gt;Node4 -->
<g id="edge3" class="edge"><title>Node1&#45;&gt;Node4</title>
<path fill="none" stroke="midnightblue" d="M393.041,-186.07C369.895,-175.971 344.924,-162.638 325,-146 320.885,-142.564 316.942,-138.721 313.2,-134.647"/>
<polygon fill="none" stroke="midnightblue" points="391.913,-189.393 402.487,-190.06 394.637,-182.945 391.913,-189.393"/>
</g>
<!-- Node5 -->
<g id="node5" class="node"><title>Node5</title>
<g id="a_node5"><a xlink:href="classcom_1_1tomoparts_1_1tomoBay_1_1model_1_1sql_1_1schema_1_1nonDBFields_1_1NonDBFields.html" target="_top" xlink:title="{NonDBFields\n|+ RESULT_CODE\l+ DATE_COMPARISON\l+ Custom_INT_FIELD\l|&#45; NonDBFields()\l}">
<polygon fill="white" stroke="black" points="334,-33.5 334,-112.5 458,-112.5 458,-33.5 334,-33.5"/>
<text text-anchor="middle" x="396" y="-100.5" font-family="Helvetica,sans-Serif" font-size="10.00">NonDBFields</text>
<polyline fill="none" stroke="black" points="334,-93.5 458,-93.5 "/>
<text text-anchor="start" x="342" y="-81.5" font-family="Helvetica,sans-Serif" font-size="10.00">+ RESULT_CODE</text>
<text text-anchor="start" x="342" y="-70.5" font-family="Helvetica,sans-Serif" font-size="10.00">+ DATE_COMPARISON</text>
<text text-anchor="start" x="342" y="-59.5" font-family="Helvetica,sans-Serif" font-size="10.00">+ Custom_INT_FIELD</text>
<polyline fill="none" stroke="black" points="334,-52.5 458,-52.5 "/>
<text text-anchor="start" x="342" y="-40.5" font-family="Helvetica,sans-Serif" font-size="10.00">&#45; NonDBFields()</text>
</a>
</g>
</g>
<!-- Node1&#45;&gt;Node5 -->
<g id="edge4" class="edge"><title>Node1&#45;&gt;Node5</title>
<path fill="none" stroke="midnightblue" d="M444.207,-173.335C435.08,-154.529 423.968,-131.63 414.713,-112.56"/>
<polygon fill="none" stroke="midnightblue" points="441.129,-175.01 448.644,-182.478 447.427,-171.954 441.129,-175.01"/>
</g>
<!-- Node6 -->
<g id="node6" class="node"><title>Node6</title>
<g id="a_node6"><a xlink:href="classcom_1_1tomoparts_1_1tomoBay_1_1model_1_1sql_1_1schema_1_1ordersTable_1_1OrdersTable.html" target="_top" xlink:title="This class represents the ebay_orders table in the database. ">
<polygon fill="white" stroke="black" points="476,-6 476,-140 580,-140 580,-6 476,-6"/>
<text text-anchor="middle" x="528" y="-128" font-family="Helvetica,sans-Serif" font-size="10.00">OrdersTable</text>
<polyline fill="none" stroke="black" points="476,-121 580,-121 "/>
<text text-anchor="start" x="484" y="-109" font-family="Helvetica,sans-Serif" font-size="10.00">+ ORDER_ID</text>
<text text-anchor="start" x="484" y="-98" font-family="Helvetica,sans-Serif" font-size="10.00">+ BUYERID</text>
<text text-anchor="start" x="484" y="-87" font-family="Helvetica,sans-Serif" font-size="10.00">+ SALES_REC_NO</text>
<text text-anchor="start" x="484" y="-76" font-family="Helvetica,sans-Serif" font-size="10.00">+ SHIPPING_TYPE</text>
<text text-anchor="start" x="484" y="-65" font-family="Helvetica,sans-Serif" font-size="10.00">+ CREATED_TIME</text>
<text text-anchor="start" x="484" y="-54" font-family="Helvetica,sans-Serif" font-size="10.00">+ INVOICED</text>
<text text-anchor="start" x="484" y="-43" font-family="Helvetica,sans-Serif" font-size="10.00">+ ORDER_TOTAL</text>
<text text-anchor="start" x="484" y="-32" font-family="Helvetica,sans-Serif" font-size="10.00">+ ACCOUNT</text>
<polyline fill="none" stroke="black" points="476,-25 580,-25 "/>
<text text-anchor="start" x="484" y="-13" font-family="Helvetica,sans-Serif" font-size="10.00">&#45; OrdersTable()</text>
</a>
</g>
</g>
<!-- Node1&#45;&gt;Node6 -->
<g id="edge5" class="edge"><title>Node1&#45;&gt;Node6</title>
<path fill="none" stroke="midnightblue" d="M479.744,-173.438C484.722,-163.178 490.295,-151.694 495.837,-140.276"/>
<polygon fill="none" stroke="midnightblue" points="476.573,-171.954 475.356,-182.478 482.871,-175.01 476.573,-171.954"/>
</g>
<!-- Node7 -->
<g id="node7" class="node"><title>Node7</title>
<g id="a_node7"><a xlink:href="classcom_1_1tomoparts_1_1tomoBay_1_1model_1_1sql_1_1schema_1_1orderStatusTable_1_1OrderStatusTable.html" target="_top" xlink:title="This class represents the order_status table in the database. ">
<polygon fill="white" stroke="black" points="598.5,-22.5 598.5,-123.5 713.5,-123.5 713.5,-22.5 598.5,-22.5"/>
<text text-anchor="middle" x="656" y="-111.5" font-family="Helvetica,sans-Serif" font-size="10.00">OrderStatusTable</text>
<polyline fill="none" stroke="black" points="598.5,-104.5 713.5,-104.5 "/>
<text text-anchor="start" x="606.5" y="-92.5" font-family="Helvetica,sans-Serif" font-size="10.00">+ ORDER_ID</text>
<text text-anchor="start" x="606.5" y="-81.5" font-family="Helvetica,sans-Serif" font-size="10.00">+ PICKING</text>
<text text-anchor="start" x="606.5" y="-70.5" font-family="Helvetica,sans-Serif" font-size="10.00">+ PACKING</text>
<text text-anchor="start" x="606.5" y="-59.5" font-family="Helvetica,sans-Serif" font-size="10.00">+ SHIPPING</text>
<text text-anchor="start" x="606.5" y="-48.5" font-family="Helvetica,sans-Serif" font-size="10.00">+ INVOICE_NO</text>
<polyline fill="none" stroke="black" points="598.5,-41.5 713.5,-41.5 "/>
<text text-anchor="start" x="606.5" y="-29.5" font-family="Helvetica,sans-Serif" font-size="10.00">&#45; OrderStatusTable()</text>
</a>
</g>
</g>
<!-- Node1&#45;&gt;Node7 -->
<g id="edge6" class="edge"><title>Node1&#45;&gt;Node7</title>
<path fill="none" stroke="midnightblue" d="M530.96,-180.787C550.562,-171.042 571.359,-159.246 589,-146 597.739,-139.438 606.295,-131.657 614.215,-123.677"/>
<polygon fill="none" stroke="midnightblue" points="529.219,-177.741 521.754,-185.26 532.279,-184.038 529.219,-177.741"/>
</g>
<!-- Node8 -->
<g id="node8" class="node"><title>Node8</title>
<g id="a_node8"><a xlink:href="classcom_1_1tomoparts_1_1tomoBay_1_1model_1_1sql_1_1schema_1_1outOfHoursTable_1_1OutOfHoursTable.html" target="_top" xlink:title="This class represents the out_of_hours table in the database implementation. ">
<polygon fill="white" stroke="black" points="731.5,-39 731.5,-107 844.5,-107 844.5,-39 731.5,-39"/>
<text text-anchor="middle" x="788" y="-95" font-family="Helvetica,sans-Serif" font-size="10.00">OutOfHoursTable</text>
<polyline fill="none" stroke="black" points="731.5,-88 844.5,-88 "/>
<text text-anchor="start" x="739.5" y="-76" font-family="Helvetica,sans-Serif" font-size="10.00">+ SALES_REC_NO</text>
<text text-anchor="start" x="739.5" y="-65" font-family="Helvetica,sans-Serif" font-size="10.00">+ DATE</text>
<polyline fill="none" stroke="black" points="731.5,-58 844.5,-58 "/>
<text text-anchor="start" x="739.5" y="-46" font-family="Helvetica,sans-Serif" font-size="10.00">&#45; OutOfHoursTable()</text>
</a>
</g>
</g>
<!-- Node1&#45;&gt;Node8 -->
<g id="edge7" class="edge"><title>Node1&#45;&gt;Node8</title>
<path fill="none" stroke="midnightblue" d="M531.793,-204.18C586.951,-197.022 664.178,-181.136 723,-146 739.337,-136.241 753.916,-121.069 765.106,-107.164"/>
<polygon fill="none" stroke="midnightblue" points="531.256,-200.72 521.76,-205.418 532.114,-207.667 531.256,-200.72"/>
</g>
<!-- Node9 -->
<g id="node9" class="node"><title>Node9</title>
<g id="a_node9"><a xlink:href="classcom_1_1tomoparts_1_1tomoBay_1_1model_1_1sql_1_1schema_1_1transactionsTable_1_1TransactionsTable.html" target="_top" xlink:title="This represents the ebay_transactions table in the database, An order usually consists of one transac...">
<polygon fill="white" stroke="black" points="862.5,-17 862.5,-129 979.5,-129 979.5,-17 862.5,-17"/>
<text text-anchor="middle" x="921" y="-117" font-family="Helvetica,sans-Serif" font-size="10.00">TransactionsTable</text>
<polyline fill="none" stroke="black" points="862.5,-110 979.5,-110 "/>
<text text-anchor="start" x="870.5" y="-98" font-family="Helvetica,sans-Serif" font-size="10.00">+ TRANSACTION_ID</text>
<text text-anchor="start" x="870.5" y="-87" font-family="Helvetica,sans-Serif" font-size="10.00">+ ORDER_ID</text>
<text text-anchor="start" x="870.5" y="-76" font-family="Helvetica,sans-Serif" font-size="10.00">+ ITEM_ID</text>
<text text-anchor="start" x="870.5" y="-65" font-family="Helvetica,sans-Serif" font-size="10.00">+ QUANTITY</text>
<text text-anchor="start" x="870.5" y="-54" font-family="Helvetica,sans-Serif" font-size="10.00">+ PRICE</text>
<text text-anchor="start" x="870.5" y="-43" font-family="Helvetica,sans-Serif" font-size="10.00">+ SHIPPING_COST</text>
<polyline fill="none" stroke="black" points="862.5,-36 979.5,-36 "/>
<text text-anchor="start" x="870.5" y="-24" font-family="Helvetica,sans-Serif" font-size="10.00">&#45; TransactionsTable()</text>
</a>
</g>
</g>
<!-- Node1&#45;&gt;Node9 -->
<g id="edge8" class="edge"><title>Node1&#45;&gt;Node9</title>
<path fill="none" stroke="midnightblue" d="M531.638,-204.081C628.856,-194.903 799.47,-175.197 854,-146 862.279,-141.567 870.093,-135.716 877.26,-129.26"/>
<polygon fill="none" stroke="midnightblue" points="531.233,-200.604 521.601,-205.016 531.882,-207.574 531.233,-200.604"/>
</g>
</g>
</svg>
