<?xml version="1.0" encoding="UTF-8" standalone="no"?>
<!DOCTYPE svg PUBLIC "-//W3C//DTD SVG 1.1//EN"
 "http://www.w3.org/Graphics/SVG/1.1/DTD/svg11.dtd">
<!-- Generated by graphviz version 2.38.0 (20140413.2041)
 -->
<!-- Title: AbstractSelectParamsQueryFactory Pages: 1 -->
<!--zoomable 298 -->
<svg id="main" version="1.1" xmlns="http://www.w3.org/2000/svg" xmlns:xlink="http://www.w3.org/1999/xlink" xml:space="preserve" onload="init(evt)">
<style type="text/css"><![CDATA[
.edge:hover path { stroke: red; }
.edge:hover polygon { stroke: red; fill: red; }
]]></style>
<script type="text/javascript"><![CDATA[
var edges = document.getElementsByTagName('g');
if (edges && edges.length) {
  for (var i=0;i<edges.length;i++) {
    if (edges[i].id.substr(0,4)=='edge') {
      edges[i].setAttribute('class','edge');
    }
  }
}
]]></script>
        <defs>
                <circle id="rim" cx="0" cy="0" r="7"/>
                <circle id="rim2" cx="0" cy="0" r="3.5"/>
                <g id="zoomPlus">
                        <use xlink:href="#rim" fill="#404040">
                                <set attributeName="fill" to="#808080" begin="zoomplus.mouseover" end="zoomplus.mouseout"/>
                        </use>
                        <path d="M-4,0h8M0,-4v8" fill="none" stroke="white" stroke-width="1.5" pointer-events="none"/>
                </g>
                <g id="zoomMin">
                        <use xlink:href="#rim" fill="#404040">
                                <set attributeName="fill" to="#808080" begin="zoomminus.mouseover" end="zoomminus.mouseout"/>
                        </use>
                        <path d="M-4,0h8" fill="none" stroke="white" stroke-width="1.5" pointer-events="none"/>
                </g>
                <g id="dirArrow">
                        <path fill="none" stroke="white" stroke-width="1.5" d="M0,-3.0v7 M-2.5,-0.5L0,-3.0L2.5,-0.5"/>
                </g>
               <g id="resetDef">
                       <use xlink:href="#rim2" fill="#404040">
                               <set attributeName="fill" to="#808080" begin="reset.mouseover" end="reset.mouseout"/>
                       </use>
               </g>
        </defs>

<script type="text/javascript">
var viewWidth = 2219;
var viewHeight = 298;
var sectionId = 'dynsection-0';
</script>
<script xlink:href="svgpan.js"/>
<svg id="graph" class="graph">
<g id="viewport">
<title>AbstractSelectParamsQueryFactory</title>
<polygon fill="white" stroke="none" points="-4,4 -4,-294 2215,-294 2215,4 -4,4"/>
<!-- Node1 -->
<g id="node1" class="node"><title>Node1</title>
<polygon fill="#bfbfbf" stroke="black" points="1052,-127.5 1052,-195.5 1204,-195.5 1204,-127.5 1052,-127.5"/>
<text text-anchor="start" x="1060" y="-183.5" font-family="Helvetica,sans-Serif" font-size="10.00">AbstractSelectParamsQuery</text>
<text text-anchor="middle" x="1128" y="-172.5" font-family="Helvetica,sans-Serif" font-size="10.00">Factory</text>
<polyline fill="none" stroke="black" points="1052,-165.5 1204,-165.5 "/>
<text text-anchor="middle" x="1128" y="-153.5" font-family="Helvetica,sans-Serif" font-size="10.00"> </text>
<polyline fill="none" stroke="black" points="1052,-146.5 1204,-146.5 "/>
<text text-anchor="start" x="1060" y="-134.5" font-family="Helvetica,sans-Serif" font-size="10.00">+ make()</text>
</g>
<!-- Node3 -->
<g id="node3" class="node"><title>Node3</title>
<g id="a_node3"><a xlink:href="classcom_1_1tomoparts_1_1tomoBay_1_1model_1_1sql_1_1queries_1_1factories_1_1select_1_1params_1_13874b09cd71957b94ea49911895f58b8.html" target="_top" xlink:title="{SelectBrandAndPartNoByOrder\lIDFactory\n||+ make()\l}">
<polygon fill="white" stroke="black" points="0,-11.5 0,-79.5 166,-79.5 166,-11.5 0,-11.5"/>
<text text-anchor="start" x="8" y="-67.5" font-family="Helvetica,sans-Serif" font-size="10.00">SelectBrandAndPartNoByOrder</text>
<text text-anchor="middle" x="83" y="-56.5" font-family="Helvetica,sans-Serif" font-size="10.00">IDFactory</text>
<polyline fill="none" stroke="black" points="0,-49.5 166,-49.5 "/>
<text text-anchor="middle" x="83" y="-37.5" font-family="Helvetica,sans-Serif" font-size="10.00"> </text>
<polyline fill="none" stroke="black" points="0,-30.5 166,-30.5 "/>
<text text-anchor="start" x="8" y="-18.5" font-family="Helvetica,sans-Serif" font-size="10.00">+ make()</text>
</a>
</g>
</g>
<!-- Node1&#45;&gt;Node3 -->
<g id="edge2" class="edge"><title>Node1&#45;&gt;Node3</title>
<path fill="none" stroke="midnightblue" d="M1041.66,-158.352C838.899,-152.639 337.213,-134.44 175,-91 164.374,-88.1544 153.499,-84.077 143.118,-79.5313"/>
<polygon fill="none" stroke="midnightblue" points="1041.58,-161.851 1051.67,-158.631 1041.77,-154.854 1041.58,-161.851"/>
</g>
<!-- Node4 -->
<g id="node4" class="node"><title>Node4</title>
<g id="a_node4"><a xlink:href="classcom_1_1tomoparts_1_1tomoBay_1_1model_1_1sql_1_1queries_1_1factories_1_1select_1_1params_1_1SelectBrandByInvNoFactory.html" target="_top" xlink:title="{SelectBrandByInvNoFactory\n||+ SelectBrandByInvNoFactory()\l+ make()\l}">
<polygon fill="white" stroke="black" points="184,-11.5 184,-79.5 352,-79.5 352,-11.5 184,-11.5"/>
<text text-anchor="middle" x="268" y="-67.5" font-family="Helvetica,sans-Serif" font-size="10.00">SelectBrandByInvNoFactory</text>
<polyline fill="none" stroke="black" points="184,-60.5 352,-60.5 "/>
<text text-anchor="middle" x="268" y="-48.5" font-family="Helvetica,sans-Serif" font-size="10.00"> </text>
<polyline fill="none" stroke="black" points="184,-41.5 352,-41.5 "/>
<text text-anchor="start" x="192" y="-29.5" font-family="Helvetica,sans-Serif" font-size="10.00">+ SelectBrandByInvNoFactory()</text>
<text text-anchor="start" x="192" y="-18.5" font-family="Helvetica,sans-Serif" font-size="10.00">+ make()</text>
</a>
</g>
</g>
<!-- Node1&#45;&gt;Node4 -->
<g id="edge3" class="edge"><title>Node1&#45;&gt;Node4</title>
<path fill="none" stroke="midnightblue" d="M1041.77,-156.541C869.234,-147.989 487.245,-125.712 361,-91 350.472,-88.1053 339.681,-84.0635 329.35,-79.5856"/>
<polygon fill="none" stroke="midnightblue" points="1041.67,-160.041 1051.83,-157.036 1042.01,-153.049 1041.67,-160.041"/>
</g>
<!-- Node5 -->
<g id="node5" class="node"><title>Node5</title>
<g id="a_node5"><a xlink:href="classcom_1_1tomoparts_1_1tomoBay_1_1model_1_1sql_1_1queries_1_1factories_1_1select_1_1params_1_1SelectBuyerByAccAndSRNFactory.html" target="_top" xlink:title="{SelectBuyerByAccAndSRNFactory\n||+ SelectBuyerByAccAndSRNFactory()\l+ make()\l}">
<polygon fill="white" stroke="black" points="370.5,-11.5 370.5,-79.5 567.5,-79.5 567.5,-11.5 370.5,-11.5"/>
<text text-anchor="middle" x="469" y="-67.5" font-family="Helvetica,sans-Serif" font-size="10.00">SelectBuyerByAccAndSRNFactory</text>
<polyline fill="none" stroke="black" points="370.5,-60.5 567.5,-60.5 "/>
<text text-anchor="middle" x="469" y="-48.5" font-family="Helvetica,sans-Serif" font-size="10.00"> </text>
<polyline fill="none" stroke="black" points="370.5,-41.5 567.5,-41.5 "/>
<text text-anchor="start" x="378.5" y="-29.5" font-family="Helvetica,sans-Serif" font-size="10.00">+ SelectBuyerByAccAndSRNFactory()</text>
<text text-anchor="start" x="378.5" y="-18.5" font-family="Helvetica,sans-Serif" font-size="10.00">+ make()</text>
</a>
</g>
</g>
<!-- Node1&#45;&gt;Node5 -->
<g id="edge4" class="edge"><title>Node1&#45;&gt;Node5</title>
<path fill="none" stroke="midnightblue" d="M1041.74,-156.809C931.931,-150.487 737.135,-133.811 576,-91 564.528,-87.952 552.66,-83.9453 541.189,-79.5837"/>
<polygon fill="none" stroke="midnightblue" points="1041.59,-160.306 1051.77,-157.371 1041.98,-153.317 1041.59,-160.306"/>
</g>
<!-- Node6 -->
<g id="node6" class="node"><title>Node6</title>
<g id="a_node6"><a xlink:href="classcom_1_1tomoparts_1_1tomoBay_1_1model_1_1sql_1_1queries_1_1factories_1_1select_1_1params_1_1SelectEbayBuyerFactory.html" target="_top" xlink:title="{SelectEbayBuyerFactory\n||+ make()\l}">
<polygon fill="white" stroke="black" points="585.5,-17 585.5,-74 718.5,-74 718.5,-17 585.5,-17"/>
<text text-anchor="middle" x="652" y="-62" font-family="Helvetica,sans-Serif" font-size="10.00">SelectEbayBuyerFactory</text>
<polyline fill="none" stroke="black" points="585.5,-55 718.5,-55 "/>
<text text-anchor="middle" x="652" y="-43" font-family="Helvetica,sans-Serif" font-size="10.00"> </text>
<polyline fill="none" stroke="black" points="585.5,-36 718.5,-36 "/>
<text text-anchor="start" x="593.5" y="-24" font-family="Helvetica,sans-Serif" font-size="10.00">+ make()</text>
</a>
</g>
</g>
<!-- Node1&#45;&gt;Node6 -->
<g id="edge5" class="edge"><title>Node1&#45;&gt;Node6</title>
<path fill="none" stroke="midnightblue" d="M1041.73,-154.452C959.133,-146.602 832.047,-129.083 728,-91 716.083,-86.638 703.904,-80.4268 692.886,-74.0239"/>
<polygon fill="none" stroke="midnightblue" points="1041.55,-157.95 1051.83,-155.384 1042.2,-150.979 1041.55,-157.95"/>
</g>
<!-- Node7 -->
<g id="node7" class="node"><title>Node7</title>
<g id="a_node7"><a xlink:href="classcom_1_1tomoparts_1_1tomoBay_1_1model_1_1sql_1_1queries_1_1factories_1_1select_1_1params_1_1SelectEbayItemSpecificFactory.html" target="_top" xlink:title="creates a SelectEbayItemSpecific query object ">
<polygon fill="white" stroke="black" points="737,-11.5 737,-79.5 919,-79.5 919,-11.5 737,-11.5"/>
<text text-anchor="middle" x="828" y="-67.5" font-family="Helvetica,sans-Serif" font-size="10.00">SelectEbayItemSpecificFactory</text>
<polyline fill="none" stroke="black" points="737,-60.5 919,-60.5 "/>
<text text-anchor="middle" x="828" y="-48.5" font-family="Helvetica,sans-Serif" font-size="10.00"> </text>
<polyline fill="none" stroke="black" points="737,-41.5 919,-41.5 "/>
<text text-anchor="start" x="745" y="-29.5" font-family="Helvetica,sans-Serif" font-size="10.00">+ SelectEbayItemSpecificFactory()</text>
<text text-anchor="start" x="745" y="-18.5" font-family="Helvetica,sans-Serif" font-size="10.00">+ make()</text>
</a>
</g>
</g>
<!-- Node1&#45;&gt;Node7 -->
<g id="edge6" class="edge"><title>Node1&#45;&gt;Node7</title>
<path fill="none" stroke="midnightblue" d="M1042.08,-132.416C1006.52,-120.335 965.026,-105.642 928,-91 918.988,-87.4362 909.598,-83.5263 900.338,-79.5495"/>
<polygon fill="none" stroke="midnightblue" points="1041.35,-135.863 1051.95,-135.751 1043.59,-129.232 1041.35,-135.863"/>
</g>
<!-- Node8 -->
<g id="node8" class="node"><title>Node8</title>
<g id="a_node8"><a xlink:href="classcom_1_1tomoparts_1_1tomoBay_1_1model_1_1sql_1_1queries_1_1factories_1_1select_1_1params_1_1SelectEbayOrderByBuyerFactory.html" target="_top" xlink:title="{SelectEbayOrderByBuyerFactory\n||+ SelectEbayOrderByBuyerFactory()\l+ make()\l}">
<polygon fill="white" stroke="black" points="937.5,-11.5 937.5,-79.5 1128.5,-79.5 1128.5,-11.5 937.5,-11.5"/>
<text text-anchor="middle" x="1033" y="-67.5" font-family="Helvetica,sans-Serif" font-size="10.00">SelectEbayOrderByBuyerFactory</text>
<polyline fill="none" stroke="black" points="937.5,-60.5 1128.5,-60.5 "/>
<text text-anchor="middle" x="1033" y="-48.5" font-family="Helvetica,sans-Serif" font-size="10.00"> </text>
<polyline fill="none" stroke="black" points="937.5,-41.5 1128.5,-41.5 "/>
<text text-anchor="start" x="945.5" y="-29.5" font-family="Helvetica,sans-Serif" font-size="10.00">+ SelectEbayOrderByBuyerFactory()</text>
<text text-anchor="start" x="945.5" y="-18.5" font-family="Helvetica,sans-Serif" font-size="10.00">+ make()</text>
</a>
</g>
</g>
<!-- Node1&#45;&gt;Node8 -->
<g id="edge7" class="edge"><title>Node1&#45;&gt;Node8</title>
<path fill="none" stroke="midnightblue" d="M1093.65,-119.285C1082.79,-106.249 1070.93,-92.0177 1060.6,-79.6243"/>
<polygon fill="none" stroke="midnightblue" points="1091.18,-121.778 1100.27,-127.22 1096.55,-117.297 1091.18,-121.778"/>
</g>
<!-- Node9 -->
<g id="node9" class="node"><title>Node9</title>
<g id="a_node9"><a xlink:href="classcom_1_1tomoparts_1_1tomoBay_1_1model_1_1sql_1_1queries_1_1factories_1_1select_1_1params_1_1SelectEbayOrderByIDFactory.html" target="_top" xlink:title="{SelectEbayOrderByIDFactory\n||+ make()\l}">
<polygon fill="white" stroke="black" points="1147,-17 1147,-74 1301,-74 1301,-17 1147,-17"/>
<text text-anchor="middle" x="1224" y="-62" font-family="Helvetica,sans-Serif" font-size="10.00">SelectEbayOrderByIDFactory</text>
<polyline fill="none" stroke="black" points="1147,-55 1301,-55 "/>
<text text-anchor="middle" x="1224" y="-43" font-family="Helvetica,sans-Serif" font-size="10.00"> </text>
<polyline fill="none" stroke="black" points="1147,-36 1301,-36 "/>
<text text-anchor="start" x="1155" y="-24" font-family="Helvetica,sans-Serif" font-size="10.00">+ make()</text>
</a>
</g>
</g>
<!-- Node1&#45;&gt;Node9 -->
<g id="edge8" class="edge"><title>Node1&#45;&gt;Node9</title>
<path fill="none" stroke="midnightblue" d="M1162.5,-119.531C1175.16,-104.497 1189.18,-87.8446 1200.64,-74.2418"/>
<polygon fill="none" stroke="midnightblue" points="1159.79,-117.316 1156.03,-127.22 1165.14,-121.825 1159.79,-117.316"/>
</g>
<!-- Node10 -->
<g id="node10" class="node"><title>Node10</title>
<g id="a_node10"><a xlink:href="classcom_1_1tomoparts_1_1tomoBay_1_1model_1_1sql_1_1queries_1_1factories_1_1select_1_1params_1_194d3b6e4449c93c13f6fd37f79b7b348.html" target="_top" xlink:title="{SelectEbayOrderHistoryLast\lNDaysFactory\n||+ make()\l}">
<polygon fill="white" stroke="black" points="1319.5,-11.5 1319.5,-79.5 1470.5,-79.5 1470.5,-11.5 1319.5,-11.5"/>
<text text-anchor="start" x="1327.5" y="-67.5" font-family="Helvetica,sans-Serif" font-size="10.00">SelectEbayOrderHistoryLast</text>
<text text-anchor="middle" x="1395" y="-56.5" font-family="Helvetica,sans-Serif" font-size="10.00">NDaysFactory</text>
<polyline fill="none" stroke="black" points="1319.5,-49.5 1470.5,-49.5 "/>
<text text-anchor="middle" x="1395" y="-37.5" font-family="Helvetica,sans-Serif" font-size="10.00"> </text>
<polyline fill="none" stroke="black" points="1319.5,-30.5 1470.5,-30.5 "/>
<text text-anchor="start" x="1327.5" y="-18.5" font-family="Helvetica,sans-Serif" font-size="10.00">+ make()</text>
</a>
</g>
</g>
<!-- Node1&#45;&gt;Node10 -->
<g id="edge9" class="edge"><title>Node1&#45;&gt;Node10</title>
<path fill="none" stroke="midnightblue" d="M1213.49,-130.219C1244.24,-118.708 1278.98,-104.983 1310,-91 1317.74,-87.5087 1325.78,-83.6423 1333.67,-79.6888"/>
<polygon fill="none" stroke="midnightblue" points="1212.23,-126.951 1204.08,-133.718 1214.67,-133.512 1212.23,-126.951"/>
</g>
<!-- Node11 -->
<g id="node11" class="node"><title>Node11</title>
<g id="a_node11"><a xlink:href="classcom_1_1tomoparts_1_1tomoBay_1_1model_1_1sql_1_1queries_1_1factories_1_1select_1_1params_1_12bea2242aa38a09061eff892a789b67d.html" target="_top" xlink:title="{SelectEbayTransactionByIDFactory\n||+ make()\l}">
<polygon fill="white" stroke="black" points="1489,-17 1489,-74 1671,-74 1671,-17 1489,-17"/>
<text text-anchor="middle" x="1580" y="-62" font-family="Helvetica,sans-Serif" font-size="10.00">SelectEbayTransactionByIDFactory</text>
<polyline fill="none" stroke="black" points="1489,-55 1671,-55 "/>
<text text-anchor="middle" x="1580" y="-43" font-family="Helvetica,sans-Serif" font-size="10.00"> </text>
<polyline fill="none" stroke="black" points="1489,-36 1671,-36 "/>
<text text-anchor="start" x="1497" y="-24" font-family="Helvetica,sans-Serif" font-size="10.00">+ make()</text>
</a>
</g>
</g>
<!-- Node1&#45;&gt;Node11 -->
<g id="edge10" class="edge"><title>Node1&#45;&gt;Node11</title>
<path fill="none" stroke="midnightblue" d="M1214.02,-149.019C1286.13,-138.096 1391.24,-119.12 1480,-91 1494.58,-86.38 1509.88,-80.2653 1524.01,-74.0529"/>
<polygon fill="none" stroke="midnightblue" points="1213.45,-145.567 1204.07,-150.507 1214.48,-152.49 1213.45,-145.567"/>
</g>
<!-- Node12 -->
<g id="node12" class="node"><title>Node12</title>
<g id="a_node12"><a xlink:href="classcom_1_1tomoparts_1_1tomoBay_1_1model_1_1sql_1_1queries_1_1factories_1_1select_1_1params_1_1SelectFullOrderLineFactory.html" target="_top" xlink:title="{SelectFullOrderLineFactory\n||+ SelectFullOrderLineFactory()\l+ make()\l}">
<polygon fill="white" stroke="black" points="1689.5,-11.5 1689.5,-79.5 1852.5,-79.5 1852.5,-11.5 1689.5,-11.5"/>
<text text-anchor="middle" x="1771" y="-67.5" font-family="Helvetica,sans-Serif" font-size="10.00">SelectFullOrderLineFactory</text>
<polyline fill="none" stroke="black" points="1689.5,-60.5 1852.5,-60.5 "/>
<text text-anchor="middle" x="1771" y="-48.5" font-family="Helvetica,sans-Serif" font-size="10.00"> </text>
<polyline fill="none" stroke="black" points="1689.5,-41.5 1852.5,-41.5 "/>
<text text-anchor="start" x="1697.5" y="-29.5" font-family="Helvetica,sans-Serif" font-size="10.00">+ SelectFullOrderLineFactory()</text>
<text text-anchor="start" x="1697.5" y="-18.5" font-family="Helvetica,sans-Serif" font-size="10.00">+ make()</text>
</a>
</g>
</g>
<!-- Node1&#45;&gt;Node12 -->
<g id="edge11" class="edge"><title>Node1&#45;&gt;Node12</title>
<path fill="none" stroke="midnightblue" d="M1214.23,-158.378C1324.41,-153.702 1520.01,-138.748 1680,-91 1690.11,-87.9823 1700.48,-83.9348 1710.43,-79.5058"/>
<polygon fill="none" stroke="midnightblue" points="1214.02,-154.884 1204.17,-158.787 1214.3,-161.878 1214.02,-154.884"/>
</g>
<!-- Node13 -->
<g id="node13" class="node"><title>Node13</title>
<g id="a_node13"><a xlink:href="classcom_1_1tomoparts_1_1tomoBay_1_1model_1_1sql_1_1queries_1_1factories_1_1select_1_1params_1_1SelectOutOfHoursOrdersFactory.html" target="_top" xlink:title="{SelectOutOfHoursOrdersFactory\n||+ make()\l}">
<polygon fill="white" stroke="black" points="1871,-17 1871,-74 2041,-74 2041,-17 1871,-17"/>
<text text-anchor="middle" x="1956" y="-62" font-family="Helvetica,sans-Serif" font-size="10.00">SelectOutOfHoursOrdersFactory</text>
<polyline fill="none" stroke="black" points="1871,-55 2041,-55 "/>
<text text-anchor="middle" x="1956" y="-43" font-family="Helvetica,sans-Serif" font-size="10.00"> </text>
<polyline fill="none" stroke="black" points="1871,-36 2041,-36 "/>
<text text-anchor="start" x="1879" y="-24" font-family="Helvetica,sans-Serif" font-size="10.00">+ make()</text>
</a>
</g>
</g>
<!-- Node1&#45;&gt;Node13 -->
<g id="edge12" class="edge"><title>Node1&#45;&gt;Node13</title>
<path fill="none" stroke="midnightblue" d="M1214.45,-156.08C1381.35,-146.926 1742.09,-123.963 1862,-91 1876.8,-86.9319 1892.13,-80.6594 1906.02,-74.0948"/>
<polygon fill="none" stroke="midnightblue" points="1214.02,-152.598 1204.22,-156.636 1214.4,-159.587 1214.02,-152.598"/>
</g>
<!-- Node14 -->
<g id="node14" class="node"><title>Node14</title>
<g id="a_node14"><a xlink:href="classcom_1_1tomoparts_1_1tomoBay_1_1model_1_1sql_1_1queries_1_1factories_1_1select_1_1params_1_115f7835ea3599d3e84be0332e9785724.html" target="_top" xlink:title="creates a SelectTransactionByOrder query object ">
<polygon fill="white" stroke="black" points="2059,-0.5 2059,-90.5 2211,-90.5 2211,-0.5 2059,-0.5"/>
<text text-anchor="start" x="2067" y="-78.5" font-family="Helvetica,sans-Serif" font-size="10.00">SelectTransactionByOrder</text>
<text text-anchor="middle" x="2135" y="-67.5" font-family="Helvetica,sans-Serif" font-size="10.00">IDFactory</text>
<polyline fill="none" stroke="black" points="2059,-60.5 2211,-60.5 "/>
<text text-anchor="middle" x="2135" y="-48.5" font-family="Helvetica,sans-Serif" font-size="10.00"> </text>
<polyline fill="none" stroke="black" points="2059,-41.5 2211,-41.5 "/>
<text text-anchor="start" x="2067" y="-29.5" font-family="Helvetica,sans-Serif" font-size="10.00">+ SelectTransactionByOrder</text>
<text text-anchor="start" x="2067" y="-18.5" font-family="Helvetica,sans-Serif" font-size="10.00">IDFactory()</text>
<text text-anchor="start" x="2067" y="-7.5" font-family="Helvetica,sans-Serif" font-size="10.00">+ make()</text>
</a>
</g>
</g>
<!-- Node1&#45;&gt;Node14 -->
<g id="edge13" class="edge"><title>Node1&#45;&gt;Node14</title>
<path fill="none" stroke="midnightblue" d="M1214.08,-158.452C1412.01,-153.027 1894.42,-135.529 2050,-91 2052.88,-90.175 2055.78,-89.246 2058.68,-88.2317"/>
<polygon fill="none" stroke="midnightblue" points="1213.92,-154.955 1204.01,-158.724 1214.1,-161.952 1213.92,-154.955"/>
</g>
<!-- Node2 -->
<g id="node2" class="node"><title>Node2</title>
<g id="a_node2"><a xlink:href="interfacecom_1_1tomoparts_1_1tomoBay_1_1model_1_1sql_1_1framework_1_1queryFactories_1_1AbstractQueryFactory.html" target="_top" xlink:title="all Queries are instantiated using a factory and each of these factories must conform to this interfa...">
<polygon fill="white" stroke="black" points="1067.5,-232.5 1067.5,-289.5 1188.5,-289.5 1188.5,-232.5 1067.5,-232.5"/>
<text text-anchor="middle" x="1128" y="-277.5" font-family="Helvetica,sans-Serif" font-size="10.00">AbstractQueryFactory</text>
<polyline fill="none" stroke="black" points="1067.5,-270.5 1188.5,-270.5 "/>
<text text-anchor="middle" x="1128" y="-258.5" font-family="Helvetica,sans-Serif" font-size="10.00"> </text>
<polyline fill="none" stroke="black" points="1067.5,-251.5 1188.5,-251.5 "/>
<text text-anchor="start" x="1075.5" y="-239.5" font-family="Helvetica,sans-Serif" font-size="10.00">+ make()</text>
</a>
</g>
</g>
<!-- Node2&#45;&gt;Node1 -->
<g id="edge1" class="edge"><title>Node2&#45;&gt;Node1</title>
<path fill="none" stroke="midnightblue" d="M1128,-222.063C1128,-213.393 1128,-204.243 1128,-195.786"/>
<polygon fill="none" stroke="midnightblue" points="1124.5,-222.321 1128,-232.321 1131.5,-222.321 1124.5,-222.321"/>
</g>
</g>
</svg>
        <g id="navigator" transform="translate(0 0)" fill="#404254">
                <rect fill="#f2f5e9" fill-opacity="0.5" stroke="#606060" stroke-width=".5" x="0" y="0" width="60" height="60"/>
                <use id="zoomplus" xlink:href="#zoomPlus" x="17" y="9" onmousedown="handleZoom(evt,'in')"/>
                <use id="zoomminus" xlink:href="#zoomMin" x="42" y="9" onmousedown="handleZoom(evt,'out')"/>
                <use id="reset" xlink:href="#resetDef" x="30" y="36" onmousedown="handleReset()"/>
                <g id="arrowUp" xlink:href="#dirArrow" transform="translate(30 24)" onmousedown="handlePan(0,-1)">
                  <use xlink:href="#rim" fill="#404040">
                        <set attributeName="fill" to="#808080" begin="arrowUp.mouseover" end="arrowUp.mouseout"/>
                  </use>
                  <path fill="none" stroke="white" stroke-width="1.5" d="M0,-3.0v7 M-2.5,-0.5L0,-3.0L2.5,-0.5"/>
                </g>
                <g id="arrowRight" xlink:href="#dirArrow" transform="rotate(90) translate(36 -43)" onmousedown="handlePan(1,0)">
                  <use xlink:href="#rim" fill="#404040">
                        <set attributeName="fill" to="#808080" begin="arrowRight.mouseover" end="arrowRight.mouseout"/>
                  </use>
                  <path fill="none" stroke="white" stroke-width="1.5" d="M0,-3.0v7 M-2.5,-0.5L0,-3.0L2.5,-0.5"/>
                </g>
                <g id="arrowDown" xlink:href="#dirArrow" transform="rotate(180) translate(-30 -48)" onmousedown="handlePan(0,1)">
                  <use xlink:href="#rim" fill="#404040">
                        <set attributeName="fill" to="#808080" begin="arrowDown.mouseover" end="arrowDown.mouseout"/>
                  </use>
                  <path fill="none" stroke="white" stroke-width="1.5" d="M0,-3.0v7 M-2.5,-0.5L0,-3.0L2.5,-0.5"/>
                </g>
                <g id="arrowLeft" xlink:href="#dirArrow" transform="rotate(270) translate(-36 17)" onmousedown="handlePan(-1,0)">
                  <use xlink:href="#rim" fill="#404040">
                        <set attributeName="fill" to="#808080" begin="arrowLeft.mouseover" end="arrowLeft.mouseout"/>
                  </use>
                  <path fill="none" stroke="white" stroke-width="1.5" d="M0,-3.0v7 M-2.5,-0.5L0,-3.0L2.5,-0.5"/>
                </g>
        </g>
        <svg viewBox="0 0 15 15" width="100%" height="30px" preserveAspectRatio="xMaxYMin meet">
         <g id="arrow_out" transform="scale(0.3 0.3)">
          <a xlink:href="interfacecom_1_1tomoparts_1_1tomoBay_1_1model_1_1sql_1_1framework_1_1queryFactories_1_1AbstractS6ca5cab4db4cad53fe7e4f4531e792fa_org.svg" target="_base">
           <rect id="button" ry="5" rx="5" y="6" x="6" height="38" width="38"
                fill="#f2f5e9" fill-opacity="0.5" stroke="#606060" stroke-width="1.0"/>
           <path id="arrow"
             d="M 11.500037,31.436501 C 11.940474,20.09759 22.043105,11.32322 32.158766,21.979434 L 37.068811,17.246167 C 37.068811,17.246167 37.088388,32 37.088388,32 L 22.160133,31.978069 C 22.160133,31.978069 26.997745,27.140456 26.997745,27.140456 C 18.528582,18.264221 13.291696,25.230495 11.500037,31.436501 z"
             style="fill:#404040;"/>
          </a>
         </g>
        </svg>
</svg>
