<?xml version="1.0" encoding="UTF-8" standalone="no"?>
<!DOCTYPE svg PUBLIC "-//W3C//DTD SVG 1.1//EN"
 "http://www.w3.org/Graphics/SVG/1.1/DTD/svg11.dtd">
<!-- Generated by graphviz version 2.38.0 (20140413.2041)
 -->
<!-- Title: AbstractServiceFactory Pages: 1 -->
<!--zoomable 171 -->
<svg id="main" version="1.1" xmlns="http://www.w3.org/2000/svg" xmlns:xlink="http://www.w3.org/1999/xlink" xml:space="preserve" onload="init(evt)">
<style type="text/css"><![CDATA[
.edge:hover path { stroke: red; }
.edge:hover polygon { stroke: red; fill: red; }
]]></style>
<script type="text/javascript"><![CDATA[
var edges = document.getElementsByTagName('g');
if (edges && edges.length) {
  for (var i=0;i<edges.length;i++) {
    if (edges[i].id.substr(0,4)=='edge') {
      edges[i].setAttribute('class','edge');
    }
  }
}
]]></script>
        <defs>
                <circle id="rim" cx="0" cy="0" r="7"/>
                <circle id="rim2" cx="0" cy="0" r="3.5"/>
                <g id="zoomPlus">
                        <use xlink:href="#rim" fill="#404040">
                                <set attributeName="fill" to="#808080" begin="zoomplus.mouseover" end="zoomplus.mouseout"/>
                        </use>
                        <path d="M-4,0h8M0,-4v8" fill="none" stroke="white" stroke-width="1.5" pointer-events="none"/>
                </g>
                <g id="zoomMin">
                        <use xlink:href="#rim" fill="#404040">
                                <set attributeName="fill" to="#808080" begin="zoomminus.mouseover" end="zoomminus.mouseout"/>
                        </use>
                        <path d="M-4,0h8" fill="none" stroke="white" stroke-width="1.5" pointer-events="none"/>
                </g>
                <g id="dirArrow">
                        <path fill="none" stroke="white" stroke-width="1.5" d="M0,-3.0v7 M-2.5,-0.5L0,-3.0L2.5,-0.5"/>
                </g>
               <g id="resetDef">
                       <use xlink:href="#rim2" fill="#404040">
                               <set attributeName="fill" to="#808080" begin="reset.mouseover" end="reset.mouseout"/>
                       </use>
               </g>
        </defs>

<script type="text/javascript">
var viewWidth = 1306;
var viewHeight = 171;
var sectionId = 'dynsection-0';
</script>
<script xlink:href="svgpan.js"/>
<svg id="graph" class="graph">
<g id="viewport">
<title>AbstractServiceFactory</title>
<polygon fill="white" stroke="none" points="-4,4 -4,-167 1301.5,-167 1301.5,4 -4,4"/>
<!-- Node1 -->
<g id="node1" class="node"><title>Node1</title>
<polygon fill="#bfbfbf" stroke="black" points="576,-105.5 576,-162.5 704,-162.5 704,-105.5 576,-105.5"/>
<text text-anchor="middle" x="640" y="-150.5" font-family="Helvetica,sans-Serif" font-size="10.00">AbstractServiceFactory</text>
<polyline fill="none" stroke="black" points="576,-143.5 704,-143.5 "/>
<text text-anchor="middle" x="640" y="-131.5" font-family="Helvetica,sans-Serif" font-size="10.00"> </text>
<polyline fill="none" stroke="black" points="576,-124.5 704,-124.5 "/>
<text text-anchor="start" x="584" y="-112.5" font-family="Helvetica,sans-Serif" font-size="10.00">+ make()</text>
</g>
<!-- Node2 -->
<g id="node2" class="node"><title>Node2</title>
<g id="a_node2"><a xlink:href="classcom_1_1tomoparts_1_1tomoBay_1_1model_1_1services_1_1factories_1_1BasicEbayServiceFactory.html" target="_top" xlink:title="This factory creates a BasicEbayUpdateService. ">
<polygon fill="white" stroke="black" points="0,-6 0,-63 136,-63 136,-6 0,-6"/>
<text text-anchor="middle" x="68" y="-51" font-family="Helvetica,sans-Serif" font-size="10.00">BasicEbayServiceFactory</text>
<polyline fill="none" stroke="black" points="0,-44 136,-44 "/>
<text text-anchor="middle" x="68" y="-32" font-family="Helvetica,sans-Serif" font-size="10.00"> </text>
<polyline fill="none" stroke="black" points="0,-25 136,-25 "/>
<text text-anchor="start" x="8" y="-13" font-family="Helvetica,sans-Serif" font-size="10.00">+ make()</text>
</a>
</g>
</g>
<!-- Node1&#45;&gt;Node2 -->
<g id="edge1" class="edge"><title>Node1&#45;&gt;Node2</title>
<path fill="none" stroke="midnightblue" d="M565.874,-129.917C467.943,-124.38 290.812,-109.272 145,-69 138.958,-67.3311 132.772,-65.2777 126.663,-63.0161"/>
<polygon fill="none" stroke="midnightblue" points="565.792,-133.418 575.968,-130.47 566.174,-126.428 565.792,-133.418"/>
</g>
<!-- Node3 -->
<g id="node3" class="node"><title>Node3</title>
<g id="a_node3"><a xlink:href="classcom_1_1tomoparts_1_1tomoBay_1_1model_1_1services_1_1factories_1_1CheckErrorsFactory.html" target="_top" xlink:title="{CheckErrorsFactory\n||+ CheckErrorsFactory()\l+ make()\l}">
<polygon fill="white" stroke="black" points="154,-0.5 154,-68.5 282,-68.5 282,-0.5 154,-0.5"/>
<text text-anchor="middle" x="218" y="-56.5" font-family="Helvetica,sans-Serif" font-size="10.00">CheckErrorsFactory</text>
<polyline fill="none" stroke="black" points="154,-49.5 282,-49.5 "/>
<text text-anchor="middle" x="218" y="-37.5" font-family="Helvetica,sans-Serif" font-size="10.00"> </text>
<polyline fill="none" stroke="black" points="154,-30.5 282,-30.5 "/>
<text text-anchor="start" x="162" y="-18.5" font-family="Helvetica,sans-Serif" font-size="10.00">+ CheckErrorsFactory()</text>
<text text-anchor="start" x="162" y="-7.5" font-family="Helvetica,sans-Serif" font-size="10.00">+ make()</text>
</a>
</g>
</g>
<!-- Node1&#45;&gt;Node3 -->
<g id="edge2" class="edge"><title>Node1&#45;&gt;Node3</title>
<path fill="none" stroke="midnightblue" d="M565.529,-124.798C493.968,-115.65 383.382,-98.1653 291,-69 288.075,-68.0764 285.113,-67.0642 282.143,-65.9853"/>
<polygon fill="none" stroke="midnightblue" points="565.438,-128.314 575.797,-126.088 566.311,-121.369 565.438,-128.314"/>
</g>
<!-- Node4 -->
<g id="node4" class="node"><title>Node4</title>
<g id="a_node4"><a xlink:href="classcom_1_1tomoparts_1_1tomoBay_1_1model_1_1services_1_1factories_1_1EmailErrorsServiceFactory.html" target="_top" xlink:title="{EmailErrorsServiceFactory\n||+ EmailErrorsServiceFactory()\l+ make()\l}">
<polygon fill="white" stroke="black" points="300.5,-0.5 300.5,-68.5 461.5,-68.5 461.5,-0.5 300.5,-0.5"/>
<text text-anchor="middle" x="381" y="-56.5" font-family="Helvetica,sans-Serif" font-size="10.00">EmailErrorsServiceFactory</text>
<polyline fill="none" stroke="black" points="300.5,-49.5 461.5,-49.5 "/>
<text text-anchor="middle" x="381" y="-37.5" font-family="Helvetica,sans-Serif" font-size="10.00"> </text>
<polyline fill="none" stroke="black" points="300.5,-30.5 461.5,-30.5 "/>
<text text-anchor="start" x="308.5" y="-18.5" font-family="Helvetica,sans-Serif" font-size="10.00">+ EmailErrorsServiceFactory()</text>
<text text-anchor="start" x="308.5" y="-7.5" font-family="Helvetica,sans-Serif" font-size="10.00">+ make()</text>
</a>
</g>
</g>
<!-- Node1&#45;&gt;Node4 -->
<g id="edge3" class="edge"><title>Node1&#45;&gt;Node4</title>
<path fill="none" stroke="midnightblue" d="M566.498,-105.33C533.874,-93.0491 495.377,-78.557 461.934,-65.9673"/>
<polygon fill="none" stroke="midnightblue" points="565.386,-108.651 575.978,-108.899 567.852,-102.1 565.386,-108.651"/>
</g>
<!-- Node5 -->
<g id="node5" class="node"><title>Node5</title>
<g id="a_node5"><a xlink:href="classcom_1_1tomoparts_1_1tomoBay_1_1model_1_1services_1_1factories_1_1IndividualItemRefreshServiceFactory.html" target="_top" xlink:title="This factory creates an IndividualItemRefreshService. ">
<polygon fill="white" stroke="black" points="480,-0.5 480,-68.5 634,-68.5 634,-0.5 480,-0.5"/>
<text text-anchor="start" x="488" y="-56.5" font-family="Helvetica,sans-Serif" font-size="10.00">IndividualItemRefreshService</text>
<text text-anchor="middle" x="557" y="-45.5" font-family="Helvetica,sans-Serif" font-size="10.00">Factory</text>
<polyline fill="none" stroke="black" points="480,-38.5 634,-38.5 "/>
<text text-anchor="middle" x="557" y="-26.5" font-family="Helvetica,sans-Serif" font-size="10.00"> </text>
<polyline fill="none" stroke="black" points="480,-19.5 634,-19.5 "/>
<text text-anchor="start" x="488" y="-7.5" font-family="Helvetica,sans-Serif" font-size="10.00">+ make()</text>
</a>
</g>
</g>
<!-- Node1&#45;&gt;Node5 -->
<g id="edge4" class="edge"><title>Node1&#45;&gt;Node5</title>
<path fill="none" stroke="midnightblue" d="M609.882,-97.6203C601.871,-88.2101 593.247,-78.0795 585.335,-68.7855"/>
<polygon fill="none" stroke="midnightblue" points="607.29,-99.9754 616.438,-105.321 612.62,-95.4379 607.29,-99.9754"/>
</g>
<!-- Node6 -->
<g id="node6" class="node"><title>Node6</title>
<g id="a_node6"><a xlink:href="classcom_1_1tomoparts_1_1tomoBay_1_1model_1_1services_1_1factories_1_1OutOfHoursServiceFactory.html" target="_top" xlink:title="Copyright(C) 2015 Jan P.C. ">
<polygon fill="white" stroke="black" points="652.5,-6 652.5,-63 795.5,-63 795.5,-6 652.5,-6"/>
<text text-anchor="middle" x="724" y="-51" font-family="Helvetica,sans-Serif" font-size="10.00">OutOfHoursServiceFactory</text>
<polyline fill="none" stroke="black" points="652.5,-44 795.5,-44 "/>
<text text-anchor="middle" x="724" y="-32" font-family="Helvetica,sans-Serif" font-size="10.00"> </text>
<polyline fill="none" stroke="black" points="652.5,-25 795.5,-25 "/>
<text text-anchor="start" x="660.5" y="-13" font-family="Helvetica,sans-Serif" font-size="10.00">+ make()</text>
</a>
</g>
</g>
<!-- Node1&#45;&gt;Node6 -->
<g id="edge5" class="edge"><title>Node1&#45;&gt;Node6</title>
<path fill="none" stroke="midnightblue" d="M670.433,-97.6761C680.197,-86.3426 690.866,-73.9591 700.094,-63.248"/>
<polygon fill="none" stroke="midnightblue" points="667.722,-95.4606 663.846,-105.321 673.025,-100.03 667.722,-95.4606"/>
</g>
<!-- Node7 -->
<g id="node7" class="node"><title>Node7</title>
<g id="a_node7"><a xlink:href="classcom_1_1tomoparts_1_1tomoBay_1_1model_1_1services_1_1factories_1_1ReScanBuyerServiceFactory.html" target="_top" xlink:title="Copyright(C) 2015 Jan P.C. ">
<polygon fill="white" stroke="black" points="814,-0.5 814,-68.5 984,-68.5 984,-0.5 814,-0.5"/>
<text text-anchor="middle" x="899" y="-56.5" font-family="Helvetica,sans-Serif" font-size="10.00">ReScanBuyerServiceFactory</text>
<polyline fill="none" stroke="black" points="814,-49.5 984,-49.5 "/>
<text text-anchor="middle" x="899" y="-37.5" font-family="Helvetica,sans-Serif" font-size="10.00"> </text>
<polyline fill="none" stroke="black" points="814,-30.5 984,-30.5 "/>
<text text-anchor="start" x="822" y="-18.5" font-family="Helvetica,sans-Serif" font-size="10.00">+ ReScanBuyerServiceFactory()</text>
<text text-anchor="start" x="822" y="-7.5" font-family="Helvetica,sans-Serif" font-size="10.00">+ make()</text>
</a>
</g>
</g>
<!-- Node1&#45;&gt;Node7 -->
<g id="edge6" class="edge"><title>Node1&#45;&gt;Node7</title>
<path fill="none" stroke="midnightblue" d="M713.527,-105.321C744.743,-93.5696 781.332,-79.7957 813.726,-67.6014"/>
<polygon fill="none" stroke="midnightblue" points="712.148,-102.1 704.022,-108.899 714.614,-108.651 712.148,-102.1"/>
</g>
<!-- Node8 -->
<g id="node8" class="node"><title>Node8</title>
<g id="a_node8"><a xlink:href="classcom_1_1tomoparts_1_1tomoBay_1_1model_1_1services_1_1factories_1_1ReScanErrorsServiceFactory.html" target="_top" xlink:title="Copyright(C) 2015 Jan P.C. ">
<polygon fill="white" stroke="black" points="1002,-0.5 1002,-68.5 1172,-68.5 1172,-0.5 1002,-0.5"/>
<text text-anchor="middle" x="1087" y="-56.5" font-family="Helvetica,sans-Serif" font-size="10.00">ReScanErrorsServiceFactory</text>
<polyline fill="none" stroke="black" points="1002,-49.5 1172,-49.5 "/>
<text text-anchor="middle" x="1087" y="-37.5" font-family="Helvetica,sans-Serif" font-size="10.00"> </text>
<polyline fill="none" stroke="black" points="1002,-30.5 1172,-30.5 "/>
<text text-anchor="start" x="1010" y="-18.5" font-family="Helvetica,sans-Serif" font-size="10.00">+ ReScanErrorsServiceFactory()</text>
<text text-anchor="start" x="1010" y="-7.5" font-family="Helvetica,sans-Serif" font-size="10.00">+ make()</text>
</a>
</g>
</g>
<!-- Node1&#45;&gt;Node8 -->
<g id="edge7" class="edge"><title>Node1&#45;&gt;Node8</title>
<path fill="none" stroke="midnightblue" d="M714.464,-123.104C786.444,-112.695 898.219,-94.3003 993,-69 995.929,-68.2181 998.897,-67.3865 1001.89,-66.5157"/>
<polygon fill="none" stroke="midnightblue" points="713.543,-119.7 704.14,-124.582 714.535,-126.629 713.543,-119.7"/>
</g>
<!-- Node9 -->
<g id="node9" class="node"><title>Node9</title>
<g id="a_node9"><a xlink:href="classcom_1_1tomoparts_1_1tomoBay_1_1model_1_1services_1_1factories_1_1TestServiceFactory.html" target="_top" xlink:title="This factory creates a test service. ">
<polygon fill="white" stroke="black" points="1190.5,-6 1190.5,-63 1297.5,-63 1297.5,-6 1190.5,-6"/>
<text text-anchor="middle" x="1244" y="-51" font-family="Helvetica,sans-Serif" font-size="10.00">TestServiceFactory</text>
<polyline fill="none" stroke="black" points="1190.5,-44 1297.5,-44 "/>
<text text-anchor="middle" x="1244" y="-32" font-family="Helvetica,sans-Serif" font-size="10.00"> </text>
<polyline fill="none" stroke="black" points="1190.5,-25 1297.5,-25 "/>
<text text-anchor="start" x="1198.5" y="-13" font-family="Helvetica,sans-Serif" font-size="10.00">+ make()</text>
</a>
</g>
</g>
<!-- Node1&#45;&gt;Node9 -->
<g id="edge8" class="edge"><title>Node1&#45;&gt;Node9</title>
<path fill="none" stroke="midnightblue" d="M714.329,-132.817C820.303,-130.645 1019.83,-119.428 1181,-69 1186.2,-67.3724 1191.48,-65.3147 1196.65,-63.0227"/>
<polygon fill="none" stroke="midnightblue" points="713.993,-129.323 704.059,-133.005 714.121,-136.322 713.993,-129.323"/>
</g>
</g>
</svg>
        <g id="navigator" transform="translate(0 0)" fill="#404254">
                <rect fill="#f2f5e9" fill-opacity="0.5" stroke="#606060" stroke-width=".5" x="0" y="0" width="60" height="60"/>
                <use id="zoomplus" xlink:href="#zoomPlus" x="17" y="9" onmousedown="handleZoom(evt,'in')"/>
                <use id="zoomminus" xlink:href="#zoomMin" x="42" y="9" onmousedown="handleZoom(evt,'out')"/>
                <use id="reset" xlink:href="#resetDef" x="30" y="36" onmousedown="handleReset()"/>
                <g id="arrowUp" xlink:href="#dirArrow" transform="translate(30 24)" onmousedown="handlePan(0,-1)">
                  <use xlink:href="#rim" fill="#404040">
                        <set attributeName="fill" to="#808080" begin="arrowUp.mouseover" end="arrowUp.mouseout"/>
                  </use>
                  <path fill="none" stroke="white" stroke-width="1.5" d="M0,-3.0v7 M-2.5,-0.5L0,-3.0L2.5,-0.5"/>
                </g>
                <g id="arrowRight" xlink:href="#dirArrow" transform="rotate(90) translate(36 -43)" onmousedown="handlePan(1,0)">
                  <use xlink:href="#rim" fill="#404040">
                        <set attributeName="fill" to="#808080" begin="arrowRight.mouseover" end="arrowRight.mouseout"/>
                  </use>
                  <path fill="none" stroke="white" stroke-width="1.5" d="M0,-3.0v7 M-2.5,-0.5L0,-3.0L2.5,-0.5"/>
                </g>
                <g id="arrowDown" xlink:href="#dirArrow" transform="rotate(180) translate(-30 -48)" onmousedown="handlePan(0,1)">
                  <use xlink:href="#rim" fill="#404040">
                        <set attributeName="fill" to="#808080" begin="arrowDown.mouseover" end="arrowDown.mouseout"/>
                  </use>
                  <path fill="none" stroke="white" stroke-width="1.5" d="M0,-3.0v7 M-2.5,-0.5L0,-3.0L2.5,-0.5"/>
                </g>
                <g id="arrowLeft" xlink:href="#dirArrow" transform="rotate(270) translate(-36 17)" onmousedown="handlePan(-1,0)">
                  <use xlink:href="#rim" fill="#404040">
                        <set attributeName="fill" to="#808080" begin="arrowLeft.mouseover" end="arrowLeft.mouseout"/>
                  </use>
                  <path fill="none" stroke="white" stroke-width="1.5" d="M0,-3.0v7 M-2.5,-0.5L0,-3.0L2.5,-0.5"/>
                </g>
        </g>
        <svg viewBox="0 0 15 15" width="100%" height="30px" preserveAspectRatio="xMaxYMin meet">
         <g id="arrow_out" transform="scale(0.3 0.3)">
          <a xlink:href="interfacecom_1_1tomoparts_1_1tomoBay_1_1model_1_1services_1_1factories_1_1AbstractServiceFactory__inherit__graph_org.svg" target="_base">
           <rect id="button" ry="5" rx="5" y="6" x="6" height="38" width="38"
                fill="#f2f5e9" fill-opacity="0.5" stroke="#606060" stroke-width="1.0"/>
           <path id="arrow"
             d="M 11.500037,31.436501 C 11.940474,20.09759 22.043105,11.32322 32.158766,21.979434 L 37.068811,17.246167 C 37.068811,17.246167 37.088388,32 37.088388,32 L 22.160133,31.978069 C 22.160133,31.978069 26.997745,27.140456 26.997745,27.140456 C 18.528582,18.264221 13.291696,25.230495 11.500037,31.436501 z"
             style="fill:#404040;"/>
          </a>
         </g>
        </svg>
</svg>
