<?xml version="1.0" encoding="UTF-8" standalone="no"?>
<!DOCTYPE svg PUBLIC "-//W3C//DTD SVG 1.1//EN"
 "http://www.w3.org/Graphics/SVG/1.1/DTD/svg11.dtd">
<!-- Generated by graphviz version 2.38.0 (20140413.2041)
 -->
<!-- Title: AbstractConfiguration&lt; T &gt; Pages: 1 -->
<!--zoomable 204 -->
<svg id="main" version="1.1" xmlns="http://www.w3.org/2000/svg" xmlns:xlink="http://www.w3.org/1999/xlink" xml:space="preserve" onload="init(evt)">
<style type="text/css"><![CDATA[
.edge:hover path { stroke: red; }
.edge:hover polygon { stroke: red; fill: red; }
]]></style>
<script type="text/javascript"><![CDATA[
var edges = document.getElementsByTagName('g');
if (edges && edges.length) {
  for (var i=0;i<edges.length;i++) {
    if (edges[i].id.substr(0,4)=='edge') {
      edges[i].setAttribute('class','edge');
    }
  }
}
]]></script>
        <defs>
                <circle id="rim" cx="0" cy="0" r="7"/>
                <circle id="rim2" cx="0" cy="0" r="3.5"/>
                <g id="zoomPlus">
                        <use xlink:href="#rim" fill="#404040">
                                <set attributeName="fill" to="#808080" begin="zoomplus.mouseover" end="zoomplus.mouseout"/>
                        </use>
                        <path d="M-4,0h8M0,-4v8" fill="none" stroke="white" stroke-width="1.5" pointer-events="none"/>
                </g>
                <g id="zoomMin">
                        <use xlink:href="#rim" fill="#404040">
                                <set attributeName="fill" to="#808080" begin="zoomminus.mouseover" end="zoomminus.mouseout"/>
                        </use>
                        <path d="M-4,0h8" fill="none" stroke="white" stroke-width="1.5" pointer-events="none"/>
                </g>
                <g id="dirArrow">
                        <path fill="none" stroke="white" stroke-width="1.5" d="M0,-3.0v7 M-2.5,-0.5L0,-3.0L2.5,-0.5"/>
                </g>
               <g id="resetDef">
                       <use xlink:href="#rim2" fill="#404040">
                               <set attributeName="fill" to="#808080" begin="reset.mouseover" end="reset.mouseout"/>
                       </use>
               </g>
        </defs>

<script type="text/javascript">
var viewWidth = 636;
var viewHeight = 204;
var sectionId = 'dynsection-0';
</script>
<script xlink:href="svgpan.js"/>
<svg id="graph" class="graph">
<g id="viewport">
<title>AbstractConfiguration&lt; T &gt;</title>
<polygon fill="white" stroke="none" points="-4,4 -4,-200 632,-200 632,4 -4,4"/>
<!-- Node1 -->
<g id="node1" class="node"><title>Node1</title>
<polygon fill="#bfbfbf" stroke="black" points="225.5,-127.5 225.5,-195.5 374.5,-195.5 374.5,-127.5 225.5,-127.5"/>
<text text-anchor="middle" x="300" y="-183.5" font-family="Helvetica,sans-Serif" font-size="10.00">AbstractConfiguration&lt; T &gt;</text>
<polyline fill="none" stroke="black" points="225.5,-176.5 374.5,-176.5 "/>
<text text-anchor="middle" x="300" y="-164.5" font-family="Helvetica,sans-Serif" font-size="10.00"> </text>
<polyline fill="none" stroke="black" points="225.5,-157.5 374.5,-157.5 "/>
<text text-anchor="start" x="233.5" y="-145.5" font-family="Helvetica,sans-Serif" font-size="10.00">+ configure()</text>
<text text-anchor="start" x="233.5" y="-134.5" font-family="Helvetica,sans-Serif" font-size="10.00">+ configure()</text>
</g>
<!-- Node2 -->
<g id="node2" class="node"><title>Node2</title>
<g id="a_node2"><a xlink:href="classcom_1_1tomoparts_1_1tomoBay_1_1model_1_1services_1_1emailErrorsService_1_1EmailErrorsConfig.html" target="_top" xlink:title="Copyright(C) 2015 Jan P.C. ">
<polygon fill="white" stroke="black" points="0,-0.5 0,-90.5 120,-90.5 120,-0.5 0,-0.5"/>
<text text-anchor="start" x="8" y="-78.5" font-family="Helvetica,sans-Serif" font-size="10.00">EmailErrorsConfig&lt;</text>
<text text-anchor="middle" x="60" y="-67.5" font-family="Helvetica,sans-Serif" font-size="10.00"> String &gt;</text>
<polyline fill="none" stroke="black" points="0,-60.5 120,-60.5 "/>
<text text-anchor="start" x="8" y="-48.5" font-family="Helvetica,sans-Serif" font-size="10.00">&#45; EmailConfigData_M</text>
<polyline fill="none" stroke="black" points="0,-41.5 120,-41.5 "/>
<text text-anchor="start" x="8" y="-29.5" font-family="Helvetica,sans-Serif" font-size="10.00">+ EmailErrorsConfig()</text>
<text text-anchor="start" x="8" y="-18.5" font-family="Helvetica,sans-Serif" font-size="10.00">+ configure()</text>
<text text-anchor="start" x="8" y="-7.5" font-family="Helvetica,sans-Serif" font-size="10.00">+ configure()</text>
</a>
</g>
</g>
<!-- Node1&#45;&gt;Node2 -->
<g id="edge1" class="edge"><title>Node1&#45;&gt;Node2</title>
<path fill="none" stroke="midnightblue" d="M215.992,-129.977C187.83,-118.797 156.589,-105.343 129,-91 126.091,-89.4877 123.148,-87.888 120.2,-86.2288"/>
<polygon fill="none" stroke="midnightblue" points="214.827,-133.28 225.414,-133.679 217.387,-126.764 214.827,-133.28"/>
</g>
<!-- Node3 -->
<g id="node3" class="node"><title>Node3</title>
<g id="a_node3"><a xlink:href="classcom_1_1tomoparts_1_1tomoBay_1_1model_1_1services_1_1individualItemRefreshService_1_1IndividualItemRefreshConfig.html" target="_top" xlink:title="This class defines an object that is passed to the IndividualItemRefreshService setConfig method...">
<polygon fill="white" stroke="black" points="138.5,-6 138.5,-85 287.5,-85 287.5,-6 138.5,-6"/>
<text text-anchor="start" x="146.5" y="-73" font-family="Helvetica,sans-Serif" font-size="10.00">IndividualItemRefreshConfig</text>
<text text-anchor="middle" x="213" y="-62" font-family="Helvetica,sans-Serif" font-size="10.00">&lt; Long &gt;</text>
<polyline fill="none" stroke="black" points="138.5,-55 287.5,-55 "/>
<text text-anchor="start" x="146.5" y="-43" font-family="Helvetica,sans-Serif" font-size="10.00">&#45; listingID_M</text>
<polyline fill="none" stroke="black" points="138.5,-36 287.5,-36 "/>
<text text-anchor="start" x="146.5" y="-24" font-family="Helvetica,sans-Serif" font-size="10.00">+ configure()</text>
<text text-anchor="start" x="146.5" y="-13" font-family="Helvetica,sans-Serif" font-size="10.00">+ configure()</text>
</a>
</g>
</g>
<!-- Node1&#45;&gt;Node3 -->
<g id="edge2" class="edge"><title>Node1&#45;&gt;Node3</title>
<path fill="none" stroke="midnightblue" d="M268.319,-118.987C259.91,-107.968 250.864,-96.1143 242.572,-85.2493"/>
<polygon fill="none" stroke="midnightblue" points="265.753,-121.394 274.602,-127.22 271.318,-117.147 265.753,-121.394"/>
</g>
<!-- Node4 -->
<g id="node4" class="node"><title>Node4</title>
<g id="a_node4"><a xlink:href="classcom_1_1tomoparts_1_1tomoBay_1_1model_1_1services_1_1reScanBuyerService_1_1ReScanBuyerServiceConfig.html" target="_top" xlink:title="Copyright(C) 2015 Jan P.C. ">
<polygon fill="white" stroke="black" points="306,-0.5 306,-90.5 470,-90.5 470,-0.5 306,-0.5"/>
<text text-anchor="start" x="314" y="-78.5" font-family="Helvetica,sans-Serif" font-size="10.00">ReScanBuyerServiceConfig</text>
<text text-anchor="middle" x="388" y="-67.5" font-family="Helvetica,sans-Serif" font-size="10.00">&lt; String &gt;</text>
<polyline fill="none" stroke="black" points="306,-60.5 470,-60.5 "/>
<text text-anchor="start" x="314" y="-48.5" font-family="Helvetica,sans-Serif" font-size="10.00">&#45; buyerID_M</text>
<polyline fill="none" stroke="black" points="306,-41.5 470,-41.5 "/>
<text text-anchor="start" x="314" y="-29.5" font-family="Helvetica,sans-Serif" font-size="10.00">+ ReScanBuyerServiceConfig()</text>
<text text-anchor="start" x="314" y="-18.5" font-family="Helvetica,sans-Serif" font-size="10.00">+ configure()</text>
<text text-anchor="start" x="314" y="-7.5" font-family="Helvetica,sans-Serif" font-size="10.00">+ configure()</text>
</a>
</g>
</g>
<!-- Node1&#45;&gt;Node4 -->
<g id="edge3" class="edge"><title>Node1&#45;&gt;Node4</title>
<path fill="none" stroke="midnightblue" d="M331.853,-119.236C339.026,-109.943 346.668,-100.044 353.929,-90.6378"/>
<polygon fill="none" stroke="midnightblue" points="329.03,-117.165 325.69,-127.22 334.571,-121.443 329.03,-117.165"/>
</g>
<!-- Node5 -->
<g id="node5" class="node"><title>Node5</title>
<g id="a_node5"><a xlink:href="classcom_1_1tomoparts_1_1tomoBay_1_1model_1_1services_1_1updateOrderStatusService_1_1UpdateOrderStatusConfig.html" target="_top" xlink:title="configuration object for the UpdateOrderStatusService, carries OrderStatus (enum) information ...">
<polygon fill="white" stroke="black" points="488,-6 488,-85 628,-85 628,-6 488,-6"/>
<text text-anchor="start" x="496" y="-73" font-family="Helvetica,sans-Serif" font-size="10.00">UpdateOrderStatusConfig</text>
<text text-anchor="middle" x="558" y="-62" font-family="Helvetica,sans-Serif" font-size="10.00">&lt; OrderStatus &gt;</text>
<polyline fill="none" stroke="black" points="488,-55 628,-55 "/>
<text text-anchor="start" x="496" y="-43" font-family="Helvetica,sans-Serif" font-size="10.00">&#45; status_M</text>
<polyline fill="none" stroke="black" points="488,-36 628,-36 "/>
<text text-anchor="start" x="496" y="-24" font-family="Helvetica,sans-Serif" font-size="10.00">+ configure()</text>
<text text-anchor="start" x="496" y="-13" font-family="Helvetica,sans-Serif" font-size="10.00">+ configure()</text>
</a>
</g>
</g>
<!-- Node1&#45;&gt;Node5 -->
<g id="edge4" class="edge"><title>Node1&#45;&gt;Node5</title>
<path fill="none" stroke="midnightblue" d="M384.273,-130.613C414.542,-119.14 448.678,-105.337 479,-91 482.985,-89.116 487.043,-87.1117 491.111,-85.0361"/>
<polygon fill="none" stroke="midnightblue" points="382.719,-127.458 374.591,-134.255 385.183,-134.01 382.719,-127.458"/>
</g>
</g>
</svg>
        <g id="navigator" transform="translate(0 0)" fill="#404254">
                <rect fill="#f2f5e9" fill-opacity="0.5" stroke="#606060" stroke-width=".5" x="0" y="0" width="60" height="60"/>
                <use id="zoomplus" xlink:href="#zoomPlus" x="17" y="9" onmousedown="handleZoom(evt,'in')"/>
                <use id="zoomminus" xlink:href="#zoomMin" x="42" y="9" onmousedown="handleZoom(evt,'out')"/>
                <use id="reset" xlink:href="#resetDef" x="30" y="36" onmousedown="handleReset()"/>
                <g id="arrowUp" xlink:href="#dirArrow" transform="translate(30 24)" onmousedown="handlePan(0,-1)">
                  <use xlink:href="#rim" fill="#404040">
                        <set attributeName="fill" to="#808080" begin="arrowUp.mouseover" end="arrowUp.mouseout"/>
                  </use>
                  <path fill="none" stroke="white" stroke-width="1.5" d="M0,-3.0v7 M-2.5,-0.5L0,-3.0L2.5,-0.5"/>
                </g>
                <g id="arrowRight" xlink:href="#dirArrow" transform="rotate(90) translate(36 -43)" onmousedown="handlePan(1,0)">
                  <use xlink:href="#rim" fill="#404040">
                        <set attributeName="fill" to="#808080" begin="arrowRight.mouseover" end="arrowRight.mouseout"/>
                  </use>
                  <path fill="none" stroke="white" stroke-width="1.5" d="M0,-3.0v7 M-2.5,-0.5L0,-3.0L2.5,-0.5"/>
                </g>
                <g id="arrowDown" xlink:href="#dirArrow" transform="rotate(180) translate(-30 -48)" onmousedown="handlePan(0,1)">
                  <use xlink:href="#rim" fill="#404040">
                        <set attributeName="fill" to="#808080" begin="arrowDown.mouseover" end="arrowDown.mouseout"/>
                  </use>
                  <path fill="none" stroke="white" stroke-width="1.5" d="M0,-3.0v7 M-2.5,-0.5L0,-3.0L2.5,-0.5"/>
                </g>
                <g id="arrowLeft" xlink:href="#dirArrow" transform="rotate(270) translate(-36 17)" onmousedown="handlePan(-1,0)">
                  <use xlink:href="#rim" fill="#404040">
                        <set attributeName="fill" to="#808080" begin="arrowLeft.mouseover" end="arrowLeft.mouseout"/>
                  </use>
                  <path fill="none" stroke="white" stroke-width="1.5" d="M0,-3.0v7 M-2.5,-0.5L0,-3.0L2.5,-0.5"/>
                </g>
        </g>
        <svg viewBox="0 0 15 15" width="100%" height="30px" preserveAspectRatio="xMaxYMin meet">
         <g id="arrow_out" transform="scale(0.3 0.3)">
          <a xlink:href="interfacecom_1_1tomoparts_1_1tomoBay_1_1model_1_1services_1_1AbstractConfiguration__inherit__graph_org.svg" target="_base">
           <rect id="button" ry="5" rx="5" y="6" x="6" height="38" width="38"
                fill="#f2f5e9" fill-opacity="0.5" stroke="#606060" stroke-width="1.0"/>
           <path id="arrow"
             d="M 11.500037,31.436501 C 11.940474,20.09759 22.043105,11.32322 32.158766,21.979434 L 37.068811,17.246167 C 37.068811,17.246167 37.088388,32 37.088388,32 L 22.160133,31.978069 C 22.160133,31.978069 26.997745,27.140456 26.997745,27.140456 C 18.528582,18.264221 13.291696,25.230495 11.500037,31.436501 z"
             style="fill:#404040;"/>
          </a>
         </g>
        </svg>
</svg>
