<?xml version="1.0" encoding="UTF-8" standalone="no"?>
<!DOCTYPE svg PUBLIC "-//W3C//DTD SVG 1.1//EN"
 "http://www.w3.org/Graphics/SVG/1.1/DTD/svg11.dtd">
<!-- Generated by graphviz version 2.38.0 (20140413.2041)
 -->
<!-- Title: AbstractSalesDayBookLineFactory Pages: 1 -->
<svg width="484pt" height="204pt"
 viewBox="0.00 0.00 483.50 204.00" xmlns="http://www.w3.org/2000/svg" xmlns:xlink="http://www.w3.org/1999/xlink">
<g id="graph0" class="graph" transform="scale(1 1) rotate(0) translate(4 200)">
<title>AbstractSalesDayBookLineFactory</title>
<polygon fill="white" stroke="none" points="-4,4 -4,-200 479.5,-200 479.5,4 -4,4"/>
<!-- Node1 -->
<g id="node1" class="node"><title>Node1</title>
<polygon fill="#bfbfbf" stroke="black" points="143,-127.5 143,-195.5 289,-195.5 289,-127.5 143,-127.5"/>
<text text-anchor="start" x="151" y="-183.5" font-family="Helvetica,sans-Serif" font-size="10.00">AbstractSalesDayBookLine</text>
<text text-anchor="middle" x="216" y="-172.5" font-family="Helvetica,sans-Serif" font-size="10.00">Factory</text>
<polyline fill="none" stroke="black" points="143,-165.5 289,-165.5 "/>
<text text-anchor="middle" x="216" y="-153.5" font-family="Helvetica,sans-Serif" font-size="10.00"> </text>
<polyline fill="none" stroke="black" points="143,-146.5 289,-146.5 "/>
<text text-anchor="start" x="151" y="-134.5" font-family="Helvetica,sans-Serif" font-size="10.00">+ make()</text>
</g>
<!-- Node2 -->
<g id="node2" class="node"><title>Node2</title>
<g id="a_node2"><a xlink:href="classcom_1_1tomoparts_1_1tomoBay_1_1model_1_1dataTypes_1_1financial_1_1SalesOrderDayBook_1_1factories_1_1GSPInvoiceFactory.html" target="_top" xlink:title="{GSPInvoiceFactory\n||+ GSPInvoiceFactory()\l+ make()\l}">
<polygon fill="white" stroke="black" points="0,-11.5 0,-79.5 124,-79.5 124,-11.5 0,-11.5"/>
<text text-anchor="middle" x="62" y="-67.5" font-family="Helvetica,sans-Serif" font-size="10.00">GSPInvoiceFactory</text>
<polyline fill="none" stroke="black" points="0,-60.5 124,-60.5 "/>
<text text-anchor="middle" x="62" y="-48.5" font-family="Helvetica,sans-Serif" font-size="10.00"> </text>
<polyline fill="none" stroke="black" points="0,-41.5 124,-41.5 "/>
<text text-anchor="start" x="8" y="-29.5" font-family="Helvetica,sans-Serif" font-size="10.00">+ GSPInvoiceFactory()</text>
<text text-anchor="start" x="8" y="-18.5" font-family="Helvetica,sans-Serif" font-size="10.00">+ make()</text>
</a>
</g>
</g>
<!-- Node1&#45;&gt;Node2 -->
<g id="edge1" class="edge"><title>Node1&#45;&gt;Node2</title>
<path fill="none" stroke="midnightblue" d="M162.804,-121.121C144.533,-107.596 124.279,-92.6023 106.747,-79.6243"/>
<polygon fill="none" stroke="midnightblue" points="160.923,-124.083 171.043,-127.22 165.088,-118.457 160.923,-124.083"/>
</g>
<!-- Node3 -->
<g id="node3" class="node"><title>Node3</title>
<g id="a_node3"><a xlink:href="classcom_1_1tomoparts_1_1tomoBay_1_1model_1_1dataTypes_1_1financial_1_1SalesOrderDayBook_1_1factories_1_1StandardInvoiceFactory.html" target="_top" xlink:title="{StandardInvoiceFactory\n||+ StandardInvoiceFactory()\l+ make()\l}">
<polygon fill="white" stroke="black" points="142,-11.5 142,-79.5 290,-79.5 290,-11.5 142,-11.5"/>
<text text-anchor="middle" x="216" y="-67.5" font-family="Helvetica,sans-Serif" font-size="10.00">StandardInvoiceFactory</text>
<polyline fill="none" stroke="black" points="142,-60.5 290,-60.5 "/>
<text text-anchor="middle" x="216" y="-48.5" font-family="Helvetica,sans-Serif" font-size="10.00"> </text>
<polyline fill="none" stroke="black" points="142,-41.5 290,-41.5 "/>
<text text-anchor="start" x="150" y="-29.5" font-family="Helvetica,sans-Serif" font-size="10.00">+ StandardInvoiceFactory()</text>
<text text-anchor="start" x="150" y="-18.5" font-family="Helvetica,sans-Serif" font-size="10.00">+ make()</text>
</a>
</g>
</g>
<!-- Node1&#45;&gt;Node3 -->
<g id="edge2" class="edge"><title>Node1&#45;&gt;Node3</title>
<path fill="none" stroke="midnightblue" d="M216,-117.06C216,-104.644 216,-91.3162 216,-79.6243"/>
<polygon fill="none" stroke="midnightblue" points="212.5,-117.22 216,-127.22 219.5,-117.22 212.5,-117.22"/>
</g>
<!-- Node4 -->
<g id="node4" class="node"><title>Node4</title>
<g id="a_node4"><a xlink:href="classcom_1_1tomoparts_1_1tomoBay_1_1model_1_1dataTypes_1_1financial_1_1SalesOrderDayBook_1_1fact707545dc5e0233d2b91fe6b2827e5abc.html" target="_top" xlink:title="{StandardInvoiceWithShipping\lFactory\n||+ StandardInvoiceWithShipping\lFactory()\l+ make()\l}">
<polygon fill="white" stroke="black" points="308.5,-0.5 308.5,-90.5 475.5,-90.5 475.5,-0.5 308.5,-0.5"/>
<text text-anchor="start" x="316.5" y="-78.5" font-family="Helvetica,sans-Serif" font-size="10.00">StandardInvoiceWithShipping</text>
<text text-anchor="middle" x="392" y="-67.5" font-family="Helvetica,sans-Serif" font-size="10.00">Factory</text>
<polyline fill="none" stroke="black" points="308.5,-60.5 475.5,-60.5 "/>
<text text-anchor="middle" x="392" y="-48.5" font-family="Helvetica,sans-Serif" font-size="10.00"> </text>
<polyline fill="none" stroke="black" points="308.5,-41.5 475.5,-41.5 "/>
<text text-anchor="start" x="316.5" y="-29.5" font-family="Helvetica,sans-Serif" font-size="10.00">+ StandardInvoiceWithShipping</text>
<text text-anchor="start" x="316.5" y="-18.5" font-family="Helvetica,sans-Serif" font-size="10.00">Factory()</text>
<text text-anchor="start" x="316.5" y="-7.5" font-family="Helvetica,sans-Serif" font-size="10.00">+ make()</text>
</a>
</g>
</g>
<!-- Node1&#45;&gt;Node4 -->
<g id="edge3" class="edge"><title>Node1&#45;&gt;Node4</title>
<path fill="none" stroke="midnightblue" d="M275.816,-121.755C291.268,-111.747 308.016,-100.899 323.857,-90.6378"/>
<polygon fill="none" stroke="midnightblue" points="273.87,-118.846 267.38,-127.22 277.676,-124.721 273.87,-118.846"/>
</g>
</g>
</svg>
