<?xml version="1.0" encoding="UTF-8" standalone="no"?>
<!DOCTYPE svg PUBLIC "-//W3C//DTD SVG 1.1//EN"
 "http://www.w3.org/Graphics/SVG/1.1/DTD/svg11.dtd">
<!-- Generated by graphviz version 2.38.0 (20140413.2041)
 -->
<!-- Title: isSuccess Pages: 1 -->
<svg width="628pt" height="88pt"
 viewBox="0.00 0.00 628.00 88.00" xmlns="http://www.w3.org/2000/svg" xmlns:xlink="http://www.w3.org/1999/xlink">
<g id="graph0" class="graph" transform="scale(1 1) rotate(0) translate(4 84)">
<title>isSuccess</title>
<polygon fill="white" stroke="none" points="-4,4 -4,-84 624,-84 624,4 -4,4"/>
<!-- Node1 -->
<g id="node1" class="node"><title>Node1</title>
<polygon fill="#bfbfbf" stroke="black" points="0,-30 0,-49 64,-49 64,-30 0,-30"/>
<text text-anchor="middle" x="32" y="-37" font-family="Helvetica,sans-Serif" font-size="10.00">isSuccess</text>
</g>
<!-- Node2 -->
<g id="node2" class="node"><title>Node2</title>
<g id="a_node2"><a xlink:href="classcom_1_1tomoparts_1_1tomoBay_1_1presenters_1_1presenterActions_1_1concreteActions_1_1PrintInvoices.html#a3396bf15e4a594abdeb16cb37f076ce2" target="_top" xlink:title="actually send the data to the winstock server to print the invoice ">
<polygon fill="white" stroke="black" points="100,-49.5 100,-79.5 342,-79.5 342,-49.5 100,-49.5"/>
<text text-anchor="start" x="108" y="-67.5" font-family="Helvetica,sans-Serif" font-size="10.00">com.tomoparts.tomoBay.presenters.presenter</text>
<text text-anchor="middle" x="221" y="-56.5" font-family="Helvetica,sans-Serif" font-size="10.00">Actions.concreteActions.PrintInvoices.print</text>
</a>
</g>
</g>
<!-- Node1&#45;&gt;Node2 -->
<g id="edge1" class="edge"><title>Node1&#45;&gt;Node2</title>
<path fill="none" stroke="midnightblue" d="M74.3669,-45.0303C84.4736,-46.3815 95.7749,-47.8924 107.492,-49.4588"/>
<polygon fill="midnightblue" stroke="midnightblue" points="74.6752,-41.5405 64.2996,-43.6844 73.7476,-48.4788 74.6752,-41.5405"/>
</g>
<!-- Node4 -->
<g id="node4" class="node"><title>Node4</title>
<g id="a_node4"><a xlink:href="classcom_1_1tomoparts_1_1tomoBay_1_1test_1_1unit_1_1model_1_1net_1_1ClientSocketTest.html#a9e05d6ab69028f9da119689d187c95b2" target="_top" xlink:title="com.tomoparts.tomoBay.test.unit.model.net.\lClientSocketTest.test">
<polygon fill="white" stroke="black" points="103.5,-0.5 103.5,-30.5 338.5,-30.5 338.5,-0.5 103.5,-0.5"/>
<text text-anchor="start" x="111.5" y="-18.5" font-family="Helvetica,sans-Serif" font-size="10.00">com.tomoparts.tomoBay.test.unit.model.net.</text>
<text text-anchor="middle" x="221" y="-7.5" font-family="Helvetica,sans-Serif" font-size="10.00">ClientSocketTest.test</text>
</a>
</g>
</g>
<!-- Node1&#45;&gt;Node4 -->
<g id="edge3" class="edge"><title>Node1&#45;&gt;Node4</title>
<path fill="none" stroke="midnightblue" d="M74.2623,-34.2043C83.1379,-33.0652 92.9383,-31.8074 103.135,-30.4987"/>
<polygon fill="midnightblue" stroke="midnightblue" points="73.7727,-30.7383 64.2996,-35.4829 74.6638,-37.6814 73.7727,-30.7383"/>
</g>
<!-- Node3 -->
<g id="node3" class="node"><title>Node3</title>
<g id="a_node3"><a xlink:href="classcom_1_1tomoparts_1_1tomoBay_1_1presenters_1_1presenterActions_1_1concreteActions_1_1PrintInvoices.html#adb3dedf31dc2c7fc796f20406c235ccd" target="_top" xlink:title="performs the action specified ">
<polygon fill="white" stroke="black" points="378,-49.5 378,-79.5 620,-79.5 620,-49.5 378,-49.5"/>
<text text-anchor="start" x="386" y="-67.5" font-family="Helvetica,sans-Serif" font-size="10.00">com.tomoparts.tomoBay.presenters.presenter</text>
<text text-anchor="middle" x="499" y="-56.5" font-family="Helvetica,sans-Serif" font-size="10.00">Actions.concreteActions.PrintInvoices.execute</text>
</a>
</g>
</g>
<!-- Node2&#45;&gt;Node3 -->
<g id="edge2" class="edge"><title>Node2&#45;&gt;Node3</title>
<path fill="none" stroke="midnightblue" d="M352.494,-64.5C360.91,-64.5 369.364,-64.5 377.73,-64.5"/>
<polygon fill="midnightblue" stroke="midnightblue" points="352.255,-61.0001 342.255,-64.5 352.255,-68.0001 352.255,-61.0001"/>
</g>
<!-- Node5 -->
<g id="node5" class="node"><title>Node5</title>
<g id="a_node5"><a xlink:href="classcom_1_1tomoparts_1_1tomoBay_1_1test_1_1unit_1_1model_1_1net_1_1ClientSocketTest.html#a8b260eecbaabcef8473fd87ada040682" target="_top" xlink:title="com.tomoparts.tomoBay.test.unit.model.net.\lClientSocketTest.main">
<polygon fill="white" stroke="black" points="381.5,-0.5 381.5,-30.5 616.5,-30.5 616.5,-0.5 381.5,-0.5"/>
<text text-anchor="start" x="389.5" y="-18.5" font-family="Helvetica,sans-Serif" font-size="10.00">com.tomoparts.tomoBay.test.unit.model.net.</text>
<text text-anchor="middle" x="499" y="-7.5" font-family="Helvetica,sans-Serif" font-size="10.00">ClientSocketTest.main</text>
</a>
</g>
</g>
<!-- Node4&#45;&gt;Node5 -->
<g id="edge4" class="edge"><title>Node4&#45;&gt;Node5</title>
<path fill="none" stroke="midnightblue" d="M348.956,-15.5C359.744,-15.5 370.623,-15.5 381.326,-15.5"/>
<polygon fill="midnightblue" stroke="midnightblue" points="348.649,-12.0001 338.649,-15.5 348.649,-19.0001 348.649,-12.0001"/>
</g>
</g>
</svg>
