<?xml version="1.0" encoding="UTF-8" standalone="no"?>
<!DOCTYPE svg PUBLIC "-//W3C//DTD SVG 1.1//EN"
 "http://www.w3.org/Graphics/SVG/1.1/DTD/svg11.dtd">
<!-- Generated by graphviz version 2.38.0 (20140413.2041)
 -->
<!-- Title: AbstractWinstockCommandFactory Pages: 1 -->
<svg width="372pt" height="171pt"
 viewBox="0.00 0.00 372.00 171.00" xmlns="http://www.w3.org/2000/svg" xmlns:xlink="http://www.w3.org/1999/xlink">
<g id="graph0" class="graph" transform="scale(1 1) rotate(0) translate(4 167)">
<title>AbstractWinstockCommandFactory</title>
<polygon fill="white" stroke="none" points="-4,4 -4,-167 368,-167 368,4 -4,4"/>
<!-- Node1 -->
<g id="node1" class="node"><title>Node1</title>
<polygon fill="#bfbfbf" stroke="black" points="90.5,-105.5 90.5,-162.5 275.5,-162.5 275.5,-105.5 90.5,-105.5"/>
<text text-anchor="middle" x="183" y="-150.5" font-family="Helvetica,sans-Serif" font-size="10.00">AbstractWinstockCommandFactory</text>
<polyline fill="none" stroke="black" points="90.5,-143.5 275.5,-143.5 "/>
<text text-anchor="middle" x="183" y="-131.5" font-family="Helvetica,sans-Serif" font-size="10.00"> </text>
<polyline fill="none" stroke="black" points="90.5,-124.5 275.5,-124.5 "/>
<text text-anchor="start" x="98.5" y="-112.5" font-family="Helvetica,sans-Serif" font-size="10.00">+ make()</text>
</g>
<!-- Node2 -->
<g id="node2" class="node"><title>Node2</title>
<g id="a_node2"><a xlink:href="classcom_1_1tomoparts_1_1tomoBay_1_1model_1_1winstock_1_1commandFactories_1_1PrintInvoiceCommandFactory.html" target="_top" xlink:title="Copyright(C) 2015 Jan P.C. ">
<polygon fill="white" stroke="black" points="0,-0.5 0,-68.5 176,-68.5 176,-0.5 0,-0.5"/>
<text text-anchor="middle" x="88" y="-56.5" font-family="Helvetica,sans-Serif" font-size="10.00">PrintInvoiceCommandFactory</text>
<polyline fill="none" stroke="black" points="0,-49.5 176,-49.5 "/>
<text text-anchor="middle" x="88" y="-37.5" font-family="Helvetica,sans-Serif" font-size="10.00"> </text>
<polyline fill="none" stroke="black" points="0,-30.5 176,-30.5 "/>
<text text-anchor="start" x="8" y="-18.5" font-family="Helvetica,sans-Serif" font-size="10.00">+ PrintInvoiceCommandFactory()</text>
<text text-anchor="start" x="8" y="-7.5" font-family="Helvetica,sans-Serif" font-size="10.00">+ make()</text>
</a>
</g>
</g>
<!-- Node1&#45;&gt;Node2 -->
<g id="edge1" class="edge"><title>Node1&#45;&gt;Node2</title>
<path fill="none" stroke="midnightblue" d="M148.802,-97.9023C139.556,-88.4128 129.578,-78.1725 120.432,-68.7855"/>
<polygon fill="none" stroke="midnightblue" points="146.545,-100.601 156.031,-105.321 151.559,-95.7164 146.545,-100.601"/>
</g>
<!-- Node3 -->
<g id="node3" class="node"><title>Node3</title>
<g id="a_node3"><a xlink:href="classcom_1_1tomoparts_1_1tomoBay_1_1model_1_1winstock_1_1commandFactories_1_1PutInvoiceCommandFactory.html" target="_top" xlink:title="{PutInvoiceCommandFactory\n||+ PutInvoiceCommandFactory()\l+ make()\l}">
<polygon fill="white" stroke="black" points="194,-0.5 194,-68.5 364,-68.5 364,-0.5 194,-0.5"/>
<text text-anchor="middle" x="279" y="-56.5" font-family="Helvetica,sans-Serif" font-size="10.00">PutInvoiceCommandFactory</text>
<polyline fill="none" stroke="black" points="194,-49.5 364,-49.5 "/>
<text text-anchor="middle" x="279" y="-37.5" font-family="Helvetica,sans-Serif" font-size="10.00"> </text>
<polyline fill="none" stroke="black" points="194,-30.5 364,-30.5 "/>
<text text-anchor="start" x="202" y="-18.5" font-family="Helvetica,sans-Serif" font-size="10.00">+ PutInvoiceCommandFactory()</text>
<text text-anchor="start" x="202" y="-7.5" font-family="Helvetica,sans-Serif" font-size="10.00">+ make()</text>
</a>
</g>
</g>
<!-- Node1&#45;&gt;Node3 -->
<g id="edge2" class="edge"><title>Node1&#45;&gt;Node3</title>
<path fill="none" stroke="midnightblue" d="M217.28,-98.184C226.702,-88.6156 236.893,-78.2654 246.227,-68.7855"/>
<polygon fill="none" stroke="midnightblue" points="214.775,-95.7399 210.253,-105.321 219.763,-100.651 214.775,-95.7399"/>
</g>
</g>
</svg>
