<?xml version="1.0" encoding="UTF-8" standalone="no"?>
<!DOCTYPE svg PUBLIC "-//W3C//DTD SVG 1.1//EN"
 "http://www.w3.org/Graphics/SVG/1.1/DTD/svg11.dtd">
<!-- Generated by graphviz version 2.38.0 (20140413.2041)
 -->
<!-- Title: AbstractPresenterActionFactory Pages: 1 -->
<!--zoomable 193 -->
<svg id="main" version="1.1" xmlns="http://www.w3.org/2000/svg" xmlns:xlink="http://www.w3.org/1999/xlink" xml:space="preserve" onload="init(evt)">
<style type="text/css"><![CDATA[
.edge:hover path { stroke: red; }
.edge:hover polygon { stroke: red; fill: red; }
]]></style>
<script type="text/javascript"><![CDATA[
var edges = document.getElementsByTagName('g');
if (edges && edges.length) {
  for (var i=0;i<edges.length;i++) {
    if (edges[i].id.substr(0,4)=='edge') {
      edges[i].setAttribute('class','edge');
    }
  }
}
]]></script>
        <defs>
                <circle id="rim" cx="0" cy="0" r="7"/>
                <circle id="rim2" cx="0" cy="0" r="3.5"/>
                <g id="zoomPlus">
                        <use xlink:href="#rim" fill="#404040">
                                <set attributeName="fill" to="#808080" begin="zoomplus.mouseover" end="zoomplus.mouseout"/>
                        </use>
                        <path d="M-4,0h8M0,-4v8" fill="none" stroke="white" stroke-width="1.5" pointer-events="none"/>
                </g>
                <g id="zoomMin">
                        <use xlink:href="#rim" fill="#404040">
                                <set attributeName="fill" to="#808080" begin="zoomminus.mouseover" end="zoomminus.mouseout"/>
                        </use>
                        <path d="M-4,0h8" fill="none" stroke="white" stroke-width="1.5" pointer-events="none"/>
                </g>
                <g id="dirArrow">
                        <path fill="none" stroke="white" stroke-width="1.5" d="M0,-3.0v7 M-2.5,-0.5L0,-3.0L2.5,-0.5"/>
                </g>
               <g id="resetDef">
                       <use xlink:href="#rim2" fill="#404040">
                               <set attributeName="fill" to="#808080" begin="reset.mouseover" end="reset.mouseout"/>
                       </use>
               </g>
        </defs>

<script type="text/javascript">
var viewWidth = 2073;
var viewHeight = 193;
var sectionId = 'dynsection-0';
</script>
<script xlink:href="svgpan.js"/>
<svg id="graph" class="graph">
<g id="viewport">
<title>AbstractPresenterActionFactory</title>
<polygon fill="white" stroke="none" points="-4,4 -4,-189 2068.5,-189 2068.5,4 -4,4"/>
<!-- Node1 -->
<g id="node1" class="node"><title>Node1</title>
<polygon fill="#bfbfbf" stroke="black" points="946,-127.5 946,-184.5 1115,-184.5 1115,-127.5 946,-127.5"/>
<text text-anchor="middle" x="1030.5" y="-172.5" font-family="Helvetica,sans-Serif" font-size="10.00">AbstractPresenterActionFactory</text>
<polyline fill="none" stroke="black" points="946,-165.5 1115,-165.5 "/>
<text text-anchor="middle" x="1030.5" y="-153.5" font-family="Helvetica,sans-Serif" font-size="10.00"> </text>
<polyline fill="none" stroke="black" points="946,-146.5 1115,-146.5 "/>
<text text-anchor="start" x="954" y="-134.5" font-family="Helvetica,sans-Serif" font-size="10.00">+ make()</text>
</g>
<!-- Node2 -->
<g id="node2" class="node"><title>Node2</title>
<g id="a_node2"><a xlink:href="classcom_1_1tomoparts_1_1tomoBay_1_1presenters_1_1presenterActions_1_1factories_1_1BuyerDetailsFactory.html" target="_top" xlink:title="Copyright(C) 2015 Jan P.C. ">
<polygon fill="white" stroke="black" points="0,-11.5 0,-79.5 131,-79.5 131,-11.5 0,-11.5"/>
<text text-anchor="middle" x="65.5" y="-67.5" font-family="Helvetica,sans-Serif" font-size="10.00">BuyerDetailsFactory</text>
<polyline fill="none" stroke="black" points="0,-60.5 131,-60.5 "/>
<text text-anchor="middle" x="65.5" y="-48.5" font-family="Helvetica,sans-Serif" font-size="10.00"> </text>
<polyline fill="none" stroke="black" points="0,-41.5 131,-41.5 "/>
<text text-anchor="start" x="8" y="-29.5" font-family="Helvetica,sans-Serif" font-size="10.00">+ BuyerDetailsFactory()</text>
<text text-anchor="start" x="8" y="-18.5" font-family="Helvetica,sans-Serif" font-size="10.00">+ make()</text>
</a>
</g>
</g>
<!-- Node1&#45;&gt;Node2 -->
<g id="edge1" class="edge"><title>Node1&#45;&gt;Node2</title>
<path fill="none" stroke="midnightblue" d="M935.621,-153.752C737.401,-150.239 285.646,-137.261 139.5,-91 130.639,-88.1951 121.729,-84.1387 113.315,-79.6014"/>
<polygon fill="none" stroke="midnightblue" points="935.668,-157.253 945.727,-153.926 935.789,-150.254 935.668,-157.253"/>
</g>
<!-- Node3 -->
<g id="node3" class="node"><title>Node3</title>
<g id="a_node3"><a xlink:href="classcom_1_1tomoparts_1_1tomoBay_1_1presenters_1_1presenterActions_1_1factories_1_1BuyerListFactory.html" target="_top" xlink:title="Copyright(C) 2015 Jan P.C. ">
<polygon fill="white" stroke="black" points="149,-11.5 149,-79.5 264,-79.5 264,-11.5 149,-11.5"/>
<text text-anchor="middle" x="206.5" y="-67.5" font-family="Helvetica,sans-Serif" font-size="10.00">BuyerListFactory</text>
<polyline fill="none" stroke="black" points="149,-60.5 264,-60.5 "/>
<text text-anchor="middle" x="206.5" y="-48.5" font-family="Helvetica,sans-Serif" font-size="10.00"> </text>
<polyline fill="none" stroke="black" points="149,-41.5 264,-41.5 "/>
<text text-anchor="start" x="157" y="-29.5" font-family="Helvetica,sans-Serif" font-size="10.00">+ BuyerListFactory()</text>
<text text-anchor="start" x="157" y="-18.5" font-family="Helvetica,sans-Serif" font-size="10.00">+ make()</text>
</a>
</g>
</g>
<!-- Node1&#45;&gt;Node3 -->
<g id="edge2" class="edge"><title>Node1&#45;&gt;Node3</title>
<path fill="none" stroke="midnightblue" d="M935.443,-152.835C760.218,-147.879 393.249,-132.729 273.5,-91 265.325,-88.1511 257.179,-84.072 249.529,-79.5257"/>
<polygon fill="none" stroke="midnightblue" points="935.59,-156.34 945.683,-153.119 935.784,-149.343 935.59,-156.34"/>
</g>
<!-- Node4 -->
<g id="node4" class="node"><title>Node4</title>
<g id="a_node4"><a xlink:href="classcom_1_1tomoparts_1_1tomoBay_1_1presenters_1_1presenterActions_1_1factories_1_1GenerateRoyalMailCSVFactory.html" target="_top" xlink:title="Copyright(C) 2015 Jan P.C. ">
<polygon fill="white" stroke="black" points="282.5,-11.5 282.5,-79.5 462.5,-79.5 462.5,-11.5 282.5,-11.5"/>
<text text-anchor="middle" x="372.5" y="-67.5" font-family="Helvetica,sans-Serif" font-size="10.00">GenerateRoyalMailCSVFactory</text>
<polyline fill="none" stroke="black" points="282.5,-60.5 462.5,-60.5 "/>
<text text-anchor="middle" x="372.5" y="-48.5" font-family="Helvetica,sans-Serif" font-size="10.00"> </text>
<polyline fill="none" stroke="black" points="282.5,-41.5 462.5,-41.5 "/>
<text text-anchor="start" x="290.5" y="-29.5" font-family="Helvetica,sans-Serif" font-size="10.00">+ GenerateRoyalMailCSVFactory()</text>
<text text-anchor="start" x="290.5" y="-18.5" font-family="Helvetica,sans-Serif" font-size="10.00">+ make()</text>
</a>
</g>
</g>
<!-- Node1&#45;&gt;Node4 -->
<g id="edge3" class="edge"><title>Node1&#45;&gt;Node4</title>
<path fill="none" stroke="midnightblue" d="M935.316,-152.986C822.699,-148.583 630.429,-134.679 471.5,-91 460.598,-88.0037 449.368,-83.9675 438.563,-79.5433"/>
<polygon fill="none" stroke="midnightblue" points="935.504,-156.496 945.627,-153.372 935.765,-149.501 935.504,-156.496"/>
</g>
<!-- Node5 -->
<g id="node5" class="node"><title>Node5</title>
<g id="a_node5"><a xlink:href="classcom_1_1tomoparts_1_1tomoBay_1_1presenters_1_1presenterActions_1_1factories_1_1InvoiceOrdersFactory.html" target="_top" xlink:title="Copyright(C) 2015 Jan P.C. ">
<polygon fill="white" stroke="black" points="480.5,-11.5 480.5,-79.5 616.5,-79.5 616.5,-11.5 480.5,-11.5"/>
<text text-anchor="middle" x="548.5" y="-67.5" font-family="Helvetica,sans-Serif" font-size="10.00">InvoiceOrdersFactory</text>
<polyline fill="none" stroke="black" points="480.5,-60.5 616.5,-60.5 "/>
<text text-anchor="middle" x="548.5" y="-48.5" font-family="Helvetica,sans-Serif" font-size="10.00"> </text>
<polyline fill="none" stroke="black" points="480.5,-41.5 616.5,-41.5 "/>
<text text-anchor="start" x="488.5" y="-29.5" font-family="Helvetica,sans-Serif" font-size="10.00">+ InvoiceOrdersFactory()</text>
<text text-anchor="start" x="488.5" y="-18.5" font-family="Helvetica,sans-Serif" font-size="10.00">+ make()</text>
</a>
</g>
</g>
<!-- Node1&#45;&gt;Node5 -->
<g id="edge4" class="edge"><title>Node1&#45;&gt;Node5</title>
<path fill="none" stroke="midnightblue" d="M935.689,-149.853C852.041,-143.026 727.862,-127.253 625.5,-91 616.913,-87.9588 608.194,-83.9558 599.86,-79.5958"/>
<polygon fill="none" stroke="midnightblue" points="935.44,-153.344 945.685,-150.642 935.991,-146.366 935.44,-153.344"/>
</g>
<!-- Node6 -->
<g id="node6" class="node"><title>Node6</title>
<g id="a_node6"><a xlink:href="classcom_1_1tomoparts_1_1tomoBay_1_1presenters_1_1presenterActions_1_1factories_1_1LogFileViewerFactory.html" target="_top" xlink:title="factory that creates a LogFileViewer object ">
<polygon fill="white" stroke="black" points="635,-11.5 635,-79.5 770,-79.5 770,-11.5 635,-11.5"/>
<text text-anchor="middle" x="702.5" y="-67.5" font-family="Helvetica,sans-Serif" font-size="10.00">LogFileViewerFactory</text>
<polyline fill="none" stroke="black" points="635,-60.5 770,-60.5 "/>
<text text-anchor="middle" x="702.5" y="-48.5" font-family="Helvetica,sans-Serif" font-size="10.00"> </text>
<polyline fill="none" stroke="black" points="635,-41.5 770,-41.5 "/>
<text text-anchor="start" x="643" y="-29.5" font-family="Helvetica,sans-Serif" font-size="10.00">+ LogFileViewerFactory()</text>
<text text-anchor="start" x="643" y="-18.5" font-family="Helvetica,sans-Serif" font-size="10.00">+ make()</text>
</a>
</g>
</g>
<!-- Node1&#45;&gt;Node6 -->
<g id="edge5" class="edge"><title>Node1&#45;&gt;Node6</title>
<path fill="none" stroke="midnightblue" d="M935.957,-137.586C887.788,-127.076 828.902,-111.671 778.5,-91 770.578,-87.751 762.485,-83.794 754.675,-79.5943"/>
<polygon fill="none" stroke="midnightblue" points="935.241,-141.012 945.753,-139.689 936.71,-134.168 935.241,-141.012"/>
</g>
<!-- Node7 -->
<g id="node7" class="node"><title>Node7</title>
<g id="a_node7"><a xlink:href="classcom_1_1tomoparts_1_1tomoBay_1_1presenters_1_1presenterActions_1_1factories_1_1MarkAsInvoicedFactory.html" target="_top" xlink:title="{MarkAsInvoicedFactory\n||+ MarkAsInvoicedFactory()\l+ make()\l}">
<polygon fill="white" stroke="black" points="788,-11.5 788,-79.5 933,-79.5 933,-11.5 788,-11.5"/>
<text text-anchor="middle" x="860.5" y="-67.5" font-family="Helvetica,sans-Serif" font-size="10.00">MarkAsInvoicedFactory</text>
<polyline fill="none" stroke="black" points="788,-60.5 933,-60.5 "/>
<text text-anchor="middle" x="860.5" y="-48.5" font-family="Helvetica,sans-Serif" font-size="10.00"> </text>
<polyline fill="none" stroke="black" points="788,-41.5 933,-41.5 "/>
<text text-anchor="start" x="796" y="-29.5" font-family="Helvetica,sans-Serif" font-size="10.00">+ MarkAsInvoicedFactory()</text>
<text text-anchor="start" x="796" y="-18.5" font-family="Helvetica,sans-Serif" font-size="10.00">+ make()</text>
</a>
</g>
</g>
<!-- Node1&#45;&gt;Node7 -->
<g id="edge6" class="edge"><title>Node1&#45;&gt;Node7</title>
<path fill="none" stroke="midnightblue" d="M978.654,-121.91C957.584,-108.463 933.292,-92.9585 912.234,-79.5186"/>
<polygon fill="none" stroke="midnightblue" points="976.849,-124.91 987.162,-127.34 980.615,-119.01 976.849,-124.91"/>
</g>
<!-- Node8 -->
<g id="node8" class="node"><title>Node8</title>
<g id="a_node8"><a xlink:href="classcom_1_1tomoparts_1_1tomoBay_1_1presenters_1_1presenterActions_1_1factories_1_1MarkAsUninvoicedFactory.html" target="_top" xlink:title="this is a factory that creates MarkAsUninvoiced objects ">
<polygon fill="white" stroke="black" points="951.5,-11.5 951.5,-79.5 1109.5,-79.5 1109.5,-11.5 951.5,-11.5"/>
<text text-anchor="middle" x="1030.5" y="-67.5" font-family="Helvetica,sans-Serif" font-size="10.00">MarkAsUninvoicedFactory</text>
<polyline fill="none" stroke="black" points="951.5,-60.5 1109.5,-60.5 "/>
<text text-anchor="middle" x="1030.5" y="-48.5" font-family="Helvetica,sans-Serif" font-size="10.00"> </text>
<polyline fill="none" stroke="black" points="951.5,-41.5 1109.5,-41.5 "/>
<text text-anchor="start" x="959.5" y="-29.5" font-family="Helvetica,sans-Serif" font-size="10.00">+ MarkAsUninvoicedFactory()</text>
<text text-anchor="start" x="959.5" y="-18.5" font-family="Helvetica,sans-Serif" font-size="10.00">+ make()</text>
</a>
</g>
</g>
<!-- Node1&#45;&gt;Node8 -->
<g id="edge7" class="edge"><title>Node1&#45;&gt;Node8</title>
<path fill="none" stroke="midnightblue" d="M1030.5,-116.987C1030.5,-104.771 1030.5,-91.3457 1030.5,-79.5186"/>
<polygon fill="none" stroke="midnightblue" points="1027,-117.34 1030.5,-127.34 1034,-117.34 1027,-117.34"/>
</g>
<!-- Node9 -->
<g id="node9" class="node"><title>Node9</title>
<g id="a_node9"><a xlink:href="classcom_1_1tomoparts_1_1tomoBay_1_1presenters_1_1presenterActions_1_1factories_1_1OrderInfoFactory.html" target="_top" xlink:title="{OrderInfoFactory\n||+ OrderInfoFactory()\l+ make()\l}">
<polygon fill="white" stroke="black" points="1127,-11.5 1127,-79.5 1242,-79.5 1242,-11.5 1127,-11.5"/>
<text text-anchor="middle" x="1184.5" y="-67.5" font-family="Helvetica,sans-Serif" font-size="10.00">OrderInfoFactory</text>
<polyline fill="none" stroke="black" points="1127,-60.5 1242,-60.5 "/>
<text text-anchor="middle" x="1184.5" y="-48.5" font-family="Helvetica,sans-Serif" font-size="10.00"> </text>
<polyline fill="none" stroke="black" points="1127,-41.5 1242,-41.5 "/>
<text text-anchor="start" x="1135" y="-29.5" font-family="Helvetica,sans-Serif" font-size="10.00">+ OrderInfoFactory()</text>
<text text-anchor="start" x="1135" y="-18.5" font-family="Helvetica,sans-Serif" font-size="10.00">+ make()</text>
</a>
</g>
</g>
<!-- Node1&#45;&gt;Node9 -->
<g id="edge8" class="edge"><title>Node1&#45;&gt;Node9</title>
<path fill="none" stroke="midnightblue" d="M1077.98,-121.551C1096.94,-108.187 1118.73,-92.839 1137.63,-79.5186"/>
<polygon fill="none" stroke="midnightblue" points="1075.92,-118.719 1069.76,-127.34 1079.95,-124.442 1075.92,-118.719"/>
</g>
<!-- Node10 -->
<g id="node10" class="node"><title>Node10</title>
<g id="a_node10"><a xlink:href="classcom_1_1tomoparts_1_1tomoBay_1_1presenters_1_1presenterActions_1_1factories_1_1PeriodicServicesControllerFactory.html" target="_top" xlink:title="this is a factory that creates PeriodicServicesController objects ">
<polygon fill="white" stroke="black" points="1260.5,-0.5 1260.5,-90.5 1412.5,-90.5 1412.5,-0.5 1260.5,-0.5"/>
<text text-anchor="start" x="1268.5" y="-78.5" font-family="Helvetica,sans-Serif" font-size="10.00">PeriodicServicesController</text>
<text text-anchor="middle" x="1336.5" y="-67.5" font-family="Helvetica,sans-Serif" font-size="10.00">Factory</text>
<polyline fill="none" stroke="black" points="1260.5,-60.5 1412.5,-60.5 "/>
<text text-anchor="middle" x="1336.5" y="-48.5" font-family="Helvetica,sans-Serif" font-size="10.00"> </text>
<polyline fill="none" stroke="black" points="1260.5,-41.5 1412.5,-41.5 "/>
<text text-anchor="start" x="1268.5" y="-29.5" font-family="Helvetica,sans-Serif" font-size="10.00">+ PeriodicServicesController</text>
<text text-anchor="start" x="1268.5" y="-18.5" font-family="Helvetica,sans-Serif" font-size="10.00">Factory()</text>
<text text-anchor="start" x="1268.5" y="-7.5" font-family="Helvetica,sans-Serif" font-size="10.00">+ make()</text>
</a>
</g>
</g>
<!-- Node1&#45;&gt;Node10 -->
<g id="edge9" class="edge"><title>Node1&#45;&gt;Node10</title>
<path fill="none" stroke="midnightblue" d="M1124.69,-132.194C1164.44,-121.427 1210.84,-107.339 1251.5,-91 1254.44,-89.82 1257.41,-88.57 1260.39,-87.2669"/>
<polygon fill="none" stroke="midnightblue" points="1123.76,-128.821 1115,-134.788 1125.57,-135.582 1123.76,-128.821"/>
</g>
<!-- Node11 -->
<g id="node11" class="node"><title>Node11</title>
<g id="a_node11"><a xlink:href="classcom_1_1tomoparts_1_1tomoBay_1_1presenters_1_1presenterActions_1_1factories_1_1PrintInvoicesFactory.html" target="_top" xlink:title="Copyright(C) 2015 Jan P.C. ">
<polygon fill="white" stroke="black" points="1431,-11.5 1431,-79.5 1562,-79.5 1562,-11.5 1431,-11.5"/>
<text text-anchor="middle" x="1496.5" y="-67.5" font-family="Helvetica,sans-Serif" font-size="10.00">PrintInvoicesFactory</text>
<polyline fill="none" stroke="black" points="1431,-60.5 1562,-60.5 "/>
<text text-anchor="middle" x="1496.5" y="-48.5" font-family="Helvetica,sans-Serif" font-size="10.00"> </text>
<polyline fill="none" stroke="black" points="1431,-41.5 1562,-41.5 "/>
<text text-anchor="start" x="1439" y="-29.5" font-family="Helvetica,sans-Serif" font-size="10.00">+ PrintInvoicesFactory()</text>
<text text-anchor="start" x="1439" y="-18.5" font-family="Helvetica,sans-Serif" font-size="10.00">+ make()</text>
</a>
</g>
</g>
<!-- Node1&#45;&gt;Node11 -->
<g id="edge10" class="edge"><title>Node1&#45;&gt;Node11</title>
<path fill="none" stroke="midnightblue" d="M1125.32,-149.389C1206.08,-142.3 1324.18,-126.402 1421.5,-91 1429.89,-87.9464 1438.4,-83.9367 1446.53,-79.5737"/>
<polygon fill="none" stroke="midnightblue" points="1124.83,-145.918 1115.16,-150.252 1125.42,-152.893 1124.83,-145.918"/>
</g>
<!-- Node12 -->
<g id="node12" class="node"><title>Node12</title>
<g id="a_node12"><a xlink:href="classcom_1_1tomoparts_1_1tomoBay_1_1presenters_1_1presenterActions_1_1factories_1_1ReScanBuyerFactory.html" target="_top" xlink:title="Copyright(C) 2015 Jan P.C. ">
<polygon fill="white" stroke="black" points="1580.5,-11.5 1580.5,-79.5 1714.5,-79.5 1714.5,-11.5 1580.5,-11.5"/>
<text text-anchor="middle" x="1647.5" y="-67.5" font-family="Helvetica,sans-Serif" font-size="10.00">ReScanBuyerFactory</text>
<polyline fill="none" stroke="black" points="1580.5,-60.5 1714.5,-60.5 "/>
<text text-anchor="middle" x="1647.5" y="-48.5" font-family="Helvetica,sans-Serif" font-size="10.00"> </text>
<polyline fill="none" stroke="black" points="1580.5,-41.5 1714.5,-41.5 "/>
<text text-anchor="start" x="1588.5" y="-29.5" font-family="Helvetica,sans-Serif" font-size="10.00">+ ReScanBuyerFactory()</text>
<text text-anchor="start" x="1588.5" y="-18.5" font-family="Helvetica,sans-Serif" font-size="10.00">+ make()</text>
</a>
</g>
</g>
<!-- Node1&#45;&gt;Node12 -->
<g id="edge11" class="edge"><title>Node1&#45;&gt;Node12</title>
<path fill="none" stroke="midnightblue" d="M1125.4,-155.42C1235.47,-153.278 1421.07,-141.473 1571.5,-91 1580.2,-88.0817 1588.99,-84.0869 1597.36,-79.6806"/>
<polygon fill="none" stroke="midnightblue" points="1125.25,-151.922 1115.31,-155.594 1125.37,-158.921 1125.25,-151.922"/>
</g>
<!-- Node13 -->
<g id="node13" class="node"><title>Node13</title>
<g id="a_node13"><a xlink:href="classcom_1_1tomoparts_1_1tomoBay_1_1presenters_1_1presenterActions_1_1factories_1_1ReScanListingFactory.html" target="_top" xlink:title="this is a factory that creates ReScanListing objects ">
<polygon fill="white" stroke="black" points="1733,-11.5 1733,-79.5 1870,-79.5 1870,-11.5 1733,-11.5"/>
<text text-anchor="middle" x="1801.5" y="-67.5" font-family="Helvetica,sans-Serif" font-size="10.00">ReScanListingFactory</text>
<polyline fill="none" stroke="black" points="1733,-60.5 1870,-60.5 "/>
<text text-anchor="middle" x="1801.5" y="-48.5" font-family="Helvetica,sans-Serif" font-size="10.00"> </text>
<polyline fill="none" stroke="black" points="1733,-41.5 1870,-41.5 "/>
<text text-anchor="start" x="1741" y="-29.5" font-family="Helvetica,sans-Serif" font-size="10.00">+ ReScanListingFactory()</text>
<text text-anchor="start" x="1741" y="-18.5" font-family="Helvetica,sans-Serif" font-size="10.00">+ make()</text>
</a>
</g>
</g>
<!-- Node1&#45;&gt;Node13 -->
<g id="edge12" class="edge"><title>Node1&#45;&gt;Node13</title>
<path fill="none" stroke="midnightblue" d="M1125.25,-151.214C1288.2,-143.879 1614.51,-125.347 1723.5,-91 1732.57,-88.1417 1741.75,-84.1189 1750.46,-79.6489"/>
<polygon fill="none" stroke="midnightblue" points="1125.07,-147.719 1115.24,-151.66 1125.38,-154.712 1125.07,-147.719"/>
</g>
<!-- Node14 -->
<g id="node14" class="node"><title>Node14</title>
<g id="a_node14"><a xlink:href="classcom_1_1tomoparts_1_1tomoBay_1_1presenters_1_1presenterActions_1_1factories_1_1StockReOrderAnalysisFactory.html" target="_top" xlink:title="{StockReOrderAnalysisFactory\n||+ StockReOrderAnalysisFactory()\l+ make()\l}">
<polygon fill="white" stroke="black" points="1888.5,-11.5 1888.5,-79.5 2064.5,-79.5 2064.5,-11.5 1888.5,-11.5"/>
<text text-anchor="middle" x="1976.5" y="-67.5" font-family="Helvetica,sans-Serif" font-size="10.00">StockReOrderAnalysisFactory</text>
<polyline fill="none" stroke="black" points="1888.5,-60.5 2064.5,-60.5 "/>
<text text-anchor="middle" x="1976.5" y="-48.5" font-family="Helvetica,sans-Serif" font-size="10.00"> </text>
<polyline fill="none" stroke="black" points="1888.5,-41.5 2064.5,-41.5 "/>
<text text-anchor="start" x="1896.5" y="-29.5" font-family="Helvetica,sans-Serif" font-size="10.00">+ StockReOrderAnalysisFactory()</text>
<text text-anchor="start" x="1896.5" y="-18.5" font-family="Helvetica,sans-Serif" font-size="10.00">+ make()</text>
</a>
</g>
</g>
<!-- Node1&#45;&gt;Node14 -->
<g id="edge13" class="edge"><title>Node1&#45;&gt;Node14</title>
<path fill="none" stroke="midnightblue" d="M1125.1,-152.081C1315.59,-145.513 1739.16,-127.236 1879.5,-91 1890.53,-88.1514 1901.86,-84.1032 1912.71,-79.5962"/>
<polygon fill="none" stroke="midnightblue" points="1124.97,-148.583 1115.1,-152.422 1125.21,-155.579 1124.97,-148.583"/>
</g>
</g>
</svg>
        <g id="navigator" transform="translate(0 0)" fill="#404254">
                <rect fill="#f2f5e9" fill-opacity="0.5" stroke="#606060" stroke-width=".5" x="0" y="0" width="60" height="60"/>
                <use id="zoomplus" xlink:href="#zoomPlus" x="17" y="9" onmousedown="handleZoom(evt,'in')"/>
                <use id="zoomminus" xlink:href="#zoomMin" x="42" y="9" onmousedown="handleZoom(evt,'out')"/>
                <use id="reset" xlink:href="#resetDef" x="30" y="36" onmousedown="handleReset()"/>
                <g id="arrowUp" xlink:href="#dirArrow" transform="translate(30 24)" onmousedown="handlePan(0,-1)">
                  <use xlink:href="#rim" fill="#404040">
                        <set attributeName="fill" to="#808080" begin="arrowUp.mouseover" end="arrowUp.mouseout"/>
                  </use>
                  <path fill="none" stroke="white" stroke-width="1.5" d="M0,-3.0v7 M-2.5,-0.5L0,-3.0L2.5,-0.5"/>
                </g>
                <g id="arrowRight" xlink:href="#dirArrow" transform="rotate(90) translate(36 -43)" onmousedown="handlePan(1,0)">
                  <use xlink:href="#rim" fill="#404040">
                        <set attributeName="fill" to="#808080" begin="arrowRight.mouseover" end="arrowRight.mouseout"/>
                  </use>
                  <path fill="none" stroke="white" stroke-width="1.5" d="M0,-3.0v7 M-2.5,-0.5L0,-3.0L2.5,-0.5"/>
                </g>
                <g id="arrowDown" xlink:href="#dirArrow" transform="rotate(180) translate(-30 -48)" onmousedown="handlePan(0,1)">
                  <use xlink:href="#rim" fill="#404040">
                        <set attributeName="fill" to="#808080" begin="arrowDown.mouseover" end="arrowDown.mouseout"/>
                  </use>
                  <path fill="none" stroke="white" stroke-width="1.5" d="M0,-3.0v7 M-2.5,-0.5L0,-3.0L2.5,-0.5"/>
                </g>
                <g id="arrowLeft" xlink:href="#dirArrow" transform="rotate(270) translate(-36 17)" onmousedown="handlePan(-1,0)">
                  <use xlink:href="#rim" fill="#404040">
                        <set attributeName="fill" to="#808080" begin="arrowLeft.mouseover" end="arrowLeft.mouseout"/>
                  </use>
                  <path fill="none" stroke="white" stroke-width="1.5" d="M0,-3.0v7 M-2.5,-0.5L0,-3.0L2.5,-0.5"/>
                </g>
        </g>
        <svg viewBox="0 0 15 15" width="100%" height="30px" preserveAspectRatio="xMaxYMin meet">
         <g id="arrow_out" transform="scale(0.3 0.3)">
          <a xlink:href="interfacecom_1_1tomoparts_1_1tomoBay_1_1presenters_1_1presenterActions_1_1factories_1_1AbstractP79fe2aaca361318d10f836aa7261ddeb_org.svg" target="_base">
           <rect id="button" ry="5" rx="5" y="6" x="6" height="38" width="38"
                fill="#f2f5e9" fill-opacity="0.5" stroke="#606060" stroke-width="1.0"/>
           <path id="arrow"
             d="M 11.500037,31.436501 C 11.940474,20.09759 22.043105,11.32322 32.158766,21.979434 L 37.068811,17.246167 C 37.068811,17.246167 37.088388,32 37.088388,32 L 22.160133,31.978069 C 22.160133,31.978069 26.997745,27.140456 26.997745,27.140456 C 18.528582,18.264221 13.291696,25.230495 11.500037,31.436501 z"
             style="fill:#404040;"/>
          </a>
         </g>
        </svg>
</svg>
