<?xml version="1.0" encoding="UTF-8" standalone="no"?>
<!DOCTYPE svg PUBLIC "-//W3C//DTD SVG 1.1//EN"
 "http://www.w3.org/Graphics/SVG/1.1/DTD/svg11.dtd">
<!-- Generated by graphviz version 2.38.0 (20140413.2041)
 -->
<!-- Title: dispatch Pages: 1 -->
<svg width="308pt" height="50pt"
 viewBox="0.00 0.00 308.00 50.00" xmlns="http://www.w3.org/2000/svg" xmlns:xlink="http://www.w3.org/1999/xlink">
<g id="graph0" class="graph" transform="scale(1 1) rotate(0) translate(4 46)">
<title>dispatch</title>
<polygon fill="white" stroke="none" points="-4,4 -4,-46 304,-46 304,4 -4,4"/>
<!-- Node1 -->
<g id="node1" class="node"><title>Node1</title>
<polygon fill="#bfbfbf" stroke="black" points="0,-11.5 0,-30.5 57,-30.5 57,-11.5 0,-11.5"/>
<text text-anchor="middle" x="28.5" y="-18.5" font-family="Helvetica,sans-Serif" font-size="10.00">dispatch</text>
</g>
<!-- Node2 -->
<g id="node2" class="node"><title>Node2</title>
<g id="a_node2"><a xlink:href="classcom_1_1tomoparts_1_1tomoBay_1_1model_1_1dataTypes_1_1conditionalStatement_1_1Conditional.html#acc90d5c562a7bb28b9568ec435cad043" target="_top" xlink:title="evaluate this conditional based on the Condition and Result objects passed as parameters to this meth...">
<polygon fill="white" stroke="black" points="93,-0.5 93,-41.5 300,-41.5 300,-0.5 93,-0.5"/>
<text text-anchor="start" x="101" y="-29.5" font-family="Helvetica,sans-Serif" font-size="10.00">com.tomoparts.tomoBay.model.data</text>
<text text-anchor="start" x="101" y="-18.5" font-family="Helvetica,sans-Serif" font-size="10.00">Types.conditionalStatement.Conditional</text>
<text text-anchor="middle" x="196.5" y="-7.5" font-family="Helvetica,sans-Serif" font-size="10.00">&lt; PickeableStatus &gt;::evaluate</text>
</a>
</g>
</g>
<!-- Node1&#45;&gt;Node2 -->
<g id="edge1" class="edge"><title>Node1&#45;&gt;Node2</title>
<path fill="none" stroke="midnightblue" d="M67.4492,-21C75.2832,-21 83.8853,-21 92.8097,-21"/>
<polygon fill="midnightblue" stroke="midnightblue" points="67.2847,-17.5001 57.2847,-21 67.2846,-24.5001 67.2847,-17.5001"/>
</g>
</g>
</svg>
