<?xml version="1.0" encoding="UTF-8" standalone="no"?>
<!DOCTYPE svg PUBLIC "-//W3C//DTD SVG 1.1//EN"
 "http://www.w3.org/Graphics/SVG/1.1/DTD/svg11.dtd">
<!-- Generated by graphviz version 2.38.0 (20140413.2041)
 -->
<!-- Title: AbstractPresenterFactory Pages: 1 -->
<!--zoomable 171 -->
<svg id="main" version="1.1" xmlns="http://www.w3.org/2000/svg" xmlns:xlink="http://www.w3.org/1999/xlink" xml:space="preserve" onload="init(evt)">
<style type="text/css"><![CDATA[
.edge:hover path { stroke: red; }
.edge:hover polygon { stroke: red; fill: red; }
]]></style>
<script type="text/javascript"><![CDATA[
var edges = document.getElementsByTagName('g');
if (edges && edges.length) {
  for (var i=0;i<edges.length;i++) {
    if (edges[i].id.substr(0,4)=='edge') {
      edges[i].setAttribute('class','edge');
    }
  }
}
]]></script>
        <defs>
                <circle id="rim" cx="0" cy="0" r="7"/>
                <circle id="rim2" cx="0" cy="0" r="3.5"/>
                <g id="zoomPlus">
                        <use xlink:href="#rim" fill="#404040">
                                <set attributeName="fill" to="#808080" begin="zoomplus.mouseover" end="zoomplus.mouseout"/>
                        </use>
                        <path d="M-4,0h8M0,-4v8" fill="none" stroke="white" stroke-width="1.5" pointer-events="none"/>
                </g>
                <g id="zoomMin">
                        <use xlink:href="#rim" fill="#404040">
                                <set attributeName="fill" to="#808080" begin="zoomminus.mouseover" end="zoomminus.mouseout"/>
                        </use>
                        <path d="M-4,0h8" fill="none" stroke="white" stroke-width="1.5" pointer-events="none"/>
                </g>
                <g id="dirArrow">
                        <path fill="none" stroke="white" stroke-width="1.5" d="M0,-3.0v7 M-2.5,-0.5L0,-3.0L2.5,-0.5"/>
                </g>
               <g id="resetDef">
                       <use xlink:href="#rim2" fill="#404040">
                               <set attributeName="fill" to="#808080" begin="reset.mouseover" end="reset.mouseout"/>
                       </use>
               </g>
        </defs>

<script type="text/javascript">
var viewWidth = 1604;
var viewHeight = 171;
var sectionId = 'dynsection-0';
</script>
<script xlink:href="svgpan.js"/>
<svg id="graph" class="graph">
<g id="viewport">
<title>AbstractPresenterFactory</title>
<polygon fill="white" stroke="none" points="-4,4 -4,-167 1600,-167 1600,4 -4,4"/>
<!-- Node1 -->
<g id="node1" class="node"><title>Node1</title>
<polygon fill="#bfbfbf" stroke="black" points="743.5,-105.5 743.5,-162.5 882.5,-162.5 882.5,-105.5 743.5,-105.5"/>
<text text-anchor="middle" x="813" y="-150.5" font-family="Helvetica,sans-Serif" font-size="10.00">AbstractPresenterFactory</text>
<polyline fill="none" stroke="black" points="743.5,-143.5 882.5,-143.5 "/>
<text text-anchor="middle" x="813" y="-131.5" font-family="Helvetica,sans-Serif" font-size="10.00"> </text>
<polyline fill="none" stroke="black" points="743.5,-124.5 882.5,-124.5 "/>
<text text-anchor="start" x="751.5" y="-112.5" font-family="Helvetica,sans-Serif" font-size="10.00">+ make()</text>
</g>
<!-- Node2 -->
<g id="node2" class="node"><title>Node2</title>
<g id="a_node2"><a xlink:href="classcom_1_1tomoparts_1_1tomoBay_1_1presenters_1_1factories_1_1AdminServicePresenterFactory.html" target="_top" xlink:title="Copyright(C) 2015 Jan P.C. ">
<polygon fill="white" stroke="black" points="0,-6 0,-63 164,-63 164,-6 0,-6"/>
<text text-anchor="middle" x="82" y="-51" font-family="Helvetica,sans-Serif" font-size="10.00">AdminServicePresenterFactory</text>
<polyline fill="none" stroke="black" points="0,-44 164,-44 "/>
<text text-anchor="middle" x="82" y="-32" font-family="Helvetica,sans-Serif" font-size="10.00"> </text>
<polyline fill="none" stroke="black" points="0,-25 164,-25 "/>
<text text-anchor="start" x="8" y="-13" font-family="Helvetica,sans-Serif" font-size="10.00">+ make()</text>
</a>
</g>
</g>
<!-- Node1&#45;&gt;Node2 -->
<g id="edge1" class="edge"><title>Node1&#45;&gt;Node2</title>
<path fill="none" stroke="midnightblue" d="M733.394,-131.482C611.319,-127.717 371.195,-114.613 173,-69 165.863,-67.3575 158.524,-65.306 151.258,-63.0318"/>
<polygon fill="none" stroke="midnightblue" points="733.307,-134.981 743.406,-131.778 733.514,-127.984 733.307,-134.981"/>
</g>
<!-- Node3 -->
<g id="node3" class="node"><title>Node3</title>
<g id="a_node3"><a xlink:href="classcom_1_1tomoparts_1_1tomoBay_1_1presenters_1_1factories_1_1CRMDetailPresenterFactory.html" target="_top" xlink:title="Copyright(C) 2015 Jan P.C. ">
<polygon fill="white" stroke="black" points="182,-0.5 182,-68.5 348,-68.5 348,-0.5 182,-0.5"/>
<text text-anchor="middle" x="265" y="-56.5" font-family="Helvetica,sans-Serif" font-size="10.00">CRMDetailPresenterFactory</text>
<polyline fill="none" stroke="black" points="182,-49.5 348,-49.5 "/>
<text text-anchor="middle" x="265" y="-37.5" font-family="Helvetica,sans-Serif" font-size="10.00"> </text>
<polyline fill="none" stroke="black" points="182,-30.5 348,-30.5 "/>
<text text-anchor="start" x="190" y="-18.5" font-family="Helvetica,sans-Serif" font-size="10.00">+ CRMDetailPresenterFactory()</text>
<text text-anchor="start" x="190" y="-7.5" font-family="Helvetica,sans-Serif" font-size="10.00">+ make()</text>
</a>
</g>
</g>
<!-- Node1&#45;&gt;Node3 -->
<g id="edge2" class="edge"><title>Node1&#45;&gt;Node3</title>
<path fill="none" stroke="midnightblue" d="M733.329,-126.916C641.55,-118.738 486.718,-101.339 357,-69 354.031,-68.2599 351.025,-67.4582 348.001,-66.6073"/>
<polygon fill="none" stroke="midnightblue" points="733.113,-130.411 743.381,-127.797 733.725,-123.437 733.113,-130.411"/>
</g>
<!-- Node4 -->
<g id="node4" class="node"><title>Node4</title>
<g id="a_node4"><a xlink:href="classcom_1_1tomoparts_1_1tomoBay_1_1presenters_1_1factories_1_1CRMOverviewPresenterFactory.html" target="_top" xlink:title="Copyright(C) 2015 Jan P.C. ">
<polygon fill="white" stroke="black" points="366.5,-0.5 366.5,-68.5 547.5,-68.5 547.5,-0.5 366.5,-0.5"/>
<text text-anchor="middle" x="457" y="-56.5" font-family="Helvetica,sans-Serif" font-size="10.00">CRMOverviewPresenterFactory</text>
<polyline fill="none" stroke="black" points="366.5,-49.5 547.5,-49.5 "/>
<text text-anchor="middle" x="457" y="-37.5" font-family="Helvetica,sans-Serif" font-size="10.00"> </text>
<polyline fill="none" stroke="black" points="366.5,-30.5 547.5,-30.5 "/>
<text text-anchor="start" x="374.5" y="-18.5" font-family="Helvetica,sans-Serif" font-size="10.00">+ CRMOverviewPresenterFactory()</text>
<text text-anchor="start" x="374.5" y="-7.5" font-family="Helvetica,sans-Serif" font-size="10.00">+ make()</text>
</a>
</g>
</g>
<!-- Node1&#45;&gt;Node4 -->
<g id="edge3" class="edge"><title>Node1&#45;&gt;Node4</title>
<path fill="none" stroke="midnightblue" d="M733.412,-114.8C682.662,-102.776 615.646,-86.1254 557,-69 553.924,-68.1019 550.802,-67.17 547.653,-66.2131"/>
<polygon fill="none" stroke="midnightblue" points="732.802,-118.252 743.338,-117.141 734.409,-111.439 732.802,-118.252"/>
</g>
<!-- Node5 -->
<g id="node5" class="node"><title>Node5</title>
<g id="a_node5"><a xlink:href="classcom_1_1tomoparts_1_1tomoBay_1_1presenters_1_1factories_1_1ErrorPresenterFactory.html" target="_top" xlink:title="This class is creates an ErrorPresenter object. ">
<polygon fill="white" stroke="black" points="566,-0.5 566,-68.5 706,-68.5 706,-0.5 566,-0.5"/>
<text text-anchor="middle" x="636" y="-56.5" font-family="Helvetica,sans-Serif" font-size="10.00">ErrorPresenterFactory</text>
<polyline fill="none" stroke="black" points="566,-49.5 706,-49.5 "/>
<text text-anchor="middle" x="636" y="-37.5" font-family="Helvetica,sans-Serif" font-size="10.00"> </text>
<polyline fill="none" stroke="black" points="566,-30.5 706,-30.5 "/>
<text text-anchor="start" x="574" y="-18.5" font-family="Helvetica,sans-Serif" font-size="10.00">+ ErrorPresenterFactory()</text>
<text text-anchor="start" x="574" y="-7.5" font-family="Helvetica,sans-Serif" font-size="10.00">+ make()</text>
</a>
</g>
</g>
<!-- Node1&#45;&gt;Node5 -->
<g id="edge4" class="edge"><title>Node1&#45;&gt;Node5</title>
<path fill="none" stroke="midnightblue" d="M753.81,-100.395C735.243,-90.1677 714.735,-78.8712 696.105,-68.609"/>
<polygon fill="none" stroke="midnightblue" points="752.305,-103.562 762.752,-105.321 755.682,-97.4306 752.305,-103.562"/>
</g>
<!-- Node6 -->
<g id="node6" class="node"><title>Node6</title>
<g id="a_node6"><a xlink:href="classcom_1_1tomoparts_1_1tomoBay_1_1presenters_1_1factories_1_1OrderDetailsPresenterFactory.html" target="_top" xlink:title="{OrderDetailsPresenterFactory\n||+ OrderDetailsPresenterFactory()\l+ make()\l}">
<polygon fill="white" stroke="black" points="724.5,-0.5 724.5,-68.5 901.5,-68.5 901.5,-0.5 724.5,-0.5"/>
<text text-anchor="middle" x="813" y="-56.5" font-family="Helvetica,sans-Serif" font-size="10.00">OrderDetailsPresenterFactory</text>
<polyline fill="none" stroke="black" points="724.5,-49.5 901.5,-49.5 "/>
<text text-anchor="middle" x="813" y="-37.5" font-family="Helvetica,sans-Serif" font-size="10.00"> </text>
<polyline fill="none" stroke="black" points="724.5,-30.5 901.5,-30.5 "/>
<text text-anchor="start" x="732.5" y="-18.5" font-family="Helvetica,sans-Serif" font-size="10.00">+ OrderDetailsPresenterFactory()</text>
<text text-anchor="start" x="732.5" y="-7.5" font-family="Helvetica,sans-Serif" font-size="10.00">+ make()</text>
</a>
</g>
</g>
<!-- Node1&#45;&gt;Node6 -->
<g id="edge5" class="edge"><title>Node1&#45;&gt;Node6</title>
<path fill="none" stroke="midnightblue" d="M813,-95.0631C813,-86.3933 813,-77.2431 813,-68.7855"/>
<polygon fill="none" stroke="midnightblue" points="809.5,-95.3212 813,-105.321 816.5,-95.3212 809.5,-95.3212"/>
</g>
<!-- Node7 -->
<g id="node7" class="node"><title>Node7</title>
<g id="a_node7"><a xlink:href="classcom_1_1tomoparts_1_1tomoBay_1_1presenters_1_1factories_1_1OutOfHoursPresenterFactory.html" target="_top" xlink:title="Copyright(C) 2015 Jan P.C. ">
<polygon fill="white" stroke="black" points="919.5,-6 919.5,-63 1074.5,-63 1074.5,-6 919.5,-6"/>
<text text-anchor="middle" x="997" y="-51" font-family="Helvetica,sans-Serif" font-size="10.00">OutOfHoursPresenterFactory</text>
<polyline fill="none" stroke="black" points="919.5,-44 1074.5,-44 "/>
<text text-anchor="middle" x="997" y="-32" font-family="Helvetica,sans-Serif" font-size="10.00"> </text>
<polyline fill="none" stroke="black" points="919.5,-25 1074.5,-25 "/>
<text text-anchor="start" x="927.5" y="-13" font-family="Helvetica,sans-Serif" font-size="10.00">+ make()</text>
</a>
</g>
</g>
<!-- Node1&#45;&gt;Node7 -->
<g id="edge6" class="edge"><title>Node1&#45;&gt;Node7</title>
<path fill="none" stroke="midnightblue" d="M874.196,-100.573C897.122,-88.4245 922.933,-74.7476 944.953,-63.0791"/>
<polygon fill="none" stroke="midnightblue" points="872.432,-97.5463 865.235,-105.321 875.71,-103.732 872.432,-97.5463"/>
</g>
<!-- Node8 -->
<g id="node8" class="node"><title>Node8</title>
<g id="a_node8"><a xlink:href="classcom_1_1tomoparts_1_1tomoBay_1_1presenters_1_1factories_1_1RootPresenterFactory.html" target="_top" xlink:title="This class is creates an RootPresenter object. ">
<polygon fill="white" stroke="black" points="1092.5,-0.5 1092.5,-68.5 1231.5,-68.5 1231.5,-0.5 1092.5,-0.5"/>
<text text-anchor="middle" x="1162" y="-56.5" font-family="Helvetica,sans-Serif" font-size="10.00">RootPresenterFactory</text>
<polyline fill="none" stroke="black" points="1092.5,-49.5 1231.5,-49.5 "/>
<text text-anchor="middle" x="1162" y="-37.5" font-family="Helvetica,sans-Serif" font-size="10.00"> </text>
<polyline fill="none" stroke="black" points="1092.5,-30.5 1231.5,-30.5 "/>
<text text-anchor="start" x="1100.5" y="-18.5" font-family="Helvetica,sans-Serif" font-size="10.00">+ RootPresenterFactory()</text>
<text text-anchor="start" x="1100.5" y="-7.5" font-family="Helvetica,sans-Serif" font-size="10.00">+ make()</text>
</a>
</g>
</g>
<!-- Node1&#45;&gt;Node8 -->
<g id="edge7" class="edge"><title>Node1&#45;&gt;Node8</title>
<path fill="none" stroke="midnightblue" d="M892.653,-117.992C947.19,-106.795 1020.79,-89.8606 1084,-69 1086.8,-68.0762 1089.64,-67.0922 1092.49,-66.0632"/>
<polygon fill="none" stroke="midnightblue" points="891.801,-114.593 882.698,-120.015 893.195,-121.453 891.801,-114.593"/>
</g>
<!-- Node9 -->
<g id="node9" class="node"><title>Node9</title>
<g id="a_node9"><a xlink:href="classcom_1_1tomoparts_1_1tomoBay_1_1presenters_1_1factories_1_1SalesHistoryPresenterFactory.html" target="_top" xlink:title="Copyright(C) 2015 Jan P.C. ">
<polygon fill="white" stroke="black" points="1250,-6 1250,-63 1408,-63 1408,-6 1250,-6"/>
<text text-anchor="middle" x="1329" y="-51" font-family="Helvetica,sans-Serif" font-size="10.00">SalesHistoryPresenterFactory</text>
<polyline fill="none" stroke="black" points="1250,-44 1408,-44 "/>
<text text-anchor="middle" x="1329" y="-32" font-family="Helvetica,sans-Serif" font-size="10.00"> </text>
<polyline fill="none" stroke="black" points="1250,-25 1408,-25 "/>
<text text-anchor="start" x="1258" y="-13" font-family="Helvetica,sans-Serif" font-size="10.00">+ make()</text>
</a>
</g>
</g>
<!-- Node1&#45;&gt;Node9 -->
<g id="edge8" class="edge"><title>Node1&#45;&gt;Node9</title>
<path fill="none" stroke="midnightblue" d="M892.906,-126.238C979.664,-117.699 1121.8,-100.212 1241,-69 1247.48,-67.3023 1254.15,-65.2891 1260.77,-63.105"/>
<polygon fill="none" stroke="midnightblue" points="892.482,-122.762 882.866,-127.21 893.157,-129.73 892.482,-122.762"/>
</g>
<!-- Node10 -->
<g id="node10" class="node"><title>Node10</title>
<g id="a_node10"><a xlink:href="classcom_1_1tomoparts_1_1tomoBay_1_1presenters_1_1factories_1_1SalesOrderPresenterFactory.html" target="_top" xlink:title="This class is creates an SalesOrderPresenter object. ">
<polygon fill="white" stroke="black" points="1426,-0.5 1426,-68.5 1596,-68.5 1596,-0.5 1426,-0.5"/>
<text text-anchor="middle" x="1511" y="-56.5" font-family="Helvetica,sans-Serif" font-size="10.00">SalesOrderPresenterFactory</text>
<polyline fill="none" stroke="black" points="1426,-49.5 1596,-49.5 "/>
<text text-anchor="middle" x="1511" y="-37.5" font-family="Helvetica,sans-Serif" font-size="10.00"> </text>
<polyline fill="none" stroke="black" points="1426,-30.5 1596,-30.5 "/>
<text text-anchor="start" x="1434" y="-18.5" font-family="Helvetica,sans-Serif" font-size="10.00">+ SalesOrderPresenterFactory()</text>
<text text-anchor="start" x="1434" y="-7.5" font-family="Helvetica,sans-Serif" font-size="10.00">+ make()</text>
</a>
</g>
</g>
<!-- Node1&#45;&gt;Node10 -->
<g id="edge9" class="edge"><title>Node1&#45;&gt;Node10</title>
<path fill="none" stroke="midnightblue" d="M892.977,-130.539C1009.55,-125.602 1232.37,-111.056 1417,-69 1419.96,-68.3267 1422.95,-67.5888 1425.96,-66.7985"/>
<polygon fill="none" stroke="midnightblue" points="892.564,-127.052 882.716,-130.96 892.851,-134.047 892.564,-127.052"/>
</g>
</g>
</svg>
        <g id="navigator" transform="translate(0 0)" fill="#404254">
                <rect fill="#f2f5e9" fill-opacity="0.5" stroke="#606060" stroke-width=".5" x="0" y="0" width="60" height="60"/>
                <use id="zoomplus" xlink:href="#zoomPlus" x="17" y="9" onmousedown="handleZoom(evt,'in')"/>
                <use id="zoomminus" xlink:href="#zoomMin" x="42" y="9" onmousedown="handleZoom(evt,'out')"/>
                <use id="reset" xlink:href="#resetDef" x="30" y="36" onmousedown="handleReset()"/>
                <g id="arrowUp" xlink:href="#dirArrow" transform="translate(30 24)" onmousedown="handlePan(0,-1)">
                  <use xlink:href="#rim" fill="#404040">
                        <set attributeName="fill" to="#808080" begin="arrowUp.mouseover" end="arrowUp.mouseout"/>
                  </use>
                  <path fill="none" stroke="white" stroke-width="1.5" d="M0,-3.0v7 M-2.5,-0.5L0,-3.0L2.5,-0.5"/>
                </g>
                <g id="arrowRight" xlink:href="#dirArrow" transform="rotate(90) translate(36 -43)" onmousedown="handlePan(1,0)">
                  <use xlink:href="#rim" fill="#404040">
                        <set attributeName="fill" to="#808080" begin="arrowRight.mouseover" end="arrowRight.mouseout"/>
                  </use>
                  <path fill="none" stroke="white" stroke-width="1.5" d="M0,-3.0v7 M-2.5,-0.5L0,-3.0L2.5,-0.5"/>
                </g>
                <g id="arrowDown" xlink:href="#dirArrow" transform="rotate(180) translate(-30 -48)" onmousedown="handlePan(0,1)">
                  <use xlink:href="#rim" fill="#404040">
                        <set attributeName="fill" to="#808080" begin="arrowDown.mouseover" end="arrowDown.mouseout"/>
                  </use>
                  <path fill="none" stroke="white" stroke-width="1.5" d="M0,-3.0v7 M-2.5,-0.5L0,-3.0L2.5,-0.5"/>
                </g>
                <g id="arrowLeft" xlink:href="#dirArrow" transform="rotate(270) translate(-36 17)" onmousedown="handlePan(-1,0)">
                  <use xlink:href="#rim" fill="#404040">
                        <set attributeName="fill" to="#808080" begin="arrowLeft.mouseover" end="arrowLeft.mouseout"/>
                  </use>
                  <path fill="none" stroke="white" stroke-width="1.5" d="M0,-3.0v7 M-2.5,-0.5L0,-3.0L2.5,-0.5"/>
                </g>
        </g>
        <svg viewBox="0 0 15 15" width="100%" height="30px" preserveAspectRatio="xMaxYMin meet">
         <g id="arrow_out" transform="scale(0.3 0.3)">
          <a xlink:href="interfacecom_1_1tomoparts_1_1tomoBay_1_1presenters_1_1factories_1_1AbstractPresenterFactory__inherit__graph_org.svg" target="_base">
           <rect id="button" ry="5" rx="5" y="6" x="6" height="38" width="38"
                fill="#f2f5e9" fill-opacity="0.5" stroke="#606060" stroke-width="1.0"/>
           <path id="arrow"
             d="M 11.500037,31.436501 C 11.940474,20.09759 22.043105,11.32322 32.158766,21.979434 L 37.068811,17.246167 C 37.068811,17.246167 37.088388,32 37.088388,32 L 22.160133,31.978069 C 22.160133,31.978069 26.997745,27.140456 26.997745,27.140456 C 18.528582,18.264221 13.291696,25.230495 11.500037,31.436501 z"
             style="fill:#404040;"/>
          </a>
         </g>
        </svg>
</svg>
